<svg width="8" height="8" viewBox="0 0 8 8" fill="none" xmlns="http://www.w3.org/2000/svg">
<path d="M7.15396 7.85484C7.34751 8.04839 7.6613 8.04839 7.85484 7.85484C8.04839 7.6613 8.04839 7.34751 7.85484 7.15396L4.70125 4.00037L7.85484 0.846787C8.04839 0.653244 8.04839 0.339449 7.85484 0.145906C7.6613 -0.0476366 7.34751 -0.0476366 7.15396 0.145906L4.00037 3.29949L0.846038 0.145157C0.652496 -0.0483856 0.3387 -0.0483858 0.145158 0.145157C-0.0483852 0.3387 -0.048385 0.652495 0.145158 0.846038L3.29949 4.00037L0.145157 7.15471C-0.0483856 7.34825 -0.0483858 7.66205 0.145157 7.85559C0.3387 8.04914 0.652495 8.04913 0.846038 7.85559L4.00037 4.70125L7.15396 7.85484Z" fill="#9E9E9E"/>
</svg>
