<svg width="9" height="10" viewBox="0 0 9 10" fill="none" xmlns="http://www.w3.org/2000/svg">
<path fill-rule="evenodd" clip-rule="evenodd" d="M1 4.99902C1.27614 4.99902 1.5 5.22288 1.5 5.49902V8.4992H7.50037V5.49902C7.50037 5.22288 7.72423 4.99902 8.00037 4.99902C8.27651 4.99902 8.50037 5.22288 8.50037 5.49902V8.4992C8.50037 9.0515 8.05265 9.4992 7.50037 9.4992H1.5C0.947724 9.4992 0.5 9.0515 0.5 8.4992V5.49902C0.5 5.22288 0.723858 4.99902 1 4.99902Z" fill="#2A2921"/>
<path fill-rule="evenodd" clip-rule="evenodd" d="M4.83023 0.624038C4.79516 0.593212 4.75661 0.56804 4.71585 0.548623C4.70175 0.541883 4.68741 0.53585 4.67289 0.53052C4.64255 0.519378 4.61084 0.511092 4.57806 0.505989C4.55234 0.501976 4.5264 0.499987 4.50049 0.5C4.4746 0.499988 4.44867 0.501978 4.42296 0.505989C4.37815 0.512979 4.33255 0.52679 4.29039 0.54617C4.28816 0.547197 4.28739 0.547561 4.28517 0.548623C4.24441 0.568039 4.20586 0.593212 4.1708 0.624038L2.07691 2.40067C1.86635 2.57932 1.84049 2.89485 2.01915 3.10541C2.1978 3.31597 2.51333 3.34183 2.72389 3.16317L4.00051 2.07998V5.90026C4.00051 6.1764 4.22437 6.40026 4.50051 6.40026C4.77665 6.40026 5.00051 6.1764 5.00051 5.90026V2.07998L6.27713 3.16317C6.48769 3.34183 6.80322 3.31597 6.98188 3.10541C7.16053 2.89485 7.13467 2.57932 6.92411 2.40067L4.83023 0.624038Z" fill="#2A2921"/>
</svg>
