<svg width="169" height="136" viewBox="0 0 169 136" fill="none" xmlns="http://www.w3.org/2000/svg">
<path d="M44.98 76.9694C40.5067 76.9694 36.4367 76.0894 32.77 74.3294C29.1767 72.4961 26.3167 69.7094 24.19 65.9694C22.0633 62.2294 21 57.4627 21 51.6694C21 46.2427 22.1 41.5494 24.3 37.5894C26.5 33.6294 29.3967 30.5861 32.99 28.4594C36.5833 26.2594 40.3967 25.1594 44.43 25.1594C49.1967 25.1594 52.79 25.9294 55.21 27.4694C57.7033 29.0094 59.6833 30.6961 61.15 32.5294L62.14 27.5794H76.44V75.6494H61.04V69.7094C60.3067 70.4427 59.2067 71.3961 57.74 72.5694C56.3467 73.7427 54.5867 74.7694 52.46 75.6494C50.3333 76.5294 47.84 76.9694 44.98 76.9694ZM49.38 64.4294C54.7333 64.4294 58.62 62.0094 61.04 57.1694V45.3994C60.16 43.0527 58.62 41.1827 56.42 39.7894C54.2933 38.3961 51.7633 37.6994 48.83 37.6994C45.53 37.6994 42.67 38.9461 40.25 41.4394C37.83 43.8594 36.62 47.0127 36.62 50.8994C36.62 53.4661 37.2067 55.7761 38.38 57.8294C39.5533 59.8827 41.0933 61.4961 43 62.6694C44.98 63.8427 47.1067 64.4294 49.38 64.4294Z" fill="#2A2921"/>
<path d="M113.448 25C116.886 25 119.965 25.4476 122.686 26.3428C125.408 27.238 127.682 28.5449 129.508 30.2637C131.764 30.1921 133.912 30.0667 135.953 29.8877C138.03 29.7087 140.25 29.6191 142.613 29.6191C143.437 29.6191 144.099 29.6549 144.6 29.7266C145.138 29.7624 145.549 29.8519 145.836 29.9951C146.122 30.1025 146.337 30.2637 146.48 30.4785C146.624 30.6576 146.731 30.8903 146.803 31.1768C147.053 32.0719 147.232 32.8776 147.34 33.5938C147.447 34.3099 147.501 35.0439 147.501 35.7959C147.501 36.4046 147.268 36.8164 146.803 37.0312C146.373 37.2103 145.478 37.2998 144.117 37.2998H134.288C134.789 38.1234 135.273 39.0902 135.738 40.2002C136.239 41.3102 136.49 42.7246 136.49 44.4434C136.49 46.9141 135.935 49.3311 134.825 51.6943C133.715 54.0218 132.086 56.0807 129.937 57.8711C127.789 59.6615 125.157 61.1117 122.042 62.2217C118.962 63.2959 115.435 63.833 111.461 63.833C110.243 63.833 109.259 63.7972 108.507 63.7256C107.755 63.6182 106.967 63.457 106.143 63.2422C105.642 63.6719 105.016 64.0658 104.264 64.4238C103.512 64.7461 102.778 65.1221 102.061 65.5518C101.345 65.9814 100.737 66.4827 100.235 67.0557C99.7339 67.5928 99.4833 68.291 99.4833 69.1504C99.4833 70.6543 100.79 71.7464 103.404 72.4268C106.054 73.0713 110.315 73.4115 116.187 73.4473C120.663 73.4831 124.727 73.6084 128.38 73.8232C132.068 74.0381 135.219 74.611 137.833 75.542C140.447 76.4372 142.47 77.8337 143.902 79.7314C145.335 81.665 146.051 84.3506 146.051 87.7881C146.051 89.2204 145.71 90.7601 145.03 92.4072C144.35 94.0902 143.311 95.7552 141.915 97.4023C140.554 99.0495 138.835 100.625 136.759 102.129C134.682 103.669 132.229 105.011 129.4 106.157C126.607 107.339 123.438 108.27 119.893 108.95C116.349 109.666 112.446 110.024 108.184 110.024C104.425 110.024 101.148 109.648 98.3554 108.896C95.5624 108.18 93.2528 107.214 91.4266 105.996C89.6005 104.779 88.2219 103.382 87.2909 101.807C86.3957 100.267 85.9481 98.6735 85.9481 97.0264C85.9481 95.7731 86.1988 94.6452 86.7001 93.6426C87.2014 92.64 87.8638 91.709 88.6874 90.8496C89.511 90.026 90.424 89.2383 91.4266 88.4863C92.4651 87.7702 93.5035 87.0182 94.5419 86.2305C95.5803 85.4785 96.5829 84.6729 97.5497 83.8135C98.5165 82.9899 99.358 82.041 100.074 80.9668C98.1763 80.7161 96.4397 80.2686 94.8641 79.624C93.3244 78.9795 91.9996 78.2275 90.8895 77.3682C89.8153 76.5088 88.9738 75.5778 88.3651 74.5752C87.7564 73.5368 87.452 72.4984 87.452 71.46C87.452 70.4932 87.7027 69.6517 88.204 68.9355C88.7411 68.2194 89.4214 67.5928 90.245 67.0557C91.1044 66.4827 92.0712 65.9635 93.1454 65.498C94.2196 65.0326 95.3296 64.585 96.4755 64.1553C97.1916 63.8688 97.9436 63.5645 98.7313 63.2422C99.5549 62.8841 100.396 62.4007 101.256 61.792C96.9947 60.0732 93.772 57.8353 91.5878 55.0781C89.4035 52.321 88.3114 49.1341 88.3114 45.5176C88.3114 42.653 88.9559 39.9674 90.245 37.4609C91.5341 34.9544 93.3065 32.7881 95.5624 30.9619C97.8182 29.0999 100.468 27.6497 103.512 26.6113C106.591 25.5371 109.903 25 113.448 25ZM98.1942 92.6221C98.1942 94.126 98.6418 95.6299 99.537 97.1338C100.468 98.6735 101.703 100.052 103.243 101.27C104.819 102.487 106.663 103.472 108.775 104.224C110.888 105.011 113.144 105.405 115.543 105.405C118.049 105.405 120.484 104.976 122.848 104.116C125.211 103.293 127.306 102.183 129.132 100.786C130.958 99.3896 132.426 97.7604 133.536 95.8984C134.646 94.0723 135.201 92.1566 135.201 90.1514C135.201 88.9697 135.004 87.9313 134.61 87.0361C134.252 86.1409 133.751 85.389 133.106 84.7803C132.462 84.1716 131.71 83.6882 130.85 83.3301C129.991 82.972 129.096 82.7572 128.165 82.6855C127.413 82.6139 126.16 82.5423 124.405 82.4707C122.651 82.4349 120.681 82.3812 118.497 82.3096C117.172 82.2738 115.865 82.238 114.576 82.2021C113.287 82.2021 112.087 82.1842 110.977 82.1484C109.903 82.1126 108.919 82.0768 108.023 82.041C107.164 82.0052 106.484 81.9515 105.982 81.8799C105.302 82.6676 104.514 83.4017 103.619 84.082C102.724 84.7982 101.864 85.5501 101.041 86.3379C100.253 87.1615 99.5728 88.0745 98.9999 89.0771C98.4628 90.0798 98.1942 91.2614 98.1942 92.6221ZM123.599 45.625C123.599 42.8678 123.313 40.415 122.74 38.2666C122.167 36.0824 121.344 34.2562 120.269 32.7881C119.231 31.2842 117.996 30.1562 116.563 29.4043C115.131 28.6165 113.556 28.2227 111.837 28.2227C110.798 28.2227 109.653 28.4375 108.399 28.8672C107.182 29.2611 106.036 30.013 104.962 31.123C103.888 32.1973 102.992 33.6833 102.276 35.5811C101.56 37.4788 101.202 39.9137 101.202 42.8857C101.202 44.7835 101.417 46.7708 101.847 48.8477C102.276 50.9245 102.957 52.8402 103.888 54.5947C104.854 56.3493 106.09 57.7995 107.594 58.9453C109.098 60.0553 110.924 60.6104 113.072 60.6104C114.683 60.6104 116.134 60.2523 117.423 59.5361C118.712 58.7842 119.804 57.7637 120.699 56.4746C121.63 55.1497 122.346 53.5742 122.848 51.748C123.349 49.8861 123.599 47.8451 123.599 45.625Z" fill="#2A2921"/>
</svg>
