<svg width="169" height="136" viewBox="0 0 169 136" fill="none" xmlns="http://www.w3.org/2000/svg">
<path d="M48.98 89.08C44.5067 89.08 40.4367 88.2 36.77 86.44C33.1767 84.6067 30.3167 81.82 28.19 78.08C26.0633 74.34 25 69.5733 25 63.78C25 58.3533 26.1 53.66 28.3 49.7C30.5 45.74 33.3967 42.6967 36.99 40.57C40.5833 38.37 44.3967 37.27 48.43 37.27C53.1967 37.27 56.79 38.04 59.21 39.58C61.7033 41.12 63.6833 42.8067 65.15 44.64L66.14 39.69H80.44V87.76H65.04V81.82C64.3067 82.5533 63.2067 83.5067 61.74 84.68C60.3467 85.8533 58.5867 86.88 56.46 87.76C54.3333 88.64 51.84 89.08 48.98 89.08ZM53.38 76.54C58.7333 76.54 62.62 74.12 65.04 69.28V57.51C64.16 55.1633 62.62 53.2933 60.42 51.9C58.2933 50.5067 55.7633 49.81 52.83 49.81C49.53 49.81 46.67 51.0567 44.25 53.55C41.83 55.97 40.62 59.1233 40.62 63.01C40.62 65.5767 41.2067 67.8867 42.38 69.94C43.5533 71.9933 45.0933 73.6067 47 74.78C48.98 75.9533 51.1067 76.54 53.38 76.54Z" fill="#2A2921"/>
<path d="M131.398 29.68L134.478 27.81C134.918 25.5367 134.038 24.4 131.838 24.4C128.685 24.4 127.108 26.82 127.108 31.66C127.108 33.5667 127.365 35.7667 127.878 38.26C133.452 42 136.238 46.8033 136.238 52.67C136.238 58.4633 134.222 62.9733 130.188 66.2C126.155 69.4267 120.692 71.04 113.798 71.04C110.938 71.04 107.968 70.7467 104.888 70.16C101.662 72.2133 100.048 73.7533 100.048 74.78C100.048 75.8067 102.395 76.32 107.088 76.32H118.308C134.955 76.32 143.278 82.2967 143.278 94.25C143.278 100.703 140.748 105.8 135.688 109.54C130.702 113.353 122.892 115.26 112.258 115.26C94.145 115.26 85.0884 111.337 85.0884 103.49C85.0884 99.2367 87.9117 96.3033 93.5584 94.69L100.158 97.66C99.5717 99.7867 99.2784 101.803 99.2784 103.71C99.2784 110.017 103.972 113.17 113.358 113.17C119.078 113.17 123.478 112.107 126.558 109.98C129.638 107.853 131.178 105.213 131.178 102.06C131.178 98.9067 130.225 96.78 128.318 95.68C126.485 94.6533 122.782 94.14 117.208 94.14H106.538C100.598 94.14 96.345 93.15 93.7784 91.17C91.2117 89.19 89.9284 86.77 89.9284 83.91C89.9284 80.9767 90.845 78.5567 92.6784 76.65C94.5117 74.67 97.775 72.25 102.468 69.39C93.9617 66.97 89.7084 61.3967 89.7084 52.67C89.7084 47.17 91.6884 42.7333 95.6484 39.36C99.6084 35.9867 105.548 34.3 113.468 34.3C118.235 34.3 122.305 35.2167 125.678 37.05C125.238 35.07 125.018 33.2733 125.018 31.66C125.018 27.5533 126.118 24.5833 128.318 22.75C130.518 20.9167 132.975 20 135.688 20C138.402 20 140.565 20.7333 142.178 22.2C143.865 23.5933 144.708 25.5367 144.708 28.03C144.708 30.5233 144.048 32.3933 142.728 33.64C141.408 34.8133 139.795 35.4 137.888 35.4C136.055 35.4 134.515 34.9233 133.268 33.97C132.095 32.9433 131.472 31.5133 131.398 29.68ZM108.078 50.25V56.19C108.078 61.1033 108.482 64.44 109.288 66.2C110.168 67.96 111.452 68.84 113.138 68.84C114.898 68.84 116.145 67.9967 116.878 66.31C117.685 64.55 118.088 60.9933 118.088 55.64V50.25C118.088 44.53 117.722 40.79 116.988 39.03C116.255 37.1967 115.008 36.28 113.248 36.28C111.562 36.28 110.278 37.2333 109.398 39.14C108.518 40.9733 108.078 44.6767 108.078 50.25Z" fill="#2A2921"/>
</svg>
