<svg width="169" height="136" viewBox="0 0 169 136" fill="none" xmlns="http://www.w3.org/2000/svg">
<path d="M58.79 89.76C58.6433 88.7333 58.5333 87.89 58.46 87.23C58.46 86.4967 58.4233 85.6533 58.35 84.7C55.8567 87.1933 53.2167 88.9533 50.43 89.98C47.6433 91.0067 44.82 91.52 41.96 91.52C37.2667 91.52 33.6 90.1267 30.96 87.34C28.32 84.5533 27 81.07 27 76.89C27 73.37 27.88 70.3633 29.64 67.87C31.4733 65.3767 33.8567 63.36 36.79 61.82C39.7967 60.2067 43.0967 58.9967 46.69 58.19C50.3567 57.31 54.0233 56.7967 57.69 56.65V50.93C57.69 48.07 57.1033 45.65 55.93 43.67C54.83 41.69 52.7767 40.7733 49.77 40.92C46.69 41.0667 44.1967 42.0933 42.29 44C42.8767 44.66 43.2433 45.3933 43.39 46.2C43.5367 46.9333 43.61 47.5933 43.61 48.18C43.61 49.6467 43.0233 51.1867 41.85 52.8C40.6767 54.34 38.8067 55.0733 36.24 55C34.04 54.9267 32.3533 54.1567 31.18 52.69C30.0067 51.2233 29.42 49.5 29.42 47.52C29.42 44.5867 30.4467 42.0567 32.5 39.93C34.6267 37.73 37.45 36.0433 40.97 34.87C44.49 33.6233 48.3767 33 52.63 33C59.0833 33 64.07 34.6867 67.59 38.06C71.1833 41.36 72.98 46.6767 72.98 54.01C72.98 56.5033 72.98 58.63 72.98 60.39C72.98 62.15 72.9433 63.91 72.87 65.67C72.87 67.43 72.87 69.5567 72.87 72.05C72.87 73.0767 72.8333 74.5433 72.76 76.45C72.6867 78.2833 72.5767 80.0433 72.43 81.73C73.6767 81.5833 74.9967 81.51 76.39 81.51C77.7833 81.4367 78.8467 81.4 79.58 81.4V89.76H58.79ZM57.58 64.46C53.4733 64.8267 49.9167 65.89 46.91 67.65C43.9767 69.41 42.5467 71.8667 42.62 75.02C42.6933 77.0733 43.3533 78.54 44.6 79.42C45.8467 80.3 47.2767 80.74 48.89 80.74C50.5767 80.74 52.1533 80.3733 53.62 79.64C55.0867 78.9067 56.4067 77.9533 57.58 76.78V64.46Z" fill="#2A2921"/>
<path d="M142.766 34.76C138.952 36.3 133.342 37.07 125.936 37.07C129.749 38.7567 132.572 40.7733 134.406 43.12C136.312 45.4667 137.266 48.4733 137.266 52.14C137.266 55.88 136.239 59.2533 134.186 62.26C132.132 65.1933 129.236 67.5033 125.496 69.19C121.756 70.8767 117.429 71.72 112.516 71.72C110.096 71.72 107.822 71.5 105.696 71.06C105.109 71.3533 104.632 71.83 104.266 72.49C103.972 73.0767 103.826 73.7 103.826 74.36C103.826 75.46 104.229 76.34 105.036 77C105.916 77.5867 107.639 77.88 110.206 77.88H119.886C124.286 77.88 128.172 78.6133 131.546 80.08C134.919 81.5467 137.522 83.5633 139.356 86.13C141.189 88.6967 142.106 91.5933 142.106 94.82C142.106 100.907 139.429 105.637 134.076 109.01C128.796 112.457 121.059 114.18 110.866 114.18C103.606 114.18 97.8855 113.41 93.7055 111.87C89.5989 110.403 86.7022 108.313 85.0155 105.6C83.4022 102.887 82.5955 99.4767 82.5955 95.37H97.9955C97.9955 97.2033 98.3255 98.6333 98.9855 99.66C99.7189 100.687 101.039 101.457 102.946 101.97C104.852 102.483 107.639 102.74 111.306 102.74C116.439 102.74 119.959 102.153 121.866 100.98C123.846 99.8067 124.836 98.1567 124.836 96.03C124.836 94.27 124.102 92.84 122.636 91.74C121.242 90.7133 119.152 90.2 116.366 90.2H107.126C101.112 90.2 96.6022 89.1367 93.5955 87.01C90.5889 84.81 89.0855 82.0233 89.0855 78.65C89.0855 76.45 89.6355 74.3967 90.7355 72.49C91.9089 70.51 93.5222 68.86 95.5755 67.54C91.9089 65.56 89.2689 63.25 87.6555 60.61C86.0422 57.8967 85.2355 54.6333 85.2355 50.82C85.2355 46.4933 86.3355 42.7167 88.5355 39.49C90.7355 36.2633 93.8155 33.8067 97.7755 32.12C101.736 30.36 106.246 29.48 111.306 29.48C117.172 29.6267 122.159 29.0767 126.266 27.83C130.372 26.51 134.552 24.5667 138.806 22L142.766 34.76ZM111.746 40.81C108.959 40.81 106.759 41.69 105.146 43.45C103.606 45.21 102.836 47.5933 102.836 50.6C102.836 53.7533 103.642 56.21 105.256 57.97C106.869 59.73 109.032 60.61 111.746 60.61C114.606 60.61 116.806 59.7667 118.346 58.08C119.886 56.32 120.656 53.7533 120.656 50.38C120.656 44 117.686 40.81 111.746 40.81Z" fill="#2A2921"/>
</svg>
