<svg width="169" height="136" viewBox="0 0 169 136" fill="none" xmlns="http://www.w3.org/2000/svg">
<path d="M49.98 87.74C45.5067 87.74 41.4367 86.86 37.77 85.1C34.1767 83.2667 31.3167 80.48 29.19 76.74C27.0633 73 26 68.2333 26 62.44C26 57.0133 27.1 52.32 29.3 48.36C31.5 44.4 34.3967 41.3567 37.99 39.23C41.5833 37.03 45.3967 35.93 49.43 35.93C54.1967 35.93 57.79 36.7 60.21 38.24C62.7033 39.78 64.6833 41.4667 66.15 43.3L67.14 38.35H81.44V86.42H66.04V80.48C65.3067 81.2133 64.2067 82.1667 62.74 83.34C61.3467 84.5133 59.5867 85.54 57.46 86.42C55.3333 87.3 52.84 87.74 49.98 87.74ZM54.38 75.2C59.7333 75.2 63.62 72.78 66.04 67.94V56.17C65.16 53.8233 63.62 51.9533 61.42 50.56C59.2933 49.1667 56.7633 48.47 53.83 48.47C50.53 48.47 47.67 49.7167 45.25 52.21C42.83 54.63 41.62 57.7833 41.62 61.67C41.62 64.2367 42.2067 66.5467 43.38 68.6C44.5533 70.6533 46.0933 72.2667 48 73.44C49.98 74.6133 52.1067 75.2 54.38 75.2Z" fill="#2A2921"/>
<path d="M114.523 56.83C116.21 56.83 117.677 56.61 118.923 56.17C120.17 55.6933 121.197 55.0517 122.003 54.245C122.847 53.4383 123.47 52.4667 123.873 51.33C124.313 50.1933 124.533 48.9467 124.533 47.59C124.533 44.8033 123.69 42.6033 122.003 40.99C120.353 39.34 117.86 38.515 114.523 38.515C111.187 38.515 108.675 39.34 106.988 40.99C105.338 42.6033 104.513 44.8033 104.513 47.59C104.513 48.91 104.715 50.1383 105.118 51.275C105.558 52.4117 106.182 53.4017 106.988 54.245C107.832 55.0517 108.877 55.6933 110.123 56.17C111.407 56.61 112.873 56.83 114.523 56.83ZM129.868 88.95C129.868 87.85 129.538 86.9517 128.878 86.255C128.218 85.5583 127.32 85.0267 126.183 84.66C125.047 84.2567 123.708 83.9633 122.168 83.78C120.665 83.5967 119.052 83.4683 117.328 83.395C115.642 83.285 113.882 83.1933 112.048 83.12C110.252 83.0467 108.492 82.9 106.768 82.68C105.265 83.5233 104.037 84.5133 103.083 85.65C102.167 86.7867 101.708 88.1067 101.708 89.61C101.708 90.6 101.947 91.5167 102.423 92.36C102.937 93.24 103.725 93.9917 104.788 94.615C105.888 95.2383 107.3 95.715 109.023 96.045C110.747 96.4117 112.855 96.595 115.348 96.595C117.878 96.595 120.06 96.3933 121.893 95.99C123.727 95.6233 125.23 95.0917 126.403 94.395C127.613 93.735 128.493 92.9283 129.043 91.975C129.593 91.0583 129.868 90.05 129.868 88.95ZM143.398 31.915V36.975C143.398 38.5883 142.427 39.5783 140.483 39.945L135.423 40.88C136.193 42.8233 136.578 44.95 136.578 47.26C136.578 50.0467 136.01 52.5767 134.873 54.85C133.773 57.0867 132.233 58.9933 130.253 60.57C128.273 62.1467 125.927 63.375 123.213 64.255C120.537 65.0983 117.64 65.52 114.523 65.52C113.423 65.52 112.36 65.465 111.333 65.355C110.307 65.245 109.298 65.0983 108.308 64.915C106.548 65.9783 105.668 67.17 105.668 68.49C105.668 69.6267 106.182 70.47 107.208 71.02C108.272 71.5333 109.665 71.9 111.388 72.12C113.112 72.34 115.073 72.4867 117.273 72.56C119.473 72.5967 121.728 72.7067 124.038 72.89C126.348 73.0733 128.603 73.4033 130.803 73.88C133.003 74.32 134.965 75.035 136.688 76.025C138.412 77.015 139.787 78.3717 140.813 80.095C141.877 81.7817 142.408 83.9633 142.408 86.64C142.408 89.1333 141.785 91.5533 140.538 93.9C139.328 96.2467 137.55 98.3367 135.203 100.17C132.893 102.003 130.033 103.47 126.623 104.57C123.25 105.707 119.4 106.275 115.073 106.275C110.82 106.275 107.117 105.853 103.963 105.01C100.81 104.203 98.1884 103.103 96.0984 101.71C94.0084 100.353 92.45 98.7767 91.4234 96.98C90.3967 95.1833 89.8834 93.3133 89.8834 91.37C89.8834 88.73 90.6717 86.53 92.2484 84.77C93.8617 82.9733 96.0617 81.5433 98.8484 80.48C97.345 79.71 96.1534 78.6833 95.2734 77.4C94.3934 76.1167 93.9534 74.43 93.9534 72.34C93.9534 71.4967 94.1 70.635 94.3934 69.755C94.7234 68.8383 95.1817 67.94 95.7684 67.06C96.3917 66.18 97.1617 65.355 98.0784 64.585C98.995 63.7783 100.077 63.0633 101.323 62.44C98.4634 60.9 96.2084 58.8467 94.5584 56.28C92.945 53.7133 92.1384 50.7067 92.1384 47.26C92.1384 44.4733 92.6884 41.9617 93.7884 39.725C94.925 37.4517 96.4834 35.5267 98.4634 33.95C100.48 32.3367 102.845 31.1083 105.558 30.265C108.308 29.4217 111.297 29 114.523 29C116.943 29 119.217 29.2567 121.343 29.77C123.47 30.2467 125.413 30.9617 127.173 31.915H143.398Z" fill="#2A2921"/>
</svg>
