<svg width="169" height="136" viewBox="0 0 169 136" fill="none" xmlns="http://www.w3.org/2000/svg">
<path d="M48.98 88.61C44.5067 88.61 40.4367 87.73 36.77 85.97C33.1767 84.1367 30.3167 81.35 28.19 77.61C26.0633 73.87 25 69.1033 25 63.31C25 57.8833 26.1 53.19 28.3 49.23C30.5 45.27 33.3967 42.2267 36.99 40.1C40.5833 37.9 44.3967 36.8 48.43 36.8C53.1967 36.8 56.79 37.57 59.21 39.11C61.7033 40.65 63.6833 42.3367 65.15 44.17L66.14 39.22H80.44V87.29H65.04V81.35C64.3067 82.0833 63.2067 83.0367 61.74 84.21C60.3467 85.3833 58.5867 86.41 56.46 87.29C54.3333 88.17 51.84 88.61 48.98 88.61ZM53.38 76.07C58.7333 76.07 62.62 73.65 65.04 68.81V57.04C64.16 54.6933 62.62 52.8233 60.42 51.43C58.2933 50.0367 55.7633 49.34 52.83 49.34C49.53 49.34 46.67 50.5867 44.25 53.08C41.83 55.5 40.62 58.6533 40.62 62.54C40.62 65.1067 41.2067 67.4167 42.38 69.47C43.5533 71.5233 45.0933 73.1367 47 74.31C48.98 75.4833 51.1067 76.07 53.38 76.07Z" fill="#2A2921"/>
<path d="M137.998 40.54C136.678 40.54 135.542 40.1 134.588 39.22C133.708 38.34 133.268 37.0567 133.268 35.37C133.268 33.9033 133.635 32.2167 134.368 30.31C132.462 31.1167 130.958 32.0333 129.858 33.06C128.758 34.0133 127.768 35.2233 126.888 36.69C128.575 39.2567 129.418 42.52 129.418 46.48C129.418 52.2733 127.658 56.6367 124.138 59.57C120.618 62.43 115.962 63.86 110.168 63.86H110.058C107.638 65.2533 105.805 66.5367 104.558 67.71C103.312 68.8833 102.688 70.2033 102.688 71.67C102.688 74.0167 104.448 75.19 107.968 75.19H121.718C126.705 75.19 130.812 76.29 134.038 78.49C137.338 80.6167 138.988 83.8433 138.988 88.17C138.988 91.69 137.852 94.9533 135.578 97.96C133.305 100.967 129.968 103.387 125.568 105.22C121.168 107.053 115.852 107.97 109.618 107.97C103.238 107.97 97.885 106.98 93.5584 105C89.305 103.093 87.1784 100.233 87.1784 96.42C87.1784 93.9267 88.1684 91.7633 90.1484 89.93C92.2017 88.0967 95.025 86.6667 98.6184 85.64L99.2784 87.4C97.665 87.9133 96.3817 88.94 95.4284 90.48C94.475 92.02 93.9984 93.7433 93.9984 95.65C93.9984 99.0233 95.5017 101.59 98.5084 103.35C101.588 105.183 105.695 106.1 110.828 106.1C116.475 106.1 121.315 105 125.348 102.8C129.382 100.673 131.398 97.3367 131.398 92.79C131.398 90.15 130.445 88.0967 128.538 86.63C126.705 85.1633 123.405 84.43 118.638 84.43H110.498C106.172 84.43 102.688 83.88 100.048 82.78C97.4817 81.68 96.1984 79.48 96.1984 76.18C96.1984 73.9067 97.005 71.7433 98.6184 69.69C100.305 67.6367 103.055 65.62 106.868 63.64C102.028 63.1267 98.1417 61.44 95.2084 58.58C92.3484 55.72 90.9184 51.6867 90.9184 46.48C90.9184 40.6867 92.6784 36.36 96.1984 33.5C99.7184 30.5667 104.375 29.1 110.168 29.1C117.062 29.1 122.158 31.0067 125.458 34.82C126.852 32.84 128.612 31.2267 130.738 29.98C132.865 28.66 134.992 28 137.118 28C139.025 28 140.565 28.55 141.738 29.65C142.912 30.75 143.498 32.3267 143.498 34.38C143.498 36.4333 142.912 37.9733 141.738 39C140.638 40.0267 139.392 40.54 137.998 40.54ZM110.168 61.88C113.102 61.88 115.302 60.7433 116.768 58.47C118.308 56.1233 119.078 52.1267 119.078 46.48C119.078 40.8333 118.308 36.8733 116.768 34.6C115.302 32.2533 113.102 31.08 110.168 31.08C107.235 31.08 104.998 32.2533 103.458 34.6C101.992 36.8733 101.258 40.8333 101.258 46.48C101.258 52.1267 101.992 56.1233 103.458 58.47C104.998 60.7433 107.235 61.88 110.168 61.88Z" fill="#2A2921"/>
</svg>
