<svg width="169" height="136" viewBox="0 0 169 136" fill="none" xmlns="http://www.w3.org/2000/svg">
<path d="M44.98 86.62C40.5067 86.62 36.4367 85.74 32.77 83.98C29.1767 82.1467 26.3167 79.36 24.19 75.62C22.0633 71.88 21 67.1133 21 61.32C21 55.8933 22.1 51.2 24.3 47.24C26.5 43.28 29.3967 40.2367 32.99 38.11C36.5833 35.91 40.3967 34.81 44.43 34.81C49.1967 34.81 52.79 35.58 55.21 37.12C57.7033 38.66 59.6833 40.3467 61.15 42.18L62.14 37.23H76.44V85.3H61.04V79.36C60.3067 80.0933 59.2067 81.0467 57.74 82.22C56.3467 83.3933 54.5867 84.42 52.46 85.3C50.3333 86.18 47.84 86.62 44.98 86.62ZM49.38 74.08C54.7333 74.08 58.62 71.66 61.04 66.82V55.05C60.16 52.7033 58.62 50.8333 56.42 49.44C54.2933 48.0467 51.7633 47.35 48.83 47.35C45.53 47.35 42.67 48.5967 40.25 51.09C37.83 53.51 36.62 56.6633 36.62 60.55C36.62 63.1167 37.2067 65.4267 38.38 67.48C39.5533 69.5333 41.0933 71.1467 43 72.32C44.98 73.4933 47.1067 74.08 49.38 74.08Z" fill="#2A2921"/>
<path d="M112.438 108.95C105.912 108.95 100.595 108.363 96.4884 107.19C92.3817 106.017 89.4117 104.513 87.5784 102.68C85.8184 100.847 84.9384 98.9033 84.9384 96.85C84.9384 94.3567 85.6717 92.34 87.1384 90.8C88.6784 89.3333 90.695 88.6 93.1884 88.6C93.775 88.6 94.8384 88.71 96.3784 88.93L97.5884 89.15V104.55C98.4684 104.843 99.8617 105.21 101.768 105.65C105.142 106.383 108.332 106.75 111.338 106.75C120.285 106.75 126.812 105.467 130.918 102.9C135.098 100.407 137.188 97.29 137.188 93.55C137.188 88.7833 132.788 86.4 123.988 86.4H103.088C97.5884 86.4 93.3717 85.2633 90.4384 82.99C87.505 80.7167 86.0384 77.82 86.0384 74.3C86.0384 70.78 87.7617 67.6633 91.2084 64.95C92.6017 63.9233 94.3617 63.0067 96.4884 62.2C93.775 60.5133 91.795 58.5333 90.5484 56.26C89.375 53.9133 88.7884 51.1267 88.7884 47.9C88.7884 42.4733 90.8417 38.11 94.9484 34.81C99.055 31.4367 105.068 29.75 112.988 29.75C116.435 29.75 119.588 30.1167 122.448 30.85C125.382 31.51 127.728 32.4267 129.488 33.6C130.075 32.3533 130.845 31.2533 131.798 30.3C133.998 28.1 136.712 27 139.938 27C142.432 27 144.522 27.88 146.208 29.64C147.895 31.3267 148.738 33.5633 148.738 36.35C148.738 38.4767 148.152 40.2 146.978 41.52C145.878 42.84 144.448 43.5 142.688 43.5C141.882 43.5 140.965 43.4267 139.938 43.28L138.838 42.95V29.75C136.932 29.75 135.135 30.6667 133.448 32.5C132.788 33.16 132.202 34.0767 131.688 35.25C135.355 38.4767 137.188 42.6933 137.188 47.9C137.188 53.3267 135.135 57.7267 131.028 61.1C126.922 64.4 120.908 66.05 112.988 66.05C107.708 66.05 102.942 65.1333 98.6884 63.3L96.4884 64.4C95.755 64.84 95.205 65.28 94.8384 65.72C94.4717 66.0867 94.2884 66.5633 94.2884 67.15C94.2884 68.3967 94.9117 69.35 96.1584 70.01C97.4784 70.67 99.7884 71 103.088 71H123.988C129.488 71 133.778 72.6133 136.858 75.84C140.012 78.9933 141.588 83.43 141.588 89.15C141.588 95.0167 139.132 99.7833 134.218 103.45C129.378 107.117 122.118 108.95 112.438 108.95ZM112.988 63.85C115.408 63.85 117.278 62.6767 118.598 60.33C119.992 57.9833 120.688 53.84 120.688 47.9C120.688 41.96 119.992 37.8167 118.598 35.47C117.278 33.1233 115.408 31.95 112.988 31.95C110.568 31.95 108.662 33.1233 107.268 35.47C105.948 37.8167 105.288 41.96 105.288 47.9C105.288 53.84 105.948 57.9833 107.268 60.33C108.662 62.6767 110.568 63.85 112.988 63.85Z" fill="#2A2921"/>
</svg>
