<svg width="169" height="136" viewBox="0 0 169 136" fill="none" xmlns="http://www.w3.org/2000/svg">
<path d="M63.825 66.92C59.9017 67.1033 56.6017 67.4517 53.925 67.965C51.2483 68.4417 49.1033 69.065 47.49 69.835C45.8767 70.605 44.7217 71.5033 44.025 72.53C43.3283 73.5567 42.98 74.675 42.98 75.885C42.98 78.2683 43.6767 79.9733 45.07 81C46.5 82.0267 48.3517 82.54 50.625 82.54C53.4117 82.54 55.8133 82.045 57.83 81.055C59.8833 80.0283 61.8817 78.4883 63.825 76.435V66.92ZM32.695 42.445C39.185 36.505 46.995 33.535 56.125 33.535C59.425 33.535 62.3767 34.085 64.98 35.185C67.5833 36.2483 69.7833 37.7517 71.58 39.695C73.3767 41.6017 74.7333 43.8933 75.65 46.57C76.6033 49.2467 77.08 52.18 77.08 55.37V91.01H70.92C69.6367 91.01 68.6467 90.8267 67.95 90.46C67.2533 90.0567 66.7033 89.2683 66.3 88.095L65.09 84.025C63.66 85.3083 62.2667 86.445 60.91 87.435C59.5533 88.3883 58.1417 89.195 56.675 89.855C55.2083 90.515 53.6317 91.01 51.945 91.34C50.295 91.7067 48.4617 91.89 46.445 91.89C44.0617 91.89 41.8617 91.5783 39.845 90.955C37.8283 90.295 36.0867 89.3233 34.62 88.04C33.1533 86.7567 32.0167 85.1617 31.21 83.255C30.4033 81.3483 30 79.13 30 76.6C30 75.17 30.2383 73.7583 30.715 72.365C31.1917 70.935 31.9617 69.5783 33.025 68.295C34.125 67.0117 35.5367 65.8017 37.26 64.665C38.9833 63.5283 41.0917 62.5383 43.585 61.695C46.115 60.8517 49.0483 60.1733 52.385 59.66C55.7217 59.11 59.535 58.78 63.825 58.67V55.37C63.825 51.5933 63.0183 48.8067 61.405 47.01C59.7917 45.1767 57.4633 44.26 54.42 44.26C52.22 44.26 50.3867 44.5167 48.92 45.03C47.49 45.5433 46.225 46.13 45.125 46.79C44.025 47.4133 43.0167 47.9817 42.1 48.495C41.22 49.0083 40.23 49.265 39.13 49.265C38.1767 49.265 37.37 49.0267 36.71 48.55C36.05 48.0367 35.5183 47.45 35.115 46.79L32.695 42.445Z" fill="#2A2921"/>
<path d="M108.684 110.26C100.471 110.26 94.091 109.087 89.5444 106.74C84.9977 104.467 82.7244 101.313 82.7244 97.28C82.7244 94.4933 83.751 92.1467 85.8044 90.24C87.8577 88.26 90.461 86.6833 93.6144 85.51C90.8277 84.7033 88.7377 83.6767 87.3444 82.43C85.951 81.1833 85.2544 79.3867 85.2544 77.04C85.2544 74.18 86.2444 71.6133 88.2244 69.34C90.2044 66.9933 92.8077 65.05 96.0344 63.51C89.4344 59.6967 86.1344 54.38 86.1344 47.56C86.1344 43.4533 87.2344 39.97 89.4344 37.11C91.7077 34.1767 94.6044 31.9767 98.1244 30.51C101.718 29.0433 105.458 28.31 109.344 28.31C115.138 28.31 120.271 29.85 124.744 32.93C126.944 30.95 129.144 29.3 131.344 27.98C133.618 26.66 136.441 26 139.814 26V36.23C135.561 36.23 132.298 36.7433 130.024 37.77C130.904 40.0433 131.491 41.84 131.784 43.16C132.151 44.48 132.334 45.91 132.334 47.45C132.334 52.4367 130.648 56.8 127.274 60.54C123.901 64.2067 118.401 66.04 110.774 66.04L106.704 65.93C106.044 65.8567 105.238 65.82 104.284 65.82C103.331 66.1133 102.414 66.7733 101.534 67.8C100.654 68.7533 100.214 69.78 100.214 70.88C100.214 71.9067 100.581 72.7867 101.314 73.52C102.048 74.2533 102.964 74.6933 104.064 74.84L121.664 76.82C131.858 77.9933 136.954 82.9433 136.954 91.67C136.954 98.49 134.314 103.293 129.034 106.08C123.828 108.867 117.044 110.26 108.684 110.26ZM109.124 57.24C111.398 57.24 113.158 56.3967 114.404 54.71C115.651 52.95 116.274 50.4933 116.274 47.34C116.274 44.1133 115.614 41.6933 114.294 40.08C112.974 38.4667 111.288 37.66 109.234 37.66C106.961 37.66 105.164 38.5767 103.844 40.41C102.524 42.2433 101.864 44.5167 101.864 47.23C101.864 49.7233 102.414 52.0333 103.514 54.16C104.614 56.2133 106.484 57.24 109.124 57.24ZM109.344 99.04C117.704 99.04 121.884 96.7667 121.884 92.22C121.884 90.9733 121.554 90.0567 120.894 89.47C120.234 88.8833 119.171 88.48 117.704 88.26C116.311 87.9667 114.001 87.71 110.774 87.49L101.644 86.72C100.324 87.16 99.1877 87.9667 98.2344 89.14C97.281 90.24 96.8044 91.4867 96.8044 92.88C96.8044 94.86 97.831 96.3633 99.8844 97.39C102.011 98.49 105.164 99.04 109.344 99.04Z" fill="#2A2921"/>
</svg>
