<svg width="169" height="136" viewBox="0 0 169 136" fill="none" xmlns="http://www.w3.org/2000/svg">
<path d="M63.825 63.67C59.9017 63.8533 56.6017 64.2017 53.925 64.715C51.2483 65.1917 49.1033 65.815 47.49 66.585C45.8767 67.355 44.7217 68.2533 44.025 69.28C43.3283 70.3067 42.98 71.425 42.98 72.635C42.98 75.0183 43.6767 76.7233 45.07 77.75C46.5 78.7767 48.3517 79.29 50.625 79.29C53.4117 79.29 55.8133 78.795 57.83 77.805C59.8833 76.7783 61.8817 75.2383 63.825 73.185V63.67ZM32.695 39.195C39.185 33.255 46.995 30.285 56.125 30.285C59.425 30.285 62.3767 30.835 64.98 31.935C67.5833 32.9983 69.7833 34.5017 71.58 36.445C73.3767 38.3517 74.7333 40.6433 75.65 43.32C76.6033 45.9967 77.08 48.93 77.08 52.12V87.76H70.92C69.6367 87.76 68.6467 87.5767 67.95 87.21C67.2533 86.8067 66.7033 86.0183 66.3 84.845L65.09 80.775C63.66 82.0583 62.2667 83.195 60.91 84.185C59.5533 85.1383 58.1417 85.945 56.675 86.605C55.2083 87.265 53.6317 87.76 51.945 88.09C50.295 88.4567 48.4617 88.64 46.445 88.64C44.0617 88.64 41.8617 88.3283 39.845 87.705C37.8283 87.045 36.0867 86.0733 34.62 84.79C33.1533 83.5067 32.0167 81.9117 31.21 80.005C30.4033 78.0983 30 75.88 30 73.35C30 71.92 30.2383 70.5083 30.715 69.115C31.1917 67.685 31.9617 66.3283 33.025 65.045C34.125 63.7617 35.5367 62.5517 37.26 61.415C38.9833 60.2783 41.0917 59.2883 43.585 58.445C46.115 57.6017 49.0483 56.9233 52.385 56.41C55.7217 55.86 59.535 55.53 63.825 55.42V52.12C63.825 48.3433 63.0183 45.5567 61.405 43.76C59.7917 41.9267 57.4633 41.01 54.42 41.01C52.22 41.01 50.3867 41.2667 48.92 41.78C47.49 42.2933 46.225 42.88 45.125 43.54C44.025 44.1633 43.0167 44.7317 42.1 45.245C41.22 45.7583 40.23 46.015 39.13 46.015C38.1767 46.015 37.37 45.7767 36.71 45.3C36.05 44.7867 35.5183 44.2 35.115 43.54L32.695 39.195Z" fill="#2A2921"/>
<path d="M126.174 29.68L129.254 27.81C129.694 25.5367 128.814 24.4 126.614 24.4C123.461 24.4 121.884 26.82 121.884 31.66C121.884 33.5667 122.141 35.7667 122.654 38.26C128.228 42 131.014 46.8033 131.014 52.67C131.014 58.4633 128.998 62.9733 124.964 66.2C120.931 69.4267 115.468 71.04 108.574 71.04C105.714 71.04 102.744 70.7467 99.6644 70.16C96.4377 72.2133 94.8244 73.7533 94.8244 74.78C94.8244 75.8067 97.171 76.32 101.864 76.32H113.084C129.731 76.32 138.054 82.2967 138.054 94.25C138.054 100.703 135.524 105.8 130.464 109.54C125.478 113.353 117.668 115.26 107.034 115.26C88.921 115.26 79.8644 111.337 79.8644 103.49C79.8644 99.2367 82.6877 96.3033 88.3344 94.69L94.9344 97.66C94.3477 99.7867 94.0544 101.803 94.0544 103.71C94.0544 110.017 98.7477 113.17 108.134 113.17C113.854 113.17 118.254 112.107 121.334 109.98C124.414 107.853 125.954 105.213 125.954 102.06C125.954 98.9067 125.001 96.78 123.094 95.68C121.261 94.6533 117.558 94.14 111.984 94.14H101.314C95.3744 94.14 91.121 93.15 88.5544 91.17C85.9877 89.19 84.7044 86.77 84.7044 83.91C84.7044 80.9767 85.621 78.5567 87.4544 76.65C89.2877 74.67 92.551 72.25 97.2444 69.39C88.7377 66.97 84.4844 61.3967 84.4844 52.67C84.4844 47.17 86.4644 42.7333 90.4244 39.36C94.3844 35.9867 100.324 34.3 108.244 34.3C113.011 34.3 117.081 35.2167 120.454 37.05C120.014 35.07 119.794 33.2733 119.794 31.66C119.794 27.5533 120.894 24.5833 123.094 22.75C125.294 20.9167 127.751 20 130.464 20C133.178 20 135.341 20.7333 136.954 22.2C138.641 23.5933 139.484 25.5367 139.484 28.03C139.484 30.5233 138.824 32.3933 137.504 33.64C136.184 34.8133 134.571 35.4 132.664 35.4C130.831 35.4 129.291 34.9233 128.044 33.97C126.871 32.9433 126.248 31.5133 126.174 29.68ZM102.854 50.25V56.19C102.854 61.1033 103.258 64.44 104.064 66.2C104.944 67.96 106.228 68.84 107.914 68.84C109.674 68.84 110.921 67.9967 111.654 66.31C112.461 64.55 112.864 60.9933 112.864 55.64V50.25C112.864 44.53 112.498 40.79 111.764 39.03C111.031 37.1967 109.784 36.28 108.024 36.28C106.338 36.28 105.054 37.2333 104.174 39.14C103.294 40.9733 102.854 44.6767 102.854 50.25Z" fill="#2A2921"/>
</svg>
