<svg width="169" height="136" viewBox="0 0 169 136" fill="none" xmlns="http://www.w3.org/2000/svg">
<path d="M61.825 62.58C57.9017 62.7633 54.6017 63.1117 51.925 63.625C49.2483 64.1017 47.1033 64.725 45.49 65.495C43.8767 66.265 42.7217 67.1633 42.025 68.19C41.3283 69.2167 40.98 70.335 40.98 71.545C40.98 73.9283 41.6767 75.6333 43.07 76.66C44.5 77.6867 46.3517 78.2 48.625 78.2C51.4117 78.2 53.8133 77.705 55.83 76.715C57.8833 75.6883 59.8817 74.1483 61.825 72.095V62.58ZM30.695 38.105C37.185 32.165 44.995 29.195 54.125 29.195C57.425 29.195 60.3767 29.745 62.98 30.845C65.5833 31.9083 67.7833 33.4117 69.58 35.355C71.3767 37.2617 72.7333 39.5533 73.65 42.23C74.6033 44.9067 75.08 47.84 75.08 51.03V86.67H68.92C67.6367 86.67 66.6467 86.4867 65.95 86.12C65.2533 85.7167 64.7033 84.9283 64.3 83.755L63.09 79.685C61.66 80.9683 60.2667 82.105 58.91 83.095C57.5533 84.0483 56.1417 84.855 54.675 85.515C53.2083 86.175 51.6317 86.67 49.945 87C48.295 87.3667 46.4617 87.55 44.445 87.55C42.0617 87.55 39.8617 87.2383 37.845 86.615C35.8283 85.955 34.0867 84.9833 32.62 83.7C31.1533 82.4167 30.0167 80.8217 29.21 78.915C28.4033 77.0083 28 74.79 28 72.26C28 70.83 28.2383 69.4183 28.715 68.025C29.1917 66.595 29.9617 65.2383 31.025 63.955C32.125 62.6717 33.5367 61.4617 35.26 60.325C36.9833 59.1883 39.0917 58.1983 41.585 57.355C44.115 56.5117 47.0483 55.8333 50.385 55.32C53.7217 54.77 57.535 54.44 61.825 54.33V51.03C61.825 47.2533 61.0183 44.4667 59.405 42.67C57.7917 40.8367 55.4633 39.92 52.42 39.92C50.22 39.92 48.3867 40.1767 46.92 40.69C45.49 41.2033 44.225 41.79 43.125 42.45C42.025 43.0733 41.0167 43.6417 40.1 44.155C39.22 44.6683 38.23 44.925 37.13 44.925C36.1767 44.925 35.37 44.6867 34.71 44.21C34.05 43.6967 33.5183 43.11 33.115 42.45L30.695 38.105Z" fill="#2A2921"/>
<path d="M93.8144 64.78C89.4877 61.1133 87.3244 56.53 87.3244 51.03C87.3244 45.2367 89.5977 40.5433 94.1444 36.95C98.5444 33.5033 103.568 31.78 109.214 31.78C114.934 31.78 119.701 32.8433 123.514 34.97C123.954 30.79 125.751 27.4167 128.904 24.85C131.984 22.2833 135.614 21 139.794 21L139.134 33.43C132.828 33.43 129.564 35.52 129.344 39.7C132.058 43.0733 133.414 46.52 133.414 50.04C133.414 53.56 132.791 56.53 131.544 58.95C130.298 61.2967 128.611 63.2767 126.484 64.89C122.084 68.41 116.731 70.17 110.424 70.17C106.831 70.17 103.568 69.62 100.634 68.52C97.701 69.4 96.2344 71.16 96.2344 73.8C96.2344 77.1 99.021 78.75 104.594 78.75H122.524C134.698 78.75 140.784 83.0033 140.784 91.51C140.784 94.37 140.051 97.1567 138.584 99.87C137.191 102.657 135.138 105.113 132.424 107.24C126.411 111.933 118.858 114.28 109.764 114.28C100.964 114.28 93.8144 112.483 88.3144 108.89C83.181 105.443 80.6144 101.227 80.6144 96.24C80.6144 92.94 81.6044 90.3 83.5844 88.32C85.6377 86.4133 88.3144 85.2033 91.6144 84.69C87.2877 82.05 85.1244 78.7867 85.1244 74.9C85.1244 72.3333 85.931 70.2067 87.5444 68.52C89.1577 66.76 91.2477 65.5133 93.8144 64.78ZM103.714 87.88C96.821 88.1733 93.3744 90.7767 93.3744 95.69C93.3744 98.1833 94.8044 100.163 97.6644 101.63C100.598 103.17 104.044 103.94 108.004 103.94C111.964 103.94 115.044 103.61 117.244 102.95C119.518 102.29 121.424 101.41 122.964 100.31C126.264 98.11 127.914 95.47 127.914 92.39C127.914 91.07 127.438 89.97 126.484 89.09C125.604 88.2833 124.284 87.88 122.524 87.88H103.714ZM120.544 50.92C120.544 47.9133 119.701 45.4933 118.014 43.66C116.401 41.7533 113.908 40.8 110.534 40.8C107.161 40.8 104.594 41.7533 102.834 43.66C101.074 45.4933 100.194 47.9133 100.194 50.92C100.194 53.8533 101.074 56.2733 102.834 58.18C104.594 60.0867 107.161 61.04 110.534 61.04C113.908 61.04 116.401 60.0867 118.014 58.18C119.701 56.2733 120.544 53.8533 120.544 50.92Z" fill="#2A2921"/>
</svg>
