<svg width="169" height="136" viewBox="0 0 169 136" fill="none" xmlns="http://www.w3.org/2000/svg">
<path d="M59.825 60.72C55.9017 60.9033 52.6017 61.2517 49.925 61.765C47.2483 62.2417 45.1033 62.865 43.49 63.635C41.8767 64.405 40.7217 65.3033 40.025 66.33C39.3283 67.3567 38.98 68.475 38.98 69.685C38.98 72.0683 39.6767 73.7733 41.07 74.8C42.5 75.8267 44.3517 76.34 46.625 76.34C49.4117 76.34 51.8133 75.845 53.83 74.855C55.8833 73.8283 57.8817 72.2883 59.825 70.235V60.72ZM28.695 36.245C35.185 30.305 42.995 27.335 52.125 27.335C55.425 27.335 58.3767 27.885 60.98 28.985C63.5833 30.0483 65.7833 31.5517 67.58 33.495C69.3767 35.4017 70.7333 37.6933 71.65 40.37C72.6033 43.0467 73.08 45.98 73.08 49.17V84.81H66.92C65.6367 84.81 64.6467 84.6267 63.95 84.26C63.2533 83.8567 62.7033 83.0683 62.3 81.895L61.09 77.825C59.66 79.1083 58.2667 80.245 56.91 81.235C55.5533 82.1883 54.1417 82.995 52.675 83.655C51.2083 84.315 49.6317 84.81 47.945 85.14C46.295 85.5067 44.4617 85.69 42.445 85.69C40.0617 85.69 37.8617 85.3783 35.845 84.755C33.8283 84.095 32.0867 83.1233 30.62 81.84C29.1533 80.5567 28.0167 78.9617 27.21 77.055C26.4033 75.1483 26 72.93 26 70.4C26 68.97 26.2383 67.5583 26.715 66.165C27.1917 64.735 27.9617 63.3783 29.025 62.095C30.125 60.8117 31.5367 59.6017 33.26 58.465C34.9833 57.3283 37.0917 56.3383 39.585 55.495C42.115 54.6517 45.0483 53.9733 48.385 53.46C51.7217 52.91 55.535 52.58 59.825 52.47V49.17C59.825 45.3933 59.0183 42.6067 57.405 40.81C55.7917 38.9767 53.4633 38.06 50.42 38.06C48.22 38.06 46.3867 38.3167 44.92 38.83C43.49 39.3433 42.225 39.93 41.125 40.59C40.025 41.2133 39.0167 41.7817 38.1 42.295C37.22 42.8083 36.23 43.065 35.13 43.065C34.1767 43.065 33.37 42.8267 32.71 42.35C32.05 41.8367 31.5183 41.25 31.115 40.59L28.695 36.245Z" fill="#2A2921"/>
<path d="M108.204 114.51C98.8177 114.51 91.9977 113.007 87.7444 110C83.5644 107.067 81.4744 102.997 81.4744 97.79C81.4744 94.5633 82.4644 91.5933 84.4444 88.88C86.4977 86.1667 88.9177 84.1133 91.7044 82.72C88.331 80.8133 86.6444 77.7333 86.6444 73.48C86.6444 70.84 87.4144 68.3467 88.9544 66C90.4944 63.6533 92.511 61.8567 95.0044 60.61C91.3377 58.9967 88.5144 56.6867 86.5344 53.68C84.6277 50.6733 83.6744 47.1167 83.6744 43.01C83.6744 38.7567 84.8477 35.0533 87.1944 31.9C89.6144 28.7467 92.7677 26.3267 96.6544 24.64C100.614 22.9533 104.794 22.11 109.194 22.11C116.601 22.11 122.394 23.65 126.574 26.73C127.674 25.63 129.361 24.5667 131.634 23.54C133.908 22.5133 136.328 22 138.894 22H142.634V31.68H130.534C132.294 34.3933 133.174 37.5467 133.174 41.14C133.174 45.4667 132.074 49.3167 129.874 52.69C127.748 55.99 124.741 58.5567 120.854 60.39C117.041 62.2233 112.714 63.14 107.874 63.14C104.721 63.14 101.898 62.81 99.4044 62.15C98.3777 63.1767 97.5344 64.3133 96.8744 65.56C96.2144 66.8067 95.8844 68.0167 95.8844 69.19C95.8844 71.83 96.7644 73.6633 98.5244 74.69C100.284 75.6433 103.438 76.12 107.984 76.12H120.414C127.528 76.12 132.808 77.4767 136.254 80.19C139.701 82.9033 141.424 86.7533 141.424 91.74C141.424 95.92 139.921 99.7333 136.914 103.18C133.908 106.7 129.838 109.45 124.704 111.43C119.644 113.483 114.144 114.51 108.204 114.51ZM108.974 57.09C117.334 57.09 121.514 52.14 121.514 42.24C121.514 37.3267 120.414 33.7333 118.214 31.46C116.088 29.1133 112.861 27.94 108.534 27.94C104.501 27.94 101.311 29.0767 98.9644 31.35C96.6177 33.55 95.4444 37.1067 95.4444 42.02C95.4444 46.64 96.5444 50.3067 98.7444 53.02C101.018 55.7333 104.428 57.09 108.974 57.09ZM109.194 108.13C112.788 108.13 116.161 107.58 119.314 106.48C122.541 105.453 125.144 103.877 127.124 101.75C129.104 99.6967 130.094 97.2767 130.094 94.49C130.094 91.19 129.214 88.77 127.454 87.23C125.694 85.7633 122.284 85.03 117.224 85.03H104.244C101.311 85.03 99.001 84.8467 97.3144 84.48C94.3077 87.78 92.8044 91.4833 92.8044 95.59C92.8044 99.6967 94.051 102.813 96.5444 104.94C99.0377 107.067 103.254 108.13 109.194 108.13Z" fill="#2A2921"/>
</svg>
