<svg width="169" height="136" viewBox="0 0 169 136" fill="none" xmlns="http://www.w3.org/2000/svg">
<path d="M56.79 84.92C56.6433 83.8933 56.5333 83.05 56.46 82.39C56.46 81.6567 56.4233 80.8133 56.35 79.86C53.8567 82.3533 51.2167 84.1133 48.43 85.14C45.6433 86.1667 42.82 86.68 39.96 86.68C35.2667 86.68 31.6 85.2867 28.96 82.5C26.32 79.7133 25 76.23 25 72.05C25 68.53 25.88 65.5233 27.64 63.03C29.4733 60.5367 31.8567 58.52 34.79 56.98C37.7967 55.3667 41.0967 54.1567 44.69 53.35C48.3567 52.47 52.0233 51.9567 55.69 51.81V46.09C55.69 43.23 55.1033 40.81 53.93 38.83C52.83 36.85 50.7767 35.9333 47.77 36.08C44.69 36.2267 42.1967 37.2533 40.29 39.16C40.8767 39.82 41.2433 40.5533 41.39 41.36C41.5367 42.0933 41.61 42.7533 41.61 43.34C41.61 44.8067 41.0233 46.3467 39.85 47.96C38.6767 49.5 36.8067 50.2333 34.24 50.16C32.04 50.0867 30.3533 49.3167 29.18 47.85C28.0067 46.3833 27.42 44.66 27.42 42.68C27.42 39.7467 28.4467 37.2167 30.5 35.09C32.6267 32.89 35.45 31.2033 38.97 30.03C42.49 28.7833 46.3767 28.16 50.63 28.16C57.0833 28.16 62.07 29.8467 65.59 33.22C69.1833 36.52 70.98 41.8367 70.98 49.17C70.98 51.6633 70.98 53.79 70.98 55.55C70.98 57.31 70.9433 59.07 70.87 60.83C70.87 62.59 70.87 64.7167 70.87 67.21C70.87 68.2367 70.8333 69.7033 70.76 71.61C70.6867 73.4433 70.5767 75.2033 70.43 76.89C71.6767 76.7433 72.9967 76.67 74.39 76.67C75.7833 76.5967 76.8467 76.56 77.58 76.56V84.92H56.79ZM55.58 59.62C51.4733 59.9867 47.9167 61.05 44.91 62.81C41.9767 64.57 40.5467 67.0267 40.62 70.18C40.6933 72.2333 41.3533 73.7 42.6 74.58C43.8467 75.46 45.2767 75.9 46.89 75.9C48.5767 75.9 50.1533 75.5333 51.62 74.8C53.0867 74.0667 54.4067 73.1133 55.58 71.94V59.62Z" fill="#2A2921"/>
<path d="M108.756 114.62C98.9289 114.62 91.8155 113.08 87.4155 110C83.0155 106.92 80.8155 102.74 80.8155 97.46C80.8155 94.4533 81.8055 91.5933 83.7855 88.88C85.8389 86.24 88.2955 84.26 91.1555 82.94C87.7822 80.96 86.0955 77.8067 86.0955 73.48C86.0955 70.9867 86.9022 68.64 88.5155 66.44C90.1289 64.1667 92.2189 62.4067 94.7855 61.16C90.7522 59.62 87.7455 57.2733 85.7655 54.12C83.7855 50.9667 82.7955 47.2267 82.7955 42.9C82.7955 38.72 84.0055 35.09 86.4255 32.01C88.9189 28.8567 92.2189 26.4367 96.3255 24.75C100.506 23.0633 105.016 22.22 109.856 22.22C118.436 22.22 124.816 23.87 128.996 27.17C129.949 25.9233 131.562 24.75 133.836 23.65C136.109 22.55 138.456 22 140.876 22H144.726V33.99H133.396C134.496 36.3367 135.046 38.83 135.046 41.47C135.119 48.1433 132.772 53.4967 128.006 57.53C123.239 61.49 116.712 63.47 108.426 63.47C104.979 63.47 102.082 63.2133 99.7355 62.7C99.0022 63.6533 98.4156 64.68 97.9755 65.78C97.6089 66.8067 97.4255 67.7233 97.4255 68.53C97.4255 70.95 98.2689 72.6 99.9555 73.48C101.716 74.36 104.832 74.8 109.306 74.8H121.076C136.036 74.8 143.516 80.2267 143.516 91.08C143.516 95.6267 141.902 99.6967 138.676 103.29C135.449 106.883 131.159 109.67 125.806 111.65C120.452 113.63 114.769 114.62 108.756 114.62ZM109.526 56.65C116.346 56.65 119.756 51.9933 119.756 42.68C119.756 37.9133 118.876 34.43 117.116 32.23C115.429 29.9567 112.826 28.82 109.306 28.82C105.859 28.82 103.182 29.9567 101.276 32.23C99.4422 34.43 98.5255 37.7667 98.5255 42.24C98.5255 51.8467 102.192 56.65 109.526 56.65ZM110.406 107.03C115.026 107.03 119.022 105.893 122.396 103.62C125.769 101.42 127.456 98.34 127.456 94.38C127.456 91.2267 126.612 88.9533 124.926 87.56C123.312 86.1667 120.379 85.47 116.126 85.47H104.136C102.302 85.47 100.616 85.36 99.0755 85.14C97.0955 87.78 96.1055 90.9333 96.1055 94.6C96.1055 98.6333 97.2055 101.713 99.4055 103.84C101.606 105.967 105.272 107.03 110.406 107.03Z" fill="#2A2921"/>
</svg>
