<svg width="169" height="136" viewBox="0 0 169 136" fill="none" xmlns="http://www.w3.org/2000/svg">
<path d="M60.79 85.76C60.6433 84.7333 60.5333 83.89 60.46 83.23C60.46 82.4967 60.4233 81.6533 60.35 80.7C57.8567 83.1933 55.2167 84.9533 52.43 85.98C49.6433 87.0067 46.82 87.52 43.96 87.52C39.2667 87.52 35.6 86.1267 32.96 83.34C30.32 80.5533 29 77.07 29 72.89C29 69.37 29.88 66.3633 31.64 63.87C33.4733 61.3767 35.8567 59.36 38.79 57.82C41.7967 56.2067 45.0967 54.9967 48.69 54.19C52.3567 53.31 56.0233 52.7967 59.69 52.65V46.93C59.69 44.07 59.1033 41.65 57.93 39.67C56.83 37.69 54.7767 36.7733 51.77 36.92C48.69 37.0667 46.1967 38.0933 44.29 40C44.8767 40.66 45.2433 41.3933 45.39 42.2C45.5367 42.9333 45.61 43.5933 45.61 44.18C45.61 45.6467 45.0233 47.1867 43.85 48.8C42.6767 50.34 40.8067 51.0733 38.24 51C36.04 50.9267 34.3533 50.1567 33.18 48.69C32.0067 47.2233 31.42 45.5 31.42 43.52C31.42 40.5867 32.4467 38.0567 34.5 35.93C36.6267 33.73 39.45 32.0433 42.97 30.87C46.49 29.6233 50.3767 29 54.63 29C61.0833 29 66.07 30.6867 69.59 34.06C73.1833 37.36 74.98 42.6767 74.98 50.01C74.98 52.5033 74.98 54.63 74.98 56.39C74.98 58.15 74.9433 59.91 74.87 61.67C74.87 63.43 74.87 65.5567 74.87 68.05C74.87 69.0767 74.8333 70.5433 74.76 72.45C74.6867 74.2833 74.5767 76.0433 74.43 77.73C75.6767 77.5833 76.9967 77.51 78.39 77.51C79.7833 77.4367 80.8467 77.4 81.58 77.4V85.76H60.79ZM59.58 60.46C55.4733 60.8267 51.9167 61.89 48.91 63.65C45.9767 65.41 44.5467 67.8667 44.62 71.02C44.6933 73.0733 45.3533 74.54 46.6 75.42C47.8467 76.3 49.2767 76.74 50.89 76.74C52.5767 76.74 54.1533 76.3733 55.62 75.64C57.0867 74.9067 58.4067 73.9533 59.58 72.78V60.46Z" fill="#2A2921"/>
<path d="M133.876 30.87C135.929 30.87 137.579 31.4567 138.826 32.63C140.072 33.8033 140.696 35.38 140.696 37.36V80.81C140.696 89.2433 138.349 95.6233 133.656 99.95C128.962 104.277 122.032 106.44 112.866 106.44C104.872 106.44 98.1989 104.937 92.8455 101.93C90.1322 100.317 88.7755 98.3733 88.7755 96.1C88.7755 94.4867 89.1422 93.2033 89.8755 92.25C90.6822 91.2967 91.7089 90.82 92.9555 90.82C93.6155 90.82 94.4222 90.9667 95.3755 91.26C96.3289 91.6267 97.3189 92.03 98.3455 92.47C100.986 93.57 103.332 94.4133 105.386 95C107.512 95.5867 109.932 95.88 112.646 95.88C122.252 95.88 127.056 91.1867 127.056 81.8V74.76C125.442 77.7667 123.096 80.1133 120.016 81.8C116.936 83.4133 113.416 84.22 109.456 84.22C104.762 84.22 100.582 83.12 96.9155 80.92C93.3222 78.6467 90.4989 75.4933 88.4455 71.46C86.3922 67.4267 85.3655 62.77 85.3655 57.49C85.3655 52.21 86.3555 47.5533 88.3355 43.52C90.3889 39.4133 93.2489 36.26 96.9155 34.06C100.582 31.7867 104.762 30.65 109.456 30.65C113.416 30.65 116.936 31.4933 120.016 33.18C123.096 34.7933 125.442 37.1033 127.056 40.11V37.25C127.056 35.3433 127.679 33.8033 128.926 32.63C130.172 31.4567 131.822 30.87 133.876 30.87ZM113.086 73.55C117.486 73.55 120.896 72.12 123.316 69.26C125.809 66.4 127.056 62.4767 127.056 57.49C127.056 52.43 125.809 48.47 123.316 45.61C120.896 42.75 117.486 41.32 113.086 41.32C108.759 41.32 105.349 42.75 102.856 45.61C100.362 48.47 99.1155 52.43 99.1155 57.49C99.1155 62.4767 100.362 66.4 102.856 69.26C105.349 72.12 108.759 73.55 113.086 73.55Z" fill="#2A2921"/>
</svg>
