<svg width="169" height="136" viewBox="0 0 169 136" fill="none" xmlns="http://www.w3.org/2000/svg">
<path d="M62.79 82.76C62.6433 81.7333 62.5333 80.89 62.46 80.23C62.46 79.4967 62.4233 78.6533 62.35 77.7C59.8567 80.1933 57.2167 81.9533 54.43 82.98C51.6433 84.0067 48.82 84.52 45.96 84.52C41.2667 84.52 37.6 83.1267 34.96 80.34C32.32 77.5533 31 74.07 31 69.89C31 66.37 31.88 63.3633 33.64 60.87C35.4733 58.3767 37.8567 56.36 40.79 54.82C43.7967 53.2067 47.0967 51.9967 50.69 51.19C54.3567 50.31 58.0233 49.7967 61.69 49.65V43.93C61.69 41.07 61.1033 38.65 59.93 36.67C58.83 34.69 56.7767 33.7733 53.77 33.92C50.69 34.0667 48.1967 35.0933 46.29 37C46.8767 37.66 47.2433 38.3933 47.39 39.2C47.5367 39.9333 47.61 40.5933 47.61 41.18C47.61 42.6467 47.0233 44.1867 45.85 45.8C44.6767 47.34 42.8067 48.0733 40.24 48C38.04 47.9267 36.3533 47.1567 35.18 45.69C34.0067 44.2233 33.42 42.5 33.42 40.52C33.42 37.5867 34.4467 35.0567 36.5 32.93C38.6267 30.73 41.45 29.0433 44.97 27.87C48.49 26.6233 52.3767 26 56.63 26C63.0833 26 68.07 27.6867 71.59 31.06C75.1833 34.36 76.98 39.6767 76.98 47.01C76.98 49.5033 76.98 51.63 76.98 53.39C76.98 55.15 76.9433 56.91 76.87 58.67C76.87 60.43 76.87 62.5567 76.87 65.05C76.87 66.0767 76.8333 67.5433 76.76 69.45C76.6867 71.2833 76.5767 73.0433 76.43 74.73C77.6767 74.5833 78.9967 74.51 80.39 74.51C81.7833 74.4367 82.8467 74.4 83.58 74.4V82.76H62.79ZM61.58 57.46C57.4733 57.8267 53.9167 58.89 50.91 60.65C47.9767 62.41 46.5467 64.8667 46.62 68.02C46.6933 70.0733 47.3533 71.54 48.6 72.42C49.8467 73.3 51.2767 73.74 52.89 73.74C54.5767 73.74 56.1533 73.3733 57.62 72.64C59.0867 71.9067 60.4067 70.9533 61.58 69.78V57.46Z" fill="#2A2921"/>
<path d="M137.196 37C133.309 37.3667 130.596 37.5867 129.056 37.66L128.616 38.32C131.549 41.4733 133.016 45.1033 133.016 49.21C133.016 52.8767 131.989 56.2133 129.936 59.22C127.882 62.2267 125.059 64.5733 121.466 66.26C117.872 67.9467 113.839 68.79 109.366 68.79C106.946 68.79 104.562 68.4967 102.216 67.91C101.262 68.7167 100.566 69.4133 100.126 70C99.7589 70.5133 99.5755 71.0633 99.5755 71.65C99.5755 73.0433 100.639 74.0333 102.766 74.62C104.892 75.2067 108.266 75.7567 112.886 76.27C117.799 76.7833 121.832 77.37 124.986 78.03C128.139 78.69 130.852 79.9 133.126 81.66C135.472 83.3467 136.646 85.7667 136.646 88.92C136.646 92.3667 135.252 95.6667 132.466 98.82C129.679 101.973 126.049 104.503 121.576 106.41C117.102 108.39 112.409 109.38 107.496 109.38C101.629 109.38 96.9355 107.95 93.4155 105.09C89.8955 102.303 88.1355 98.5633 88.1355 93.87C90.0422 91.89 93.7089 89.2133 99.1355 85.84V85.07C95.6155 84.4833 92.8655 83.2367 90.8855 81.33C88.9789 79.35 87.9522 76.8567 87.8055 73.85C90.4455 71.1367 93.4522 68.68 96.8255 66.48V65.82C94.1855 64.28 92.1322 62.2267 90.6655 59.66C89.1989 57.0933 88.4655 54.1967 88.4655 50.97C88.4655 47.1567 89.4555 43.71 91.4355 40.63C93.4155 37.4767 96.1289 35.02 99.5755 33.26C103.022 31.5 106.909 30.62 111.236 30.62C113.069 30.62 115.232 30.84 117.726 31.28C120.072 31.5733 121.686 31.72 122.566 31.72C125.206 31.5733 130.339 30.3633 137.966 28.09L138.626 28.53L137.196 37ZM111.346 61.53C113.986 61.53 116.002 60.6133 117.396 58.78C118.862 56.9467 119.596 54.3067 119.596 50.86C119.596 47.1933 118.752 44.26 117.066 42.06C115.452 39.86 113.142 38.76 110.136 38.76C107.569 38.76 105.552 39.6767 104.086 41.51C102.692 43.27 101.996 45.9467 101.996 49.54C101.996 53.1333 102.802 56.03 104.416 58.23C106.102 60.43 108.412 61.53 111.346 61.53ZM105.956 86.5C104.636 87.6 103.609 88.8467 102.876 90.24C102.142 91.6333 101.776 93.0267 101.776 94.42C101.776 96.5467 102.619 98.1967 104.306 99.37C106.066 100.617 108.522 101.24 111.676 101.24C115.269 101.24 118.276 100.433 120.696 98.82C123.189 97.28 124.436 95.3733 124.436 93.1C124.436 91.9267 123.996 90.9733 123.116 90.24C122.236 89.58 120.512 88.9567 117.946 88.37C115.452 87.8567 111.456 87.2333 105.956 86.5Z" fill="#2A2921"/>
</svg>
