<svg width="169" height="136" viewBox="0 0 169 136" fill="none" xmlns="http://www.w3.org/2000/svg">
<path d="M61.79 87.18C61.6433 86.1533 61.5333 85.31 61.46 84.65C61.46 83.9167 61.4233 83.0733 61.35 82.12C58.8567 84.6133 56.2167 86.3733 53.43 87.4C50.6433 88.4267 47.82 88.94 44.96 88.94C40.2667 88.94 36.6 87.5467 33.96 84.76C31.32 81.9733 30 78.49 30 74.31C30 70.79 30.88 67.7833 32.64 65.29C34.4733 62.7967 36.8567 60.78 39.79 59.24C42.7967 57.6267 46.0967 56.4167 49.69 55.61C53.3567 54.73 57.0233 54.2167 60.69 54.07V48.35C60.69 45.49 60.1033 43.07 58.93 41.09C57.83 39.11 55.7767 38.1933 52.77 38.34C49.69 38.4867 47.1967 39.5133 45.29 41.42C45.8767 42.08 46.2433 42.8133 46.39 43.62C46.5367 44.3533 46.61 45.0133 46.61 45.6C46.61 47.0667 46.0233 48.6067 44.85 50.22C43.6767 51.76 41.8067 52.4933 39.24 52.42C37.04 52.3467 35.3533 51.5767 34.18 50.11C33.0067 48.6433 32.42 46.92 32.42 44.94C32.42 42.0067 33.4467 39.4767 35.5 37.35C37.6267 35.15 40.45 33.4633 43.97 32.29C47.49 31.0433 51.3767 30.42 55.63 30.42C62.0833 30.42 67.07 32.1067 70.59 35.48C74.1833 38.78 75.98 44.0967 75.98 51.43C75.98 53.9233 75.98 56.05 75.98 57.81C75.98 59.57 75.9433 61.33 75.87 63.09C75.87 64.85 75.87 66.9767 75.87 69.47C75.87 70.4967 75.8333 71.9633 75.76 73.87C75.6867 75.7033 75.5767 77.4633 75.43 79.15C76.6767 79.0033 77.9967 78.93 79.39 78.93C80.7833 78.8567 81.8467 78.82 82.58 78.82V87.18H61.79ZM60.58 61.88C56.4733 62.2467 52.9167 63.31 49.91 65.07C46.9767 66.83 45.5467 69.2867 45.62 72.44C45.6933 74.4933 46.3533 75.96 47.6 76.84C48.8467 77.72 50.2767 78.16 51.89 78.16C53.5767 78.16 55.1533 77.7933 56.62 77.06C58.0867 76.3267 59.4067 75.3733 60.58 74.2V61.88Z" fill="#2A2921"/>
<path d="M103.856 56.38C103.856 65.5467 107.559 70.13 114.966 70.13C116.652 70.13 118.229 69.91 119.696 69.47C121.162 69.03 122.409 68.5167 123.436 67.93V41.75C122.629 41.6033 121.676 41.4933 120.576 41.42C119.476 41.2733 118.192 41.2 116.726 41.2C112.399 41.2 109.172 42.63 107.046 45.49C104.919 48.35 103.856 51.98 103.856 56.38ZM139.826 79.92C139.826 89.38 137.406 96.3833 132.566 100.93C127.799 105.55 120.392 107.86 110.346 107.86C106.826 107.86 103.306 107.53 99.7855 106.87C96.2655 106.283 93.0022 105.477 89.9955 104.45L92.8555 90.7C95.4222 91.7267 98.0989 92.5333 100.886 93.12C103.746 93.7067 106.972 94 110.566 94C115.259 94 118.559 92.9733 120.466 90.92C122.446 88.8667 123.436 86.2267 123.436 83V80.91C121.676 81.7167 119.842 82.34 117.936 82.78C116.102 83.1467 114.086 83.33 111.886 83.33C103.892 83.33 97.7689 80.9833 93.5155 76.29C89.2622 71.5233 87.1355 64.8867 87.1355 56.38C87.1355 52.1267 87.7955 48.2767 89.1155 44.83C90.4355 41.31 92.3422 38.3033 94.8355 35.81C97.4022 33.3167 100.519 31.41 104.186 30.09C107.852 28.6967 111.996 28 116.616 28C118.596 28 120.612 28.11 122.666 28.33C124.792 28.4767 126.882 28.6967 128.936 28.99C130.989 29.2833 132.932 29.65 134.766 30.09C136.672 30.4567 138.359 30.86 139.826 31.3V79.92Z" fill="#2A2921"/>
</svg>
