<svg width="169" height="136" viewBox="0 0 169 136" fill="none" xmlns="http://www.w3.org/2000/svg">
<path d="M61.79 86.1895C61.6433 85.1628 61.5333 84.3195 61.46 83.6595C61.46 82.9261 61.4233 82.0828 61.35 81.1295C58.8567 83.6228 56.2167 85.3828 53.43 86.4095C50.6433 87.4361 47.82 87.9495 44.96 87.9495C40.2667 87.9495 36.6 86.5561 33.96 83.7695C31.32 80.9828 30 77.4995 30 73.3195C30 69.7994 30.88 66.7928 32.64 64.2995C34.4733 61.8061 36.8567 59.7895 39.79 58.2495C42.7967 56.6361 46.0967 55.4261 49.69 54.6195C53.3567 53.7395 57.0233 53.2261 60.69 53.0794V47.3595C60.69 44.4995 60.1033 42.0794 58.93 40.0994C57.83 38.1195 55.7767 37.2028 52.77 37.3494C49.69 37.4961 47.1967 38.5228 45.29 40.4295C45.8767 41.0895 46.2433 41.8228 46.39 42.6295C46.5367 43.3628 46.61 44.0228 46.61 44.6095C46.61 46.0761 46.0233 47.6161 44.85 49.2295C43.6767 50.7694 41.8067 51.5028 39.24 51.4295C37.04 51.3561 35.3533 50.5861 34.18 49.1195C33.0067 47.6528 32.42 45.9295 32.42 43.9495C32.42 41.0161 33.4467 38.4861 35.5 36.3595C37.6267 34.1595 40.45 32.4728 43.97 31.2994C47.49 30.0528 51.3767 29.4295 55.63 29.4295C62.0833 29.4295 67.07 31.1161 70.59 34.4894C74.1833 37.7894 75.98 43.1061 75.98 50.4394C75.98 52.9328 75.98 55.0595 75.98 56.8195C75.98 58.5795 75.9433 60.3394 75.87 62.0994C75.87 63.8595 75.87 65.9861 75.87 68.4795C75.87 69.5061 75.8333 70.9728 75.76 72.8795C75.6867 74.7128 75.5767 76.4728 75.43 78.1595C76.6767 78.0128 77.9967 77.9395 79.39 77.9395C80.7833 77.8661 81.8467 77.8295 82.58 77.8295V86.1895H61.79ZM60.58 60.8895C56.4733 61.2561 52.9167 62.3195 49.91 64.0795C46.9767 65.8395 45.5467 68.2961 45.62 71.4495C45.6933 73.5028 46.3533 74.9694 47.6 75.8494C48.8467 76.7295 50.2767 77.1695 51.89 77.1695C53.5767 77.1695 55.1533 76.8028 56.62 76.0695C58.0867 75.3361 59.4067 74.3828 60.58 73.2094V60.8895Z" fill="#2A2921"/>
<path d="M85.8916 56.7021C85.8916 47.7861 88.0042 40.6068 92.2295 35.1641C96.4906 29.7214 102.22 27 109.417 27C115.791 27 120.75 29.1842 124.295 33.5527L124.939 28.0742H139.012V84.2559C139.012 89.3405 137.848 93.7627 135.521 97.5225C133.229 101.282 129.988 104.147 125.799 106.116C121.609 108.086 116.704 109.07 111.082 109.07C106.821 109.07 102.667 108.211 98.6211 106.492C94.5749 104.809 91.5133 102.625 89.4365 99.9395L96.3115 90.4863C100.179 94.819 104.869 96.9854 110.384 96.9854C114.502 96.9854 117.706 95.8753 119.998 93.6553C122.29 91.471 123.436 88.3558 123.436 84.3096V81.1943C119.855 85.2406 115.146 87.2637 109.31 87.2637C102.327 87.2637 96.6696 84.5423 92.3369 79.0996C88.04 73.6211 85.8916 66.3701 85.8916 57.3467V56.7021ZM101.414 57.8301C101.414 63.0938 102.47 67.2295 104.583 70.2373C106.696 73.2093 109.596 74.6953 113.284 74.6953C118.011 74.6953 121.395 72.9229 123.436 69.3779V44.9395C121.359 41.3945 118.011 39.6221 113.392 39.6221C109.668 39.6221 106.731 41.1439 104.583 44.1875C102.47 47.2311 101.414 51.7786 101.414 57.8301Z" fill="#2A2921"/>
</svg>
