<svg width="169" height="136" viewBox="0 0 169 136" fill="none" xmlns="http://www.w3.org/2000/svg">
<path d="M61.79 84.76C61.6433 83.7333 61.5333 82.89 61.46 82.23C61.46 81.4967 61.4233 80.6533 61.35 79.7C58.8567 82.1933 56.2167 83.9533 53.43 84.98C50.6433 86.0067 47.82 86.52 44.96 86.52C40.2667 86.52 36.6 85.1267 33.96 82.34C31.32 79.5533 30 76.07 30 71.89C30 68.37 30.88 65.3633 32.64 62.87C34.4733 60.3767 36.8567 58.36 39.79 56.82C42.7967 55.2067 46.0967 53.9967 49.69 53.19C53.3567 52.31 57.0233 51.7967 60.69 51.65V45.93C60.69 43.07 60.1033 40.65 58.93 38.67C57.83 36.69 55.7767 35.7733 52.77 35.92C49.69 36.0667 47.1967 37.0933 45.29 39C45.8767 39.66 46.2433 40.3933 46.39 41.2C46.5367 41.9333 46.61 42.5933 46.61 43.18C46.61 44.6467 46.0233 46.1867 44.85 47.8C43.6767 49.34 41.8067 50.0733 39.24 50C37.04 49.9267 35.3533 49.1567 34.18 47.69C33.0067 46.2233 32.42 44.5 32.42 42.52C32.42 39.5867 33.4467 37.0567 35.5 34.93C37.6267 32.73 40.45 31.0433 43.97 29.87C47.49 28.6233 51.3767 28 55.63 28C62.0833 28 67.07 29.6867 70.59 33.06C74.1833 36.36 75.98 41.6767 75.98 49.01C75.98 51.5033 75.98 53.63 75.98 55.39C75.98 57.15 75.9433 58.91 75.87 60.67C75.87 62.43 75.87 64.5567 75.87 67.05C75.87 68.0767 75.8333 69.5433 75.76 71.45C75.6867 73.2833 75.5767 75.0433 75.43 76.73C76.6767 76.5833 77.9967 76.51 79.39 76.51C80.7833 76.4367 81.8467 76.4 82.58 76.4V84.76H61.79ZM60.58 59.46C56.4733 59.8267 52.9167 60.89 49.91 62.65C46.9767 64.41 45.5467 66.8667 45.62 70.02C45.6933 72.0733 46.3533 73.54 47.6 74.42C48.8467 75.3 50.2767 75.74 51.89 75.74C53.5767 75.74 55.1533 75.3733 56.62 74.64C58.0867 73.9067 59.4067 72.9533 60.58 71.78V59.46Z" fill="#2A2921"/>
<path d="M108.806 107.97C105.579 107.97 102.572 107.677 99.7855 107.09C97.0722 106.577 94.6522 105.77 92.5255 104.67C90.4722 103.57 88.8589 102.14 87.6855 100.38C86.5122 98.62 85.9255 96.53 85.9255 94.11C85.9255 89.71 88.5289 86.0433 93.7355 83.11V82.67C92.2689 81.7167 91.0589 80.5067 90.1055 79.04C89.1522 77.5733 88.6755 75.7033 88.6755 73.43C88.6755 71.45 89.2622 69.58 90.4355 67.82C91.6089 65.9867 93.0755 64.4467 94.8355 63.2V62.76C92.9289 61.44 91.2055 59.57 89.6655 57.15C88.1989 54.6567 87.4655 51.7967 87.4655 48.57C87.4655 45.27 88.0889 42.41 89.3355 39.99C90.5822 37.4967 92.2322 35.4433 94.2855 33.83C96.4122 32.1433 98.8322 30.8967 101.546 30.09C104.259 29.2833 107.082 28.88 110.016 28.88C113.242 28.88 116.066 29.32 118.486 30.2H138.396V41.97H129.706C130.219 42.7767 130.622 43.8033 130.916 45.05C131.282 46.2967 131.466 47.6533 131.466 49.12C131.466 52.2733 130.916 55.0233 129.816 57.37C128.716 59.6433 127.176 61.55 125.196 63.09C123.289 64.5567 121.016 65.6567 118.376 66.39C115.809 67.1233 113.022 67.49 110.016 67.49C107.889 67.49 105.689 67.1233 103.416 66.39C102.682 66.9767 102.169 67.5633 101.876 68.15C101.582 68.7367 101.436 69.5067 101.436 70.46C101.436 71.8533 102.022 72.88 103.196 73.54C104.442 74.2 106.606 74.53 109.686 74.53H118.486C125.232 74.53 130.366 75.63 133.886 77.83C137.479 79.9567 139.276 83.4767 139.276 88.39C139.276 91.25 138.542 93.8533 137.076 96.2C135.682 98.62 133.666 100.673 131.026 102.36C128.386 104.12 125.196 105.477 121.456 106.43C117.716 107.457 113.499 107.97 108.806 107.97ZM110.016 57.7C112.142 57.7 113.902 56.9667 115.296 55.5C116.762 53.96 117.496 51.65 117.496 48.57C117.496 45.71 116.762 43.5467 115.296 42.08C113.902 40.54 112.142 39.77 110.016 39.77C107.889 39.77 106.092 40.5033 104.626 41.97C103.232 43.4367 102.536 45.6367 102.536 48.57C102.536 51.65 103.232 53.96 104.626 55.5C106.092 56.9667 107.889 57.7 110.016 57.7ZM111.336 97.85C115.002 97.85 118.009 97.19 120.356 95.87C122.702 94.6233 123.876 93.0467 123.876 91.14C123.876 89.4533 123.142 88.3167 121.676 87.73C120.282 87.1433 118.229 86.85 115.516 86.85H109.906C107.999 86.85 106.459 86.7767 105.286 86.63C104.112 86.5567 103.086 86.41 102.206 86.19C100.226 87.95 99.2355 89.7467 99.2355 91.58C99.2355 93.6333 100.336 95.1733 102.536 96.2C104.736 97.3 107.669 97.85 111.336 97.85Z" fill="#2A2921"/>
</svg>
