<svg width="169" height="136" viewBox="0 0 169 136" fill="none" xmlns="http://www.w3.org/2000/svg">
<path d="M54.72 27C63.8867 27 70.9267 29.2 75.84 33.6C80.7533 37.9267 83.21 44.49 83.21 53.29V87.06H67.15V79.69C63.9233 85.19 57.91 87.94 49.11 87.94C44.5633 87.94 40.6033 87.17 37.23 85.63C33.93 84.09 31.4 81.9633 29.64 79.25C27.88 76.5367 27 73.4567 27 70.01C27 64.51 29.0533 60.1833 33.16 57.03C37.34 53.8767 43.7567 52.3 52.41 52.3H66.05C66.05 48.56 64.9133 45.7 62.64 43.72C60.3667 41.6667 56.9567 40.64 52.41 40.64C49.2567 40.64 46.14 41.1533 43.06 42.18C40.0533 43.1333 37.4867 44.4533 35.36 46.14L29.2 34.15C32.4267 31.8767 36.2767 30.1167 40.75 28.87C45.2967 27.6233 49.9533 27 54.72 27ZM53.4 76.39C56.3333 76.39 58.9367 75.73 61.21 74.41C63.4833 73.0167 65.0967 71 66.05 68.36V62.31H54.28C47.24 62.31 43.72 64.62 43.72 69.24C43.72 71.44 44.5633 73.2 46.25 74.52C48.01 75.7667 50.3933 76.39 53.4 76.39Z" fill="#2A2921"/>
<path d="M117.551 77.93C121.584 77.93 125.141 76.39 128.221 73.31C131.374 70.1567 132.951 65.5 132.951 59.34C132.951 52.2267 131.447 46.9467 128.441 43.5C125.434 40.0533 121.951 38.33 117.991 38.33C113.224 38.33 109.447 40.2367 106.661 44.05C103.874 47.79 102.481 52.7033 102.481 58.79C102.481 65.0233 104.021 69.79 107.101 73.09C110.181 76.3167 113.664 77.93 117.551 77.93ZM132.951 31.29H141.641V82.55C141.641 91.0567 139.294 97.4367 134.601 101.69C129.907 106.017 123.857 108.18 116.451 108.18C109.704 108.18 103.947 107.043 99.1806 104.77V96.08C103.874 98.7933 109.374 100.15 115.681 100.15C121.034 100.15 125.251 98.72 128.331 95.86C131.411 93 132.951 88.5267 132.951 82.44V76.17C129.284 82.4767 123.821 85.63 116.561 85.63C110.181 85.63 104.717 83.2833 100.171 78.59C95.6973 73.8967 93.4606 67.37 93.4606 59.01C93.4606 50.7233 95.5506 43.9033 99.7306 38.55C103.911 33.1967 109.374 30.52 116.121 30.52C123.747 30.52 129.357 33.8567 132.951 40.53V31.29Z" fill="#2A2921"/>
</svg>
