<svg width="169" height="136" viewBox="0 0 169 136" fill="none" xmlns="http://www.w3.org/2000/svg">
<path d="M54.72 28C63.8867 28 70.9267 30.2 75.84 34.6C80.7533 38.9267 83.21 45.49 83.21 54.29V88.06H67.15V80.69C63.9233 86.19 57.91 88.94 49.11 88.94C44.5633 88.94 40.6033 88.17 37.23 86.63C33.93 85.09 31.4 82.9633 29.64 80.25C27.88 77.5367 27 74.4567 27 71.01C27 65.51 29.0533 61.1833 33.16 58.03C37.34 54.8767 43.7567 53.3 52.41 53.3H66.05C66.05 49.56 64.9133 46.7 62.64 44.72C60.3667 42.6667 56.9567 41.64 52.41 41.64C49.2567 41.64 46.14 42.1533 43.06 43.18C40.0533 44.1333 37.4867 45.4533 35.36 47.14L29.2 35.15C32.4267 32.8767 36.2767 31.1167 40.75 29.87C45.2967 28.6233 49.9533 28 54.72 28ZM53.4 77.39C56.3333 77.39 58.9367 76.73 61.21 75.41C63.4833 74.0167 65.0967 72 66.05 69.36V63.31H54.28C47.24 63.31 43.72 65.62 43.72 70.24C43.72 72.44 44.5633 74.2 46.25 75.52C48.01 76.7667 50.3933 77.39 53.4 77.39Z" fill="#2A2921"/>
<path d="M113.921 70.79C111.354 70.79 108.897 70.3867 106.551 69.58C105.891 70.1667 105.341 70.7167 104.901 71.23C104.461 71.67 104.241 72.2933 104.241 73.1C104.241 74.42 105.561 75.41 108.201 76.07C110.841 76.73 115.351 77.06 121.731 77.06C126.131 77.06 129.577 77.6833 132.071 78.93C134.564 80.1767 136.361 81.8633 137.461 83.99C138.561 86.0433 139.111 88.28 139.111 90.7C139.111 93.56 138.231 96.2733 136.471 98.84C134.784 101.48 132.144 103.607 128.551 105.22C125.031 106.907 120.484 107.75 114.911 107.75C107.651 107.75 101.967 106.503 97.8606 104.01C93.754 101.59 91.7006 98.3267 91.7006 94.22C91.7006 92.02 92.3973 89.9667 93.7906 88.06C95.2573 86.2267 97.054 84.76 99.1806 83.66C97.7873 82.78 96.6873 81.7533 95.8806 80.58C95.1473 79.3333 94.7806 77.9033 94.7806 76.29C94.7806 74.1633 95.3673 72.2933 96.5406 70.68C97.714 69.0667 99.144 67.5633 100.831 66.17C98.9973 64.63 97.5306 62.76 96.4306 60.56C95.404 58.2867 94.8906 55.83 94.8906 53.19C94.8906 49.89 95.6973 46.92 97.3106 44.28C98.9973 41.5667 101.271 39.4033 104.131 37.79C106.991 36.1767 110.254 35.37 113.921 35.37C116.267 35.37 118.504 35.7367 120.631 36.47C122.757 37.2033 124.627 38.23 126.241 39.55C128.221 38.1567 130.421 37.0933 132.841 36.36C135.261 35.6267 137.864 35.37 140.651 35.59L141.861 44.17C139.954 43.8033 138.047 43.73 136.141 43.95C134.307 44.17 132.621 44.6833 131.081 45.49C132.254 47.91 132.841 50.4767 132.841 53.19C132.841 56.5633 131.997 59.57 130.311 62.21C128.697 64.85 126.461 66.94 123.601 68.48C120.741 70.02 117.514 70.79 113.921 70.79ZM113.811 61.77C116.304 61.77 118.357 60.9633 119.971 59.35C121.584 57.7367 122.391 55.6833 122.391 53.19C122.391 50.77 121.547 48.79 119.861 47.25C118.247 45.6367 116.231 44.83 113.811 44.83C111.611 44.83 109.631 45.6367 107.871 47.25C106.184 48.8633 105.341 50.8433 105.341 53.19C105.341 55.5367 106.147 57.5533 107.761 59.24C109.447 60.9267 111.464 61.77 113.811 61.77ZM101.271 92.35C101.271 94.33 102.627 95.76 105.341 96.64C108.127 97.5933 111.647 98.07 115.901 98.07C120.081 98.07 123.271 97.52 125.471 96.42C127.744 95.32 128.881 93.8533 128.881 92.02C128.881 90.3333 128.147 89.1233 126.681 88.39C125.287 87.73 122.501 87.4 118.321 87.4C116.047 87.4 113.811 87.29 111.611 87.07C109.411 86.85 107.357 86.52 105.451 86.08C104.277 86.96 103.287 87.8767 102.481 88.83C101.674 89.7833 101.271 90.9567 101.271 92.35Z" fill="#2A2921"/>
</svg>
