<svg width="169" height="136" viewBox="0 0 169 136" fill="none" xmlns="http://www.w3.org/2000/svg">
<path d="M50.72 25.75C59.8867 25.75 66.9267 27.95 71.84 32.35C76.7533 36.6767 79.21 43.24 79.21 52.04V85.81H63.15V78.44C59.9233 83.94 53.91 86.69 45.11 86.69C40.5633 86.69 36.6033 85.92 33.23 84.38C29.93 82.84 27.4 80.7133 25.64 78C23.88 75.2867 23 72.2067 23 68.76C23 63.26 25.0533 58.9333 29.16 55.78C33.34 52.6267 39.7567 51.05 48.41 51.05H62.05C62.05 47.31 60.9133 44.45 58.64 42.47C56.3667 40.4167 52.9567 39.39 48.41 39.39C45.2567 39.39 42.14 39.9033 39.06 40.93C36.0533 41.8833 33.4867 43.2033 31.36 44.89L25.2 32.9C28.4267 30.6267 32.2767 28.8667 36.75 27.62C41.2967 26.3733 45.9533 25.75 50.72 25.75ZM49.4 75.14C52.3333 75.14 54.9367 74.48 57.21 73.16C59.4833 71.7667 61.0967 69.75 62.05 67.11V61.06H50.28C43.24 61.06 39.72 63.37 39.72 67.99C39.72 70.19 40.5633 71.95 42.25 73.27C44.01 74.5167 46.3933 75.14 49.4 75.14Z" fill="#2A2921"/>
<path d="M97.9306 84.16C93.5306 82.0333 91.3306 78.77 91.3306 74.37C91.3306 72.0967 92.174 70.1167 93.8606 68.43C95.6206 66.67 97.784 65.4967 100.351 64.91C96.3906 61.39 94.4106 56.77 94.4106 51.05C94.4106 45.33 96.4273 40.71 100.461 37.19C104.567 33.67 109.407 31.91 114.981 31.91C120.554 31.91 125.284 33.23 129.171 35.87C129.684 31.9833 131.224 28.8667 133.791 26.52C136.431 24.1733 139.877 23 144.131 23L143.361 31.58C136.907 31.58 133.534 34.2933 133.241 39.72C135.807 42.8733 137.091 46.65 137.091 51.05C137.091 56.6967 135.037 61.3533 130.931 65.02C126.897 68.6133 121.837 70.41 115.751 70.41C111.571 70.41 107.867 69.5667 104.641 67.88C103.174 68.1733 101.854 68.87 100.681 69.97C99.5073 70.9967 98.9206 72.4267 98.9206 74.26C98.9206 78.1467 102.147 80.09 108.601 80.09H129.061C133.974 80.09 137.861 81.1533 140.721 83.28C143.581 85.3333 145.011 88.23 145.011 91.97C145.011 97.5433 142.187 102.42 136.541 106.6C130.967 110.78 123.891 112.87 115.311 112.87C106.731 112.87 99.984 111.257 95.0706 108.03C90.1573 104.877 87.7006 100.88 87.7006 96.04C87.7006 92.8867 88.6173 90.32 90.4506 88.34C92.3573 86.36 94.8506 84.9667 97.9306 84.16ZM96.2806 95.71C96.2806 98.4967 97.784 100.88 100.791 102.86C103.871 104.913 108.491 105.94 114.651 105.94C120.884 105.94 126.054 104.583 130.161 101.87C134.341 99.23 136.431 96.1133 136.431 92.52C136.431 90.8333 135.807 89.3667 134.561 88.12C133.387 86.9467 131.554 86.36 129.061 86.36H107.831C104.091 86.5067 101.231 87.3867 99.2506 89C97.2706 90.6867 96.2806 92.9233 96.2806 95.71ZM128.621 51.05C128.621 47.2367 127.484 44.1567 125.211 41.81C122.937 39.39 119.784 38.18 115.751 38.18C111.791 38.18 108.674 39.39 106.401 41.81C104.127 44.1567 102.991 47.2367 102.991 51.05C102.991 54.8633 104.127 58.0167 106.401 60.51C108.747 62.93 111.901 64.14 115.861 64.14C119.821 64.14 122.937 62.8933 125.211 60.4C127.484 57.9067 128.621 54.79 128.621 51.05Z" fill="#2A2921"/>
</svg>
