<svg width="169" height="136" viewBox="0 0 169 136" fill="none" xmlns="http://www.w3.org/2000/svg">
<path d="M54.72 26C63.8867 26 70.9267 28.2 75.84 32.6C80.7533 36.9267 83.21 43.49 83.21 52.29V86.06H67.15V78.69C63.9233 84.19 57.91 86.94 49.11 86.94C44.5633 86.94 40.6033 86.17 37.23 84.63C33.93 83.09 31.4 80.9633 29.64 78.25C27.88 75.5367 27 72.4567 27 69.01C27 63.51 29.0533 59.1833 33.16 56.03C37.34 52.8767 43.7567 51.3 52.41 51.3H66.05C66.05 47.56 64.9133 44.7 62.64 42.72C60.3667 40.6667 56.9567 39.64 52.41 39.64C49.2567 39.64 46.14 40.1533 43.06 41.18C40.0533 42.1333 37.4867 43.4533 35.36 45.14L29.2 33.15C32.4267 30.8767 36.2767 29.1167 40.75 27.87C45.2967 26.6233 49.9533 26 54.72 26ZM53.4 75.39C56.3333 75.39 58.9367 74.73 61.21 73.41C63.4833 72.0167 65.0967 70 66.05 67.36V61.31H54.28C47.24 61.31 43.72 63.62 43.72 68.24C43.72 70.44 44.5633 72.2 46.25 73.52C48.01 74.7667 50.3933 75.39 53.4 75.39Z" fill="#2A2921"/>
<path d="M115.681 110.7C112.381 110.7 109.374 110.37 106.661 109.71C103.947 109.123 101.601 108.207 99.6206 106.96C97.714 105.713 96.2106 104.21 95.1106 102.45C94.084 100.69 93.5706 98.6367 93.5706 96.29C93.5706 94.0167 94.2673 91.8533 95.6606 89.8C97.054 87.7467 98.9606 85.8767 101.381 84.19V83.75C100.061 82.9433 98.924 81.8433 97.9706 80.45C97.0906 78.9833 96.6506 77.1867 96.6506 75.06C96.6506 72.7867 97.274 70.8067 98.5206 69.12C99.7673 67.4333 101.087 66.1133 102.481 65.16V64.72C100.721 63.2533 99.1073 61.31 97.6406 58.89C96.2473 56.3967 95.5506 53.5367 95.5506 50.31C95.5506 47.3767 96.064 44.7367 97.0906 42.39C98.1906 40.0433 99.6573 38.0633 101.491 36.45C103.324 34.7633 105.451 33.48 107.871 32.6C110.364 31.72 112.967 31.28 115.681 31.28C117.147 31.28 118.504 31.4267 119.751 31.72C121.071 31.94 122.244 32.2333 123.271 32.6H141.861V39.53H130.861C132.107 40.7767 133.134 42.3533 133.941 44.26C134.821 46.1667 135.261 48.2567 135.261 50.53C135.261 53.39 134.747 55.9933 133.721 58.34C132.694 60.6133 131.301 62.5567 129.541 64.17C127.781 65.71 125.691 66.92 123.271 67.8C120.924 68.68 118.394 69.12 115.681 69.12C114.361 69.12 113.004 68.9733 111.611 68.68C110.217 68.3133 108.897 67.8367 107.651 67.25C106.697 68.0567 105.891 68.9733 105.231 70C104.571 70.9533 104.241 72.1633 104.241 73.63C104.241 75.3167 104.901 76.71 106.221 77.81C107.541 78.91 110.034 79.46 113.701 79.46H124.041C130.274 79.46 134.931 80.4867 138.011 82.54C141.164 84.52 142.741 87.7467 142.741 92.22C142.741 94.7133 142.117 97.06 140.871 99.26C139.624 101.533 137.827 103.513 135.481 105.2C133.134 106.887 130.274 108.207 126.901 109.16C123.601 110.187 119.861 110.7 115.681 110.7ZM115.681 63.07C117.221 63.07 118.651 62.7767 119.971 62.19C121.364 61.6033 122.574 60.76 123.601 59.66C124.701 58.56 125.544 57.24 126.131 55.7C126.717 54.0867 127.011 52.29 127.011 50.31C127.011 46.35 125.911 43.3067 123.711 41.18C121.511 38.98 118.834 37.88 115.681 37.88C112.527 37.88 109.851 38.98 107.651 41.18C105.451 43.3067 104.351 46.35 104.351 50.31C104.351 52.29 104.644 54.0867 105.231 55.7C105.817 57.24 106.624 58.56 107.651 59.66C108.751 60.76 109.961 61.6033 111.281 62.19C112.674 62.7767 114.141 63.07 115.681 63.07ZM117.001 104.43C119.567 104.43 121.877 104.1 123.931 103.44C126.057 102.853 127.854 102.047 129.321 101.02C130.787 100.067 131.924 98.93 132.731 97.61C133.537 96.29 133.941 94.9333 133.941 93.54C133.941 91.0467 133.024 89.3233 131.191 88.37C129.357 87.4167 126.681 86.94 123.161 86.94H113.921C112.894 86.94 111.757 86.8667 110.511 86.72C109.337 86.6467 108.164 86.4267 106.991 86.06C105.084 87.4533 103.691 88.92 102.811 90.46C101.931 92 101.491 93.54 101.491 95.08C101.491 97.94 102.847 100.213 105.561 101.9C108.347 103.587 112.161 104.43 117.001 104.43Z" fill="#2A2921"/>
</svg>
