<svg width="169" height="136" viewBox="0 0 169 136" fill="none" xmlns="http://www.w3.org/2000/svg">
<path d="M53.72 24C62.8867 24 69.9267 26.2 74.84 30.6C79.7533 34.9267 82.21 41.49 82.21 50.29V84.06H66.15V76.69C62.9233 82.19 56.91 84.94 48.11 84.94C43.5633 84.94 39.6033 84.17 36.23 82.63C32.93 81.09 30.4 78.9633 28.64 76.25C26.88 73.5367 26 70.4567 26 67.01C26 61.51 28.0533 57.1833 32.16 54.03C36.34 50.8767 42.7567 49.3 51.41 49.3H65.05C65.05 45.56 63.9133 42.7 61.64 40.72C59.3667 38.6667 55.9567 37.64 51.41 37.64C48.2567 37.64 45.14 38.1533 42.06 39.18C39.0533 40.1333 36.4867 41.4533 34.36 43.14L28.2 31.15C31.4267 28.8767 35.2767 27.1167 39.75 25.87C44.2967 24.6233 48.9533 24 53.72 24ZM52.4 73.39C55.3333 73.39 57.9367 72.73 60.21 71.41C62.4833 70.0167 64.0967 68 65.05 65.36V59.31H53.28C46.24 59.31 42.72 61.62 42.72 66.24C42.72 68.44 43.5633 70.2 45.25 71.52C47.01 72.7667 49.3933 73.39 52.4 73.39Z" fill="#2A2921"/>
<path d="M116.111 111.56C108.484 111.56 102.287 110.167 97.5206 107.38C92.8273 104.593 90.4806 100.633 90.4806 95.5C90.4806 89.8533 93.5973 85.6367 99.8306 82.85C96.3106 81.09 94.5506 78.8167 94.5506 76.03C94.5506 72.51 96.6773 69.9067 100.931 68.22C97.924 66.3867 95.614 63.8933 94.0006 60.74C92.3873 57.5867 91.5806 54.03 91.5806 50.07C91.5806 46.11 92.4606 42.5533 94.2206 39.4C96.054 36.1733 98.6206 33.6433 101.921 31.81C105.294 29.9767 109.254 29.06 113.801 29.06C118.641 29.06 123.041 30.4533 127.001 33.24C130.887 31.04 135.361 29.94 140.421 29.94H141.301L140.091 36.54H137.561C136.901 36.54 135.947 36.6133 134.701 36.76C133.454 36.9067 132.354 37.09 131.401 37.31C132.941 39.07 134.114 41.05 134.921 43.25C135.727 45.45 136.131 47.7233 136.131 50.07C136.131 54.1767 135.214 57.88 133.381 61.18C131.621 64.4067 129.054 66.9733 125.681 68.88C122.307 70.7133 118.347 71.63 113.801 71.63C111.161 71.63 108.741 71.3 106.541 70.64C104.854 71.2267 104.011 72.18 104.011 73.5C104.011 75.26 106.027 76.4333 110.061 77.02L124.471 79.33C130.484 80.2833 135.031 82.0067 138.111 84.5C141.191 86.9933 142.731 90.44 142.731 94.84C142.731 100.34 140.347 104.483 135.581 107.27C130.887 110.13 124.397 111.56 116.111 111.56ZM113.801 63.71C117.907 63.71 121.061 62.5 123.261 60.08C125.534 57.5867 126.671 54.2867 126.671 50.18C126.671 46.22 125.534 43.03 123.261 40.61C121.061 38.19 117.907 36.98 113.801 36.98C109.694 36.98 106.541 38.19 104.341 40.61C102.141 43.03 101.041 46.22 101.041 50.18C101.041 54.2867 102.141 57.5867 104.341 60.08C106.541 62.5 109.694 63.71 113.801 63.71ZM116.991 102.76C122.051 102.76 125.937 102.1 128.651 100.78C131.364 99.46 132.721 97.5533 132.721 95.06C132.721 93.1533 131.877 91.6133 130.191 90.44C128.577 89.34 126.121 88.46 122.821 87.8L107.421 85.16C105.221 86.1867 103.424 87.4333 102.031 88.9C100.637 90.44 99.9406 92.1267 99.9406 93.96C99.9406 96.9667 101.444 99.1667 104.451 100.56C107.457 102.027 111.637 102.76 116.991 102.76Z" fill="#2A2921"/>
</svg>
