<svg width="169" height="136" viewBox="0 0 169 136" fill="none" xmlns="http://www.w3.org/2000/svg">
<path d="M50.72 29.81C59.8867 29.81 66.9267 32.01 71.84 36.41C76.7533 40.7367 79.21 47.3 79.21 56.1V89.87H63.15V82.5C59.9233 88 53.91 90.75 45.11 90.75C40.5633 90.75 36.6033 89.98 33.23 88.44C29.93 86.9 27.4 84.7733 25.64 82.06C23.88 79.3467 23 76.2667 23 72.82C23 67.32 25.0533 62.9933 29.16 59.84C33.34 56.6867 39.7567 55.11 48.41 55.11H62.05C62.05 51.37 60.9133 48.51 58.64 46.53C56.3667 44.4767 52.9567 43.45 48.41 43.45C45.2567 43.45 42.14 43.9633 39.06 44.99C36.0533 45.9433 33.4867 47.2633 31.36 48.95L25.2 36.96C28.4267 34.6867 32.2767 32.9267 36.75 31.68C41.2967 30.4333 45.9533 29.81 50.72 29.81ZM49.4 79.2C52.3333 79.2 54.9367 78.54 57.21 77.22C59.4833 75.8267 61.0967 73.81 62.05 71.17V65.12H50.28C43.24 65.12 39.72 67.43 39.72 72.05C39.72 74.25 40.5633 76.01 42.25 77.33C44.01 78.5767 46.3933 79.2 49.4 79.2Z" fill="#2A2921"/>
<path d="M145.231 34.87C141.417 36.41 135.807 37.18 128.401 37.18C132.214 38.7933 135.001 40.7733 136.761 43.12C138.521 45.4667 139.401 48.51 139.401 52.25C139.401 55.99 138.411 59.3633 136.431 62.37C134.451 65.3033 131.591 67.6133 127.851 69.3C124.184 70.9867 119.857 71.83 114.871 71.83C112.524 71.83 110.287 71.61 108.161 71.17C107.574 71.4633 107.097 71.94 106.731 72.6C106.437 73.1867 106.291 73.81 106.291 74.47C106.291 75.57 106.694 76.45 107.501 77.11C108.381 77.6967 110.104 77.99 112.671 77.99H121.471C125.944 77.99 129.867 78.7233 133.241 80.19C136.614 81.6567 139.217 83.6733 141.051 86.24C142.884 88.8067 143.801 91.7033 143.801 94.93C143.801 101.017 141.161 105.747 135.881 109.12C130.674 112.567 123.121 114.29 113.221 114.29C106.107 114.29 100.497 113.52 96.3906 111.98C92.284 110.513 89.3873 108.423 87.7006 105.71C86.0873 102.997 85.2806 99.5867 85.2806 95.48H100.901C100.901 97.24 101.231 98.6333 101.891 99.66C102.624 100.687 103.907 101.457 105.741 101.97C107.574 102.483 110.214 102.74 113.661 102.74C118.427 102.74 121.727 102.153 123.561 100.98C125.394 99.88 126.311 98.2667 126.311 96.14C126.311 94.38 125.614 92.9867 124.221 91.96C122.827 90.9333 120.737 90.42 117.951 90.42H109.481C103.467 90.42 98.9573 89.3567 95.9506 87.23C93.0173 85.03 91.5506 82.2433 91.5506 78.87C91.5506 76.7433 92.174 74.69 93.4206 72.71C94.6673 70.6567 96.354 68.97 98.4806 67.65C94.814 65.67 92.1373 63.36 90.4506 60.72C88.8373 58.0067 88.0306 54.7433 88.0306 50.93C88.0306 44.4033 90.3773 39.2333 95.0706 35.42C99.764 31.5333 105.961 29.59 113.661 29.59C119.527 29.7367 124.477 29.15 128.511 27.83C132.617 26.51 136.834 24.5667 141.161 22L145.231 34.87ZM114.101 41.03C111.387 41.03 109.224 41.91 107.611 43.67C106.071 45.3567 105.301 47.7033 105.301 50.71C105.301 53.8633 106.071 56.32 107.611 58.08C109.224 59.7667 111.387 60.61 114.101 60.61C116.961 60.61 119.124 59.7667 120.591 58.08C122.131 56.3933 122.901 53.8633 122.901 50.49C122.901 44.1833 119.967 41.03 114.101 41.03Z" fill="#2A2921"/>
</svg>
