<svg width="169" height="136" viewBox="0 0 169 136" fill="none" xmlns="http://www.w3.org/2000/svg">
<path d="M56.41 27C63.89 27 69.4267 28.87 73.02 32.61C76.6867 36.2767 78.52 41.8867 78.52 49.44V76.28C78.52 78.26 77.9333 79.8367 76.76 81.01C75.5867 82.11 73.9733 82.66 71.92 82.66C70.0133 82.66 68.4367 82.0733 67.19 80.9C66.0167 79.7267 65.43 78.1867 65.43 76.28V73.86C64.1833 76.72 62.2033 78.9567 59.49 80.57C56.85 82.1833 53.77 82.99 50.25 82.99C46.6567 82.99 43.3933 82.2567 40.46 80.79C37.5267 79.3233 35.2167 77.3067 33.53 74.74C31.8433 72.1733 31 69.3133 31 66.16C31 62.2 31.99 59.0833 33.97 56.81C36.0233 54.5367 39.3233 52.8867 43.87 51.86C48.4167 50.8333 54.6867 50.32 62.68 50.32H65.43V47.79C65.43 44.1967 64.66 41.5933 63.12 39.98C61.58 38.2933 59.0867 37.45 55.64 37.45C53.5133 37.45 51.35 37.78 49.15 38.44C46.95 39.0267 44.3467 39.9067 41.34 41.08C39.4333 42.0333 38.04 42.51 37.16 42.51C35.84 42.51 34.74 42.0333 33.86 41.08C33.0533 40.1267 32.65 38.88 32.65 37.34C32.65 36.0933 32.9433 35.03 33.53 34.15C34.19 33.1967 35.2533 32.3167 36.72 31.51C39.2867 30.1167 42.33 29.0167 45.85 28.21C49.4433 27.4033 52.9633 27 56.41 27ZM53 73.09C56.6667 73.09 59.6367 71.88 61.91 69.46C64.2567 66.9667 65.43 63.7767 65.43 59.89V57.58H63.45C58.5367 57.58 54.7233 57.8 52.01 58.24C49.2967 58.68 47.3533 59.45 46.18 60.55C45.0067 61.65 44.42 63.1533 44.42 65.06C44.42 67.4067 45.2267 69.35 46.84 70.89C48.5267 72.3567 50.58 73.09 53 73.09Z" fill="#2A2921"/>
<path d="M137.154 36.35C133.268 36.7167 130.554 36.9367 129.014 37.01L128.574 37.67C131.508 40.8233 132.974 44.4533 132.974 48.56C132.974 52.2267 131.948 55.5633 129.894 58.57C127.841 61.5767 125.018 63.9233 121.424 65.61C117.831 67.2967 113.798 68.14 109.324 68.14C106.904 68.14 104.521 67.8467 102.174 67.26C101.221 68.0667 100.524 68.7633 100.084 69.35C99.7176 69.8633 99.5343 70.4133 99.5343 71C99.5343 72.3933 100.598 73.3833 102.724 73.97C104.851 74.5567 108.224 75.1067 112.844 75.62C117.758 76.1333 121.791 76.72 124.944 77.38C128.098 78.04 130.811 79.25 133.084 81.01C135.431 82.6967 136.604 85.1167 136.604 88.27C136.604 91.7167 135.211 95.0167 132.424 98.17C129.638 101.323 126.008 103.853 121.534 105.76C117.061 107.74 112.368 108.73 107.454 108.73C101.588 108.73 96.8943 107.3 93.3743 104.44C89.8543 101.653 88.0943 97.9133 88.0943 93.22C90.001 91.24 93.6676 88.5633 99.0943 85.19V84.42C95.5743 83.8333 92.8243 82.5867 90.8443 80.68C88.9376 78.7 87.911 76.2067 87.7643 73.2C90.4043 70.4867 93.411 68.03 96.7843 65.83V65.17C94.1443 63.63 92.091 61.5767 90.6243 59.01C89.1576 56.4433 88.4243 53.5467 88.4243 50.32C88.4243 46.5067 89.4143 43.06 91.3943 39.98C93.3743 36.8267 96.0876 34.37 99.5343 32.61C102.981 30.85 106.868 29.97 111.194 29.97C113.028 29.97 115.191 30.19 117.684 30.63C120.031 30.9233 121.644 31.07 122.524 31.07C125.164 30.9233 130.298 29.7133 137.924 27.44L138.584 27.88L137.154 36.35ZM111.304 60.88C113.944 60.88 115.961 59.9633 117.354 58.13C118.821 56.2967 119.554 53.6567 119.554 50.21C119.554 46.5433 118.711 43.61 117.024 41.41C115.411 39.21 113.101 38.11 110.094 38.11C107.528 38.11 105.511 39.0267 104.044 40.86C102.651 42.62 101.954 45.2967 101.954 48.89C101.954 52.4833 102.761 55.38 104.374 57.58C106.061 59.78 108.371 60.88 111.304 60.88ZM105.914 85.85C104.594 86.95 103.568 88.1967 102.834 89.59C102.101 90.9833 101.734 92.3767 101.734 93.77C101.734 95.8967 102.578 97.5467 104.264 98.72C106.024 99.9667 108.481 100.59 111.634 100.59C115.228 100.59 118.234 99.7833 120.654 98.17C123.148 96.63 124.394 94.7233 124.394 92.45C124.394 91.2767 123.954 90.3233 123.074 89.59C122.194 88.93 120.471 88.3067 117.904 87.72C115.411 87.2067 111.414 86.5833 105.914 85.85Z" fill="#2A2921"/>
</svg>
