<svg width="169" height="136" viewBox="0 0 169 136" fill="none" xmlns="http://www.w3.org/2000/svg">
<path d="M55.41 31.0794C62.89 31.0794 68.4267 32.9494 72.02 36.6894C75.6867 40.3561 77.52 45.9661 77.52 53.5195V80.3595C77.52 82.3395 76.9333 83.9161 75.76 85.0895C74.5867 86.1895 72.9733 86.7395 70.92 86.7395C69.0133 86.7395 67.4367 86.1528 66.19 84.9795C65.0167 83.8061 64.43 82.2661 64.43 80.3595V77.9395C63.1833 80.7995 61.2033 83.0361 58.49 84.6495C55.85 86.2628 52.77 87.0695 49.25 87.0695C45.6567 87.0695 42.3933 86.3361 39.46 84.8695C36.5267 83.4028 34.2167 81.3861 32.53 78.8195C30.8433 76.2528 30 73.3928 30 70.2394C30 66.2794 30.99 63.1628 32.97 60.8895C35.0233 58.6161 38.3233 56.9661 42.87 55.9395C47.4167 54.9128 53.6867 54.3995 61.68 54.3995H64.43V51.8695C64.43 48.2761 63.66 45.6728 62.12 44.0595C60.58 42.3728 58.0867 41.5294 54.64 41.5294C52.5133 41.5294 50.35 41.8595 48.15 42.5195C45.95 43.1061 43.3467 43.9861 40.34 45.1595C38.4333 46.1128 37.04 46.5895 36.16 46.5895C34.84 46.5895 33.74 46.1128 32.86 45.1595C32.0533 44.2061 31.65 42.9595 31.65 41.4195C31.65 40.1728 31.9433 39.1094 32.53 38.2295C33.19 37.2761 34.2533 36.3961 35.72 35.5895C38.2867 34.1961 41.33 33.0961 44.85 32.2895C48.4433 31.4828 51.9633 31.0794 55.41 31.0794ZM52 77.1695C55.6667 77.1695 58.6367 75.9594 60.91 73.5395C63.2567 71.0461 64.43 67.8561 64.43 63.9695V61.6595H62.45C57.5367 61.6595 53.7233 61.8795 51.01 62.3195C48.2967 62.7594 46.3533 63.5295 45.18 64.6295C44.0067 65.7295 43.42 67.2328 43.42 69.1395C43.42 71.4861 44.2267 73.4295 45.84 74.9695C47.5267 76.4361 49.58 77.1695 52 77.1695Z" fill="#2A2921"/>
<path d="M85.8503 56.7021C85.8503 47.7861 87.963 40.6068 92.1882 35.1641C96.4493 29.7214 102.178 27 109.376 27C115.749 27 120.709 29.1842 124.254 33.5527L124.898 28.0742H138.97V84.2559C138.97 89.3405 137.807 93.7627 135.479 97.5225C133.188 101.282 129.947 104.147 125.758 106.116C121.568 108.086 116.663 109.07 111.041 109.07C106.78 109.07 102.626 108.211 98.5798 106.492C94.5336 104.809 91.4721 102.625 89.3953 99.9395L96.2703 90.4863C100.137 94.819 104.828 96.9854 110.343 96.9854C114.46 96.9854 117.665 95.8753 119.957 93.6553C122.248 91.471 123.394 88.3558 123.394 84.3096V81.1943C119.814 85.2406 115.105 87.2637 109.268 87.2637C102.286 87.2637 96.6283 84.5423 92.2957 79.0996C87.9988 73.6211 85.8503 66.3701 85.8503 57.3467V56.7021ZM101.373 57.8301C101.373 63.0938 102.429 67.2295 104.542 70.2373C106.654 73.2093 109.555 74.6953 113.243 74.6953C117.969 74.6953 121.353 72.9229 123.394 69.3779V44.9395C121.317 41.3945 117.969 39.6221 113.35 39.6221C109.626 39.6221 106.69 41.1439 104.542 44.1875C102.429 47.2311 101.373 51.7786 101.373 57.8301Z" fill="#2A2921"/>
</svg>
