<svg width="169" height="136" viewBox="0 0 169 136" fill="none" xmlns="http://www.w3.org/2000/svg">
<path d="M53.41 30.0668C60.89 30.0668 66.4267 31.9368 70.02 35.6768C73.6867 39.3434 75.52 44.9534 75.52 52.5068V79.3468C75.52 81.3268 74.9333 82.9034 73.76 84.0768C72.5867 85.1768 70.9733 85.7268 68.92 85.7268C67.0133 85.7268 65.4367 85.1401 64.19 83.9668C63.0167 82.7934 62.43 81.2534 62.43 79.3468V76.9268C61.1833 79.7868 59.2033 82.0234 56.49 83.6368C53.85 85.2501 50.77 86.0568 47.25 86.0568C43.6567 86.0568 40.3933 85.3234 37.46 83.8568C34.5267 82.3901 32.2167 80.3734 30.53 77.8068C28.8433 75.2401 28 72.3801 28 69.2268C28 65.2668 28.99 62.1501 30.97 59.8768C33.0233 57.6034 36.3233 55.9534 40.87 54.9268C45.4167 53.9001 51.6867 53.3868 59.68 53.3868H62.43V50.8568C62.43 47.2634 61.66 44.6601 60.12 43.0468C58.58 41.3601 56.0867 40.5168 52.64 40.5168C50.5133 40.5168 48.35 40.8468 46.15 41.5068C43.95 42.0934 41.3467 42.9734 38.34 44.1468C36.4333 45.1001 35.04 45.5768 34.16 45.5768C32.84 45.5768 31.74 45.1001 30.86 44.1468C30.0533 43.1934 29.65 41.9468 29.65 40.4068C29.65 39.1601 29.9433 38.0968 30.53 37.2168C31.19 36.2634 32.2533 35.3834 33.72 34.5768C36.2867 33.1834 39.33 32.0834 42.85 31.2768C46.4433 30.4701 49.9633 30.0668 53.41 30.0668ZM50 76.1568C53.6667 76.1568 56.6367 74.9468 58.91 72.5268C61.2567 70.0334 62.43 66.8434 62.43 62.9568V60.6468H60.45C55.5367 60.6468 51.7233 60.8668 49.01 61.3068C46.2967 61.7468 44.3533 62.5168 43.18 63.6168C42.0067 64.7168 41.42 66.2201 41.42 68.1268C41.42 70.4734 42.2267 72.4168 43.84 73.9568C45.5267 75.4234 47.58 76.1568 50 76.1568Z" fill="#2A2921"/>
<path d="M140.999 25.1279V33.4531L131.599 35.8701C133.318 38.5557 134.178 41.5635 134.178 44.8936C134.178 51.3389 131.922 56.3698 127.41 59.9863C122.934 63.5671 116.704 65.3574 108.719 65.3574L105.764 65.1963L103.347 64.9277C101.664 66.2168 100.823 67.6491 100.823 69.2246C100.823 71.5879 103.831 72.7695 109.846 72.7695H120.052C126.64 72.7695 131.653 74.1839 135.091 77.0127C138.564 79.8415 140.301 83.9951 140.301 89.4736C140.301 96.4919 137.364 101.935 131.492 105.802C125.655 109.669 117.259 111.603 106.302 111.603C97.9226 111.603 91.5131 110.134 87.073 107.198C82.6687 104.298 80.4666 100.216 80.4666 94.9521C80.4666 91.3356 81.5945 88.3099 83.8503 85.875C86.1062 83.4401 89.4184 81.7034 93.7869 80.665C92.1039 79.9489 90.6358 78.7852 89.3826 77.1738C88.1293 75.5267 87.5027 73.79 87.5027 71.9639C87.5027 69.6722 88.1651 67.7744 89.49 66.2705C90.8149 64.7308 92.7306 63.2269 95.2371 61.7588C92.086 60.3981 89.5795 58.2139 87.7175 55.2061C85.8914 52.1982 84.9783 48.6533 84.9783 44.5713C84.9783 38.0186 87.1088 32.9518 91.3699 29.3711C95.631 25.7904 101.718 24 109.632 24C111.315 24 113.302 24.1611 115.594 24.4834C117.921 24.7699 119.407 24.9847 120.052 25.1279H140.999ZM94.6463 93.6631C94.6463 95.9189 95.7205 97.6914 97.8689 98.9805C100.053 100.27 103.097 100.914 107 100.914C112.872 100.914 117.473 100.108 120.803 98.4971C124.134 96.8857 125.799 94.6836 125.799 91.8906C125.799 89.6348 124.814 88.0771 122.844 87.2178C120.875 86.3584 117.831 85.9287 113.714 85.9287H105.227C102.219 85.9287 99.6951 86.627 97.6541 88.0234C95.6489 89.4557 94.6463 91.3356 94.6463 93.6631ZM100.608 44.7861C100.608 48.0446 101.342 50.6227 102.81 52.5205C104.314 54.4183 106.588 55.3672 109.632 55.3672C112.711 55.3672 114.967 54.4183 116.399 52.5205C117.831 50.6227 118.548 48.0446 118.548 44.7861C118.548 37.5531 115.576 33.9365 109.632 33.9365C103.616 33.9365 100.608 37.5531 100.608 44.7861Z" fill="#2A2921"/>
</svg>
