<svg width="169" height="136" viewBox="0 0 169 136" fill="none" xmlns="http://www.w3.org/2000/svg">
<path d="M51.41 31.55C58.89 31.55 64.4267 33.42 68.02 37.16C71.6867 40.8267 73.52 46.4367 73.52 53.99V80.83C73.52 82.81 72.9333 84.3867 71.76 85.56C70.5867 86.66 68.9733 87.21 66.92 87.21C65.0133 87.21 63.4367 86.6233 62.19 85.45C61.0167 84.2767 60.43 82.7367 60.43 80.83V78.41C59.1833 81.27 57.2033 83.5067 54.49 85.12C51.85 86.7333 48.77 87.54 45.25 87.54C41.6567 87.54 38.3933 86.8067 35.46 85.34C32.5267 83.8733 30.2167 81.8567 28.53 79.29C26.8433 76.7233 26 73.8633 26 70.71C26 66.75 26.99 63.6333 28.97 61.36C31.0233 59.0867 34.3233 57.4367 38.87 56.41C43.4167 55.3833 49.6867 54.87 57.68 54.87H60.43V52.34C60.43 48.7467 59.66 46.1433 58.12 44.53C56.58 42.8433 54.0867 42 50.64 42C48.5133 42 46.35 42.33 44.15 42.99C41.95 43.5767 39.3467 44.4567 36.34 45.63C34.4333 46.5833 33.04 47.06 32.16 47.06C30.84 47.06 29.74 46.5833 28.86 45.63C28.0533 44.6767 27.65 43.43 27.65 41.89C27.65 40.6433 27.9433 39.58 28.53 38.7C29.19 37.7467 30.2533 36.8667 31.72 36.06C34.2867 34.6667 37.33 33.5667 40.85 32.76C44.4433 31.9533 47.9633 31.55 51.41 31.55ZM48 77.64C51.6667 77.64 54.6367 76.43 56.91 74.01C59.2567 71.5167 60.43 68.3267 60.43 64.44V62.13H58.45C53.5367 62.13 49.7233 62.35 47.01 62.79C44.2967 63.23 42.3533 64 41.18 65.1C40.0067 66.2 39.42 67.7033 39.42 69.61C39.42 71.9567 40.2267 73.9 41.84 75.44C43.5267 76.9067 45.58 77.64 48 77.64Z" fill="#2A2921"/>
<path d="M106.304 116.47C99.9976 116.47 95.011 115.773 91.3443 114.38C87.6776 113.06 85.0743 111.3 83.5343 109.1C81.9943 106.9 81.2243 104.553 81.2243 102.06C81.2243 99.7867 81.9576 97.4767 83.4243 95.13C84.9643 92.7833 87.7143 90.8767 91.6743 89.41C88.6676 88.6033 86.541 87.32 85.2943 85.56C84.121 83.7267 83.5343 81.7833 83.5343 79.73C83.5343 77.8233 84.3043 75.6967 85.8443 73.35C87.3843 70.93 90.171 69.0967 94.2043 67.85C91.1243 66.6033 88.5943 64.66 86.6143 62.02C84.6343 59.38 83.571 56.19 83.4243 52.45C83.2776 48.05 84.3776 44.1633 86.7243 40.79C89.071 37.3433 92.151 34.6667 95.9643 32.76C99.7776 30.8533 103.774 29.9 107.954 29.9C109.861 29.9 112.061 30.1567 114.554 30.67C117.048 31.1833 119.211 32.0633 121.044 33.31C121.851 31.0367 122.878 28.91 124.124 26.93C125.444 24.8767 127.021 23.2267 128.854 21.98C130.688 20.66 132.741 20 135.014 20C137.508 20 139.378 20.66 140.624 21.98C141.944 23.2267 142.604 24.9133 142.604 27.04C142.604 27.92 142.384 28.91 141.944 30.01C141.578 31.0367 140.881 31.9167 139.854 32.65C138.901 33.3833 137.544 33.75 135.784 33.75C134.684 33.75 133.584 33.3467 132.484 32.54C131.384 31.66 130.724 30.6333 130.504 29.46C129.551 29.7533 128.598 30.7067 127.644 32.32C126.691 33.9333 126.141 35.3633 125.994 36.61C130.321 40.35 132.484 45.08 132.484 50.8C132.484 55.0533 131.274 58.83 128.854 62.13C126.508 65.3567 123.428 67.9233 119.614 69.83C115.874 71.6633 111.841 72.58 107.514 72.58C106.561 72.58 105.498 72.5433 104.324 72.47C103.151 72.3233 102.014 72.25 100.914 72.25C99.301 72.25 97.9443 72.5433 96.8443 73.13C95.7443 73.7167 95.1943 74.5233 95.1943 75.55C95.1943 76.9433 96.2576 77.8967 98.3843 78.41C100.511 78.9233 104.141 79.3267 109.274 79.62C114.921 79.9133 119.834 80.6467 124.014 81.82C128.268 82.92 131.568 84.68 133.914 87.1C136.261 89.52 137.434 92.8567 137.434 97.11C137.434 100.263 136.518 103.013 134.684 105.36C132.851 107.78 130.394 109.797 127.314 111.41C124.308 113.097 120.971 114.343 117.304 115.15C113.638 116.03 109.971 116.47 106.304 116.47ZM107.954 65.21C109.934 65.21 111.584 64.5867 112.904 63.34C114.298 62.0933 115.324 60.5167 115.984 58.61C116.718 56.7033 117.084 54.76 117.084 52.78C117.084 50.2133 116.754 47.7567 116.094 45.41C115.434 42.99 114.408 41.0467 113.014 39.58C111.694 38.04 109.971 37.27 107.844 37.27C104.911 37.27 102.638 38.59 101.024 41.23C99.411 43.87 98.6043 46.8767 98.6043 50.25C98.6043 52.8167 98.971 55.2733 99.7043 57.62C100.438 59.8933 101.501 61.7267 102.894 63.12C104.288 64.5133 105.974 65.21 107.954 65.21ZM109.494 108.88C114.701 108.88 118.624 107.927 121.264 106.02C123.978 104.113 125.334 102.133 125.334 100.08C125.334 95.68 120.054 93.26 109.494 92.82C107.881 92.6733 106.011 92.5633 103.884 92.49C101.758 92.4167 99.8876 92.2333 98.2743 91.94C97.1743 92.82 96.331 93.92 95.7443 95.24C95.1576 96.56 94.8276 97.8433 94.7543 99.09C94.6076 102.023 95.8543 104.37 98.4943 106.13C101.208 107.963 104.874 108.88 109.494 108.88Z" fill="#2A2921"/>
</svg>
