<svg width="169" height="136" viewBox="0 0 169 136" fill="none" xmlns="http://www.w3.org/2000/svg">
<path d="M62.1094 87.2842L58.9404 79.1201H58.5107C55.7536 82.5934 52.9069 85.0104 49.9707 86.3711C47.0703 87.696 43.2747 88.3584 38.584 88.3584C32.819 88.3584 28.2715 86.7113 24.9414 83.417C21.6471 80.1227 20 75.432 20 69.3447C20 62.971 22.2201 58.2803 26.6602 55.2725C31.1361 52.2288 37.8678 50.5459 46.8555 50.2236L57.2754 49.9014V47.2695C57.2754 41.1823 54.1602 38.1387 47.9297 38.1387C43.1315 38.1387 37.4919 39.5889 31.0107 42.4893L25.5859 31.4248C32.4967 27.8083 40.1595 26 48.5742 26C56.6309 26 62.8076 27.7546 67.1045 31.2637C71.4014 34.7728 73.5498 40.1081 73.5498 47.2695V87.2842H62.1094ZM57.2754 59.4619L50.9375 59.6768C46.1751 59.82 42.6302 60.6794 40.3027 62.2549C37.9753 63.8304 36.8115 66.2295 36.8115 69.4521C36.8115 74.0713 39.4613 76.3809 44.7607 76.3809C48.5563 76.3809 51.582 75.2887 53.8379 73.1045C56.1296 70.9202 57.2754 68.0199 57.2754 64.4033V59.4619Z" fill="#2A2921"/>
<path d="M148.645 28.1042V77.3842C148.645 88.2375 145.822 96.3042 140.175 101.584C134.528 106.864 126.278 109.504 115.425 109.504C109.705 109.504 104.278 108.808 99.145 107.414C94.0117 106.021 89.7583 104.004 86.385 101.364L93.205 89.0442C95.6983 91.0975 98.8517 92.7108 102.665 93.8842C106.478 95.1308 110.292 95.7542 114.105 95.7542C120.045 95.7542 124.408 94.3975 127.195 91.6842C130.055 89.0442 131.485 85.0108 131.485 79.5842V77.0542C127.012 81.9675 120.778 84.4242 112.785 84.4242C107.358 84.4242 102.372 83.2509 97.825 80.9042C93.3517 78.4842 89.795 75.1108 87.155 70.7842C84.515 66.4575 83.195 61.4708 83.195 55.8242C83.195 50.1775 84.515 45.1908 87.155 40.8642C89.795 36.5375 93.3517 33.2008 97.825 30.8542C102.372 28.4342 107.358 27.2242 112.785 27.2242C121.365 27.2242 127.892 30.0475 132.365 35.6942V28.1042H148.645ZM116.195 70.3442C120.742 70.3442 124.445 69.0242 127.305 66.3842C130.238 63.6708 131.705 60.1508 131.705 55.8242C131.705 51.4975 130.238 48.0142 127.305 45.3742C124.445 42.6608 120.742 41.3042 116.195 41.3042C111.648 41.3042 107.908 42.6608 104.975 45.3742C102.042 48.0142 100.575 51.4975 100.575 55.8242C100.575 60.1508 102.042 63.6708 104.975 66.3842C107.908 69.0242 111.648 70.3442 116.195 70.3442Z" fill="#2A2921"/>
</svg>
