<svg width="169" height="136" viewBox="0 0 169 136" fill="none" xmlns="http://www.w3.org/2000/svg">
<path d="M65.1094 88.6L61.9404 80.4359H61.5107C58.7536 83.9092 55.9069 86.3262 52.9707 87.6869C50.0703 89.0118 46.2747 89.6742 41.584 89.6742C35.819 89.6742 31.2715 88.0271 27.9414 84.7328C24.6471 81.4385 23 76.7478 23 70.6605C23 64.2868 25.2201 59.5961 29.6602 56.5883C34.1361 53.5447 40.8678 51.8617 49.8555 51.5395L60.2754 51.2172V48.5854C60.2754 42.4981 57.1602 39.4545 50.9297 39.4545C46.1315 39.4545 40.4919 40.9047 34.0107 43.8051L28.5859 32.7406C35.4967 29.1241 43.1595 27.3158 51.5742 27.3158C59.6309 27.3158 65.8076 29.0704 70.1045 32.5795C74.4014 36.0886 76.5498 41.4239 76.5498 48.5854V88.6H65.1094ZM60.2754 60.7777L53.9375 60.9926C49.1751 61.1358 45.6302 61.9952 43.3027 63.5707C40.9753 65.1462 39.8115 67.5453 39.8115 70.768C39.8115 75.3871 42.4613 77.6967 47.7607 77.6967C51.5563 77.6967 54.582 76.6046 56.8379 74.4203C59.1296 72.2361 60.2754 69.3357 60.2754 65.7191V60.7777Z" fill="#2A2921"/>
<path d="M140.755 89.26C140.755 96.0067 138.335 100.957 133.495 104.11C128.655 107.263 120.955 108.84 110.395 108.84C105.702 108.84 101.412 108.4 97.525 107.52C93.7117 106.64 90.6683 105.173 88.395 103.12C86.1217 101.14 84.985 98.4267 84.985 94.98C84.985 91.6067 86.0483 88.8933 88.175 86.84C90.3017 84.7867 93.455 83.6867 97.635 83.54V83.1C92.0617 81.56 89.275 78.7733 89.275 74.74C89.275 73.2733 89.6417 71.7333 90.375 70.12C91.1083 68.5067 92.3183 67.0767 94.005 65.83C95.6917 64.5833 97.8917 63.7767 100.605 63.41C96.7183 62.4567 93.675 60.5133 91.475 57.58C89.275 54.5733 88.175 51.0533 88.175 47.02C88.175 41.1533 90.155 36.5333 94.115 33.16C98.075 29.7867 103.758 28.1 111.165 28.1C116.078 28.1 119.928 28.54 122.715 29.42C125.502 30.2267 127.958 31.4733 130.085 33.16L133.825 31.84L143.945 27H145.815V38.33H143.945L136.245 37.45H133.495C134.962 39.7233 135.695 42.6933 135.695 46.36C135.695 52.3733 133.825 57.14 130.085 60.66C126.345 64.1067 120.955 65.83 113.915 65.83C113.182 65.83 112.448 65.83 111.715 65.83C110.982 65.7567 110.248 65.6833 109.515 65.61C106.655 65.9767 104.345 66.6367 102.585 67.59C100.898 68.47 100.055 69.7533 100.055 71.44C100.055 72.76 100.752 73.6767 102.145 74.19C103.538 74.63 106.068 74.85 109.735 74.85H122.495C134.668 74.85 140.755 79.6533 140.755 89.26ZM101.155 46.58C101.155 50.6867 102.035 53.84 103.795 56.04C105.628 58.1667 108.158 59.23 111.385 59.23C115.272 59.23 118.132 58.1667 119.965 56.04C121.798 53.84 122.715 50.6867 122.715 46.58C122.715 42.6933 121.798 39.76 119.965 37.78C118.132 35.8 115.272 34.81 111.385 34.81C104.565 34.81 101.155 38.7333 101.155 46.58ZM114.355 84.97H110.505C105.592 84.97 102.035 85.74 99.835 87.28C97.635 88.82 96.535 90.8367 96.535 93.33C96.535 98.9033 101.778 101.69 112.265 101.69C117.912 101.69 122.202 100.847 125.135 99.16C128.068 97.5467 129.535 95.1633 129.535 92.01C129.535 89.4433 128.398 87.6467 126.125 86.62C123.852 85.52 119.928 84.97 114.355 84.97Z" fill="#2A2921"/>
</svg>
