<svg width="169" height="136" viewBox="0 0 169 136" fill="none" xmlns="http://www.w3.org/2000/svg">
<path d="M68.1094 87.2842L64.9404 79.1201H64.5107C61.7536 82.5934 58.9069 85.0104 55.9707 86.3711C53.0703 87.696 49.2747 88.3584 44.584 88.3584C38.819 88.3584 34.2715 86.7113 30.9414 83.417C27.6471 80.1227 26 75.432 26 69.3447C26 62.971 28.2201 58.2803 32.6602 55.2725C37.1361 52.2288 43.8678 50.5459 52.8555 50.2236L63.2754 49.9014V47.2695C63.2754 41.1823 60.1602 38.1387 53.9297 38.1387C49.1315 38.1387 43.4919 39.5889 37.0107 42.4893L31.5859 31.4248C38.4967 27.8083 46.1595 26 54.5742 26C62.6309 26 68.8076 27.7546 73.1045 31.2637C77.4014 34.7728 79.5498 40.1081 79.5498 47.2695V87.2842H68.1094ZM63.2754 59.4619L56.9375 59.6768C52.1751 59.82 48.6302 60.6794 46.3027 62.2549C43.9753 63.8304 42.8115 66.2295 42.8115 69.4521C42.8115 74.0713 45.4613 76.3809 50.7607 76.3809C54.5563 76.3809 57.582 75.2887 59.8379 73.1045C62.1296 70.9202 63.2754 68.0199 63.2754 64.4033V59.4619Z" fill="#2A2921"/>
<path d="M112.295 110.494C109.068 110.494 106.062 110.201 103.275 109.614C100.562 109.101 98.1417 108.294 96.015 107.194C93.9617 106.094 92.3483 104.664 91.175 102.904C90.0017 101.144 89.415 99.0542 89.415 96.6342C89.415 92.2342 92.0183 88.5675 97.225 85.6342V85.1942C95.7583 84.2408 94.5483 83.0308 93.595 81.5642C92.6417 80.0975 92.165 78.2275 92.165 75.9542C92.165 73.9742 92.7517 72.1042 93.925 70.3442C95.0983 68.5108 96.565 66.9708 98.325 65.7242V65.2842C96.4183 63.9642 94.695 62.0942 93.155 59.6742C91.6883 57.1808 90.955 54.3208 90.955 51.0942C90.955 47.7942 91.5783 44.9342 92.825 42.5142C94.0717 40.0208 95.7217 37.9675 97.775 36.3542C99.9017 34.6675 102.322 33.4208 105.035 32.6142C107.748 31.8075 110.572 31.4042 113.505 31.4042C116.732 31.4042 119.555 31.8442 121.975 32.7242H141.885V44.4942H133.195C133.708 45.3008 134.112 46.3275 134.405 47.5742C134.772 48.8208 134.955 50.1775 134.955 51.6442C134.955 54.7975 134.405 57.5475 133.305 59.8942C132.205 62.1675 130.665 64.0742 128.685 65.6142C126.778 67.0808 124.505 68.1808 121.865 68.9142C119.298 69.6475 116.512 70.0142 113.505 70.0142C111.378 70.0142 109.178 69.6475 106.905 68.9142C106.172 69.5008 105.658 70.0875 105.365 70.6742C105.072 71.2608 104.925 72.0308 104.925 72.9842C104.925 74.3775 105.512 75.4042 106.685 76.0642C107.932 76.7242 110.095 77.0542 113.175 77.0542H121.975C128.722 77.0542 133.855 78.1542 137.375 80.3542C140.968 82.4808 142.765 86.0008 142.765 90.9142C142.765 93.7742 142.032 96.3775 140.565 98.7242C139.172 101.144 137.155 103.198 134.515 104.884C131.875 106.644 128.685 108.001 124.945 108.954C121.205 109.981 116.988 110.494 112.295 110.494ZM113.505 60.2242C115.632 60.2242 117.392 59.4908 118.785 58.0242C120.252 56.4842 120.985 54.1742 120.985 51.0942C120.985 48.2342 120.252 46.0708 118.785 44.6042C117.392 43.0642 115.632 42.2942 113.505 42.2942C111.378 42.2942 109.582 43.0275 108.115 44.4942C106.722 45.9608 106.025 48.1608 106.025 51.0942C106.025 54.1742 106.722 56.4842 108.115 58.0242C109.582 59.4908 111.378 60.2242 113.505 60.2242ZM114.825 100.374C118.492 100.374 121.498 99.7142 123.845 98.3942C126.192 97.1475 127.365 95.5708 127.365 93.6642C127.365 91.9775 126.632 90.8409 125.165 90.2542C123.772 89.6675 121.718 89.3742 119.005 89.3742H113.395C111.488 89.3742 109.948 89.3008 108.775 89.1542C107.602 89.0808 106.575 88.9342 105.695 88.7142C103.715 90.4742 102.725 92.2708 102.725 94.1042C102.725 96.1575 103.825 97.6975 106.025 98.7242C108.225 99.8242 111.158 100.374 114.825 100.374Z" fill="#2A2921"/>
</svg>
