<svg width="169" height="136" viewBox="0 0 169 136" fill="none" xmlns="http://www.w3.org/2000/svg">
<path d="M64.1094 84.2842L60.9404 76.1201H60.5107C57.7536 79.5934 54.9069 82.0104 51.9707 83.3711C49.0703 84.696 45.2747 85.3584 40.584 85.3584C34.819 85.3584 30.2715 83.7113 26.9414 80.417C23.6471 77.1227 22 72.432 22 66.3447C22 59.971 24.2201 55.2803 28.6602 52.2725C33.1361 49.2288 39.8678 47.5459 48.8555 47.2236L59.2754 46.9014V44.2695C59.2754 38.1823 56.1602 35.1387 49.9297 35.1387C45.1315 35.1387 39.4919 36.5889 33.0107 39.4893L27.5859 28.4248C34.4967 24.8083 42.1595 23 50.5742 23C58.6309 23 64.8076 24.7546 69.1045 28.2637C73.4014 31.7728 75.5498 37.1081 75.5498 44.2695V84.2842H64.1094ZM59.2754 56.4619L52.9375 56.6768C48.1751 56.82 44.6302 57.6794 42.3027 59.2549C39.9753 60.8304 38.8115 63.2295 38.8115 66.4521C38.8115 71.0713 41.4613 73.3809 46.7607 73.3809C50.5563 73.3809 53.582 72.2887 55.8379 70.1045C58.1296 67.9202 59.2754 65.0199 59.2754 61.4033V56.4619Z" fill="#2A2921"/>
<path d="M86.075 96.3842C86.075 108.484 97.185 112.334 114.455 112.334C135.575 112.334 145.255 103.534 145.255 91.4342C145.255 80.4342 137.225 74.3842 123.255 74.3842H106.975L107.415 67.0142C107.855 67.0142 110.055 67.5642 113.025 67.5642C128.205 67.5642 139.425 60.9642 139.425 45.0142C139.425 40.2842 137.775 37.3142 137.555 36.3242L146.575 34.7842V25.9842L127.655 26.4242C125.565 25.4342 121.055 23.7842 114.675 23.7842C99.605 23.7842 88.275 31.2642 88.275 46.3342C88.275 57.0042 94.105 61.7342 96.745 63.4942C95.425 65.5842 91.025 72.7342 91.025 75.9242C91.025 82.1942 97.625 83.1842 97.625 83.1842C97.625 83.1842 86.075 86.9242 86.075 96.3842ZM114.125 35.1142C120.175 35.1142 122.925 38.6342 122.925 45.5642C122.925 52.9342 120.505 56.5642 113.575 56.5642C107.305 56.5642 104.775 52.1642 104.775 45.5642C104.775 38.6342 107.525 35.1142 114.125 35.1142ZM118.855 86.4842C126.225 86.4842 129.855 87.8042 129.855 92.7542C129.855 98.0342 125.675 100.234 115.775 100.234C106.755 100.234 102.025 99.1342 102.025 93.6342C102.025 88.9042 107.305 86.4842 107.305 86.4842H118.855Z" fill="#2A2921"/>
</svg>
