<svg width="169" height="136" viewBox="0 0 169 136" fill="none" xmlns="http://www.w3.org/2000/svg">
<path d="M47.69 84.73C44.9033 84.73 42.3 84.29 39.88 83.41C37.46 82.4567 35.37 81.1733 33.61 79.56C31.85 77.8733 30.4567 75.93 29.43 73.73C28.4767 71.53 28 69.11 28 66.47C28 63.7567 28.5867 61.2633 29.76 58.99C31.0067 56.6433 32.6933 54.6633 34.82 53.05C37.02 51.4367 39.6233 50.19 42.63 49.31C45.6367 48.3567 48.9367 47.88 52.53 47.88C55.0967 47.88 57.59 48.1 60.01 48.54C62.5033 48.98 64.7033 49.6033 66.61 50.41V47.11C66.61 43.2967 65.51 40.3633 63.31 38.31C61.1833 36.2567 57.9933 35.23 53.74 35.23C50.66 35.23 47.6533 35.78 44.72 36.88C41.7867 37.98 38.78 39.5933 35.7 41.72L31.19 32.37C38.5967 27.4567 46.59 25 55.17 25C63.4567 25 69.8733 27.0533 74.42 31.16C79.04 35.1933 81.35 41.06 81.35 48.76V66.69C81.35 68.23 81.6067 69.33 82.12 69.99C82.7067 70.65 83.6233 71.0167 84.87 71.09V83.63C82.3767 84.1433 80.2133 84.4 78.38 84.4C75.5933 84.4 73.43 83.7767 71.89 82.53C70.4233 81.2833 69.5067 79.6333 69.14 77.58L68.81 74.39C66.2433 77.7633 63.1267 80.33 59.46 82.09C55.7933 83.85 51.87 84.73 47.69 84.73ZM51.87 73.95C54.3633 73.95 56.71 73.51 58.91 72.63C61.1833 71.75 62.9433 70.5767 64.19 69.11C65.8033 67.8633 66.61 66.47 66.61 64.93V58.33C64.85 57.67 62.9433 57.1567 60.89 56.79C58.8367 56.35 56.8567 56.13 54.95 56.13C51.1367 56.13 48.02 57.01 45.6 58.77C43.18 60.4567 41.97 62.62 41.97 65.26C41.97 67.7533 42.9233 69.8433 44.83 71.53C46.7367 73.1433 49.0833 73.95 51.87 73.95Z" fill="#2A2921"/>
<path d="M114.374 111.35C106.601 111.35 100.404 109.92 95.7841 107.06C91.1641 104.273 88.8541 100.46 88.8541 95.62C88.8541 90.34 91.8241 86.0133 97.7641 82.64C94.5374 80.66 92.9241 78.0567 92.9241 74.83C92.9241 73.1433 93.4007 71.64 94.3541 70.32C95.3807 69 96.7374 67.9367 98.4241 67.13C95.6374 65.15 93.5107 62.62 92.0441 59.54C90.6507 56.46 89.9541 53.0867 89.9541 49.42C89.9541 45.3867 90.8341 41.72 92.5941 38.42C94.3541 35.0467 96.9207 32.4067 100.294 30.5C103.667 28.52 107.664 27.53 112.284 27.53C117.124 27.53 121.304 28.7033 124.824 31.05C126.071 30.39 127.721 29.84 129.774 29.4C131.901 28.8867 134.174 28.63 136.594 28.63H140.114L139.234 37.21H134.284C133.037 37.21 132.011 37.2467 131.204 37.32C133.404 40.6933 134.504 44.7267 134.504 49.42C134.504 53.4533 133.624 57.1567 131.864 60.53C130.177 63.83 127.647 66.47 124.274 68.45C120.901 70.3567 116.904 71.31 112.284 71.31C110.597 71.31 108.654 71.0533 106.454 70.54C105.647 70.9067 105.244 71.4933 105.244 72.3C105.244 73.2533 105.794 74.0233 106.894 74.61C108.067 75.1233 110.011 75.5633 112.724 75.93L122.184 77.14C134.797 78.8267 141.104 84.1433 141.104 93.09C141.104 98.6633 138.721 103.1 133.954 106.4C129.261 109.7 122.734 111.35 114.374 111.35ZM112.284 61.19C115.437 61.19 117.857 60.1633 119.544 58.11C121.304 55.9833 122.184 53.0867 122.184 49.42C122.184 45.7533 121.304 42.8933 119.544 40.84C117.857 38.7133 115.437 37.65 112.284 37.65C109.057 37.65 106.564 38.7133 104.804 40.84C103.117 42.8933 102.274 45.7533 102.274 49.42C102.274 53.0867 103.117 55.9833 104.804 58.11C106.564 60.1633 109.057 61.19 112.284 61.19ZM114.924 101.01C124.311 101.01 129.004 98.7 129.004 94.08C129.004 92.0267 128.197 90.4867 126.584 89.46C124.971 88.5067 122.294 87.7367 118.554 87.15L106.454 85.39C102.274 87.0767 100.184 89.6433 100.184 93.09C100.184 95.73 101.467 97.71 104.034 99.03C106.601 100.35 110.231 101.01 114.924 101.01Z" fill="#2A2921"/>
</svg>
