<svg width="169" height="136" viewBox="0 0 169 136" fill="none" xmlns="http://www.w3.org/2000/svg">
<path d="M44.69 86.2768C41.9033 86.2768 39.3 85.8368 36.88 84.9568C34.46 84.0034 32.37 82.7201 30.61 81.1068C28.85 79.4201 27.4567 77.4768 26.43 75.2768C25.4767 73.0768 25 70.6568 25 68.0168C25 65.3034 25.5867 62.8101 26.76 60.5368C28.0067 58.1901 29.6933 56.2101 31.82 54.5968C34.02 52.9834 36.6233 51.7368 39.63 50.8568C42.6367 49.9034 45.9367 49.4268 49.53 49.4268C52.0967 49.4268 54.59 49.6468 57.01 50.0868C59.5033 50.5268 61.7033 51.1501 63.61 51.9568V48.6568C63.61 44.8434 62.51 41.9101 60.31 39.8568C58.1833 37.8034 54.9933 36.7768 50.74 36.7768C47.66 36.7768 44.6533 37.3268 41.72 38.4268C38.7867 39.5268 35.78 41.1401 32.7 43.2668L28.19 33.9168C35.5967 29.0034 43.59 26.5468 52.17 26.5468C60.4567 26.5468 66.8733 28.6001 71.42 32.7068C76.04 36.7401 78.35 42.6068 78.35 50.3068V68.2368C78.35 69.7768 78.6067 70.8768 79.12 71.5368C79.7067 72.1968 80.6233 72.5634 81.87 72.6368V85.1768C79.3767 85.6901 77.2133 85.9468 75.38 85.9468C72.5933 85.9468 70.43 85.3234 68.89 84.0768C67.4233 82.8301 66.5067 81.1801 66.14 79.1268L65.81 75.9368C63.2433 79.3101 60.1267 81.8768 56.46 83.6368C52.7933 85.3968 48.87 86.2768 44.69 86.2768ZM48.87 75.4968C51.3633 75.4968 53.71 75.0568 55.91 74.1768C58.1833 73.2968 59.9433 72.1234 61.19 70.6568C62.8033 69.4101 63.61 68.0168 63.61 66.4768V59.8768C61.85 59.2168 59.9433 58.7034 57.89 58.3368C55.8367 57.8968 53.8567 57.6768 51.95 57.6768C48.1367 57.6768 45.02 58.5568 42.6 60.3168C40.18 62.0034 38.97 64.1668 38.97 66.8068C38.97 69.3001 39.9233 71.3901 41.83 73.0768C43.7367 74.6901 46.0833 75.4968 48.87 75.4968Z" fill="#2A2921"/>
<path d="M144.069 25.1279V33.4531L134.669 35.8701C136.388 38.5557 137.247 41.5635 137.247 44.8936C137.247 51.3389 134.991 56.3698 130.48 59.9863C126.004 63.5671 119.773 65.3574 111.788 65.3574L108.834 65.1963L106.417 64.9277C104.734 66.2168 103.893 67.6491 103.893 69.2246C103.893 71.5879 106.901 72.7695 112.916 72.7695H123.121C129.71 72.7695 134.723 74.1839 138.16 77.0127C141.634 79.8415 143.37 83.9951 143.37 89.4736C143.37 96.4919 140.434 101.935 134.562 105.802C128.725 109.669 120.328 111.603 109.371 111.603C100.992 111.603 94.5829 110.134 90.1428 107.198C85.7385 104.298 83.5363 100.216 83.5363 94.9521C83.5363 91.3356 84.6643 88.3099 86.9201 85.875C89.176 83.4401 92.4882 81.7034 96.8566 80.665C95.1737 79.9489 93.7056 78.7852 92.4523 77.1738C91.1991 75.5267 90.5725 73.79 90.5725 71.9639C90.5725 69.6722 91.2349 67.7744 92.5598 66.2705C93.8846 64.7308 95.8003 63.2269 98.3068 61.7588C95.1558 60.3981 92.6493 58.2139 90.7873 55.2061C88.9611 52.1982 88.048 48.6533 88.048 44.5713C88.048 38.0186 90.1786 32.9518 94.4397 29.3711C98.7007 25.7904 104.788 24 112.701 24C114.384 24 116.372 24.1611 118.663 24.4834C120.991 24.7699 122.477 24.9847 123.121 25.1279H144.069ZM97.716 93.6631C97.716 95.9189 98.7902 97.6914 100.939 98.9805C103.123 100.27 106.167 100.914 110.07 100.914C115.942 100.914 120.543 100.108 123.873 98.4971C127.203 96.8857 128.868 94.6836 128.868 91.8906C128.868 89.6348 127.884 88.0771 125.914 87.2178C123.945 86.3584 120.901 85.9287 116.783 85.9287H108.297C105.289 85.9287 102.765 86.627 100.724 88.0234C98.7186 89.4557 97.716 91.3356 97.716 93.6631ZM103.678 44.7861C103.678 48.0446 104.412 50.6227 105.88 52.5205C107.384 54.4183 109.658 55.3672 112.701 55.3672C115.781 55.3672 118.037 54.4183 119.469 52.5205C120.901 50.6227 121.617 48.0446 121.617 44.7861C121.617 37.5531 118.645 33.9365 112.701 33.9365C106.686 33.9365 103.678 37.5531 103.678 44.7861Z" fill="#2A2921"/>
</svg>
