<svg width="169" height="136" viewBox="0 0 169 136" fill="none" xmlns="http://www.w3.org/2000/svg">
<path d="M42.69 85.6C39.9033 85.6 37.3 85.16 34.88 84.28C32.46 83.3267 30.37 82.0433 28.61 80.43C26.85 78.7433 25.4567 76.8 24.43 74.6C23.4767 72.4 23 69.98 23 67.34C23 64.6267 23.5867 62.1333 24.76 59.86C26.0067 57.5133 27.6933 55.5333 29.82 53.92C32.02 52.3067 34.6233 51.06 37.63 50.18C40.6367 49.2267 43.9367 48.75 47.53 48.75C50.0967 48.75 52.59 48.97 55.01 49.41C57.5033 49.85 59.7033 50.4733 61.61 51.28V47.98C61.61 44.1667 60.51 41.2333 58.31 39.18C56.1833 37.1267 52.9933 36.1 48.74 36.1C45.66 36.1 42.6533 36.65 39.72 37.75C36.7867 38.85 33.78 40.4633 30.7 42.59L26.19 33.24C33.5967 28.3267 41.59 25.87 50.17 25.87C58.4567 25.87 64.8733 27.9233 69.42 32.03C74.04 36.0633 76.35 41.93 76.35 49.63V67.56C76.35 69.1 76.6067 70.2 77.12 70.86C77.7067 71.52 78.6233 71.8867 79.87 71.96V84.5C77.3767 85.0133 75.2133 85.27 73.38 85.27C70.5933 85.27 68.43 84.6467 66.89 83.4C65.4233 82.1533 64.5067 80.5033 64.14 78.45L63.81 75.26C61.2433 78.6333 58.1267 81.2 54.46 82.96C50.7933 84.72 46.87 85.6 42.69 85.6ZM46.87 74.82C49.3633 74.82 51.71 74.38 53.91 73.5C56.1833 72.62 57.9433 71.4467 59.19 69.98C60.8033 68.7333 61.61 67.34 61.61 65.8V59.2C59.85 58.54 57.9433 58.0267 55.89 57.66C53.8367 57.22 51.8567 57 49.95 57C46.1367 57 43.02 57.88 40.6 59.64C38.18 61.3267 36.97 63.49 36.97 66.13C36.97 68.6233 37.9233 70.7133 39.83 72.4C41.7367 74.0133 44.0833 74.82 46.87 74.82Z" fill="#2A2921"/>
<path d="M85.6141 96.6C85.6141 108.7 96.7241 112.55 113.994 112.55C135.114 112.55 144.794 103.75 144.794 91.65C144.794 80.65 136.764 74.6 122.794 74.6H106.514L106.954 67.23C107.394 67.23 109.594 67.78 112.564 67.78C127.744 67.78 138.964 61.18 138.964 45.23C138.964 40.5 137.314 37.53 137.094 36.54L146.114 35V26.2L127.194 26.64C125.104 25.65 120.594 24 114.214 24C99.1441 24 87.8141 31.48 87.8141 46.55C87.8141 57.22 93.6441 61.95 96.2841 63.71C94.9641 65.8 90.5641 72.95 90.5641 76.14C90.5641 82.41 97.1641 83.4 97.1641 83.4C97.1641 83.4 85.6141 87.14 85.6141 96.6ZM113.664 35.33C119.714 35.33 122.464 38.85 122.464 45.78C122.464 53.15 120.044 56.78 113.114 56.78C106.844 56.78 104.314 52.38 104.314 45.78C104.314 38.85 107.064 35.33 113.664 35.33ZM118.394 86.7C125.764 86.7 129.394 88.02 129.394 92.97C129.394 98.25 125.214 100.45 115.314 100.45C106.294 100.45 101.564 99.35 101.564 93.85C101.564 89.12 106.844 86.7 106.844 86.7H118.394Z" fill="#2A2921"/>
</svg>
