<svg width="169" height="136" viewBox="0 0 169 136" fill="none" xmlns="http://www.w3.org/2000/svg">
<path d="M46.69 87.2895C43.9033 87.2895 41.3 86.8495 38.88 85.9695C36.46 85.0161 34.37 83.7328 32.61 82.1195C30.85 80.4328 29.4567 78.4895 28.43 76.2895C27.4767 74.0895 27 71.6694 27 69.0294C27 66.3161 27.5867 63.8228 28.76 61.5495C30.0067 59.2028 31.6933 57.2228 33.82 55.6095C36.02 53.9961 38.6233 52.7495 41.63 51.8695C44.6367 50.9161 47.9367 50.4394 51.53 50.4394C54.0967 50.4394 56.59 50.6595 59.01 51.0995C61.5033 51.5395 63.7033 52.1628 65.61 52.9695V49.6695C65.61 45.8561 64.51 42.9228 62.31 40.8694C60.1833 38.8161 56.9933 37.7895 52.74 37.7895C49.66 37.7895 46.6533 38.3395 43.72 39.4395C40.7867 40.5395 37.78 42.1528 34.7 44.2795L30.19 34.9295C37.5967 30.0161 45.59 27.5594 54.17 27.5594C62.4567 27.5594 68.8733 29.6128 73.42 33.7195C78.04 37.7528 80.35 43.6195 80.35 51.3195V69.2495C80.35 70.7895 80.6067 71.8895 81.12 72.5495C81.7067 73.2095 82.6233 73.5761 83.87 73.6495V86.1895C81.3767 86.7028 79.2133 86.9594 77.38 86.9594C74.5933 86.9594 72.43 86.3361 70.89 85.0895C69.4233 83.8428 68.5067 82.1928 68.14 80.1395L67.81 76.9495C65.2433 80.3228 62.1267 82.8895 58.46 84.6495C54.7933 86.4095 50.87 87.2895 46.69 87.2895ZM50.87 76.5095C53.3633 76.5095 55.71 76.0695 57.91 75.1895C60.1833 74.3095 61.9433 73.1361 63.19 71.6695C64.8033 70.4228 65.61 69.0295 65.61 67.4895V60.8895C63.85 60.2295 61.9433 59.7161 59.89 59.3495C57.8367 58.9095 55.8567 58.6895 53.95 58.6895C50.1367 58.6895 47.02 59.5695 44.6 61.3295C42.18 63.0161 40.97 65.1795 40.97 67.8195C40.97 70.3128 41.9233 72.4028 43.83 74.0895C45.7367 75.7028 48.0833 76.5095 50.87 76.5095Z" fill="#2A2921"/>
<path d="M88.9201 56.7021C88.9201 47.7861 91.0328 40.6068 95.258 35.1641C99.5191 29.7214 105.248 27 112.446 27C118.819 27 123.779 29.1842 127.323 33.5527L127.968 28.0742H142.04V84.2559C142.04 89.3405 140.877 93.7627 138.549 97.5225C136.257 101.282 133.017 104.147 128.827 106.116C124.638 108.086 119.732 109.07 114.111 109.07C109.849 109.07 105.696 108.211 101.65 106.492C97.6034 104.809 94.5419 102.625 92.465 99.9395L99.34 90.4863C103.207 94.819 107.898 96.9854 113.412 96.9854C117.53 96.9854 120.735 95.8753 123.027 93.6553C125.318 91.471 126.464 88.3558 126.464 84.3096V81.1943C122.883 85.2406 118.175 87.2637 112.338 87.2637C105.356 87.2637 99.6981 84.5423 95.3654 79.0996C91.0686 73.6211 88.9201 66.3701 88.9201 57.3467V56.7021ZM104.443 57.8301C104.443 63.0938 105.499 67.2295 107.612 70.2373C109.724 73.2093 112.625 74.6953 116.313 74.6953C121.039 74.6953 124.423 72.9229 126.464 69.3779V44.9395C124.387 41.3945 121.039 39.6221 116.42 39.6221C112.696 39.6221 109.76 41.1439 107.612 44.1875C105.499 47.2311 104.443 51.7786 104.443 57.8301Z" fill="#2A2921"/>
</svg>
