<svg width="169" height="136" viewBox="0 0 169 136" fill="none" xmlns="http://www.w3.org/2000/svg">
<path d="M41.69 86.02C38.9033 86.02 36.3 85.58 33.88 84.7C31.46 83.7467 29.37 82.4633 27.61 80.85C25.85 79.1633 24.4567 77.22 23.43 75.02C22.4767 72.82 22 70.4 22 67.76C22 65.0467 22.5867 62.5533 23.76 60.28C25.0067 57.9333 26.6933 55.9533 28.82 54.34C31.02 52.7267 33.6233 51.48 36.63 50.6C39.6367 49.6467 42.9367 49.17 46.53 49.17C49.0967 49.17 51.59 49.39 54.01 49.83C56.5033 50.27 58.7033 50.8933 60.61 51.7V48.4C60.61 44.5867 59.51 41.6533 57.31 39.6C55.1833 37.5467 51.9933 36.52 47.74 36.52C44.66 36.52 41.6533 37.07 38.72 38.17C35.7867 39.27 32.78 40.8833 29.7 43.01L25.19 33.66C32.5967 28.7467 40.59 26.29 49.17 26.29C57.4567 26.29 63.8733 28.3433 68.42 32.45C73.04 36.4833 75.35 42.35 75.35 50.05V67.98C75.35 69.52 75.6067 70.62 76.12 71.28C76.7067 71.94 77.6233 72.3067 78.87 72.38V84.92C76.3767 85.4333 74.2133 85.69 72.38 85.69C69.5933 85.69 67.43 85.0667 65.89 83.82C64.4233 82.5733 63.5067 80.9233 63.14 78.87L62.81 75.68C60.2433 79.0533 57.1267 81.62 53.46 83.38C49.7933 85.14 45.87 86.02 41.69 86.02ZM45.87 75.24C48.3633 75.24 50.71 74.8 52.91 73.92C55.1833 73.04 56.9433 71.8667 58.19 70.4C59.8033 69.1533 60.61 67.76 60.61 66.22V59.62C58.85 58.96 56.9433 58.4467 54.89 58.08C52.8367 57.64 50.8567 57.42 48.95 57.42C45.1367 57.42 42.02 58.3 39.6 60.06C37.18 61.7467 35.97 63.91 35.97 66.55C35.97 69.0433 36.9233 71.1333 38.83 72.82C40.7367 74.4333 43.0833 75.24 45.87 75.24Z" fill="#2A2921"/>
<path d="M111.784 114.62C101.957 114.62 94.8441 113.08 90.4441 110C86.0441 106.92 83.8441 102.74 83.8441 97.46C83.8441 94.4533 84.8341 91.5933 86.8141 88.88C88.8674 86.24 91.3241 84.26 94.1841 82.94C90.8107 80.96 89.1241 77.8067 89.1241 73.48C89.1241 70.9867 89.9307 68.64 91.5441 66.44C93.1574 64.1667 95.2474 62.4067 97.8141 61.16C93.7807 59.62 90.7741 57.2733 88.7941 54.12C86.8141 50.9667 85.8241 47.2267 85.8241 42.9C85.8241 38.72 87.0341 35.09 89.4541 32.01C91.9474 28.8567 95.2474 26.4367 99.3541 24.75C103.534 23.0633 108.044 22.22 112.884 22.22C121.464 22.22 127.844 23.87 132.024 27.17C132.977 25.9233 134.591 24.75 136.864 23.65C139.137 22.55 141.484 22 143.904 22H147.754V33.99H136.424C137.524 36.3367 138.074 38.83 138.074 41.47C138.147 48.1433 135.801 53.4967 131.034 57.53C126.267 61.49 119.741 63.47 111.454 63.47C108.007 63.47 105.111 63.2133 102.764 62.7C102.031 63.6533 101.444 64.68 101.004 65.78C100.637 66.8067 100.454 67.7233 100.454 68.53C100.454 70.95 101.297 72.6 102.984 73.48C104.744 74.36 107.861 74.8 112.334 74.8H124.104C139.064 74.8 146.544 80.2267 146.544 91.08C146.544 95.6267 144.931 99.6967 141.704 103.29C138.477 106.883 134.187 109.67 128.834 111.65C123.481 113.63 117.797 114.62 111.784 114.62ZM112.554 56.65C119.374 56.65 122.784 51.9933 122.784 42.68C122.784 37.9133 121.904 34.43 120.144 32.23C118.457 29.9567 115.854 28.82 112.334 28.82C108.887 28.82 106.211 29.9567 104.304 32.23C102.471 34.43 101.554 37.7667 101.554 42.24C101.554 51.8467 105.221 56.65 112.554 56.65ZM113.434 107.03C118.054 107.03 122.051 105.893 125.424 103.62C128.797 101.42 130.484 98.34 130.484 94.38C130.484 91.2267 129.641 88.9533 127.954 87.56C126.341 86.1667 123.407 85.47 119.154 85.47H107.164C105.331 85.47 103.644 85.36 102.104 85.14C100.124 87.78 99.1341 90.9333 99.1341 94.6C99.1341 98.6333 100.234 101.713 102.434 103.84C104.634 105.967 108.301 107.03 113.434 107.03Z" fill="#2A2921"/>
</svg>
