<svg width="169" height="136" viewBox="0 0 169 136" fill="none" xmlns="http://www.w3.org/2000/svg">
<path d="M48.69 86.73C45.9033 86.73 43.3 86.29 40.88 85.41C38.46 84.4567 36.37 83.1733 34.61 81.56C32.85 79.8733 31.4567 77.93 30.43 75.73C29.4767 73.53 29 71.11 29 68.47C29 65.7567 29.5867 63.2633 30.76 60.99C32.0067 58.6433 33.6933 56.6633 35.82 55.05C38.02 53.4367 40.6233 52.19 43.63 51.31C46.6367 50.3567 49.9367 49.88 53.53 49.88C56.0967 49.88 58.59 50.1 61.01 50.54C63.5033 50.98 65.7033 51.6033 67.61 52.41V49.11C67.61 45.2967 66.51 42.3633 64.31 40.31C62.1833 38.2567 58.9933 37.23 54.74 37.23C51.66 37.23 48.6533 37.78 45.72 38.88C42.7867 39.98 39.78 41.5933 36.7 43.72L32.19 34.37C39.5967 29.4567 47.59 27 56.17 27C64.4567 27 70.8733 29.0533 75.42 33.16C80.04 37.1933 82.35 43.06 82.35 50.76V68.69C82.35 70.23 82.6067 71.33 83.12 71.99C83.7067 72.65 84.6233 73.0167 85.87 73.09V85.63C83.3767 86.1433 81.2133 86.4 79.38 86.4C76.5933 86.4 74.43 85.7767 72.89 84.53C71.4233 83.2833 70.5067 81.6333 70.14 79.58L69.81 76.39C67.2433 79.7633 64.1267 82.33 60.46 84.09C56.7933 85.85 52.87 86.73 48.69 86.73ZM52.87 75.95C55.3633 75.95 57.71 75.51 59.91 74.63C62.1833 73.75 63.9433 72.5767 65.19 71.11C66.8033 69.8633 67.61 68.47 67.61 66.93V60.33C65.85 59.67 63.9433 59.1567 61.89 58.79C59.8367 58.35 57.8567 58.13 55.95 58.13C52.1367 58.13 49.02 59.01 46.6 60.77C44.18 62.4567 42.97 64.62 42.97 67.26C42.97 69.7533 43.9233 71.8433 45.83 73.53C47.7367 75.1433 50.0833 75.95 52.87 75.95Z" fill="#2A2921"/>
<path d="M140.014 85.63C140.014 93.6233 137.851 99.49 133.524 103.23C129.197 107.043 123.147 108.95 115.374 108.95C110.094 108.95 105.914 108.583 102.834 107.85C99.8274 107.117 97.5541 106.347 96.0141 105.54L98.9841 94.21C100.671 94.87 102.614 95.53 104.814 96.19C107.087 96.85 109.874 97.18 113.174 97.18C118.161 97.18 121.534 96.08 123.294 93.88C125.127 91.7533 126.044 88.7467 126.044 84.86V81.34H125.604C123.037 84.7867 118.491 86.51 111.964 86.51C104.851 86.51 99.5341 84.31 96.0141 79.91C92.5674 75.51 90.8441 68.6167 90.8441 59.23C90.8441 49.4033 93.1907 41.96 97.8841 36.9C102.577 31.84 109.397 29.31 118.344 29.31C123.037 29.31 127.217 29.64 130.884 30.3C134.624 30.96 137.667 31.73 140.014 32.61V85.63ZM115.814 75.07C118.601 75.07 120.727 74.4467 122.194 73.2C123.734 71.9533 124.907 70.0833 125.714 67.59V42.84C123.441 41.8867 120.617 41.41 117.244 41.41C113.577 41.41 110.717 42.8033 108.664 45.59C106.611 48.3033 105.584 52.6667 105.584 58.68C105.584 64.0333 106.464 68.1033 108.224 70.89C109.984 73.6767 112.514 75.07 115.814 75.07Z" fill="#2A2921"/>
</svg>
