<svg width="169" height="136" viewBox="0 0 169 136" fill="none" xmlns="http://www.w3.org/2000/svg">
<path d="M63.9863 87.1895C63.2702 85.793 62.751 84.0563 62.4287 81.9795C58.6689 86.1689 53.7812 88.2637 47.7656 88.2637C42.0723 88.2637 37.3457 86.6165 33.5859 83.3223C29.862 80.028 28 75.8743 28 70.8613C28 64.7025 30.2738 59.9759 34.8213 56.6816C39.4046 53.3874 46.0111 51.7223 54.6406 51.6865H61.7842V48.3564C61.7842 45.6709 61.0859 43.5225 59.6895 41.9111C58.3288 40.2998 56.1624 39.4941 53.1904 39.4941C50.5765 39.4941 48.5176 40.1208 47.0137 41.374C45.5456 42.6273 44.8115 44.346 44.8115 46.5303H29.2891C29.2891 43.1644 30.3275 40.0492 32.4043 37.1846C34.4811 34.32 37.4173 32.082 41.2129 30.4707C45.0085 28.8236 49.2695 28 53.9961 28C61.1576 28 66.833 29.8083 71.0225 33.4248C75.2477 37.0055 77.3604 42.0544 77.3604 48.5713V73.7617C77.3962 79.276 78.166 83.4476 79.6699 86.2764V87.1895H63.9863ZM51.1494 76.3936C53.4411 76.3936 55.5537 75.8923 57.4873 74.8896C59.4209 73.8512 60.8532 72.4727 61.7842 70.7539V60.7637H55.9834C48.2132 60.7637 44.0775 63.4492 43.5762 68.8203L43.5225 69.7334C43.5225 71.667 44.2028 73.2604 45.5635 74.5137C46.9242 75.7669 48.7861 76.3936 51.1494 76.3936Z" fill="#2A2921"/>
<path d="M133.812 32.2995C135.866 32.2995 137.516 32.8861 138.762 34.0595C140.009 35.2328 140.632 36.8095 140.632 38.7895V82.2395C140.632 90.6728 138.286 97.0528 133.592 101.379C128.899 105.706 121.969 107.869 112.802 107.869C104.809 107.869 98.1356 106.366 92.7823 103.359C90.0689 101.746 88.7123 99.8028 88.7123 97.5295C88.7123 95.9161 89.0789 94.6328 89.8123 93.6795C90.6189 92.7261 91.6456 92.2495 92.8923 92.2495C93.5523 92.2495 94.3589 92.3961 95.3123 92.6895C96.2656 93.0561 97.2556 93.4594 98.2823 93.8995C100.922 94.9995 103.269 95.8428 105.322 96.4295C107.449 97.0161 109.869 97.3095 112.582 97.3095C122.189 97.3095 126.992 92.6161 126.992 83.2295V76.1895C125.379 79.1961 123.032 81.5428 119.952 83.2295C116.872 84.8428 113.352 85.6495 109.392 85.6495C104.699 85.6495 100.519 84.5494 96.8523 82.3494C93.2589 80.0761 90.4356 76.9228 88.3823 72.8895C86.3289 68.8561 85.3023 64.1995 85.3023 58.9195C85.3023 53.6395 86.2923 48.9828 88.2723 44.9495C90.3256 40.8428 93.1856 37.6894 96.8523 35.4894C100.519 33.2161 104.699 32.0794 109.392 32.0794C113.352 32.0794 116.872 32.9228 119.952 34.6095C123.032 36.2228 125.379 38.5328 126.992 41.5395V38.6795C126.992 36.7728 127.616 35.2328 128.862 34.0595C130.109 32.8861 131.759 32.2995 133.812 32.2995ZM113.022 74.9795C117.422 74.9795 120.832 73.5495 123.252 70.6895C125.746 67.8295 126.992 63.9061 126.992 58.9195C126.992 53.8595 125.746 49.8995 123.252 47.0395C120.832 44.1795 117.422 42.7495 113.022 42.7495C108.696 42.7495 105.286 44.1795 102.792 47.0395C100.299 49.8995 99.0523 53.8595 99.0523 58.9195C99.0523 63.9061 100.299 67.8295 102.792 70.6895C105.286 73.5495 108.696 74.9795 113.022 74.9795Z" fill="#2A2921"/>
</svg>
