<svg width="169" height="136" viewBox="0 0 169 136" fill="none" xmlns="http://www.w3.org/2000/svg">
<path d="M61.9863 85.1895C61.2702 83.793 60.751 82.0563 60.4287 79.9795C56.6689 84.1689 51.7812 86.2637 45.7656 86.2637C40.0723 86.2637 35.3457 84.6165 31.5859 81.3223C27.862 78.028 26 73.8743 26 68.8613C26 62.7025 28.2738 57.9759 32.8213 54.6816C37.4046 51.3874 44.0111 49.7223 52.6406 49.6865H59.7842V46.3564C59.7842 43.6709 59.0859 41.5225 57.6895 39.9111C56.3288 38.2998 54.1624 37.4941 51.1904 37.4941C48.5765 37.4941 46.5176 38.1208 45.0137 39.374C43.5456 40.6273 42.8115 42.346 42.8115 44.5303H27.2891C27.2891 41.1644 28.3275 38.0492 30.4043 35.1846C32.4811 32.32 35.4173 30.082 39.2129 28.4707C43.0085 26.8236 47.2695 26 51.9961 26C59.1576 26 64.833 27.8083 69.0225 31.4248C73.2477 35.0055 75.3604 40.0544 75.3604 46.5713V71.7617C75.3962 77.276 76.166 81.4476 77.6699 84.2764V85.1895H61.9863ZM49.1494 74.3936C51.4411 74.3936 53.5537 73.8923 55.4873 72.8896C57.4209 71.8512 58.8532 70.4727 59.7842 68.7539V58.7637H53.9834C46.2132 58.7637 42.0775 61.4492 41.5762 66.8203L41.5225 67.7334C41.5225 69.667 42.2028 71.2604 43.5635 72.5137C44.9242 73.7669 46.7861 74.3936 49.1494 74.3936Z" fill="#2A2921"/>
<path d="M108.382 85.5195C104.496 85.5195 100.976 84.7495 97.8223 83.2094C94.6689 81.6694 91.9189 79.5795 89.5723 76.9395C87.2989 74.2261 85.5389 71.1095 84.2923 67.5895C83.0456 64.0695 82.4223 60.3295 82.4223 56.3694C82.4223 52.1895 83.0823 48.3028 84.4023 44.7094C85.7223 41.1161 87.5556 37.9628 89.9023 35.2495C92.2489 32.5361 95.0723 30.4094 98.3723 28.8694C101.672 27.3294 105.302 26.5594 109.262 26.5594C113.736 26.5594 117.659 27.5861 121.032 29.6395C124.406 31.6195 127.192 34.2961 129.392 37.6695V27.5494H142.262V82.4395C142.262 86.6928 141.456 90.5061 139.842 93.8795C138.229 97.2528 135.992 100.113 133.132 102.459C130.346 104.806 126.972 106.603 123.012 107.849C119.126 109.096 114.872 109.719 110.252 109.719C103.946 109.719 98.6289 108.656 94.3023 106.529C90.0489 104.476 86.3823 101.543 83.3023 97.7295L91.3323 89.9195C93.5323 92.6328 96.2823 94.7595 99.5823 96.2995C102.956 97.8395 106.512 98.6095 110.252 98.6095C112.526 98.6095 114.689 98.2795 116.742 97.6195C118.869 97.0328 120.739 96.0795 122.352 94.7595C123.966 93.4395 125.212 91.7528 126.092 89.6995C127.046 87.6461 127.522 85.2261 127.522 82.4395V75.1795C125.616 78.4795 122.939 81.0461 119.492 82.8795C116.046 84.6395 112.342 85.5195 108.382 85.5195ZM113.332 73.7495C114.946 73.7495 116.486 73.4928 117.952 72.9795C119.419 72.4661 120.776 71.7695 122.022 70.8895C123.269 70.0094 124.369 68.9828 125.322 67.8095C126.276 66.6361 127.009 65.3895 127.522 64.0695V50.3195C126.202 46.9461 124.112 44.2328 121.252 42.1795C118.466 40.1261 115.532 39.0994 112.452 39.0994C110.179 39.0994 108.126 39.6128 106.292 40.6395C104.459 41.5928 102.882 42.9128 101.562 44.5995C100.242 46.2128 99.2156 48.0828 98.4823 50.2094C97.8223 52.3361 97.4923 54.5361 97.4923 56.8095C97.4923 59.1561 97.8956 61.3561 98.7023 63.4095C99.5089 65.4628 100.609 67.2595 102.002 68.7995C103.469 70.3395 105.156 71.5494 107.062 72.4295C108.969 73.3095 111.059 73.7495 113.332 73.7495Z" fill="#2A2921"/>
</svg>
