<svg width="169" height="136" viewBox="0 0 169 136" fill="none" xmlns="http://www.w3.org/2000/svg">
<path d="M62.9863 86.1895C62.2702 84.793 61.751 83.0563 61.4287 80.9795C57.6689 85.1689 52.7812 87.2637 46.7656 87.2637C41.0723 87.2637 36.3457 85.6165 32.5859 82.3223C28.862 79.028 27 74.8743 27 69.8613C27 63.7025 29.2738 58.9759 33.8213 55.6816C38.4046 52.3874 45.0111 50.7223 53.6406 50.6865H60.7842V47.3564C60.7842 44.6709 60.0859 42.5225 58.6895 40.9111C57.3288 39.2998 55.1624 38.4941 52.1904 38.4941C49.5765 38.4941 47.5176 39.1208 46.0137 40.374C44.5456 41.6273 43.8115 43.346 43.8115 45.5303H28.2891C28.2891 42.1644 29.3275 39.0492 31.4043 36.1846C33.4811 33.32 36.4173 31.082 40.2129 29.4707C44.0085 27.8236 48.2695 27 52.9961 27C60.1576 27 65.833 28.8083 70.0225 32.4248C74.2477 36.0055 76.3604 41.0544 76.3604 47.5713V72.7617C76.3962 78.276 77.166 82.4476 78.6699 85.2764V86.1895H62.9863ZM50.1494 75.3936C52.4411 75.3936 54.5537 74.8923 56.4873 73.8896C58.4209 72.8512 59.8532 71.4727 60.7842 69.7539V59.7637H54.9834C47.2132 59.7637 43.0775 62.4492 42.5762 67.8203L42.5225 68.7334C42.5225 70.667 43.2028 72.2604 44.5635 73.5137C45.9242 74.7669 47.7861 75.3936 50.1494 75.3936Z" fill="#2A2921"/>
<path d="M127.642 78.2695H125.662C125.076 79.5161 124.342 80.7261 123.462 81.8995C122.656 82.9995 121.556 83.9895 120.162 84.8695C118.842 85.7495 117.229 86.4461 115.322 86.9594C113.489 87.4728 111.252 87.7295 108.612 87.7295C105.239 87.7295 102.086 87.1428 99.1523 85.9695C96.2923 84.7228 93.7623 82.9261 91.5623 80.5795C89.4356 78.1595 87.7489 75.2261 86.5023 71.7794C85.3289 68.3328 84.7423 64.3728 84.7423 59.8995V57.9195C84.7423 53.5195 85.3656 49.5961 86.6123 46.1495C87.9323 42.7028 89.6923 39.8061 91.8923 37.4594C94.1656 35.0395 96.7689 33.2061 99.7023 31.9594C102.709 30.7128 105.862 30.0894 109.162 30.0894C113.562 30.0894 117.046 30.9328 119.612 32.6194C122.179 34.2328 124.196 36.5428 125.662 39.5494H127.642V31.6295H141.502V99.6095C141.502 102.103 140.696 104.156 139.082 105.769C137.542 107.383 135.526 108.189 133.032 108.189H96.2923V94.9895H124.672C126.652 94.9895 127.642 93.8895 127.642 91.6895V78.2695ZM113.122 74.5294C117.449 74.5294 120.932 73.1728 123.572 70.4594C126.286 67.6728 127.642 64.0428 127.642 59.5695V58.2495C127.642 53.7761 126.286 50.1828 123.572 47.4695C120.932 44.6828 117.449 43.2895 113.122 43.2895C108.796 43.2895 105.276 44.6461 102.562 47.3595C99.9223 49.9995 98.6023 53.6295 98.6023 58.2495V59.5695C98.6023 64.1895 99.9223 67.8561 102.562 70.5695C105.276 73.2094 108.796 74.5294 113.122 74.5294Z" fill="#2A2921"/>
</svg>
