<svg width="169" height="136" viewBox="0 0 169 136" fill="none" xmlns="http://www.w3.org/2000/svg">
<path d="M61.9863 86.66C61.2702 85.2635 60.751 83.5269 60.4287 81.45C56.6689 85.6395 51.7812 87.7342 45.7656 87.7342C40.0723 87.7342 35.3457 86.0871 31.5859 82.7928C27.862 79.4985 26 75.3449 26 70.3319C26 64.173 28.2738 59.4465 32.8213 56.1522C37.4046 52.8579 44.0111 51.1929 52.6406 51.1571H59.7842V47.827C59.7842 45.1414 59.0859 42.993 57.6895 41.3817C56.3288 39.7704 54.1624 38.9647 51.1904 38.9647C48.5765 38.9647 46.5176 39.5913 45.0137 40.8446C43.5456 42.0978 42.8115 43.8166 42.8115 46.0008H27.2891C27.2891 42.6349 28.3275 39.5197 30.4043 36.6551C32.4811 33.7905 35.4173 31.5526 39.2129 29.9412C43.0085 28.2941 47.2695 27.4705 51.9961 27.4705C59.1576 27.4705 64.833 29.2788 69.0225 32.8954C73.2477 36.4761 75.3604 41.5249 75.3604 48.0418V73.2323C75.3962 78.7466 76.166 82.9181 77.6699 85.7469V86.66H61.9863ZM49.1494 75.8641C51.4411 75.8641 53.5537 75.3628 55.4873 74.3602C57.4209 73.3218 58.8532 71.9432 59.7842 70.2245V60.2342H53.9834C46.2132 60.2342 42.0775 62.9198 41.5762 68.2909L41.5225 69.2039C41.5225 71.1375 42.2028 72.731 43.5635 73.9842C44.9242 75.2375 46.7861 75.8641 49.1494 75.8641Z" fill="#2A2921"/>
<path d="M107.282 116.47C100.976 116.47 95.9889 115.773 92.3223 114.38C88.6556 113.06 86.0523 111.3 84.5123 109.1C82.9723 106.9 82.2023 104.553 82.2023 102.06C82.2023 99.7867 82.9356 97.4767 84.4023 95.13C85.9423 92.7833 88.6923 90.8767 92.6523 89.41C89.6456 88.6033 87.5189 87.32 86.2723 85.56C85.0989 83.7267 84.5123 81.7833 84.5123 79.73C84.5123 77.8233 85.2823 75.6967 86.8223 73.35C88.3623 70.93 91.1489 69.0967 95.1823 67.85C92.1023 66.6033 89.5723 64.66 87.5923 62.02C85.6123 59.38 84.5489 56.19 84.4023 52.45C84.2556 48.05 85.3556 44.1633 87.7023 40.79C90.0489 37.3433 93.1289 34.6667 96.9423 32.76C100.756 30.8533 104.752 29.9 108.932 29.9C110.839 29.9 113.039 30.1567 115.532 30.67C118.026 31.1833 120.189 32.0633 122.022 33.31C122.829 31.0367 123.856 28.91 125.102 26.93C126.422 24.8767 127.999 23.2267 129.832 21.98C131.666 20.66 133.719 20 135.992 20C138.486 20 140.356 20.66 141.602 21.98C142.922 23.2267 143.582 24.9133 143.582 27.04C143.582 27.92 143.362 28.91 142.922 30.01C142.556 31.0367 141.859 31.9167 140.832 32.65C139.879 33.3833 138.522 33.75 136.762 33.75C135.662 33.75 134.562 33.3467 133.462 32.54C132.362 31.66 131.702 30.6333 131.482 29.46C130.529 29.7533 129.576 30.7067 128.622 32.32C127.669 33.9333 127.119 35.3633 126.972 36.61C131.299 40.35 133.462 45.08 133.462 50.8C133.462 55.0533 132.252 58.83 129.832 62.13C127.486 65.3567 124.406 67.9233 120.592 69.83C116.852 71.6633 112.819 72.58 108.492 72.58C107.539 72.58 106.476 72.5433 105.302 72.47C104.129 72.3233 102.992 72.25 101.892 72.25C100.279 72.25 98.9223 72.5433 97.8223 73.13C96.7223 73.7167 96.1723 74.5233 96.1723 75.55C96.1723 76.9433 97.2356 77.8967 99.3623 78.41C101.489 78.9233 105.119 79.3267 110.252 79.62C115.899 79.9133 120.812 80.6467 124.992 81.82C129.246 82.92 132.546 84.68 134.892 87.1C137.239 89.52 138.412 92.8567 138.412 97.11C138.412 100.263 137.496 103.013 135.662 105.36C133.829 107.78 131.372 109.797 128.292 111.41C125.286 113.097 121.949 114.343 118.282 115.15C114.616 116.03 110.949 116.47 107.282 116.47ZM108.932 65.21C110.912 65.21 112.562 64.5867 113.882 63.34C115.276 62.0933 116.302 60.5167 116.962 58.61C117.696 56.7033 118.062 54.76 118.062 52.78C118.062 50.2133 117.732 47.7567 117.072 45.41C116.412 42.99 115.386 41.0467 113.992 39.58C112.672 38.04 110.949 37.27 108.822 37.27C105.889 37.27 103.616 38.59 102.002 41.23C100.389 43.87 99.5823 46.8767 99.5823 50.25C99.5823 52.8167 99.9489 55.2733 100.682 57.62C101.416 59.8933 102.479 61.7267 103.872 63.12C105.266 64.5133 106.952 65.21 108.932 65.21ZM110.472 108.88C115.679 108.88 119.602 107.927 122.242 106.02C124.956 104.113 126.312 102.133 126.312 100.08C126.312 95.68 121.032 93.26 110.472 92.82C108.859 92.6733 106.989 92.5633 104.862 92.49C102.736 92.4167 100.866 92.2333 99.2523 91.94C98.1523 92.82 97.3089 93.92 96.7223 95.24C96.1356 96.56 95.8056 97.8433 95.7323 99.09C95.5856 102.023 96.8323 104.37 99.4723 106.13C102.186 107.963 105.852 108.88 110.472 108.88Z" fill="#2A2921"/>
</svg>
