<svg width="169" height="136" viewBox="0 0 169 136" fill="none" xmlns="http://www.w3.org/2000/svg">
<path d="M60.9863 91.54C60.2702 90.1435 59.751 88.4069 59.4287 86.33C55.6689 90.5195 50.7812 92.6142 44.7656 92.6142C39.0723 92.6142 34.3457 90.9671 30.5859 87.6728C26.862 84.3785 25 80.2249 25 75.2119C25 69.053 27.2738 64.3265 31.8213 61.0322C36.4046 57.7379 43.0111 56.0729 51.6406 56.0371H58.7842V52.707C58.7842 50.0214 58.0859 47.873 56.6895 46.2617C55.3288 44.6504 53.1624 43.8447 50.1904 43.8447C47.5765 43.8447 45.5176 44.4713 44.0137 45.7246C42.5456 46.9778 41.8115 48.6966 41.8115 50.8808H26.2891C26.2891 47.5149 27.3275 44.3997 29.4043 41.5351C31.4811 38.6705 34.4173 36.4326 38.2129 34.8213C42.0085 33.1741 46.2695 32.3505 50.9961 32.3505C58.1576 32.3505 63.833 34.1588 68.0225 37.7754C72.2477 41.3561 74.3604 46.4049 74.3604 52.9218V78.1123C74.3962 83.6266 75.166 87.7981 76.6699 90.6269V91.54H60.9863ZM48.1494 80.7441C50.4411 80.7441 52.5537 80.2428 54.4873 79.2402C56.4209 78.2018 57.8532 76.8232 58.7842 75.1045V65.1142H52.9834C45.2132 65.1142 41.0775 67.7998 40.5762 73.1709L40.5225 74.0839C40.5225 76.0175 41.2028 77.611 42.5635 78.8642C43.9242 80.1175 45.7861 80.7441 48.1494 80.7441Z" fill="#2A2921"/>
<path d="M95.1723 111.56C91.1389 111.56 87.7289 110.313 84.9423 107.82C82.1556 105.327 80.7623 102.137 80.7623 98.25C80.7623 93.1167 83.7323 89.1933 89.6723 86.48C85.9323 84.5733 84.0623 81.6767 84.0623 77.79C84.0623 75.37 85.0156 73.28 86.9223 71.52C88.8289 69.6867 91.2856 68.4033 94.2923 67.67C88.6456 64.2233 85.8223 59.0167 85.8223 52.05C85.8223 45.9633 88.0223 41.16 92.4223 37.64C96.8956 34.12 103.239 32.36 111.452 32.36C115.926 32.36 119.812 32.91 123.112 34.01C125.312 32.6167 126.889 30.9667 127.842 29.06C128.869 27.08 129.382 25.3933 129.382 24H144.122C144.122 28.0333 143.022 31.2967 140.822 33.79C138.696 36.21 135.652 37.86 131.692 38.74C135.359 42.1867 137.192 46.6233 137.192 52.05C137.192 58.1367 135.029 62.94 130.702 66.46C126.449 69.98 120.326 71.74 112.332 71.74H103.532C102.212 71.74 101.149 72.0333 100.342 72.62C99.6089 73.2067 99.2423 74.0133 99.2423 75.04C99.2423 75.92 99.5723 76.69 100.232 77.35C100.892 77.9367 101.772 78.23 102.872 78.23H129.162C133.416 78.23 136.972 79.66 139.832 82.52C142.692 85.38 144.122 89.12 144.122 93.74C144.122 97.26 143.169 100.377 141.262 103.09C139.356 105.803 136.752 107.893 133.452 109.36C130.152 110.827 126.522 111.56 122.562 111.56H95.1723ZM111.452 61.51C114.972 61.51 117.649 60.7033 119.482 59.09C121.316 57.4033 122.232 55.0567 122.232 52.05C122.232 49.0433 121.316 46.7333 119.482 45.12C117.649 43.4333 114.972 42.59 111.452 42.59C107.932 42.59 105.256 43.4333 103.422 45.12C101.662 46.7333 100.782 49.0433 100.782 52.05C100.782 55.0567 101.662 57.4033 103.422 59.09C105.256 60.7033 107.932 61.51 111.452 61.51ZM122.342 101.11C124.249 101.11 125.826 100.633 127.072 99.68C128.319 98.7267 128.942 97.48 128.942 95.94C128.942 94.3267 128.356 93.08 127.182 92.2C126.082 91.32 124.689 90.88 123.002 90.88H101.772C100.159 90.88 98.7656 91.3567 97.5923 92.31C96.4923 93.2633 95.9423 94.4733 95.9423 95.94C95.9423 97.48 96.4923 98.7267 97.5923 99.68C98.6923 100.633 100.086 101.11 101.772 101.11H122.342Z" fill="#2A2921"/>
</svg>
