<svg width="169" height="136" viewBox="0 0 169 136" fill="none" xmlns="http://www.w3.org/2000/svg">
<path d="M65.9863 87.1895C65.2702 85.793 64.751 84.0563 64.4287 81.9795C60.6689 86.1689 55.7812 88.2637 49.7656 88.2637C44.0723 88.2637 39.3457 86.6165 35.5859 83.3223C31.862 80.028 30 75.8743 30 70.8613C30 64.7025 32.2738 59.9759 36.8213 56.6816C41.4046 53.3874 48.0111 51.7223 56.6406 51.6865H63.7842V48.3564C63.7842 45.6709 63.0859 43.5225 61.6895 41.9111C60.3288 40.2998 58.1624 39.4941 55.1904 39.4941C52.5765 39.4941 50.5176 40.1208 49.0137 41.374C47.5456 42.6273 46.8115 44.346 46.8115 46.5303H31.2891C31.2891 43.1644 32.3275 40.0492 34.4043 37.1846C36.4811 34.32 39.4173 32.082 43.2129 30.4707C47.0085 28.8236 51.2695 28 55.9961 28C63.1576 28 68.833 29.8083 73.0225 33.4248C77.2477 37.0055 79.3604 42.0544 79.3604 48.5713V73.7617C79.3962 79.276 80.166 83.4476 81.6699 86.2764V87.1895H65.9863ZM53.1494 76.3936C55.4411 76.3936 57.5537 75.8923 59.4873 74.8896C61.4209 73.8512 62.8532 72.4727 63.7842 70.7539V60.7637H57.9834C50.2132 60.7637 46.0775 63.4492 45.5762 68.8203L45.5225 69.7334C45.5225 71.667 46.2028 73.2604 47.5635 74.5137C48.9242 75.7669 50.7861 76.3936 53.1494 76.3936Z" fill="#2A2921"/>
<path d="M139.772 43.4095V51.6595H133.722V86.0895C133.722 93.4228 131.596 98.9595 127.342 102.699C123.162 106.439 117.442 108.309 110.182 108.309C104.462 108.309 98.3389 107.246 91.8123 105.119L94.0123 96.4295C99.2923 98.1161 104.022 98.9595 108.202 98.9595C112.162 98.9595 115.169 98.0061 117.222 96.0995C119.349 94.1928 120.412 91.4061 120.412 87.7395V83.5595C116.672 86.4195 112.272 87.8495 107.212 87.8495C100.832 87.8495 95.6623 85.8328 91.7023 81.7995C87.8156 77.6928 85.8723 72.1561 85.8723 65.1895C85.8723 58.2228 87.8156 52.6861 91.7023 48.5795C95.5889 44.4728 100.722 42.4195 107.102 42.4195C109.669 42.4195 112.162 42.8961 114.582 43.8494C117.002 44.7294 119.092 45.9395 120.852 47.4795L120.962 43.4095H139.772ZM99.6223 65.4095C99.6223 69.3694 100.686 72.4861 102.812 74.7595C105.012 77.0328 107.836 78.1695 111.282 78.1695C114.582 78.1695 117.626 77.2528 120.412 75.4194L120.302 55.2895C117.149 53.0895 113.996 51.9895 110.842 51.9895C107.469 51.9895 104.756 53.1628 102.702 55.5095C100.649 57.7828 99.6223 61.0828 99.6223 65.4095Z" fill="#2A2921"/>
</svg>
