<svg width="169" height="136" viewBox="0 0 169 136" fill="none" xmlns="http://www.w3.org/2000/svg">
<path d="M43.28 87.98C40.7867 87.98 38.5133 87.54 36.46 86.66C34.48 85.8533 32.7933 84.7167 31.4 83.25C30.0067 81.71 28.9067 79.95 28.1 77.97C27.3667 75.99 27 73.8267 27 71.48C27 65.76 29.42 61.2867 34.26 58.06C39.1 54.8333 46.91 52.67 57.69 51.57C57.5433 49.15 56.81 47.2433 55.49 45.85C54.2433 44.3833 52.1167 43.65 49.11 43.65C46.7633 43.65 44.4167 44.09 42.07 44.97C39.7967 45.85 37.34 47.06 34.7 48.6L28.87 37.93C32.39 35.8033 36.0567 34.08 39.87 32.76C43.7567 31.44 47.8633 30.78 52.19 30.78C59.23 30.78 64.5833 32.7967 68.25 36.83C71.99 40.79 73.86 46.9867 73.86 55.42V86.66H60.66L59.56 81.05H59.12C56.7733 83.1033 54.3167 84.79 51.75 86.11C49.1833 87.3567 46.36 87.98 43.28 87.98ZM48.78 75.44C50.6133 75.44 52.19 75.0367 53.51 74.23C54.83 73.4233 56.2233 72.2867 57.69 70.82V61.25C51.97 62.0567 48.01 63.23 45.81 64.77C43.61 66.31 42.51 68.1433 42.51 70.27C42.51 72.03 43.06 73.35 44.16 74.23C45.3333 75.0367 46.8733 75.44 48.78 75.44Z" fill="#2A2921"/>
<path d="M106.348 116.47C100.041 116.47 95.0545 115.773 91.3878 114.38C87.7211 113.06 85.1178 111.3 83.5778 109.1C82.0378 106.9 81.2678 104.553 81.2678 102.06C81.2678 99.7867 82.0011 97.4767 83.4678 95.13C85.0078 92.7833 87.7578 90.8767 91.7178 89.41C88.7111 88.6033 86.5845 87.32 85.3378 85.56C84.1645 83.7267 83.5778 81.7833 83.5778 79.73C83.5778 77.8233 84.3478 75.6967 85.8878 73.35C87.4278 70.93 90.2145 69.0967 94.2478 67.85C91.1678 66.6033 88.6378 64.66 86.6578 62.02C84.6778 59.38 83.6145 56.19 83.4678 52.45C83.3211 48.05 84.4211 44.1633 86.7678 40.79C89.1145 37.3433 92.1945 34.6667 96.0078 32.76C99.8211 30.8533 103.818 29.9 107.998 29.9C109.904 29.9 112.104 30.1567 114.598 30.67C117.091 31.1833 119.254 32.0633 121.088 33.31C121.894 31.0367 122.921 28.91 124.168 26.93C125.488 24.8767 127.064 23.2267 128.898 21.98C130.731 20.66 132.784 20 135.058 20C137.551 20 139.421 20.66 140.668 21.98C141.988 23.2267 142.648 24.9133 142.648 27.04C142.648 27.92 142.428 28.91 141.988 30.01C141.621 31.0367 140.924 31.9167 139.898 32.65C138.944 33.3833 137.588 33.75 135.828 33.75C134.728 33.75 133.628 33.3467 132.528 32.54C131.428 31.66 130.768 30.6333 130.548 29.46C129.594 29.7533 128.641 30.7067 127.688 32.32C126.734 33.9333 126.184 35.3633 126.038 36.61C130.364 40.35 132.528 45.08 132.528 50.8C132.528 55.0533 131.318 58.83 128.898 62.13C126.551 65.3567 123.471 67.9233 119.658 69.83C115.918 71.6633 111.884 72.58 107.558 72.58C106.604 72.58 105.541 72.5433 104.368 72.47C103.194 72.3233 102.058 72.25 100.958 72.25C99.3445 72.25 97.9878 72.5433 96.8878 73.13C95.7878 73.7167 95.2378 74.5233 95.2378 75.55C95.2378 76.9433 96.3011 77.8967 98.4278 78.41C100.554 78.9233 104.184 79.3267 109.318 79.62C114.964 79.9133 119.878 80.6467 124.058 81.82C128.311 82.92 131.611 84.68 133.958 87.1C136.304 89.52 137.478 92.8567 137.478 97.11C137.478 100.263 136.561 103.013 134.728 105.36C132.894 107.78 130.438 109.797 127.358 111.41C124.351 113.097 121.014 114.343 117.348 115.15C113.681 116.03 110.014 116.47 106.348 116.47ZM107.998 65.21C109.978 65.21 111.628 64.5867 112.948 63.34C114.341 62.0933 115.368 60.5167 116.028 58.61C116.761 56.7033 117.128 54.76 117.128 52.78C117.128 50.2133 116.798 47.7567 116.138 45.41C115.478 42.99 114.451 41.0467 113.058 39.58C111.738 38.04 110.014 37.27 107.888 37.27C104.954 37.27 102.681 38.59 101.068 41.23C99.4545 43.87 98.6478 46.8767 98.6478 50.25C98.6478 52.8167 99.0145 55.2733 99.7478 57.62C100.481 59.8933 101.544 61.7267 102.938 63.12C104.331 64.5133 106.018 65.21 107.998 65.21ZM109.538 108.88C114.744 108.88 118.668 107.927 121.308 106.02C124.021 104.113 125.378 102.133 125.378 100.08C125.378 95.68 120.098 93.26 109.538 92.82C107.924 92.6733 106.054 92.5633 103.928 92.49C101.801 92.4167 99.9311 92.2333 98.3178 91.94C97.2178 92.82 96.3745 93.92 95.7878 95.24C95.2011 96.56 94.8711 97.8433 94.7978 99.09C94.6511 102.023 95.8978 104.37 98.5378 106.13C101.251 107.963 104.918 108.88 109.538 108.88Z" fill="#2A2921"/>
</svg>
