<svg width="169" height="136" viewBox="0 0 169 136" fill="none" xmlns="http://www.w3.org/2000/svg">
<path d="M46.28 88.5C43.7867 88.5 41.5133 88.06 39.46 87.18C37.48 86.3733 35.7933 85.2367 34.4 83.77C33.0067 82.23 31.9067 80.47 31.1 78.49C30.3667 76.51 30 74.3467 30 72C30 66.28 32.42 61.8067 37.26 58.58C42.1 55.3533 49.91 53.19 60.69 52.09C60.5433 49.67 59.81 47.7633 58.49 46.37C57.2433 44.9033 55.1167 44.17 52.11 44.17C49.7633 44.17 47.4167 44.61 45.07 45.49C42.7967 46.37 40.34 47.58 37.7 49.12L31.87 38.45C35.39 36.3233 39.0567 34.6 42.87 33.28C46.7567 31.96 50.8633 31.3 55.19 31.3C62.23 31.3 67.5833 33.3167 71.25 37.35C74.99 41.31 76.86 47.5067 76.86 55.94V87.18H63.66L62.56 81.57H62.12C59.7733 83.6233 57.3167 85.31 54.75 86.63C52.1833 87.8767 49.36 88.5 46.28 88.5ZM51.78 75.96C53.6133 75.96 55.19 75.5567 56.51 74.75C57.83 73.9433 59.2233 72.8067 60.69 71.34V61.77C54.97 62.5767 51.01 63.75 48.81 65.29C46.61 66.83 45.51 68.6633 45.51 70.79C45.51 72.55 46.06 73.87 47.16 74.75C48.3333 75.5567 49.8733 75.96 51.78 75.96Z" fill="#2A2921"/>
<path d="M102.858 56.38C102.858 65.5467 106.561 70.13 113.968 70.13C115.654 70.13 117.231 69.91 118.698 69.47C120.164 69.03 121.411 68.5167 122.438 67.93V41.75C121.631 41.6033 120.678 41.4933 119.578 41.42C118.478 41.2733 117.194 41.2 115.728 41.2C111.401 41.2 108.174 42.63 106.048 45.49C103.921 48.35 102.858 51.98 102.858 56.38ZM138.828 79.92C138.828 89.38 136.408 96.3833 131.568 100.93C126.801 105.55 119.394 107.86 109.348 107.86C105.828 107.86 102.308 107.53 98.7878 106.87C95.2678 106.283 92.0045 105.477 88.9978 104.45L91.8578 90.7C94.4245 91.7267 97.1011 92.5333 99.8878 93.12C102.748 93.7067 105.974 94 109.568 94C114.261 94 117.561 92.9733 119.468 90.92C121.448 88.8667 122.438 86.2267 122.438 83V80.91C120.678 81.7167 118.844 82.34 116.938 82.78C115.104 83.1467 113.088 83.33 110.888 83.33C102.894 83.33 96.7711 80.9833 92.5178 76.29C88.2645 71.5233 86.1378 64.8867 86.1378 56.38C86.1378 52.1267 86.7978 48.2767 88.1178 44.83C89.4378 41.31 91.3445 38.3033 93.8378 35.81C96.4045 33.3167 99.5211 31.41 103.188 30.09C106.854 28.6967 110.998 28 115.618 28C117.598 28 119.614 28.11 121.668 28.33C123.794 28.4767 125.884 28.6967 127.938 28.99C129.991 29.2833 131.934 29.65 133.768 30.09C135.674 30.4567 137.361 30.86 138.828 31.3V79.92Z" fill="#2A2921"/>
</svg>
