<svg width="169" height="136" viewBox="0 0 169 136" fill="none" xmlns="http://www.w3.org/2000/svg">
<path d="M40.28 88.38C37.7867 88.38 35.5133 87.94 33.46 87.06C31.48 86.2533 29.7933 85.1167 28.4 83.65C27.0067 82.11 25.9067 80.35 25.1 78.37C24.3667 76.39 24 74.2267 24 71.88C24 66.16 26.42 61.6867 31.26 58.46C36.1 55.2333 43.91 53.07 54.69 51.97C54.5433 49.55 53.81 47.6433 52.49 46.25C51.2433 44.7833 49.1167 44.05 46.11 44.05C43.7633 44.05 41.4167 44.49 39.07 45.37C36.7967 46.25 34.34 47.46 31.7 49L25.87 38.33C29.39 36.2033 33.0567 34.48 36.87 33.16C40.7567 31.84 44.8633 31.18 49.19 31.18C56.23 31.18 61.5833 33.1967 65.25 37.23C68.99 41.19 70.86 47.3867 70.86 55.82V87.06H57.66L56.56 81.45H56.12C53.7733 83.5033 51.3167 85.19 48.75 86.51C46.1833 87.7567 43.36 88.38 40.28 88.38ZM45.78 75.84C47.6133 75.84 49.19 75.4367 50.51 74.63C51.83 73.8233 53.2233 72.6867 54.69 71.22V61.65C48.97 62.4567 45.01 63.63 42.81 65.17C40.61 66.71 39.51 68.5433 39.51 70.67C39.51 72.43 40.06 73.75 41.16 74.63C42.3333 75.4367 43.8733 75.84 45.78 75.84Z" fill="#2A2921"/>
<path d="M144.158 27.88V77.16C144.158 88.0133 141.334 96.08 135.688 101.36C130.041 106.64 121.791 109.28 110.938 109.28C105.218 109.28 99.7911 108.583 94.6578 107.19C89.5245 105.797 85.2711 103.78 81.8978 101.14L88.7178 88.82C91.2111 90.8733 94.3645 92.4867 98.1778 93.66C101.991 94.9067 105.804 95.53 109.618 95.53C115.558 95.53 119.921 94.1733 122.708 91.46C125.568 88.82 126.998 84.7867 126.998 79.36V76.83C122.524 81.7433 116.291 84.2 108.298 84.2C102.871 84.2 97.8845 83.0267 93.3378 80.68C88.8645 78.26 85.3078 74.8867 82.6678 70.56C80.0278 66.2333 78.7078 61.2467 78.7078 55.6C78.7078 49.9533 80.0278 44.9667 82.6678 40.64C85.3078 36.3133 88.8645 32.9767 93.3378 30.63C97.8845 28.21 102.871 27 108.298 27C116.878 27 123.404 29.8233 127.878 35.47V27.88H144.158ZM111.708 70.12C116.254 70.12 119.958 68.8 122.818 66.16C125.751 63.4467 127.218 59.9267 127.218 55.6C127.218 51.2733 125.751 47.79 122.818 45.15C119.958 42.4367 116.254 41.08 111.708 41.08C107.161 41.08 103.421 42.4367 100.488 45.15C97.5545 47.79 96.0878 51.2733 96.0878 55.6C96.0878 59.9267 97.5545 63.4467 100.488 66.16C103.421 68.8 107.161 70.12 111.708 70.12Z" fill="#2A2921"/>
</svg>
