<svg width="169" height="136" viewBox="0 0 169 136" fill="none" xmlns="http://www.w3.org/2000/svg">
<path d="M47.28 84.2C44.7867 84.2 42.5133 83.76 40.46 82.88C38.48 82.0733 36.7933 80.9367 35.4 79.47C34.0067 77.93 32.9067 76.17 32.1 74.19C31.3667 72.21 31 70.0467 31 67.7C31 61.98 33.42 57.5067 38.26 54.28C43.1 51.0533 50.91 48.89 61.69 47.79C61.5433 45.37 60.81 43.4633 59.49 42.07C58.2433 40.6033 56.1167 39.87 53.11 39.87C50.7633 39.87 48.4167 40.31 46.07 41.19C43.7967 42.07 41.34 43.28 38.7 44.82L32.87 34.15C36.39 32.0233 40.0567 30.3 43.87 28.98C47.7567 27.66 51.8633 27 56.19 27C63.23 27 68.5833 29.0167 72.25 33.05C75.99 37.01 77.86 43.2067 77.86 51.64V82.88H64.66L63.56 77.27H63.12C60.7733 79.3233 58.3167 81.01 55.75 82.33C53.1833 83.5767 50.36 84.2 47.28 84.2ZM52.78 71.66C54.6133 71.66 56.19 71.2567 57.51 70.45C58.83 69.6433 60.2233 68.5067 61.69 67.04V57.47C55.97 58.2767 52.01 59.45 49.81 60.99C47.61 62.53 46.51 64.3633 46.51 66.49C46.51 68.25 47.06 69.57 48.16 70.45C49.3333 71.2567 50.8733 71.66 52.78 71.66Z" fill="#2A2921"/>
<path d="M136.198 37.12C132.311 37.4867 129.598 37.7067 128.058 37.78L127.618 38.44C130.551 41.5933 132.018 45.2233 132.018 49.33C132.018 52.9967 130.991 56.3333 128.938 59.34C126.884 62.3467 124.061 64.6933 120.468 66.38C116.874 68.0667 112.841 68.91 108.368 68.91C105.948 68.91 103.564 68.6167 101.218 68.03C100.264 68.8367 99.5678 69.5333 99.1278 70.12C98.7611 70.6333 98.5778 71.1833 98.5778 71.77C98.5778 73.1633 99.6411 74.1533 101.768 74.74C103.894 75.3267 107.268 75.8767 111.888 76.39C116.801 76.9033 120.834 77.49 123.988 78.15C127.141 78.81 129.854 80.02 132.128 81.78C134.474 83.4667 135.648 85.8867 135.648 89.04C135.648 92.4867 134.254 95.7867 131.468 98.94C128.681 102.093 125.051 104.623 120.578 106.53C116.104 108.51 111.411 109.5 106.498 109.5C100.631 109.5 95.9378 108.07 92.4178 105.21C88.8978 102.423 87.1378 98.6833 87.1378 93.99C89.0445 92.01 92.7111 89.3333 98.1378 85.96V85.19C94.6178 84.6033 91.8678 83.3567 89.8878 81.45C87.9811 79.47 86.9545 76.9767 86.8078 73.97C89.4478 71.2567 92.4545 68.8 95.8278 66.6V65.94C93.1878 64.4 91.1345 62.3467 89.6678 59.78C88.2011 57.2133 87.4678 54.3167 87.4678 51.09C87.4678 47.2767 88.4578 43.83 90.4378 40.75C92.4178 37.5967 95.1311 35.14 98.5778 33.38C102.024 31.62 105.911 30.74 110.238 30.74C112.071 30.74 114.234 30.96 116.728 31.4C119.074 31.6933 120.688 31.84 121.568 31.84C124.208 31.6933 129.341 30.4833 136.968 28.21L137.628 28.65L136.198 37.12ZM110.348 61.65C112.988 61.65 115.004 60.7333 116.398 58.9C117.864 57.0667 118.598 54.4267 118.598 50.98C118.598 47.3133 117.754 44.38 116.068 42.18C114.454 39.98 112.144 38.88 109.138 38.88C106.571 38.88 104.554 39.7967 103.088 41.63C101.694 43.39 100.998 46.0667 100.998 49.66C100.998 53.2533 101.804 56.15 103.418 58.35C105.104 60.55 107.414 61.65 110.348 61.65ZM104.958 86.62C103.638 87.72 102.611 88.9667 101.878 90.36C101.144 91.7533 100.778 93.1467 100.778 94.54C100.778 96.6667 101.621 98.3167 103.308 99.49C105.068 100.737 107.524 101.36 110.678 101.36C114.271 101.36 117.278 100.553 119.698 98.94C122.191 97.4 123.438 95.4933 123.438 93.22C123.438 92.0467 122.998 91.0933 122.118 90.36C121.238 89.7 119.514 89.0767 116.948 88.49C114.454 87.9767 110.458 87.3533 104.958 86.62Z" fill="#2A2921"/>
</svg>
