<svg width="169" height="136" viewBox="0 0 169 136" fill="none" xmlns="http://www.w3.org/2000/svg">
<path d="M48.96 73.96C50.5733 73.96 52.1133 73.9233 53.58 73.85C55.0467 73.7767 56.22 73.6667 57.1 73.52V61.09C56.44 60.9433 55.45 60.7967 54.13 60.65C52.81 60.5033 51.6 60.43 50.5 60.43C48.96 60.43 47.4933 60.54 46.1 60.76C44.78 60.9067 43.6067 61.2367 42.58 61.75C41.5533 62.2633 40.7467 62.96 40.16 63.84C39.5733 64.72 39.28 65.82 39.28 67.14C39.28 69.7067 40.1233 71.5033 41.81 72.53C43.57 73.4833 45.9533 73.96 48.96 73.96ZM47.64 26C52.48 26 56.5133 26.55 59.74 27.65C62.9667 28.75 65.5333 30.3267 67.44 32.38C69.42 34.4333 70.8133 36.9267 71.62 39.86C72.4267 42.7933 72.83 46.0567 72.83 49.65V83.75C70.4833 84.2633 67.22 84.85 63.04 85.51C58.86 86.2433 53.8 86.61 47.86 86.61C44.12 86.61 40.71 86.28 37.63 85.62C34.6233 84.96 32.02 83.8967 29.82 82.43C27.62 80.89 25.9333 78.91 24.76 76.49C23.5867 74.07 23 71.1 23 67.58C23 64.2067 23.66 61.3467 24.98 59C26.3733 56.6533 28.2067 54.7833 30.48 53.39C32.7533 51.9967 35.3567 51.0067 38.29 50.42C41.2233 49.76 44.2667 49.43 47.42 49.43C49.5467 49.43 51.4167 49.54 53.03 49.76C54.7167 49.9067 56.0733 50.1267 57.1 50.42V48.88C57.1 46.0933 56.2567 43.8567 54.57 42.17C52.8833 40.4833 49.95 39.64 45.77 39.64C42.9833 39.64 40.2333 39.86 37.52 40.3C34.8067 40.6667 32.46 41.2167 30.48 41.95L28.39 28.75C29.3433 28.4567 30.5167 28.1633 31.91 27.87C33.3767 27.5033 34.9533 27.21 36.64 26.99C38.3267 26.6967 40.0867 26.4767 41.92 26.33C43.8267 26.11 45.7333 26 47.64 26Z" fill="#2A2921"/>
<path d="M111.411 110.7C107.891 110.7 104.334 110.37 100.741 109.71C97.2208 109.05 94.1774 108.17 91.6108 107.07V93.65C97.4041 96.1433 104.004 97.39 111.411 97.39C116.764 97.39 120.614 96.29 122.961 94.09C125.381 91.89 126.591 88.6633 126.591 84.41V81.22C124.464 83.0533 121.824 84.4833 118.671 85.51C115.591 86.5367 112.291 87.05 108.771 87.05C103.197 87.05 98.2841 85.8767 94.0308 83.53C89.7775 81.1833 86.4408 77.8833 84.0208 73.63C81.6741 69.3767 80.5008 64.5 80.5008 59C80.5008 53.4267 81.6741 48.5133 84.0208 44.26C86.3675 40.0067 89.6674 36.7433 93.9208 34.47C98.1741 32.1233 103.051 30.95 108.551 30.95C116.104 30.95 122.337 33.26 127.251 37.88V32.6H145.951V81.77C145.951 90.9367 143.127 98.05 137.481 103.11C131.907 108.17 123.217 110.7 111.411 110.7ZM113.611 72.09C116.617 72.09 119.294 71.32 121.641 69.78C123.987 68.24 125.637 66.1867 126.591 63.62V54.38C125.564 51.8133 123.877 49.7967 121.531 48.33C119.184 46.79 116.544 46.02 113.611 46.02C109.651 46.02 106.461 47.1933 104.041 49.54C101.621 51.8133 100.411 54.93 100.411 58.89C100.411 62.9233 101.621 66.15 104.041 68.57C106.461 70.9167 109.651 72.09 113.611 72.09Z" fill="#2A2921"/>
</svg>
