<svg width="169" height="136" viewBox="0 0 169 136" fill="none" xmlns="http://www.w3.org/2000/svg">
<path d="M54.96 70.96C56.5733 70.96 58.1133 70.9233 59.58 70.85C61.0467 70.7767 62.22 70.6667 63.1 70.52V58.09C62.44 57.9433 61.45 57.7967 60.13 57.65C58.81 57.5033 57.6 57.43 56.5 57.43C54.96 57.43 53.4933 57.54 52.1 57.76C50.78 57.9067 49.6067 58.2367 48.58 58.75C47.5533 59.2633 46.7467 59.96 46.16 60.84C45.5733 61.72 45.28 62.82 45.28 64.14C45.28 66.7067 46.1233 68.5033 47.81 69.53C49.57 70.4833 51.9533 70.96 54.96 70.96ZM53.64 23C58.48 23 62.5133 23.55 65.74 24.65C68.9667 25.75 71.5333 27.3267 73.44 29.38C75.42 31.4333 76.8133 33.9267 77.62 36.86C78.4267 39.7933 78.83 43.0567 78.83 46.65V80.75C76.4833 81.2633 73.22 81.85 69.04 82.51C64.86 83.2433 59.8 83.61 53.86 83.61C50.12 83.61 46.71 83.28 43.63 82.62C40.6233 81.96 38.02 80.8967 35.82 79.43C33.62 77.89 31.9333 75.91 30.76 73.49C29.5867 71.07 29 68.1 29 64.58C29 61.2067 29.66 58.3467 30.98 56C32.3733 53.6533 34.2067 51.7833 36.48 50.39C38.7533 48.9967 41.3567 48.0067 44.29 47.42C47.2233 46.76 50.2667 46.43 53.42 46.43C55.5467 46.43 57.4167 46.54 59.03 46.76C60.7167 46.9067 62.0733 47.1267 63.1 47.42V45.88C63.1 43.0933 62.2567 40.8567 60.57 39.17C58.8833 37.4833 55.95 36.64 51.77 36.64C48.9833 36.64 46.2333 36.86 43.52 37.3C40.8067 37.6667 38.46 38.2167 36.48 38.95L34.39 25.75C35.3433 25.4567 36.5167 25.1633 37.91 24.87C39.3767 24.5033 40.9533 24.21 42.64 23.99C44.3267 23.6967 46.0867 23.4767 47.92 23.33C49.8267 23.11 51.7333 23 53.64 23Z" fill="#2A2921"/>
<path d="M107.401 112.32C100.874 112.32 95.7041 110.743 91.8908 107.59C88.0775 104.51 86.1708 100.623 86.1708 95.93C86.1708 92.4833 86.9774 89.5867 88.5908 87.24C90.2775 84.9667 92.2941 83.1333 94.6408 81.74C92.8808 79.8333 92.0008 77.3767 92.0008 74.37C92.0008 72.4633 92.3675 70.7767 93.1008 69.31C93.9074 67.77 94.8975 66.45 96.0708 65.35C93.5775 63.7367 91.4874 61.61 89.8008 58.97C88.1874 56.2567 87.3808 52.9933 87.3808 49.18C87.3808 44.7067 88.4441 40.93 90.5708 37.85C92.7708 34.77 95.5208 32.4233 98.8208 30.81C102.194 29.1967 105.677 28.39 109.271 28.39C111.837 28.39 114.331 28.7933 116.751 29.6C119.244 30.4067 121.481 31.58 123.461 33.12L135.451 27.07L137.981 27.4L139.191 38.29L128.961 39.5C129.694 40.8933 130.244 42.3967 130.611 44.01C131.051 45.6233 131.271 47.3467 131.271 49.18C131.271 53.58 130.171 57.2467 127.971 60.18C125.844 63.1133 123.094 65.3133 119.721 66.78C116.421 68.2467 112.937 68.98 109.271 68.98C108.757 68.98 108.244 68.98 107.731 68.98C107.291 68.98 106.851 68.9433 106.411 68.87L104.431 71.84L104.651 73.38L115.871 75.69C127.384 78.11 133.141 83.3167 133.141 91.31C133.141 95.71 131.967 99.4867 129.621 102.64C127.347 105.793 124.267 108.177 120.381 109.79C116.494 111.477 112.167 112.32 107.401 112.32ZM110.371 99.12C112.424 99.12 114.367 98.8633 116.201 98.35C118.034 97.91 119.537 97.2133 120.711 96.26C121.957 95.38 122.581 94.3533 122.581 93.18C122.581 92.08 121.957 91.2 120.711 90.54C119.464 89.9533 117.814 89.44 115.761 89C113.781 88.6333 111.617 88.23 109.271 87.79C106.924 87.4233 104.651 86.8733 102.451 86.14C100.837 87.0933 99.7008 88.12 99.0408 89.22C98.4541 90.3933 98.1608 91.53 98.1608 92.63C98.1608 94.0233 99.0041 95.4533 100.691 96.92C102.451 98.3867 105.677 99.12 110.371 99.12ZM109.271 58.64C112.204 58.64 114.331 57.65 115.651 55.67C116.971 53.6167 117.631 51.27 117.631 48.63C117.631 46.0633 116.971 43.79 115.651 41.81C114.331 39.7567 112.204 38.73 109.271 38.73C106.411 38.73 104.321 39.7567 103.001 41.81C101.681 43.79 101.021 46.0633 101.021 48.63C101.021 51.27 101.681 53.6167 103.001 55.67C104.321 57.65 106.411 58.64 109.271 58.64Z" fill="#2A2921"/>
</svg>
