<svg width="169" height="136" viewBox="0 0 169 136" fill="none" xmlns="http://www.w3.org/2000/svg">
<path d="M54.96 74.96C56.5733 74.96 58.1133 74.9233 59.58 74.85C61.0467 74.7767 62.22 74.6667 63.1 74.52V62.09C62.44 61.9433 61.45 61.7967 60.13 61.65C58.81 61.5033 57.6 61.43 56.5 61.43C54.96 61.43 53.4933 61.54 52.1 61.76C50.78 61.9067 49.6067 62.2367 48.58 62.75C47.5533 63.2633 46.7467 63.96 46.16 64.84C45.5733 65.72 45.28 66.82 45.28 68.14C45.28 70.7067 46.1233 72.5033 47.81 73.53C49.57 74.4833 51.9533 74.96 54.96 74.96ZM53.64 27C58.48 27 62.5133 27.55 65.74 28.65C68.9667 29.75 71.5333 31.3267 73.44 33.38C75.42 35.4333 76.8133 37.9267 77.62 40.86C78.4267 43.7933 78.83 47.0567 78.83 50.65V84.75C76.4833 85.2633 73.22 85.85 69.04 86.51C64.86 87.2433 59.8 87.61 53.86 87.61C50.12 87.61 46.71 87.28 43.63 86.62C40.6233 85.96 38.02 84.8967 35.82 83.43C33.62 81.89 31.9333 79.91 30.76 77.49C29.5867 75.07 29 72.1 29 68.58C29 65.2067 29.66 62.3467 30.98 60C32.3733 57.6533 34.2067 55.7833 36.48 54.39C38.7533 52.9967 41.3567 52.0067 44.29 51.42C47.2233 50.76 50.2667 50.43 53.42 50.43C55.5467 50.43 57.4167 50.54 59.03 50.76C60.7167 50.9067 62.0733 51.1267 63.1 51.42V49.88C63.1 47.0933 62.2567 44.8567 60.57 43.17C58.8833 41.4833 55.95 40.64 51.77 40.64C48.9833 40.64 46.2333 40.86 43.52 41.3C40.8067 41.6667 38.46 42.2167 36.48 42.95L34.39 29.75C35.3433 29.4567 36.5167 29.1633 37.91 28.87C39.3767 28.5033 40.9533 28.21 42.64 27.99C44.3267 27.6967 46.0867 27.4767 47.92 27.33C49.8267 27.11 51.7333 27 53.64 27Z" fill="#2A2921"/>
<path d="M110.371 109.61C107.144 109.61 104.137 109.317 101.351 108.73C98.6375 108.217 96.2174 107.41 94.0908 106.31C92.0374 105.21 90.4241 103.78 89.2508 102.02C88.0775 100.26 87.4908 98.17 87.4908 95.75C87.4908 91.35 90.0941 87.6833 95.3008 84.75V84.31C93.8341 83.3567 92.6241 82.1467 91.6708 80.68C90.7174 79.2133 90.2408 77.3433 90.2408 75.07C90.2408 73.09 90.8275 71.22 92.0008 69.46C93.1741 67.6267 94.6408 66.0867 96.4008 64.84V64.4C94.4941 63.08 92.7708 61.21 91.2308 58.79C89.7641 56.2967 89.0308 53.4367 89.0308 50.21C89.0308 46.91 89.6541 44.05 90.9008 41.63C92.1474 39.1367 93.7974 37.0833 95.8508 35.47C97.9775 33.7833 100.397 32.5367 103.111 31.73C105.824 30.9233 108.647 30.52 111.581 30.52C114.807 30.52 117.631 30.96 120.051 31.84H139.961V43.61H131.271C131.784 44.4167 132.187 45.4433 132.481 46.69C132.847 47.9367 133.031 49.2933 133.031 50.76C133.031 53.9133 132.481 56.6633 131.381 59.01C130.281 61.2833 128.741 63.19 126.761 64.73C124.854 66.1967 122.581 67.2967 119.941 68.03C117.374 68.7633 114.587 69.13 111.581 69.13C109.454 69.13 107.254 68.7633 104.981 68.03C104.247 68.6167 103.734 69.2033 103.441 69.79C103.147 70.3767 103.001 71.1467 103.001 72.1C103.001 73.4933 103.587 74.52 104.761 75.18C106.007 75.84 108.171 76.17 111.251 76.17H120.051C126.797 76.17 131.931 77.27 135.451 79.47C139.044 81.5967 140.841 85.1167 140.841 90.03C140.841 92.89 140.107 95.4933 138.641 97.84C137.247 100.26 135.231 102.313 132.591 104C129.951 105.76 126.761 107.117 123.021 108.07C119.281 109.097 115.064 109.61 110.371 109.61ZM111.581 59.34C113.707 59.34 115.467 58.6067 116.861 57.14C118.327 55.6 119.061 53.29 119.061 50.21C119.061 47.35 118.327 45.1867 116.861 43.72C115.467 42.18 113.707 41.41 111.581 41.41C109.454 41.41 107.657 42.1433 106.191 43.61C104.797 45.0767 104.101 47.2767 104.101 50.21C104.101 53.29 104.797 55.6 106.191 57.14C107.657 58.6067 109.454 59.34 111.581 59.34ZM112.901 99.49C116.567 99.49 119.574 98.83 121.921 97.51C124.267 96.2633 125.441 94.6867 125.441 92.78C125.441 91.0933 124.707 89.9567 123.241 89.37C121.847 88.7833 119.794 88.49 117.081 88.49H111.471C109.564 88.49 108.024 88.4167 106.851 88.27C105.677 88.1967 104.651 88.05 103.771 87.83C101.791 89.59 100.801 91.3867 100.801 93.22C100.801 95.2733 101.901 96.8133 104.101 97.84C106.301 98.94 109.234 99.49 112.901 99.49Z" fill="#2A2921"/>
</svg>
