<svg width="169" height="136" viewBox="0 0 169 136" fill="none" xmlns="http://www.w3.org/2000/svg">
<path d="M55.96 71.96C57.5733 71.96 59.1133 71.9233 60.58 71.85C62.0467 71.7767 63.22 71.6667 64.1 71.52V59.09C63.44 58.9433 62.45 58.7967 61.13 58.65C59.81 58.5033 58.6 58.43 57.5 58.43C55.96 58.43 54.4933 58.54 53.1 58.76C51.78 58.9067 50.6067 59.2367 49.58 59.75C48.5533 60.2633 47.7467 60.96 47.16 61.84C46.5733 62.72 46.28 63.82 46.28 65.14C46.28 67.7067 47.1233 69.5033 48.81 70.53C50.57 71.4833 52.9533 71.96 55.96 71.96ZM54.64 24C59.48 24 63.5133 24.55 66.74 25.65C69.9667 26.75 72.5333 28.3267 74.44 30.38C76.42 32.4333 77.8133 34.9267 78.62 37.86C79.4267 40.7933 79.83 44.0567 79.83 47.65V81.75C77.4833 82.2633 74.22 82.85 70.04 83.51C65.86 84.2433 60.8 84.61 54.86 84.61C51.12 84.61 47.71 84.28 44.63 83.62C41.6233 82.96 39.02 81.8967 36.82 80.43C34.62 78.89 32.9333 76.91 31.76 74.49C30.5867 72.07 30 69.1 30 65.58C30 62.2067 30.66 59.3467 31.98 57C33.3733 54.6533 35.2067 52.7833 37.48 51.39C39.7533 49.9967 42.3567 49.0067 45.29 48.42C48.2233 47.76 51.2667 47.43 54.42 47.43C56.5467 47.43 58.4167 47.54 60.03 47.76C61.7167 47.9067 63.0733 48.1267 64.1 48.42V46.88C64.1 44.0933 63.2567 41.8567 61.57 40.17C59.8833 38.4833 56.95 37.64 52.77 37.64C49.9833 37.64 47.2333 37.86 44.52 38.3C41.8067 38.6667 39.46 39.2167 37.48 39.95L35.39 26.75C36.3433 26.4567 37.5167 26.1633 38.91 25.87C40.3767 25.5033 41.9533 25.21 43.64 24.99C45.3267 24.6967 47.0867 24.4767 48.92 24.33C50.8267 24.11 52.7333 24 54.64 24Z" fill="#2A2921"/>
<path d="M112.911 111.12C105.137 111.12 98.9408 109.69 94.3208 106.83C89.7008 104.043 87.3908 100.23 87.3908 95.39C87.3908 90.11 90.3608 85.7833 96.3008 82.41C93.0741 80.43 91.4608 77.8267 91.4608 74.6C91.4608 72.9133 91.9375 71.41 92.8908 70.09C93.9175 68.77 95.2741 67.7067 96.9608 66.9C94.1741 64.92 92.0474 62.39 90.5808 59.31C89.1874 56.23 88.4908 52.8567 88.4908 49.19C88.4908 45.1567 89.3708 41.49 91.1308 38.19C92.8908 34.8167 95.4574 32.1767 98.8308 30.27C102.204 28.29 106.201 27.3 110.821 27.3C115.661 27.3 119.841 28.4733 123.361 30.82C124.607 30.16 126.257 29.61 128.311 29.17C130.437 28.6567 132.711 28.4 135.131 28.4H138.651L137.771 36.98H132.821C131.574 36.98 130.547 37.0167 129.741 37.09C131.941 40.4633 133.041 44.4967 133.041 49.19C133.041 53.2233 132.161 56.9267 130.401 60.3C128.714 63.6 126.184 66.24 122.811 68.22C119.437 70.1267 115.441 71.08 110.821 71.08C109.134 71.08 107.191 70.8233 104.991 70.31C104.184 70.6767 103.781 71.2633 103.781 72.07C103.781 73.0233 104.331 73.7933 105.431 74.38C106.604 74.8933 108.547 75.3333 111.261 75.7L120.721 76.91C133.334 78.5967 139.641 83.9133 139.641 92.86C139.641 98.4333 137.257 102.87 132.491 106.17C127.797 109.47 121.271 111.12 112.911 111.12ZM110.821 60.96C113.974 60.96 116.394 59.9333 118.081 57.88C119.841 55.7533 120.721 52.8567 120.721 49.19C120.721 45.5233 119.841 42.6633 118.081 40.61C116.394 38.4833 113.974 37.42 110.821 37.42C107.594 37.42 105.101 38.4833 103.341 40.61C101.654 42.6633 100.811 45.5233 100.811 49.19C100.811 52.8567 101.654 55.7533 103.341 57.88C105.101 59.9333 107.594 60.96 110.821 60.96ZM113.461 100.78C122.847 100.78 127.541 98.47 127.541 93.85C127.541 91.7967 126.734 90.2567 125.121 89.23C123.507 88.2767 120.831 87.5067 117.091 86.92L104.991 85.16C100.811 86.8467 98.7208 89.4133 98.7208 92.86C98.7208 95.5 100.004 97.48 102.571 98.8C105.137 100.12 108.767 100.78 113.461 100.78Z" fill="#2A2921"/>
</svg>
