<svg width="169" height="136" viewBox="0 0 169 136" fill="none" xmlns="http://www.w3.org/2000/svg">
<path d="M54.96 75.96C56.5733 75.96 58.1133 75.9233 59.58 75.85C61.0467 75.7767 62.22 75.6667 63.1 75.52V63.09C62.44 62.9433 61.45 62.7967 60.13 62.65C58.81 62.5033 57.6 62.43 56.5 62.43C54.96 62.43 53.4933 62.54 52.1 62.76C50.78 62.9067 49.6067 63.2367 48.58 63.75C47.5533 64.2633 46.7467 64.96 46.16 65.84C45.5733 66.72 45.28 67.82 45.28 69.14C45.28 71.7067 46.1233 73.5033 47.81 74.53C49.57 75.4833 51.9533 75.96 54.96 75.96ZM53.64 28C58.48 28 62.5133 28.55 65.74 29.65C68.9667 30.75 71.5333 32.3267 73.44 34.38C75.42 36.4333 76.8133 38.9267 77.62 41.86C78.4267 44.7933 78.83 48.0567 78.83 51.65V85.75C76.4833 86.2633 73.22 86.85 69.04 87.51C64.86 88.2433 59.8 88.61 53.86 88.61C50.12 88.61 46.71 88.28 43.63 87.62C40.6233 86.96 38.02 85.8967 35.82 84.43C33.62 82.89 31.9333 80.91 30.76 78.49C29.5867 76.07 29 73.1 29 69.58C29 66.2067 29.66 63.3467 30.98 61C32.3733 58.6533 34.2067 56.7833 36.48 55.39C38.7533 53.9967 41.3567 53.0067 44.29 52.42C47.2233 51.76 50.2667 51.43 53.42 51.43C55.5467 51.43 57.4167 51.54 59.03 51.76C60.7167 51.9067 62.0733 52.1267 63.1 52.42V50.88C63.1 48.0933 62.2567 45.8567 60.57 44.17C58.8833 42.4833 55.95 41.64 51.77 41.64C48.9833 41.64 46.2333 41.86 43.52 42.3C40.8067 42.6667 38.46 43.2167 36.48 43.95L34.39 30.75C35.3433 30.4567 36.5167 30.1633 37.91 29.87C39.3767 29.5033 40.9533 29.21 42.64 28.99C44.3267 28.6967 46.0867 28.4767 47.92 28.33C49.8267 28.11 51.7333 28 53.64 28Z" fill="#2A2921"/>
<path d="M140.401 43.62V51.87H134.351V86.3C134.351 93.6333 132.224 99.17 127.971 102.91C123.791 106.65 118.071 108.52 110.811 108.52C105.091 108.52 98.9674 107.457 92.4408 105.33L94.6408 96.64C99.9208 98.3267 104.651 99.17 108.831 99.17C112.791 99.17 115.797 98.2167 117.851 96.31C119.977 94.4033 121.041 91.6167 121.041 87.95V83.77C117.301 86.63 112.901 88.06 107.841 88.06C101.461 88.06 96.2908 86.0433 92.3308 82.01C88.4441 77.9033 86.5008 72.3667 86.5008 65.4C86.5008 58.4333 88.4441 52.8967 92.3308 48.79C96.2174 44.6833 101.351 42.63 107.731 42.63C110.297 42.63 112.791 43.1067 115.211 44.06C117.631 44.94 119.721 46.15 121.481 47.69L121.591 43.62H140.401ZM100.251 65.62C100.251 69.58 101.314 72.6967 103.441 74.97C105.641 77.2433 108.464 78.38 111.911 78.38C115.211 78.38 118.254 77.4633 121.041 75.63L120.931 55.5C117.777 53.3 114.624 52.2 111.471 52.2C108.097 52.2 105.384 53.3733 103.331 55.72C101.277 57.9933 100.251 61.2933 100.251 65.62Z" fill="#2A2921"/>
</svg>
