<svg width="169" height="136" viewBox="0 0 169 136" fill="none" xmlns="http://www.w3.org/2000/svg">
<path d="M50.96 75.22C52.5733 75.22 54.1133 75.1833 55.58 75.11C57.0467 75.0367 58.22 74.9267 59.1 74.78V62.35C58.44 62.2033 57.45 62.0567 56.13 61.91C54.81 61.7633 53.6 61.69 52.5 61.69C50.96 61.69 49.4933 61.8 48.1 62.02C46.78 62.1667 45.6067 62.4967 44.58 63.01C43.5533 63.5233 42.7467 64.22 42.16 65.1C41.5733 65.98 41.28 67.08 41.28 68.4C41.28 70.9667 42.1233 72.7633 43.81 73.79C45.57 74.7433 47.9533 75.22 50.96 75.22ZM49.64 27.26C54.48 27.26 58.5133 27.81 61.74 28.91C64.9667 30.01 67.5333 31.5867 69.44 33.64C71.42 35.6933 72.8133 38.1867 73.62 41.12C74.4267 44.0533 74.83 47.3167 74.83 50.91V85.01C72.4833 85.5233 69.22 86.11 65.04 86.77C60.86 87.5033 55.8 87.87 49.86 87.87C46.12 87.87 42.71 87.54 39.63 86.88C36.6233 86.22 34.02 85.1567 31.82 83.69C29.62 82.15 27.9333 80.17 26.76 77.75C25.5867 75.33 25 72.36 25 68.84C25 65.4667 25.66 62.6067 26.98 60.26C28.3733 57.9133 30.2067 56.0433 32.48 54.65C34.7533 53.2567 37.3567 52.2667 40.29 51.68C43.2233 51.02 46.2667 50.69 49.42 50.69C51.5467 50.69 53.4167 50.8 55.03 51.02C56.7167 51.1667 58.0733 51.3867 59.1 51.68V50.14C59.1 47.3533 58.2567 45.1167 56.57 43.43C54.8833 41.7433 51.95 40.9 47.77 40.9C44.9833 40.9 42.2333 41.12 39.52 41.56C36.8067 41.9267 34.46 42.4767 32.48 43.21L30.39 30.01C31.3433 29.7167 32.5167 29.4233 33.91 29.13C35.3767 28.7633 36.9533 28.47 38.64 28.25C40.3267 27.9567 42.0867 27.7367 43.92 27.59C45.8267 27.37 47.7333 27.26 49.64 27.26Z" fill="#2A2921"/>
<path d="M107.911 116.47C101.604 116.47 96.6174 115.773 92.9508 114.38C89.2841 113.06 86.6808 111.3 85.1408 109.1C83.6008 106.9 82.8308 104.553 82.8308 102.06C82.8308 99.7867 83.5641 97.4767 85.0308 95.13C86.5708 92.7833 89.3208 90.8767 93.2808 89.41C90.2741 88.6033 88.1474 87.32 86.9008 85.56C85.7274 83.7267 85.1408 81.7833 85.1408 79.73C85.1408 77.8233 85.9108 75.6967 87.4508 73.35C88.9908 70.93 91.7775 69.0967 95.8108 67.85C92.7308 66.6033 90.2008 64.66 88.2208 62.02C86.2408 59.38 85.1774 56.19 85.0308 52.45C84.8841 48.05 85.9841 44.1633 88.3308 40.79C90.6774 37.3433 93.7575 34.6667 97.5708 32.76C101.384 30.8533 105.381 29.9 109.561 29.9C111.467 29.9 113.667 30.1567 116.161 30.67C118.654 31.1833 120.817 32.0633 122.651 33.31C123.457 31.0367 124.484 28.91 125.731 26.93C127.051 24.8767 128.627 23.2267 130.461 21.98C132.294 20.66 134.347 20 136.621 20C139.114 20 140.984 20.66 142.231 21.98C143.551 23.2267 144.211 24.9133 144.211 27.04C144.211 27.92 143.991 28.91 143.551 30.01C143.184 31.0367 142.487 31.9167 141.461 32.65C140.507 33.3833 139.151 33.75 137.391 33.75C136.291 33.75 135.191 33.3467 134.091 32.54C132.991 31.66 132.331 30.6333 132.111 29.46C131.157 29.7533 130.204 30.7067 129.251 32.32C128.297 33.9333 127.747 35.3633 127.601 36.61C131.927 40.35 134.091 45.08 134.091 50.8C134.091 55.0533 132.881 58.83 130.461 62.13C128.114 65.3567 125.034 67.9233 121.221 69.83C117.481 71.6633 113.447 72.58 109.121 72.58C108.167 72.58 107.104 72.5433 105.931 72.47C104.757 72.3233 103.621 72.25 102.521 72.25C100.907 72.25 99.5508 72.5433 98.4508 73.13C97.3508 73.7167 96.8008 74.5233 96.8008 75.55C96.8008 76.9433 97.8641 77.8967 99.9908 78.41C102.117 78.9233 105.747 79.3267 110.881 79.62C116.527 79.9133 121.441 80.6467 125.621 81.82C129.874 82.92 133.174 84.68 135.521 87.1C137.867 89.52 139.041 92.8567 139.041 97.11C139.041 100.263 138.124 103.013 136.291 105.36C134.457 107.78 132.001 109.797 128.921 111.41C125.914 113.097 122.577 114.343 118.911 115.15C115.244 116.03 111.577 116.47 107.911 116.47ZM109.561 65.21C111.541 65.21 113.191 64.5867 114.511 63.34C115.904 62.0933 116.931 60.5167 117.591 58.61C118.324 56.7033 118.691 54.76 118.691 52.78C118.691 50.2133 118.361 47.7567 117.701 45.41C117.041 42.99 116.014 41.0467 114.621 39.58C113.301 38.04 111.577 37.27 109.451 37.27C106.517 37.27 104.244 38.59 102.631 41.23C101.017 43.87 100.211 46.8767 100.211 50.25C100.211 52.8167 100.577 55.2733 101.311 57.62C102.044 59.8933 103.107 61.7267 104.501 63.12C105.894 64.5133 107.581 65.21 109.561 65.21ZM111.101 108.88C116.307 108.88 120.231 107.927 122.871 106.02C125.584 104.113 126.941 102.133 126.941 100.08C126.941 95.68 121.661 93.26 111.101 92.82C109.487 92.6733 107.617 92.5633 105.491 92.49C103.364 92.4167 101.494 92.2333 99.8808 91.94C98.7808 92.82 97.9375 93.92 97.3508 95.24C96.7641 96.56 96.4341 97.8433 96.3608 99.09C96.2141 102.023 97.4608 104.37 100.101 106.13C102.814 107.963 106.481 108.88 111.101 108.88Z" fill="#2A2921"/>
</svg>
