<svg width="18" height="18" viewBox="0 0 18 18" fill="none" xmlns="http://www.w3.org/2000/svg">
<path d="M8.54077 2.33051C8.71431 1.92752 9.28568 1.92752 9.45923 2.33051L10.7393 5.30307C10.9565 5.80733 11.4318 6.15267 11.9785 6.20337L15.2012 6.50226C15.638 6.54278 15.8146 7.08619 15.485 7.37576L13.0535 9.5118C12.641 9.87416 12.4594 10.4329 12.5802 10.9685L13.2918 14.1258C13.3882 14.5538 12.926 14.8897 12.5487 14.6657L9.76584 13.0132C9.29375 12.7329 8.70624 12.7329 8.23416 13.0132L5.45129 14.6657C5.07403 14.8897 4.61178 14.5538 4.70825 14.1258L5.41984 10.9685C5.54055 10.4329 5.359 9.87416 4.94652 9.5118L2.51502 7.37576C2.18539 7.08619 2.36196 6.54278 2.79884 6.50226L6.0215 6.20337C6.56819 6.15267 7.0435 5.80734 7.26065 5.30307L8.54077 2.33051Z" stroke="#2A2921"/>
</svg>
