<svg width="169" height="136" viewBox="0 0 169 136" fill="none" xmlns="http://www.w3.org/2000/svg">
<path d="M11.8 15.38V29H9L2.14 16.06V28.62H3.24V29H0.5V28.62H1.6V15.38H0.5V15H6.02L11.26 25.04V15.38H10.16V15H12.9V15.38H11.8ZM24.7031 29H20.1431L19.9231 27.54C19.7098 28.0733 19.3898 28.4867 18.9631 28.78C18.5498 29.06 17.9298 29.2 17.1031 29.2C15.0365 29.2 14.0031 28.0867 14.0031 25.86V19.84H12.8831V19.48H17.7231V26.34C17.7231 27.14 17.7765 27.6667 17.8831 27.92C18.0031 28.1733 18.2298 28.3 18.5631 28.3C18.9098 28.3 19.2165 28.0933 19.4831 27.68C19.7498 27.2667 19.8831 26.6933 19.8831 25.96V19.84H18.9631V19.48H23.6031V28.64H24.7031V29ZM31.3925 20.04C30.8992 20.04 30.4658 20.36 30.0925 21C29.7192 21.64 29.5325 22.4 29.5325 23.28V28.64H30.9525V29H24.7125V28.64H25.8125V19.84H24.7125V19.48H29.5325V21.4C29.7058 20.72 30.0392 20.2 30.5325 19.84C31.0258 19.4667 31.5858 19.28 32.2125 19.28C32.8392 19.28 33.3458 19.46 33.7325 19.82C34.1325 20.1667 34.3325 20.6667 34.3325 21.32C34.3325 21.96 34.1858 22.4533 33.8925 22.8C33.5992 23.1467 33.1458 23.32 32.5325 23.32C31.9325 23.32 31.4858 23.12 31.1925 22.72C30.9125 22.32 30.8792 21.7667 31.0925 21.06H31.8125C32.1458 20.38 32.0058 20.04 31.3925 20.04ZM34.4405 29.2V25.62H34.6805C35.0271 26.78 35.4938 27.5933 36.0805 28.06C36.6671 28.5267 37.4005 28.76 38.2805 28.76C39.6405 28.76 40.3205 28.3267 40.3205 27.46C40.3205 27.0867 40.1538 26.8067 39.8205 26.62C39.3005 26.3267 38.6338 26.1 37.8205 25.94C36.9138 25.7 36.1538 25.38 35.5405 24.98C34.8071 24.5 34.4405 23.74 34.4405 22.7C34.4405 21.66 34.7605 20.8333 35.4005 20.22C36.0405 19.5933 36.8938 19.28 37.9605 19.28C38.6138 19.28 39.2871 19.4333 39.9805 19.74C40.2338 19.8467 40.4271 19.9 40.5605 19.9C40.6938 19.9 40.8071 19.8533 40.9005 19.76C40.9938 19.6667 41.1071 19.4933 41.2405 19.24H41.4605V22.3H41.2205C40.5405 20.5667 39.4871 19.7 38.0605 19.7C37.4338 19.7 36.9671 19.8133 36.6605 20.04C36.3538 20.2533 36.2005 20.5267 36.2005 20.86C36.2005 21.06 36.2471 21.22 36.3405 21.34C36.4338 21.4467 36.5071 21.5267 36.5605 21.58C36.6138 21.6333 36.7005 21.6933 36.8205 21.76C36.9405 21.8133 37.0405 21.86 37.1205 21.9C37.2005 21.9267 37.3205 21.9667 37.4805 22.02C37.6538 22.0733 37.7805 22.1067 37.8605 22.12C38.7671 22.3467 39.4205 22.5467 39.8205 22.72C40.2205 22.88 40.6005 23.08 40.9605 23.32C41.6938 23.8267 42.0605 24.6467 42.0605 25.78C42.0605 26.9 41.7271 27.7533 41.0605 28.34C40.3938 28.9133 39.4805 29.2 38.3205 29.2C37.4938 29.2 36.6938 29.0067 35.9205 28.62C35.7605 28.5133 35.6338 28.46 35.5405 28.46C35.2471 28.46 34.9605 28.7067 34.6805 29.2H34.4405ZM47.5123 29.2C45.7923 29.2 44.499 28.76 43.6323 27.88C42.779 26.9867 42.3523 25.7533 42.3523 24.18C42.3523 22.5933 42.8323 21.38 43.7923 20.54C44.7657 19.7 45.999 19.28 47.4923 19.28C50.519 19.28 51.9723 20.8 51.8523 23.84H46.2123V24.62C46.2123 25.9267 46.379 26.9133 46.7123 27.58C47.0457 28.2467 47.6257 28.58 48.4523 28.58C49.999 28.58 51.0123 27.7533 51.4923 26.1L51.8523 26.16C51.599 27.12 51.139 27.8667 50.4723 28.4C49.819 28.9333 48.8323 29.2 47.5123 29.2ZM46.2323 23.44H48.2923V22.46C48.2923 21.38 48.2257 20.6467 48.0923 20.26C47.9723 19.86 47.719 19.66 47.3323 19.66C46.959 19.66 46.679 19.8733 46.4923 20.3C46.319 20.7133 46.2323 21.4333 46.2323 22.46V23.44ZM58.8448 20.04C58.3515 20.04 57.9182 20.36 57.5448 21C57.1715 21.64 56.9848 22.4 56.9848 23.28V28.64H58.4048V29H52.1648V28.64H53.2648V19.84H52.1648V19.48H56.9848V21.4C57.1582 20.72 57.4915 20.2 57.9848 19.84C58.4782 19.4667 59.0382 19.28 59.6648 19.28C60.2915 19.28 60.7982 19.46 61.1848 19.82C61.5848 20.1667 61.7848 20.6667 61.7848 21.32C61.7848 21.96 61.6382 22.4533 61.3448 22.8C61.0515 23.1467 60.5982 23.32 59.9848 23.32C59.3848 23.32 58.9382 23.12 58.6448 22.72C58.3648 22.32 58.3315 21.7667 58.5448 21.06H59.2648C59.5982 20.38 59.4582 20.04 58.8448 20.04ZM61.2742 19.84V19.48H67.0742V19.84H65.9942L68.1742 26.48L70.4942 19.84H69.1542V19.48H71.9742V19.84H70.9742L67.2342 30.62C66.7942 31.8733 66.3009 32.7467 65.7542 33.24C65.2076 33.7467 64.5409 34 63.7542 34C62.9676 34 62.3476 33.82 61.8942 33.46C61.4409 33.1 61.2142 32.64 61.2142 32.08C61.2142 31.52 61.3609 31.0933 61.6542 30.8C61.9476 30.5067 62.3342 30.36 62.8142 30.36C63.9209 30.36 64.4742 30.82 64.4742 31.74C64.4742 31.94 64.4342 32.18 64.3542 32.46H63.6542C63.5476 32.7667 63.5342 33.02 63.6142 33.22C63.6942 33.42 63.8742 33.52 64.1542 33.52C64.7009 33.52 65.1876 33.2467 65.6142 32.7C66.0409 32.1667 66.4476 31.3467 66.8342 30.24L67.2742 29H65.5142L62.0942 19.84H61.2742ZM81.1725 21.92H80.1125V28.62H81.4125V29H74.9125V28.62H76.2125V15.38H74.9125V15H80.9525C82.6858 15 83.9125 15.0933 84.6325 15.28C85.3658 15.4533 85.8792 15.6667 86.1725 15.92C86.8125 16.44 87.1325 17.2667 87.1325 18.4C87.1325 19.5333 86.8525 20.3467 86.2925 20.84C85.7325 21.32 84.8792 21.6067 83.7325 21.7V21.76C84.8125 21.9067 85.5658 22.2267 85.9925 22.72C86.4192 23.2133 86.6325 24.04 86.6325 25.2V26.26C86.6325 26.9533 86.6658 27.42 86.7325 27.66C86.8125 27.9 86.9725 28.02 87.2125 28.02C87.4525 28.02 87.6392 27.9133 87.7725 27.7C87.9192 27.4733 88.0525 27.0067 88.1725 26.3L88.5125 26.34C88.3658 27.4733 88.1058 28.2333 87.7325 28.62C87.3725 29.0067 86.6458 29.2 85.5525 29.2C84.4592 29.2 83.6792 28.9467 83.2125 28.44C82.7592 27.92 82.5325 26.9533 82.5325 25.54V24.08C82.5325 23.3333 82.4325 22.7867 82.2325 22.44C82.0458 22.0933 81.6925 21.92 81.1725 21.92ZM80.1125 15.38V21.54H80.7525C81.5125 21.54 82.0725 21.3067 82.4325 20.84C82.8058 20.3733 82.9925 19.6133 82.9925 18.56V17.98C82.9925 16.9267 82.8125 16.2333 82.4525 15.9C82.1058 15.5533 81.5458 15.38 80.7725 15.38H80.1125ZM88.7289 14H93.5489V21.32C93.7622 20.7067 94.0889 20.2133 94.5289 19.84C94.9689 19.4667 95.6356 19.28 96.5289 19.28C98.5956 19.28 99.6289 20.3933 99.6289 22.62V28.64H100.749V29H95.0889V28.64H95.9089V22.14C95.9089 21.34 95.8556 20.8267 95.7489 20.6C95.6422 20.36 95.4489 20.24 95.1689 20.24C94.7422 20.24 94.3622 20.52 94.0289 21.08C93.7089 21.64 93.5489 22.32 93.5489 23.12V28.64H94.4089V29H88.7289V28.64H89.8289V14.36H88.7289V14ZM99.557 19.84V19.48H105.357V19.84H104.277L106.457 26.48L108.777 19.84H107.437V19.48H110.257V19.84H109.257L105.517 30.62C105.077 31.8733 104.584 32.7467 104.037 33.24C103.49 33.7467 102.824 34 102.037 34C101.25 34 100.63 33.82 100.177 33.46C99.7237 33.1 99.497 32.64 99.497 32.08C99.497 31.52 99.6437 31.0933 99.937 30.8C100.23 30.5067 100.617 30.36 101.097 30.36C102.204 30.36 102.757 30.82 102.757 31.74C102.757 31.94 102.717 32.18 102.637 32.46H101.937C101.83 32.7667 101.817 33.02 101.897 33.22C101.977 33.42 102.157 33.52 102.437 33.52C102.984 33.52 103.47 33.2467 103.897 32.7C104.324 32.1667 104.73 31.3467 105.117 30.24L105.557 29H103.797L100.377 19.84H99.557ZM109.902 19.48H114.722V21.32C115.162 19.96 116.128 19.28 117.622 19.28C119.128 19.28 120.042 20 120.362 21.44C120.828 20 121.808 19.28 123.302 19.28C125.262 19.28 126.242 20.3933 126.242 22.62V28.64H127.362V29H121.822V28.64H122.522V22.14C122.522 21.1267 122.435 20.5333 122.262 20.36C122.182 20.28 122.075 20.24 121.942 20.24C121.555 20.24 121.215 20.5 120.922 21.02C120.628 21.54 120.482 22.2 120.482 23V28.64H121.202V29H116.062V28.64H116.762V22.14C116.762 21.1267 116.675 20.5333 116.502 20.36C116.422 20.28 116.315 20.24 116.182 20.24C115.808 20.24 115.468 20.5267 115.162 21.1C114.868 21.66 114.722 22.3333 114.722 23.12V28.64H115.442V29H109.902V28.64H111.002V19.84H109.902V19.48ZM132.515 29.2C130.795 29.2 129.502 28.76 128.635 27.88C127.782 26.9867 127.355 25.7533 127.355 24.18C127.355 22.5933 127.835 21.38 128.795 20.54C129.769 19.7 131.002 19.28 132.495 19.28C135.522 19.28 136.975 20.8 136.855 23.84H131.215V24.62C131.215 25.9267 131.382 26.9133 131.715 27.58C132.049 28.2467 132.629 28.58 133.455 28.58C135.002 28.58 136.015 27.7533 136.495 26.1L136.855 26.16C136.602 27.12 136.142 27.8667 135.475 28.4C134.822 28.9333 133.835 29.2 132.515 29.2ZM131.235 23.44H133.295V22.46C133.295 21.38 133.229 20.6467 133.095 20.26C132.975 19.86 132.722 19.66 132.335 19.66C131.962 19.66 131.682 19.8733 131.495 20.3C131.322 20.7133 131.235 21.4333 131.235 22.46V23.44ZM137.433 29.2V25.62H137.673C138.019 26.78 138.486 27.5933 139.073 28.06C139.659 28.5267 140.393 28.76 141.273 28.76C142.633 28.76 143.313 28.3267 143.313 27.46C143.313 27.0867 143.146 26.8067 142.813 26.62C142.293 26.3267 141.626 26.1 140.813 25.94C139.906 25.7 139.146 25.38 138.533 24.98C137.799 24.5 137.433 23.74 137.433 22.7C137.433 21.66 137.753 20.8333 138.393 20.22C139.033 19.5933 139.886 19.28 140.953 19.28C141.606 19.28 142.279 19.4333 142.973 19.74C143.226 19.8467 143.419 19.9 143.553 19.9C143.686 19.9 143.799 19.8533 143.893 19.76C143.986 19.6667 144.099 19.4933 144.233 19.24H144.453V22.3H144.213C143.533 20.5667 142.479 19.7 141.053 19.7C140.426 19.7 139.959 19.8133 139.653 20.04C139.346 20.2533 139.193 20.5267 139.193 20.86C139.193 21.06 139.239 21.22 139.333 21.34C139.426 21.4467 139.499 21.5267 139.553 21.58C139.606 21.6333 139.693 21.6933 139.813 21.76C139.933 21.8133 140.033 21.86 140.113 21.9C140.193 21.9267 140.313 21.9667 140.473 22.02C140.646 22.0733 140.773 22.1067 140.853 22.12C141.759 22.3467 142.413 22.5467 142.813 22.72C143.213 22.88 143.593 23.08 143.953 23.32C144.686 23.8267 145.053 24.6467 145.053 25.78C145.053 26.9 144.719 27.7533 144.053 28.34C143.386 28.9133 142.473 29.2 141.313 29.2C140.486 29.2 139.686 29.0067 138.913 28.62C138.753 28.5133 138.626 28.46 138.533 28.46C138.239 28.46 137.953 28.7067 137.673 29.2H137.433Z" fill="#2A2921"/>
<path d="M0.885 54.585C0.885 53.835 1.025 53.125 1.305 52.455C1.595 51.785 1.995 51.195 2.505 50.685C3.015 50.175 3.6 49.775 4.26 49.485C4.93 49.185 5.645 49.035 6.405 49.035C7.165 49.035 7.88 49.185 8.55 49.485C9.23 49.775 9.825 50.175 10.335 50.685C10.845 51.195 11.245 51.785 11.535 52.455C11.825 53.125 11.97 53.835 11.97 54.585C11.97 55.355 11.825 56.075 11.535 56.745C11.245 57.405 10.845 57.99 10.335 58.5C9.825 59.01 9.23 59.41 8.55 59.7C7.88 59.98 7.165 60.12 6.405 60.12C5.645 60.12 4.93 59.98 4.26 59.7C3.6 59.42 3.015 59.03 2.505 58.53C1.995 58.03 1.595 57.445 1.305 56.775C1.025 56.095 0.885 55.365 0.885 54.585ZM2.385 54.6C2.385 55.17 2.49 55.705 2.7 56.205C2.91 56.695 3.2 57.13 3.57 57.51C3.94 57.89 4.37 58.185 4.86 58.395C5.35 58.605 5.88 58.71 6.45 58.71C7.2 58.71 7.875 58.53 8.475 58.17C9.085 57.8 9.57 57.305 9.93 56.685C10.29 56.055 10.47 55.355 10.47 54.585C10.47 54.015 10.365 53.48 10.155 52.98C9.945 52.47 9.655 52.025 9.285 51.645C8.915 51.265 8.485 50.97 7.995 50.76C7.505 50.54 6.98 50.43 6.42 50.43C5.66 50.43 4.975 50.62 4.365 51C3.755 51.38 3.27 51.885 2.91 52.515C2.56 53.145 2.385 53.84 2.385 54.6ZM15.0363 53.79L15.1263 54.99C15.3363 54.55 15.6613 54.2 16.1013 53.94C16.5413 53.68 17.0513 53.55 17.6313 53.55C18.2113 53.55 18.6863 53.725 19.0563 54.075C19.4363 54.415 19.6363 54.86 19.6563 55.41V60H18.2463V55.89C18.2263 55.56 18.1213 55.29 17.9313 55.08C17.7513 54.87 17.4663 54.76 17.0763 54.75C16.5363 54.75 16.0813 54.97 15.7113 55.41C15.3513 55.84 15.1713 56.4 15.1713 57.09V60H13.7763V53.79H15.0363ZM24.6473 60.15C23.9473 60.15 23.3373 60.01 22.8173 59.73C22.3073 59.44 21.9123 59.045 21.6323 58.545C21.3623 58.045 21.2273 57.48 21.2273 56.85C21.2273 56.24 21.3773 55.685 21.6773 55.185C21.9873 54.675 22.4023 54.275 22.9223 53.985C23.4523 53.685 24.0373 53.535 24.6773 53.535C25.4973 53.535 26.1773 53.775 26.7173 54.255C27.2573 54.735 27.6273 55.395 27.8273 56.235L22.9073 57.96C23.0773 58.27 23.3173 58.515 23.6273 58.695C23.9373 58.865 24.2873 58.95 24.6773 58.95C24.9573 58.95 25.2223 58.9 25.4723 58.8C25.7223 58.7 25.9623 58.57 26.1923 58.41L26.8373 59.445C26.5173 59.655 26.1623 59.825 25.7723 59.955C25.3923 60.085 25.0173 60.15 24.6473 60.15ZM22.6073 56.775C22.5973 56.895 22.6023 57.01 22.6223 57.12L26.2373 55.785C26.0973 55.485 25.8923 55.22 25.6223 54.99C25.3623 54.76 25.0123 54.645 24.5723 54.645C24.0023 54.645 23.5323 54.845 23.1623 55.245C22.7923 55.645 22.6073 56.155 22.6073 56.775ZM34.2164 60V55.035H33.1514V53.775H34.2164V51.165C34.2164 50.265 34.4214 49.575 34.8314 49.095C35.2414 48.615 35.8414 48.375 36.6314 48.375C36.8314 48.375 37.0564 48.405 37.3064 48.465C37.5664 48.525 37.7964 48.62 37.9964 48.75L37.3964 49.77C37.3064 49.68 37.2064 49.62 37.0964 49.59C36.9864 49.55 36.8764 49.53 36.7664 49.53C36.4064 49.53 36.1214 49.655 35.9114 49.905C35.7114 50.155 35.6114 50.58 35.6114 51.18V53.775H37.5914V55.035H35.6114V60H34.2164ZM38.2277 56.835C38.2277 56.215 38.3727 55.655 38.6627 55.155C38.9627 54.655 39.3727 54.26 39.8927 53.97C40.4127 53.68 41.0077 53.535 41.6777 53.535C42.3477 53.535 42.9377 53.68 43.4477 53.97C43.9577 54.26 44.3527 54.655 44.6327 55.155C44.9227 55.655 45.0677 56.215 45.0677 56.835C45.0677 57.455 44.9227 58.015 44.6327 58.515C44.3527 59.015 43.9527 59.415 43.4327 59.715C42.9227 60.005 42.3277 60.15 41.6477 60.15C40.9877 60.15 40.3977 60.015 39.8777 59.745C39.3677 59.475 38.9627 59.09 38.6627 58.59C38.3727 58.09 38.2277 57.505 38.2277 56.835ZM39.6377 56.85C39.6377 57.25 39.7227 57.615 39.8927 57.945C40.0727 58.265 40.3127 58.52 40.6127 58.71C40.9127 58.9 41.2527 58.995 41.6327 58.995C42.0227 58.995 42.3677 58.9 42.6677 58.71C42.9677 58.52 43.2027 58.265 43.3727 57.945C43.5527 57.615 43.6427 57.25 43.6427 56.85C43.6427 56.45 43.5527 56.09 43.3727 55.77C43.2027 55.44 42.9677 55.18 42.6677 54.99C42.3677 54.79 42.0227 54.69 41.6327 54.69C41.2527 54.69 40.9077 54.79 40.5977 54.99C40.2977 55.19 40.0627 55.455 39.8927 55.785C39.7227 56.105 39.6377 56.46 39.6377 56.85ZM47.8866 53.79L47.9916 55.245C48.1616 54.895 48.3966 54.595 48.6966 54.345C48.9966 54.085 49.3066 53.89 49.6266 53.76C49.9566 53.62 50.2416 53.545 50.4816 53.535L50.4216 54.93C49.9516 54.91 49.5366 55.005 49.1766 55.215C48.8166 55.415 48.5366 55.69 48.3366 56.04C48.1366 56.39 48.0366 56.765 48.0366 57.165V60H46.6416V53.79H47.8866ZM58.1823 60.12C57.7323 60.12 57.2973 60.045 56.8773 59.895C56.4673 59.735 56.1273 59.5 55.8573 59.19L56.4573 58.38C56.7073 58.63 56.9723 58.82 57.2523 58.95C57.5323 59.07 57.8023 59.13 58.0623 59.13C58.3623 59.13 58.6223 59.07 58.8423 58.95C59.0723 58.83 59.1873 58.625 59.1873 58.335C59.1873 58.115 59.1123 57.94 58.9623 57.81C58.8223 57.68 58.6373 57.58 58.4073 57.51C58.1873 57.43 57.9573 57.35 57.7173 57.27C56.6573 56.93 56.1273 56.325 56.1273 55.455C56.1273 55.135 56.2073 54.83 56.3673 54.54C56.5373 54.25 56.7823 54.015 57.1023 53.835C57.4323 53.655 57.8373 53.565 58.3173 53.565C58.7473 53.565 59.1323 53.62 59.4723 53.73C59.8123 53.84 60.1323 54.015 60.4323 54.255L59.8773 55.11C59.6973 54.93 59.4823 54.795 59.2323 54.705C58.9923 54.605 58.7723 54.55 58.5723 54.54C58.3023 54.54 58.0623 54.605 57.8523 54.735C57.6523 54.865 57.5523 55.045 57.5523 55.275C57.5423 55.485 57.6073 55.655 57.7473 55.785C57.8873 55.905 58.0673 56.005 58.2873 56.085C58.5173 56.165 58.7473 56.24 58.9773 56.31C59.4273 56.46 59.8073 56.665 60.1173 56.925C60.4373 57.185 60.5973 57.565 60.5973 58.065C60.5973 58.625 60.3973 59.11 59.9973 59.52C59.5973 59.92 58.9923 60.12 58.1823 60.12ZM61.7104 56.835C61.7104 56.215 61.8554 55.655 62.1454 55.155C62.4454 54.655 62.8554 54.26 63.3754 53.97C63.8954 53.68 64.4904 53.535 65.1604 53.535C65.8304 53.535 66.4204 53.68 66.9304 53.97C67.4404 54.26 67.8354 54.655 68.1154 55.155C68.4054 55.655 68.5504 56.215 68.5504 56.835C68.5504 57.455 68.4054 58.015 68.1154 58.515C67.8354 59.015 67.4354 59.415 66.9154 59.715C66.4054 60.005 65.8104 60.15 65.1304 60.15C64.4704 60.15 63.8804 60.015 63.3604 59.745C62.8504 59.475 62.4454 59.09 62.1454 58.59C61.8554 58.09 61.7104 57.505 61.7104 56.835ZM63.1204 56.85C63.1204 57.25 63.2054 57.615 63.3754 57.945C63.5554 58.265 63.7954 58.52 64.0954 58.71C64.3954 58.9 64.7354 58.995 65.1154 58.995C65.5054 58.995 65.8504 58.9 66.1504 58.71C66.4504 58.52 66.6854 58.265 66.8554 57.945C67.0354 57.615 67.1254 57.25 67.1254 56.85C67.1254 56.45 67.0354 56.09 66.8554 55.77C66.6854 55.44 66.4504 55.18 66.1504 54.99C65.8504 54.79 65.5054 54.69 65.1154 54.69C64.7354 54.69 64.3904 54.79 64.0804 54.99C63.7804 55.19 63.5454 55.455 63.3754 55.785C63.2054 56.105 63.1204 56.46 63.1204 56.85ZM71.3692 53.79L71.4742 55.245C71.6442 54.895 71.8792 54.595 72.1792 54.345C72.4792 54.085 72.7892 53.89 73.1092 53.76C73.4392 53.62 73.7242 53.545 73.9642 53.535L73.9042 54.93C73.4342 54.91 73.0192 55.005 72.6592 55.215C72.2992 55.415 72.0192 55.69 71.8192 56.04C71.6192 56.39 71.5192 56.765 71.5192 57.165V60H70.1242V53.79H71.3692ZM76.7088 53.79L76.8138 55.245C76.9838 54.895 77.2188 54.595 77.5188 54.345C77.8188 54.085 78.1288 53.89 78.4488 53.76C78.7788 53.62 79.0638 53.545 79.3038 53.535L79.2438 54.93C78.7738 54.91 78.3588 55.005 77.9988 55.215C77.6388 55.415 77.3588 55.69 77.1588 56.04C76.9588 56.39 76.8588 56.765 76.8588 57.165V60H75.4638V53.79H76.7088ZM79.9998 56.835C79.9998 56.215 80.1448 55.655 80.4348 55.155C80.7348 54.655 81.1448 54.26 81.6648 53.97C82.1848 53.68 82.7798 53.535 83.4498 53.535C84.1198 53.535 84.7098 53.68 85.2198 53.97C85.7298 54.26 86.1248 54.655 86.4048 55.155C86.6948 55.655 86.8398 56.215 86.8398 56.835C86.8398 57.455 86.6948 58.015 86.4048 58.515C86.1248 59.015 85.7248 59.415 85.2048 59.715C84.6948 60.005 84.0998 60.15 83.4198 60.15C82.7598 60.15 82.1698 60.015 81.6498 59.745C81.1398 59.475 80.7348 59.09 80.4348 58.59C80.1448 58.09 79.9998 57.505 79.9998 56.835ZM81.4098 56.85C81.4098 57.25 81.4948 57.615 81.6648 57.945C81.8448 58.265 82.0848 58.52 82.3848 58.71C82.6848 58.9 83.0248 58.995 83.4048 58.995C83.7948 58.995 84.1398 58.9 84.4398 58.71C84.7398 58.52 84.9748 58.265 85.1448 57.945C85.3248 57.615 85.4148 57.25 85.4148 56.85C85.4148 56.45 85.3248 56.09 85.1448 55.77C84.9748 55.44 84.7398 55.18 84.4398 54.99C84.1398 54.79 83.7948 54.69 83.4048 54.69C83.0248 54.69 82.6798 54.79 82.3698 54.99C82.0698 55.19 81.8348 55.455 81.6648 55.785C81.4948 56.105 81.4098 56.46 81.4098 56.85ZM92.2132 53.79L93.8932 57.66L95.4682 53.79H96.8482L93.9832 60.375L91.9882 56.115L90.1732 60.375L87.2932 53.79H88.6732L90.3232 57.555L91.4932 54.855L90.9982 53.79H92.2132ZM99.3203 58.68C99.0903 59.21 98.8653 59.735 98.6453 60.255C98.4353 60.775 98.2253 61.295 98.0153 61.815H96.8603C97.0603 61.295 97.2553 60.775 97.4453 60.255C97.6453 59.735 97.8453 59.21 98.0453 58.68H99.3203ZM104.788 49.155H111.988V50.55H109.078V60H107.623V50.55H104.788V49.155ZM116.414 53.79L118.094 57.66L119.669 53.79H121.049L118.184 60.375L116.189 56.115L114.374 60.375L111.494 53.79H112.874L114.524 57.555L115.694 54.855L115.199 53.79H116.414ZM121.559 56.835C121.559 56.215 121.704 55.655 121.994 55.155C122.294 54.655 122.704 54.26 123.224 53.97C123.744 53.68 124.339 53.535 125.009 53.535C125.679 53.535 126.269 53.68 126.779 53.97C127.289 54.26 127.684 54.655 127.964 55.155C128.254 55.655 128.399 56.215 128.399 56.835C128.399 57.455 128.254 58.015 127.964 58.515C127.684 59.015 127.284 59.415 126.764 59.715C126.254 60.005 125.659 60.15 124.979 60.15C124.319 60.15 123.729 60.015 123.209 59.745C122.699 59.475 122.294 59.09 121.994 58.59C121.704 58.09 121.559 57.505 121.559 56.835ZM122.969 56.85C122.969 57.25 123.054 57.615 123.224 57.945C123.404 58.265 123.644 58.52 123.944 58.71C124.244 58.9 124.584 58.995 124.964 58.995C125.354 58.995 125.699 58.9 125.999 58.71C126.299 58.52 126.534 58.265 126.704 57.945C126.884 57.615 126.974 57.25 126.974 56.85C126.974 56.45 126.884 56.09 126.704 55.77C126.534 55.44 126.299 55.18 125.999 54.99C125.699 54.79 125.354 54.69 124.964 54.69C124.584 54.69 124.239 54.79 123.929 54.99C123.629 55.19 123.394 55.455 123.224 55.785C123.054 56.105 122.969 56.46 122.969 56.85ZM134.929 60V55.035H133.864V53.775H134.929V51.165C134.929 50.265 135.134 49.575 135.544 49.095C135.954 48.615 136.554 48.375 137.344 48.375C137.544 48.375 137.769 48.405 138.019 48.465C138.279 48.525 138.509 48.62 138.709 48.75L138.109 49.77C138.019 49.68 137.919 49.62 137.809 49.59C137.699 49.55 137.589 49.53 137.479 49.53C137.119 49.53 136.834 49.655 136.624 49.905C136.424 50.155 136.324 50.58 136.324 51.18V53.775H138.304V55.035H136.324V60H134.929ZM138.94 56.835C138.94 56.215 139.085 55.655 139.375 55.155C139.675 54.655 140.085 54.26 140.605 53.97C141.125 53.68 141.72 53.535 142.39 53.535C143.06 53.535 143.65 53.68 144.16 53.97C144.67 54.26 145.065 54.655 145.345 55.155C145.635 55.655 145.78 56.215 145.78 56.835C145.78 57.455 145.635 58.015 145.345 58.515C145.065 59.015 144.665 59.415 144.145 59.715C143.635 60.005 143.04 60.15 142.36 60.15C141.7 60.15 141.11 60.015 140.59 59.745C140.08 59.475 139.675 59.09 139.375 58.59C139.085 58.09 138.94 57.505 138.94 56.835ZM140.35 56.85C140.35 57.25 140.435 57.615 140.605 57.945C140.785 58.265 141.025 58.52 141.325 58.71C141.625 58.9 141.965 58.995 142.345 58.995C142.735 58.995 143.08 58.9 143.38 58.71C143.68 58.52 143.915 58.265 144.085 57.945C144.265 57.615 144.355 57.25 144.355 56.85C144.355 56.45 144.265 56.09 144.085 55.77C143.915 55.44 143.68 55.18 143.38 54.99C143.08 54.79 142.735 54.69 142.345 54.69C141.965 54.69 141.62 54.79 141.31 54.99C141.01 55.19 140.775 55.455 140.605 55.785C140.435 56.105 140.35 56.46 140.35 56.85ZM148.599 53.79L148.704 55.245C148.874 54.895 149.109 54.595 149.409 54.345C149.709 54.085 150.019 53.89 150.339 53.76C150.669 53.62 150.954 53.545 151.194 53.535L151.134 54.93C150.664 54.91 150.249 55.005 149.889 55.215C149.529 55.415 149.249 55.69 149.049 56.04C148.849 56.39 148.749 56.765 148.749 57.165V60H147.354V53.79H148.599ZM2.475 74.79L2.565 75.975C2.805 75.525 3.13 75.175 3.54 74.925C3.96 74.665 4.44 74.535 4.98 74.535C5.49 74.535 5.915 74.655 6.255 74.895C6.605 75.135 6.82 75.46 6.9 75.87C7.15 75.45 7.475 75.125 7.875 74.895C8.285 74.655 8.72 74.535 9.18 74.535C9.78 74.535 10.255 74.71 10.605 75.06C10.965 75.41 11.155 75.855 11.175 76.395V81H9.78V76.92C9.76 76.6 9.675 76.335 9.525 76.125C9.385 75.905 9.14 75.785 8.79 75.765C8.42 75.765 8.095 75.875 7.815 76.095C7.535 76.305 7.315 76.585 7.155 76.935C6.995 77.285 6.91 77.655 6.9 78.045V81H5.49V76.92C5.48 76.6 5.395 76.335 5.235 76.125C5.085 75.905 4.83 75.785 4.47 75.765C4.11 75.765 3.79 75.875 3.51 76.095C3.23 76.305 3.01 76.585 2.85 76.935C2.69 77.285 2.61 77.66 2.61 78.06V81H1.215V74.79H2.475ZM13.2929 74.79H14.6879V81H13.2929V74.79ZM13.1879 72.555C13.1879 72.325 13.2729 72.14 13.4429 72C13.6229 71.85 13.8179 71.775 14.0279 71.775C14.2379 71.775 14.4279 71.85 14.5979 72C14.7679 72.14 14.8529 72.325 14.8529 72.555C14.8529 72.785 14.7679 72.975 14.5979 73.125C14.4279 73.265 14.2379 73.335 14.0279 73.335C13.8179 73.335 13.6229 73.265 13.4429 73.125C13.2729 72.975 13.1879 72.785 13.1879 72.555ZM18.0612 74.79L18.1662 76.245C18.3362 75.895 18.5712 75.595 18.8712 75.345C19.1712 75.085 19.4812 74.89 19.8012 74.76C20.1312 74.62 20.4162 74.545 20.6562 74.535L20.5962 75.93C20.1262 75.91 19.7112 76.005 19.3512 76.215C18.9912 76.415 18.7112 76.69 18.5112 77.04C18.3112 77.39 18.2112 77.765 18.2112 78.165V81H16.8162V74.79H18.0612ZM22.7558 72.06H24.1658V74.805H25.8608V75.915H24.1658V81H22.7558V75.915H21.6158V74.805H22.7558V72.06ZM27.2611 81V69.375H28.6261V75.915C28.8461 75.515 29.1711 75.19 29.6011 74.94C30.0311 74.68 30.5361 74.55 31.1161 74.55C31.6961 74.55 32.1711 74.725 32.5411 75.075C32.9211 75.415 33.1211 75.86 33.1411 76.41V81H31.7311V76.89C31.7111 76.56 31.6061 76.29 31.4161 76.08C31.2361 75.87 30.9511 75.76 30.5611 75.75C30.2011 75.75 29.8761 75.855 29.5861 76.065C29.3061 76.265 29.0811 76.54 28.9111 76.89C28.7411 77.24 28.6561 77.64 28.6561 78.09V81H27.2611ZM36.5271 79.68C36.2971 80.21 36.0721 80.735 35.8521 81.255C35.6421 81.775 35.4321 82.295 35.2221 82.815H34.0671C34.2671 82.295 34.4621 81.775 34.6521 81.255C34.8521 80.735 35.0521 80.21 35.2521 79.68H36.5271ZM41.9951 70.155H49.1951V71.55H46.2851V81H44.8301V71.55H41.9951V70.155ZM50.8755 81V69.375H52.2405V75.915C52.4605 75.515 52.7855 75.19 53.2155 74.94C53.6455 74.68 54.1505 74.55 54.7305 74.55C55.3105 74.55 55.7855 74.725 56.1555 75.075C56.5355 75.415 56.7355 75.86 56.7555 76.41V81H55.3455V76.89C55.3255 76.56 55.2205 76.29 55.0305 76.08C54.8505 75.87 54.5655 75.76 54.1755 75.75C53.8155 75.75 53.4905 75.855 53.2005 76.065C52.9205 76.265 52.6955 76.54 52.5255 76.89C52.3555 77.24 52.2705 77.64 52.2705 78.09V81H50.8755ZM60.1116 74.79L60.2166 76.245C60.3866 75.895 60.6216 75.595 60.9216 75.345C61.2216 75.085 61.5316 74.89 61.8516 74.76C62.1816 74.62 62.4666 74.545 62.7066 74.535L62.6466 75.93C62.1766 75.91 61.7616 76.005 61.4016 76.215C61.0416 76.415 60.7616 76.69 60.5616 77.04C60.3616 77.39 60.2616 77.765 60.2616 78.165V81H58.8666V74.79H60.1116ZM66.8225 81.15C66.1225 81.15 65.5125 81.01 64.9925 80.73C64.4825 80.44 64.0875 80.045 63.8075 79.545C63.5375 79.045 63.4025 78.48 63.4025 77.85C63.4025 77.24 63.5525 76.685 63.8525 76.185C64.1625 75.675 64.5775 75.275 65.0975 74.985C65.6275 74.685 66.2125 74.535 66.8525 74.535C67.6725 74.535 68.3525 74.775 68.8925 75.255C69.4325 75.735 69.8025 76.395 70.0025 77.235L65.0825 78.96C65.2525 79.27 65.4925 79.515 65.8025 79.695C66.1125 79.865 66.4625 79.95 66.8525 79.95C67.1325 79.95 67.3975 79.9 67.6475 79.8C67.8975 79.7 68.1375 79.57 68.3675 79.41L69.0125 80.445C68.6925 80.655 68.3375 80.825 67.9475 80.955C67.5675 81.085 67.1925 81.15 66.8225 81.15ZM64.7825 77.775C64.7725 77.895 64.7775 78.01 64.7975 78.12L68.4125 76.785C68.2725 76.485 68.0675 76.22 67.7975 75.99C67.5375 75.76 67.1875 75.645 66.7475 75.645C66.1775 75.645 65.7075 75.845 65.3375 76.245C64.9675 76.645 64.7825 77.155 64.7825 77.775ZM74.3155 81.15C73.6155 81.15 73.0055 81.01 72.4855 80.73C71.9755 80.44 71.5805 80.045 71.3005 79.545C71.0305 79.045 70.8955 78.48 70.8955 77.85C70.8955 77.24 71.0455 76.685 71.3455 76.185C71.6555 75.675 72.0705 75.275 72.5905 74.985C73.1205 74.685 73.7055 74.535 74.3455 74.535C75.1655 74.535 75.8455 74.775 76.3855 75.255C76.9255 75.735 77.2955 76.395 77.4955 77.235L72.5755 78.96C72.7455 79.27 72.9855 79.515 73.2955 79.695C73.6055 79.865 73.9555 79.95 74.3455 79.95C74.6255 79.95 74.8905 79.9 75.1405 79.8C75.3905 79.7 75.6305 79.57 75.8605 79.41L76.5055 80.445C76.1855 80.655 75.8305 80.825 75.4405 80.955C75.0605 81.085 74.6855 81.15 74.3155 81.15ZM72.2755 77.775C72.2655 77.895 72.2705 78.01 72.2905 78.12L75.9055 76.785C75.7655 76.485 75.5605 76.22 75.2905 75.99C75.0305 75.76 74.6805 75.645 74.2405 75.645C73.6705 75.645 73.2005 75.845 72.8305 76.245C72.4605 76.645 72.2755 77.155 72.2755 77.775ZM83.8846 81V76.035H82.8196V74.775H83.8846V72.165C83.8846 71.265 84.0896 70.575 84.4996 70.095C84.9096 69.615 85.5096 69.375 86.2996 69.375C86.4996 69.375 86.7246 69.405 86.9746 69.465C87.2346 69.525 87.4646 69.62 87.6646 69.75L87.0646 70.77C86.9746 70.68 86.8746 70.62 86.7646 70.59C86.6546 70.55 86.5446 70.53 86.4346 70.53C86.0746 70.53 85.7896 70.655 85.5796 70.905C85.3796 71.155 85.2796 71.58 85.2796 72.18V74.775H87.2596V76.035H85.2796V81H83.8846ZM87.8959 77.835C87.8959 77.215 88.0409 76.655 88.3309 76.155C88.6309 75.655 89.0409 75.26 89.5609 74.97C90.0809 74.68 90.6759 74.535 91.3459 74.535C92.0159 74.535 92.6059 74.68 93.1159 74.97C93.6259 75.26 94.0209 75.655 94.3009 76.155C94.5909 76.655 94.7359 77.215 94.7359 77.835C94.7359 78.455 94.5909 79.015 94.3009 79.515C94.0209 80.015 93.6209 80.415 93.1009 80.715C92.5909 81.005 91.9959 81.15 91.3159 81.15C90.6559 81.15 90.0659 81.015 89.5459 80.745C89.0359 80.475 88.6309 80.09 88.3309 79.59C88.0409 79.09 87.8959 78.505 87.8959 77.835ZM89.3059 77.85C89.3059 78.25 89.3909 78.615 89.5609 78.945C89.7409 79.265 89.9809 79.52 90.2809 79.71C90.5809 79.9 90.9209 79.995 91.3009 79.995C91.6909 79.995 92.0359 79.9 92.3359 79.71C92.6359 79.52 92.8709 79.265 93.0409 78.945C93.2209 78.615 93.3109 78.25 93.3109 77.85C93.3109 77.45 93.2209 77.09 93.0409 76.77C92.8709 76.44 92.6359 76.18 92.3359 75.99C92.0359 75.79 91.6909 75.69 91.3009 75.69C90.9209 75.69 90.5759 75.79 90.2659 75.99C89.9659 76.19 89.7309 76.455 89.5609 76.785C89.3909 77.105 89.3059 77.46 89.3059 77.85ZM97.5547 74.79L97.6597 76.245C97.8297 75.895 98.0647 75.595 98.3647 75.345C98.6647 75.085 98.9747 74.89 99.2947 74.76C99.6247 74.62 99.9097 74.545 100.15 74.535L100.09 75.93C99.6197 75.91 99.2047 76.005 98.8447 76.215C98.4847 76.415 98.2047 76.69 98.0047 77.04C97.8047 77.39 97.7047 77.765 97.7047 78.165V81H96.3097V74.79H97.5547ZM108.69 81.15C108.1 81.15 107.565 81.025 107.085 80.775C106.615 80.525 106.24 80.16 105.96 79.68C105.69 79.19 105.555 78.595 105.555 77.895C105.555 77.195 105.695 76.595 105.975 76.095C106.265 75.595 106.65 75.21 107.13 74.94C107.62 74.67 108.155 74.535 108.735 74.535C109.295 74.535 109.77 74.655 110.16 74.895C110.55 75.135 110.855 75.425 111.075 75.765L111.18 74.79H112.47V81H111.075V79.98C110.955 80.14 110.78 80.31 110.55 80.49C110.33 80.67 110.06 80.825 109.74 80.955C109.43 81.085 109.08 81.15 108.69 81.15ZM109.065 79.995C109.575 79.995 110.01 79.855 110.37 79.575C110.73 79.285 110.965 78.895 111.075 78.405V77.175C110.955 76.745 110.705 76.39 110.325 76.11C109.945 75.83 109.51 75.69 109.02 75.69C108.64 75.69 108.295 75.78 107.985 75.96C107.675 76.14 107.425 76.39 107.235 76.71C107.055 77.03 106.965 77.4 106.965 77.82C106.965 78.23 107.06 78.6 107.25 78.93C107.44 79.25 107.695 79.51 108.015 79.71C108.335 79.9 108.685 79.995 109.065 79.995ZM5.205 95.79L6.885 99.66L8.46 95.79H9.84L6.975 102.375L4.98 98.115L3.165 102.375L0.285 95.79H1.665L3.315 99.555L4.485 96.855L3.99 95.79H5.205ZM13.7706 102.15C13.0706 102.15 12.4606 102.01 11.9406 101.73C11.4306 101.44 11.0356 101.045 10.7556 100.545C10.4856 100.045 10.3506 99.48 10.3506 98.85C10.3506 98.24 10.5006 97.685 10.8006 97.185C11.1106 96.675 11.5256 96.275 12.0456 95.985C12.5756 95.685 13.1606 95.535 13.8006 95.535C14.6206 95.535 15.3006 95.775 15.8406 96.255C16.3806 96.735 16.7506 97.395 16.9506 98.235L12.0306 99.96C12.2006 100.27 12.4406 100.515 12.7506 100.695C13.0606 100.865 13.4106 100.95 13.8006 100.95C14.0806 100.95 14.3456 100.9 14.5956 100.8C14.8456 100.7 15.0856 100.57 15.3156 100.41L15.9606 101.445C15.6406 101.655 15.2856 101.825 14.8956 101.955C14.5156 102.085 14.1406 102.15 13.7706 102.15ZM11.7306 98.775C11.7206 98.895 11.7256 99.01 11.7456 99.12L15.3606 97.785C15.2206 97.485 15.0156 97.22 14.7456 96.99C14.4856 96.76 14.1356 96.645 13.6956 96.645C13.1256 96.645 12.6556 96.845 12.2856 97.245C11.9156 97.645 11.7306 98.155 11.7306 98.775ZM20.9186 102.15C20.3286 102.15 19.7986 102.015 19.3286 101.745C18.8686 101.465 18.5036 101.075 18.2336 100.575C17.9736 100.065 17.8436 99.475 17.8436 98.805C17.8436 98.125 17.9836 97.54 18.2636 97.05C18.5436 96.56 18.9286 96.185 19.4186 95.925C19.9186 95.665 20.4736 95.535 21.0836 95.535C21.5536 95.535 22.0036 95.635 22.4336 95.835C22.8636 96.025 23.2086 96.29 23.4686 96.63V90.375H24.8636V102H23.4536V101.04C23.1536 101.37 22.7836 101.64 22.3436 101.85C21.9136 102.05 21.4386 102.15 20.9186 102.15ZM21.3536 100.95C21.8936 100.95 22.3486 100.805 22.7186 100.515C23.0886 100.225 23.3286 99.835 23.4386 99.345V98.175C23.3286 97.735 23.0786 97.37 22.6886 97.08C22.3086 96.79 21.8636 96.645 21.3536 96.645C20.9736 96.645 20.6236 96.74 20.3036 96.93C19.9836 97.11 19.7286 97.36 19.5386 97.68C19.3486 98 19.2536 98.37 19.2536 98.79C19.2536 99.19 19.3486 99.555 19.5386 99.885C19.7286 100.215 19.9836 100.475 20.3036 100.665C20.6236 100.855 20.9736 100.95 21.3536 100.95ZM29.5102 102.15C28.9202 102.15 28.3902 102.015 27.9202 101.745C27.4602 101.465 27.0952 101.075 26.8252 100.575C26.5652 100.065 26.4352 99.475 26.4352 98.805C26.4352 98.125 26.5752 97.54 26.8552 97.05C27.1352 96.56 27.5202 96.185 28.0102 95.925C28.5102 95.665 29.0652 95.535 29.6752 95.535C30.1452 95.535 30.5952 95.635 31.0252 95.835C31.4552 96.025 31.8002 96.29 32.0602 96.63V90.375H33.4552V102H32.0452V101.04C31.7452 101.37 31.3752 101.64 30.9352 101.85C30.5052 102.05 30.0302 102.15 29.5102 102.15ZM29.9452 100.95C30.4852 100.95 30.9402 100.805 31.3102 100.515C31.6802 100.225 31.9202 99.835 32.0302 99.345V98.175C31.9202 97.735 31.6702 97.37 31.2802 97.08C30.9002 96.79 30.4552 96.645 29.9452 96.645C29.5652 96.645 29.2152 96.74 28.8952 96.93C28.5752 97.11 28.3202 97.36 28.1302 97.68C27.9402 98 27.8452 98.37 27.8452 98.79C27.8452 99.19 27.9402 99.555 28.1302 99.885C28.3202 100.215 28.5752 100.475 28.8952 100.665C29.2152 100.855 29.5652 100.95 29.9452 100.95ZM35.5668 95.79H36.9618V102H35.5668V95.79ZM35.4618 93.555C35.4618 93.325 35.5468 93.14 35.7168 93C35.8968 92.85 36.0918 92.775 36.3018 92.775C36.5118 92.775 36.7018 92.85 36.8718 93C37.0418 93.14 37.1268 93.325 37.1268 93.555C37.1268 93.785 37.0418 93.975 36.8718 94.125C36.7018 94.265 36.5118 94.335 36.3018 94.335C36.0918 94.335 35.8968 94.265 35.7168 94.125C35.5468 93.975 35.4618 93.785 35.4618 93.555ZM40.35 95.79L40.44 96.99C40.65 96.55 40.975 96.2 41.415 95.94C41.855 95.68 42.365 95.55 42.945 95.55C43.525 95.55 44 95.725 44.37 96.075C44.75 96.415 44.95 96.86 44.97 97.41V102H43.56V97.89C43.54 97.56 43.435 97.29 43.245 97.08C43.065 96.87 42.78 96.76 42.39 96.75C41.85 96.75 41.395 96.97 41.025 97.41C40.665 97.84 40.485 98.4 40.485 99.09V102H39.09V95.79H40.35ZM50.081 105.075C49.391 105.075 48.816 104.955 48.356 104.715C47.896 104.485 47.471 104.19 47.081 103.83L47.906 102.87C48.226 103.19 48.556 103.43 48.896 103.59C49.236 103.76 49.621 103.845 50.051 103.845C50.751 103.845 51.286 103.675 51.656 103.335C52.026 103.005 52.216 102.565 52.226 102.015V100.875C52.016 101.245 51.691 101.55 51.251 101.79C50.811 102.03 50.291 102.15 49.691 102.15C49.111 102.15 48.581 102.005 48.101 101.715C47.631 101.425 47.251 101.035 46.961 100.545C46.681 100.045 46.541 99.485 46.541 98.865C46.541 98.215 46.691 97.64 46.991 97.14C47.291 96.64 47.686 96.25 48.176 95.97C48.666 95.68 49.201 95.535 49.781 95.535C50.321 95.535 50.811 95.64 51.251 95.85C51.691 96.06 52.021 96.33 52.241 96.66L52.361 95.79H53.636V102.045C53.636 102.605 53.491 103.115 53.201 103.575C52.911 104.035 52.501 104.4 51.971 104.67C51.441 104.94 50.811 105.075 50.081 105.075ZM47.951 98.82C47.951 99.23 48.046 99.6 48.236 99.93C48.426 100.25 48.681 100.51 49.001 100.71C49.331 100.9 49.696 100.995 50.096 100.995C50.636 100.995 51.096 100.85 51.476 100.56C51.866 100.26 52.116 99.88 52.226 99.42V98.19C52.096 97.75 51.836 97.39 51.446 97.11C51.056 96.83 50.606 96.69 50.096 96.69C49.686 96.69 49.316 96.78 48.986 96.96C48.666 97.14 48.411 97.39 48.221 97.71C48.041 98.03 47.951 98.4 47.951 98.82ZM57.0355 100.68C56.8055 101.21 56.5805 101.735 56.3605 102.255C56.1505 102.775 55.9405 103.295 55.7305 103.815H54.5755C54.7755 103.295 54.9705 102.775 55.1605 102.255C55.3605 101.735 55.5605 101.21 55.7605 100.68H57.0355ZM62.2185 102L66.9585 90.705H67.0485L71.7885 102H70.1085L68.9835 99.15H64.8135L63.6585 102H62.2185ZM65.3235 97.89H68.4885L66.9435 93.945L65.3235 97.89ZM74.4311 95.79L74.5211 96.99C74.7311 96.55 75.0561 96.2 75.4961 95.94C75.9361 95.68 76.4461 95.55 77.0261 95.55C77.6061 95.55 78.0811 95.725 78.4511 96.075C78.8311 96.415 79.0311 96.86 79.0511 97.41V102H77.6411V97.89C77.6211 97.56 77.5161 97.29 77.3261 97.08C77.1461 96.87 76.8611 96.76 76.4711 96.75C75.9311 96.75 75.4761 96.97 75.1061 97.41C74.7461 97.84 74.5661 98.4 74.5661 99.09V102H73.1711V95.79H74.4311ZM83.6971 102.15C83.1071 102.15 82.5771 102.015 82.1071 101.745C81.6471 101.465 81.2821 101.075 81.0121 100.575C80.7521 100.065 80.6221 99.475 80.6221 98.805C80.6221 98.125 80.7621 97.54 81.0421 97.05C81.3221 96.56 81.7071 96.185 82.1971 95.925C82.6971 95.665 83.2521 95.535 83.8621 95.535C84.3321 95.535 84.7821 95.635 85.2121 95.835C85.6421 96.025 85.9871 96.29 86.2471 96.63V90.375H87.6421V102H86.2321V101.04C85.9321 101.37 85.5621 101.64 85.1221 101.85C84.6921 102.05 84.2171 102.15 83.6971 102.15ZM84.1321 100.95C84.6721 100.95 85.1271 100.805 85.4971 100.515C85.8671 100.225 86.1071 99.835 86.2171 99.345V98.175C86.1071 97.735 85.8571 97.37 85.4671 97.08C85.0871 96.79 84.6421 96.645 84.1321 96.645C83.7521 96.645 83.4021 96.74 83.0821 96.93C82.7621 97.11 82.5071 97.36 82.3171 97.68C82.1271 98 82.0321 98.37 82.0321 98.79C82.0321 99.19 82.1271 99.555 82.3171 99.885C82.5071 100.215 82.7621 100.475 83.0821 100.665C83.4021 100.855 83.7521 100.95 84.1321 100.95ZM94.7098 102V97.035H93.6448V95.775H94.7098V93.165C94.7098 92.265 94.9148 91.575 95.3248 91.095C95.7348 90.615 96.3348 90.375 97.1248 90.375C97.3248 90.375 97.5498 90.405 97.7998 90.465C98.0598 90.525 98.2898 90.62 98.4898 90.75L97.8898 91.77C97.7998 91.68 97.6998 91.62 97.5898 91.59C97.4798 91.55 97.3698 91.53 97.2598 91.53C96.8998 91.53 96.6148 91.655 96.4048 91.905C96.2048 92.155 96.1048 92.58 96.1048 93.18V95.775H98.0848V97.035H96.1048V102H94.7098ZM98.7211 98.835C98.7211 98.215 98.8661 97.655 99.1561 97.155C99.4561 96.655 99.8661 96.26 100.386 95.97C100.906 95.68 101.501 95.535 102.171 95.535C102.841 95.535 103.431 95.68 103.941 95.97C104.451 96.26 104.846 96.655 105.126 97.155C105.416 97.655 105.561 98.215 105.561 98.835C105.561 99.455 105.416 100.015 105.126 100.515C104.846 101.015 104.446 101.415 103.926 101.715C103.416 102.005 102.821 102.15 102.141 102.15C101.481 102.15 100.891 102.015 100.371 101.745C99.8611 101.475 99.4561 101.09 99.1561 100.59C98.8661 100.09 98.7211 99.505 98.7211 98.835ZM100.131 98.85C100.131 99.25 100.216 99.615 100.386 99.945C100.566 100.265 100.806 100.52 101.106 100.71C101.406 100.9 101.746 100.995 102.126 100.995C102.516 100.995 102.861 100.9 103.161 100.71C103.461 100.52 103.696 100.265 103.866 99.945C104.046 99.615 104.136 99.25 104.136 98.85C104.136 98.45 104.046 98.09 103.866 97.77C103.696 97.44 103.461 97.18 103.161 96.99C102.861 96.79 102.516 96.69 102.126 96.69C101.746 96.69 101.401 96.79 101.091 96.99C100.791 97.19 100.556 97.455 100.386 97.785C100.216 98.105 100.131 98.46 100.131 98.85ZM109.115 102.24C108.545 102.24 108.075 102.07 107.705 101.73C107.335 101.38 107.145 100.93 107.135 100.38V95.79H108.53V99.885C108.55 100.225 108.65 100.5 108.83 100.71C109.01 100.92 109.29 101.03 109.67 101.04C110.01 101.04 110.32 100.94 110.6 100.74C110.88 100.53 111.1 100.25 111.26 99.9C111.43 99.54 111.515 99.135 111.515 98.685V95.79H112.91V102H111.65L111.545 100.83C111.345 101.24 111.025 101.58 110.585 101.85C110.155 102.11 109.665 102.24 109.115 102.24ZM116.283 95.79L116.388 97.245C116.558 96.895 116.793 96.595 117.093 96.345C117.393 96.085 117.703 95.89 118.023 95.76C118.353 95.62 118.638 95.545 118.878 95.535L118.818 96.93C118.348 96.91 117.933 97.005 117.573 97.215C117.213 97.415 116.933 97.69 116.733 98.04C116.533 98.39 116.433 98.765 116.433 99.165V102H115.038V95.79H116.283ZM125.334 102V97.035H124.269V95.775H125.334V93.165C125.334 92.265 125.539 91.575 125.949 91.095C126.359 90.615 126.959 90.375 127.749 90.375C127.949 90.375 128.174 90.405 128.424 90.465C128.684 90.525 128.914 90.62 129.114 90.75L128.514 91.77C128.424 91.68 128.324 91.62 128.214 91.59C128.104 91.55 127.994 91.53 127.884 91.53C127.524 91.53 127.239 91.655 127.029 91.905C126.829 92.155 126.729 92.58 126.729 93.18V95.775H128.709V97.035H126.729V102H125.334ZM129.345 98.835C129.345 98.215 129.49 97.655 129.78 97.155C130.08 96.655 130.49 96.26 131.01 95.97C131.53 95.68 132.125 95.535 132.795 95.535C133.465 95.535 134.055 95.68 134.565 95.97C135.075 96.26 135.47 96.655 135.75 97.155C136.04 97.655 136.185 98.215 136.185 98.835C136.185 99.455 136.04 100.015 135.75 100.515C135.47 101.015 135.07 101.415 134.55 101.715C134.04 102.005 133.445 102.15 132.765 102.15C132.105 102.15 131.515 102.015 130.995 101.745C130.485 101.475 130.08 101.09 129.78 100.59C129.49 100.09 129.345 99.505 129.345 98.835ZM130.755 98.85C130.755 99.25 130.84 99.615 131.01 99.945C131.19 100.265 131.43 100.52 131.73 100.71C132.03 100.9 132.37 100.995 132.75 100.995C133.14 100.995 133.485 100.9 133.785 100.71C134.085 100.52 134.32 100.265 134.49 99.945C134.67 99.615 134.76 99.25 134.76 98.85C134.76 98.45 134.67 98.09 134.49 97.77C134.32 97.44 134.085 97.18 133.785 96.99C133.485 96.79 133.14 96.69 132.75 96.69C132.37 96.69 132.025 96.79 131.715 96.99C131.415 97.19 131.18 97.455 131.01 97.785C130.84 98.105 130.755 98.46 130.755 98.85ZM139.004 95.79L139.109 97.245C139.279 96.895 139.514 96.595 139.814 96.345C140.114 96.085 140.424 95.89 140.744 95.76C141.074 95.62 141.359 95.545 141.599 95.535L141.539 96.93C141.069 96.91 140.654 97.005 140.294 97.215C139.934 97.415 139.654 97.69 139.454 98.04C139.254 98.39 139.154 98.765 139.154 99.165V102H137.759V95.79H139.004ZM3.75 123.15C3.16 123.15 2.63 123.015 2.16 122.745C1.7 122.465 1.335 122.075 1.065 121.575C0.805 121.065 0.675 120.475 0.675 119.805C0.675 119.125 0.815 118.54 1.095 118.05C1.375 117.56 1.76 117.185 2.25 116.925C2.75 116.665 3.305 116.535 3.915 116.535C4.385 116.535 4.835 116.635 5.265 116.835C5.695 117.025 6.04 117.29 6.3 117.63V111.375H7.695V123H6.285V122.04C5.985 122.37 5.615 122.64 5.175 122.85C4.745 123.05 4.27 123.15 3.75 123.15ZM4.185 121.95C4.725 121.95 5.18 121.805 5.55 121.515C5.92 121.225 6.16 120.835 6.27 120.345V119.175C6.16 118.735 5.91 118.37 5.52 118.08C5.14 117.79 4.695 117.645 4.185 117.645C3.805 117.645 3.455 117.74 3.135 117.93C2.815 118.11 2.56 118.36 2.37 118.68C2.18 119 2.085 119.37 2.085 119.79C2.085 120.19 2.18 120.555 2.37 120.885C2.56 121.215 2.815 121.475 3.135 121.665C3.455 121.855 3.805 121.95 4.185 121.95ZM12.6866 123.15C11.9866 123.15 11.3766 123.01 10.8566 122.73C10.3466 122.44 9.9516 122.045 9.6716 121.545C9.4016 121.045 9.2666 120.48 9.2666 119.85C9.2666 119.24 9.4166 118.685 9.7166 118.185C10.0266 117.675 10.4416 117.275 10.9616 116.985C11.4916 116.685 12.0766 116.535 12.7166 116.535C13.5366 116.535 14.2166 116.775 14.7566 117.255C15.2966 117.735 15.6666 118.395 15.8666 119.235L10.9466 120.96C11.1166 121.27 11.3566 121.515 11.6666 121.695C11.9766 121.865 12.3266 121.95 12.7166 121.95C12.9966 121.95 13.2616 121.9 13.5116 121.8C13.7616 121.7 14.0016 121.57 14.2316 121.41L14.8766 122.445C14.5566 122.655 14.2016 122.825 13.8116 122.955C13.4316 123.085 13.0566 123.15 12.6866 123.15ZM10.6466 119.775C10.6366 119.895 10.6416 120.01 10.6616 120.12L14.2766 118.785C14.1366 118.485 13.9316 118.22 13.6616 117.99C13.4016 117.76 13.0516 117.645 12.6116 117.645C12.0416 117.645 11.5716 117.845 11.2016 118.245C10.8316 118.645 10.6466 119.155 10.6466 119.775ZM19.8946 123.15C19.3046 123.15 18.7696 123.025 18.2896 122.775C17.8196 122.525 17.4446 122.16 17.1646 121.68C16.8946 121.19 16.7596 120.595 16.7596 119.895C16.7596 119.195 16.8996 118.595 17.1796 118.095C17.4696 117.595 17.8546 117.21 18.3346 116.94C18.8246 116.67 19.3596 116.535 19.9396 116.535C20.4996 116.535 20.9746 116.655 21.3646 116.895C21.7546 117.135 22.0596 117.425 22.2796 117.765L22.3846 116.79H23.6746V123H22.2796V121.98C22.1596 122.14 21.9846 122.31 21.7546 122.49C21.5346 122.67 21.2646 122.825 20.9446 122.955C20.6346 123.085 20.2846 123.15 19.8946 123.15ZM20.2696 121.995C20.7796 121.995 21.2146 121.855 21.5746 121.575C21.9346 121.285 22.1696 120.895 22.2796 120.405V119.175C22.1596 118.745 21.9096 118.39 21.5296 118.11C21.1496 117.83 20.7146 117.69 20.2246 117.69C19.8446 117.69 19.4996 117.78 19.1896 117.96C18.8796 118.14 18.6296 118.39 18.4396 118.71C18.2596 119.03 18.1696 119.4 18.1696 119.82C18.1696 120.23 18.2646 120.6 18.4546 120.93C18.6446 121.25 18.8996 121.51 19.2196 121.71C19.5396 121.9 19.8896 121.995 20.2696 121.995ZM26.4033 114.06H27.8133V116.805H29.5083V117.915H27.8133V123H26.4033V117.915H25.2633V116.805H26.4033V114.06ZM30.9086 123V111.375H32.2736V117.915C32.4936 117.515 32.8186 117.19 33.2486 116.94C33.6786 116.68 34.1836 116.55 34.7636 116.55C35.3436 116.55 35.8186 116.725 36.1886 117.075C36.5686 117.415 36.7686 117.86 36.7886 118.41V123H35.3786V118.89C35.3586 118.56 35.2536 118.29 35.0636 118.08C34.8836 117.87 34.5986 117.76 34.2086 117.75C33.8486 117.75 33.5236 117.855 33.2336 118.065C32.9536 118.265 32.7286 118.54 32.5586 118.89C32.3886 119.24 32.3036 119.64 32.3036 120.09V123H30.9086Z" fill="#2A2921"/>
</svg>
