<svg width="169" height="136" viewBox="0 0 169 136" fill="none" xmlns="http://www.w3.org/2000/svg">
<path d="M14.8 26.52L4.3 16.34L4.36 26H2V10.94H2.12L12.58 21.26L12.54 11.44H14.86V26.52H14.8ZM20.735 26.36C19.9617 26.36 19.3217 26.1267 18.815 25.66C18.3083 25.18 18.0417 24.5667 18.015 23.82V17.54H20.255V23.02C20.2817 23.4467 20.4017 23.7933 20.615 24.06C20.8283 24.3133 21.1683 24.44 21.635 24.44C22.3017 24.44 22.8483 24.14 23.275 23.54C23.7017 22.94 23.915 22.1867 23.915 21.28V17.54H26.155V26H24.135L23.975 24.5C23.7083 25.0467 23.2883 25.4933 22.715 25.84C22.1417 26.1867 21.4817 26.36 20.735 26.36ZM30.8655 17.54L31.0255 19.5C31.2655 19.02 31.5921 18.6067 32.0055 18.26C32.4188 17.9 32.8388 17.6267 33.2655 17.44C33.7055 17.2533 34.0655 17.16 34.3455 17.16L34.2455 19.4C33.6055 19.3467 33.0455 19.46 32.5655 19.74C32.0988 20.02 31.7321 20.4 31.4655 20.88C31.2121 21.3467 31.0855 21.84 31.0855 22.36V26H28.8455V17.54H30.8655ZM38.7784 26.18C38.1384 26.18 37.5251 26.0667 36.9384 25.84C36.3651 25.6133 35.8784 25.28 35.4784 24.84L36.4384 23.58C36.8118 23.94 37.1784 24.2067 37.5384 24.38C37.9118 24.54 38.2651 24.62 38.5984 24.62C38.9718 24.62 39.2918 24.5533 39.5584 24.42C39.8384 24.2733 39.9784 24.0333 39.9784 23.7C39.9784 23.4333 39.8851 23.2267 39.6984 23.08C39.5118 22.92 39.2718 22.7933 38.9784 22.7C38.6851 22.5933 38.3784 22.4933 38.0584 22.4C37.3251 22.1733 36.7784 21.84 36.4184 21.4C36.0584 20.96 35.8784 20.4533 35.8784 19.88C35.8784 19.44 35.9918 19.02 36.2184 18.62C36.4451 18.2067 36.7851 17.8667 37.2384 17.6C37.7051 17.3333 38.2984 17.2 39.0184 17.2C39.6451 17.2 40.1984 17.2733 40.6784 17.42C41.1584 17.5667 41.6051 17.8 42.0184 18.12L41.1584 19.46C40.9184 19.2333 40.6318 19.06 40.2984 18.94C39.9784 18.8067 39.6851 18.7333 39.4184 18.72C39.0584 18.7067 38.7584 18.78 38.5184 18.94C38.2784 19.1 38.1584 19.3133 38.1584 19.58C38.1451 19.8467 38.2318 20.06 38.4184 20.22C38.6184 20.38 38.8718 20.5067 39.1784 20.6C39.4851 20.6933 39.7918 20.7933 40.0984 20.9C40.7118 21.1 41.2184 21.3867 41.6184 21.76C42.0184 22.12 42.2184 22.6267 42.2184 23.28C42.2184 23.8 42.0918 24.28 41.8384 24.72C41.5851 25.16 41.2051 25.5133 40.6984 25.78C40.1918 26.0467 39.5518 26.18 38.7784 26.18ZM48.3355 26.22C47.3355 26.22 46.4821 26.0267 45.7755 25.64C45.0688 25.2533 44.5288 24.72 44.1555 24.04C43.7821 23.3467 43.5955 22.5667 43.5955 21.7C43.5955 20.86 43.8088 20.1 44.2355 19.42C44.6621 18.7267 45.2355 18.18 45.9555 17.78C46.6755 17.3667 47.4821 17.16 48.3755 17.16C49.5355 17.16 50.4888 17.5 51.2355 18.18C51.9955 18.8467 52.5021 19.7933 52.7555 21.02L46.2555 23.22C46.7355 23.94 47.4421 24.3 48.3755 24.3C48.7221 24.3 49.0488 24.24 49.3555 24.12C49.6755 24 49.9821 23.84 50.2755 23.64L51.2955 25.3C50.8421 25.58 50.3555 25.8067 49.8355 25.98C49.3155 26.14 48.8155 26.22 48.3355 26.22ZM45.7955 21.58C45.7955 21.6867 45.8021 21.8 45.8155 21.92L50.2555 20.34C50.0955 19.9667 49.8555 19.64 49.5355 19.36C49.2155 19.0667 48.7688 18.92 48.1955 18.92C47.4888 18.92 46.9088 19.1667 46.4555 19.66C46.0155 20.1533 45.7955 20.7933 45.7955 21.58ZM56.5795 17.54L56.7395 19.5C56.9795 19.02 57.3062 18.6067 57.7195 18.26C58.1329 17.9 58.5529 17.6267 58.9795 17.44C59.4195 17.2533 59.7795 17.16 60.0595 17.16L59.9595 19.4C59.3195 19.3467 58.7595 19.46 58.2795 19.74C57.8129 20.02 57.4462 20.4 57.1795 20.88C56.9262 21.3467 56.7995 21.84 56.7995 22.36V26H54.5595V17.54H56.5795ZM62.6525 30.06L64.6325 25.66L60.7125 17.54H63.2325L65.7525 23.14L68.2725 17.54H70.3125L64.8525 30.06H62.6525ZM82.3141 11.44C83.3941 11.44 84.3341 11.6267 85.1341 12C85.9474 12.36 86.5741 12.8933 87.0141 13.6C87.4674 14.2933 87.6941 15.1333 87.6941 16.12C87.6941 16.9467 87.5141 17.7533 87.1541 18.54C86.7941 19.3267 86.1874 19.94 85.3341 20.38L88.8741 26H86.1741L82.8941 20.94C82.8141 20.94 82.7341 20.94 82.6541 20.94H80.5541V26H78.2141V11.44H82.3141ZM82.6341 18.7C83.3274 18.7 83.8674 18.5667 84.2541 18.3C84.6407 18.02 84.9074 17.6867 85.0541 17.3C85.2141 16.9 85.2941 16.5333 85.2941 16.2C85.2941 15.88 85.2207 15.5267 85.0741 15.14C84.9274 14.74 84.6674 14.4 84.2941 14.12C83.9207 13.8267 83.3941 13.68 82.7141 13.68H80.5541V18.7H82.6341ZM90.7525 26V10.4H92.9525V19C93.2458 18.4667 93.6725 18.0333 94.2325 17.7C94.8058 17.3533 95.4858 17.18 96.2725 17.18C97.0592 17.18 97.7125 17.42 98.2325 17.9C98.7658 18.3667 99.0392 18.9733 99.0525 19.72V26H96.8125V20.52C96.7858 20.0933 96.6592 19.7533 96.4325 19.5C96.2192 19.2333 95.8658 19.0933 95.3725 19.08C94.6792 19.08 94.1058 19.38 93.6525 19.98C93.2125 20.58 92.9925 21.3333 92.9925 22.24V26H90.7525ZM102.439 30.06L104.419 25.66L100.499 17.54H103.019L105.539 23.14L108.059 17.54H110.099L104.639 30.06H102.439ZM113.555 17.54L113.715 19.04C114.035 18.4533 114.468 17.9933 115.015 17.66C115.561 17.3267 116.195 17.16 116.915 17.16C117.608 17.16 118.188 17.3133 118.655 17.62C119.121 17.9267 119.408 18.3533 119.515 18.9C119.875 18.3667 120.315 17.9467 120.835 17.64C121.368 17.32 121.928 17.16 122.515 17.16C123.355 17.16 124.015 17.4 124.495 17.88C124.988 18.3467 125.241 18.9533 125.255 19.7V26H123.035V20.56C123.008 20.16 122.915 19.8267 122.755 19.56C122.595 19.28 122.301 19.1267 121.875 19.1C121.395 19.1 120.981 19.2533 120.635 19.56C120.288 19.8533 120.015 20.24 119.815 20.72C119.628 21.1867 119.535 21.68 119.535 22.2V26H117.275V20.56C117.261 20.16 117.168 19.8267 116.995 19.56C116.821 19.28 116.515 19.1267 116.075 19.1C115.608 19.1 115.201 19.2533 114.855 19.56C114.508 19.8533 114.241 20.24 114.055 20.72C113.868 21.1867 113.775 21.68 113.775 22.2V26H111.535V17.54H113.555ZM131.971 26.22C130.971 26.22 130.118 26.0267 129.411 25.64C128.705 25.2533 128.165 24.72 127.791 24.04C127.418 23.3467 127.231 22.5667 127.231 21.7C127.231 20.86 127.445 20.1 127.871 19.42C128.298 18.7267 128.871 18.18 129.591 17.78C130.311 17.3667 131.118 17.16 132.011 17.16C133.171 17.16 134.125 17.5 134.871 18.18C135.631 18.8467 136.138 19.7933 136.391 21.02L129.891 23.22C130.371 23.94 131.078 24.3 132.011 24.3C132.358 24.3 132.685 24.24 132.991 24.12C133.311 24 133.618 23.84 133.911 23.64L134.931 25.3C134.478 25.58 133.991 25.8067 133.471 25.98C132.951 26.14 132.451 26.22 131.971 26.22ZM129.431 21.58C129.431 21.6867 129.438 21.8 129.451 21.92L133.891 20.34C133.731 19.9667 133.491 19.64 133.171 19.36C132.851 19.0667 132.405 18.92 131.831 18.92C131.125 18.92 130.545 19.1667 130.091 19.66C129.651 20.1533 129.431 20.7933 129.431 21.58ZM140.735 26.18C140.095 26.18 139.482 26.0667 138.895 25.84C138.322 25.6133 137.835 25.28 137.435 24.84L138.395 23.58C138.769 23.94 139.135 24.2067 139.495 24.38C139.869 24.54 140.222 24.62 140.555 24.62C140.929 24.62 141.249 24.5533 141.515 24.42C141.795 24.2733 141.935 24.0333 141.935 23.7C141.935 23.4333 141.842 23.2267 141.655 23.08C141.469 22.92 141.229 22.7933 140.935 22.7C140.642 22.5933 140.335 22.4933 140.015 22.4C139.282 22.1733 138.735 21.84 138.375 21.4C138.015 20.96 137.835 20.4533 137.835 19.88C137.835 19.44 137.949 19.02 138.175 18.62C138.402 18.2067 138.742 17.8667 139.195 17.6C139.662 17.3333 140.255 17.2 140.975 17.2C141.602 17.2 142.155 17.2733 142.635 17.42C143.115 17.5667 143.562 17.8 143.975 18.12L143.115 19.46C142.875 19.2333 142.589 19.06 142.255 18.94C141.935 18.8067 141.642 18.7333 141.375 18.72C141.015 18.7067 140.715 18.78 140.475 18.94C140.235 19.1 140.115 19.3133 140.115 19.58C140.102 19.8467 140.189 20.06 140.375 20.22C140.575 20.38 140.829 20.5067 141.135 20.6C141.442 20.6933 141.749 20.7933 142.055 20.9C142.669 21.1 143.175 21.3867 143.575 21.76C143.975 22.12 144.175 22.6267 144.175 23.28C144.175 23.8 144.049 24.28 143.795 24.72C143.542 25.16 143.162 25.5133 142.655 25.78C142.149 26.0467 141.509 26.18 140.735 26.18Z" fill="#2A2921"/>
<path d="M5.565 52.17C6.515 52.17 7.345 52.385 8.055 52.815C8.775 53.245 9.33 53.87 9.72 54.69C10.12 55.5 10.32 56.47 10.32 57.6C10.32 58.7 10.115 59.675 9.705 60.525C9.305 61.375 8.74 62.035 8.01 62.505C7.29 62.975 6.47 63.21 5.55 63.21C4.6 63.21 3.765 62.995 3.045 62.565C2.335 62.135 1.78 61.515 1.38 60.705C0.99 59.885 0.795 58.91 0.795 57.78C0.795 56.68 0.995 55.705 1.395 54.855C1.805 54.005 2.37 53.345 3.09 52.875C3.82 52.405 4.645 52.17 5.565 52.17ZM5.505 52.44C4.865 52.44 4.3 52.665 3.81 53.115C3.33 53.555 2.955 54.175 2.685 54.975C2.425 55.775 2.295 56.69 2.295 57.72C2.295 58.76 2.44 59.675 2.73 60.465C3.03 61.255 3.43 61.865 3.93 62.295C4.43 62.725 4.99 62.94 5.61 62.94C6.25 62.94 6.81 62.72 7.29 62.28C7.78 61.83 8.155 61.205 8.415 60.405C8.685 59.605 8.82 58.69 8.82 57.66C8.82 56.62 8.67 55.705 8.37 54.915C8.08 54.125 7.685 53.515 7.185 53.085C6.685 52.655 6.125 52.44 5.505 52.44ZM16.2932 55.065C16.9932 55.065 17.5232 55.255 17.8832 55.635C18.0732 55.835 18.2082 56.085 18.2882 56.385C18.3682 56.685 18.4082 57.09 18.4082 57.6V61.605C18.4082 62.015 18.4932 62.3 18.6632 62.46C18.8332 62.61 19.1282 62.685 19.5482 62.685V63C18.6282 62.96 18.0282 62.94 17.7482 62.94C17.4682 62.94 16.9082 62.96 16.0682 63V62.685C16.4382 62.685 16.6932 62.61 16.8332 62.46C16.9832 62.3 17.0582 62.015 17.0582 61.605V57.27C17.0582 56.71 16.9782 56.285 16.8182 55.995C16.6582 55.695 16.3332 55.545 15.8432 55.545C15.4332 55.545 15.0682 55.665 14.7482 55.905C14.4282 56.145 14.1782 56.475 13.9982 56.895C13.8282 57.305 13.7432 57.765 13.7432 58.275V61.605C13.7432 62.015 13.8132 62.3 13.9532 62.46C14.1032 62.61 14.3632 62.685 14.7332 62.685V63C13.8932 62.96 13.3332 62.94 13.0532 62.94C12.7732 62.94 12.1732 62.96 11.2532 63V62.685C11.6732 62.685 11.9682 62.61 12.1382 62.46C12.3082 62.3 12.3932 62.015 12.3932 61.605V56.91C12.3932 56.45 12.3082 56.115 12.1382 55.905C11.9682 55.695 11.6732 55.59 11.2532 55.59V55.275C11.5732 55.305 11.8832 55.32 12.1832 55.32C12.8132 55.32 13.3332 55.25 13.7432 55.11V56.88C13.9932 56.24 14.3382 55.78 14.7782 55.5C15.2282 55.21 15.7332 55.065 16.2932 55.065ZM26.4134 61.2C26.2334 61.75 25.8934 62.225 25.3934 62.625C24.9034 63.015 24.3084 63.21 23.6084 63.21C22.8984 63.21 22.2834 63.05 21.7634 62.73C21.2434 62.4 20.8434 61.945 20.5634 61.365C20.2934 60.775 20.1584 60.095 20.1584 59.325C20.1584 58.455 20.2984 57.7 20.5784 57.06C20.8584 56.42 21.2534 55.93 21.7634 55.59C22.2734 55.24 22.8684 55.065 23.5484 55.065C24.4484 55.065 25.1384 55.34 25.6184 55.89C26.1084 56.43 26.3534 57.255 26.3534 58.365H21.6584C21.6284 58.645 21.6134 58.965 21.6134 59.325C21.6134 59.985 21.7184 60.56 21.9284 61.05C22.1484 61.54 22.4334 61.92 22.7834 62.19C23.1434 62.45 23.5184 62.58 23.9084 62.58C24.3884 62.58 24.8134 62.465 25.1834 62.235C25.5534 62.005 25.8634 61.62 26.1134 61.08L26.4134 61.2ZM23.4884 55.35C23.0184 55.35 22.6134 55.58 22.2734 56.04C21.9334 56.5 21.7234 57.18 21.6434 58.08H24.9134C24.9334 57.3 24.8184 56.65 24.5684 56.13C24.3284 55.61 23.9684 55.35 23.4884 55.35ZM34.3316 51.27C34.8516 51.27 35.2866 51.405 35.6366 51.675C35.9466 51.925 36.1016 52.235 36.1016 52.605C36.1016 52.835 36.0266 53.025 35.8766 53.175C35.7266 53.325 35.5366 53.4 35.3066 53.4C35.0766 53.4 34.8816 53.33 34.7216 53.19C34.5616 53.04 34.4816 52.84 34.4816 52.59C34.4816 52.38 34.5366 52.21 34.6466 52.08C34.7666 51.95 34.9216 51.865 35.1116 51.825C35.0816 51.725 35.0016 51.645 34.8716 51.585C34.7416 51.525 34.5766 51.495 34.3766 51.495C34.1566 51.495 33.9616 51.545 33.7916 51.645C33.6216 51.745 33.4916 51.88 33.4016 52.05C33.2916 52.25 33.2166 52.545 33.1766 52.935C33.1466 53.325 33.1316 53.98 33.1316 54.9V55.29H34.7366V55.59H33.1316V61.455C33.1316 61.915 33.2616 62.235 33.5216 62.415C33.7916 62.595 34.1916 62.685 34.7216 62.685V63L34.3616 62.985C33.3416 62.955 32.6916 62.94 32.4116 62.94C32.1516 62.94 31.5616 62.96 30.6416 63V62.685C31.0616 62.685 31.3566 62.61 31.5266 62.46C31.6966 62.3 31.7816 62.015 31.7816 61.605V55.59H30.5816V55.29H31.7816C31.7816 54.41 31.8366 53.73 31.9466 53.25C32.0566 52.77 32.2566 52.36 32.5466 52.02C32.7466 51.79 33.0016 51.61 33.3116 51.48C33.6216 51.34 33.9616 51.27 34.3316 51.27ZM38.733 55.065C39.753 55.065 40.573 55.405 41.193 56.085C41.823 56.755 42.138 57.775 42.138 59.145C42.138 60.515 41.823 61.535 41.193 62.205C40.573 62.875 39.753 63.21 38.733 63.21C37.713 63.21 36.888 62.875 36.258 62.205C35.638 61.535 35.328 60.515 35.328 59.145C35.328 57.775 35.638 56.755 36.258 56.085C36.888 55.405 37.713 55.065 38.733 55.065ZM38.733 55.365C38.133 55.365 37.658 55.675 37.308 56.295C36.958 56.905 36.783 57.855 36.783 59.145C36.783 60.435 36.958 61.385 37.308 61.995C37.658 62.605 38.133 62.91 38.733 62.91C39.333 62.91 39.808 62.605 40.158 61.995C40.508 61.385 40.683 60.435 40.683 59.145C40.683 57.855 40.508 56.905 40.158 56.295C39.808 55.675 39.333 55.365 38.733 55.365ZM47.6408 55.065C48.0408 55.065 48.3658 55.18 48.6158 55.41C48.8758 55.64 49.0058 55.92 49.0058 56.25C49.0058 56.51 48.9258 56.735 48.7658 56.925C48.6158 57.105 48.4108 57.195 48.1508 57.195C47.9308 57.195 47.7408 57.125 47.5808 56.985C47.4308 56.845 47.3558 56.655 47.3558 56.415C47.3558 56.085 47.5258 55.815 47.8658 55.605C47.7958 55.505 47.6908 55.455 47.5508 55.455C47.1608 55.455 46.8058 55.61 46.4858 55.92C46.1658 56.22 45.9158 56.59 45.7358 57.03C45.5558 57.47 45.4658 57.885 45.4658 58.275V61.455C45.4658 61.915 45.5958 62.235 45.8558 62.415C46.1258 62.595 46.5258 62.685 47.0558 62.685V63L46.6958 62.985C45.6758 62.955 45.0258 62.94 44.7458 62.94C44.4858 62.94 43.8958 62.96 42.9758 63V62.685C43.3958 62.685 43.6908 62.61 43.8608 62.46C44.0308 62.3 44.1158 62.015 44.1158 61.605V56.91C44.1158 56.45 44.0308 56.115 43.8608 55.905C43.6908 55.695 43.3958 55.59 42.9758 55.59V55.275C43.2958 55.305 43.6058 55.32 43.9058 55.32C44.5358 55.32 45.0558 55.25 45.4658 55.11V56.985C45.6458 56.485 45.9308 56.04 46.3208 55.65C46.7208 55.26 47.1608 55.065 47.6408 55.065ZM55.1536 55.065C55.5136 55.065 55.8336 55.12 56.1136 55.23C56.3936 55.34 56.6186 55.47 56.7886 55.62C56.8986 55.7 56.9886 55.74 57.0586 55.74C57.2386 55.74 57.3486 55.52 57.3886 55.08H57.7336C57.6936 55.57 57.6736 56.42 57.6736 57.63H57.3286C57.2186 56.97 57.0036 56.425 56.6836 55.995C56.3736 55.565 55.9086 55.35 55.2886 55.35C54.9286 55.35 54.6336 55.455 54.4036 55.665C54.1736 55.865 54.0586 56.145 54.0586 56.505C54.0586 56.855 54.1786 57.15 54.4186 57.39C54.6586 57.62 55.0436 57.9 55.5736 58.23C55.6636 58.28 55.7986 58.365 55.9786 58.485C56.4386 58.785 56.8086 59.05 57.0886 59.28C57.3686 59.51 57.5936 59.775 57.7636 60.075C57.9436 60.375 58.0336 60.72 58.0336 61.11C58.0336 61.77 57.7836 62.285 57.2836 62.655C56.7936 63.025 56.1886 63.21 55.4686 63.21C55.0186 63.21 54.6236 63.14 54.2836 63C54.0636 62.89 53.8586 62.755 53.6686 62.595C53.6286 62.555 53.5836 62.535 53.5336 62.535C53.4636 62.535 53.3986 62.585 53.3386 62.685C53.2886 62.785 53.2486 62.925 53.2186 63.105H52.8736C52.9136 62.535 52.9336 61.535 52.9336 60.105H53.2786C53.3886 61.045 53.5886 61.75 53.8786 62.22C54.1686 62.68 54.6636 62.91 55.3636 62.91C55.7136 62.91 56.0236 62.795 56.2936 62.565C56.5636 62.335 56.6986 61.975 56.6986 61.485C56.6986 61.095 56.5636 60.765 56.2936 60.495C56.0336 60.225 55.6036 59.9 55.0036 59.52C54.5136 59.21 54.1336 58.955 53.8636 58.755C53.6036 58.555 53.3836 58.31 53.2036 58.02C53.0236 57.73 52.9336 57.39 52.9336 57C52.9336 56.37 53.1436 55.89 53.5636 55.56C53.9836 55.23 54.5136 55.065 55.1536 55.065ZM62.5526 55.065C63.5726 55.065 64.3926 55.405 65.0126 56.085C65.6426 56.755 65.9576 57.775 65.9576 59.145C65.9576 60.515 65.6426 61.535 65.0126 62.205C64.3926 62.875 63.5726 63.21 62.5526 63.21C61.5326 63.21 60.7076 62.875 60.0776 62.205C59.4576 61.535 59.1476 60.515 59.1476 59.145C59.1476 57.775 59.4576 56.755 60.0776 56.085C60.7076 55.405 61.5326 55.065 62.5526 55.065ZM62.5526 55.365C61.9526 55.365 61.4776 55.675 61.1276 56.295C60.7776 56.905 60.6026 57.855 60.6026 59.145C60.6026 60.435 60.7776 61.385 61.1276 61.995C61.4776 62.605 61.9526 62.91 62.5526 62.91C63.1526 62.91 63.6276 62.605 63.9776 61.995C64.3276 61.385 64.5026 60.435 64.5026 59.145C64.5026 57.855 64.3276 56.905 63.9776 56.295C63.6276 55.675 63.1526 55.365 62.5526 55.365ZM71.4604 55.065C71.8604 55.065 72.1854 55.18 72.4354 55.41C72.6954 55.64 72.8254 55.92 72.8254 56.25C72.8254 56.51 72.7454 56.735 72.5854 56.925C72.4354 57.105 72.2304 57.195 71.9704 57.195C71.7504 57.195 71.5604 57.125 71.4004 56.985C71.2504 56.845 71.1754 56.655 71.1754 56.415C71.1754 56.085 71.3454 55.815 71.6854 55.605C71.6154 55.505 71.5104 55.455 71.3704 55.455C70.9804 55.455 70.6254 55.61 70.3054 55.92C69.9854 56.22 69.7354 56.59 69.5554 57.03C69.3754 57.47 69.2854 57.885 69.2854 58.275V61.455C69.2854 61.915 69.4154 62.235 69.6754 62.415C69.9454 62.595 70.3454 62.685 70.8754 62.685V63L70.5154 62.985C69.4954 62.955 68.8454 62.94 68.5654 62.94C68.3054 62.94 67.7154 62.96 66.7954 63V62.685C67.2154 62.685 67.5104 62.61 67.6804 62.46C67.8504 62.3 67.9354 62.015 67.9354 61.605V56.91C67.9354 56.45 67.8504 56.115 67.6804 55.905C67.5104 55.695 67.2154 55.59 66.7954 55.59V55.275C67.1154 55.305 67.4254 55.32 67.7254 55.32C68.3554 55.32 68.8754 55.25 69.2854 55.11V56.985C69.4654 56.485 69.7504 56.04 70.1404 55.65C70.5404 55.26 70.9804 55.065 71.4604 55.065ZM77.84 55.065C78.24 55.065 78.565 55.18 78.815 55.41C79.075 55.64 79.205 55.92 79.205 56.25C79.205 56.51 79.125 56.735 78.965 56.925C78.815 57.105 78.61 57.195 78.35 57.195C78.13 57.195 77.94 57.125 77.78 56.985C77.63 56.845 77.555 56.655 77.555 56.415C77.555 56.085 77.725 55.815 78.065 55.605C77.995 55.505 77.89 55.455 77.75 55.455C77.36 55.455 77.005 55.61 76.685 55.92C76.365 56.22 76.115 56.59 75.935 57.03C75.755 57.47 75.665 57.885 75.665 58.275V61.455C75.665 61.915 75.795 62.235 76.055 62.415C76.325 62.595 76.725 62.685 77.255 62.685V63L76.895 62.985C75.875 62.955 75.225 62.94 74.945 62.94C74.685 62.94 74.095 62.96 73.175 63V62.685C73.595 62.685 73.89 62.61 74.06 62.46C74.23 62.3 74.315 62.015 74.315 61.605V56.91C74.315 56.45 74.23 56.115 74.06 55.905C73.89 55.695 73.595 55.59 73.175 55.59V55.275C73.495 55.305 73.805 55.32 74.105 55.32C74.735 55.32 75.255 55.25 75.665 55.11V56.985C75.845 56.485 76.13 56.04 76.52 55.65C76.92 55.26 77.36 55.065 77.84 55.065ZM82.9368 55.065C83.9568 55.065 84.7768 55.405 85.3968 56.085C86.0268 56.755 86.3418 57.775 86.3418 59.145C86.3418 60.515 86.0268 61.535 85.3968 62.205C84.7768 62.875 83.9568 63.21 82.9368 63.21C81.9168 63.21 81.0918 62.875 80.4618 62.205C79.8418 61.535 79.5318 60.515 79.5318 59.145C79.5318 57.775 79.8418 56.755 80.4618 56.085C81.0918 55.405 81.9168 55.065 82.9368 55.065ZM82.9368 55.365C82.3368 55.365 81.8618 55.675 81.5118 56.295C81.1618 56.905 80.9868 57.855 80.9868 59.145C80.9868 60.435 81.1618 61.385 81.5118 61.995C81.8618 62.605 82.3368 62.91 82.9368 62.91C83.5368 62.91 84.0118 62.605 84.3618 61.995C84.7118 61.385 84.8868 60.435 84.8868 59.145C84.8868 57.855 84.7118 56.905 84.3618 56.295C84.0118 55.675 83.5368 55.365 82.9368 55.365ZM97.007 55.32C97.447 55.32 97.827 55.305 98.147 55.275V55.575C97.937 55.605 97.752 55.7 97.592 55.86C97.432 56.01 97.292 56.265 97.172 56.625L94.997 63.075H94.742L92.372 57.045L90.227 63.075H89.972L87.512 56.43C87.372 56.08 87.227 55.855 87.077 55.755C86.937 55.645 86.792 55.59 86.642 55.59V55.275C87.032 55.335 87.472 55.365 87.962 55.365C88.462 55.365 89.112 55.335 89.912 55.275V55.59C89.542 55.59 89.272 55.62 89.102 55.68C88.942 55.74 88.862 55.895 88.862 56.145C88.862 56.325 88.912 56.56 89.012 56.85L90.512 61.17L92.672 55.215H93.017L95.312 61.275L96.722 56.985C96.812 56.715 96.857 56.49 96.857 56.31C96.857 56.07 96.772 55.895 96.602 55.785C96.432 55.675 96.147 55.605 95.747 55.575V55.275C96.277 55.305 96.697 55.32 97.007 55.32ZM99.1304 61.29C99.5204 61.29 99.8154 61.45 100.015 61.77C100.185 62.04 100.27 62.37 100.27 62.76C100.27 63.26 100.14 63.71 99.8804 64.11C99.6304 64.51 99.2454 64.83 98.7254 65.07L98.5904 64.8C98.9004 64.67 99.1654 64.465 99.3854 64.185C99.6154 63.905 99.7304 63.62 99.7304 63.33C99.7304 63.21 99.7154 63.105 99.6854 63.015C99.5254 63.145 99.3404 63.21 99.1304 63.21C98.8604 63.21 98.6304 63.125 98.4404 62.955C98.2604 62.775 98.1704 62.54 98.1704 62.25C98.1704 61.98 98.2604 61.755 98.4404 61.575C98.6304 61.385 98.8604 61.29 99.1304 61.29ZM112.801 52.38C112.731 53.09 112.696 53.73 112.696 54.3C112.696 54.8 112.711 55.21 112.741 55.53H112.396C112.316 54.76 112.216 54.19 112.096 53.82C111.976 53.44 111.766 53.165 111.466 52.995C111.166 52.815 110.706 52.725 110.086 52.725H109.276V61.26C109.276 61.68 109.316 61.985 109.396 62.175C109.476 62.365 109.616 62.495 109.816 62.565C110.016 62.635 110.341 62.68 110.791 62.7V63C110.271 62.97 109.536 62.955 108.586 62.955C107.586 62.955 106.846 62.97 106.366 63V62.7C106.816 62.68 107.141 62.635 107.341 62.565C107.541 62.495 107.681 62.365 107.761 62.175C107.841 61.985 107.881 61.68 107.881 61.26V52.725H107.071C106.451 52.725 105.991 52.815 105.691 52.995C105.391 53.165 105.181 53.44 105.061 53.82C104.941 54.19 104.841 54.76 104.761 55.53H104.416C104.446 55.21 104.461 54.8 104.461 54.3C104.461 53.73 104.426 53.09 104.356 52.38C105.186 52.41 106.596 52.425 108.586 52.425C110.566 52.425 111.971 52.41 112.801 52.38ZM123.302 55.32C123.742 55.32 124.122 55.305 124.442 55.275V55.575C124.232 55.605 124.047 55.7 123.887 55.86C123.727 56.01 123.587 56.265 123.467 56.625L121.292 63.075H121.037L118.667 57.045L116.522 63.075H116.267L113.807 56.43C113.667 56.08 113.522 55.855 113.372 55.755C113.232 55.645 113.087 55.59 112.937 55.59V55.275C113.327 55.335 113.767 55.365 114.257 55.365C114.757 55.365 115.407 55.335 116.207 55.275V55.59C115.837 55.59 115.567 55.62 115.397 55.68C115.237 55.74 115.157 55.895 115.157 56.145C115.157 56.325 115.207 56.56 115.307 56.85L116.807 61.17L118.967 55.215H119.312L121.607 61.275L123.017 56.985C123.107 56.715 123.152 56.49 123.152 56.31C123.152 56.07 123.067 55.895 122.897 55.785C122.727 55.675 122.442 55.605 122.042 55.575V55.275C122.572 55.305 122.992 55.32 123.302 55.32ZM128.158 55.065C129.178 55.065 129.998 55.405 130.618 56.085C131.248 56.755 131.563 57.775 131.563 59.145C131.563 60.515 131.248 61.535 130.618 62.205C129.998 62.875 129.178 63.21 128.158 63.21C127.138 63.21 126.313 62.875 125.683 62.205C125.063 61.535 124.753 60.515 124.753 59.145C124.753 57.775 125.063 56.755 125.683 56.085C126.313 55.405 127.138 55.065 128.158 55.065ZM128.158 55.365C127.558 55.365 127.083 55.675 126.733 56.295C126.383 56.905 126.208 57.855 126.208 59.145C126.208 60.435 126.383 61.385 126.733 61.995C127.083 62.605 127.558 62.91 128.158 62.91C128.758 62.91 129.233 62.605 129.583 61.995C129.933 61.385 130.108 60.435 130.108 59.145C130.108 57.855 129.933 56.905 129.583 56.295C129.233 55.675 128.758 55.365 128.158 55.365ZM139.541 51.27C140.061 51.27 140.496 51.405 140.846 51.675C141.156 51.925 141.311 52.235 141.311 52.605C141.311 52.835 141.236 53.025 141.086 53.175C140.936 53.325 140.746 53.4 140.516 53.4C140.286 53.4 140.091 53.33 139.931 53.19C139.771 53.04 139.691 52.84 139.691 52.59C139.691 52.38 139.746 52.21 139.856 52.08C139.976 51.95 140.131 51.865 140.321 51.825C140.291 51.725 140.211 51.645 140.081 51.585C139.951 51.525 139.786 51.495 139.586 51.495C139.366 51.495 139.171 51.545 139.001 51.645C138.831 51.745 138.701 51.88 138.611 52.05C138.501 52.25 138.426 52.545 138.386 52.935C138.356 53.325 138.341 53.98 138.341 54.9V55.29H139.946V55.59H138.341V61.455C138.341 61.915 138.471 62.235 138.731 62.415C139.001 62.595 139.401 62.685 139.931 62.685V63L139.571 62.985C138.551 62.955 137.901 62.94 137.621 62.94C137.361 62.94 136.771 62.96 135.851 63V62.685C136.271 62.685 136.566 62.61 136.736 62.46C136.906 62.3 136.991 62.015 136.991 61.605V55.59H135.791V55.29H136.991C136.991 54.41 137.046 53.73 137.156 53.25C137.266 52.77 137.466 52.36 137.756 52.02C137.956 51.79 138.211 51.61 138.521 51.48C138.831 51.34 139.171 51.27 139.541 51.27ZM143.943 55.065C144.963 55.065 145.783 55.405 146.403 56.085C147.033 56.755 147.348 57.775 147.348 59.145C147.348 60.515 147.033 61.535 146.403 62.205C145.783 62.875 144.963 63.21 143.943 63.21C142.923 63.21 142.098 62.875 141.468 62.205C140.848 61.535 140.538 60.515 140.538 59.145C140.538 57.775 140.848 56.755 141.468 56.085C142.098 55.405 142.923 55.065 143.943 55.065ZM143.943 55.365C143.343 55.365 142.868 55.675 142.518 56.295C142.168 56.905 141.993 57.855 141.993 59.145C141.993 60.435 142.168 61.385 142.518 61.995C142.868 62.605 143.343 62.91 143.943 62.91C144.543 62.91 145.018 62.605 145.368 61.995C145.718 61.385 145.893 60.435 145.893 59.145C145.893 57.855 145.718 56.905 145.368 56.295C145.018 55.675 144.543 55.365 143.943 55.365ZM152.851 55.065C153.251 55.065 153.576 55.18 153.826 55.41C154.086 55.64 154.216 55.92 154.216 56.25C154.216 56.51 154.136 56.735 153.976 56.925C153.826 57.105 153.621 57.195 153.361 57.195C153.141 57.195 152.951 57.125 152.791 56.985C152.641 56.845 152.566 56.655 152.566 56.415C152.566 56.085 152.736 55.815 153.076 55.605C153.006 55.505 152.901 55.455 152.761 55.455C152.371 55.455 152.016 55.61 151.696 55.92C151.376 56.22 151.126 56.59 150.946 57.03C150.766 57.47 150.676 57.885 150.676 58.275V61.455C150.676 61.915 150.806 62.235 151.066 62.415C151.336 62.595 151.736 62.685 152.266 62.685V63L151.906 62.985C150.886 62.955 150.236 62.94 149.956 62.94C149.696 62.94 149.106 62.96 148.186 63V62.685C148.606 62.685 148.901 62.61 149.071 62.46C149.241 62.3 149.326 62.015 149.326 61.605V56.91C149.326 56.45 149.241 56.115 149.071 55.905C148.901 55.695 148.606 55.59 148.186 55.59V55.275C148.506 55.305 148.816 55.32 149.116 55.32C149.746 55.32 150.266 55.25 150.676 55.11V56.985C150.856 56.485 151.141 56.04 151.531 55.65C151.931 55.26 152.371 55.065 152.851 55.065ZM11.955 82.605C11.955 83.015 12.04 83.3 12.21 83.46C12.38 83.61 12.675 83.685 13.095 83.685V84C12.175 83.96 11.575 83.94 11.295 83.94C11.015 83.94 10.455 83.96 9.615 84V83.685C9.985 83.685 10.24 83.61 10.38 83.46C10.53 83.3 10.605 83.015 10.605 82.605V78.27C10.605 77.89 10.58 77.585 10.53 77.355C10.49 77.115 10.385 76.92 10.215 76.77C10.055 76.62 9.805 76.545 9.465 76.545C9.085 76.545 8.74 76.665 8.43 76.905C8.12 77.145 7.875 77.475 7.695 77.895C7.525 78.305 7.44 78.76 7.44 79.26V82.605C7.44 83.015 7.525 83.3 7.695 83.46C7.865 83.61 8.16 83.685 8.58 83.685V84C7.66 83.96 7.06 83.94 6.78 83.94C6.5 83.94 5.94 83.96 5.1 84V83.685C5.47 83.685 5.725 83.61 5.865 83.46C6.015 83.3 6.09 83.015 6.09 82.605V78.27C6.09 77.89 6.065 77.585 6.015 77.355C5.975 77.115 5.87 76.92 5.7 76.77C5.54 76.62 5.29 76.545 4.95 76.545C4.57 76.545 4.225 76.665 3.915 76.905C3.605 77.145 3.36 77.475 3.18 77.895C3.01 78.315 2.925 78.775 2.925 79.275V82.605C2.925 83.015 2.995 83.3 3.135 83.46C3.285 83.61 3.545 83.685 3.915 83.685V84C3.075 83.96 2.515 83.94 2.235 83.94C1.955 83.94 1.355 83.96 0.435 84V83.685C0.855 83.685 1.15 83.61 1.32 83.46C1.49 83.3 1.575 83.015 1.575 82.605V77.91C1.575 77.45 1.49 77.115 1.32 76.905C1.15 76.695 0.855 76.59 0.435 76.59V76.275C0.755 76.305 1.065 76.32 1.365 76.32C1.995 76.32 2.515 76.25 2.925 76.11V77.88C3.165 77.26 3.505 76.805 3.945 76.515C4.385 76.215 4.865 76.065 5.385 76.065C6.065 76.065 6.585 76.255 6.945 76.635C7.195 76.895 7.35 77.295 7.41 77.835C7.66 77.205 8.005 76.755 8.445 76.485C8.885 76.205 9.37 76.065 9.9 76.065C10.58 76.065 11.1 76.255 11.46 76.635C11.64 76.835 11.765 77.09 11.835 77.4C11.915 77.71 11.955 78.11 11.955 78.6V82.605ZM15.1604 72.525C15.4204 72.525 15.6454 72.62 15.8354 72.81C16.0254 73 16.1204 73.225 16.1204 73.485C16.1204 73.745 16.0254 73.97 15.8354 74.16C15.6454 74.35 15.4204 74.445 15.1604 74.445C14.9004 74.445 14.6754 74.35 14.4854 74.16C14.2954 73.97 14.2004 73.745 14.2004 73.485C14.2004 73.225 14.2954 73 14.4854 72.81C14.6754 72.62 14.9004 72.525 15.1604 72.525ZM15.9404 82.605C15.9404 83.015 16.0254 83.3 16.1954 83.46C16.3654 83.61 16.6604 83.685 17.0804 83.685V84C16.1604 83.96 15.5554 83.94 15.2654 83.94C14.9754 83.94 14.3704 83.96 13.4504 84V83.685C13.8704 83.685 14.1654 83.61 14.3354 83.46C14.5054 83.3 14.5904 83.015 14.5904 82.605V77.91C14.5904 77.45 14.5054 77.115 14.3354 76.905C14.1654 76.695 13.8704 76.59 13.4504 76.59V76.275C13.7704 76.305 14.0804 76.32 14.3804 76.32C15.0104 76.32 15.5304 76.25 15.9404 76.11V82.605ZM22.21 76.065C22.61 76.065 22.935 76.18 23.185 76.41C23.445 76.64 23.575 76.92 23.575 77.25C23.575 77.51 23.495 77.735 23.335 77.925C23.185 78.105 22.98 78.195 22.72 78.195C22.5 78.195 22.31 78.125 22.15 77.985C22 77.845 21.925 77.655 21.925 77.415C21.925 77.085 22.095 76.815 22.435 76.605C22.365 76.505 22.26 76.455 22.12 76.455C21.73 76.455 21.375 76.61 21.055 76.92C20.735 77.22 20.485 77.59 20.305 78.03C20.125 78.47 20.035 78.885 20.035 79.275V82.455C20.035 82.915 20.165 83.235 20.425 83.415C20.695 83.595 21.095 83.685 21.625 83.685V84L21.265 83.985C20.245 83.955 19.595 83.94 19.315 83.94C19.055 83.94 18.465 83.96 17.545 84V83.685C17.965 83.685 18.26 83.61 18.43 83.46C18.6 83.3 18.685 83.015 18.685 82.605V77.91C18.685 77.45 18.6 77.115 18.43 76.905C18.26 76.695 17.965 76.59 17.545 76.59V76.275C17.865 76.305 18.175 76.32 18.475 76.32C19.105 76.32 19.625 76.25 20.035 76.11V77.985C20.215 77.485 20.5 77.04 20.89 76.65C21.29 76.26 21.73 76.065 22.21 76.065ZM26.3396 76.29H28.5596V76.59H26.3396V82.395C26.3396 82.845 26.4196 83.17 26.5796 83.37C26.7496 83.57 26.9896 83.67 27.2996 83.67C27.6096 83.67 27.8746 83.545 28.0946 83.295C28.3146 83.045 28.4996 82.635 28.6496 82.065L28.9496 82.14C28.6996 83.52 28.0496 84.21 26.9996 84.21C26.6596 84.21 26.3796 84.17 26.1596 84.09C25.9396 84.01 25.7446 83.885 25.5746 83.715C25.3546 83.495 25.1996 83.225 25.1096 82.905C25.0296 82.585 24.9896 82.155 24.9896 81.615V76.59H23.5496V76.29H24.9896V73.995C25.5496 73.975 25.9996 73.905 26.3396 73.785V76.29ZM31.2824 77.865C31.5324 77.235 31.8774 76.78 32.3174 76.5C32.7674 76.21 33.2724 76.065 33.8324 76.065C34.5324 76.065 35.0624 76.255 35.4224 76.635C35.6124 76.835 35.7474 77.085 35.8274 77.385C35.9074 77.685 35.9474 78.09 35.9474 78.6V82.605C35.9474 83.015 36.0324 83.3 36.2024 83.46C36.3724 83.61 36.6674 83.685 37.0874 83.685V84C36.1674 83.96 35.5674 83.94 35.2874 83.94C35.0074 83.94 34.4474 83.96 33.6074 84V83.685C33.9774 83.685 34.2324 83.61 34.3724 83.46C34.5224 83.3 34.5974 83.015 34.5974 82.605V78.27C34.5974 77.71 34.5174 77.285 34.3574 76.995C34.1974 76.695 33.8724 76.545 33.3824 76.545C32.9724 76.545 32.6074 76.66 32.2874 76.89C31.9774 77.12 31.7324 77.445 31.5524 77.865C31.3724 78.275 31.2824 78.74 31.2824 79.26V82.605C31.2824 83.015 31.3524 83.3 31.4924 83.46C31.6424 83.61 31.9024 83.685 32.2724 83.685V84C31.4324 83.96 30.8724 83.94 30.5924 83.94C30.3124 83.94 29.7124 83.96 28.7924 84V83.685C29.2124 83.685 29.5074 83.61 29.6774 83.46C29.8474 83.3 29.9324 83.015 29.9324 82.605V74.055C29.9324 73.595 29.8474 73.26 29.6774 73.05C29.5074 72.84 29.2124 72.735 28.7924 72.735V72.42C29.1124 72.45 29.4224 72.465 29.7224 72.465C30.3524 72.465 30.8724 72.395 31.2824 72.255V77.865ZM38.9007 82.29C39.2907 82.29 39.5857 82.45 39.7857 82.77C39.9557 83.04 40.0407 83.37 40.0407 83.76C40.0407 84.26 39.9107 84.71 39.6507 85.11C39.4007 85.51 39.0157 85.83 38.4957 86.07L38.3607 85.8C38.6707 85.67 38.9357 85.465 39.1557 85.185C39.3857 84.905 39.5007 84.62 39.5007 84.33C39.5007 84.21 39.4857 84.105 39.4557 84.015C39.2957 84.145 39.1107 84.21 38.9007 84.21C38.6307 84.21 38.4007 84.125 38.2107 83.955C38.0307 83.775 37.9407 83.54 37.9407 83.25C37.9407 82.98 38.0307 82.755 38.2107 82.575C38.4007 82.385 38.6307 82.29 38.9007 82.29ZM52.571 73.38C52.501 74.09 52.466 74.73 52.466 75.3C52.466 75.8 52.481 76.21 52.511 76.53H52.166C52.086 75.76 51.986 75.19 51.866 74.82C51.746 74.44 51.536 74.165 51.236 73.995C50.936 73.815 50.476 73.725 49.856 73.725H49.046V82.26C49.046 82.68 49.086 82.985 49.166 83.175C49.246 83.365 49.386 83.495 49.586 83.565C49.786 83.635 50.111 83.68 50.561 83.7V84C50.041 83.97 49.306 83.955 48.356 83.955C47.356 83.955 46.616 83.97 46.136 84V83.7C46.586 83.68 46.911 83.635 47.111 83.565C47.311 83.495 47.451 83.365 47.531 83.175C47.611 82.985 47.651 82.68 47.651 82.26V73.725H46.841C46.221 73.725 45.761 73.815 45.461 73.995C45.161 74.165 44.951 74.44 44.831 74.82C44.711 75.19 44.611 75.76 44.531 76.53H44.186C44.216 76.21 44.231 75.8 44.231 75.3C44.231 74.73 44.196 74.09 44.126 73.38C44.956 73.41 46.366 73.425 48.356 73.425C50.336 73.425 51.741 73.41 52.571 73.38ZM55.4095 77.865C55.6595 77.235 56.0045 76.78 56.4445 76.5C56.8945 76.21 57.3995 76.065 57.9595 76.065C58.6595 76.065 59.1895 76.255 59.5495 76.635C59.7395 76.835 59.8745 77.085 59.9545 77.385C60.0345 77.685 60.0745 78.09 60.0745 78.6V82.605C60.0745 83.015 60.1595 83.3 60.3295 83.46C60.4995 83.61 60.7945 83.685 61.2145 83.685V84C60.2945 83.96 59.6945 83.94 59.4145 83.94C59.1345 83.94 58.5745 83.96 57.7345 84V83.685C58.1045 83.685 58.3595 83.61 58.4995 83.46C58.6495 83.3 58.7245 83.015 58.7245 82.605V78.27C58.7245 77.71 58.6445 77.285 58.4845 76.995C58.3245 76.695 57.9995 76.545 57.5095 76.545C57.0995 76.545 56.7345 76.66 56.4145 76.89C56.1045 77.12 55.8595 77.445 55.6795 77.865C55.4995 78.275 55.4095 78.74 55.4095 79.26V82.605C55.4095 83.015 55.4795 83.3 55.6195 83.46C55.7695 83.61 56.0295 83.685 56.3995 83.685V84C55.5595 83.96 54.9995 83.94 54.7195 83.94C54.4395 83.94 53.8395 83.96 52.9195 84V83.685C53.3395 83.685 53.6345 83.61 53.8045 83.46C53.9745 83.3 54.0595 83.015 54.0595 82.605V74.055C54.0595 73.595 53.9745 73.26 53.8045 73.05C53.6345 72.84 53.3395 72.735 52.9195 72.735V72.42C53.2395 72.45 53.5495 72.465 53.8495 72.465C54.4795 72.465 54.9995 72.395 55.4095 72.255V77.865ZM66.2379 76.065C66.6379 76.065 66.9629 76.18 67.2129 76.41C67.4729 76.64 67.6029 76.92 67.6029 77.25C67.6029 77.51 67.5229 77.735 67.3629 77.925C67.2129 78.105 67.0079 78.195 66.7479 78.195C66.5279 78.195 66.3379 78.125 66.1779 77.985C66.0279 77.845 65.9529 77.655 65.9529 77.415C65.9529 77.085 66.1229 76.815 66.4629 76.605C66.3929 76.505 66.2879 76.455 66.1479 76.455C65.7579 76.455 65.4029 76.61 65.0829 76.92C64.7629 77.22 64.5129 77.59 64.3329 78.03C64.1529 78.47 64.0629 78.885 64.0629 79.275V82.455C64.0629 82.915 64.1929 83.235 64.4529 83.415C64.7229 83.595 65.1229 83.685 65.6529 83.685V84L65.2929 83.985C64.2729 83.955 63.6229 83.94 63.3429 83.94C63.0829 83.94 62.4929 83.96 61.5729 84V83.685C61.9929 83.685 62.2879 83.61 62.4579 83.46C62.6279 83.3 62.7129 83.015 62.7129 82.605V77.91C62.7129 77.45 62.6279 77.115 62.4579 76.905C62.2879 76.695 61.9929 76.59 61.5729 76.59V76.275C61.8929 76.305 62.2029 76.32 62.5029 76.32C63.1329 76.32 63.6529 76.25 64.0629 76.11V77.985C64.2429 77.485 64.5279 77.04 64.9179 76.65C65.3179 76.26 65.7579 76.065 66.2379 76.065ZM74.1696 82.2C73.9896 82.75 73.6496 83.225 73.1496 83.625C72.6596 84.015 72.0646 84.21 71.3646 84.21C70.6546 84.21 70.0396 84.05 69.5196 83.73C68.9996 83.4 68.5996 82.945 68.3196 82.365C68.0496 81.775 67.9146 81.095 67.9146 80.325C67.9146 79.455 68.0546 78.7 68.3346 78.06C68.6146 77.42 69.0096 76.93 69.5196 76.59C70.0296 76.24 70.6246 76.065 71.3046 76.065C72.2046 76.065 72.8946 76.34 73.3746 76.89C73.8646 77.43 74.1096 78.255 74.1096 79.365H69.4146C69.3846 79.645 69.3696 79.965 69.3696 80.325C69.3696 80.985 69.4746 81.56 69.6846 82.05C69.9046 82.54 70.1896 82.92 70.5396 83.19C70.8996 83.45 71.2746 83.58 71.6646 83.58C72.1446 83.58 72.5696 83.465 72.9396 83.235C73.3096 83.005 73.6196 82.62 73.8696 82.08L74.1696 82.2ZM71.2446 76.35C70.7746 76.35 70.3696 76.58 70.0296 77.04C69.6896 77.5 69.4796 78.18 69.3996 79.08H72.6696C72.6896 78.3 72.5746 77.65 72.3246 77.13C72.0846 76.61 71.7246 76.35 71.2446 76.35ZM81.4575 82.2C81.2775 82.75 80.9375 83.225 80.4375 83.625C79.9475 84.015 79.3525 84.21 78.6525 84.21C77.9425 84.21 77.3275 84.05 76.8075 83.73C76.2875 83.4 75.8875 82.945 75.6075 82.365C75.3375 81.775 75.2025 81.095 75.2025 80.325C75.2025 79.455 75.3425 78.7 75.6225 78.06C75.9025 77.42 76.2975 76.93 76.8075 76.59C77.3175 76.24 77.9125 76.065 78.5925 76.065C79.4925 76.065 80.1825 76.34 80.6625 76.89C81.1525 77.43 81.3975 78.255 81.3975 79.365H76.7025C76.6725 79.645 76.6575 79.965 76.6575 80.325C76.6575 80.985 76.7625 81.56 76.9725 82.05C77.1925 82.54 77.4775 82.92 77.8275 83.19C78.1875 83.45 78.5625 83.58 78.9525 83.58C79.4325 83.58 79.8575 83.465 80.2275 83.235C80.5975 83.005 80.9075 82.62 81.1575 82.08L81.4575 82.2ZM78.5325 76.35C78.0625 76.35 77.6575 76.58 77.3175 77.04C76.9775 77.5 76.7675 78.18 76.6875 79.08H79.9575C79.9775 78.3 79.8625 77.65 79.6125 77.13C79.3725 76.61 79.0125 76.35 78.5325 76.35ZM89.3757 72.27C89.8957 72.27 90.3307 72.405 90.6807 72.675C90.9907 72.925 91.1457 73.235 91.1457 73.605C91.1457 73.835 91.0707 74.025 90.9207 74.175C90.7707 74.325 90.5807 74.4 90.3507 74.4C90.1207 74.4 89.9257 74.33 89.7657 74.19C89.6057 74.04 89.5257 73.84 89.5257 73.59C89.5257 73.38 89.5807 73.21 89.6907 73.08C89.8107 72.95 89.9657 72.865 90.1557 72.825C90.1257 72.725 90.0457 72.645 89.9157 72.585C89.7857 72.525 89.6207 72.495 89.4207 72.495C89.2007 72.495 89.0057 72.545 88.8357 72.645C88.6657 72.745 88.5357 72.88 88.4457 73.05C88.3357 73.25 88.2607 73.545 88.2207 73.935C88.1907 74.325 88.1757 74.98 88.1757 75.9V76.29H89.7807V76.59H88.1757V82.455C88.1757 82.915 88.3057 83.235 88.5657 83.415C88.8357 83.595 89.2357 83.685 89.7657 83.685V84L89.4057 83.985C88.3857 83.955 87.7357 83.94 87.4557 83.94C87.1957 83.94 86.6057 83.96 85.6857 84V83.685C86.1057 83.685 86.4007 83.61 86.5707 83.46C86.7407 83.3 86.8257 83.015 86.8257 82.605V76.59H85.6257V76.29H86.8257C86.8257 75.41 86.8807 74.73 86.9907 74.25C87.1007 73.77 87.3007 73.36 87.5907 73.02C87.7907 72.79 88.0457 72.61 88.3557 72.48C88.6657 72.34 89.0057 72.27 89.3757 72.27ZM93.7772 76.065C94.7972 76.065 95.6172 76.405 96.2372 77.085C96.8672 77.755 97.1822 78.775 97.1822 80.145C97.1822 81.515 96.8672 82.535 96.2372 83.205C95.6172 83.875 94.7972 84.21 93.7772 84.21C92.7572 84.21 91.9322 83.875 91.3022 83.205C90.6822 82.535 90.3722 81.515 90.3722 80.145C90.3722 78.775 90.6822 77.755 91.3022 77.085C91.9322 76.405 92.7572 76.065 93.7772 76.065ZM93.7772 76.365C93.1772 76.365 92.7022 76.675 92.3522 77.295C92.0022 77.905 91.8272 78.855 91.8272 80.145C91.8272 81.435 92.0022 82.385 92.3522 82.995C92.7022 83.605 93.1772 83.91 93.7772 83.91C94.3772 83.91 94.8522 83.605 95.2022 82.995C95.5522 82.385 95.7272 81.435 95.7272 80.145C95.7272 78.855 95.5522 77.905 95.2022 77.295C94.8522 76.675 94.3772 76.365 93.7772 76.365ZM102.685 76.065C103.085 76.065 103.41 76.18 103.66 76.41C103.92 76.64 104.05 76.92 104.05 77.25C104.05 77.51 103.97 77.735 103.81 77.925C103.66 78.105 103.455 78.195 103.195 78.195C102.975 78.195 102.785 78.125 102.625 77.985C102.475 77.845 102.4 77.655 102.4 77.415C102.4 77.085 102.57 76.815 102.91 76.605C102.84 76.505 102.735 76.455 102.595 76.455C102.205 76.455 101.85 76.61 101.53 76.92C101.21 77.22 100.96 77.59 100.78 78.03C100.6 78.47 100.51 78.885 100.51 79.275V82.455C100.51 82.915 100.64 83.235 100.9 83.415C101.17 83.595 101.57 83.685 102.1 83.685V84L101.74 83.985C100.72 83.955 100.07 83.94 99.79 83.94C99.53 83.94 98.94 83.96 98.02 84V83.685C98.44 83.685 98.735 83.61 98.905 83.46C99.075 83.3 99.16 83.015 99.16 82.605V77.91C99.16 77.45 99.075 77.115 98.905 76.905C98.735 76.695 98.44 76.59 98.02 76.59V76.275C98.34 76.305 98.65 76.32 98.95 76.32C99.58 76.32 100.1 76.25 100.51 76.11V77.985C100.69 77.485 100.975 77.04 101.365 76.65C101.765 76.26 102.205 76.065 102.685 76.065ZM109.523 84.105C108.893 84.105 108.423 83.95 108.113 83.64C107.813 83.32 107.663 82.88 107.663 82.32C107.663 81.87 107.783 81.5 108.023 81.21C108.273 80.92 108.563 80.69 108.893 80.52C109.233 80.35 109.678 80.17 110.228 79.98C110.788 79.79 111.203 79.615 111.473 79.455C111.743 79.295 111.878 79.08 111.878 78.81V77.88C111.878 77.3 111.753 76.905 111.503 76.695C111.263 76.475 110.923 76.365 110.483 76.365C109.783 76.365 109.288 76.545 108.998 76.905C109.198 76.955 109.363 77.06 109.493 77.22C109.633 77.38 109.703 77.58 109.703 77.82C109.703 78.07 109.623 78.27 109.463 78.42C109.303 78.56 109.098 78.63 108.848 78.63C108.568 78.63 108.358 78.545 108.218 78.375C108.078 78.195 108.008 77.98 108.008 77.73C108.008 77.49 108.063 77.29 108.173 77.13C108.293 76.97 108.468 76.81 108.698 76.65C108.938 76.48 109.243 76.34 109.613 76.23C109.983 76.12 110.388 76.065 110.828 76.065C111.608 76.065 112.198 76.25 112.598 76.62C112.848 76.85 113.013 77.13 113.093 77.46C113.183 77.78 113.228 78.205 113.228 78.735V82.905C113.228 83.155 113.263 83.335 113.333 83.445C113.403 83.555 113.523 83.61 113.693 83.61C113.813 83.61 113.923 83.585 114.023 83.535C114.133 83.475 114.248 83.395 114.368 83.295L114.533 83.55C114.273 83.75 114.048 83.895 113.858 83.985C113.678 84.065 113.448 84.105 113.168 84.105C112.688 84.105 112.353 83.985 112.163 83.745C111.973 83.505 111.878 83.18 111.878 82.77C111.578 83.27 111.233 83.62 110.843 83.82C110.453 84.01 110.013 84.105 109.523 84.105ZM110.183 83.505C110.843 83.505 111.408 83.125 111.878 82.365V79.425C111.788 79.565 111.663 79.68 111.503 79.77C111.343 79.86 111.098 79.98 110.768 80.13C110.388 80.29 110.078 80.445 109.838 80.595C109.608 80.735 109.408 80.93 109.238 81.18C109.068 81.43 108.983 81.75 108.983 82.14C108.983 82.59 109.093 82.93 109.313 83.16C109.533 83.39 109.823 83.505 110.183 83.505ZM10.365 97.32C10.805 97.32 11.185 97.305 11.505 97.275V97.575C11.295 97.605 11.11 97.7 10.95 97.86C10.79 98.01 10.65 98.265 10.53 98.625L8.355 105.075H8.1L5.73 99.045L3.585 105.075H3.33L0.87 98.43C0.73 98.08 0.585 97.855 0.435 97.755C0.295 97.645 0.15 97.59 0 97.59V97.275C0.39 97.335 0.83 97.365 1.32 97.365C1.82 97.365 2.47 97.335 3.27 97.275V97.59C2.9 97.59 2.63 97.62 2.46 97.68C2.3 97.74 2.22 97.895 2.22 98.145C2.22 98.325 2.27 98.56 2.37 98.85L3.87 103.17L6.03 97.215H6.375L8.67 103.275L10.08 98.985C10.17 98.715 10.215 98.49 10.215 98.31C10.215 98.07 10.13 97.895 9.96 97.785C9.79 97.675 9.505 97.605 9.105 97.575V97.275C9.635 97.305 10.055 97.32 10.365 97.32ZM18.0561 103.2C17.8761 103.75 17.5361 104.225 17.0361 104.625C16.5461 105.015 15.9511 105.21 15.2511 105.21C14.5411 105.21 13.9261 105.05 13.4061 104.73C12.8861 104.4 12.4861 103.945 12.2061 103.365C11.9361 102.775 11.8011 102.095 11.8011 101.325C11.8011 100.455 11.9411 99.7 12.2211 99.06C12.5011 98.42 12.8961 97.93 13.4061 97.59C13.9161 97.24 14.5111 97.065 15.1911 97.065C16.0911 97.065 16.7811 97.34 17.2611 97.89C17.7511 98.43 17.9961 99.255 17.9961 100.365H13.3011C13.2711 100.645 13.2561 100.965 13.2561 101.325C13.2561 101.985 13.3611 102.56 13.5711 103.05C13.7911 103.54 14.0761 103.92 14.4261 104.19C14.7861 104.45 15.1611 104.58 15.5511 104.58C16.0311 104.58 16.4561 104.465 16.8261 104.235C17.1961 104.005 17.5061 103.62 17.7561 103.08L18.0561 103.2ZM15.1311 97.35C14.6611 97.35 14.2561 97.58 13.9161 98.04C13.5761 98.5 13.3661 99.18 13.2861 100.08H16.5561C16.5761 99.3 16.4611 98.65 16.2111 98.13C15.9711 97.61 15.6111 97.35 15.1311 97.35ZM25.659 103.365C25.659 103.825 25.744 104.16 25.914 104.37C26.084 104.58 26.379 104.685 26.799 104.685V105C26.489 104.97 26.179 104.955 25.869 104.955C25.239 104.955 24.719 105.025 24.309 105.165V103.83C24.129 104.28 23.859 104.625 23.499 104.865C23.139 105.095 22.699 105.21 22.179 105.21C21.219 105.21 20.464 104.865 19.914 104.175C19.374 103.485 19.109 102.475 19.119 101.145C19.119 100.275 19.269 99.535 19.569 98.925C19.879 98.305 20.289 97.84 20.799 97.53C21.319 97.22 21.889 97.065 22.509 97.065C22.889 97.065 23.234 97.14 23.544 97.29C23.864 97.43 24.119 97.65 24.309 97.95V95.04C24.309 94.58 24.224 94.245 24.054 94.035C23.884 93.825 23.589 93.72 23.169 93.72V93.405C23.489 93.435 23.799 93.45 24.099 93.45C24.729 93.45 25.249 93.38 25.659 93.24V103.365ZM22.614 104.76C23.004 104.76 23.354 104.61 23.664 104.31C23.974 104.01 24.189 103.585 24.309 103.035V98.565C24.039 97.795 23.479 97.41 22.629 97.41C22.009 97.41 21.509 97.73 21.129 98.37C20.749 99 20.564 99.925 20.574 101.145C20.564 102.345 20.734 103.25 21.084 103.86C21.434 104.46 21.944 104.76 22.614 104.76ZM34.0748 103.365C34.0748 103.825 34.1598 104.16 34.3298 104.37C34.4998 104.58 34.7948 104.685 35.2148 104.685V105C34.9048 104.97 34.5948 104.955 34.2848 104.955C33.6548 104.955 33.1348 105.025 32.7248 105.165V103.83C32.5448 104.28 32.2748 104.625 31.9148 104.865C31.5548 105.095 31.1148 105.21 30.5948 105.21C29.6348 105.21 28.8798 104.865 28.3298 104.175C27.7898 103.485 27.5248 102.475 27.5348 101.145C27.5348 100.275 27.6848 99.535 27.9848 98.925C28.2948 98.305 28.7048 97.84 29.2148 97.53C29.7348 97.22 30.3048 97.065 30.9248 97.065C31.3048 97.065 31.6498 97.14 31.9598 97.29C32.2798 97.43 32.5348 97.65 32.7248 97.95V95.04C32.7248 94.58 32.6398 94.245 32.4698 94.035C32.2998 93.825 32.0048 93.72 31.5848 93.72V93.405C31.9048 93.435 32.2148 93.45 32.5148 93.45C33.1448 93.45 33.6648 93.38 34.0748 93.24V103.365ZM31.0298 104.76C31.4198 104.76 31.7698 104.61 32.0798 104.31C32.3898 104.01 32.6048 103.585 32.7248 103.035V98.565C32.4548 97.795 31.8948 97.41 31.0448 97.41C30.4248 97.41 29.9248 97.73 29.5448 98.37C29.1648 99 28.9798 99.925 28.9898 101.145C28.9798 102.345 29.1498 103.25 29.4998 103.86C29.8498 104.46 30.3598 104.76 31.0298 104.76ZM37.3757 93.525C37.6357 93.525 37.8607 93.62 38.0507 93.81C38.2407 94 38.3357 94.225 38.3357 94.485C38.3357 94.745 38.2407 94.97 38.0507 95.16C37.8607 95.35 37.6357 95.445 37.3757 95.445C37.1157 95.445 36.8907 95.35 36.7007 95.16C36.5107 94.97 36.4157 94.745 36.4157 94.485C36.4157 94.225 36.5107 94 36.7007 93.81C36.8907 93.62 37.1157 93.525 37.3757 93.525ZM38.1557 103.605C38.1557 104.015 38.2407 104.3 38.4107 104.46C38.5807 104.61 38.8757 104.685 39.2957 104.685V105C38.3757 104.96 37.7707 104.94 37.4807 104.94C37.1907 104.94 36.5857 104.96 35.6657 105V104.685C36.0857 104.685 36.3807 104.61 36.5507 104.46C36.7207 104.3 36.8057 104.015 36.8057 103.605V98.91C36.8057 98.45 36.7207 98.115 36.5507 97.905C36.3807 97.695 36.0857 97.59 35.6657 97.59V97.275C35.9857 97.305 36.2957 97.32 36.5957 97.32C37.2257 97.32 37.7457 97.25 38.1557 97.11V103.605ZM44.8002 97.065C45.5002 97.065 46.0302 97.255 46.3902 97.635C46.5802 97.835 46.7152 98.085 46.7952 98.385C46.8752 98.685 46.9152 99.09 46.9152 99.6V103.605C46.9152 104.015 47.0002 104.3 47.1702 104.46C47.3402 104.61 47.6352 104.685 48.0552 104.685V105C47.1352 104.96 46.5352 104.94 46.2552 104.94C45.9752 104.94 45.4152 104.96 44.5752 105V104.685C44.9452 104.685 45.2002 104.61 45.3402 104.46C45.4902 104.3 45.5652 104.015 45.5652 103.605V99.27C45.5652 98.71 45.4852 98.285 45.3252 97.995C45.1652 97.695 44.8402 97.545 44.3502 97.545C43.9402 97.545 43.5752 97.665 43.2552 97.905C42.9352 98.145 42.6852 98.475 42.5052 98.895C42.3352 99.305 42.2502 99.765 42.2502 100.275V103.605C42.2502 104.015 42.3202 104.3 42.4602 104.46C42.6102 104.61 42.8702 104.685 43.2402 104.685V105C42.4002 104.96 41.8402 104.94 41.5602 104.94C41.2802 104.94 40.6802 104.96 39.7602 105V104.685C40.1802 104.685 40.4752 104.61 40.6452 104.46C40.8152 104.3 40.9002 104.015 40.9002 103.605V98.91C40.9002 98.45 40.8152 98.115 40.6452 97.905C40.4752 97.695 40.1802 97.59 39.7602 97.59V97.275C40.0802 97.305 40.3902 97.32 40.6902 97.32C41.3202 97.32 41.8402 97.25 42.2502 97.11V98.88C42.5002 98.24 42.8452 97.78 43.2852 97.5C43.7352 97.21 44.2402 97.065 44.8002 97.065ZM54.8939 98.625C54.7139 98.625 54.5589 98.565 54.4289 98.445C54.3089 98.325 54.2489 98.15 54.2489 97.92C54.2489 97.72 54.2989 97.49 54.3989 97.23C54.1389 97.34 53.9339 97.465 53.7839 97.605C53.6339 97.735 53.4989 97.9 53.3789 98.1C53.6089 98.45 53.7239 98.895 53.7239 99.435C53.7239 100.225 53.4839 100.82 53.0039 101.22C52.5239 101.61 51.8889 101.805 51.0989 101.805H51.0839C50.7539 101.995 50.5039 102.17 50.3339 102.33C50.1639 102.49 50.0789 102.67 50.0789 102.87C50.0789 103.19 50.3189 103.35 50.7989 103.35H52.6739C53.3539 103.35 53.9139 103.5 54.3539 103.8C54.8039 104.09 55.0289 104.53 55.0289 105.12C55.0289 105.6 54.8739 106.045 54.5639 106.455C54.2539 106.865 53.7989 107.195 53.1989 107.445C52.5989 107.695 51.8739 107.82 51.0239 107.82C50.1539 107.82 49.4239 107.685 48.8339 107.415C48.2539 107.155 47.9639 106.765 47.9639 106.245C47.9639 105.905 48.0989 105.61 48.3689 105.36C48.6489 105.11 49.0339 104.915 49.5239 104.775L49.6139 105.015C49.3939 105.085 49.2189 105.225 49.0889 105.435C48.9589 105.645 48.8939 105.88 48.8939 106.14C48.8939 106.6 49.0989 106.95 49.5089 107.19C49.9289 107.44 50.4889 107.565 51.1889 107.565C51.9589 107.565 52.6189 107.415 53.1689 107.115C53.7189 106.825 53.9939 106.37 53.9939 105.75C53.9939 105.39 53.8639 105.11 53.6039 104.91C53.3539 104.71 52.9039 104.61 52.2539 104.61H51.1439C50.5539 104.61 50.0789 104.535 49.7189 104.385C49.3689 104.235 49.1939 103.935 49.1939 103.485C49.1939 103.175 49.3039 102.88 49.5239 102.6C49.7539 102.32 50.1289 102.045 50.6489 101.775C49.9889 101.705 49.4589 101.475 49.0589 101.085C48.6689 100.695 48.4739 100.145 48.4739 99.435C48.4739 98.645 48.7139 98.055 49.1939 97.665C49.6739 97.265 50.3089 97.065 51.0989 97.065C52.0389 97.065 52.7339 97.325 53.1839 97.845C53.3739 97.575 53.6139 97.355 53.9039 97.185C54.1939 97.005 54.4839 96.915 54.7739 96.915C55.0339 96.915 55.2439 96.99 55.4039 97.14C55.5639 97.29 55.6439 97.505 55.6439 97.785C55.6439 98.065 55.5639 98.275 55.4039 98.415C55.2539 98.555 55.0839 98.625 54.8939 98.625ZM51.0989 101.535C51.4989 101.535 51.7989 101.38 51.9989 101.07C52.2089 100.75 52.3139 100.205 52.3139 99.435C52.3139 98.665 52.2089 98.125 51.9989 97.815C51.7989 97.495 51.4989 97.335 51.0989 97.335C50.6989 97.335 50.3939 97.495 50.1839 97.815C49.9839 98.125 49.8839 98.665 49.8839 99.435C49.8839 100.205 49.9839 100.75 50.1839 101.07C50.3939 101.38 50.6989 101.535 51.0989 101.535ZM57.3437 103.29C57.7337 103.29 58.0287 103.45 58.2287 103.77C58.3987 104.04 58.4837 104.37 58.4837 104.76C58.4837 105.26 58.3537 105.71 58.0937 106.11C57.8437 106.51 57.4587 106.83 56.9387 107.07L56.8037 106.8C57.1137 106.67 57.3787 106.465 57.5987 106.185C57.8287 105.905 57.9437 105.62 57.9437 105.33C57.9437 105.21 57.9287 105.105 57.8987 105.015C57.7387 105.145 57.5537 105.21 57.3437 105.21C57.0737 105.21 56.8437 105.125 56.6537 104.955C56.4737 104.775 56.3837 104.54 56.3837 104.25C56.3837 103.98 56.4737 103.755 56.6537 103.575C56.8437 103.385 57.0737 103.29 57.3437 103.29ZM70.4925 103.74C70.7325 104.36 71.0775 104.68 71.5275 104.7V105C71.1275 104.97 70.5925 104.955 69.9225 104.955C69.0625 104.955 68.4225 104.97 68.0025 105V104.7C68.3825 104.68 68.6525 104.635 68.8125 104.565C68.9825 104.485 69.0675 104.345 69.0675 104.145C69.0675 103.975 69.0075 103.74 68.8875 103.44L67.9725 100.98H64.3425L63.7275 102.57C63.5275 103.11 63.4275 103.52 63.4275 103.8C63.4275 104.11 63.5325 104.335 63.7425 104.475C63.9625 104.615 64.2925 104.69 64.7325 104.7V105C64.1625 104.97 63.5875 104.955 63.0075 104.955C62.5575 104.955 62.1825 104.97 61.8825 105V104.7C62.3825 104.58 62.7775 104.145 63.0675 103.395L66.5925 94.305H66.8325L70.4925 103.74ZM67.8525 100.68L66.1725 96.195L64.4625 100.68H67.8525ZM76.6107 97.065C77.3107 97.065 77.8407 97.255 78.2007 97.635C78.3907 97.835 78.5257 98.085 78.6057 98.385C78.6857 98.685 78.7257 99.09 78.7257 99.6V103.605C78.7257 104.015 78.8107 104.3 78.9807 104.46C79.1507 104.61 79.4457 104.685 79.8657 104.685V105C78.9457 104.96 78.3457 104.94 78.0657 104.94C77.7857 104.94 77.2257 104.96 76.3857 105V104.685C76.7557 104.685 77.0107 104.61 77.1507 104.46C77.3007 104.3 77.3757 104.015 77.3757 103.605V99.27C77.3757 98.71 77.2957 98.285 77.1357 97.995C76.9757 97.695 76.6507 97.545 76.1607 97.545C75.7507 97.545 75.3857 97.665 75.0657 97.905C74.7457 98.145 74.4957 98.475 74.3157 98.895C74.1457 99.305 74.0607 99.765 74.0607 100.275V103.605C74.0607 104.015 74.1307 104.3 74.2707 104.46C74.4207 104.61 74.6807 104.685 75.0507 104.685V105C74.2107 104.96 73.6507 104.94 73.3707 104.94C73.0907 104.94 72.4907 104.96 71.5707 105V104.685C71.9907 104.685 72.2857 104.61 72.4557 104.46C72.6257 104.3 72.7107 104.015 72.7107 103.605V98.91C72.7107 98.45 72.6257 98.115 72.4557 97.905C72.2857 97.695 71.9907 97.59 71.5707 97.59V97.275C71.8907 97.305 72.2007 97.32 72.5007 97.32C73.1307 97.32 73.6507 97.25 74.0607 97.11V98.88C74.3107 98.24 74.6557 97.78 75.0957 97.5C75.5457 97.21 76.0507 97.065 76.6107 97.065ZM87.0459 103.365C87.0459 103.825 87.1309 104.16 87.3009 104.37C87.4709 104.58 87.7659 104.685 88.1859 104.685V105C87.8759 104.97 87.5659 104.955 87.2559 104.955C86.6259 104.955 86.1059 105.025 85.6959 105.165V103.83C85.5159 104.28 85.2459 104.625 84.8859 104.865C84.5259 105.095 84.0859 105.21 83.5659 105.21C82.6059 105.21 81.8509 104.865 81.3009 104.175C80.7609 103.485 80.4959 102.475 80.5059 101.145C80.5059 100.275 80.6559 99.535 80.9559 98.925C81.2659 98.305 81.6759 97.84 82.1859 97.53C82.7059 97.22 83.2759 97.065 83.8959 97.065C84.2759 97.065 84.6209 97.14 84.9309 97.29C85.2509 97.43 85.5059 97.65 85.6959 97.95V95.04C85.6959 94.58 85.6109 94.245 85.4409 94.035C85.2709 93.825 84.9759 93.72 84.5559 93.72V93.405C84.8759 93.435 85.1859 93.45 85.4859 93.45C86.1159 93.45 86.6359 93.38 87.0459 93.24V103.365ZM84.0009 104.76C84.3909 104.76 84.7409 104.61 85.0509 104.31C85.3609 104.01 85.5759 103.585 85.6959 103.035V98.565C85.4259 97.795 84.8659 97.41 84.0159 97.41C83.3959 97.41 82.8959 97.73 82.5159 98.37C82.1359 99 81.9509 99.925 81.9609 101.145C81.9509 102.345 82.1209 103.25 82.4709 103.86C82.8209 104.46 83.3309 104.76 84.0009 104.76ZM95.7771 93.27C96.2971 93.27 96.7321 93.405 97.0821 93.675C97.3921 93.925 97.5471 94.235 97.5471 94.605C97.5471 94.835 97.4721 95.025 97.3221 95.175C97.1721 95.325 96.9821 95.4 96.7521 95.4C96.5221 95.4 96.3271 95.33 96.1671 95.19C96.0071 95.04 95.9271 94.84 95.9271 94.59C95.9271 94.38 95.9821 94.21 96.0921 94.08C96.2121 93.95 96.3671 93.865 96.5571 93.825C96.5271 93.725 96.4471 93.645 96.3171 93.585C96.1871 93.525 96.0221 93.495 95.8221 93.495C95.6021 93.495 95.4071 93.545 95.2371 93.645C95.0671 93.745 94.9371 93.88 94.8471 94.05C94.7371 94.25 94.6621 94.545 94.6221 94.935C94.5921 95.325 94.5771 95.98 94.5771 96.9V97.29H96.1821V97.59H94.5771V103.455C94.5771 103.915 94.7071 104.235 94.9671 104.415C95.2371 104.595 95.6371 104.685 96.1671 104.685V105L95.8071 104.985C94.7871 104.955 94.1371 104.94 93.8571 104.94C93.5971 104.94 93.0071 104.96 92.0871 105V104.685C92.5071 104.685 92.8021 104.61 92.9721 104.46C93.1421 104.3 93.2271 104.015 93.2271 103.605V97.59H92.0271V97.29H93.2271C93.2271 96.41 93.2821 95.73 93.3921 95.25C93.5021 94.77 93.7021 94.36 93.9921 94.02C94.1921 93.79 94.4471 93.61 94.7571 93.48C95.0671 93.34 95.4071 93.27 95.7771 93.27ZM100.179 97.065C101.199 97.065 102.019 97.405 102.639 98.085C103.269 98.755 103.584 99.775 103.584 101.145C103.584 102.515 103.269 103.535 102.639 104.205C102.019 104.875 101.199 105.21 100.179 105.21C99.1586 105.21 98.3336 104.875 97.7036 104.205C97.0836 103.535 96.7736 102.515 96.7736 101.145C96.7736 99.775 97.0836 98.755 97.7036 98.085C98.3336 97.405 99.1586 97.065 100.179 97.065ZM100.179 97.365C99.5786 97.365 99.1036 97.675 98.7536 98.295C98.4036 98.905 98.2286 99.855 98.2286 101.145C98.2286 102.435 98.4036 103.385 98.7536 103.995C99.1036 104.605 99.5786 104.91 100.179 104.91C100.779 104.91 101.254 104.605 101.604 103.995C101.954 103.385 102.129 102.435 102.129 101.145C102.129 99.855 101.954 98.905 101.604 98.295C101.254 97.675 100.779 97.365 100.179 97.365ZM111.231 103.38C111.231 103.84 111.316 104.175 111.486 104.385C111.656 104.595 111.951 104.7 112.371 104.7V105.015C112.061 104.985 111.751 104.97 111.441 104.97C110.811 104.97 110.291 105.04 109.881 105.18V103.41C109.641 104.03 109.301 104.485 108.861 104.775C108.421 105.065 107.941 105.21 107.421 105.21C106.741 105.21 106.221 105.02 105.861 104.64C105.681 104.44 105.551 104.185 105.471 103.875C105.401 103.565 105.366 103.165 105.366 102.675V98.91C105.366 98.45 105.281 98.115 105.111 97.905C104.941 97.695 104.646 97.59 104.226 97.59V97.275C104.536 97.305 104.846 97.32 105.156 97.32C105.786 97.32 106.306 97.25 106.716 97.11V103.005C106.716 103.385 106.736 103.695 106.776 103.935C106.826 104.165 106.931 104.355 107.091 104.505C107.261 104.655 107.516 104.73 107.856 104.73C108.236 104.73 108.581 104.61 108.891 104.37C109.201 104.13 109.441 103.805 109.611 103.395C109.791 102.975 109.881 102.515 109.881 102.015V98.91C109.881 98.45 109.796 98.115 109.626 97.905C109.456 97.695 109.161 97.59 108.741 97.59V97.275C109.051 97.305 109.361 97.32 109.671 97.32C110.301 97.32 110.821 97.25 111.231 97.11V103.38ZM117.502 97.065C117.902 97.065 118.227 97.18 118.477 97.41C118.737 97.64 118.867 97.92 118.867 98.25C118.867 98.51 118.787 98.735 118.627 98.925C118.477 99.105 118.272 99.195 118.012 99.195C117.792 99.195 117.602 99.125 117.442 98.985C117.292 98.845 117.217 98.655 117.217 98.415C117.217 98.085 117.387 97.815 117.727 97.605C117.657 97.505 117.552 97.455 117.412 97.455C117.022 97.455 116.667 97.61 116.347 97.92C116.027 98.22 115.777 98.59 115.597 99.03C115.417 99.47 115.327 99.885 115.327 100.275V103.455C115.327 103.915 115.457 104.235 115.717 104.415C115.987 104.595 116.387 104.685 116.917 104.685V105L116.557 104.985C115.537 104.955 114.887 104.94 114.607 104.94C114.347 104.94 113.757 104.96 112.837 105V104.685C113.257 104.685 113.552 104.61 113.722 104.46C113.892 104.3 113.977 104.015 113.977 103.605V98.91C113.977 98.45 113.892 98.115 113.722 97.905C113.552 97.695 113.257 97.59 112.837 97.59V97.275C113.157 97.305 113.467 97.32 113.767 97.32C114.397 97.32 114.917 97.25 115.327 97.11V98.985C115.507 98.485 115.792 98.04 116.182 97.65C116.582 97.26 117.022 97.065 117.502 97.065ZM126.035 93.27C126.555 93.27 126.99 93.405 127.34 93.675C127.65 93.925 127.805 94.235 127.805 94.605C127.805 94.835 127.73 95.025 127.58 95.175C127.43 95.325 127.24 95.4 127.01 95.4C126.78 95.4 126.585 95.33 126.425 95.19C126.265 95.04 126.185 94.84 126.185 94.59C126.185 94.38 126.24 94.21 126.35 94.08C126.47 93.95 126.625 93.865 126.815 93.825C126.785 93.725 126.705 93.645 126.575 93.585C126.445 93.525 126.28 93.495 126.08 93.495C125.86 93.495 125.665 93.545 125.495 93.645C125.325 93.745 125.195 93.88 125.105 94.05C124.995 94.25 124.92 94.545 124.88 94.935C124.85 95.325 124.835 95.98 124.835 96.9V97.29H126.44V97.59H124.835V103.455C124.835 103.915 124.965 104.235 125.225 104.415C125.495 104.595 125.895 104.685 126.425 104.685V105L126.065 104.985C125.045 104.955 124.395 104.94 124.115 104.94C123.855 104.94 123.265 104.96 122.345 105V104.685C122.765 104.685 123.06 104.61 123.23 104.46C123.4 104.3 123.485 104.015 123.485 103.605V97.59H122.285V97.29H123.485C123.485 96.41 123.54 95.73 123.65 95.25C123.76 94.77 123.96 94.36 124.25 94.02C124.45 93.79 124.705 93.61 125.015 93.48C125.325 93.34 125.665 93.27 126.035 93.27ZM130.436 97.065C131.456 97.065 132.276 97.405 132.896 98.085C133.526 98.755 133.841 99.775 133.841 101.145C133.841 102.515 133.526 103.535 132.896 104.205C132.276 104.875 131.456 105.21 130.436 105.21C129.416 105.21 128.591 104.875 127.961 104.205C127.341 103.535 127.031 102.515 127.031 101.145C127.031 99.775 127.341 98.755 127.961 98.085C128.591 97.405 129.416 97.065 130.436 97.065ZM130.436 97.365C129.836 97.365 129.361 97.675 129.011 98.295C128.661 98.905 128.486 99.855 128.486 101.145C128.486 102.435 128.661 103.385 129.011 103.995C129.361 104.605 129.836 104.91 130.436 104.91C131.036 104.91 131.511 104.605 131.861 103.995C132.211 103.385 132.386 102.435 132.386 101.145C132.386 99.855 132.211 98.905 131.861 98.295C131.511 97.675 131.036 97.365 130.436 97.365ZM139.344 97.065C139.744 97.065 140.069 97.18 140.319 97.41C140.579 97.64 140.709 97.92 140.709 98.25C140.709 98.51 140.629 98.735 140.469 98.925C140.319 99.105 140.114 99.195 139.854 99.195C139.634 99.195 139.444 99.125 139.284 98.985C139.134 98.845 139.059 98.655 139.059 98.415C139.059 98.085 139.229 97.815 139.569 97.605C139.499 97.505 139.394 97.455 139.254 97.455C138.864 97.455 138.509 97.61 138.189 97.92C137.869 98.22 137.619 98.59 137.439 99.03C137.259 99.47 137.169 99.885 137.169 100.275V103.455C137.169 103.915 137.299 104.235 137.559 104.415C137.829 104.595 138.229 104.685 138.759 104.685V105L138.399 104.985C137.379 104.955 136.729 104.94 136.449 104.94C136.189 104.94 135.599 104.96 134.679 105V104.685C135.099 104.685 135.394 104.61 135.564 104.46C135.734 104.3 135.819 104.015 135.819 103.605V98.91C135.819 98.45 135.734 98.115 135.564 97.905C135.394 97.695 135.099 97.59 134.679 97.59V97.275C134.999 97.305 135.309 97.32 135.609 97.32C136.239 97.32 136.759 97.25 137.169 97.11V98.985C137.349 98.485 137.634 98.04 138.024 97.65C138.424 97.26 138.864 97.065 139.344 97.065ZM7.26 124.365C7.26 124.825 7.345 125.16 7.515 125.37C7.685 125.58 7.98 125.685 8.4 125.685V126C8.09 125.97 7.78 125.955 7.47 125.955C6.84 125.955 6.32 126.025 5.91 126.165V124.83C5.73 125.28 5.46 125.625 5.1 125.865C4.74 126.095 4.3 126.21 3.78 126.21C2.82 126.21 2.065 125.865 1.515 125.175C0.975 124.485 0.71 123.475 0.72 122.145C0.72 121.275 0.87 120.535 1.17 119.925C1.48 119.305 1.89 118.84 2.4 118.53C2.92 118.22 3.49 118.065 4.11 118.065C4.49 118.065 4.835 118.14 5.145 118.29C5.465 118.43 5.72 118.65 5.91 118.95V116.04C5.91 115.58 5.825 115.245 5.655 115.035C5.485 114.825 5.19 114.72 4.77 114.72V114.405C5.09 114.435 5.4 114.45 5.7 114.45C6.33 114.45 6.85 114.38 7.26 114.24V124.365ZM4.215 125.76C4.605 125.76 4.955 125.61 5.265 125.31C5.575 125.01 5.79 124.585 5.91 124.035V119.565C5.64 118.795 5.08 118.41 4.23 118.41C3.61 118.41 3.11 118.73 2.73 119.37C2.35 120 2.165 120.925 2.175 122.145C2.165 123.345 2.335 124.25 2.685 124.86C3.035 125.46 3.545 125.76 4.215 125.76ZM15.3608 124.2C15.1808 124.75 14.8408 125.225 14.3408 125.625C13.8508 126.015 13.2558 126.21 12.5558 126.21C11.8458 126.21 11.2308 126.05 10.7108 125.73C10.1908 125.4 9.79082 124.945 9.51082 124.365C9.24082 123.775 9.10582 123.095 9.10582 122.325C9.10582 121.455 9.24582 120.7 9.52582 120.06C9.80582 119.42 10.2008 118.93 10.7108 118.59C11.2208 118.24 11.8158 118.065 12.4958 118.065C13.3958 118.065 14.0858 118.34 14.5658 118.89C15.0558 119.43 15.3008 120.255 15.3008 121.365H10.6058C10.5758 121.645 10.5608 121.965 10.5608 122.325C10.5608 122.985 10.6658 123.56 10.8758 124.05C11.0958 124.54 11.3808 124.92 11.7308 125.19C12.0908 125.45 12.4658 125.58 12.8558 125.58C13.3358 125.58 13.7608 125.465 14.1308 125.235C14.5008 125.005 14.8108 124.62 15.0608 124.08L15.3608 124.2ZM12.4358 118.35C11.9658 118.35 11.5608 118.58 11.2208 119.04C10.8808 119.5 10.6708 120.18 10.5908 121.08H13.8608C13.8808 120.3 13.7658 119.65 13.5158 119.13C13.2758 118.61 12.9158 118.35 12.4358 118.35ZM18.1487 126.105C17.5187 126.105 17.0487 125.95 16.7387 125.64C16.4387 125.32 16.2887 124.88 16.2887 124.32C16.2887 123.87 16.4087 123.5 16.6487 123.21C16.8987 122.92 17.1887 122.69 17.5187 122.52C17.8587 122.35 18.3037 122.17 18.8537 121.98C19.4137 121.79 19.8287 121.615 20.0987 121.455C20.3687 121.295 20.5037 121.08 20.5037 120.81V119.88C20.5037 119.3 20.3787 118.905 20.1287 118.695C19.8887 118.475 19.5487 118.365 19.1087 118.365C18.4087 118.365 17.9137 118.545 17.6237 118.905C17.8237 118.955 17.9887 119.06 18.1187 119.22C18.2587 119.38 18.3287 119.58 18.3287 119.82C18.3287 120.07 18.2487 120.27 18.0887 120.42C17.9287 120.56 17.7237 120.63 17.4737 120.63C17.1937 120.63 16.9837 120.545 16.8437 120.375C16.7037 120.195 16.6337 119.98 16.6337 119.73C16.6337 119.49 16.6887 119.29 16.7987 119.13C16.9187 118.97 17.0937 118.81 17.3237 118.65C17.5637 118.48 17.8687 118.34 18.2387 118.23C18.6087 118.12 19.0137 118.065 19.4537 118.065C20.2337 118.065 20.8237 118.25 21.2237 118.62C21.4737 118.85 21.6387 119.13 21.7187 119.46C21.8087 119.78 21.8537 120.205 21.8537 120.735V124.905C21.8537 125.155 21.8887 125.335 21.9587 125.445C22.0287 125.555 22.1487 125.61 22.3187 125.61C22.4387 125.61 22.5487 125.585 22.6487 125.535C22.7587 125.475 22.8737 125.395 22.9937 125.295L23.1587 125.55C22.8987 125.75 22.6737 125.895 22.4837 125.985C22.3037 126.065 22.0737 126.105 21.7937 126.105C21.3137 126.105 20.9787 125.985 20.7887 125.745C20.5987 125.505 20.5037 125.18 20.5037 124.77C20.2037 125.27 19.8587 125.62 19.4687 125.82C19.0787 126.01 18.6387 126.105 18.1487 126.105ZM18.8087 125.505C19.4687 125.505 20.0337 125.125 20.5037 124.365V121.425C20.4137 121.565 20.2887 121.68 20.1287 121.77C19.9687 121.86 19.7237 121.98 19.3937 122.13C19.0137 122.29 18.7037 122.445 18.4637 122.595C18.2337 122.735 18.0337 122.93 17.8637 123.18C17.6937 123.43 17.6087 123.75 17.6087 124.14C17.6087 124.59 17.7187 124.93 17.9387 125.16C18.1587 125.39 18.4487 125.505 18.8087 125.505ZM25.7244 118.29H27.9444V118.59H25.7244V124.395C25.7244 124.845 25.8044 125.17 25.9644 125.37C26.1344 125.57 26.3744 125.67 26.6844 125.67C26.9944 125.67 27.2594 125.545 27.4794 125.295C27.6994 125.045 27.8844 124.635 28.0344 124.065L28.3344 124.14C28.0844 125.52 27.4344 126.21 26.3844 126.21C26.0444 126.21 25.7644 126.17 25.5444 126.09C25.3244 126.01 25.1294 125.885 24.9594 125.715C24.7394 125.495 24.5844 125.225 24.4944 124.905C24.4144 124.585 24.3744 124.155 24.3744 123.615V118.59H22.9344V118.29H24.3744V115.995C24.9344 115.975 25.3844 115.905 25.7244 115.785V118.29ZM30.6671 119.865C30.9171 119.235 31.2621 118.78 31.7021 118.5C32.1521 118.21 32.6571 118.065 33.2171 118.065C33.9171 118.065 34.4471 118.255 34.8071 118.635C34.9971 118.835 35.1321 119.085 35.2121 119.385C35.2921 119.685 35.3321 120.09 35.3321 120.6V124.605C35.3321 125.015 35.4171 125.3 35.5871 125.46C35.7571 125.61 36.0521 125.685 36.4721 125.685V126C35.5521 125.96 34.9521 125.94 34.6721 125.94C34.3921 125.94 33.8321 125.96 32.9921 126V125.685C33.3621 125.685 33.6171 125.61 33.7571 125.46C33.9071 125.3 33.9821 125.015 33.9821 124.605V120.27C33.9821 119.71 33.9021 119.285 33.7421 118.995C33.5821 118.695 33.2571 118.545 32.7671 118.545C32.3571 118.545 31.9921 118.66 31.6721 118.89C31.3621 119.12 31.1171 119.445 30.9371 119.865C30.7571 120.275 30.6671 120.74 30.6671 121.26V124.605C30.6671 125.015 30.7371 125.3 30.8771 125.46C31.0271 125.61 31.2871 125.685 31.6571 125.685V126C30.8171 125.96 30.2571 125.94 29.9771 125.94C29.6971 125.94 29.0971 125.96 28.1771 126V125.685C28.5971 125.685 28.8921 125.61 29.0621 125.46C29.2321 125.3 29.3171 125.015 29.3171 124.605V116.055C29.3171 115.595 29.2321 115.26 29.0621 115.05C28.8921 114.84 28.5971 114.735 28.1771 114.735V114.42C28.4971 114.45 28.8071 114.465 29.1071 114.465C29.7371 114.465 30.2571 114.395 30.6671 114.255V119.865Z" fill="#2A2921"/>
</svg>
