<svg width="169" height="136" viewBox="0 0 169 136" fill="none" xmlns="http://www.w3.org/2000/svg">
<path d="M14.8 26.52L4.3 16.34L4.36 26H2V10.94H2.12L12.58 21.26L12.54 11.44H14.86V26.52H14.8ZM20.735 26.36C19.9617 26.36 19.3217 26.1267 18.815 25.66C18.3083 25.18 18.0417 24.5667 18.015 23.82V17.54H20.255V23.02C20.2817 23.4467 20.4017 23.7933 20.615 24.06C20.8283 24.3133 21.1683 24.44 21.635 24.44C22.3017 24.44 22.8483 24.14 23.275 23.54C23.7017 22.94 23.915 22.1867 23.915 21.28V17.54H26.155V26H24.135L23.975 24.5C23.7083 25.0467 23.2883 25.4933 22.715 25.84C22.1417 26.1867 21.4817 26.36 20.735 26.36ZM30.8655 17.54L31.0255 19.5C31.2655 19.02 31.5921 18.6067 32.0055 18.26C32.4188 17.9 32.8388 17.6267 33.2655 17.44C33.7055 17.2533 34.0655 17.16 34.3455 17.16L34.2455 19.4C33.6055 19.3467 33.0455 19.46 32.5655 19.74C32.0988 20.02 31.7321 20.4 31.4655 20.88C31.2121 21.3467 31.0855 21.84 31.0855 22.36V26H28.8455V17.54H30.8655ZM38.7784 26.18C38.1384 26.18 37.5251 26.0667 36.9384 25.84C36.3651 25.6133 35.8784 25.28 35.4784 24.84L36.4384 23.58C36.8118 23.94 37.1784 24.2067 37.5384 24.38C37.9118 24.54 38.2651 24.62 38.5984 24.62C38.9718 24.62 39.2918 24.5533 39.5584 24.42C39.8384 24.2733 39.9784 24.0333 39.9784 23.7C39.9784 23.4333 39.8851 23.2267 39.6984 23.08C39.5118 22.92 39.2718 22.7933 38.9784 22.7C38.6851 22.5933 38.3784 22.4933 38.0584 22.4C37.3251 22.1733 36.7784 21.84 36.4184 21.4C36.0584 20.96 35.8784 20.4533 35.8784 19.88C35.8784 19.44 35.9918 19.02 36.2184 18.62C36.4451 18.2067 36.7851 17.8667 37.2384 17.6C37.7051 17.3333 38.2984 17.2 39.0184 17.2C39.6451 17.2 40.1984 17.2733 40.6784 17.42C41.1584 17.5667 41.6051 17.8 42.0184 18.12L41.1584 19.46C40.9184 19.2333 40.6318 19.06 40.2984 18.94C39.9784 18.8067 39.6851 18.7333 39.4184 18.72C39.0584 18.7067 38.7584 18.78 38.5184 18.94C38.2784 19.1 38.1584 19.3133 38.1584 19.58C38.1451 19.8467 38.2318 20.06 38.4184 20.22C38.6184 20.38 38.8718 20.5067 39.1784 20.6C39.4851 20.6933 39.7918 20.7933 40.0984 20.9C40.7118 21.1 41.2184 21.3867 41.6184 21.76C42.0184 22.12 42.2184 22.6267 42.2184 23.28C42.2184 23.8 42.0918 24.28 41.8384 24.72C41.5851 25.16 41.2051 25.5133 40.6984 25.78C40.1918 26.0467 39.5518 26.18 38.7784 26.18ZM48.3355 26.22C47.3355 26.22 46.4821 26.0267 45.7755 25.64C45.0688 25.2533 44.5288 24.72 44.1555 24.04C43.7821 23.3467 43.5955 22.5667 43.5955 21.7C43.5955 20.86 43.8088 20.1 44.2355 19.42C44.6621 18.7267 45.2355 18.18 45.9555 17.78C46.6755 17.3667 47.4821 17.16 48.3755 17.16C49.5355 17.16 50.4888 17.5 51.2355 18.18C51.9955 18.8467 52.5021 19.7933 52.7555 21.02L46.2555 23.22C46.7355 23.94 47.4421 24.3 48.3755 24.3C48.7221 24.3 49.0488 24.24 49.3555 24.12C49.6755 24 49.9821 23.84 50.2755 23.64L51.2955 25.3C50.8421 25.58 50.3555 25.8067 49.8355 25.98C49.3155 26.14 48.8155 26.22 48.3355 26.22ZM45.7955 21.58C45.7955 21.6867 45.8021 21.8 45.8155 21.92L50.2555 20.34C50.0955 19.9667 49.8555 19.64 49.5355 19.36C49.2155 19.0667 48.7688 18.92 48.1955 18.92C47.4888 18.92 46.9088 19.1667 46.4555 19.66C46.0155 20.1533 45.7955 20.7933 45.7955 21.58ZM56.5795 17.54L56.7395 19.5C56.9795 19.02 57.3062 18.6067 57.7195 18.26C58.1329 17.9 58.5529 17.6267 58.9795 17.44C59.4195 17.2533 59.7795 17.16 60.0595 17.16L59.9595 19.4C59.3195 19.3467 58.7595 19.46 58.2795 19.74C57.8129 20.02 57.4462 20.4 57.1795 20.88C56.9262 21.3467 56.7995 21.84 56.7995 22.36V26H54.5595V17.54H56.5795ZM62.6525 30.06L64.6325 25.66L60.7125 17.54H63.2325L65.7525 23.14L68.2725 17.54H70.3125L64.8525 30.06H62.6525ZM82.3141 11.44C83.3941 11.44 84.3341 11.6267 85.1341 12C85.9474 12.36 86.5741 12.8933 87.0141 13.6C87.4674 14.2933 87.6941 15.1333 87.6941 16.12C87.6941 16.9467 87.5141 17.7533 87.1541 18.54C86.7941 19.3267 86.1874 19.94 85.3341 20.38L88.8741 26H86.1741L82.8941 20.94C82.8141 20.94 82.7341 20.94 82.6541 20.94H80.5541V26H78.2141V11.44H82.3141ZM82.6341 18.7C83.3274 18.7 83.8674 18.5667 84.2541 18.3C84.6407 18.02 84.9074 17.6867 85.0541 17.3C85.2141 16.9 85.2941 16.5333 85.2941 16.2C85.2941 15.88 85.2207 15.5267 85.0741 15.14C84.9274 14.74 84.6674 14.4 84.2941 14.12C83.9207 13.8267 83.3941 13.68 82.7141 13.68H80.5541V18.7H82.6341ZM90.7525 26V10.4H92.9525V19C93.2458 18.4667 93.6725 18.0333 94.2325 17.7C94.8058 17.3533 95.4858 17.18 96.2725 17.18C97.0592 17.18 97.7125 17.42 98.2325 17.9C98.7658 18.3667 99.0392 18.9733 99.0525 19.72V26H96.8125V20.52C96.7858 20.0933 96.6592 19.7533 96.4325 19.5C96.2192 19.2333 95.8658 19.0933 95.3725 19.08C94.6792 19.08 94.1058 19.38 93.6525 19.98C93.2125 20.58 92.9925 21.3333 92.9925 22.24V26H90.7525ZM102.439 30.06L104.419 25.66L100.499 17.54H103.019L105.539 23.14L108.059 17.54H110.099L104.639 30.06H102.439ZM113.555 17.54L113.715 19.04C114.035 18.4533 114.468 17.9933 115.015 17.66C115.561 17.3267 116.195 17.16 116.915 17.16C117.608 17.16 118.188 17.3133 118.655 17.62C119.121 17.9267 119.408 18.3533 119.515 18.9C119.875 18.3667 120.315 17.9467 120.835 17.64C121.368 17.32 121.928 17.16 122.515 17.16C123.355 17.16 124.015 17.4 124.495 17.88C124.988 18.3467 125.241 18.9533 125.255 19.7V26H123.035V20.56C123.008 20.16 122.915 19.8267 122.755 19.56C122.595 19.28 122.301 19.1267 121.875 19.1C121.395 19.1 120.981 19.2533 120.635 19.56C120.288 19.8533 120.015 20.24 119.815 20.72C119.628 21.1867 119.535 21.68 119.535 22.2V26H117.275V20.56C117.261 20.16 117.168 19.8267 116.995 19.56C116.821 19.28 116.515 19.1267 116.075 19.1C115.608 19.1 115.201 19.2533 114.855 19.56C114.508 19.8533 114.241 20.24 114.055 20.72C113.868 21.1867 113.775 21.68 113.775 22.2V26H111.535V17.54H113.555ZM131.971 26.22C130.971 26.22 130.118 26.0267 129.411 25.64C128.705 25.2533 128.165 24.72 127.791 24.04C127.418 23.3467 127.231 22.5667 127.231 21.7C127.231 20.86 127.445 20.1 127.871 19.42C128.298 18.7267 128.871 18.18 129.591 17.78C130.311 17.3667 131.118 17.16 132.011 17.16C133.171 17.16 134.125 17.5 134.871 18.18C135.631 18.8467 136.138 19.7933 136.391 21.02L129.891 23.22C130.371 23.94 131.078 24.3 132.011 24.3C132.358 24.3 132.685 24.24 132.991 24.12C133.311 24 133.618 23.84 133.911 23.64L134.931 25.3C134.478 25.58 133.991 25.8067 133.471 25.98C132.951 26.14 132.451 26.22 131.971 26.22ZM129.431 21.58C129.431 21.6867 129.438 21.8 129.451 21.92L133.891 20.34C133.731 19.9667 133.491 19.64 133.171 19.36C132.851 19.0667 132.405 18.92 131.831 18.92C131.125 18.92 130.545 19.1667 130.091 19.66C129.651 20.1533 129.431 20.7933 129.431 21.58ZM140.735 26.18C140.095 26.18 139.482 26.0667 138.895 25.84C138.322 25.6133 137.835 25.28 137.435 24.84L138.395 23.58C138.769 23.94 139.135 24.2067 139.495 24.38C139.869 24.54 140.222 24.62 140.555 24.62C140.929 24.62 141.249 24.5533 141.515 24.42C141.795 24.2733 141.935 24.0333 141.935 23.7C141.935 23.4333 141.842 23.2267 141.655 23.08C141.469 22.92 141.229 22.7933 140.935 22.7C140.642 22.5933 140.335 22.4933 140.015 22.4C139.282 22.1733 138.735 21.84 138.375 21.4C138.015 20.96 137.835 20.4533 137.835 19.88C137.835 19.44 137.949 19.02 138.175 18.62C138.402 18.2067 138.742 17.8667 139.195 17.6C139.662 17.3333 140.255 17.2 140.975 17.2C141.602 17.2 142.155 17.2733 142.635 17.42C143.115 17.5667 143.562 17.8 143.975 18.12L143.115 19.46C142.875 19.2333 142.589 19.06 142.255 18.94C141.935 18.8067 141.642 18.7333 141.375 18.72C141.015 18.7067 140.715 18.78 140.475 18.94C140.235 19.1 140.115 19.3133 140.115 19.58C140.102 19.8467 140.189 20.06 140.375 20.22C140.575 20.38 140.829 20.5067 141.135 20.6C141.442 20.6933 141.749 20.7933 142.055 20.9C142.669 21.1 143.175 21.3867 143.575 21.76C143.975 22.12 144.175 22.6267 144.175 23.28C144.175 23.8 144.049 24.28 143.795 24.72C143.542 25.16 143.162 25.5133 142.655 25.78C142.149 26.0467 141.509 26.18 140.735 26.18Z" fill="#2A2921"/>
<path d="M11.3025 56.63C11.3025 57.435 11.175 58.175 10.92 58.85C10.665 59.52 10.305 60.0975 9.84 60.5825C9.375 61.0675 8.815 61.445 8.16 61.715C7.51 61.98 6.79 62.1125 6 62.1125C5.21 62.1125 4.49 61.98 3.84 61.715C3.19 61.445 2.6325 61.0675 2.1675 60.5825C1.7025 60.0975 1.3425 59.52 1.0875 58.85C0.8325 58.175 0.705 57.435 0.705 56.63C0.705 55.825 0.8325 55.0875 1.0875 54.4175C1.3425 53.7425 1.7025 53.1625 2.1675 52.6775C2.6325 52.1875 3.19 51.8075 3.84 51.5375C4.49 51.2675 5.21 51.1325 6 51.1325C6.79 51.1325 7.51 51.2675 8.16 51.5375C8.815 51.8075 9.375 52.1875 9.84 52.6775C10.305 53.1625 10.665 53.7425 10.92 54.4175C11.175 55.0875 11.3025 55.825 11.3025 56.63ZM9.81 56.63C9.81 55.97 9.72 55.3775 9.54 54.8525C9.36 54.3275 9.105 53.885 8.775 53.525C8.445 53.16 8.045 52.88 7.575 52.685C7.105 52.49 6.58 52.3925 6 52.3925C5.425 52.3925 4.9025 52.49 4.4325 52.685C3.9625 52.88 3.56 53.16 3.225 53.525C2.895 53.885 2.64 54.3275 2.46 54.8525C2.28 55.3775 2.19 55.97 2.19 56.63C2.19 57.29 2.28 57.8825 2.46 58.4075C2.64 58.9275 2.895 59.37 3.225 59.735C3.56 60.095 3.9625 60.3725 4.4325 60.5675C4.9025 60.7575 5.425 60.8525 6 60.8525C6.58 60.8525 7.105 60.7575 7.575 60.5675C8.045 60.3725 8.445 60.095 8.775 59.735C9.105 59.37 9.36 58.9275 9.54 58.4075C9.72 57.8825 9.81 57.29 9.81 56.63ZM13.8827 55.505C14.0477 55.32 14.2227 55.1525 14.4077 55.0025C14.5927 54.8525 14.7877 54.725 14.9927 54.62C15.2027 54.51 15.4227 54.4275 15.6527 54.3725C15.8877 54.3125 16.1402 54.2825 16.4102 54.2825C16.8252 54.2825 17.1902 54.3525 17.5052 54.4925C17.8252 54.6275 18.0902 54.8225 18.3002 55.0775C18.5152 55.3275 18.6777 55.63 18.7877 55.985C18.8977 56.34 18.9527 56.7325 18.9527 57.1625V62H17.6102V57.1625C17.6102 56.5875 17.4777 56.1425 17.2127 55.8275C16.9527 55.5075 16.5552 55.3475 16.0202 55.3475C15.6252 55.3475 15.2552 55.4425 14.9102 55.6325C14.5702 55.8225 14.2552 56.08 13.9652 56.405V62H12.6227V54.4025H13.4252C13.6152 54.4025 13.7327 54.495 13.7777 54.68L13.8827 55.505ZM25.772 57.3725C25.772 57.0625 25.727 56.78 25.637 56.525C25.552 56.265 25.4245 56.0425 25.2545 55.8575C25.0895 55.6675 24.887 55.5225 24.647 55.4225C24.407 55.3175 24.1345 55.265 23.8295 55.265C23.1895 55.265 22.682 55.4525 22.307 55.8275C21.937 56.1975 21.707 56.7125 21.617 57.3725H25.772ZM26.852 60.935C26.687 61.135 26.4895 61.31 26.2595 61.46C26.0295 61.605 25.782 61.725 25.517 61.82C25.257 61.915 24.987 61.985 24.707 62.03C24.427 62.08 24.1495 62.105 23.8745 62.105C23.3495 62.105 22.8645 62.0175 22.4195 61.8425C21.9795 61.6625 21.597 61.4025 21.272 61.0625C20.952 60.7175 20.702 60.2925 20.522 59.7875C20.342 59.2825 20.252 58.7025 20.252 58.0475C20.252 57.5175 20.332 57.0225 20.492 56.5625C20.657 56.1025 20.892 55.705 21.197 55.37C21.502 55.03 21.8745 54.765 22.3145 54.575C22.7545 54.38 23.2495 54.2825 23.7995 54.2825C24.2545 54.2825 24.6745 54.36 25.0595 54.515C25.4495 54.665 25.7845 54.885 26.0645 55.175C26.3495 55.46 26.572 55.815 26.732 56.24C26.892 56.66 26.972 57.14 26.972 57.68C26.972 57.89 26.9495 58.03 26.9045 58.1C26.8595 58.17 26.7745 58.205 26.6495 58.205H21.572C21.587 58.685 21.652 59.1025 21.767 59.4575C21.887 59.8125 22.052 60.11 22.262 60.35C22.472 60.585 22.722 60.7625 23.012 60.8825C23.302 60.9975 23.627 61.055 23.987 61.055C24.322 61.055 24.6095 61.0175 24.8495 60.9425C25.0945 60.8625 25.3045 60.7775 25.4795 60.6875C25.6545 60.5975 25.7995 60.515 25.9145 60.44C26.0345 60.36 26.137 60.32 26.222 60.32C26.332 60.32 26.417 60.3625 26.477 60.4475L26.852 60.935ZM32.3447 62V55.5425L31.5047 55.445C31.3997 55.42 31.3122 55.3825 31.2422 55.3325C31.1772 55.2775 31.1447 55.2 31.1447 55.1V54.5525H32.3447V53.8175C32.3447 53.3825 32.4047 52.9975 32.5247 52.6625C32.6497 52.3225 32.8247 52.0375 33.0497 51.8075C33.2797 51.5725 33.5547 51.395 33.8747 51.275C34.1947 51.155 34.5547 51.095 34.9547 51.095C35.2947 51.095 35.6072 51.145 35.8922 51.245L35.8622 51.9125C35.8522 52.0325 35.7847 52.0975 35.6597 52.1075C35.5397 52.1175 35.3772 52.1225 35.1722 52.1225C34.9422 52.1225 34.7322 52.1525 34.5422 52.2125C34.3572 52.2725 34.1972 52.37 34.0622 52.505C33.9272 52.64 33.8222 52.8175 33.7472 53.0375C33.6772 53.2575 33.6422 53.53 33.6422 53.855V54.5525H35.8322V55.52H33.6872V62H32.3447ZM39.762 54.2825C40.317 54.2825 40.817 54.375 41.262 54.56C41.707 54.745 42.087 55.0075 42.402 55.3475C42.717 55.6875 42.957 56.1 43.122 56.585C43.292 57.065 43.377 57.6025 43.377 58.1975C43.377 58.7975 43.292 59.3375 43.122 59.8175C42.957 60.2975 42.717 60.7075 42.402 61.0475C42.087 61.3875 41.707 61.65 41.262 61.835C40.817 62.015 40.317 62.105 39.762 62.105C39.202 62.105 38.697 62.015 38.247 61.835C37.802 61.65 37.422 61.3875 37.107 61.0475C36.792 60.7075 36.5495 60.2975 36.3795 59.8175C36.2145 59.3375 36.132 58.7975 36.132 58.1975C36.132 57.6025 36.2145 57.065 36.3795 56.585C36.5495 56.1 36.792 55.6875 37.107 55.3475C37.422 55.0075 37.802 54.745 38.247 54.56C38.697 54.375 39.202 54.2825 39.762 54.2825ZM39.762 61.0625C40.512 61.0625 41.072 60.8125 41.442 60.3125C41.812 59.8075 41.997 59.105 41.997 58.205C41.997 57.3 41.812 56.595 41.442 56.09C41.072 55.585 40.512 55.3325 39.762 55.3325C39.382 55.3325 39.0495 55.3975 38.7645 55.5275C38.4845 55.6575 38.2495 55.845 38.0595 56.09C37.8745 56.335 37.7345 56.6375 37.6395 56.9975C37.5495 57.3525 37.5045 57.755 37.5045 58.205C37.5045 59.105 37.6895 59.8075 38.0595 60.3125C38.4345 60.8125 39.002 61.0625 39.762 61.0625ZM46.0377 55.925C46.2777 55.405 46.5727 55 46.9227 54.71C47.2727 54.415 47.7002 54.2675 48.2052 54.2675C48.3652 54.2675 48.5177 54.285 48.6627 54.32C48.8127 54.355 48.9452 54.41 49.0602 54.485L48.9627 55.4825C48.9327 55.6075 48.8577 55.67 48.7377 55.67C48.6677 55.67 48.5652 55.655 48.4302 55.625C48.2952 55.595 48.1427 55.58 47.9727 55.58C47.7327 55.58 47.5177 55.615 47.3277 55.685C47.1427 55.755 46.9752 55.86 46.8252 56C46.6802 56.135 46.5477 56.305 46.4277 56.51C46.3127 56.71 46.2077 56.94 46.1127 57.2V62H44.7702V54.4025H45.5352C45.6802 54.4025 45.7802 54.43 45.8352 54.485C45.8902 54.54 45.9277 54.635 45.9477 54.77L46.0377 55.925ZM57.5747 55.655C57.5147 55.765 57.4222 55.82 57.2972 55.82C57.2222 55.82 57.1372 55.7925 57.0422 55.7375C56.9472 55.6825 56.8297 55.6225 56.6897 55.5575C56.5547 55.4875 56.3922 55.425 56.2022 55.37C56.0122 55.31 55.7872 55.28 55.5272 55.28C55.3022 55.28 55.0997 55.31 54.9197 55.37C54.7397 55.425 54.5847 55.5025 54.4547 55.6025C54.3297 55.7025 54.2322 55.82 54.1622 55.955C54.0972 56.085 54.0647 56.2275 54.0647 56.3825C54.0647 56.5775 54.1197 56.74 54.2297 56.87C54.3447 57 54.4947 57.1125 54.6797 57.2075C54.8647 57.3025 55.0747 57.3875 55.3097 57.4625C55.5447 57.5325 55.7847 57.61 56.0297 57.695C56.2797 57.775 56.5222 57.865 56.7572 57.965C56.9922 58.065 57.2022 58.19 57.3872 58.34C57.5722 58.49 57.7197 58.675 57.8297 58.895C57.9447 59.11 58.0022 59.37 58.0022 59.675C58.0022 60.025 57.9397 60.35 57.8147 60.65C57.6897 60.945 57.5047 61.2025 57.2597 61.4225C57.0147 61.6375 56.7147 61.8075 56.3597 61.9325C56.0047 62.0575 55.5947 62.12 55.1297 62.12C54.5997 62.12 54.1197 62.035 53.6897 61.865C53.2597 61.69 52.8947 61.4675 52.5947 61.1975L52.9097 60.6875C52.9497 60.6225 52.9972 60.5725 53.0522 60.5375C53.1072 60.5025 53.1772 60.485 53.2622 60.485C53.3522 60.485 53.4472 60.52 53.5472 60.59C53.6472 60.66 53.7672 60.7375 53.9072 60.8225C54.0522 60.9075 54.2272 60.985 54.4322 61.055C54.6372 61.125 54.8922 61.16 55.1972 61.16C55.4572 61.16 55.6847 61.1275 55.8797 61.0625C56.0747 60.9925 56.2372 60.9 56.3672 60.785C56.4972 60.67 56.5922 60.5375 56.6522 60.3875C56.7172 60.2375 56.7497 60.0775 56.7497 59.9075C56.7497 59.6975 56.6922 59.525 56.5772 59.39C56.4672 59.25 56.3197 59.1325 56.1347 59.0375C55.9497 58.9375 55.7372 58.8525 55.4972 58.7825C55.2622 58.7075 55.0197 58.63 54.7697 58.55C54.5247 58.47 54.2822 58.38 54.0422 58.28C53.8072 58.175 53.5972 58.045 53.4122 57.89C53.2272 57.735 53.0772 57.545 52.9622 57.32C52.8522 57.09 52.7972 56.8125 52.7972 56.4875C52.7972 56.1975 52.8572 55.92 52.9772 55.655C53.0972 55.385 53.2722 55.15 53.5022 54.95C53.7322 54.745 54.0147 54.5825 54.3497 54.4625C54.6847 54.3425 55.0672 54.2825 55.4972 54.2825C55.9972 54.2825 56.4447 54.3625 56.8397 54.5225C57.2397 54.6775 57.5847 54.8925 57.8747 55.1675L57.5747 55.655ZM62.5414 54.2825C63.0964 54.2825 63.5964 54.375 64.0414 54.56C64.4864 54.745 64.8664 55.0075 65.1814 55.3475C65.4964 55.6875 65.7364 56.1 65.9014 56.585C66.0714 57.065 66.1564 57.6025 66.1564 58.1975C66.1564 58.7975 66.0714 59.3375 65.9014 59.8175C65.7364 60.2975 65.4964 60.7075 65.1814 61.0475C64.8664 61.3875 64.4864 61.65 64.0414 61.835C63.5964 62.015 63.0964 62.105 62.5414 62.105C61.9814 62.105 61.4764 62.015 61.0264 61.835C60.5814 61.65 60.2014 61.3875 59.8864 61.0475C59.5714 60.7075 59.3289 60.2975 59.1589 59.8175C58.9939 59.3375 58.9114 58.7975 58.9114 58.1975C58.9114 57.6025 58.9939 57.065 59.1589 56.585C59.3289 56.1 59.5714 55.6875 59.8864 55.3475C60.2014 55.0075 60.5814 54.745 61.0264 54.56C61.4764 54.375 61.9814 54.2825 62.5414 54.2825ZM62.5414 61.0625C63.2914 61.0625 63.8514 60.8125 64.2214 60.3125C64.5914 59.8075 64.7764 59.105 64.7764 58.205C64.7764 57.3 64.5914 56.595 64.2214 56.09C63.8514 55.585 63.2914 55.3325 62.5414 55.3325C62.1614 55.3325 61.8289 55.3975 61.5439 55.5275C61.2639 55.6575 61.0289 55.845 60.8389 56.09C60.6539 56.335 60.5139 56.6375 60.4189 56.9975C60.3289 57.3525 60.2839 57.755 60.2839 58.205C60.2839 59.105 60.4689 59.8075 60.8389 60.3125C61.2139 60.8125 61.7814 61.0625 62.5414 61.0625ZM68.8172 55.925C69.0572 55.405 69.3522 55 69.7022 54.71C70.0522 54.415 70.4797 54.2675 70.9847 54.2675C71.1447 54.2675 71.2972 54.285 71.4422 54.32C71.5922 54.355 71.7247 54.41 71.8397 54.485L71.7422 55.4825C71.7122 55.6075 71.6372 55.67 71.5172 55.67C71.4472 55.67 71.3447 55.655 71.2097 55.625C71.0747 55.595 70.9222 55.58 70.7522 55.58C70.5122 55.58 70.2972 55.615 70.1072 55.685C69.9222 55.755 69.7547 55.86 69.6047 56C69.4597 56.135 69.3272 56.305 69.2072 56.51C69.0922 56.71 68.9872 56.94 68.8922 57.2V62H67.5497V54.4025H68.3147C68.4597 54.4025 68.5597 54.43 68.6147 54.485C68.6697 54.54 68.7072 54.635 68.7272 54.77L68.8172 55.925ZM73.9811 55.925C74.2211 55.405 74.5161 55 74.8661 54.71C75.2161 54.415 75.6436 54.2675 76.1486 54.2675C76.3086 54.2675 76.4611 54.285 76.6061 54.32C76.7561 54.355 76.8886 54.41 77.0036 54.485L76.9061 55.4825C76.8761 55.6075 76.8011 55.67 76.6811 55.67C76.6111 55.67 76.5086 55.655 76.3736 55.625C76.2386 55.595 76.0861 55.58 75.9161 55.58C75.6761 55.58 75.4611 55.615 75.2711 55.685C75.0861 55.755 74.9186 55.86 74.7686 56C74.6236 56.135 74.4911 56.305 74.3711 56.51C74.2561 56.71 74.1511 56.94 74.0561 57.2V62H72.7136V54.4025H73.4786C73.6236 54.4025 73.7236 54.43 73.7786 54.485C73.8336 54.54 73.8711 54.635 73.8911 54.77L73.9811 55.925ZM80.7723 54.2825C81.3273 54.2825 81.8273 54.375 82.2723 54.56C82.7173 54.745 83.0973 55.0075 83.4123 55.3475C83.7273 55.6875 83.9673 56.1 84.1323 56.585C84.3023 57.065 84.3873 57.6025 84.3873 58.1975C84.3873 58.7975 84.3023 59.3375 84.1323 59.8175C83.9673 60.2975 83.7273 60.7075 83.4123 61.0475C83.0973 61.3875 82.7173 61.65 82.2723 61.835C81.8273 62.015 81.3273 62.105 80.7723 62.105C80.2123 62.105 79.7073 62.015 79.2573 61.835C78.8123 61.65 78.4323 61.3875 78.1173 61.0475C77.8023 60.7075 77.5598 60.2975 77.3898 59.8175C77.2248 59.3375 77.1423 58.7975 77.1423 58.1975C77.1423 57.6025 77.2248 57.065 77.3898 56.585C77.5598 56.1 77.8023 55.6875 78.1173 55.3475C78.4323 55.0075 78.8123 54.745 79.2573 54.56C79.7073 54.375 80.2123 54.2825 80.7723 54.2825ZM80.7723 61.0625C81.5223 61.0625 82.0823 60.8125 82.4523 60.3125C82.8223 59.8075 83.0073 59.105 83.0073 58.205C83.0073 57.3 82.8223 56.595 82.4523 56.09C82.0823 55.585 81.5223 55.3325 80.7723 55.3325C80.3923 55.3325 80.0598 55.3975 79.7748 55.5275C79.4948 55.6575 79.2598 55.845 79.0698 56.09C78.8848 56.335 78.7448 56.6375 78.6498 56.9975C78.5598 57.3525 78.5148 57.755 78.5148 58.205C78.5148 59.105 78.6998 59.8075 79.0698 60.3125C79.4448 60.8125 80.0123 61.0625 80.7723 61.0625ZM96.1409 54.4025L93.6809 62H92.6234C92.4934 62 92.4034 61.915 92.3534 61.745L90.6734 56.5925C90.6334 56.4775 90.6009 56.3625 90.5759 56.2475C90.5509 56.1275 90.5259 56.01 90.5009 55.895C90.4759 56.01 90.4509 56.1275 90.4259 56.2475C90.4009 56.3625 90.3684 56.48 90.3284 56.6L88.6184 61.745C88.5734 61.915 88.4734 62 88.3184 62H87.3134L84.8534 54.4025H85.9034C86.0084 54.4025 86.0959 54.43 86.1659 54.485C86.2409 54.54 86.2909 54.605 86.3159 54.68L87.7709 59.57C87.8559 59.93 87.9234 60.27 87.9734 60.59C88.0184 60.425 88.0634 60.2575 88.1084 60.0875C88.1584 59.9175 88.2109 59.745 88.2659 59.57L89.8709 54.65C89.8959 54.575 89.9384 54.5125 89.9984 54.4625C90.0634 54.4125 90.1409 54.3875 90.2309 54.3875H90.8159C90.9159 54.3875 90.9984 54.4125 91.0634 54.4625C91.1284 54.5125 91.1734 54.575 91.1984 54.65L92.7659 59.57C92.8209 59.745 92.8709 59.9175 92.9159 60.0875C92.9609 60.2575 93.0034 60.425 93.0434 60.59C93.0684 60.425 93.0984 60.26 93.1334 60.095C93.1734 59.925 93.2159 59.75 93.2609 59.57L94.7459 54.68C94.7709 54.6 94.8184 54.535 94.8884 54.485C94.9584 54.43 95.0409 54.4025 95.1359 54.4025H96.1409ZM96.7066 63.815C96.6666 63.78 96.6391 63.7475 96.6241 63.7175C96.6091 63.6875 96.6016 63.65 96.6016 63.605C96.6016 63.57 96.6116 63.535 96.6316 63.5C96.6566 63.465 96.6841 63.4325 96.7141 63.4025C96.7641 63.3475 96.8266 63.275 96.9016 63.185C96.9816 63.095 97.0616 62.9875 97.1416 62.8625C97.2216 62.7425 97.2941 62.6075 97.3591 62.4575C97.4291 62.3125 97.4791 62.1575 97.5091 61.9925C97.4941 61.9975 97.4766 62 97.4566 62C97.4416 62 97.4266 62 97.4116 62C97.1516 62 96.9391 61.915 96.7741 61.745C96.6141 61.57 96.5341 61.3475 96.5341 61.0775C96.5341 60.8425 96.6141 60.6425 96.7741 60.4775C96.9391 60.3125 97.1566 60.23 97.4266 60.23C97.5766 60.23 97.7091 60.2575 97.8241 60.3125C97.9391 60.3675 98.0341 60.445 98.1091 60.545C98.1891 60.64 98.2491 60.7525 98.2891 60.8825C98.3291 61.0075 98.3491 61.145 98.3491 61.295C98.3491 61.52 98.3166 61.755 98.2516 62C98.1916 62.24 98.0991 62.4775 97.9741 62.7125C97.8541 62.9525 97.7066 63.185 97.5316 63.41C97.3566 63.635 97.1566 63.8425 96.9316 64.0325L96.7066 63.815ZM110.554 52.475H107.074V62H105.626V52.475H102.139V51.2525H110.554V52.475ZM120.693 54.4025L118.233 62H117.175C117.045 62 116.955 61.915 116.905 61.745L115.225 56.5925C115.185 56.4775 115.153 56.3625 115.128 56.2475C115.103 56.1275 115.078 56.01 115.053 55.895C115.028 56.01 115.003 56.1275 114.978 56.2475C114.953 56.3625 114.92 56.48 114.88 56.6L113.17 61.745C113.125 61.915 113.025 62 112.87 62H111.865L109.405 54.4025H110.455C110.56 54.4025 110.648 54.43 110.718 54.485C110.793 54.54 110.843 54.605 110.868 54.68L112.323 59.57C112.408 59.93 112.475 60.27 112.525 60.59C112.57 60.425 112.615 60.2575 112.66 60.0875C112.71 59.9175 112.763 59.745 112.818 59.57L114.423 54.65C114.448 54.575 114.49 54.5125 114.55 54.4625C114.615 54.4125 114.693 54.3875 114.783 54.3875H115.368C115.468 54.3875 115.55 54.4125 115.615 54.4625C115.68 54.5125 115.725 54.575 115.75 54.65L117.318 59.57C117.373 59.745 117.423 59.9175 117.468 60.0875C117.513 60.2575 117.555 60.425 117.595 60.59C117.62 60.425 117.65 60.26 117.685 60.095C117.725 59.925 117.768 59.75 117.813 59.57L119.298 54.68C119.323 54.6 119.37 54.535 119.44 54.485C119.51 54.43 119.593 54.4025 119.688 54.4025H120.693ZM124.793 54.2825C125.348 54.2825 125.848 54.375 126.293 54.56C126.738 54.745 127.118 55.0075 127.433 55.3475C127.748 55.6875 127.988 56.1 128.153 56.585C128.323 57.065 128.408 57.6025 128.408 58.1975C128.408 58.7975 128.323 59.3375 128.153 59.8175C127.988 60.2975 127.748 60.7075 127.433 61.0475C127.118 61.3875 126.738 61.65 126.293 61.835C125.848 62.015 125.348 62.105 124.793 62.105C124.233 62.105 123.728 62.015 123.278 61.835C122.833 61.65 122.453 61.3875 122.138 61.0475C121.823 60.7075 121.58 60.2975 121.41 59.8175C121.245 59.3375 121.163 58.7975 121.163 58.1975C121.163 57.6025 121.245 57.065 121.41 56.585C121.58 56.1 121.823 55.6875 122.138 55.3475C122.453 55.0075 122.833 54.745 123.278 54.56C123.728 54.375 124.233 54.2825 124.793 54.2825ZM124.793 61.0625C125.543 61.0625 126.103 60.8125 126.473 60.3125C126.843 59.8075 127.028 59.105 127.028 58.205C127.028 57.3 126.843 56.595 126.473 56.09C126.103 55.585 125.543 55.3325 124.793 55.3325C124.413 55.3325 124.08 55.3975 123.795 55.5275C123.515 55.6575 123.28 55.845 123.09 56.09C122.905 56.335 122.765 56.6375 122.67 56.9975C122.58 57.3525 122.535 57.755 122.535 58.205C122.535 59.105 122.72 59.8075 123.09 60.3125C123.465 60.8125 124.033 61.0625 124.793 61.0625ZM133.834 62V55.5425L132.994 55.445C132.889 55.42 132.801 55.3825 132.731 55.3325C132.666 55.2775 132.634 55.2 132.634 55.1V54.5525H133.834V53.8175C133.834 53.3825 133.894 52.9975 134.014 52.6625C134.139 52.3225 134.314 52.0375 134.539 51.8075C134.769 51.5725 135.044 51.395 135.364 51.275C135.684 51.155 136.044 51.095 136.444 51.095C136.784 51.095 137.096 51.145 137.381 51.245L137.351 51.9125C137.341 52.0325 137.274 52.0975 137.149 52.1075C137.029 52.1175 136.866 52.1225 136.661 52.1225C136.431 52.1225 136.221 52.1525 136.031 52.2125C135.846 52.2725 135.686 52.37 135.551 52.505C135.416 52.64 135.311 52.8175 135.236 53.0375C135.166 53.2575 135.131 53.53 135.131 53.855V54.5525H137.321V55.52H135.176V62H133.834ZM141.251 54.2825C141.806 54.2825 142.306 54.375 142.751 54.56C143.196 54.745 143.576 55.0075 143.891 55.3475C144.206 55.6875 144.446 56.1 144.611 56.585C144.781 57.065 144.866 57.6025 144.866 58.1975C144.866 58.7975 144.781 59.3375 144.611 59.8175C144.446 60.2975 144.206 60.7075 143.891 61.0475C143.576 61.3875 143.196 61.65 142.751 61.835C142.306 62.015 141.806 62.105 141.251 62.105C140.691 62.105 140.186 62.015 139.736 61.835C139.291 61.65 138.911 61.3875 138.596 61.0475C138.281 60.7075 138.039 60.2975 137.869 59.8175C137.704 59.3375 137.621 58.7975 137.621 58.1975C137.621 57.6025 137.704 57.065 137.869 56.585C138.039 56.1 138.281 55.6875 138.596 55.3475C138.911 55.0075 139.291 54.745 139.736 54.56C140.186 54.375 140.691 54.2825 141.251 54.2825ZM141.251 61.0625C142.001 61.0625 142.561 60.8125 142.931 60.3125C143.301 59.8075 143.486 59.105 143.486 58.205C143.486 57.3 143.301 56.595 142.931 56.09C142.561 55.585 142.001 55.3325 141.251 55.3325C140.871 55.3325 140.539 55.3975 140.254 55.5275C139.974 55.6575 139.739 55.845 139.549 56.09C139.364 56.335 139.224 56.6375 139.129 56.9975C139.039 57.3525 138.994 57.755 138.994 58.205C138.994 59.105 139.179 59.8075 139.549 60.3125C139.924 60.8125 140.491 61.0625 141.251 61.0625ZM147.527 55.925C147.767 55.405 148.062 55 148.412 54.71C148.762 54.415 149.189 54.2675 149.694 54.2675C149.854 54.2675 150.007 54.285 150.152 54.32C150.302 54.355 150.434 54.41 150.549 54.485L150.452 55.4825C150.422 55.6075 150.347 55.67 150.227 55.67C150.157 55.67 150.054 55.655 149.919 55.625C149.784 55.595 149.632 55.58 149.462 55.58C149.222 55.58 149.007 55.615 148.817 55.685C148.632 55.755 148.464 55.86 148.314 56C148.169 56.135 148.037 56.305 147.917 56.51C147.802 56.71 147.697 56.94 147.602 57.2V62H146.259V54.4025H147.024C147.169 54.4025 147.269 54.43 147.324 54.485C147.379 54.54 147.417 54.635 147.437 54.77L147.527 55.925ZM1.0575 83V75.4025H1.86C2.05 75.4025 2.1675 75.495 2.2125 75.68L2.31 76.46C2.59 76.115 2.905 75.8325 3.255 75.6125C3.605 75.3925 4.01 75.2825 4.47 75.2825C4.98 75.2825 5.3925 75.425 5.7075 75.71C6.0275 75.995 6.2575 76.38 6.3975 76.865C6.5075 76.59 6.6475 76.3525 6.8175 76.1525C6.9925 75.9525 7.1875 75.7875 7.4025 75.6575C7.6175 75.5275 7.845 75.4325 8.085 75.3725C8.33 75.3125 8.5775 75.2825 8.8275 75.2825C9.2275 75.2825 9.5825 75.3475 9.8925 75.4775C10.2075 75.6025 10.4725 75.7875 10.6875 76.0325C10.9075 76.2775 11.075 76.58 11.19 76.94C11.305 77.295 11.3625 77.7025 11.3625 78.1625V83H10.02V78.1625C10.02 77.5675 9.89 77.1175 9.63 76.8125C9.37 76.5025 8.995 76.3475 8.505 76.3475C8.285 76.3475 8.075 76.3875 7.875 76.4675C7.68 76.5425 7.5075 76.655 7.3575 76.805C7.2075 76.955 7.0875 77.145 6.9975 77.375C6.9125 77.6 6.87 77.8625 6.87 78.1625V83H5.5275V78.1625C5.5275 77.5525 5.405 77.0975 5.16 76.7975C4.915 76.4975 4.5575 76.3475 4.0875 76.3475C3.7575 76.3475 3.4525 76.4375 3.1725 76.6175C2.8925 76.7925 2.635 77.0325 2.4 77.3375V83H1.0575ZM14.5015 75.4025V83H13.1665V75.4025H14.5015ZM14.7865 73.0175C14.7865 73.1475 14.759 73.27 14.704 73.385C14.654 73.495 14.584 73.595 14.494 73.685C14.409 73.77 14.3065 73.8375 14.1865 73.8875C14.0715 73.9375 13.949 73.9625 13.819 73.9625C13.689 73.9625 13.5665 73.9375 13.4515 73.8875C13.3415 73.8375 13.244 73.77 13.159 73.685C13.074 73.595 13.0065 73.495 12.9565 73.385C12.9065 73.27 12.8815 73.1475 12.8815 73.0175C12.8815 72.8875 12.9065 72.765 12.9565 72.65C13.0065 72.53 13.074 72.4275 13.159 72.3425C13.244 72.2525 13.3415 72.1825 13.4515 72.1325C13.5665 72.0825 13.689 72.0575 13.819 72.0575C13.949 72.0575 14.0715 72.0825 14.1865 72.1325C14.3065 72.1825 14.409 72.2525 14.494 72.3425C14.584 72.4275 14.654 72.53 14.704 72.65C14.759 72.765 14.7865 72.8875 14.7865 73.0175ZM17.6625 76.925C17.9025 76.405 18.1975 76 18.5475 75.71C18.8975 75.415 19.325 75.2675 19.83 75.2675C19.99 75.2675 20.1425 75.285 20.2875 75.32C20.4375 75.355 20.57 75.41 20.685 75.485L20.5875 76.4825C20.5575 76.6075 20.4825 76.67 20.3625 76.67C20.2925 76.67 20.19 76.655 20.055 76.625C19.92 76.595 19.7675 76.58 19.5975 76.58C19.3575 76.58 19.1425 76.615 18.9525 76.685C18.7675 76.755 18.6 76.86 18.45 77C18.305 77.135 18.1725 77.305 18.0525 77.51C17.9375 77.71 17.8325 77.94 17.7375 78.2V83H16.395V75.4025H17.16C17.305 75.4025 17.405 75.43 17.46 75.485C17.515 75.54 17.5525 75.635 17.5725 75.77L17.6625 76.925ZM23.8914 83.12C23.2914 83.12 22.8289 82.9525 22.5039 82.6175C22.1839 82.2825 22.0239 81.8 22.0239 81.17V76.52H21.1089C21.0289 76.52 20.9614 76.4975 20.9064 76.4525C20.8514 76.4025 20.8239 76.3275 20.8239 76.2275V75.695L22.0689 75.5375L22.3764 73.19C22.3914 73.115 22.4239 73.055 22.4739 73.01C22.5289 72.96 22.5989 72.935 22.6839 72.935H23.3589V75.5525H25.5564V76.52H23.3589V81.08C23.3589 81.4 23.4364 81.6375 23.5914 81.7925C23.7464 81.9475 23.9464 82.025 24.1914 82.025C24.3314 82.025 24.4514 82.0075 24.5514 81.9725C24.6564 81.9325 24.7464 81.89 24.8214 81.845C24.8964 81.8 24.9589 81.76 25.0089 81.725C25.0639 81.685 25.1114 81.665 25.1514 81.665C25.2214 81.665 25.2839 81.7075 25.3389 81.7925L25.7289 82.43C25.4989 82.645 25.2214 82.815 24.8964 82.94C24.5714 83.06 24.2364 83.12 23.8914 83.12ZM27.9773 76.415C28.3023 76.07 28.6623 75.795 29.0573 75.59C29.4523 75.385 29.9073 75.2825 30.4223 75.2825C30.8373 75.2825 31.2023 75.3525 31.5173 75.4925C31.8373 75.6275 32.1023 75.8225 32.3123 76.0775C32.5273 76.3275 32.6898 76.63 32.7998 76.985C32.9098 77.34 32.9648 77.7325 32.9648 78.1625V83H31.6223V78.1625C31.6223 77.5875 31.4898 77.1425 31.2248 76.8275C30.9648 76.5075 30.5673 76.3475 30.0323 76.3475C29.6373 76.3475 29.2673 76.4425 28.9223 76.6325C28.5823 76.8225 28.2673 77.08 27.9773 77.405V83H26.6348V71.9525H27.9773V76.415ZM34.6166 84.815C34.5766 84.78 34.5491 84.7475 34.5341 84.7175C34.5191 84.6875 34.5116 84.65 34.5116 84.605C34.5116 84.57 34.5216 84.535 34.5416 84.5C34.5666 84.465 34.5941 84.4325 34.6241 84.4025C34.6741 84.3475 34.7366 84.275 34.8116 84.185C34.8916 84.095 34.9716 83.9875 35.0516 83.8625C35.1316 83.7425 35.2041 83.6075 35.2691 83.4575C35.3391 83.3125 35.3891 83.1575 35.4191 82.9925C35.4041 82.9975 35.3866 83 35.3666 83C35.3516 83 35.3366 83 35.3216 83C35.0616 83 34.8491 82.915 34.6841 82.745C34.5241 82.57 34.4441 82.3475 34.4441 82.0775C34.4441 81.8425 34.5241 81.6425 34.6841 81.4775C34.8491 81.3125 35.0666 81.23 35.3366 81.23C35.4866 81.23 35.6191 81.2575 35.7341 81.3125C35.8491 81.3675 35.9441 81.445 36.0191 81.545C36.0991 81.64 36.1591 81.7525 36.1991 81.8825C36.2391 82.0075 36.2591 82.145 36.2591 82.295C36.2591 82.52 36.2266 82.755 36.1616 83C36.1016 83.24 36.0091 83.4775 35.8841 83.7125C35.7641 83.9525 35.6166 84.185 35.4416 84.41C35.2666 84.635 35.0666 84.8425 34.8416 85.0325L34.6166 84.815ZM48.4638 73.475H44.9838V83H43.5363V73.475H40.0488V72.2525H48.4638V73.475ZM50.6543 76.415C50.9793 76.07 51.3393 75.795 51.7343 75.59C52.1293 75.385 52.5843 75.2825 53.0993 75.2825C53.5143 75.2825 53.8793 75.3525 54.1943 75.4925C54.5143 75.6275 54.7793 75.8225 54.9893 76.0775C55.2043 76.3275 55.3668 76.63 55.4768 76.985C55.5868 77.34 55.6418 77.7325 55.6418 78.1625V83H54.2993V78.1625C54.2993 77.5875 54.1668 77.1425 53.9018 76.8275C53.6418 76.5075 53.2443 76.3475 52.7093 76.3475C52.3143 76.3475 51.9443 76.4425 51.5993 76.6325C51.2593 76.8225 50.9443 77.08 50.6543 77.405V83H49.3118V71.9525H50.6543V76.415ZM58.6436 76.925C58.8836 76.405 59.1786 76 59.5286 75.71C59.8786 75.415 60.3061 75.2675 60.8111 75.2675C60.9711 75.2675 61.1236 75.285 61.2686 75.32C61.4186 75.355 61.5511 75.41 61.6661 75.485L61.5686 76.4825C61.5386 76.6075 61.4636 76.67 61.3436 76.67C61.2736 76.67 61.1711 76.655 61.0361 76.625C60.9011 76.595 60.7486 76.58 60.5786 76.58C60.3386 76.58 60.1236 76.615 59.9336 76.685C59.7486 76.755 59.5811 76.86 59.4311 77C59.2861 77.135 59.1536 77.305 59.0336 77.51C58.9186 77.71 58.8136 77.94 58.7186 78.2V83H57.3761V75.4025H58.1411C58.2861 75.4025 58.3861 75.43 58.4411 75.485C58.4961 75.54 58.5336 75.635 58.5536 75.77L58.6436 76.925ZM67.3173 78.3725C67.3173 78.0625 67.2723 77.78 67.1823 77.525C67.0973 77.265 66.9698 77.0425 66.7998 76.8575C66.6348 76.6675 66.4323 76.5225 66.1923 76.4225C65.9523 76.3175 65.6798 76.265 65.3748 76.265C64.7348 76.265 64.2273 76.4525 63.8523 76.8275C63.4823 77.1975 63.2523 77.7125 63.1623 78.3725H67.3173ZM68.3973 81.935C68.2323 82.135 68.0348 82.31 67.8048 82.46C67.5748 82.605 67.3273 82.725 67.0623 82.82C66.8023 82.915 66.5323 82.985 66.2523 83.03C65.9723 83.08 65.6948 83.105 65.4198 83.105C64.8948 83.105 64.4098 83.0175 63.9648 82.8425C63.5248 82.6625 63.1423 82.4025 62.8173 82.0625C62.4973 81.7175 62.2473 81.2925 62.0673 80.7875C61.8873 80.2825 61.7973 79.7025 61.7973 79.0475C61.7973 78.5175 61.8773 78.0225 62.0373 77.5625C62.2023 77.1025 62.4373 76.705 62.7423 76.37C63.0473 76.03 63.4198 75.765 63.8598 75.575C64.2998 75.38 64.7948 75.2825 65.3448 75.2825C65.7998 75.2825 66.2198 75.36 66.6048 75.515C66.9948 75.665 67.3298 75.885 67.6098 76.175C67.8948 76.46 68.1173 76.815 68.2773 77.24C68.4373 77.66 68.5173 78.14 68.5173 78.68C68.5173 78.89 68.4948 79.03 68.4498 79.1C68.4048 79.17 68.3198 79.205 68.1948 79.205H63.1173C63.1323 79.685 63.1973 80.1025 63.3123 80.4575C63.4323 80.8125 63.5973 81.11 63.8073 81.35C64.0173 81.585 64.2673 81.7625 64.5573 81.8825C64.8473 81.9975 65.1723 82.055 65.5323 82.055C65.8673 82.055 66.1548 82.0175 66.3948 81.9425C66.6398 81.8625 66.8498 81.7775 67.0248 81.6875C67.1998 81.5975 67.3448 81.515 67.4598 81.44C67.5798 81.36 67.6823 81.32 67.7673 81.32C67.8773 81.32 67.9623 81.3625 68.0223 81.4475L68.3973 81.935ZM74.9421 78.3725C74.9421 78.0625 74.8971 77.78 74.8071 77.525C74.7221 77.265 74.5946 77.0425 74.4246 76.8575C74.2596 76.6675 74.0571 76.5225 73.8171 76.4225C73.5771 76.3175 73.3046 76.265 72.9996 76.265C72.3596 76.265 71.8521 76.4525 71.4771 76.8275C71.1071 77.1975 70.8771 77.7125 70.7871 78.3725H74.9421ZM76.0221 81.935C75.8571 82.135 75.6596 82.31 75.4296 82.46C75.1996 82.605 74.9521 82.725 74.6871 82.82C74.4271 82.915 74.1571 82.985 73.8771 83.03C73.5971 83.08 73.3196 83.105 73.0446 83.105C72.5196 83.105 72.0346 83.0175 71.5896 82.8425C71.1496 82.6625 70.7671 82.4025 70.4421 82.0625C70.1221 81.7175 69.8721 81.2925 69.6921 80.7875C69.5121 80.2825 69.4221 79.7025 69.4221 79.0475C69.4221 78.5175 69.5021 78.0225 69.6621 77.5625C69.8271 77.1025 70.0621 76.705 70.3671 76.37C70.6721 76.03 71.0446 75.765 71.4846 75.575C71.9246 75.38 72.4196 75.2825 72.9696 75.2825C73.4246 75.2825 73.8446 75.36 74.2296 75.515C74.6196 75.665 74.9546 75.885 75.2346 76.175C75.5196 76.46 75.7421 76.815 75.9021 77.24C76.0621 77.66 76.1421 78.14 76.1421 78.68C76.1421 78.89 76.1196 79.03 76.0746 79.1C76.0296 79.17 75.9446 79.205 75.8196 79.205H70.7421C70.7571 79.685 70.8221 80.1025 70.9371 80.4575C71.0571 80.8125 71.2221 81.11 71.4321 81.35C71.6421 81.585 71.8921 81.7625 72.1821 81.8825C72.4721 81.9975 72.7971 82.055 73.1571 82.055C73.4921 82.055 73.7796 82.0175 74.0196 81.9425C74.2646 81.8625 74.4746 81.7775 74.6496 81.6875C74.8246 81.5975 74.9696 81.515 75.0846 81.44C75.2046 81.36 75.3071 81.32 75.3921 81.32C75.5021 81.32 75.5871 81.3625 75.6471 81.4475L76.0221 81.935ZM81.5148 83V76.5425L80.6748 76.445C80.5698 76.42 80.4823 76.3825 80.4123 76.3325C80.3473 76.2775 80.3148 76.2 80.3148 76.1V75.5525H81.5148V74.8175C81.5148 74.3825 81.5748 73.9975 81.6948 73.6625C81.8198 73.3225 81.9948 73.0375 82.2198 72.8075C82.4498 72.5725 82.7248 72.395 83.0448 72.275C83.3648 72.155 83.7248 72.095 84.1248 72.095C84.4648 72.095 84.7773 72.145 85.0623 72.245L85.0323 72.9125C85.0223 73.0325 84.9548 73.0975 84.8298 73.1075C84.7098 73.1175 84.5473 73.1225 84.3423 73.1225C84.1123 73.1225 83.9023 73.1525 83.7123 73.2125C83.5273 73.2725 83.3673 73.37 83.2323 73.505C83.0973 73.64 82.9923 73.8175 82.9173 74.0375C82.8473 74.2575 82.8123 74.53 82.8123 74.855V75.5525H85.0023V76.52H82.8573V83H81.5148ZM88.9321 75.2825C89.4871 75.2825 89.9871 75.375 90.4321 75.56C90.8771 75.745 91.2571 76.0075 91.5721 76.3475C91.8871 76.6875 92.1271 77.1 92.2921 77.585C92.4621 78.065 92.5471 78.6025 92.5471 79.1975C92.5471 79.7975 92.4621 80.3375 92.2921 80.8175C92.1271 81.2975 91.8871 81.7075 91.5721 82.0475C91.2571 82.3875 90.8771 82.65 90.4321 82.835C89.9871 83.015 89.4871 83.105 88.9321 83.105C88.3721 83.105 87.8671 83.015 87.4171 82.835C86.9721 82.65 86.5921 82.3875 86.2771 82.0475C85.9621 81.7075 85.7196 81.2975 85.5496 80.8175C85.3846 80.3375 85.3021 79.7975 85.3021 79.1975C85.3021 78.6025 85.3846 78.065 85.5496 77.585C85.7196 77.1 85.9621 76.6875 86.2771 76.3475C86.5921 76.0075 86.9721 75.745 87.4171 75.56C87.8671 75.375 88.3721 75.2825 88.9321 75.2825ZM88.9321 82.0625C89.6821 82.0625 90.2421 81.8125 90.6121 81.3125C90.9821 80.8075 91.1671 80.105 91.1671 79.205C91.1671 78.3 90.9821 77.595 90.6121 77.09C90.2421 76.585 89.6821 76.3325 88.9321 76.3325C88.5521 76.3325 88.2196 76.3975 87.9346 76.5275C87.6546 76.6575 87.4196 76.845 87.2296 77.09C87.0446 77.335 86.9046 77.6375 86.8096 77.9975C86.7196 78.3525 86.6746 78.755 86.6746 79.205C86.6746 80.105 86.8596 80.8075 87.2296 81.3125C87.6046 81.8125 88.1721 82.0625 88.9321 82.0625ZM95.2078 76.925C95.4478 76.405 95.7428 76 96.0928 75.71C96.4428 75.415 96.8703 75.2675 97.3753 75.2675C97.5353 75.2675 97.6878 75.285 97.8328 75.32C97.9828 75.355 98.1153 75.41 98.2303 75.485L98.1328 76.4825C98.1028 76.6075 98.0278 76.67 97.9078 76.67C97.8378 76.67 97.7353 76.655 97.6003 76.625C97.4653 76.595 97.3128 76.58 97.1428 76.58C96.9028 76.58 96.6878 76.615 96.4978 76.685C96.3128 76.755 96.1453 76.86 95.9953 77C95.8503 77.135 95.7178 77.305 95.5978 77.51C95.4828 77.71 95.3778 77.94 95.2828 78.2V83H93.9403V75.4025H94.7053C94.8503 75.4025 94.9503 75.43 95.0053 75.485C95.0603 75.54 95.0978 75.635 95.1178 75.77L95.2078 76.925ZM106.437 79.58C105.822 79.6 105.297 79.65 104.862 79.73C104.432 79.805 104.08 79.905 103.805 80.03C103.535 80.155 103.337 80.3025 103.212 80.4725C103.092 80.6425 103.032 80.8325 103.032 81.0425C103.032 81.2425 103.065 81.415 103.13 81.56C103.195 81.705 103.282 81.825 103.392 81.92C103.507 82.01 103.64 82.0775 103.79 82.1225C103.945 82.1625 104.11 82.1825 104.285 82.1825C104.52 82.1825 104.735 82.16 104.93 82.115C105.125 82.065 105.307 81.995 105.477 81.905C105.652 81.815 105.817 81.7075 105.972 81.5825C106.132 81.4575 106.287 81.315 106.437 81.155V79.58ZM102.125 76.475C102.545 76.07 102.997 75.7675 103.482 75.5675C103.967 75.3675 104.505 75.2675 105.095 75.2675C105.52 75.2675 105.897 75.3375 106.227 75.4775C106.557 75.6175 106.835 75.8125 107.06 76.0625C107.285 76.3125 107.455 76.615 107.57 76.97C107.685 77.325 107.742 77.715 107.742 78.14V83H107.15C107.02 83 106.92 82.98 106.85 82.94C106.78 82.895 106.725 82.81 106.685 82.685L106.535 81.965C106.335 82.15 106.14 82.315 105.95 82.46C105.76 82.6 105.56 82.72 105.35 82.82C105.14 82.915 104.915 82.9875 104.675 83.0375C104.44 83.0925 104.177 83.12 103.887 83.12C103.592 83.12 103.315 83.08 103.055 83C102.795 82.915 102.567 82.79 102.372 82.625C102.182 82.46 102.03 82.2525 101.915 82.0025C101.805 81.7475 101.75 81.4475 101.75 81.1025C101.75 80.8025 101.832 80.515 101.997 80.24C102.162 79.96 102.43 79.7125 102.8 79.4975C103.17 79.2825 103.652 79.1075 104.247 78.9725C104.842 78.8325 105.572 78.7525 106.437 78.7325V78.14C106.437 77.55 106.31 77.105 106.055 76.805C105.8 76.5 105.427 76.3475 104.937 76.3475C104.607 76.3475 104.33 76.39 104.105 76.475C103.885 76.555 103.692 76.6475 103.527 76.7525C103.367 76.8525 103.227 76.945 103.107 77.03C102.992 77.11 102.877 77.15 102.762 77.15C102.672 77.15 102.595 77.1275 102.53 77.0825C102.465 77.0325 102.41 76.9725 102.365 76.9025L102.125 76.475ZM11.535 96.4025L9.075 104H8.0175C7.8875 104 7.7975 103.915 7.7475 103.745L6.0675 98.5925C6.0275 98.4775 5.995 98.3625 5.97 98.2475C5.945 98.1275 5.92 98.01 5.895 97.895C5.87 98.01 5.845 98.1275 5.82 98.2475C5.795 98.3625 5.7625 98.48 5.7225 98.6L4.0125 103.745C3.9675 103.915 3.8675 104 3.7125 104H2.7075L0.2475 96.4025H1.2975C1.4025 96.4025 1.49 96.43 1.56 96.485C1.635 96.54 1.685 96.605 1.71 96.68L3.165 101.57C3.25 101.93 3.3175 102.27 3.3675 102.59C3.4125 102.425 3.4575 102.257 3.5025 102.087C3.5525 101.917 3.605 101.745 3.66 101.57L5.265 96.65C5.29 96.575 5.3325 96.5125 5.3925 96.4625C5.4575 96.4125 5.535 96.3875 5.625 96.3875H6.21C6.31 96.3875 6.3925 96.4125 6.4575 96.4625C6.5225 96.5125 6.5675 96.575 6.5925 96.65L8.16 101.57C8.215 101.745 8.265 101.917 8.31 102.087C8.355 102.257 8.3975 102.425 8.4375 102.59C8.4625 102.425 8.4925 102.26 8.5275 102.095C8.5675 101.925 8.61 101.75 8.655 101.57L10.14 96.68C10.165 96.6 10.2125 96.535 10.2825 96.485C10.3525 96.43 10.435 96.4025 10.53 96.4025H11.535ZM17.5173 99.3725C17.5173 99.0625 17.4723 98.78 17.3823 98.525C17.2973 98.265 17.1698 98.0425 16.9998 97.8575C16.8348 97.6675 16.6323 97.5225 16.3923 97.4225C16.1523 97.3175 15.8798 97.265 15.5748 97.265C14.9348 97.265 14.4273 97.4525 14.0523 97.8275C13.6823 98.1975 13.4523 98.7125 13.3623 99.3725H17.5173ZM18.5973 102.935C18.4323 103.135 18.2348 103.31 18.0048 103.46C17.7748 103.605 17.5273 103.725 17.2623 103.82C17.0023 103.915 16.7323 103.985 16.4523 104.03C16.1723 104.08 15.8948 104.105 15.6198 104.105C15.0948 104.105 14.6098 104.017 14.1648 103.842C13.7248 103.662 13.3423 103.402 13.0173 103.062C12.6973 102.717 12.4473 102.292 12.2673 101.787C12.0873 101.282 11.9973 100.702 11.9973 100.047C11.9973 99.5175 12.0773 99.0225 12.2373 98.5625C12.4023 98.1025 12.6373 97.705 12.9423 97.37C13.2473 97.03 13.6198 96.765 14.0598 96.575C14.4998 96.38 14.9948 96.2825 15.5448 96.2825C15.9998 96.2825 16.4198 96.36 16.8048 96.515C17.1948 96.665 17.5298 96.885 17.8098 97.175C18.0948 97.46 18.3173 97.815 18.4773 98.24C18.6373 98.66 18.7173 99.14 18.7173 99.68C18.7173 99.89 18.6948 100.03 18.6498 100.1C18.6048 100.17 18.5198 100.205 18.3948 100.205H13.3173C13.3323 100.685 13.3973 101.102 13.5123 101.457C13.6323 101.812 13.7973 102.11 14.0073 102.35C14.2173 102.585 14.4673 102.762 14.7573 102.882C15.0473 102.997 15.3723 103.055 15.7323 103.055C16.0673 103.055 16.3548 103.017 16.5948 102.942C16.8398 102.862 17.0498 102.777 17.2248 102.687C17.3998 102.597 17.5448 102.515 17.6598 102.44C17.7798 102.36 17.8823 102.32 17.9673 102.32C18.0773 102.32 18.1623 102.362 18.2223 102.447L18.5973 102.935ZM25.0071 98.21C24.7571 97.875 24.4871 97.6425 24.1971 97.5125C23.9071 97.3775 23.5821 97.31 23.2221 97.31C22.5171 97.31 21.9746 97.5625 21.5946 98.0675C21.2146 98.5725 21.0246 99.2925 21.0246 100.227C21.0246 100.722 21.0671 101.147 21.1521 101.502C21.2371 101.852 21.3621 102.142 21.5271 102.372C21.6921 102.597 21.8946 102.762 22.1346 102.867C22.3746 102.972 22.6471 103.025 22.9521 103.025C23.3921 103.025 23.7746 102.925 24.0996 102.725C24.4296 102.525 24.7321 102.242 25.0071 101.877V98.21ZM26.3421 92.9525V104H25.5471C25.3571 104 25.2371 103.907 25.1871 103.722L25.0671 102.8C24.7421 103.19 24.3721 103.505 23.9571 103.745C23.5421 103.985 23.0621 104.105 22.5171 104.105C22.0821 104.105 21.6871 104.022 21.3321 103.857C20.9771 103.687 20.6746 103.44 20.4246 103.115C20.1746 102.79 19.9821 102.385 19.8471 101.9C19.7121 101.415 19.6446 100.857 19.6446 100.227C19.6446 99.6675 19.7196 99.1475 19.8696 98.6675C20.0196 98.1825 20.2346 97.7625 20.5146 97.4075C20.7946 97.0525 21.1371 96.775 21.5421 96.575C21.9521 96.37 22.4121 96.2675 22.9221 96.2675C23.3871 96.2675 23.7846 96.3475 24.1146 96.5075C24.4496 96.6625 24.7471 96.88 25.0071 97.16V92.9525H26.3421ZM33.1007 98.21C32.8507 97.875 32.5807 97.6425 32.2907 97.5125C32.0007 97.3775 31.6757 97.31 31.3157 97.31C30.6107 97.31 30.0682 97.5625 29.6882 98.0675C29.3082 98.5725 29.1182 99.2925 29.1182 100.227C29.1182 100.722 29.1607 101.147 29.2457 101.502C29.3307 101.852 29.4557 102.142 29.6207 102.372C29.7857 102.597 29.9882 102.762 30.2282 102.867C30.4682 102.972 30.7407 103.025 31.0457 103.025C31.4857 103.025 31.8682 102.925 32.1932 102.725C32.5232 102.525 32.8257 102.242 33.1007 101.877V98.21ZM34.4357 92.9525V104H33.6407C33.4507 104 33.3307 103.907 33.2807 103.722L33.1607 102.8C32.8357 103.19 32.4657 103.505 32.0507 103.745C31.6357 103.985 31.1557 104.105 30.6107 104.105C30.1757 104.105 29.7807 104.022 29.4257 103.857C29.0707 103.687 28.7682 103.44 28.5182 103.115C28.2682 102.79 28.0757 102.385 27.9407 101.9C27.8057 101.415 27.7382 100.857 27.7382 100.227C27.7382 99.6675 27.8132 99.1475 27.9632 98.6675C28.1132 98.1825 28.3282 97.7625 28.6082 97.4075C28.8882 97.0525 29.2307 96.775 29.6357 96.575C30.0457 96.37 30.5057 96.2675 31.0157 96.2675C31.4807 96.2675 31.8782 96.3475 32.2082 96.5075C32.5432 96.6625 32.8407 96.88 33.1007 97.16V92.9525H34.4357ZM37.6542 96.4025V104H36.3192V96.4025H37.6542ZM37.9392 94.0175C37.9392 94.1475 37.9117 94.27 37.8567 94.385C37.8067 94.495 37.7367 94.595 37.6467 94.685C37.5617 94.77 37.4592 94.8375 37.3392 94.8875C37.2242 94.9375 37.1017 94.9625 36.9717 94.9625C36.8417 94.9625 36.7192 94.9375 36.6042 94.8875C36.4942 94.8375 36.3967 94.77 36.3117 94.685C36.2267 94.595 36.1592 94.495 36.1092 94.385C36.0592 94.27 36.0342 94.1475 36.0342 94.0175C36.0342 93.8875 36.0592 93.765 36.1092 93.65C36.1592 93.53 36.2267 93.4275 36.3117 93.3425C36.3967 93.2525 36.4942 93.1825 36.6042 93.1325C36.7192 93.0825 36.8417 93.0575 36.9717 93.0575C37.1017 93.0575 37.2242 93.0825 37.3392 93.1325C37.4592 93.1825 37.5617 93.2525 37.6467 93.3425C37.7367 93.4275 37.8067 93.53 37.8567 93.65C37.9117 93.765 37.9392 93.8875 37.9392 94.0175ZM40.8077 97.505C40.9727 97.32 41.1477 97.1525 41.3327 97.0025C41.5177 96.8525 41.7127 96.725 41.9177 96.62C42.1277 96.51 42.3477 96.4275 42.5777 96.3725C42.8127 96.3125 43.0652 96.2825 43.3352 96.2825C43.7502 96.2825 44.1152 96.3525 44.4302 96.4925C44.7502 96.6275 45.0152 96.8225 45.2252 97.0775C45.4402 97.3275 45.6027 97.63 45.7127 97.985C45.8227 98.34 45.8777 98.7325 45.8777 99.1625V104H44.5352V99.1625C44.5352 98.5875 44.4027 98.1425 44.1377 97.8275C43.8777 97.5075 43.4802 97.3475 42.9452 97.3475C42.5502 97.3475 42.1802 97.4425 41.8352 97.6325C41.4952 97.8225 41.1802 98.08 40.8902 98.405V104H39.5477V96.4025H40.3502C40.5402 96.4025 40.6577 96.495 40.7027 96.68L40.8077 97.505ZM50.2595 100.287C50.5295 100.287 50.767 100.25 50.972 100.175C51.177 100.1 51.3495 99.995 51.4895 99.86C51.6295 99.725 51.7345 99.565 51.8045 99.38C51.8745 99.19 51.9095 98.9825 51.9095 98.7575C51.9095 98.2925 51.767 97.9225 51.482 97.6475C51.202 97.3725 50.7945 97.235 50.2595 97.235C49.7195 97.235 49.307 97.3725 49.022 97.6475C48.742 97.9225 48.602 98.2925 48.602 98.7575C48.602 98.9825 48.637 99.19 48.707 99.38C48.782 99.565 48.8895 99.725 49.0295 99.86C49.1695 99.995 49.342 100.1 49.547 100.175C49.752 100.25 49.9895 100.287 50.2595 100.287ZM52.667 104.413C52.667 104.228 52.6145 104.078 52.5095 103.962C52.4045 103.847 52.262 103.757 52.082 103.692C51.907 103.627 51.702 103.582 51.467 103.557C51.232 103.527 50.982 103.505 50.717 103.49C50.457 103.475 50.192 103.46 49.922 103.445C49.652 103.43 49.392 103.405 49.142 103.37C48.862 103.5 48.632 103.665 48.452 103.865C48.277 104.06 48.1895 104.29 48.1895 104.555C48.1895 104.725 48.232 104.883 48.317 105.028C48.407 105.178 48.542 105.305 48.722 105.41C48.902 105.52 49.127 105.605 49.397 105.665C49.672 105.73 49.9945 105.763 50.3645 105.763C50.7245 105.763 51.047 105.73 51.332 105.665C51.617 105.6 51.857 105.508 52.052 105.388C52.252 105.268 52.4045 105.125 52.5095 104.96C52.6145 104.795 52.667 104.613 52.667 104.413ZM54.0245 96.7025V97.1975C54.0245 97.3625 53.9195 97.4675 53.7095 97.5125L52.847 97.625C53.017 97.955 53.102 98.32 53.102 98.72C53.102 99.09 53.0295 99.4275 52.8845 99.7325C52.7445 100.032 52.5495 100.29 52.2995 100.505C52.0495 100.72 51.7495 100.885 51.3995 101C51.0495 101.115 50.6695 101.172 50.2595 101.172C49.9045 101.172 49.5695 101.13 49.2545 101.045C49.0945 101.145 48.972 101.252 48.887 101.367C48.802 101.477 48.7595 101.59 48.7595 101.705C48.7595 101.885 48.832 102.022 48.977 102.117C49.127 102.207 49.322 102.272 49.562 102.312C49.802 102.352 50.0745 102.377 50.3795 102.387C50.6895 102.397 51.0045 102.415 51.3245 102.44C51.6495 102.46 51.9645 102.497 52.2695 102.552C52.5795 102.607 52.8545 102.697 53.0945 102.822C53.3345 102.947 53.527 103.12 53.672 103.34C53.822 103.56 53.897 103.845 53.897 104.195C53.897 104.52 53.8145 104.835 53.6495 105.14C53.4895 105.445 53.257 105.715 52.952 105.95C52.647 106.19 52.272 106.38 51.827 106.52C51.387 106.665 50.8895 106.738 50.3345 106.738C49.7795 106.738 49.2945 106.683 48.8795 106.573C48.4645 106.463 48.1195 106.315 47.8445 106.13C47.5695 105.945 47.362 105.73 47.222 105.485C47.087 105.245 47.0195 104.993 47.0195 104.728C47.0195 104.353 47.137 104.035 47.372 103.775C47.607 103.515 47.9295 103.307 48.3395 103.152C48.1145 103.052 47.9345 102.92 47.7995 102.755C47.6695 102.585 47.6045 102.357 47.6045 102.073C47.6045 101.962 47.6245 101.85 47.6645 101.735C47.7045 101.615 47.7645 101.497 47.8445 101.382C47.9295 101.262 48.032 101.15 48.152 101.045C48.272 100.94 48.412 100.847 48.572 100.767C48.197 100.557 47.9045 100.28 47.6945 99.935C47.4845 99.585 47.3795 99.18 47.3795 98.72C47.3795 98.35 47.4495 98.015 47.5895 97.715C47.7345 97.41 47.9345 97.1525 48.1895 96.9425C48.4445 96.7275 48.747 96.5625 49.097 96.4475C49.452 96.3325 49.8395 96.275 50.2595 96.275C50.5895 96.275 50.897 96.3125 51.182 96.3875C51.467 96.4575 51.727 96.5625 51.962 96.7025H54.0245ZM55.0225 105.815C54.9825 105.78 54.955 105.748 54.94 105.718C54.925 105.688 54.9175 105.65 54.9175 105.605C54.9175 105.57 54.9275 105.535 54.9475 105.5C54.9725 105.465 55 105.433 55.03 105.403C55.08 105.348 55.1425 105.275 55.2175 105.185C55.2975 105.095 55.3775 104.988 55.4575 104.863C55.5375 104.743 55.61 104.608 55.675 104.458C55.745 104.313 55.795 104.158 55.825 103.992C55.81 103.997 55.7925 104 55.7725 104C55.7575 104 55.7425 104 55.7275 104C55.4675 104 55.255 103.915 55.09 103.745C54.93 103.57 54.85 103.347 54.85 103.077C54.85 102.842 54.93 102.642 55.09 102.477C55.255 102.312 55.4725 102.23 55.7425 102.23C55.8925 102.23 56.025 102.257 56.14 102.312C56.255 102.367 56.35 102.445 56.425 102.545C56.505 102.64 56.565 102.752 56.605 102.882C56.645 103.007 56.665 103.145 56.665 103.295C56.665 103.52 56.6325 103.755 56.5675 104C56.5075 104.24 56.415 104.478 56.29 104.713C56.17 104.953 56.0225 105.185 55.8475 105.41C55.6725 105.635 55.4725 105.843 55.2475 106.033L55.0225 105.815ZM67.2657 100.01L65.5782 95.6375C65.5282 95.5075 65.4757 95.3575 65.4207 95.1875C65.3657 95.0125 65.3132 94.8275 65.2632 94.6325C65.1582 95.0375 65.0507 95.375 64.9407 95.645L63.2532 100.01H67.2657ZM70.2957 104H69.1707C69.0407 104 68.9357 103.967 68.8557 103.902C68.7757 103.837 68.7157 103.755 68.6757 103.655L67.6707 101.06H62.8482L61.8432 103.655C61.8132 103.745 61.7557 103.825 61.6707 103.895C61.5857 103.965 61.4807 104 61.3557 104H60.2307L64.5282 93.2525H65.9982L70.2957 104ZM72.3253 97.505C72.4903 97.32 72.6653 97.1525 72.8503 97.0025C73.0353 96.8525 73.2303 96.725 73.4353 96.62C73.6453 96.51 73.8653 96.4275 74.0953 96.3725C74.3303 96.3125 74.5828 96.2825 74.8528 96.2825C75.2678 96.2825 75.6328 96.3525 75.9478 96.4925C76.2678 96.6275 76.5328 96.8225 76.7428 97.0775C76.9578 97.3275 77.1203 97.63 77.2303 97.985C77.3403 98.34 77.3953 98.7325 77.3953 99.1625V104H76.0528V99.1625C76.0528 98.5875 75.9203 98.1425 75.6553 97.8275C75.3953 97.5075 74.9978 97.3475 74.4628 97.3475C74.0678 97.3475 73.6978 97.4425 73.3528 97.6325C73.0128 97.8225 72.6978 98.08 72.4078 98.405V104H71.0653V96.4025H71.8678C72.0578 96.4025 72.1753 96.495 72.2203 96.68L72.3253 97.505ZM84.0796 98.21C83.8296 97.875 83.5596 97.6425 83.2696 97.5125C82.9796 97.3775 82.6546 97.31 82.2946 97.31C81.5896 97.31 81.0471 97.5625 80.6671 98.0675C80.2871 98.5725 80.0971 99.2925 80.0971 100.227C80.0971 100.722 80.1396 101.147 80.2246 101.502C80.3096 101.852 80.4346 102.142 80.5996 102.372C80.7646 102.597 80.9671 102.762 81.2071 102.867C81.4471 102.972 81.7196 103.025 82.0246 103.025C82.4646 103.025 82.8471 102.925 83.1721 102.725C83.5021 102.525 83.8046 102.242 84.0796 101.877V98.21ZM85.4146 92.9525V104H84.6196C84.4296 104 84.3096 103.907 84.2596 103.722L84.1396 102.8C83.8146 103.19 83.4446 103.505 83.0296 103.745C82.6146 103.985 82.1346 104.105 81.5896 104.105C81.1546 104.105 80.7596 104.022 80.4046 103.857C80.0496 103.687 79.7471 103.44 79.4971 103.115C79.2471 102.79 79.0546 102.385 78.9196 101.9C78.7846 101.415 78.7171 100.857 78.7171 100.227C78.7171 99.6675 78.7921 99.1475 78.9421 98.6675C79.0921 98.1825 79.3071 97.7625 79.5871 97.4075C79.8671 97.0525 80.2096 96.775 80.6146 96.575C81.0246 96.37 81.4846 96.2675 81.9946 96.2675C82.4596 96.2675 82.8571 96.3475 83.1871 96.5075C83.5221 96.6625 83.8196 96.88 84.0796 97.16V92.9525H85.4146ZM91.256 104V97.5425L90.416 97.445C90.311 97.42 90.2235 97.3825 90.1535 97.3325C90.0885 97.2775 90.056 97.2 90.056 97.1V96.5525H91.256V95.8175C91.256 95.3825 91.316 94.9975 91.436 94.6625C91.561 94.3225 91.736 94.0375 91.961 93.8075C92.191 93.5725 92.466 93.395 92.786 93.275C93.106 93.155 93.466 93.095 93.866 93.095C94.206 93.095 94.5185 93.145 94.8035 93.245L94.7735 93.9125C94.7635 94.0325 94.696 94.0975 94.571 94.1075C94.451 94.1175 94.2885 94.1225 94.0835 94.1225C93.8535 94.1225 93.6435 94.1525 93.4535 94.2125C93.2685 94.2725 93.1085 94.37 92.9735 94.505C92.8385 94.64 92.7335 94.8175 92.6585 95.0375C92.5885 95.2575 92.5535 95.53 92.5535 95.855V96.5525H94.7435V97.52H92.5985V104H91.256ZM98.6733 96.2825C99.2283 96.2825 99.7283 96.375 100.173 96.56C100.618 96.745 100.998 97.0075 101.313 97.3475C101.628 97.6875 101.868 98.1 102.033 98.585C102.203 99.065 102.288 99.6025 102.288 100.197C102.288 100.797 102.203 101.337 102.033 101.817C101.868 102.297 101.628 102.707 101.313 103.047C100.998 103.387 100.618 103.65 100.173 103.835C99.7283 104.015 99.2283 104.105 98.6733 104.105C98.1133 104.105 97.6083 104.015 97.1583 103.835C96.7133 103.65 96.3333 103.387 96.0183 103.047C95.7033 102.707 95.4608 102.297 95.2908 101.817C95.1258 101.337 95.0433 100.797 95.0433 100.197C95.0433 99.6025 95.1258 99.065 95.2908 98.585C95.4608 98.1 95.7033 97.6875 96.0183 97.3475C96.3333 97.0075 96.7133 96.745 97.1583 96.56C97.6083 96.375 98.1133 96.2825 98.6733 96.2825ZM98.6733 103.062C99.4233 103.062 99.9833 102.812 100.353 102.312C100.723 101.807 100.908 101.105 100.908 100.205C100.908 99.3 100.723 98.595 100.353 98.09C99.9833 97.585 99.4233 97.3325 98.6733 97.3325C98.2933 97.3325 97.9608 97.3975 97.6758 97.5275C97.3958 97.6575 97.1608 97.845 96.9708 98.09C96.7858 98.335 96.6458 98.6375 96.5508 98.9975C96.4608 99.3525 96.4158 99.755 96.4158 100.205C96.4158 101.105 96.6008 101.807 96.9708 102.312C97.3458 102.812 97.9133 103.062 98.6733 103.062ZM109.929 96.4025V104H109.134C108.944 104 108.824 103.907 108.774 103.722L108.669 102.905C108.339 103.27 107.969 103.565 107.559 103.79C107.149 104.01 106.679 104.12 106.149 104.12C105.734 104.12 105.367 104.053 105.047 103.917C104.732 103.777 104.467 103.582 104.252 103.332C104.037 103.082 103.874 102.78 103.764 102.425C103.659 102.07 103.607 101.677 103.607 101.247V96.4025H104.942V101.247C104.942 101.822 105.072 102.267 105.332 102.582C105.597 102.897 105.999 103.055 106.539 103.055C106.934 103.055 107.302 102.962 107.642 102.777C107.987 102.587 108.304 102.327 108.594 101.997V96.4025H109.929ZM113.013 97.925C113.253 97.405 113.548 97 113.898 96.71C114.248 96.415 114.676 96.2675 115.181 96.2675C115.341 96.2675 115.493 96.285 115.638 96.32C115.788 96.355 115.921 96.41 116.036 96.485L115.938 97.4825C115.908 97.6075 115.833 97.67 115.713 97.67C115.643 97.67 115.541 97.655 115.406 97.625C115.271 97.595 115.118 97.58 114.948 97.58C114.708 97.58 114.493 97.615 114.303 97.685C114.118 97.755 113.951 97.86 113.801 98C113.656 98.135 113.523 98.305 113.403 98.51C113.288 98.71 113.183 98.94 113.088 99.2V104H111.746V96.4025H112.511C112.656 96.4025 112.756 96.43 112.811 96.485C112.866 96.54 112.903 96.635 112.923 96.77L113.013 97.925ZM120.62 104V97.5425L119.78 97.445C119.675 97.42 119.588 97.3825 119.518 97.3325C119.453 97.2775 119.42 97.2 119.42 97.1V96.5525H120.62V95.8175C120.62 95.3825 120.68 94.9975 120.8 94.6625C120.925 94.3225 121.1 94.0375 121.325 93.8075C121.555 93.5725 121.83 93.395 122.15 93.275C122.47 93.155 122.83 93.095 123.23 93.095C123.57 93.095 123.883 93.145 124.168 93.245L124.138 93.9125C124.128 94.0325 124.06 94.0975 123.935 94.1075C123.815 94.1175 123.653 94.1225 123.448 94.1225C123.218 94.1225 123.008 94.1525 122.818 94.2125C122.633 94.2725 122.473 94.37 122.338 94.505C122.203 94.64 122.098 94.8175 122.023 95.0375C121.953 95.2575 121.918 95.53 121.918 95.855V96.5525H124.108V97.52H121.963V104H120.62ZM128.038 96.2825C128.593 96.2825 129.093 96.375 129.538 96.56C129.983 96.745 130.363 97.0075 130.678 97.3475C130.993 97.6875 131.233 98.1 131.398 98.585C131.568 99.065 131.653 99.6025 131.653 100.197C131.653 100.797 131.568 101.337 131.398 101.817C131.233 102.297 130.993 102.707 130.678 103.047C130.363 103.387 129.983 103.65 129.538 103.835C129.093 104.015 128.593 104.105 128.038 104.105C127.478 104.105 126.973 104.015 126.523 103.835C126.078 103.65 125.698 103.387 125.383 103.047C125.068 102.707 124.825 102.297 124.655 101.817C124.49 101.337 124.408 100.797 124.408 100.197C124.408 99.6025 124.49 99.065 124.655 98.585C124.825 98.1 125.068 97.6875 125.383 97.3475C125.698 97.0075 126.078 96.745 126.523 96.56C126.973 96.375 127.478 96.2825 128.038 96.2825ZM128.038 103.062C128.788 103.062 129.348 102.812 129.718 102.312C130.088 101.807 130.273 101.105 130.273 100.205C130.273 99.3 130.088 98.595 129.718 98.09C129.348 97.585 128.788 97.3325 128.038 97.3325C127.658 97.3325 127.325 97.3975 127.04 97.5275C126.76 97.6575 126.525 97.845 126.335 98.09C126.15 98.335 126.01 98.6375 125.915 98.9975C125.825 99.3525 125.78 99.755 125.78 100.205C125.78 101.105 125.965 101.807 126.335 102.312C126.71 102.812 127.278 103.062 128.038 103.062ZM134.313 97.925C134.553 97.405 134.848 97 135.198 96.71C135.548 96.415 135.976 96.2675 136.481 96.2675C136.641 96.2675 136.793 96.285 136.938 96.32C137.088 96.355 137.221 96.41 137.336 96.485L137.238 97.4825C137.208 97.6075 137.133 97.67 137.013 97.67C136.943 97.67 136.841 97.655 136.706 97.625C136.571 97.595 136.418 97.58 136.248 97.58C136.008 97.58 135.793 97.615 135.603 97.685C135.418 97.755 135.251 97.86 135.101 98C134.956 98.135 134.823 98.305 134.703 98.51C134.588 98.71 134.483 98.94 134.388 99.2V104H133.046V96.4025H133.811C133.956 96.4025 134.056 96.43 134.111 96.485C134.166 96.54 134.203 96.635 134.223 96.77L134.313 97.925ZM6.0075 119.21C5.7575 118.875 5.4875 118.642 5.1975 118.512C4.9075 118.377 4.5825 118.31 4.2225 118.31C3.5175 118.31 2.975 118.562 2.595 119.067C2.215 119.572 2.025 120.292 2.025 121.227C2.025 121.722 2.0675 122.147 2.1525 122.502C2.2375 122.852 2.3625 123.142 2.5275 123.372C2.6925 123.597 2.895 123.762 3.135 123.867C3.375 123.972 3.6475 124.025 3.9525 124.025C4.3925 124.025 4.775 123.925 5.1 123.725C5.43 123.525 5.7325 123.242 6.0075 122.877V119.21ZM7.3425 113.952V125H6.5475C6.3575 125 6.2375 124.907 6.1875 124.722L6.0675 123.8C5.7425 124.19 5.3725 124.505 4.9575 124.745C4.5425 124.985 4.0625 125.105 3.5175 125.105C3.0825 125.105 2.6875 125.022 2.3325 124.857C1.9775 124.687 1.675 124.44 1.425 124.115C1.175 123.79 0.9825 123.385 0.8475 122.9C0.7125 122.415 0.645 121.857 0.645 121.227C0.645 120.667 0.72 120.147 0.87 119.667C1.02 119.182 1.235 118.762 1.515 118.407C1.795 118.052 2.1375 117.775 2.5425 117.575C2.9525 117.37 3.4125 117.267 3.9225 117.267C4.3875 117.267 4.785 117.347 5.115 117.507C5.45 117.662 5.7475 117.88 6.0075 118.16V113.952H7.3425ZM14.2361 120.372C14.2361 120.062 14.1911 119.78 14.1011 119.525C14.0161 119.265 13.8886 119.042 13.7186 118.857C13.5536 118.667 13.3511 118.522 13.1111 118.422C12.8711 118.317 12.5986 118.265 12.2936 118.265C11.6536 118.265 11.1461 118.452 10.7711 118.827C10.4011 119.197 10.1711 119.712 10.0811 120.372H14.2361ZM15.3161 123.935C15.1511 124.135 14.9536 124.31 14.7236 124.46C14.4936 124.605 14.2461 124.725 13.9811 124.82C13.7211 124.915 13.4511 124.985 13.1711 125.03C12.8911 125.08 12.6136 125.105 12.3386 125.105C11.8136 125.105 11.3286 125.017 10.8836 124.842C10.4436 124.662 10.0611 124.402 9.73605 124.062C9.41605 123.717 9.16605 123.292 8.98605 122.787C8.80605 122.282 8.71605 121.702 8.71605 121.047C8.71605 120.517 8.79605 120.022 8.95605 119.562C9.12105 119.102 9.35605 118.705 9.66105 118.37C9.96605 118.03 10.3386 117.765 10.7786 117.575C11.2186 117.38 11.7136 117.282 12.2636 117.282C12.7186 117.282 13.1386 117.36 13.5236 117.515C13.9136 117.665 14.2486 117.885 14.5286 118.175C14.8136 118.46 15.0361 118.815 15.1961 119.24C15.3561 119.66 15.4361 120.14 15.4361 120.68C15.4361 120.89 15.4136 121.03 15.3686 121.1C15.3236 121.17 15.2386 121.205 15.1136 121.205H10.0361C10.0511 121.685 10.1161 122.102 10.2311 122.457C10.3511 122.812 10.5161 123.11 10.7261 123.35C10.9361 123.585 11.1861 123.762 11.4761 123.882C11.7661 123.997 12.0911 124.055 12.4511 124.055C12.7861 124.055 13.0736 124.017 13.3136 123.942C13.5586 123.862 13.7686 123.777 13.9436 123.687C14.1186 123.597 14.2636 123.515 14.3786 123.44C14.4986 123.36 14.6011 123.32 14.6861 123.32C14.7961 123.32 14.8811 123.362 14.9411 123.447L15.3161 123.935ZM20.8934 121.58C20.2784 121.6 19.7534 121.65 19.3184 121.73C18.8884 121.805 18.5359 121.905 18.2609 122.03C17.9909 122.155 17.7934 122.302 17.6684 122.472C17.5484 122.642 17.4884 122.832 17.4884 123.042C17.4884 123.242 17.5209 123.415 17.5859 123.56C17.6509 123.705 17.7384 123.825 17.8484 123.92C17.9634 124.01 18.0959 124.077 18.2459 124.122C18.4009 124.162 18.5659 124.182 18.7409 124.182C18.9759 124.182 19.1909 124.16 19.3859 124.115C19.5809 124.065 19.7634 123.995 19.9334 123.905C20.1084 123.815 20.2734 123.707 20.4284 123.582C20.5884 123.457 20.7434 123.315 20.8934 123.155V121.58ZM16.5809 118.475C17.0009 118.07 17.4534 117.767 17.9384 117.567C18.4234 117.367 18.9609 117.267 19.5509 117.267C19.9759 117.267 20.3534 117.337 20.6834 117.477C21.0134 117.617 21.2909 117.812 21.5159 118.062C21.7409 118.312 21.9109 118.615 22.0259 118.97C22.1409 119.325 22.1984 119.715 22.1984 120.14V125H21.6059C21.4759 125 21.3759 124.98 21.3059 124.94C21.2359 124.895 21.1809 124.81 21.1409 124.685L20.9909 123.965C20.7909 124.15 20.5959 124.315 20.4059 124.46C20.2159 124.6 20.0159 124.72 19.8059 124.82C19.5959 124.915 19.3709 124.987 19.1309 125.038C18.8959 125.093 18.6334 125.12 18.3434 125.12C18.0484 125.12 17.7709 125.08 17.5109 125C17.2509 124.915 17.0234 124.79 16.8284 124.625C16.6384 124.46 16.4859 124.252 16.3709 124.002C16.2609 123.747 16.2059 123.447 16.2059 123.102C16.2059 122.802 16.2884 122.515 16.4534 122.24C16.6184 121.96 16.8859 121.712 17.2559 121.497C17.6259 121.282 18.1084 121.107 18.7034 120.972C19.2984 120.833 20.0284 120.752 20.8934 120.732V120.14C20.8934 119.55 20.7659 119.105 20.5109 118.805C20.2559 118.5 19.8834 118.347 19.3934 118.347C19.0634 118.347 18.7859 118.39 18.5609 118.475C18.3409 118.555 18.1484 118.647 17.9834 118.752C17.8234 118.852 17.6834 118.945 17.5634 119.03C17.4484 119.11 17.3334 119.15 17.2184 119.15C17.1284 119.15 17.0509 119.127 16.9859 119.082C16.9209 119.032 16.8659 118.972 16.8209 118.902L16.5809 118.475ZM26.1619 125.12C25.5619 125.12 25.0994 124.952 24.7744 124.617C24.4544 124.282 24.2944 123.8 24.2944 123.17V118.52H23.3794C23.2994 118.52 23.2319 118.497 23.1769 118.452C23.1219 118.402 23.0944 118.327 23.0944 118.227V117.695L24.3394 117.537L24.6469 115.19C24.6619 115.115 24.6944 115.055 24.7444 115.01C24.7994 114.96 24.8694 114.935 24.9544 114.935H25.6294V117.552H27.8269V118.52H25.6294V123.08C25.6294 123.4 25.7069 123.637 25.8619 123.792C26.0169 123.947 26.2169 124.025 26.4619 124.025C26.6019 124.025 26.7219 124.007 26.8219 123.972C26.9269 123.932 27.0169 123.89 27.0919 123.845C27.1669 123.8 27.2294 123.76 27.2794 123.725C27.3344 123.685 27.3819 123.665 27.4219 123.665C27.4919 123.665 27.5544 123.707 27.6094 123.792L27.9994 124.43C27.7694 124.645 27.4919 124.815 27.1669 124.94C26.8419 125.06 26.5069 125.12 26.1619 125.12ZM30.2479 118.415C30.5729 118.07 30.9329 117.795 31.3279 117.59C31.7229 117.385 32.1779 117.282 32.6929 117.282C33.1079 117.282 33.4729 117.352 33.7879 117.492C34.1079 117.627 34.3729 117.822 34.5829 118.077C34.7979 118.327 34.9604 118.63 35.0704 118.985C35.1804 119.34 35.2354 119.732 35.2354 120.162V125H33.8929V120.162C33.8929 119.587 33.7604 119.142 33.4954 118.827C33.2354 118.507 32.8379 118.347 32.3029 118.347C31.9079 118.347 31.5379 118.442 31.1929 118.632C30.8529 118.822 30.5379 119.08 30.2479 119.405V125H28.9054V113.952H30.2479V118.415Z" fill="#2A2921"/>
</svg>
