<svg width="169" height="136" viewBox="0 0 169 136" fill="none" xmlns="http://www.w3.org/2000/svg">
<path d="M13.95 24.49V39H12.4C12.1667 39 11.97 38.9633 11.81 38.89C11.65 38.81 11.4933 38.6767 11.34 38.49L4.11 29.29C4.13 29.5233 4.14333 29.7533 4.15 29.98C4.16333 30.2067 4.17 30.4167 4.17 30.61V39H1.52V24.49H3.1C3.22667 24.49 3.33333 24.4967 3.42 24.51C3.51333 24.5167 3.59667 24.54 3.67 24.58C3.74333 24.6133 3.81333 24.66 3.88 24.72C3.94667 24.78 4.02 24.86 4.1 24.96L11.38 34.2C11.3533 33.9467 11.3333 33.7033 11.32 33.47C11.3067 33.23 11.3 33.0033 11.3 32.79V24.49H13.95ZM25.0634 28.69V39H23.3634C23.0101 39 22.7834 38.84 22.6834 38.52L22.5034 37.8C22.2968 38 22.0834 38.1833 21.8634 38.35C21.6434 38.5167 21.4068 38.66 21.1534 38.78C20.9068 38.9 20.6368 38.9933 20.3434 39.06C20.0568 39.1267 19.7434 39.16 19.4034 39.16C18.8434 39.16 18.3434 39.0633 17.9034 38.87C17.4701 38.6767 17.1068 38.4067 16.8134 38.06C16.5201 37.7133 16.2968 37.3 16.1434 36.82C15.9901 36.34 15.9134 35.8133 15.9134 35.24V28.69H18.6734V35.24C18.6734 35.8133 18.8034 36.26 19.0634 36.58C19.3301 36.8933 19.7234 37.05 20.2434 37.05C20.6301 37.05 20.9934 36.9667 21.3334 36.8C21.6734 36.6267 21.9968 36.3933 22.3034 36.1V28.69H25.0634ZM29.5316 30.39C29.8582 29.8033 30.2349 29.34 30.6616 29C31.0882 28.66 31.5882 28.49 32.1616 28.49C32.6282 28.49 33.0082 28.6 33.3016 28.82L33.1216 30.86C33.0882 30.9933 33.0349 31.0867 32.9616 31.14C32.8949 31.1867 32.8016 31.21 32.6816 31.21C32.5749 31.21 32.4216 31.1967 32.2216 31.17C32.0216 31.1367 31.8349 31.12 31.6616 31.12C31.4082 31.12 31.1816 31.1567 30.9816 31.23C30.7882 31.3033 30.6149 31.4067 30.4616 31.54C30.3082 31.6733 30.1682 31.8367 30.0416 32.03C29.9216 32.2233 29.8082 32.4433 29.7016 32.69V39H26.9416V28.69H28.5716C28.8516 28.69 29.0449 28.74 29.1516 28.84C29.2582 28.94 29.3349 29.1133 29.3816 29.36L29.5316 30.39ZM40.4711 30.81C40.3978 30.9233 40.3211 31.0067 40.2411 31.06C40.1678 31.1067 40.0644 31.13 39.9311 31.13C39.7978 31.13 39.6611 31.0967 39.5211 31.03C39.3811 30.9633 39.2244 30.8933 39.0511 30.82C38.8778 30.74 38.6778 30.6667 38.4511 30.6C38.2311 30.5333 37.9744 30.5 37.6811 30.5C37.2344 30.5 36.8878 30.5933 36.6411 30.78C36.3944 30.96 36.2711 31.2 36.2711 31.5C36.2711 31.7067 36.3411 31.88 36.4811 32.02C36.6211 32.16 36.8044 32.2833 37.0311 32.39C37.2644 32.49 37.5278 32.5867 37.8211 32.68C38.1144 32.7667 38.4144 32.8633 38.7211 32.97C39.0344 33.0767 39.3378 33.2 39.6311 33.34C39.9244 33.48 40.1844 33.6567 40.4111 33.87C40.6444 34.0767 40.8311 34.33 40.9711 34.63C41.1111 34.9233 41.1811 35.28 41.1811 35.7C41.1811 36.2 41.0878 36.6633 40.9011 37.09C40.7211 37.51 40.4544 37.8733 40.1011 38.18C39.7478 38.4867 39.3078 38.7267 38.7811 38.9C38.2544 39.0733 37.6478 39.16 36.9611 39.16C36.6078 39.16 36.2578 39.1267 35.9111 39.06C35.5644 39 35.2344 38.9133 34.9211 38.8C34.6078 38.68 34.3144 38.5433 34.0411 38.39C33.7678 38.2367 33.5311 38.07 33.3311 37.89L33.9711 36.86C34.0444 36.74 34.1344 36.6467 34.2411 36.58C34.3544 36.5133 34.4978 36.48 34.6711 36.48C34.8378 36.48 34.9911 36.5233 35.1311 36.61C35.2711 36.69 35.4278 36.78 35.6011 36.88C35.7744 36.9733 35.9778 37.0633 36.2111 37.15C36.4511 37.23 36.7478 37.27 37.1011 37.27C37.3678 37.27 37.5978 37.24 37.7911 37.18C37.9844 37.12 38.1411 37.04 38.2611 36.94C38.3811 36.8333 38.4678 36.7167 38.5211 36.59C38.5811 36.4567 38.6111 36.32 38.6111 36.18C38.6111 35.9533 38.5378 35.77 38.3911 35.63C38.2511 35.4833 38.0644 35.3567 37.8311 35.25C37.6044 35.1433 37.3411 35.0467 37.0411 34.96C36.7411 34.8733 36.4344 34.7767 36.1211 34.67C35.8144 34.5633 35.5111 34.4367 35.2111 34.29C34.9178 34.1433 34.6544 33.96 34.4211 33.74C34.1944 33.5133 34.0078 33.2367 33.8611 32.91C33.7211 32.5833 33.6511 32.1867 33.6511 31.72C33.6511 31.2933 33.7344 30.89 33.9011 30.51C34.0678 30.1233 34.3178 29.7833 34.6511 29.49C34.9844 29.1967 35.3978 28.9633 35.8911 28.79C36.3911 28.6167 36.9678 28.53 37.6211 28.53C38.3544 28.53 39.0211 28.65 39.6211 28.89C40.2211 29.13 40.7144 29.4433 41.1011 29.83L40.4711 30.81ZM49.0488 32.63C49.0488 32.3433 49.0088 32.07 48.9288 31.81C48.8554 31.55 48.7354 31.32 48.5688 31.12C48.4021 30.92 48.1921 30.7633 47.9388 30.65C47.6854 30.53 47.3821 30.47 47.0288 30.47C46.3688 30.47 45.8521 30.6567 45.4788 31.03C45.1054 31.4033 44.8621 31.9367 44.7488 32.63H49.0488ZM44.7088 34.27C44.7954 35.2367 45.0688 35.9433 45.5288 36.39C45.9954 36.8367 46.6021 37.06 47.3488 37.06C47.7288 37.06 48.0554 37.0167 48.3288 36.93C48.6088 36.8367 48.8521 36.7367 49.0588 36.63C49.2721 36.5167 49.4621 36.4167 49.6288 36.33C49.8021 36.2367 49.9721 36.19 50.1388 36.19C50.3521 36.19 50.5188 36.27 50.6388 36.43L51.4388 37.43C51.1454 37.77 50.8221 38.0533 50.4688 38.28C50.1154 38.5 49.7488 38.6767 49.3688 38.81C48.9888 38.9367 48.6054 39.0233 48.2188 39.07C47.8321 39.1233 47.4588 39.15 47.0988 39.15C46.3788 39.15 45.7054 39.0333 45.0788 38.8C44.4588 38.56 43.9154 38.21 43.4488 37.75C42.9888 37.2833 42.6254 36.7067 42.3588 36.02C42.0921 35.3333 41.9588 34.5367 41.9588 33.63C41.9588 32.93 42.0721 32.27 42.2988 31.65C42.5321 31.03 42.8654 30.49 43.2988 30.03C43.7321 29.57 44.2588 29.2067 44.8788 28.94C45.4988 28.6667 46.1988 28.53 46.9788 28.53C47.6388 28.53 48.2454 28.6367 48.7988 28.85C49.3588 29.0567 49.8388 29.36 50.2388 29.76C50.6454 30.16 50.9588 30.6533 51.1788 31.24C51.4054 31.82 51.5188 32.4833 51.5188 33.23C51.5188 33.4367 51.5088 33.6067 51.4888 33.74C51.4688 33.8733 51.4354 33.98 51.3888 34.06C51.3421 34.14 51.2788 34.1967 51.1988 34.23C51.1188 34.2567 51.0154 34.27 50.8888 34.27H44.7088ZM55.4214 30.39C55.7481 29.8033 56.1247 29.34 56.5514 29C56.9781 28.66 57.4781 28.49 58.0514 28.49C58.5181 28.49 58.8981 28.6 59.1914 28.82L59.0114 30.86C58.9781 30.9933 58.9247 31.0867 58.8514 31.14C58.7847 31.1867 58.6914 31.21 58.5714 31.21C58.4647 31.21 58.3114 31.1967 58.1114 31.17C57.9114 31.1367 57.7247 31.12 57.5514 31.12C57.2981 31.12 57.0714 31.1567 56.8714 31.23C56.6781 31.3033 56.5047 31.4067 56.3514 31.54C56.1981 31.6733 56.0581 31.8367 55.9314 32.03C55.8114 32.2233 55.6981 32.4433 55.5914 32.69V39H52.8314V28.69H54.4614C54.7414 28.69 54.9347 28.74 55.0414 28.84C55.1481 28.94 55.2247 29.1133 55.2714 29.36L55.4214 30.39ZM69.5305 28.69L63.9705 41.77C63.8838 41.9567 63.7771 42.0967 63.6505 42.19C63.5305 42.2833 63.3371 42.33 63.0705 42.33H61.0205L62.9705 38.17L58.8305 28.69H61.2505C61.4705 28.69 61.6405 28.74 61.7605 28.84C61.8805 28.94 61.9671 29.0567 62.0205 29.19L63.9805 34.12C64.0538 34.3133 64.1171 34.51 64.1705 34.71C64.2305 34.9033 64.2871 35.0967 64.3405 35.29C64.4605 34.8967 64.5971 34.5033 64.7505 34.11L66.5705 29.19C66.6238 29.0433 66.7205 28.9233 66.8605 28.83C67.0005 28.7367 67.1538 28.69 67.3205 28.69H69.5305ZM78.9733 31.36C79.46 31.36 79.88 31.3 80.2333 31.18C80.5866 31.0533 80.8766 30.8833 81.1033 30.67C81.33 30.45 81.4966 30.1933 81.6033 29.9C81.71 29.6067 81.7633 29.2867 81.7633 28.94C81.7633 28.2533 81.5333 27.72 81.0733 27.34C80.62 26.96 79.9266 26.77 78.9933 26.77H77.4333V31.36H78.9733ZM86.0033 39H83.2933C82.7866 39 82.42 38.8067 82.1933 38.42L79.4333 33.97C79.32 33.7967 79.1933 33.67 79.0533 33.59C78.92 33.51 78.72 33.47 78.4533 33.47H77.4333V39H74.4333V24.49H78.9933C80.0066 24.49 80.8733 24.5967 81.5933 24.81C82.3133 25.0167 82.9033 25.3067 83.3633 25.68C83.8233 26.0533 84.16 26.5 84.3733 27.02C84.5866 27.5333 84.6933 28.1 84.6933 28.72C84.6933 29.2 84.6233 29.6567 84.4833 30.09C84.35 30.5167 84.1533 30.9067 83.8933 31.26C83.6333 31.6133 83.3133 31.9267 82.9333 32.2C82.5533 32.4733 82.12 32.6933 81.6333 32.86C81.8266 32.9667 82.0066 33.0967 82.1733 33.25C82.34 33.3967 82.49 33.5733 82.6233 33.78L86.0033 39ZM89.2648 29.7C89.4582 29.5267 89.6582 29.37 89.8648 29.23C90.0782 29.0833 90.3015 28.96 90.5348 28.86C90.7748 28.7533 91.0282 28.6733 91.2948 28.62C91.5682 28.56 91.8615 28.53 92.1748 28.53C92.7348 28.53 93.2315 28.6267 93.6648 28.82C94.0982 29.0133 94.4615 29.2833 94.7548 29.63C95.0548 29.9767 95.2782 30.39 95.4248 30.87C95.5782 31.35 95.6548 31.8767 95.6548 32.45V39H92.9048V32.45C92.9048 31.8767 92.7715 31.4333 92.5048 31.12C92.2382 30.8 91.8448 30.64 91.3248 30.64C90.9382 30.64 90.5748 30.7233 90.2348 30.89C89.8948 31.0567 89.5715 31.29 89.2648 31.59V39H86.5048V24.09H89.2648V29.7ZM106.72 28.69L101.16 41.77C101.073 41.9567 100.966 42.0967 100.84 42.19C100.72 42.2833 100.526 42.33 100.26 42.33H98.2095L100.16 38.17L96.0195 28.69H98.4395C98.6595 28.69 98.8295 28.74 98.9495 28.84C99.0695 28.94 99.1562 29.0567 99.2095 29.19L101.17 34.12C101.243 34.3133 101.306 34.51 101.36 34.71C101.42 34.9033 101.476 35.0967 101.53 35.29C101.65 34.8967 101.786 34.5033 101.94 34.11L103.76 29.19C103.813 29.0433 103.91 28.9233 104.05 28.83C104.19 28.7367 104.343 28.69 104.51 28.69H106.72ZM107.404 39V28.69H109.104C109.451 28.69 109.681 28.85 109.794 29.17L109.954 29.84C110.134 29.6533 110.317 29.48 110.504 29.32C110.697 29.16 110.904 29.0233 111.124 28.91C111.344 28.79 111.581 28.6967 111.834 28.63C112.094 28.5633 112.374 28.53 112.674 28.53C113.307 28.53 113.831 28.7 114.244 29.04C114.657 29.3733 114.971 29.82 115.184 30.38C115.351 30.0533 115.554 29.7733 115.794 29.54C116.041 29.3 116.307 29.1067 116.594 28.96C116.887 28.8133 117.194 28.7067 117.514 28.64C117.841 28.5667 118.167 28.53 118.494 28.53C119.074 28.53 119.587 28.6167 120.034 28.79C120.481 28.9633 120.854 29.22 121.154 29.56C121.461 29.8933 121.694 30.3033 121.854 30.79C122.014 31.2767 122.094 31.83 122.094 32.45V39H119.334V32.45C119.334 31.2433 118.817 30.64 117.784 30.64C117.551 30.64 117.334 30.68 117.134 30.76C116.941 30.8333 116.767 30.9467 116.614 31.1C116.467 31.2533 116.351 31.4433 116.264 31.67C116.184 31.8967 116.144 32.1567 116.144 32.45V39H113.384V32.45C113.384 31.7967 113.254 31.3333 112.994 31.06C112.741 30.78 112.364 30.64 111.864 30.64C111.544 30.64 111.241 30.7167 110.954 30.87C110.674 31.0167 110.411 31.2233 110.164 31.49V39H107.404ZM130.419 32.63C130.419 32.3433 130.379 32.07 130.299 31.81C130.226 31.55 130.106 31.32 129.939 31.12C129.772 30.92 129.562 30.7633 129.309 30.65C129.056 30.53 128.752 30.47 128.399 30.47C127.739 30.47 127.222 30.6567 126.849 31.03C126.476 31.4033 126.232 31.9367 126.119 32.63H130.419ZM126.079 34.27C126.166 35.2367 126.439 35.9433 126.899 36.39C127.366 36.8367 127.972 37.06 128.719 37.06C129.099 37.06 129.426 37.0167 129.699 36.93C129.979 36.8367 130.222 36.7367 130.429 36.63C130.642 36.5167 130.832 36.4167 130.999 36.33C131.172 36.2367 131.342 36.19 131.509 36.19C131.722 36.19 131.889 36.27 132.009 36.43L132.809 37.43C132.516 37.77 132.192 38.0533 131.839 38.28C131.486 38.5 131.119 38.6767 130.739 38.81C130.359 38.9367 129.976 39.0233 129.589 39.07C129.202 39.1233 128.829 39.15 128.469 39.15C127.749 39.15 127.076 39.0333 126.449 38.8C125.829 38.56 125.286 38.21 124.819 37.75C124.359 37.2833 123.996 36.7067 123.729 36.02C123.462 35.3333 123.329 34.5367 123.329 33.63C123.329 32.93 123.442 32.27 123.669 31.65C123.902 31.03 124.236 30.49 124.669 30.03C125.102 29.57 125.629 29.2067 126.249 28.94C126.869 28.6667 127.569 28.53 128.349 28.53C129.009 28.53 129.616 28.6367 130.169 28.85C130.729 29.0567 131.209 29.36 131.609 29.76C132.016 30.16 132.329 30.6533 132.549 31.24C132.776 31.82 132.889 32.4833 132.889 33.23C132.889 33.4367 132.879 33.6067 132.859 33.74C132.839 33.8733 132.806 33.98 132.759 34.06C132.712 34.14 132.649 34.1967 132.569 34.23C132.489 34.2567 132.386 34.27 132.259 34.27H126.079ZM140.612 30.81C140.538 30.9233 140.462 31.0067 140.382 31.06C140.308 31.1067 140.205 31.13 140.072 31.13C139.938 31.13 139.802 31.0967 139.662 31.03C139.522 30.9633 139.365 30.8933 139.192 30.82C139.018 30.74 138.818 30.6667 138.592 30.6C138.372 30.5333 138.115 30.5 137.822 30.5C137.375 30.5 137.028 30.5933 136.782 30.78C136.535 30.96 136.412 31.2 136.412 31.5C136.412 31.7067 136.482 31.88 136.622 32.02C136.762 32.16 136.945 32.2833 137.172 32.39C137.405 32.49 137.668 32.5867 137.962 32.68C138.255 32.7667 138.555 32.8633 138.862 32.97C139.175 33.0767 139.478 33.2 139.772 33.34C140.065 33.48 140.325 33.6567 140.552 33.87C140.785 34.0767 140.972 34.33 141.112 34.63C141.252 34.9233 141.322 35.28 141.322 35.7C141.322 36.2 141.228 36.6633 141.042 37.09C140.862 37.51 140.595 37.8733 140.242 38.18C139.888 38.4867 139.448 38.7267 138.922 38.9C138.395 39.0733 137.788 39.16 137.102 39.16C136.748 39.16 136.398 39.1267 136.052 39.06C135.705 39 135.375 38.9133 135.062 38.8C134.748 38.68 134.455 38.5433 134.182 38.39C133.908 38.2367 133.672 38.07 133.472 37.89L134.112 36.86C134.185 36.74 134.275 36.6467 134.382 36.58C134.495 36.5133 134.638 36.48 134.812 36.48C134.978 36.48 135.132 36.5233 135.272 36.61C135.412 36.69 135.568 36.78 135.742 36.88C135.915 36.9733 136.118 37.0633 136.352 37.15C136.592 37.23 136.888 37.27 137.242 37.27C137.508 37.27 137.738 37.24 137.932 37.18C138.125 37.12 138.282 37.04 138.402 36.94C138.522 36.8333 138.608 36.7167 138.662 36.59C138.722 36.4567 138.752 36.32 138.752 36.18C138.752 35.9533 138.678 35.77 138.532 35.63C138.392 35.4833 138.205 35.3567 137.972 35.25C137.745 35.1433 137.482 35.0467 137.182 34.96C136.882 34.8733 136.575 34.7767 136.262 34.67C135.955 34.5633 135.652 34.4367 135.352 34.29C135.058 34.1433 134.795 33.96 134.562 33.74C134.335 33.5133 134.148 33.2367 134.002 32.91C133.862 32.5833 133.792 32.1867 133.792 31.72C133.792 31.2933 133.875 30.89 134.042 30.51C134.208 30.1233 134.458 29.7833 134.792 29.49C135.125 29.1967 135.538 28.9633 136.032 28.79C136.532 28.6167 137.108 28.53 137.762 28.53C138.495 28.53 139.162 28.65 139.762 28.89C140.362 29.13 140.855 29.4433 141.242 29.83L140.612 30.81Z" fill="#2A2921"/>
<path d="M4.08 72.21C2.81 72.21 1.915 71.665 1.395 70.575C0.885 69.475 0.63 68.055 0.63 66.315C0.63 64.465 0.905 63.04 1.455 62.04C2.005 61.04 2.89 60.54 4.11 60.54C6.44 60.54 7.605 62.445 7.605 66.255C7.605 67.965 7.34 69.385 6.81 70.515C6.29 71.645 5.38 72.21 4.08 72.21ZM4.11 70.44C4.64 70.44 4.99 70.095 5.16 69.405C5.33 68.705 5.415 67.65 5.415 66.24C5.415 65.11 5.33 64.175 5.16 63.435C5 62.685 4.65 62.31 4.11 62.31C3.57 62.31 3.22 62.68 3.06 63.42C2.9 64.16 2.82 65.095 2.82 66.225C2.82 67.645 2.9 68.705 3.06 69.405C3.23 70.095 3.58 70.44 4.11 70.44ZM8.84742 63.735L10.9474 63.555V64.635C11.3774 64.255 11.7974 63.965 12.2074 63.765C12.6274 63.555 13.0124 63.45 13.3624 63.45C13.8924 63.45 14.3224 63.645 14.6524 64.035C14.9924 64.415 15.1624 64.93 15.1624 65.58V71.91L13.0624 72.09V66.375C13.0624 65.625 12.8074 65.25 12.2974 65.25C12.1274 65.25 11.9374 65.3 11.7274 65.4C11.5274 65.5 11.2674 65.645 10.9474 65.835V71.91L8.84742 72.09V63.735ZM19.3184 72.195C18.3184 72.195 17.5534 71.8 17.0234 71.01C16.4934 70.21 16.2284 69.15 16.2284 67.83C16.2284 66.49 16.4984 65.425 17.0384 64.635C17.5784 63.845 18.3634 63.45 19.3934 63.45C20.3734 63.45 21.1234 63.845 21.6434 64.635C22.1634 65.425 22.4234 66.49 22.4234 67.83C22.4234 67.91 22.4084 67.97 22.3784 68.01C22.3484 68.04 22.3334 68.06 22.3334 68.07H18.3284C18.3284 68.72 18.4134 69.315 18.5834 69.855C18.7534 70.385 19.0134 70.65 19.3634 70.65C19.7534 70.65 20.0434 70.425 20.2334 69.975C20.4234 69.525 20.5234 69.29 20.5334 69.27L22.1234 69.87C21.9134 70.59 21.5784 71.16 21.1184 71.58C20.6584 71.99 20.0584 72.195 19.3184 72.195ZM20.3534 66.855C20.3534 66.255 20.2734 65.78 20.1134 65.43C19.9534 65.08 19.7034 64.905 19.3634 64.905C19.1934 64.905 19.0284 64.99 18.8684 65.16C18.7084 65.33 18.5784 65.565 18.4784 65.865C18.3784 66.165 18.3284 66.495 18.3284 66.855H20.3534ZM27.161 65.145H26.126L26.201 63.555H27.161V63.405C27.161 62.815 27.196 62.34 27.266 61.98C27.346 61.61 27.536 61.3 27.836 61.05C28.146 60.8 28.621 60.675 29.261 60.675C29.871 60.675 30.346 60.75 30.686 60.9V62.16H30.221C29.821 62.16 29.561 62.27 29.441 62.49C29.331 62.71 29.276 63.015 29.276 63.405V63.555H30.761L30.671 65.145H29.276V71.91L27.161 72.09V65.145ZM34.2694 72.195C33.2594 72.195 32.4794 71.795 31.9294 70.995C31.3894 70.195 31.1194 69.13 31.1194 67.8C31.1194 66.48 31.3894 65.425 31.9294 64.635C32.4694 63.845 33.2494 63.45 34.2694 63.45C35.2794 63.45 36.0594 63.845 36.6094 64.635C37.1694 65.425 37.4494 66.48 37.4494 67.8C37.4494 69.12 37.1694 70.185 36.6094 70.995C36.0594 71.795 35.2794 72.195 34.2694 72.195ZM34.2694 70.635C34.7194 70.635 35.0094 70.36 35.1394 69.81C35.2694 69.26 35.3344 68.585 35.3344 67.785C35.3344 66.985 35.2694 66.31 35.1394 65.76C35.0094 65.21 34.7194 64.935 34.2694 64.935C33.8194 64.935 33.5344 65.195 33.4144 65.715C33.2944 66.235 33.2344 66.87 33.2344 67.62C33.2344 68.54 33.2944 69.275 33.4144 69.825C33.5344 70.365 33.8194 70.635 34.2694 70.635ZM38.5779 63.735L40.6779 63.555V64.92C40.9779 64.49 41.3479 64.145 41.7879 63.885C42.2379 63.615 42.8079 63.48 43.4979 63.48V65.535C43.1379 65.535 42.6629 65.6 42.0729 65.73C41.4929 65.85 41.0279 66.065 40.6779 66.375V71.91L38.5779 72.09V63.735ZM50.2245 72.195C49.3945 72.195 48.7245 72.01 48.2145 71.64C47.7045 71.26 47.3745 70.735 47.2245 70.065L48.8595 69.525C48.8995 69.715 48.9745 69.885 49.0845 70.035C49.3145 70.365 49.6495 70.53 50.0895 70.53C50.3395 70.53 50.5795 70.475 50.8095 70.365C51.0395 70.255 51.1545 70.085 51.1545 69.855C51.1545 69.545 50.9395 69.305 50.5095 69.135L48.7395 68.415C48.2695 68.215 47.9095 67.915 47.6595 67.515C47.4095 67.115 47.2845 66.625 47.2845 66.045C47.2845 65.505 47.4145 65.04 47.6745 64.65C47.9445 64.26 48.2945 63.965 48.7245 63.765C49.1645 63.555 49.6345 63.45 50.1345 63.45C50.7645 63.45 51.3445 63.635 51.8745 64.005C52.4045 64.365 52.7595 64.86 52.9395 65.49L51.1995 66.03C51.1595 65.86 51.0895 65.69 50.9895 65.52C50.7695 65.18 50.4895 65.01 50.1495 65.01C49.8995 65.01 49.6845 65.07 49.5045 65.19C49.3245 65.3 49.2345 65.465 49.2345 65.685C49.2345 65.945 49.4795 66.185 49.9695 66.405L51.4695 67.02C51.9995 67.27 52.4145 67.585 52.7145 67.965C53.0145 68.345 53.1645 68.855 53.1645 69.495C53.1645 70.075 53.0245 70.57 52.7445 70.98C52.4645 71.38 52.0995 71.685 51.6495 71.895C51.1995 72.095 50.7245 72.195 50.2245 72.195ZM56.917 72.195C55.907 72.195 55.127 71.795 54.577 70.995C54.037 70.195 53.767 69.13 53.767 67.8C53.767 66.48 54.037 65.425 54.577 64.635C55.117 63.845 55.897 63.45 56.917 63.45C57.927 63.45 58.707 63.845 59.257 64.635C59.817 65.425 60.097 66.48 60.097 67.8C60.097 69.12 59.817 70.185 59.257 70.995C58.707 71.795 57.927 72.195 56.917 72.195ZM56.917 70.635C57.367 70.635 57.657 70.36 57.787 69.81C57.917 69.26 57.982 68.585 57.982 67.785C57.982 66.985 57.917 66.31 57.787 65.76C57.657 65.21 57.367 64.935 56.917 64.935C56.467 64.935 56.182 65.195 56.062 65.715C55.942 66.235 55.882 66.87 55.882 67.62C55.882 68.54 55.942 69.275 56.062 69.825C56.182 70.365 56.467 70.635 56.917 70.635ZM61.2255 63.735L63.3255 63.555V64.92C63.6255 64.49 63.9955 64.145 64.4355 63.885C64.8855 63.615 65.4555 63.48 66.1455 63.48V65.535C65.7855 65.535 65.3105 65.6 64.7205 65.73C64.1405 65.85 63.6755 66.065 63.3255 66.375V71.91L61.2255 72.09V63.735ZM66.99 63.735L69.09 63.555V64.92C69.39 64.49 69.76 64.145 70.2 63.885C70.65 63.615 71.22 63.48 71.91 63.48V65.535C71.55 65.535 71.075 65.6 70.485 65.73C69.905 65.85 69.44 66.065 69.09 66.375V71.91L66.99 72.09V63.735ZM75.4995 72.195C74.4895 72.195 73.7095 71.795 73.1595 70.995C72.6195 70.195 72.3495 69.13 72.3495 67.8C72.3495 66.48 72.6195 65.425 73.1595 64.635C73.6995 63.845 74.4795 63.45 75.4995 63.45C76.5095 63.45 77.2895 63.845 77.8395 64.635C78.3995 65.425 78.6795 66.48 78.6795 67.8C78.6795 69.12 78.3995 70.185 77.8395 70.995C77.2895 71.795 76.5095 72.195 75.4995 72.195ZM75.4995 70.635C75.9495 70.635 76.2395 70.36 76.3695 69.81C76.4995 69.26 76.5645 68.585 76.5645 67.785C76.5645 66.985 76.4995 66.31 76.3695 65.76C76.2395 65.21 75.9495 64.935 75.4995 64.935C75.0495 64.935 74.7645 65.195 74.6445 65.715C74.5245 66.235 74.4645 66.87 74.4645 67.62C74.4645 68.54 74.5245 69.275 74.6445 69.825C74.7645 70.365 75.0495 70.635 75.4995 70.635ZM80.888 72L79.163 63.72L81.308 63.555L82.028 68.34L83.093 63.735L84.848 63.555L85.763 68.28L86.678 63.735L88.388 63.645L86.453 72H84.758L83.798 66.525L82.613 72H80.888ZM89.297 72.705C89.587 72.705 89.792 72.585 89.912 72.345C89.952 72.255 89.982 72.14 90.002 72H88.937V69.885H91.052V72C91.052 72.48 90.967 72.87 90.797 73.17C90.637 73.47 90.427 73.695 90.167 73.845C89.907 73.995 89.617 74.085 89.297 74.115V72.705ZM97.3583 72.09V62.505H95.0633L95.2283 60.75H101.828L101.648 62.505H99.5483V71.91L97.3583 72.09ZM103.697 72L101.972 63.72L104.117 63.555L104.837 68.34L105.902 63.735L107.657 63.555L108.572 68.28L109.487 63.735L111.197 63.645L109.262 72H107.567L106.607 66.525L105.422 72H103.697ZM114.686 72.195C113.676 72.195 112.896 71.795 112.346 70.995C111.806 70.195 111.536 69.13 111.536 67.8C111.536 66.48 111.806 65.425 112.346 64.635C112.886 63.845 113.666 63.45 114.686 63.45C115.696 63.45 116.476 63.845 117.026 64.635C117.586 65.425 117.866 66.48 117.866 67.8C117.866 69.12 117.586 70.185 117.026 70.995C116.476 71.795 115.696 72.195 114.686 72.195ZM114.686 70.635C115.136 70.635 115.426 70.36 115.556 69.81C115.686 69.26 115.751 68.585 115.751 67.785C115.751 66.985 115.686 66.31 115.556 65.76C115.426 65.21 115.136 64.935 114.686 64.935C114.236 64.935 113.951 65.195 113.831 65.715C113.711 66.235 113.651 66.87 113.651 67.62C113.651 68.54 113.711 69.275 113.831 69.825C113.951 70.365 114.236 70.635 114.686 70.635ZM122.761 65.145H121.726L121.801 63.555H122.761V63.405C122.761 62.815 122.796 62.34 122.866 61.98C122.946 61.61 123.136 61.3 123.436 61.05C123.746 60.8 124.221 60.675 124.861 60.675C125.471 60.675 125.946 60.75 126.286 60.9V62.16H125.821C125.421 62.16 125.161 62.27 125.041 62.49C124.931 62.71 124.876 63.015 124.876 63.405V63.555H126.361L126.271 65.145H124.876V71.91L122.761 72.09V65.145ZM129.87 72.195C128.86 72.195 128.08 71.795 127.53 70.995C126.99 70.195 126.72 69.13 126.72 67.8C126.72 66.48 126.99 65.425 127.53 64.635C128.07 63.845 128.85 63.45 129.87 63.45C130.88 63.45 131.66 63.845 132.21 64.635C132.77 65.425 133.05 66.48 133.05 67.8C133.05 69.12 132.77 70.185 132.21 70.995C131.66 71.795 130.88 72.195 129.87 72.195ZM129.87 70.635C130.32 70.635 130.61 70.36 130.74 69.81C130.87 69.26 130.935 68.585 130.935 67.785C130.935 66.985 130.87 66.31 130.74 65.76C130.61 65.21 130.32 64.935 129.87 64.935C129.42 64.935 129.135 65.195 129.015 65.715C128.895 66.235 128.835 66.87 128.835 67.62C128.835 68.54 128.895 69.275 129.015 69.825C129.135 70.365 129.42 70.635 129.87 70.635ZM134.178 63.735L136.278 63.555V64.92C136.578 64.49 136.948 64.145 137.388 63.885C137.838 63.615 138.408 63.48 139.098 63.48V65.535C138.738 65.535 138.263 65.6 137.673 65.73C137.093 65.85 136.628 66.065 136.278 66.375V71.91L134.178 72.09V63.735ZM0.915 84.735L2.97 84.555V85.635C3.28 85.275 3.635 84.99 4.035 84.78C4.445 84.56 4.85 84.45 5.25 84.45C5.88 84.45 6.295 84.89 6.495 85.77C7.155 84.89 7.895 84.45 8.715 84.45C9.255 84.45 9.64 84.665 9.87 85.095C10.1 85.525 10.215 86.165 10.215 87.015V92.91L8.145 93.09V87.12C8.145 86.85 8.095 86.64 7.995 86.49C7.895 86.33 7.78 86.25 7.65 86.25C7.44 86.25 7.24 86.31 7.05 86.43C6.87 86.54 6.715 86.68 6.585 86.85V92.91L4.53 93.09V87.105C4.53 86.825 4.485 86.615 4.395 86.475C4.315 86.325 4.22 86.25 4.11 86.25C3.91 86.25 3.705 86.31 3.495 86.43C3.285 86.55 3.11 86.69 2.97 86.85V92.91L0.915 93.09V84.735ZM11.6896 83.475V81.3L13.7896 81.15V83.385L11.6896 83.475ZM11.6746 93.09V84.735L13.7746 84.555V92.91L11.6746 93.09ZM15.315 84.735L17.415 84.555V85.92C17.715 85.49 18.085 85.145 18.525 84.885C18.975 84.615 19.545 84.48 20.235 84.48V86.535C19.875 86.535 19.4 86.6 18.81 86.73C18.23 86.85 17.765 87.065 17.415 87.375V92.91L15.315 93.09V84.735ZM23.9595 93.165C23.2795 93.165 22.7045 92.995 22.2345 92.655C21.7645 92.305 21.5295 91.69 21.5295 90.81V86.145H20.3595L20.4495 84.555H21.5895L21.7995 82.725L23.6295 82.47V84.555H25.3695L25.2795 86.145H23.6445V90.795C23.6445 91.095 23.7195 91.31 23.8695 91.44C24.0195 91.57 24.2395 91.635 24.5295 91.635C24.6895 91.635 24.9595 91.605 25.3395 91.545V93C25.2995 93.01 25.1395 93.04 24.8595 93.09C24.5895 93.14 24.2895 93.165 23.9595 93.165ZM26.1847 82.02L28.2847 81.75V85.635C29.1447 84.845 29.9497 84.45 30.6997 84.45C31.2297 84.45 31.6597 84.645 31.9897 85.035C32.3297 85.415 32.4997 85.93 32.4997 86.58V92.91L30.3997 93.09V87.345C30.3997 86.975 30.3297 86.7 30.1897 86.52C30.0597 86.34 29.8847 86.25 29.6647 86.25C29.4847 86.25 29.2947 86.295 29.0947 86.385C28.8947 86.475 28.6247 86.62 28.2847 86.82V92.91L26.1847 93.09V82.02ZM34.1357 93.705C34.4257 93.705 34.6307 93.585 34.7507 93.345C34.7907 93.255 34.8207 93.14 34.8407 93H33.7757V90.885H35.8907V93C35.8907 93.48 35.8057 93.87 35.6357 94.17C35.4757 94.47 35.2657 94.695 35.0057 94.845C34.7457 94.995 34.4557 95.085 34.1357 95.115V93.705ZM42.197 93.09V83.505H39.902L40.067 81.75H46.667L46.487 83.505H44.387V92.91L42.197 93.09ZM47.4554 82.02L49.5554 81.75V85.635C50.4154 84.845 51.2204 84.45 51.9704 84.45C52.5004 84.45 52.9304 84.645 53.2604 85.035C53.6004 85.415 53.7704 85.93 53.7704 86.58V92.91L51.6704 93.09V87.345C51.6704 86.975 51.6004 86.7 51.4604 86.52C51.3304 86.34 51.1554 86.25 50.9354 86.25C50.7554 86.25 50.5654 86.295 50.3654 86.385C50.1654 86.475 49.8954 86.62 49.5554 86.82V92.91L47.4554 93.09V82.02ZM55.2414 84.735L57.3414 84.555V85.92C57.6414 85.49 58.0114 85.145 58.4514 84.885C58.9014 84.615 59.4714 84.48 60.1614 84.48V86.535C59.8014 86.535 59.3264 86.6 58.7364 86.73C58.1564 86.85 57.6914 87.065 57.3414 87.375V92.91L55.2414 93.09V84.735ZM63.6908 93.195C62.6908 93.195 61.9258 92.8 61.3958 92.01C60.8658 91.21 60.6008 90.15 60.6008 88.83C60.6008 87.49 60.8708 86.425 61.4108 85.635C61.9508 84.845 62.7358 84.45 63.7658 84.45C64.7458 84.45 65.4958 84.845 66.0158 85.635C66.5358 86.425 66.7958 87.49 66.7958 88.83C66.7958 88.91 66.7808 88.97 66.7508 89.01C66.7208 89.04 66.7058 89.06 66.7058 89.07H62.7008C62.7008 89.72 62.7858 90.315 62.9558 90.855C63.1258 91.385 63.3858 91.65 63.7358 91.65C64.1258 91.65 64.4158 91.425 64.6058 90.975C64.7958 90.525 64.8958 90.29 64.9058 90.27L66.4958 90.87C66.2858 91.59 65.9508 92.16 65.4908 92.58C65.0308 92.99 64.4308 93.195 63.6908 93.195ZM64.7258 87.855C64.7258 87.255 64.6458 86.78 64.4858 86.43C64.3258 86.08 64.0758 85.905 63.7358 85.905C63.5658 85.905 63.4008 85.99 63.2408 86.16C63.0808 86.33 62.9508 86.565 62.8508 86.865C62.7508 87.165 62.7008 87.495 62.7008 87.855H64.7258ZM70.4514 93.195C69.4514 93.195 68.6864 92.8 68.1564 92.01C67.6264 91.21 67.3614 90.15 67.3614 88.83C67.3614 87.49 67.6314 86.425 68.1714 85.635C68.7114 84.845 69.4964 84.45 70.5264 84.45C71.5064 84.45 72.2564 84.845 72.7764 85.635C73.2964 86.425 73.5564 87.49 73.5564 88.83C73.5564 88.91 73.5414 88.97 73.5114 89.01C73.4814 89.04 73.4664 89.06 73.4664 89.07H69.4614C69.4614 89.72 69.5464 90.315 69.7164 90.855C69.8864 91.385 70.1464 91.65 70.4964 91.65C70.8864 91.65 71.1764 91.425 71.3664 90.975C71.5564 90.525 71.6564 90.29 71.6664 90.27L73.2564 90.87C73.0464 91.59 72.7114 92.16 72.2514 92.58C71.7914 92.99 71.1914 93.195 70.4514 93.195ZM71.4864 87.855C71.4864 87.255 71.4064 86.78 71.2464 86.43C71.0864 86.08 70.8364 85.905 70.4964 85.905C70.3264 85.905 70.1614 85.99 70.0014 86.16C69.8414 86.33 69.7114 86.565 69.6114 86.865C69.5114 87.165 69.4614 87.495 69.4614 87.855H71.4864ZM78.294 86.145H77.259L77.334 84.555H78.294V84.405C78.294 83.815 78.329 83.34 78.399 82.98C78.479 82.61 78.669 82.3 78.969 82.05C79.279 81.8 79.754 81.675 80.394 81.675C81.004 81.675 81.479 81.75 81.819 81.9V83.16H81.354C80.954 83.16 80.694 83.27 80.574 83.49C80.464 83.71 80.409 84.015 80.409 84.405V84.555H81.894L81.804 86.145H80.409V92.91L78.294 93.09V86.145ZM85.4024 93.195C84.3924 93.195 83.6124 92.795 83.0624 91.995C82.5224 91.195 82.2524 90.13 82.2524 88.8C82.2524 87.48 82.5224 86.425 83.0624 85.635C83.6024 84.845 84.3824 84.45 85.4024 84.45C86.4124 84.45 87.1924 84.845 87.7424 85.635C88.3024 86.425 88.5824 87.48 88.5824 88.8C88.5824 90.12 88.3024 91.185 87.7424 91.995C87.1924 92.795 86.4124 93.195 85.4024 93.195ZM85.4024 91.635C85.8524 91.635 86.1424 91.36 86.2724 90.81C86.4024 90.26 86.4674 89.585 86.4674 88.785C86.4674 87.985 86.4024 87.31 86.2724 86.76C86.1424 86.21 85.8524 85.935 85.4024 85.935C84.9524 85.935 84.6674 86.195 84.5474 86.715C84.4274 87.235 84.3674 87.87 84.3674 88.62C84.3674 89.54 84.4274 90.275 84.5474 90.825C84.6674 91.365 84.9524 91.635 85.4024 91.635ZM89.7109 84.735L91.8109 84.555V85.92C92.1109 85.49 92.4809 85.145 92.9209 84.885C93.3709 84.615 93.9409 84.48 94.6309 84.48V86.535C94.2709 86.535 93.7959 86.6 93.2059 86.73C92.6259 86.85 92.1609 87.065 91.8109 87.375V92.91L89.7109 93.09V84.735ZM100.217 93.195C99.8575 93.195 99.5325 93.085 99.2425 92.865C98.9525 92.635 98.7275 92.33 98.5675 91.95C98.4075 91.56 98.3275 91.125 98.3275 90.645C98.3275 89.555 98.6975 88.79 99.4375 88.35C100.187 87.9 101.057 87.645 102.047 87.585C102.047 87.045 102.012 86.645 101.942 86.385C101.872 86.125 101.702 85.995 101.432 85.995C101.202 85.995 101.027 86.085 100.907 86.265C100.787 86.445 100.712 86.675 100.682 86.955L98.6275 86.595C98.7275 85.825 99.0425 85.275 99.5725 84.945C100.102 84.615 100.722 84.45 101.432 84.45C102.342 84.45 103.022 84.69 103.472 85.17C103.932 85.65 104.162 86.275 104.162 87.045V91.41C104.162 91.88 104.237 92.38 104.387 92.91L102.332 93.09L102.092 92.055C101.912 92.375 101.647 92.645 101.297 92.865C100.947 93.085 100.587 93.195 100.217 93.195ZM101.192 91.695C101.362 91.695 101.502 91.655 101.612 91.575C101.732 91.495 101.877 91.365 102.047 91.185V88.845C101.547 88.845 101.147 88.98 100.847 89.25C100.547 89.52 100.397 89.94 100.397 90.51C100.397 90.89 100.462 91.185 100.592 91.395C100.732 91.595 100.932 91.695 101.192 91.695ZM110.04 93L108.315 84.72L110.46 84.555L111.18 89.34L112.245 84.735L114 84.555L114.915 89.28L115.83 84.735L117.54 84.645L115.605 93H113.91L112.95 87.525L111.765 93H110.04ZM120.969 93.195C119.969 93.195 119.204 92.8 118.674 92.01C118.144 91.21 117.879 90.15 117.879 88.83C117.879 87.49 118.149 86.425 118.689 85.635C119.229 84.845 120.014 84.45 121.044 84.45C122.024 84.45 122.774 84.845 123.294 85.635C123.814 86.425 124.074 87.49 124.074 88.83C124.074 88.91 124.059 88.97 124.029 89.01C123.999 89.04 123.984 89.06 123.984 89.07H119.979C119.979 89.72 120.064 90.315 120.234 90.855C120.404 91.385 120.664 91.65 121.014 91.65C121.404 91.65 121.694 91.425 121.884 90.975C122.074 90.525 122.174 90.29 122.184 90.27L123.774 90.87C123.564 91.59 123.229 92.16 122.769 92.58C122.309 92.99 121.709 93.195 120.969 93.195ZM122.004 87.855C122.004 87.255 121.924 86.78 121.764 86.43C121.604 86.08 121.354 85.905 121.014 85.905C120.844 85.905 120.679 85.99 120.519 86.16C120.359 86.33 120.229 86.565 120.129 86.865C120.029 87.165 119.979 87.495 119.979 87.855H122.004ZM127.1 93.195C125.48 93.195 124.67 91.725 124.67 88.785C124.67 87.255 124.87 86.15 125.27 85.47C125.67 84.79 126.295 84.45 127.145 84.45C127.505 84.45 127.85 84.57 128.18 84.81C128.51 85.04 128.75 85.33 128.9 85.68V82.02L131.015 81.75V92.91L129.425 93.09L128.9 91.95C128.8 92.32 128.615 92.62 128.345 92.85C128.075 93.08 127.66 93.195 127.1 93.195ZM127.88 91.695C128.18 91.695 128.425 91.53 128.615 91.2C128.805 90.86 128.9 90.29 128.9 89.49V86.67C128.61 86.22 128.27 85.995 127.88 85.995C127.55 85.995 127.305 86.115 127.145 86.355C126.995 86.585 126.895 86.89 126.845 87.27C126.805 87.65 126.785 88.155 126.785 88.785C126.785 89.425 126.805 89.945 126.845 90.345C126.895 90.745 127 91.07 127.16 91.32C127.32 91.57 127.56 91.695 127.88 91.695ZM134.563 93.195C132.943 93.195 132.133 91.725 132.133 88.785C132.133 87.255 132.333 86.15 132.733 85.47C133.133 84.79 133.758 84.45 134.608 84.45C134.968 84.45 135.313 84.57 135.643 84.81C135.973 85.04 136.213 85.33 136.363 85.68V82.02L138.478 81.75V92.91L136.888 93.09L136.363 91.95C136.263 92.32 136.078 92.62 135.808 92.85C135.538 93.08 135.123 93.195 134.563 93.195ZM135.343 91.695C135.643 91.695 135.888 91.53 136.078 91.2C136.268 90.86 136.363 90.29 136.363 89.49V86.67C136.073 86.22 135.733 85.995 135.343 85.995C135.013 85.995 134.768 86.115 134.608 86.355C134.458 86.585 134.358 86.89 134.308 87.27C134.268 87.65 134.248 88.155 134.248 88.785C134.248 89.425 134.268 89.945 134.308 90.345C134.358 90.745 134.463 91.07 134.623 91.32C134.783 91.57 135.023 91.695 135.343 91.695ZM139.987 83.475V81.3L142.087 81.15V83.385L139.987 83.475ZM139.972 93.09V84.735L142.072 84.555V92.91L139.972 93.09ZM143.612 84.735L145.712 84.555V85.635C146.142 85.255 146.562 84.965 146.972 84.765C147.392 84.555 147.777 84.45 148.127 84.45C148.657 84.45 149.087 84.645 149.417 85.035C149.757 85.415 149.927 85.93 149.927 86.58V92.91L147.827 93.09V87.375C147.827 86.625 147.572 86.25 147.062 86.25C146.892 86.25 146.702 86.3 146.492 86.4C146.292 86.5 146.032 86.645 145.712 86.835V92.91L143.612 93.09V84.735ZM154.263 95.625C153.143 95.625 152.273 95.465 151.653 95.145C151.033 94.835 150.723 94.405 150.723 93.855C150.723 93.475 150.863 93.155 151.143 92.895C151.423 92.625 151.778 92.41 152.208 92.25C151.828 92.14 151.543 92 151.353 91.83C151.163 91.66 151.068 91.415 151.068 91.095C151.068 90.705 151.203 90.355 151.473 90.045C151.743 89.725 152.098 89.46 152.538 89.25C151.638 88.73 151.188 88.005 151.188 87.075C151.188 86.515 151.338 86.04 151.638 85.65C151.948 85.25 152.343 84.95 152.823 84.75C153.313 84.55 153.823 84.45 154.353 84.45C155.143 84.45 155.843 84.66 156.453 85.08C156.753 84.81 157.053 84.585 157.353 84.405C157.663 84.225 158.048 84.135 158.508 84.135V85.53C157.928 85.53 157.483 85.6 157.173 85.74C157.293 86.05 157.373 86.295 157.413 86.475C157.463 86.655 157.488 86.85 157.488 87.06C157.488 87.74 157.258 88.335 156.798 88.845C156.338 89.345 155.588 89.595 154.548 89.595L153.993 89.58C153.903 89.57 153.793 89.565 153.663 89.565C153.533 89.605 153.408 89.695 153.288 89.835C153.168 89.965 153.108 90.105 153.108 90.255C153.108 90.395 153.158 90.515 153.258 90.615C153.358 90.715 153.483 90.775 153.633 90.795L156.033 91.065C157.423 91.225 158.118 91.9 158.118 93.09C158.118 94.02 157.758 94.675 157.038 95.055C156.328 95.435 155.403 95.625 154.263 95.625ZM154.323 88.395C154.633 88.395 154.873 88.28 155.043 88.05C155.213 87.81 155.298 87.475 155.298 87.045C155.298 86.605 155.208 86.275 155.028 86.055C154.848 85.835 154.618 85.725 154.338 85.725C154.028 85.725 153.783 85.85 153.603 86.1C153.423 86.35 153.333 86.66 153.333 87.03C153.333 87.37 153.408 87.685 153.558 87.975C153.708 88.255 153.963 88.395 154.323 88.395ZM154.353 94.095C155.493 94.095 156.063 93.785 156.063 93.165C156.063 92.995 156.018 92.87 155.928 92.79C155.838 92.71 155.693 92.655 155.493 92.625C155.303 92.585 154.988 92.55 154.548 92.52L153.303 92.415C153.123 92.475 152.968 92.585 152.838 92.745C152.708 92.895 152.643 93.065 152.643 93.255C152.643 93.525 152.783 93.73 153.063 93.87C153.353 94.02 153.783 94.095 154.353 94.095ZM159.247 93.705C159.537 93.705 159.742 93.585 159.862 93.345C159.902 93.255 159.932 93.14 159.952 93H158.887V90.885H161.002V93C161.002 93.48 160.917 93.87 160.747 94.17C160.587 94.47 160.377 94.695 160.117 94.845C159.857 94.995 159.567 95.085 159.247 95.115V93.705ZM0.18 114L2.55 102.885L5.685 102.75L8.115 113.91L5.715 114L5.31 111.585H2.625L2.145 114H0.18ZM3.03 109.785H4.905L3.87 104.4L3.03 109.785ZM8.89137 105.735L10.9914 105.555V106.635C11.4214 106.255 11.8414 105.965 12.2514 105.765C12.6714 105.555 13.0564 105.45 13.4064 105.45C13.9364 105.45 14.3664 105.645 14.6964 106.035C15.0364 106.415 15.2064 106.93 15.2064 107.58V113.91L13.1064 114.09V108.375C13.1064 107.625 12.8514 107.25 12.3414 107.25C12.1714 107.25 11.9814 107.3 11.7714 107.4C11.5714 107.5 11.3114 107.645 10.9914 107.835V113.91L8.89137 114.09V105.735ZM18.7323 114.195C17.1123 114.195 16.3023 112.725 16.3023 109.785C16.3023 108.255 16.5023 107.15 16.9023 106.47C17.3023 105.79 17.9273 105.45 18.7773 105.45C19.1373 105.45 19.4823 105.57 19.8123 105.81C20.1423 106.04 20.3823 106.33 20.5323 106.68V103.02L22.6473 102.75V113.91L21.0573 114.09L20.5323 112.95C20.4323 113.32 20.2473 113.62 19.9773 113.85C19.7073 114.08 19.2923 114.195 18.7323 114.195ZM19.5123 112.695C19.8123 112.695 20.0573 112.53 20.2473 112.2C20.4373 111.86 20.5323 111.29 20.5323 110.49V107.67C20.2423 107.22 19.9023 106.995 19.5123 106.995C19.1823 106.995 18.9373 107.115 18.7773 107.355C18.6273 107.585 18.5273 107.89 18.4773 108.27C18.4373 108.65 18.4173 109.155 18.4173 109.785C18.4173 110.425 18.4373 110.945 18.4773 111.345C18.5273 111.745 18.6323 112.07 18.7923 112.32C18.9523 112.57 19.1923 112.695 19.5123 112.695ZM27.9081 107.145H26.8731L26.9481 105.555H27.9081V105.405C27.9081 104.815 27.9431 104.34 28.0131 103.98C28.0931 103.61 28.2831 103.3 28.5831 103.05C28.8931 102.8 29.3681 102.675 30.0081 102.675C30.6181 102.675 31.0931 102.75 31.4331 102.9V104.16H30.9681C30.5681 104.16 30.3081 104.27 30.1881 104.49C30.0781 104.71 30.0231 105.015 30.0231 105.405V105.555H31.5081L31.4181 107.145H30.0231V113.91L27.9081 114.09V107.145ZM35.0164 114.195C34.0064 114.195 33.2264 113.795 32.6764 112.995C32.1364 112.195 31.8664 111.13 31.8664 109.8C31.8664 108.48 32.1364 107.425 32.6764 106.635C33.2164 105.845 33.9964 105.45 35.0164 105.45C36.0264 105.45 36.8064 105.845 37.3564 106.635C37.9164 107.425 38.1964 108.48 38.1964 109.8C38.1964 111.12 37.9164 112.185 37.3564 112.995C36.8064 113.795 36.0264 114.195 35.0164 114.195ZM35.0164 112.635C35.4664 112.635 35.7564 112.36 35.8864 111.81C36.0164 111.26 36.0814 110.585 36.0814 109.785C36.0814 108.985 36.0164 108.31 35.8864 107.76C35.7564 107.21 35.4664 106.935 35.0164 106.935C34.5664 106.935 34.2814 107.195 34.1614 107.715C34.0414 108.235 33.9814 108.87 33.9814 109.62C33.9814 110.54 34.0414 111.275 34.1614 111.825C34.2814 112.365 34.5664 112.635 35.0164 112.635ZM41.14 114.195C40.59 114.195 40.14 114.005 39.79 113.625C39.44 113.235 39.265 112.715 39.265 112.065V105.735L41.365 105.555V111.21C41.365 111.61 41.43 111.9 41.56 112.08C41.69 112.25 41.89 112.335 42.16 112.335C42.37 112.335 42.595 112.285 42.835 112.185C43.075 112.075 43.29 111.905 43.48 111.675V105.735L45.595 105.555V113.91L43.48 114.09V113.01C43.13 113.41 42.745 113.71 42.325 113.91C41.915 114.1 41.52 114.195 41.14 114.195ZM47.1109 105.735L49.2109 105.555V106.92C49.5109 106.49 49.8809 106.145 50.3209 105.885C50.7709 105.615 51.3409 105.48 52.0309 105.48V107.535C51.6709 107.535 51.1959 107.6 50.6059 107.73C50.0259 107.85 49.5609 108.065 49.2109 108.375V113.91L47.1109 114.09V105.735ZM56.6425 107.145H55.6075L55.6825 105.555H56.6425V105.405C56.6425 104.815 56.6775 104.34 56.7475 103.98C56.8275 103.61 57.0175 103.3 57.3175 103.05C57.6275 102.8 58.1025 102.675 58.7425 102.675C59.3525 102.675 59.8275 102.75 60.1675 102.9V104.16H59.7025C59.3025 104.16 59.0425 104.27 58.9225 104.49C58.8125 104.71 58.7575 105.015 58.7575 105.405V105.555H60.2425L60.1525 107.145H58.7575V113.91L56.6425 114.09V107.145ZM63.7508 114.195C62.7408 114.195 61.9608 113.795 61.4108 112.995C60.8708 112.195 60.6008 111.13 60.6008 109.8C60.6008 108.48 60.8708 107.425 61.4108 106.635C61.9508 105.845 62.7308 105.45 63.7508 105.45C64.7608 105.45 65.5408 105.845 66.0908 106.635C66.6508 107.425 66.9308 108.48 66.9308 109.8C66.9308 111.12 66.6508 112.185 66.0908 112.995C65.5408 113.795 64.7608 114.195 63.7508 114.195ZM63.7508 112.635C64.2008 112.635 64.4908 112.36 64.6208 111.81C64.7508 111.26 64.8158 110.585 64.8158 109.785C64.8158 108.985 64.7508 108.31 64.6208 107.76C64.4908 107.21 64.2008 106.935 63.7508 106.935C63.3008 106.935 63.0158 107.195 62.8958 107.715C62.7758 108.235 62.7158 108.87 62.7158 109.62C62.7158 110.54 62.7758 111.275 62.8958 111.825C63.0158 112.365 63.3008 112.635 63.7508 112.635ZM68.0593 105.735L70.1593 105.555V106.92C70.4593 106.49 70.8293 106.145 71.2693 105.885C71.7193 105.615 72.2893 105.48 72.9793 105.48V107.535C72.6193 107.535 72.1443 107.6 71.5543 107.73C70.9743 107.85 70.5093 108.065 70.1593 108.375V113.91L68.0593 114.09V105.735ZM79.2409 114.195C77.6209 114.195 76.8109 112.725 76.8109 109.785C76.8109 108.255 77.0109 107.15 77.4109 106.47C77.8109 105.79 78.4359 105.45 79.2859 105.45C79.6459 105.45 79.9909 105.57 80.3209 105.81C80.6509 106.04 80.8909 106.33 81.0409 106.68V103.02L83.1559 102.75V113.91L81.5659 114.09L81.0409 112.95C80.9409 113.32 80.7559 113.62 80.4859 113.85C80.2159 114.08 79.8009 114.195 79.2409 114.195ZM80.0209 112.695C80.3209 112.695 80.5659 112.53 80.7559 112.2C80.9459 111.86 81.0409 111.29 81.0409 110.49V107.67C80.7509 107.22 80.4109 106.995 80.0209 106.995C79.6909 106.995 79.4459 107.115 79.2859 107.355C79.1359 107.585 79.0359 107.89 78.9859 108.27C78.9459 108.65 78.9259 109.155 78.9259 109.785C78.9259 110.425 78.9459 110.945 78.9859 111.345C79.0359 111.745 79.1409 112.07 79.3009 112.32C79.4609 112.57 79.7009 112.695 80.0209 112.695ZM87.3346 114.195C86.3346 114.195 85.5696 113.8 85.0396 113.01C84.5096 112.21 84.2446 111.15 84.2446 109.83C84.2446 108.49 84.5146 107.425 85.0546 106.635C85.5946 105.845 86.3796 105.45 87.4096 105.45C88.3896 105.45 89.1396 105.845 89.6596 106.635C90.1796 107.425 90.4396 108.49 90.4396 109.83C90.4396 109.91 90.4246 109.97 90.3946 110.01C90.3646 110.04 90.3496 110.06 90.3496 110.07H86.3446C86.3446 110.72 86.4296 111.315 86.5996 111.855C86.7696 112.385 87.0296 112.65 87.3796 112.65C87.7696 112.65 88.0596 112.425 88.2496 111.975C88.4396 111.525 88.5396 111.29 88.5496 111.27L90.1396 111.87C89.9296 112.59 89.5946 113.16 89.1346 113.58C88.6746 113.99 88.0746 114.195 87.3346 114.195ZM88.3696 108.855C88.3696 108.255 88.2896 107.78 88.1296 107.43C87.9696 107.08 87.7196 106.905 87.3796 106.905C87.2096 106.905 87.0446 106.99 86.8846 107.16C86.7246 107.33 86.5946 107.565 86.4946 107.865C86.3946 108.165 86.3446 108.495 86.3446 108.855H88.3696ZM92.7901 114.195C92.4301 114.195 92.1051 114.085 91.8151 113.865C91.5251 113.635 91.3001 113.33 91.1401 112.95C90.9801 112.56 90.9001 112.125 90.9001 111.645C90.9001 110.555 91.2701 109.79 92.0101 109.35C92.7601 108.9 93.6301 108.645 94.6201 108.585C94.6201 108.045 94.5851 107.645 94.5151 107.385C94.4451 107.125 94.2751 106.995 94.0051 106.995C93.7751 106.995 93.6001 107.085 93.4801 107.265C93.3601 107.445 93.2851 107.675 93.2551 107.955L91.2001 107.595C91.3001 106.825 91.6151 106.275 92.1451 105.945C92.6751 105.615 93.2951 105.45 94.0051 105.45C94.9151 105.45 95.5951 105.69 96.0451 106.17C96.5051 106.65 96.7351 107.275 96.7351 108.045V112.41C96.7351 112.88 96.8101 113.38 96.9601 113.91L94.9051 114.09L94.6651 113.055C94.4851 113.375 94.2201 113.645 93.8701 113.865C93.5201 114.085 93.1601 114.195 92.7901 114.195ZM93.7651 112.695C93.9351 112.695 94.0751 112.655 94.1851 112.575C94.3051 112.495 94.4501 112.365 94.6201 112.185V109.845C94.1201 109.845 93.7201 109.98 93.4201 110.25C93.1201 110.52 92.9701 110.94 92.9701 111.51C92.9701 111.89 93.0351 112.185 93.1651 112.395C93.3051 112.595 93.5051 112.695 93.7651 112.695ZM101.051 114.165C100.371 114.165 99.7957 113.995 99.3257 113.655C98.8557 113.305 98.6207 112.69 98.6207 111.81V107.145H97.4507L97.5407 105.555H98.6807L98.8907 103.725L100.721 103.47V105.555H102.461L102.371 107.145H100.736V111.795C100.736 112.095 100.811 112.31 100.961 112.44C101.111 112.57 101.331 112.635 101.621 112.635C101.781 112.635 102.051 112.605 102.431 112.545V114C102.391 114.01 102.231 114.04 101.951 114.09C101.681 114.14 101.381 114.165 101.051 114.165ZM103.276 103.02L105.376 102.75V106.635C106.236 105.845 107.041 105.45 107.791 105.45C108.321 105.45 108.751 105.645 109.081 106.035C109.421 106.415 109.591 106.93 109.591 107.58V113.91L107.491 114.09V108.345C107.491 107.975 107.421 107.7 107.281 107.52C107.151 107.34 106.976 107.25 106.756 107.25C106.576 107.25 106.386 107.295 106.186 107.385C105.986 107.475 105.716 107.62 105.376 107.82V113.91L103.276 114.09V103.02Z" fill="#2A2921"/>
</svg>
