<svg width="169" height="140" viewBox="0 0 169 140" fill="none" xmlns="http://www.w3.org/2000/svg">
<path d="M12.04 38.32L4.06 27.6C3.94 27.44 3.82 27.2867 3.7 27.14C3.59333 26.98 3.48 26.82 3.36 26.66H3.34L3.4 35.22C3.4 35.5533 3.4 35.8867 3.4 36.22C3.4 36.5533 3.38667 36.88 3.36 37.2C3.6 37.1867 3.84 37.1733 4.08 37.16C4.32 37.1467 4.56 37.1333 4.8 37.12V38H1.14V37.34C1.55333 37.34 1.84667 37.2533 2.02 37.08C2.20667 36.8933 2.32667 36.68 2.38 36.44C2.43333 36.1867 2.46 35.96 2.46 35.76L2.48 26.14V24.8C2.26667 24.8133 2.04667 24.8267 1.82 24.84C1.59333 24.8533 1.36667 24.8667 1.14 24.88V24H3.52L11.02 34.04C11.1933 34.2667 11.36 34.4933 11.52 34.72C11.6933 34.9467 11.8667 35.1733 12.04 35.4H12.06L12.08 26.24C12.08 25.68 12.1 25.2 12.14 24.8C11.9 24.8133 11.66 24.8267 11.42 24.84C11.18 24.8533 10.94 24.8667 10.7 24.88V24H14.38V24.66C13.8867 24.6733 13.5467 24.7867 13.36 25C13.1733 25.2133 13.0733 25.5 13.06 25.86C13.0467 26.22 13.04 26.64 13.04 27.12L13 38.32H12.04ZM19.9344 38.32C19.2144 38.32 18.6077 38.1867 18.1144 37.92C17.6344 37.6533 17.2677 37.2 17.0144 36.56C16.7744 35.92 16.6544 35.0533 16.6544 33.96V30.4C16.6544 30.1867 16.6544 29.9733 16.6544 29.76C16.6677 29.5467 16.6944 29.3267 16.7344 29.1C16.5077 29.1133 16.2744 29.1267 16.0344 29.14C15.8077 29.14 15.581 29.1467 15.3544 29.16V28.34H15.9744C16.5477 28.34 16.961 28.2867 17.2144 28.18C17.481 28.06 17.6877 27.9333 17.8344 27.8H18.4144V33.9C18.4144 35.0467 18.5744 35.9067 18.8944 36.48C19.2277 37.04 19.7877 37.3133 20.5744 37.3C21.081 37.2867 21.561 37.1333 22.0144 36.84C22.481 36.5333 22.8544 36.1733 23.1344 35.76V30.62C23.1344 30.3 23.141 30.0267 23.1544 29.8C23.1677 29.56 23.1944 29.3267 23.2344 29.1C22.9944 29.1133 22.7544 29.1267 22.5144 29.14C22.2744 29.14 22.0344 29.1467 21.7944 29.16V28.34H22.4144C22.9877 28.34 23.401 28.2867 23.6544 28.18C23.921 28.06 24.1277 27.9333 24.2744 27.8H24.8544L24.8344 35.36C24.8344 35.5733 24.8277 35.8733 24.8144 36.26C24.801 36.6467 24.781 36.9733 24.7544 37.24C24.9944 37.2267 25.2344 37.2133 25.4744 37.2C25.7144 37.1867 25.9544 37.1733 26.1944 37.16V38H23.3344C23.2944 37.7733 23.261 37.56 23.2344 37.36C23.221 37.16 23.2077 36.9733 23.1944 36.8C22.781 37.2133 22.281 37.5733 21.6944 37.88C21.1077 38.1733 20.521 38.32 19.9344 38.32ZM27.248 37.4C27.6613 37.4 27.948 37.3 28.108 37.1C28.268 36.8867 28.3613 36.6 28.388 36.24C28.4146 35.8667 28.428 35.44 28.428 34.96V30.4C28.428 30.1867 28.428 29.9733 28.428 29.76C28.4413 29.5467 28.468 29.3267 28.508 29.1C28.268 29.1133 28.028 29.1267 27.788 29.14C27.5613 29.14 27.328 29.1467 27.088 29.16V28.34H27.708C28.2813 28.34 28.6746 28.2867 28.888 28.18C29.1146 28.06 29.3013 27.9333 29.448 27.8H30.028C30.0546 28.0133 30.0746 28.28 30.088 28.6C30.1013 28.9067 30.1146 29.3 30.128 29.78C30.328 29.4467 30.6013 29.12 30.948 28.8C31.2946 28.48 31.6813 28.2133 32.108 28C32.548 27.7867 33.008 27.68 33.488 27.68C33.8613 27.68 34.188 27.78 34.468 27.98C34.748 28.18 34.888 28.5 34.888 28.94C34.888 29.1133 34.808 29.32 34.648 29.56C34.5013 29.8 34.248 29.9133 33.888 29.9C33.5946 29.8867 33.3613 29.7733 33.188 29.56C33.0146 29.3333 32.948 29.0733 32.988 28.78C32.4813 28.7533 31.968 28.9467 31.448 29.36C30.928 29.7733 30.4946 30.3067 30.148 30.96L30.168 35.88C30.168 36.1467 30.1613 36.3867 30.148 36.6C30.148 36.8 30.128 37.0133 30.088 37.24C30.3013 37.2267 30.508 37.22 30.708 37.22C30.9213 37.2067 31.1346 37.1933 31.348 37.18V38H27.248V37.4ZM39.6003 38.32C38.9336 38.32 38.3403 38.2267 37.8203 38.04C37.3003 37.8667 36.8736 37.6667 36.5403 37.44L36.6203 38.14H35.7803L35.6603 34.7H36.2803C36.307 35.2467 36.4603 35.74 36.7403 36.18C37.0203 36.6067 37.3803 36.94 37.8203 37.18C38.2603 37.42 38.7336 37.54 39.2403 37.54C39.587 37.54 39.927 37.4867 40.2603 37.38C40.5936 37.26 40.8736 37.0867 41.1003 36.86C41.327 36.62 41.4403 36.32 41.4403 35.96C41.4403 35.5867 41.327 35.28 41.1003 35.04C40.887 34.7867 40.6003 34.5667 40.2403 34.38C39.8803 34.1933 39.4936 34.02 39.0803 33.86C38.547 33.6467 38.0136 33.42 37.4803 33.18C36.9603 32.9267 36.527 32.6 36.1803 32.2C35.8336 31.7867 35.6603 31.2467 35.6603 30.58C35.6603 30.3 35.7136 29.9933 35.8203 29.66C35.927 29.3267 36.107 29.0133 36.3603 28.72C36.6136 28.4133 36.9603 28.1667 37.4003 27.98C37.8403 27.78 38.4003 27.68 39.0803 27.68C39.4403 27.68 39.8403 27.74 40.2803 27.86C40.7203 27.98 41.147 28.2067 41.5603 28.54L41.5203 27.78H42.3603V31.28H41.7203C41.6936 30.8133 41.587 30.3667 41.4003 29.94C41.2136 29.5 40.9403 29.14 40.5803 28.86C40.2203 28.5667 39.7536 28.42 39.1803 28.42C38.567 28.42 38.087 28.5733 37.7403 28.88C37.3936 29.1867 37.2203 29.54 37.2203 29.94C37.2203 30.3533 37.347 30.7 37.6003 30.98C37.867 31.2467 38.207 31.48 38.6203 31.68C39.0336 31.88 39.4736 32.0733 39.9403 32.26C40.447 32.4733 40.9403 32.7067 41.4203 32.96C41.9003 33.2133 42.2936 33.5333 42.6003 33.92C42.907 34.2933 43.0603 34.78 43.0603 35.38C43.0603 36.0467 42.887 36.6 42.5403 37.04C42.207 37.48 41.7736 37.8 41.2403 38C40.7203 38.2133 40.1736 38.32 39.6003 38.32ZM49.1981 38.32C48.2781 38.32 47.4448 38.1067 46.6981 37.68C45.9648 37.24 45.3848 36.6267 44.9581 35.84C44.5315 35.04 44.3181 34.1 44.3181 33.02C44.3181 32.0867 44.5248 31.2133 44.9381 30.4C45.3648 29.5867 45.9581 28.9333 46.7181 28.44C47.4781 27.9333 48.3581 27.68 49.3581 27.68C50.1048 27.68 50.7848 27.84 51.3981 28.16C52.0115 28.48 52.4981 28.9667 52.8581 29.62C53.2315 30.2733 53.4181 31.1 53.4181 32.1L46.3781 32.22C46.3648 33.7533 46.6181 34.9867 47.1381 35.92C47.6581 36.84 48.5048 37.3 49.6781 37.3C50.0915 37.3 50.5115 37.2267 50.9381 37.08C51.3781 36.9333 51.7848 36.7333 52.1581 36.48C52.5315 36.2267 52.8315 35.9467 53.0581 35.64L53.5381 36.04C53.1781 36.6 52.7448 37.0467 52.2381 37.38C51.7315 37.7133 51.2115 37.9533 50.6781 38.1C50.1448 38.2467 49.6515 38.32 49.1981 38.32ZM46.4381 31.38H51.5381C51.5381 30.9 51.4648 30.44 51.3181 30C51.1848 29.5467 50.9581 29.18 50.6381 28.9C50.3181 28.6067 49.8981 28.46 49.3781 28.46C48.6048 28.46 47.9581 28.6933 47.4381 29.16C46.9315 29.6133 46.5981 30.3533 46.4381 31.38ZM54.798 37.4C55.2113 37.4 55.498 37.3 55.658 37.1C55.818 36.8867 55.9113 36.6 55.938 36.24C55.9646 35.8667 55.978 35.44 55.978 34.96V30.4C55.978 30.1867 55.978 29.9733 55.978 29.76C55.9913 29.5467 56.018 29.3267 56.058 29.1C55.818 29.1133 55.578 29.1267 55.338 29.14C55.1113 29.14 54.878 29.1467 54.638 29.16V28.34H55.258C55.8313 28.34 56.2246 28.2867 56.438 28.18C56.6646 28.06 56.8513 27.9333 56.998 27.8H57.578C57.6046 28.0133 57.6246 28.28 57.638 28.6C57.6513 28.9067 57.6646 29.3 57.678 29.78C57.878 29.4467 58.1513 29.12 58.498 28.8C58.8446 28.48 59.2313 28.2133 59.658 28C60.098 27.7867 60.558 27.68 61.038 27.68C61.4113 27.68 61.738 27.78 62.018 27.98C62.298 28.18 62.438 28.5 62.438 28.94C62.438 29.1133 62.358 29.32 62.198 29.56C62.0513 29.8 61.798 29.9133 61.438 29.9C61.1446 29.8867 60.9113 29.7733 60.738 29.56C60.5646 29.3333 60.498 29.0733 60.538 28.78C60.0313 28.7533 59.518 28.9467 58.998 29.36C58.478 29.7733 58.0446 30.3067 57.698 30.96L57.718 35.88C57.718 36.1467 57.7113 36.3867 57.698 36.6C57.698 36.8 57.678 37.0133 57.638 37.24C57.8513 37.2267 58.058 37.22 58.258 37.22C58.4713 37.2067 58.6846 37.1933 58.898 37.18V38H54.798V37.4ZM64.9223 43.42C64.509 43.42 64.1557 43.32 63.8623 43.12C63.569 42.92 63.4223 42.6133 63.4223 42.2C63.4223 41.96 63.5023 41.74 63.6623 41.54C63.8223 41.34 64.029 41.24 64.2823 41.24C64.6023 41.2267 64.8157 41.3267 64.9223 41.54C65.0423 41.7533 65.1023 41.94 65.1023 42.1C65.1023 42.14 65.1023 42.18 65.1023 42.22C65.1023 42.2733 65.0957 42.3267 65.0823 42.38C65.1223 42.4067 65.1957 42.42 65.3023 42.42C65.4623 42.42 65.6357 42.3533 65.8223 42.22C66.009 42.0867 66.1757 41.8933 66.3223 41.64C66.4957 41.3467 66.6957 40.9067 66.9223 40.32C67.1623 39.7333 67.429 39.0333 67.7223 38.22L64.6023 31.54C64.2557 30.7933 64.0023 30.2 63.8423 29.76C63.6957 29.32 63.5957 28.9933 63.5423 28.78L62.5823 28.82V28H66.7223V28.6H66.6423C66.0823 28.64 65.7757 28.8533 65.7223 29.24C65.669 29.6133 65.8223 30.1867 66.1823 30.96L68.5223 35.98C68.829 35.1267 69.1223 34.2867 69.4023 33.46C69.6823 32.62 69.9623 31.7867 70.2423 30.96C70.349 30.6667 70.4557 30.3667 70.5623 30.06C70.6823 29.74 70.7957 29.46 70.9023 29.22C71.0223 28.9667 71.129 28.8067 71.2223 28.74L69.8423 28.82V28H72.9823V28.6C72.489 28.7867 72.1157 29.1 71.8623 29.54C71.6223 29.9667 71.3757 30.52 71.1223 31.2L68.6223 38.18C68.2223 39.3 67.8557 40.2467 67.5223 41.02C67.189 41.8067 66.8223 42.4 66.4223 42.8C66.0223 43.2133 65.5223 43.42 64.9223 43.42ZM78.6227 38V37.34C79.1293 37.3133 79.476 37.2 79.6627 37C79.8493 36.7867 79.9493 36.5 79.9627 36.14C79.9893 35.7667 80.0027 35.3467 80.0027 34.88V26.24C80.0027 25.68 80.0227 25.2 80.0627 24.8C79.8227 24.8133 79.5827 24.8267 79.3427 24.84C79.1027 24.8533 78.8627 24.8667 78.6227 24.88V24C79.3693 23.9867 80.1227 23.9733 80.8827 23.96C81.656 23.9467 82.4293 23.9533 83.2027 23.98C85.136 24.0067 86.5227 24.3333 87.3627 24.96C88.216 25.5867 88.6427 26.4533 88.6427 27.56C88.656 28.08 88.556 28.6133 88.3427 29.16C88.1427 29.6933 87.7693 30.1733 87.2227 30.6C86.6893 31.0267 85.916 31.3467 84.9027 31.56C85.1693 31.7467 85.4027 31.9867 85.6027 32.28C85.8027 32.5733 86.0293 32.9133 86.2827 33.3L87.6427 35.44C87.8693 35.8 88.0893 36.1267 88.3027 36.42C88.516 36.7 88.7627 36.9267 89.0427 37.1C89.3227 37.26 89.6693 37.34 90.0827 37.34V38H87.5627C87.176 37.6533 86.8493 37.3067 86.5827 36.96C86.3293 36.6133 86.0627 36.22 85.7827 35.78L84.4427 33.64C84.2693 33.36 84.0693 33.04 83.8427 32.68C83.6293 32.3067 83.3827 31.9933 83.1027 31.74C82.8893 31.7533 82.6627 31.76 82.4227 31.76C82.196 31.76 81.9693 31.7533 81.7427 31.74V35.62C81.7427 36.3267 81.7227 36.8533 81.6827 37.2C81.9227 37.1867 82.1627 37.1733 82.4027 37.16C82.6427 37.1467 82.8827 37.1333 83.1227 37.12V38H78.6227ZM82.9827 31C83.716 30.9733 84.356 30.8533 84.9027 30.64C85.4627 30.4267 85.9027 30.0867 86.2227 29.62C86.5427 29.1533 86.7027 28.54 86.7027 27.78C86.7027 26.7667 86.4093 26.0067 85.8227 25.5C85.2493 24.9933 84.3493 24.74 83.1227 24.74C82.6293 24.74 82.2827 24.84 82.0827 25.04C81.896 25.24 81.7893 25.52 81.7627 25.88C81.7493 26.2267 81.7427 26.64 81.7427 27.12V30.96C81.956 30.9733 82.156 30.9867 82.3427 31C82.5427 31.0133 82.756 31.0133 82.9827 31ZM96.9813 37.4C97.3946 37.4 97.6813 37.3 97.8413 37.1C98.0013 36.8867 98.0946 36.6 98.1213 36.24C98.1479 35.8667 98.1613 35.44 98.1613 34.96V32.16C98.1613 31.0133 97.9746 30.1533 97.6013 29.58C97.2413 29.0067 96.6679 28.7267 95.8813 28.74C95.3879 28.7533 94.9013 28.8733 94.4213 29.1C93.9546 29.3267 93.5746 29.62 93.2813 29.98V35.88C93.2813 36.1467 93.2746 36.3867 93.2613 36.6C93.2479 36.8 93.2213 37.0133 93.1813 37.24C93.3946 37.2267 93.6013 37.22 93.8013 37.22C94.0146 37.2067 94.2279 37.1933 94.4413 37.18V38H90.3613V37.4C90.7746 37.4 91.0613 37.3 91.2213 37.1C91.3813 36.8867 91.4746 36.6 91.5013 36.24C91.5413 35.8667 91.5613 35.44 91.5613 34.96V25.5C91.5613 25.2867 91.5613 25.0867 91.5613 24.9C91.5746 24.7 91.5946 24.4667 91.6213 24.2C91.3813 24.2133 91.1413 24.2267 90.9013 24.24C90.6746 24.2533 90.4413 24.2667 90.2013 24.28V23.44C90.7879 23.44 91.2413 23.4133 91.5613 23.36C91.8946 23.3067 92.1413 23.24 92.3013 23.16C92.4746 23.08 92.6079 22.9933 92.7013 22.9H93.2813V29C93.7213 28.6267 94.2346 28.3133 94.8213 28.06C95.4079 27.8067 95.9879 27.68 96.5613 27.68C97.7213 27.68 98.5546 28.0467 99.0613 28.78C99.5813 29.5 99.8479 30.6267 99.8613 32.16L99.8813 35.88C99.8813 36.1467 99.8746 36.3867 99.8613 36.6C99.8613 36.8 99.8413 37.0133 99.8013 37.24C100.015 37.2267 100.221 37.22 100.421 37.22C100.635 37.2067 100.848 37.1933 101.061 37.18V38H96.9813V37.4ZM103.537 43.42C103.124 43.42 102.771 43.32 102.477 43.12C102.184 42.92 102.037 42.6133 102.037 42.2C102.037 41.96 102.117 41.74 102.277 41.54C102.437 41.34 102.644 41.24 102.897 41.24C103.217 41.2267 103.431 41.3267 103.537 41.54C103.657 41.7533 103.717 41.94 103.717 42.1C103.717 42.14 103.717 42.18 103.717 42.22C103.717 42.2733 103.711 42.3267 103.697 42.38C103.737 42.4067 103.811 42.42 103.917 42.42C104.077 42.42 104.251 42.3533 104.437 42.22C104.624 42.0867 104.791 41.8933 104.937 41.64C105.111 41.3467 105.311 40.9067 105.537 40.32C105.777 39.7333 106.044 39.0333 106.337 38.22L103.217 31.54C102.871 30.7933 102.617 30.2 102.457 29.76C102.311 29.32 102.211 28.9933 102.157 28.78L101.197 28.82V28H105.337V28.6H105.257C104.697 28.64 104.391 28.8533 104.337 29.24C104.284 29.6133 104.437 30.1867 104.797 30.96L107.137 35.98C107.444 35.1267 107.737 34.2867 108.017 33.46C108.297 32.62 108.577 31.7867 108.857 30.96C108.964 30.6667 109.071 30.3667 109.177 30.06C109.297 29.74 109.411 29.46 109.517 29.22C109.637 28.9667 109.744 28.8067 109.837 28.74L108.457 28.82V28H111.597V28.6C111.104 28.7867 110.731 29.1 110.477 29.54C110.237 29.9667 109.991 30.52 109.737 31.2L107.237 38.18C106.837 39.3 106.471 40.2467 106.137 41.02C105.804 41.8067 105.437 42.4 105.037 42.8C104.637 43.2133 104.137 43.42 103.537 43.42ZM112.164 38V37.4C112.577 37.4 112.864 37.3 113.024 37.1C113.184 36.8867 113.277 36.6 113.304 36.24C113.33 35.8667 113.344 35.44 113.344 34.96V30.4C113.344 30.1867 113.344 29.9733 113.344 29.76C113.357 29.5467 113.384 29.3267 113.424 29.1C113.184 29.1133 112.944 29.1267 112.704 29.14C112.477 29.1533 112.244 29.1667 112.004 29.18V28.34C112.59 28.34 113.03 28.3133 113.324 28.26C113.63 28.2067 113.857 28.14 114.004 28.06C114.15 27.98 114.27 27.8933 114.364 27.8H114.944C114.97 27.9333 114.984 28.0867 114.984 28.26C114.997 28.4333 115.01 28.6333 115.024 28.86C115.424 28.5133 115.884 28.2333 116.404 28.02C116.924 27.7933 117.444 27.68 117.964 27.68C118.63 27.68 119.19 27.8 119.644 28.04C120.097 28.28 120.45 28.6067 120.704 29.02C121.157 28.6467 121.677 28.3333 122.264 28.08C122.864 27.8133 123.45 27.68 124.024 27.68C125.184 27.68 126.037 28.0333 126.584 28.74C127.13 29.4333 127.39 30.5733 127.364 32.16L127.344 35.88C127.344 36.1467 127.337 36.3867 127.324 36.6C127.324 36.8 127.304 37.0133 127.264 37.24C127.477 37.2267 127.684 37.22 127.884 37.22C128.097 37.2067 128.31 37.1933 128.524 37.18V38H124.444V37.4C124.857 37.4 125.144 37.3 125.304 37.1C125.464 36.8867 125.557 36.6 125.584 36.24C125.61 35.8667 125.624 35.44 125.624 34.96V32.16C125.624 31.0133 125.437 30.1533 125.064 29.58C124.704 29.0067 124.13 28.7267 123.344 28.74C122.93 28.74 122.517 28.8333 122.104 29.02C121.69 29.2067 121.33 29.44 121.024 29.72C121.09 29.9333 121.137 30.1667 121.164 30.42C121.204 30.66 121.224 30.9133 121.224 31.18C121.21 31.9533 121.204 32.7333 121.204 33.52C121.204 34.3067 121.197 35.0933 121.184 35.88C121.184 36.1467 121.177 36.3867 121.164 36.6C121.164 36.8 121.144 37.0133 121.104 37.24C121.317 37.2267 121.524 37.22 121.724 37.22C121.937 37.2067 122.15 37.1933 122.364 37.18V38H118.284V37.4C118.697 37.4 118.977 37.3 119.124 37.1C119.284 36.8867 119.377 36.6 119.404 36.24C119.444 35.8667 119.464 35.44 119.464 34.96L119.484 32.16C119.497 31.0133 119.33 30.1467 118.984 29.56C118.637 28.9733 118.07 28.6867 117.284 28.7C116.87 28.7 116.464 28.7933 116.064 28.98C115.664 29.1533 115.324 29.38 115.044 29.66C115.044 29.82 115.044 29.9933 115.044 30.18C115.057 30.3533 115.064 30.54 115.064 30.74V35.88C115.064 36.1467 115.057 36.3867 115.044 36.6C115.044 36.8 115.024 37.0133 114.984 37.24C115.197 37.2267 115.404 37.22 115.604 37.22C115.817 37.2067 116.03 37.1933 116.244 37.18V38H112.164ZM134.475 38.32C133.555 38.32 132.721 38.1067 131.975 37.68C131.241 37.24 130.661 36.6267 130.235 35.84C129.808 35.04 129.595 34.1 129.595 33.02C129.595 32.0867 129.801 31.2133 130.215 30.4C130.641 29.5867 131.235 28.9333 131.995 28.44C132.755 27.9333 133.635 27.68 134.635 27.68C135.381 27.68 136.061 27.84 136.675 28.16C137.288 28.48 137.775 28.9667 138.135 29.62C138.508 30.2733 138.695 31.1 138.695 32.1L131.655 32.22C131.641 33.7533 131.895 34.9867 132.415 35.92C132.935 36.84 133.781 37.3 134.955 37.3C135.368 37.3 135.788 37.2267 136.215 37.08C136.655 36.9333 137.061 36.7333 137.435 36.48C137.808 36.2267 138.108 35.9467 138.335 35.64L138.815 36.04C138.455 36.6 138.021 37.0467 137.515 37.38C137.008 37.7133 136.488 37.9533 135.955 38.1C135.421 38.2467 134.928 38.32 134.475 38.32ZM131.715 31.38H136.815C136.815 30.9 136.741 30.44 136.595 30C136.461 29.5467 136.235 29.18 135.915 28.9C135.595 28.6067 135.175 28.46 134.655 28.46C133.881 28.46 133.235 28.6933 132.715 29.16C132.208 29.6133 131.875 30.3533 131.715 31.38ZM144.175 38.32C143.508 38.32 142.915 38.2267 142.395 38.04C141.875 37.8667 141.448 37.6667 141.115 37.44L141.195 38.14H140.355L140.235 34.7H140.855C140.881 35.2467 141.035 35.74 141.315 36.18C141.595 36.6067 141.955 36.94 142.395 37.18C142.835 37.42 143.308 37.54 143.815 37.54C144.161 37.54 144.501 37.4867 144.835 37.38C145.168 37.26 145.448 37.0867 145.675 36.86C145.901 36.62 146.015 36.32 146.015 35.96C146.015 35.5867 145.901 35.28 145.675 35.04C145.461 34.7867 145.175 34.5667 144.815 34.38C144.455 34.1933 144.068 34.02 143.655 33.86C143.121 33.6467 142.588 33.42 142.055 33.18C141.535 32.9267 141.101 32.6 140.755 32.2C140.408 31.7867 140.235 31.2467 140.235 30.58C140.235 30.3 140.288 29.9933 140.395 29.66C140.501 29.3267 140.681 29.0133 140.935 28.72C141.188 28.4133 141.535 28.1667 141.975 27.98C142.415 27.78 142.975 27.68 143.655 27.68C144.015 27.68 144.415 27.74 144.855 27.86C145.295 27.98 145.721 28.2067 146.135 28.54L146.095 27.78H146.935V31.28H146.295C146.268 30.8133 146.161 30.3667 145.975 29.94C145.788 29.5 145.515 29.14 145.155 28.86C144.795 28.5667 144.328 28.42 143.755 28.42C143.141 28.42 142.661 28.5733 142.315 28.88C141.968 29.1867 141.795 29.54 141.795 29.94C141.795 30.3533 141.921 30.7 142.175 30.98C142.441 31.2467 142.781 31.48 143.195 31.68C143.608 31.88 144.048 32.0733 144.515 32.26C145.021 32.4733 145.515 32.7067 145.995 32.96C146.475 33.2133 146.868 33.5333 147.175 33.92C147.481 34.2933 147.635 34.78 147.635 35.38C147.635 36.0467 147.461 36.6 147.115 37.04C146.781 37.48 146.348 37.8 145.815 38C145.295 38.2133 144.748 38.32 144.175 38.32Z" fill="#2A2921"/>
<path d="M5.73 71.12C4.75 71.12 3.895 70.9 3.165 70.46C2.445 70.02 1.89 69.395 1.5 68.585C1.11 67.775 0.915 66.82 0.915 65.72C0.915 64.61 1.105 63.65 1.485 62.84C1.875 62.02 2.43 61.395 3.15 60.965C3.88 60.525 4.74 60.305 5.73 60.305C6.72 60.305 7.575 60.525 8.295 60.965C9.025 61.395 9.58 62.02 9.96 62.84C10.35 63.65 10.545 64.605 10.545 65.705C10.545 66.805 10.35 67.765 9.96 68.585C9.57 69.395 9.01 70.02 8.28 70.46C7.56 70.9 6.71 71.12 5.73 71.12ZM5.73 70.07C6.85 70.07 7.72 69.695 8.34 68.945C8.97 68.185 9.285 67.105 9.285 65.705C9.285 64.305 8.975 63.23 8.355 62.48C7.735 61.73 6.86 61.355 5.73 61.355C4.61 61.355 3.735 61.735 3.105 62.495C2.485 63.245 2.175 64.315 2.175 65.705C2.175 67.095 2.485 68.17 3.105 68.93C3.735 69.69 4.61 70.07 5.73 70.07ZM15.9551 63.515C17.7051 63.515 18.5801 64.48 18.5801 66.41V70.475C18.5801 70.665 18.5251 70.815 18.4151 70.925C18.3151 71.025 18.1701 71.075 17.9801 71.075C17.7901 71.075 17.6401 71.025 17.5301 70.925C17.4201 70.815 17.3651 70.665 17.3651 70.475V66.485C17.3651 65.805 17.2301 65.31 16.9601 65C16.7001 64.69 16.2801 64.535 15.7001 64.535C15.0301 64.535 14.4951 64.74 14.0951 65.15C13.6951 65.56 13.4951 66.115 13.4951 66.815V70.475C13.4951 70.665 13.4401 70.815 13.3301 70.925C13.2301 71.025 13.0851 71.075 12.8951 71.075C12.7051 71.075 12.5551 71.025 12.4451 70.925C12.3351 70.815 12.2801 70.665 12.2801 70.475V64.145C12.2801 63.965 12.3351 63.82 12.4451 63.71C12.5551 63.6 12.7051 63.545 12.8951 63.545C13.0751 63.545 13.2151 63.6 13.3151 63.71C13.4251 63.82 13.4801 63.96 13.4801 64.13V64.895C13.7201 64.445 14.0551 64.105 14.4851 63.875C14.9151 63.635 15.4051 63.515 15.9551 63.515ZM26.1605 69.305C26.2705 69.305 26.3655 69.35 26.4455 69.44C26.5255 69.53 26.5655 69.645 26.5655 69.785C26.5655 70.035 26.3905 70.265 26.0405 70.475C25.6805 70.685 25.3005 70.845 24.9005 70.955C24.5005 71.055 24.1105 71.105 23.7305 71.105C22.6005 71.105 21.7055 70.77 21.0455 70.1C20.3955 69.43 20.0705 68.505 20.0705 67.325C20.0705 66.575 20.2155 65.915 20.5055 65.345C20.7955 64.765 21.2005 64.315 21.7205 63.995C22.2505 63.675 22.8505 63.515 23.5205 63.515C24.4705 63.515 25.2255 63.825 25.7855 64.445C26.3455 65.065 26.6255 65.905 26.6255 66.965C26.6255 67.165 26.5855 67.31 26.5055 67.4C26.4255 67.49 26.2955 67.535 26.1155 67.535H21.2855C21.3755 69.255 22.1905 70.115 23.7305 70.115C24.1205 70.115 24.4555 70.065 24.7355 69.965C25.0155 69.855 25.3155 69.71 25.6355 69.53C25.8955 69.38 26.0705 69.305 26.1605 69.305ZM23.5355 64.46C22.8955 64.46 22.3805 64.66 21.9905 65.06C21.6105 65.46 21.3855 66.025 21.3155 66.755H25.5605C25.5405 66.015 25.3555 65.45 25.0055 65.06C24.6555 64.66 24.1655 64.46 23.5355 64.46ZM34.9078 61.385C34.3778 61.425 33.9778 61.595 33.7078 61.895C33.4378 62.185 33.3028 62.625 33.3028 63.215V63.695H34.9678C35.1378 63.695 35.2678 63.74 35.3578 63.83C35.4478 63.92 35.4928 64.04 35.4928 64.19C35.4928 64.34 35.4478 64.455 35.3578 64.535C35.2678 64.615 35.1378 64.655 34.9678 64.655H33.3028V70.475C33.3028 70.665 33.2428 70.815 33.1228 70.925C33.0128 71.025 32.8728 71.075 32.7028 71.075C32.5228 71.075 32.3728 71.025 32.2528 70.925C32.1428 70.815 32.0878 70.665 32.0878 70.475V64.655H31.0828C30.9128 64.655 30.7778 64.615 30.6778 64.535C30.5878 64.445 30.5428 64.33 30.5428 64.19C30.5428 64.04 30.5878 63.92 30.6778 63.83C30.7778 63.74 30.9128 63.695 31.0828 63.695H32.0878V63.425C32.0878 62.525 32.3128 61.82 32.7628 61.31C33.2128 60.79 33.8578 60.5 34.6978 60.44L35.0878 60.41C35.3478 60.39 35.5328 60.415 35.6428 60.485C35.7628 60.555 35.8228 60.68 35.8228 60.86C35.8228 61.15 35.6478 61.315 35.2978 61.355L34.9078 61.385ZM39.2614 71.105C38.5714 71.105 37.9614 70.95 37.4314 70.64C36.9114 70.33 36.5064 69.89 36.2164 69.32C35.9364 68.74 35.7964 68.07 35.7964 67.31C35.7964 66.55 35.9364 65.885 36.2164 65.315C36.5064 64.735 36.9114 64.29 37.4314 63.98C37.9614 63.67 38.5714 63.515 39.2614 63.515C39.9514 63.515 40.5614 63.67 41.0914 63.98C41.6214 64.29 42.0264 64.735 42.3064 65.315C42.5964 65.885 42.7414 66.55 42.7414 67.31C42.7414 68.07 42.5964 68.74 42.3064 69.32C42.0264 69.89 41.6214 70.33 41.0914 70.64C40.5614 70.95 39.9514 71.105 39.2614 71.105ZM39.2614 70.1C39.9814 70.1 40.5314 69.865 40.9114 69.395C41.3014 68.915 41.4964 68.22 41.4964 67.31C41.4964 66.42 41.3014 65.735 40.9114 65.255C40.5214 64.765 39.9714 64.52 39.2614 64.52C38.5514 64.52 38.0014 64.765 37.6114 65.255C37.2214 65.735 37.0264 66.42 37.0264 67.31C37.0264 68.21 37.2164 68.9 37.5964 69.38C37.9864 69.86 38.5414 70.1 39.2614 70.1ZM47.8668 63.545C48.2868 63.515 48.4968 63.685 48.4968 64.055C48.4968 64.215 48.4518 64.345 48.3618 64.445C48.2718 64.535 48.1168 64.59 47.8968 64.61L47.4468 64.655C46.7768 64.715 46.2768 64.955 45.9468 65.375C45.6268 65.785 45.4668 66.27 45.4668 66.83V70.475C45.4668 70.675 45.4118 70.825 45.3018 70.925C45.1918 71.025 45.0468 71.075 44.8668 71.075C44.6868 71.075 44.5368 71.025 44.4168 70.925C44.3068 70.815 44.2518 70.665 44.2518 70.475V64.145C44.2518 63.955 44.3118 63.81 44.4318 63.71C44.5518 63.6 44.6968 63.545 44.8668 63.545C45.0268 63.545 45.1618 63.6 45.2718 63.71C45.3818 63.81 45.4368 63.95 45.4368 64.13V64.97C45.6468 64.53 45.9418 64.195 46.3218 63.965C46.7118 63.735 47.1568 63.6 47.6568 63.56L47.8668 63.545ZM55.267 71.105C54.807 71.105 54.367 71.05 53.947 70.94C53.537 70.83 53.172 70.675 52.852 70.475C52.672 70.355 52.542 70.245 52.462 70.145C52.392 70.035 52.357 69.905 52.357 69.755C52.357 69.625 52.392 69.52 52.462 69.44C52.542 69.35 52.642 69.305 52.762 69.305C52.882 69.305 53.057 69.38 53.287 69.53C53.587 69.71 53.882 69.855 54.172 69.965C54.472 70.065 54.842 70.115 55.282 70.115C55.822 70.115 56.242 70.02 56.542 69.83C56.842 69.64 56.992 69.365 56.992 69.005C56.992 68.785 56.937 68.61 56.827 68.48C56.717 68.34 56.527 68.22 56.257 68.12C55.987 68.01 55.592 67.9 55.072 67.79C54.192 67.6 53.562 67.345 53.182 67.025C52.802 66.705 52.612 66.27 52.612 65.72C52.612 65.29 52.732 64.91 52.972 64.58C53.212 64.25 53.542 63.99 53.962 63.8C54.392 63.61 54.877 63.515 55.417 63.515C55.807 63.515 56.182 63.57 56.542 63.68C56.912 63.78 57.237 63.925 57.517 64.115C57.857 64.355 58.027 64.605 58.027 64.865C58.027 64.995 57.987 65.105 57.907 65.195C57.827 65.285 57.732 65.33 57.622 65.33C57.502 65.33 57.322 65.245 57.082 65.075C56.802 64.895 56.537 64.755 56.287 64.655C56.037 64.555 55.727 64.505 55.357 64.505C54.887 64.505 54.507 64.61 54.217 64.82C53.937 65.03 53.797 65.31 53.797 65.66C53.797 65.88 53.847 66.06 53.947 66.2C54.057 66.33 54.232 66.45 54.472 66.56C54.722 66.66 55.077 66.76 55.537 66.86C56.217 67.01 56.742 67.175 57.112 67.355C57.492 67.535 57.762 67.755 57.922 68.015C58.082 68.275 58.162 68.605 58.162 69.005C58.162 69.635 57.897 70.145 57.367 70.535C56.837 70.915 56.137 71.105 55.267 71.105ZM62.7441 71.105C62.0541 71.105 61.4441 70.95 60.9141 70.64C60.3941 70.33 59.9891 69.89 59.6991 69.32C59.4191 68.74 59.2791 68.07 59.2791 67.31C59.2791 66.55 59.4191 65.885 59.6991 65.315C59.9891 64.735 60.3941 64.29 60.9141 63.98C61.4441 63.67 62.0541 63.515 62.7441 63.515C63.4341 63.515 64.0441 63.67 64.5741 63.98C65.1041 64.29 65.5091 64.735 65.7891 65.315C66.0791 65.885 66.2241 66.55 66.2241 67.31C66.2241 68.07 66.0791 68.74 65.7891 69.32C65.5091 69.89 65.1041 70.33 64.5741 70.64C64.0441 70.95 63.4341 71.105 62.7441 71.105ZM62.7441 70.1C63.4641 70.1 64.0141 69.865 64.3941 69.395C64.7841 68.915 64.9791 68.22 64.9791 67.31C64.9791 66.42 64.7841 65.735 64.3941 65.255C64.0041 64.765 63.4541 64.52 62.7441 64.52C62.0341 64.52 61.4841 64.765 61.0941 65.255C60.7041 65.735 60.5091 66.42 60.5091 67.31C60.5091 68.21 60.6991 68.9 61.0791 69.38C61.4691 69.86 62.0241 70.1 62.7441 70.1ZM71.3494 63.545C71.7694 63.515 71.9794 63.685 71.9794 64.055C71.9794 64.215 71.9344 64.345 71.8444 64.445C71.7544 64.535 71.5994 64.59 71.3794 64.61L70.9294 64.655C70.2594 64.715 69.7594 64.955 69.4294 65.375C69.1094 65.785 68.9494 66.27 68.9494 66.83V70.475C68.9494 70.675 68.8944 70.825 68.7844 70.925C68.6744 71.025 68.5294 71.075 68.3494 71.075C68.1694 71.075 68.0194 71.025 67.8994 70.925C67.7894 70.815 67.7344 70.665 67.7344 70.475V64.145C67.7344 63.955 67.7944 63.81 67.9144 63.71C68.0344 63.6 68.1794 63.545 68.3494 63.545C68.5094 63.545 68.6444 63.6 68.7544 63.71C68.8644 63.81 68.9194 63.95 68.9194 64.13V64.97C69.1294 64.53 69.4244 64.195 69.8044 63.965C70.1944 63.735 70.6394 63.6 71.1394 63.56L71.3494 63.545ZM76.3375 63.545C76.7575 63.515 76.9675 63.685 76.9675 64.055C76.9675 64.215 76.9225 64.345 76.8325 64.445C76.7425 64.535 76.5875 64.59 76.3675 64.61L75.9175 64.655C75.2475 64.715 74.7475 64.955 74.4175 65.375C74.0975 65.785 73.9375 66.27 73.9375 66.83V70.475C73.9375 70.675 73.8825 70.825 73.7725 70.925C73.6625 71.025 73.5175 71.075 73.3375 71.075C73.1575 71.075 73.0075 71.025 72.8875 70.925C72.7775 70.815 72.7225 70.665 72.7225 70.475V64.145C72.7225 63.955 72.7825 63.81 72.9025 63.71C73.0225 63.6 73.1675 63.545 73.3375 63.545C73.4975 63.545 73.6325 63.6 73.7425 63.71C73.8525 63.81 73.9075 63.95 73.9075 64.13V64.97C74.1175 64.53 74.4125 64.195 74.7925 63.965C75.1825 63.735 75.6275 63.6 76.1275 63.56L76.3375 63.545ZM80.5941 71.105C79.9041 71.105 79.2941 70.95 78.7641 70.64C78.2441 70.33 77.8391 69.89 77.5491 69.32C77.2691 68.74 77.1291 68.07 77.1291 67.31C77.1291 66.55 77.2691 65.885 77.5491 65.315C77.8391 64.735 78.2441 64.29 78.7641 63.98C79.2941 63.67 79.9041 63.515 80.5941 63.515C81.2841 63.515 81.8941 63.67 82.4241 63.98C82.9541 64.29 83.3591 64.735 83.6391 65.315C83.9291 65.885 84.0741 66.55 84.0741 67.31C84.0741 68.07 83.9291 68.74 83.6391 69.32C83.3591 69.89 82.9541 70.33 82.4241 70.64C81.8941 70.95 81.2841 71.105 80.5941 71.105ZM80.5941 70.1C81.3141 70.1 81.8641 69.865 82.2441 69.395C82.6341 68.915 82.8291 68.22 82.8291 67.31C82.8291 66.42 82.6341 65.735 82.2441 65.255C81.8541 64.765 81.3041 64.52 80.5941 64.52C79.8841 64.52 79.3341 64.765 78.9441 65.255C78.5541 65.735 78.3591 66.42 78.3591 67.31C78.3591 68.21 78.5491 68.9 78.9291 69.38C79.3191 69.86 79.8741 70.1 80.5941 70.1ZM95.4865 63.935C95.5865 63.695 95.7515 63.575 95.9815 63.575C96.1315 63.575 96.2665 63.625 96.3865 63.725C96.5065 63.825 96.5665 63.95 96.5665 64.1C96.5665 64.17 96.5515 64.245 96.5215 64.325L94.0315 70.625C93.9715 70.755 93.8815 70.86 93.7615 70.94C93.6515 71.01 93.5265 71.045 93.3865 71.045C93.2565 71.045 93.1315 71.01 93.0115 70.94C92.9015 70.86 92.8165 70.755 92.7565 70.625L90.6865 65.36L88.6315 70.625C88.5815 70.755 88.4965 70.86 88.3765 70.94C88.2565 71.01 88.1265 71.045 87.9865 71.045C87.8565 71.045 87.7315 71.01 87.6115 70.94C87.4915 70.86 87.4015 70.755 87.3415 70.625L84.8515 64.34C84.8215 64.26 84.8065 64.19 84.8065 64.13C84.8065 63.97 84.8715 63.835 85.0015 63.725C85.1415 63.615 85.2915 63.56 85.4515 63.56C85.6915 63.56 85.8615 63.68 85.9615 63.92L88.0165 69.455L90.1315 63.965C90.1915 63.835 90.2715 63.735 90.3715 63.665C90.4815 63.595 90.5965 63.56 90.7165 63.56C90.8465 63.56 90.9615 63.595 91.0615 63.665C91.1715 63.735 91.2515 63.835 91.3015 63.965L93.4165 69.44L95.4865 63.935ZM97.8514 69.38C98.1014 69.38 98.3014 69.48 98.4514 69.68C98.6114 69.87 98.6914 70.16 98.6914 70.55C98.6914 71.34 98.4364 72.005 97.9264 72.545C97.8264 72.655 97.7114 72.71 97.5814 72.71C97.4814 72.71 97.3914 72.67 97.3114 72.59C97.2314 72.52 97.1914 72.435 97.1914 72.335C97.1914 72.225 97.2314 72.13 97.3114 72.05C97.5714 71.78 97.7364 71.445 97.8064 71.045C97.5864 71.025 97.4014 70.945 97.2514 70.805C97.1114 70.655 97.0414 70.465 97.0414 70.235C97.0414 69.985 97.1164 69.78 97.2664 69.62C97.4264 69.46 97.6214 69.38 97.8514 69.38ZM107.336 71.075C107.146 71.075 106.991 71.02 106.871 70.91C106.761 70.79 106.706 70.635 106.706 70.445V61.475H103.481C103.301 61.475 103.161 61.43 103.061 61.34C102.961 61.25 102.911 61.12 102.911 60.95C102.911 60.78 102.961 60.65 103.061 60.56C103.161 60.47 103.301 60.425 103.481 60.425H111.176C111.356 60.425 111.496 60.47 111.596 60.56C111.696 60.65 111.746 60.78 111.746 60.95C111.746 61.12 111.696 61.25 111.596 61.34C111.496 61.43 111.356 61.475 111.176 61.475H107.951V70.445C107.951 70.635 107.896 70.79 107.786 70.91C107.676 71.02 107.526 71.075 107.336 71.075ZM121.533 63.935C121.633 63.695 121.798 63.575 122.028 63.575C122.178 63.575 122.313 63.625 122.433 63.725C122.553 63.825 122.613 63.95 122.613 64.1C122.613 64.17 122.598 64.245 122.568 64.325L120.078 70.625C120.018 70.755 119.928 70.86 119.808 70.94C119.698 71.01 119.573 71.045 119.433 71.045C119.303 71.045 119.178 71.01 119.058 70.94C118.948 70.86 118.863 70.755 118.803 70.625L116.733 65.36L114.678 70.625C114.628 70.755 114.543 70.86 114.423 70.94C114.303 71.01 114.173 71.045 114.033 71.045C113.903 71.045 113.778 71.01 113.658 70.94C113.538 70.86 113.448 70.755 113.388 70.625L110.898 64.34C110.868 64.26 110.853 64.19 110.853 64.13C110.853 63.97 110.918 63.835 111.048 63.725C111.188 63.615 111.338 63.56 111.498 63.56C111.738 63.56 111.908 63.68 112.008 63.92L114.063 69.455L116.178 63.965C116.238 63.835 116.318 63.735 116.418 63.665C116.528 63.595 116.643 63.56 116.763 63.56C116.893 63.56 117.008 63.595 117.108 63.665C117.218 63.735 117.298 63.835 117.348 63.965L119.463 69.44L121.533 63.935ZM126.812 71.105C126.122 71.105 125.512 70.95 124.982 70.64C124.462 70.33 124.057 69.89 123.767 69.32C123.487 68.74 123.347 68.07 123.347 67.31C123.347 66.55 123.487 65.885 123.767 65.315C124.057 64.735 124.462 64.29 124.982 63.98C125.512 63.67 126.122 63.515 126.812 63.515C127.502 63.515 128.112 63.67 128.642 63.98C129.172 64.29 129.577 64.735 129.857 65.315C130.147 65.885 130.292 66.55 130.292 67.31C130.292 68.07 130.147 68.74 129.857 69.32C129.577 69.89 129.172 70.33 128.642 70.64C128.112 70.95 127.502 71.105 126.812 71.105ZM126.812 70.1C127.532 70.1 128.082 69.865 128.462 69.395C128.852 68.915 129.047 68.22 129.047 67.31C129.047 66.42 128.852 65.735 128.462 65.255C128.072 64.765 127.522 64.52 126.812 64.52C126.102 64.52 125.552 64.765 125.162 65.255C124.772 65.735 124.577 66.42 124.577 67.31C124.577 68.21 124.767 68.9 125.147 69.38C125.537 69.86 126.092 70.1 126.812 70.1ZM138.594 61.385C138.064 61.425 137.664 61.595 137.394 61.895C137.124 62.185 136.989 62.625 136.989 63.215V63.695H138.654C138.824 63.695 138.954 63.74 139.044 63.83C139.134 63.92 139.179 64.04 139.179 64.19C139.179 64.34 139.134 64.455 139.044 64.535C138.954 64.615 138.824 64.655 138.654 64.655H136.989V70.475C136.989 70.665 136.929 70.815 136.809 70.925C136.699 71.025 136.559 71.075 136.389 71.075C136.209 71.075 136.059 71.025 135.939 70.925C135.829 70.815 135.774 70.665 135.774 70.475V64.655H134.769C134.599 64.655 134.464 64.615 134.364 64.535C134.274 64.445 134.229 64.33 134.229 64.19C134.229 64.04 134.274 63.92 134.364 63.83C134.464 63.74 134.599 63.695 134.769 63.695H135.774V63.425C135.774 62.525 135.999 61.82 136.449 61.31C136.899 60.79 137.544 60.5 138.384 60.44L138.774 60.41C139.034 60.39 139.219 60.415 139.329 60.485C139.449 60.555 139.509 60.68 139.509 60.86C139.509 61.15 139.334 61.315 138.984 61.355L138.594 61.385ZM142.948 71.105C142.258 71.105 141.648 70.95 141.118 70.64C140.598 70.33 140.193 69.89 139.903 69.32C139.623 68.74 139.483 68.07 139.483 67.31C139.483 66.55 139.623 65.885 139.903 65.315C140.193 64.735 140.598 64.29 141.118 63.98C141.648 63.67 142.258 63.515 142.948 63.515C143.638 63.515 144.248 63.67 144.778 63.98C145.308 64.29 145.713 64.735 145.993 65.315C146.283 65.885 146.428 66.55 146.428 67.31C146.428 68.07 146.283 68.74 145.993 69.32C145.713 69.89 145.308 70.33 144.778 70.64C144.248 70.95 143.638 71.105 142.948 71.105ZM142.948 70.1C143.668 70.1 144.218 69.865 144.598 69.395C144.988 68.915 145.183 68.22 145.183 67.31C145.183 66.42 144.988 65.735 144.598 65.255C144.208 64.765 143.658 64.52 142.948 64.52C142.238 64.52 141.688 64.765 141.298 65.255C140.908 65.735 140.713 66.42 140.713 67.31C140.713 68.21 140.903 68.9 141.283 69.38C141.673 69.86 142.228 70.1 142.948 70.1ZM151.553 63.545C151.973 63.515 152.183 63.685 152.183 64.055C152.183 64.215 152.138 64.345 152.048 64.445C151.958 64.535 151.803 64.59 151.583 64.61L151.133 64.655C150.463 64.715 149.963 64.955 149.633 65.375C149.313 65.785 149.153 66.27 149.153 66.83V70.475C149.153 70.675 149.098 70.825 148.988 70.925C148.878 71.025 148.733 71.075 148.553 71.075C148.373 71.075 148.223 71.025 148.103 70.925C147.993 70.815 147.938 70.665 147.938 70.475V64.145C147.938 63.955 147.998 63.81 148.118 63.71C148.238 63.6 148.383 63.545 148.553 63.545C148.713 63.545 148.848 63.6 148.958 63.71C149.068 63.81 149.123 63.95 149.123 64.13V64.97C149.333 64.53 149.628 64.195 150.008 63.965C150.398 63.735 150.843 63.6 151.343 63.56L151.553 63.545ZM9.255 84.515C10.875 84.515 11.685 85.48 11.685 87.41V91.475C11.685 91.665 11.63 91.815 11.52 91.925C11.41 92.025 11.265 92.075 11.085 92.075C10.905 92.075 10.755 92.025 10.635 91.925C10.525 91.815 10.47 91.665 10.47 91.475V87.44C10.47 86.77 10.35 86.285 10.11 85.985C9.87 85.685 9.495 85.535 8.985 85.535C8.375 85.535 7.895 85.74 7.545 86.15C7.195 86.56 7.02 87.115 7.02 87.815V91.475C7.02 91.665 6.96 91.815 6.84 91.925C6.73 92.025 6.585 92.075 6.405 92.075C6.225 92.075 6.08 92.025 5.97 91.925C5.86 91.815 5.805 91.665 5.805 91.475V87.44C5.805 86.77 5.685 86.285 5.445 85.985C5.205 85.685 4.825 85.535 4.305 85.535C3.705 85.535 3.225 85.74 2.865 86.15C2.515 86.56 2.34 87.115 2.34 87.815V91.475C2.34 91.665 2.285 91.815 2.175 91.925C2.065 92.025 1.92 92.075 1.74 92.075C1.56 92.075 1.41 92.025 1.29 91.925C1.18 91.815 1.125 91.665 1.125 91.475V85.145C1.125 84.965 1.18 84.82 1.29 84.71C1.41 84.6 1.56 84.545 1.74 84.545C1.91 84.545 2.05 84.6 2.16 84.71C2.27 84.81 2.325 84.95 2.325 85.13V85.85C2.545 85.42 2.85 85.09 3.24 84.86C3.63 84.63 4.08 84.515 4.59 84.515C5.73 84.515 6.475 84.995 6.825 85.955C7.035 85.515 7.355 85.165 7.785 84.905C8.215 84.645 8.705 84.515 9.255 84.515ZM14.2134 92.075C14.0334 92.075 13.8834 92.025 13.7634 91.925C13.6534 91.815 13.5984 91.665 13.5984 91.475V85.145C13.5984 84.955 13.6534 84.81 13.7634 84.71C13.8834 84.6 14.0334 84.545 14.2134 84.545C14.3934 84.545 14.5384 84.6 14.6484 84.71C14.7584 84.81 14.8134 84.955 14.8134 85.145V91.475C14.8134 91.675 14.7584 91.825 14.6484 91.925C14.5384 92.025 14.3934 92.075 14.2134 92.075ZM14.2134 82.97C13.9734 82.97 13.7784 82.9 13.6284 82.76C13.4784 82.62 13.4034 82.435 13.4034 82.205C13.4034 81.985 13.4784 81.805 13.6284 81.665C13.7784 81.525 13.9734 81.455 14.2134 81.455C14.4534 81.455 14.6484 81.525 14.7984 81.665C14.9484 81.805 15.0234 81.985 15.0234 82.205C15.0234 82.435 14.9484 82.62 14.7984 82.76C14.6484 82.9 14.4534 82.97 14.2134 82.97ZM20.3998 84.545C20.8198 84.515 21.0298 84.685 21.0298 85.055C21.0298 85.215 20.9848 85.345 20.8948 85.445C20.8048 85.535 20.6498 85.59 20.4298 85.61L19.9798 85.655C19.3098 85.715 18.8098 85.955 18.4798 86.375C18.1598 86.785 17.9998 87.27 17.9998 87.83V91.475C17.9998 91.675 17.9448 91.825 17.8348 91.925C17.7248 92.025 17.5798 92.075 17.3998 92.075C17.2198 92.075 17.0698 92.025 16.9498 91.925C16.8398 91.815 16.7848 91.665 16.7848 91.475V85.145C16.7848 84.955 16.8448 84.81 16.9648 84.71C17.0848 84.6 17.2298 84.545 17.3998 84.545C17.5598 84.545 17.6948 84.6 17.8048 84.71C17.9148 84.81 17.9698 84.95 17.9698 85.13V85.97C18.1798 85.53 18.4748 85.195 18.8548 84.965C19.2448 84.735 19.6898 84.6 20.1898 84.56L20.3998 84.545ZM25.7338 91.115C26.0838 91.145 26.2588 91.305 26.2588 91.595C26.2588 91.765 26.1938 91.895 26.0638 91.985C25.9438 92.065 25.7588 92.095 25.5088 92.075L25.1038 92.045C24.3038 91.985 23.7138 91.745 23.3338 91.325C22.9538 90.905 22.7638 90.27 22.7638 89.42V85.655H21.7588C21.5888 85.655 21.4538 85.615 21.3538 85.535C21.2638 85.445 21.2188 85.33 21.2188 85.19C21.2188 85.04 21.2638 84.92 21.3538 84.83C21.4538 84.74 21.5888 84.695 21.7588 84.695H22.7638V83C22.7638 82.81 22.8188 82.665 22.9288 82.565C23.0388 82.455 23.1888 82.4 23.3788 82.4C23.5588 82.4 23.7038 82.455 23.8138 82.565C23.9238 82.665 23.9788 82.81 23.9788 83V84.695H25.6438C25.8038 84.695 25.9288 84.74 26.0188 84.83C26.1188 84.92 26.1688 85.04 26.1688 85.19C26.1688 85.33 26.1188 85.445 26.0188 85.535C25.9288 85.615 25.8038 85.655 25.6438 85.655H23.9788V89.48C23.9788 90.03 24.0888 90.43 24.3088 90.68C24.5388 90.92 24.8788 91.055 25.3288 91.085L25.7338 91.115ZM30.8464 84.515C31.7064 84.515 32.3564 84.76 32.7964 85.25C33.2364 85.73 33.4564 86.45 33.4564 87.41V91.475C33.4564 91.665 33.4014 91.815 33.2914 91.925C33.1814 92.025 33.0364 92.075 32.8564 92.075C32.6664 92.075 32.5164 92.025 32.4064 91.925C32.2964 91.815 32.2414 91.665 32.2414 91.475V87.44C32.2414 86.79 32.1064 86.31 31.8364 86C31.5764 85.69 31.1564 85.535 30.5764 85.535C29.9064 85.535 29.3714 85.74 28.9714 86.15C28.5714 86.56 28.3714 87.115 28.3714 87.815V91.475C28.3714 91.665 28.3164 91.815 28.2064 91.925C28.1064 92.025 27.9614 92.075 27.7714 92.075C27.5814 92.075 27.4314 92.025 27.3214 91.925C27.2114 91.815 27.1564 91.665 27.1564 91.475V81.935C27.1564 81.765 27.2114 81.625 27.3214 81.515C27.4414 81.405 27.5914 81.35 27.7714 81.35C27.9614 81.35 28.1064 81.405 28.2064 81.515C28.3164 81.615 28.3714 81.755 28.3714 81.935V85.865C28.6114 85.425 28.9464 85.09 29.3764 84.86C29.8064 84.63 30.2964 84.515 30.8464 84.515ZM35.9518 90.38C36.2018 90.38 36.4018 90.48 36.5518 90.68C36.7118 90.87 36.7918 91.16 36.7918 91.55C36.7918 92.34 36.5368 93.005 36.0268 93.545C35.9268 93.655 35.8118 93.71 35.6818 93.71C35.5818 93.71 35.4918 93.67 35.4118 93.59C35.3318 93.52 35.2918 93.435 35.2918 93.335C35.2918 93.225 35.3318 93.13 35.4118 93.05C35.6718 92.78 35.8368 92.445 35.9068 92.045C35.6868 92.025 35.5018 91.945 35.3518 91.805C35.2118 91.655 35.1418 91.465 35.1418 91.235C35.1418 90.985 35.2168 90.78 35.3668 90.62C35.5268 90.46 35.7218 90.38 35.9518 90.38ZM45.4368 92.075C45.2468 92.075 45.0918 92.02 44.9718 91.91C44.8618 91.79 44.8068 91.635 44.8068 91.445V82.475H41.5818C41.4018 82.475 41.2618 82.43 41.1618 82.34C41.0618 82.25 41.0118 82.12 41.0118 81.95C41.0118 81.78 41.0618 81.65 41.1618 81.56C41.2618 81.47 41.4018 81.425 41.5818 81.425H49.2768C49.4568 81.425 49.5968 81.47 49.6968 81.56C49.7968 81.65 49.8468 81.78 49.8468 81.95C49.8468 82.12 49.7968 82.25 49.6968 82.34C49.5968 82.43 49.4568 82.475 49.2768 82.475H46.0518V91.445C46.0518 91.635 45.9968 91.79 45.8868 91.91C45.7768 92.02 45.6268 92.075 45.4368 92.075ZM55.2812 84.515C56.1412 84.515 56.7912 84.76 57.2312 85.25C57.6712 85.73 57.8912 86.45 57.8912 87.41V91.475C57.8912 91.665 57.8362 91.815 57.7262 91.925C57.6162 92.025 57.4712 92.075 57.2912 92.075C57.1012 92.075 56.9512 92.025 56.8412 91.925C56.7312 91.815 56.6762 91.665 56.6762 91.475V87.44C56.6762 86.79 56.5412 86.31 56.2712 86C56.0112 85.69 55.5912 85.535 55.0112 85.535C54.3412 85.535 53.8062 85.74 53.4062 86.15C53.0062 86.56 52.8062 87.115 52.8062 87.815V91.475C52.8062 91.665 52.7512 91.815 52.6412 91.925C52.5412 92.025 52.3962 92.075 52.2062 92.075C52.0162 92.075 51.8662 92.025 51.7562 91.925C51.6462 91.815 51.5912 91.665 51.5912 91.475V81.935C51.5912 81.765 51.6462 81.625 51.7562 81.515C51.8762 81.405 52.0262 81.35 52.2062 81.35C52.3962 81.35 52.5412 81.405 52.6412 81.515C52.7512 81.615 52.8062 81.755 52.8062 81.935V85.865C53.0462 85.425 53.3812 85.09 53.8112 84.86C54.2412 84.63 54.7312 84.515 55.2812 84.515ZM63.4316 84.545C63.8516 84.515 64.0616 84.685 64.0616 85.055C64.0616 85.215 64.0166 85.345 63.9266 85.445C63.8366 85.535 63.6816 85.59 63.4616 85.61L63.0116 85.655C62.3416 85.715 61.8416 85.955 61.5116 86.375C61.1916 86.785 61.0316 87.27 61.0316 87.83V91.475C61.0316 91.675 60.9766 91.825 60.8666 91.925C60.7566 92.025 60.6116 92.075 60.4316 92.075C60.2516 92.075 60.1016 92.025 59.9816 91.925C59.8716 91.815 59.8166 91.665 59.8166 91.475V85.145C59.8166 84.955 59.8766 84.81 59.9966 84.71C60.1166 84.6 60.2616 84.545 60.4316 84.545C60.5916 84.545 60.7266 84.6 60.8366 84.71C60.9466 84.81 61.0016 84.95 61.0016 85.13V85.97C61.2116 85.53 61.5066 85.195 61.8866 84.965C62.2766 84.735 62.7216 84.6 63.2216 84.56L63.4316 84.545ZM70.3132 90.305C70.4232 90.305 70.5182 90.35 70.5982 90.44C70.6782 90.53 70.7182 90.645 70.7182 90.785C70.7182 91.035 70.5432 91.265 70.1932 91.475C69.8332 91.685 69.4532 91.845 69.0532 91.955C68.6532 92.055 68.2632 92.105 67.8832 92.105C66.7532 92.105 65.8582 91.77 65.1982 91.1C64.5482 90.43 64.2232 89.505 64.2232 88.325C64.2232 87.575 64.3682 86.915 64.6582 86.345C64.9482 85.765 65.3532 85.315 65.8732 84.995C66.4032 84.675 67.0032 84.515 67.6732 84.515C68.6232 84.515 69.3782 84.825 69.9382 85.445C70.4982 86.065 70.7782 86.905 70.7782 87.965C70.7782 88.165 70.7382 88.31 70.6582 88.4C70.5782 88.49 70.4482 88.535 70.2682 88.535H65.4382C65.5282 90.255 66.3432 91.115 67.8832 91.115C68.2732 91.115 68.6082 91.065 68.8882 90.965C69.1682 90.855 69.4682 90.71 69.7882 90.53C70.0482 90.38 70.2232 90.305 70.3132 90.305ZM67.6882 85.46C67.0482 85.46 66.5332 85.66 66.1432 86.06C65.7632 86.46 65.5382 87.025 65.4682 87.755H69.7132C69.6932 87.015 69.5082 86.45 69.1582 86.06C68.8082 85.66 68.3182 85.46 67.6882 85.46ZM77.9234 90.305C78.0334 90.305 78.1284 90.35 78.2084 90.44C78.2884 90.53 78.3284 90.645 78.3284 90.785C78.3284 91.035 78.1534 91.265 77.8034 91.475C77.4434 91.685 77.0634 91.845 76.6634 91.955C76.2634 92.055 75.8734 92.105 75.4934 92.105C74.3634 92.105 73.4684 91.77 72.8084 91.1C72.1584 90.43 71.8334 89.505 71.8334 88.325C71.8334 87.575 71.9784 86.915 72.2684 86.345C72.5584 85.765 72.9634 85.315 73.4834 84.995C74.0134 84.675 74.6134 84.515 75.2834 84.515C76.2334 84.515 76.9884 84.825 77.5484 85.445C78.1084 86.065 78.3884 86.905 78.3884 87.965C78.3884 88.165 78.3484 88.31 78.2684 88.4C78.1884 88.49 78.0584 88.535 77.8784 88.535H73.0484C73.1384 90.255 73.9534 91.115 75.4934 91.115C75.8834 91.115 76.2184 91.065 76.4984 90.965C76.7784 90.855 77.0784 90.71 77.3984 90.53C77.6584 90.38 77.8334 90.305 77.9234 90.305ZM75.2984 85.46C74.6584 85.46 74.1434 85.66 73.7534 86.06C73.3734 86.46 73.1484 87.025 73.0784 87.755H77.3234C77.3034 87.015 77.1184 86.45 76.7684 86.06C76.4184 85.66 75.9284 85.46 75.2984 85.46ZM86.6707 82.385C86.1407 82.425 85.7407 82.595 85.4707 82.895C85.2007 83.185 85.0657 83.625 85.0657 84.215V84.695H86.7307C86.9007 84.695 87.0307 84.74 87.1207 84.83C87.2107 84.92 87.2557 85.04 87.2557 85.19C87.2557 85.34 87.2107 85.455 87.1207 85.535C87.0307 85.615 86.9007 85.655 86.7307 85.655H85.0657V91.475C85.0657 91.665 85.0057 91.815 84.8857 91.925C84.7757 92.025 84.6357 92.075 84.4657 92.075C84.2857 92.075 84.1357 92.025 84.0157 91.925C83.9057 91.815 83.8507 91.665 83.8507 91.475V85.655H82.8457C82.6757 85.655 82.5407 85.615 82.4407 85.535C82.3507 85.445 82.3057 85.33 82.3057 85.19C82.3057 85.04 82.3507 84.92 82.4407 84.83C82.5407 84.74 82.6757 84.695 82.8457 84.695H83.8507V84.425C83.8507 83.525 84.0757 82.82 84.5257 82.31C84.9757 81.79 85.6207 81.5 86.4607 81.44L86.8507 81.41C87.1107 81.39 87.2957 81.415 87.4057 81.485C87.5257 81.555 87.5857 81.68 87.5857 81.86C87.5857 82.15 87.4107 82.315 87.0607 82.355L86.6707 82.385ZM91.0243 92.105C90.3343 92.105 89.7243 91.95 89.1943 91.64C88.6743 91.33 88.2693 90.89 87.9793 90.32C87.6993 89.74 87.5593 89.07 87.5593 88.31C87.5593 87.55 87.6993 86.885 87.9793 86.315C88.2693 85.735 88.6743 85.29 89.1943 84.98C89.7243 84.67 90.3343 84.515 91.0243 84.515C91.7143 84.515 92.3243 84.67 92.8543 84.98C93.3843 85.29 93.7893 85.735 94.0693 86.315C94.3593 86.885 94.5043 87.55 94.5043 88.31C94.5043 89.07 94.3593 89.74 94.0693 90.32C93.7893 90.89 93.3843 91.33 92.8543 91.64C92.3243 91.95 91.7143 92.105 91.0243 92.105ZM91.0243 91.1C91.7443 91.1 92.2943 90.865 92.6743 90.395C93.0643 89.915 93.2593 89.22 93.2593 88.31C93.2593 87.42 93.0643 86.735 92.6743 86.255C92.2843 85.765 91.7343 85.52 91.0243 85.52C90.3143 85.52 89.7643 85.765 89.3743 86.255C88.9843 86.735 88.7893 87.42 88.7893 88.31C88.7893 89.21 88.9793 89.9 89.3593 90.38C89.7493 90.86 90.3043 91.1 91.0243 91.1ZM99.6296 84.545C100.05 84.515 100.26 84.685 100.26 85.055C100.26 85.215 100.215 85.345 100.125 85.445C100.035 85.535 99.8796 85.59 99.6596 85.61L99.2096 85.655C98.5396 85.715 98.0396 85.955 97.7096 86.375C97.3896 86.785 97.2296 87.27 97.2296 87.83V91.475C97.2296 91.675 97.1746 91.825 97.0646 91.925C96.9546 92.025 96.8096 92.075 96.6296 92.075C96.4496 92.075 96.2996 92.025 96.1796 91.925C96.0696 91.815 96.0146 91.665 96.0146 91.475V85.145C96.0146 84.955 96.0746 84.81 96.1946 84.71C96.3146 84.6 96.4596 84.545 96.6296 84.545C96.7896 84.545 96.9246 84.6 97.0346 84.71C97.1446 84.81 97.1996 84.95 97.1996 85.13V85.97C97.4096 85.53 97.7046 85.195 98.0846 84.965C98.4746 84.735 98.9196 84.6 99.4196 84.56L99.6296 84.545ZM107.555 84.515C109.385 84.515 110.3 85.475 110.3 87.395V91.475C110.3 91.655 110.245 91.8 110.135 91.91C110.035 92.02 109.895 92.075 109.715 92.075C109.535 92.075 109.39 92.02 109.28 91.91C109.17 91.8 109.115 91.655 109.115 91.475V90.755C108.925 91.185 108.635 91.52 108.245 91.76C107.855 91.99 107.405 92.105 106.895 92.105C106.425 92.105 105.99 92.01 105.59 91.82C105.2 91.63 104.89 91.365 104.66 91.025C104.43 90.685 104.315 90.31 104.315 89.9C104.315 89.35 104.455 88.925 104.735 88.625C105.015 88.315 105.475 88.095 106.115 87.965C106.755 87.825 107.645 87.755 108.785 87.755H109.115V87.26C109.115 86.66 108.99 86.22 108.74 85.94C108.5 85.66 108.105 85.52 107.555 85.52C106.875 85.52 106.185 85.705 105.485 86.075C105.215 86.245 105.025 86.33 104.915 86.33C104.795 86.33 104.695 86.285 104.615 86.195C104.535 86.105 104.495 85.99 104.495 85.85C104.495 85.71 104.535 85.59 104.615 85.49C104.705 85.38 104.845 85.27 105.035 85.16C105.385 84.96 105.78 84.805 106.22 84.695C106.67 84.575 107.115 84.515 107.555 84.515ZM107.06 91.145C107.66 91.145 108.15 90.945 108.53 90.545C108.92 90.135 109.115 89.61 109.115 88.97V88.535H108.845C107.965 88.535 107.295 88.575 106.835 88.655C106.375 88.725 106.045 88.85 105.845 89.03C105.655 89.2 105.56 89.455 105.56 89.795C105.56 90.185 105.7 90.51 105.98 90.77C106.27 91.02 106.63 91.145 107.06 91.145ZM11.115 105.935C11.215 105.695 11.38 105.575 11.61 105.575C11.76 105.575 11.895 105.625 12.015 105.725C12.135 105.825 12.195 105.95 12.195 106.1C12.195 106.17 12.18 106.245 12.15 106.325L9.66 112.625C9.6 112.755 9.51 112.86 9.39 112.94C9.28 113.01 9.155 113.045 9.015 113.045C8.885 113.045 8.76 113.01 8.64 112.94C8.53 112.86 8.445 112.755 8.385 112.625L6.315 107.36L4.26 112.625C4.21 112.755 4.125 112.86 4.005 112.94C3.885 113.01 3.755 113.045 3.615 113.045C3.485 113.045 3.36 113.01 3.24 112.94C3.12 112.86 3.03 112.755 2.97 112.625L0.48 106.34C0.45 106.26 0.435 106.19 0.435 106.13C0.435 105.97 0.5 105.835 0.63 105.725C0.77 105.615 0.92 105.56 1.08 105.56C1.32 105.56 1.49 105.68 1.59 105.92L3.645 111.455L5.76 105.965C5.82 105.835 5.9 105.735 6 105.665C6.11 105.595 6.225 105.56 6.345 105.56C6.475 105.56 6.59 105.595 6.69 105.665C6.8 105.735 6.88 105.835 6.93 105.965L9.045 111.44L11.115 105.935ZM19.0191 111.305C19.1291 111.305 19.2241 111.35 19.3041 111.44C19.3841 111.53 19.4241 111.645 19.4241 111.785C19.4241 112.035 19.2491 112.265 18.8991 112.475C18.5391 112.685 18.1591 112.845 17.7591 112.955C17.3591 113.055 16.9691 113.105 16.5891 113.105C15.4591 113.105 14.5641 112.77 13.9041 112.1C13.2541 111.43 12.9291 110.505 12.9291 109.325C12.9291 108.575 13.0741 107.915 13.3641 107.345C13.6541 106.765 14.0591 106.315 14.5791 105.995C15.1091 105.675 15.7091 105.515 16.3791 105.515C17.3291 105.515 18.0841 105.825 18.6441 106.445C19.2041 107.065 19.4841 107.905 19.4841 108.965C19.4841 109.165 19.4441 109.31 19.3641 109.4C19.2841 109.49 19.1541 109.535 18.9741 109.535H14.1441C14.2341 111.255 15.0491 112.115 16.5891 112.115C16.9791 112.115 17.3141 112.065 17.5941 111.965C17.8741 111.855 18.1741 111.71 18.4941 111.53C18.7541 111.38 18.9291 111.305 19.0191 111.305ZM16.3941 106.46C15.7541 106.46 15.2391 106.66 14.8491 107.06C14.4691 107.46 14.2441 108.025 14.1741 108.755H18.4191C18.3991 108.015 18.2141 107.45 17.8641 107.06C17.5141 106.66 17.0241 106.46 16.3941 106.46ZM26.8392 102.35C27.0292 102.35 27.1792 102.405 27.2892 102.515C27.3992 102.625 27.4542 102.765 27.4542 102.935V112.475C27.4542 112.655 27.3992 112.8 27.2892 112.91C27.1792 113.02 27.0292 113.075 26.8392 113.075C26.6492 113.075 26.4992 113.02 26.3892 112.91C26.2892 112.8 26.2392 112.655 26.2392 112.475V111.665C26.0192 112.125 25.6942 112.48 25.2642 112.73C24.8442 112.98 24.3492 113.105 23.7792 113.105C23.1392 113.105 22.5742 112.945 22.0842 112.625C21.5942 112.305 21.2142 111.86 20.9442 111.29C20.6742 110.71 20.5392 110.04 20.5392 109.28C20.5392 108.53 20.6742 107.87 20.9442 107.3C21.2142 106.73 21.5942 106.29 22.0842 105.98C22.5742 105.67 23.1392 105.515 23.7792 105.515C24.3492 105.515 24.8442 105.64 25.2642 105.89C25.6942 106.14 26.0192 106.495 26.2392 106.955V102.935C26.2392 102.755 26.2892 102.615 26.3892 102.515C26.4992 102.405 26.6492 102.35 26.8392 102.35ZM24.0192 112.1C24.7292 112.1 25.2742 111.86 25.6542 111.38C26.0442 110.89 26.2392 110.2 26.2392 109.31C26.2392 108.42 26.0442 107.735 25.6542 107.255C25.2742 106.775 24.7292 106.535 24.0192 106.535C23.3092 106.535 22.7542 106.775 22.3542 107.255C21.9642 107.735 21.7692 108.41 21.7692 109.28C21.7692 110.17 21.9642 110.865 22.3542 111.365C22.7542 111.855 23.3092 112.1 24.0192 112.1ZM35.2697 102.35C35.4597 102.35 35.6097 102.405 35.7197 102.515C35.8297 102.625 35.8847 102.765 35.8847 102.935V112.475C35.8847 112.655 35.8297 112.8 35.7197 112.91C35.6097 113.02 35.4597 113.075 35.2697 113.075C35.0797 113.075 34.9297 113.02 34.8197 112.91C34.7197 112.8 34.6697 112.655 34.6697 112.475V111.665C34.4497 112.125 34.1247 112.48 33.6947 112.73C33.2747 112.98 32.7797 113.105 32.2097 113.105C31.5697 113.105 31.0047 112.945 30.5147 112.625C30.0247 112.305 29.6447 111.86 29.3747 111.29C29.1047 110.71 28.9697 110.04 28.9697 109.28C28.9697 108.53 29.1047 107.87 29.3747 107.3C29.6447 106.73 30.0247 106.29 30.5147 105.98C31.0047 105.67 31.5697 105.515 32.2097 105.515C32.7797 105.515 33.2747 105.64 33.6947 105.89C34.1247 106.14 34.4497 106.495 34.6697 106.955V102.935C34.6697 102.755 34.7197 102.615 34.8197 102.515C34.9297 102.405 35.0797 102.35 35.2697 102.35ZM32.4497 112.1C33.1597 112.1 33.7047 111.86 34.0847 111.38C34.4747 110.89 34.6697 110.2 34.6697 109.31C34.6697 108.42 34.4747 107.735 34.0847 107.255C33.7047 106.775 33.1597 106.535 32.4497 106.535C31.7397 106.535 31.1847 106.775 30.7847 107.255C30.3947 107.735 30.1997 108.41 30.1997 109.28C30.1997 110.17 30.3947 110.865 30.7847 111.365C31.1847 111.855 31.7397 112.1 32.4497 112.1ZM38.4502 113.075C38.2702 113.075 38.1202 113.025 38.0002 112.925C37.8902 112.815 37.8352 112.665 37.8352 112.475V106.145C37.8352 105.955 37.8902 105.81 38.0002 105.71C38.1202 105.6 38.2702 105.545 38.4502 105.545C38.6302 105.545 38.7752 105.6 38.8852 105.71C38.9952 105.81 39.0502 105.955 39.0502 106.145V112.475C39.0502 112.675 38.9952 112.825 38.8852 112.925C38.7752 113.025 38.6302 113.075 38.4502 113.075ZM38.4502 103.97C38.2102 103.97 38.0152 103.9 37.8652 103.76C37.7152 103.62 37.6402 103.435 37.6402 103.205C37.6402 102.985 37.7152 102.805 37.8652 102.665C38.0152 102.525 38.2102 102.455 38.4502 102.455C38.6902 102.455 38.8852 102.525 39.0352 102.665C39.1852 102.805 39.2602 102.985 39.2602 103.205C39.2602 103.435 39.1852 103.62 39.0352 103.76C38.8852 103.9 38.6902 103.97 38.4502 103.97ZM44.6965 105.515C46.4465 105.515 47.3215 106.48 47.3215 108.41V112.475C47.3215 112.665 47.2665 112.815 47.1565 112.925C47.0565 113.025 46.9115 113.075 46.7215 113.075C46.5315 113.075 46.3815 113.025 46.2715 112.925C46.1615 112.815 46.1065 112.665 46.1065 112.475V108.485C46.1065 107.805 45.9715 107.31 45.7015 107C45.4415 106.69 45.0215 106.535 44.4415 106.535C43.7715 106.535 43.2365 106.74 42.8365 107.15C42.4365 107.56 42.2365 108.115 42.2365 108.815V112.475C42.2365 112.665 42.1815 112.815 42.0715 112.925C41.9715 113.025 41.8265 113.075 41.6365 113.075C41.4465 113.075 41.2965 113.025 41.1865 112.925C41.0765 112.815 41.0215 112.665 41.0215 112.475V106.145C41.0215 105.965 41.0765 105.82 41.1865 105.71C41.2965 105.6 41.4465 105.545 41.6365 105.545C41.8165 105.545 41.9565 105.6 42.0565 105.71C42.1665 105.82 42.2215 105.96 42.2215 106.13V106.895C42.4615 106.445 42.7965 106.105 43.2265 105.875C43.6565 105.635 44.1465 105.515 44.6965 105.515ZM55.1719 105.545C55.3619 105.545 55.5119 105.6 55.6219 105.71C55.7319 105.82 55.7869 105.965 55.7869 106.145V112.505C55.7869 113.595 55.5069 114.415 54.9469 114.965C54.3869 115.525 53.5569 115.805 52.4569 115.805C51.3869 115.805 50.4969 115.595 49.7869 115.175C49.4269 114.975 49.2469 114.745 49.2469 114.485C49.2469 114.345 49.2819 114.23 49.3519 114.14C49.4319 114.05 49.5319 114.005 49.6519 114.005C49.7519 114.005 49.9319 114.075 50.1919 114.215C50.5419 114.395 50.8869 114.54 51.2269 114.65C51.5669 114.76 51.9719 114.815 52.4419 114.815C53.1519 114.815 53.6869 114.625 54.0469 114.245C54.4069 113.875 54.5869 113.33 54.5869 112.61V111.32C54.3769 111.79 54.0519 112.15 53.6119 112.4C53.1819 112.65 52.6719 112.775 52.0819 112.775C51.4419 112.775 50.8719 112.625 50.3719 112.325C49.8819 112.025 49.4969 111.6 49.2169 111.05C48.9469 110.5 48.8119 109.865 48.8119 109.145C48.8119 108.425 48.9469 107.79 49.2169 107.24C49.4969 106.69 49.8819 106.265 50.3719 105.965C50.8719 105.665 51.4419 105.515 52.0819 105.515C52.6619 105.515 53.1669 105.64 53.5969 105.89C54.0269 106.14 54.3519 106.495 54.5719 106.955V106.145C54.5719 105.965 54.6219 105.82 54.7219 105.71C54.8319 105.6 54.9819 105.545 55.1719 105.545ZM52.3219 111.77C53.0219 111.77 53.5719 111.54 53.9719 111.08C54.3719 110.61 54.5719 109.965 54.5719 109.145C54.5719 108.335 54.3719 107.7 53.9719 107.24C53.5819 106.77 53.0319 106.535 52.3219 106.535C51.6119 106.535 51.0519 106.77 50.6419 107.24C50.2419 107.7 50.0419 108.335 50.0419 109.145C50.0419 109.965 50.2419 110.61 50.6419 111.08C51.0519 111.54 51.6119 111.77 52.3219 111.77ZM58.3059 111.38C58.5559 111.38 58.7559 111.48 58.9059 111.68C59.0659 111.87 59.1459 112.16 59.1459 112.55C59.1459 113.34 58.8909 114.005 58.3809 114.545C58.2809 114.655 58.1659 114.71 58.0359 114.71C57.9359 114.71 57.8459 114.67 57.7659 114.59C57.6859 114.52 57.6459 114.435 57.6459 114.335C57.6459 114.225 57.6859 114.13 57.7659 114.05C58.0259 113.78 58.1909 113.445 58.2609 113.045C58.0409 113.025 57.8559 112.945 57.7059 112.805C57.5659 112.655 57.4959 112.465 57.4959 112.235C57.4959 111.985 57.5709 111.78 57.7209 111.62C57.8809 111.46 58.0759 111.38 58.3059 111.38ZM73.7159 112.295C73.7559 112.375 73.7759 112.46 73.7759 112.55C73.7759 112.7 73.7159 112.825 73.5959 112.925C73.4859 113.025 73.3509 113.075 73.1909 113.075C72.9409 113.075 72.7659 112.955 72.6659 112.715L71.6009 110.285H65.9459L64.8659 112.715C64.7659 112.955 64.5909 113.075 64.3409 113.075C64.1809 113.075 64.0409 113.025 63.9209 112.925C63.8009 112.815 63.7409 112.685 63.7409 112.535C63.7409 112.455 63.7609 112.375 63.8009 112.295L68.0909 102.755C68.1509 102.615 68.2409 102.51 68.3609 102.44C68.4809 102.37 68.6109 102.335 68.7509 102.335C68.9009 102.335 69.0359 102.375 69.1559 102.455C69.2759 102.525 69.3659 102.625 69.4259 102.755L73.7159 112.295ZM66.3959 109.265H71.1509L68.7659 103.88L66.3959 109.265ZM78.7043 105.515C80.4543 105.515 81.3293 106.48 81.3293 108.41V112.475C81.3293 112.665 81.2743 112.815 81.1643 112.925C81.0643 113.025 80.9193 113.075 80.7293 113.075C80.5393 113.075 80.3893 113.025 80.2793 112.925C80.1693 112.815 80.1143 112.665 80.1143 112.475V108.485C80.1143 107.805 79.9793 107.31 79.7093 107C79.4493 106.69 79.0293 106.535 78.4493 106.535C77.7793 106.535 77.2443 106.74 76.8443 107.15C76.4443 107.56 76.2443 108.115 76.2443 108.815V112.475C76.2443 112.665 76.1893 112.815 76.0793 112.925C75.9793 113.025 75.8343 113.075 75.6443 113.075C75.4543 113.075 75.3043 113.025 75.1943 112.925C75.0843 112.815 75.0293 112.665 75.0293 112.475V106.145C75.0293 105.965 75.0843 105.82 75.1943 105.71C75.3043 105.6 75.4543 105.545 75.6443 105.545C75.8243 105.545 75.9643 105.6 76.0643 105.71C76.1743 105.82 76.2293 105.96 76.2293 106.13V106.895C76.4693 106.445 76.8043 106.105 77.2343 105.875C77.6643 105.635 78.1543 105.515 78.7043 105.515ZM89.1197 102.35C89.3097 102.35 89.4597 102.405 89.5697 102.515C89.6797 102.625 89.7347 102.765 89.7347 102.935V112.475C89.7347 112.655 89.6797 112.8 89.5697 112.91C89.4597 113.02 89.3097 113.075 89.1197 113.075C88.9297 113.075 88.7797 113.02 88.6697 112.91C88.5697 112.8 88.5197 112.655 88.5197 112.475V111.665C88.2997 112.125 87.9747 112.48 87.5447 112.73C87.1247 112.98 86.6297 113.105 86.0597 113.105C85.4197 113.105 84.8547 112.945 84.3647 112.625C83.8747 112.305 83.4947 111.86 83.2247 111.29C82.9547 110.71 82.8197 110.04 82.8197 109.28C82.8197 108.53 82.9547 107.87 83.2247 107.3C83.4947 106.73 83.8747 106.29 84.3647 105.98C84.8547 105.67 85.4197 105.515 86.0597 105.515C86.6297 105.515 87.1247 105.64 87.5447 105.89C87.9747 106.14 88.2997 106.495 88.5197 106.955V102.935C88.5197 102.755 88.5697 102.615 88.6697 102.515C88.7797 102.405 88.9297 102.35 89.1197 102.35ZM86.2997 112.1C87.0097 112.1 87.5547 111.86 87.9347 111.38C88.3247 110.89 88.5197 110.2 88.5197 109.31C88.5197 108.42 88.3247 107.735 87.9347 107.255C87.5547 106.775 87.0097 106.535 86.2997 106.535C85.5897 106.535 85.0347 106.775 84.6347 107.255C84.2447 107.735 84.0497 108.41 84.0497 109.28C84.0497 110.17 84.2447 110.865 84.6347 111.365C85.0347 111.855 85.5897 112.1 86.2997 112.1ZM98.4773 103.385C97.9473 103.425 97.5473 103.595 97.2773 103.895C97.0073 104.185 96.8723 104.625 96.8723 105.215V105.695H98.5373C98.7073 105.695 98.8373 105.74 98.9273 105.83C99.0173 105.92 99.0623 106.04 99.0623 106.19C99.0623 106.34 99.0173 106.455 98.9273 106.535C98.8373 106.615 98.7073 106.655 98.5373 106.655H96.8723V112.475C96.8723 112.665 96.8123 112.815 96.6923 112.925C96.5823 113.025 96.4423 113.075 96.2723 113.075C96.0923 113.075 95.9423 113.025 95.8223 112.925C95.7123 112.815 95.6573 112.665 95.6573 112.475V106.655H94.6523C94.4823 106.655 94.3473 106.615 94.2473 106.535C94.1573 106.445 94.1123 106.33 94.1123 106.19C94.1123 106.04 94.1573 105.92 94.2473 105.83C94.3473 105.74 94.4823 105.695 94.6523 105.695H95.6573V105.425C95.6573 104.525 95.8823 103.82 96.3323 103.31C96.7823 102.79 97.4273 102.5 98.2673 102.44L98.6573 102.41C98.9173 102.39 99.1023 102.415 99.2123 102.485C99.3323 102.555 99.3923 102.68 99.3923 102.86C99.3923 103.15 99.2173 103.315 98.8673 103.355L98.4773 103.385ZM102.831 113.105C102.141 113.105 101.531 112.95 101.001 112.64C100.481 112.33 100.076 111.89 99.786 111.32C99.506 110.74 99.366 110.07 99.366 109.31C99.366 108.55 99.506 107.885 99.786 107.315C100.076 106.735 100.481 106.29 101.001 105.98C101.531 105.67 102.141 105.515 102.831 105.515C103.521 105.515 104.131 105.67 104.661 105.98C105.191 106.29 105.596 106.735 105.876 107.315C106.166 107.885 106.311 108.55 106.311 109.31C106.311 110.07 106.166 110.74 105.876 111.32C105.596 111.89 105.191 112.33 104.661 112.64C104.131 112.95 103.521 113.105 102.831 113.105ZM102.831 112.1C103.551 112.1 104.101 111.865 104.481 111.395C104.871 110.915 105.066 110.22 105.066 109.31C105.066 108.42 104.871 107.735 104.481 107.255C104.091 106.765 103.541 106.52 102.831 106.52C102.121 106.52 101.571 106.765 101.181 107.255C100.791 107.735 100.596 108.42 100.596 109.31C100.596 110.21 100.786 110.9 101.166 111.38C101.556 111.86 102.111 112.1 102.831 112.1ZM113.371 105.545C113.561 105.545 113.706 105.6 113.806 105.71C113.916 105.82 113.971 105.965 113.971 106.145V112.49C113.971 112.66 113.916 112.8 113.806 112.91C113.706 113.02 113.561 113.075 113.371 113.075C113.191 113.075 113.046 113.025 112.936 112.925C112.836 112.815 112.786 112.675 112.786 112.505V111.755C112.556 112.195 112.231 112.53 111.811 112.76C111.401 112.99 110.936 113.105 110.416 113.105C109.546 113.105 108.891 112.865 108.451 112.385C108.011 111.895 107.791 111.175 107.791 110.225V106.145C107.791 105.965 107.846 105.82 107.956 105.71C108.066 105.6 108.216 105.545 108.406 105.545C108.596 105.545 108.741 105.6 108.841 105.71C108.951 105.82 109.006 105.965 109.006 106.145V110.195C109.006 110.845 109.136 111.325 109.396 111.635C109.656 111.935 110.066 112.085 110.626 112.085C111.266 112.085 111.781 111.88 112.171 111.47C112.561 111.05 112.756 110.5 112.756 109.82V106.145C112.756 105.965 112.811 105.82 112.921 105.71C113.031 105.6 113.181 105.545 113.371 105.545ZM119.544 105.545C119.964 105.515 120.174 105.685 120.174 106.055C120.174 106.215 120.129 106.345 120.039 106.445C119.949 106.535 119.794 106.59 119.574 106.61L119.124 106.655C118.454 106.715 117.954 106.955 117.624 107.375C117.304 107.785 117.144 108.27 117.144 108.83V112.475C117.144 112.675 117.089 112.825 116.979 112.925C116.869 113.025 116.724 113.075 116.544 113.075C116.364 113.075 116.214 113.025 116.094 112.925C115.984 112.815 115.929 112.665 115.929 112.475V106.145C115.929 105.955 115.989 105.81 116.109 105.71C116.229 105.6 116.374 105.545 116.544 105.545C116.704 105.545 116.839 105.6 116.949 105.71C117.059 105.81 117.114 105.95 117.114 106.13V106.97C117.324 106.53 117.619 106.195 117.999 105.965C118.389 105.735 118.834 105.6 119.334 105.56L119.544 105.545ZM127.71 103.385C127.18 103.425 126.78 103.595 126.51 103.895C126.24 104.185 126.105 104.625 126.105 105.215V105.695H127.77C127.94 105.695 128.07 105.74 128.16 105.83C128.25 105.92 128.295 106.04 128.295 106.19C128.295 106.34 128.25 106.455 128.16 106.535C128.07 106.615 127.94 106.655 127.77 106.655H126.105V112.475C126.105 112.665 126.045 112.815 125.925 112.925C125.815 113.025 125.675 113.075 125.505 113.075C125.325 113.075 125.175 113.025 125.055 112.925C124.945 112.815 124.89 112.665 124.89 112.475V106.655H123.885C123.715 106.655 123.58 106.615 123.48 106.535C123.39 106.445 123.345 106.33 123.345 106.19C123.345 106.04 123.39 105.92 123.48 105.83C123.58 105.74 123.715 105.695 123.885 105.695H124.89V105.425C124.89 104.525 125.115 103.82 125.565 103.31C126.015 102.79 126.66 102.5 127.5 102.44L127.89 102.41C128.15 102.39 128.335 102.415 128.445 102.485C128.565 102.555 128.625 102.68 128.625 102.86C128.625 103.15 128.45 103.315 128.1 103.355L127.71 103.385ZM132.063 113.105C131.373 113.105 130.763 112.95 130.233 112.64C129.713 112.33 129.308 111.89 129.018 111.32C128.738 110.74 128.598 110.07 128.598 109.31C128.598 108.55 128.738 107.885 129.018 107.315C129.308 106.735 129.713 106.29 130.233 105.98C130.763 105.67 131.373 105.515 132.063 105.515C132.753 105.515 133.363 105.67 133.893 105.98C134.423 106.29 134.828 106.735 135.108 107.315C135.398 107.885 135.543 108.55 135.543 109.31C135.543 110.07 135.398 110.74 135.108 111.32C134.828 111.89 134.423 112.33 133.893 112.64C133.363 112.95 132.753 113.105 132.063 113.105ZM132.063 112.1C132.783 112.1 133.333 111.865 133.713 111.395C134.103 110.915 134.298 110.22 134.298 109.31C134.298 108.42 134.103 107.735 133.713 107.255C133.323 106.765 132.773 106.52 132.063 106.52C131.353 106.52 130.803 106.765 130.413 107.255C130.023 107.735 129.828 108.42 129.828 109.31C129.828 110.21 130.018 110.9 130.398 111.38C130.788 111.86 131.343 112.1 132.063 112.1ZM140.669 105.545C141.089 105.515 141.299 105.685 141.299 106.055C141.299 106.215 141.254 106.345 141.164 106.445C141.074 106.535 140.919 106.59 140.699 106.61L140.249 106.655C139.579 106.715 139.079 106.955 138.749 107.375C138.429 107.785 138.269 108.27 138.269 108.83V112.475C138.269 112.675 138.214 112.825 138.104 112.925C137.994 113.025 137.849 113.075 137.669 113.075C137.489 113.075 137.339 113.025 137.219 112.925C137.109 112.815 137.054 112.665 137.054 112.475V106.145C137.054 105.955 137.114 105.81 137.234 105.71C137.354 105.6 137.499 105.545 137.669 105.545C137.829 105.545 137.964 105.6 138.074 105.71C138.184 105.81 138.239 105.95 138.239 106.13V106.97C138.449 106.53 138.744 106.195 139.124 105.965C139.514 105.735 139.959 105.6 140.459 105.56L140.669 105.545ZM6.99 123.35C7.18 123.35 7.33 123.405 7.44 123.515C7.55 123.625 7.605 123.765 7.605 123.935V133.475C7.605 133.655 7.55 133.8 7.44 133.91C7.33 134.02 7.18 134.075 6.99 134.075C6.8 134.075 6.65 134.02 6.54 133.91C6.44 133.8 6.39 133.655 6.39 133.475V132.665C6.17 133.125 5.845 133.48 5.415 133.73C4.995 133.98 4.5 134.105 3.93 134.105C3.29 134.105 2.725 133.945 2.235 133.625C1.745 133.305 1.365 132.86 1.095 132.29C0.825 131.71 0.69 131.04 0.69 130.28C0.69 129.53 0.825 128.87 1.095 128.3C1.365 127.73 1.745 127.29 2.235 126.98C2.725 126.67 3.29 126.515 3.93 126.515C4.5 126.515 4.995 126.64 5.415 126.89C5.845 127.14 6.17 127.495 6.39 127.955V123.935C6.39 123.755 6.44 123.615 6.54 123.515C6.65 123.405 6.8 123.35 6.99 123.35ZM4.17 133.1C4.88 133.1 5.425 132.86 5.805 132.38C6.195 131.89 6.39 131.2 6.39 130.31C6.39 129.42 6.195 128.735 5.805 128.255C5.425 127.775 4.88 127.535 4.17 127.535C3.46 127.535 2.905 127.775 2.505 128.255C2.115 128.735 1.92 129.41 1.92 130.28C1.92 131.17 2.115 131.865 2.505 132.365C2.905 132.855 3.46 133.1 4.17 133.1ZM15.2105 132.305C15.3205 132.305 15.4155 132.35 15.4955 132.44C15.5755 132.53 15.6155 132.645 15.6155 132.785C15.6155 133.035 15.4405 133.265 15.0905 133.475C14.7305 133.685 14.3505 133.845 13.9505 133.955C13.5505 134.055 13.1605 134.105 12.7805 134.105C11.6505 134.105 10.7555 133.77 10.0955 133.1C9.44547 132.43 9.12047 131.505 9.12047 130.325C9.12047 129.575 9.26547 128.915 9.55547 128.345C9.84547 127.765 10.2505 127.315 10.7705 126.995C11.3005 126.675 11.9005 126.515 12.5705 126.515C13.5205 126.515 14.2755 126.825 14.8355 127.445C15.3955 128.065 15.6755 128.905 15.6755 129.965C15.6755 130.165 15.6355 130.31 15.5555 130.4C15.4755 130.49 15.3455 130.535 15.1655 130.535H10.3355C10.4255 132.255 11.2405 133.115 12.7805 133.115C13.1705 133.115 13.5055 133.065 13.7855 132.965C14.0655 132.855 14.3655 132.71 14.6855 132.53C14.9455 132.38 15.1205 132.305 15.2105 132.305ZM12.5855 127.46C11.9455 127.46 11.4305 127.66 11.0405 128.06C10.6605 128.46 10.4355 129.025 10.3655 129.755H14.6105C14.5905 129.015 14.4055 128.45 14.0555 128.06C13.7055 127.66 13.2155 127.46 12.5855 127.46ZM20.1506 126.515C21.9806 126.515 22.8956 127.475 22.8956 129.395V133.475C22.8956 133.655 22.8406 133.8 22.7306 133.91C22.6306 134.02 22.4906 134.075 22.3106 134.075C22.1306 134.075 21.9856 134.02 21.8756 133.91C21.7656 133.8 21.7106 133.655 21.7106 133.475V132.755C21.5206 133.185 21.2306 133.52 20.8406 133.76C20.4506 133.99 20.0006 134.105 19.4906 134.105C19.0206 134.105 18.5856 134.01 18.1856 133.82C17.7956 133.63 17.4856 133.365 17.2556 133.025C17.0256 132.685 16.9106 132.31 16.9106 131.9C16.9106 131.35 17.0506 130.925 17.3306 130.625C17.6106 130.315 18.0706 130.095 18.7106 129.965C19.3506 129.825 20.2406 129.755 21.3806 129.755H21.7106V129.26C21.7106 128.66 21.5856 128.22 21.3356 127.94C21.0956 127.66 20.7006 127.52 20.1506 127.52C19.4706 127.52 18.7806 127.705 18.0806 128.075C17.8106 128.245 17.6206 128.33 17.5106 128.33C17.3906 128.33 17.2906 128.285 17.2106 128.195C17.1306 128.105 17.0906 127.99 17.0906 127.85C17.0906 127.71 17.1306 127.59 17.2106 127.49C17.3006 127.38 17.4406 127.27 17.6306 127.16C17.9806 126.96 18.3756 126.805 18.8156 126.695C19.2656 126.575 19.7106 126.515 20.1506 126.515ZM19.6556 133.145C20.2556 133.145 20.7456 132.945 21.1256 132.545C21.5156 132.135 21.7106 131.61 21.7106 130.97V130.535H21.4406C20.5606 130.535 19.8906 130.575 19.4306 130.655C18.9706 130.725 18.6406 130.85 18.4406 131.03C18.2506 131.2 18.1556 131.455 18.1556 131.795C18.1556 132.185 18.2956 132.51 18.5756 132.77C18.8656 133.02 19.2256 133.145 19.6556 133.145ZM28.1947 133.115C28.5447 133.145 28.7197 133.305 28.7197 133.595C28.7197 133.765 28.6547 133.895 28.5247 133.985C28.4047 134.065 28.2197 134.095 27.9697 134.075L27.5647 134.045C26.7647 133.985 26.1747 133.745 25.7947 133.325C25.4147 132.905 25.2247 132.27 25.2247 131.42V127.655H24.2197C24.0497 127.655 23.9147 127.615 23.8147 127.535C23.7247 127.445 23.6797 127.33 23.6797 127.19C23.6797 127.04 23.7247 126.92 23.8147 126.83C23.9147 126.74 24.0497 126.695 24.2197 126.695H25.2247V125C25.2247 124.81 25.2797 124.665 25.3897 124.565C25.4997 124.455 25.6497 124.4 25.8397 124.4C26.0197 124.4 26.1647 124.455 26.2747 124.565C26.3847 124.665 26.4397 124.81 26.4397 125V126.695H28.1047C28.2647 126.695 28.3897 126.74 28.4797 126.83C28.5797 126.92 28.6297 127.04 28.6297 127.19C28.6297 127.33 28.5797 127.445 28.4797 127.535C28.3897 127.615 28.2647 127.655 28.1047 127.655H26.4397V131.48C26.4397 132.03 26.5497 132.43 26.7697 132.68C26.9997 132.92 27.3397 133.055 27.7897 133.085L28.1947 133.115ZM33.3074 126.515C34.1674 126.515 34.8174 126.76 35.2574 127.25C35.6974 127.73 35.9174 128.45 35.9174 129.41V133.475C35.9174 133.665 35.8624 133.815 35.7524 133.925C35.6424 134.025 35.4974 134.075 35.3174 134.075C35.1274 134.075 34.9774 134.025 34.8674 133.925C34.7574 133.815 34.7024 133.665 34.7024 133.475V129.44C34.7024 128.79 34.5674 128.31 34.2974 128C34.0374 127.69 33.6174 127.535 33.0374 127.535C32.3674 127.535 31.8324 127.74 31.4324 128.15C31.0324 128.56 30.8324 129.115 30.8324 129.815V133.475C30.8324 133.665 30.7774 133.815 30.6674 133.925C30.5674 134.025 30.4224 134.075 30.2324 134.075C30.0424 134.075 29.8924 134.025 29.7824 133.925C29.6724 133.815 29.6174 133.665 29.6174 133.475V123.935C29.6174 123.765 29.6724 123.625 29.7824 123.515C29.9024 123.405 30.0524 123.35 30.2324 123.35C30.4224 123.35 30.5674 123.405 30.6674 123.515C30.7774 123.615 30.8324 123.755 30.8324 123.935V127.865C31.0724 127.425 31.4074 127.09 31.8374 126.86C32.2674 126.63 32.7574 126.515 33.3074 126.515Z" fill="#2A2921"/>
</svg>
