<svg width="169" height="136" viewBox="0 0 169 136" fill="none" xmlns="http://www.w3.org/2000/svg">
<path d="M11.64 28.2L5.24 20.02C5.06667 19.7933 4.88667 19.5533 4.7 19.3C4.51333 19.0467 4.32667 18.7867 4.14 18.52H4.12L4.16 24.72C4.16 25.08 4.15333 25.4267 4.14 25.76C4.12667 26.0933 4.10667 26.3467 4.08 26.52C4.29333 26.4933 4.56 26.48 4.88 26.48C5.21333 26.4667 5.44667 26.46 5.58 26.46V28H1.02V26.68C1.32667 26.6667 1.58 26.6267 1.78 26.56C1.99333 26.4933 2.15333 26.34 2.26 26.1C2.38 25.86 2.44 25.4733 2.44 24.94L2.4 17.28C2.4 16.92 2.40667 16.5733 2.42 16.24C2.43333 15.9067 2.45333 15.6533 2.48 15.48C2.26667 15.4933 1.99333 15.5067 1.66 15.52C1.34 15.52 1.10667 15.5267 0.96 15.54V14H4.1L10.22 21.72C10.5533 22.1467 10.8267 22.5133 11.04 22.82C11.2667 23.1267 11.46 23.3933 11.62 23.62H11.64V17.28C11.64 16.92 11.6467 16.5733 11.66 16.24C11.6733 15.9067 11.6867 15.6533 11.7 15.48C11.4867 15.4933 11.22 15.5067 10.9 15.52C10.58 15.52 10.3467 15.5267 10.2 15.54V14H14.76V15.32C14.4667 15.3333 14.2133 15.3733 14 15.44C13.7867 15.5067 13.62 15.66 13.5 15.9C13.3933 16.1267 13.34 16.5133 13.34 17.06V28.2H11.64ZM19.56 28.32C18.36 28.32 17.5067 27.9667 17 27.26C16.4933 26.5533 16.24 25.4333 16.24 23.9V21.6C16.24 21.36 16.2467 21.0867 16.26 20.78C16.2733 20.46 16.2867 20.1533 16.3 19.86C16.0867 19.8733 15.8333 19.8867 15.54 19.9C15.26 19.9 15.0467 19.9067 14.9 19.92V18.4H15.1C15.9267 18.4 16.58 18.3333 17.06 18.2C17.54 18.0667 17.8467 17.9333 17.98 17.8H19.08V23.92C19.08 24.7867 19.1933 25.4333 19.42 25.86C19.6467 26.2733 20.0067 26.48 20.5 26.48C20.8467 26.48 21.1933 26.3867 21.54 26.2C21.9 26 22.1933 25.7733 22.42 25.52V21.6C22.42 21.36 22.4267 21.0867 22.44 20.78C22.4533 20.46 22.4733 20.1533 22.5 19.86C22.2867 19.8733 22.0333 19.8867 21.74 19.9C21.46 19.9 21.2467 19.9067 21.1 19.92V18.4H21.58C22.2067 18.4 22.76 18.3333 23.24 18.2C23.72 18.0533 24.0267 17.92 24.16 17.8H25.26V24.78C25.26 24.9667 25.2533 25.2333 25.24 25.58C25.2267 25.9133 25.2067 26.2333 25.18 26.54C25.3933 26.5133 25.6267 26.5 25.88 26.5C26.1467 26.4867 26.3467 26.48 26.48 26.48V28H22.68C22.6667 27.8267 22.6467 27.6533 22.62 27.48C22.6067 27.3067 22.5867 27.1333 22.56 26.96C22.1467 27.3067 21.7 27.62 21.22 27.9C20.7533 28.18 20.2 28.32 19.56 28.32ZM27.3833 26.7C27.9299 26.7 28.2633 26.54 28.3833 26.22C28.5033 25.8867 28.5633 25.4533 28.5633 24.92V21.56C28.5633 21.32 28.5699 21.0533 28.5833 20.76C28.5966 20.4533 28.6166 20.1533 28.6433 19.86C28.4299 19.8733 28.1766 19.8867 27.8833 19.9C27.6033 19.9 27.3899 19.9067 27.2433 19.92V18.4H28.0433C28.5633 18.4 29.0366 18.3333 29.4633 18.2C29.9033 18.0667 30.1899 17.9333 30.3233 17.8H31.3033C31.3299 17.9333 31.3499 18.1867 31.3633 18.56C31.3766 18.92 31.3833 19.24 31.3833 19.52C31.9166 18.8533 32.4166 18.38 32.8833 18.1C33.3499 17.82 33.8233 17.68 34.3033 17.68C34.7699 17.68 35.1766 17.8133 35.5233 18.08C35.8699 18.3333 36.0433 18.7533 36.0433 19.34C36.0433 19.54 35.9966 19.7533 35.9033 19.98C35.8099 20.1933 35.6633 20.3733 35.4633 20.52C35.2633 20.6667 34.9899 20.74 34.6433 20.74C34.3766 20.74 34.1033 20.66 33.8233 20.5C33.5433 20.34 33.3833 20.0333 33.3433 19.58C33.0766 19.58 32.8099 19.6933 32.5433 19.92C32.2766 20.1333 32.0366 20.3933 31.8233 20.7C31.6233 20.9933 31.4833 21.2667 31.4033 21.52V24.78C31.4033 24.9667 31.3966 25.2333 31.3833 25.58C31.3699 25.9133 31.3499 26.2333 31.3233 26.54C31.5366 26.5133 31.7699 26.5 32.0233 26.5C32.2899 26.4867 32.4899 26.48 32.6233 26.48V28H27.3833V26.7ZM41.1145 28.32C40.5412 28.32 39.9812 28.2467 39.4345 28.1C38.8879 27.9533 38.4612 27.7667 38.1545 27.54L38.1945 28.14H36.6745L36.5945 24.7H37.8945C37.9612 25.3133 38.2812 25.8333 38.8545 26.26C39.4279 26.6733 40.1412 26.88 40.9945 26.88C41.3279 26.88 41.6412 26.8 41.9345 26.64C42.2279 26.48 42.3745 26.2267 42.3745 25.88C42.3612 25.4933 42.1545 25.2067 41.7545 25.02C41.3679 24.8333 40.8012 24.5933 40.0545 24.3C39.6412 24.14 39.2212 23.9733 38.7945 23.8C38.3812 23.6267 37.9945 23.42 37.6345 23.18C37.2879 22.9267 37.0079 22.62 36.7945 22.26C36.5812 21.8867 36.4745 21.4333 36.4745 20.9C36.4745 20.38 36.6012 19.8733 36.8545 19.38C37.1212 18.8867 37.5345 18.48 38.0945 18.16C38.6545 17.84 39.3679 17.68 40.2345 17.68C40.5945 17.68 41.0012 17.74 41.4545 17.86C41.9212 17.9667 42.3145 18.1333 42.6345 18.36V17.78H44.1545V21.32H42.8545C42.7345 20.6267 42.4279 20.08 41.9345 19.68C41.4412 19.28 40.8345 19.08 40.1145 19.08C39.7812 19.08 39.4745 19.16 39.1945 19.32C38.9279 19.48 38.7945 19.7533 38.7945 20.14C38.7945 20.4467 38.9012 20.6933 39.1145 20.88C39.3279 21.0533 39.6212 21.2 39.9945 21.32C40.3679 21.44 40.7812 21.58 41.2345 21.74C41.9145 21.9667 42.5145 22.2333 43.0345 22.54C43.5679 22.8467 43.9879 23.22 44.2945 23.66C44.6012 24.0867 44.7545 24.6133 44.7545 25.24C44.7545 25.9333 44.5812 26.5067 44.2345 26.96C43.8879 27.4133 43.4345 27.7533 42.8745 27.98C42.3279 28.2067 41.7412 28.32 41.1145 28.32ZM50.5616 28.32C49.5882 28.32 48.7282 28.1067 47.9816 27.68C47.2349 27.24 46.6549 26.6267 46.2416 25.84C45.8282 25.04 45.6216 24.1 45.6216 23.02C45.6216 22.0867 45.8282 21.2133 46.2416 20.4C46.6549 19.5867 47.2349 18.9333 47.9816 18.44C48.7416 17.9333 49.6216 17.68 50.6216 17.68C51.1816 17.68 51.7282 17.76 52.2616 17.92C52.7949 18.0667 53.2749 18.3267 53.7016 18.7C54.1416 19.0733 54.4882 19.58 54.7416 20.22C55.0082 20.86 55.1349 21.66 55.1216 22.62L48.5616 22.74C48.5616 23.46 48.6482 24.1067 48.8216 24.68C49.0082 25.2533 49.3082 25.7067 49.7216 26.04C50.1349 26.3733 50.6882 26.54 51.3816 26.54C51.7816 26.54 52.2549 26.4333 52.8016 26.22C53.3616 25.9933 53.8682 25.6 54.3216 25.04L55.2216 25.88C54.7416 26.56 54.2282 27.08 53.6816 27.44C53.1349 27.7867 52.5882 28.02 52.0416 28.14C51.5082 28.26 51.0149 28.32 50.5616 28.32ZM48.6816 21.34H52.3616C52.3482 20.5133 52.1882 19.9333 51.8816 19.6C51.5749 19.2533 51.1882 19.08 50.7216 19.08C50.1349 19.08 49.6749 19.2933 49.3416 19.72C49.0082 20.1333 48.7882 20.6733 48.6816 21.34ZM56.1833 26.7C56.7299 26.7 57.0633 26.54 57.1833 26.22C57.3033 25.8867 57.3633 25.4533 57.3633 24.92V21.56C57.3633 21.32 57.3699 21.0533 57.3833 20.76C57.3966 20.4533 57.4166 20.1533 57.4433 19.86C57.2299 19.8733 56.9766 19.8867 56.6833 19.9C56.4033 19.9 56.1899 19.9067 56.0433 19.92V18.4H56.8433C57.3633 18.4 57.8366 18.3333 58.2633 18.2C58.7033 18.0667 58.9899 17.9333 59.1233 17.8H60.1033C60.1299 17.9333 60.1499 18.1867 60.1633 18.56C60.1766 18.92 60.1833 19.24 60.1833 19.52C60.7166 18.8533 61.2166 18.38 61.6833 18.1C62.1499 17.82 62.6233 17.68 63.1033 17.68C63.5699 17.68 63.9766 17.8133 64.3233 18.08C64.6699 18.3333 64.8433 18.7533 64.8433 19.34C64.8433 19.54 64.7966 19.7533 64.7033 19.98C64.6099 20.1933 64.4633 20.3733 64.2633 20.52C64.0633 20.6667 63.7899 20.74 63.4433 20.74C63.1766 20.74 62.9033 20.66 62.6233 20.5C62.3433 20.34 62.1833 20.0333 62.1433 19.58C61.8766 19.58 61.6099 19.6933 61.3433 19.92C61.0766 20.1333 60.8366 20.3933 60.6233 20.7C60.4233 20.9933 60.2833 21.2667 60.2033 21.52V24.78C60.2033 24.9667 60.1966 25.2333 60.1833 25.58C60.1699 25.9133 60.1499 26.2333 60.1233 26.54C60.3366 26.5133 60.5699 26.5 60.8233 26.5C61.0899 26.4867 61.2899 26.48 61.4233 26.48V28H56.1833V26.7ZM67.7866 33.42C67.2799 33.42 66.8466 33.2667 66.4866 32.96C66.1399 32.6667 65.9666 32.2733 65.9666 31.78C65.9666 31.42 66.0799 31.1 66.3066 30.82C66.5466 30.5533 66.8532 30.4133 67.2266 30.4C67.5199 30.3867 67.7666 30.48 67.9666 30.68C68.1799 30.8933 68.2866 31.18 68.2866 31.54C68.2866 31.58 68.2866 31.62 68.2866 31.66C68.2866 31.7 68.2799 31.7467 68.2666 31.8C68.2932 31.8 68.3266 31.7933 68.3666 31.78C68.6066 31.7 68.8732 31.3533 69.1666 30.74C69.4732 30.1133 69.7399 29.3733 69.9666 28.52L66.8066 22.18C66.4332 21.4333 66.1866 20.8733 66.0666 20.5C65.9599 20.1133 65.8866 19.7733 65.8466 19.48L64.9266 19.52V18H69.9066V19.28C69.4132 19.3333 69.1399 19.52 69.0866 19.84C69.0466 20.16 69.1066 20.4933 69.2666 20.84L71.2266 25.32C71.3599 24.9733 71.5332 24.44 71.7466 23.72C71.9599 22.9867 72.2132 22.1933 72.5066 21.34C72.5866 21.0867 72.6999 20.7667 72.8466 20.38C73.0066 19.98 73.1732 19.6733 73.3466 19.46L72.2066 19.52V18H75.7666V19.28C75.3532 19.3733 75.0066 19.6267 74.7266 20.04C74.4599 20.4533 74.2199 20.96 74.0066 21.56L71.5066 28.7C71.1332 29.78 70.7799 30.6667 70.4466 31.36C70.1132 32.0667 69.7399 32.5867 69.3266 32.92C68.9132 33.2533 68.3999 33.42 67.7866 33.42ZM81.2961 28V26.68C81.6028 26.6667 81.8561 26.6267 82.0561 26.56C82.2694 26.4933 82.4294 26.34 82.5361 26.1C82.6561 25.86 82.7161 25.4733 82.7161 24.94V17.28C82.7161 16.92 82.7228 16.5733 82.7361 16.24C82.7628 15.9067 82.7828 15.6533 82.7961 15.48C82.5828 15.4933 82.3161 15.5067 81.9961 15.52C81.6761 15.52 81.4428 15.5267 81.2961 15.54V14C82.2428 13.9867 83.1894 13.98 84.1361 13.98C85.0828 13.98 86.0294 13.9733 86.9761 13.96C88.1494 13.9467 89.1694 14.08 90.0361 14.36C90.9028 14.64 91.5694 15.0933 92.0361 15.72C92.5028 16.3467 92.7228 17.1933 92.6961 18.26C92.6694 19.1133 92.3694 19.8867 91.7961 20.58C91.2228 21.2733 90.3494 21.7867 89.1761 22.12C89.4294 22.2267 89.6761 22.4 89.9161 22.64C90.1694 22.88 90.3828 23.1333 90.5561 23.4L91.4961 24.8C91.9361 25.48 92.3028 25.96 92.5961 26.24C92.9028 26.5067 93.2828 26.6533 93.7361 26.68V28H90.4361C90.1961 27.8267 89.9561 27.58 89.7161 27.26C89.4894 26.9267 89.2428 26.5467 88.9761 26.12L87.4961 23.72C87.1628 23.1867 86.8828 22.8 86.6561 22.56H85.6161V24.7C85.6161 25.0733 85.6094 25.4267 85.5961 25.76C85.5828 26.0933 85.5628 26.3467 85.5361 26.52C85.6828 26.5067 85.8694 26.5 86.0961 26.5C86.3228 26.4867 86.5428 26.48 86.7561 26.48C86.9828 26.4667 87.1428 26.46 87.2361 26.46V28H81.2961ZM86.5761 21.12C87.6828 21.12 88.4761 20.8733 88.9561 20.38C89.4361 19.8733 89.6761 19.1133 89.6761 18.1C89.6761 17.46 89.5761 16.96 89.3761 16.6C89.1761 16.2267 88.9228 15.9533 88.6161 15.78C88.3228 15.5933 88.0228 15.48 87.7161 15.44C87.4094 15.3867 87.1561 15.36 86.9561 15.36C86.5428 15.36 86.2161 15.4467 85.9761 15.62C85.7361 15.7933 85.6161 16.2333 85.6161 16.94V21.04C85.7628 21.0533 85.9161 21.0733 86.0761 21.1C86.2361 21.1133 86.4028 21.12 86.5761 21.12ZM100.387 26.7C100.947 26.7 101.287 26.54 101.407 26.22C101.527 25.8867 101.587 25.4533 101.587 24.92L101.567 22.08C101.567 20.3733 101.027 19.52 99.947 19.52C99.6137 19.52 99.2804 19.5933 98.947 19.74C98.627 19.8867 98.3537 20.06 98.127 20.26V24.78C98.127 24.9667 98.1204 25.2333 98.107 25.58C98.0937 25.9133 98.0737 26.2333 98.047 26.54C98.2737 26.5133 98.5137 26.5 98.767 26.5C99.0204 26.4867 99.2137 26.48 99.347 26.48V28H94.107V26.7C94.667 26.7 95.0004 26.54 95.107 26.22C95.227 25.8867 95.287 25.4533 95.287 24.92V16.7C95.287 16.46 95.2937 16.1867 95.307 15.88C95.3204 15.56 95.3404 15.2533 95.367 14.96C95.1537 14.9733 94.9004 14.9867 94.607 15C94.327 15 94.1137 15.0067 93.967 15.02V13.5C94.9004 13.5 95.6137 13.4333 96.107 13.3C96.6004 13.1667 96.9137 13.0333 97.047 12.9H98.127V18.8C98.3937 18.5867 98.7004 18.4 99.047 18.24C99.3937 18.0667 99.747 17.9333 100.107 17.84C100.467 17.7333 100.78 17.68 101.047 17.68C102.274 17.68 103.14 18.0333 103.647 18.74C104.154 19.4333 104.414 20.5533 104.427 22.1V24.78C104.427 24.9667 104.42 25.2333 104.407 25.58C104.394 25.9133 104.374 26.2333 104.347 26.54C104.56 26.5133 104.794 26.5 105.047 26.5C105.3 26.4867 105.5 26.48 105.647 26.48V28H100.387V26.7ZM108.276 33.42C107.77 33.42 107.336 33.2667 106.976 32.96C106.63 32.6667 106.456 32.2733 106.456 31.78C106.456 31.42 106.57 31.1 106.796 30.82C107.036 30.5533 107.343 30.4133 107.716 30.4C108.01 30.3867 108.256 30.48 108.456 30.68C108.67 30.8933 108.776 31.18 108.776 31.54C108.776 31.58 108.776 31.62 108.776 31.66C108.776 31.7 108.77 31.7467 108.756 31.8C108.783 31.8 108.816 31.7933 108.856 31.78C109.096 31.7 109.363 31.3533 109.656 30.74C109.963 30.1133 110.23 29.3733 110.456 28.52L107.296 22.18C106.923 21.4333 106.676 20.8733 106.556 20.5C106.45 20.1133 106.376 19.7733 106.336 19.48L105.416 19.52V18H110.396V19.28C109.903 19.3333 109.63 19.52 109.576 19.84C109.536 20.16 109.596 20.4933 109.756 20.84L111.716 25.32C111.85 24.9733 112.023 24.44 112.236 23.72C112.45 22.9867 112.703 22.1933 112.996 21.34C113.076 21.0867 113.19 20.7667 113.336 20.38C113.496 19.98 113.663 19.6733 113.836 19.46L112.696 19.52V18H116.256V19.28C115.843 19.3733 115.496 19.6267 115.216 20.04C114.95 20.4533 114.71 20.96 114.496 21.56L111.996 28.7C111.623 29.78 111.27 30.6667 110.936 31.36C110.603 32.0667 110.23 32.5867 109.816 32.92C109.403 33.2533 108.89 33.42 108.276 33.42ZM116.752 28V26.7C117.299 26.7 117.632 26.54 117.752 26.22C117.872 25.8867 117.932 25.4533 117.932 24.92V21.56C117.932 21.32 117.939 21.0533 117.952 20.76C117.965 20.4533 117.985 20.1533 118.012 19.86C117.799 19.8733 117.545 19.8867 117.252 19.9C116.972 19.9 116.759 19.9067 116.612 19.92V18.4C117.532 18.4 118.239 18.3333 118.732 18.2C119.239 18.0667 119.559 17.9333 119.692 17.8H120.672C120.699 17.9333 120.712 18.1 120.712 18.3C120.725 18.5 120.739 18.6667 120.752 18.8C121.205 18.4533 121.692 18.18 122.212 17.98C122.745 17.78 123.245 17.68 123.712 17.68C124.325 17.68 124.832 17.7933 125.232 18.02C125.632 18.2333 125.952 18.56 126.192 19C126.672 18.6 127.199 18.28 127.772 18.04C128.359 17.8 128.919 17.68 129.452 17.68C130.532 17.68 131.345 17.9933 131.892 18.62C132.452 19.2333 132.732 20.3067 132.732 21.84V24.78C132.732 24.9667 132.725 25.2333 132.712 25.58C132.699 25.9133 132.679 26.2333 132.652 26.54C132.865 26.5133 133.099 26.5 133.352 26.5C133.619 26.4867 133.819 26.48 133.952 26.48V28H128.892V26.7C129.359 26.7 129.639 26.54 129.732 26.22C129.839 25.8867 129.892 25.4533 129.892 24.92V21.86C129.879 20.9933 129.732 20.3933 129.452 20.06C129.185 19.7267 128.825 19.5533 128.372 19.54C128.025 19.5267 127.699 19.5867 127.392 19.72C127.099 19.8533 126.832 20.0133 126.592 20.2C126.712 20.7333 126.772 21.3667 126.772 22.1V24.78C126.772 24.9667 126.765 25.2333 126.752 25.58C126.739 25.9133 126.719 26.2333 126.692 26.54C126.905 26.5133 127.139 26.5 127.392 26.5C127.645 26.4867 127.845 26.48 127.992 26.48V28H122.832V26.7C123.339 26.7 123.645 26.54 123.752 26.22C123.872 25.8867 123.932 25.4533 123.932 24.92L123.912 21.8C123.912 20.9333 123.785 20.34 123.532 20.02C123.279 19.7 122.925 19.5333 122.472 19.52C122.139 19.52 121.825 19.5933 121.532 19.74C121.252 19.8867 120.999 20.06 120.772 20.26V24.78C120.772 24.9667 120.765 25.2333 120.752 25.58C120.739 25.9133 120.719 26.2333 120.692 26.54C120.905 26.5133 121.125 26.5 121.352 26.5C121.579 26.4867 121.759 26.48 121.892 26.48V28H116.752ZM139.49 28.32C138.517 28.32 137.657 28.1067 136.91 27.68C136.164 27.24 135.584 26.6267 135.17 25.84C134.757 25.04 134.55 24.1 134.55 23.02C134.55 22.0867 134.757 21.2133 135.17 20.4C135.584 19.5867 136.164 18.9333 136.91 18.44C137.67 17.9333 138.55 17.68 139.55 17.68C140.11 17.68 140.657 17.76 141.19 17.92C141.724 18.0667 142.204 18.3267 142.63 18.7C143.07 19.0733 143.417 19.58 143.67 20.22C143.937 20.86 144.064 21.66 144.05 22.62L137.49 22.74C137.49 23.46 137.577 24.1067 137.75 24.68C137.937 25.2533 138.237 25.7067 138.65 26.04C139.064 26.3733 139.617 26.54 140.31 26.54C140.71 26.54 141.184 26.4333 141.73 26.22C142.29 25.9933 142.797 25.6 143.25 25.04L144.15 25.88C143.67 26.56 143.157 27.08 142.61 27.44C142.064 27.7867 141.517 28.02 140.97 28.14C140.437 28.26 139.944 28.32 139.49 28.32ZM137.61 21.34H141.29C141.277 20.5133 141.117 19.9333 140.81 19.6C140.504 19.2533 140.117 19.08 139.65 19.08C139.064 19.08 138.604 19.2933 138.27 19.72C137.937 20.1333 137.717 20.6733 137.61 21.34ZM149.712 28.32C149.139 28.32 148.579 28.2467 148.032 28.1C147.486 27.9533 147.059 27.7667 146.752 27.54L146.792 28.14H145.272L145.192 24.7H146.492C146.559 25.3133 146.879 25.8333 147.452 26.26C148.026 26.6733 148.739 26.88 149.592 26.88C149.926 26.88 150.239 26.8 150.532 26.64C150.826 26.48 150.972 26.2267 150.972 25.88C150.959 25.4933 150.752 25.2067 150.352 25.02C149.966 24.8333 149.399 24.5933 148.652 24.3C148.239 24.14 147.819 23.9733 147.392 23.8C146.979 23.6267 146.592 23.42 146.232 23.18C145.886 22.9267 145.606 22.62 145.392 22.26C145.179 21.8867 145.072 21.4333 145.072 20.9C145.072 20.38 145.199 19.8733 145.452 19.38C145.719 18.8867 146.132 18.48 146.692 18.16C147.252 17.84 147.966 17.68 148.832 17.68C149.192 17.68 149.599 17.74 150.052 17.86C150.519 17.9667 150.912 18.1333 151.232 18.36V17.78H152.752V21.32H151.452C151.332 20.6267 151.026 20.08 150.532 19.68C150.039 19.28 149.432 19.08 148.712 19.08C148.379 19.08 148.072 19.16 147.792 19.32C147.526 19.48 147.392 19.7533 147.392 20.14C147.392 20.4467 147.499 20.6933 147.712 20.88C147.926 21.0533 148.219 21.2 148.592 21.32C148.966 21.44 149.379 21.58 149.832 21.74C150.512 21.9667 151.112 22.2333 151.632 22.54C152.166 22.8467 152.586 23.22 152.892 23.66C153.199 24.0867 153.352 24.6133 153.352 25.24C153.352 25.9333 153.179 26.5067 152.832 26.96C152.486 27.4133 152.032 27.7533 151.472 27.98C150.926 28.2067 150.339 28.32 149.712 28.32Z" fill="#2A2921"/>
<path d="M9.44092 57.0122C9.44092 58.0571 9.26514 58.9702 8.91357 59.7515C8.56201 60.5278 8.06396 61.1211 7.41943 61.5312C6.7749 61.9414 6.02295 62.1465 5.16357 62.1465C4.32373 62.1465 3.5791 61.9414 2.92969 61.5312C2.28027 61.1162 1.7749 60.5278 1.41357 59.7661C1.05713 58.9995 0.874023 58.1133 0.864258 57.1074V56.3384C0.864258 55.313 1.04248 54.4072 1.39893 53.6211C1.75537 52.835 2.2583 52.2344 2.90771 51.8193C3.56201 51.3994 4.30908 51.1895 5.14893 51.1895C6.00342 51.1895 6.75537 51.397 7.40479 51.812C8.05908 52.2222 8.56201 52.8203 8.91357 53.6064C9.26514 54.3877 9.44092 55.2983 9.44092 56.3384V57.0122ZM8.04199 56.3237C8.04199 55.0591 7.78809 54.0898 7.28027 53.416C6.77246 52.7373 6.06201 52.3979 5.14893 52.3979C4.26025 52.3979 3.55957 52.7373 3.04688 53.416C2.53906 54.0898 2.27783 55.0273 2.26318 56.2285V57.0122C2.26318 58.2378 2.51953 59.2021 3.03223 59.9053C3.5498 60.6035 4.26025 60.9526 5.16357 60.9526C6.07178 60.9526 6.7749 60.623 7.27295 59.9639C7.771 59.2998 8.02734 58.3501 8.04199 57.1147V56.3237ZM12.3196 54.0752L12.3636 55.0713C12.969 54.3096 13.7601 53.9287 14.7366 53.9287C16.4114 53.9287 17.2562 54.8735 17.2708 56.7632V62H15.9158V56.7559C15.9109 56.1846 15.7791 55.7622 15.5203 55.4888C15.2664 55.2153 14.8685 55.0786 14.3265 55.0786C13.887 55.0786 13.5013 55.1958 13.1692 55.4302C12.8372 55.6646 12.5784 55.9722 12.3929 56.353V62H11.0379V54.0752H12.3196ZM22.3028 62.1465C21.2286 62.1465 20.3546 61.7949 19.6808 61.0918C19.0069 60.3838 18.67 59.439 18.67 58.2573V58.0083C18.67 57.2222 18.8189 56.5215 19.1168 55.9062C19.4195 55.2861 19.8395 54.8027 20.3766 54.4561C20.9186 54.1045 21.5045 53.9287 22.1344 53.9287C23.1646 53.9287 23.9654 54.2681 24.5367 54.9468C25.108 55.6255 25.3937 56.5972 25.3937 57.8618V58.4258H20.025C20.0445 59.207 20.2716 59.8394 20.7062 60.3228C21.1456 60.8013 21.7022 61.0405 22.3761 61.0405C22.8546 61.0405 23.2599 60.9429 23.5919 60.7476C23.9239 60.5522 24.2145 60.2935 24.4635 59.9712L25.2911 60.6157C24.6271 61.6362 23.631 62.1465 22.3028 62.1465ZM22.1344 55.042C21.5875 55.042 21.1285 55.2422 20.7574 55.6426C20.3863 56.0381 20.1568 56.5947 20.0689 57.3125H24.0387V57.21C23.9996 56.5215 23.8141 55.9893 23.482 55.6133C23.15 55.2324 22.7008 55.042 22.1344 55.042ZM30.7556 62V55.1226H29.5031V54.0752H30.7556V53.2622C30.7556 52.4126 30.9826 51.7559 31.4367 51.292C31.8908 50.8281 32.5329 50.5962 33.363 50.5962C33.6755 50.5962 33.9855 50.6377 34.2932 50.7207L34.2199 51.8193C33.9904 51.7754 33.7463 51.7534 33.4875 51.7534C33.048 51.7534 32.7087 51.8828 32.4694 52.1416C32.2302 52.3955 32.1105 52.7617 32.1105 53.2402V54.0752H33.8024V55.1226H32.1105V62H30.7556ZM34.645 57.9644C34.645 57.188 34.7964 56.4897 35.0991 55.8696C35.4067 55.2495 35.8315 54.771 36.3735 54.4341C36.9204 54.0972 37.543 53.9287 38.2412 53.9287C39.3203 53.9287 40.1919 54.3022 40.856 55.0493C41.5249 55.7964 41.8594 56.79 41.8594 58.0303V58.1255C41.8594 58.897 41.7104 59.5903 41.4126 60.2056C41.1196 60.8159 40.6973 61.292 40.1455 61.6338C39.5986 61.9756 38.9688 62.1465 38.2559 62.1465C37.1816 62.1465 36.3101 61.7729 35.6411 61.0259C34.9771 60.2788 34.645 59.29 34.645 58.0596V57.9644ZM36.0073 58.1255C36.0073 59.0044 36.21 59.71 36.6152 60.2422C37.0254 60.7744 37.5723 61.0405 38.2559 61.0405C38.9443 61.0405 39.4912 60.772 39.8965 60.2349C40.3018 59.6929 40.5044 58.936 40.5044 57.9644C40.5044 57.0952 40.2969 56.3921 39.8818 55.855C39.4717 55.313 38.9248 55.042 38.2412 55.042C37.5723 55.042 37.0327 55.3081 36.6226 55.8403C36.2124 56.3726 36.0073 57.1343 36.0073 58.1255ZM47.0892 55.291C46.8841 55.2568 46.6619 55.2397 46.4227 55.2397C45.534 55.2397 44.931 55.6182 44.6136 56.375V62H43.2586V54.0752H44.577L44.5989 54.9907C45.0433 54.2827 45.6731 53.9287 46.4886 53.9287C46.7522 53.9287 46.9524 53.9629 47.0892 54.0312V55.291ZM56.0766 59.8979C56.0766 59.5317 55.9374 59.2485 55.6591 59.0483C55.3856 58.8433 54.9047 58.6675 54.2162 58.521C53.5326 58.3745 52.9882 58.1987 52.5829 57.9937C52.1825 57.7886 51.8847 57.5444 51.6894 57.2612C51.4989 56.978 51.4037 56.6411 51.4037 56.2505C51.4037 55.6011 51.6771 55.0518 52.224 54.6025C52.7758 54.1533 53.4789 53.9287 54.3334 53.9287C55.2318 53.9287 55.9594 54.1606 56.516 54.6245C57.0775 55.0884 57.3583 55.6816 57.3583 56.4043H55.996C55.996 56.0332 55.8373 55.7134 55.5199 55.4448C55.2074 55.1763 54.8119 55.042 54.3334 55.042C53.8402 55.042 53.4545 55.1494 53.1762 55.3643C52.8979 55.5791 52.7587 55.8599 52.7587 56.2065C52.7587 56.5337 52.8881 56.7803 53.1469 56.9463C53.4057 57.1123 53.872 57.271 54.5458 57.4224C55.2245 57.5737 55.7738 57.7544 56.1937 57.9644C56.6137 58.1743 56.9237 58.4282 57.1239 58.7261C57.329 59.019 57.4315 59.3779 57.4315 59.8027C57.4315 60.5107 57.1483 61.0796 56.5819 61.5093C56.0155 61.9341 55.2807 62.1465 54.3773 62.1465C53.7426 62.1465 53.1811 62.0342 52.6928 61.8096C52.2045 61.585 51.8212 61.2725 51.5429 60.8721C51.2694 60.4668 51.1327 60.0298 51.1327 59.561H52.4877C52.5121 60.0151 52.6928 60.3765 53.0297 60.645C53.3715 60.9087 53.8207 61.0405 54.3773 61.0405C54.89 61.0405 55.3002 60.938 55.6078 60.7329C55.9203 60.5229 56.0766 60.2446 56.0766 59.8979ZM58.5378 57.9644C58.5378 57.188 58.6892 56.4897 58.9919 55.8696C59.2995 55.2495 59.7243 54.771 60.2663 54.4341C60.8132 54.0972 61.4357 53.9287 62.134 53.9287C63.2131 53.9287 64.0847 54.3022 64.7487 55.0493C65.4177 55.7964 65.7521 56.79 65.7521 58.0303V58.1255C65.7521 58.897 65.6032 59.5903 65.3054 60.2056C65.0124 60.8159 64.59 61.292 64.0383 61.6338C63.4914 61.9756 62.8615 62.1465 62.1486 62.1465C61.0744 62.1465 60.2028 61.7729 59.5339 61.0259C58.8698 60.2788 58.5378 59.29 58.5378 58.0596V57.9644ZM59.9001 58.1255C59.9001 59.0044 60.1027 59.71 60.508 60.2422C60.9182 60.7744 61.465 61.0405 62.1486 61.0405C62.8371 61.0405 63.384 60.772 63.7893 60.2349C64.1945 59.6929 64.3972 58.936 64.3972 57.9644C64.3972 57.0952 64.1896 56.3921 63.7746 55.855C63.3645 55.313 62.8176 55.042 62.134 55.042C61.465 55.042 60.9255 55.3081 60.5153 55.8403C60.1052 56.3726 59.9001 57.1343 59.9001 58.1255ZM70.9819 55.291C70.7769 55.2568 70.5547 55.2397 70.3154 55.2397C69.4268 55.2397 68.8237 55.6182 68.5063 56.375V62H67.1514V54.0752H68.4697L68.4917 54.9907C68.936 54.2827 69.5659 53.9287 70.3813 53.9287C70.645 53.9287 70.8452 53.9629 70.9819 54.0312V55.291ZM75.7649 55.291C75.5599 55.2568 75.3377 55.2397 75.0984 55.2397C74.2098 55.2397 73.6067 55.6182 73.2894 56.375V62H71.9344V54.0752H73.2527L73.2747 54.9907C73.719 54.2827 74.3489 53.9287 75.1644 53.9287C75.428 53.9287 75.6282 53.9629 75.7649 54.0312V55.291ZM76.212 57.9644C76.212 57.188 76.3634 56.4897 76.6661 55.8696C76.9737 55.2495 77.3985 54.771 77.9405 54.4341C78.4874 54.0972 79.11 53.9287 79.8082 53.9287C80.8873 53.9287 81.7589 54.3022 82.423 55.0493C83.0919 55.7964 83.4264 56.79 83.4264 58.0303V58.1255C83.4264 58.897 83.2774 59.5903 82.9796 60.2056C82.6866 60.8159 82.2643 61.292 81.7125 61.6338C81.1656 61.9756 80.5357 62.1465 79.8229 62.1465C78.7486 62.1465 77.8771 61.7729 77.2081 61.0259C76.544 60.2788 76.212 59.29 76.212 58.0596V57.9644ZM77.5743 58.1255C77.5743 59.0044 77.777 59.71 78.1822 60.2422C78.5924 60.7744 79.1393 61.0405 79.8229 61.0405C80.5113 61.0405 81.0582 60.772 81.4635 60.2349C81.8688 59.6929 82.0714 58.936 82.0714 57.9644C82.0714 57.0952 81.8639 56.3921 81.4488 55.855C81.0387 55.313 80.4918 55.042 79.8082 55.042C79.1393 55.042 78.5997 55.3081 78.1896 55.8403C77.7794 56.3726 77.5743 57.1343 77.5743 58.1255ZM91.8422 60.1323L93.3656 54.0752H94.7206L92.4135 62H91.3148L89.3886 55.9941L87.5136 62H86.4149L84.1151 54.0752H85.4628L87.0229 60.0078L88.8686 54.0752H89.9599L91.8422 60.1323ZM94.8527 64.124L94.0837 63.5967C94.5427 62.957 94.7819 62.2979 94.8015 61.6191V60.396H96.1272V61.458C96.1272 61.9512 96.0051 62.4443 95.7609 62.9375C95.5217 63.4307 95.2189 63.8262 94.8527 64.124ZM108.249 52.4932H104.822V62H103.423V52.4932H100.002V51.3359H108.249V52.4932ZM115.911 60.1323L117.434 54.0752H118.789L116.482 62H115.383L113.457 55.9941L111.582 62H110.483L108.184 54.0752H109.531L111.091 60.0078L112.937 54.0752H114.028L115.911 60.1323ZM119.515 57.9644C119.515 57.188 119.666 56.4897 119.969 55.8696C120.276 55.2495 120.701 54.771 121.243 54.4341C121.79 54.0972 122.412 53.9287 123.111 53.9287C124.19 53.9287 125.061 54.3022 125.725 55.0493C126.394 55.7964 126.729 56.79 126.729 58.0303V58.1255C126.729 58.897 126.58 59.5903 126.282 60.2056C125.989 60.8159 125.567 61.292 125.015 61.6338C124.468 61.9756 123.838 62.1465 123.125 62.1465C122.051 62.1465 121.18 61.7729 120.511 61.0259C119.847 60.2788 119.515 59.29 119.515 58.0596V57.9644ZM120.877 58.1255C120.877 59.0044 121.079 59.71 121.485 60.2422C121.895 60.7744 122.442 61.0405 123.125 61.0405C123.814 61.0405 124.361 60.772 124.766 60.2349C125.171 59.6929 125.374 58.936 125.374 57.9644C125.374 57.0952 125.166 56.3921 124.751 55.855C124.341 55.313 123.794 55.042 123.111 55.042C122.442 55.042 121.902 55.3081 121.492 55.8403C121.082 56.3726 120.877 57.1343 120.877 58.1255ZM132.215 62V55.1226H130.963V54.0752H132.215V53.2622C132.215 52.4126 132.442 51.7559 132.896 51.292C133.351 50.8281 133.993 50.5962 134.823 50.5962C135.135 50.5962 135.445 50.6377 135.753 50.7207L135.68 51.8193C135.45 51.7754 135.206 51.7534 134.947 51.7534C134.508 51.7534 134.168 51.8828 133.929 52.1416C133.69 52.3955 133.57 52.7617 133.57 53.2402V54.0752H135.262V55.1226H133.57V62H132.215ZM136.105 57.9644C136.105 57.188 136.256 56.4897 136.559 55.8696C136.867 55.2495 137.291 54.771 137.833 54.4341C138.38 54.0972 139.003 53.9287 139.701 53.9287C140.78 53.9287 141.652 54.3022 142.316 55.0493C142.985 55.7964 143.319 56.79 143.319 58.0303V58.1255C143.319 58.897 143.17 59.5903 142.872 60.2056C142.579 60.8159 142.157 61.292 141.605 61.6338C141.058 61.9756 140.429 62.1465 139.716 62.1465C138.641 62.1465 137.77 61.7729 137.101 61.0259C136.437 60.2788 136.105 59.29 136.105 58.0596V57.9644ZM137.467 58.1255C137.467 59.0044 137.67 59.71 138.075 60.2422C138.485 60.7744 139.032 61.0405 139.716 61.0405C140.404 61.0405 140.951 60.772 141.356 60.2349C141.762 59.6929 141.964 58.936 141.964 57.9644C141.964 57.0952 141.757 56.3921 141.342 55.855C140.931 55.313 140.385 55.042 139.701 55.042C139.032 55.042 138.492 55.3081 138.082 55.8403C137.672 56.3726 137.467 57.1343 137.467 58.1255ZM148.549 55.291C148.344 55.2568 148.122 55.2397 147.882 55.2397C146.994 55.2397 146.391 55.6182 146.073 56.375V62H144.718V54.0752H146.037L146.059 54.9907C146.503 54.2827 147.133 53.9287 147.948 53.9287C148.212 53.9287 148.412 53.9629 148.549 54.0312V55.291ZM2.2998 75.0752L2.33643 75.9541C2.91748 75.2705 3.70117 74.9287 4.6875 74.9287C5.7959 74.9287 6.55029 75.3535 6.95068 76.2031C7.21436 75.8223 7.55615 75.5146 7.97607 75.2803C8.40088 75.0459 8.90137 74.9287 9.47754 74.9287C11.2158 74.9287 12.0996 75.8491 12.1289 77.6899V83H10.7739V77.7705C10.7739 77.2041 10.6445 76.7817 10.3857 76.5034C10.127 76.2202 9.69238 76.0786 9.08203 76.0786C8.5791 76.0786 8.16162 76.23 7.82959 76.5327C7.49756 76.8306 7.30469 77.2334 7.25098 77.7412V83H5.88867V77.8071C5.88867 76.6548 5.32471 76.0786 4.19678 76.0786C3.30811 76.0786 2.7002 76.457 2.37305 77.2139V83H1.01807V75.0752H2.2998ZM15.3519 83H13.9969V75.0752H15.3519V83ZM13.887 72.9731C13.887 72.7534 13.9529 72.5679 14.0848 72.4165C14.2215 72.2651 14.4217 72.1895 14.6854 72.1895C14.949 72.1895 15.1492 72.2651 15.2859 72.4165C15.4227 72.5679 15.491 72.7534 15.491 72.9731C15.491 73.1929 15.4227 73.376 15.2859 73.5225C15.1492 73.6689 14.949 73.7422 14.6854 73.7422C14.4217 73.7422 14.2215 73.6689 14.0848 73.5225C13.9529 73.376 13.887 73.1929 13.887 72.9731ZM21.0577 76.291C20.8526 76.2568 20.6305 76.2397 20.3912 76.2397C19.5025 76.2397 18.8995 76.6182 18.5821 77.375V83H17.2271V75.0752H18.5455L18.5675 75.9907C19.0118 75.2827 19.6417 74.9287 20.4571 74.9287C20.7208 74.9287 20.921 74.9629 21.0577 75.0312V76.291ZM24.2147 73.1562V75.0752H25.6942V76.1226H24.2147V81.0371C24.2147 81.3545 24.2807 81.5938 24.4125 81.7549C24.5443 81.9111 24.7689 81.9893 25.0863 81.9893C25.2426 81.9893 25.4574 81.96 25.7309 81.9014V83C25.3744 83.0977 25.0277 83.1465 24.6908 83.1465C24.0854 83.1465 23.6288 82.9634 23.3212 82.5972C23.0136 82.231 22.8598 81.7109 22.8598 81.0371V76.1226H21.4169V75.0752H22.8598V73.1562H24.2147ZM28.3386 76.0347C28.9392 75.2974 29.7204 74.9287 30.6823 74.9287C32.3571 74.9287 33.2019 75.8735 33.2165 77.7632V83H31.8615V77.7559C31.8566 77.1846 31.7248 76.7622 31.466 76.4888C31.2121 76.2153 30.8142 76.0786 30.2722 76.0786C29.8327 76.0786 29.447 76.1958 29.1149 76.4302C28.7829 76.6646 28.5241 76.9722 28.3386 77.353V83H26.9836V71.75H28.3386V76.0347ZM34.9014 85.124L34.1323 84.5967C34.5913 83.957 34.8306 83.2979 34.8501 82.6191V81.396H36.1758V82.458C36.1758 82.9512 36.0537 83.4443 35.8096 83.9375C35.5703 84.4307 35.2676 84.8262 34.9014 85.124ZM48.298 73.4932H44.8702V83H43.4713V73.4932H40.0509V72.3359H48.298V73.4932ZM50.7226 76.0347C51.3231 75.2974 52.1044 74.9287 53.0663 74.9287C54.7411 74.9287 55.5858 75.8735 55.6005 77.7632V83H54.2455V77.7559C54.2406 77.1846 54.1088 76.7622 53.85 76.4888C53.5961 76.2153 53.1981 76.0786 52.6562 76.0786C52.2167 76.0786 51.831 76.1958 51.4989 76.4302C51.1669 76.6646 50.9081 76.9722 50.7226 77.353V83H49.3676V71.75H50.7226V76.0347ZM61.1599 76.291C60.9548 76.2568 60.7326 76.2397 60.4934 76.2397C59.6047 76.2397 59.0017 76.6182 58.6843 77.375V83H57.3293V75.0752H58.6477L58.6696 75.9907C59.114 75.2827 59.7438 74.9287 60.5593 74.9287C60.8229 74.9287 61.0231 74.9629 61.1599 75.0312V76.291ZM65.2544 83.1465C64.1802 83.1465 63.3062 82.7949 62.6323 82.0918C61.9585 81.3838 61.6216 80.439 61.6216 79.2573V79.0083C61.6216 78.2222 61.7705 77.5215 62.0684 76.9062C62.3711 76.2861 62.791 75.8027 63.3281 75.4561C63.8701 75.1045 64.4561 74.9287 65.0859 74.9287C66.1162 74.9287 66.917 75.2681 67.4883 75.9468C68.0596 76.6255 68.3452 77.5972 68.3452 78.8618V79.4258H62.9766C62.9961 80.207 63.2231 80.8394 63.6577 81.3228C64.0972 81.8013 64.6538 82.0405 65.3276 82.0405C65.8062 82.0405 66.2114 81.9429 66.5435 81.7476C66.8755 81.5522 67.166 81.2935 67.415 80.9712L68.2427 81.6157C67.5786 82.6362 66.5825 83.1465 65.2544 83.1465ZM65.0859 76.042C64.5391 76.042 64.0801 76.2422 63.709 76.6426C63.3379 77.0381 63.1084 77.5947 63.0205 78.3125H66.9902V78.21C66.9512 77.5215 66.7656 76.9893 66.4336 76.6133C66.1016 76.2324 65.6523 76.042 65.0859 76.042ZM72.9085 83.1465C71.8343 83.1465 70.9603 82.7949 70.2864 82.0918C69.6126 81.3838 69.2757 80.439 69.2757 79.2573V79.0083C69.2757 78.2222 69.4246 77.5215 69.7225 76.9062C70.0252 76.2861 70.4451 75.8027 70.9822 75.4561C71.5242 75.1045 72.1102 74.9287 72.74 74.9287C73.7703 74.9287 74.5711 75.2681 75.1424 75.9468C75.7137 76.6255 75.9993 77.5972 75.9993 78.8618V79.4258H70.6307C70.6502 80.207 70.8772 80.8394 71.3118 81.3228C71.7513 81.8013 72.3079 82.0405 72.9817 82.0405C73.4603 82.0405 73.8655 81.9429 74.1976 81.7476C74.5296 81.5522 74.8201 81.2935 75.0691 80.9712L75.8968 81.6157C75.2327 82.6362 74.2366 83.1465 72.9085 83.1465ZM72.74 76.042C72.1932 76.042 71.7342 76.2422 71.3631 76.6426C70.992 77.0381 70.7625 77.5947 70.6746 78.3125H74.6443V78.21C74.6053 77.5215 74.4197 76.9893 74.0877 76.6133C73.7557 76.2324 73.3064 76.042 72.74 76.042ZM81.3612 83V76.1226H80.1088V75.0752H81.3612V74.2622C81.3612 73.4126 81.5883 72.7559 82.0424 72.292C82.4965 71.8281 83.1386 71.5962 83.9687 71.5962C84.2812 71.5962 84.5912 71.6377 84.8988 71.7207L84.8256 72.8193C84.5961 72.7754 84.352 72.7534 84.0932 72.7534C83.6537 72.7534 83.3144 72.8828 83.0751 73.1416C82.8358 73.3955 82.7162 73.7617 82.7162 74.2402V75.0752H84.4081V76.1226H82.7162V83H81.3612ZM85.2507 78.9644C85.2507 78.188 85.4021 77.4897 85.7048 76.8696C86.0124 76.2495 86.4372 75.771 86.9792 75.4341C87.5261 75.0972 88.1486 74.9287 88.8469 74.9287C89.926 74.9287 90.7976 75.3022 91.4616 76.0493C92.1306 76.7964 92.465 77.79 92.465 79.0303V79.1255C92.465 79.897 92.3161 80.5903 92.0183 81.2056C91.7253 81.8159 91.3029 82.292 90.7512 82.6338C90.2043 82.9756 89.5744 83.1465 88.8615 83.1465C87.7873 83.1465 86.9157 82.7729 86.2468 82.0259C85.5827 81.2788 85.2507 80.29 85.2507 79.0596V78.9644ZM86.613 79.1255C86.613 80.0044 86.8156 80.71 87.2209 81.2422C87.6311 81.7744 88.1779 82.0405 88.8615 82.0405C89.55 82.0405 90.0969 81.772 90.5022 81.2349C90.9074 80.6929 91.1101 79.936 91.1101 78.9644C91.1101 78.0952 90.9025 77.3921 90.4875 76.855C90.0773 76.313 89.5305 76.042 88.8469 76.042C88.1779 76.042 87.6384 76.3081 87.2282 76.8403C86.8181 77.3726 86.613 78.1343 86.613 79.1255ZM97.6948 76.291C97.4897 76.2568 97.2676 76.2397 97.0283 76.2397C96.1396 76.2397 95.5366 76.6182 95.2192 77.375V83H93.8643V75.0752H95.1826L95.2046 75.9907C95.6489 75.2827 96.2788 74.9287 97.0942 74.9287C97.3579 74.9287 97.5581 74.9629 97.6948 75.0312V76.291ZM106.961 83C106.882 82.8438 106.819 82.5654 106.77 82.165C106.14 82.8193 105.388 83.1465 104.514 83.1465C103.733 83.1465 103.091 82.9268 102.588 82.4873C102.09 82.043 101.841 81.4814 101.841 80.8027C101.841 79.9775 102.153 79.3379 102.778 78.8838C103.408 78.4248 104.292 78.1953 105.43 78.1953H106.748V77.5728C106.748 77.0991 106.607 76.7231 106.323 76.4448C106.04 76.1616 105.623 76.02 105.071 76.02C104.588 76.02 104.182 76.1421 103.855 76.3862C103.528 76.6304 103.364 76.9258 103.364 77.2725H102.002C102.002 76.877 102.141 76.4961 102.42 76.1299C102.703 75.7588 103.084 75.4658 103.562 75.251C104.046 75.0361 104.575 74.9287 105.151 74.9287C106.065 74.9287 106.78 75.1582 107.297 75.6172C107.815 76.0713 108.084 76.6987 108.103 77.4995V81.147C108.103 81.8745 108.196 82.4531 108.381 82.8828V83H106.961ZM104.712 81.9673C105.137 81.9673 105.54 81.8574 105.921 81.6377C106.301 81.418 106.577 81.1323 106.748 80.7808V79.1548H105.686C104.026 79.1548 103.196 79.6406 103.196 80.6123C103.196 81.0371 103.338 81.3691 103.621 81.6084C103.904 81.8477 104.268 81.9673 104.712 81.9673ZM8.04199 102.132L9.56543 96.0752H10.9204L8.61328 104H7.51465L5.58838 97.9941L3.71338 104H2.61475L0.314941 96.0752H1.6626L3.22266 102.008L5.06836 96.0752H6.15967L8.04199 102.132ZM15.2933 104.146C14.219 104.146 13.345 103.795 12.6712 103.092C11.9974 102.384 11.6604 101.439 11.6604 100.257V100.008C11.6604 99.2222 11.8094 98.5215 12.1072 97.9062C12.41 97.2861 12.8299 96.8027 13.367 96.4561C13.909 96.1045 14.4949 95.9287 15.1248 95.9287C16.1551 95.9287 16.9559 96.2681 17.5271 96.9468C18.0984 97.6255 18.3841 98.5972 18.3841 99.8618V100.426H13.0154C13.035 101.207 13.262 101.839 13.6966 102.323C14.136 102.801 14.6927 103.041 15.3665 103.041C15.845 103.041 16.2503 102.943 16.5823 102.748C16.9144 102.552 17.2049 102.293 17.4539 101.971L18.2815 102.616C17.6175 103.636 16.6214 104.146 15.2933 104.146ZM15.1248 97.042C14.5779 97.042 14.1189 97.2422 13.7479 97.6426C13.3768 98.0381 13.1473 98.5947 13.0594 99.3125H17.0291V99.21C16.99 98.5215 16.8045 97.9893 16.4725 97.6133C16.1404 97.2324 15.6912 97.042 15.1248 97.042ZM19.3292 99.9717C19.3292 98.7559 19.6173 97.7793 20.1935 97.042C20.7696 96.2998 21.524 95.9287 22.4566 95.9287C23.3844 95.9287 24.1192 96.2461 24.6612 96.8809V92.75H26.0162V104H24.7711L24.7052 103.15C24.1632 103.814 23.4088 104.146 22.442 104.146C21.524 104.146 20.7745 103.771 20.1935 103.019C19.6173 102.267 19.3292 101.285 19.3292 100.074V99.9717ZM20.6842 100.125C20.6842 101.024 20.8697 101.727 21.2408 102.235C21.6119 102.743 22.1246 102.997 22.7789 102.997C23.6383 102.997 24.2657 102.611 24.6612 101.839V98.1992C24.256 97.4521 23.6334 97.0786 22.7936 97.0786C22.1295 97.0786 21.6119 97.335 21.2408 97.8477C20.8697 98.3604 20.6842 99.1196 20.6842 100.125ZM27.496 99.9717C27.496 98.7559 27.7841 97.7793 28.3603 97.042C28.9364 96.2998 29.6908 95.9287 30.6234 95.9287C31.5512 95.9287 32.286 96.2461 32.828 96.8809V92.75H34.183V104H32.9379L32.872 103.15C32.33 103.814 31.5756 104.146 30.6088 104.146C29.6908 104.146 28.9413 103.771 28.3603 103.019C27.7841 102.267 27.496 101.285 27.496 100.074V99.9717ZM28.851 100.125C28.851 101.024 29.0365 101.727 29.4076 102.235C29.7787 102.743 30.2914 102.997 30.9457 102.997C31.8051 102.997 32.4325 102.611 32.828 101.839V98.1992C32.4228 97.4521 31.8002 97.0786 30.9604 97.0786C30.2963 97.0786 29.7787 97.335 29.4076 97.8477C29.0365 98.3604 28.851 99.1196 28.851 100.125ZM37.4646 104H36.1096V96.0752H37.4646V104ZM35.9997 93.9731C35.9997 93.7534 36.0656 93.5679 36.1975 93.4165C36.3342 93.2651 36.5344 93.1895 36.798 93.1895C37.0617 93.1895 37.2619 93.2651 37.3986 93.4165C37.5354 93.5679 37.6037 93.7534 37.6037 93.9731C37.6037 94.1929 37.5354 94.376 37.3986 94.5225C37.2619 94.6689 37.0617 94.7422 36.798 94.7422C36.5344 94.7422 36.3342 94.6689 36.1975 94.5225C36.0656 94.376 35.9997 94.1929 35.9997 93.9731ZM40.6216 96.0752L40.6655 97.0713C41.271 96.3096 42.062 95.9287 43.0386 95.9287C44.7134 95.9287 45.5581 96.8735 45.5728 98.7632V104H44.2178V98.7559C44.2129 98.1846 44.0811 97.7622 43.8223 97.4888C43.5684 97.2153 43.1704 97.0786 42.6284 97.0786C42.189 97.0786 41.8032 97.1958 41.4712 97.4302C41.1392 97.6646 40.8804 97.9722 40.6948 98.353V104H39.3398V96.0752H40.6216ZM46.9939 99.9717C46.9939 98.7363 47.2796 97.7549 47.8509 97.0273C48.4222 96.2949 49.179 95.9287 50.1214 95.9287C51.0882 95.9287 51.8426 96.2705 52.3846 96.9541L52.4505 96.0752H53.6883V103.81C53.6883 104.835 53.3831 105.643 52.7728 106.234C52.1673 106.825 51.3519 107.12 50.3265 107.12C49.7552 107.12 49.1961 106.998 48.6492 106.754C48.1023 106.51 47.6849 106.175 47.3968 105.75L48.0999 104.938C48.681 105.655 49.3914 106.014 50.2313 106.014C50.8904 106.014 51.4031 105.829 51.7693 105.458C52.1404 105.086 52.326 104.564 52.326 103.89V103.209C51.784 103.834 51.0442 104.146 50.1067 104.146C49.179 104.146 48.4271 103.773 47.8509 103.026C47.2796 102.279 46.9939 101.261 46.9939 99.9717ZM48.3563 100.125C48.3563 101.019 48.5394 101.722 48.9056 102.235C49.2718 102.743 49.7845 102.997 50.4437 102.997C51.2981 102.997 51.9256 102.608 52.326 101.832V98.2139C51.9109 97.457 51.2884 97.0786 50.4583 97.0786C49.7991 97.0786 49.284 97.335 48.9129 97.8477C48.5418 98.3604 48.3563 99.1196 48.3563 100.125ZM55.3951 106.124L54.6261 105.597C55.0851 104.957 55.3243 104.298 55.3438 103.619V102.396H56.6695V103.458C56.6695 103.951 56.5475 104.444 56.3033 104.938C56.0641 105.431 55.7613 105.826 55.3951 106.124ZM67.6052 101.217H63.1374L62.134 104H60.6838L64.7561 93.3359H65.9865L70.0661 104H68.6232L67.6052 101.217ZM63.5622 100.06H67.1877L65.3713 95.0718L63.5622 100.06ZM72.271 96.0752L72.3149 97.0713C72.9204 96.3096 73.7114 95.9287 74.688 95.9287C76.3628 95.9287 77.2075 96.8735 77.2222 98.7632V104H75.8672V98.7559C75.8623 98.1846 75.7305 97.7622 75.4717 97.4888C75.2178 97.2153 74.8198 97.0786 74.2778 97.0786C73.8384 97.0786 73.4526 97.1958 73.1206 97.4302C72.7886 97.6646 72.5298 97.9722 72.3442 98.353V104H70.9893V96.0752H72.271ZM78.636 99.9717C78.636 98.7559 78.9241 97.7793 79.5003 97.042C80.0765 96.2998 80.8309 95.9287 81.7635 95.9287C82.6912 95.9287 83.4261 96.2461 83.9681 96.8809V92.75H85.323V104H84.0779L84.012 103.15C83.47 103.814 82.7156 104.146 81.7488 104.146C80.8309 104.146 80.0813 103.771 79.5003 103.019C78.9241 102.267 78.636 101.285 78.636 100.074V99.9717ZM79.991 100.125C79.991 101.024 80.1766 101.727 80.5477 102.235C80.9187 102.743 81.4314 102.997 82.0857 102.997C82.9451 102.997 83.5726 102.611 83.9681 101.839V98.1992C83.5628 97.4521 82.9402 97.0786 82.1004 97.0786C81.4363 97.0786 80.9187 97.335 80.5477 97.8477C80.1766 98.3604 79.991 99.1196 79.991 100.125ZM91.2196 104V97.1226H89.9672V96.0752H91.2196V95.2622C91.2196 94.4126 91.4467 93.7559 91.9008 93.292C92.3549 92.8281 92.997 92.5962 93.827 92.5962C94.1395 92.5962 94.4496 92.6377 94.7572 92.7207L94.684 93.8193C94.4545 93.7754 94.2104 93.7534 93.9516 93.7534C93.5121 93.7534 93.1728 93.8828 92.9335 94.1416C92.6942 94.3955 92.5746 94.7617 92.5746 95.2402V96.0752H94.2665V97.1226H92.5746V104H91.2196ZM95.1091 99.9644C95.1091 99.188 95.2605 98.4897 95.5632 97.8696C95.8708 97.2495 96.2956 96.771 96.8376 96.4341C97.3845 96.0972 98.007 95.9287 98.7053 95.9287C99.7844 95.9287 100.656 96.3022 101.32 97.0493C101.989 97.7964 102.323 98.79 102.323 100.03V100.125C102.323 100.897 102.175 101.59 101.877 102.206C101.584 102.816 101.161 103.292 100.61 103.634C100.063 103.976 99.4328 104.146 98.7199 104.146C97.6457 104.146 96.7741 103.773 96.1052 103.026C95.4411 102.279 95.1091 101.29 95.1091 100.06V99.9644ZM96.4714 100.125C96.4714 101.004 96.674 101.71 97.0793 102.242C97.4895 102.774 98.0363 103.041 98.7199 103.041C99.4084 103.041 99.9553 102.772 100.361 102.235C100.766 101.693 100.968 100.936 100.968 99.9644C100.968 99.0952 100.761 98.3921 100.346 97.855C99.9357 97.313 99.3889 97.042 98.7053 97.042C98.0363 97.042 97.4968 97.3081 97.0866 97.8403C96.6765 98.3726 96.4714 99.1343 96.4714 100.125ZM108.615 103.216C108.088 103.836 107.314 104.146 106.293 104.146C105.449 104.146 104.804 103.902 104.36 103.414C103.92 102.921 103.698 102.193 103.693 101.231V96.0752H105.048V101.195C105.048 102.396 105.537 102.997 106.513 102.997C107.548 102.997 108.237 102.611 108.579 101.839V96.0752H109.934V104H108.645L108.615 103.216ZM115.53 97.291C115.325 97.2568 115.102 97.2397 114.863 97.2397C113.974 97.2397 113.371 97.6182 113.054 98.375V104H111.699V96.0752H113.017L113.039 96.9907C113.484 96.2827 114.114 95.9287 114.929 95.9287C115.193 95.9287 115.393 95.9629 115.53 96.0312V97.291ZM120.569 104V97.1226H119.317V96.0752H120.569V95.2622C120.569 94.4126 120.796 93.7559 121.25 93.292C121.704 92.8281 122.347 92.5962 123.177 92.5962C123.489 92.5962 123.799 92.6377 124.107 92.7207L124.034 93.8193C123.804 93.7754 123.56 93.7534 123.301 93.7534C122.862 93.7534 122.522 93.8828 122.283 94.1416C122.044 94.3955 121.924 94.7617 121.924 95.2402V96.0752H123.616V97.1226H121.924V104H120.569ZM124.459 99.9644C124.459 99.188 124.61 98.4897 124.913 97.8696C125.22 97.2495 125.645 96.771 126.187 96.4341C126.734 96.0972 127.357 95.9287 128.055 95.9287C129.134 95.9287 130.006 96.3022 130.67 97.0493C131.339 97.7964 131.673 98.79 131.673 100.03V100.125C131.673 100.897 131.524 101.59 131.226 102.206C130.933 102.816 130.511 103.292 129.959 103.634C129.412 103.976 128.782 104.146 128.07 104.146C126.995 104.146 126.124 103.773 125.455 103.026C124.791 102.279 124.459 101.29 124.459 100.06V99.9644ZM125.821 100.125C125.821 101.004 126.024 101.71 126.429 102.242C126.839 102.774 127.386 103.041 128.07 103.041C128.758 103.041 129.305 102.772 129.71 102.235C130.115 101.693 130.318 100.936 130.318 99.9644C130.318 99.0952 130.111 98.3921 129.696 97.855C129.285 97.313 128.738 97.042 128.055 97.042C127.386 97.042 126.846 97.3081 126.436 97.8403C126.026 98.3726 125.821 99.1343 125.821 100.125ZM136.903 97.291C136.698 97.2568 136.476 97.2397 136.236 97.2397C135.348 97.2397 134.745 97.6182 134.427 98.375V104H133.072V96.0752H134.391L134.413 96.9907C134.857 96.2827 135.487 95.9287 136.302 95.9287C136.566 95.9287 136.766 95.9629 136.903 96.0312V97.291ZM0.695801 120.972C0.695801 119.756 0.983887 118.779 1.56006 118.042C2.13623 117.3 2.89062 116.929 3.82324 116.929C4.75098 116.929 5.48584 117.246 6.02783 117.881V113.75H7.38281V125H6.1377L6.07178 124.15C5.52979 124.814 4.77539 125.146 3.80859 125.146C2.89062 125.146 2.14111 124.771 1.56006 124.019C0.983887 123.267 0.695801 122.285 0.695801 121.074V120.972ZM2.05078 121.125C2.05078 122.024 2.23633 122.727 2.60742 123.235C2.97852 123.743 3.49121 123.997 4.14551 123.997C5.00488 123.997 5.63232 123.611 6.02783 122.839V119.199C5.62256 118.452 5 118.079 4.16016 118.079C3.49609 118.079 2.97852 118.335 2.60742 118.848C2.23633 119.36 2.05078 120.12 2.05078 121.125ZM12.4808 125.146C11.4065 125.146 10.5325 124.795 9.85869 124.092C9.18486 123.384 8.84795 122.439 8.84795 121.257V121.008C8.84795 120.222 8.99687 119.521 9.29473 118.906C9.59746 118.286 10.0174 117.803 10.5545 117.456C11.0965 117.104 11.6824 116.929 12.3123 116.929C13.3426 116.929 14.1434 117.268 14.7146 117.947C15.2859 118.625 15.5716 119.597 15.5716 120.862V121.426H10.2029C10.2225 122.207 10.4495 122.839 10.8841 123.323C11.3235 123.801 11.8802 124.041 12.554 124.041C13.0325 124.041 13.4378 123.943 13.7698 123.748C14.1019 123.552 14.3924 123.293 14.6414 122.971L15.469 123.616C14.805 124.636 13.8089 125.146 12.4808 125.146ZM12.3123 118.042C11.7654 118.042 11.3064 118.242 10.9354 118.643C10.5643 119.038 10.3348 119.595 10.2469 120.312H14.2166V120.21C14.1775 119.521 13.992 118.989 13.66 118.613C13.3279 118.232 12.8787 118.042 12.3123 118.042ZM21.7389 125C21.6607 124.844 21.5973 124.565 21.5484 124.165C20.9186 124.819 20.1666 125.146 19.2926 125.146C18.5113 125.146 17.8692 124.927 17.3663 124.487C16.8683 124.043 16.6192 123.481 16.6192 122.803C16.6192 121.978 16.9317 121.338 17.5567 120.884C18.1866 120.425 19.0704 120.195 20.2081 120.195H21.5265V119.573C21.5265 119.099 21.3849 118.723 21.1017 118.445C20.8185 118.162 20.401 118.02 19.8492 118.02C19.3658 118.02 18.9605 118.142 18.6334 118.386C18.3062 118.63 18.1427 118.926 18.1427 119.272H16.7804C16.7804 118.877 16.9195 118.496 17.1979 118.13C17.4811 117.759 17.8619 117.466 18.3404 117.251C18.8238 117.036 19.3536 116.929 19.9298 116.929C20.8429 116.929 21.5582 117.158 22.0758 117.617C22.5934 118.071 22.8619 118.699 22.8814 119.5V123.147C22.8814 123.875 22.9742 124.453 23.1598 124.883V125H21.7389ZM19.4903 123.967C19.9151 123.967 20.318 123.857 20.6988 123.638C21.0797 123.418 21.3556 123.132 21.5265 122.781V121.155H20.4645C18.8043 121.155 17.9742 121.641 17.9742 122.612C17.9742 123.037 18.1158 123.369 18.399 123.608C18.6822 123.848 19.046 123.967 19.4903 123.967ZM26.5438 115.156V117.075H28.0233V118.123H26.5438V123.037C26.5438 123.354 26.6098 123.594 26.7416 123.755C26.8734 123.911 27.098 123.989 27.4154 123.989C27.5717 123.989 27.7865 123.96 28.06 123.901V125C27.7035 125.098 27.3568 125.146 27.0199 125.146C26.4145 125.146 25.9579 124.963 25.6503 124.597C25.3427 124.231 25.1889 123.711 25.1889 123.037V118.123H23.746V117.075H25.1889V115.156H26.5438ZM30.6677 118.035C31.2683 117.297 32.0495 116.929 33.0114 116.929C34.6862 116.929 35.531 117.874 35.5456 119.763V125H34.1906V119.756C34.1857 119.185 34.0539 118.762 33.7951 118.489C33.5412 118.215 33.1433 118.079 32.6013 118.079C32.1618 118.079 31.7761 118.196 31.444 118.43C31.112 118.665 30.8532 118.972 30.6677 119.353V125H29.3127V113.75H30.6677V118.035Z" fill="#2A2921"/>
</svg>
