<svg width="169" height="136" viewBox="0 0 169 136" fill="none" xmlns="http://www.w3.org/2000/svg">
<path d="M14.32 24V38H12.18L4.46 28.52V38H1.88V24H4.02L11.74 33.48V24H14.32ZM27.7714 27.32V38H25.3914V36.64C24.9914 37.12 24.4914 37.4933 23.8914 37.76C23.2914 38.0133 22.6447 38.14 21.9514 38.14C20.5247 38.14 19.3981 37.7467 18.5714 36.96C17.7581 36.16 17.3514 34.98 17.3514 33.42V27.32H19.8514V33.08C19.8514 34.04 20.0647 34.76 20.4914 35.24C20.9314 35.7067 21.5514 35.94 22.3514 35.94C23.2447 35.94 23.9514 35.6667 24.4714 35.12C25.0047 34.56 25.2714 33.76 25.2714 32.72V27.32H27.7714ZM33.0247 28.88C33.7447 27.76 35.0114 27.2 36.8247 27.2V29.58C36.6114 29.54 36.418 29.52 36.2447 29.52C35.2714 29.52 34.5114 29.8067 33.9647 30.38C33.418 30.94 33.1447 31.7533 33.1447 32.82V38H30.6447V27.32H33.0247V28.88ZM41.8845 38.14C41.0179 38.14 40.1712 38.0267 39.3445 37.8C38.5179 37.5733 37.8579 37.2867 37.3645 36.94L38.3245 35.04C38.8045 35.36 39.3779 35.62 40.0445 35.82C40.7245 36.0067 41.3912 36.1 42.0445 36.1C43.5379 36.1 44.2845 35.7067 44.2845 34.92C44.2845 34.5467 44.0912 34.2867 43.7045 34.14C43.3312 33.9933 42.7245 33.8533 41.8845 33.72C41.0045 33.5867 40.2845 33.4333 39.7245 33.26C39.1779 33.0867 38.6979 32.7867 38.2845 32.36C37.8845 31.92 37.6845 31.3133 37.6845 30.54C37.6845 29.5267 38.1045 28.72 38.9445 28.12C39.7979 27.5067 40.9445 27.2 42.3845 27.2C43.1179 27.2 43.8512 27.2867 44.5845 27.46C45.3179 27.62 45.9179 27.84 46.3845 28.12L45.4245 30.02C44.5179 29.4867 43.4979 29.22 42.3645 29.22C41.6312 29.22 41.0712 29.3333 40.6845 29.56C40.3112 29.7733 40.1245 30.06 40.1245 30.42C40.1245 30.82 40.3245 31.1067 40.7245 31.28C41.1379 31.44 41.7712 31.5933 42.6245 31.74C43.4779 31.8733 44.1779 32.0267 44.7245 32.2C45.2712 32.3733 45.7379 32.6667 46.1245 33.08C46.5245 33.4933 46.7245 34.08 46.7245 34.84C46.7245 35.84 46.2912 36.64 45.4245 37.24C44.5579 37.84 43.3779 38.14 41.8845 38.14ZM58.5175 32.72C58.5175 32.8933 58.5042 33.14 58.4775 33.46H50.0975C50.2442 34.2467 50.6242 34.8733 51.2375 35.34C51.8642 35.7933 52.6375 36.02 53.5575 36.02C54.7308 36.02 55.6975 35.6333 56.4575 34.86L57.7975 36.4C57.3175 36.9733 56.7108 37.4067 55.9775 37.7C55.2442 37.9933 54.4175 38.14 53.4975 38.14C52.3242 38.14 51.2908 37.9067 50.3975 37.44C49.5042 36.9733 48.8108 36.3267 48.3175 35.5C47.8375 34.66 47.5975 33.7133 47.5975 32.66C47.5975 31.62 47.8308 30.6867 48.2975 29.86C48.7775 29.02 49.4375 28.3667 50.2775 27.9C51.1175 27.4333 52.0642 27.2 53.1175 27.2C54.1575 27.2 55.0842 27.4333 55.8975 27.9C56.7242 28.3533 57.3642 29 57.8175 29.84C58.2842 30.6667 58.5175 31.6267 58.5175 32.72ZM53.1175 29.2C52.3175 29.2 51.6375 29.44 51.0775 29.92C50.5308 30.3867 50.1975 31.0133 50.0775 31.8H56.1375C56.0308 31.0267 55.7042 30.4 55.1575 29.92C54.6108 29.44 53.9308 29.2 53.1175 29.2ZM62.8989 28.88C63.6189 27.76 64.8856 27.2 66.6989 27.2V29.58C66.4856 29.54 66.2922 29.52 66.1189 29.52C65.1456 29.52 64.3856 29.8067 63.8389 30.38C63.2922 30.94 63.0189 31.7533 63.0189 32.82V38H60.5189V27.32H62.8989V28.88ZM78.8103 27.32L73.8103 38.86C73.3436 40.02 72.777 40.8333 72.1103 41.3C71.4436 41.78 70.637 42.02 69.6903 42.02C69.157 42.02 68.6303 41.9333 68.1103 41.76C67.5903 41.5867 67.1636 41.3467 66.8303 41.04L67.8303 39.2C68.0703 39.4267 68.3503 39.6067 68.6703 39.74C69.0036 39.8733 69.337 39.94 69.6703 39.94C70.1103 39.94 70.4703 39.8267 70.7503 39.6C71.0436 39.3733 71.3103 38.9933 71.5503 38.46L71.7303 38.04L67.0703 27.32H69.6703L73.0303 35.22L76.4103 27.32H78.8103ZM94.5002 38L91.6402 33.9C91.5202 33.9133 91.3402 33.92 91.1002 33.92H87.9402V38H85.3402V24H91.1002C92.3135 24 93.3668 24.2 94.2602 24.6C95.1668 25 95.8602 25.5733 96.3402 26.32C96.8202 27.0667 97.0602 27.9533 97.0602 28.98C97.0602 30.0333 96.8002 30.94 96.2802 31.7C95.7735 32.46 95.0402 33.0267 94.0802 33.4L97.3002 38H94.5002ZM94.4402 28.98C94.4402 28.0867 94.1468 27.4 93.5602 26.92C92.9735 26.44 92.1135 26.2 90.9802 26.2H87.9402V31.78H90.9802C92.1135 31.78 92.9735 31.54 93.5602 31.06C94.1468 30.5667 94.4402 29.8733 94.4402 28.98ZM105.389 27.2C106.736 27.2 107.816 27.5933 108.629 28.38C109.442 29.1667 109.849 30.3333 109.849 31.88V38H107.349V32.2C107.349 31.2667 107.129 30.5667 106.689 30.1C106.249 29.62 105.622 29.38 104.809 29.38C103.889 29.38 103.162 29.66 102.629 30.22C102.096 30.7667 101.829 31.56 101.829 32.6V38H99.3291V23.16H101.829V28.56C102.242 28.12 102.749 27.7867 103.349 27.56C103.962 27.32 104.642 27.2 105.389 27.2ZM122.425 27.32L117.425 38.86C116.958 40.02 116.392 40.8333 115.725 41.3C115.058 41.78 114.252 42.02 113.305 42.02C112.772 42.02 112.245 41.9333 111.725 41.76C111.205 41.5867 110.778 41.3467 110.445 41.04L111.445 39.2C111.685 39.4267 111.965 39.6067 112.285 39.74C112.618 39.8733 112.952 39.94 113.285 39.94C113.725 39.94 114.085 39.8267 114.365 39.6C114.658 39.3733 114.925 38.9933 115.165 38.46L115.345 38.04L110.685 27.32H113.285L116.645 35.22L120.025 27.32H122.425ZM137.068 27.2C138.414 27.2 139.481 27.5933 140.268 28.38C141.054 29.1533 141.448 30.32 141.448 31.88V38H138.948V32.2C138.948 31.2667 138.741 30.5667 138.328 30.1C137.914 29.62 137.321 29.38 136.548 29.38C135.708 29.38 135.034 29.66 134.528 30.22C134.021 30.7667 133.768 31.5533 133.768 32.58V38H131.268V32.2C131.268 31.2667 131.061 30.5667 130.648 30.1C130.234 29.62 129.641 29.38 128.868 29.38C128.014 29.38 127.334 29.6533 126.828 30.2C126.334 30.7467 126.088 31.54 126.088 32.58V38H123.588V27.32H125.968V28.68C126.368 28.2 126.868 27.8333 127.468 27.58C128.068 27.3267 128.734 27.2 129.468 27.2C130.268 27.2 130.974 27.3533 131.588 27.66C132.214 27.9533 132.708 28.3933 133.068 28.98C133.508 28.42 134.074 27.9867 134.768 27.68C135.461 27.36 136.228 27.2 137.068 27.2ZM154.38 32.72C154.38 32.8933 154.367 33.14 154.34 33.46H145.96C146.107 34.2467 146.487 34.8733 147.1 35.34C147.727 35.7933 148.5 36.02 149.42 36.02C150.593 36.02 151.56 35.6333 152.32 34.86L153.66 36.4C153.18 36.9733 152.573 37.4067 151.84 37.7C151.107 37.9933 150.28 38.14 149.36 38.14C148.187 38.14 147.153 37.9067 146.26 37.44C145.367 36.9733 144.673 36.3267 144.18 35.5C143.7 34.66 143.46 33.7133 143.46 32.66C143.46 31.62 143.693 30.6867 144.16 29.86C144.64 29.02 145.3 28.3667 146.14 27.9C146.98 27.4333 147.927 27.2 148.98 27.2C150.02 27.2 150.947 27.4333 151.76 27.9C152.587 28.3533 153.227 29 153.68 29.84C154.147 30.6667 154.38 31.6267 154.38 32.72ZM148.98 29.2C148.18 29.2 147.5 29.44 146.94 29.92C146.393 30.3867 146.06 31.0133 145.94 31.8H152C151.893 31.0267 151.567 30.4 151.02 29.92C150.473 29.44 149.793 29.2 148.98 29.2ZM159.681 38.14C158.815 38.14 157.968 38.0267 157.141 37.8C156.315 37.5733 155.655 37.2867 155.161 36.94L156.121 35.04C156.601 35.36 157.175 35.62 157.841 35.82C158.521 36.0067 159.188 36.1 159.841 36.1C161.335 36.1 162.081 35.7067 162.081 34.92C162.081 34.5467 161.888 34.2867 161.501 34.14C161.128 33.9933 160.521 33.8533 159.681 33.72C158.801 33.5867 158.081 33.4333 157.521 33.26C156.975 33.0867 156.495 32.7867 156.081 32.36C155.681 31.92 155.481 31.3133 155.481 30.54C155.481 29.5267 155.901 28.72 156.741 28.12C157.595 27.5067 158.741 27.2 160.181 27.2C160.915 27.2 161.648 27.2867 162.381 27.46C163.115 27.62 163.715 27.84 164.181 28.12L163.221 30.02C162.315 29.4867 161.295 29.22 160.161 29.22C159.428 29.22 158.868 29.3333 158.481 29.56C158.108 29.7733 157.921 30.06 157.921 30.42C157.921 30.82 158.121 31.1067 158.521 31.28C158.935 31.44 159.568 31.5933 160.421 31.74C161.275 31.8733 161.975 32.0267 162.521 32.2C163.068 32.3733 163.535 32.6667 163.921 33.08C164.321 33.4933 164.521 34.08 164.521 34.84C164.521 35.84 164.088 36.64 163.221 37.24C162.355 37.84 161.175 38.14 159.681 38.14Z" fill="#2A2921"/>
<path d="M5.775 72.21C4.775 72.21 3.88 71.985 3.09 71.535C2.31 71.085 1.7 70.45 1.26 69.63C0.82 68.8 0.6 67.84 0.6 66.75C0.6 65.66 0.82 64.705 1.26 63.885C1.7 63.055 2.31 62.415 3.09 61.965C3.88 61.515 4.775 61.29 5.775 61.29C6.775 61.29 7.665 61.515 8.445 61.965C9.235 62.415 9.85 63.055 10.29 63.885C10.73 64.705 10.95 65.66 10.95 66.75C10.95 67.84 10.73 68.8 10.29 69.63C9.85 70.45 9.235 71.085 8.445 71.535C7.665 71.985 6.775 72.21 5.775 72.21ZM5.775 70.83C6.555 70.83 7.22 70.655 7.77 70.305C8.32 69.945 8.73 69.46 9 68.85C9.28 68.23 9.42 67.53 9.42 66.75C9.42 65.97 9.28 65.275 9 64.665C8.73 64.045 8.32 63.56 7.77 63.21C7.22 62.85 6.555 62.67 5.775 62.67C4.995 62.67 4.33 62.85 3.78 63.21C3.23 63.56 2.815 64.045 2.535 64.665C2.265 65.275 2.13 65.97 2.13 66.75C2.13 67.53 2.265 68.23 2.535 68.85C2.815 69.46 3.23 69.945 3.78 70.305C4.33 70.655 4.995 70.83 5.775 70.83ZM15.6854 64.5C17.6854 64.5 18.6854 65.65 18.6854 67.95V72H17.3354V67.95C17.3354 67.16 17.1854 66.59 16.8854 66.24C16.5954 65.88 16.1054 65.7 15.4154 65.7C14.9754 65.7 14.5754 65.78 14.2154 65.94C13.8554 66.1 13.5854 66.34 13.4054 66.66V72H12.0554V64.65H13.1054L13.2554 65.43C13.6454 65.08 14.0354 64.84 14.4254 64.71C14.8254 64.57 15.2454 64.5 15.6854 64.5ZM23.6593 72.15C22.8193 72.15 22.0993 71.98 21.4993 71.64C20.9093 71.29 20.4593 70.82 20.1493 70.23C19.8393 69.64 19.6843 68.985 19.6843 68.265C19.6843 67.575 19.8243 66.945 20.1043 66.375C20.3943 65.795 20.8093 65.34 21.3493 65.01C21.8993 64.67 22.5443 64.5 23.2843 64.5C24.2243 64.5 24.9843 64.775 25.5643 65.325C26.1543 65.875 26.4493 66.635 26.4493 67.605C26.4493 67.855 26.4293 68.095 26.3893 68.325H21.0643C21.1543 69.275 21.4443 69.95 21.9343 70.35C22.4243 70.75 23.0543 70.95 23.8243 70.95C24.5943 70.95 25.2993 70.805 25.9393 70.515L26.1193 71.58C25.2693 71.96 24.4493 72.15 23.6593 72.15ZM25.0543 67.395C25.0543 66.865 24.9043 66.45 24.6043 66.15C24.3043 65.85 23.8543 65.7 23.2543 65.7C22.6743 65.7 22.2193 65.845 21.8893 66.135C21.5593 66.415 21.3243 66.835 21.1843 67.395H25.0543ZM31.0893 65.7H29.8143L29.9943 64.65H31.0893V62.91C31.0893 62.24 31.2643 61.715 31.6143 61.335C31.9743 60.945 32.4893 60.75 33.1593 60.75C33.5993 60.75 33.9893 60.815 34.3293 60.945L34.1193 62.085C33.8793 61.995 33.6293 61.95 33.3693 61.95C32.7493 61.95 32.4393 62.3 32.4393 63V64.65H34.4193V65.7H32.4393V72H31.0893V65.7ZM38.3086 72.15C37.5586 72.15 36.9086 71.985 36.3586 71.655C35.8086 71.315 35.3886 70.855 35.0986 70.275C34.8086 69.695 34.6636 69.045 34.6636 68.325C34.6636 67.605 34.8086 66.955 35.0986 66.375C35.3886 65.795 35.8086 65.34 36.3586 65.01C36.9086 64.67 37.5586 64.5 38.3086 64.5C39.0486 64.5 39.6936 64.67 40.2436 65.01C40.8036 65.34 41.2286 65.795 41.5186 66.375C41.8086 66.955 41.9536 67.605 41.9536 68.325C41.9536 69.045 41.8086 69.695 41.5186 70.275C41.2286 70.855 40.8036 71.315 40.2436 71.655C39.6936 71.985 39.0486 72.15 38.3086 72.15ZM38.3086 70.95C39.0286 70.95 39.5836 70.72 39.9736 70.26C40.3736 69.8 40.5736 69.155 40.5736 68.325C40.5736 67.495 40.3736 66.85 39.9736 66.39C39.5836 65.93 39.0286 65.7 38.3086 65.7C37.5886 65.7 37.0286 65.93 36.6286 66.39C36.2386 66.85 36.0436 67.495 36.0436 68.325C36.0436 69.155 36.2386 69.8 36.6286 70.26C37.0286 70.72 37.5886 70.95 38.3086 70.95ZM43.0457 64.65H44.1557L44.3207 65.865C44.7007 65.395 45.0607 65.05 45.4007 64.83C45.7507 64.61 46.1157 64.5 46.4957 64.5C46.6157 64.5 46.7307 64.515 46.8407 64.545L46.7057 66.03C46.5757 66 46.4257 65.985 46.2557 65.985C45.8857 65.985 45.5357 66.07 45.2057 66.24C44.8757 66.4 44.6357 66.59 44.4857 66.81V72H43.0457V64.65ZM52.6459 72.15C52.0659 72.15 51.5559 72.085 51.1159 71.955C50.6859 71.815 50.3559 71.665 50.1259 71.505L50.2909 70.2C50.4909 70.38 50.7959 70.55 51.2059 70.71C51.6259 70.87 52.0859 70.95 52.5859 70.95C53.0559 70.95 53.4159 70.87 53.6659 70.71C53.9259 70.55 54.0559 70.325 54.0559 70.035C54.0559 69.695 53.9159 69.44 53.6359 69.27C53.3559 69.09 53.0059 68.94 52.5859 68.82C52.1259 68.7 51.7359 68.575 51.4159 68.445C51.1059 68.305 50.8359 68.095 50.6059 67.815C50.3859 67.535 50.2759 67.165 50.2759 66.705C50.2759 66.075 50.5009 65.55 50.9509 65.13C51.4009 64.71 52.0959 64.5 53.0359 64.5C53.4659 64.5 53.8309 64.545 54.1309 64.635C54.4309 64.715 54.7309 64.83 55.0309 64.98L54.8659 66.21C54.6259 66.01 54.3609 65.855 54.0709 65.745C53.7809 65.625 53.4459 65.565 53.0659 65.565C52.6259 65.565 52.2759 65.65 52.0159 65.82C51.7659 65.98 51.6409 66.225 51.6409 66.555C51.6409 66.775 51.7009 66.955 51.8209 67.095C51.9409 67.225 52.1109 67.335 52.3309 67.425C52.5509 67.515 52.8909 67.63 53.3509 67.77C53.9209 67.94 54.4109 68.18 54.8209 68.49C55.2409 68.8 55.4509 69.29 55.4509 69.96C55.4509 70.56 55.2359 71.075 54.8059 71.505C54.3859 71.935 53.6659 72.15 52.6459 72.15ZM59.6818 72.15C58.9318 72.15 58.2818 71.985 57.7318 71.655C57.1818 71.315 56.7618 70.855 56.4718 70.275C56.1818 69.695 56.0368 69.045 56.0368 68.325C56.0368 67.605 56.1818 66.955 56.4718 66.375C56.7618 65.795 57.1818 65.34 57.7318 65.01C58.2818 64.67 58.9318 64.5 59.6818 64.5C60.4218 64.5 61.0668 64.67 61.6168 65.01C62.1768 65.34 62.6018 65.795 62.8918 66.375C63.1818 66.955 63.3268 67.605 63.3268 68.325C63.3268 69.045 63.1818 69.695 62.8918 70.275C62.6018 70.855 62.1768 71.315 61.6168 71.655C61.0668 71.985 60.4218 72.15 59.6818 72.15ZM59.6818 70.95C60.4018 70.95 60.9568 70.72 61.3468 70.26C61.7468 69.8 61.9468 69.155 61.9468 68.325C61.9468 67.495 61.7468 66.85 61.3468 66.39C60.9568 65.93 60.4018 65.7 59.6818 65.7C58.9618 65.7 58.4018 65.93 58.0018 66.39C57.6118 66.85 57.4168 67.495 57.4168 68.325C57.4168 69.155 57.6118 69.8 58.0018 70.26C58.4018 70.72 58.9618 70.95 59.6818 70.95ZM64.4189 64.65H65.5289L65.6939 65.865C66.0739 65.395 66.4339 65.05 66.7739 64.83C67.1239 64.61 67.4889 64.5 67.8689 64.5C67.9889 64.5 68.1039 64.515 68.2139 64.545L68.0789 66.03C67.9489 66 67.7989 65.985 67.6289 65.985C67.2589 65.985 66.9089 66.07 66.5789 66.24C66.2489 66.4 66.0089 66.59 65.8589 66.81V72H64.4189V64.65ZM68.865 64.65H69.975L70.14 65.865C70.52 65.395 70.88 65.05 71.22 64.83C71.57 64.61 71.935 64.5 72.315 64.5C72.435 64.5 72.55 64.515 72.66 64.545L72.525 66.03C72.395 66 72.245 65.985 72.075 65.985C71.705 65.985 71.355 66.07 71.025 66.24C70.695 66.4 70.455 66.59 70.305 66.81V72H68.865V64.65ZM76.3307 72.15C75.5807 72.15 74.9307 71.985 74.3807 71.655C73.8307 71.315 73.4107 70.855 73.1207 70.275C72.8307 69.695 72.6857 69.045 72.6857 68.325C72.6857 67.605 72.8307 66.955 73.1207 66.375C73.4107 65.795 73.8307 65.34 74.3807 65.01C74.9307 64.67 75.5807 64.5 76.3307 64.5C77.0707 64.5 77.7157 64.67 78.2657 65.01C78.8257 65.34 79.2507 65.795 79.5407 66.375C79.8307 66.955 79.9757 67.605 79.9757 68.325C79.9757 69.045 79.8307 69.695 79.5407 70.275C79.2507 70.855 78.8257 71.315 78.2657 71.655C77.7157 71.985 77.0707 72.15 76.3307 72.15ZM76.3307 70.95C77.0507 70.95 77.6057 70.72 77.9957 70.26C78.3957 69.8 78.5957 69.155 78.5957 68.325C78.5957 67.495 78.3957 66.85 77.9957 66.39C77.6057 65.93 77.0507 65.7 76.3307 65.7C75.6107 65.7 75.0507 65.93 74.6507 66.39C74.2607 66.85 74.0657 67.495 74.0657 68.325C74.0657 69.155 74.2607 69.8 74.6507 70.26C75.0507 70.72 75.6107 70.95 76.3307 70.95ZM80.2595 64.65H81.8495L83.2595 70.515L84.8195 64.875H86.2145L87.7895 70.515L89.1995 64.65H90.7895L88.5695 72H87.0545L85.5245 66.57L83.9795 72H82.4645L80.2595 64.65ZM91.1814 73.605L91.7214 72H91.1964V70.41H92.8164V71.85L92.0364 73.605H91.1814ZM99.6178 62.79H96.5578V61.5H104.103V62.79H101.043V72H99.6178V62.79ZM103.098 64.65H104.688L106.098 70.515L107.658 64.875H109.053L110.628 70.515L112.038 64.65H113.628L111.408 72H109.893L108.363 66.57L106.818 72H105.303L103.098 64.65ZM117.538 72.15C116.788 72.15 116.138 71.985 115.588 71.655C115.038 71.315 114.618 70.855 114.328 70.275C114.038 69.695 113.893 69.045 113.893 68.325C113.893 67.605 114.038 66.955 114.328 66.375C114.618 65.795 115.038 65.34 115.588 65.01C116.138 64.67 116.788 64.5 117.538 64.5C118.278 64.5 118.923 64.67 119.473 65.01C120.033 65.34 120.458 65.795 120.748 66.375C121.038 66.955 121.183 67.605 121.183 68.325C121.183 69.045 121.038 69.695 120.748 70.275C120.458 70.855 120.033 71.315 119.473 71.655C118.923 71.985 118.278 72.15 117.538 72.15ZM117.538 70.95C118.258 70.95 118.813 70.72 119.203 70.26C119.603 69.8 119.803 69.155 119.803 68.325C119.803 67.495 119.603 66.85 119.203 66.39C118.813 65.93 118.258 65.7 117.538 65.7C116.818 65.7 116.258 65.93 115.858 66.39C115.468 66.85 115.273 67.495 115.273 68.325C115.273 69.155 115.468 69.8 115.858 70.26C116.258 70.72 116.818 70.95 117.538 70.95ZM125.855 65.7H124.58L124.76 64.65H125.855V62.91C125.855 62.24 126.03 61.715 126.38 61.335C126.74 60.945 127.255 60.75 127.925 60.75C128.365 60.75 128.755 60.815 129.095 60.945L128.885 62.085C128.645 61.995 128.395 61.95 128.135 61.95C127.515 61.95 127.205 62.3 127.205 63V64.65H129.185V65.7H127.205V72H125.855V65.7ZM133.074 72.15C132.324 72.15 131.674 71.985 131.124 71.655C130.574 71.315 130.154 70.855 129.864 70.275C129.574 69.695 129.429 69.045 129.429 68.325C129.429 67.605 129.574 66.955 129.864 66.375C130.154 65.795 130.574 65.34 131.124 65.01C131.674 64.67 132.324 64.5 133.074 64.5C133.814 64.5 134.459 64.67 135.009 65.01C135.569 65.34 135.994 65.795 136.284 66.375C136.574 66.955 136.719 67.605 136.719 68.325C136.719 69.045 136.574 69.695 136.284 70.275C135.994 70.855 135.569 71.315 135.009 71.655C134.459 71.985 133.814 72.15 133.074 72.15ZM133.074 70.95C133.794 70.95 134.349 70.72 134.739 70.26C135.139 69.8 135.339 69.155 135.339 68.325C135.339 67.495 135.139 66.85 134.739 66.39C134.349 65.93 133.794 65.7 133.074 65.7C132.354 65.7 131.794 65.93 131.394 66.39C131.004 66.85 130.809 67.495 130.809 68.325C130.809 69.155 131.004 69.8 131.394 70.26C131.794 70.72 132.354 70.95 133.074 70.95ZM137.811 64.65H138.921L139.086 65.865C139.466 65.395 139.826 65.05 140.166 64.83C140.516 64.61 140.881 64.5 141.261 64.5C141.381 64.5 141.496 64.515 141.606 64.545L141.471 66.03C141.341 66 141.191 65.985 141.021 65.985C140.651 65.985 140.301 66.07 139.971 66.24C139.641 66.4 139.401 66.59 139.251 66.81V72H137.811V64.65ZM9.495 85.5C11.375 85.5 12.315 86.555 12.315 88.665V93H10.965V88.68C10.965 87.99 10.83 87.49 10.56 87.18C10.29 86.86 9.85 86.7 9.24 86.7C7.94 86.7 7.29 87.38 7.29 88.74V93H5.94V88.95C5.94 88.11 5.79 87.525 5.49 87.195C5.2 86.865 4.775 86.7 4.215 86.7C3.775 86.7 3.385 86.78 3.045 86.94C2.705 87.1 2.445 87.34 2.265 87.66V93H0.915V85.65H1.965L2.115 86.43C2.485 86.1 2.855 85.865 3.225 85.725C3.605 85.575 4.01 85.5 4.44 85.5C5.56 85.5 6.35 85.99 6.81 86.97C7.32 85.99 8.215 85.5 9.495 85.5ZM13.7693 82.5H15.1193V84H13.7693V82.5ZM13.7693 85.65H15.1193V93H13.7693V85.65ZM16.648 85.65H17.758L17.923 86.865C18.303 86.395 18.663 86.05 19.003 85.83C19.353 85.61 19.718 85.5 20.098 85.5C20.218 85.5 20.333 85.515 20.443 85.545L20.308 87.03C20.178 87 20.028 86.985 19.858 86.985C19.488 86.985 19.138 87.07 18.808 87.24C18.478 87.4 18.238 87.59 18.088 87.81V93H16.648V85.65ZM23.6291 93.15C22.9791 93.15 22.4941 92.98 22.1741 92.64C21.8641 92.3 21.7091 91.885 21.7091 91.395V86.7H20.4491L20.5691 85.65H21.7091V83.835L23.0591 83.7V85.65H24.9941V86.7H23.0591V90.57C23.0591 91.08 23.0891 91.43 23.1491 91.62C23.2091 91.81 23.3341 91.935 23.5241 91.995C23.7241 92.045 24.0841 92.07 24.6041 92.07H24.9491L24.8441 93.15H23.6291ZM29.3578 85.5C30.2878 85.5 30.9978 85.805 31.4878 86.415C31.9778 87.025 32.2228 87.855 32.2228 88.905V93H30.8728V89.07C30.8728 88.26 30.7228 87.665 30.4228 87.285C30.1328 86.895 29.6778 86.7 29.0578 86.7C28.6778 86.7 28.3278 86.79 28.0078 86.97C27.6878 87.14 27.4178 87.385 27.1978 87.705V93H25.8328V81.75H27.1978V86.355C27.4878 86.075 27.8028 85.865 28.1428 85.725C28.4928 85.575 28.8978 85.5 29.3578 85.5ZM33.6177 94.605L34.1577 93H33.6327V91.41H35.2527V92.85L34.4727 94.605H33.6177ZM42.0541 83.79H38.9941V82.5H46.5391V83.79H43.4791V93H42.0541V83.79ZM50.8043 85.5C51.7343 85.5 52.4443 85.805 52.9343 86.415C53.4243 87.025 53.6693 87.855 53.6693 88.905V93H52.3193V89.07C52.3193 88.26 52.1693 87.665 51.8693 87.285C51.5793 86.895 51.1243 86.7 50.5043 86.7C50.1243 86.7 49.7743 86.79 49.4543 86.97C49.1343 87.14 48.8643 87.385 48.6443 87.705V93H47.2793V81.75H48.6443V86.355C48.9343 86.075 49.2493 85.865 49.5893 85.725C49.9393 85.575 50.3443 85.5 50.8043 85.5ZM55.1242 85.65H56.2342L56.3992 86.865C56.7792 86.395 57.1392 86.05 57.4792 85.83C57.8292 85.61 58.1942 85.5 58.5742 85.5C58.6942 85.5 58.8092 85.515 58.9192 85.545L58.7842 87.03C58.6542 87 58.5042 86.985 58.3342 86.985C57.9642 86.985 57.6142 87.07 57.2842 87.24C56.9542 87.4 56.7142 87.59 56.5642 87.81V93H55.1242V85.65ZM62.9048 93.15C62.0648 93.15 61.3448 92.98 60.7448 92.64C60.1548 92.29 59.7048 91.82 59.3948 91.23C59.0848 90.64 58.9298 89.985 58.9298 89.265C58.9298 88.575 59.0698 87.945 59.3498 87.375C59.6398 86.795 60.0548 86.34 60.5948 86.01C61.1448 85.67 61.7898 85.5 62.5298 85.5C63.4698 85.5 64.2298 85.775 64.8098 86.325C65.3998 86.875 65.6948 87.635 65.6948 88.605C65.6948 88.855 65.6748 89.095 65.6348 89.325H60.3098C60.3998 90.275 60.6898 90.95 61.1798 91.35C61.6698 91.75 62.2998 91.95 63.0698 91.95C63.8398 91.95 64.5448 91.805 65.1848 91.515L65.3648 92.58C64.5148 92.96 63.6948 93.15 62.9048 93.15ZM64.2998 88.395C64.2998 87.865 64.1498 87.45 63.8498 87.15C63.5498 86.85 63.0998 86.7 62.4998 86.7C61.9198 86.7 61.4648 86.845 61.1348 87.135C60.8048 87.415 60.5698 87.835 60.4298 88.395H64.2998ZM70.2806 93.15C69.4406 93.15 68.7206 92.98 68.1206 92.64C67.5306 92.29 67.0806 91.82 66.7706 91.23C66.4606 90.64 66.3056 89.985 66.3056 89.265C66.3056 88.575 66.4456 87.945 66.7256 87.375C67.0156 86.795 67.4306 86.34 67.9706 86.01C68.5206 85.67 69.1656 85.5 69.9056 85.5C70.8456 85.5 71.6056 85.775 72.1856 86.325C72.7756 86.875 73.0706 87.635 73.0706 88.605C73.0706 88.855 73.0506 89.095 73.0106 89.325H67.6856C67.7756 90.275 68.0656 90.95 68.5556 91.35C69.0456 91.75 69.6756 91.95 70.4456 91.95C71.2156 91.95 71.9206 91.805 72.5606 91.515L72.7406 92.58C71.8906 92.96 71.0706 93.15 70.2806 93.15ZM71.6756 88.395C71.6756 87.865 71.5256 87.45 71.2256 87.15C70.9256 86.85 70.4756 86.7 69.8756 86.7C69.2956 86.7 68.8406 86.845 68.5106 87.135C68.1806 87.415 67.9456 87.835 67.8056 88.395H71.6756ZM77.7105 86.7H76.4355L76.6155 85.65H77.7105V83.91C77.7105 83.24 77.8855 82.715 78.2355 82.335C78.5955 81.945 79.1105 81.75 79.7805 81.75C80.2205 81.75 80.6105 81.815 80.9505 81.945L80.7405 83.085C80.5005 82.995 80.2505 82.95 79.9905 82.95C79.3705 82.95 79.0605 83.3 79.0605 84V85.65H81.0405V86.7H79.0605V93H77.7105V86.7ZM84.9299 93.15C84.1799 93.15 83.5299 92.985 82.9799 92.655C82.4299 92.315 82.0099 91.855 81.7199 91.275C81.4299 90.695 81.2849 90.045 81.2849 89.325C81.2849 88.605 81.4299 87.955 81.7199 87.375C82.0099 86.795 82.4299 86.34 82.9799 86.01C83.5299 85.67 84.1799 85.5 84.9299 85.5C85.6699 85.5 86.3149 85.67 86.8649 86.01C87.4249 86.34 87.8499 86.795 88.1399 87.375C88.4299 87.955 88.5749 88.605 88.5749 89.325C88.5749 90.045 88.4299 90.695 88.1399 91.275C87.8499 91.855 87.4249 92.315 86.8649 92.655C86.3149 92.985 85.6699 93.15 84.9299 93.15ZM84.9299 91.95C85.6499 91.95 86.2049 91.72 86.5949 91.26C86.9949 90.8 87.1949 90.155 87.1949 89.325C87.1949 88.495 86.9949 87.85 86.5949 87.39C86.2049 86.93 85.6499 86.7 84.9299 86.7C84.2099 86.7 83.6499 86.93 83.2499 87.39C82.8599 87.85 82.6649 88.495 82.6649 89.325C82.6649 90.155 82.8599 90.8 83.2499 91.26C83.6499 91.72 84.2099 91.95 84.9299 91.95ZM89.667 85.65H90.777L90.942 86.865C91.322 86.395 91.682 86.05 92.022 85.83C92.372 85.61 92.737 85.5 93.117 85.5C93.237 85.5 93.352 85.515 93.462 85.545L93.327 87.03C93.197 87 93.047 86.985 92.877 86.985C92.507 86.985 92.157 87.07 91.827 87.24C91.497 87.4 91.257 87.59 91.107 87.81V93H89.667V85.65ZM98.8922 93.15C98.2122 93.15 97.6622 92.95 97.2422 92.55C96.8322 92.15 96.6272 91.64 96.6272 91.02C96.6272 90.09 97.0672 89.425 97.9472 89.025C98.8272 88.625 99.8522 88.415 101.022 88.395C101.022 87.735 100.892 87.29 100.632 87.06C100.382 86.82 99.9772 86.7 99.4172 86.7C99.1072 86.7 98.7972 86.75 98.4872 86.85C98.1772 86.94 97.8422 87.11 97.4822 87.36L97.2872 86.265C97.5872 86.035 97.9572 85.85 98.3972 85.71C98.8372 85.57 99.2972 85.5 99.7772 85.5C100.407 85.5 100.907 85.61 101.277 85.83C101.657 86.05 101.932 86.415 102.102 86.925C102.282 87.435 102.372 88.135 102.372 89.025V90.525C102.372 90.925 102.387 91.23 102.417 91.44C102.457 91.64 102.537 91.795 102.657 91.905C102.777 92.015 102.962 92.07 103.212 92.07H103.347L103.137 93.15H103.032C102.612 93.15 102.282 93.11 102.042 93.03C101.802 92.95 101.617 92.835 101.487 92.685C101.367 92.535 101.252 92.33 101.142 92.07C100.522 92.79 99.7722 93.15 98.8922 93.15ZM99.1472 92.07C99.5072 92.07 99.8522 91.98 100.182 91.8C100.522 91.62 100.802 91.38 101.022 91.08V89.325C99.9422 89.365 99.1672 89.51 98.6972 89.76C98.2372 90 98.0072 90.395 98.0072 90.945C98.0072 91.325 98.1072 91.61 98.3072 91.8C98.5172 91.98 98.7972 92.07 99.1472 92.07ZM106.423 85.65H108.013L109.423 91.515L110.983 85.875H112.378L113.953 91.515L115.363 85.65H116.953L114.733 93H113.218L111.688 87.57L110.143 93H108.628L106.423 85.65ZM121.179 93.15C120.339 93.15 119.619 92.98 119.019 92.64C118.429 92.29 117.979 91.82 117.669 91.23C117.359 90.64 117.204 89.985 117.204 89.265C117.204 88.575 117.344 87.945 117.624 87.375C117.914 86.795 118.329 86.34 118.869 86.01C119.419 85.67 120.064 85.5 120.804 85.5C121.744 85.5 122.504 85.775 123.084 86.325C123.674 86.875 123.969 87.635 123.969 88.605C123.969 88.855 123.949 89.095 123.909 89.325H118.584C118.674 90.275 118.964 90.95 119.454 91.35C119.944 91.75 120.574 91.95 121.344 91.95C122.114 91.95 122.819 91.805 123.459 91.515L123.639 92.58C122.789 92.96 121.969 93.15 121.179 93.15ZM122.574 88.395C122.574 87.865 122.424 87.45 122.124 87.15C121.824 86.85 121.374 86.7 120.774 86.7C120.194 86.7 119.739 86.845 119.409 87.135C119.079 87.415 118.844 87.835 118.704 88.395H122.574ZM131.54 81.75V93H130.34L130.19 92.1C129.94 92.44 129.615 92.7 129.215 92.88C128.815 93.06 128.39 93.15 127.94 93.15C127.32 93.15 126.755 92.98 126.245 92.64C125.735 92.3 125.33 91.84 125.03 91.26C124.74 90.68 124.595 90.04 124.595 89.34C124.595 88.66 124.73 88.025 125 87.435C125.28 86.845 125.675 86.375 126.185 86.025C126.695 85.675 127.28 85.5 127.94 85.5C128.38 85.5 128.795 85.58 129.185 85.74C129.575 85.9 129.91 86.145 130.19 86.475V81.75H131.54ZM128.18 91.95C128.54 91.95 128.885 91.86 129.215 91.68C129.545 91.49 129.815 91.2 130.025 90.81C130.235 90.42 130.34 89.93 130.34 89.34C130.34 88.79 130.235 88.315 130.025 87.915C129.815 87.515 129.54 87.215 129.2 87.015C128.87 86.805 128.53 86.7 128.18 86.7C127.5 86.7 126.96 86.95 126.56 87.45C126.17 87.94 125.975 88.57 125.975 89.34C125.975 90.08 126.175 90.7 126.575 91.2C126.975 91.7 127.51 91.95 128.18 91.95ZM139.56 81.75V93H138.36L138.21 92.1C137.96 92.44 137.635 92.7 137.235 92.88C136.835 93.06 136.41 93.15 135.96 93.15C135.34 93.15 134.775 92.98 134.265 92.64C133.755 92.3 133.35 91.84 133.05 91.26C132.76 90.68 132.615 90.04 132.615 89.34C132.615 88.66 132.75 88.025 133.02 87.435C133.3 86.845 133.695 86.375 134.205 86.025C134.715 85.675 135.3 85.5 135.96 85.5C136.4 85.5 136.815 85.58 137.205 85.74C137.595 85.9 137.93 86.145 138.21 86.475V81.75H139.56ZM136.2 91.95C136.56 91.95 136.905 91.86 137.235 91.68C137.565 91.49 137.835 91.2 138.045 90.81C138.255 90.42 138.36 89.93 138.36 89.34C138.36 88.79 138.255 88.315 138.045 87.915C137.835 87.515 137.56 87.215 137.22 87.015C136.89 86.805 136.55 86.7 136.2 86.7C135.52 86.7 134.98 86.95 134.58 87.45C134.19 87.94 133.995 88.57 133.995 89.34C133.995 90.08 134.195 90.7 134.595 91.2C134.995 91.7 135.53 91.95 136.2 91.95ZM141.071 82.5H142.421V84H141.071V82.5ZM141.071 85.65H142.421V93H141.071V85.65ZM147.579 85.5C149.579 85.5 150.579 86.65 150.579 88.95V93H149.229V88.95C149.229 88.16 149.079 87.59 148.779 87.24C148.489 86.88 147.999 86.7 147.309 86.7C146.869 86.7 146.469 86.78 146.109 86.94C145.749 87.1 145.479 87.34 145.299 87.66V93H143.949V85.65H144.999L145.149 86.43C145.539 86.08 145.929 85.84 146.319 85.71C146.719 85.57 147.139 85.5 147.579 85.5ZM154.998 96.75C153.958 96.75 153.113 96.56 152.463 96.18C151.823 95.8 151.503 95.26 151.503 94.56C151.503 93.79 151.928 93.215 152.778 92.835C152.298 92.595 152.058 92.285 152.058 91.905C152.058 91.425 152.348 91.07 152.928 90.84C152.518 90.59 152.203 90.25 151.983 89.82C151.763 89.39 151.653 88.905 151.653 88.365C151.653 87.825 151.773 87.34 152.013 86.91C152.263 86.47 152.613 86.125 153.063 85.875C153.523 85.625 154.063 85.5 154.683 85.5C155.343 85.5 155.943 85.69 156.483 86.07C157.013 85.77 157.623 85.62 158.313 85.62H158.433L158.268 86.52H157.923C157.833 86.52 157.703 86.53 157.533 86.55C157.363 86.57 157.213 86.595 157.083 86.625C157.293 86.865 157.453 87.135 157.563 87.435C157.673 87.735 157.728 88.045 157.728 88.365C157.728 88.925 157.603 89.43 157.353 89.88C157.113 90.32 156.763 90.67 156.303 90.93C155.843 91.18 155.303 91.305 154.683 91.305C154.323 91.305 153.993 91.26 153.693 91.17C153.463 91.25 153.348 91.38 153.348 91.56C153.348 91.8 153.623 91.96 154.173 92.04L156.138 92.355C156.958 92.485 157.578 92.72 157.998 93.06C158.418 93.4 158.628 93.87 158.628 94.47C158.628 95.22 158.303 95.785 157.653 96.165C157.013 96.555 156.128 96.75 154.998 96.75ZM154.683 90.225C155.243 90.225 155.673 90.06 155.973 89.73C156.283 89.39 156.438 88.94 156.438 88.38C156.438 87.84 156.283 87.405 155.973 87.075C155.673 86.745 155.243 86.58 154.683 86.58C154.123 86.58 153.693 86.745 153.393 87.075C153.093 87.405 152.943 87.84 152.943 88.38C152.943 88.94 153.093 89.39 153.393 89.73C153.693 90.06 154.123 90.225 154.683 90.225ZM155.118 95.55C155.808 95.55 156.338 95.46 156.708 95.28C157.078 95.1 157.263 94.84 157.263 94.5C157.263 94.24 157.148 94.03 156.918 93.87C156.698 93.72 156.363 93.6 155.913 93.51L153.813 93.15C153.513 93.29 153.268 93.46 153.078 93.66C152.888 93.87 152.793 94.1 152.793 94.35C152.793 94.76 152.998 95.06 153.408 95.25C153.818 95.45 154.388 95.55 155.118 95.55ZM159.139 94.605L159.679 93H159.154V91.41H160.774V92.85L159.994 94.605H159.139ZM6.63 111.165H2.61L1.605 114H0.105L3.87 103.5H5.37L9.135 114H7.635L6.63 111.165ZM6.18 109.875L4.62 105.495L3.06 109.875H6.18ZM13.4882 106.5C15.4882 106.5 16.4882 107.65 16.4882 109.95V114H15.1382V109.95C15.1382 109.16 14.9882 108.59 14.6882 108.24C14.3982 107.88 13.9082 107.7 13.2182 107.7C12.7782 107.7 12.3782 107.78 12.0182 107.94C11.6582 108.1 11.3882 108.34 11.2082 108.66V114H9.85816V106.65H10.9082L11.0582 107.43C11.4482 107.08 11.8382 106.84 12.2282 106.71C12.6282 106.57 13.0482 106.5 13.4882 106.5ZM24.4471 102.75V114H23.2471L23.0971 113.1C22.8471 113.44 22.5221 113.7 22.1221 113.88C21.7221 114.06 21.2971 114.15 20.8471 114.15C20.2271 114.15 19.6621 113.98 19.1521 113.64C18.6421 113.3 18.2371 112.84 17.9371 112.26C17.6471 111.68 17.5021 111.04 17.5021 110.34C17.5021 109.66 17.6371 109.025 17.9071 108.435C18.1871 107.845 18.5821 107.375 19.0921 107.025C19.6021 106.675 20.1871 106.5 20.8471 106.5C21.2871 106.5 21.7021 106.58 22.0921 106.74C22.4821 106.9 22.8171 107.145 23.0971 107.475V102.75H24.4471ZM21.0871 112.95C21.4471 112.95 21.7921 112.86 22.1221 112.68C22.4521 112.49 22.7221 112.2 22.9321 111.81C23.1421 111.42 23.2471 110.93 23.2471 110.34C23.2471 109.79 23.1421 109.315 22.9321 108.915C22.7221 108.515 22.4471 108.215 22.1071 108.015C21.7771 107.805 21.4371 107.7 21.0871 107.7C20.4071 107.7 19.8671 107.95 19.4671 108.45C19.0771 108.94 18.8821 109.57 18.8821 110.34C18.8821 111.08 19.0821 111.7 19.4821 112.2C19.8821 112.7 20.4171 112.95 21.0871 112.95ZM29.5365 107.7H28.2615L28.4415 106.65H29.5365V104.91C29.5365 104.24 29.7115 103.715 30.0615 103.335C30.4215 102.945 30.9365 102.75 31.6065 102.75C32.0465 102.75 32.4365 102.815 32.7765 102.945L32.5665 104.085C32.3265 103.995 32.0765 103.95 31.8165 103.95C31.1965 103.95 30.8865 104.3 30.8865 105V106.65H32.8665V107.7H30.8865V114H29.5365V107.7ZM36.7559 114.15C36.0059 114.15 35.3559 113.985 34.8059 113.655C34.2559 113.315 33.8359 112.855 33.5459 112.275C33.2559 111.695 33.1109 111.045 33.1109 110.325C33.1109 109.605 33.2559 108.955 33.5459 108.375C33.8359 107.795 34.2559 107.34 34.8059 107.01C35.3559 106.67 36.0059 106.5 36.7559 106.5C37.4959 106.5 38.1409 106.67 38.6909 107.01C39.2509 107.34 39.6759 107.795 39.9659 108.375C40.2559 108.955 40.4009 109.605 40.4009 110.325C40.4009 111.045 40.2559 111.695 39.9659 112.275C39.6759 112.855 39.2509 113.315 38.6909 113.655C38.1409 113.985 37.4959 114.15 36.7559 114.15ZM36.7559 112.95C37.4759 112.95 38.0309 112.72 38.4209 112.26C38.8209 111.8 39.0209 111.155 39.0209 110.325C39.0209 109.495 38.8209 108.85 38.4209 108.39C38.0309 107.93 37.4759 107.7 36.7559 107.7C36.0359 107.7 35.4759 107.93 35.0759 108.39C34.6859 108.85 34.4909 109.495 34.4909 110.325C34.4909 111.155 34.6859 111.8 35.0759 112.26C35.4759 112.72 36.0359 112.95 36.7559 112.95ZM47.5229 106.65V114H46.3229L46.1729 113.19C45.9329 113.52 45.6479 113.765 45.3179 113.925C44.9979 114.075 44.6029 114.15 44.1329 114.15C43.2529 114.15 42.5779 113.885 42.1079 113.355C41.6479 112.815 41.4179 112.005 41.4179 110.925V106.65H42.7679V110.55C42.7679 111.35 42.9029 111.95 43.1729 112.35C43.4529 112.75 43.8879 112.95 44.4779 112.95C44.8279 112.95 45.1529 112.88 45.4529 112.74C45.7629 112.6 46.0029 112.395 46.1729 112.125V106.65H47.5229ZM49.0591 106.65H50.1691L50.3341 107.865C50.7141 107.395 51.0741 107.05 51.4141 106.83C51.7641 106.61 52.1291 106.5 52.5091 106.5C52.6291 106.5 52.7441 106.515 52.8541 106.545L52.7191 108.03C52.5891 108 52.4391 107.985 52.2691 107.985C51.8991 107.985 51.5491 108.07 51.2191 108.24C50.8891 108.4 50.6491 108.59 50.4991 108.81V114H49.0591V106.65ZM57.0844 107.7H55.8094L55.9894 106.65H57.0844V104.91C57.0844 104.24 57.2594 103.715 57.6094 103.335C57.9694 102.945 58.4844 102.75 59.1544 102.75C59.5944 102.75 59.9844 102.815 60.3244 102.945L60.1144 104.085C59.8744 103.995 59.6244 103.95 59.3644 103.95C58.7444 103.95 58.4344 104.3 58.4344 105V106.65H60.4144V107.7H58.4344V114H57.0844V107.7ZM64.3037 114.15C63.5537 114.15 62.9037 113.985 62.3537 113.655C61.8037 113.315 61.3837 112.855 61.0937 112.275C60.8037 111.695 60.6587 111.045 60.6587 110.325C60.6587 109.605 60.8037 108.955 61.0937 108.375C61.3837 107.795 61.8037 107.34 62.3537 107.01C62.9037 106.67 63.5537 106.5 64.3037 106.5C65.0437 106.5 65.6887 106.67 66.2387 107.01C66.7987 107.34 67.2237 107.795 67.5137 108.375C67.8037 108.955 67.9487 109.605 67.9487 110.325C67.9487 111.045 67.8037 111.695 67.5137 112.275C67.2237 112.855 66.7987 113.315 66.2387 113.655C65.6887 113.985 65.0437 114.15 64.3037 114.15ZM64.3037 112.95C65.0237 112.95 65.5787 112.72 65.9687 112.26C66.3687 111.8 66.5687 111.155 66.5687 110.325C66.5687 109.495 66.3687 108.85 65.9687 108.39C65.5787 107.93 65.0237 107.7 64.3037 107.7C63.5837 107.7 63.0237 107.93 62.6237 108.39C62.2337 108.85 62.0387 109.495 62.0387 110.325C62.0387 111.155 62.2337 111.8 62.6237 112.26C63.0237 112.72 63.5837 112.95 64.3037 112.95ZM69.0408 106.65H70.1508L70.3158 107.865C70.6958 107.395 71.0558 107.05 71.3958 106.83C71.7458 106.61 72.1108 106.5 72.4908 106.5C72.6108 106.5 72.7258 106.515 72.8358 106.545L72.7008 108.03C72.5708 108 72.4208 107.985 72.2508 107.985C71.8808 107.985 71.5308 108.07 71.2008 108.24C70.8708 108.4 70.6308 108.59 70.4808 108.81V114H69.0408V106.65ZM83.066 102.75V114H81.866L81.716 113.1C81.466 113.44 81.141 113.7 80.741 113.88C80.341 114.06 79.916 114.15 79.466 114.15C78.846 114.15 78.281 113.98 77.771 113.64C77.261 113.3 76.856 112.84 76.556 112.26C76.266 111.68 76.121 111.04 76.121 110.34C76.121 109.66 76.256 109.025 76.526 108.435C76.806 107.845 77.201 107.375 77.711 107.025C78.221 106.675 78.806 106.5 79.466 106.5C79.906 106.5 80.321 106.58 80.711 106.74C81.101 106.9 81.436 107.145 81.716 107.475V102.75H83.066ZM79.706 112.95C80.066 112.95 80.411 112.86 80.741 112.68C81.071 112.49 81.341 112.2 81.551 111.81C81.761 111.42 81.866 110.93 81.866 110.34C81.866 109.79 81.761 109.315 81.551 108.915C81.341 108.515 81.066 108.215 80.726 108.015C80.396 107.805 80.056 107.7 79.706 107.7C79.026 107.7 78.486 107.95 78.086 108.45C77.696 108.94 77.501 109.57 77.501 110.34C77.501 111.08 77.701 111.7 78.101 112.2C78.501 112.7 79.036 112.95 79.706 112.95ZM88.1013 114.15C87.2613 114.15 86.5413 113.98 85.9413 113.64C85.3513 113.29 84.9013 112.82 84.5913 112.23C84.2813 111.64 84.1263 110.985 84.1263 110.265C84.1263 109.575 84.2663 108.945 84.5463 108.375C84.8363 107.795 85.2513 107.34 85.7913 107.01C86.3413 106.67 86.9863 106.5 87.7263 106.5C88.6663 106.5 89.4263 106.775 90.0063 107.325C90.5963 107.875 90.8913 108.635 90.8913 109.605C90.8913 109.855 90.8713 110.095 90.8313 110.325H85.5063C85.5963 111.275 85.8863 111.95 86.3763 112.35C86.8663 112.75 87.4963 112.95 88.2663 112.95C89.0363 112.95 89.7413 112.805 90.3813 112.515L90.5613 113.58C89.7113 113.96 88.8913 114.15 88.1013 114.15ZM89.4963 109.395C89.4963 108.865 89.3463 108.45 89.0463 108.15C88.7463 107.85 88.2963 107.7 87.6963 107.7C87.1163 107.7 86.6613 107.845 86.3313 108.135C86.0013 108.415 85.7663 108.835 85.6263 109.395H89.4963ZM93.6621 114.15C92.9821 114.15 92.4321 113.95 92.0121 113.55C91.6021 113.15 91.3971 112.64 91.3971 112.02C91.3971 111.09 91.8371 110.425 92.7171 110.025C93.5971 109.625 94.6221 109.415 95.7921 109.395C95.7921 108.735 95.6621 108.29 95.4021 108.06C95.1521 107.82 94.7471 107.7 94.1871 107.7C93.8771 107.7 93.5671 107.75 93.2571 107.85C92.9471 107.94 92.6121 108.11 92.2521 108.36L92.0571 107.265C92.3571 107.035 92.7271 106.85 93.1671 106.71C93.6071 106.57 94.0671 106.5 94.5471 106.5C95.1771 106.5 95.6771 106.61 96.0471 106.83C96.4271 107.05 96.7021 107.415 96.8721 107.925C97.0521 108.435 97.1421 109.135 97.1421 110.025V111.525C97.1421 111.925 97.1571 112.23 97.1871 112.44C97.2271 112.64 97.3071 112.795 97.4271 112.905C97.5471 113.015 97.7321 113.07 97.9821 113.07H98.1171L97.9071 114.15H97.8021C97.3821 114.15 97.0521 114.11 96.8121 114.03C96.5721 113.95 96.3871 113.835 96.2571 113.685C96.1371 113.535 96.0221 113.33 95.9121 113.07C95.2921 113.79 94.5421 114.15 93.6621 114.15ZM93.9171 113.07C94.2771 113.07 94.6221 112.98 94.9521 112.8C95.2921 112.62 95.5721 112.38 95.7921 112.08V110.325C94.7121 110.365 93.9371 110.51 93.4671 110.76C93.0071 111 92.7771 111.395 92.7771 111.945C92.7771 112.325 92.8771 112.61 93.0771 112.8C93.2871 112.98 93.5671 113.07 93.9171 113.07ZM101.248 114.15C100.598 114.15 100.113 113.98 99.7927 113.64C99.4827 113.3 99.3277 112.885 99.3277 112.395V107.7H98.0677L98.1877 106.65H99.3277V104.835L100.678 104.7V106.65H102.613V107.7H100.678V111.57C100.678 112.08 100.708 112.43 100.768 112.62C100.828 112.81 100.953 112.935 101.143 112.995C101.343 113.045 101.703 113.07 102.223 113.07H102.568L102.463 114.15H101.248ZM106.976 106.5C107.906 106.5 108.616 106.805 109.106 107.415C109.596 108.025 109.841 108.855 109.841 109.905V114H108.491V110.07C108.491 109.26 108.341 108.665 108.041 108.285C107.751 107.895 107.296 107.7 106.676 107.7C106.296 107.7 105.946 107.79 105.626 107.97C105.306 108.14 105.036 108.385 104.816 108.705V114H103.451V102.75H104.816V107.355C105.106 107.075 105.421 106.865 105.761 106.725C106.111 106.575 106.516 106.5 106.976 106.5Z" fill="#2A2921"/>
</svg>
