<svg width="169" height="136" viewBox="0 0 169 136" fill="none" xmlns="http://www.w3.org/2000/svg">
<path d="M14.32 14V28H12.18L4.46 18.52V28H1.88V14H4.02L11.74 23.48V14H14.32ZM27.7714 17.32V28H25.3914V26.64C24.9914 27.12 24.4914 27.4933 23.8914 27.76C23.2914 28.0133 22.6447 28.14 21.9514 28.14C20.5247 28.14 19.3981 27.7467 18.5714 26.96C17.7581 26.16 17.3514 24.98 17.3514 23.42V17.32H19.8514V23.08C19.8514 24.04 20.0647 24.76 20.4914 25.24C20.9314 25.7067 21.5514 25.94 22.3514 25.94C23.2447 25.94 23.9514 25.6667 24.4714 25.12C25.0047 24.56 25.2714 23.76 25.2714 22.72V17.32H27.7714ZM33.0247 18.88C33.7447 17.76 35.0114 17.2 36.8247 17.2V19.58C36.6114 19.54 36.418 19.52 36.2447 19.52C35.2714 19.52 34.5114 19.8067 33.9647 20.38C33.418 20.94 33.1447 21.7533 33.1447 22.82V28H30.6447V17.32H33.0247V18.88ZM41.8845 28.14C41.0179 28.14 40.1712 28.0267 39.3445 27.8C38.5179 27.5733 37.8579 27.2867 37.3645 26.94L38.3245 25.04C38.8045 25.36 39.3779 25.62 40.0445 25.82C40.7245 26.0067 41.3912 26.1 42.0445 26.1C43.5379 26.1 44.2845 25.7067 44.2845 24.92C44.2845 24.5467 44.0912 24.2867 43.7045 24.14C43.3312 23.9933 42.7245 23.8533 41.8845 23.72C41.0045 23.5867 40.2845 23.4333 39.7245 23.26C39.1779 23.0867 38.6979 22.7867 38.2845 22.36C37.8845 21.92 37.6845 21.3133 37.6845 20.54C37.6845 19.5267 38.1045 18.72 38.9445 18.12C39.7979 17.5067 40.9445 17.2 42.3845 17.2C43.1179 17.2 43.8512 17.2867 44.5845 17.46C45.3179 17.62 45.9179 17.84 46.3845 18.12L45.4245 20.02C44.5179 19.4867 43.4979 19.22 42.3645 19.22C41.6312 19.22 41.0712 19.3333 40.6845 19.56C40.3112 19.7733 40.1245 20.06 40.1245 20.42C40.1245 20.82 40.3245 21.1067 40.7245 21.28C41.1379 21.44 41.7712 21.5933 42.6245 21.74C43.4779 21.8733 44.1779 22.0267 44.7245 22.2C45.2712 22.3733 45.7379 22.6667 46.1245 23.08C46.5245 23.4933 46.7245 24.08 46.7245 24.84C46.7245 25.84 46.2912 26.64 45.4245 27.24C44.5579 27.84 43.3779 28.14 41.8845 28.14ZM58.5175 22.72C58.5175 22.8933 58.5042 23.14 58.4775 23.46H50.0975C50.2442 24.2467 50.6242 24.8733 51.2375 25.34C51.8642 25.7933 52.6375 26.02 53.5575 26.02C54.7308 26.02 55.6975 25.6333 56.4575 24.86L57.7975 26.4C57.3175 26.9733 56.7108 27.4067 55.9775 27.7C55.2442 27.9933 54.4175 28.14 53.4975 28.14C52.3242 28.14 51.2908 27.9067 50.3975 27.44C49.5042 26.9733 48.8108 26.3267 48.3175 25.5C47.8375 24.66 47.5975 23.7133 47.5975 22.66C47.5975 21.62 47.8308 20.6867 48.2975 19.86C48.7775 19.02 49.4375 18.3667 50.2775 17.9C51.1175 17.4333 52.0642 17.2 53.1175 17.2C54.1575 17.2 55.0842 17.4333 55.8975 17.9C56.7242 18.3533 57.3642 19 57.8175 19.84C58.2842 20.6667 58.5175 21.6267 58.5175 22.72ZM53.1175 19.2C52.3175 19.2 51.6375 19.44 51.0775 19.92C50.5308 20.3867 50.1975 21.0133 50.0775 21.8H56.1375C56.0308 21.0267 55.7042 20.4 55.1575 19.92C54.6108 19.44 53.9308 19.2 53.1175 19.2ZM62.8989 18.88C63.6189 17.76 64.8856 17.2 66.6989 17.2V19.58C66.4856 19.54 66.2922 19.52 66.1189 19.52C65.1456 19.52 64.3856 19.8067 63.8389 20.38C63.2922 20.94 63.0189 21.7533 63.0189 22.82V28H60.5189V17.32H62.8989V18.88ZM78.8103 17.32L73.8103 28.86C73.3436 30.02 72.777 30.8333 72.1103 31.3C71.4436 31.78 70.637 32.02 69.6903 32.02C69.157 32.02 68.6303 31.9333 68.1103 31.76C67.5903 31.5867 67.1636 31.3467 66.8303 31.04L67.8303 29.2C68.0703 29.4267 68.3503 29.6067 68.6703 29.74C69.0036 29.8733 69.337 29.94 69.6703 29.94C70.1103 29.94 70.4703 29.8267 70.7503 29.6C71.0436 29.3733 71.3103 28.9933 71.5503 28.46L71.7303 28.04L67.0703 17.32H69.6703L73.0303 25.22L76.4103 17.32H78.8103ZM94.5002 28L91.6402 23.9C91.5202 23.9133 91.3402 23.92 91.1002 23.92H87.9402V28H85.3402V14H91.1002C92.3135 14 93.3668 14.2 94.2602 14.6C95.1668 15 95.8602 15.5733 96.3402 16.32C96.8202 17.0667 97.0602 17.9533 97.0602 18.98C97.0602 20.0333 96.8002 20.94 96.2802 21.7C95.7735 22.46 95.0402 23.0267 94.0802 23.4L97.3002 28H94.5002ZM94.4402 18.98C94.4402 18.0867 94.1468 17.4 93.5602 16.92C92.9735 16.44 92.1135 16.2 90.9802 16.2H87.9402V21.78H90.9802C92.1135 21.78 92.9735 21.54 93.5602 21.06C94.1468 20.5667 94.4402 19.8733 94.4402 18.98ZM105.389 17.2C106.736 17.2 107.816 17.5933 108.629 18.38C109.442 19.1667 109.849 20.3333 109.849 21.88V28H107.349V22.2C107.349 21.2667 107.129 20.5667 106.689 20.1C106.249 19.62 105.622 19.38 104.809 19.38C103.889 19.38 103.162 19.66 102.629 20.22C102.096 20.7667 101.829 21.56 101.829 22.6V28H99.3291V13.16H101.829V18.56C102.242 18.12 102.749 17.7867 103.349 17.56C103.962 17.32 104.642 17.2 105.389 17.2ZM122.425 17.32L117.425 28.86C116.958 30.02 116.392 30.8333 115.725 31.3C115.058 31.78 114.252 32.02 113.305 32.02C112.772 32.02 112.245 31.9333 111.725 31.76C111.205 31.5867 110.778 31.3467 110.445 31.04L111.445 29.2C111.685 29.4267 111.965 29.6067 112.285 29.74C112.618 29.8733 112.952 29.94 113.285 29.94C113.725 29.94 114.085 29.8267 114.365 29.6C114.658 29.3733 114.925 28.9933 115.165 28.46L115.345 28.04L110.685 17.32H113.285L116.645 25.22L120.025 17.32H122.425ZM137.068 17.2C138.414 17.2 139.481 17.5933 140.268 18.38C141.054 19.1533 141.448 20.32 141.448 21.88V28H138.948V22.2C138.948 21.2667 138.741 20.5667 138.328 20.1C137.914 19.62 137.321 19.38 136.548 19.38C135.708 19.38 135.034 19.66 134.528 20.22C134.021 20.7667 133.768 21.5533 133.768 22.58V28H131.268V22.2C131.268 21.2667 131.061 20.5667 130.648 20.1C130.234 19.62 129.641 19.38 128.868 19.38C128.014 19.38 127.334 19.6533 126.828 20.2C126.334 20.7467 126.088 21.54 126.088 22.58V28H123.588V17.32H125.968V18.68C126.368 18.2 126.868 17.8333 127.468 17.58C128.068 17.3267 128.734 17.2 129.468 17.2C130.268 17.2 130.974 17.3533 131.588 17.66C132.214 17.9533 132.708 18.3933 133.068 18.98C133.508 18.42 134.074 17.9867 134.768 17.68C135.461 17.36 136.228 17.2 137.068 17.2ZM154.38 22.72C154.38 22.8933 154.367 23.14 154.34 23.46H145.96C146.107 24.2467 146.487 24.8733 147.1 25.34C147.727 25.7933 148.5 26.02 149.42 26.02C150.593 26.02 151.56 25.6333 152.32 24.86L153.66 26.4C153.18 26.9733 152.573 27.4067 151.84 27.7C151.107 27.9933 150.28 28.14 149.36 28.14C148.187 28.14 147.153 27.9067 146.26 27.44C145.367 26.9733 144.673 26.3267 144.18 25.5C143.7 24.66 143.46 23.7133 143.46 22.66C143.46 21.62 143.693 20.6867 144.16 19.86C144.64 19.02 145.3 18.3667 146.14 17.9C146.98 17.4333 147.927 17.2 148.98 17.2C150.02 17.2 150.947 17.4333 151.76 17.9C152.587 18.3533 153.227 19 153.68 19.84C154.147 20.6667 154.38 21.6267 154.38 22.72ZM148.98 19.2C148.18 19.2 147.5 19.44 146.94 19.92C146.393 20.3867 146.06 21.0133 145.94 21.8H152C151.893 21.0267 151.567 20.4 151.02 19.92C150.473 19.44 149.793 19.2 148.98 19.2ZM159.681 28.14C158.815 28.14 157.968 28.0267 157.141 27.8C156.315 27.5733 155.655 27.2867 155.161 26.94L156.121 25.04C156.601 25.36 157.175 25.62 157.841 25.82C158.521 26.0067 159.188 26.1 159.841 26.1C161.335 26.1 162.081 25.7067 162.081 24.92C162.081 24.5467 161.888 24.2867 161.501 24.14C161.128 23.9933 160.521 23.8533 159.681 23.72C158.801 23.5867 158.081 23.4333 157.521 23.26C156.975 23.0867 156.495 22.7867 156.081 22.36C155.681 21.92 155.481 21.3133 155.481 20.54C155.481 19.5267 155.901 18.72 156.741 18.12C157.595 17.5067 158.741 17.2 160.181 17.2C160.915 17.2 161.648 17.2867 162.381 17.46C163.115 17.62 163.715 17.84 164.181 18.12L163.221 20.02C162.315 19.4867 161.295 19.22 160.161 19.22C159.428 19.22 158.868 19.3333 158.481 19.56C158.108 19.7733 157.921 20.06 157.921 20.42C157.921 20.82 158.121 21.1067 158.521 21.28C158.935 21.44 159.568 21.5933 160.421 21.74C161.275 21.8733 161.975 22.0267 162.521 22.2C163.068 22.3733 163.535 22.6667 163.921 23.08C164.321 23.4933 164.521 24.08 164.521 24.84C164.521 25.84 164.088 26.64 163.221 27.24C162.355 27.84 161.175 28.14 159.681 28.14Z" fill="#2A2921"/>
<path d="M3.765 62.165C2.665 62.165 1.82 61.75 1.23 60.92C0.65 60.09 0.36 58.905 0.36 57.365C0.36 55.875 0.65 54.705 1.23 53.855C1.82 52.995 2.665 52.565 3.765 52.565C4.855 52.565 5.69 52.995 6.27 53.855C6.86 54.705 7.155 55.875 7.155 57.365C7.155 58.905 6.86 60.09 6.27 60.92C5.69 61.75 4.855 62.165 3.765 62.165ZM3.765 61.1C4.425 61.1 4.94 60.785 5.31 60.155C5.68 59.515 5.865 58.585 5.865 57.365C5.865 56.215 5.68 55.31 5.31 54.65C4.94 53.98 4.425 53.645 3.765 53.645C3.095 53.645 2.575 53.98 2.205 54.65C1.835 55.31 1.65 56.215 1.65 57.365C1.65 58.585 1.835 59.515 2.205 60.155C2.575 60.785 3.095 61.1 3.765 61.1ZM8.19 62V55.1H9.465V56.24C9.725 55.84 10.045 55.525 10.425 55.295C10.805 55.055 11.225 54.935 11.685 54.935C12.065 54.935 12.415 55.035 12.735 55.235C13.055 55.425 13.305 55.73 13.485 56.15C13.675 56.57 13.77 57.13 13.77 57.83V62H12.51V57.86C12.51 57.19 12.395 56.715 12.165 56.435C11.945 56.145 11.665 56 11.325 56C11.045 56 10.76 56.08 10.47 56.24C10.18 56.4 9.94 56.63 9.75 56.93C9.56 57.23 9.465 57.58 9.465 57.98V62H8.19ZM18.48 62.15C17.47 62.15 16.65 61.845 16.02 61.235C15.4 60.615 15.09 59.73 15.09 58.58C15.09 57.81 15.23 57.155 15.51 56.615C15.8 56.065 16.185 55.65 16.665 55.37C17.155 55.08 17.695 54.935 18.285 54.935C18.805 54.935 19.28 55.055 19.71 55.295C20.15 55.535 20.495 55.9 20.745 56.39C21.005 56.88 21.135 57.495 21.135 58.235C21.135 58.325 21.13 58.425 21.12 58.535C21.12 58.635 21.115 58.725 21.105 58.805H16.32C16.36 59.615 16.595 60.205 17.025 60.575C17.455 60.945 17.955 61.13 18.525 61.13C18.865 61.13 19.18 61.075 19.47 60.965C19.76 60.845 20.02 60.66 20.25 60.41L20.94 61.07C20.34 61.79 19.52 62.15 18.48 62.15ZM16.365 57.83H19.86C19.86 57.24 19.71 56.775 19.41 56.435C19.11 56.095 18.71 55.925 18.21 55.925C17.76 55.925 17.36 56.08 17.01 56.39C16.66 56.69 16.445 57.17 16.365 57.83ZM31.11 56.12H29.625V55.1H31.11V54.59C31.11 53.97 31.225 53.465 31.455 53.075C31.695 52.675 32.015 52.38 32.415 52.19C32.815 52 33.26 51.905 33.75 51.905C34.2 51.905 34.615 51.985 34.995 52.145C35.385 52.305 35.71 52.54 35.97 52.85L35.37 53.765L35.295 53.885L35.19 53.825C35.17 53.745 35.145 53.665 35.115 53.585C35.085 53.505 35.015 53.41 34.905 53.3C34.605 53.05 34.24 52.925 33.81 52.925C33.38 52.925 33.03 53.055 32.76 53.315C32.5 53.565 32.37 53.985 32.37 54.575V55.1H34.56V56.12H32.37V62H31.11V56.12ZM39.75 62.135C39.13 62.135 38.575 61.985 38.085 61.685C37.605 61.375 37.225 60.95 36.945 60.41C36.665 59.87 36.525 59.25 36.525 58.55C36.525 57.85 36.665 57.23 36.945 56.69C37.225 56.15 37.605 55.725 38.085 55.415C38.575 55.105 39.13 54.95 39.75 54.95C40.37 54.95 40.92 55.105 41.4 55.415C41.89 55.725 42.275 56.15 42.555 56.69C42.835 57.23 42.975 57.85 42.975 58.55C42.975 59.25 42.835 59.87 42.555 60.41C42.275 60.95 41.89 61.375 41.4 61.685C40.92 61.985 40.37 62.135 39.75 62.135ZM39.75 61.085C40.3 61.085 40.75 60.85 41.1 60.38C41.46 59.9 41.64 59.285 41.64 58.535C41.64 57.785 41.46 57.175 41.1 56.705C40.75 56.235 40.3 56 39.75 56C39.2 56 38.745 56.235 38.385 56.705C38.035 57.175 37.86 57.785 37.86 58.535C37.86 59.285 38.035 59.9 38.385 60.38C38.745 60.85 39.2 61.085 39.75 61.085ZM44.835 55.1H46.17L46.155 56.33C46.345 55.88 46.635 55.535 47.025 55.295C47.415 55.055 47.83 54.935 48.27 54.935C49.01 54.935 49.625 55.19 50.115 55.7L49.56 56.735L49.5 56.87L49.395 56.81C49.365 56.73 49.33 56.655 49.29 56.585C49.26 56.505 49.18 56.415 49.05 56.315C48.77 56.125 48.465 56.03 48.135 56.03C47.805 56.03 47.485 56.11 47.175 56.27C46.875 56.43 46.625 56.685 46.425 57.035C46.235 57.375 46.14 57.815 46.14 58.355V62.015H44.835V55.1ZM61.41 62.15C60.81 62.15 60.255 62.065 59.745 61.895C59.245 61.715 58.795 61.44 58.395 61.07L59.04 59.93L59.13 59.795L59.22 59.855C59.24 59.935 59.265 60.02 59.295 60.11C59.325 60.19 59.395 60.29 59.505 60.41C59.735 60.62 60 60.79 60.3 60.92C60.6 61.05 60.98 61.115 61.44 61.115C61.94 61.115 62.33 61.025 62.61 60.845C62.89 60.665 63.03 60.425 63.03 60.125C63.03 59.855 62.9 59.635 62.64 59.465C62.39 59.285 61.955 59.1 61.335 58.91C60.555 58.69 59.935 58.41 59.475 58.07C59.015 57.73 58.785 57.295 58.785 56.765C58.785 56.225 59.01 55.785 59.46 55.445C59.91 55.105 60.55 54.935 61.38 54.935C62 54.935 62.525 55.025 62.955 55.205C63.395 55.385 63.79 55.655 64.14 56.015L63.45 56.9L63.345 57.02L63.27 56.945C63.26 56.865 63.235 56.79 63.195 56.72C63.165 56.64 63.09 56.545 62.97 56.435C62.75 56.265 62.5 56.135 62.22 56.045C61.95 55.955 61.68 55.91 61.41 55.91C61.03 55.91 60.7 55.98 60.42 56.12C60.15 56.25 60.015 56.445 60.015 56.705C60.015 56.925 60.145 57.13 60.405 57.32C60.665 57.51 61.16 57.705 61.89 57.905C62.74 58.155 63.345 58.44 63.705 58.76C64.075 59.08 64.26 59.49 64.26 59.99C64.26 60.38 64.155 60.74 63.945 61.07C63.735 61.4 63.415 61.665 62.985 61.865C62.565 62.055 62.04 62.15 61.41 62.15ZM68.55 62.135C67.93 62.135 67.375 61.985 66.885 61.685C66.405 61.375 66.025 60.95 65.745 60.41C65.465 59.87 65.325 59.25 65.325 58.55C65.325 57.85 65.465 57.23 65.745 56.69C66.025 56.15 66.405 55.725 66.885 55.415C67.375 55.105 67.93 54.95 68.55 54.95C69.17 54.95 69.72 55.105 70.2 55.415C70.69 55.725 71.075 56.15 71.355 56.69C71.635 57.23 71.775 57.85 71.775 58.55C71.775 59.25 71.635 59.87 71.355 60.41C71.075 60.95 70.69 61.375 70.2 61.685C69.72 61.985 69.17 62.135 68.55 62.135ZM68.55 61.085C69.1 61.085 69.55 60.85 69.9 60.38C70.26 59.9 70.44 59.285 70.44 58.535C70.44 57.785 70.26 57.175 69.9 56.705C69.55 56.235 69.1 56 68.55 56C68 56 67.545 56.235 67.185 56.705C66.835 57.175 66.66 57.785 66.66 58.535C66.66 59.285 66.835 59.9 67.185 60.38C67.545 60.85 68 61.085 68.55 61.085ZM73.635 55.1H74.97L74.955 56.33C75.145 55.88 75.435 55.535 75.825 55.295C76.215 55.055 76.63 54.935 77.07 54.935C77.81 54.935 78.425 55.19 78.915 55.7L78.36 56.735L78.3 56.87L78.195 56.81C78.165 56.73 78.13 56.655 78.09 56.585C78.06 56.505 77.98 56.415 77.85 56.315C77.57 56.125 77.265 56.03 76.935 56.03C76.605 56.03 76.285 56.11 75.975 56.27C75.675 56.43 75.425 56.685 75.225 57.035C75.035 57.375 74.94 57.815 74.94 58.355V62.015H73.635V55.1ZM80.835 55.1H82.17L82.155 56.33C82.345 55.88 82.635 55.535 83.025 55.295C83.415 55.055 83.83 54.935 84.27 54.935C85.01 54.935 85.625 55.19 86.115 55.7L85.56 56.735L85.5 56.87L85.395 56.81C85.365 56.73 85.33 56.655 85.29 56.585C85.26 56.505 85.18 56.415 85.05 56.315C84.77 56.125 84.465 56.03 84.135 56.03C83.805 56.03 83.485 56.11 83.175 56.27C82.875 56.43 82.625 56.685 82.425 57.035C82.235 57.375 82.14 57.815 82.14 58.355V62.015H80.835V55.1ZM90.15 62.135C89.53 62.135 88.975 61.985 88.485 61.685C88.005 61.375 87.625 60.95 87.345 60.41C87.065 59.87 86.925 59.25 86.925 58.55C86.925 57.85 87.065 57.23 87.345 56.69C87.625 56.15 88.005 55.725 88.485 55.415C88.975 55.105 89.53 54.95 90.15 54.95C90.77 54.95 91.32 55.105 91.8 55.415C92.29 55.725 92.675 56.15 92.955 56.69C93.235 57.23 93.375 57.85 93.375 58.55C93.375 59.25 93.235 59.87 92.955 60.41C92.675 60.95 92.29 61.375 91.8 61.685C91.32 61.985 90.77 62.135 90.15 62.135ZM90.15 61.085C90.7 61.085 91.15 60.85 91.5 60.38C91.86 59.9 92.04 59.285 92.04 58.535C92.04 57.785 91.86 57.175 91.5 56.705C91.15 56.235 90.7 56 90.15 56C89.6 56 89.145 56.235 88.785 56.705C88.435 57.175 88.26 57.785 88.26 58.535C88.26 59.285 88.435 59.9 88.785 60.38C89.145 60.85 89.6 61.085 90.15 61.085ZM95.16 62.015L93.81 55.1H94.92L95.925 60.365L97.035 55.79H97.77L99.135 60.35C99.255 59.54 99.35 58.87 99.42 58.34C99.49 57.8 99.545 57.355 99.585 57.005C99.625 56.655 99.65 56.36 99.66 56.12C99.68 55.87 99.69 55.625 99.69 55.385V55.1H100.845C100.715 56.25 100.555 57.41 100.365 58.58C100.175 59.74 99.965 60.885 99.735 62.015H98.565L97.395 57.785L96.3 62.015H95.16ZM103.86 64.535L103.215 63.98C103.485 63.72 103.705 63.445 103.875 63.155C104.055 62.875 104.145 62.64 104.145 62.45C104.145 62.31 104.085 62.185 103.965 62.075C103.845 61.965 103.72 61.845 103.59 61.715C103.47 61.575 103.41 61.41 103.41 61.22C103.41 60.94 103.5 60.715 103.68 60.545C103.87 60.365 104.105 60.275 104.385 60.275C104.685 60.275 104.94 60.4 105.15 60.65C105.37 60.9 105.48 61.22 105.48 61.61C105.48 62.44 104.94 63.415 103.86 64.535ZM118.23 62V53.75H115.62V52.64H122.205V53.75H119.49V62H118.23ZM123.96 62.015L122.61 55.1H123.72L124.725 60.365L125.835 55.79H126.57L127.935 60.35C128.055 59.54 128.15 58.87 128.22 58.34C128.29 57.8 128.345 57.355 128.385 57.005C128.425 56.655 128.45 56.36 128.46 56.12C128.48 55.87 128.49 55.625 128.49 55.385V55.1H129.645C129.515 56.25 129.355 57.41 129.165 58.58C128.975 59.74 128.765 60.885 128.535 62.015H127.365L126.195 57.785L125.1 62.015H123.96ZM133.35 62.135C132.73 62.135 132.175 61.985 131.685 61.685C131.205 61.375 130.825 60.95 130.545 60.41C130.265 59.87 130.125 59.25 130.125 58.55C130.125 57.85 130.265 57.23 130.545 56.69C130.825 56.15 131.205 55.725 131.685 55.415C132.175 55.105 132.73 54.95 133.35 54.95C133.97 54.95 134.52 55.105 135 55.415C135.49 55.725 135.875 56.15 136.155 56.69C136.435 57.23 136.575 57.85 136.575 58.55C136.575 59.25 136.435 59.87 136.155 60.41C135.875 60.95 135.49 61.375 135 61.685C134.52 61.985 133.97 62.135 133.35 62.135ZM133.35 61.085C133.9 61.085 134.35 60.85 134.7 60.38C135.06 59.9 135.24 59.285 135.24 58.535C135.24 57.785 135.06 57.175 134.7 56.705C134.35 56.235 133.9 56 133.35 56C132.8 56 132.345 56.235 131.985 56.705C131.635 57.175 131.46 57.785 131.46 58.535C131.46 59.285 131.635 59.9 131.985 60.38C132.345 60.85 132.8 61.085 133.35 61.085ZM146.31 56.12H144.825V55.1H146.31V54.59C146.31 53.97 146.425 53.465 146.655 53.075C146.895 52.675 147.215 52.38 147.615 52.19C148.015 52 148.46 51.905 148.95 51.905C149.4 51.905 149.815 51.985 150.195 52.145C150.585 52.305 150.91 52.54 151.17 52.85L150.57 53.765L150.495 53.885L150.39 53.825C150.37 53.745 150.345 53.665 150.315 53.585C150.285 53.505 150.215 53.41 150.105 53.3C149.805 53.05 149.44 52.925 149.01 52.925C148.58 52.925 148.23 53.055 147.96 53.315C147.7 53.565 147.57 53.985 147.57 54.575V55.1H149.76V56.12H147.57V62H146.31V56.12ZM154.95 62.135C154.33 62.135 153.775 61.985 153.285 61.685C152.805 61.375 152.425 60.95 152.145 60.41C151.865 59.87 151.725 59.25 151.725 58.55C151.725 57.85 151.865 57.23 152.145 56.69C152.425 56.15 152.805 55.725 153.285 55.415C153.775 55.105 154.33 54.95 154.95 54.95C155.57 54.95 156.12 55.105 156.6 55.415C157.09 55.725 157.475 56.15 157.755 56.69C158.035 57.23 158.175 57.85 158.175 58.55C158.175 59.25 158.035 59.87 157.755 60.41C157.475 60.95 157.09 61.375 156.6 61.685C156.12 61.985 155.57 62.135 154.95 62.135ZM154.95 61.085C155.5 61.085 155.95 60.85 156.3 60.38C156.66 59.9 156.84 59.285 156.84 58.535C156.84 57.785 156.66 57.175 156.3 56.705C155.95 56.235 155.5 56 154.95 56C154.4 56 153.945 56.235 153.585 56.705C153.235 57.175 153.06 57.785 153.06 58.535C153.06 59.285 153.235 59.9 153.585 60.38C153.945 60.85 154.4 61.085 154.95 61.085ZM160.035 55.1H161.37L161.355 56.33C161.545 55.88 161.835 55.535 162.225 55.295C162.615 55.055 163.03 54.935 163.47 54.935C164.21 54.935 164.825 55.19 165.315 55.7L164.76 56.735L164.7 56.87L164.595 56.81C164.565 56.73 164.53 56.655 164.49 56.585C164.46 56.505 164.38 56.415 164.25 56.315C163.97 56.125 163.665 56.03 163.335 56.03C163.005 56.03 162.685 56.11 162.375 56.27C162.075 56.43 161.825 56.685 161.625 57.035C161.435 57.375 161.34 57.815 161.34 58.355V62.015H160.035V55.1ZM0.525 83V76.1H1.665V76.73C1.825 76.48 2.025 76.285 2.265 76.145C2.505 76.005 2.75 75.935 3 75.935C3.28 75.935 3.53 76.02 3.75 76.19C3.98 76.36 4.13 76.595 4.2 76.895C4.34 76.595 4.545 76.36 4.815 76.19C5.085 76.02 5.39 75.935 5.73 75.935C6.21 75.935 6.56 76.105 6.78 76.445C7 76.785 7.1 77.23 7.08 77.78V83H5.925V78.17C5.925 77.79 5.9 77.51 5.85 77.33C5.81 77.14 5.745 77.02 5.655 76.97C5.575 76.91 5.475 76.88 5.355 76.88C5.185 76.88 5.025 76.96 4.875 77.12C4.725 77.27 4.6 77.47 4.5 77.72C4.41 77.96 4.365 78.215 4.365 78.485V83H3.24V78.245C3.24 77.705 3.19 77.345 3.09 77.165C3 76.985 2.83 76.895 2.58 76.895C2.37 76.895 2.165 77.03 1.965 77.3C1.775 77.56 1.68 77.935 1.68 78.425V83H0.525ZM8.625 83V81.98H10.365V77.135H8.715V76.1H11.655V81.98H13.245V83H8.625ZM10.935 74.765C10.695 74.765 10.49 74.68 10.32 74.51C10.15 74.34 10.065 74.14 10.065 73.91C10.065 73.67 10.145 73.47 10.305 73.31C10.475 73.14 10.685 73.055 10.935 73.055C11.165 73.055 11.365 73.14 11.535 73.31C11.715 73.48 11.805 73.68 11.805 73.91C11.805 74.14 11.715 74.34 11.535 74.51C11.365 74.68 11.165 74.765 10.935 74.765ZM16.035 76.1H17.37L17.355 77.33C17.545 76.88 17.835 76.535 18.225 76.295C18.615 76.055 19.03 75.935 19.47 75.935C20.21 75.935 20.825 76.19 21.315 76.7L20.76 77.735L20.7 77.87L20.595 77.81C20.565 77.73 20.53 77.655 20.49 77.585C20.46 77.505 20.38 77.415 20.25 77.315C19.97 77.125 19.665 77.03 19.335 77.03C19.005 77.03 18.685 77.11 18.375 77.27C18.075 77.43 17.825 77.685 17.625 78.035C17.435 78.375 17.34 78.815 17.34 79.355V83.015H16.035V76.1ZM26.085 83.12C25.225 83.12 24.64 82.825 24.33 82.235C24.03 81.645 23.905 80.67 23.955 79.31L24.03 77.135H22.59V76.1H24.075L24.135 74.39L25.47 74.225L25.62 74.21L25.635 74.315C25.585 74.385 25.54 74.46 25.5 74.54C25.47 74.61 25.445 74.725 25.425 74.885L25.335 76.1H27.675V77.135H25.335L25.23 79.355C25.2 80.085 25.22 80.645 25.29 81.035C25.36 81.425 25.48 81.695 25.65 81.845C25.82 81.995 26.045 82.07 26.325 82.07C26.655 82.07 26.945 82.005 27.195 81.875C27.455 81.745 27.715 81.585 27.975 81.395L28.305 82.37C27.635 82.87 26.895 83.12 26.085 83.12ZM29.805 72.995H31.2V73.115C31.15 73.175 31.115 73.24 31.095 73.31C31.085 73.38 31.08 73.5 31.08 73.67V77.225C31.34 76.825 31.665 76.51 32.055 76.28C32.455 76.05 32.855 75.935 33.255 75.935C33.885 75.935 34.395 76.16 34.785 76.61C35.185 77.05 35.385 77.79 35.385 78.83V83H34.125V78.86C34.125 78.17 34.01 77.69 33.78 77.42C33.56 77.14 33.285 77 32.955 77C32.655 77 32.36 77.085 32.07 77.255C31.78 77.415 31.54 77.645 31.35 77.945C31.17 78.245 31.08 78.61 31.08 79.04V83H29.805V72.995ZM39.06 85.535L38.415 84.98C38.685 84.72 38.905 84.445 39.075 84.155C39.255 83.875 39.345 83.64 39.345 83.45C39.345 83.31 39.285 83.185 39.165 83.075C39.045 82.965 38.92 82.845 38.79 82.715C38.67 82.575 38.61 82.41 38.61 82.22C38.61 81.94 38.7 81.715 38.88 81.545C39.07 81.365 39.305 81.275 39.585 81.275C39.885 81.275 40.14 81.4 40.35 81.65C40.57 81.9 40.68 82.22 40.68 82.61C40.68 83.44 40.14 84.415 39.06 85.535ZM53.43 83V74.75H50.82V73.64H57.405V74.75H54.69V83H53.43ZM58.605 72.995H60V73.115C59.95 73.175 59.915 73.24 59.895 73.31C59.885 73.38 59.88 73.5 59.88 73.67V77.225C60.14 76.825 60.465 76.51 60.855 76.28C61.255 76.05 61.655 75.935 62.055 75.935C62.685 75.935 63.195 76.16 63.585 76.61C63.985 77.05 64.185 77.79 64.185 78.83V83H62.925V78.86C62.925 78.17 62.81 77.69 62.58 77.42C62.36 77.14 62.085 77 61.755 77C61.455 77 61.16 77.085 60.87 77.255C60.58 77.415 60.34 77.645 60.15 77.945C59.97 78.245 59.88 78.61 59.88 79.04V83H58.605V72.995ZM66.435 76.1H67.77L67.755 77.33C67.945 76.88 68.235 76.535 68.625 76.295C69.015 76.055 69.43 75.935 69.87 75.935C70.61 75.935 71.225 76.19 71.715 76.7L71.16 77.735L71.1 77.87L70.995 77.81C70.965 77.73 70.93 77.655 70.89 77.585C70.86 77.505 70.78 77.415 70.65 77.315C70.37 77.125 70.065 77.03 69.735 77.03C69.405 77.03 69.085 77.11 68.775 77.27C68.475 77.43 68.225 77.685 68.025 78.035C67.835 78.375 67.74 78.815 67.74 79.355V83.015H66.435V76.1ZM76.08 83.15C75.07 83.15 74.25 82.845 73.62 82.235C73 81.615 72.69 80.73 72.69 79.58C72.69 78.81 72.83 78.155 73.11 77.615C73.4 77.065 73.785 76.65 74.265 76.37C74.755 76.08 75.295 75.935 75.885 75.935C76.405 75.935 76.88 76.055 77.31 76.295C77.75 76.535 78.095 76.9 78.345 77.39C78.605 77.88 78.735 78.495 78.735 79.235C78.735 79.325 78.73 79.425 78.72 79.535C78.72 79.635 78.715 79.725 78.705 79.805H73.92C73.96 80.615 74.195 81.205 74.625 81.575C75.055 81.945 75.555 82.13 76.125 82.13C76.465 82.13 76.78 82.075 77.07 81.965C77.36 81.845 77.62 81.66 77.85 81.41L78.54 82.07C77.94 82.79 77.12 83.15 76.08 83.15ZM73.965 78.83H77.46C77.46 78.24 77.31 77.775 77.01 77.435C76.71 77.095 76.31 76.925 75.81 76.925C75.36 76.925 74.96 77.08 74.61 77.39C74.26 77.69 74.045 78.17 73.965 78.83ZM83.28 83.15C82.27 83.15 81.45 82.845 80.82 82.235C80.2 81.615 79.89 80.73 79.89 79.58C79.89 78.81 80.03 78.155 80.31 77.615C80.6 77.065 80.985 76.65 81.465 76.37C81.955 76.08 82.495 75.935 83.085 75.935C83.605 75.935 84.08 76.055 84.51 76.295C84.95 76.535 85.295 76.9 85.545 77.39C85.805 77.88 85.935 78.495 85.935 79.235C85.935 79.325 85.93 79.425 85.92 79.535C85.92 79.635 85.915 79.725 85.905 79.805H81.12C81.16 80.615 81.395 81.205 81.825 81.575C82.255 81.945 82.755 82.13 83.325 82.13C83.665 82.13 83.98 82.075 84.27 81.965C84.56 81.845 84.82 81.66 85.05 81.41L85.74 82.07C85.14 82.79 84.32 83.15 83.28 83.15ZM81.165 78.83H84.66C84.66 78.24 84.51 77.775 84.21 77.435C83.91 77.095 83.51 76.925 83.01 76.925C82.56 76.925 82.16 77.08 81.81 77.39C81.46 77.69 81.245 78.17 81.165 78.83ZM95.91 77.12H94.425V76.1H95.91V75.59C95.91 74.97 96.025 74.465 96.255 74.075C96.495 73.675 96.815 73.38 97.215 73.19C97.615 73 98.06 72.905 98.55 72.905C99 72.905 99.415 72.985 99.795 73.145C100.185 73.305 100.51 73.54 100.77 73.85L100.17 74.765L100.095 74.885L99.99 74.825C99.97 74.745 99.945 74.665 99.915 74.585C99.885 74.505 99.815 74.41 99.705 74.3C99.405 74.05 99.04 73.925 98.61 73.925C98.18 73.925 97.83 74.055 97.56 74.315C97.3 74.565 97.17 74.985 97.17 75.575V76.1H99.36V77.12H97.17V83H95.91V77.12ZM104.55 83.135C103.93 83.135 103.375 82.985 102.885 82.685C102.405 82.375 102.025 81.95 101.745 81.41C101.465 80.87 101.325 80.25 101.325 79.55C101.325 78.85 101.465 78.23 101.745 77.69C102.025 77.15 102.405 76.725 102.885 76.415C103.375 76.105 103.93 75.95 104.55 75.95C105.17 75.95 105.72 76.105 106.2 76.415C106.69 76.725 107.075 77.15 107.355 77.69C107.635 78.23 107.775 78.85 107.775 79.55C107.775 80.25 107.635 80.87 107.355 81.41C107.075 81.95 106.69 82.375 106.2 82.685C105.72 82.985 105.17 83.135 104.55 83.135ZM104.55 82.085C105.1 82.085 105.55 81.85 105.9 81.38C106.26 80.9 106.44 80.285 106.44 79.535C106.44 78.785 106.26 78.175 105.9 77.705C105.55 77.235 105.1 77 104.55 77C104 77 103.545 77.235 103.185 77.705C102.835 78.175 102.66 78.785 102.66 79.535C102.66 80.285 102.835 80.9 103.185 81.38C103.545 81.85 104 82.085 104.55 82.085ZM109.635 76.1H110.97L110.955 77.33C111.145 76.88 111.435 76.535 111.825 76.295C112.215 76.055 112.63 75.935 113.07 75.935C113.81 75.935 114.425 76.19 114.915 76.7L114.36 77.735L114.3 77.87L114.195 77.81C114.165 77.73 114.13 77.655 114.09 77.585C114.06 77.505 113.98 77.415 113.85 77.315C113.57 77.125 113.265 77.03 112.935 77.03C112.605 77.03 112.285 77.11 111.975 77.27C111.675 77.43 111.425 77.685 111.225 78.035C111.035 78.375 110.94 78.815 110.94 79.355V83.015H109.635V76.1ZM125.505 83.165C124.725 83.165 124.125 82.99 123.705 82.64C123.285 82.28 123.075 81.82 123.075 81.26C123.075 80.77 123.225 80.34 123.525 79.97C123.835 79.6 124.26 79.315 124.8 79.115C125.34 78.915 125.965 78.815 126.675 78.815C126.845 78.815 127.035 78.82 127.245 78.83C127.455 78.83 127.675 78.84 127.905 78.86C127.845 78.14 127.65 77.65 127.32 77.39C127 77.12 126.55 76.985 125.97 76.985C125.64 76.985 125.32 77.045 125.01 77.165C124.71 77.285 124.425 77.475 124.155 77.735L123.495 76.94C123.845 76.6 124.235 76.35 124.665 76.19C125.105 76.03 125.565 75.95 126.045 75.95C126.645 75.95 127.175 76.05 127.635 76.25C128.095 76.44 128.455 76.775 128.715 77.255C128.975 77.735 129.105 78.395 129.105 79.235V83H127.74V82.055C127.48 82.505 127.14 82.805 126.72 82.955C126.31 83.095 125.905 83.165 125.505 83.165ZM124.35 81.14C124.35 81.54 124.475 81.815 124.725 81.965C124.985 82.105 125.305 82.175 125.685 82.175C126.355 82.175 126.88 81.975 127.26 81.575C127.65 81.175 127.87 80.585 127.92 79.805C127.51 79.765 127.11 79.745 126.72 79.745C125.97 79.745 125.385 79.86 124.965 80.09C124.555 80.32 124.35 80.67 124.35 81.14ZM1.56 104.015L0.21 97.1H1.32L2.325 102.365L3.435 97.79H4.17L5.535 102.35C5.655 101.54 5.75 100.87 5.82 100.34C5.89 99.8 5.945 99.355 5.985 99.005C6.025 98.655 6.05 98.36 6.06 98.12C6.08 97.87 6.09 97.625 6.09 97.385V97.1H7.245C7.115 98.25 6.955 99.41 6.765 100.58C6.575 101.74 6.365 102.885 6.135 104.015H4.965L3.795 99.785L2.7 104.015H1.56ZM11.28 104.15C10.27 104.15 9.45 103.845 8.82 103.235C8.2 102.615 7.89 101.73 7.89 100.58C7.89 99.81 8.03 99.155 8.31 98.615C8.6 98.065 8.985 97.65 9.465 97.37C9.955 97.08 10.495 96.935 11.085 96.935C11.605 96.935 12.08 97.055 12.51 97.295C12.95 97.535 13.295 97.9 13.545 98.39C13.805 98.88 13.935 99.495 13.935 100.235C13.935 100.325 13.93 100.425 13.92 100.535C13.92 100.635 13.915 100.725 13.905 100.805H9.12C9.16 101.615 9.395 102.205 9.825 102.575C10.255 102.945 10.755 103.13 11.325 103.13C11.665 103.13 11.98 103.075 12.27 102.965C12.56 102.845 12.82 102.66 13.05 102.41L13.74 103.07C13.14 103.79 12.32 104.15 11.28 104.15ZM9.165 99.83H12.66C12.66 99.24 12.51 98.775 12.21 98.435C11.91 98.095 11.51 97.925 11.01 97.925C10.56 97.925 10.16 98.08 9.81 98.39C9.46 98.69 9.245 99.17 9.165 99.83ZM17.865 104.15C17.385 104.15 16.925 104.02 16.485 103.76C16.055 103.49 15.7 103.085 15.42 102.545C15.15 101.995 15.015 101.31 15.015 100.49C15.015 99.67 15.155 99 15.435 98.48C15.715 97.95 16.075 97.56 16.515 97.31C16.955 97.05 17.42 96.92 17.91 96.92C18.34 96.92 18.72 97.015 19.05 97.205C19.38 97.395 19.63 97.655 19.8 97.985V93.995H21.165V94.115C21.105 94.175 21.065 94.24 21.045 94.31C21.035 94.38 21.03 94.5 21.03 94.67L21.045 102.98C21.045 103.15 21.05 103.32 21.06 103.49C21.08 103.66 21.125 103.83 21.195 104H19.935C19.855 103.83 19.81 103.67 19.8 103.52C19.79 103.37 19.785 103.21 19.785 103.04C19.575 103.39 19.305 103.665 18.975 103.865C18.655 104.055 18.285 104.15 17.865 104.15ZM18.075 103.07C18.675 103.07 19.1 102.835 19.35 102.365C19.61 101.885 19.74 101.27 19.74 100.52C19.74 99.75 19.6 99.13 19.32 98.66C19.04 98.19 18.6 97.955 18 97.955C17.44 97.955 17.01 98.175 16.71 98.615C16.42 99.055 16.275 99.64 16.275 100.37C16.275 101.19 16.435 101.845 16.755 102.335C17.075 102.825 17.515 103.07 18.075 103.07ZM25.065 104.15C24.585 104.15 24.125 104.02 23.685 103.76C23.255 103.49 22.9 103.085 22.62 102.545C22.35 101.995 22.215 101.31 22.215 100.49C22.215 99.67 22.355 99 22.635 98.48C22.915 97.95 23.275 97.56 23.715 97.31C24.155 97.05 24.62 96.92 25.11 96.92C25.54 96.92 25.92 97.015 26.25 97.205C26.58 97.395 26.83 97.655 27 97.985V93.995H28.365V94.115C28.305 94.175 28.265 94.24 28.245 94.31C28.235 94.38 28.23 94.5 28.23 94.67L28.245 102.98C28.245 103.15 28.25 103.32 28.26 103.49C28.28 103.66 28.325 103.83 28.395 104H27.135C27.055 103.83 27.01 103.67 27 103.52C26.99 103.37 26.985 103.21 26.985 103.04C26.775 103.39 26.505 103.665 26.175 103.865C25.855 104.055 25.485 104.15 25.065 104.15ZM25.275 103.07C25.875 103.07 26.3 102.835 26.55 102.365C26.81 101.885 26.94 101.27 26.94 100.52C26.94 99.75 26.8 99.13 26.52 98.66C26.24 98.19 25.8 97.955 25.2 97.955C24.64 97.955 24.21 98.175 23.91 98.615C23.62 99.055 23.475 99.64 23.475 100.37C23.475 101.19 23.635 101.845 23.955 102.335C24.275 102.825 24.715 103.07 25.275 103.07ZM30.225 104V102.98H31.965V98.135H30.315V97.1H33.255V102.98H34.845V104H30.225ZM32.535 95.765C32.295 95.765 32.09 95.68 31.92 95.51C31.75 95.34 31.665 95.14 31.665 94.91C31.665 94.67 31.745 94.47 31.905 94.31C32.075 94.14 32.285 94.055 32.535 94.055C32.765 94.055 32.965 94.14 33.135 94.31C33.315 94.48 33.405 94.68 33.405 94.91C33.405 95.14 33.315 95.34 33.135 95.51C32.965 95.68 32.765 95.765 32.535 95.765ZM36.99 104V97.1H38.265V98.24C38.525 97.84 38.845 97.525 39.225 97.295C39.605 97.055 40.025 96.935 40.485 96.935C40.865 96.935 41.215 97.035 41.535 97.235C41.855 97.425 42.105 97.73 42.285 98.15C42.475 98.57 42.57 99.13 42.57 99.83V104H41.31V99.86C41.31 99.19 41.195 98.715 40.965 98.435C40.745 98.145 40.465 98 40.125 98C39.845 98 39.56 98.08 39.27 98.24C38.98 98.4 38.74 98.63 38.55 98.93C38.36 99.23 38.265 99.58 38.265 99.98V104H36.99ZM46.605 101.66C46.235 101.66 45.89 101.595 45.57 101.465C45.47 101.575 45.395 101.675 45.345 101.765C45.305 101.845 45.285 101.94 45.285 102.05C45.285 102.27 45.445 102.43 45.765 102.53C46.085 102.63 46.655 102.68 47.475 102.68C48.145 102.68 48.655 102.76 49.005 102.92C49.365 103.07 49.61 103.28 49.74 103.55C49.88 103.82 49.95 104.125 49.95 104.465C49.95 104.825 49.845 105.17 49.635 105.5C49.435 105.83 49.105 106.095 48.645 106.295C48.195 106.505 47.6 106.61 46.86 106.61C45.89 106.61 45.125 106.455 44.565 106.145C44.005 105.845 43.725 105.405 43.725 104.825C43.725 104.475 43.825 104.17 44.025 103.91C44.225 103.65 44.475 103.45 44.775 103.31C44.415 103.08 44.235 102.765 44.235 102.365C44.235 102.125 44.295 101.9 44.415 101.69C44.545 101.47 44.715 101.265 44.925 101.075C44.405 100.615 44.145 100.01 44.145 99.26C44.145 98.82 44.245 98.42 44.445 98.06C44.655 97.69 44.945 97.4 45.315 97.19C45.685 96.97 46.115 96.86 46.605 96.86C46.965 96.86 47.29 96.92 47.58 97.04C47.88 97.16 48.135 97.32 48.345 97.52C48.605 97.3 48.885 97.14 49.185 97.04C49.495 96.94 49.84 96.9 50.22 96.92L50.37 97.91C50.09 97.87 49.815 97.87 49.545 97.91C49.285 97.94 49.045 98.025 48.825 98.165C48.985 98.505 49.065 98.87 49.065 99.26C49.065 99.71 48.965 100.12 48.765 100.49C48.565 100.85 48.28 101.135 47.91 101.345C47.54 101.555 47.105 101.66 46.605 101.66ZM46.605 100.655C47.005 100.655 47.335 100.52 47.595 100.25C47.865 99.98 48 99.65 48 99.26C48 98.88 47.865 98.555 47.595 98.285C47.335 98.015 47.005 97.88 46.605 97.88C46.215 97.88 45.885 98.015 45.615 98.285C45.355 98.555 45.225 98.88 45.225 99.26C45.225 99.65 45.355 99.98 45.615 100.25C45.875 100.52 46.205 100.655 46.605 100.655ZM44.82 104.66C44.82 104.98 45.01 105.22 45.39 105.38C45.77 105.55 46.28 105.635 46.92 105.635C47.56 105.635 48.035 105.54 48.345 105.35C48.665 105.17 48.825 104.93 48.825 104.63C48.825 104.43 48.78 104.265 48.69 104.135C48.61 104.015 48.45 103.925 48.21 103.865C47.98 103.805 47.635 103.775 47.175 103.775C46.835 103.775 46.52 103.76 46.23 103.73C45.94 103.7 45.675 103.655 45.435 103.595C45.235 103.735 45.08 103.88 44.97 104.03C44.87 104.19 44.82 104.4 44.82 104.66ZM53.46 106.535L52.815 105.98C53.085 105.72 53.305 105.445 53.475 105.155C53.655 104.875 53.745 104.64 53.745 104.45C53.745 104.31 53.685 104.185 53.565 104.075C53.445 103.965 53.32 103.845 53.19 103.715C53.07 103.575 53.01 103.41 53.01 103.22C53.01 102.94 53.1 102.715 53.28 102.545C53.47 102.365 53.705 102.275 53.985 102.275C54.285 102.275 54.54 102.4 54.75 102.65C54.97 102.9 55.08 103.22 55.08 103.61C55.08 104.44 54.54 105.415 53.46 106.535ZM70.785 104L69.945 101.45H67.11L66.27 104H65.025L68.37 94.52H68.73L72.075 104H70.785ZM68.535 97.175L67.425 100.505H69.645L68.535 97.175ZM72.99 104V97.1H74.265V98.24C74.525 97.84 74.845 97.525 75.225 97.295C75.605 97.055 76.025 96.935 76.485 96.935C76.865 96.935 77.215 97.035 77.535 97.235C77.855 97.425 78.105 97.73 78.285 98.15C78.475 98.57 78.57 99.13 78.57 99.83V104H77.31V99.86C77.31 99.19 77.195 98.715 76.965 98.435C76.745 98.145 76.465 98 76.125 98C75.845 98 75.56 98.08 75.27 98.24C74.98 98.4 74.74 98.63 74.55 98.93C74.36 99.23 74.265 99.58 74.265 99.98V104H72.99ZM82.665 104.15C82.185 104.15 81.725 104.02 81.285 103.76C80.855 103.49 80.5 103.085 80.22 102.545C79.95 101.995 79.815 101.31 79.815 100.49C79.815 99.67 79.955 99 80.235 98.48C80.515 97.95 80.875 97.56 81.315 97.31C81.755 97.05 82.22 96.92 82.71 96.92C83.14 96.92 83.52 97.015 83.85 97.205C84.18 97.395 84.43 97.655 84.6 97.985V93.995H85.965V94.115C85.905 94.175 85.865 94.24 85.845 94.31C85.835 94.38 85.83 94.5 85.83 94.67L85.845 102.98C85.845 103.15 85.85 103.32 85.86 103.49C85.88 103.66 85.925 103.83 85.995 104H84.735C84.655 103.83 84.61 103.67 84.6 103.52C84.59 103.37 84.585 103.21 84.585 103.04C84.375 103.39 84.105 103.665 83.775 103.865C83.455 104.055 83.085 104.15 82.665 104.15ZM82.875 103.07C83.475 103.07 83.9 102.835 84.15 102.365C84.41 101.885 84.54 101.27 84.54 100.52C84.54 99.75 84.4 99.13 84.12 98.66C83.84 98.19 83.4 97.955 82.8 97.955C82.24 97.955 81.81 98.175 81.51 98.615C81.22 99.055 81.075 99.64 81.075 100.37C81.075 101.19 81.235 101.845 81.555 102.335C81.875 102.825 82.315 103.07 82.875 103.07ZM95.91 98.12H94.425V97.1H95.91V96.59C95.91 95.97 96.025 95.465 96.255 95.075C96.495 94.675 96.815 94.38 97.215 94.19C97.615 94 98.06 93.905 98.55 93.905C99 93.905 99.415 93.985 99.795 94.145C100.185 94.305 100.51 94.54 100.77 94.85L100.17 95.765L100.095 95.885L99.99 95.825C99.97 95.745 99.945 95.665 99.915 95.585C99.885 95.505 99.815 95.41 99.705 95.3C99.405 95.05 99.04 94.925 98.61 94.925C98.18 94.925 97.83 95.055 97.56 95.315C97.3 95.565 97.17 95.985 97.17 96.575V97.1H99.36V98.12H97.17V104H95.91V98.12ZM104.55 104.135C103.93 104.135 103.375 103.985 102.885 103.685C102.405 103.375 102.025 102.95 101.745 102.41C101.465 101.87 101.325 101.25 101.325 100.55C101.325 99.85 101.465 99.23 101.745 98.69C102.025 98.15 102.405 97.725 102.885 97.415C103.375 97.105 103.93 96.95 104.55 96.95C105.17 96.95 105.72 97.105 106.2 97.415C106.69 97.725 107.075 98.15 107.355 98.69C107.635 99.23 107.775 99.85 107.775 100.55C107.775 101.25 107.635 101.87 107.355 102.41C107.075 102.95 106.69 103.375 106.2 103.685C105.72 103.985 105.17 104.135 104.55 104.135ZM104.55 103.085C105.1 103.085 105.55 102.85 105.9 102.38C106.26 101.9 106.44 101.285 106.44 100.535C106.44 99.785 106.26 99.175 105.9 98.705C105.55 98.235 105.1 98 104.55 98C104 98 103.545 98.235 103.185 98.705C102.835 99.175 102.66 99.785 102.66 100.535C102.66 101.285 102.835 101.9 103.185 102.38C103.545 102.85 104 103.085 104.55 103.085ZM111.27 104.165C110.58 104.165 110.005 103.915 109.545 103.415C109.095 102.915 108.875 102.115 108.885 101.015L108.9 97.1H110.16V101.015C110.16 101.805 110.295 102.355 110.565 102.665C110.845 102.975 111.18 103.13 111.57 103.13C112.03 103.13 112.425 102.955 112.755 102.605C113.095 102.255 113.265 101.705 113.265 100.955V97.1H114.54V102.92C114.54 103.11 114.545 103.295 114.555 103.475C114.565 103.645 114.61 103.82 114.69 104H113.475C113.405 103.83 113.36 103.665 113.34 103.505C113.33 103.335 113.325 103.165 113.325 102.995C113.115 103.375 112.825 103.665 112.455 103.865C112.095 104.065 111.7 104.165 111.27 104.165ZM116.835 97.1H118.17L118.155 98.33C118.345 97.88 118.635 97.535 119.025 97.295C119.415 97.055 119.83 96.935 120.27 96.935C121.01 96.935 121.625 97.19 122.115 97.7L121.56 98.735L121.5 98.87L121.395 98.81C121.365 98.73 121.33 98.655 121.29 98.585C121.26 98.505 121.18 98.415 121.05 98.315C120.77 98.125 120.465 98.03 120.135 98.03C119.805 98.03 119.485 98.11 119.175 98.27C118.875 98.43 118.625 98.685 118.425 99.035C118.235 99.375 118.14 99.815 118.14 100.355V104.015H116.835V97.1ZM131.91 98.12H130.425V97.1H131.91V96.59C131.91 95.97 132.025 95.465 132.255 95.075C132.495 94.675 132.815 94.38 133.215 94.19C133.615 94 134.06 93.905 134.55 93.905C135 93.905 135.415 93.985 135.795 94.145C136.185 94.305 136.51 94.54 136.77 94.85L136.17 95.765L136.095 95.885L135.99 95.825C135.97 95.745 135.945 95.665 135.915 95.585C135.885 95.505 135.815 95.41 135.705 95.3C135.405 95.05 135.04 94.925 134.61 94.925C134.18 94.925 133.83 95.055 133.56 95.315C133.3 95.565 133.17 95.985 133.17 96.575V97.1H135.36V98.12H133.17V104H131.91V98.12ZM140.55 104.135C139.93 104.135 139.375 103.985 138.885 103.685C138.405 103.375 138.025 102.95 137.745 102.41C137.465 101.87 137.325 101.25 137.325 100.55C137.325 99.85 137.465 99.23 137.745 98.69C138.025 98.15 138.405 97.725 138.885 97.415C139.375 97.105 139.93 96.95 140.55 96.95C141.17 96.95 141.72 97.105 142.2 97.415C142.69 97.725 143.075 98.15 143.355 98.69C143.635 99.23 143.775 99.85 143.775 100.55C143.775 101.25 143.635 101.87 143.355 102.41C143.075 102.95 142.69 103.375 142.2 103.685C141.72 103.985 141.17 104.135 140.55 104.135ZM140.55 103.085C141.1 103.085 141.55 102.85 141.9 102.38C142.26 101.9 142.44 101.285 142.44 100.535C142.44 99.785 142.26 99.175 141.9 98.705C141.55 98.235 141.1 98 140.55 98C140 98 139.545 98.235 139.185 98.705C138.835 99.175 138.66 99.785 138.66 100.535C138.66 101.285 138.835 101.9 139.185 102.38C139.545 102.85 140 103.085 140.55 103.085ZM145.635 97.1H146.97L146.955 98.33C147.145 97.88 147.435 97.535 147.825 97.295C148.215 97.055 148.63 96.935 149.07 96.935C149.81 96.935 150.425 97.19 150.915 97.7L150.36 98.735L150.3 98.87L150.195 98.81C150.165 98.73 150.13 98.655 150.09 98.585C150.06 98.505 149.98 98.415 149.85 98.315C149.57 98.125 149.265 98.03 148.935 98.03C148.605 98.03 148.285 98.11 147.975 98.27C147.675 98.43 147.425 98.685 147.225 99.035C147.035 99.375 146.94 99.815 146.94 100.355V104.015H145.635V97.1ZM3.465 125.15C2.985 125.15 2.525 125.02 2.085 124.76C1.655 124.49 1.3 124.085 1.02 123.545C0.75 122.995 0.615 122.31 0.615 121.49C0.615 120.67 0.755 120 1.035 119.48C1.315 118.95 1.675 118.56 2.115 118.31C2.555 118.05 3.02 117.92 3.51 117.92C3.94 117.92 4.32 118.015 4.65 118.205C4.98 118.395 5.23 118.655 5.4 118.985V114.995H6.765V115.115C6.705 115.175 6.665 115.24 6.645 115.31C6.635 115.38 6.63 115.5 6.63 115.67L6.645 123.98C6.645 124.15 6.65 124.32 6.66 124.49C6.68 124.66 6.725 124.83 6.795 125H5.535C5.455 124.83 5.41 124.67 5.4 124.52C5.39 124.37 5.385 124.21 5.385 124.04C5.175 124.39 4.905 124.665 4.575 124.865C4.255 125.055 3.885 125.15 3.465 125.15ZM3.675 124.07C4.275 124.07 4.7 123.835 4.95 123.365C5.21 122.885 5.34 122.27 5.34 121.52C5.34 120.75 5.2 120.13 4.92 119.66C4.64 119.19 4.2 118.955 3.6 118.955C3.04 118.955 2.61 119.175 2.31 119.615C2.02 120.055 1.875 120.64 1.875 121.37C1.875 122.19 2.035 122.845 2.355 123.335C2.675 123.825 3.115 124.07 3.675 124.07ZM11.28 125.15C10.27 125.15 9.45 124.845 8.82 124.235C8.2 123.615 7.89 122.73 7.89 121.58C7.89 120.81 8.03 120.155 8.31 119.615C8.6 119.065 8.985 118.65 9.465 118.37C9.955 118.08 10.495 117.935 11.085 117.935C11.605 117.935 12.08 118.055 12.51 118.295C12.95 118.535 13.295 118.9 13.545 119.39C13.805 119.88 13.935 120.495 13.935 121.235C13.935 121.325 13.93 121.425 13.92 121.535C13.92 121.635 13.915 121.725 13.905 121.805H9.12C9.16 122.615 9.395 123.205 9.825 123.575C10.255 123.945 10.755 124.13 11.325 124.13C11.665 124.13 11.98 124.075 12.27 123.965C12.56 123.845 12.82 123.66 13.05 123.41L13.74 124.07C13.14 124.79 12.32 125.15 11.28 125.15ZM9.165 120.83H12.66C12.66 120.24 12.51 119.775 12.21 119.435C11.91 119.095 11.51 118.925 11.01 118.925C10.56 118.925 10.16 119.08 9.81 119.39C9.46 119.69 9.245 120.17 9.165 120.83ZM17.505 125.165C16.725 125.165 16.125 124.99 15.705 124.64C15.285 124.28 15.075 123.82 15.075 123.26C15.075 122.77 15.225 122.34 15.525 121.97C15.835 121.6 16.26 121.315 16.8 121.115C17.34 120.915 17.965 120.815 18.675 120.815C18.845 120.815 19.035 120.82 19.245 120.83C19.455 120.83 19.675 120.84 19.905 120.86C19.845 120.14 19.65 119.65 19.32 119.39C19 119.12 18.55 118.985 17.97 118.985C17.64 118.985 17.32 119.045 17.01 119.165C16.71 119.285 16.425 119.475 16.155 119.735L15.495 118.94C15.845 118.6 16.235 118.35 16.665 118.19C17.105 118.03 17.565 117.95 18.045 117.95C18.645 117.95 19.175 118.05 19.635 118.25C20.095 118.44 20.455 118.775 20.715 119.255C20.975 119.735 21.105 120.395 21.105 121.235V125H19.74V124.055C19.48 124.505 19.14 124.805 18.72 124.955C18.31 125.095 17.905 125.165 17.505 125.165ZM16.35 123.14C16.35 123.54 16.475 123.815 16.725 123.965C16.985 124.105 17.305 124.175 17.685 124.175C18.355 124.175 18.88 123.975 19.26 123.575C19.65 123.175 19.87 122.585 19.92 121.805C19.51 121.765 19.11 121.745 18.72 121.745C17.97 121.745 17.385 121.86 16.965 122.09C16.555 122.32 16.35 122.67 16.35 123.14ZM26.085 125.12C25.225 125.12 24.64 124.825 24.33 124.235C24.03 123.645 23.905 122.67 23.955 121.31L24.03 119.135H22.59V118.1H24.075L24.135 116.39L25.47 116.225L25.62 116.21L25.635 116.315C25.585 116.385 25.54 116.46 25.5 116.54C25.47 116.61 25.445 116.725 25.425 116.885L25.335 118.1H27.675V119.135H25.335L25.23 121.355C25.2 122.085 25.22 122.645 25.29 123.035C25.36 123.425 25.48 123.695 25.65 123.845C25.82 123.995 26.045 124.07 26.325 124.07C26.655 124.07 26.945 124.005 27.195 123.875C27.455 123.745 27.715 123.585 27.975 123.395L28.305 124.37C27.635 124.87 26.895 125.12 26.085 125.12ZM29.805 114.995H31.2V115.115C31.15 115.175 31.115 115.24 31.095 115.31C31.085 115.38 31.08 115.5 31.08 115.67V119.225C31.34 118.825 31.665 118.51 32.055 118.28C32.455 118.05 32.855 117.935 33.255 117.935C33.885 117.935 34.395 118.16 34.785 118.61C35.185 119.05 35.385 119.79 35.385 120.83V125H34.125V120.86C34.125 120.17 34.01 119.69 33.78 119.42C33.56 119.14 33.285 119 32.955 119C32.655 119 32.36 119.085 32.07 119.255C31.78 119.415 31.54 119.645 31.35 119.945C31.17 120.245 31.08 120.61 31.08 121.04V125H29.805V114.995Z" fill="#2A2921"/>
</svg>
