<svg width="169" height="136" viewBox="0 0 169 136" fill="none" xmlns="http://www.w3.org/2000/svg">
<path d="M12.2 13.8C12.5733 13.8 12.8667 13.92 13.08 14.16C13.3067 14.3867 13.42 14.6933 13.42 15.08V26.82C13.42 27.2067 13.3067 27.52 13.08 27.76C12.8533 28 12.56 28.12 12.2 28.12C11.7733 28.12 11.4467 27.9667 11.22 27.66L3.92 18.16V26.82C3.92 27.2067 3.81333 27.52 3.6 27.76C3.38667 28 3.09333 28.12 2.72 28.12C2.34667 28.12 2.05333 28 1.84 27.76C1.62667 27.52 1.52 27.2067 1.52 26.82V15.08C1.52 14.6933 1.63333 14.3867 1.86 14.16C2.08667 13.92 2.38667 13.8 2.76 13.8C3.17333 13.8 3.49333 13.9533 3.72 14.26L11 23.72V15.08C11 14.6933 11.1067 14.3867 11.32 14.16C11.5467 13.92 11.84 13.8 12.2 13.8ZM23.5614 18.02C23.9481 18.02 24.2547 18.1267 24.4814 18.34C24.7081 18.5533 24.8214 18.84 24.8214 19.2V26.96C24.8214 27.3067 24.7014 27.5867 24.4614 27.8C24.2347 28.0133 23.9347 28.12 23.5614 28.12C23.2014 28.12 22.9147 28.02 22.7014 27.82C22.4881 27.62 22.3814 27.3467 22.3814 27V26.5C22.0747 27.0333 21.6614 27.4467 21.1414 27.74C20.6214 28.02 20.0347 28.16 19.3814 28.16C16.9814 28.16 15.7814 26.8133 15.7814 24.12V19.2C15.7814 18.84 15.8947 18.5533 16.1214 18.34C16.3481 18.1267 16.6481 18.02 17.0214 18.02C17.4081 18.02 17.7147 18.1267 17.9414 18.34C18.1681 18.5533 18.2814 18.84 18.2814 19.2V24.14C18.2814 24.8333 18.4214 25.3467 18.7014 25.68C18.9814 26.0133 19.4214 26.18 20.0214 26.18C20.7147 26.18 21.2681 25.9533 21.6814 25.5C22.1081 25.0333 22.3214 24.42 22.3214 23.66V19.2C22.3214 18.84 22.4347 18.5533 22.6614 18.34C22.8881 18.1267 23.1881 18.02 23.5614 18.02ZM32.4834 18.02C32.8301 17.9933 33.1034 18.0667 33.3034 18.24C33.5034 18.4133 33.6034 18.6733 33.6034 19.02C33.6034 19.38 33.5168 19.6467 33.3434 19.82C33.1701 19.9933 32.8568 20.1067 32.4034 20.16L31.8034 20.22C31.0168 20.3 30.4368 20.5667 30.0634 21.02C29.7034 21.4733 29.5234 22.04 29.5234 22.72V26.92C29.5234 27.3067 29.4034 27.6067 29.1634 27.82C28.9234 28.02 28.6234 28.12 28.2634 28.12C27.9034 28.12 27.6034 28.02 27.3634 27.82C27.1368 27.6067 27.0234 27.3067 27.0234 26.92V19.18C27.0234 18.8067 27.1368 18.52 27.3634 18.32C27.6034 18.12 27.8968 18.02 28.2434 18.02C28.5901 18.02 28.8701 18.12 29.0834 18.32C29.2968 18.5067 29.4034 18.78 29.4034 19.14V19.94C29.6568 19.3533 30.0301 18.9 30.5234 18.58C31.0301 18.26 31.5901 18.08 32.2034 18.04L32.4834 18.02ZM37.722 28.16C36.2687 28.16 35.0954 27.8733 34.202 27.3C33.7754 27.0467 33.562 26.6867 33.562 26.22C33.562 25.9533 33.6354 25.74 33.782 25.58C33.9287 25.4067 34.1087 25.32 34.322 25.32C34.5487 25.32 34.862 25.4267 35.262 25.64C35.6887 25.84 36.0754 25.9933 36.422 26.1C36.782 26.2067 37.2354 26.26 37.782 26.26C38.342 26.26 38.7754 26.1667 39.082 25.98C39.402 25.7933 39.562 25.5333 39.562 25.2C39.562 24.9733 39.4954 24.7933 39.362 24.66C39.242 24.5267 39.0154 24.4067 38.682 24.3C38.362 24.18 37.8687 24.0467 37.202 23.9C36.0154 23.66 35.162 23.32 34.642 22.88C34.1354 22.44 33.882 21.8333 33.882 21.06C33.882 20.4733 34.0554 19.9467 34.402 19.48C34.7487 19 35.222 18.6333 35.822 18.38C36.4354 18.1133 37.1287 17.98 37.902 17.98C38.462 17.98 39.002 18.0533 39.522 18.2C40.042 18.3333 40.5087 18.5333 40.922 18.8C41.3487 19.0667 41.562 19.42 41.562 19.86C41.562 20.1267 41.4887 20.3533 41.342 20.54C41.1954 20.7133 41.0154 20.8 40.802 20.8C40.6554 20.8 40.5087 20.7733 40.362 20.72C40.2287 20.6533 40.0554 20.56 39.842 20.44C39.4554 20.24 39.122 20.0933 38.842 20C38.562 19.8933 38.2154 19.84 37.802 19.84C37.3087 19.84 36.9154 19.94 36.622 20.14C36.342 20.34 36.202 20.6133 36.202 20.96C36.202 21.2933 36.3487 21.5467 36.642 21.72C36.9354 21.8933 37.502 22.0667 38.342 22.24C39.2354 22.4267 39.9354 22.64 40.442 22.88C40.9487 23.12 41.3087 23.42 41.522 23.78C41.7487 24.14 41.862 24.6 41.862 25.16C41.862 26.0667 41.482 26.7933 40.722 27.34C39.9754 27.8867 38.9754 28.16 37.722 28.16ZM51.2291 25.32C51.4557 25.32 51.6357 25.4067 51.7691 25.58C51.9157 25.7533 51.9891 25.9867 51.9891 26.28C51.9891 26.6933 51.7424 27.04 51.2491 27.32C50.7957 27.5733 50.2824 27.78 49.7091 27.94C49.1357 28.0867 48.5891 28.16 48.0691 28.16C46.4957 28.16 45.2491 27.7067 44.3291 26.8C43.4091 25.8933 42.9491 24.6533 42.9491 23.08C42.9491 22.08 43.1491 21.1933 43.5491 20.42C43.9491 19.6467 44.5091 19.0467 45.2291 18.62C45.9624 18.1933 46.7891 17.98 47.7091 17.98C48.5891 17.98 49.3557 18.1733 50.0091 18.56C50.6624 18.9467 51.1691 19.4933 51.5291 20.2C51.8891 20.9067 52.0691 21.74 52.0691 22.7C52.0691 23.2733 51.8157 23.56 51.3091 23.56H45.4091C45.4891 24.48 45.7491 25.16 46.1891 25.6C46.6291 26.0267 47.2691 26.24 48.1091 26.24C48.5357 26.24 48.9091 26.1867 49.2291 26.08C49.5624 25.9733 49.9357 25.8267 50.3491 25.64C50.7491 25.4267 51.0424 25.32 51.2291 25.32ZM47.7691 19.74C47.0891 19.74 46.5424 19.9533 46.1291 20.38C45.7291 20.8067 45.4891 21.42 45.4091 22.22H49.9291C49.9024 21.4067 49.7024 20.7933 49.3291 20.38C48.9557 19.9533 48.4357 19.74 47.7691 19.74ZM59.1741 18.02C59.5207 17.9933 59.7941 18.0667 59.9941 18.24C60.1941 18.4133 60.2941 18.6733 60.2941 19.02C60.2941 19.38 60.2074 19.6467 60.0341 19.82C59.8607 19.9933 59.5474 20.1067 59.0941 20.16L58.4941 20.22C57.7074 20.3 57.1274 20.5667 56.7541 21.02C56.3941 21.4733 56.2141 22.04 56.2141 22.72V26.92C56.2141 27.3067 56.0941 27.6067 55.8541 27.82C55.6141 28.02 55.3141 28.12 54.9541 28.12C54.5941 28.12 54.2941 28.02 54.0541 27.82C53.8274 27.6067 53.7141 27.3067 53.7141 26.92V19.18C53.7141 18.8067 53.8274 18.52 54.0541 18.32C54.2941 18.12 54.5874 18.02 54.9341 18.02C55.2807 18.02 55.5607 18.12 55.7741 18.32C55.9874 18.5067 56.0941 18.78 56.0941 19.14V19.94C56.3474 19.3533 56.7207 18.9 57.2141 18.58C57.7207 18.26 58.2807 18.08 58.8941 18.04L59.1741 18.02ZM68.3958 18.74C68.5024 18.5 68.6424 18.3267 68.8158 18.22C69.0024 18.1 69.2024 18.04 69.4158 18.04C69.7224 18.04 69.9958 18.1467 70.2358 18.36C70.4891 18.56 70.6158 18.8133 70.6158 19.12C70.6158 19.2667 70.5758 19.42 70.4958 19.58L65.0358 31.02C64.8091 31.4733 64.4558 31.7 63.9758 31.7C63.6691 31.7 63.3958 31.6 63.1558 31.4C62.9291 31.2133 62.8158 30.9733 62.8158 30.68C62.8158 30.5333 62.8558 30.3667 62.9358 30.18L64.2958 27.32L60.5758 19.58C60.5091 19.4467 60.4758 19.2933 60.4758 19.12C60.4758 18.8133 60.6024 18.5533 60.8558 18.34C61.1224 18.1267 61.4224 18.02 61.7558 18.02C61.9824 18.02 62.1891 18.08 62.3758 18.2C62.5624 18.3067 62.7091 18.48 62.8158 18.72L65.6158 24.9L68.3958 18.74ZM88.2328 26.38C88.3928 26.62 88.4728 26.8533 88.4728 27.08C88.4728 27.3867 88.3461 27.64 88.0928 27.84C87.8528 28.04 87.5661 28.14 87.2328 28.14C87.0195 28.14 86.8128 28.0933 86.6128 28C86.4261 27.8933 86.2661 27.74 86.1328 27.54L83.4728 23.5C83.2061 23.0733 82.9195 22.7733 82.6128 22.6C82.3195 22.4267 81.9328 22.34 81.4528 22.34H79.4928V26.82C79.4928 27.22 79.3795 27.54 79.1528 27.78C78.9261 28.0067 78.6195 28.12 78.2328 28.12C77.8461 28.12 77.5328 28.0067 77.2928 27.78C77.0661 27.54 76.9528 27.22 76.9528 26.82V15.12C76.9528 14.7333 77.0595 14.4333 77.2728 14.22C77.4995 14.0067 77.8061 13.9 78.1928 13.9H83.1928C84.7928 13.9 86.0061 14.26 86.8328 14.98C87.6728 15.6867 88.0928 16.7133 88.0928 18.06C88.0928 19.1533 87.7795 20.0533 87.1528 20.76C86.5395 21.4533 85.6661 21.9 84.5328 22.1C84.9195 22.1933 85.2595 22.36 85.5528 22.6C85.8461 22.84 86.1328 23.1733 86.4128 23.6L88.2328 26.38ZM82.8328 20.36C83.8061 20.36 84.5195 20.18 84.9728 19.82C85.4261 19.4467 85.6528 18.88 85.6528 18.12C85.6528 17.3467 85.4261 16.7867 84.9728 16.44C84.5195 16.08 83.8061 15.9 82.8328 15.9H79.4728V20.36H82.8328ZM95.9591 17.98C98.2524 17.98 99.3991 19.32 99.3991 22V26.92C99.3991 27.2933 99.2857 27.5867 99.0591 27.8C98.8457 28.0133 98.5457 28.12 98.1591 28.12C97.7724 28.12 97.4657 28.0133 97.2391 27.8C97.0124 27.5867 96.8991 27.2933 96.8991 26.92V22C96.8991 21.2933 96.7524 20.78 96.4591 20.46C96.1791 20.1267 95.7324 19.96 95.1191 19.96C94.3991 19.96 93.8191 20.1867 93.3791 20.64C92.9524 21.0933 92.7391 21.7 92.7391 22.46V26.92C92.7391 27.2933 92.6257 27.5867 92.3991 27.8C92.1724 28.0133 91.8657 28.12 91.4791 28.12C91.0924 28.12 90.7857 28.0133 90.5591 27.8C90.3457 27.5867 90.2391 27.2933 90.2391 26.92V14.96C90.2391 14.6133 90.3524 14.3333 90.5791 14.12C90.8191 13.9067 91.1257 13.8 91.4991 13.8C91.8724 13.8 92.1724 13.9 92.3991 14.1C92.6257 14.3 92.7391 14.5733 92.7391 14.92V19.58C93.0724 19.06 93.5124 18.6667 94.0591 18.4C94.6191 18.12 95.2524 17.98 95.9591 17.98ZM108.358 18.74C108.465 18.5 108.605 18.3267 108.778 18.22C108.965 18.1 109.165 18.04 109.378 18.04C109.685 18.04 109.958 18.1467 110.198 18.36C110.452 18.56 110.578 18.8133 110.578 19.12C110.578 19.2667 110.538 19.42 110.458 19.58L104.998 31.02C104.772 31.4733 104.418 31.7 103.938 31.7C103.632 31.7 103.358 31.6 103.118 31.4C102.892 31.2133 102.778 30.9733 102.778 30.68C102.778 30.5333 102.818 30.3667 102.898 30.18L104.258 27.32L100.538 19.58C100.472 19.4467 100.438 19.2933 100.438 19.12C100.438 18.8133 100.565 18.5533 100.818 18.34C101.085 18.1267 101.385 18.02 101.718 18.02C101.945 18.02 102.152 18.08 102.338 18.2C102.525 18.3067 102.672 18.48 102.778 18.72L105.578 24.9L108.358 18.74ZM123.286 17.98C124.352 17.98 125.166 18.3 125.726 18.94C126.299 19.5667 126.586 20.5867 126.586 22V26.92C126.586 27.3067 126.466 27.6067 126.226 27.82C125.999 28.02 125.699 28.12 125.326 28.12C124.966 28.12 124.666 28.02 124.426 27.82C124.199 27.6067 124.086 27.3067 124.086 26.92V22C124.086 21.2667 123.952 20.7467 123.686 20.44C123.432 20.12 123.039 19.96 122.506 19.96C121.852 19.96 121.332 20.1867 120.946 20.64C120.559 21.08 120.366 21.6867 120.366 22.46V26.92C120.366 27.3067 120.246 27.6067 120.006 27.82C119.779 28.02 119.486 28.12 119.126 28.12C118.766 28.12 118.466 28.02 118.226 27.82C117.986 27.6067 117.866 27.3067 117.866 26.92V22C117.866 21.2667 117.732 20.7467 117.466 20.44C117.212 20.12 116.819 19.96 116.286 19.96C115.632 19.96 115.112 20.1867 114.726 20.64C114.352 21.08 114.166 21.6867 114.166 22.46V26.92C114.166 27.3067 114.046 27.6067 113.806 27.82C113.566 28.02 113.266 28.12 112.906 28.12C112.546 28.12 112.246 28.02 112.006 27.82C111.779 27.6067 111.666 27.3067 111.666 26.92V19.18C111.666 18.8067 111.786 18.52 112.026 18.32C112.266 18.12 112.566 18.02 112.926 18.02C113.272 18.02 113.552 18.12 113.766 18.32C113.992 18.5067 114.106 18.78 114.106 19.14V19.62C114.412 19.0867 114.819 18.68 115.326 18.4C115.846 18.12 116.439 17.98 117.106 17.98C118.572 17.98 119.552 18.5933 120.046 19.82C120.339 19.26 120.772 18.8133 121.346 18.48C121.919 18.1467 122.566 17.98 123.286 17.98ZM136.467 25.32C136.693 25.32 136.873 25.4067 137.007 25.58C137.153 25.7533 137.227 25.9867 137.227 26.28C137.227 26.6933 136.98 27.04 136.487 27.32C136.033 27.5733 135.52 27.78 134.947 27.94C134.373 28.0867 133.827 28.16 133.307 28.16C131.733 28.16 130.487 27.7067 129.567 26.8C128.647 25.8933 128.187 24.6533 128.187 23.08C128.187 22.08 128.387 21.1933 128.787 20.42C129.187 19.6467 129.747 19.0467 130.467 18.62C131.2 18.1933 132.027 17.98 132.947 17.98C133.827 17.98 134.593 18.1733 135.247 18.56C135.9 18.9467 136.407 19.4933 136.767 20.2C137.127 20.9067 137.307 21.74 137.307 22.7C137.307 23.2733 137.053 23.56 136.547 23.56H130.647C130.727 24.48 130.987 25.16 131.427 25.6C131.867 26.0267 132.507 26.24 133.347 26.24C133.773 26.24 134.147 26.1867 134.467 26.08C134.8 25.9733 135.173 25.8267 135.587 25.64C135.987 25.4267 136.28 25.32 136.467 25.32ZM133.007 19.74C132.327 19.74 131.78 19.9533 131.367 20.38C130.967 20.8067 130.727 21.42 130.647 22.22H135.167C135.14 21.4067 134.94 20.7933 134.567 20.38C134.193 19.9533 133.673 19.74 133.007 19.74ZM142.492 28.16C141.038 28.16 139.865 27.8733 138.972 27.3C138.545 27.0467 138.332 26.6867 138.332 26.22C138.332 25.9533 138.405 25.74 138.552 25.58C138.698 25.4067 138.878 25.32 139.092 25.32C139.318 25.32 139.632 25.4267 140.032 25.64C140.458 25.84 140.845 25.9933 141.192 26.1C141.552 26.2067 142.005 26.26 142.552 26.26C143.112 26.26 143.545 26.1667 143.852 25.98C144.172 25.7933 144.332 25.5333 144.332 25.2C144.332 24.9733 144.265 24.7933 144.132 24.66C144.012 24.5267 143.785 24.4067 143.452 24.3C143.132 24.18 142.638 24.0467 141.972 23.9C140.785 23.66 139.932 23.32 139.412 22.88C138.905 22.44 138.652 21.8333 138.652 21.06C138.652 20.4733 138.825 19.9467 139.172 19.48C139.518 19 139.992 18.6333 140.592 18.38C141.205 18.1133 141.898 17.98 142.672 17.98C143.232 17.98 143.772 18.0533 144.292 18.2C144.812 18.3333 145.278 18.5333 145.692 18.8C146.118 19.0667 146.332 19.42 146.332 19.86C146.332 20.1267 146.258 20.3533 146.112 20.54C145.965 20.7133 145.785 20.8 145.572 20.8C145.425 20.8 145.278 20.7733 145.132 20.72C144.998 20.6533 144.825 20.56 144.612 20.44C144.225 20.24 143.892 20.0933 143.612 20C143.332 19.8933 142.985 19.84 142.572 19.84C142.078 19.84 141.685 19.94 141.392 20.14C141.112 20.34 140.972 20.6133 140.972 20.96C140.972 21.2933 141.118 21.5467 141.412 21.72C141.705 21.8933 142.272 22.0667 143.112 22.24C144.005 22.4267 144.705 22.64 145.212 22.88C145.718 23.12 146.078 23.42 146.292 23.78C146.518 24.14 146.632 24.6 146.632 25.16C146.632 26.0667 146.252 26.7933 145.492 27.34C144.745 27.8867 143.745 28.16 142.492 28.16Z" fill="#2A2921"/>
<path d="M9.44092 57.0122C9.44092 58.0571 9.26514 58.9702 8.91357 59.7515C8.56201 60.5278 8.06396 61.1211 7.41943 61.5312C6.7749 61.9414 6.02295 62.1465 5.16357 62.1465C4.32373 62.1465 3.5791 61.9414 2.92969 61.5312C2.28027 61.1162 1.7749 60.5278 1.41357 59.7661C1.05713 58.9995 0.874023 58.1133 0.864258 57.1074V56.3384C0.864258 55.313 1.04248 54.4072 1.39893 53.6211C1.75537 52.835 2.2583 52.2344 2.90771 51.8193C3.56201 51.3994 4.30908 51.1895 5.14893 51.1895C6.00342 51.1895 6.75537 51.397 7.40479 51.812C8.05908 52.2222 8.56201 52.8203 8.91357 53.6064C9.26514 54.3877 9.44092 55.2983 9.44092 56.3384V57.0122ZM8.04199 56.3237C8.04199 55.0591 7.78809 54.0898 7.28027 53.416C6.77246 52.7373 6.06201 52.3979 5.14893 52.3979C4.26025 52.3979 3.55957 52.7373 3.04688 53.416C2.53906 54.0898 2.27783 55.0273 2.26318 56.2285V57.0122C2.26318 58.2378 2.51953 59.2021 3.03223 59.9053C3.5498 60.6035 4.26025 60.9526 5.16357 60.9526C6.07178 60.9526 6.7749 60.623 7.27295 59.9639C7.771 59.2998 8.02734 58.3501 8.04199 57.1147V56.3237ZM12.3196 54.0752L12.3636 55.0713C12.969 54.3096 13.7601 53.9287 14.7366 53.9287C16.4114 53.9287 17.2562 54.8735 17.2708 56.7632V62H15.9158V56.7559C15.9109 56.1846 15.7791 55.7622 15.5203 55.4888C15.2664 55.2153 14.8685 55.0786 14.3265 55.0786C13.887 55.0786 13.5013 55.1958 13.1692 55.4302C12.8372 55.6646 12.5784 55.9722 12.3929 56.353V62H11.0379V54.0752H12.3196ZM22.3028 62.1465C21.2286 62.1465 20.3546 61.7949 19.6808 61.0918C19.0069 60.3838 18.67 59.439 18.67 58.2573V58.0083C18.67 57.2222 18.8189 56.5215 19.1168 55.9062C19.4195 55.2861 19.8395 54.8027 20.3766 54.4561C20.9186 54.1045 21.5045 53.9287 22.1344 53.9287C23.1646 53.9287 23.9654 54.2681 24.5367 54.9468C25.108 55.6255 25.3937 56.5972 25.3937 57.8618V58.4258H20.025C20.0445 59.207 20.2716 59.8394 20.7062 60.3228C21.1456 60.8013 21.7022 61.0405 22.3761 61.0405C22.8546 61.0405 23.2599 60.9429 23.5919 60.7476C23.9239 60.5522 24.2145 60.2935 24.4635 59.9712L25.2911 60.6157C24.6271 61.6362 23.631 62.1465 22.3028 62.1465ZM22.1344 55.042C21.5875 55.042 21.1285 55.2422 20.7574 55.6426C20.3863 56.0381 20.1568 56.5947 20.0689 57.3125H24.0387V57.21C23.9996 56.5215 23.8141 55.9893 23.482 55.6133C23.15 55.2324 22.7008 55.042 22.1344 55.042ZM30.7556 62V55.1226H29.5031V54.0752H30.7556V53.2622C30.7556 52.4126 30.9826 51.7559 31.4367 51.292C31.8908 50.8281 32.5329 50.5962 33.363 50.5962C33.6755 50.5962 33.9855 50.6377 34.2932 50.7207L34.2199 51.8193C33.9904 51.7754 33.7463 51.7534 33.4875 51.7534C33.048 51.7534 32.7087 51.8828 32.4694 52.1416C32.2302 52.3955 32.1105 52.7617 32.1105 53.2402V54.0752H33.8024V55.1226H32.1105V62H30.7556ZM34.645 57.9644C34.645 57.188 34.7964 56.4897 35.0991 55.8696C35.4067 55.2495 35.8315 54.771 36.3735 54.4341C36.9204 54.0972 37.543 53.9287 38.2412 53.9287C39.3203 53.9287 40.1919 54.3022 40.856 55.0493C41.5249 55.7964 41.8594 56.79 41.8594 58.0303V58.1255C41.8594 58.897 41.7104 59.5903 41.4126 60.2056C41.1196 60.8159 40.6973 61.292 40.1455 61.6338C39.5986 61.9756 38.9688 62.1465 38.2559 62.1465C37.1816 62.1465 36.3101 61.7729 35.6411 61.0259C34.9771 60.2788 34.645 59.29 34.645 58.0596V57.9644ZM36.0073 58.1255C36.0073 59.0044 36.21 59.71 36.6152 60.2422C37.0254 60.7744 37.5723 61.0405 38.2559 61.0405C38.9443 61.0405 39.4912 60.772 39.8965 60.2349C40.3018 59.6929 40.5044 58.936 40.5044 57.9644C40.5044 57.0952 40.2969 56.3921 39.8818 55.855C39.4717 55.313 38.9248 55.042 38.2412 55.042C37.5723 55.042 37.0327 55.3081 36.6226 55.8403C36.2124 56.3726 36.0073 57.1343 36.0073 58.1255ZM47.0892 55.291C46.8841 55.2568 46.6619 55.2397 46.4227 55.2397C45.534 55.2397 44.931 55.6182 44.6136 56.375V62H43.2586V54.0752H44.577L44.5989 54.9907C45.0433 54.2827 45.6731 53.9287 46.4886 53.9287C46.7522 53.9287 46.9524 53.9629 47.0892 54.0312V55.291ZM56.0766 59.8979C56.0766 59.5317 55.9374 59.2485 55.6591 59.0483C55.3856 58.8433 54.9047 58.6675 54.2162 58.521C53.5326 58.3745 52.9882 58.1987 52.5829 57.9937C52.1825 57.7886 51.8847 57.5444 51.6894 57.2612C51.4989 56.978 51.4037 56.6411 51.4037 56.2505C51.4037 55.6011 51.6771 55.0518 52.224 54.6025C52.7758 54.1533 53.4789 53.9287 54.3334 53.9287C55.2318 53.9287 55.9594 54.1606 56.516 54.6245C57.0775 55.0884 57.3583 55.6816 57.3583 56.4043H55.996C55.996 56.0332 55.8373 55.7134 55.5199 55.4448C55.2074 55.1763 54.8119 55.042 54.3334 55.042C53.8402 55.042 53.4545 55.1494 53.1762 55.3643C52.8979 55.5791 52.7587 55.8599 52.7587 56.2065C52.7587 56.5337 52.8881 56.7803 53.1469 56.9463C53.4057 57.1123 53.872 57.271 54.5458 57.4224C55.2245 57.5737 55.7738 57.7544 56.1937 57.9644C56.6137 58.1743 56.9237 58.4282 57.1239 58.7261C57.329 59.019 57.4315 59.3779 57.4315 59.8027C57.4315 60.5107 57.1483 61.0796 56.5819 61.5093C56.0155 61.9341 55.2807 62.1465 54.3773 62.1465C53.7426 62.1465 53.1811 62.0342 52.6928 61.8096C52.2045 61.585 51.8212 61.2725 51.5429 60.8721C51.2694 60.4668 51.1327 60.0298 51.1327 59.561H52.4877C52.5121 60.0151 52.6928 60.3765 53.0297 60.645C53.3715 60.9087 53.8207 61.0405 54.3773 61.0405C54.89 61.0405 55.3002 60.938 55.6078 60.7329C55.9203 60.5229 56.0766 60.2446 56.0766 59.8979ZM58.5378 57.9644C58.5378 57.188 58.6892 56.4897 58.9919 55.8696C59.2995 55.2495 59.7243 54.771 60.2663 54.4341C60.8132 54.0972 61.4357 53.9287 62.134 53.9287C63.2131 53.9287 64.0847 54.3022 64.7487 55.0493C65.4177 55.7964 65.7521 56.79 65.7521 58.0303V58.1255C65.7521 58.897 65.6032 59.5903 65.3054 60.2056C65.0124 60.8159 64.59 61.292 64.0383 61.6338C63.4914 61.9756 62.8615 62.1465 62.1486 62.1465C61.0744 62.1465 60.2028 61.7729 59.5339 61.0259C58.8698 60.2788 58.5378 59.29 58.5378 58.0596V57.9644ZM59.9001 58.1255C59.9001 59.0044 60.1027 59.71 60.508 60.2422C60.9182 60.7744 61.465 61.0405 62.1486 61.0405C62.8371 61.0405 63.384 60.772 63.7893 60.2349C64.1945 59.6929 64.3972 58.936 64.3972 57.9644C64.3972 57.0952 64.1896 56.3921 63.7746 55.855C63.3645 55.313 62.8176 55.042 62.134 55.042C61.465 55.042 60.9255 55.3081 60.5153 55.8403C60.1052 56.3726 59.9001 57.1343 59.9001 58.1255ZM70.9819 55.291C70.7769 55.2568 70.5547 55.2397 70.3154 55.2397C69.4268 55.2397 68.8237 55.6182 68.5063 56.375V62H67.1514V54.0752H68.4697L68.4917 54.9907C68.936 54.2827 69.5659 53.9287 70.3813 53.9287C70.645 53.9287 70.8452 53.9629 70.9819 54.0312V55.291ZM75.7649 55.291C75.5599 55.2568 75.3377 55.2397 75.0984 55.2397C74.2098 55.2397 73.6067 55.6182 73.2894 56.375V62H71.9344V54.0752H73.2527L73.2747 54.9907C73.719 54.2827 74.3489 53.9287 75.1644 53.9287C75.428 53.9287 75.6282 53.9629 75.7649 54.0312V55.291ZM76.212 57.9644C76.212 57.188 76.3634 56.4897 76.6661 55.8696C76.9737 55.2495 77.3985 54.771 77.9405 54.4341C78.4874 54.0972 79.11 53.9287 79.8082 53.9287C80.8873 53.9287 81.7589 54.3022 82.423 55.0493C83.0919 55.7964 83.4264 56.79 83.4264 58.0303V58.1255C83.4264 58.897 83.2774 59.5903 82.9796 60.2056C82.6866 60.8159 82.2643 61.292 81.7125 61.6338C81.1656 61.9756 80.5357 62.1465 79.8229 62.1465C78.7486 62.1465 77.8771 61.7729 77.2081 61.0259C76.544 60.2788 76.212 59.29 76.212 58.0596V57.9644ZM77.5743 58.1255C77.5743 59.0044 77.777 59.71 78.1822 60.2422C78.5924 60.7744 79.1393 61.0405 79.8229 61.0405C80.5113 61.0405 81.0582 60.772 81.4635 60.2349C81.8688 59.6929 82.0714 58.936 82.0714 57.9644C82.0714 57.0952 81.8639 56.3921 81.4488 55.855C81.0387 55.313 80.4918 55.042 79.8082 55.042C79.1393 55.042 78.5997 55.3081 78.1896 55.8403C77.7794 56.3726 77.5743 57.1343 77.5743 58.1255ZM91.8422 60.1323L93.3656 54.0752H94.7206L92.4135 62H91.3148L89.3886 55.9941L87.5136 62H86.4149L84.1151 54.0752H85.4628L87.0229 60.0078L88.8686 54.0752H89.9599L91.8422 60.1323ZM94.8527 64.124L94.0837 63.5967C94.5427 62.957 94.7819 62.2979 94.8015 61.6191V60.396H96.1272V61.458C96.1272 61.9512 96.0051 62.4443 95.7609 62.9375C95.5217 63.4307 95.2189 63.8262 94.8527 64.124ZM108.249 52.4932H104.822V62H103.423V52.4932H100.002V51.3359H108.249V52.4932ZM115.911 60.1323L117.434 54.0752H118.789L116.482 62H115.383L113.457 55.9941L111.582 62H110.483L108.184 54.0752H109.531L111.091 60.0078L112.937 54.0752H114.028L115.911 60.1323ZM119.515 57.9644C119.515 57.188 119.666 56.4897 119.969 55.8696C120.276 55.2495 120.701 54.771 121.243 54.4341C121.79 54.0972 122.412 53.9287 123.111 53.9287C124.19 53.9287 125.061 54.3022 125.725 55.0493C126.394 55.7964 126.729 56.79 126.729 58.0303V58.1255C126.729 58.897 126.58 59.5903 126.282 60.2056C125.989 60.8159 125.567 61.292 125.015 61.6338C124.468 61.9756 123.838 62.1465 123.125 62.1465C122.051 62.1465 121.18 61.7729 120.511 61.0259C119.847 60.2788 119.515 59.29 119.515 58.0596V57.9644ZM120.877 58.1255C120.877 59.0044 121.079 59.71 121.485 60.2422C121.895 60.7744 122.442 61.0405 123.125 61.0405C123.814 61.0405 124.361 60.772 124.766 60.2349C125.171 59.6929 125.374 58.936 125.374 57.9644C125.374 57.0952 125.166 56.3921 124.751 55.855C124.341 55.313 123.794 55.042 123.111 55.042C122.442 55.042 121.902 55.3081 121.492 55.8403C121.082 56.3726 120.877 57.1343 120.877 58.1255ZM132.215 62V55.1226H130.963V54.0752H132.215V53.2622C132.215 52.4126 132.442 51.7559 132.896 51.292C133.351 50.8281 133.993 50.5962 134.823 50.5962C135.135 50.5962 135.445 50.6377 135.753 50.7207L135.68 51.8193C135.45 51.7754 135.206 51.7534 134.947 51.7534C134.508 51.7534 134.168 51.8828 133.929 52.1416C133.69 52.3955 133.57 52.7617 133.57 53.2402V54.0752H135.262V55.1226H133.57V62H132.215ZM136.105 57.9644C136.105 57.188 136.256 56.4897 136.559 55.8696C136.867 55.2495 137.291 54.771 137.833 54.4341C138.38 54.0972 139.003 53.9287 139.701 53.9287C140.78 53.9287 141.652 54.3022 142.316 55.0493C142.985 55.7964 143.319 56.79 143.319 58.0303V58.1255C143.319 58.897 143.17 59.5903 142.872 60.2056C142.579 60.8159 142.157 61.292 141.605 61.6338C141.058 61.9756 140.429 62.1465 139.716 62.1465C138.641 62.1465 137.77 61.7729 137.101 61.0259C136.437 60.2788 136.105 59.29 136.105 58.0596V57.9644ZM137.467 58.1255C137.467 59.0044 137.67 59.71 138.075 60.2422C138.485 60.7744 139.032 61.0405 139.716 61.0405C140.404 61.0405 140.951 60.772 141.356 60.2349C141.762 59.6929 141.964 58.936 141.964 57.9644C141.964 57.0952 141.757 56.3921 141.342 55.855C140.931 55.313 140.385 55.042 139.701 55.042C139.032 55.042 138.492 55.3081 138.082 55.8403C137.672 56.3726 137.467 57.1343 137.467 58.1255ZM148.549 55.291C148.344 55.2568 148.122 55.2397 147.882 55.2397C146.994 55.2397 146.391 55.6182 146.073 56.375V62H144.718V54.0752H146.037L146.059 54.9907C146.503 54.2827 147.133 53.9287 147.948 53.9287C148.212 53.9287 148.412 53.9629 148.549 54.0312V55.291ZM2.2998 75.0752L2.33643 75.9541C2.91748 75.2705 3.70117 74.9287 4.6875 74.9287C5.7959 74.9287 6.55029 75.3535 6.95068 76.2031C7.21436 75.8223 7.55615 75.5146 7.97607 75.2803C8.40088 75.0459 8.90137 74.9287 9.47754 74.9287C11.2158 74.9287 12.0996 75.8491 12.1289 77.6899V83H10.7739V77.7705C10.7739 77.2041 10.6445 76.7817 10.3857 76.5034C10.127 76.2202 9.69238 76.0786 9.08203 76.0786C8.5791 76.0786 8.16162 76.23 7.82959 76.5327C7.49756 76.8306 7.30469 77.2334 7.25098 77.7412V83H5.88867V77.8071C5.88867 76.6548 5.32471 76.0786 4.19678 76.0786C3.30811 76.0786 2.7002 76.457 2.37305 77.2139V83H1.01807V75.0752H2.2998ZM15.3519 83H13.9969V75.0752H15.3519V83ZM13.887 72.9731C13.887 72.7534 13.9529 72.5679 14.0848 72.4165C14.2215 72.2651 14.4217 72.1895 14.6854 72.1895C14.949 72.1895 15.1492 72.2651 15.2859 72.4165C15.4227 72.5679 15.491 72.7534 15.491 72.9731C15.491 73.1929 15.4227 73.376 15.2859 73.5225C15.1492 73.6689 14.949 73.7422 14.6854 73.7422C14.4217 73.7422 14.2215 73.6689 14.0848 73.5225C13.9529 73.376 13.887 73.1929 13.887 72.9731ZM21.0577 76.291C20.8526 76.2568 20.6305 76.2397 20.3912 76.2397C19.5025 76.2397 18.8995 76.6182 18.5821 77.375V83H17.2271V75.0752H18.5455L18.5675 75.9907C19.0118 75.2827 19.6417 74.9287 20.4571 74.9287C20.7208 74.9287 20.921 74.9629 21.0577 75.0312V76.291ZM24.2147 73.1562V75.0752H25.6942V76.1226H24.2147V81.0371C24.2147 81.3545 24.2807 81.5938 24.4125 81.7549C24.5443 81.9111 24.7689 81.9893 25.0863 81.9893C25.2426 81.9893 25.4574 81.96 25.7309 81.9014V83C25.3744 83.0977 25.0277 83.1465 24.6908 83.1465C24.0854 83.1465 23.6288 82.9634 23.3212 82.5972C23.0136 82.231 22.8598 81.7109 22.8598 81.0371V76.1226H21.4169V75.0752H22.8598V73.1562H24.2147ZM28.3386 76.0347C28.9392 75.2974 29.7204 74.9287 30.6823 74.9287C32.3571 74.9287 33.2019 75.8735 33.2165 77.7632V83H31.8615V77.7559C31.8566 77.1846 31.7248 76.7622 31.466 76.4888C31.2121 76.2153 30.8142 76.0786 30.2722 76.0786C29.8327 76.0786 29.447 76.1958 29.1149 76.4302C28.7829 76.6646 28.5241 76.9722 28.3386 77.353V83H26.9836V71.75H28.3386V76.0347ZM34.9014 85.124L34.1323 84.5967C34.5913 83.957 34.8306 83.2979 34.8501 82.6191V81.396H36.1758V82.458C36.1758 82.9512 36.0537 83.4443 35.8096 83.9375C35.5703 84.4307 35.2676 84.8262 34.9014 85.124ZM48.298 73.4932H44.8702V83H43.4713V73.4932H40.0509V72.3359H48.298V73.4932ZM50.7226 76.0347C51.3231 75.2974 52.1044 74.9287 53.0663 74.9287C54.7411 74.9287 55.5858 75.8735 55.6005 77.7632V83H54.2455V77.7559C54.2406 77.1846 54.1088 76.7622 53.85 76.4888C53.5961 76.2153 53.1981 76.0786 52.6562 76.0786C52.2167 76.0786 51.831 76.1958 51.4989 76.4302C51.1669 76.6646 50.9081 76.9722 50.7226 77.353V83H49.3676V71.75H50.7226V76.0347ZM61.1599 76.291C60.9548 76.2568 60.7326 76.2397 60.4934 76.2397C59.6047 76.2397 59.0017 76.6182 58.6843 77.375V83H57.3293V75.0752H58.6477L58.6696 75.9907C59.114 75.2827 59.7438 74.9287 60.5593 74.9287C60.8229 74.9287 61.0231 74.9629 61.1599 75.0312V76.291ZM65.2544 83.1465C64.1802 83.1465 63.3062 82.7949 62.6323 82.0918C61.9585 81.3838 61.6216 80.439 61.6216 79.2573V79.0083C61.6216 78.2222 61.7705 77.5215 62.0684 76.9062C62.3711 76.2861 62.791 75.8027 63.3281 75.4561C63.8701 75.1045 64.4561 74.9287 65.0859 74.9287C66.1162 74.9287 66.917 75.2681 67.4883 75.9468C68.0596 76.6255 68.3452 77.5972 68.3452 78.8618V79.4258H62.9766C62.9961 80.207 63.2231 80.8394 63.6577 81.3228C64.0972 81.8013 64.6538 82.0405 65.3276 82.0405C65.8062 82.0405 66.2114 81.9429 66.5435 81.7476C66.8755 81.5522 67.166 81.2935 67.415 80.9712L68.2427 81.6157C67.5786 82.6362 66.5825 83.1465 65.2544 83.1465ZM65.0859 76.042C64.5391 76.042 64.0801 76.2422 63.709 76.6426C63.3379 77.0381 63.1084 77.5947 63.0205 78.3125H66.9902V78.21C66.9512 77.5215 66.7656 76.9893 66.4336 76.6133C66.1016 76.2324 65.6523 76.042 65.0859 76.042ZM72.9085 83.1465C71.8343 83.1465 70.9603 82.7949 70.2864 82.0918C69.6126 81.3838 69.2757 80.439 69.2757 79.2573V79.0083C69.2757 78.2222 69.4246 77.5215 69.7225 76.9062C70.0252 76.2861 70.4451 75.8027 70.9822 75.4561C71.5242 75.1045 72.1102 74.9287 72.74 74.9287C73.7703 74.9287 74.5711 75.2681 75.1424 75.9468C75.7137 76.6255 75.9993 77.5972 75.9993 78.8618V79.4258H70.6307C70.6502 80.207 70.8772 80.8394 71.3118 81.3228C71.7513 81.8013 72.3079 82.0405 72.9817 82.0405C73.4603 82.0405 73.8655 81.9429 74.1976 81.7476C74.5296 81.5522 74.8201 81.2935 75.0691 80.9712L75.8968 81.6157C75.2327 82.6362 74.2366 83.1465 72.9085 83.1465ZM72.74 76.042C72.1932 76.042 71.7342 76.2422 71.3631 76.6426C70.992 77.0381 70.7625 77.5947 70.6746 78.3125H74.6443V78.21C74.6053 77.5215 74.4197 76.9893 74.0877 76.6133C73.7557 76.2324 73.3064 76.042 72.74 76.042ZM81.3612 83V76.1226H80.1088V75.0752H81.3612V74.2622C81.3612 73.4126 81.5883 72.7559 82.0424 72.292C82.4965 71.8281 83.1386 71.5962 83.9687 71.5962C84.2812 71.5962 84.5912 71.6377 84.8988 71.7207L84.8256 72.8193C84.5961 72.7754 84.352 72.7534 84.0932 72.7534C83.6537 72.7534 83.3144 72.8828 83.0751 73.1416C82.8358 73.3955 82.7162 73.7617 82.7162 74.2402V75.0752H84.4081V76.1226H82.7162V83H81.3612ZM85.2507 78.9644C85.2507 78.188 85.4021 77.4897 85.7048 76.8696C86.0124 76.2495 86.4372 75.771 86.9792 75.4341C87.5261 75.0972 88.1486 74.9287 88.8469 74.9287C89.926 74.9287 90.7976 75.3022 91.4616 76.0493C92.1306 76.7964 92.465 77.79 92.465 79.0303V79.1255C92.465 79.897 92.3161 80.5903 92.0183 81.2056C91.7253 81.8159 91.3029 82.292 90.7512 82.6338C90.2043 82.9756 89.5744 83.1465 88.8615 83.1465C87.7873 83.1465 86.9157 82.7729 86.2468 82.0259C85.5827 81.2788 85.2507 80.29 85.2507 79.0596V78.9644ZM86.613 79.1255C86.613 80.0044 86.8156 80.71 87.2209 81.2422C87.6311 81.7744 88.1779 82.0405 88.8615 82.0405C89.55 82.0405 90.0969 81.772 90.5022 81.2349C90.9074 80.6929 91.1101 79.936 91.1101 78.9644C91.1101 78.0952 90.9025 77.3921 90.4875 76.855C90.0773 76.313 89.5305 76.042 88.8469 76.042C88.1779 76.042 87.6384 76.3081 87.2282 76.8403C86.8181 77.3726 86.613 78.1343 86.613 79.1255ZM97.6948 76.291C97.4897 76.2568 97.2676 76.2397 97.0283 76.2397C96.1396 76.2397 95.5366 76.6182 95.2192 77.375V83H93.8643V75.0752H95.1826L95.2046 75.9907C95.6489 75.2827 96.2788 74.9287 97.0942 74.9287C97.3579 74.9287 97.5581 74.9629 97.6948 75.0312V76.291ZM106.961 83C106.882 82.8438 106.819 82.5654 106.77 82.165C106.14 82.8193 105.388 83.1465 104.514 83.1465C103.733 83.1465 103.091 82.9268 102.588 82.4873C102.09 82.043 101.841 81.4814 101.841 80.8027C101.841 79.9775 102.153 79.3379 102.778 78.8838C103.408 78.4248 104.292 78.1953 105.43 78.1953H106.748V77.5728C106.748 77.0991 106.607 76.7231 106.323 76.4448C106.04 76.1616 105.623 76.02 105.071 76.02C104.588 76.02 104.182 76.1421 103.855 76.3862C103.528 76.6304 103.364 76.9258 103.364 77.2725H102.002C102.002 76.877 102.141 76.4961 102.42 76.1299C102.703 75.7588 103.084 75.4658 103.562 75.251C104.046 75.0361 104.575 74.9287 105.151 74.9287C106.065 74.9287 106.78 75.1582 107.297 75.6172C107.815 76.0713 108.084 76.6987 108.103 77.4995V81.147C108.103 81.8745 108.196 82.4531 108.381 82.8828V83H106.961ZM104.712 81.9673C105.137 81.9673 105.54 81.8574 105.921 81.6377C106.301 81.418 106.577 81.1323 106.748 80.7808V79.1548H105.686C104.026 79.1548 103.196 79.6406 103.196 80.6123C103.196 81.0371 103.338 81.3691 103.621 81.6084C103.904 81.8477 104.268 81.9673 104.712 81.9673ZM8.04199 102.132L9.56543 96.0752H10.9204L8.61328 104H7.51465L5.58838 97.9941L3.71338 104H2.61475L0.314941 96.0752H1.6626L3.22266 102.008L5.06836 96.0752H6.15967L8.04199 102.132ZM15.2933 104.146C14.219 104.146 13.345 103.795 12.6712 103.092C11.9974 102.384 11.6604 101.439 11.6604 100.257V100.008C11.6604 99.2222 11.8094 98.5215 12.1072 97.9062C12.41 97.2861 12.8299 96.8027 13.367 96.4561C13.909 96.1045 14.4949 95.9287 15.1248 95.9287C16.1551 95.9287 16.9559 96.2681 17.5271 96.9468C18.0984 97.6255 18.3841 98.5972 18.3841 99.8618V100.426H13.0154C13.035 101.207 13.262 101.839 13.6966 102.323C14.136 102.801 14.6927 103.041 15.3665 103.041C15.845 103.041 16.2503 102.943 16.5823 102.748C16.9144 102.552 17.2049 102.293 17.4539 101.971L18.2815 102.616C17.6175 103.636 16.6214 104.146 15.2933 104.146ZM15.1248 97.042C14.5779 97.042 14.1189 97.2422 13.7479 97.6426C13.3768 98.0381 13.1473 98.5947 13.0594 99.3125H17.0291V99.21C16.99 98.5215 16.8045 97.9893 16.4725 97.6133C16.1404 97.2324 15.6912 97.042 15.1248 97.042ZM19.3292 99.9717C19.3292 98.7559 19.6173 97.7793 20.1935 97.042C20.7696 96.2998 21.524 95.9287 22.4566 95.9287C23.3844 95.9287 24.1192 96.2461 24.6612 96.8809V92.75H26.0162V104H24.7711L24.7052 103.15C24.1632 103.814 23.4088 104.146 22.442 104.146C21.524 104.146 20.7745 103.771 20.1935 103.019C19.6173 102.267 19.3292 101.285 19.3292 100.074V99.9717ZM20.6842 100.125C20.6842 101.024 20.8697 101.727 21.2408 102.235C21.6119 102.743 22.1246 102.997 22.7789 102.997C23.6383 102.997 24.2657 102.611 24.6612 101.839V98.1992C24.256 97.4521 23.6334 97.0786 22.7936 97.0786C22.1295 97.0786 21.6119 97.335 21.2408 97.8477C20.8697 98.3604 20.6842 99.1196 20.6842 100.125ZM27.496 99.9717C27.496 98.7559 27.7841 97.7793 28.3603 97.042C28.9364 96.2998 29.6908 95.9287 30.6234 95.9287C31.5512 95.9287 32.286 96.2461 32.828 96.8809V92.75H34.183V104H32.9379L32.872 103.15C32.33 103.814 31.5756 104.146 30.6088 104.146C29.6908 104.146 28.9413 103.771 28.3603 103.019C27.7841 102.267 27.496 101.285 27.496 100.074V99.9717ZM28.851 100.125C28.851 101.024 29.0365 101.727 29.4076 102.235C29.7787 102.743 30.2914 102.997 30.9457 102.997C31.8051 102.997 32.4325 102.611 32.828 101.839V98.1992C32.4228 97.4521 31.8002 97.0786 30.9604 97.0786C30.2963 97.0786 29.7787 97.335 29.4076 97.8477C29.0365 98.3604 28.851 99.1196 28.851 100.125ZM37.4646 104H36.1096V96.0752H37.4646V104ZM35.9997 93.9731C35.9997 93.7534 36.0656 93.5679 36.1975 93.4165C36.3342 93.2651 36.5344 93.1895 36.798 93.1895C37.0617 93.1895 37.2619 93.2651 37.3986 93.4165C37.5354 93.5679 37.6037 93.7534 37.6037 93.9731C37.6037 94.1929 37.5354 94.376 37.3986 94.5225C37.2619 94.6689 37.0617 94.7422 36.798 94.7422C36.5344 94.7422 36.3342 94.6689 36.1975 94.5225C36.0656 94.376 35.9997 94.1929 35.9997 93.9731ZM40.6216 96.0752L40.6655 97.0713C41.271 96.3096 42.062 95.9287 43.0386 95.9287C44.7134 95.9287 45.5581 96.8735 45.5728 98.7632V104H44.2178V98.7559C44.2129 98.1846 44.0811 97.7622 43.8223 97.4888C43.5684 97.2153 43.1704 97.0786 42.6284 97.0786C42.189 97.0786 41.8032 97.1958 41.4712 97.4302C41.1392 97.6646 40.8804 97.9722 40.6948 98.353V104H39.3398V96.0752H40.6216ZM46.9939 99.9717C46.9939 98.7363 47.2796 97.7549 47.8509 97.0273C48.4222 96.2949 49.179 95.9287 50.1214 95.9287C51.0882 95.9287 51.8426 96.2705 52.3846 96.9541L52.4505 96.0752H53.6883V103.81C53.6883 104.835 53.3831 105.643 52.7728 106.234C52.1673 106.825 51.3519 107.12 50.3265 107.12C49.7552 107.12 49.1961 106.998 48.6492 106.754C48.1023 106.51 47.6849 106.175 47.3968 105.75L48.0999 104.938C48.681 105.655 49.3914 106.014 50.2313 106.014C50.8904 106.014 51.4031 105.829 51.7693 105.458C52.1404 105.086 52.326 104.564 52.326 103.89V103.209C51.784 103.834 51.0442 104.146 50.1067 104.146C49.179 104.146 48.4271 103.773 47.8509 103.026C47.2796 102.279 46.9939 101.261 46.9939 99.9717ZM48.3563 100.125C48.3563 101.019 48.5394 101.722 48.9056 102.235C49.2718 102.743 49.7845 102.997 50.4437 102.997C51.2981 102.997 51.9256 102.608 52.326 101.832V98.2139C51.9109 97.457 51.2884 97.0786 50.4583 97.0786C49.7991 97.0786 49.284 97.335 48.9129 97.8477C48.5418 98.3604 48.3563 99.1196 48.3563 100.125ZM55.3951 106.124L54.6261 105.597C55.0851 104.957 55.3243 104.298 55.3438 103.619V102.396H56.6695V103.458C56.6695 103.951 56.5475 104.444 56.3033 104.938C56.0641 105.431 55.7613 105.826 55.3951 106.124ZM67.6052 101.217H63.1374L62.134 104H60.6838L64.7561 93.3359H65.9865L70.0661 104H68.6232L67.6052 101.217ZM63.5622 100.06H67.1877L65.3713 95.0718L63.5622 100.06ZM72.271 96.0752L72.3149 97.0713C72.9204 96.3096 73.7114 95.9287 74.688 95.9287C76.3628 95.9287 77.2075 96.8735 77.2222 98.7632V104H75.8672V98.7559C75.8623 98.1846 75.7305 97.7622 75.4717 97.4888C75.2178 97.2153 74.8198 97.0786 74.2778 97.0786C73.8384 97.0786 73.4526 97.1958 73.1206 97.4302C72.7886 97.6646 72.5298 97.9722 72.3442 98.353V104H70.9893V96.0752H72.271ZM78.636 99.9717C78.636 98.7559 78.9241 97.7793 79.5003 97.042C80.0765 96.2998 80.8309 95.9287 81.7635 95.9287C82.6912 95.9287 83.4261 96.2461 83.9681 96.8809V92.75H85.323V104H84.0779L84.012 103.15C83.47 103.814 82.7156 104.146 81.7488 104.146C80.8309 104.146 80.0813 103.771 79.5003 103.019C78.9241 102.267 78.636 101.285 78.636 100.074V99.9717ZM79.991 100.125C79.991 101.024 80.1766 101.727 80.5477 102.235C80.9187 102.743 81.4314 102.997 82.0857 102.997C82.9451 102.997 83.5726 102.611 83.9681 101.839V98.1992C83.5628 97.4521 82.9402 97.0786 82.1004 97.0786C81.4363 97.0786 80.9187 97.335 80.5477 97.8477C80.1766 98.3604 79.991 99.1196 79.991 100.125ZM91.2196 104V97.1226H89.9672V96.0752H91.2196V95.2622C91.2196 94.4126 91.4467 93.7559 91.9008 93.292C92.3549 92.8281 92.997 92.5962 93.827 92.5962C94.1395 92.5962 94.4496 92.6377 94.7572 92.7207L94.684 93.8193C94.4545 93.7754 94.2104 93.7534 93.9516 93.7534C93.5121 93.7534 93.1728 93.8828 92.9335 94.1416C92.6942 94.3955 92.5746 94.7617 92.5746 95.2402V96.0752H94.2665V97.1226H92.5746V104H91.2196ZM95.1091 99.9644C95.1091 99.188 95.2605 98.4897 95.5632 97.8696C95.8708 97.2495 96.2956 96.771 96.8376 96.4341C97.3845 96.0972 98.007 95.9287 98.7053 95.9287C99.7844 95.9287 100.656 96.3022 101.32 97.0493C101.989 97.7964 102.323 98.79 102.323 100.03V100.125C102.323 100.897 102.175 101.59 101.877 102.206C101.584 102.816 101.161 103.292 100.61 103.634C100.063 103.976 99.4328 104.146 98.7199 104.146C97.6457 104.146 96.7741 103.773 96.1052 103.026C95.4411 102.279 95.1091 101.29 95.1091 100.06V99.9644ZM96.4714 100.125C96.4714 101.004 96.674 101.71 97.0793 102.242C97.4895 102.774 98.0363 103.041 98.7199 103.041C99.4084 103.041 99.9553 102.772 100.361 102.235C100.766 101.693 100.968 100.936 100.968 99.9644C100.968 99.0952 100.761 98.3921 100.346 97.855C99.9357 97.313 99.3889 97.042 98.7053 97.042C98.0363 97.042 97.4968 97.3081 97.0866 97.8403C96.6765 98.3726 96.4714 99.1343 96.4714 100.125ZM108.615 103.216C108.088 103.836 107.314 104.146 106.293 104.146C105.449 104.146 104.804 103.902 104.36 103.414C103.92 102.921 103.698 102.193 103.693 101.231V96.0752H105.048V101.195C105.048 102.396 105.537 102.997 106.513 102.997C107.548 102.997 108.237 102.611 108.579 101.839V96.0752H109.934V104H108.645L108.615 103.216ZM115.53 97.291C115.325 97.2568 115.102 97.2397 114.863 97.2397C113.974 97.2397 113.371 97.6182 113.054 98.375V104H111.699V96.0752H113.017L113.039 96.9907C113.484 96.2827 114.114 95.9287 114.929 95.9287C115.193 95.9287 115.393 95.9629 115.53 96.0312V97.291ZM120.569 104V97.1226H119.317V96.0752H120.569V95.2622C120.569 94.4126 120.796 93.7559 121.25 93.292C121.704 92.8281 122.347 92.5962 123.177 92.5962C123.489 92.5962 123.799 92.6377 124.107 92.7207L124.034 93.8193C123.804 93.7754 123.56 93.7534 123.301 93.7534C122.862 93.7534 122.522 93.8828 122.283 94.1416C122.044 94.3955 121.924 94.7617 121.924 95.2402V96.0752H123.616V97.1226H121.924V104H120.569ZM124.459 99.9644C124.459 99.188 124.61 98.4897 124.913 97.8696C125.22 97.2495 125.645 96.771 126.187 96.4341C126.734 96.0972 127.357 95.9287 128.055 95.9287C129.134 95.9287 130.006 96.3022 130.67 97.0493C131.339 97.7964 131.673 98.79 131.673 100.03V100.125C131.673 100.897 131.524 101.59 131.226 102.206C130.933 102.816 130.511 103.292 129.959 103.634C129.412 103.976 128.782 104.146 128.07 104.146C126.995 104.146 126.124 103.773 125.455 103.026C124.791 102.279 124.459 101.29 124.459 100.06V99.9644ZM125.821 100.125C125.821 101.004 126.024 101.71 126.429 102.242C126.839 102.774 127.386 103.041 128.07 103.041C128.758 103.041 129.305 102.772 129.71 102.235C130.115 101.693 130.318 100.936 130.318 99.9644C130.318 99.0952 130.111 98.3921 129.696 97.855C129.285 97.313 128.738 97.042 128.055 97.042C127.386 97.042 126.846 97.3081 126.436 97.8403C126.026 98.3726 125.821 99.1343 125.821 100.125ZM136.903 97.291C136.698 97.2568 136.476 97.2397 136.236 97.2397C135.348 97.2397 134.745 97.6182 134.427 98.375V104H133.072V96.0752H134.391L134.413 96.9907C134.857 96.2827 135.487 95.9287 136.302 95.9287C136.566 95.9287 136.766 95.9629 136.903 96.0312V97.291ZM0.695801 120.972C0.695801 119.756 0.983887 118.779 1.56006 118.042C2.13623 117.3 2.89062 116.929 3.82324 116.929C4.75098 116.929 5.48584 117.246 6.02783 117.881V113.75H7.38281V125H6.1377L6.07178 124.15C5.52979 124.814 4.77539 125.146 3.80859 125.146C2.89062 125.146 2.14111 124.771 1.56006 124.019C0.983887 123.267 0.695801 122.285 0.695801 121.074V120.972ZM2.05078 121.125C2.05078 122.024 2.23633 122.727 2.60742 123.235C2.97852 123.743 3.49121 123.997 4.14551 123.997C5.00488 123.997 5.63232 123.611 6.02783 122.839V119.199C5.62256 118.452 5 118.079 4.16016 118.079C3.49609 118.079 2.97852 118.335 2.60742 118.848C2.23633 119.36 2.05078 120.12 2.05078 121.125ZM12.4808 125.146C11.4065 125.146 10.5325 124.795 9.85869 124.092C9.18486 123.384 8.84795 122.439 8.84795 121.257V121.008C8.84795 120.222 8.99687 119.521 9.29473 118.906C9.59746 118.286 10.0174 117.803 10.5545 117.456C11.0965 117.104 11.6824 116.929 12.3123 116.929C13.3426 116.929 14.1434 117.268 14.7146 117.947C15.2859 118.625 15.5716 119.597 15.5716 120.862V121.426H10.2029C10.2225 122.207 10.4495 122.839 10.8841 123.323C11.3235 123.801 11.8802 124.041 12.554 124.041C13.0325 124.041 13.4378 123.943 13.7698 123.748C14.1019 123.552 14.3924 123.293 14.6414 122.971L15.469 123.616C14.805 124.636 13.8089 125.146 12.4808 125.146ZM12.3123 118.042C11.7654 118.042 11.3064 118.242 10.9354 118.643C10.5643 119.038 10.3348 119.595 10.2469 120.312H14.2166V120.21C14.1775 119.521 13.992 118.989 13.66 118.613C13.3279 118.232 12.8787 118.042 12.3123 118.042ZM21.7389 125C21.6607 124.844 21.5973 124.565 21.5484 124.165C20.9186 124.819 20.1666 125.146 19.2926 125.146C18.5113 125.146 17.8692 124.927 17.3663 124.487C16.8683 124.043 16.6192 123.481 16.6192 122.803C16.6192 121.978 16.9317 121.338 17.5567 120.884C18.1866 120.425 19.0704 120.195 20.2081 120.195H21.5265V119.573C21.5265 119.099 21.3849 118.723 21.1017 118.445C20.8185 118.162 20.401 118.02 19.8492 118.02C19.3658 118.02 18.9605 118.142 18.6334 118.386C18.3062 118.63 18.1427 118.926 18.1427 119.272H16.7804C16.7804 118.877 16.9195 118.496 17.1979 118.13C17.4811 117.759 17.8619 117.466 18.3404 117.251C18.8238 117.036 19.3536 116.929 19.9298 116.929C20.8429 116.929 21.5582 117.158 22.0758 117.617C22.5934 118.071 22.8619 118.699 22.8814 119.5V123.147C22.8814 123.875 22.9742 124.453 23.1598 124.883V125H21.7389ZM19.4903 123.967C19.9151 123.967 20.318 123.857 20.6988 123.638C21.0797 123.418 21.3556 123.132 21.5265 122.781V121.155H20.4645C18.8043 121.155 17.9742 121.641 17.9742 122.612C17.9742 123.037 18.1158 123.369 18.399 123.608C18.6822 123.848 19.046 123.967 19.4903 123.967ZM26.5438 115.156V117.075H28.0233V118.123H26.5438V123.037C26.5438 123.354 26.6098 123.594 26.7416 123.755C26.8734 123.911 27.098 123.989 27.4154 123.989C27.5717 123.989 27.7865 123.96 28.06 123.901V125C27.7035 125.098 27.3568 125.146 27.0199 125.146C26.4145 125.146 25.9579 124.963 25.6503 124.597C25.3427 124.231 25.1889 123.711 25.1889 123.037V118.123H23.746V117.075H25.1889V115.156H26.5438ZM30.6677 118.035C31.2683 117.297 32.0495 116.929 33.0114 116.929C34.6862 116.929 35.531 117.874 35.5456 119.763V125H34.1906V119.756C34.1857 119.185 34.0539 118.762 33.7951 118.489C33.5412 118.215 33.1433 118.079 32.6013 118.079C32.1618 118.079 31.7761 118.196 31.444 118.43C31.112 118.665 30.8532 118.972 30.6677 119.353V125H29.3127V113.75H30.6677V118.035Z" fill="#2A2921"/>
</svg>
