<svg width="169" height="136" viewBox="0 0 169 136" fill="none" xmlns="http://www.w3.org/2000/svg">
<path d="M12.16 13.8C12.6 13.8 12.9533 13.9467 13.22 14.24C13.5 14.52 13.64 14.8867 13.64 15.34V26.56C13.64 27.0267 13.5 27.4067 13.22 27.7C12.9533 27.98 12.6 28.12 12.16 28.12C11.68 28.12 11.2933 27.9467 11 27.6L4.3 19.02V26.56C4.3 27.0267 4.16667 27.4067 3.9 27.7C3.64667 27.98 3.3 28.12 2.86 28.12C2.42 28.12 2.06667 27.98 1.8 27.7C1.53333 27.4067 1.4 27.0267 1.4 26.56V15.34C1.4 14.8867 1.53333 14.52 1.8 14.24C2.08 13.9467 2.44 13.8 2.88 13.8C3.37333 13.8 3.75333 13.9733 4.02 14.32L10.72 22.84V15.34C10.72 14.8867 10.8533 14.52 11.12 14.24C11.3867 13.9467 11.7333 13.8 12.16 13.8ZM23.7391 17.98C24.2057 17.98 24.5724 18.1067 24.8391 18.36C25.1191 18.6133 25.2591 18.96 25.2591 19.4V26.74C25.2591 27.1533 25.1124 27.4867 24.8191 27.74C24.5391 27.9933 24.1724 28.12 23.7191 28.12C23.2924 28.12 22.9524 28 22.6991 27.76C22.4457 27.52 22.3191 27.2 22.3191 26.8V26.6C22.0124 27.1067 21.6057 27.4933 21.0991 27.76C20.6057 28.0267 20.0457 28.16 19.4191 28.16C18.1791 28.16 17.2524 27.82 16.6391 27.14C16.0391 26.4467 15.7391 25.4067 15.7391 24.02V19.4C15.7391 18.96 15.8724 18.6133 16.1391 18.36C16.4191 18.1067 16.7924 17.98 17.2591 17.98C17.7257 17.98 18.0924 18.1067 18.3591 18.36C18.6257 18.6133 18.7591 18.96 18.7591 19.4V24.08C18.7591 24.6667 18.8791 25.1 19.1191 25.38C19.3724 25.66 19.7524 25.8 20.2591 25.8C20.8457 25.8 21.3191 25.6 21.6791 25.2C22.0524 24.8 22.2391 24.2733 22.2391 23.62V19.4C22.2391 18.96 22.3724 18.6133 22.6391 18.36C22.9057 18.1067 23.2724 17.98 23.7391 17.98ZM33.0364 17.98C33.4364 17.9533 33.7497 18.0467 33.9764 18.26C34.2164 18.46 34.3364 18.7667 34.3364 19.18C34.3364 19.62 34.2297 19.9467 34.0164 20.16C33.8031 20.3733 33.4231 20.5067 32.8764 20.56L32.2764 20.62C31.5431 20.7 31.0097 20.94 30.6764 21.34C30.3564 21.74 30.1964 22.2533 30.1964 22.88V26.7C30.1964 27.1667 30.0497 27.52 29.7564 27.76C29.4764 28 29.1231 28.12 28.6964 28.12C28.2564 28.12 27.8897 28 27.5964 27.76C27.3164 27.52 27.1764 27.1667 27.1764 26.7V19.36C27.1764 18.92 27.3231 18.58 27.6164 18.34C27.9097 18.1 28.2631 17.98 28.6764 17.98C29.0764 17.98 29.4097 18.1 29.6764 18.34C29.9431 18.5667 30.0764 18.8867 30.0764 19.3V19.84C30.3164 19.2667 30.6764 18.8267 31.1564 18.52C31.6497 18.2133 32.1831 18.04 32.7564 18L33.0364 17.98ZM38.4261 28.16C37.6128 28.16 36.9061 28.0933 36.3061 27.96C35.7061 27.8267 35.1794 27.6133 34.7261 27.32C34.5261 27.2 34.3728 27.04 34.2661 26.84C34.1594 26.64 34.1061 26.4133 34.1061 26.16C34.1061 25.8533 34.1928 25.6 34.3661 25.4C34.5394 25.1867 34.7528 25.08 35.0061 25.08C35.1794 25.08 35.3528 25.1133 35.5261 25.18C35.6994 25.2333 35.8794 25.3 36.0661 25.38C36.4394 25.5533 36.8061 25.6933 37.1661 25.8C37.5261 25.8933 37.9728 25.94 38.5061 25.94C38.9728 25.94 39.3328 25.8667 39.5861 25.72C39.8528 25.5733 39.9861 25.3733 39.9861 25.12C39.9861 24.9333 39.9261 24.7867 39.8061 24.68C39.6994 24.56 39.4928 24.4533 39.1861 24.36C38.8794 24.2667 38.3928 24.1533 37.7261 24.02C36.5394 23.7933 35.6861 23.4533 35.1661 23C34.6461 22.5467 34.3861 21.9133 34.3861 21.1C34.3861 20.5 34.5661 19.96 34.9261 19.48C35.2994 19 35.8061 18.6267 36.4461 18.36C37.0861 18.08 37.8061 17.94 38.6061 17.94C39.1794 17.94 39.7394 18.0133 40.2861 18.16C40.8328 18.3067 41.3194 18.5133 41.7461 18.78C42.1594 19.0333 42.3661 19.4067 42.3661 19.9C42.3661 20.22 42.2794 20.4867 42.1061 20.7C41.9328 20.9133 41.7194 21.02 41.4661 21.02C41.1594 21.02 40.7928 20.9 40.3661 20.66C40.0328 20.4867 39.7261 20.36 39.4461 20.28C39.1794 20.1867 38.8594 20.14 38.4861 20.14C38.0728 20.14 37.7461 20.22 37.5061 20.38C37.2661 20.5267 37.1461 20.7333 37.1461 21C37.1461 21.28 37.2861 21.4933 37.5661 21.64C37.8461 21.7867 38.3861 21.9333 39.1861 22.08C40.0794 22.2533 40.7794 22.4667 41.2861 22.72C41.7928 22.96 42.1594 23.2667 42.3861 23.64C42.6128 24.0133 42.7261 24.4867 42.7261 25.06C42.7261 26.0067 42.3328 26.76 41.5461 27.32C40.7728 27.88 39.7328 28.16 38.4261 28.16ZM51.9322 25.08C52.1989 25.08 52.4122 25.1867 52.5722 25.4C52.7455 25.6133 52.8322 25.8867 52.8322 26.22C52.8322 26.4467 52.7655 26.66 52.6322 26.86C52.4989 27.0467 52.3122 27.2067 52.0722 27.34C51.6189 27.58 51.0922 27.78 50.4922 27.94C49.8922 28.0867 49.3389 28.16 48.8322 28.16C47.7655 28.16 46.8322 27.9533 46.0322 27.54C45.2455 27.1267 44.6389 26.54 44.2122 25.78C43.7855 25.0067 43.5722 24.1 43.5722 23.06C43.5722 22.06 43.7789 21.1733 44.1922 20.4C44.6055 19.6267 45.1789 19.0267 45.9122 18.6C46.6455 18.16 47.4789 17.94 48.4122 17.94C49.3055 17.94 50.0855 18.14 50.7522 18.54C51.4322 18.9267 51.9589 19.4867 52.3322 20.22C52.7055 20.94 52.8922 21.7867 52.8922 22.76C52.8922 23.0533 52.8189 23.28 52.6722 23.44C52.5389 23.5867 52.3455 23.66 52.0922 23.66H46.4922C46.5855 24.4467 46.8255 25.02 47.2122 25.38C47.5989 25.7267 48.1522 25.9 48.8722 25.9C49.2589 25.9 49.6055 25.8533 49.9122 25.76C50.2189 25.6667 50.5589 25.54 50.9322 25.38C51.1189 25.3 51.2989 25.2333 51.4722 25.18C51.6455 25.1133 51.7989 25.08 51.9322 25.08ZM48.4922 20.02C47.9189 20.02 47.4589 20.2067 47.1122 20.58C46.7655 20.94 46.5589 21.4667 46.4922 22.16H50.3522C50.3122 21.4533 50.1322 20.92 49.8122 20.56C49.5055 20.2 49.0655 20.02 48.4922 20.02ZM60.1763 17.98C60.5763 17.9533 60.8896 18.0467 61.1163 18.26C61.3563 18.46 61.4763 18.7667 61.4763 19.18C61.4763 19.62 61.3696 19.9467 61.1563 20.16C60.9429 20.3733 60.5629 20.5067 60.0163 20.56L59.4163 20.62C58.6829 20.7 58.1496 20.94 57.8163 21.34C57.4963 21.74 57.3363 22.2533 57.3363 22.88V26.7C57.3363 27.1667 57.1896 27.52 56.8963 27.76C56.6163 28 56.2629 28.12 55.8363 28.12C55.3963 28.12 55.0296 28 54.7363 27.76C54.4563 27.52 54.3163 27.1667 54.3163 26.7V19.36C54.3163 18.92 54.4629 18.58 54.7563 18.34C55.0496 18.1 55.4029 17.98 55.8163 17.98C56.2163 17.98 56.5496 18.1 56.8163 18.34C57.0829 18.5667 57.2163 18.8867 57.2163 19.3V19.84C57.4563 19.2667 57.8163 18.8267 58.2962 18.52C58.7896 18.2133 59.3229 18.04 59.8963 18L60.1763 17.98ZM69.2491 18.84C69.3691 18.56 69.5357 18.3533 69.7491 18.22C69.9757 18.0867 70.2157 18.02 70.4691 18.02C70.8557 18.02 71.1957 18.1467 71.4891 18.4C71.7824 18.64 71.9291 18.9333 71.9291 19.28C71.9291 19.4667 71.8824 19.6533 71.7891 19.84L66.4091 30.88C66.2757 31.16 66.0957 31.3667 65.8691 31.5C65.6424 31.6467 65.4024 31.72 65.1491 31.72C64.7757 31.72 64.4491 31.6 64.1691 31.36C63.8891 31.12 63.7491 30.8267 63.7491 30.48C63.7491 30.2667 63.7957 30.0667 63.8891 29.88L65.2091 27.14L61.6491 19.84C61.5691 19.6533 61.5291 19.4733 61.5291 19.3C61.5291 18.94 61.6824 18.6333 61.9891 18.38C62.3091 18.1267 62.6691 18 63.0691 18C63.3357 18 63.5824 18.0733 63.8091 18.22C64.0357 18.3533 64.2157 18.56 64.3491 18.84L66.8291 24.24L69.2491 18.84ZM89.8186 26.02C90.0186 26.3133 90.1186 26.6 90.1186 26.88C90.1186 27.2533 89.9653 27.56 89.6586 27.8C89.3653 28.04 89.0186 28.16 88.6186 28.16C88.3653 28.16 88.1186 28.1 87.8786 27.98C87.6386 27.86 87.4386 27.6733 87.2786 27.42L84.6386 23.5C84.4119 23.1533 84.1719 22.9067 83.9186 22.76C83.6653 22.6 83.3453 22.52 82.9586 22.52H81.3386V26.56C81.3386 27.04 81.1986 27.42 80.9186 27.7C80.6519 27.98 80.2853 28.12 79.8186 28.12C79.3386 28.12 78.9586 27.98 78.6786 27.7C78.3986 27.42 78.2586 27.04 78.2586 26.56V15.36C78.2586 14.8933 78.3853 14.5333 78.6386 14.28C78.8919 14.0267 79.2519 13.9 79.7186 13.9H84.7386C86.3919 13.9 87.6386 14.2667 88.4786 15C89.3319 15.72 89.7586 16.7667 89.7586 18.14C89.7586 19.22 89.4586 20.12 88.8586 20.84C88.2586 21.56 87.4119 22.0333 86.3186 22.26C86.7186 22.34 87.0719 22.5 87.3786 22.74C87.6986 22.9667 88.0053 23.3 88.2986 23.74L89.8186 26.02ZM84.2786 20.16C85.1719 20.16 85.8186 20.0067 86.2186 19.7C86.6186 19.38 86.8186 18.8867 86.8186 18.22C86.8186 17.54 86.6186 17.0467 86.2186 16.74C85.8186 16.4333 85.1719 16.28 84.2786 16.28H81.2986V20.16H84.2786ZM97.862 17.94C100.142 17.94 101.282 19.32 101.282 22.08V26.7C101.282 27.14 101.142 27.4867 100.862 27.74C100.595 27.9933 100.229 28.12 99.762 28.12C99.2954 28.12 98.9287 27.9933 98.662 27.74C98.3954 27.4867 98.262 27.14 98.262 26.7V22.04C98.262 21.4533 98.1354 21.02 97.882 20.74C97.642 20.4467 97.262 20.3 96.742 20.3C96.1154 20.3 95.6087 20.5 95.222 20.9C94.8487 21.3 94.662 21.8333 94.662 22.5V26.7C94.662 27.14 94.5287 27.4867 94.262 27.74C93.9954 27.9933 93.6287 28.12 93.162 28.12C92.6954 28.12 92.322 27.9933 92.042 27.74C91.7754 27.4867 91.642 27.14 91.642 26.7V15.18C91.642 14.7667 91.782 14.4333 92.062 14.18C92.3554 13.9267 92.7354 13.8 93.202 13.8C93.642 13.8 93.9954 13.92 94.262 14.16C94.5287 14.4 94.662 14.72 94.662 15.12V19.48C95.0087 18.9733 95.4554 18.5933 96.002 18.34C96.5487 18.0733 97.1687 17.94 97.862 17.94ZM109.837 18.84C109.957 18.56 110.123 18.3533 110.337 18.22C110.563 18.0867 110.803 18.02 111.057 18.02C111.443 18.02 111.783 18.1467 112.077 18.4C112.37 18.64 112.517 18.9333 112.517 19.28C112.517 19.4667 112.47 19.6533 112.377 19.84L106.997 30.88C106.863 31.16 106.683 31.3667 106.457 31.5C106.23 31.6467 105.99 31.72 105.737 31.72C105.363 31.72 105.037 31.6 104.757 31.36C104.477 31.12 104.337 30.8267 104.337 30.48C104.337 30.2667 104.383 30.0667 104.477 29.88L105.797 27.14L102.237 19.84C102.157 19.6533 102.117 19.4733 102.117 19.3C102.117 18.94 102.27 18.6333 102.577 18.38C102.897 18.1267 103.257 18 103.657 18C103.923 18 104.17 18.0733 104.397 18.22C104.623 18.3533 104.803 18.56 104.937 18.84L107.417 24.24L109.837 18.84ZM125.52 17.94C126.587 17.94 127.407 18.2667 127.98 18.92C128.553 19.56 128.84 20.6133 128.84 22.08V26.7C128.84 27.1667 128.7 27.52 128.42 27.76C128.14 28 127.78 28.12 127.34 28.12C126.913 28.12 126.553 28 126.26 27.76C125.967 27.52 125.82 27.1667 125.82 26.7V22.04C125.82 21.4 125.707 20.9533 125.48 20.7C125.267 20.4333 124.933 20.3 124.48 20.3C123.92 20.3 123.473 20.4933 123.14 20.88C122.807 21.2667 122.64 21.8067 122.64 22.5V26.7C122.64 27.1667 122.5 27.52 122.22 27.76C121.94 28 121.58 28.12 121.14 28.12C120.713 28.12 120.353 28 120.06 27.76C119.767 27.52 119.62 27.1667 119.62 26.7V22.04C119.62 21.4 119.507 20.9533 119.28 20.7C119.067 20.4333 118.733 20.3 118.28 20.3C117.72 20.3 117.273 20.4933 116.94 20.88C116.607 21.2667 116.44 21.8067 116.44 22.5V26.7C116.44 27.1667 116.293 27.52 116 27.76C115.72 28 115.367 28.12 114.94 28.12C114.513 28.12 114.153 28 113.86 27.76C113.567 27.52 113.42 27.1667 113.42 26.7V19.36C113.42 18.92 113.567 18.58 113.86 18.34C114.167 18.1 114.533 17.98 114.96 17.98C115.36 17.98 115.693 18.1 115.96 18.34C116.227 18.5667 116.36 18.8867 116.36 19.3V19.5C116.68 18.9933 117.093 18.6067 117.6 18.34C118.12 18.0733 118.707 17.94 119.36 17.94C120.067 17.94 120.66 18.0867 121.14 18.38C121.633 18.66 122.013 19.12 122.28 19.76C122.587 19.2 123.02 18.76 123.58 18.44C124.153 18.1067 124.8 17.94 125.52 17.94ZM138.595 25.08C138.862 25.08 139.075 25.1867 139.235 25.4C139.409 25.6133 139.495 25.8867 139.495 26.22C139.495 26.4467 139.429 26.66 139.295 26.86C139.162 27.0467 138.975 27.2067 138.735 27.34C138.282 27.58 137.755 27.78 137.155 27.94C136.555 28.0867 136.002 28.16 135.495 28.16C134.429 28.16 133.495 27.9533 132.695 27.54C131.909 27.1267 131.302 26.54 130.875 25.78C130.449 25.0067 130.235 24.1 130.235 23.06C130.235 22.06 130.442 21.1733 130.855 20.4C131.269 19.6267 131.842 19.0267 132.575 18.6C133.309 18.16 134.142 17.94 135.075 17.94C135.969 17.94 136.749 18.14 137.415 18.54C138.095 18.9267 138.622 19.4867 138.995 20.22C139.369 20.94 139.555 21.7867 139.555 22.76C139.555 23.0533 139.482 23.28 139.335 23.44C139.202 23.5867 139.009 23.66 138.755 23.66H133.155C133.249 24.4467 133.489 25.02 133.875 25.38C134.262 25.7267 134.815 25.9 135.535 25.9C135.922 25.9 136.269 25.8533 136.575 25.76C136.882 25.6667 137.222 25.54 137.595 25.38C137.782 25.3 137.962 25.2333 138.135 25.18C138.309 25.1133 138.462 25.08 138.595 25.08ZM135.155 20.02C134.582 20.02 134.122 20.2067 133.775 20.58C133.429 20.94 133.222 21.4667 133.155 22.16H137.015C136.975 21.4533 136.795 20.92 136.475 20.56C136.169 20.2 135.729 20.02 135.155 20.02ZM144.7 28.16C143.886 28.16 143.18 28.0933 142.58 27.96C141.98 27.8267 141.453 27.6133 141 27.32C140.8 27.2 140.646 27.04 140.54 26.84C140.433 26.64 140.38 26.4133 140.38 26.16C140.38 25.8533 140.466 25.6 140.64 25.4C140.813 25.1867 141.026 25.08 141.28 25.08C141.453 25.08 141.626 25.1133 141.8 25.18C141.973 25.2333 142.153 25.3 142.34 25.38C142.713 25.5533 143.08 25.6933 143.44 25.8C143.8 25.8933 144.246 25.94 144.78 25.94C145.246 25.94 145.606 25.8667 145.86 25.72C146.126 25.5733 146.26 25.3733 146.26 25.12C146.26 24.9333 146.2 24.7867 146.08 24.68C145.973 24.56 145.766 24.4533 145.46 24.36C145.153 24.2667 144.666 24.1533 144 24.02C142.813 23.7933 141.96 23.4533 141.44 23C140.92 22.5467 140.66 21.9133 140.66 21.1C140.66 20.5 140.84 19.96 141.2 19.48C141.573 19 142.08 18.6267 142.72 18.36C143.36 18.08 144.08 17.94 144.88 17.94C145.453 17.94 146.013 18.0133 146.56 18.16C147.106 18.3067 147.593 18.5133 148.02 18.78C148.433 19.0333 148.64 19.4067 148.64 19.9C148.64 20.22 148.553 20.4867 148.38 20.7C148.206 20.9133 147.993 21.02 147.74 21.02C147.433 21.02 147.066 20.9 146.64 20.66C146.306 20.4867 146 20.36 145.72 20.28C145.453 20.1867 145.133 20.14 144.76 20.14C144.346 20.14 144.02 20.22 143.78 20.38C143.54 20.5267 143.42 20.7333 143.42 21C143.42 21.28 143.56 21.4933 143.84 21.64C144.12 21.7867 144.66 21.9333 145.46 22.08C146.353 22.2533 147.053 22.4667 147.56 22.72C148.066 22.96 148.433 23.2667 148.66 23.64C148.886 24.0133 149 24.4867 149 25.06C149 26.0067 148.606 26.76 147.82 27.32C147.046 27.88 146.006 28.16 144.7 28.16Z" fill="#2A2921"/>
<path d="M10.7666 56.6313C10.7666 58.3452 10.332 59.6929 9.46289 60.6743C8.59863 61.6558 7.39502 62.1465 5.85205 62.1465C4.2749 62.1465 3.05664 61.6655 2.19727 60.7036C1.34277 59.7368 0.915527 58.3745 0.915527 56.6167C0.915527 54.8735 1.34521 53.5234 2.20459 52.5664C3.06396 51.6045 4.28467 51.1235 5.8667 51.1235C7.40479 51.1235 8.60596 51.6118 9.47021 52.5884C10.3345 53.5649 10.7666 54.9126 10.7666 56.6313ZM2.23389 56.6313C2.23389 58.0815 2.5415 59.1826 3.15674 59.9346C3.77686 60.6816 4.67529 61.0552 5.85205 61.0552C7.03857 61.0552 7.93457 60.6816 8.54004 59.9346C9.14551 59.1875 9.44824 58.0864 9.44824 56.6313C9.44824 55.1909 9.14551 54.0996 8.54004 53.3574C7.93945 52.6104 7.04834 52.2368 5.8667 52.2368C4.68018 52.2368 3.77686 52.6128 3.15674 53.3647C2.5415 54.1118 2.23389 55.2007 2.23389 56.6313ZM18.1717 62V56.8071C18.1717 56.1528 18.0228 55.6646 17.7249 55.3423C17.4271 55.02 16.9607 54.8589 16.326 54.8589C15.4861 54.8589 14.8709 55.0859 14.4803 55.54C14.0896 55.9941 13.8943 56.7437 13.8943 57.7886V62H12.6785V53.9727H13.6673L13.865 55.0713H13.9236C14.1727 54.6758 14.5218 54.3706 14.971 54.1558C15.4202 53.936 15.9207 53.8262 16.4725 53.8262C17.4393 53.8262 18.1668 54.0605 18.6551 54.5293C19.1434 54.9932 19.3875 55.7378 19.3875 56.7632V62H18.1717ZM24.9835 62.1465C23.797 62.1465 22.8595 61.7852 22.171 61.0625C21.4874 60.3398 21.1456 59.3364 21.1456 58.0522C21.1456 56.7583 21.463 55.7305 22.0978 54.9688C22.7374 54.207 23.5943 53.8262 24.6686 53.8262C25.6744 53.8262 26.4703 54.1582 27.0562 54.8223C27.6422 55.4814 27.9352 56.353 27.9352 57.437V58.2061H22.4054C22.4298 59.1484 22.6666 59.8638 23.1158 60.3521C23.5699 60.8403 24.2071 61.0845 25.0274 61.0845C25.8917 61.0845 26.7462 60.9038 27.5909 60.5425V61.6265C27.1612 61.812 26.7535 61.9438 26.3678 62.022C25.9869 62.105 25.5255 62.1465 24.9835 62.1465ZM24.6539 54.8442C24.0094 54.8442 23.4942 55.0542 23.1085 55.4741C22.7276 55.894 22.503 56.4751 22.4347 57.2173H26.6314C26.6314 56.4507 26.4605 55.8647 26.1187 55.4595C25.777 55.0493 25.2887 54.8442 24.6539 54.8442ZM36.9299 54.9175H34.8864V62H33.6706V54.9175H32.2351V54.3682L33.6706 53.9287V53.4819C33.6706 51.5093 34.5324 50.5229 36.2561 50.5229C36.6809 50.5229 37.1789 50.6084 37.7502 50.7793L37.4353 51.7534C36.9665 51.6021 36.5661 51.5264 36.2341 51.5264C35.7751 51.5264 35.4357 51.6802 35.216 51.9878C34.9963 52.2905 34.8864 52.7788 34.8864 53.4526V53.9727H36.9299V54.9175ZM45.0234 57.979C45.0234 59.2876 44.6938 60.3105 44.0347 61.0479C43.3755 61.7803 42.4648 62.1465 41.3027 62.1465C40.585 62.1465 39.9478 61.978 39.3911 61.6411C38.8345 61.3042 38.4048 60.8208 38.1021 60.1909C37.7993 59.561 37.6479 58.8237 37.6479 57.979C37.6479 56.6704 37.9751 55.6523 38.6294 54.9248C39.2837 54.1924 40.1919 53.8262 41.354 53.8262C42.4771 53.8262 43.3682 54.1997 44.0273 54.9468C44.6914 55.6938 45.0234 56.7046 45.0234 57.979ZM38.9077 57.979C38.9077 59.0044 39.1128 59.7856 39.5229 60.3228C39.9331 60.8599 40.5361 61.1284 41.332 61.1284C42.1279 61.1284 42.731 60.8623 43.1411 60.3301C43.5562 59.793 43.7637 59.0093 43.7637 57.979C43.7637 56.9585 43.5562 56.1846 43.1411 55.6572C42.731 55.125 42.123 54.8589 41.3174 54.8589C40.5215 54.8589 39.9209 55.1201 39.5156 55.6426C39.1104 56.165 38.9077 56.9438 38.9077 57.979ZM50.5242 53.8262C50.8807 53.8262 51.2005 53.8555 51.4837 53.9141L51.3152 55.042C50.9832 54.9688 50.6902 54.9321 50.4363 54.9321C49.7869 54.9321 49.2303 55.1958 48.7664 55.7231C48.3074 56.2505 48.0779 56.9072 48.0779 57.6934V62H46.8621V53.9727H47.8655L48.0047 55.4595H48.0633C48.3611 54.937 48.72 54.5342 49.1399 54.251C49.5599 53.9678 50.0213 53.8262 50.5242 53.8262ZM61.4599 59.8101C61.4599 60.5571 61.1815 61.1333 60.6249 61.5386C60.0683 61.9438 59.287 62.1465 58.2812 62.1465C57.2167 62.1465 56.3866 61.978 55.7909 61.6411V60.5132C56.1767 60.7085 56.5893 60.8623 57.0287 60.9746C57.473 61.0869 57.9003 61.1431 58.3104 61.1431C58.9452 61.1431 59.4335 61.043 59.7753 60.8428C60.1171 60.6377 60.288 60.3276 60.288 59.9126C60.288 59.6001 60.1513 59.334 59.8778 59.1143C59.6093 58.8896 59.0819 58.626 58.2958 58.3232C57.5487 58.0449 57.0165 57.8032 56.6991 57.5981C56.3866 57.3882 56.1522 57.1514 55.996 56.8877C55.8446 56.624 55.7689 56.3091 55.7689 55.9429C55.7689 55.2886 56.0351 54.7734 56.5673 54.3975C57.0995 54.0166 57.8295 53.8262 58.7572 53.8262C59.6215 53.8262 60.4662 54.002 61.2914 54.3535L60.8593 55.3423C60.0536 55.0103 59.3236 54.8442 58.6693 54.8442C58.0932 54.8442 57.6586 54.9346 57.3656 55.1152C57.0727 55.2959 56.9262 55.5449 56.9262 55.8623C56.9262 56.0771 56.9799 56.2603 57.0873 56.4116C57.1996 56.563 57.3778 56.707 57.622 56.8438C57.8661 56.9805 58.3349 57.1782 59.0282 57.437C59.9804 57.7837 60.6225 58.1328 60.9545 58.4844C61.2914 58.8359 61.4599 59.2778 61.4599 59.8101ZM70.0734 57.979C70.0734 59.2876 69.7438 60.3105 69.0847 61.0479C68.4255 61.7803 67.5148 62.1465 66.3527 62.1465C65.635 62.1465 64.9978 61.978 64.4411 61.6411C63.8845 61.3042 63.4548 60.8208 63.1521 60.1909C62.8493 59.561 62.6979 58.8237 62.6979 57.979C62.6979 56.6704 63.0251 55.6523 63.6794 54.9248C64.3337 54.1924 65.2419 53.8262 66.404 53.8262C67.5271 53.8262 68.4182 54.1997 69.0773 54.9468C69.7414 55.6938 70.0734 56.7046 70.0734 57.979ZM63.9577 57.979C63.9577 59.0044 64.1628 59.7856 64.5729 60.3228C64.9831 60.8599 65.5861 61.1284 66.382 61.1284C67.1779 61.1284 67.781 60.8623 68.1911 60.3301C68.6062 59.793 68.8137 59.0093 68.8137 57.979C68.8137 56.9585 68.6062 56.1846 68.1911 55.6572C67.781 55.125 67.173 54.8589 66.3674 54.8589C65.5715 54.8589 64.9709 55.1201 64.5656 55.6426C64.1604 56.165 63.9577 56.9438 63.9577 57.979ZM75.5742 53.8262C75.9307 53.8262 76.2505 53.8555 76.5337 53.9141L76.3652 55.042C76.0332 54.9688 75.7402 54.9321 75.4863 54.9321C74.8369 54.9321 74.2803 55.1958 73.8164 55.7231C73.3574 56.2505 73.1279 56.9072 73.1279 57.6934V62H71.9121V53.9727H72.9155L73.0547 55.4595H73.1133C73.4111 54.937 73.77 54.5342 74.1899 54.251C74.6099 53.9678 75.0713 53.8262 75.5742 53.8262ZM81.3973 53.8262C81.7537 53.8262 82.0735 53.8555 82.3567 53.9141L82.1883 55.042C81.8562 54.9688 81.5633 54.9321 81.3094 54.9321C80.66 54.9321 80.1033 55.1958 79.6395 55.7231C79.1805 56.2505 78.951 56.9072 78.951 57.6934V62H77.7352V53.9727H78.7386L78.8777 55.4595H78.9363C79.2342 54.937 79.5931 54.5342 80.013 54.251C80.4329 53.9678 80.8943 53.8262 81.3973 53.8262ZM90.4869 57.979C90.4869 59.2876 90.1573 60.3105 89.4981 61.0479C88.839 61.7803 87.9283 62.1465 86.7662 62.1465C86.0484 62.1465 85.4112 61.978 84.8546 61.6411C84.298 61.3042 83.8683 60.8208 83.5655 60.1909C83.2628 59.561 83.1114 58.8237 83.1114 57.979C83.1114 56.6704 83.4386 55.6523 84.0929 54.9248C84.7472 54.1924 85.6554 53.8262 86.8175 53.8262C87.9405 53.8262 88.8316 54.1997 89.4908 54.9468C90.1549 55.6938 90.4869 56.7046 90.4869 57.979ZM84.3712 57.979C84.3712 59.0044 84.5763 59.7856 84.9864 60.3228C85.3966 60.8599 85.9996 61.1284 86.7955 61.1284C87.5914 61.1284 88.1944 60.8623 88.6046 60.3301C89.0196 59.793 89.2271 59.0093 89.2271 57.979C89.2271 56.9585 89.0196 56.1846 88.6046 55.6572C88.1944 55.125 87.5865 54.8589 86.7809 54.8589C85.985 54.8589 85.3844 55.1201 84.9791 55.6426C84.5738 56.165 84.3712 56.9438 84.3712 57.979ZM98.8808 62L97.4086 57.2905C97.3158 57.0024 97.1425 56.3481 96.8886 55.3276H96.83C96.6347 56.1821 96.4638 56.8413 96.3173 57.3052L94.8012 62H93.3949L91.205 53.9727H92.4794C92.997 55.9893 93.39 57.5249 93.6586 58.5796C93.932 59.6343 94.0883 60.3447 94.1273 60.7109H94.1859C94.2396 60.4326 94.3251 60.0737 94.4423 59.6343C94.5644 59.1899 94.6693 58.8384 94.7572 58.5796L96.2294 53.9727H97.5478L98.9833 58.5796C99.2567 59.4194 99.4423 60.125 99.5399 60.6963H99.5985C99.6181 60.5205 99.6693 60.2495 99.7523 59.8833C99.8402 59.5171 100.35 57.5469 101.283 53.9727H102.543L100.324 62H98.8808ZM104.975 60.2568L105.085 60.4253C104.958 60.9136 104.775 61.48 104.535 62.1245C104.296 62.7739 104.047 63.377 103.788 63.9336H102.873C103.005 63.4258 103.149 62.7983 103.305 62.0513C103.466 61.3042 103.578 60.7061 103.642 60.2568H104.975ZM114.153 62H112.908V52.3979H109.516V51.292H117.544V52.3979H114.153V62ZM125.234 62L123.762 57.2905C123.67 57.0024 123.496 56.3481 123.242 55.3276H123.184C122.988 56.1821 122.817 56.8413 122.671 57.3052L121.155 62H119.749L117.559 53.9727H118.833C119.351 55.9893 119.744 57.5249 120.012 58.5796C120.286 59.6343 120.442 60.3447 120.481 60.7109H120.54C120.593 60.4326 120.679 60.0737 120.796 59.6343C120.918 59.1899 121.023 58.8384 121.111 58.5796L122.583 53.9727H123.901L125.337 58.5796C125.61 59.4194 125.796 60.125 125.894 60.6963H125.952C125.972 60.5205 126.023 60.2495 126.106 59.8833C126.194 59.5171 126.704 57.5469 127.637 53.9727H128.897L126.677 62H125.234ZM136.983 57.979C136.983 59.2876 136.653 60.3105 135.994 61.0479C135.335 61.7803 134.424 62.1465 133.262 62.1465C132.544 62.1465 131.907 61.978 131.35 61.6411C130.794 61.3042 130.364 60.8208 130.061 60.1909C129.759 59.561 129.607 58.8237 129.607 57.979C129.607 56.6704 129.934 55.6523 130.589 54.9248C131.243 54.1924 132.151 53.8262 133.313 53.8262C134.436 53.8262 135.328 54.1997 135.987 54.9468C136.651 55.6938 136.983 56.7046 136.983 57.979ZM130.867 57.979C130.867 59.0044 131.072 59.7856 131.482 60.3228C131.892 60.8599 132.496 61.1284 133.291 61.1284C134.087 61.1284 134.69 60.8623 135.1 60.3301C135.516 59.793 135.723 59.0093 135.723 57.979C135.723 56.9585 135.516 56.1846 135.1 55.6572C134.69 55.125 134.082 54.8589 133.277 54.8589C132.481 54.8589 131.88 55.1201 131.475 55.6426C131.07 56.165 130.867 56.9438 130.867 57.979ZM146.036 54.9175H143.993V62H142.777V54.9175H141.341V54.3682L142.777 53.9287V53.4819C142.777 51.5093 143.639 50.5229 145.362 50.5229C145.787 50.5229 146.285 50.6084 146.856 50.7793L146.542 51.7534C146.073 51.6021 145.672 51.5264 145.34 51.5264C144.881 51.5264 144.542 51.6802 144.322 51.9878C144.103 52.2905 143.993 52.7788 143.993 53.4526V53.9727H146.036V54.9175ZM154.13 57.979C154.13 59.2876 153.8 60.3105 153.141 61.0479C152.482 61.7803 151.571 62.1465 150.409 62.1465C149.691 62.1465 149.054 61.978 148.497 61.6411C147.941 61.3042 147.511 60.8208 147.208 60.1909C146.906 59.561 146.754 58.8237 146.754 57.979C146.754 56.6704 147.081 55.6523 147.736 54.9248C148.39 54.1924 149.298 53.8262 150.46 53.8262C151.583 53.8262 152.474 54.1997 153.134 54.9468C153.798 55.6938 154.13 56.7046 154.13 57.979ZM148.014 57.979C148.014 59.0044 148.219 59.7856 148.629 60.3228C149.039 60.8599 149.642 61.1284 150.438 61.1284C151.234 61.1284 151.837 60.8623 152.247 60.3301C152.662 59.793 152.87 59.0093 152.87 57.979C152.87 56.9585 152.662 56.1846 152.247 55.6572C151.837 55.125 151.229 54.8589 150.424 54.8589C149.628 54.8589 149.027 55.1201 148.622 55.6426C148.217 56.165 148.014 56.9438 148.014 57.979ZM159.63 53.8262C159.987 53.8262 160.307 53.8555 160.59 53.9141L160.421 55.042C160.089 54.9688 159.796 54.9321 159.543 54.9321C158.893 54.9321 158.337 55.1958 157.873 55.7231C157.414 56.2505 157.184 56.9072 157.184 57.6934V62H155.968V53.9727H156.972L157.111 55.4595H157.17C157.467 54.937 157.826 54.5342 158.246 54.251C158.666 53.9678 159.128 53.8262 159.63 53.8262ZM11.521 83V77.7778C11.521 77.1382 11.3843 76.6597 11.1108 76.3423C10.8374 76.02 10.4126 75.8589 9.83643 75.8589C9.07959 75.8589 8.52051 76.0762 8.15918 76.5107C7.79785 76.9453 7.61719 77.6143 7.61719 78.5176V83H6.40137V77.7778C6.40137 77.1382 6.26465 76.6597 5.99121 76.3423C5.71777 76.02 5.29053 75.8589 4.70947 75.8589C3.94775 75.8589 3.38867 76.0884 3.03223 76.5474C2.68066 77.0015 2.50488 77.7485 2.50488 78.7886V83H1.28906V74.9727H2.27783L2.47559 76.0713H2.53418C2.76367 75.6807 3.08594 75.3755 3.50098 75.1558C3.9209 74.936 4.38965 74.8262 4.90723 74.8262C6.16211 74.8262 6.98242 75.2803 7.36816 76.1885H7.42676C7.66602 75.7686 8.0127 75.4365 8.4668 75.1924C8.9209 74.9482 9.43848 74.8262 10.0195 74.8262C10.9277 74.8262 11.6064 75.0605 12.0557 75.5293C12.5098 75.9932 12.7368 76.7378 12.7368 77.7632V83H11.521ZM16.1648 83H14.949V74.9727H16.1648V83ZM14.8465 72.7974C14.8465 72.519 14.9148 72.3164 15.0516 72.1895C15.1883 72.0576 15.3592 71.9917 15.5643 71.9917C15.7596 71.9917 15.928 72.0576 16.0696 72.1895C16.2112 72.3213 16.282 72.5239 16.282 72.7974C16.282 73.0708 16.2112 73.2759 16.0696 73.4126C15.928 73.5444 15.7596 73.6104 15.5643 73.6104C15.3592 73.6104 15.1883 73.5444 15.0516 73.4126C14.9148 73.2759 14.8465 73.0708 14.8465 72.7974ZM22.1051 74.8262C22.4615 74.8262 22.7813 74.8555 23.0646 74.9141L22.8961 76.042C22.5641 75.9688 22.2711 75.9321 22.0172 75.9321C21.3678 75.9321 20.8111 76.1958 20.3473 76.7231C19.8883 77.2505 19.6588 77.9072 19.6588 78.6934V83H18.443V74.9727H19.4464L19.5855 76.4595H19.6441C19.942 75.937 20.3009 75.5342 20.7208 75.251C21.1407 74.9678 21.6021 74.8262 22.1051 74.8262ZM26.8588 82.1431C27.0736 82.1431 27.2812 82.1284 27.4813 82.0991C27.6815 82.0649 27.8402 82.0308 27.9574 81.9966V82.9268C27.8256 82.9902 27.6303 83.0415 27.3715 83.0806C27.1176 83.1245 26.8881 83.1465 26.683 83.1465C25.1303 83.1465 24.3539 82.3286 24.3539 80.6929V75.9175H23.204V75.3315L24.3539 74.8262L24.8666 73.1123H25.5697V74.9727H27.8988V75.9175H25.5697V80.6416C25.5697 81.125 25.6845 81.4961 25.914 81.7549C26.1435 82.0137 26.4584 82.1431 26.8588 82.1431ZM34.7619 83V77.8071C34.7619 77.1528 34.613 76.6646 34.3151 76.3423C34.0173 76.02 33.551 75.8589 32.9162 75.8589C32.0715 75.8589 31.4538 76.0884 31.0632 76.5474C30.6774 77.0063 30.4846 77.7583 30.4846 78.8032V83H29.2687V71.6035H30.4846V75.0532C30.4846 75.4683 30.465 75.8125 30.426 76.0859H30.4992C30.7385 75.7002 31.0778 75.3975 31.5173 75.1777C31.9616 74.9531 32.467 74.8408 33.0334 74.8408C34.0148 74.8408 34.7497 75.0752 35.238 75.5439C35.7312 76.0078 35.9777 76.7476 35.9777 77.7632V83H34.7619ZM39.457 81.2568L39.5669 81.4253C39.4399 81.9136 39.2568 82.48 39.0176 83.1245C38.7783 83.7739 38.5293 84.377 38.2705 84.9336H37.355C37.4868 84.4258 37.6309 83.7983 37.7871 83.0513C37.9482 82.3042 38.0605 81.7061 38.124 81.2568H39.457ZM48.6349 83H47.3897V73.3979H43.9986V72.292H52.026V73.3979H48.6349V83ZM58.6547 83V77.8071C58.6547 77.1528 58.5058 76.6646 58.2079 76.3423C57.9101 76.02 57.4437 75.8589 56.809 75.8589C55.9643 75.8589 55.3466 76.0884 54.956 76.5474C54.5702 77.0063 54.3773 77.7583 54.3773 78.8032V83H53.1615V71.6035H54.3773V75.0532C54.3773 75.4683 54.3578 75.8125 54.3187 76.0859H54.392C54.6312 75.7002 54.9706 75.3975 55.4101 75.1777C55.8544 74.9531 56.3598 74.8408 56.9262 74.8408C57.9076 74.8408 58.6425 75.0752 59.1308 75.5439C59.6239 76.0078 59.8705 76.7476 59.8705 77.7632V83H58.6547ZM65.7375 74.8262C66.0939 74.8262 66.4138 74.8555 66.697 74.9141L66.5285 76.042C66.1965 75.9688 65.9035 75.9321 65.6496 75.9321C65.0002 75.9321 64.4436 76.1958 63.9797 76.7231C63.5207 77.2505 63.2912 77.9072 63.2912 78.6934V83H62.0754V74.9727H63.0788L63.218 76.4595H63.2766C63.5744 75.937 63.9333 75.5342 64.3532 75.251C64.7731 74.9678 65.2346 74.8262 65.7375 74.8262ZM71.2896 83.1465C70.103 83.1465 69.1655 82.7852 68.4771 82.0625C67.7935 81.3398 67.4517 80.3364 67.4517 79.0522C67.4517 77.7583 67.769 76.7305 68.4038 75.9688C69.0435 75.207 69.9004 74.8262 70.9746 74.8262C71.9805 74.8262 72.7764 75.1582 73.3623 75.8223C73.9482 76.4814 74.2412 77.353 74.2412 78.437V79.2061H68.7114C68.7358 80.1484 68.9727 80.8638 69.4219 81.3521C69.876 81.8403 70.5132 82.0845 71.3335 82.0845C72.1978 82.0845 73.0522 81.9038 73.897 81.5425V82.6265C73.4673 82.812 73.0596 82.9438 72.6738 83.022C72.293 83.105 71.8315 83.1465 71.2896 83.1465ZM70.96 75.8442C70.3154 75.8442 69.8003 76.0542 69.4146 76.4741C69.0337 76.894 68.8091 77.4751 68.7407 78.2173H72.9375C72.9375 77.4507 72.7666 76.8647 72.4248 76.4595C72.083 76.0493 71.5947 75.8442 70.96 75.8442ZM79.4124 83.1465C78.2259 83.1465 77.2884 82.7852 76.5999 82.0625C75.9163 81.3398 75.5745 80.3364 75.5745 79.0522C75.5745 77.7583 75.8919 76.7305 76.5267 75.9688C77.1663 75.207 78.0232 74.8262 79.0975 74.8262C80.1033 74.8262 80.8992 75.1582 81.4852 75.8223C82.0711 76.4814 82.3641 77.353 82.3641 78.437V79.2061H76.8343C76.8587 80.1484 77.0955 80.8638 77.5447 81.3521C77.9988 81.8403 78.636 82.0845 79.4563 82.0845C80.3206 82.0845 81.1751 81.9038 82.0198 81.5425V82.6265C81.5901 82.812 81.1824 82.9438 80.7967 83.022C80.4158 83.105 79.9544 83.1465 79.4124 83.1465ZM79.0828 75.8442C78.4383 75.8442 77.9231 76.0542 77.5374 76.4741C77.1565 76.894 76.9319 77.4751 76.8636 78.2173H81.0603C81.0603 77.4507 80.8895 76.8647 80.5477 76.4595C80.2059 76.0493 79.7176 75.8442 79.0828 75.8442ZM91.3588 75.9175H89.3153V83H88.0995V75.9175H86.664V75.3682L88.0995 74.9287V74.4819C88.0995 72.5093 88.9613 71.5229 90.685 71.5229C91.1098 71.5229 91.6078 71.6084 92.1791 71.7793L91.8642 72.7534C91.3954 72.6021 90.995 72.5264 90.663 72.5264C90.204 72.5264 89.8646 72.6802 89.6449 72.9878C89.4252 73.2905 89.3153 73.7788 89.3153 74.4526V74.9727H91.3588V75.9175ZM99.4523 78.979C99.4523 80.2876 99.1228 81.3105 98.4636 82.0479C97.8044 82.7803 96.8938 83.1465 95.7316 83.1465C95.0139 83.1465 94.3767 82.978 93.82 82.6411C93.2634 82.3042 92.8337 81.8208 92.531 81.1909C92.2282 80.561 92.0769 79.8237 92.0769 78.979C92.0769 77.6704 92.404 76.6523 93.0583 75.9248C93.7126 75.1924 94.6208 74.8262 95.7829 74.8262C96.906 74.8262 97.7971 75.1997 98.4563 75.9468C99.1203 76.6938 99.4523 77.7046 99.4523 78.979ZM93.3366 78.979C93.3366 80.0044 93.5417 80.7856 93.9519 81.3228C94.362 81.8599 94.965 82.1284 95.7609 82.1284C96.5568 82.1284 97.1599 81.8623 97.57 81.3301C97.9851 80.793 98.1926 80.0093 98.1926 78.979C98.1926 77.9585 97.9851 77.1846 97.57 76.6572C97.1599 76.125 96.552 75.8589 95.7463 75.8589C94.9504 75.8589 94.3498 76.1201 93.9445 76.6426C93.5393 77.165 93.3366 77.9438 93.3366 78.979ZM104.953 74.8262C105.31 74.8262 105.629 74.8555 105.913 74.9141L105.744 76.042C105.412 75.9688 105.119 75.9321 104.865 75.9321C104.216 75.9321 103.659 76.1958 103.195 76.7231C102.736 77.2505 102.507 77.9072 102.507 78.6934V83H101.291V74.9727H102.294L102.434 76.4595H102.492C102.79 75.937 103.149 75.5342 103.569 75.251C103.989 74.9678 104.45 74.8262 104.953 74.8262ZM115.647 83L115.405 81.8574H115.347C114.946 82.3604 114.546 82.7021 114.146 82.8828C113.75 83.0586 113.254 83.1465 112.659 83.1465C111.863 83.1465 111.238 82.9414 110.784 82.5312C110.335 82.1211 110.11 81.5376 110.11 80.7808C110.11 79.1597 111.406 78.3101 113.999 78.2319L115.361 78.188V77.6899C115.361 77.0601 115.225 76.5962 114.951 76.2983C114.683 75.9956 114.251 75.8442 113.655 75.8442C112.986 75.8442 112.229 76.0493 111.384 76.4595L111.011 75.5293C111.406 75.3145 111.838 75.146 112.307 75.0239C112.781 74.9019 113.254 74.8408 113.728 74.8408C114.685 74.8408 115.393 75.0532 115.852 75.478C116.316 75.9028 116.548 76.584 116.548 77.5215V83H115.647ZM112.9 82.1431C113.657 82.1431 114.251 81.9355 114.68 81.5205C115.115 81.1055 115.332 80.5244 115.332 79.7773V79.0522L114.116 79.1035C113.15 79.1377 112.451 79.2891 112.022 79.5576C111.597 79.8213 111.384 80.2339 111.384 80.7954C111.384 81.2349 111.516 81.5693 111.78 81.7988C112.048 82.0283 112.422 82.1431 112.9 82.1431ZM7.84424 104L6.37207 99.2905C6.2793 99.0024 6.10596 98.3481 5.85205 97.3276H5.79346C5.59814 98.1821 5.42725 98.8413 5.28076 99.3052L3.76465 104H2.3584L0.168457 95.9727H1.44287C1.96045 97.9893 2.35352 99.5249 2.62207 100.58C2.89551 101.634 3.05176 102.345 3.09082 102.711H3.14941C3.20312 102.433 3.28857 102.074 3.40576 101.634C3.52783 101.19 3.63281 100.838 3.7207 100.58L5.19287 95.9727H6.51123L7.94678 100.58C8.22021 101.419 8.40576 102.125 8.50342 102.696H8.56201C8.58154 102.521 8.63281 102.25 8.71582 101.883C8.80371 101.517 9.31396 99.5469 10.2466 95.9727H11.5063L9.28711 104H7.84424ZM16.055 104.146C14.8685 104.146 13.931 103.785 13.2425 103.062C12.5589 102.34 12.2171 101.336 12.2171 100.052C12.2171 98.7583 12.5345 97.7305 13.1692 96.9688C13.8089 96.207 14.6658 95.8262 15.74 95.8262C16.7459 95.8262 17.5418 96.1582 18.1277 96.8223C18.7137 97.4814 19.0066 98.353 19.0066 99.437V100.206H13.4769C13.5013 101.148 13.7381 101.864 14.1873 102.352C14.6414 102.84 15.2786 103.084 16.0989 103.084C16.9632 103.084 17.8177 102.904 18.6624 102.542V103.626C18.2327 103.812 17.825 103.944 17.4393 104.022C17.0584 104.105 16.597 104.146 16.055 104.146ZM15.7254 96.8442C15.0809 96.8442 14.5657 97.0542 14.18 97.4741C13.7991 97.894 13.5745 98.4751 13.5062 99.2173H17.7029C17.7029 98.4507 17.532 97.8647 17.1902 97.4595C16.8484 97.0493 16.3602 96.8442 15.7254 96.8442ZM26.2506 102.923H26.1847C25.6231 103.739 24.7833 104.146 23.6651 104.146C22.6153 104.146 21.7975 103.788 21.2115 103.07C20.6305 102.352 20.3399 101.332 20.3399 100.008C20.3399 98.6851 20.6329 97.6572 21.2188 96.9248C21.8048 96.1924 22.6202 95.8262 23.6651 95.8262C24.754 95.8262 25.589 96.2217 26.17 97.0127H26.2652L26.214 96.4341L26.1847 95.8701V92.6035H27.4005V104H26.4117L26.2506 102.923ZM23.8189 103.128C24.649 103.128 25.2496 102.904 25.6207 102.455C25.9967 102 26.1847 101.271 26.1847 100.265V100.008C26.1847 98.8706 25.9942 98.0601 25.6134 97.5767C25.2374 97.0884 24.6344 96.8442 23.8043 96.8442C23.0914 96.8442 22.5445 97.1226 22.1637 97.6792C21.7877 98.231 21.5997 99.0122 21.5997 100.023C21.5997 101.048 21.7877 101.822 22.1637 102.345C22.5396 102.867 23.0914 103.128 23.8189 103.128ZM35.1498 102.923H35.0839C34.5224 103.739 33.6825 104.146 32.5644 104.146C31.5146 104.146 30.6967 103.788 30.1107 103.07C29.5297 102.352 29.2392 101.332 29.2392 100.008C29.2392 98.6851 29.5321 97.6572 30.1181 96.9248C30.704 96.1924 31.5194 95.8262 32.5644 95.8262C33.6532 95.8262 34.4882 96.2217 35.0692 97.0127H35.1645L35.1132 96.4341L35.0839 95.8701V92.6035H36.2997V104H35.3109L35.1498 102.923ZM32.7182 103.128C33.5482 103.128 34.1488 102.904 34.5199 102.455C34.8959 102 35.0839 101.271 35.0839 100.265V100.008C35.0839 98.8706 34.8935 98.0601 34.5126 97.5767C34.1366 97.0884 33.5336 96.8442 32.7035 96.8442C31.9906 96.8442 31.4438 97.1226 31.0629 97.6792C30.6869 98.231 30.4989 99.0122 30.4989 100.023C30.4989 101.048 30.6869 101.822 31.0629 102.345C31.4389 102.867 31.9906 103.128 32.7182 103.128ZM39.801 104H38.5852V95.9727H39.801V104ZM38.4826 93.7974C38.4826 93.519 38.551 93.3164 38.6877 93.1895C38.8244 93.0576 38.9953 92.9917 39.2004 92.9917C39.3957 92.9917 39.5642 93.0576 39.7058 93.1895C39.8474 93.3213 39.9182 93.5239 39.9182 93.7974C39.9182 94.0708 39.8474 94.2759 39.7058 94.4126C39.5642 94.5444 39.3957 94.6104 39.2004 94.6104C38.9953 94.6104 38.8244 94.5444 38.6877 94.4126C38.551 94.2759 38.4826 94.0708 38.4826 93.7974ZM47.5723 104V98.8071C47.5723 98.1528 47.4233 97.6646 47.1255 97.3423C46.8276 97.02 46.3613 96.8589 45.7266 96.8589C44.8867 96.8589 44.2715 97.0859 43.8809 97.54C43.4902 97.9941 43.2949 98.7437 43.2949 99.7886V104H42.0791V95.9727H43.0679L43.2656 97.0713H43.3242C43.5732 96.6758 43.9224 96.3706 44.3716 96.1558C44.8208 95.936 45.3213 95.8262 45.873 95.8262C46.8398 95.8262 47.5674 96.0605 48.0557 96.5293C48.5439 96.9932 48.7881 97.7378 48.7881 98.7632V104H47.5723ZM57.5628 95.9727V96.7417L56.076 96.9175C56.2127 97.0884 56.3348 97.313 56.4422 97.5913C56.5496 97.8647 56.6033 98.1748 56.6033 98.5215C56.6033 99.3076 56.3348 99.9351 55.7977 100.404C55.2605 100.873 54.5232 101.107 53.5857 101.107C53.3465 101.107 53.1219 101.087 52.9119 101.048C52.3943 101.322 52.1355 101.666 52.1355 102.081C52.1355 102.301 52.2259 102.464 52.4065 102.572C52.5872 102.674 52.8973 102.726 53.3367 102.726H54.7576C55.6268 102.726 56.2933 102.909 56.7571 103.275C57.2259 103.641 57.4603 104.173 57.4603 104.872C57.4603 105.76 57.1038 106.437 56.3909 106.9C55.678 107.369 54.638 107.604 53.2708 107.604C52.221 107.604 51.4104 107.408 50.8392 107.018C50.2728 106.627 49.9896 106.075 49.9896 105.362C49.9896 104.874 50.1458 104.452 50.4583 104.095C50.7708 103.739 51.2103 103.497 51.7767 103.37C51.5716 103.277 51.3982 103.133 51.2566 102.938C51.1199 102.743 51.0516 102.516 51.0516 102.257C51.0516 101.964 51.1297 101.708 51.2859 101.488C51.4422 101.268 51.6888 101.056 52.0257 100.851C51.6106 100.68 51.2713 100.389 51.0076 99.979C50.7488 99.5688 50.6194 99.1001 50.6194 98.5728C50.6194 97.6938 50.8831 97.0176 51.4104 96.5439C51.9378 96.0654 52.6849 95.8262 53.6517 95.8262C54.0716 95.8262 54.45 95.875 54.7869 95.9727H57.5628ZM51.1614 105.348C51.1614 105.782 51.3445 106.112 51.7107 106.336C52.077 106.561 52.6019 106.673 53.2854 106.673C54.306 106.673 55.0604 106.52 55.5486 106.212C56.0418 105.909 56.2884 105.497 56.2884 104.974C56.2884 104.54 56.1541 104.237 55.8855 104.066C55.617 103.9 55.1116 103.817 54.3694 103.817H52.9119C52.3602 103.817 51.9305 103.949 51.6229 104.212C51.3152 104.476 51.1614 104.854 51.1614 105.348ZM51.8206 98.5435C51.8206 99.105 51.9793 99.5298 52.2967 99.8179C52.6141 100.106 53.056 100.25 53.6224 100.25C54.8089 100.25 55.4021 99.6738 55.4021 98.5215C55.4021 97.3154 54.8016 96.7124 53.6004 96.7124C53.0291 96.7124 52.5896 96.8662 52.282 97.1738C51.9744 97.4814 51.8206 97.938 51.8206 98.5435ZM60.1852 102.257L60.295 102.425C60.1681 102.914 59.985 103.48 59.7457 104.125C59.5064 104.774 59.2574 105.377 58.9986 105.934H58.0831C58.2149 105.426 58.359 104.798 58.5152 104.051C58.6764 103.304 58.7887 102.706 58.8521 102.257H60.1852ZM72.798 104L71.465 100.594H67.173L65.8547 104H64.5949L68.8283 93.248H69.8757L74.0871 104H72.798ZM71.0769 99.4736L69.8317 96.1558C69.6706 95.7358 69.5046 95.2207 69.3337 94.6104C69.2263 95.0791 69.0725 95.5942 68.8723 96.1558L67.6125 99.4736H71.0769ZM80.5693 104V98.8071C80.5693 98.1528 80.4204 97.6646 80.1226 97.3423C79.8247 97.02 79.3584 96.8589 78.7236 96.8589C77.8838 96.8589 77.2686 97.0859 76.8779 97.54C76.4873 97.9941 76.292 98.7437 76.292 99.7886V104H75.0762V95.9727H76.0649L76.2627 97.0713H76.3213C76.5703 96.6758 76.9194 96.3706 77.3687 96.1558C77.8179 95.936 78.3184 95.8262 78.8701 95.8262C79.8369 95.8262 80.5645 96.0605 81.0527 96.5293C81.541 96.9932 81.7852 97.7378 81.7852 98.7632V104H80.5693ZM89.4539 102.923H89.388C88.8265 103.739 87.9866 104.146 86.8685 104.146C85.8186 104.146 85.0008 103.788 84.4148 103.07C83.8338 102.352 83.5433 101.332 83.5433 100.008C83.5433 98.6851 83.8362 97.6572 84.4222 96.9248C85.0081 96.1924 85.8235 95.8262 86.8685 95.8262C87.9573 95.8262 88.7923 96.2217 89.3733 97.0127H89.4686L89.4173 96.4341L89.388 95.8701V92.6035H90.6038V104H89.615L89.4539 102.923ZM87.0223 103.128C87.8523 103.128 88.4529 102.904 88.824 102.455C89.2 102 89.388 101.271 89.388 100.265V100.008C89.388 98.8706 89.1976 98.0601 88.8167 97.5767C88.4407 97.0884 87.8377 96.8442 87.0076 96.8442C86.2947 96.8442 85.7478 97.1226 85.367 97.6792C84.991 98.231 84.803 99.0122 84.803 100.023C84.803 101.048 84.991 101.822 85.367 102.345C85.743 102.867 86.2947 103.128 87.0223 103.128ZM100.104 96.9175H98.0604V104H96.8446V96.9175H95.4091V96.3682L96.8446 95.9287V95.4819C96.8446 93.5093 97.7064 92.5229 99.4301 92.5229C99.8549 92.5229 100.353 92.6084 100.924 92.7793L100.609 93.7534C100.141 93.6021 99.7401 93.5264 99.4081 93.5264C98.9491 93.5264 98.6098 93.6802 98.39 93.9878C98.1703 94.2905 98.0604 94.7788 98.0604 95.4526V95.9727H100.104V96.9175ZM108.197 99.979C108.197 101.288 107.868 102.311 107.209 103.048C106.55 103.78 105.639 104.146 104.477 104.146C103.759 104.146 103.122 103.978 102.565 103.641C102.008 103.304 101.579 102.821 101.276 102.191C100.973 101.561 100.822 100.824 100.822 99.979C100.822 98.6704 101.149 97.6523 101.803 96.9248C102.458 96.1924 103.366 95.8262 104.528 95.8262C105.651 95.8262 106.542 96.1997 107.201 96.9468C107.865 97.6938 108.197 98.7046 108.197 99.979ZM102.082 99.979C102.082 101.004 102.287 101.786 102.697 102.323C103.107 102.86 103.71 103.128 104.506 103.128C105.302 103.128 105.905 102.862 106.315 102.33C106.73 101.793 106.938 101.009 106.938 99.979C106.938 98.9585 106.73 98.1846 106.315 97.6572C105.905 97.125 105.297 96.8589 104.491 96.8589C103.696 96.8589 103.095 97.1201 102.69 97.6426C102.284 98.165 102.082 98.9438 102.082 99.979ZM111.179 95.9727V101.18C111.179 101.834 111.328 102.323 111.625 102.645C111.923 102.967 112.39 103.128 113.024 103.128C113.864 103.128 114.477 102.899 114.863 102.44C115.253 101.981 115.449 101.231 115.449 100.191V95.9727H116.665V104H115.661L115.485 102.923H115.419C115.17 103.319 114.824 103.622 114.379 103.832C113.94 104.042 113.437 104.146 112.871 104.146C111.894 104.146 111.162 103.915 110.673 103.451C110.19 102.987 109.948 102.245 109.948 101.224V95.9727H111.179ZM122.612 95.8262C122.969 95.8262 123.288 95.8555 123.572 95.9141L123.403 97.042C123.071 96.9688 122.778 96.9321 122.524 96.9321C121.875 96.9321 121.318 97.1958 120.854 97.7231C120.395 98.2505 120.166 98.9072 120.166 99.6934V104H118.95V95.9727H119.953L120.093 97.4595H120.151C120.449 96.937 120.808 96.5342 121.228 96.251C121.648 95.9678 122.109 95.8262 122.612 95.8262ZM131.988 96.9175H129.944V104H128.728V96.9175H127.293V96.3682L128.728 95.9287V95.4819C128.728 93.5093 129.59 92.5229 131.314 92.5229C131.739 92.5229 132.237 92.6084 132.808 92.7793L132.493 93.7534C132.024 93.6021 131.624 93.5264 131.292 93.5264C130.833 93.5264 130.494 93.6802 130.274 93.9878C130.054 94.2905 129.944 94.7788 129.944 95.4526V95.9727H131.988V96.9175ZM140.081 99.979C140.081 101.288 139.752 102.311 139.092 103.048C138.433 103.78 137.523 104.146 136.361 104.146C135.643 104.146 135.006 103.978 134.449 103.641C133.892 103.304 133.463 102.821 133.16 102.191C132.857 101.561 132.706 100.824 132.706 99.979C132.706 98.6704 133.033 97.6523 133.687 96.9248C134.342 96.1924 135.25 95.8262 136.412 95.8262C137.535 95.8262 138.426 96.1997 139.085 96.9468C139.749 97.6938 140.081 98.7046 140.081 99.979ZM133.966 99.979C133.966 101.004 134.171 101.786 134.581 102.323C134.991 102.86 135.594 103.128 136.39 103.128C137.186 103.128 137.789 102.862 138.199 102.33C138.614 101.793 138.821 101.009 138.821 99.979C138.821 98.9585 138.614 98.1846 138.199 97.6572C137.789 97.125 137.181 96.8589 136.375 96.8589C135.579 96.8589 134.979 97.1201 134.573 97.6426C134.168 98.165 133.966 98.9438 133.966 99.979ZM145.582 95.8262C145.938 95.8262 146.258 95.8555 146.542 95.9141L146.373 97.042C146.041 96.9688 145.748 96.9321 145.494 96.9321C144.845 96.9321 144.288 97.1958 143.824 97.7231C143.365 98.2505 143.136 98.9072 143.136 99.6934V104H141.92V95.9727H142.923L143.062 97.4595H143.121C143.419 96.937 143.778 96.5342 144.198 96.251C144.618 95.9678 145.079 95.8262 145.582 95.8262ZM6.75293 123.923H6.68701C6.12549 124.739 5.28564 125.146 4.16748 125.146C3.11768 125.146 2.2998 124.788 1.71387 124.07C1.13281 123.352 0.842285 122.332 0.842285 121.008C0.842285 119.685 1.13525 118.657 1.72119 117.925C2.30713 117.192 3.12256 116.826 4.16748 116.826C5.25635 116.826 6.09131 117.222 6.67236 118.013H6.76758L6.71631 117.434L6.68701 116.87V113.604H7.90283V125H6.91406L6.75293 123.923ZM4.32129 124.128C5.15137 124.128 5.75195 123.904 6.12305 123.455C6.49902 123 6.68701 122.271 6.68701 121.265V121.008C6.68701 119.871 6.49658 119.06 6.11572 118.577C5.73975 118.088 5.13672 117.844 4.30664 117.844C3.59375 117.844 3.04688 118.123 2.66602 118.679C2.29004 119.231 2.10205 120.012 2.10205 121.023C2.10205 122.048 2.29004 122.822 2.66602 123.345C3.04199 123.867 3.59375 124.128 4.32129 124.128ZM13.5794 125.146C12.3929 125.146 11.4554 124.785 10.7669 124.062C10.0833 123.34 9.7415 122.336 9.7415 121.052C9.7415 119.758 10.0589 118.73 10.6937 117.969C11.3333 117.207 12.1902 116.826 13.2645 116.826C14.2703 116.826 15.0662 117.158 15.6521 117.822C16.2381 118.481 16.5311 119.353 16.5311 120.437V121.206H11.0013C11.0257 122.148 11.2625 122.864 11.7117 123.352C12.1658 123.84 12.803 124.084 13.6233 124.084C14.4876 124.084 15.3421 123.904 16.1868 123.542V124.626C15.7571 124.812 15.3494 124.944 14.9637 125.022C14.5828 125.105 14.1214 125.146 13.5794 125.146ZM13.2498 117.844C12.6053 117.844 12.0901 118.054 11.7044 118.474C11.3235 118.894 11.0989 119.475 11.0306 120.217H15.2273C15.2273 119.451 15.0564 118.865 14.7146 118.459C14.3729 118.049 13.8846 117.844 13.2498 117.844ZM23.2477 125L23.006 123.857H22.9474C22.547 124.36 22.1466 124.702 21.7462 124.883C21.3507 125.059 20.8551 125.146 20.2594 125.146C19.4635 125.146 18.8385 124.941 18.3844 124.531C17.9352 124.121 17.7105 123.538 17.7105 122.781C17.7105 121.16 19.0069 120.31 21.5997 120.232L22.962 120.188V119.69C22.962 119.06 22.8253 118.596 22.5519 118.298C22.2833 117.996 21.8512 117.844 21.2555 117.844C20.5865 117.844 19.8297 118.049 18.985 118.459L18.6114 117.529C19.0069 117.314 19.4391 117.146 19.9078 117.024C20.3814 116.902 20.8551 116.841 21.3287 116.841C22.2857 116.841 22.9937 117.053 23.4527 117.478C23.9166 117.903 24.1485 118.584 24.1485 119.521V125H23.2477ZM20.5011 124.143C21.2579 124.143 21.8512 123.936 22.2809 123.521C22.7154 123.105 22.9327 122.524 22.9327 121.777V121.052L21.7169 121.104C20.7501 121.138 20.0519 121.289 19.6222 121.558C19.1974 121.821 18.985 122.234 18.985 122.795C18.985 123.235 19.1168 123.569 19.3805 123.799C19.649 124.028 20.0226 124.143 20.5011 124.143ZM28.9535 124.143C29.1684 124.143 29.3759 124.128 29.5761 124.099C29.7763 124.065 29.935 124.031 30.0521 123.997V124.927C29.9203 124.99 29.725 125.042 29.4662 125.081C29.2123 125.125 28.9828 125.146 28.7777 125.146C27.225 125.146 26.4486 124.329 26.4486 122.693V117.917H25.2987V117.332L26.4486 116.826L26.9613 115.112H27.6645V116.973H29.9936V117.917H27.6645V122.642C27.6645 123.125 27.7792 123.496 28.0087 123.755C28.2382 124.014 28.5531 124.143 28.9535 124.143ZM36.8566 125V119.807C36.8566 119.153 36.7077 118.665 36.4099 118.342C36.112 118.02 35.6457 117.859 35.0109 117.859C34.1662 117.859 33.5485 118.088 33.1579 118.547C32.7722 119.006 32.5793 119.758 32.5793 120.803V125H31.3635V113.604H32.5793V117.053C32.5793 117.468 32.5598 117.812 32.5207 118.086H32.5939C32.8332 117.7 33.1726 117.397 33.612 117.178C34.0563 116.953 34.5617 116.841 35.1281 116.841C36.1096 116.841 36.8444 117.075 37.3327 117.544C37.8259 118.008 38.0725 118.748 38.0725 119.763V125H36.8566Z" fill="#2A2921"/>
</svg>
