<svg width="170" height="136" viewBox="0 0 170 136" fill="none" xmlns="http://www.w3.org/2000/svg">
<path d="M13.28 23.8C13.52 23.8 13.7067 23.88 13.84 24.04C13.9733 24.1867 14.04 24.3867 14.04 24.64V37.26C14.04 37.5133 13.9667 37.72 13.82 37.88C13.6867 38.0267 13.4933 38.1 13.24 38.1C12.9867 38.1 12.7667 37.9867 12.58 37.76L4.28 26.66V37.26C4.28 37.5133 4.20667 37.72 4.06 37.88C3.92667 38.0267 3.74 38.1 3.5 38.1C3.26 38.1 3.07333 38.0267 2.94 37.88C2.80667 37.72 2.74 37.5133 2.74 37.26V24.64C2.74 24.3867 2.80667 24.1867 2.94 24.04C3.08667 23.88 3.28667 23.8 3.54 23.8C3.80667 23.8 4.03333 23.9133 4.22 24.14L12.5 35.24V24.64C12.5 24.3867 12.5667 24.1867 12.7 24.04C12.8467 23.88 13.04 23.8 13.28 23.8ZM24.2852 28.06C24.5385 28.06 24.7318 28.1333 24.8652 28.28C25.0118 28.4267 25.0852 28.62 25.0852 28.86V37.32C25.0852 37.5467 25.0118 37.7333 24.8652 37.88C24.7318 38.0267 24.5385 38.1 24.2852 38.1C24.0452 38.1 23.8518 38.0333 23.7052 37.9C23.5718 37.7533 23.5052 37.5667 23.5052 37.34V36.34C23.1985 36.9267 22.7652 37.3733 22.2052 37.68C21.6585 37.9867 21.0385 38.14 20.3452 38.14C19.1852 38.14 18.3118 37.82 17.7252 37.18C17.1385 36.5267 16.8452 35.5667 16.8452 34.3V28.86C16.8452 28.62 16.9185 28.4267 17.0652 28.28C17.2118 28.1333 17.4118 28.06 17.6652 28.06C17.9185 28.06 18.1118 28.1333 18.2452 28.28C18.3918 28.4267 18.4652 28.62 18.4652 28.86V34.26C18.4652 35.1267 18.6385 35.7667 18.9852 36.18C19.3318 36.58 19.8785 36.78 20.6252 36.78C21.4785 36.78 22.1652 36.5067 22.6852 35.96C23.2052 35.4 23.4652 34.6667 23.4652 33.76V28.86C23.4652 28.62 23.5385 28.4267 23.6852 28.28C23.8318 28.1333 24.0318 28.06 24.2852 28.06ZM32.5161 28.06C33.0761 28.02 33.3561 28.2467 33.3561 28.74C33.3561 28.9533 33.2961 29.1267 33.1761 29.26C33.0561 29.38 32.8494 29.4533 32.5561 29.48L31.9561 29.54C31.0628 29.62 30.3961 29.94 29.9561 30.5C29.5294 31.0467 29.3161 31.6933 29.3161 32.44V37.3C29.3161 37.5667 29.2428 37.7667 29.0961 37.9C28.9494 38.0333 28.7561 38.1 28.5161 38.1C28.2761 38.1 28.0761 38.0333 27.9161 37.9C27.7694 37.7533 27.6961 37.5533 27.6961 37.3V28.86C27.6961 28.6067 27.7761 28.4133 27.9361 28.28C28.0961 28.1333 28.2894 28.06 28.5161 28.06C28.7294 28.06 28.9094 28.1333 29.0561 28.28C29.2028 28.4133 29.2761 28.6 29.2761 28.84V29.96C29.5561 29.3733 29.9494 28.9267 30.4561 28.62C30.9761 28.3133 31.5694 28.1333 32.2361 28.08L32.5161 28.06ZM37.5292 38.14C36.9159 38.14 36.3292 38.0667 35.7692 37.92C35.2226 37.7733 34.7359 37.5667 34.3092 37.3C34.0692 37.14 33.8959 36.9933 33.7892 36.86C33.6959 36.7133 33.6492 36.54 33.6492 36.34C33.6492 36.1667 33.6959 36.0267 33.7892 35.92C33.8959 35.8 34.0292 35.74 34.1892 35.74C34.3492 35.74 34.5826 35.84 34.8892 36.04C35.2892 36.28 35.6826 36.4733 36.0692 36.62C36.4692 36.7533 36.9626 36.82 37.5492 36.82C38.2692 36.82 38.8292 36.6933 39.2292 36.44C39.6292 36.1867 39.8292 35.82 39.8292 35.34C39.8292 35.0467 39.7559 34.8133 39.6092 34.64C39.4626 34.4533 39.2092 34.2933 38.8492 34.16C38.4892 34.0133 37.9626 33.8667 37.2692 33.72C36.0959 33.4667 35.2559 33.1267 34.7492 32.7C34.2426 32.2733 33.9892 31.6933 33.9892 30.96C33.9892 30.3867 34.1492 29.88 34.4692 29.44C34.7892 29 35.2292 28.6533 35.7892 28.4C36.3626 28.1467 37.0092 28.02 37.7292 28.02C38.2492 28.02 38.7492 28.0933 39.2292 28.24C39.7226 28.3733 40.1559 28.5667 40.5292 28.82C40.9826 29.14 41.2092 29.4733 41.2092 29.82C41.2092 29.9933 41.1559 30.14 41.0492 30.26C40.9426 30.38 40.8159 30.44 40.6692 30.44C40.5092 30.44 40.2692 30.3267 39.9492 30.1C39.5759 29.86 39.2226 29.6733 38.8892 29.54C38.5559 29.4067 38.1426 29.34 37.6492 29.34C37.0226 29.34 36.5159 29.48 36.1292 29.76C35.7559 30.04 35.5692 30.4133 35.5692 30.88C35.5692 31.1733 35.6359 31.4133 35.7692 31.6C35.9159 31.7733 36.1492 31.9333 36.4692 32.08C36.8026 32.2133 37.2759 32.3467 37.8892 32.48C38.7959 32.68 39.4959 32.9 39.9892 33.14C40.4959 33.38 40.8559 33.6733 41.0692 34.02C41.2826 34.3667 41.3892 34.8067 41.3892 35.34C41.3892 36.18 41.0359 36.86 40.3292 37.38C39.6226 37.8867 38.6892 38.14 37.5292 38.14ZM50.9986 35.74C51.1453 35.74 51.2719 35.8 51.3786 35.92C51.4853 36.04 51.5386 36.1933 51.5386 36.38C51.5386 36.7133 51.3053 37.02 50.8386 37.3C50.3586 37.58 49.8519 37.7933 49.3186 37.94C48.7853 38.0733 48.2653 38.14 47.7586 38.14C46.2519 38.14 45.0586 37.6933 44.1786 36.8C43.3119 35.9067 42.8786 34.6733 42.8786 33.1C42.8786 32.1 43.0719 31.22 43.4586 30.46C43.8453 29.6867 44.3853 29.0867 45.0786 28.66C45.7853 28.2333 46.5853 28.02 47.4786 28.02C48.7453 28.02 49.7519 28.4333 50.4986 29.26C51.2453 30.0867 51.6186 31.2067 51.6186 32.62C51.6186 32.8867 51.5653 33.08 51.4586 33.2C51.3519 33.32 51.1786 33.38 50.9386 33.38H44.4986C44.6186 35.6733 45.7053 36.82 47.7586 36.82C48.2786 36.82 48.7253 36.7533 49.0986 36.62C49.4719 36.4733 49.8719 36.28 50.2986 36.04C50.6453 35.84 50.8786 35.74 50.9986 35.74ZM47.4986 29.28C46.6453 29.28 45.9586 29.5467 45.4386 30.08C44.9319 30.6133 44.6319 31.3667 44.5386 32.34H50.1986C50.1719 31.3533 49.9253 30.6 49.4586 30.08C48.9919 29.5467 48.3386 29.28 47.4986 29.28ZM58.4255 28.06C58.9855 28.02 59.2655 28.2467 59.2655 28.74C59.2655 28.9533 59.2055 29.1267 59.0855 29.26C58.9655 29.38 58.7588 29.4533 58.4655 29.48L57.8655 29.54C56.9721 29.62 56.3055 29.94 55.8655 30.5C55.4388 31.0467 55.2255 31.6933 55.2255 32.44V37.3C55.2255 37.5667 55.1521 37.7667 55.0055 37.9C54.8588 38.0333 54.6655 38.1 54.4255 38.1C54.1855 38.1 53.9855 38.0333 53.8255 37.9C53.6788 37.7533 53.6055 37.5533 53.6055 37.3V28.86C53.6055 28.6067 53.6855 28.4133 53.8455 28.28C54.0055 28.1333 54.1988 28.06 54.4255 28.06C54.6388 28.06 54.8188 28.1333 54.9655 28.28C55.1121 28.4133 55.1855 28.6 55.1855 28.84V29.96C55.4655 29.3733 55.8588 28.9267 56.3655 28.62C56.8855 28.3133 57.4788 28.1333 58.1455 28.08L58.4255 28.06ZM67.8817 28.56C68.0284 28.24 68.2617 28.08 68.5817 28.08C68.7817 28.08 68.9617 28.1467 69.1217 28.28C69.2817 28.4133 69.3617 28.58 69.3617 28.78C69.3617 28.9 69.3351 29.0067 69.2817 29.1L63.6617 41.22C63.5951 41.3667 63.4951 41.48 63.3617 41.56C63.2417 41.64 63.1151 41.68 62.9817 41.68C62.7817 41.68 62.6017 41.6133 62.4417 41.48C62.2951 41.36 62.2217 41.2 62.2217 41C62.2217 40.8933 62.2484 40.7867 62.3017 40.68L63.7017 37.66L59.7417 29.1C59.6884 29.0067 59.6617 28.9067 59.6617 28.8C59.6617 28.6 59.7484 28.4267 59.9217 28.28C60.1084 28.1333 60.3084 28.06 60.5217 28.06C60.6551 28.06 60.7817 28.1 60.9017 28.18C61.0351 28.26 61.1351 28.3733 61.2017 28.52L64.5417 36.02L67.8817 28.56ZM86.4914 36.98C86.5847 37.1267 86.6314 37.28 86.6314 37.44C86.6314 37.64 86.5514 37.8067 86.3914 37.94C86.2447 38.06 86.0714 38.12 85.8714 38.12C85.5647 38.12 85.3247 37.9867 85.1514 37.72L82.4714 33.48C82.1247 32.9333 81.7647 32.56 81.3914 32.36C81.0181 32.1467 80.5114 32.04 79.8714 32.04H77.3514V37.26C77.3514 37.5133 77.2781 37.72 77.1314 37.88C76.9847 38.0267 76.7914 38.1 76.5514 38.1C76.2981 38.1 76.0981 38.0267 75.9514 37.88C75.8047 37.72 75.7314 37.5133 75.7314 37.26V24.7C75.7314 24.46 75.8047 24.2667 75.9514 24.12C76.1114 23.9733 76.3181 23.9 76.5714 23.9H81.5314C83.0647 23.9 84.2314 24.24 85.0314 24.92C85.8447 25.6 86.2514 26.6 86.2514 27.92C86.2514 29.04 85.9247 29.94 85.2714 30.62C84.6314 31.3 83.7114 31.7133 82.5114 31.86C82.8447 31.9667 83.1447 32.14 83.4114 32.38C83.6781 32.62 83.9447 32.9533 84.2114 33.38L86.4914 36.98ZM81.3914 30.68C82.4847 30.68 83.2981 30.4533 83.8314 30C84.3781 29.5467 84.6514 28.86 84.6514 27.94C84.6514 27.0333 84.3847 26.36 83.8514 25.92C83.3181 25.48 82.4981 25.26 81.3914 25.26H77.3514V30.68H81.3914ZM93.7223 28.02C94.869 28.02 95.7357 28.3467 96.3223 29C96.909 29.64 97.2023 30.6 97.2023 31.88V37.3C97.2023 37.5533 97.129 37.7533 96.9823 37.9C96.8357 38.0333 96.6423 38.1 96.4023 38.1C96.149 38.1 95.949 38.0333 95.8023 37.9C95.6557 37.7533 95.5823 37.5533 95.5823 37.3V31.92C95.5823 31.0533 95.4023 30.4133 95.0423 30C94.6957 29.5867 94.1357 29.38 93.3623 29.38C92.469 29.38 91.7557 29.6533 91.2223 30.2C90.689 30.7467 90.4223 31.4867 90.4223 32.42V37.3C90.4223 37.5533 90.349 37.7533 90.2023 37.9C90.069 38.0333 89.8757 38.1 89.6223 38.1C89.369 38.1 89.169 38.0333 89.0223 37.9C88.8757 37.7533 88.8023 37.5533 88.8023 37.3V24.58C88.8023 24.3533 88.8757 24.1667 89.0223 24.02C89.1823 23.8733 89.3823 23.8 89.6223 23.8C89.8757 23.8 90.069 23.8733 90.2023 24.02C90.349 24.1533 90.4223 24.34 90.4223 24.58V29.82C90.7423 29.2333 91.189 28.7867 91.7623 28.48C92.3357 28.1733 92.989 28.02 93.7223 28.02ZM106.79 28.56C106.936 28.24 107.17 28.08 107.49 28.08C107.69 28.08 107.87 28.1467 108.03 28.28C108.19 28.4133 108.27 28.58 108.27 28.78C108.27 28.9 108.243 29.0067 108.19 29.1L102.57 41.22C102.503 41.3667 102.403 41.48 102.27 41.56C102.15 41.64 102.023 41.68 101.89 41.68C101.69 41.68 101.51 41.6133 101.35 41.48C101.203 41.36 101.13 41.2 101.13 41C101.13 40.8933 101.156 40.7867 101.21 40.68L102.61 37.66L98.6495 29.1C98.5962 29.0067 98.5695 28.9067 98.5695 28.8C98.5695 28.6 98.6562 28.4267 98.8295 28.28C99.0162 28.1333 99.2162 28.06 99.4295 28.06C99.5629 28.06 99.6895 28.1 99.8095 28.18C99.9429 28.26 100.043 28.3733 100.11 28.52L103.45 36.02L106.79 28.56ZM120.483 28.02C122.643 28.02 123.723 29.3067 123.723 31.88V37.3C123.723 37.5533 123.65 37.7533 123.503 37.9C123.356 38.0333 123.163 38.1 122.923 38.1C122.683 38.1 122.483 38.0333 122.323 37.9C122.176 37.7533 122.103 37.5533 122.103 37.3V31.92C122.103 31.0267 121.943 30.38 121.623 29.98C121.303 29.58 120.803 29.38 120.123 29.38C119.31 29.38 118.67 29.6533 118.203 30.2C117.736 30.7467 117.503 31.4867 117.503 32.42V37.3C117.503 37.5533 117.423 37.7533 117.263 37.9C117.116 38.0333 116.923 38.1 116.683 38.1C116.443 38.1 116.25 38.0333 116.103 37.9C115.956 37.7533 115.883 37.5533 115.883 37.3V31.92C115.883 31.0267 115.723 30.38 115.403 29.98C115.083 29.58 114.576 29.38 113.883 29.38C113.083 29.38 112.443 29.6533 111.963 30.2C111.496 30.7467 111.263 31.4867 111.263 32.42V37.3C111.263 37.5533 111.19 37.7533 111.043 37.9C110.896 38.0333 110.703 38.1 110.463 38.1C110.223 38.1 110.023 38.0333 109.863 37.9C109.716 37.7533 109.643 37.5533 109.643 37.3V28.86C109.643 28.62 109.716 28.4267 109.863 28.28C110.023 28.1333 110.223 28.06 110.463 28.06C110.69 28.06 110.876 28.1333 111.023 28.28C111.17 28.4133 111.243 28.6 111.243 28.84V29.8C111.536 29.2267 111.943 28.7867 112.463 28.48C112.983 28.1733 113.583 28.02 114.263 28.02C115.783 28.02 116.776 28.66 117.243 29.94C117.523 29.3533 117.95 28.8867 118.523 28.54C119.096 28.1933 119.75 28.02 120.483 28.02ZM133.814 35.74C133.961 35.74 134.088 35.8 134.194 35.92C134.301 36.04 134.354 36.1933 134.354 36.38C134.354 36.7133 134.121 37.02 133.654 37.3C133.174 37.58 132.668 37.7933 132.134 37.94C131.601 38.0733 131.081 38.14 130.574 38.14C129.068 38.14 127.874 37.6933 126.994 36.8C126.128 35.9067 125.694 34.6733 125.694 33.1C125.694 32.1 125.888 31.22 126.274 30.46C126.661 29.6867 127.201 29.0867 127.894 28.66C128.601 28.2333 129.401 28.02 130.294 28.02C131.561 28.02 132.568 28.4333 133.314 29.26C134.061 30.0867 134.434 31.2067 134.434 32.62C134.434 32.8867 134.381 33.08 134.274 33.2C134.168 33.32 133.994 33.38 133.754 33.38H127.314C127.434 35.6733 128.521 36.82 130.574 36.82C131.094 36.82 131.541 36.7533 131.914 36.62C132.288 36.4733 132.688 36.28 133.114 36.04C133.461 35.84 133.694 35.74 133.814 35.74ZM130.314 29.28C129.461 29.28 128.774 29.5467 128.254 30.08C127.748 30.6133 127.448 31.3667 127.354 32.34H133.014C132.988 31.3533 132.741 30.6 132.274 30.08C131.808 29.5467 131.154 29.28 130.314 29.28ZM139.701 38.14C139.088 38.14 138.501 38.0667 137.941 37.92C137.394 37.7733 136.908 37.5667 136.481 37.3C136.241 37.14 136.068 36.9933 135.961 36.86C135.868 36.7133 135.821 36.54 135.821 36.34C135.821 36.1667 135.868 36.0267 135.961 35.92C136.068 35.8 136.201 35.74 136.361 35.74C136.521 35.74 136.754 35.84 137.061 36.04C137.461 36.28 137.854 36.4733 138.241 36.62C138.641 36.7533 139.134 36.82 139.721 36.82C140.441 36.82 141.001 36.6933 141.401 36.44C141.801 36.1867 142.001 35.82 142.001 35.34C142.001 35.0467 141.928 34.8133 141.781 34.64C141.634 34.4533 141.381 34.2933 141.021 34.16C140.661 34.0133 140.134 33.8667 139.441 33.72C138.268 33.4667 137.428 33.1267 136.921 32.7C136.414 32.2733 136.161 31.6933 136.161 30.96C136.161 30.3867 136.321 29.88 136.641 29.44C136.961 29 137.401 28.6533 137.961 28.4C138.534 28.1467 139.181 28.02 139.901 28.02C140.421 28.02 140.921 28.0933 141.401 28.24C141.894 28.3733 142.328 28.5667 142.701 28.82C143.154 29.14 143.381 29.4733 143.381 29.82C143.381 29.9933 143.328 30.14 143.221 30.26C143.114 30.38 142.988 30.44 142.841 30.44C142.681 30.44 142.441 30.3267 142.121 30.1C141.748 29.86 141.394 29.6733 141.061 29.54C140.728 29.4067 140.314 29.34 139.821 29.34C139.194 29.34 138.688 29.48 138.301 29.76C137.928 30.04 137.741 30.4133 137.741 30.88C137.741 31.1733 137.808 31.4133 137.941 31.6C138.088 31.7733 138.321 31.9333 138.641 32.08C138.974 32.2133 139.448 32.3467 140.061 32.48C140.968 32.68 141.668 32.9 142.161 33.14C142.668 33.38 143.028 33.6733 143.241 34.02C143.454 34.3667 143.561 34.8067 143.561 35.34C143.561 36.18 143.208 36.86 142.501 37.38C141.794 37.8867 140.861 38.14 139.701 38.14Z" fill="#2A2921"/>
<path d="M5.755 72.18C4.945 72.18 4.225 71.985 3.595 71.595C2.965 71.205 2.475 70.66 2.125 69.96C1.775 69.25 1.6 68.445 1.6 67.545C1.6 66.565 1.815 65.675 2.245 64.875C2.685 64.065 3.28 63.43 4.03 62.97C4.79 62.5 5.625 62.265 6.535 62.265C7.365 62.265 8.1 62.46 8.74 62.85C9.38 63.24 9.88 63.785 10.24 64.485C10.6 65.185 10.78 65.985 10.78 66.885C10.78 67.865 10.555 68.76 10.105 69.57C9.665 70.38 9.06 71.02 8.29 71.49C7.53 71.95 6.685 72.18 5.755 72.18ZM6.22 71.415C6.85 71.415 7.41 71.25 7.9 70.92C8.39 70.59 8.77 70.13 9.04 69.54C9.31 68.95 9.445 68.275 9.445 67.515C9.445 66.665 9.3 65.915 9.01 65.265C8.72 64.605 8.315 64.09 7.795 63.72C7.285 63.35 6.695 63.165 6.025 63.165C5.415 63.165 4.87 63.33 4.39 63.66C3.92 63.99 3.55 64.45 3.28 65.04C3.02 65.63 2.89 66.305 2.89 67.065C2.89 67.915 3.03 68.67 3.31 69.33C3.59 69.98 3.98 70.49 4.48 70.86C4.99 71.23 5.57 71.415 6.22 71.415ZM15.9907 71.565C16.2907 71.485 16.5057 71.37 16.6357 71.22C16.7657 71.06 16.8307 70.85 16.8307 70.59L16.8907 67.62C16.8907 67.12 16.7807 66.735 16.5607 66.465C16.3507 66.195 16.0457 66.06 15.6457 66.06C15.3257 66.06 15.0007 66.145 14.6707 66.315C14.3407 66.475 14.0507 66.65 13.8007 66.84C13.7107 68.91 13.6657 70.14 13.6657 70.53C13.6657 70.84 13.7057 71.06 13.7857 71.19C13.8657 71.31 14.0057 71.37 14.2057 71.37C14.3157 71.37 14.4207 71.365 14.5207 71.355C14.6207 71.345 14.6907 71.34 14.7307 71.34L14.7607 71.4L14.6257 72.045C14.5357 72.035 14.3607 72.025 14.1007 72.015C13.8407 72.005 13.5607 72 13.2607 72C13.0007 72 12.7107 72.01 12.3907 72.03C12.0807 72.06 11.8757 72.08 11.7757 72.09L11.8507 71.475C12.1407 71.425 12.3457 71.335 12.4657 71.205C12.5857 71.075 12.6457 70.87 12.6457 70.59V66.93C12.6457 66.59 12.5907 66.355 12.4807 66.225C12.3707 66.085 12.1807 66.015 11.9107 66.015H11.7457L11.7007 65.955L11.7457 65.46C12.1757 65.39 12.6007 65.31 13.0207 65.22C13.4507 65.12 13.7257 65.055 13.8457 65.025L13.9357 65.145C13.9157 65.205 13.8857 65.335 13.8457 65.535C13.8057 65.725 13.7807 65.925 13.7707 66.135L13.8007 66.18C14.9407 65.42 15.6757 65.04 16.0057 65.04C16.6357 65.04 17.1357 65.215 17.5057 65.565C17.8757 65.915 18.0607 66.385 18.0607 66.975C18.0607 67.075 18.0307 67.535 17.9707 68.355C17.8907 69.395 17.8507 70.12 17.8507 70.53C17.8507 70.82 17.8907 71.035 17.9707 71.175C18.0507 71.305 18.1857 71.37 18.3757 71.37C18.4857 71.37 18.5907 71.365 18.6907 71.355C18.7907 71.345 18.8607 71.34 18.9007 71.34L18.9307 71.4L18.8107 72.045C18.7207 72.035 18.5507 72.025 18.3007 72.015C18.0507 72.005 17.7757 72 17.4757 72C17.2157 72 16.9157 72.025 16.5757 72.075C16.2457 72.125 16.0307 72.16 15.9307 72.18L15.9907 71.565ZM22.6935 72.18C22.0735 72.18 21.5235 72.045 21.0435 71.775C20.5635 71.495 20.1935 71.105 19.9335 70.605C19.6735 70.095 19.5435 69.515 19.5435 68.865C19.5435 68.195 19.6935 67.565 19.9935 66.975C20.3035 66.385 20.7135 65.915 21.2235 65.565C21.7335 65.215 22.2785 65.04 22.8585 65.04C23.5885 65.04 24.1435 65.225 24.5235 65.595C24.9035 65.965 25.0935 66.505 25.0935 67.215C25.0935 67.505 25.0635 67.75 25.0035 67.95L24.8085 68.13H20.6685C20.6585 69.1 20.8485 69.85 21.2385 70.38C21.6385 70.9 22.1935 71.16 22.9035 71.16C23.4635 71.16 24.0735 71.005 24.7335 70.695L24.8235 70.725L24.9885 71.16C24.6285 71.42 24.2285 71.655 23.7885 71.865C23.3585 72.075 22.9935 72.18 22.6935 72.18ZM23.4435 67.44C23.5935 67.42 23.6935 67.385 23.7435 67.335C23.7935 67.285 23.8185 67.185 23.8185 67.035C23.8185 66.635 23.7085 66.33 23.4885 66.12C23.2785 65.91 22.9735 65.805 22.5735 65.805C22.1035 65.805 21.6985 65.965 21.3585 66.285C21.0285 66.605 20.8185 67.035 20.7285 67.575L23.4435 67.44ZM28.8658 71.475C29.4358 71.395 29.7208 71.1 29.7208 70.59V66.54C29.7108 66.3 29.6408 66.145 29.5108 66.075C29.3908 65.995 29.1458 65.945 28.7758 65.925L28.7158 65.835L28.8208 65.325L29.7208 65.16V65.1C29.7208 64.24 29.8608 63.49 30.1408 62.85C30.4308 62.21 30.8308 61.72 31.3408 61.38C31.8608 61.04 32.4708 60.87 33.1708 60.87C33.4708 60.87 33.7458 60.89 33.9958 60.93C34.2558 60.97 34.4558 61.015 34.5958 61.065C34.7458 61.105 34.8408 61.135 34.8808 61.155L34.9108 61.29C34.8808 61.34 34.8158 61.46 34.7158 61.65C34.6258 61.83 34.5358 62.035 34.4458 62.265L34.2808 62.31C34.2408 62.28 34.1408 62.22 33.9808 62.13C33.8308 62.04 33.6258 61.955 33.3658 61.875C33.1158 61.795 32.8458 61.755 32.5558 61.755C31.9858 61.755 31.5608 61.985 31.2808 62.445C31.0008 62.895 30.8508 63.59 30.8308 64.53L30.8158 65.265C31.3358 65.265 31.7808 65.26 32.1508 65.25C32.5208 65.24 32.7658 65.23 32.8858 65.22L32.9308 65.265L32.7808 66.06C32.6708 66.05 32.4358 66.04 32.0758 66.03C31.7258 66.02 31.3008 66.015 30.8008 66.015L30.7408 70.53C30.7408 70.81 30.8008 71.02 30.9208 71.16C31.0508 71.29 31.2458 71.355 31.5058 71.355C31.7458 71.355 31.9408 71.35 32.0908 71.34C32.2508 71.33 32.3558 71.325 32.4058 71.325L32.4358 71.385L32.3308 72.03C32.1908 72.03 31.9358 72.025 31.5658 72.015C31.1958 72.005 30.8308 72 30.4708 72C30.1208 72 29.7758 72.005 29.4358 72.015C29.1058 72.035 28.8908 72.05 28.7908 72.06L28.8658 71.475ZM35.9383 72.18C35.3683 72.18 34.8633 72.04 34.4233 71.76C33.9833 71.48 33.6383 71.09 33.3883 70.59C33.1483 70.08 33.0283 69.5 33.0283 68.85C33.0283 68.15 33.1783 67.51 33.4783 66.93C33.7883 66.34 34.2083 65.88 34.7383 65.55C35.2683 65.21 35.8583 65.04 36.5083 65.04C37.0683 65.04 37.5683 65.18 38.0083 65.46C38.4583 65.74 38.8033 66.135 39.0433 66.645C39.2933 67.145 39.4183 67.72 39.4183 68.37C39.4183 69.07 39.2633 69.715 38.9533 70.305C38.6533 70.885 38.2383 71.345 37.7083 71.685C37.1783 72.015 36.5883 72.18 35.9383 72.18ZM36.3583 71.445C36.9183 71.445 37.3633 71.22 37.6933 70.77C38.0233 70.31 38.1883 69.69 38.1883 68.91C38.1883 68.32 38.0983 67.795 37.9183 67.335C37.7383 66.865 37.4833 66.5 37.1533 66.24C36.8333 65.98 36.4683 65.85 36.0583 65.85C35.4983 65.85 35.0533 66.08 34.7233 66.54C34.3933 67 34.2283 67.625 34.2283 68.415C34.2283 69.005 34.3183 69.53 34.4983 69.99C34.6783 70.45 34.9283 70.81 35.2483 71.07C35.5683 71.32 35.9383 71.445 36.3583 71.445ZM40.544 71.46C40.844 71.43 41.044 71.335 41.144 71.175C41.244 71.005 41.294 70.685 41.294 70.215V66.915C41.294 66.585 41.249 66.35 41.159 66.21C41.069 66.07 40.924 66 40.724 66C40.644 66 40.574 66.005 40.514 66.015C40.464 66.025 40.429 66.035 40.409 66.045L40.334 65.94L40.379 65.475C40.759 65.405 41.159 65.32 41.579 65.22C42.009 65.12 42.284 65.055 42.404 65.025L42.509 65.115C42.489 65.205 42.459 65.415 42.419 65.745C42.379 66.065 42.364 66.37 42.374 66.66L42.434 66.705C42.734 66.235 43.084 65.85 43.484 65.55C43.894 65.25 44.249 65.1 44.549 65.1C44.689 65.1 44.794 65.11 44.864 65.13C44.944 65.14 44.994 65.15 45.014 65.16L45.059 65.22C45.039 65.36 44.994 65.66 44.924 66.12C44.864 66.57 44.829 66.985 44.819 67.365L44.234 67.41C44.234 67 44.204 66.73 44.144 66.6C44.094 66.46 43.989 66.39 43.829 66.39C43.609 66.39 43.374 66.485 43.124 66.675C42.874 66.855 42.644 67.1 42.434 67.41C42.424 67.7 42.404 68.18 42.374 68.85C42.344 69.52 42.324 70.06 42.314 70.47C42.314 70.81 42.364 71.04 42.464 71.16C42.564 71.28 42.754 71.34 43.034 71.34C43.164 71.34 43.294 71.335 43.424 71.325C43.554 71.315 43.644 71.31 43.694 71.31L43.709 71.37L43.574 72.03C43.474 72.03 43.274 72.025 42.974 72.015C42.674 72.005 42.364 72 42.044 72C41.674 72 41.339 72.005 41.039 72.015C40.739 72.035 40.549 72.05 40.469 72.06L40.544 71.46ZM50.3398 72.18C50.0198 72.18 49.7248 72.155 49.4548 72.105C49.1948 72.065 48.9898 72.02 48.8398 71.97C48.6898 71.92 48.5948 71.885 48.5548 71.865L48.5098 71.76C48.5398 71.61 48.5748 71.3 48.6148 70.83C48.6548 70.36 48.6798 70 48.6898 69.75L49.2148 69.675C49.2148 70.335 49.3248 70.8 49.5448 71.07C49.7648 71.34 50.1398 71.475 50.6698 71.475C51.0498 71.475 51.3698 71.39 51.6298 71.22C51.8898 71.05 52.0198 70.84 52.0198 70.59C52.0198 70.34 51.8998 70.115 51.6598 69.915C51.4298 69.705 50.9698 69.415 50.2798 69.045C49.7098 68.755 49.2948 68.46 49.0348 68.16C48.7748 67.86 48.6448 67.53 48.6448 67.17C48.6448 66.77 48.7648 66.41 49.0048 66.09C49.2448 65.76 49.5748 65.505 49.9948 65.325C50.4148 65.135 50.8848 65.04 51.4048 65.04C51.6448 65.04 51.8748 65.06 52.0948 65.1C52.3148 65.13 52.4948 65.165 52.6348 65.205C52.7748 65.245 52.8648 65.27 52.9048 65.28L52.9348 65.355C52.9148 65.455 52.8698 65.685 52.7998 66.045C52.7298 66.395 52.6798 66.775 52.6498 67.185L52.0948 67.23C52.0948 67.2 52.0998 67.14 52.1098 67.05C52.1198 66.96 52.1248 66.875 52.1248 66.795C52.1248 66.435 52.0248 66.175 51.8248 66.015C51.6348 65.845 51.3248 65.76 50.8948 65.76C50.5548 65.76 50.2648 65.84 50.0248 66C49.7948 66.16 49.6798 66.355 49.6798 66.585C49.6798 66.825 49.7798 67.05 49.9798 67.26C50.1898 67.47 50.5248 67.695 50.9848 67.935C51.7948 68.365 52.3448 68.73 52.6348 69.03C52.9348 69.32 53.0848 69.655 53.0848 70.035C53.0848 70.415 52.9598 70.77 52.7098 71.1C52.4598 71.43 52.1198 71.695 51.6898 71.895C51.2698 72.085 50.8198 72.18 50.3398 72.18ZM56.96 72.18C56.39 72.18 55.885 72.04 55.445 71.76C55.005 71.48 54.66 71.09 54.41 70.59C54.17 70.08 54.05 69.5 54.05 68.85C54.05 68.15 54.2 67.51 54.5 66.93C54.81 66.34 55.23 65.88 55.76 65.55C56.29 65.21 56.88 65.04 57.53 65.04C58.09 65.04 58.59 65.18 59.03 65.46C59.48 65.74 59.825 66.135 60.065 66.645C60.315 67.145 60.44 67.72 60.44 68.37C60.44 69.07 60.285 69.715 59.975 70.305C59.675 70.885 59.26 71.345 58.73 71.685C58.2 72.015 57.61 72.18 56.96 72.18ZM57.38 71.445C57.94 71.445 58.385 71.22 58.715 70.77C59.045 70.31 59.21 69.69 59.21 68.91C59.21 68.32 59.12 67.795 58.94 67.335C58.76 66.865 58.505 66.5 58.175 66.24C57.855 65.98 57.49 65.85 57.08 65.85C56.52 65.85 56.075 66.08 55.745 66.54C55.415 67 55.25 67.625 55.25 68.415C55.25 69.005 55.34 69.53 55.52 69.99C55.7 70.45 55.95 70.81 56.27 71.07C56.59 71.32 56.96 71.445 57.38 71.445ZM61.5657 71.46C61.8657 71.43 62.0657 71.335 62.1657 71.175C62.2657 71.005 62.3157 70.685 62.3157 70.215V66.915C62.3157 66.585 62.2707 66.35 62.1807 66.21C62.0907 66.07 61.9457 66 61.7457 66C61.6657 66 61.5957 66.005 61.5357 66.015C61.4857 66.025 61.4507 66.035 61.4307 66.045L61.3557 65.94L61.4007 65.475C61.7807 65.405 62.1807 65.32 62.6007 65.22C63.0307 65.12 63.3057 65.055 63.4257 65.025L63.5307 65.115C63.5107 65.205 63.4807 65.415 63.4407 65.745C63.4007 66.065 63.3857 66.37 63.3957 66.66L63.4557 66.705C63.7557 66.235 64.1057 65.85 64.5057 65.55C64.9157 65.25 65.2707 65.1 65.5707 65.1C65.7107 65.1 65.8157 65.11 65.8857 65.13C65.9657 65.14 66.0157 65.15 66.0357 65.16L66.0807 65.22C66.0607 65.36 66.0157 65.66 65.9457 66.12C65.8857 66.57 65.8507 66.985 65.8407 67.365L65.2557 67.41C65.2557 67 65.2257 66.73 65.1657 66.6C65.1157 66.46 65.0107 66.39 64.8507 66.39C64.6307 66.39 64.3957 66.485 64.1457 66.675C63.8957 66.855 63.6657 67.1 63.4557 67.41C63.4457 67.7 63.4257 68.18 63.3957 68.85C63.3657 69.52 63.3457 70.06 63.3357 70.47C63.3357 70.81 63.3857 71.04 63.4857 71.16C63.5857 71.28 63.7757 71.34 64.0557 71.34C64.1857 71.34 64.3157 71.335 64.4457 71.325C64.5757 71.315 64.6657 71.31 64.7157 71.31L64.7307 71.37L64.5957 72.03C64.4957 72.03 64.2957 72.025 63.9957 72.015C63.6957 72.005 63.3857 72 63.0657 72C62.6957 72 62.3607 72.005 62.0607 72.015C61.7607 72.035 61.5707 72.05 61.4907 72.06L61.5657 71.46ZM67.0078 71.46C67.3078 71.43 67.5078 71.335 67.6078 71.175C67.7078 71.005 67.7578 70.685 67.7578 70.215V66.915C67.7578 66.585 67.7128 66.35 67.6228 66.21C67.5328 66.07 67.3878 66 67.1878 66C67.1078 66 67.0378 66.005 66.9778 66.015C66.9278 66.025 66.8928 66.035 66.8728 66.045L66.7978 65.94L66.8428 65.475C67.2228 65.405 67.6228 65.32 68.0428 65.22C68.4728 65.12 68.7478 65.055 68.8678 65.025L68.9728 65.115C68.9528 65.205 68.9228 65.415 68.8828 65.745C68.8428 66.065 68.8278 66.37 68.8378 66.66L68.8978 66.705C69.1978 66.235 69.5478 65.85 69.9478 65.55C70.3578 65.25 70.7128 65.1 71.0128 65.1C71.1528 65.1 71.2578 65.11 71.3278 65.13C71.4078 65.14 71.4578 65.15 71.4778 65.16L71.5228 65.22C71.5028 65.36 71.4578 65.66 71.3878 66.12C71.3278 66.57 71.2928 66.985 71.2828 67.365L70.6978 67.41C70.6978 67 70.6678 66.73 70.6078 66.6C70.5578 66.46 70.4528 66.39 70.2928 66.39C70.0728 66.39 69.8378 66.485 69.5878 66.675C69.3378 66.855 69.1078 67.1 68.8978 67.41C68.8878 67.7 68.8678 68.18 68.8378 68.85C68.8078 69.52 68.7878 70.06 68.7778 70.47C68.7778 70.81 68.8278 71.04 68.9278 71.16C69.0278 71.28 69.2178 71.34 69.4978 71.34C69.6278 71.34 69.7578 71.335 69.8878 71.325C70.0178 71.315 70.1078 71.31 70.1578 71.31L70.1728 71.37L70.0378 72.03C69.9378 72.03 69.7378 72.025 69.4378 72.015C69.1378 72.005 68.8278 72 68.5078 72C68.1378 72 67.8028 72.005 67.5028 72.015C67.2028 72.035 67.0128 72.05 66.9328 72.06L67.0078 71.46ZM74.8686 72.18C74.2986 72.18 73.7936 72.04 73.3536 71.76C72.9136 71.48 72.5686 71.09 72.3186 70.59C72.0786 70.08 71.9586 69.5 71.9586 68.85C71.9586 68.15 72.1086 67.51 72.4086 66.93C72.7186 66.34 73.1386 65.88 73.6686 65.55C74.1986 65.21 74.7886 65.04 75.4386 65.04C75.9986 65.04 76.4986 65.18 76.9386 65.46C77.3886 65.74 77.7336 66.135 77.9736 66.645C78.2236 67.145 78.3486 67.72 78.3486 68.37C78.3486 69.07 78.1936 69.715 77.8836 70.305C77.5836 70.885 77.1686 71.345 76.6386 71.685C76.1086 72.015 75.5186 72.18 74.8686 72.18ZM75.2886 71.445C75.8486 71.445 76.2936 71.22 76.6236 70.77C76.9536 70.31 77.1186 69.69 77.1186 68.91C77.1186 68.32 77.0286 67.795 76.8486 67.335C76.6686 66.865 76.4136 66.5 76.0836 66.24C75.7636 65.98 75.3986 65.85 74.9886 65.85C74.4286 65.85 73.9836 66.08 73.6536 66.54C73.3236 67 73.1586 67.625 73.1586 68.415C73.1586 69.005 73.2486 69.53 73.4286 69.99C73.6086 70.45 73.8586 70.81 74.1786 71.07C74.4986 71.32 74.8686 71.445 75.2886 71.445ZM81.0849 72.255C80.9449 71.775 80.6549 70.835 80.2149 69.435C79.7849 68.025 79.4849 67.05 79.3149 66.51C79.1449 66.02 78.8149 65.77 78.3249 65.76L78.2949 65.7L78.3849 65.205L79.5849 65.22C79.9649 65.22 80.3249 65.205 80.6649 65.175C81.0149 65.145 81.2399 65.125 81.3399 65.115L81.3699 65.19L81.2799 65.655C80.9499 65.665 80.7249 65.7 80.6049 65.76C80.4849 65.81 80.4249 65.905 80.4249 66.045C80.4249 66.235 80.5999 66.955 80.9499 68.205C81.2999 69.445 81.5399 70.285 81.6699 70.725H81.7299L82.6149 68.505C82.9349 67.735 83.1649 67.15 83.3049 66.75C83.1949 66.41 83.0599 66.16 82.8999 66C82.7499 65.84 82.5299 65.76 82.2399 65.76L82.2099 65.7L82.2999 65.205L83.4999 65.22C83.8699 65.22 84.2299 65.21 84.5799 65.19C84.9299 65.17 85.1549 65.155 85.2549 65.145L85.2849 65.22L85.1949 65.685C84.8549 65.695 84.6249 65.725 84.5049 65.775C84.3949 65.825 84.3399 65.915 84.3399 66.045C84.3399 66.225 84.5149 66.94 84.8649 68.19C85.2149 69.43 85.4549 70.275 85.5849 70.725H85.6449C86.0849 69.595 86.3749 68.87 86.5149 68.55C86.7649 67.93 86.9699 67.4 87.1299 66.96C87.2999 66.52 87.3849 66.24 87.3849 66.12C87.3849 65.98 87.3349 65.885 87.2349 65.835C87.1449 65.775 86.9899 65.745 86.7699 65.745H86.2149L86.1549 65.655L86.2299 65.19C86.3199 65.19 86.4999 65.195 86.7699 65.205C87.0399 65.215 87.3549 65.22 87.7149 65.22L88.9449 65.205L88.8399 65.76C88.6399 65.78 88.4799 65.865 88.3599 66.015C88.2399 66.155 88.0899 66.445 87.9099 66.885L85.8099 72L84.9999 72.255L83.6499 67.83H83.5599L81.9099 72L81.0849 72.255ZM88.5214 74.13V73.98C88.8714 73.74 89.1564 73.455 89.3764 73.125C89.5964 72.795 89.7064 72.475 89.7064 72.165C89.7064 71.965 89.6614 71.775 89.5714 71.595C89.4814 71.405 89.3664 71.245 89.2264 71.115L89.2564 70.905C89.5964 70.645 89.8864 70.515 90.1264 70.515C90.3464 70.515 90.5264 70.62 90.6664 70.83C90.8164 71.03 90.8914 71.315 90.8914 71.685C90.8914 72.205 90.6814 72.695 90.2614 73.155C89.8414 73.625 89.3514 74.025 88.7914 74.355L88.5214 74.13ZM96.0612 71.415C96.5612 71.375 96.9062 71.315 97.0962 71.235C97.2862 71.145 97.4112 70.99 97.4712 70.77C97.5312 70.54 97.5612 70.14 97.5612 69.57V63.03C96.7112 63.06 96.1312 63.11 95.8212 63.18C95.5212 63.24 95.3162 63.385 95.2062 63.615C95.0962 63.835 94.9962 64.27 94.9062 64.92L94.2012 64.98C94.3212 64.03 94.3962 63.165 94.4262 62.385L94.5612 62.265L95.8062 62.43H100.456L101.731 62.265L101.866 62.385C101.896 63.205 101.971 64.05 102.091 64.92L101.386 64.98C101.276 64.32 101.166 63.875 101.056 63.645C100.946 63.415 100.751 63.265 100.471 63.195C100.191 63.125 99.6512 63.07 98.8512 63.03C98.7912 63.63 98.7362 64.69 98.6862 66.21C98.6362 67.73 98.6112 69.1 98.6112 70.32C98.6112 70.69 98.6762 70.955 98.8062 71.115C98.9362 71.265 99.1562 71.34 99.4662 71.34C99.7662 71.34 100.041 71.325 100.291 71.295L100.336 71.355L100.201 72.045L99.7062 72.03L97.9962 72C97.4462 72 96.7612 72.02 95.9412 72.06L96.0612 71.415ZM103.938 72.255C103.798 71.775 103.508 70.835 103.068 69.435C102.638 68.025 102.338 67.05 102.168 66.51C101.998 66.02 101.668 65.77 101.178 65.76L101.148 65.7L101.238 65.205L102.438 65.22C102.818 65.22 103.178 65.205 103.518 65.175C103.868 65.145 104.093 65.125 104.193 65.115L104.223 65.19L104.133 65.655C103.803 65.665 103.578 65.7 103.458 65.76C103.338 65.81 103.278 65.905 103.278 66.045C103.278 66.235 103.453 66.955 103.803 68.205C104.153 69.445 104.393 70.285 104.523 70.725H104.583L105.468 68.505C105.788 67.735 106.018 67.15 106.158 66.75C106.048 66.41 105.913 66.16 105.753 66C105.603 65.84 105.383 65.76 105.093 65.76L105.063 65.7L105.153 65.205L106.353 65.22C106.723 65.22 107.083 65.21 107.433 65.19C107.783 65.17 108.008 65.155 108.108 65.145L108.138 65.22L108.048 65.685C107.708 65.695 107.478 65.725 107.358 65.775C107.248 65.825 107.193 65.915 107.193 66.045C107.193 66.225 107.368 66.94 107.718 68.19C108.068 69.43 108.308 70.275 108.438 70.725H108.498C108.938 69.595 109.228 68.87 109.368 68.55C109.618 67.93 109.823 67.4 109.983 66.96C110.153 66.52 110.238 66.24 110.238 66.12C110.238 65.98 110.188 65.885 110.088 65.835C109.998 65.775 109.843 65.745 109.623 65.745H109.068L109.008 65.655L109.083 65.19C109.173 65.19 109.353 65.195 109.623 65.205C109.893 65.215 110.208 65.22 110.568 65.22L111.798 65.205L111.693 65.76C111.493 65.78 111.333 65.865 111.213 66.015C111.093 66.155 110.943 66.445 110.763 66.885L108.663 72L107.853 72.255L106.503 67.83H106.413L104.763 72L103.938 72.255ZM114.699 72.18C114.129 72.18 113.624 72.04 113.184 71.76C112.744 71.48 112.399 71.09 112.149 70.59C111.909 70.08 111.789 69.5 111.789 68.85C111.789 68.15 111.939 67.51 112.239 66.93C112.549 66.34 112.969 65.88 113.499 65.55C114.029 65.21 114.619 65.04 115.269 65.04C115.829 65.04 116.329 65.18 116.769 65.46C117.219 65.74 117.564 66.135 117.804 66.645C118.054 67.145 118.179 67.72 118.179 68.37C118.179 69.07 118.024 69.715 117.714 70.305C117.414 70.885 116.999 71.345 116.469 71.685C115.939 72.015 115.349 72.18 114.699 72.18ZM115.119 71.445C115.679 71.445 116.124 71.22 116.454 70.77C116.784 70.31 116.949 69.69 116.949 68.91C116.949 68.32 116.859 67.795 116.679 67.335C116.499 66.865 116.244 66.5 115.914 66.24C115.594 65.98 115.229 65.85 114.819 65.85C114.259 65.85 113.814 66.08 113.484 66.54C113.154 67 112.989 67.625 112.989 68.415C112.989 69.005 113.079 69.53 113.259 69.99C113.439 70.45 113.689 70.81 114.009 71.07C114.329 71.32 114.699 71.445 115.119 71.445ZM121.859 71.475C122.429 71.395 122.714 71.1 122.714 70.59V66.54C122.704 66.3 122.634 66.145 122.504 66.075C122.384 65.995 122.139 65.945 121.769 65.925L121.709 65.835L121.814 65.325L122.714 65.16V65.1C122.714 64.24 122.854 63.49 123.134 62.85C123.424 62.21 123.824 61.72 124.334 61.38C124.854 61.04 125.464 60.87 126.164 60.87C126.464 60.87 126.739 60.89 126.989 60.93C127.249 60.97 127.449 61.015 127.589 61.065C127.739 61.105 127.834 61.135 127.874 61.155L127.904 61.29C127.874 61.34 127.809 61.46 127.709 61.65C127.619 61.83 127.529 62.035 127.439 62.265L127.274 62.31C127.234 62.28 127.134 62.22 126.974 62.13C126.824 62.04 126.619 61.955 126.359 61.875C126.109 61.795 125.839 61.755 125.549 61.755C124.979 61.755 124.554 61.985 124.274 62.445C123.994 62.895 123.844 63.59 123.824 64.53L123.809 65.265C124.329 65.265 124.774 65.26 125.144 65.25C125.514 65.24 125.759 65.23 125.879 65.22L125.924 65.265L125.774 66.06C125.664 66.05 125.429 66.04 125.069 66.03C124.719 66.02 124.294 66.015 123.794 66.015L123.734 70.53C123.734 70.81 123.794 71.02 123.914 71.16C124.044 71.29 124.239 71.355 124.499 71.355C124.739 71.355 124.934 71.35 125.084 71.34C125.244 71.33 125.349 71.325 125.399 71.325L125.429 71.385L125.324 72.03C125.184 72.03 124.929 72.025 124.559 72.015C124.189 72.005 123.824 72 123.464 72C123.114 72 122.769 72.005 122.429 72.015C122.099 72.035 121.884 72.05 121.784 72.06L121.859 71.475ZM128.931 72.18C128.361 72.18 127.856 72.04 127.416 71.76C126.976 71.48 126.631 71.09 126.381 70.59C126.141 70.08 126.021 69.5 126.021 68.85C126.021 68.15 126.171 67.51 126.471 66.93C126.781 66.34 127.201 65.88 127.731 65.55C128.261 65.21 128.851 65.04 129.501 65.04C130.061 65.04 130.561 65.18 131.001 65.46C131.451 65.74 131.796 66.135 132.036 66.645C132.286 67.145 132.411 67.72 132.411 68.37C132.411 69.07 132.256 69.715 131.946 70.305C131.646 70.885 131.231 71.345 130.701 71.685C130.171 72.015 129.581 72.18 128.931 72.18ZM129.351 71.445C129.911 71.445 130.356 71.22 130.686 70.77C131.016 70.31 131.181 69.69 131.181 68.91C131.181 68.32 131.091 67.795 130.911 67.335C130.731 66.865 130.476 66.5 130.146 66.24C129.826 65.98 129.461 65.85 129.051 65.85C128.491 65.85 128.046 66.08 127.716 66.54C127.386 67 127.221 67.625 127.221 68.415C127.221 69.005 127.311 69.53 127.491 69.99C127.671 70.45 127.921 70.81 128.241 71.07C128.561 71.32 128.931 71.445 129.351 71.445ZM133.537 71.46C133.837 71.43 134.037 71.335 134.137 71.175C134.237 71.005 134.287 70.685 134.287 70.215V66.915C134.287 66.585 134.242 66.35 134.152 66.21C134.062 66.07 133.917 66 133.717 66C133.637 66 133.567 66.005 133.507 66.015C133.457 66.025 133.422 66.035 133.402 66.045L133.327 65.94L133.372 65.475C133.752 65.405 134.152 65.32 134.572 65.22C135.002 65.12 135.277 65.055 135.397 65.025L135.502 65.115C135.482 65.205 135.452 65.415 135.412 65.745C135.372 66.065 135.357 66.37 135.367 66.66L135.427 66.705C135.727 66.235 136.077 65.85 136.477 65.55C136.887 65.25 137.242 65.1 137.542 65.1C137.682 65.1 137.787 65.11 137.857 65.13C137.937 65.14 137.987 65.15 138.007 65.16L138.052 65.22C138.032 65.36 137.987 65.66 137.917 66.12C137.857 66.57 137.822 66.985 137.812 67.365L137.227 67.41C137.227 67 137.197 66.73 137.137 66.6C137.087 66.46 136.982 66.39 136.822 66.39C136.602 66.39 136.367 66.485 136.117 66.675C135.867 66.855 135.637 67.1 135.427 67.41C135.417 67.7 135.397 68.18 135.367 68.85C135.337 69.52 135.317 70.06 135.307 70.47C135.307 70.81 135.357 71.04 135.457 71.16C135.557 71.28 135.747 71.34 136.027 71.34C136.157 71.34 136.287 71.335 136.417 71.325C136.547 71.315 136.637 71.31 136.687 71.31L136.702 71.37L136.567 72.03C136.467 72.03 136.267 72.025 135.967 72.015C135.667 72.005 135.357 72 135.037 72C134.667 72 134.332 72.005 134.032 72.015C133.732 72.035 133.542 72.05 133.462 72.06L133.537 71.46ZM5.875 92.565C6.175 92.485 6.39 92.37 6.52 92.22C6.65 92.06 6.715 91.85 6.715 91.59L6.775 88.62C6.775 88.12 6.665 87.735 6.445 87.465C6.235 87.195 5.93 87.06 5.53 87.06C5.21 87.06 4.885 87.145 4.555 87.315C4.225 87.475 3.935 87.65 3.685 87.84C3.595 89.91 3.55 91.14 3.55 91.53C3.55 91.84 3.59 92.06 3.67 92.19C3.75 92.31 3.89 92.37 4.09 92.37C4.2 92.37 4.305 92.365 4.405 92.355C4.505 92.345 4.575 92.34 4.615 92.34L4.645 92.4L4.51 93.045C4.42 93.035 4.245 93.025 3.985 93.015C3.725 93.005 3.445 93 3.145 93C2.815 93 2.51 93.005 2.23 93.015C1.95 93.025 1.76 93.03 1.66 93.03L1.75 92.415C2.04 92.385 2.24 92.31 2.35 92.19C2.47 92.07 2.53 91.87 2.53 91.59V87.93C2.53 87.59 2.475 87.355 2.365 87.225C2.255 87.085 2.065 87.015 1.795 87.015H1.63L1.585 86.955L1.63 86.46C2.06 86.39 2.485 86.31 2.905 86.22C3.335 86.12 3.61 86.055 3.73 86.025L3.82 86.145C3.8 86.205 3.77 86.335 3.73 86.535C3.69 86.725 3.665 86.925 3.655 87.135L3.685 87.18C4.805 86.42 5.54 86.04 5.89 86.04C6.37 86.04 6.775 86.145 7.105 86.355C7.435 86.555 7.67 86.845 7.81 87.225C8.17 86.965 8.575 86.705 9.025 86.445C9.475 86.175 9.825 86.04 10.075 86.04C10.705 86.04 11.205 86.215 11.575 86.565C11.945 86.915 12.13 87.385 12.13 87.975C12.13 88.075 12.1 88.535 12.04 89.355C11.96 90.395 11.92 91.12 11.92 91.53C11.92 91.84 11.96 92.06 12.04 92.19C12.12 92.31 12.26 92.37 12.46 92.37C12.57 92.37 12.675 92.365 12.775 92.355C12.875 92.345 12.945 92.34 12.985 92.34L13.015 92.4L12.88 93.045C12.79 93.035 12.615 93.025 12.355 93.015C12.095 93.005 11.815 93 11.515 93C11.255 93 10.965 93.01 10.645 93.03C10.335 93.06 10.13 93.08 10.03 93.09L10.105 92.475C10.395 92.425 10.6 92.335 10.72 92.205C10.84 92.075 10.9 91.87 10.9 91.59L10.96 88.62C10.96 88.12 10.85 87.735 10.63 87.465C10.42 87.195 10.115 87.06 9.715 87.06C9.195 87.06 8.59 87.31 7.9 87.81L7.735 91.53C7.735 91.82 7.775 92.035 7.855 92.175C7.935 92.305 8.07 92.37 8.26 92.37C8.37 92.37 8.475 92.365 8.575 92.355C8.675 92.345 8.745 92.34 8.785 92.34L8.815 92.4L8.695 93.045C8.605 93.035 8.435 93.025 8.185 93.015C7.935 93.005 7.66 93 7.36 93C7.1 93 6.8 93.025 6.46 93.075C6.13 93.125 5.915 93.16 5.815 93.18L5.875 92.565ZM13.9005 92.565C14.2005 92.485 14.4155 92.37 14.5455 92.22C14.6755 92.06 14.7405 91.85 14.7405 91.59V87.78C14.7405 87.24 14.5555 86.97 14.1855 86.97C14.1155 86.97 14.0405 86.98 13.9605 87C13.8805 87.01 13.8305 87.02 13.8105 87.03L13.8705 86.475C14.2905 86.415 14.7205 86.335 15.1605 86.235C15.6105 86.135 15.9005 86.07 16.0305 86.04L16.1055 86.22C16.0155 86.43 15.9355 87.075 15.8655 88.155C15.7955 89.225 15.7605 90.35 15.7605 91.53C15.7605 91.82 15.8005 92.035 15.8805 92.175C15.9605 92.305 16.0955 92.37 16.2855 92.37C16.3955 92.37 16.5005 92.365 16.6005 92.355C16.7005 92.345 16.7705 92.34 16.8105 92.34L16.8405 92.4L16.7205 93.045C16.6305 93.035 16.4605 93.025 16.2105 93.015C15.9605 93.005 15.6855 93 15.3855 93C15.1255 93 14.8255 93.025 14.4855 93.075C14.1555 93.125 13.9405 93.16 13.8405 93.18L13.9005 92.565ZM15.1605 84.27C14.9305 84.27 14.7505 84.195 14.6205 84.045C14.4905 83.895 14.4255 83.715 14.4255 83.505C14.4255 83.265 14.5105 83.06 14.6805 82.89C14.8505 82.71 15.0605 82.62 15.3105 82.62C15.5405 82.62 15.7205 82.695 15.8505 82.845C15.9805 82.995 16.0455 83.175 16.0455 83.385C16.0455 83.625 15.9605 83.835 15.7905 84.015C15.6205 84.185 15.4105 84.27 15.1605 84.27ZM17.9989 92.46C18.2989 92.43 18.4989 92.335 18.5989 92.175C18.6989 92.005 18.7489 91.685 18.7489 91.215V87.915C18.7489 87.585 18.7039 87.35 18.6139 87.21C18.5239 87.07 18.3789 87 18.1789 87C18.0989 87 18.0289 87.005 17.9689 87.015C17.9189 87.025 17.8839 87.035 17.8639 87.045L17.7889 86.94L17.8339 86.475C18.2139 86.405 18.6139 86.32 19.0339 86.22C19.4639 86.12 19.7389 86.055 19.8589 86.025L19.9639 86.115C19.9439 86.205 19.9139 86.415 19.8739 86.745C19.8339 87.065 19.8189 87.37 19.8289 87.66L19.8889 87.705C20.1889 87.235 20.5389 86.85 20.9389 86.55C21.3489 86.25 21.7039 86.1 22.0039 86.1C22.1439 86.1 22.2489 86.11 22.3189 86.13C22.3989 86.14 22.4489 86.15 22.4689 86.16L22.5139 86.22C22.4939 86.36 22.4489 86.66 22.3789 87.12C22.3189 87.57 22.2839 87.985 22.2739 88.365L21.6889 88.41C21.6889 88 21.6589 87.73 21.5989 87.6C21.5489 87.46 21.4439 87.39 21.2839 87.39C21.0639 87.39 20.8289 87.485 20.5789 87.675C20.3289 87.855 20.0989 88.1 19.8889 88.41C19.8789 88.7 19.8589 89.18 19.8289 89.85C19.7989 90.52 19.7789 91.06 19.7689 91.47C19.7689 91.81 19.8189 92.04 19.9189 92.16C20.0189 92.28 20.2089 92.34 20.4889 92.34C20.6189 92.34 20.7489 92.335 20.8789 92.325C21.0089 92.315 21.0989 92.31 21.1489 92.31L21.1639 92.37L21.0289 93.03C20.9289 93.03 20.7289 93.025 20.4289 93.015C20.1289 93.005 19.8189 93 19.4989 93C19.1289 93 18.7939 93.005 18.4939 93.015C18.1939 93.035 18.0039 93.05 17.9239 93.06L17.9989 92.46ZM25.6461 93.18C24.9661 93.18 24.4861 93.045 24.2061 92.775C23.9261 92.495 23.7861 92.025 23.7861 91.365V87.675C23.7861 87.405 23.7261 87.215 23.6061 87.105C23.4861 86.995 23.2611 86.935 22.9311 86.925L22.8711 86.835L22.9461 86.385C23.2361 86.245 23.5161 86.075 23.7861 85.875C24.0661 85.665 24.2911 85.485 24.4611 85.335C24.6411 85.175 24.7561 85.07 24.8061 85.02L25.1061 85.14C25.0961 85.19 25.0811 85.31 25.0611 85.5C25.0411 85.69 25.0161 85.945 24.9861 86.265L27.1911 86.22L27.2361 86.265L27.1011 87.06L24.9261 87.015C24.8561 88.115 24.8211 89.365 24.8211 90.765C24.8211 91.275 24.9061 91.635 25.0761 91.845C25.2561 92.055 25.5611 92.16 25.9911 92.16C26.1411 92.16 26.2911 92.14 26.4411 92.1C26.5911 92.06 26.7161 92.02 26.8161 91.98C26.9161 91.93 26.9811 91.9 27.0111 91.89L27.1611 92.28C27.1011 92.33 26.9711 92.425 26.7711 92.565C26.5811 92.705 26.3711 92.845 26.1411 92.985C25.9211 93.115 25.7561 93.18 25.6461 93.18ZM27.7322 92.415C28.0222 92.385 28.2222 92.31 28.3322 92.19C28.4522 92.07 28.5122 91.87 28.5122 91.59V83.61C28.5122 83.34 28.4672 83.145 28.3772 83.025C28.2872 82.895 28.1472 82.83 27.9572 82.83H27.6422L27.5822 82.785L27.6422 82.305C27.9822 82.265 28.3672 82.205 28.7972 82.125C29.2272 82.035 29.5822 81.95 29.8622 81.87L29.9522 82.065C29.8822 82.175 29.8122 82.71 29.7422 83.67C29.6822 84.63 29.6322 85.81 29.5922 87.21C30.7322 86.43 31.4822 86.04 31.8422 86.04C32.4922 86.04 32.9972 86.21 33.3572 86.55C33.7172 86.89 33.8972 87.365 33.8972 87.975C33.8972 88.175 33.8622 88.635 33.7922 89.355C33.7022 90.525 33.6572 91.25 33.6572 91.53C33.6572 91.82 33.6972 92.035 33.7772 92.175C33.8572 92.305 33.9922 92.37 34.1822 92.37L34.7072 92.34L34.7372 92.4L34.6172 93.045C33.9572 93.015 33.5122 93 33.2822 93C32.8822 93 32.3672 93.06 31.7372 93.18L31.7972 92.565C32.0972 92.485 32.3122 92.37 32.4422 92.22C32.5722 92.06 32.6372 91.85 32.6372 91.59L32.7272 88.62C32.7272 88.12 32.6172 87.735 32.3972 87.465C32.1872 87.195 31.8822 87.06 31.4822 87.06C31.2322 87.06 30.9222 87.14 30.5522 87.3C30.1922 87.46 29.8672 87.655 29.5772 87.885C29.5472 89.005 29.5322 90.22 29.5322 91.53C29.5322 91.84 29.5722 92.06 29.6522 92.19C29.7322 92.31 29.8722 92.37 30.0722 92.37L30.5972 92.34L30.6272 92.4L30.4922 93.045C29.8022 93.015 29.3472 93 29.1272 93C28.6972 93 28.2022 93.01 27.6422 93.03L27.7322 92.415ZM35.8649 95.13V94.98C36.2149 94.74 36.4999 94.455 36.7199 94.125C36.9399 93.795 37.0499 93.475 37.0499 93.165C37.0499 92.965 37.0049 92.775 36.9149 92.595C36.8249 92.405 36.7099 92.245 36.5699 92.115L36.5999 91.905C36.9399 91.645 37.2299 91.515 37.4699 91.515C37.6899 91.515 37.8699 91.62 38.0099 91.83C38.1599 92.03 38.2349 92.315 38.2349 92.685C38.2349 93.205 38.0249 93.695 37.6049 94.155C37.1849 94.625 36.6949 95.025 36.1349 95.355L35.8649 95.13ZM55.7798 92.4L55.6598 93.045C54.9998 93.015 54.5548 93 54.3248 93C53.9448 93 53.4298 93.06 52.7798 93.18L52.8398 92.565C53.1298 92.485 53.3398 92.37 53.4698 92.22C53.5998 92.07 53.6698 91.86 53.6798 91.59L53.7698 88.62C53.7898 88.13 53.6848 87.75 53.4548 87.48C53.2348 87.2 52.9248 87.06 52.5248 87.06C52.2748 87.06 51.9648 87.14 51.5948 87.3C51.2348 87.46 50.9098 87.655 50.6198 87.885C50.5898 89.005 50.5748 90.22 50.5748 91.53C50.5748 91.84 50.6148 92.06 50.6948 92.19C50.7748 92.31 50.9148 92.37 51.1148 92.37L51.6398 92.34L51.6698 92.4L51.5348 93.045C50.8448 93.015 50.3898 93 50.1698 93C49.8198 93 49.3248 93.01 48.6848 93.03L48.7748 92.415C49.0648 92.385 49.2648 92.31 49.3748 92.19C49.4948 92.07 49.5548 91.87 49.5548 91.59V84.465C49.3048 84.295 48.9698 84.185 48.5498 84.135C48.1398 84.085 47.3548 84.05 46.1948 84.03C46.1348 84.63 46.0798 85.69 46.0298 87.21C45.9798 88.73 45.9548 90.1 45.9548 91.32C45.9548 91.69 46.0198 91.955 46.1498 92.115C46.2798 92.265 46.4998 92.34 46.8098 92.34C47.1198 92.34 47.3948 92.325 47.6348 92.295L47.6798 92.355L47.5448 93.045L47.0498 93.03L45.3398 93C44.8698 93 44.1848 93.02 43.2848 93.06L43.4048 92.415C43.9048 92.375 44.2498 92.315 44.4398 92.235C44.6298 92.145 44.7548 91.99 44.8148 91.77C44.8748 91.54 44.9048 91.14 44.9048 90.57V84.03C44.0448 84.07 43.4648 84.125 43.1648 84.195C42.8648 84.265 42.6598 84.41 42.5498 84.63C42.4398 84.85 42.3398 85.28 42.2498 85.92L41.5448 85.98C41.6648 85.03 41.7398 84.165 41.7698 83.385L41.9048 83.265L43.1498 83.43H48.1298L49.5248 83.295L49.4648 82.32L49.5548 82.17C49.8148 82.12 50.0798 82.065 50.3498 82.005C50.6298 81.935 50.8148 81.89 50.9048 81.87L50.9948 82.065C50.9248 82.175 50.8548 82.71 50.7848 83.67C50.7248 84.63 50.6748 85.81 50.6348 87.21C51.7748 86.43 52.5248 86.04 52.8848 86.04C53.5348 86.04 54.0398 86.21 54.3998 86.55C54.7598 86.89 54.9398 87.365 54.9398 87.975C54.9398 88.175 54.9048 88.635 54.8348 89.355C54.7448 90.525 54.6998 91.25 54.6998 91.53C54.6998 91.82 54.7398 92.035 54.8198 92.175C54.8998 92.305 55.0348 92.37 55.2248 92.37L55.7498 92.34L55.7798 92.4ZM56.8483 92.46C57.1483 92.43 57.3483 92.335 57.4483 92.175C57.5483 92.005 57.5983 91.685 57.5983 91.215V87.915C57.5983 87.585 57.5533 87.35 57.4633 87.21C57.3733 87.07 57.2283 87 57.0283 87C56.9483 87 56.8783 87.005 56.8183 87.015C56.7683 87.025 56.7333 87.035 56.7133 87.045L56.6383 86.94L56.6833 86.475C57.0633 86.405 57.4633 86.32 57.8833 86.22C58.3133 86.12 58.5883 86.055 58.7083 86.025L58.8133 86.115C58.7933 86.205 58.7633 86.415 58.7233 86.745C58.6833 87.065 58.6683 87.37 58.6783 87.66L58.7383 87.705C59.0383 87.235 59.3883 86.85 59.7883 86.55C60.1983 86.25 60.5533 86.1 60.8533 86.1C60.9933 86.1 61.0983 86.11 61.1683 86.13C61.2483 86.14 61.2983 86.15 61.3183 86.16L61.3633 86.22C61.3433 86.36 61.2983 86.66 61.2283 87.12C61.1683 87.57 61.1333 87.985 61.1233 88.365L60.5383 88.41C60.5383 88 60.5083 87.73 60.4483 87.6C60.3983 87.46 60.2933 87.39 60.1333 87.39C59.9133 87.39 59.6783 87.485 59.4283 87.675C59.1783 87.855 58.9483 88.1 58.7383 88.41C58.7283 88.7 58.7083 89.18 58.6783 89.85C58.6483 90.52 58.6283 91.06 58.6183 91.47C58.6183 91.81 58.6683 92.04 58.7683 92.16C58.8683 92.28 59.0583 92.34 59.3383 92.34C59.4683 92.34 59.5983 92.335 59.7283 92.325C59.8583 92.315 59.9483 92.31 59.9983 92.31L60.0133 92.37L59.8783 93.03C59.7783 93.03 59.5783 93.025 59.2783 93.015C58.9783 93.005 58.6683 93 58.3483 93C57.9783 93 57.6433 93.005 57.3433 93.015C57.0433 93.035 56.8533 93.05 56.7733 93.06L56.8483 92.46ZM64.949 93.18C64.329 93.18 63.779 93.045 63.299 92.775C62.819 92.495 62.449 92.105 62.189 91.605C61.929 91.095 61.799 90.515 61.799 89.865C61.799 89.195 61.949 88.565 62.249 87.975C62.559 87.385 62.969 86.915 63.479 86.565C63.989 86.215 64.534 86.04 65.114 86.04C65.844 86.04 66.399 86.225 66.779 86.595C67.159 86.965 67.349 87.505 67.349 88.215C67.349 88.505 67.319 88.75 67.259 88.95L67.064 89.13H62.924C62.914 90.1 63.104 90.85 63.494 91.38C63.894 91.9 64.449 92.16 65.159 92.16C65.719 92.16 66.329 92.005 66.989 91.695L67.079 91.725L67.244 92.16C66.884 92.42 66.484 92.655 66.044 92.865C65.614 93.075 65.249 93.18 64.949 93.18ZM65.699 88.44C65.849 88.42 65.949 88.385 65.999 88.335C66.049 88.285 66.074 88.185 66.074 88.035C66.074 87.635 65.964 87.33 65.744 87.12C65.534 86.91 65.229 86.805 64.829 86.805C64.359 86.805 63.954 86.965 63.614 87.285C63.284 87.605 63.074 88.035 62.984 88.575L65.699 88.44ZM71.3726 93.18C70.7526 93.18 70.2026 93.045 69.7226 92.775C69.2426 92.495 68.8726 92.105 68.6126 91.605C68.3526 91.095 68.2226 90.515 68.2226 89.865C68.2226 89.195 68.3726 88.565 68.6726 87.975C68.9826 87.385 69.3926 86.915 69.9026 86.565C70.4126 86.215 70.9576 86.04 71.5376 86.04C72.2676 86.04 72.8226 86.225 73.2026 86.595C73.5826 86.965 73.7726 87.505 73.7726 88.215C73.7726 88.505 73.7426 88.75 73.6826 88.95L73.4876 89.13H69.3476C69.3376 90.1 69.5276 90.85 69.9176 91.38C70.3176 91.9 70.8726 92.16 71.5826 92.16C72.1426 92.16 72.7526 92.005 73.4126 91.695L73.5026 91.725L73.6676 92.16C73.3076 92.42 72.9076 92.655 72.4676 92.865C72.0376 93.075 71.6726 93.18 71.3726 93.18ZM72.1226 88.44C72.2726 88.42 72.3726 88.385 72.4226 88.335C72.4726 88.285 72.4976 88.185 72.4976 88.035C72.4976 87.635 72.3876 87.33 72.1676 87.12C71.9576 86.91 71.6526 86.805 71.2526 86.805C70.7826 86.805 70.3776 86.965 70.0376 87.285C69.7076 87.605 69.4976 88.035 69.4076 88.575L72.1226 88.44ZM77.5449 92.475C78.1149 92.395 78.3999 92.1 78.3999 91.59V87.54C78.3899 87.3 78.3199 87.145 78.1899 87.075C78.0699 86.995 77.8249 86.945 77.4549 86.925L77.3949 86.835L77.4999 86.325L78.3999 86.16V86.1C78.3999 85.24 78.5399 84.49 78.8199 83.85C79.1099 83.21 79.5099 82.72 80.0199 82.38C80.5399 82.04 81.1499 81.87 81.8499 81.87C82.1499 81.87 82.4249 81.89 82.6749 81.93C82.9349 81.97 83.1349 82.015 83.2749 82.065C83.4249 82.105 83.5199 82.135 83.5599 82.155L83.5899 82.29C83.5599 82.34 83.4949 82.46 83.3949 82.65C83.3049 82.83 83.2149 83.035 83.1249 83.265L82.9599 83.31C82.9199 83.28 82.8199 83.22 82.6599 83.13C82.5099 83.04 82.3049 82.955 82.0449 82.875C81.7949 82.795 81.5249 82.755 81.2349 82.755C80.6649 82.755 80.2399 82.985 79.9599 83.445C79.6799 83.895 79.5299 84.59 79.5099 85.53L79.4949 86.265C80.0149 86.265 80.4599 86.26 80.8299 86.25C81.1999 86.24 81.4449 86.23 81.5649 86.22L81.6099 86.265L81.4599 87.06C81.3499 87.05 81.1149 87.04 80.7549 87.03C80.4049 87.02 79.9799 87.015 79.4799 87.015L79.4199 91.53C79.4199 91.81 79.4799 92.02 79.5999 92.16C79.7299 92.29 79.9249 92.355 80.1849 92.355C80.4249 92.355 80.6199 92.35 80.7699 92.34C80.9299 92.33 81.0349 92.325 81.0849 92.325L81.1149 92.385L81.0099 93.03C80.8699 93.03 80.6149 93.025 80.2449 93.015C79.8749 93.005 79.5099 93 79.1499 93C78.7999 93 78.4549 93.005 78.1149 93.015C77.7849 93.035 77.5699 93.05 77.4699 93.06L77.5449 92.475ZM84.6174 93.18C84.0474 93.18 83.5424 93.04 83.1024 92.76C82.6624 92.48 82.3174 92.09 82.0674 91.59C81.8274 91.08 81.7074 90.5 81.7074 89.85C81.7074 89.15 81.8574 88.51 82.1574 87.93C82.4674 87.34 82.8874 86.88 83.4174 86.55C83.9474 86.21 84.5374 86.04 85.1874 86.04C85.7474 86.04 86.2474 86.18 86.6874 86.46C87.1374 86.74 87.4824 87.135 87.7224 87.645C87.9724 88.145 88.0974 88.72 88.0974 89.37C88.0974 90.07 87.9424 90.715 87.6324 91.305C87.3324 91.885 86.9174 92.345 86.3874 92.685C85.8574 93.015 85.2674 93.18 84.6174 93.18ZM85.0374 92.445C85.5974 92.445 86.0424 92.22 86.3724 91.77C86.7024 91.31 86.8674 90.69 86.8674 89.91C86.8674 89.32 86.7774 88.795 86.5974 88.335C86.4174 87.865 86.1624 87.5 85.8324 87.24C85.5124 86.98 85.1474 86.85 84.7374 86.85C84.1774 86.85 83.7324 87.08 83.4024 87.54C83.0724 88 82.9074 88.625 82.9074 89.415C82.9074 90.005 82.9974 90.53 83.1774 90.99C83.3574 91.45 83.6074 91.81 83.9274 92.07C84.2474 92.32 84.6174 92.445 85.0374 92.445ZM89.2231 92.46C89.5231 92.43 89.7231 92.335 89.8231 92.175C89.9231 92.005 89.9731 91.685 89.9731 91.215V87.915C89.9731 87.585 89.9281 87.35 89.8381 87.21C89.7481 87.07 89.6031 87 89.4031 87C89.3231 87 89.2531 87.005 89.1931 87.015C89.1431 87.025 89.1081 87.035 89.0881 87.045L89.0131 86.94L89.0581 86.475C89.4381 86.405 89.8381 86.32 90.2581 86.22C90.6881 86.12 90.9631 86.055 91.0831 86.025L91.1881 86.115C91.1681 86.205 91.1381 86.415 91.0981 86.745C91.0581 87.065 91.0431 87.37 91.0531 87.66L91.1131 87.705C91.4131 87.235 91.7631 86.85 92.1631 86.55C92.5731 86.25 92.9281 86.1 93.2281 86.1C93.3681 86.1 93.4731 86.11 93.5431 86.13C93.6231 86.14 93.6731 86.15 93.6931 86.16L93.7381 86.22C93.7181 86.36 93.6731 86.66 93.6031 87.12C93.5431 87.57 93.5081 87.985 93.4981 88.365L92.9131 88.41C92.9131 88 92.8831 87.73 92.8231 87.6C92.7731 87.46 92.6681 87.39 92.5081 87.39C92.2881 87.39 92.0531 87.485 91.8031 87.675C91.5531 87.855 91.3231 88.1 91.1131 88.41C91.1031 88.7 91.0831 89.18 91.0531 89.85C91.0231 90.52 91.0031 91.06 90.9931 91.47C90.9931 91.81 91.0431 92.04 91.1431 92.16C91.2431 92.28 91.4331 92.34 91.7131 92.34C91.8431 92.34 91.9731 92.335 92.1031 92.325C92.2331 92.315 92.3231 92.31 92.3731 92.31L92.3881 92.37L92.2531 93.03C92.1531 93.03 91.9531 93.025 91.6531 93.015C91.3531 93.005 91.0431 93 90.7231 93C90.3531 93 90.0181 93.005 89.7181 93.015C89.4181 93.035 89.2281 93.05 89.1481 93.06L89.2231 92.46ZM102.034 93.18C101.224 93.18 100.779 92.775 100.699 91.965L100.639 91.95C100.279 92.31 99.9489 92.595 99.6489 92.805C99.3589 93.015 99.1389 93.12 98.9889 93.12C98.4289 93.12 97.9689 92.945 97.6089 92.595C97.2489 92.245 97.0689 91.8 97.0689 91.26C97.0689 90.97 97.1389 90.715 97.2789 90.495C97.4289 90.275 97.6239 90.13 97.8639 90.06L100.714 89.28L100.729 88.62C100.729 88.12 100.614 87.73 100.384 87.45C100.154 87.17 99.8289 87.03 99.4089 87.03C99.1289 87.03 98.8339 87.095 98.5239 87.225C98.2139 87.355 97.9089 87.54 97.6089 87.78L97.5339 87.735L97.3539 87.09C97.8239 86.82 98.2939 86.58 98.7639 86.37C99.2439 86.15 99.5889 86.04 99.7989 86.04C100.449 86.04 100.959 86.21 101.329 86.55C101.699 86.89 101.884 87.365 101.884 87.975C101.884 88.195 101.849 88.645 101.779 89.325C101.669 90.425 101.614 91.125 101.614 91.425C101.614 91.645 101.669 91.815 101.779 91.935C101.889 92.055 102.039 92.115 102.229 92.115C102.389 92.115 102.554 92.08 102.724 92.01C102.894 91.93 103.029 91.84 103.129 91.74L103.339 91.98C103.189 92.23 102.994 92.475 102.754 92.715C102.524 92.945 102.284 93.1 102.034 93.18ZM99.2439 92.1C99.4339 92.1 99.6539 92.035 99.9039 91.905C100.164 91.765 100.399 91.59 100.609 91.38L100.684 89.85L98.6439 90.465C98.3539 90.555 98.2089 90.765 98.2089 91.095C98.2089 91.385 98.3039 91.625 98.4939 91.815C98.6939 92.005 98.9439 92.1 99.2439 92.1ZM108.545 93.255C108.405 92.775 108.115 91.835 107.675 90.435C107.245 89.025 106.945 88.05 106.775 87.51C106.605 87.02 106.275 86.77 105.785 86.76L105.755 86.7L105.845 86.205L107.045 86.22C107.425 86.22 107.785 86.205 108.125 86.175C108.475 86.145 108.7 86.125 108.8 86.115L108.83 86.19L108.74 86.655C108.41 86.665 108.185 86.7 108.065 86.76C107.945 86.81 107.885 86.905 107.885 87.045C107.885 87.235 108.06 87.955 108.41 89.205C108.76 90.445 109 91.285 109.13 91.725H109.19L110.075 89.505C110.395 88.735 110.625 88.15 110.765 87.75C110.655 87.41 110.52 87.16 110.36 87C110.21 86.84 109.99 86.76 109.7 86.76L109.67 86.7L109.76 86.205L110.96 86.22C111.33 86.22 111.69 86.21 112.04 86.19C112.39 86.17 112.615 86.155 112.715 86.145L112.745 86.22L112.655 86.685C112.315 86.695 112.085 86.725 111.965 86.775C111.855 86.825 111.8 86.915 111.8 87.045C111.8 87.225 111.975 87.94 112.325 89.19C112.675 90.43 112.915 91.275 113.045 91.725H113.105C113.545 90.595 113.835 89.87 113.975 89.55C114.225 88.93 114.43 88.4 114.59 87.96C114.76 87.52 114.845 87.24 114.845 87.12C114.845 86.98 114.795 86.885 114.695 86.835C114.605 86.775 114.45 86.745 114.23 86.745H113.675L113.615 86.655L113.69 86.19C113.78 86.19 113.96 86.195 114.23 86.205C114.5 86.215 114.815 86.22 115.175 86.22L116.405 86.205L116.3 86.76C116.1 86.78 115.94 86.865 115.82 87.015C115.7 87.155 115.55 87.445 115.37 87.885L113.27 93L112.46 93.255L111.11 88.83H111.02L109.37 93L108.545 93.255ZM119.547 93.18C118.927 93.18 118.377 93.045 117.897 92.775C117.417 92.495 117.047 92.105 116.787 91.605C116.527 91.095 116.397 90.515 116.397 89.865C116.397 89.195 116.547 88.565 116.847 87.975C117.157 87.385 117.567 86.915 118.077 86.565C118.587 86.215 119.132 86.04 119.712 86.04C120.442 86.04 120.997 86.225 121.377 86.595C121.757 86.965 121.947 87.505 121.947 88.215C121.947 88.505 121.917 88.75 121.857 88.95L121.662 89.13H117.522C117.512 90.1 117.702 90.85 118.092 91.38C118.492 91.9 119.047 92.16 119.757 92.16C120.317 92.16 120.927 92.005 121.587 91.695L121.677 91.725L121.842 92.16C121.482 92.42 121.082 92.655 120.642 92.865C120.212 93.075 119.847 93.18 119.547 93.18ZM120.297 88.44C120.447 88.42 120.547 88.385 120.597 88.335C120.647 88.285 120.672 88.185 120.672 88.035C120.672 87.635 120.562 87.33 120.342 87.12C120.132 86.91 119.827 86.805 119.427 86.805C118.957 86.805 118.552 86.965 118.212 87.285C117.882 87.605 117.672 88.035 117.582 88.575L120.297 88.44ZM129.03 93.18C128.25 93.18 127.805 92.825 127.695 92.115L127.59 92.07C126.55 92.78 125.925 93.135 125.715 93.135C125.145 93.135 124.64 93.005 124.2 92.745C123.76 92.475 123.42 92.1 123.18 91.62C122.94 91.14 122.82 90.59 122.82 89.97C122.82 89.26 122.985 88.605 123.315 88.005C123.655 87.405 124.11 86.93 124.68 86.58C125.26 86.22 125.885 86.04 126.555 86.04C126.875 86.04 127.22 86.06 127.59 86.1V83.61C127.59 83.07 127.405 82.8 127.035 82.8C126.965 82.8 126.89 82.81 126.81 82.83C126.73 82.84 126.68 82.85 126.66 82.86L126.72 82.305C127.15 82.245 127.595 82.165 128.055 82.065C128.515 81.965 128.81 81.9 128.94 81.87L129.03 82.065C128.92 82.235 128.82 83.29 128.73 85.23C128.65 87.17 128.61 89.235 128.61 91.425C128.61 91.645 128.665 91.815 128.775 91.935C128.885 92.055 129.035 92.115 129.225 92.115C129.365 92.115 129.5 92.09 129.63 92.04C129.77 91.98 129.88 91.92 129.96 91.86C130.05 91.8 130.105 91.76 130.125 91.74L130.335 91.98C130.305 92.03 130.23 92.14 130.11 92.31C129.99 92.47 129.83 92.64 129.63 92.82C129.44 93 129.24 93.12 129.03 93.18ZM125.955 92.16C126.165 92.16 126.39 92.1 126.63 91.98C126.88 91.86 127.09 91.74 127.26 91.62C127.43 91.49 127.54 91.405 127.59 91.365V87.255C127.56 87.235 127.485 87.2 127.365 87.15C127.245 87.09 127.075 87.035 126.855 86.985C126.645 86.935 126.405 86.91 126.135 86.91C125.465 86.91 124.935 87.14 124.545 87.6C124.165 88.05 123.975 88.67 123.975 89.46C123.975 89.96 124.06 90.415 124.23 90.825C124.41 91.235 124.65 91.56 124.95 91.8C125.26 92.04 125.595 92.16 125.955 92.16ZM136.787 93.18C136.007 93.18 135.562 92.825 135.452 92.115L135.347 92.07C134.307 92.78 133.682 93.135 133.472 93.135C132.902 93.135 132.397 93.005 131.957 92.745C131.517 92.475 131.177 92.1 130.937 91.62C130.697 91.14 130.577 90.59 130.577 89.97C130.577 89.26 130.742 88.605 131.072 88.005C131.412 87.405 131.867 86.93 132.437 86.58C133.017 86.22 133.642 86.04 134.312 86.04C134.632 86.04 134.977 86.06 135.347 86.1V83.61C135.347 83.07 135.162 82.8 134.792 82.8C134.722 82.8 134.647 82.81 134.567 82.83C134.487 82.84 134.437 82.85 134.417 82.86L134.477 82.305C134.907 82.245 135.352 82.165 135.812 82.065C136.272 81.965 136.567 81.9 136.697 81.87L136.787 82.065C136.677 82.235 136.577 83.29 136.487 85.23C136.407 87.17 136.367 89.235 136.367 91.425C136.367 91.645 136.422 91.815 136.532 91.935C136.642 92.055 136.792 92.115 136.982 92.115C137.122 92.115 137.257 92.09 137.387 92.04C137.527 91.98 137.637 91.92 137.717 91.86C137.807 91.8 137.862 91.76 137.882 91.74L138.092 91.98C138.062 92.03 137.987 92.14 137.867 92.31C137.747 92.47 137.587 92.64 137.387 92.82C137.197 93 136.997 93.12 136.787 93.18ZM133.712 92.16C133.922 92.16 134.147 92.1 134.387 91.98C134.637 91.86 134.847 91.74 135.017 91.62C135.187 91.49 135.297 91.405 135.347 91.365V87.255C135.317 87.235 135.242 87.2 135.122 87.15C135.002 87.09 134.832 87.035 134.612 86.985C134.402 86.935 134.162 86.91 133.892 86.91C133.222 86.91 132.692 87.14 132.302 87.6C131.922 88.05 131.732 88.67 131.732 89.46C131.732 89.96 131.817 90.415 131.987 90.825C132.167 91.235 132.407 91.56 132.707 91.8C133.017 92.04 133.352 92.16 133.712 92.16ZM138.514 92.565C138.814 92.485 139.029 92.37 139.159 92.22C139.289 92.06 139.354 91.85 139.354 91.59V87.78C139.354 87.24 139.169 86.97 138.799 86.97C138.729 86.97 138.654 86.98 138.574 87C138.494 87.01 138.444 87.02 138.424 87.03L138.484 86.475C138.904 86.415 139.334 86.335 139.774 86.235C140.224 86.135 140.514 86.07 140.644 86.04L140.719 86.22C140.629 86.43 140.549 87.075 140.479 88.155C140.409 89.225 140.374 90.35 140.374 91.53C140.374 91.82 140.414 92.035 140.494 92.175C140.574 92.305 140.709 92.37 140.899 92.37C141.009 92.37 141.114 92.365 141.214 92.355C141.314 92.345 141.384 92.34 141.424 92.34L141.454 92.4L141.334 93.045C141.244 93.035 141.074 93.025 140.824 93.015C140.574 93.005 140.299 93 139.999 93C139.739 93 139.439 93.025 139.099 93.075C138.769 93.125 138.554 93.16 138.454 93.18L138.514 92.565ZM139.774 84.27C139.544 84.27 139.364 84.195 139.234 84.045C139.104 83.895 139.039 83.715 139.039 83.505C139.039 83.265 139.124 83.06 139.294 82.89C139.464 82.71 139.674 82.62 139.924 82.62C140.154 82.62 140.334 82.695 140.464 82.845C140.594 82.995 140.659 83.175 140.659 83.385C140.659 83.625 140.574 83.835 140.404 84.015C140.234 84.185 140.024 84.27 139.774 84.27ZM146.632 92.565C146.932 92.485 147.147 92.37 147.277 92.22C147.407 92.06 147.472 91.85 147.472 91.59L147.532 88.62C147.532 88.12 147.422 87.735 147.202 87.465C146.992 87.195 146.687 87.06 146.287 87.06C145.967 87.06 145.642 87.145 145.312 87.315C144.982 87.475 144.692 87.65 144.442 87.84C144.352 89.91 144.307 91.14 144.307 91.53C144.307 91.84 144.347 92.06 144.427 92.19C144.507 92.31 144.647 92.37 144.847 92.37C144.957 92.37 145.062 92.365 145.162 92.355C145.262 92.345 145.332 92.34 145.372 92.34L145.402 92.4L145.267 93.045C145.177 93.035 145.002 93.025 144.742 93.015C144.482 93.005 144.202 93 143.902 93C143.642 93 143.352 93.01 143.032 93.03C142.722 93.06 142.517 93.08 142.417 93.09L142.492 92.475C142.782 92.425 142.987 92.335 143.107 92.205C143.227 92.075 143.287 91.87 143.287 91.59V87.93C143.287 87.59 143.232 87.355 143.122 87.225C143.012 87.085 142.822 87.015 142.552 87.015H142.387L142.342 86.955L142.387 86.46C142.817 86.39 143.242 86.31 143.662 86.22C144.092 86.12 144.367 86.055 144.487 86.025L144.577 86.145C144.557 86.205 144.527 86.335 144.487 86.535C144.447 86.725 144.422 86.925 144.412 87.135L144.442 87.18C145.582 86.42 146.317 86.04 146.647 86.04C147.277 86.04 147.777 86.215 148.147 86.565C148.517 86.915 148.702 87.385 148.702 87.975C148.702 88.075 148.672 88.535 148.612 89.355C148.532 90.395 148.492 91.12 148.492 91.53C148.492 91.82 148.532 92.035 148.612 92.175C148.692 92.305 148.827 92.37 149.017 92.37C149.127 92.37 149.232 92.365 149.332 92.355C149.432 92.345 149.502 92.34 149.542 92.34L149.572 92.4L149.452 93.045C149.362 93.035 149.192 93.025 148.942 93.015C148.692 93.005 148.417 93 148.117 93C147.857 93 147.557 93.025 147.217 93.075C146.887 93.125 146.672 93.16 146.572 93.18L146.632 92.565ZM156.77 86.655C156.58 86.685 156.15 86.73 155.48 86.79L155.42 86.865C155.82 87.305 156.02 87.815 156.02 88.395C156.02 88.875 155.885 89.32 155.615 89.73C155.355 90.14 155 90.465 154.55 90.705C154.1 90.935 153.605 91.05 153.065 91.05C152.775 91.05 152.495 91.01 152.225 90.93C151.995 91.06 151.83 91.18 151.73 91.29C151.63 91.4 151.58 91.51 151.58 91.62C151.58 91.85 151.735 92.01 152.045 92.1C152.355 92.19 152.84 92.275 153.5 92.355C154.15 92.435 154.675 92.52 155.075 92.61C155.475 92.69 155.82 92.84 156.11 93.06C156.4 93.28 156.545 93.585 156.545 93.975C156.545 94.415 156.365 94.84 156.005 95.25C155.655 95.66 155.19 95.99 154.61 96.24C154.04 96.5 153.45 96.63 152.84 96.63C152.13 96.63 151.57 96.45 151.16 96.09C150.76 95.74 150.56 95.255 150.56 94.635C150.7 94.455 150.9 94.245 151.16 94.005C151.43 93.765 151.725 93.525 152.045 93.285V93.195C151.525 93.105 151.125 92.935 150.845 92.685C150.565 92.435 150.42 92.115 150.41 91.725C150.8 91.355 151.22 91.035 151.67 90.765V90.705C151.32 90.505 151.045 90.24 150.845 89.91C150.655 89.57 150.56 89.19 150.56 88.77C150.56 88.28 150.685 87.83 150.935 87.42C151.195 87 151.535 86.665 151.955 86.415C152.385 86.165 152.85 86.04 153.35 86.04C153.58 86.04 153.865 86.07 154.205 86.13C154.455 86.18 154.66 86.205 154.82 86.205C155.27 86.155 155.96 86.005 156.89 85.755L156.935 85.815L156.77 86.655ZM153.41 90.39C153.87 90.39 154.23 90.245 154.49 89.955C154.76 89.665 154.895 89.265 154.895 88.755C154.895 88.175 154.735 87.705 154.415 87.345C154.095 86.985 153.68 86.805 153.17 86.805C152.71 86.805 152.345 86.955 152.075 87.255C151.815 87.555 151.685 87.96 151.685 88.47C151.685 89.04 151.845 89.505 152.165 89.865C152.485 90.215 152.9 90.39 153.41 90.39ZM152.69 93.315C152.39 93.525 152.16 93.755 152 94.005C151.84 94.265 151.76 94.52 151.76 94.77C151.76 95.11 151.905 95.38 152.195 95.58C152.485 95.79 152.87 95.895 153.35 95.895C153.73 95.895 154.09 95.825 154.43 95.685C154.78 95.555 155.06 95.375 155.27 95.145C155.48 94.915 155.585 94.67 155.585 94.41C155.585 94.21 155.51 94.05 155.36 93.93C155.21 93.81 154.93 93.705 154.52 93.615C154.12 93.525 153.51 93.425 152.69 93.315ZM157.804 95.13V94.98C158.154 94.74 158.439 94.455 158.659 94.125C158.879 93.795 158.989 93.475 158.989 93.165C158.989 92.965 158.944 92.775 158.854 92.595C158.764 92.405 158.649 92.245 158.509 92.115L158.539 91.905C158.879 91.645 159.169 91.515 159.409 91.515C159.629 91.515 159.809 91.62 159.949 91.83C160.099 92.03 160.174 92.315 160.174 92.685C160.174 93.205 159.964 93.695 159.544 94.155C159.124 94.625 158.634 95.025 158.074 95.355L157.804 95.13ZM5.935 114.045L5.995 113.46C6.505 113.42 6.855 113.36 7.045 113.28C7.235 113.2 7.33 113.07 7.33 112.89C7.33 112.69 7.285 112.45 7.195 112.17L6.7 110.535C6.46 110.525 5.94 110.52 5.14 110.52C4.66 110.52 4.115 110.56 3.505 110.64L2.95 112.2C2.86 112.47 2.815 112.665 2.815 112.785C2.815 113.005 2.885 113.165 3.025 113.265C3.165 113.355 3.395 113.4 3.715 113.4H4.57L4.6 113.46L4.51 114.105C4.39 114.095 4.115 114.075 3.685 114.045C3.255 114.015 2.835 114 2.425 114C2.055 114 1.71 114.005 1.39 114.015C1.08 114.025 0.875 114.035 0.775 114.045L0.895 113.34C1.175 113.31 1.4 113.215 1.57 113.055C1.74 112.885 1.905 112.595 2.065 112.185L4.99 104.52L5.935 104.265H6.055C6.115 104.505 6.265 105.06 6.505 105.93C6.755 106.8 7.055 107.83 7.405 109.02C7.765 110.21 8.11 111.305 8.44 112.305C8.56 112.675 8.72 112.935 8.92 113.085C9.12 113.235 9.44 113.33 9.88 113.37L9.91 113.43L9.805 114.045C9.685 114.045 9.465 114.035 9.145 114.015C8.835 114.005 8.525 114 8.215 114C7.735 114 7.27 114.02 6.82 114.06C6.38 114.1 6.1 114.13 5.98 114.15L5.935 114.045ZM5.095 109.905C5.455 109.905 5.92 109.88 6.49 109.83L5.305 105.9H5.2L3.775 109.905H5.095ZM14.0718 113.565C14.3718 113.485 14.5868 113.37 14.7168 113.22C14.8468 113.06 14.9118 112.85 14.9118 112.59L14.9718 109.62C14.9718 109.12 14.8618 108.735 14.6418 108.465C14.4318 108.195 14.1268 108.06 13.7268 108.06C13.4068 108.06 13.0818 108.145 12.7518 108.315C12.4218 108.475 12.1318 108.65 11.8818 108.84C11.7918 110.91 11.7468 112.14 11.7468 112.53C11.7468 112.84 11.7868 113.06 11.8668 113.19C11.9468 113.31 12.0868 113.37 12.2868 113.37C12.3968 113.37 12.5018 113.365 12.6018 113.355C12.7018 113.345 12.7718 113.34 12.8118 113.34L12.8418 113.4L12.7068 114.045C12.6168 114.035 12.4418 114.025 12.1818 114.015C11.9218 114.005 11.6418 114 11.3418 114C11.0818 114 10.7918 114.01 10.4718 114.03C10.1618 114.06 9.9568 114.08 9.8568 114.09L9.9318 113.475C10.2218 113.425 10.4268 113.335 10.5468 113.205C10.6668 113.075 10.7268 112.87 10.7268 112.59V108.93C10.7268 108.59 10.6718 108.355 10.5618 108.225C10.4518 108.085 10.2618 108.015 9.9918 108.015H9.8268L9.7818 107.955L9.8268 107.46C10.2568 107.39 10.6818 107.31 11.1018 107.22C11.5318 107.12 11.8068 107.055 11.9268 107.025L12.0168 107.145C11.9968 107.205 11.9668 107.335 11.9268 107.535C11.8868 107.725 11.8618 107.925 11.8518 108.135L11.8818 108.18C13.0218 107.42 13.7568 107.04 14.0868 107.04C14.7168 107.04 15.2168 107.215 15.5868 107.565C15.9568 107.915 16.1418 108.385 16.1418 108.975C16.1418 109.075 16.1118 109.535 16.0518 110.355C15.9718 111.395 15.9318 112.12 15.9318 112.53C15.9318 112.82 15.9718 113.035 16.0518 113.175C16.1318 113.305 16.2668 113.37 16.4568 113.37C16.5668 113.37 16.6718 113.365 16.7718 113.355C16.8718 113.345 16.9418 113.34 16.9818 113.34L17.0118 113.4L16.8918 114.045C16.8018 114.035 16.6318 114.025 16.3818 114.015C16.1318 114.005 15.8568 114 15.5568 114C15.2968 114 14.9968 114.025 14.6568 114.075C14.3268 114.125 14.1118 114.16 14.0118 114.18L14.0718 113.565ZM23.8346 114.18C23.0546 114.18 22.6096 113.825 22.4996 113.115L22.3946 113.07C21.3546 113.78 20.7296 114.135 20.5196 114.135C19.9496 114.135 19.4446 114.005 19.0046 113.745C18.5646 113.475 18.2246 113.1 17.9846 112.62C17.7446 112.14 17.6246 111.59 17.6246 110.97C17.6246 110.26 17.7896 109.605 18.1196 109.005C18.4596 108.405 18.9146 107.93 19.4846 107.58C20.0646 107.22 20.6896 107.04 21.3596 107.04C21.6796 107.04 22.0246 107.06 22.3946 107.1V104.61C22.3946 104.07 22.2096 103.8 21.8396 103.8C21.7696 103.8 21.6946 103.81 21.6146 103.83C21.5346 103.84 21.4846 103.85 21.4646 103.86L21.5246 103.305C21.9546 103.245 22.3996 103.165 22.8596 103.065C23.3196 102.965 23.6146 102.9 23.7446 102.87L23.8346 103.065C23.7246 103.235 23.6246 104.29 23.5346 106.23C23.4546 108.17 23.4146 110.235 23.4146 112.425C23.4146 112.645 23.4696 112.815 23.5796 112.935C23.6896 113.055 23.8396 113.115 24.0296 113.115C24.1696 113.115 24.3046 113.09 24.4346 113.04C24.5746 112.98 24.6846 112.92 24.7646 112.86C24.8546 112.8 24.9096 112.76 24.9296 112.74L25.1396 112.98C25.1096 113.03 25.0346 113.14 24.9146 113.31C24.7946 113.47 24.6346 113.64 24.4346 113.82C24.2446 114 24.0446 114.12 23.8346 114.18ZM20.7596 113.16C20.9696 113.16 21.1946 113.1 21.4346 112.98C21.6846 112.86 21.8946 112.74 22.0646 112.62C22.2346 112.49 22.3446 112.405 22.3946 112.365V108.255C22.3646 108.235 22.2896 108.2 22.1696 108.15C22.0496 108.09 21.8796 108.035 21.6596 107.985C21.4496 107.935 21.2096 107.91 20.9396 107.91C20.2696 107.91 19.7396 108.14 19.3496 108.6C18.9696 109.05 18.7796 109.67 18.7796 110.46C18.7796 110.96 18.8646 111.415 19.0346 111.825C19.2146 112.235 19.4546 112.56 19.7546 112.8C20.0646 113.04 20.3996 113.16 20.7596 113.16ZM28.2798 113.475C28.8498 113.395 29.1348 113.1 29.1348 112.59V108.54C29.1248 108.3 29.0548 108.145 28.9248 108.075C28.8048 107.995 28.5598 107.945 28.1898 107.925L28.1298 107.835L28.2348 107.325L29.1348 107.16V107.1C29.1348 106.24 29.2748 105.49 29.5548 104.85C29.8448 104.21 30.2448 103.72 30.7548 103.38C31.2748 103.04 31.8848 102.87 32.5848 102.87C32.8848 102.87 33.1598 102.89 33.4098 102.93C33.6698 102.97 33.8698 103.015 34.0098 103.065C34.1598 103.105 34.2548 103.135 34.2948 103.155L34.3248 103.29C34.2948 103.34 34.2298 103.46 34.1298 103.65C34.0398 103.83 33.9498 104.035 33.8598 104.265L33.6948 104.31C33.6548 104.28 33.5548 104.22 33.3948 104.13C33.2448 104.04 33.0398 103.955 32.7798 103.875C32.5298 103.795 32.2598 103.755 31.9698 103.755C31.3998 103.755 30.9748 103.985 30.6948 104.445C30.4148 104.895 30.2648 105.59 30.2448 106.53L30.2298 107.265C30.7498 107.265 31.1948 107.26 31.5648 107.25C31.9348 107.24 32.1798 107.23 32.2998 107.22L32.3448 107.265L32.1948 108.06C32.0848 108.05 31.8498 108.04 31.4898 108.03C31.1398 108.02 30.7148 108.015 30.2148 108.015L30.1548 112.53C30.1548 112.81 30.2148 113.02 30.3348 113.16C30.4648 113.29 30.6598 113.355 30.9198 113.355C31.1598 113.355 31.3548 113.35 31.5048 113.34C31.6648 113.33 31.7698 113.325 31.8198 113.325L31.8498 113.385L31.7448 114.03C31.6048 114.03 31.3498 114.025 30.9798 114.015C30.6098 114.005 30.2448 114 29.8848 114C29.5348 114 29.1898 114.005 28.8498 114.015C28.5198 114.035 28.3048 114.05 28.2048 114.06L28.2798 113.475ZM35.3523 114.18C34.7823 114.18 34.2773 114.04 33.8373 113.76C33.3973 113.48 33.0523 113.09 32.8023 112.59C32.5623 112.08 32.4423 111.5 32.4423 110.85C32.4423 110.15 32.5923 109.51 32.8923 108.93C33.2023 108.34 33.6223 107.88 34.1523 107.55C34.6823 107.21 35.2723 107.04 35.9223 107.04C36.4823 107.04 36.9823 107.18 37.4223 107.46C37.8723 107.74 38.2173 108.135 38.4573 108.645C38.7073 109.145 38.8323 109.72 38.8323 110.37C38.8323 111.07 38.6773 111.715 38.3673 112.305C38.0673 112.885 37.6523 113.345 37.1223 113.685C36.5923 114.015 36.0023 114.18 35.3523 114.18ZM35.7723 113.445C36.3323 113.445 36.7773 113.22 37.1073 112.77C37.4373 112.31 37.6023 111.69 37.6023 110.91C37.6023 110.32 37.5123 109.795 37.3323 109.335C37.1523 108.865 36.8973 108.5 36.5673 108.24C36.2473 107.98 35.8823 107.85 35.4723 107.85C34.9123 107.85 34.4673 108.08 34.1373 108.54C33.8073 109 33.6423 109.625 33.6423 110.415C33.6423 111.005 33.7323 111.53 33.9123 111.99C34.0923 112.45 34.3423 112.81 34.6623 113.07C34.9823 113.32 35.3523 113.445 35.7723 113.445ZM40.423 108.795C40.423 108.255 40.238 107.985 39.868 107.985C39.798 107.985 39.723 107.995 39.643 108.015C39.563 108.025 39.513 108.035 39.493 108.045L39.553 107.49C39.943 107.43 40.363 107.35 40.813 107.25C41.263 107.14 41.558 107.07 41.698 107.04L41.788 107.22C41.688 107.48 41.598 108.07 41.518 108.99C41.438 109.91 41.398 110.805 41.398 111.675C41.398 112.655 41.798 113.145 42.598 113.145C42.898 113.145 43.178 113.075 43.438 112.935C43.698 112.785 44.023 112.57 44.413 112.29V108.81C44.413 108.51 44.358 108.3 44.248 108.18C44.138 108.06 43.943 108 43.663 108L43.303 108.015L43.363 107.475C43.803 107.415 44.263 107.335 44.743 107.235C45.223 107.135 45.533 107.07 45.673 107.04L45.763 107.22C45.673 107.45 45.593 108.075 45.523 109.095C45.463 110.115 45.433 111.225 45.433 112.425C45.433 112.645 45.488 112.815 45.598 112.935C45.708 113.055 45.858 113.115 46.048 113.115C46.188 113.115 46.323 113.09 46.453 113.04C46.593 112.98 46.703 112.92 46.783 112.86C46.873 112.8 46.928 112.76 46.948 112.74L47.158 112.98C47.118 113.04 47.023 113.165 46.873 113.355C46.733 113.545 46.563 113.73 46.363 113.91C46.173 114.09 46.003 114.18 45.853 114.18C45.043 114.18 44.598 113.775 44.518 112.965L44.443 112.935C43.963 113.305 43.528 113.605 43.138 113.835C42.758 114.065 42.498 114.18 42.358 114.18C41.718 114.18 41.223 114.03 40.873 113.73C40.533 113.43 40.363 113 40.363 112.44L40.423 108.795ZM47.7733 113.46C48.0733 113.43 48.2733 113.335 48.3733 113.175C48.4733 113.005 48.5233 112.685 48.5233 112.215V108.915C48.5233 108.585 48.4783 108.35 48.3883 108.21C48.2983 108.07 48.1533 108 47.9533 108C47.8733 108 47.8033 108.005 47.7433 108.015C47.6933 108.025 47.6583 108.035 47.6383 108.045L47.5633 107.94L47.6083 107.475C47.9883 107.405 48.3883 107.32 48.8083 107.22C49.2383 107.12 49.5133 107.055 49.6333 107.025L49.7383 107.115C49.7183 107.205 49.6883 107.415 49.6483 107.745C49.6083 108.065 49.5933 108.37 49.6033 108.66L49.6633 108.705C49.9633 108.235 50.3133 107.85 50.7133 107.55C51.1233 107.25 51.4783 107.1 51.7783 107.1C51.9183 107.1 52.0233 107.11 52.0933 107.13C52.1733 107.14 52.2233 107.15 52.2433 107.16L52.2883 107.22C52.2683 107.36 52.2233 107.66 52.1533 108.12C52.0933 108.57 52.0583 108.985 52.0483 109.365L51.4633 109.41C51.4633 109 51.4333 108.73 51.3733 108.6C51.3233 108.46 51.2183 108.39 51.0583 108.39C50.8383 108.39 50.6033 108.485 50.3533 108.675C50.1033 108.855 49.8733 109.1 49.6633 109.41C49.6533 109.7 49.6333 110.18 49.6033 110.85C49.5733 111.52 49.5533 112.06 49.5433 112.47C49.5433 112.81 49.5933 113.04 49.6933 113.16C49.7933 113.28 49.9833 113.34 50.2633 113.34C50.3933 113.34 50.5233 113.335 50.6533 113.325C50.7833 113.315 50.8733 113.31 50.9233 113.31L50.9383 113.37L50.8033 114.03C50.7033 114.03 50.5033 114.025 50.2033 114.015C49.9033 114.005 49.5933 114 49.2733 114C48.9033 114 48.5683 114.005 48.2683 114.015C47.9683 114.035 47.7783 114.05 47.6983 114.06L47.7733 113.46ZM55.7691 113.475C56.3391 113.395 56.6241 113.1 56.6241 112.59V108.54C56.6141 108.3 56.5441 108.145 56.4141 108.075C56.2941 107.995 56.0491 107.945 55.6791 107.925L55.6191 107.835L55.7241 107.325L56.6241 107.16V107.1C56.6241 106.24 56.7641 105.49 57.0441 104.85C57.3341 104.21 57.7341 103.72 58.2441 103.38C58.7641 103.04 59.3741 102.87 60.0741 102.87C60.3741 102.87 60.6491 102.89 60.8991 102.93C61.1591 102.97 61.3591 103.015 61.4991 103.065C61.6491 103.105 61.7441 103.135 61.7841 103.155L61.8141 103.29C61.7841 103.34 61.7191 103.46 61.6191 103.65C61.5291 103.83 61.4391 104.035 61.3491 104.265L61.1841 104.31C61.1441 104.28 61.0441 104.22 60.8841 104.13C60.7341 104.04 60.5291 103.955 60.2691 103.875C60.0191 103.795 59.7491 103.755 59.4591 103.755C58.8891 103.755 58.4641 103.985 58.1841 104.445C57.9041 104.895 57.7541 105.59 57.7341 106.53L57.7191 107.265C58.2391 107.265 58.6841 107.26 59.0541 107.25C59.4241 107.24 59.6691 107.23 59.7891 107.22L59.8341 107.265L59.6841 108.06C59.5741 108.05 59.3391 108.04 58.9791 108.03C58.6291 108.02 58.2041 108.015 57.7041 108.015L57.6441 112.53C57.6441 112.81 57.7041 113.02 57.8241 113.16C57.9541 113.29 58.1491 113.355 58.4091 113.355C58.6491 113.355 58.8441 113.35 58.9941 113.34C59.1541 113.33 59.2591 113.325 59.3091 113.325L59.3391 113.385L59.2341 114.03C59.0941 114.03 58.8391 114.025 58.4691 114.015C58.0991 114.005 57.7341 114 57.3741 114C57.0241 114 56.6791 114.005 56.3391 114.015C56.0091 114.035 55.7941 114.05 55.6941 114.06L55.7691 113.475ZM62.8416 114.18C62.2716 114.18 61.7666 114.04 61.3266 113.76C60.8866 113.48 60.5416 113.09 60.2916 112.59C60.0516 112.08 59.9316 111.5 59.9316 110.85C59.9316 110.15 60.0816 109.51 60.3816 108.93C60.6916 108.34 61.1116 107.88 61.6416 107.55C62.1716 107.21 62.7616 107.04 63.4116 107.04C63.9716 107.04 64.4716 107.18 64.9116 107.46C65.3616 107.74 65.7066 108.135 65.9466 108.645C66.1966 109.145 66.3216 109.72 66.3216 110.37C66.3216 111.07 66.1666 111.715 65.8566 112.305C65.5566 112.885 65.1416 113.345 64.6116 113.685C64.0816 114.015 63.4916 114.18 62.8416 114.18ZM63.2616 113.445C63.8216 113.445 64.2666 113.22 64.5966 112.77C64.9266 112.31 65.0916 111.69 65.0916 110.91C65.0916 110.32 65.0016 109.795 64.8216 109.335C64.6416 108.865 64.3866 108.5 64.0566 108.24C63.7366 107.98 63.3716 107.85 62.9616 107.85C62.4016 107.85 61.9566 108.08 61.6266 108.54C61.2966 109 61.1316 109.625 61.1316 110.415C61.1316 111.005 61.2216 111.53 61.4016 111.99C61.5816 112.45 61.8316 112.81 62.1516 113.07C62.4716 113.32 62.8416 113.445 63.2616 113.445ZM67.4473 113.46C67.7473 113.43 67.9473 113.335 68.0473 113.175C68.1473 113.005 68.1973 112.685 68.1973 112.215V108.915C68.1973 108.585 68.1523 108.35 68.0623 108.21C67.9723 108.07 67.8273 108 67.6273 108C67.5473 108 67.4773 108.005 67.4173 108.015C67.3673 108.025 67.3323 108.035 67.3123 108.045L67.2373 107.94L67.2823 107.475C67.6623 107.405 68.0623 107.32 68.4823 107.22C68.9123 107.12 69.1873 107.055 69.3073 107.025L69.4123 107.115C69.3923 107.205 69.3623 107.415 69.3223 107.745C69.2823 108.065 69.2673 108.37 69.2773 108.66L69.3373 108.705C69.6373 108.235 69.9873 107.85 70.3873 107.55C70.7973 107.25 71.1523 107.1 71.4523 107.1C71.5923 107.1 71.6973 107.11 71.7673 107.13C71.8473 107.14 71.8973 107.15 71.9173 107.16L71.9623 107.22C71.9423 107.36 71.8973 107.66 71.8273 108.12C71.7673 108.57 71.7323 108.985 71.7223 109.365L71.1373 109.41C71.1373 109 71.1073 108.73 71.0473 108.6C70.9973 108.46 70.8923 108.39 70.7323 108.39C70.5123 108.39 70.2773 108.485 70.0273 108.675C69.7773 108.855 69.5473 109.1 69.3373 109.41C69.3273 109.7 69.3073 110.18 69.2773 110.85C69.2473 111.52 69.2273 112.06 69.2173 112.47C69.2173 112.81 69.2673 113.04 69.3673 113.16C69.4673 113.28 69.6573 113.34 69.9373 113.34C70.0673 113.34 70.1973 113.335 70.3273 113.325C70.4573 113.315 70.5473 113.31 70.5973 113.31L70.6123 113.37L70.4773 114.03C70.3773 114.03 70.1773 114.025 69.8773 114.015C69.5773 114.005 69.2673 114 68.9473 114C68.5773 114 68.2423 114.005 67.9423 114.015C67.6423 114.035 67.4523 114.05 67.3723 114.06L67.4473 113.46ZM81.4281 114.18C80.6481 114.18 80.2031 113.825 80.0931 113.115L79.9881 113.07C78.9481 113.78 78.3231 114.135 78.1131 114.135C77.5431 114.135 77.0381 114.005 76.5981 113.745C76.1581 113.475 75.8181 113.1 75.5781 112.62C75.3381 112.14 75.2181 111.59 75.2181 110.97C75.2181 110.26 75.3831 109.605 75.7131 109.005C76.0531 108.405 76.5081 107.93 77.0781 107.58C77.6581 107.22 78.2831 107.04 78.9531 107.04C79.2731 107.04 79.6181 107.06 79.9881 107.1V104.61C79.9881 104.07 79.8031 103.8 79.4331 103.8C79.3631 103.8 79.2881 103.81 79.2081 103.83C79.1281 103.84 79.0781 103.85 79.0581 103.86L79.1181 103.305C79.5481 103.245 79.9931 103.165 80.4531 103.065C80.9131 102.965 81.2081 102.9 81.3381 102.87L81.4281 103.065C81.3181 103.235 81.2181 104.29 81.1281 106.23C81.0481 108.17 81.0081 110.235 81.0081 112.425C81.0081 112.645 81.0631 112.815 81.1731 112.935C81.2831 113.055 81.4331 113.115 81.6231 113.115C81.7631 113.115 81.8981 113.09 82.0281 113.04C82.1681 112.98 82.2781 112.92 82.3581 112.86C82.4481 112.8 82.5031 112.76 82.5231 112.74L82.7331 112.98C82.7031 113.03 82.6281 113.14 82.5081 113.31C82.3881 113.47 82.2281 113.64 82.0281 113.82C81.8381 114 81.6381 114.12 81.4281 114.18ZM78.3531 113.16C78.5631 113.16 78.7881 113.1 79.0281 112.98C79.2781 112.86 79.4881 112.74 79.6581 112.62C79.8281 112.49 79.9381 112.405 79.9881 112.365V108.255C79.9581 108.235 79.8831 108.2 79.7631 108.15C79.6431 108.09 79.4731 108.035 79.2531 107.985C79.0431 107.935 78.8031 107.91 78.5331 107.91C77.8631 107.91 77.3331 108.14 76.9431 108.6C76.5631 109.05 76.3731 109.67 76.3731 110.46C76.3731 110.96 76.4581 111.415 76.6281 111.825C76.8081 112.235 77.0481 112.56 77.3481 112.8C77.6581 113.04 77.9931 113.16 78.3531 113.16ZM86.1248 114.18C85.5048 114.18 84.9548 114.045 84.4748 113.775C83.9948 113.495 83.6248 113.105 83.3648 112.605C83.1048 112.095 82.9748 111.515 82.9748 110.865C82.9748 110.195 83.1248 109.565 83.4248 108.975C83.7348 108.385 84.1448 107.915 84.6548 107.565C85.1648 107.215 85.7098 107.04 86.2898 107.04C87.0198 107.04 87.5748 107.225 87.9548 107.595C88.3348 107.965 88.5248 108.505 88.5248 109.215C88.5248 109.505 88.4948 109.75 88.4348 109.95L88.2398 110.13H84.0998C84.0898 111.1 84.2798 111.85 84.6698 112.38C85.0698 112.9 85.6248 113.16 86.3348 113.16C86.8948 113.16 87.5048 113.005 88.1648 112.695L88.2548 112.725L88.4198 113.16C88.0598 113.42 87.6598 113.655 87.2198 113.865C86.7898 114.075 86.4248 114.18 86.1248 114.18ZM86.8748 109.44C87.0248 109.42 87.1248 109.385 87.1748 109.335C87.2248 109.285 87.2498 109.185 87.2498 109.035C87.2498 108.635 87.1398 108.33 86.9198 108.12C86.7098 107.91 86.4048 107.805 86.0048 107.805C85.5348 107.805 85.1298 107.965 84.7898 108.285C84.4598 108.605 84.2498 109.035 84.1598 109.575L86.8748 109.44ZM94.4384 114.18C93.6284 114.18 93.1834 113.775 93.1034 112.965L93.0434 112.95C92.6834 113.31 92.3534 113.595 92.0534 113.805C91.7634 114.015 91.5434 114.12 91.3934 114.12C90.8334 114.12 90.3734 113.945 90.0134 113.595C89.6534 113.245 89.4734 112.8 89.4734 112.26C89.4734 111.97 89.5434 111.715 89.6834 111.495C89.8334 111.275 90.0284 111.13 90.2684 111.06L93.1184 110.28L93.1334 109.62C93.1334 109.12 93.0184 108.73 92.7884 108.45C92.5584 108.17 92.2334 108.03 91.8134 108.03C91.5334 108.03 91.2384 108.095 90.9284 108.225C90.6184 108.355 90.3134 108.54 90.0134 108.78L89.9384 108.735L89.7584 108.09C90.2284 107.82 90.6984 107.58 91.1684 107.37C91.6484 107.15 91.9934 107.04 92.2034 107.04C92.8534 107.04 93.3634 107.21 93.7334 107.55C94.1034 107.89 94.2884 108.365 94.2884 108.975C94.2884 109.195 94.2534 109.645 94.1834 110.325C94.0734 111.425 94.0184 112.125 94.0184 112.425C94.0184 112.645 94.0734 112.815 94.1834 112.935C94.2934 113.055 94.4434 113.115 94.6334 113.115C94.7934 113.115 94.9584 113.08 95.1284 113.01C95.2984 112.93 95.4334 112.84 95.5334 112.74L95.7434 112.98C95.5934 113.23 95.3984 113.475 95.1584 113.715C94.9284 113.945 94.6884 114.1 94.4384 114.18ZM91.6484 113.1C91.8384 113.1 92.0584 113.035 92.3084 112.905C92.5684 112.765 92.8034 112.59 93.0134 112.38L93.0884 110.85L91.0484 111.465C90.7584 111.555 90.6134 111.765 90.6134 112.095C90.6134 112.385 90.7084 112.625 90.8984 112.815C91.0984 113.005 91.3484 113.1 91.6484 113.1ZM98.6357 114.18C97.9557 114.18 97.4757 114.045 97.1957 113.775C96.9157 113.495 96.7757 113.025 96.7757 112.365V108.675C96.7757 108.405 96.7157 108.215 96.5957 108.105C96.4757 107.995 96.2507 107.935 95.9207 107.925L95.8607 107.835L95.9357 107.385C96.2257 107.245 96.5057 107.075 96.7757 106.875C97.0557 106.665 97.2807 106.485 97.4507 106.335C97.6307 106.175 97.7457 106.07 97.7957 106.02L98.0957 106.14C98.0857 106.19 98.0707 106.31 98.0507 106.5C98.0307 106.69 98.0057 106.945 97.9757 107.265L100.181 107.22L100.226 107.265L100.091 108.06L97.9157 108.015C97.8457 109.115 97.8107 110.365 97.8107 111.765C97.8107 112.275 97.8957 112.635 98.0657 112.845C98.2457 113.055 98.5507 113.16 98.9807 113.16C99.1307 113.16 99.2807 113.14 99.4307 113.1C99.5807 113.06 99.7057 113.02 99.8057 112.98C99.9057 112.93 99.9707 112.9 100.001 112.89L100.151 113.28C100.091 113.33 99.9607 113.425 99.7607 113.565C99.5707 113.705 99.3607 113.845 99.1307 113.985C98.9107 114.115 98.7457 114.18 98.6357 114.18ZM100.722 113.415C101.012 113.385 101.212 113.31 101.322 113.19C101.442 113.07 101.502 112.87 101.502 112.59V104.61C101.502 104.34 101.457 104.145 101.367 104.025C101.277 103.895 101.137 103.83 100.947 103.83H100.632L100.572 103.785L100.632 103.305C100.972 103.265 101.357 103.205 101.787 103.125C102.217 103.035 102.572 102.95 102.852 102.87L102.942 103.065C102.872 103.175 102.802 103.71 102.732 104.67C102.672 105.63 102.622 106.81 102.582 108.21C103.722 107.43 104.472 107.04 104.832 107.04C105.482 107.04 105.987 107.21 106.347 107.55C106.707 107.89 106.887 108.365 106.887 108.975C106.887 109.175 106.852 109.635 106.782 110.355C106.692 111.525 106.647 112.25 106.647 112.53C106.647 112.82 106.687 113.035 106.767 113.175C106.847 113.305 106.982 113.37 107.172 113.37L107.697 113.34L107.727 113.4L107.607 114.045C106.947 114.015 106.502 114 106.272 114C105.872 114 105.357 114.06 104.727 114.18L104.787 113.565C105.087 113.485 105.302 113.37 105.432 113.22C105.562 113.06 105.627 112.85 105.627 112.59L105.717 109.62C105.717 109.12 105.607 108.735 105.387 108.465C105.177 108.195 104.872 108.06 104.472 108.06C104.222 108.06 103.912 108.14 103.542 108.3C103.182 108.46 102.857 108.655 102.567 108.885C102.537 110.005 102.522 111.22 102.522 112.53C102.522 112.84 102.562 113.06 102.642 113.19C102.722 113.31 102.862 113.37 103.062 113.37L103.587 113.34L103.617 113.4L103.482 114.045C102.792 114.015 102.337 114 102.117 114C101.687 114 101.192 114.01 100.632 114.03L100.722 113.415Z" fill="#2A2921"/>
</svg>
