<svg width="169" height="136" viewBox="0 0 169 136" fill="none" xmlns="http://www.w3.org/2000/svg">
<path d="M14.4629 29H10.6152L4.4043 18.1992H4.31641C4.4401 20.1068 4.50195 21.4674 4.50195 22.2812V29H1.79688V14.7227H5.61523L11.8164 25.416H11.8848C11.7871 23.5605 11.7383 22.2487 11.7383 21.4805V14.7227H14.4629V29ZM25.1664 29L24.766 27.6035H24.6098C24.2908 28.1113 23.8383 28.5052 23.2523 28.7852C22.6664 29.0586 21.9991 29.1953 21.2504 29.1953C19.9678 29.1953 19.001 28.8535 18.35 28.1699C17.699 27.4798 17.3734 26.4902 17.3734 25.2012V18.082H20.352V24.459C20.352 25.2467 20.4919 25.8392 20.7719 26.2363C21.0518 26.627 21.4978 26.8223 22.1098 26.8223C22.9431 26.8223 23.5453 26.5456 23.9164 25.9922C24.2875 25.4323 24.473 24.5078 24.473 23.2188V18.082H27.4516V29H25.1664ZM36.2703 17.877C36.674 17.877 37.0092 17.9062 37.2762 17.9648L37.0516 20.7578C36.8107 20.6927 36.5177 20.6602 36.1727 20.6602C35.2221 20.6602 34.4799 20.9043 33.9461 21.3926C33.4188 21.8809 33.1551 22.5645 33.1551 23.4434V29H30.1766V18.082H32.4324L32.8719 19.918H33.0184C33.3569 19.306 33.8126 18.8145 34.3855 18.4434C34.965 18.0658 35.5932 17.877 36.2703 17.877ZM46.4758 25.7578C46.4758 26.8776 46.0852 27.7305 45.3039 28.3164C44.5292 28.9023 43.3671 29.1953 41.8176 29.1953C41.0233 29.1953 40.3462 29.14 39.7863 29.0293C39.2264 28.9251 38.7023 28.7689 38.2141 28.5605V26.0996C38.7674 26.36 39.3892 26.5781 40.0793 26.7539C40.7759 26.9297 41.3879 27.0176 41.9152 27.0176C42.996 27.0176 43.5363 26.7051 43.5363 26.0801C43.5363 25.8457 43.4647 25.6569 43.3215 25.5137C43.1783 25.3639 42.9309 25.1979 42.5793 25.0156C42.2277 24.8268 41.759 24.6087 41.173 24.3613C40.3332 24.0098 39.7147 23.6842 39.3176 23.3848C38.927 23.0853 38.6405 22.7435 38.4582 22.3594C38.2824 21.9688 38.1945 21.4902 38.1945 20.9238C38.1945 19.9538 38.5689 19.2051 39.3176 18.6777C40.0728 18.1439 41.1405 17.877 42.5207 17.877C43.8358 17.877 45.1151 18.1634 46.3586 18.7363L45.4602 20.8848C44.9133 20.6504 44.4022 20.4583 43.927 20.3086C43.4517 20.1589 42.9667 20.084 42.4719 20.084C41.593 20.084 41.1535 20.3216 41.1535 20.7969C41.1535 21.0638 41.2935 21.2949 41.5734 21.4902C41.8599 21.6855 42.4816 21.9753 43.4387 22.3594C44.2915 22.7044 44.9165 23.0267 45.3137 23.3262C45.7108 23.6257 46.0038 23.9707 46.1926 24.3613C46.3814 24.752 46.4758 25.2174 46.4758 25.7578ZM52.9215 19.9961C52.29 19.9961 51.7952 20.1979 51.4371 20.6016C51.079 20.9987 50.874 21.5651 50.8219 22.3008H55.0016C54.9885 21.5651 54.7965 20.9987 54.4254 20.6016C54.0543 20.1979 53.553 19.9961 52.9215 19.9961ZM53.3414 29.1953C51.5836 29.1953 50.2099 28.7103 49.2203 27.7402C48.2307 26.7702 47.7359 25.3965 47.7359 23.6191C47.7359 21.7897 48.1917 20.377 49.1031 19.3809C50.0211 18.3783 51.2874 17.877 52.902 17.877C54.4449 17.877 55.6461 18.3164 56.5055 19.1953C57.3648 20.0742 57.7945 21.2884 57.7945 22.8379V24.2832H50.7535C50.7861 25.1296 51.0367 25.7904 51.5055 26.2656C51.9742 26.7409 52.6318 26.9785 53.4781 26.9785C54.1357 26.9785 54.7574 26.9102 55.3434 26.7734C55.9293 26.6367 56.5413 26.4186 57.1793 26.1191V28.4238C56.6585 28.6842 56.1018 28.8763 55.5094 29C54.9169 29.1302 54.1943 29.1953 53.3414 29.1953ZM65.9102 17.877C66.3138 17.877 66.6491 17.9062 66.916 17.9648L66.6914 20.7578C66.4505 20.6927 66.1576 20.6602 65.8125 20.6602C64.862 20.6602 64.1198 20.9043 63.5859 21.3926C63.0586 21.8809 62.7949 22.5645 62.7949 23.4434V29H59.8164V18.082H62.0723L62.5117 19.918H62.6582C62.9967 19.306 63.4525 18.8145 64.0254 18.4434C64.6048 18.0658 65.2331 17.877 65.9102 17.877ZM66.9359 18.082H70.1977L72.2582 24.2246C72.434 24.7585 72.5544 25.39 72.6195 26.1191H72.6781C72.7497 25.4486 72.8897 24.8171 73.098 24.2246L75.1195 18.082H78.3129L73.6937 30.3965C73.2706 31.5358 72.6651 32.3887 71.8773 32.9551C71.0961 33.5215 70.1814 33.8047 69.1332 33.8047C68.6189 33.8047 68.1143 33.7493 67.6195 33.6387V31.2754C67.9776 31.36 68.3682 31.4023 68.7914 31.4023C69.3187 31.4023 69.7777 31.2396 70.1684 30.9141C70.5655 30.5951 70.8747 30.11 71.0961 29.459L71.2719 28.9219L66.9359 18.082ZM87.5422 21.0605H88.5188C89.4758 21.0605 90.1822 20.901 90.6379 20.582C91.0936 20.263 91.3215 19.7617 91.3215 19.0781C91.3215 18.401 91.0871 17.9193 90.6184 17.6328C90.1561 17.3464 89.4367 17.2031 88.4602 17.2031H87.5422V21.0605ZM87.5422 23.5215V29H84.5148V14.7227H88.675C90.6151 14.7227 92.0507 15.0775 92.9816 15.7871C93.9126 16.4902 94.3781 17.5612 94.3781 19C94.3781 19.8398 94.147 20.5885 93.6848 21.2461C93.2225 21.8971 92.5682 22.4082 91.7219 22.7793C93.8703 25.9889 95.2701 28.0625 95.9211 29H92.5617L89.1535 23.5215H87.5422ZM107.162 29H104.183V22.623C104.183 21.0475 103.597 20.2598 102.425 20.2598C101.592 20.2598 100.99 20.543 100.619 21.1094C100.248 21.6758 100.062 22.5938 100.062 23.8633V29H97.0836V13.8047H100.062V16.9004C100.062 17.1413 100.039 17.7077 99.9938 18.5996L99.9254 19.4785H100.082C100.746 18.4108 101.8 17.877 103.246 17.877C104.528 17.877 105.502 18.222 106.166 18.9121C106.83 19.6022 107.162 20.5918 107.162 21.8809V29ZM108.266 18.082H111.527L113.588 24.2246C113.764 24.7585 113.884 25.39 113.949 26.1191H114.008C114.079 25.4486 114.219 24.8171 114.428 24.2246L116.449 18.082H119.643L115.023 30.3965C114.6 31.5358 113.995 32.3887 113.207 32.9551C112.426 33.5215 111.511 33.8047 110.463 33.8047C109.949 33.8047 109.444 33.7493 108.949 33.6387V31.2754C109.307 31.36 109.698 31.4023 110.121 31.4023C110.648 31.4023 111.107 31.2396 111.498 30.9141C111.895 30.5951 112.204 30.11 112.426 29.459L112.602 28.9219L108.266 18.082ZM130.59 29H127.612V22.623C127.612 21.8353 127.478 21.2461 127.211 20.8555C126.951 20.4583 126.537 20.2598 125.971 20.2598C125.209 20.2598 124.656 20.5397 124.311 21.0996C123.966 21.6595 123.793 22.5807 123.793 23.8633V29H120.815V18.082H123.09L123.491 19.4785H123.657C123.95 18.9772 124.373 18.5866 124.926 18.3066C125.48 18.0202 126.114 17.877 126.83 17.877C128.465 17.877 129.571 18.4108 130.151 19.4785H130.414C130.707 18.9707 131.137 18.5768 131.704 18.2969C132.276 18.0169 132.921 17.877 133.637 17.877C134.874 17.877 135.808 18.196 136.44 18.834C137.078 19.4655 137.397 20.4811 137.397 21.8809V29H134.409V22.623C134.409 21.8353 134.275 21.2461 134.008 20.8555C133.748 20.4583 133.334 20.2598 132.768 20.2598C132.039 20.2598 131.492 20.5202 131.127 21.041C130.769 21.5618 130.59 22.3887 130.59 23.5215V29ZM144.585 19.9961C143.953 19.9961 143.458 20.1979 143.1 20.6016C142.742 20.9987 142.537 21.5651 142.485 22.3008H146.665C146.652 21.5651 146.46 20.9987 146.089 20.6016C145.718 20.1979 145.216 19.9961 144.585 19.9961ZM145.005 29.1953C143.247 29.1953 141.873 28.7103 140.884 27.7402C139.894 26.7702 139.399 25.3965 139.399 23.6191C139.399 21.7897 139.855 20.377 140.766 19.3809C141.684 18.3783 142.951 17.877 144.565 17.877C146.108 17.877 147.309 18.3164 148.169 19.1953C149.028 20.0742 149.458 21.2884 149.458 22.8379V24.2832H142.417C142.449 25.1296 142.7 25.7904 143.169 26.2656C143.637 26.7409 144.295 26.9785 145.141 26.9785C145.799 26.9785 146.421 26.9102 147.007 26.7734C147.593 26.6367 148.205 26.4186 148.843 26.1191V28.4238C148.322 28.6842 147.765 28.8763 147.173 29C146.58 29.1302 145.858 29.1953 145.005 29.1953ZM159.097 25.7578C159.097 26.8776 158.706 27.7305 157.925 28.3164C157.15 28.9023 155.988 29.1953 154.439 29.1953C153.644 29.1953 152.967 29.14 152.407 29.0293C151.848 28.9251 151.323 28.7689 150.835 28.5605V26.0996C151.389 26.36 152.01 26.5781 152.7 26.7539C153.397 26.9297 154.009 27.0176 154.536 27.0176C155.617 27.0176 156.157 26.7051 156.157 26.0801C156.157 25.8457 156.086 25.6569 155.943 25.5137C155.799 25.3639 155.552 25.1979 155.2 25.0156C154.849 24.8268 154.38 24.6087 153.794 24.3613C152.954 24.0098 152.336 23.6842 151.939 23.3848C151.548 23.0853 151.262 22.7435 151.079 22.3594C150.904 21.9688 150.816 21.4902 150.816 20.9238C150.816 19.9538 151.19 19.2051 151.939 18.6777C152.694 18.1439 153.762 17.877 155.142 17.877C156.457 17.877 157.736 18.1634 158.98 18.7363L158.081 20.8848C157.534 20.6504 157.023 20.4583 156.548 20.3086C156.073 20.1589 155.588 20.084 155.093 20.084C154.214 20.084 153.775 20.3216 153.775 20.7969C153.775 21.0638 153.915 21.2949 154.195 21.4902C154.481 21.6855 155.103 21.9753 156.06 22.3594C156.913 22.7044 157.538 23.0267 157.935 23.3262C158.332 23.6257 158.625 23.9707 158.814 24.3613C159.002 24.752 159.097 25.2174 159.097 25.7578Z" fill="#2A2921"/>
<path d="M5.775 51.35C2.775 51.35 0.9 53.525 0.9 56.825C0.9 60.275 2.55 62.15 5.475 62.15C8.4 62.15 10.425 59.9 10.425 56.6C10.425 53.375 8.7 51.35 5.775 51.35ZM5.7 52.625C7.65 52.625 8.7 53.975 8.7 56.675C8.7 59.525 7.5 60.875 5.55 60.875C3.6 60.875 2.625 59.45 2.625 56.75C2.625 53.9 3.75 52.625 5.7 52.625ZM14.0982 54.05L11.6232 54.125V54.95L12.8982 55.25V60.8L11.6232 61.175V62H15.3732V61.175L14.3982 60.8V56.375C14.3982 56.375 15.2982 55.175 16.5732 55.175C17.5482 55.175 17.9232 55.7 17.9232 56.75V60.8L16.9482 61.175V62H20.5482V61.175L19.4232 60.8V56.6C19.4232 54.95 18.6732 53.9 17.0232 53.9C15.7782 53.9 14.5932 54.8 14.2332 55.115L14.0982 54.05ZM28.0488 58.22C28.0488 58.22 28.1238 57.8 28.1238 57.425C28.1238 55.175 27.1488 53.9 24.9738 53.9C22.7988 53.9 21.2988 55.7 21.2988 58.1C21.2988 60.575 22.4988 62.15 24.8988 62.15C26.6988 62.15 28.0938 60.905 28.0938 60.905L27.5688 60.125C27.5688 60.125 26.5488 60.95 25.0488 60.95C23.7588 60.95 22.8738 59.9 22.8738 58.25L28.0488 58.22ZM22.9338 57.125C23.0238 56 23.6988 55.07 24.8988 55.07C26.0988 55.07 26.5338 56 26.5338 57.125H22.9338ZM33.6814 54.125L32.3314 54.275V55.25H33.6814V60.8L32.4064 61.175V62H36.6814V61.175L35.1814 60.8V55.25H37.1164L37.1614 54.125H35.1814V52.925C35.1814 52.025 35.4814 51.425 36.5314 51.425C37.0564 51.425 37.4314 51.5 37.4314 51.5L37.6564 52.7H38.7064V50.825C38.7064 50.825 37.8814 50.3 36.4564 50.3C34.6564 50.3 33.6814 51.425 33.6814 53.225V54.125ZM42.007 53.9C39.757 53.9 38.182 55.55 38.182 58.1C38.182 60.8 39.532 62.15 41.782 62.15C44.032 62.15 45.532 60.425 45.532 57.875C45.532 55.475 44.257 53.9 42.007 53.9ZM41.932 55.1C43.432 55.1 43.957 56.3 43.957 57.95C43.957 59.9 43.357 60.95 41.857 60.95C40.357 60.95 39.757 59.825 39.757 58.025C39.757 56.075 40.432 55.1 41.932 55.1ZM48.9117 54.05L46.4367 54.125V54.95L47.7117 55.25V60.8L46.4367 61.175V62H50.7117V61.175L49.2117 60.8V56.345C49.5417 55.91 50.2617 55.175 51.3867 55.175L51.6117 56.3H52.5867L52.6617 54.125C52.6617 54.125 52.0617 53.9 51.3117 53.9C50.2917 53.9 49.4217 54.725 49.0467 55.145L48.9117 54.05ZM57.4064 59.6H56.3564V61.82C56.3564 61.82 57.3464 62.15 58.7264 62.15C60.5264 62.15 62.0264 61.31 62.0264 59.585C62.0264 57.02 57.8414 57.635 57.8414 56.03C57.8414 55.265 58.4114 55.025 59.1764 55.025C59.9264 55.025 60.3914 55.205 60.3914 55.205L60.6314 56.375H61.6064L61.6514 54.35C61.6514 54.35 60.2714 53.9 59.0864 53.9C57.5414 53.9 56.3414 54.68 56.3414 56.24C56.3414 58.97 60.5264 58.22 60.5264 59.84C60.5264 60.77 59.7314 61.025 58.8314 61.025C58.0214 61.025 57.5714 60.89 57.5714 60.89L57.4064 59.6ZM66.8227 53.9C64.5727 53.9 62.9977 55.55 62.9977 58.1C62.9977 60.8 64.3477 62.15 66.5977 62.15C68.8477 62.15 70.3477 60.425 70.3477 57.875C70.3477 55.475 69.0727 53.9 66.8227 53.9ZM66.7477 55.1C68.2477 55.1 68.7727 56.3 68.7727 57.95C68.7727 59.9 68.1727 60.95 66.6727 60.95C65.1727 60.95 64.5727 59.825 64.5727 58.025C64.5727 56.075 65.2477 55.1 66.7477 55.1ZM73.7273 54.05L71.2523 54.125V54.95L72.5273 55.25V60.8L71.2523 61.175V62H75.5273V61.175L74.0273 60.8V56.345C74.3573 55.91 75.0773 55.175 76.2023 55.175L76.4273 56.3H77.4023L77.4773 54.125C77.4773 54.125 76.8773 53.9 76.1273 53.9C75.1073 53.9 74.2373 54.725 73.8623 55.145L73.7273 54.05ZM80.4 54.05L77.925 54.125V54.95L79.2 55.25V60.8L77.925 61.175V62H82.2V61.175L80.7 60.8V56.345C81.03 55.91 81.75 55.175 82.875 55.175L83.1 56.3H84.075L84.15 54.125C84.15 54.125 83.55 53.9 82.8 53.9C81.78 53.9 80.91 54.725 80.535 55.145L80.4 54.05ZM88.4227 53.9C86.1727 53.9 84.5977 55.55 84.5977 58.1C84.5977 60.8 85.9477 62.15 88.1977 62.15C90.4477 62.15 91.9477 60.425 91.9477 57.875C91.9477 55.475 90.6727 53.9 88.4227 53.9ZM88.3477 55.1C89.8477 55.1 90.3727 56.3 90.3727 57.95C90.3727 59.9 89.7727 60.95 88.2727 60.95C86.7727 60.95 86.1727 59.825 86.1727 58.025C86.1727 56.075 86.8477 55.1 88.3477 55.1ZM94.5041 55.1L95.6291 54.95V54.05L92.2541 54.125V54.95L93.0041 55.175L94.8791 62H96.6041L98.0291 57.35L98.3441 55.91L98.7041 57.35L100.129 62H101.854L103.684 55.1L104.554 54.95V54.05L101.179 54.125V54.95L102.229 55.175L101.029 60.65L99.1691 53.9L97.7441 54.125L95.7791 60.65L94.5041 55.1ZM105.38 61.055C105.38 61.58 105.725 61.85 105.725 62.15C105.725 62.69 104.93 63.74 104.93 63.74L105.605 64.31C106.655 63.185 107.33 62 107.33 61.16C107.33 60.32 106.88 60.05 106.355 60.05C105.77 60.05 105.38 60.485 105.38 61.055ZM113.107 62H117.682V61.1L116.182 60.8V52.7H118.132L118.507 54.2H119.482V51.5H111.307V54.2H112.282L112.657 52.7H114.607V60.8L113.107 61.1V62ZM121.663 55.1L122.788 54.95V54.05L119.413 54.125V54.95L120.163 55.175L122.038 62H123.763L125.188 57.35L125.503 55.91L125.863 57.35L127.288 62H129.013L130.843 55.1L131.713 54.95V54.05L128.338 54.125V54.95L129.388 55.175L128.188 60.65L126.328 53.9L124.903 54.125L122.938 60.65L121.663 55.1ZM135.841 53.9C133.591 53.9 132.016 55.55 132.016 58.1C132.016 60.8 133.366 62.15 135.616 62.15C137.866 62.15 139.366 60.425 139.366 57.875C139.366 55.475 138.091 53.9 135.841 53.9ZM135.766 55.1C137.266 55.1 137.791 56.3 137.791 57.95C137.791 59.9 137.191 60.95 135.691 60.95C134.191 60.95 133.591 59.825 133.591 58.025C133.591 56.075 134.266 55.1 135.766 55.1ZM144.853 54.125L143.503 54.275V55.25H144.853V60.8L143.578 61.175V62H147.853V61.175L146.353 60.8V55.25H148.288L148.333 54.125H146.353V52.925C146.353 52.025 146.653 51.425 147.703 51.425C148.228 51.425 148.603 51.5 148.603 51.5L148.828 52.7H149.878V50.825C149.878 50.825 149.053 50.3 147.628 50.3C145.828 50.3 144.853 51.425 144.853 53.225V54.125ZM153.179 53.9C150.929 53.9 149.354 55.55 149.354 58.1C149.354 60.8 150.704 62.15 152.954 62.15C155.204 62.15 156.704 60.425 156.704 57.875C156.704 55.475 155.429 53.9 153.179 53.9ZM153.104 55.1C154.604 55.1 155.129 56.3 155.129 57.95C155.129 59.9 154.529 60.95 153.029 60.95C151.529 60.95 150.929 59.825 150.929 58.025C150.929 56.075 151.604 55.1 153.104 55.1ZM160.083 54.05L157.608 54.125V54.95L158.883 55.25V60.8L157.608 61.175V62H161.883V61.175L160.383 60.8V56.345C160.713 55.91 161.433 55.175 162.558 55.175L162.783 56.3H163.758L163.833 54.125C163.833 54.125 163.233 53.9 162.483 53.9C161.463 53.9 160.593 54.725 160.218 55.145L160.083 54.05ZM3.075 75.05L0.6 75.125V75.95L1.875 76.25V81.8L0.6 82.175V83H4.35V82.175L3.375 81.8V77.375C3.375 77.375 4.2 76.175 5.475 76.175C6.45 76.175 6.75 76.7 6.75 77.75V81.8L5.775 82.175V83H9.225V82.175L8.25 81.8V77.375C8.25 77.375 9.075 76.175 10.35 76.175C11.325 76.175 11.625 76.7 11.625 77.75V81.8L10.65 82.175V83H14.25V82.175L13.125 81.8V77.6C13.125 75.95 12.45 74.9 10.8 74.9C9.42 74.9 8.205 75.995 8.01 76.19C7.665 75.41 7.005 74.9 5.925 74.9C4.695 74.9 3.555 75.785 3.21 76.115L3.075 75.05ZM15.982 72.575C15.982 73.25 16.357 73.625 16.957 73.625C17.407 73.625 17.932 73.25 17.932 72.575C17.932 71.825 17.557 71.525 16.957 71.525C16.432 71.525 15.982 71.9 15.982 72.575ZM18.907 82.175L17.782 81.8V75.05L15.007 75.125V75.95L16.282 76.25V81.8L15.007 82.175V83H18.907V82.175ZM22.2064 75.05L19.7314 75.125V75.95L21.0064 76.25V81.8L19.7314 82.175V83H24.0064V82.175L22.5064 81.8V77.345C22.8364 76.91 23.5564 76.175 24.6814 76.175L24.9064 77.3H25.8814L25.9564 75.125C25.9564 75.125 25.3564 74.9 24.6064 74.9C23.5864 74.9 22.7164 75.725 22.3414 76.145L22.2064 75.05ZM31.2791 75.125H29.1041V72.935L27.6041 73.235V75.125L26.1041 75.275V76.25H27.6041V80.975C27.6041 82.655 28.4291 83.15 29.3291 83.15C30.0791 83.15 30.7541 82.895 31.4291 82.4L31.0241 81.605C30.6341 81.815 30.2141 81.98 29.8541 81.98C29.4341 81.98 29.1041 81.755 29.1041 81.065V76.25H31.2791V75.125ZM34.5721 71.45L31.7971 71.525V72.35L33.0721 72.65V81.8L31.7971 82.175V83H35.5471V82.175L34.5721 81.8V77.375C34.5721 77.375 35.5171 76.175 36.7921 76.175C37.7671 76.175 38.0971 76.7 38.0971 77.75V81.815L37.1221 82.175V83H40.7221V82.175L39.5971 81.8V77.6C39.5971 75.95 38.8471 74.9 37.1971 74.9C36.0871 74.9 35.0371 75.59 34.5721 75.98V71.45ZM41.9279 82.055C41.9279 82.58 42.2729 82.85 42.2729 83.15C42.2729 83.69 41.4779 84.74 41.4779 84.74L42.1529 85.31C43.2029 84.185 43.8779 83 43.8779 82.16C43.8779 81.32 43.4279 81.05 42.9029 81.05C42.3179 81.05 41.9279 81.485 41.9279 82.055ZM49.6547 83H54.2297V82.1L52.7297 81.8V73.7H54.6797L55.0547 75.2H56.0297V72.5H47.8547V75.2H48.8297L49.2047 73.7H51.1547V81.8L49.6547 82.1V83ZM59.0361 71.45L56.2611 71.525V72.35L57.5361 72.65V81.8L56.2611 82.175V83H60.0111V82.175L59.0361 81.8V77.375C59.0361 77.375 59.9811 76.175 61.2561 76.175C62.2311 76.175 62.5611 76.7 62.5611 77.75V81.815L61.5861 82.175V83H65.1861V82.175L64.0611 81.8V77.6C64.0611 75.95 63.3111 74.9 61.6611 74.9C60.5511 74.9 59.5011 75.59 59.0361 75.98V71.45ZM68.417 75.05L65.942 75.125V75.95L67.217 76.25V81.8L65.942 82.175V83H70.217V82.175L68.717 81.8V77.345C69.047 76.91 69.767 76.175 70.892 76.175L71.117 77.3H72.092L72.167 75.125C72.167 75.125 71.567 74.9 70.817 74.9C69.797 74.9 68.927 75.725 68.552 76.145L68.417 75.05ZM79.3646 79.22C79.3646 79.22 79.4396 78.8 79.4396 78.425C79.4396 76.175 78.4646 74.9 76.2896 74.9C74.1146 74.9 72.6146 76.7 72.6146 79.1C72.6146 81.575 73.8146 83.15 76.2146 83.15C78.0146 83.15 79.4096 81.905 79.4096 81.905L78.8846 81.125C78.8846 81.125 77.8646 81.95 76.3646 81.95C75.0746 81.95 74.1896 80.9 74.1896 79.25L79.3646 79.22ZM74.2496 78.125C74.3396 77 75.0146 76.07 76.2146 76.07C77.4146 76.07 77.8496 77 77.8496 78.125H74.2496ZM87.3117 79.22C87.3117 79.22 87.3867 78.8 87.3867 78.425C87.3867 76.175 86.4117 74.9 84.2367 74.9C82.0617 74.9 80.5617 76.7 80.5617 79.1C80.5617 81.575 81.7617 83.15 84.1617 83.15C85.9617 83.15 87.3567 81.905 87.3567 81.905L86.8317 81.125C86.8317 81.125 85.8117 81.95 84.3117 81.95C83.0217 81.95 82.1367 80.9 82.1367 79.25L87.3117 79.22ZM82.1967 78.125C82.2867 77 82.9617 76.07 84.1617 76.07C85.3617 76.07 85.7967 77 85.7967 78.125H82.1967ZM92.9443 75.125L91.5943 75.275V76.25H92.9443V81.8L91.6693 82.175V83H95.9443V82.175L94.4443 81.8V76.25H96.3793L96.4243 75.125H94.4443V73.925C94.4443 73.025 94.7443 72.425 95.7943 72.425C96.3193 72.425 96.6943 72.5 96.6943 72.5L96.9193 73.7H97.9693V71.825C97.9693 71.825 97.1443 71.3 95.7193 71.3C93.9193 71.3 92.9443 72.425 92.9443 74.225V75.125ZM101.27 74.9C99.0199 74.9 97.4449 76.55 97.4449 79.1C97.4449 81.8 98.7949 83.15 101.045 83.15C103.295 83.15 104.795 81.425 104.795 78.875C104.795 76.475 103.52 74.9 101.27 74.9ZM101.195 76.1C102.695 76.1 103.22 77.3 103.22 78.95C103.22 80.9 102.62 81.95 101.12 81.95C99.6199 81.95 99.0199 80.825 99.0199 79.025C99.0199 77.075 99.6949 76.1 101.195 76.1ZM108.175 75.05L105.7 75.125V75.95L106.975 76.25V81.8L105.7 82.175V83H109.975V82.175L108.475 81.8V77.345C108.805 76.91 109.525 76.175 110.65 76.175L110.875 77.3H111.85L111.925 75.125C111.925 75.125 111.325 74.9 110.575 74.9C109.555 74.9 108.685 75.725 108.31 76.145L108.175 75.05ZM116.129 77.375H117.104L117.314 76.25C117.314 76.25 117.929 76.025 118.829 76.025C119.729 76.025 120.254 76.475 120.254 77.375V78.575H119.054C116.954 78.575 115.604 79.175 115.604 80.9C115.604 82.325 116.429 83.15 117.854 83.15C118.904 83.15 119.804 82.46 120.314 81.95L120.629 83L122.954 82.925V82.1L121.754 81.8V77.225C121.754 75.5 120.719 74.9 118.979 74.9C117.704 74.9 116.054 75.5 116.054 75.5L116.129 77.375ZM120.254 79.55V80.75C120.254 80.75 119.354 81.95 118.229 81.95C117.554 81.95 117.134 81.5 117.134 80.825C117.134 79.925 117.704 79.55 119.204 79.55H120.254ZM2.325 97.1L3.45 96.95V96.05L0.075 96.125V96.95L0.825 97.175L2.7 104H4.425L5.85 99.35L6.165 97.91L6.525 99.35L7.95 104H9.675L11.505 97.1L12.375 96.95V96.05L9 96.125V96.95L10.05 97.175L8.85 102.65L6.99 95.9L5.565 96.125L3.6 102.65L2.325 97.1ZM19.3547 100.22C19.3547 100.22 19.4297 99.8 19.4297 99.425C19.4297 97.175 18.4547 95.9 16.2797 95.9C14.1047 95.9 12.6047 97.7 12.6047 100.1C12.6047 102.575 13.8047 104.15 16.2047 104.15C18.0047 104.15 19.3997 102.905 19.3997 102.905L18.8747 102.125C18.8747 102.125 17.8547 102.95 16.3547 102.95C15.0647 102.95 14.1797 101.9 14.1797 100.25L19.3547 100.22ZM14.2397 99.125C14.3297 98 15.0047 97.07 16.2047 97.07C17.4047 97.07 17.8397 98 17.8397 99.125H14.2397ZM28.8018 103.1L27.5268 102.8V92.45L24.7518 92.525V93.35L26.0268 93.65V96.14C25.6368 96.005 25.1568 95.9 24.6018 95.9C21.9018 95.9 20.6268 97.7 20.6268 100.25C20.6268 102.575 21.6018 104.15 23.7768 104.15C24.9168 104.15 25.6968 103.58 26.1318 103.145L26.2518 104L28.8018 103.925V103.1ZM26.0268 101.825C26.0268 101.825 25.3518 102.95 24.0768 102.95C22.7268 102.95 22.2018 101.75 22.2018 100.1C22.2018 98.45 22.7118 97.1 24.4518 97.1C25.5018 97.1 26.0268 97.4 26.0268 97.4V101.825ZM37.7303 103.1L36.4553 102.8V92.45L33.6803 92.525V93.35L34.9553 93.65V96.14C34.5653 96.005 34.0853 95.9 33.5303 95.9C30.8303 95.9 29.5553 97.7 29.5553 100.25C29.5553 102.575 30.5303 104.15 32.7053 104.15C33.8453 104.15 34.6253 103.58 35.0603 103.145L35.1803 104L37.7303 103.925V103.1ZM34.9553 101.825C34.9553 101.825 34.2803 102.95 33.0053 102.95C31.6553 102.95 31.1303 101.75 31.1303 100.1C31.1303 98.45 31.6403 97.1 33.3803 97.1C34.4303 97.1 34.9553 97.4 34.9553 97.4V101.825ZM39.3838 93.575C39.3838 94.25 39.7588 94.625 40.3588 94.625C40.8088 94.625 41.3338 94.25 41.3338 93.575C41.3338 92.825 40.9588 92.525 40.3588 92.525C39.8338 92.525 39.3838 92.9 39.3838 93.575ZM42.3088 103.175L41.1838 102.8V96.05L38.4088 96.125V96.95L39.6838 97.25V102.8L38.4088 103.175V104H42.3088V103.175ZM45.6082 96.05L43.1332 96.125V96.95L44.4082 97.25V102.8L43.1332 103.175V104H46.8832V103.175L45.9082 102.8V98.375C45.9082 98.375 46.8082 97.175 48.0832 97.175C49.0582 97.175 49.4332 97.7 49.4332 98.75V102.8L48.4582 103.175V104H52.0582V103.175L50.9332 102.8V98.6C50.9332 96.95 50.1832 95.9 48.5332 95.9C47.2882 95.9 46.1032 96.8 45.7432 97.115L45.6082 96.05ZM60.6088 96.95V96.125L57.9838 96.185C57.9838 96.185 57.4588 95.9 56.4838 95.9C54.5338 95.9 53.1838 96.875 53.1838 98.825C53.1838 100.625 54.3388 101.15 54.3388 101.15C54.3388 101.15 53.5588 102.35 53.5588 102.845C53.5588 103.625 54.4588 103.7 54.4588 103.7C54.4588 103.7 52.8838 104.225 52.8838 105.575C52.8838 107.225 54.3838 107.75 56.4838 107.75C59.1088 107.75 60.3838 106.7 60.3838 105.05C60.3838 103.625 59.3338 102.875 57.3838 102.875H55.0588L55.1338 101.465C55.1338 101.465 55.5838 101.6 56.2588 101.6C58.2088 101.6 59.5588 100.7 59.5588 98.675C59.5588 97.7 59.1538 97.16 59.1538 97.16L60.6088 96.95ZM56.4088 96.95C57.5338 96.95 58.0588 97.625 58.0588 98.75C58.0588 100.025 57.5338 100.55 56.3338 100.55C55.2088 100.55 54.6838 99.8 54.6838 98.75C54.6838 97.55 55.2088 96.95 56.4088 96.95ZM57.0088 104C58.2088 104 58.9588 104.225 58.9588 105.2C58.9588 106.175 58.2088 106.625 56.7088 106.625C55.2838 106.625 54.3838 106.4 54.3838 105.35C54.3838 104.45 55.3588 104 55.3588 104H57.0088ZM61.7332 103.055C61.7332 103.58 62.0782 103.85 62.0782 104.15C62.0782 104.69 61.2832 105.74 61.2832 105.74L61.9582 106.31C63.0082 105.185 63.6832 104 63.6832 103.16C63.6832 102.32 63.2332 102.05 62.7082 102.05C62.1232 102.05 61.7332 102.485 61.7332 103.055ZM68.815 102.815L67.585 103.1V104H71.71V103.1L70.3 102.815L70.885 101.15H74.785L75.355 102.815L73.96 103.1V104H78.31V103.1L77.065 102.815L73.735 93.5L72.235 93.575L68.815 102.815ZM74.38 99.95H71.29L72.865 95.435L74.38 99.95ZM80.407 96.05L77.932 96.125V96.95L79.207 97.25V102.8L77.932 103.175V104H81.682V103.175L80.707 102.8V98.375C80.707 98.375 81.607 97.175 82.882 97.175C83.857 97.175 84.232 97.7 84.232 98.75V102.8L83.257 103.175V104H86.857V103.175L85.732 102.8V98.6C85.732 96.95 84.982 95.9 83.332 95.9C82.087 95.9 80.902 96.8 80.542 97.115L80.407 96.05ZM95.8576 103.1L94.5826 102.8V92.45L91.8076 92.525V93.35L93.0826 93.65V96.14C92.6926 96.005 92.2126 95.9 91.6576 95.9C88.9576 95.9 87.6826 97.7 87.6826 100.25C87.6826 102.575 88.6576 104.15 90.8326 104.15C91.9726 104.15 92.7526 103.58 93.1876 103.145L93.3076 104L95.8576 103.925V103.1ZM93.0826 101.825C93.0826 101.825 92.4076 102.95 91.1326 102.95C89.7826 102.95 89.2576 101.75 89.2576 100.1C89.2576 98.45 89.7676 97.1 91.5076 97.1C92.5576 97.1 93.0826 97.4 93.0826 97.4V101.825ZM101.118 96.125L99.7682 96.275V97.25H101.118V102.8L99.8432 103.175V104H104.118V103.175L102.618 102.8V97.25H104.553L104.598 96.125H102.618V94.925C102.618 94.025 102.918 93.425 103.968 93.425C104.493 93.425 104.868 93.5 104.868 93.5L105.093 94.7H106.143V92.825C106.143 92.825 105.318 92.3 103.893 92.3C102.093 92.3 101.118 93.425 101.118 95.225V96.125ZM109.444 95.9C107.194 95.9 105.619 97.55 105.619 100.1C105.619 102.8 106.969 104.15 109.219 104.15C111.469 104.15 112.969 102.425 112.969 99.875C112.969 97.475 111.694 95.9 109.444 95.9ZM109.369 97.1C110.869 97.1 111.394 98.3 111.394 99.95C111.394 101.9 110.794 102.95 109.294 102.95C107.794 102.95 107.194 101.825 107.194 100.025C107.194 98.075 107.869 97.1 109.369 97.1ZM122.648 103.1L121.373 102.8V96.05L118.598 96.125V96.95L119.873 97.25V101.69C119.873 101.69 118.973 102.875 117.698 102.875C116.723 102.875 116.348 102.365 116.348 101.315V96.05L113.573 96.125V96.95L114.848 97.25V101.465C114.848 103.115 115.598 104.15 117.248 104.15C118.478 104.15 119.663 103.265 120.023 102.95L120.173 104L122.648 103.925V103.1ZM125.804 96.05L123.329 96.125V96.95L124.604 97.25V102.8L123.329 103.175V104H127.604V103.175L126.104 102.8V98.345C126.434 97.91 127.154 97.175 128.279 97.175L128.504 98.3H129.479L129.554 96.125C129.554 96.125 128.954 95.9 128.204 95.9C127.184 95.9 126.314 96.725 125.939 97.145L125.804 96.05ZM134.584 96.125L133.234 96.275V97.25H134.584V102.8L133.309 103.175V104H137.584V103.175L136.084 102.8V97.25H138.019L138.064 96.125H136.084V94.925C136.084 94.025 136.384 93.425 137.434 93.425C137.959 93.425 138.334 93.5 138.334 93.5L138.559 94.7H139.609V92.825C139.609 92.825 138.784 92.3 137.359 92.3C135.559 92.3 134.584 93.425 134.584 95.225V96.125ZM142.91 95.9C140.66 95.9 139.085 97.55 139.085 100.1C139.085 102.8 140.435 104.15 142.685 104.15C144.935 104.15 146.435 102.425 146.435 99.875C146.435 97.475 145.16 95.9 142.91 95.9ZM142.835 97.1C144.335 97.1 144.86 98.3 144.86 99.95C144.86 101.9 144.26 102.95 142.76 102.95C141.26 102.95 140.66 101.825 140.66 100.025C140.66 98.075 141.335 97.1 142.835 97.1ZM149.814 96.05L147.339 96.125V96.95L148.614 97.25V102.8L147.339 103.175V104H151.614V103.175L150.114 102.8V98.345C150.444 97.91 151.164 97.175 152.289 97.175L152.514 98.3H153.489L153.564 96.125C153.564 96.125 152.964 95.9 152.214 95.9C151.194 95.9 150.324 96.725 149.949 97.145L149.814 96.05ZM8.85 124.1L7.575 123.8V113.45L4.8 113.525V114.35L6.075 114.65V117.14C5.685 117.005 5.205 116.9 4.65 116.9C1.95 116.9 0.675 118.7 0.675 121.25C0.675 123.575 1.65 125.15 3.825 125.15C4.965 125.15 5.745 124.58 6.18 124.145L6.3 125L8.85 124.925V124.1ZM6.075 122.825C6.075 122.825 5.4 123.95 4.125 123.95C2.775 123.95 2.25 122.75 2.25 121.1C2.25 119.45 2.76 118.1 4.5 118.1C5.55 118.1 6.075 118.4 6.075 118.4V122.825ZM16.2785 121.22C16.2785 121.22 16.3535 120.8 16.3535 120.425C16.3535 118.175 15.3785 116.9 13.2035 116.9C11.0285 116.9 9.52852 118.7 9.52852 121.1C9.52852 123.575 10.7285 125.15 13.1285 125.15C14.9285 125.15 16.3235 123.905 16.3235 123.905L15.7985 123.125C15.7985 123.125 14.7785 123.95 13.2785 123.95C11.9885 123.95 11.1035 122.9 11.1035 121.25L16.2785 121.22ZM11.1635 120.125C11.2535 119 11.9285 118.07 13.1285 118.07C14.3285 118.07 14.7635 119 14.7635 120.125H11.1635ZM17.9291 119.375H18.9041L19.1141 118.25C19.1141 118.25 19.7291 118.025 20.6291 118.025C21.5291 118.025 22.0541 118.475 22.0541 119.375V120.575H20.8541C18.7541 120.575 17.4041 121.175 17.4041 122.9C17.4041 124.325 18.2291 125.15 19.6541 125.15C20.7041 125.15 21.6041 124.46 22.1141 123.95L22.4291 125L24.7541 124.925V124.1L23.5541 123.8V119.225C23.5541 117.5 22.5191 116.9 20.7791 116.9C19.5041 116.9 17.8541 117.5 17.8541 117.5L17.9291 119.375ZM22.0541 121.55V122.75C22.0541 122.75 21.1541 123.95 20.0291 123.95C19.3541 123.95 18.9341 123.5 18.9341 122.825C18.9341 121.925 19.5041 121.55 21.0041 121.55H22.0541ZM30.3855 117.125H28.2105V114.935L26.7105 115.235V117.125L25.2105 117.275V118.25H26.7105V122.975C26.7105 124.655 27.5355 125.15 28.4355 125.15C29.1855 125.15 29.8605 124.895 30.5355 124.4L30.1305 123.605C29.7405 123.815 29.3205 123.98 28.9605 123.98C28.5405 123.98 28.2105 123.755 28.2105 123.065V118.25H30.3855V117.125ZM33.6785 113.45L30.9035 113.525V114.35L32.1785 114.65V123.8L30.9035 124.175V125H34.6535V124.175L33.6785 123.8V119.375C33.6785 119.375 34.6235 118.175 35.8985 118.175C36.8735 118.175 37.2035 118.7 37.2035 119.75V123.815L36.2285 124.175V125H39.8285V124.175L38.7035 123.8V119.6C38.7035 117.95 37.9535 116.9 36.3035 116.9C35.1935 116.9 34.1435 117.59 33.6785 117.98V113.45Z" fill="#2A2921"/>
</svg>
