<svg width="169" height="136" viewBox="0 0 169 136" fill="none" xmlns="http://www.w3.org/2000/svg">
<path d="M13.1152 29H11.2207L3.41797 17.0176H3.33984C3.44401 18.4238 3.49609 19.7129 3.49609 20.8848V29H1.96289V14.7227H3.83789L11.6211 26.6562H11.6992C11.6862 26.4805 11.6569 25.9173 11.6113 24.9668C11.5658 24.0098 11.5495 23.3262 11.5625 22.916V14.7227H13.1152V29ZM17.9203 18.2969V25.2402C17.9203 26.1126 18.1189 26.7637 18.516 27.1934C18.9132 27.623 19.5349 27.8379 20.3813 27.8379C21.501 27.8379 22.3181 27.5319 22.8324 26.9199C23.3533 26.3079 23.6137 25.3086 23.6137 23.9219V18.2969H25.2348V29H23.8969L23.6625 27.5645H23.5746C23.2426 28.0918 22.7803 28.4954 22.1879 28.7754C21.602 29.0553 20.9314 29.1953 20.1762 29.1953C18.8741 29.1953 17.8975 28.8861 17.2465 28.2676C16.602 27.6491 16.2797 26.6595 16.2797 25.2988V18.2969H17.9203ZM33.1648 18.1016C33.6401 18.1016 34.0665 18.1406 34.4441 18.2188L34.2195 19.7227C33.7768 19.625 33.3862 19.5762 33.0477 19.5762C32.1818 19.5762 31.4396 19.9277 30.8211 20.6309C30.2091 21.334 29.9031 22.2096 29.9031 23.2578V29H28.282V18.2969H29.6199L29.8055 20.2793H29.8836C30.2807 19.5827 30.7592 19.0456 31.3191 18.668C31.879 18.2904 32.4943 18.1016 33.1648 18.1016ZM42.9504 26.0801C42.9504 27.0762 42.5793 27.8444 41.8371 28.3848C41.0949 28.9251 40.0533 29.1953 38.7121 29.1953C37.2928 29.1953 36.1861 28.9707 35.3918 28.5215V27.0176C35.9061 27.278 36.4562 27.4831 37.0422 27.6328C37.6346 27.7826 38.2043 27.8574 38.7512 27.8574C39.5975 27.8574 40.2486 27.724 40.7043 27.457C41.16 27.1836 41.3879 26.7702 41.3879 26.2168C41.3879 25.8001 41.2056 25.4453 40.841 25.1523C40.4829 24.8529 39.7798 24.5013 38.7316 24.0977C37.7355 23.7266 37.0259 23.4043 36.6027 23.1309C36.1861 22.8509 35.8736 22.5352 35.6652 22.1836C35.4634 21.832 35.3625 21.4121 35.3625 20.9238C35.3625 20.0514 35.7173 19.3646 36.427 18.8633C37.1366 18.3555 38.1099 18.1016 39.3469 18.1016C40.4992 18.1016 41.6255 18.3359 42.7258 18.8047L42.1496 20.123C41.0754 19.6803 40.1021 19.459 39.2297 19.459C38.4615 19.459 37.882 19.5794 37.4914 19.8203C37.1008 20.0612 36.9055 20.3932 36.9055 20.8164C36.9055 21.1029 36.9771 21.347 37.1203 21.5488C37.2701 21.7507 37.5077 21.9427 37.8332 22.125C38.1587 22.3073 38.7837 22.571 39.7082 22.916C40.9777 23.3783 41.8339 23.8438 42.2766 24.3125C42.7258 24.7812 42.9504 25.3704 42.9504 26.0801ZM49.7184 29.1953C48.1363 29.1953 46.8863 28.7135 45.9684 27.75C45.0569 26.7865 44.6012 25.4486 44.6012 23.7363C44.6012 22.0111 45.0244 20.6406 45.8707 19.625C46.7236 18.6094 47.8661 18.1016 49.2984 18.1016C50.6396 18.1016 51.7008 18.5443 52.482 19.4297C53.2633 20.3086 53.6539 21.4707 53.6539 22.916V23.9414H46.2809C46.3134 25.1979 46.6292 26.1517 47.2281 26.8027C47.8336 27.4538 48.6832 27.7793 49.777 27.7793C50.9293 27.7793 52.0686 27.5384 53.1949 27.0566V28.502C52.622 28.7493 52.0784 28.9251 51.5641 29.0293C51.0563 29.14 50.441 29.1953 49.7184 29.1953ZM49.2789 19.459C48.4195 19.459 47.7327 19.7389 47.2184 20.2988C46.7105 20.8587 46.4111 21.6335 46.3199 22.623H51.9156C51.9156 21.6009 51.6878 20.8197 51.232 20.2793C50.7763 19.7324 50.1253 19.459 49.2789 19.459ZM60.9102 18.1016C61.3854 18.1016 61.8118 18.1406 62.1895 18.2188L61.9648 19.7227C61.5221 19.625 61.1315 19.5762 60.793 19.5762C59.9271 19.5762 59.1849 19.9277 58.5664 20.6309C57.9544 21.334 57.6484 22.2096 57.6484 23.2578V29H56.0273V18.2969H57.3652L57.5508 20.2793H57.6289C58.026 19.5827 58.5046 19.0456 59.0645 18.668C59.6243 18.2904 60.2396 18.1016 60.9102 18.1016ZM62.0922 18.2969H63.8305L66.1742 24.4004C66.6885 25.7936 67.0076 26.7995 67.1312 27.418H67.2094C67.294 27.0859 67.4698 26.5195 67.7367 25.7188C68.0102 24.9115 68.8956 22.4375 70.393 18.2969H72.1312L67.5316 30.4844C67.0759 31.6888 66.5421 32.5417 65.9301 33.043C65.3246 33.5508 64.5792 33.8047 63.6937 33.8047C63.199 33.8047 62.7107 33.7493 62.2289 33.6387V32.3398C62.587 32.418 62.9874 32.457 63.4301 32.457C64.5434 32.457 65.3376 31.832 65.8129 30.582L66.4086 29.0586L62.0922 18.2969ZM80.1691 23.0625V29H78.509V14.7227H82.425C84.1763 14.7227 85.4686 15.0579 86.302 15.7285C87.1418 16.3991 87.5617 17.4082 87.5617 18.7559C87.5617 20.6439 86.6047 21.9199 84.6906 22.584L88.5676 29H86.6047L83.1477 23.0625H80.1691ZM80.1691 21.6367H82.4445C83.6164 21.6367 84.4758 21.4056 85.0227 20.9434C85.5695 20.4746 85.843 19.7747 85.843 18.8438C85.843 17.8997 85.563 17.2194 85.0031 16.8027C84.4497 16.3861 83.5578 16.1777 82.3273 16.1777H80.1691V21.6367ZM97.5523 29V22.0762C97.5523 21.2038 97.3538 20.5527 96.9566 20.123C96.5595 19.6934 95.9378 19.4785 95.0914 19.4785C93.9651 19.4785 93.1415 19.7845 92.6207 20.3965C92.1064 21.0085 91.8492 22.0111 91.8492 23.4043V29H90.2281V13.8047H91.8492V18.4043C91.8492 18.9577 91.8232 19.4167 91.7711 19.7812H91.8688C92.1878 19.2669 92.6402 18.8633 93.2262 18.5703C93.8186 18.2708 94.4924 18.1211 95.2477 18.1211C96.5563 18.1211 97.5361 18.4336 98.1871 19.0586C98.8447 19.6771 99.1734 20.6634 99.1734 22.0176V29H97.5523ZM100.414 18.2969H102.152L104.496 24.4004C105.01 25.7936 105.329 26.7995 105.453 27.418H105.531C105.616 27.0859 105.792 26.5195 106.059 25.7188C106.332 24.9115 107.217 22.4375 108.715 18.2969H110.453L105.854 30.4844C105.398 31.6888 104.864 32.5417 104.252 33.043C103.646 33.5508 102.901 33.8047 102.016 33.8047C101.521 33.8047 101.033 33.7493 100.551 33.6387V32.3398C100.909 32.418 101.309 32.457 101.752 32.457C102.865 32.457 103.66 31.832 104.135 30.582L104.73 29.0586L100.414 18.2969ZM125.434 29V22.0371C125.434 21.1842 125.252 20.5462 124.887 20.123C124.523 19.6934 123.956 19.4785 123.188 19.4785C122.179 19.4785 121.433 19.7682 120.952 20.3477C120.47 20.9271 120.229 21.819 120.229 23.0234V29H118.608V22.0371C118.608 21.1842 118.426 20.5462 118.061 20.123C117.696 19.6934 117.127 19.4785 116.352 19.4785C115.336 19.4785 114.591 19.7845 114.116 20.3965C113.647 21.002 113.412 21.998 113.412 23.3848V29H111.791V18.2969H113.11L113.373 19.7617H113.452C113.758 19.2409 114.187 18.834 114.741 18.541C115.301 18.248 115.926 18.1016 116.616 18.1016C118.289 18.1016 119.383 18.707 119.897 19.918H119.975C120.294 19.3581 120.756 18.9154 121.362 18.5898C121.967 18.2643 122.657 18.1016 123.432 18.1016C124.643 18.1016 125.548 18.4141 126.147 19.0391C126.752 19.6576 127.055 20.6504 127.055 22.0176V29H125.434ZM134.526 29.1953C132.944 29.1953 131.694 28.7135 130.776 27.75C129.865 26.7865 129.409 25.4486 129.409 23.7363C129.409 22.0111 129.832 20.6406 130.679 19.625C131.531 18.6094 132.674 18.1016 134.106 18.1016C135.447 18.1016 136.509 18.5443 137.29 19.4297C138.071 20.3086 138.462 21.4707 138.462 22.916V23.9414H131.089C131.121 25.1979 131.437 26.1517 132.036 26.8027C132.641 27.4538 133.491 27.7793 134.585 27.7793C135.737 27.7793 136.876 27.5384 138.003 27.0566V28.502C137.43 28.7493 136.886 28.9251 136.372 29.0293C135.864 29.14 135.249 29.1953 134.526 29.1953ZM134.087 19.459C133.227 19.459 132.54 19.7389 132.026 20.2988C131.518 20.8587 131.219 21.6335 131.128 22.623H136.723C136.723 21.6009 136.496 20.8197 136.04 20.2793C135.584 19.7324 134.933 19.459 134.087 19.459ZM147.739 26.0801C147.739 27.0762 147.368 27.8444 146.626 28.3848C145.884 28.9251 144.842 29.1953 143.501 29.1953C142.082 29.1953 140.975 28.9707 140.181 28.5215V27.0176C140.695 27.278 141.245 27.4831 141.831 27.6328C142.424 27.7826 142.993 27.8574 143.54 27.8574C144.387 27.8574 145.038 27.724 145.493 27.457C145.949 27.1836 146.177 26.7702 146.177 26.2168C146.177 25.8001 145.995 25.4453 145.63 25.1523C145.272 24.8529 144.569 24.5013 143.521 24.0977C142.525 23.7266 141.815 23.4043 141.392 23.1309C140.975 22.8509 140.663 22.5352 140.454 22.1836C140.252 21.832 140.152 21.4121 140.152 20.9238C140.152 20.0514 140.506 19.3646 141.216 18.8633C141.926 18.3555 142.899 18.1016 144.136 18.1016C145.288 18.1016 146.415 18.3359 147.515 18.8047L146.939 20.123C145.864 19.6803 144.891 19.459 144.019 19.459C143.251 19.459 142.671 19.5794 142.28 19.8203C141.89 20.0612 141.695 20.3932 141.695 20.8164C141.695 21.1029 141.766 21.347 141.909 21.5488C142.059 21.7507 142.297 21.9427 142.622 22.125C142.948 22.3073 143.573 22.571 144.497 22.916C145.767 23.3783 146.623 23.8438 147.066 24.3125C147.515 24.7812 147.739 25.3704 147.739 26.0801Z" fill="#2A2921"/>
<path d="M6.3 62.09C5.26 62.09 4.315 61.86 3.465 61.4C2.625 60.93 1.965 60.29 1.485 59.48C1.015 58.67 0.78 57.76 0.78 56.75C0.78 55.74 1.015 54.83 1.485 54.02C1.965 53.21 2.625 52.575 3.465 52.115C4.315 51.645 5.26 51.41 6.3 51.41C7.34 51.41 8.275 51.64 9.105 52.1C9.945 52.56 10.605 53.2 11.085 54.02C11.565 54.83 11.805 55.74 11.805 56.75C11.805 57.76 11.565 58.675 11.085 59.495C10.605 60.305 9.945 60.94 9.105 61.4C8.275 61.86 7.34 62.09 6.3 62.09ZM6.3 61.1C7.13 61.1 7.88 60.915 8.55 60.545C9.22 60.165 9.745 59.645 10.125 58.985C10.505 58.315 10.695 57.57 10.695 56.75C10.695 55.93 10.505 55.19 10.125 54.53C9.745 53.86 9.22 53.34 8.55 52.97C7.88 52.59 7.13 52.4 6.3 52.4C5.47 52.4 4.715 52.59 4.035 52.97C3.365 53.34 2.835 53.86 2.445 54.53C2.065 55.19 1.875 55.93 1.875 56.75C1.875 57.57 2.065 58.315 2.445 58.985C2.835 59.645 3.365 60.165 4.035 60.545C4.715 60.915 5.47 61.1 6.3 61.1ZM17.788 54.05C18.778 54.05 19.563 54.34 20.143 54.92C20.733 55.49 21.028 56.325 21.028 57.425V62H19.963V57.53C19.963 56.71 19.758 56.085 19.348 55.655C18.938 55.225 18.353 55.01 17.593 55.01C16.743 55.01 16.068 55.265 15.568 55.775C15.078 56.275 14.833 56.97 14.833 57.86V62H13.768V54.11H14.788V55.565C15.078 55.085 15.478 54.715 15.988 54.455C16.508 54.185 17.108 54.05 17.788 54.05ZM30.5187 58.385H23.9187C23.9787 59.205 24.2937 59.87 24.8637 60.38C25.4337 60.88 26.1537 61.13 27.0237 61.13C27.5137 61.13 27.9637 61.045 28.3737 60.875C28.7837 60.695 29.1387 60.435 29.4387 60.095L30.0387 60.785C29.6887 61.205 29.2487 61.525 28.7187 61.745C28.1987 61.965 27.6237 62.075 26.9937 62.075C26.1837 62.075 25.4637 61.905 24.8337 61.565C24.2137 61.215 23.7287 60.735 23.3787 60.125C23.0287 59.515 22.8537 58.825 22.8537 58.055C22.8537 57.285 23.0187 56.595 23.3487 55.985C23.6887 55.375 24.1487 54.9 24.7287 54.56C25.3187 54.22 25.9787 54.05 26.7087 54.05C27.4387 54.05 28.0937 54.22 28.6737 54.56C29.2537 54.9 29.7087 55.375 30.0387 55.985C30.3687 56.585 30.5337 57.275 30.5337 58.055L30.5187 58.385ZM26.7087 54.965C25.9487 54.965 25.3087 55.21 24.7887 55.7C24.2787 56.18 23.9887 56.81 23.9187 57.59H29.5137C29.4437 56.81 29.1487 56.18 28.6287 55.7C28.1187 55.21 27.4787 54.965 26.7087 54.965ZM38.6372 51.695C38.1772 51.695 37.8272 51.82 37.5872 52.07C37.3572 52.32 37.2422 52.69 37.2422 53.18V54.11H39.6722V55.01H37.2722V62H36.2072V55.01H34.7972V54.11H36.2072V53.135C36.2072 52.415 36.4122 51.845 36.8222 51.425C37.2422 51.005 37.8322 50.795 38.5922 50.795C38.8922 50.795 39.1822 50.84 39.4622 50.93C39.7422 51.01 39.9772 51.13 40.1672 51.29L39.8072 52.085C39.4972 51.825 39.1072 51.695 38.6372 51.695ZM43.9034 62.075C43.1434 62.075 42.4584 61.905 41.8484 61.565C41.2384 61.215 40.7584 60.735 40.4084 60.125C40.0584 59.515 39.8834 58.825 39.8834 58.055C39.8834 57.285 40.0584 56.595 40.4084 55.985C40.7584 55.375 41.2384 54.9 41.8484 54.56C42.4584 54.22 43.1434 54.05 43.9034 54.05C44.6634 54.05 45.3484 54.22 45.9584 54.56C46.5684 54.9 47.0434 55.375 47.3834 55.985C47.7334 56.595 47.9084 57.285 47.9084 58.055C47.9084 58.825 47.7334 59.515 47.3834 60.125C47.0434 60.735 46.5684 61.215 45.9584 61.565C45.3484 61.905 44.6634 62.075 43.9034 62.075ZM43.9034 61.13C44.4634 61.13 44.9634 61.005 45.4034 60.755C45.8534 60.495 46.2034 60.13 46.4534 59.66C46.7034 59.19 46.8284 58.655 46.8284 58.055C46.8284 57.455 46.7034 56.92 46.4534 56.45C46.2034 55.98 45.8534 55.62 45.4034 55.37C44.9634 55.11 44.4634 54.98 43.9034 54.98C43.3434 54.98 42.8384 55.11 42.3884 55.37C41.9484 55.62 41.5984 55.98 41.3384 56.45C41.0884 56.92 40.9634 57.455 40.9634 58.055C40.9634 58.655 41.0884 59.19 41.3384 59.66C41.5984 60.13 41.9484 60.495 42.3884 60.755C42.8384 61.005 43.3434 61.13 43.9034 61.13ZM50.8027 55.655C51.0527 55.125 51.4227 54.725 51.9127 54.455C52.4127 54.185 53.0277 54.05 53.7577 54.05V55.085L53.5027 55.07C52.6727 55.07 52.0227 55.325 51.5527 55.835C51.0827 56.345 50.8477 57.06 50.8477 57.98V62H49.7827V54.11H50.8027V55.655ZM61.2439 62.075C60.6039 62.075 59.9889 61.985 59.3989 61.805C58.8189 61.615 58.3639 61.38 58.0339 61.1L58.5139 60.26C58.8439 60.52 59.2589 60.735 59.7589 60.905C60.2589 61.065 60.7789 61.145 61.3189 61.145C62.0389 61.145 62.5689 61.035 62.9089 60.815C63.2589 60.585 63.4339 60.265 63.4339 59.855C63.4339 59.565 63.3389 59.34 63.1489 59.18C62.9589 59.01 62.7189 58.885 62.4289 58.805C62.1389 58.715 61.7539 58.63 61.2739 58.55C60.6339 58.43 60.1189 58.31 59.7289 58.19C59.3389 58.06 59.0039 57.845 58.7239 57.545C58.4539 57.245 58.3189 56.83 58.3189 56.3C58.3189 55.64 58.5939 55.1 59.1439 54.68C59.6939 54.26 60.4589 54.05 61.4389 54.05C61.9489 54.05 62.4589 54.12 62.9689 54.26C63.4789 54.39 63.8989 54.565 64.2289 54.785L63.7639 55.64C63.1139 55.19 62.3389 54.965 61.4389 54.965C60.7589 54.965 60.2439 55.085 59.8939 55.325C59.5539 55.565 59.3839 55.88 59.3839 56.27C59.3839 56.57 59.4789 56.81 59.6689 56.99C59.8689 57.17 60.1139 57.305 60.4039 57.395C60.6939 57.475 61.0939 57.56 61.6039 57.65C62.2339 57.77 62.7389 57.89 63.1189 58.01C63.4989 58.13 63.8239 58.335 64.0939 58.625C64.3639 58.915 64.4989 59.315 64.4989 59.825C64.4989 60.515 64.2089 61.065 63.6289 61.475C63.0589 61.875 62.2639 62.075 61.2439 62.075ZM69.3928 62.075C68.6328 62.075 67.9478 61.905 67.3378 61.565C66.7278 61.215 66.2478 60.735 65.8978 60.125C65.5478 59.515 65.3728 58.825 65.3728 58.055C65.3728 57.285 65.5478 56.595 65.8978 55.985C66.2478 55.375 66.7278 54.9 67.3378 54.56C67.9478 54.22 68.6328 54.05 69.3928 54.05C70.1528 54.05 70.8378 54.22 71.4478 54.56C72.0578 54.9 72.5328 55.375 72.8728 55.985C73.2228 56.595 73.3978 57.285 73.3978 58.055C73.3978 58.825 73.2228 59.515 72.8728 60.125C72.5328 60.735 72.0578 61.215 71.4478 61.565C70.8378 61.905 70.1528 62.075 69.3928 62.075ZM69.3928 61.13C69.9528 61.13 70.4528 61.005 70.8928 60.755C71.3428 60.495 71.6928 60.13 71.9428 59.66C72.1928 59.19 72.3178 58.655 72.3178 58.055C72.3178 57.455 72.1928 56.92 71.9428 56.45C71.6928 55.98 71.3428 55.62 70.8928 55.37C70.4528 55.11 69.9528 54.98 69.3928 54.98C68.8328 54.98 68.3278 55.11 67.8778 55.37C67.4378 55.62 67.0878 55.98 66.8278 56.45C66.5778 56.92 66.4528 57.455 66.4528 58.055C66.4528 58.655 66.5778 59.19 66.8278 59.66C67.0878 60.13 67.4378 60.495 67.8778 60.755C68.3278 61.005 68.8328 61.13 69.3928 61.13ZM76.2921 55.655C76.5421 55.125 76.9121 54.725 77.4021 54.455C77.9021 54.185 78.5171 54.05 79.2471 54.05V55.085L78.9921 55.07C78.1621 55.07 77.5121 55.325 77.0421 55.835C76.5721 56.345 76.3371 57.06 76.3371 57.98V62H75.2721V54.11H76.2921V55.655ZM81.8954 55.655C82.1454 55.125 82.5154 54.725 83.0054 54.455C83.5054 54.185 84.1204 54.05 84.8504 54.05V55.085L84.5954 55.07C83.7654 55.07 83.1154 55.325 82.6454 55.835C82.1754 56.345 81.9404 57.06 81.9404 57.98V62H80.8754V54.11H81.8954V55.655ZM89.6305 62.075C88.8705 62.075 88.1855 61.905 87.5755 61.565C86.9655 61.215 86.4855 60.735 86.1355 60.125C85.7855 59.515 85.6105 58.825 85.6105 58.055C85.6105 57.285 85.7855 56.595 86.1355 55.985C86.4855 55.375 86.9655 54.9 87.5755 54.56C88.1855 54.22 88.8705 54.05 89.6305 54.05C90.3905 54.05 91.0755 54.22 91.6855 54.56C92.2955 54.9 92.7705 55.375 93.1105 55.985C93.4605 56.595 93.6355 57.285 93.6355 58.055C93.6355 58.825 93.4605 59.515 93.1105 60.125C92.7705 60.735 92.2955 61.215 91.6855 61.565C91.0755 61.905 90.3905 62.075 89.6305 62.075ZM89.6305 61.13C90.1905 61.13 90.6905 61.005 91.1305 60.755C91.5805 60.495 91.9305 60.13 92.1805 59.66C92.4305 59.19 92.5555 58.655 92.5555 58.055C92.5555 57.455 92.4305 56.92 92.1805 56.45C91.9305 55.98 91.5805 55.62 91.1305 55.37C90.6905 55.11 90.1905 54.98 89.6305 54.98C89.0705 54.98 88.5655 55.11 88.1155 55.37C87.6755 55.62 87.3255 55.98 87.0655 56.45C86.8155 56.92 86.6905 57.455 86.6905 58.055C86.6905 58.655 86.8155 59.19 87.0655 59.66C87.3255 60.13 87.6755 60.495 88.1155 60.755C88.5655 61.005 89.0705 61.13 89.6305 61.13ZM106.87 54.11L103.885 62H102.88L100.39 55.535L97.9001 62H96.8951L93.9251 54.11H94.9451L97.4201 60.815L99.9551 54.11H100.87L103.39 60.815L105.895 54.11H106.87ZM107.781 60.44C108.011 60.44 108.201 60.52 108.351 60.68C108.501 60.83 108.576 61.02 108.576 61.25C108.576 61.37 108.556 61.5 108.516 61.64C108.486 61.78 108.436 61.94 108.366 62.12L107.736 64.19H107.016L107.526 62.015C107.366 61.965 107.236 61.875 107.136 61.745C107.036 61.605 106.986 61.44 106.986 61.25C106.986 61.02 107.061 60.83 107.211 60.68C107.361 60.52 107.551 60.44 107.781 60.44ZM116.43 52.46H112.74V51.5H121.23V52.46H117.54V62H116.43V52.46ZM133.546 54.11L130.561 62H129.556L127.066 55.535L124.576 62H123.571L120.601 54.11H121.621L124.096 60.815L126.631 54.11H127.546L130.066 60.815L132.571 54.11H133.546ZM137.855 62.075C137.095 62.075 136.41 61.905 135.8 61.565C135.19 61.215 134.71 60.735 134.36 60.125C134.01 59.515 133.835 58.825 133.835 58.055C133.835 57.285 134.01 56.595 134.36 55.985C134.71 55.375 135.19 54.9 135.8 54.56C136.41 54.22 137.095 54.05 137.855 54.05C138.615 54.05 139.3 54.22 139.91 54.56C140.52 54.9 140.995 55.375 141.335 55.985C141.685 56.595 141.86 57.285 141.86 58.055C141.86 58.825 141.685 59.515 141.335 60.125C140.995 60.735 140.52 61.215 139.91 61.565C139.3 61.905 138.615 62.075 137.855 62.075ZM137.855 61.13C138.415 61.13 138.915 61.005 139.355 60.755C139.805 60.495 140.155 60.13 140.405 59.66C140.655 59.19 140.78 58.655 140.78 58.055C140.78 57.455 140.655 56.92 140.405 56.45C140.155 55.98 139.805 55.62 139.355 55.37C138.915 55.11 138.415 54.98 137.855 54.98C137.295 54.98 136.79 55.11 136.34 55.37C135.9 55.62 135.55 55.98 135.29 56.45C135.04 56.92 134.915 57.455 134.915 58.055C134.915 58.655 135.04 59.19 135.29 59.66C135.55 60.13 135.9 60.495 136.34 60.755C136.79 61.005 137.295 61.13 137.855 61.13ZM149.97 51.695C149.51 51.695 149.16 51.82 148.92 52.07C148.69 52.32 148.575 52.69 148.575 53.18V54.11H151.005V55.01H148.605V62H147.54V55.01H146.13V54.11H147.54V53.135C147.54 52.415 147.745 51.845 148.155 51.425C148.575 51.005 149.165 50.795 149.925 50.795C150.225 50.795 150.515 50.84 150.795 50.93C151.075 51.01 151.31 51.13 151.5 51.29L151.14 52.085C150.83 51.825 150.44 51.695 149.97 51.695ZM155.236 62.075C154.476 62.075 153.791 61.905 153.181 61.565C152.571 61.215 152.091 60.735 151.741 60.125C151.391 59.515 151.216 58.825 151.216 58.055C151.216 57.285 151.391 56.595 151.741 55.985C152.091 55.375 152.571 54.9 153.181 54.56C153.791 54.22 154.476 54.05 155.236 54.05C155.996 54.05 156.681 54.22 157.291 54.56C157.901 54.9 158.376 55.375 158.716 55.985C159.066 56.595 159.241 57.285 159.241 58.055C159.241 58.825 159.066 59.515 158.716 60.125C158.376 60.735 157.901 61.215 157.291 61.565C156.681 61.905 155.996 62.075 155.236 62.075ZM155.236 61.13C155.796 61.13 156.296 61.005 156.736 60.755C157.186 60.495 157.536 60.13 157.786 59.66C158.036 59.19 158.161 58.655 158.161 58.055C158.161 57.455 158.036 56.92 157.786 56.45C157.536 55.98 157.186 55.62 156.736 55.37C156.296 55.11 155.796 54.98 155.236 54.98C154.676 54.98 154.171 55.11 153.721 55.37C153.281 55.62 152.931 55.98 152.671 56.45C152.421 56.92 152.296 57.455 152.296 58.055C152.296 58.655 152.421 59.19 152.671 59.66C152.931 60.13 153.281 60.495 153.721 60.755C154.171 61.005 154.676 61.13 155.236 61.13ZM162.135 55.655C162.385 55.125 162.755 54.725 163.245 54.455C163.745 54.185 164.36 54.05 165.09 54.05V55.085L164.835 55.07C164.005 55.07 163.355 55.325 162.885 55.835C162.415 56.345 162.18 57.06 162.18 57.98V62H161.115V54.11H162.135V55.655ZM11.325 75.05C12.315 75.05 13.09 75.335 13.65 75.905C14.22 76.475 14.505 77.315 14.505 78.425V83H13.44V78.53C13.44 77.71 13.24 77.085 12.84 76.655C12.45 76.225 11.895 76.01 11.175 76.01C10.355 76.01 9.71 76.265 9.24 76.775C8.77 77.275 8.535 77.97 8.535 78.86V83H7.47V78.53C7.47 77.71 7.27 77.085 6.87 76.655C6.48 76.225 5.92 76.01 5.19 76.01C4.38 76.01 3.735 76.265 3.255 76.775C2.785 77.275 2.55 77.97 2.55 78.86V83H1.485V75.11H2.505V76.55C2.785 76.07 3.175 75.7 3.675 75.44C4.175 75.18 4.75 75.05 5.4 75.05C6.06 75.05 6.63 75.19 7.11 75.47C7.6 75.75 7.965 76.165 8.205 76.715C8.495 76.195 8.91 75.79 9.45 75.5C10 75.2 10.625 75.05 11.325 75.05ZM17.0932 75.11H18.1582V83H17.0932V75.11ZM17.6332 73.385C17.4132 73.385 17.2282 73.31 17.0782 73.16C16.9282 73.01 16.8532 72.83 16.8532 72.62C16.8532 72.42 16.9282 72.245 17.0782 72.095C17.2282 71.945 17.4132 71.87 17.6332 71.87C17.8532 71.87 18.0382 71.945 18.1882 72.095C18.3382 72.235 18.4132 72.405 18.4132 72.605C18.4132 72.825 18.3382 73.01 18.1882 73.16C18.0382 73.31 17.8532 73.385 17.6332 73.385ZM21.8415 76.655C22.0915 76.125 22.4615 75.725 22.9515 75.455C23.4515 75.185 24.0665 75.05 24.7965 75.05V76.085L24.5415 76.07C23.7115 76.07 23.0615 76.325 22.5915 76.835C22.1215 77.345 21.8865 78.06 21.8865 78.98V83H20.8215V75.11H21.8415V76.655ZM30.9168 82.52C30.7168 82.7 30.4668 82.84 30.1668 82.94C29.8768 83.03 29.5718 83.075 29.2518 83.075C28.5118 83.075 27.9418 82.875 27.5418 82.475C27.1418 82.075 26.9418 81.51 26.9418 80.78V76.01H25.5318V75.11H26.9418V73.385H28.0068V75.11H30.4068V76.01H28.0068V80.72C28.0068 81.19 28.1218 81.55 28.3518 81.8C28.5918 82.04 28.9318 82.16 29.3718 82.16C29.5918 82.16 29.8018 82.125 30.0018 82.055C30.2118 81.985 30.3918 81.885 30.5418 81.755L30.9168 82.52ZM36.5755 75.05C37.5655 75.05 38.3505 75.34 38.9305 75.92C39.5205 76.49 39.8155 77.325 39.8155 78.425V83H38.7505V78.53C38.7505 77.71 38.5455 77.085 38.1355 76.655C37.7255 76.225 37.1405 76.01 36.3805 76.01C35.5305 76.01 34.8555 76.265 34.3555 76.775C33.8655 77.275 33.6205 77.97 33.6205 78.86V83H32.5555V71.87H33.6205V76.49C33.9105 76.03 34.3105 75.675 34.8205 75.425C35.3305 75.175 35.9155 75.05 36.5755 75.05ZM42.5269 81.44C42.7569 81.44 42.9469 81.52 43.0969 81.68C43.2469 81.83 43.3219 82.02 43.3219 82.25C43.3219 82.37 43.3019 82.5 43.2619 82.64C43.2319 82.78 43.1819 82.94 43.1119 83.12L42.4819 85.19H41.7619L42.2719 83.015C42.1119 82.965 41.9819 82.875 41.8819 82.745C41.7819 82.605 41.7319 82.44 41.7319 82.25C41.7319 82.02 41.8069 81.83 41.9569 81.68C42.1069 81.52 42.2969 81.44 42.5269 81.44ZM51.1764 73.46H47.4864V72.5H55.9764V73.46H52.2864V83H51.1764V73.46ZM61.2446 75.05C62.2346 75.05 63.0196 75.34 63.5996 75.92C64.1896 76.49 64.4846 77.325 64.4846 78.425V83H63.4196V78.53C63.4196 77.71 63.2146 77.085 62.8046 76.655C62.3946 76.225 61.8096 76.01 61.0496 76.01C60.1996 76.01 59.5246 76.265 59.0246 76.775C58.5346 77.275 58.2896 77.97 58.2896 78.86V83H57.2246V71.87H58.2896V76.49C58.5796 76.03 58.9796 75.675 59.4896 75.425C59.9996 75.175 60.5846 75.05 61.2446 75.05ZM68.096 76.655C68.346 76.125 68.716 75.725 69.206 75.455C69.706 75.185 70.321 75.05 71.051 75.05V76.085L70.796 76.07C69.966 76.07 69.316 76.325 68.846 76.835C68.376 77.345 68.141 78.06 68.141 78.98V83H67.076V75.11H68.096V76.655ZM79.4761 79.385H72.8761C72.9361 80.205 73.2511 80.87 73.8211 81.38C74.3911 81.88 75.1111 82.13 75.9811 82.13C76.4711 82.13 76.9211 82.045 77.3311 81.875C77.7411 81.695 78.0961 81.435 78.3961 81.095L78.9961 81.785C78.6461 82.205 78.2061 82.525 77.6761 82.745C77.1561 82.965 76.5811 83.075 75.9511 83.075C75.1411 83.075 74.4211 82.905 73.7911 82.565C73.1711 82.215 72.6861 81.735 72.3361 81.125C71.9861 80.515 71.8111 79.825 71.8111 79.055C71.8111 78.285 71.9761 77.595 72.3061 76.985C72.6461 76.375 73.1061 75.9 73.6861 75.56C74.2761 75.22 74.9361 75.05 75.6661 75.05C76.3961 75.05 77.0511 75.22 77.6311 75.56C78.2111 75.9 78.6661 76.375 78.9961 76.985C79.3261 77.585 79.4911 78.275 79.4911 79.055L79.4761 79.385ZM75.6661 75.965C74.9061 75.965 74.2661 76.21 73.7461 76.7C73.2361 77.18 72.9461 77.81 72.8761 78.59H78.4711C78.4011 77.81 78.1061 77.18 77.5861 76.7C77.0761 76.21 76.4361 75.965 75.6661 75.965ZM88.2288 79.385H81.6288C81.6888 80.205 82.0038 80.87 82.5738 81.38C83.1438 81.88 83.8638 82.13 84.7338 82.13C85.2238 82.13 85.6738 82.045 86.0838 81.875C86.4938 81.695 86.8488 81.435 87.1488 81.095L87.7488 81.785C87.3988 82.205 86.9588 82.525 86.4288 82.745C85.9088 82.965 85.3338 83.075 84.7038 83.075C83.8938 83.075 83.1738 82.905 82.5438 82.565C81.9238 82.215 81.4388 81.735 81.0888 81.125C80.7388 80.515 80.5638 79.825 80.5638 79.055C80.5638 78.285 80.7288 77.595 81.0588 76.985C81.3988 76.375 81.8588 75.9 82.4388 75.56C83.0288 75.22 83.6888 75.05 84.4188 75.05C85.1488 75.05 85.8038 75.22 86.3838 75.56C86.9638 75.9 87.4188 76.375 87.7488 76.985C88.0788 77.585 88.2438 78.275 88.2438 79.055L88.2288 79.385ZM84.4188 75.965C83.6588 75.965 83.0188 76.21 82.4988 76.7C81.9888 77.18 81.6988 77.81 81.6288 78.59H87.2238C87.1538 77.81 86.8588 77.18 86.3388 76.7C85.8288 76.21 85.1888 75.965 84.4188 75.965ZM96.3473 72.695C95.8873 72.695 95.5373 72.82 95.2973 73.07C95.0673 73.32 94.9523 73.69 94.9523 74.18V75.11H97.3823V76.01H94.9823V83H93.9173V76.01H92.5073V75.11H93.9173V74.135C93.9173 73.415 94.1223 72.845 94.5323 72.425C94.9523 72.005 95.5423 71.795 96.3023 71.795C96.6023 71.795 96.8923 71.84 97.1723 71.93C97.4523 72.01 97.6873 72.13 97.8773 72.29L97.5173 73.085C97.2073 72.825 96.8173 72.695 96.3473 72.695ZM101.614 83.075C100.854 83.075 100.169 82.905 99.5585 82.565C98.9485 82.215 98.4685 81.735 98.1185 81.125C97.7685 80.515 97.5935 79.825 97.5935 79.055C97.5935 78.285 97.7685 77.595 98.1185 76.985C98.4685 76.375 98.9485 75.9 99.5585 75.56C100.169 75.22 100.854 75.05 101.614 75.05C102.374 75.05 103.059 75.22 103.669 75.56C104.279 75.9 104.754 76.375 105.094 76.985C105.444 77.595 105.619 78.285 105.619 79.055C105.619 79.825 105.444 80.515 105.094 81.125C104.754 81.735 104.279 82.215 103.669 82.565C103.059 82.905 102.374 83.075 101.614 83.075ZM101.614 82.13C102.174 82.13 102.674 82.005 103.114 81.755C103.564 81.495 103.914 81.13 104.164 80.66C104.414 80.19 104.539 79.655 104.539 79.055C104.539 78.455 104.414 77.92 104.164 77.45C103.914 76.98 103.564 76.62 103.114 76.37C102.674 76.11 102.174 75.98 101.614 75.98C101.054 75.98 100.549 76.11 100.099 76.37C99.6585 76.62 99.3085 76.98 99.0485 77.45C98.7985 77.92 98.6735 78.455 98.6735 79.055C98.6735 79.655 98.7985 80.19 99.0485 80.66C99.3085 81.13 99.6585 81.495 100.099 81.755C100.549 82.005 101.054 82.13 101.614 82.13ZM108.513 76.655C108.763 76.125 109.133 75.725 109.623 75.455C110.123 75.185 110.738 75.05 111.468 75.05V76.085L111.213 76.07C110.383 76.07 109.733 76.325 109.263 76.835C108.793 77.345 108.558 78.06 108.558 78.98V83H107.493V75.11H108.513V76.655ZM119.599 75.05C120.629 75.05 121.419 75.31 121.969 75.83C122.519 76.34 122.794 77.1 122.794 78.11V83H121.774V81.77C121.534 82.18 121.179 82.5 120.709 82.73C120.249 82.96 119.699 83.075 119.059 83.075C118.179 83.075 117.479 82.865 116.959 82.445C116.439 82.025 116.179 81.47 116.179 80.78C116.179 80.11 116.419 79.57 116.899 79.16C117.389 78.75 118.164 78.545 119.224 78.545H121.729V78.065C121.729 77.385 121.539 76.87 121.159 76.52C120.779 76.16 120.224 75.98 119.494 75.98C118.994 75.98 118.514 76.065 118.054 76.235C117.594 76.395 117.199 76.62 116.869 76.91L116.389 76.115C116.789 75.775 117.269 75.515 117.829 75.335C118.389 75.145 118.979 75.05 119.599 75.05ZM119.224 82.235C119.824 82.235 120.339 82.1 120.769 81.83C121.199 81.55 121.519 81.15 121.729 80.63V79.34H119.254C117.904 79.34 117.229 79.81 117.229 80.75C117.229 81.21 117.404 81.575 117.754 81.845C118.104 82.105 118.594 82.235 119.224 82.235ZM13.065 96.11L10.08 104H9.075L6.585 97.535L4.095 104H3.09L0.12 96.11H1.14L3.615 102.815L6.15 96.11H7.065L9.585 102.815L12.09 96.11H13.065ZM21.0189 100.385H14.4189C14.4789 101.205 14.7939 101.87 15.3639 102.38C15.9339 102.88 16.6539 103.13 17.5239 103.13C18.0139 103.13 18.4639 103.045 18.8739 102.875C19.2839 102.695 19.6389 102.435 19.9389 102.095L20.5389 102.785C20.1889 103.205 19.7489 103.525 19.2189 103.745C18.6989 103.965 18.1239 104.075 17.4939 104.075C16.6839 104.075 15.9639 103.905 15.3339 103.565C14.7139 103.215 14.2289 102.735 13.8789 102.125C13.5289 101.515 13.3539 100.825 13.3539 100.055C13.3539 99.285 13.5189 98.595 13.8489 97.985C14.1889 97.375 14.6489 96.9 15.2289 96.56C15.8189 96.22 16.4789 96.05 17.2089 96.05C17.9389 96.05 18.5939 96.22 19.1739 96.56C19.7539 96.9 20.2089 97.375 20.5389 97.985C20.8689 98.585 21.0339 99.275 21.0339 100.055L21.0189 100.385ZM17.2089 96.965C16.4489 96.965 15.8089 97.21 15.2889 97.7C14.7789 98.18 14.4889 98.81 14.4189 99.59H20.0139C19.9439 98.81 19.6489 98.18 19.1289 97.7C18.6189 97.21 17.9789 96.965 17.2089 96.965ZM30.1016 92.87V104H29.0816V102.44C28.7616 102.97 28.3366 103.375 27.8066 103.655C27.2866 103.935 26.6966 104.075 26.0366 104.075C25.2966 104.075 24.6266 103.905 24.0266 103.565C23.4266 103.225 22.9566 102.75 22.6166 102.14C22.2766 101.53 22.1066 100.835 22.1066 100.055C22.1066 99.275 22.2766 98.58 22.6166 97.97C22.9566 97.36 23.4266 96.89 24.0266 96.56C24.6266 96.22 25.2966 96.05 26.0366 96.05C26.6766 96.05 27.2516 96.185 27.7616 96.455C28.2816 96.715 28.7066 97.1 29.0366 97.61V92.87H30.1016ZM26.1266 103.13C26.6766 103.13 27.1716 103.005 27.6116 102.755C28.0616 102.495 28.4116 102.13 28.6616 101.66C28.9216 101.19 29.0516 100.655 29.0516 100.055C29.0516 99.455 28.9216 98.92 28.6616 98.45C28.4116 97.98 28.0616 97.62 27.6116 97.37C27.1716 97.11 26.6766 96.98 26.1266 96.98C25.5666 96.98 25.0616 97.11 24.6116 97.37C24.1716 97.62 23.8216 97.98 23.5616 98.45C23.3116 98.92 23.1866 99.455 23.1866 100.055C23.1866 100.655 23.3116 101.19 23.5616 101.66C23.8216 102.13 24.1716 102.495 24.6116 102.755C25.0616 103.005 25.5666 103.13 26.1266 103.13ZM39.9676 92.87V104H38.9476V102.44C38.6276 102.97 38.2026 103.375 37.6726 103.655C37.1526 103.935 36.5626 104.075 35.9026 104.075C35.1626 104.075 34.4926 103.905 33.8926 103.565C33.2926 103.225 32.8226 102.75 32.4826 102.14C32.1426 101.53 31.9726 100.835 31.9726 100.055C31.9726 99.275 32.1426 98.58 32.4826 97.97C32.8226 97.36 33.2926 96.89 33.8926 96.56C34.4926 96.22 35.1626 96.05 35.9026 96.05C36.5426 96.05 37.1176 96.185 37.6276 96.455C38.1476 96.715 38.5726 97.1 38.9026 97.61V92.87H39.9676ZM35.9926 103.13C36.5426 103.13 37.0376 103.005 37.4776 102.755C37.9276 102.495 38.2776 102.13 38.5276 101.66C38.7876 101.19 38.9176 100.655 38.9176 100.055C38.9176 99.455 38.7876 98.92 38.5276 98.45C38.2776 97.98 37.9276 97.62 37.4776 97.37C37.0376 97.11 36.5426 96.98 35.9926 96.98C35.4326 96.98 34.9276 97.11 34.4776 97.37C34.0376 97.62 33.6876 97.98 33.4276 98.45C33.1776 98.92 33.0526 99.455 33.0526 100.055C33.0526 100.655 33.1776 101.19 33.4276 101.66C33.6876 102.13 34.0376 102.495 34.4776 102.755C34.9276 103.005 35.4326 103.13 35.9926 103.13ZM42.6336 96.11H43.6986V104H42.6336V96.11ZM43.1736 94.385C42.9536 94.385 42.7686 94.31 42.6186 94.16C42.4686 94.01 42.3936 93.83 42.3936 93.62C42.3936 93.42 42.4686 93.245 42.6186 93.095C42.7686 92.945 42.9536 92.87 43.1736 92.87C43.3936 92.87 43.5786 92.945 43.7286 93.095C43.8786 93.235 43.9536 93.405 43.9536 93.605C43.9536 93.825 43.8786 94.01 43.7286 94.16C43.5786 94.31 43.3936 94.385 43.1736 94.385ZM50.382 96.05C51.372 96.05 52.157 96.34 52.737 96.92C53.327 97.49 53.622 98.325 53.622 99.425V104H52.557V99.53C52.557 98.71 52.352 98.085 51.942 97.655C51.532 97.225 50.947 97.01 50.187 97.01C49.337 97.01 48.662 97.265 48.162 97.775C47.672 98.275 47.427 98.97 47.427 99.86V104H46.362V96.11H47.382V97.565C47.672 97.085 48.072 96.715 48.582 96.455C49.102 96.185 49.702 96.05 50.382 96.05ZM63.5476 96.11V103.04C63.5476 104.38 63.2176 105.37 62.5576 106.01C61.9076 106.66 60.9226 106.985 59.6026 106.985C58.8726 106.985 58.1776 106.875 57.5176 106.655C56.8676 106.445 56.3376 106.15 55.9276 105.77L56.4676 104.96C56.8476 105.3 57.3076 105.565 57.8476 105.755C58.3976 105.945 58.9726 106.04 59.5726 106.04C60.5726 106.04 61.3076 105.805 61.7776 105.335C62.2476 104.875 62.4826 104.155 62.4826 103.175V102.17C62.1526 102.67 61.7176 103.05 61.1776 103.31C60.6476 103.57 60.0576 103.7 59.4076 103.7C58.6676 103.7 57.9926 103.54 57.3826 103.22C56.7826 102.89 56.3076 102.435 55.9576 101.855C55.6176 101.265 55.4476 100.6 55.4476 99.86C55.4476 99.12 55.6176 98.46 55.9576 97.88C56.3076 97.3 56.7826 96.85 57.3826 96.53C57.9826 96.21 58.6576 96.05 59.4076 96.05C60.0776 96.05 60.6826 96.185 61.2226 96.455C61.7626 96.725 62.1976 97.115 62.5276 97.625V96.11H63.5476ZM59.5126 102.755C60.0826 102.755 60.5976 102.635 61.0576 102.395C61.5176 102.145 61.8726 101.8 62.1226 101.36C62.3826 100.92 62.5126 100.42 62.5126 99.86C62.5126 99.3 62.3826 98.805 62.1226 98.375C61.8726 97.935 61.5176 97.595 61.0576 97.355C60.6076 97.105 60.0926 96.98 59.5126 96.98C58.9426 96.98 58.4276 97.1 57.9676 97.34C57.5176 97.58 57.1626 97.92 56.9026 98.36C56.6526 98.8 56.5276 99.3 56.5276 99.86C56.5276 100.42 56.6526 100.92 56.9026 101.36C57.1626 101.8 57.5176 102.145 57.9676 102.395C58.4276 102.635 58.9426 102.755 59.5126 102.755ZM66.3458 102.44C66.5758 102.44 66.7658 102.52 66.9158 102.68C67.0658 102.83 67.1408 103.02 67.1408 103.25C67.1408 103.37 67.1208 103.5 67.0808 103.64C67.0508 103.78 67.0008 103.94 66.9308 104.12L66.3008 106.19H65.5808L66.0908 104.015C65.9308 103.965 65.8008 103.875 65.7008 103.745C65.6008 103.605 65.5508 103.44 65.5508 103.25C65.5508 103.02 65.6258 102.83 65.7758 102.68C65.9258 102.52 66.1158 102.44 66.3458 102.44ZM79.5403 101.195H73.6903L72.4303 104H71.2753L76.0753 93.5H77.1703L81.9703 104H80.8003L79.5403 101.195ZM79.1353 100.295L76.6153 94.655L74.0953 100.295H79.1353ZM87.2023 96.05C88.1923 96.05 88.9773 96.34 89.5573 96.92C90.1473 97.49 90.4423 98.325 90.4423 99.425V104H89.3773V99.53C89.3773 98.71 89.1723 98.085 88.7623 97.655C88.3523 97.225 87.7673 97.01 87.0073 97.01C86.1573 97.01 85.4823 97.265 84.9823 97.775C84.4923 98.275 84.2473 98.97 84.2473 99.86V104H83.1823V96.11H84.2023V97.565C84.4923 97.085 84.8923 96.715 85.4023 96.455C85.9223 96.185 86.5223 96.05 87.2023 96.05ZM100.263 92.87V104H99.2429V102.44C98.9229 102.97 98.4979 103.375 97.9679 103.655C97.4479 103.935 96.8579 104.075 96.1979 104.075C95.4579 104.075 94.7879 103.905 94.1879 103.565C93.5879 103.225 93.1179 102.75 92.7779 102.14C92.4379 101.53 92.2679 100.835 92.2679 100.055C92.2679 99.275 92.4379 98.58 92.7779 97.97C93.1179 97.36 93.5879 96.89 94.1879 96.56C94.7879 96.22 95.4579 96.05 96.1979 96.05C96.8379 96.05 97.4129 96.185 97.9229 96.455C98.4429 96.715 98.8679 97.1 99.1979 97.61V92.87H100.263ZM96.2879 103.13C96.8379 103.13 97.3329 103.005 97.7729 102.755C98.2229 102.495 98.5729 102.13 98.8229 101.66C99.0829 101.19 99.2129 100.655 99.2129 100.055C99.2129 99.455 99.0829 98.92 98.8229 98.45C98.5729 97.98 98.2229 97.62 97.7729 97.37C97.3329 97.11 96.8379 96.98 96.2879 96.98C95.7279 96.98 95.2229 97.11 94.7729 97.37C94.3329 97.62 93.9829 97.98 93.7229 98.45C93.4729 98.92 93.3479 99.455 93.3479 100.055C93.3479 100.655 93.4729 101.19 93.7229 101.66C93.9829 102.13 94.3329 102.495 94.7729 102.755C95.2229 103.005 95.7279 103.13 96.2879 103.13ZM109.165 93.695C108.705 93.695 108.355 93.82 108.115 94.07C107.885 94.32 107.77 94.69 107.77 95.18V96.11H110.2V97.01H107.8V104H106.735V97.01H105.325V96.11H106.735V95.135C106.735 94.415 106.94 93.845 107.35 93.425C107.77 93.005 108.36 92.795 109.12 92.795C109.42 92.795 109.71 92.84 109.99 92.93C110.27 93.01 110.505 93.13 110.695 93.29L110.335 94.085C110.025 93.825 109.635 93.695 109.165 93.695ZM114.431 104.075C113.671 104.075 112.986 103.905 112.376 103.565C111.766 103.215 111.286 102.735 110.936 102.125C110.586 101.515 110.411 100.825 110.411 100.055C110.411 99.285 110.586 98.595 110.936 97.985C111.286 97.375 111.766 96.9 112.376 96.56C112.986 96.22 113.671 96.05 114.431 96.05C115.191 96.05 115.876 96.22 116.486 96.56C117.096 96.9 117.571 97.375 117.911 97.985C118.261 98.595 118.436 99.285 118.436 100.055C118.436 100.825 118.261 101.515 117.911 102.125C117.571 102.735 117.096 103.215 116.486 103.565C115.876 103.905 115.191 104.075 114.431 104.075ZM114.431 103.13C114.991 103.13 115.491 103.005 115.931 102.755C116.381 102.495 116.731 102.13 116.981 101.66C117.231 101.19 117.356 100.655 117.356 100.055C117.356 99.455 117.231 98.92 116.981 98.45C116.731 97.98 116.381 97.62 115.931 97.37C115.491 97.11 114.991 96.98 114.431 96.98C113.871 96.98 113.366 97.11 112.916 97.37C112.476 97.62 112.126 97.98 111.866 98.45C111.616 98.92 111.491 99.455 111.491 100.055C111.491 100.655 111.616 101.19 111.866 101.66C112.126 102.13 112.476 102.495 112.916 102.755C113.366 103.005 113.871 103.13 114.431 103.13ZM127.42 96.11V104H126.4V102.56C126.12 103.04 125.735 103.415 125.245 103.685C124.755 103.945 124.195 104.075 123.565 104.075C122.535 104.075 121.72 103.79 121.12 103.22C120.53 102.64 120.235 101.795 120.235 100.685V96.11H121.3V100.58C121.3 101.41 121.505 102.04 121.915 102.47C122.325 102.9 122.91 103.115 123.67 103.115C124.5 103.115 125.155 102.865 125.635 102.365C126.115 101.855 126.355 101.15 126.355 100.25V96.11H127.42ZM131.123 97.655C131.373 97.125 131.743 96.725 132.233 96.455C132.733 96.185 133.348 96.05 134.078 96.05V97.085L133.823 97.07C132.993 97.07 132.343 97.325 131.873 97.835C131.403 98.345 131.168 99.06 131.168 99.98V104H130.103V96.11H131.123V97.655ZM142.059 93.695C141.599 93.695 141.249 93.82 141.009 94.07C140.779 94.32 140.664 94.69 140.664 95.18V96.11H143.094V97.01H140.694V104H139.629V97.01H138.219V96.11H139.629V95.135C139.629 94.415 139.834 93.845 140.244 93.425C140.664 93.005 141.254 92.795 142.014 92.795C142.314 92.795 142.604 92.84 142.884 92.93C143.164 93.01 143.399 93.13 143.589 93.29L143.229 94.085C142.919 93.825 142.529 93.695 142.059 93.695ZM147.325 104.075C146.565 104.075 145.88 103.905 145.27 103.565C144.66 103.215 144.18 102.735 143.83 102.125C143.48 101.515 143.305 100.825 143.305 100.055C143.305 99.285 143.48 98.595 143.83 97.985C144.18 97.375 144.66 96.9 145.27 96.56C145.88 96.22 146.565 96.05 147.325 96.05C148.085 96.05 148.77 96.22 149.38 96.56C149.99 96.9 150.465 97.375 150.805 97.985C151.155 98.595 151.33 99.285 151.33 100.055C151.33 100.825 151.155 101.515 150.805 102.125C150.465 102.735 149.99 103.215 149.38 103.565C148.77 103.905 148.085 104.075 147.325 104.075ZM147.325 103.13C147.885 103.13 148.385 103.005 148.825 102.755C149.275 102.495 149.625 102.13 149.875 101.66C150.125 101.19 150.25 100.655 150.25 100.055C150.25 99.455 150.125 98.92 149.875 98.45C149.625 97.98 149.275 97.62 148.825 97.37C148.385 97.11 147.885 96.98 147.325 96.98C146.765 96.98 146.26 97.11 145.81 97.37C145.37 97.62 145.02 97.98 144.76 98.45C144.51 98.92 144.385 99.455 144.385 100.055C144.385 100.655 144.51 101.19 144.76 101.66C145.02 102.13 145.37 102.495 145.81 102.755C146.26 103.005 146.765 103.13 147.325 103.13ZM154.225 97.655C154.475 97.125 154.845 96.725 155.335 96.455C155.835 96.185 156.45 96.05 157.18 96.05V97.085L156.925 97.07C156.095 97.07 155.445 97.325 154.975 97.835C154.505 98.345 154.27 99.06 154.27 99.98V104H153.205V96.11H154.225V97.655ZM8.685 113.87V125H7.665V123.44C7.345 123.97 6.92 124.375 6.39 124.655C5.87 124.935 5.28 125.075 4.62 125.075C3.88 125.075 3.21 124.905 2.61 124.565C2.01 124.225 1.54 123.75 1.2 123.14C0.86 122.53 0.69 121.835 0.69 121.055C0.69 120.275 0.86 119.58 1.2 118.97C1.54 118.36 2.01 117.89 2.61 117.56C3.21 117.22 3.88 117.05 4.62 117.05C5.26 117.05 5.835 117.185 6.345 117.455C6.865 117.715 7.29 118.1 7.62 118.61V113.87H8.685ZM4.71 124.13C5.26 124.13 5.755 124.005 6.195 123.755C6.645 123.495 6.995 123.13 7.245 122.66C7.505 122.19 7.635 121.655 7.635 121.055C7.635 120.455 7.505 119.92 7.245 119.45C6.995 118.98 6.645 118.62 6.195 118.37C5.755 118.11 5.26 117.98 4.71 117.98C4.15 117.98 3.645 118.11 3.195 118.37C2.755 118.62 2.405 118.98 2.145 119.45C1.895 119.92 1.77 120.455 1.77 121.055C1.77 121.655 1.895 122.19 2.145 122.66C2.405 123.13 2.755 123.495 3.195 123.755C3.645 124.005 4.15 124.13 4.71 124.13ZM18.221 121.385H11.621C11.681 122.205 11.996 122.87 12.566 123.38C13.136 123.88 13.856 124.13 14.726 124.13C15.216 124.13 15.666 124.045 16.076 123.875C16.486 123.695 16.841 123.435 17.141 123.095L17.741 123.785C17.391 124.205 16.951 124.525 16.421 124.745C15.901 124.965 15.326 125.075 14.696 125.075C13.886 125.075 13.166 124.905 12.536 124.565C11.916 124.215 11.431 123.735 11.081 123.125C10.731 122.515 10.556 121.825 10.556 121.055C10.556 120.285 10.721 119.595 11.051 118.985C11.391 118.375 11.851 117.9 12.431 117.56C13.021 117.22 13.681 117.05 14.411 117.05C15.141 117.05 15.796 117.22 16.376 117.56C16.956 117.9 17.411 118.375 17.741 118.985C18.071 119.585 18.236 120.275 18.236 121.055L18.221 121.385ZM14.411 117.965C13.651 117.965 13.011 118.21 12.491 118.7C11.981 119.18 11.691 119.81 11.621 120.59H17.216C17.146 119.81 16.851 119.18 16.331 118.7C15.821 118.21 15.181 117.965 14.411 117.965ZM22.644 117.05C23.674 117.05 24.464 117.31 25.014 117.83C25.564 118.34 25.839 119.1 25.839 120.11V125H24.819V123.77C24.579 124.18 24.224 124.5 23.754 124.73C23.294 124.96 22.744 125.075 22.104 125.075C21.224 125.075 20.524 124.865 20.004 124.445C19.484 124.025 19.224 123.47 19.224 122.78C19.224 122.11 19.464 121.57 19.944 121.16C20.434 120.75 21.209 120.545 22.269 120.545H24.774V120.065C24.774 119.385 24.584 118.87 24.204 118.52C23.824 118.16 23.269 117.98 22.539 117.98C22.039 117.98 21.559 118.065 21.099 118.235C20.639 118.395 20.244 118.62 19.914 118.91L19.434 118.115C19.834 117.775 20.314 117.515 20.874 117.335C21.434 117.145 22.024 117.05 22.644 117.05ZM22.269 124.235C22.869 124.235 23.384 124.1 23.814 123.83C24.244 123.55 24.564 123.15 24.774 122.63V121.34H22.299C20.949 121.34 20.274 121.81 20.274 122.75C20.274 123.21 20.449 123.575 20.799 123.845C21.149 124.105 21.639 124.235 22.269 124.235ZM32.5867 124.52C32.3867 124.7 32.1367 124.84 31.8367 124.94C31.5467 125.03 31.2417 125.075 30.9217 125.075C30.1817 125.075 29.6117 124.875 29.2117 124.475C28.8117 124.075 28.6117 123.51 28.6117 122.78V118.01H27.2017V117.11H28.6117V115.385H29.6767V117.11H32.0767V118.01H29.6767V122.72C29.6767 123.19 29.7917 123.55 30.0217 123.8C30.2617 124.04 30.6017 124.16 31.0417 124.16C31.2617 124.16 31.4717 124.125 31.6717 124.055C31.8817 123.985 32.0617 123.885 32.2117 123.755L32.5867 124.52ZM38.2454 117.05C39.2354 117.05 40.0204 117.34 40.6004 117.92C41.1904 118.49 41.4854 119.325 41.4854 120.425V125H40.4204V120.53C40.4204 119.71 40.2154 119.085 39.8054 118.655C39.3954 118.225 38.8104 118.01 38.0504 118.01C37.2004 118.01 36.5254 118.265 36.0254 118.775C35.5354 119.275 35.2904 119.97 35.2904 120.86V125H34.2254V113.87H35.2904V118.49C35.5804 118.03 35.9804 117.675 36.4904 117.425C37.0004 117.175 37.5854 117.05 38.2454 117.05Z" fill="#2A2921"/>
</svg>
