<svg width="169" height="136" viewBox="0 0 169 136" fill="none" xmlns="http://www.w3.org/2000/svg">
<path d="M4.24 18.9V28H1.48V13.8H3.62L11.02 23.12V13.82H13.78V28H11.54L4.24 18.9ZM19.2739 28.2C18.1939 28.2 17.3739 27.8533 16.8139 27.16C16.2539 26.4667 15.9739 25.44 15.9739 24.08V17.52H18.6539V23.5C18.6539 25.1133 19.2339 25.92 20.3939 25.92C20.9139 25.92 21.4139 25.7667 21.8939 25.46C22.3872 25.14 22.7872 24.66 23.0939 24.02V17.52H25.7739V24.92C25.7739 25.2 25.8206 25.4 25.9139 25.52C26.0206 25.64 26.1872 25.7067 26.4139 25.72V28C26.1472 28.0533 25.9206 28.0867 25.7339 28.1C25.5606 28.1133 25.4006 28.12 25.2539 28.12C24.7739 28.12 24.3806 28.0133 24.0739 27.8C23.7806 27.5733 23.6072 27.2667 23.5539 26.88L23.4939 26.04C23.0272 26.76 22.4272 27.3 21.6939 27.66C20.9606 28.02 20.1539 28.2 19.2739 28.2ZM34.2772 19.84C33.4639 19.8533 32.7372 20.0133 32.0972 20.32C31.4572 20.6133 30.9972 21.06 30.7172 21.66V28H28.0372V17.52H30.4972V19.76C30.6839 19.4 30.9039 19.08 31.1572 18.8C31.4105 18.5067 31.6839 18.2533 31.9772 18.04C32.2705 17.8267 32.5639 17.6667 32.8572 17.56C33.1639 17.44 33.4572 17.38 33.7372 17.38C33.8839 17.38 33.9905 17.38 34.0572 17.38C34.1372 17.38 34.2105 17.3867 34.2772 17.4V19.84ZM39.3316 28.2C38.4516 28.2 37.5916 28.06 36.7516 27.78C35.9116 27.5 35.1916 27.1 34.5916 26.58L35.5916 24.9C36.2316 25.3533 36.8516 25.7 37.4516 25.94C38.0649 26.1667 38.6716 26.28 39.2716 26.28C39.8049 26.28 40.2249 26.18 40.5316 25.98C40.8382 25.78 40.9916 25.4933 40.9916 25.12C40.9916 24.7467 40.8116 24.4733 40.4516 24.3C40.0916 24.1267 39.5049 23.9267 38.6916 23.7C38.0116 23.5133 37.4316 23.3333 36.9516 23.16C36.4716 22.9867 36.0849 22.7933 35.7916 22.58C35.4982 22.3533 35.2849 22.1 35.1516 21.82C35.0182 21.5267 34.9516 21.18 34.9516 20.78C34.9516 20.2467 35.0516 19.7667 35.2516 19.34C35.4649 18.9133 35.7582 18.5533 36.1316 18.26C36.5049 17.9533 36.9382 17.72 37.4316 17.56C37.9382 17.4 38.4849 17.32 39.0716 17.32C39.8582 17.32 40.5916 17.4333 41.2716 17.66C41.9649 17.8867 42.5982 18.2533 43.1716 18.76L42.0916 20.38C41.5582 19.98 41.0382 19.6867 40.5316 19.5C40.0382 19.3133 39.5449 19.22 39.0516 19.22C38.5982 19.22 38.2182 19.3133 37.9116 19.5C37.6049 19.6867 37.4516 19.9867 37.4516 20.4C37.4516 20.5867 37.4849 20.74 37.5516 20.86C37.6316 20.98 37.7516 21.0867 37.9116 21.18C38.0716 21.2733 38.2782 21.3667 38.5316 21.46C38.7982 21.54 39.1249 21.6267 39.5116 21.72C40.2316 21.9067 40.8449 22.0933 41.3516 22.28C41.8716 22.4667 42.2916 22.68 42.6116 22.92C42.9449 23.16 43.1849 23.44 43.3316 23.76C43.4916 24.0667 43.5716 24.44 43.5716 24.88C43.5716 25.9067 43.1916 26.72 42.4316 27.32C41.6716 27.9067 40.6382 28.2 39.3316 28.2ZM49.773 28.2C48.933 28.2 48.173 28.06 47.493 27.78C46.813 27.4867 46.233 27.0933 45.753 26.6C45.273 26.1067 44.8996 25.5333 44.633 24.88C44.3796 24.2267 44.253 23.54 44.253 22.82C44.253 22.0733 44.3796 21.3733 44.633 20.72C44.8863 20.0533 45.253 19.4733 45.733 18.98C46.213 18.4733 46.793 18.0733 47.473 17.78C48.1663 17.4867 48.9396 17.34 49.793 17.34C50.6463 17.34 51.4063 17.4867 52.073 17.78C52.753 18.0733 53.3263 18.4667 53.793 18.96C54.273 19.4533 54.633 20.0267 54.873 20.68C55.1263 21.3333 55.253 22.0133 55.253 22.72C55.253 22.8933 55.2463 23.06 55.233 23.22C55.233 23.38 55.2196 23.5133 55.193 23.62H47.093C47.133 24.0333 47.233 24.4 47.393 24.72C47.553 25.04 47.7596 25.3133 48.013 25.54C48.2663 25.7667 48.553 25.94 48.873 26.06C49.193 26.18 49.5263 26.24 49.873 26.24C50.4063 26.24 50.9063 26.1133 51.373 25.86C51.853 25.5933 52.1796 25.2467 52.353 24.82L54.653 25.46C54.2663 26.26 53.6463 26.92 52.793 27.44C51.953 27.9467 50.9463 28.2 49.773 28.2ZM52.493 21.88C52.4263 21.0933 52.133 20.4667 51.613 20C51.1063 19.52 50.4863 19.28 49.753 19.28C49.393 19.28 49.053 19.3467 48.733 19.48C48.4263 19.6 48.153 19.7733 47.913 20C47.673 20.2267 47.473 20.5 47.313 20.82C47.1663 21.14 47.0796 21.4933 47.053 21.88H52.493ZM62.7256 19.84C61.9123 19.8533 61.1856 20.0133 60.5456 20.32C59.9056 20.6133 59.4456 21.06 59.1656 21.66V28H56.4856V17.52H58.9456V19.76C59.1323 19.4 59.3523 19.08 59.6056 18.8C59.859 18.5067 60.1323 18.2533 60.4256 18.04C60.719 17.8267 61.0123 17.6667 61.3056 17.56C61.6123 17.44 61.9056 17.38 62.1856 17.38C62.3323 17.38 62.439 17.38 62.5056 17.38C62.5856 17.38 62.659 17.3867 62.7256 17.4V19.84ZM64.04 30.04C64.2667 30.1067 64.4867 30.1533 64.7 30.18C64.9133 30.22 65.0933 30.24 65.24 30.24C65.4133 30.24 65.5733 30.2067 65.72 30.14C65.8667 30.0733 66 29.9533 66.12 29.78C66.24 29.62 66.36 29.3933 66.48 29.1C66.6 28.8067 66.7267 28.44 66.86 28L62.72 17.52H65.48L68.32 25.68L70.84 17.52H73.36L68.96 30.08C68.7067 30.8133 68.2733 31.4133 67.66 31.88C67.0467 32.3467 66.2867 32.58 65.38 32.58C65.1667 32.58 64.9467 32.56 64.72 32.52C64.5067 32.4933 64.28 32.44 64.04 32.36V30.04ZM78.5339 28V13.8H84.8139C85.4672 13.8 86.0672 13.94 86.6139 14.22C87.1739 14.4867 87.6539 14.8467 88.0539 15.3C88.4539 15.74 88.7672 16.2467 88.9939 16.82C89.2206 17.38 89.3339 17.9467 89.3339 18.52C89.3339 19.44 89.1006 20.28 88.6339 21.04C88.1806 21.7867 87.5606 22.3267 86.7739 22.66L90.0139 28H86.9139L84.0139 23.24H81.2939V28H78.5339ZM81.2939 20.82H84.7539C85.0072 20.82 85.2406 20.76 85.4539 20.64C85.6806 20.52 85.8739 20.36 86.0339 20.16C86.1939 19.9467 86.3206 19.7 86.4139 19.42C86.5072 19.14 86.5539 18.84 86.5539 18.52C86.5539 18.1867 86.5006 17.88 86.3939 17.6C86.2872 17.32 86.1406 17.08 85.9539 16.88C85.7806 16.6667 85.5739 16.5067 85.3339 16.4C85.1072 16.28 84.8739 16.22 84.6339 16.22H81.2939V20.82ZM100.915 28H98.2347V22.12C98.2347 21.2933 98.0814 20.6867 97.7747 20.3C97.468 19.9 97.0347 19.7 96.4747 19.7C96.2347 19.7 95.9814 19.7533 95.7147 19.86C95.448 19.9667 95.1947 20.12 94.9547 20.32C94.7147 20.5067 94.4947 20.7333 94.2947 21C94.0947 21.2667 93.948 21.56 93.8547 21.88V28H91.1747V13.4H93.8547V19.46C94.2414 18.78 94.7614 18.26 95.4147 17.9C96.0814 17.5267 96.8147 17.34 97.6147 17.34C98.2947 17.34 98.848 17.46 99.2747 17.7C99.7014 17.9267 100.035 18.2333 100.275 18.62C100.515 19.0067 100.681 19.4467 100.775 19.94C100.868 20.4333 100.915 20.94 100.915 21.46V28ZM102.792 30.04C103.018 30.1067 103.238 30.1533 103.452 30.18C103.665 30.22 103.845 30.24 103.992 30.24C104.165 30.24 104.325 30.2067 104.472 30.14C104.618 30.0733 104.752 29.9533 104.872 29.78C104.992 29.62 105.112 29.3933 105.232 29.1C105.352 28.8067 105.478 28.44 105.612 28L101.472 17.52H104.232L107.072 25.68L109.592 17.52H112.112L107.712 30.08C107.458 30.8133 107.025 31.4133 106.412 31.88C105.798 32.3467 105.038 32.58 104.132 32.58C103.918 32.58 103.698 32.56 103.472 32.52C103.258 32.4933 103.032 32.44 102.792 32.36V30.04ZM129.448 28H126.768V22.12C126.768 21.28 126.621 20.6667 126.328 20.28C126.048 19.8933 125.654 19.7 125.148 19.7C124.614 19.7 124.114 19.9067 123.648 20.32C123.181 20.72 122.848 21.2467 122.648 21.9V28H119.968V22.12C119.968 21.28 119.821 20.6667 119.528 20.28C119.248 19.8933 118.854 19.7 118.348 19.7C117.828 19.7 117.328 19.9 116.848 20.3C116.381 20.7 116.048 21.2267 115.848 21.88V28H113.168V17.52H115.588V19.46C115.974 18.78 116.501 18.26 117.168 17.9C117.848 17.5267 118.621 17.34 119.488 17.34C120.368 17.34 121.048 17.5533 121.528 17.98C122.008 18.4067 122.314 18.9333 122.448 19.56C122.874 18.84 123.414 18.2933 124.068 17.92C124.721 17.5333 125.468 17.34 126.308 17.34C126.948 17.34 127.474 17.46 127.888 17.7C128.301 17.94 128.621 18.2533 128.848 18.64C129.074 19.0267 129.228 19.4667 129.308 19.96C129.401 20.4533 129.448 20.9533 129.448 21.46V28ZM136.241 28.2C135.401 28.2 134.641 28.06 133.961 27.78C133.281 27.4867 132.701 27.0933 132.221 26.6C131.741 26.1067 131.368 25.5333 131.101 24.88C130.848 24.2267 130.721 23.54 130.721 22.82C130.721 22.0733 130.848 21.3733 131.101 20.72C131.354 20.0533 131.721 19.4733 132.201 18.98C132.681 18.4733 133.261 18.0733 133.941 17.78C134.634 17.4867 135.408 17.34 136.261 17.34C137.114 17.34 137.874 17.4867 138.541 17.78C139.221 18.0733 139.794 18.4667 140.261 18.96C140.741 19.4533 141.101 20.0267 141.341 20.68C141.594 21.3333 141.721 22.0133 141.721 22.72C141.721 22.8933 141.714 23.06 141.701 23.22C141.701 23.38 141.688 23.5133 141.661 23.62H133.561C133.601 24.0333 133.701 24.4 133.861 24.72C134.021 25.04 134.228 25.3133 134.481 25.54C134.734 25.7667 135.021 25.94 135.341 26.06C135.661 26.18 135.994 26.24 136.341 26.24C136.874 26.24 137.374 26.1133 137.841 25.86C138.321 25.5933 138.648 25.2467 138.821 24.82L141.121 25.46C140.734 26.26 140.114 26.92 139.261 27.44C138.421 27.9467 137.414 28.2 136.241 28.2ZM138.961 21.88C138.894 21.0933 138.601 20.4667 138.081 20C137.574 19.52 136.954 19.28 136.221 19.28C135.861 19.28 135.521 19.3467 135.201 19.48C134.894 19.6 134.621 19.7733 134.381 20C134.141 20.2267 133.941 20.5 133.781 20.82C133.634 21.14 133.548 21.4933 133.521 21.88H138.961ZM146.914 28.2C146.034 28.2 145.174 28.06 144.334 27.78C143.494 27.5 142.774 27.1 142.174 26.58L143.174 24.9C143.814 25.3533 144.434 25.7 145.034 25.94C145.647 26.1667 146.254 26.28 146.854 26.28C147.387 26.28 147.807 26.18 148.114 25.98C148.42 25.78 148.574 25.4933 148.574 25.12C148.574 24.7467 148.394 24.4733 148.034 24.3C147.674 24.1267 147.087 23.9267 146.274 23.7C145.594 23.5133 145.014 23.3333 144.534 23.16C144.054 22.9867 143.667 22.7933 143.374 22.58C143.08 22.3533 142.867 22.1 142.734 21.82C142.6 21.5267 142.534 21.18 142.534 20.78C142.534 20.2467 142.634 19.7667 142.834 19.34C143.047 18.9133 143.34 18.5533 143.714 18.26C144.087 17.9533 144.52 17.72 145.014 17.56C145.52 17.4 146.067 17.32 146.654 17.32C147.44 17.32 148.174 17.4333 148.854 17.66C149.547 17.8867 150.18 18.2533 150.754 18.76L149.674 20.38C149.14 19.98 148.62 19.6867 148.114 19.5C147.62 19.3133 147.127 19.22 146.634 19.22C146.18 19.22 145.8 19.3133 145.494 19.5C145.187 19.6867 145.034 19.9867 145.034 20.4C145.034 20.5867 145.067 20.74 145.134 20.86C145.214 20.98 145.334 21.0867 145.494 21.18C145.654 21.2733 145.86 21.3667 146.114 21.46C146.38 21.54 146.707 21.6267 147.094 21.72C147.814 21.9067 148.427 22.0933 148.934 22.28C149.454 22.4667 149.874 22.68 150.194 22.92C150.527 23.16 150.767 23.44 150.914 23.76C151.074 24.0667 151.154 24.44 151.154 24.88C151.154 25.9067 150.774 26.72 150.014 27.32C149.254 27.9067 148.22 28.2 146.914 28.2Z" fill="#2A2921"/>
<path d="M5.775 51.35C2.775 51.35 0.9 53.525 0.9 56.825C0.9 60.275 2.55 62.15 5.475 62.15C8.4 62.15 10.425 59.9 10.425 56.6C10.425 53.375 8.7 51.35 5.775 51.35ZM5.7 52.625C7.65 52.625 8.7 53.975 8.7 56.675C8.7 59.525 7.5 60.875 5.55 60.875C3.6 60.875 2.625 59.45 2.625 56.75C2.625 53.9 3.75 52.625 5.7 52.625ZM14.0982 54.05L11.6232 54.125V54.95L12.8982 55.25V60.8L11.6232 61.175V62H15.3732V61.175L14.3982 60.8V56.375C14.3982 56.375 15.2982 55.175 16.5732 55.175C17.5482 55.175 17.9232 55.7 17.9232 56.75V60.8L16.9482 61.175V62H20.5482V61.175L19.4232 60.8V56.6C19.4232 54.95 18.6732 53.9 17.0232 53.9C15.7782 53.9 14.5932 54.8 14.2332 55.115L14.0982 54.05ZM28.0488 58.22C28.0488 58.22 28.1238 57.8 28.1238 57.425C28.1238 55.175 27.1488 53.9 24.9738 53.9C22.7988 53.9 21.2988 55.7 21.2988 58.1C21.2988 60.575 22.4988 62.15 24.8988 62.15C26.6988 62.15 28.0938 60.905 28.0938 60.905L27.5688 60.125C27.5688 60.125 26.5488 60.95 25.0488 60.95C23.7588 60.95 22.8738 59.9 22.8738 58.25L28.0488 58.22ZM22.9338 57.125C23.0238 56 23.6988 55.07 24.8988 55.07C26.0988 55.07 26.5338 56 26.5338 57.125H22.9338ZM33.6814 54.125L32.3314 54.275V55.25H33.6814V60.8L32.4064 61.175V62H36.6814V61.175L35.1814 60.8V55.25H37.1164L37.1614 54.125H35.1814V52.925C35.1814 52.025 35.4814 51.425 36.5314 51.425C37.0564 51.425 37.4314 51.5 37.4314 51.5L37.6564 52.7H38.7064V50.825C38.7064 50.825 37.8814 50.3 36.4564 50.3C34.6564 50.3 33.6814 51.425 33.6814 53.225V54.125ZM42.007 53.9C39.757 53.9 38.182 55.55 38.182 58.1C38.182 60.8 39.532 62.15 41.782 62.15C44.032 62.15 45.532 60.425 45.532 57.875C45.532 55.475 44.257 53.9 42.007 53.9ZM41.932 55.1C43.432 55.1 43.957 56.3 43.957 57.95C43.957 59.9 43.357 60.95 41.857 60.95C40.357 60.95 39.757 59.825 39.757 58.025C39.757 56.075 40.432 55.1 41.932 55.1ZM48.9117 54.05L46.4367 54.125V54.95L47.7117 55.25V60.8L46.4367 61.175V62H50.7117V61.175L49.2117 60.8V56.345C49.5417 55.91 50.2617 55.175 51.3867 55.175L51.6117 56.3H52.5867L52.6617 54.125C52.6617 54.125 52.0617 53.9 51.3117 53.9C50.2917 53.9 49.4217 54.725 49.0467 55.145L48.9117 54.05ZM57.4064 59.6H56.3564V61.82C56.3564 61.82 57.3464 62.15 58.7264 62.15C60.5264 62.15 62.0264 61.31 62.0264 59.585C62.0264 57.02 57.8414 57.635 57.8414 56.03C57.8414 55.265 58.4114 55.025 59.1764 55.025C59.9264 55.025 60.3914 55.205 60.3914 55.205L60.6314 56.375H61.6064L61.6514 54.35C61.6514 54.35 60.2714 53.9 59.0864 53.9C57.5414 53.9 56.3414 54.68 56.3414 56.24C56.3414 58.97 60.5264 58.22 60.5264 59.84C60.5264 60.77 59.7314 61.025 58.8314 61.025C58.0214 61.025 57.5714 60.89 57.5714 60.89L57.4064 59.6ZM66.8227 53.9C64.5727 53.9 62.9977 55.55 62.9977 58.1C62.9977 60.8 64.3477 62.15 66.5977 62.15C68.8477 62.15 70.3477 60.425 70.3477 57.875C70.3477 55.475 69.0727 53.9 66.8227 53.9ZM66.7477 55.1C68.2477 55.1 68.7727 56.3 68.7727 57.95C68.7727 59.9 68.1727 60.95 66.6727 60.95C65.1727 60.95 64.5727 59.825 64.5727 58.025C64.5727 56.075 65.2477 55.1 66.7477 55.1ZM73.7273 54.05L71.2523 54.125V54.95L72.5273 55.25V60.8L71.2523 61.175V62H75.5273V61.175L74.0273 60.8V56.345C74.3573 55.91 75.0773 55.175 76.2023 55.175L76.4273 56.3H77.4023L77.4773 54.125C77.4773 54.125 76.8773 53.9 76.1273 53.9C75.1073 53.9 74.2373 54.725 73.8623 55.145L73.7273 54.05ZM80.4 54.05L77.925 54.125V54.95L79.2 55.25V60.8L77.925 61.175V62H82.2V61.175L80.7 60.8V56.345C81.03 55.91 81.75 55.175 82.875 55.175L83.1 56.3H84.075L84.15 54.125C84.15 54.125 83.55 53.9 82.8 53.9C81.78 53.9 80.91 54.725 80.535 55.145L80.4 54.05ZM88.4227 53.9C86.1727 53.9 84.5977 55.55 84.5977 58.1C84.5977 60.8 85.9477 62.15 88.1977 62.15C90.4477 62.15 91.9477 60.425 91.9477 57.875C91.9477 55.475 90.6727 53.9 88.4227 53.9ZM88.3477 55.1C89.8477 55.1 90.3727 56.3 90.3727 57.95C90.3727 59.9 89.7727 60.95 88.2727 60.95C86.7727 60.95 86.1727 59.825 86.1727 58.025C86.1727 56.075 86.8477 55.1 88.3477 55.1ZM94.5041 55.1L95.6291 54.95V54.05L92.2541 54.125V54.95L93.0041 55.175L94.8791 62H96.6041L98.0291 57.35L98.3441 55.91L98.7041 57.35L100.129 62H101.854L103.684 55.1L104.554 54.95V54.05L101.179 54.125V54.95L102.229 55.175L101.029 60.65L99.1691 53.9L97.7441 54.125L95.7791 60.65L94.5041 55.1ZM105.38 61.055C105.38 61.58 105.725 61.85 105.725 62.15C105.725 62.69 104.93 63.74 104.93 63.74L105.605 64.31C106.655 63.185 107.33 62 107.33 61.16C107.33 60.32 106.88 60.05 106.355 60.05C105.77 60.05 105.38 60.485 105.38 61.055ZM113.107 62H117.682V61.1L116.182 60.8V52.7H118.132L118.507 54.2H119.482V51.5H111.307V54.2H112.282L112.657 52.7H114.607V60.8L113.107 61.1V62ZM121.663 55.1L122.788 54.95V54.05L119.413 54.125V54.95L120.163 55.175L122.038 62H123.763L125.188 57.35L125.503 55.91L125.863 57.35L127.288 62H129.013L130.843 55.1L131.713 54.95V54.05L128.338 54.125V54.95L129.388 55.175L128.188 60.65L126.328 53.9L124.903 54.125L122.938 60.65L121.663 55.1ZM135.841 53.9C133.591 53.9 132.016 55.55 132.016 58.1C132.016 60.8 133.366 62.15 135.616 62.15C137.866 62.15 139.366 60.425 139.366 57.875C139.366 55.475 138.091 53.9 135.841 53.9ZM135.766 55.1C137.266 55.1 137.791 56.3 137.791 57.95C137.791 59.9 137.191 60.95 135.691 60.95C134.191 60.95 133.591 59.825 133.591 58.025C133.591 56.075 134.266 55.1 135.766 55.1ZM144.853 54.125L143.503 54.275V55.25H144.853V60.8L143.578 61.175V62H147.853V61.175L146.353 60.8V55.25H148.288L148.333 54.125H146.353V52.925C146.353 52.025 146.653 51.425 147.703 51.425C148.228 51.425 148.603 51.5 148.603 51.5L148.828 52.7H149.878V50.825C149.878 50.825 149.053 50.3 147.628 50.3C145.828 50.3 144.853 51.425 144.853 53.225V54.125ZM153.179 53.9C150.929 53.9 149.354 55.55 149.354 58.1C149.354 60.8 150.704 62.15 152.954 62.15C155.204 62.15 156.704 60.425 156.704 57.875C156.704 55.475 155.429 53.9 153.179 53.9ZM153.104 55.1C154.604 55.1 155.129 56.3 155.129 57.95C155.129 59.9 154.529 60.95 153.029 60.95C151.529 60.95 150.929 59.825 150.929 58.025C150.929 56.075 151.604 55.1 153.104 55.1ZM160.083 54.05L157.608 54.125V54.95L158.883 55.25V60.8L157.608 61.175V62H161.883V61.175L160.383 60.8V56.345C160.713 55.91 161.433 55.175 162.558 55.175L162.783 56.3H163.758L163.833 54.125C163.833 54.125 163.233 53.9 162.483 53.9C161.463 53.9 160.593 54.725 160.218 55.145L160.083 54.05ZM3.075 75.05L0.6 75.125V75.95L1.875 76.25V81.8L0.6 82.175V83H4.35V82.175L3.375 81.8V77.375C3.375 77.375 4.2 76.175 5.475 76.175C6.45 76.175 6.75 76.7 6.75 77.75V81.8L5.775 82.175V83H9.225V82.175L8.25 81.8V77.375C8.25 77.375 9.075 76.175 10.35 76.175C11.325 76.175 11.625 76.7 11.625 77.75V81.8L10.65 82.175V83H14.25V82.175L13.125 81.8V77.6C13.125 75.95 12.45 74.9 10.8 74.9C9.42 74.9 8.205 75.995 8.01 76.19C7.665 75.41 7.005 74.9 5.925 74.9C4.695 74.9 3.555 75.785 3.21 76.115L3.075 75.05ZM15.982 72.575C15.982 73.25 16.357 73.625 16.957 73.625C17.407 73.625 17.932 73.25 17.932 72.575C17.932 71.825 17.557 71.525 16.957 71.525C16.432 71.525 15.982 71.9 15.982 72.575ZM18.907 82.175L17.782 81.8V75.05L15.007 75.125V75.95L16.282 76.25V81.8L15.007 82.175V83H18.907V82.175ZM22.2064 75.05L19.7314 75.125V75.95L21.0064 76.25V81.8L19.7314 82.175V83H24.0064V82.175L22.5064 81.8V77.345C22.8364 76.91 23.5564 76.175 24.6814 76.175L24.9064 77.3H25.8814L25.9564 75.125C25.9564 75.125 25.3564 74.9 24.6064 74.9C23.5864 74.9 22.7164 75.725 22.3414 76.145L22.2064 75.05ZM31.2791 75.125H29.1041V72.935L27.6041 73.235V75.125L26.1041 75.275V76.25H27.6041V80.975C27.6041 82.655 28.4291 83.15 29.3291 83.15C30.0791 83.15 30.7541 82.895 31.4291 82.4L31.0241 81.605C30.6341 81.815 30.2141 81.98 29.8541 81.98C29.4341 81.98 29.1041 81.755 29.1041 81.065V76.25H31.2791V75.125ZM34.5721 71.45L31.7971 71.525V72.35L33.0721 72.65V81.8L31.7971 82.175V83H35.5471V82.175L34.5721 81.8V77.375C34.5721 77.375 35.5171 76.175 36.7921 76.175C37.7671 76.175 38.0971 76.7 38.0971 77.75V81.815L37.1221 82.175V83H40.7221V82.175L39.5971 81.8V77.6C39.5971 75.95 38.8471 74.9 37.1971 74.9C36.0871 74.9 35.0371 75.59 34.5721 75.98V71.45ZM41.9279 82.055C41.9279 82.58 42.2729 82.85 42.2729 83.15C42.2729 83.69 41.4779 84.74 41.4779 84.74L42.1529 85.31C43.2029 84.185 43.8779 83 43.8779 82.16C43.8779 81.32 43.4279 81.05 42.9029 81.05C42.3179 81.05 41.9279 81.485 41.9279 82.055ZM49.6547 83H54.2297V82.1L52.7297 81.8V73.7H54.6797L55.0547 75.2H56.0297V72.5H47.8547V75.2H48.8297L49.2047 73.7H51.1547V81.8L49.6547 82.1V83ZM59.0361 71.45L56.2611 71.525V72.35L57.5361 72.65V81.8L56.2611 82.175V83H60.0111V82.175L59.0361 81.8V77.375C59.0361 77.375 59.9811 76.175 61.2561 76.175C62.2311 76.175 62.5611 76.7 62.5611 77.75V81.815L61.5861 82.175V83H65.1861V82.175L64.0611 81.8V77.6C64.0611 75.95 63.3111 74.9 61.6611 74.9C60.5511 74.9 59.5011 75.59 59.0361 75.98V71.45ZM68.417 75.05L65.942 75.125V75.95L67.217 76.25V81.8L65.942 82.175V83H70.217V82.175L68.717 81.8V77.345C69.047 76.91 69.767 76.175 70.892 76.175L71.117 77.3H72.092L72.167 75.125C72.167 75.125 71.567 74.9 70.817 74.9C69.797 74.9 68.927 75.725 68.552 76.145L68.417 75.05ZM79.3646 79.22C79.3646 79.22 79.4396 78.8 79.4396 78.425C79.4396 76.175 78.4646 74.9 76.2896 74.9C74.1146 74.9 72.6146 76.7 72.6146 79.1C72.6146 81.575 73.8146 83.15 76.2146 83.15C78.0146 83.15 79.4096 81.905 79.4096 81.905L78.8846 81.125C78.8846 81.125 77.8646 81.95 76.3646 81.95C75.0746 81.95 74.1896 80.9 74.1896 79.25L79.3646 79.22ZM74.2496 78.125C74.3396 77 75.0146 76.07 76.2146 76.07C77.4146 76.07 77.8496 77 77.8496 78.125H74.2496ZM87.3117 79.22C87.3117 79.22 87.3867 78.8 87.3867 78.425C87.3867 76.175 86.4117 74.9 84.2367 74.9C82.0617 74.9 80.5617 76.7 80.5617 79.1C80.5617 81.575 81.7617 83.15 84.1617 83.15C85.9617 83.15 87.3567 81.905 87.3567 81.905L86.8317 81.125C86.8317 81.125 85.8117 81.95 84.3117 81.95C83.0217 81.95 82.1367 80.9 82.1367 79.25L87.3117 79.22ZM82.1967 78.125C82.2867 77 82.9617 76.07 84.1617 76.07C85.3617 76.07 85.7967 77 85.7967 78.125H82.1967ZM92.9443 75.125L91.5943 75.275V76.25H92.9443V81.8L91.6693 82.175V83H95.9443V82.175L94.4443 81.8V76.25H96.3793L96.4243 75.125H94.4443V73.925C94.4443 73.025 94.7443 72.425 95.7943 72.425C96.3193 72.425 96.6943 72.5 96.6943 72.5L96.9193 73.7H97.9693V71.825C97.9693 71.825 97.1443 71.3 95.7193 71.3C93.9193 71.3 92.9443 72.425 92.9443 74.225V75.125ZM101.27 74.9C99.0199 74.9 97.4449 76.55 97.4449 79.1C97.4449 81.8 98.7949 83.15 101.045 83.15C103.295 83.15 104.795 81.425 104.795 78.875C104.795 76.475 103.52 74.9 101.27 74.9ZM101.195 76.1C102.695 76.1 103.22 77.3 103.22 78.95C103.22 80.9 102.62 81.95 101.12 81.95C99.6199 81.95 99.0199 80.825 99.0199 79.025C99.0199 77.075 99.6949 76.1 101.195 76.1ZM108.175 75.05L105.7 75.125V75.95L106.975 76.25V81.8L105.7 82.175V83H109.975V82.175L108.475 81.8V77.345C108.805 76.91 109.525 76.175 110.65 76.175L110.875 77.3H111.85L111.925 75.125C111.925 75.125 111.325 74.9 110.575 74.9C109.555 74.9 108.685 75.725 108.31 76.145L108.175 75.05ZM116.129 77.375H117.104L117.314 76.25C117.314 76.25 117.929 76.025 118.829 76.025C119.729 76.025 120.254 76.475 120.254 77.375V78.575H119.054C116.954 78.575 115.604 79.175 115.604 80.9C115.604 82.325 116.429 83.15 117.854 83.15C118.904 83.15 119.804 82.46 120.314 81.95L120.629 83L122.954 82.925V82.1L121.754 81.8V77.225C121.754 75.5 120.719 74.9 118.979 74.9C117.704 74.9 116.054 75.5 116.054 75.5L116.129 77.375ZM120.254 79.55V80.75C120.254 80.75 119.354 81.95 118.229 81.95C117.554 81.95 117.134 81.5 117.134 80.825C117.134 79.925 117.704 79.55 119.204 79.55H120.254ZM2.325 97.1L3.45 96.95V96.05L0.075 96.125V96.95L0.825 97.175L2.7 104H4.425L5.85 99.35L6.165 97.91L6.525 99.35L7.95 104H9.675L11.505 97.1L12.375 96.95V96.05L9 96.125V96.95L10.05 97.175L8.85 102.65L6.99 95.9L5.565 96.125L3.6 102.65L2.325 97.1ZM19.3547 100.22C19.3547 100.22 19.4297 99.8 19.4297 99.425C19.4297 97.175 18.4547 95.9 16.2797 95.9C14.1047 95.9 12.6047 97.7 12.6047 100.1C12.6047 102.575 13.8047 104.15 16.2047 104.15C18.0047 104.15 19.3997 102.905 19.3997 102.905L18.8747 102.125C18.8747 102.125 17.8547 102.95 16.3547 102.95C15.0647 102.95 14.1797 101.9 14.1797 100.25L19.3547 100.22ZM14.2397 99.125C14.3297 98 15.0047 97.07 16.2047 97.07C17.4047 97.07 17.8397 98 17.8397 99.125H14.2397ZM28.8018 103.1L27.5268 102.8V92.45L24.7518 92.525V93.35L26.0268 93.65V96.14C25.6368 96.005 25.1568 95.9 24.6018 95.9C21.9018 95.9 20.6268 97.7 20.6268 100.25C20.6268 102.575 21.6018 104.15 23.7768 104.15C24.9168 104.15 25.6968 103.58 26.1318 103.145L26.2518 104L28.8018 103.925V103.1ZM26.0268 101.825C26.0268 101.825 25.3518 102.95 24.0768 102.95C22.7268 102.95 22.2018 101.75 22.2018 100.1C22.2018 98.45 22.7118 97.1 24.4518 97.1C25.5018 97.1 26.0268 97.4 26.0268 97.4V101.825ZM37.7303 103.1L36.4553 102.8V92.45L33.6803 92.525V93.35L34.9553 93.65V96.14C34.5653 96.005 34.0853 95.9 33.5303 95.9C30.8303 95.9 29.5553 97.7 29.5553 100.25C29.5553 102.575 30.5303 104.15 32.7053 104.15C33.8453 104.15 34.6253 103.58 35.0603 103.145L35.1803 104L37.7303 103.925V103.1ZM34.9553 101.825C34.9553 101.825 34.2803 102.95 33.0053 102.95C31.6553 102.95 31.1303 101.75 31.1303 100.1C31.1303 98.45 31.6403 97.1 33.3803 97.1C34.4303 97.1 34.9553 97.4 34.9553 97.4V101.825ZM39.3838 93.575C39.3838 94.25 39.7588 94.625 40.3588 94.625C40.8088 94.625 41.3338 94.25 41.3338 93.575C41.3338 92.825 40.9588 92.525 40.3588 92.525C39.8338 92.525 39.3838 92.9 39.3838 93.575ZM42.3088 103.175L41.1838 102.8V96.05L38.4088 96.125V96.95L39.6838 97.25V102.8L38.4088 103.175V104H42.3088V103.175ZM45.6082 96.05L43.1332 96.125V96.95L44.4082 97.25V102.8L43.1332 103.175V104H46.8832V103.175L45.9082 102.8V98.375C45.9082 98.375 46.8082 97.175 48.0832 97.175C49.0582 97.175 49.4332 97.7 49.4332 98.75V102.8L48.4582 103.175V104H52.0582V103.175L50.9332 102.8V98.6C50.9332 96.95 50.1832 95.9 48.5332 95.9C47.2882 95.9 46.1032 96.8 45.7432 97.115L45.6082 96.05ZM60.6088 96.95V96.125L57.9838 96.185C57.9838 96.185 57.4588 95.9 56.4838 95.9C54.5338 95.9 53.1838 96.875 53.1838 98.825C53.1838 100.625 54.3388 101.15 54.3388 101.15C54.3388 101.15 53.5588 102.35 53.5588 102.845C53.5588 103.625 54.4588 103.7 54.4588 103.7C54.4588 103.7 52.8838 104.225 52.8838 105.575C52.8838 107.225 54.3838 107.75 56.4838 107.75C59.1088 107.75 60.3838 106.7 60.3838 105.05C60.3838 103.625 59.3338 102.875 57.3838 102.875H55.0588L55.1338 101.465C55.1338 101.465 55.5838 101.6 56.2588 101.6C58.2088 101.6 59.5588 100.7 59.5588 98.675C59.5588 97.7 59.1538 97.16 59.1538 97.16L60.6088 96.95ZM56.4088 96.95C57.5338 96.95 58.0588 97.625 58.0588 98.75C58.0588 100.025 57.5338 100.55 56.3338 100.55C55.2088 100.55 54.6838 99.8 54.6838 98.75C54.6838 97.55 55.2088 96.95 56.4088 96.95ZM57.0088 104C58.2088 104 58.9588 104.225 58.9588 105.2C58.9588 106.175 58.2088 106.625 56.7088 106.625C55.2838 106.625 54.3838 106.4 54.3838 105.35C54.3838 104.45 55.3588 104 55.3588 104H57.0088ZM61.7332 103.055C61.7332 103.58 62.0782 103.85 62.0782 104.15C62.0782 104.69 61.2832 105.74 61.2832 105.74L61.9582 106.31C63.0082 105.185 63.6832 104 63.6832 103.16C63.6832 102.32 63.2332 102.05 62.7082 102.05C62.1232 102.05 61.7332 102.485 61.7332 103.055ZM68.815 102.815L67.585 103.1V104H71.71V103.1L70.3 102.815L70.885 101.15H74.785L75.355 102.815L73.96 103.1V104H78.31V103.1L77.065 102.815L73.735 93.5L72.235 93.575L68.815 102.815ZM74.38 99.95H71.29L72.865 95.435L74.38 99.95ZM80.407 96.05L77.932 96.125V96.95L79.207 97.25V102.8L77.932 103.175V104H81.682V103.175L80.707 102.8V98.375C80.707 98.375 81.607 97.175 82.882 97.175C83.857 97.175 84.232 97.7 84.232 98.75V102.8L83.257 103.175V104H86.857V103.175L85.732 102.8V98.6C85.732 96.95 84.982 95.9 83.332 95.9C82.087 95.9 80.902 96.8 80.542 97.115L80.407 96.05ZM95.8576 103.1L94.5826 102.8V92.45L91.8076 92.525V93.35L93.0826 93.65V96.14C92.6926 96.005 92.2126 95.9 91.6576 95.9C88.9576 95.9 87.6826 97.7 87.6826 100.25C87.6826 102.575 88.6576 104.15 90.8326 104.15C91.9726 104.15 92.7526 103.58 93.1876 103.145L93.3076 104L95.8576 103.925V103.1ZM93.0826 101.825C93.0826 101.825 92.4076 102.95 91.1326 102.95C89.7826 102.95 89.2576 101.75 89.2576 100.1C89.2576 98.45 89.7676 97.1 91.5076 97.1C92.5576 97.1 93.0826 97.4 93.0826 97.4V101.825ZM101.118 96.125L99.7682 96.275V97.25H101.118V102.8L99.8432 103.175V104H104.118V103.175L102.618 102.8V97.25H104.553L104.598 96.125H102.618V94.925C102.618 94.025 102.918 93.425 103.968 93.425C104.493 93.425 104.868 93.5 104.868 93.5L105.093 94.7H106.143V92.825C106.143 92.825 105.318 92.3 103.893 92.3C102.093 92.3 101.118 93.425 101.118 95.225V96.125ZM109.444 95.9C107.194 95.9 105.619 97.55 105.619 100.1C105.619 102.8 106.969 104.15 109.219 104.15C111.469 104.15 112.969 102.425 112.969 99.875C112.969 97.475 111.694 95.9 109.444 95.9ZM109.369 97.1C110.869 97.1 111.394 98.3 111.394 99.95C111.394 101.9 110.794 102.95 109.294 102.95C107.794 102.95 107.194 101.825 107.194 100.025C107.194 98.075 107.869 97.1 109.369 97.1ZM122.648 103.1L121.373 102.8V96.05L118.598 96.125V96.95L119.873 97.25V101.69C119.873 101.69 118.973 102.875 117.698 102.875C116.723 102.875 116.348 102.365 116.348 101.315V96.05L113.573 96.125V96.95L114.848 97.25V101.465C114.848 103.115 115.598 104.15 117.248 104.15C118.478 104.15 119.663 103.265 120.023 102.95L120.173 104L122.648 103.925V103.1ZM125.804 96.05L123.329 96.125V96.95L124.604 97.25V102.8L123.329 103.175V104H127.604V103.175L126.104 102.8V98.345C126.434 97.91 127.154 97.175 128.279 97.175L128.504 98.3H129.479L129.554 96.125C129.554 96.125 128.954 95.9 128.204 95.9C127.184 95.9 126.314 96.725 125.939 97.145L125.804 96.05ZM134.584 96.125L133.234 96.275V97.25H134.584V102.8L133.309 103.175V104H137.584V103.175L136.084 102.8V97.25H138.019L138.064 96.125H136.084V94.925C136.084 94.025 136.384 93.425 137.434 93.425C137.959 93.425 138.334 93.5 138.334 93.5L138.559 94.7H139.609V92.825C139.609 92.825 138.784 92.3 137.359 92.3C135.559 92.3 134.584 93.425 134.584 95.225V96.125ZM142.91 95.9C140.66 95.9 139.085 97.55 139.085 100.1C139.085 102.8 140.435 104.15 142.685 104.15C144.935 104.15 146.435 102.425 146.435 99.875C146.435 97.475 145.16 95.9 142.91 95.9ZM142.835 97.1C144.335 97.1 144.86 98.3 144.86 99.95C144.86 101.9 144.26 102.95 142.76 102.95C141.26 102.95 140.66 101.825 140.66 100.025C140.66 98.075 141.335 97.1 142.835 97.1ZM149.814 96.05L147.339 96.125V96.95L148.614 97.25V102.8L147.339 103.175V104H151.614V103.175L150.114 102.8V98.345C150.444 97.91 151.164 97.175 152.289 97.175L152.514 98.3H153.489L153.564 96.125C153.564 96.125 152.964 95.9 152.214 95.9C151.194 95.9 150.324 96.725 149.949 97.145L149.814 96.05ZM8.85 124.1L7.575 123.8V113.45L4.8 113.525V114.35L6.075 114.65V117.14C5.685 117.005 5.205 116.9 4.65 116.9C1.95 116.9 0.675 118.7 0.675 121.25C0.675 123.575 1.65 125.15 3.825 125.15C4.965 125.15 5.745 124.58 6.18 124.145L6.3 125L8.85 124.925V124.1ZM6.075 122.825C6.075 122.825 5.4 123.95 4.125 123.95C2.775 123.95 2.25 122.75 2.25 121.1C2.25 119.45 2.76 118.1 4.5 118.1C5.55 118.1 6.075 118.4 6.075 118.4V122.825ZM16.2785 121.22C16.2785 121.22 16.3535 120.8 16.3535 120.425C16.3535 118.175 15.3785 116.9 13.2035 116.9C11.0285 116.9 9.52852 118.7 9.52852 121.1C9.52852 123.575 10.7285 125.15 13.1285 125.15C14.9285 125.15 16.3235 123.905 16.3235 123.905L15.7985 123.125C15.7985 123.125 14.7785 123.95 13.2785 123.95C11.9885 123.95 11.1035 122.9 11.1035 121.25L16.2785 121.22ZM11.1635 120.125C11.2535 119 11.9285 118.07 13.1285 118.07C14.3285 118.07 14.7635 119 14.7635 120.125H11.1635ZM17.9291 119.375H18.9041L19.1141 118.25C19.1141 118.25 19.7291 118.025 20.6291 118.025C21.5291 118.025 22.0541 118.475 22.0541 119.375V120.575H20.8541C18.7541 120.575 17.4041 121.175 17.4041 122.9C17.4041 124.325 18.2291 125.15 19.6541 125.15C20.7041 125.15 21.6041 124.46 22.1141 123.95L22.4291 125L24.7541 124.925V124.1L23.5541 123.8V119.225C23.5541 117.5 22.5191 116.9 20.7791 116.9C19.5041 116.9 17.8541 117.5 17.8541 117.5L17.9291 119.375ZM22.0541 121.55V122.75C22.0541 122.75 21.1541 123.95 20.0291 123.95C19.3541 123.95 18.9341 123.5 18.9341 122.825C18.9341 121.925 19.5041 121.55 21.0041 121.55H22.0541ZM30.3855 117.125H28.2105V114.935L26.7105 115.235V117.125L25.2105 117.275V118.25H26.7105V122.975C26.7105 124.655 27.5355 125.15 28.4355 125.15C29.1855 125.15 29.8605 124.895 30.5355 124.4L30.1305 123.605C29.7405 123.815 29.3205 123.98 28.9605 123.98C28.5405 123.98 28.2105 123.755 28.2105 123.065V118.25H30.3855V117.125ZM33.6785 113.45L30.9035 113.525V114.35L32.1785 114.65V123.8L30.9035 124.175V125H34.6535V124.175L33.6785 123.8V119.375C33.6785 119.375 34.6235 118.175 35.8985 118.175C36.8735 118.175 37.2035 118.7 37.2035 119.75V123.815L36.2285 124.175V125H39.8285V124.175L38.7035 123.8V119.6C38.7035 117.95 37.9535 116.9 36.3035 116.9C35.1935 116.9 34.1435 117.59 33.6785 117.98V113.45Z" fill="#2A2921"/>
</svg>
