<svg width="169" height="136" viewBox="0 0 169 136" fill="none" xmlns="http://www.w3.org/2000/svg">
<path d="M3.84 28V38H1.6V23.8H3.36L11.48 34.04V23.82H13.74V38H11.88L3.84 28ZM19.472 38.2C18.3787 38.2 17.552 37.8467 16.992 37.14C16.432 36.42 16.152 35.3533 16.152 33.94V27.54H18.352V33.5C18.352 35.38 19.0187 36.32 20.352 36.32C20.9787 36.32 21.572 36.1267 22.132 35.74C22.692 35.3533 23.1254 34.7933 23.432 34.06V27.54H25.632V35.4C25.632 35.6533 25.672 35.8333 25.752 35.94C25.8454 36.0467 26.0054 36.1067 26.232 36.12V38C26.0054 38.04 25.8187 38.0667 25.672 38.08C25.5254 38.0933 25.3854 38.1 25.252 38.1C24.852 38.1 24.512 37.9933 24.232 37.78C23.952 37.5533 23.8054 37.2667 23.792 36.92L23.752 35.88C23.2854 36.64 22.6787 37.22 21.932 37.62C21.1854 38.0067 20.3654 38.2 19.472 38.2ZM33.9195 29.44C33.0662 29.4667 32.3062 29.6667 31.6395 30.04C30.9862 30.4 30.5195 30.92 30.2395 31.6V38H28.0395V27.54H30.0795V29.88C30.4395 29.16 30.9062 28.5867 31.4795 28.16C32.0662 27.72 32.6929 27.48 33.3595 27.44C33.4929 27.44 33.5995 27.44 33.6795 27.44C33.7729 27.44 33.8529 27.4467 33.9195 27.46V29.44ZM38.92 38.2C38.08 38.2 37.24 38.0667 36.4 37.8C35.5733 37.52 34.86 37.1267 34.26 36.62L35.14 35.22C35.7667 35.6733 36.3867 36.02 37 36.26C37.6133 36.4867 38.24 36.6 38.88 36.6C39.5333 36.6 40.0467 36.4733 40.42 36.22C40.8067 35.9667 41 35.6067 41 35.14C41 34.7 40.7867 34.38 40.36 34.18C39.9333 33.98 39.2667 33.76 38.36 33.52C37.7067 33.3467 37.1467 33.18 36.68 33.02C36.2133 32.86 35.8333 32.6733 35.54 32.46C35.2467 32.2467 35.0333 32 34.9 31.72C34.7667 31.44 34.7 31.1 34.7 30.7C34.7 30.1667 34.8 29.6933 35 29.28C35.2133 28.8667 35.5 28.52 35.86 28.24C36.2333 27.9467 36.6667 27.7267 37.16 27.58C37.6533 27.4333 38.1867 27.36 38.76 27.36C39.5467 27.36 40.28 27.48 40.96 27.72C41.64 27.96 42.2467 28.3067 42.78 28.76L41.84 30.08C40.8667 29.3067 39.8333 28.92 38.74 28.92C38.18 28.92 37.7067 29.04 37.32 29.28C36.9467 29.5067 36.76 29.8733 36.76 30.38C36.76 30.5933 36.8 30.7733 36.88 30.92C36.96 31.0667 37.0867 31.1933 37.26 31.3C37.4467 31.4067 37.68 31.5067 37.96 31.6C38.2533 31.68 38.6133 31.7733 39.04 31.88C39.7467 32.0533 40.3533 32.2267 40.86 32.4C41.38 32.5733 41.8067 32.78 42.14 33.02C42.4733 33.2467 42.72 33.52 42.88 33.84C43.04 34.1467 43.12 34.52 43.12 34.96C43.12 35.96 42.74 36.7533 41.98 37.34C41.2333 37.9133 40.2133 38.2 38.92 38.2ZM49.3819 38.2C48.5685 38.2 47.8285 38.06 47.1619 37.78C46.4952 37.4867 45.9219 37.0933 45.4419 36.6C44.9752 36.1067 44.6085 35.5333 44.3419 34.88C44.0885 34.2267 43.9619 33.5333 43.9619 32.8C43.9619 32.0667 44.0885 31.3733 44.3419 30.72C44.6085 30.0533 44.9752 29.4733 45.4419 28.98C45.9219 28.4733 46.4952 28.08 47.1619 27.8C47.8285 27.5067 48.5752 27.36 49.4019 27.36C50.2152 27.36 50.9485 27.5067 51.6019 27.8C52.2685 28.0933 52.8352 28.4867 53.3019 28.98C53.7685 29.46 54.1219 30.0267 54.3619 30.68C54.6152 31.32 54.7419 31.9933 54.7419 32.7C54.7419 32.86 54.7352 33.0133 54.7219 33.16C54.7085 33.2933 54.6952 33.4067 54.6819 33.5H46.3019C46.3419 33.9667 46.4485 34.3867 46.6219 34.76C46.8085 35.1333 47.0419 35.46 47.3219 35.74C47.6152 36.0067 47.9419 36.2133 48.3019 36.36C48.6752 36.5067 49.0619 36.58 49.4619 36.58C49.7552 36.58 50.0419 36.5467 50.3219 36.48C50.6152 36.4 50.8819 36.2933 51.1219 36.16C51.3619 36.0133 51.5752 35.84 51.7619 35.64C51.9485 35.44 52.0952 35.22 52.2019 34.98L54.0819 35.52C53.7219 36.3067 53.1219 36.9533 52.2819 37.46C51.4552 37.9533 50.4885 38.2 49.3819 38.2ZM52.5619 31.98C52.5219 31.54 52.4085 31.1333 52.2219 30.76C52.0485 30.3867 51.8219 30.0733 51.5419 29.82C51.2619 29.5533 50.9352 29.3467 50.5619 29.2C50.1885 29.0533 49.7952 28.98 49.3819 28.98C48.9685 28.98 48.5752 29.0533 48.2019 29.2C47.8419 29.3467 47.5219 29.5533 47.2419 29.82C46.9619 30.0733 46.7352 30.3867 46.5619 30.76C46.3885 31.1333 46.2819 31.54 46.2419 31.98H52.5619ZM62.0164 29.44C61.1631 29.4667 60.4031 29.6667 59.7364 30.04C59.0831 30.4 58.6164 30.92 58.3364 31.6V38H56.1364V27.54H58.1764V29.88C58.5364 29.16 59.0031 28.5867 59.5764 28.16C60.1631 27.72 60.7897 27.48 61.4564 27.44C61.5897 27.44 61.6964 27.44 61.7764 27.44C61.8697 27.44 61.9497 27.4467 62.0164 27.46V29.44ZM63.5769 40.46C63.7769 40.5 63.9702 40.5333 64.1569 40.56C64.3569 40.5867 64.5169 40.6 64.6369 40.6C64.8102 40.6 64.9569 40.56 65.0769 40.48C65.2102 40.4133 65.3435 40.2867 65.4769 40.1C65.6102 39.9133 65.7435 39.6467 65.8769 39.3C66.0235 38.9667 66.1902 38.5333 66.3769 38L62.0769 27.54H64.3369L67.5769 36.06L70.4569 27.54H72.5369L67.7969 40.42C67.5835 41.02 67.2102 41.52 66.6769 41.92C66.1569 42.3333 65.4835 42.54 64.6569 42.54C64.4969 42.54 64.3302 42.5267 64.1569 42.5C63.9835 42.4867 63.7902 42.4467 63.5769 42.38V40.46ZM78.0289 38V23.8H84.2089C84.8489 23.8 85.4356 23.9333 85.9689 24.2C86.5156 24.4667 86.9822 24.82 87.3689 25.26C87.7556 25.6867 88.0556 26.18 88.2689 26.74C88.4956 27.2867 88.6089 27.8467 88.6089 28.42C88.6089 28.9 88.5422 29.36 88.4089 29.8C88.2756 30.24 88.0889 30.6467 87.8489 31.02C87.6089 31.3933 87.3156 31.72 86.9689 32C86.6222 32.2667 86.2422 32.4667 85.8289 32.6L89.1689 38H86.6289L83.5489 33.06H80.2689V38H78.0289ZM80.2689 31.08H84.1889C84.5089 31.08 84.7956 31.0133 85.0489 30.88C85.3156 30.7333 85.5422 30.54 85.7289 30.3C85.9156 30.0467 86.0622 29.76 86.1689 29.44C86.2756 29.12 86.3289 28.78 86.3289 28.42C86.3289 28.06 86.2622 27.72 86.1289 27.4C86.0089 27.08 85.8422 26.8 85.6289 26.56C85.4289 26.32 85.1889 26.1333 84.9089 26C84.6422 25.8533 84.3622 25.78 84.0689 25.78H80.2689V31.08ZM99.9516 38H97.7516V32.14C97.7516 31.18 97.5782 30.4733 97.2316 30.02C96.8982 29.5533 96.4116 29.32 95.7716 29.32C95.4649 29.32 95.1582 29.38 94.8516 29.5C94.5449 29.62 94.2516 29.7933 93.9716 30.02C93.7049 30.2333 93.4649 30.4933 93.2516 30.8C93.0382 31.0933 92.8782 31.42 92.7716 31.78V38H90.5716V23.4H92.7716V29.64C93.1716 28.92 93.7116 28.36 94.3916 27.96C95.0849 27.56 95.8382 27.36 96.6516 27.36C97.3049 27.36 97.8382 27.48 98.2516 27.72C98.6782 27.9467 99.0182 28.2533 99.2716 28.64C99.5249 29.0267 99.6982 29.48 99.7916 30C99.8982 30.5067 99.9516 31.0467 99.9516 31.62V38ZM102.192 40.46C102.392 40.5 102.585 40.5333 102.772 40.56C102.972 40.5867 103.132 40.6 103.252 40.6C103.425 40.6 103.572 40.56 103.692 40.48C103.825 40.4133 103.958 40.2867 104.092 40.1C104.225 39.9133 104.358 39.6467 104.492 39.3C104.638 38.9667 104.805 38.5333 104.992 38L100.692 27.54H102.952L106.192 36.06L109.072 27.54H111.152L106.412 40.42C106.198 41.02 105.825 41.52 105.292 41.92C104.772 42.3333 104.098 42.54 103.272 42.54C103.112 42.54 102.945 42.5267 102.772 42.5C102.598 42.4867 102.405 42.4467 102.192 42.38V40.46ZM128.369 38H126.169V32.14C126.169 31.1667 126.009 30.4533 125.689 30C125.369 29.5467 124.903 29.32 124.289 29.32C123.663 29.32 123.089 29.5533 122.569 30.02C122.063 30.4733 121.696 31.0667 121.469 31.8V38H119.269V32.14C119.269 31.1533 119.109 30.44 118.789 30C118.469 29.5467 118.009 29.32 117.409 29.32C116.783 29.32 116.209 29.5467 115.689 30C115.169 30.4533 114.796 31.0467 114.569 31.78V38H112.369V27.54H114.369V29.64C114.783 28.9067 115.323 28.3467 115.989 27.96C116.669 27.56 117.443 27.36 118.309 27.36C119.176 27.36 119.856 27.5867 120.349 28.04C120.856 28.4933 121.169 29.06 121.289 29.74C121.729 28.9667 122.283 28.38 122.949 27.98C123.616 27.5667 124.376 27.36 125.229 27.36C125.843 27.36 126.349 27.48 126.749 27.72C127.163 27.9467 127.489 28.2533 127.729 28.64C127.969 29.0267 128.136 29.48 128.229 30C128.323 30.5067 128.369 31.0467 128.369 31.62V38ZM135.244 38.2C134.431 38.2 133.691 38.06 133.024 37.78C132.358 37.4867 131.784 37.0933 131.304 36.6C130.838 36.1067 130.471 35.5333 130.204 34.88C129.951 34.2267 129.824 33.5333 129.824 32.8C129.824 32.0667 129.951 31.3733 130.204 30.72C130.471 30.0533 130.838 29.4733 131.304 28.98C131.784 28.4733 132.358 28.08 133.024 27.8C133.691 27.5067 134.438 27.36 135.264 27.36C136.078 27.36 136.811 27.5067 137.464 27.8C138.131 28.0933 138.698 28.4867 139.164 28.98C139.631 29.46 139.984 30.0267 140.224 30.68C140.478 31.32 140.604 31.9933 140.604 32.7C140.604 32.86 140.598 33.0133 140.584 33.16C140.571 33.2933 140.558 33.4067 140.544 33.5H132.164C132.204 33.9667 132.311 34.3867 132.484 34.76C132.671 35.1333 132.904 35.46 133.184 35.74C133.478 36.0067 133.804 36.2133 134.164 36.36C134.538 36.5067 134.924 36.58 135.324 36.58C135.618 36.58 135.904 36.5467 136.184 36.48C136.478 36.4 136.744 36.2933 136.984 36.16C137.224 36.0133 137.438 35.84 137.624 35.64C137.811 35.44 137.958 35.22 138.064 34.98L139.944 35.52C139.584 36.3067 138.984 36.9533 138.144 37.46C137.318 37.9533 136.351 38.2 135.244 38.2ZM138.424 31.98C138.384 31.54 138.271 31.1333 138.084 30.76C137.911 30.3867 137.684 30.0733 137.404 29.82C137.124 29.5533 136.798 29.3467 136.424 29.2C136.051 29.0533 135.658 28.98 135.244 28.98C134.831 28.98 134.438 29.0533 134.064 29.2C133.704 29.3467 133.384 29.5533 133.104 29.82C132.824 30.0733 132.598 30.3867 132.424 30.76C132.251 31.1333 132.144 31.54 132.104 31.98H138.424ZM145.799 38.2C144.959 38.2 144.119 38.0667 143.279 37.8C142.452 37.52 141.739 37.1267 141.139 36.62L142.019 35.22C142.646 35.6733 143.266 36.02 143.879 36.26C144.492 36.4867 145.119 36.6 145.759 36.6C146.412 36.6 146.926 36.4733 147.299 36.22C147.686 35.9667 147.879 35.6067 147.879 35.14C147.879 34.7 147.666 34.38 147.239 34.18C146.812 33.98 146.146 33.76 145.239 33.52C144.586 33.3467 144.026 33.18 143.559 33.02C143.092 32.86 142.712 32.6733 142.419 32.46C142.126 32.2467 141.912 32 141.779 31.72C141.646 31.44 141.579 31.1 141.579 30.7C141.579 30.1667 141.679 29.6933 141.879 29.28C142.092 28.8667 142.379 28.52 142.739 28.24C143.112 27.9467 143.546 27.7267 144.039 27.58C144.532 27.4333 145.066 27.36 145.639 27.36C146.426 27.36 147.159 27.48 147.839 27.72C148.519 27.96 149.126 28.3067 149.659 28.76L148.719 30.08C147.746 29.3067 146.712 28.92 145.619 28.92C145.059 28.92 144.586 29.04 144.199 29.28C143.826 29.5067 143.639 29.8733 143.639 30.38C143.639 30.5933 143.679 30.7733 143.759 30.92C143.839 31.0667 143.966 31.1933 144.139 31.3C144.326 31.4067 144.559 31.5067 144.839 31.6C145.132 31.68 145.492 31.7733 145.919 31.88C146.626 32.0533 147.232 32.2267 147.739 32.4C148.259 32.5733 148.686 32.78 149.019 33.02C149.352 33.2467 149.599 33.52 149.759 33.84C149.919 34.1467 149.999 34.52 149.999 34.96C149.999 35.96 149.619 36.7533 148.859 37.34C148.112 37.9133 147.092 38.2 145.799 38.2Z" fill="#2A2921"/>
<path d="M0.84 65.75C0.84 64 1.21 62.66 1.95 61.73C2.69 60.79 3.745 60.32 5.115 60.32C5.855 60.32 6.495 60.45 7.035 60.71C7.575 60.97 8.02 61.34 8.37 61.82C8.73 62.29 8.995 62.86 9.165 63.53C9.335 64.19 9.42 64.93 9.42 65.75C9.42 67.5 9.045 68.845 8.295 69.785C7.555 70.715 6.495 71.18 5.115 71.18C4.385 71.18 3.75 71.05 3.21 70.79C2.68 70.53 2.235 70.165 1.875 69.695C1.525 69.215 1.265 68.645 1.095 67.985C0.925 67.315 0.84 66.57 0.84 65.75ZM2.16 65.75C2.16 66.33 2.215 66.88 2.325 67.4C2.445 67.92 2.625 68.38 2.865 68.78C3.105 69.17 3.41 69.485 3.78 69.725C4.16 69.955 4.605 70.07 5.115 70.07C6.045 70.07 6.775 69.72 7.305 69.02C7.835 68.31 8.1 67.22 8.1 65.75C8.1 65.18 8.04 64.635 7.92 64.115C7.81 63.585 7.63 63.125 7.38 62.735C7.14 62.335 6.83 62.02 6.45 61.79C6.08 61.55 5.635 61.43 5.115 61.43C4.195 61.43 3.47 61.785 2.94 62.495C2.42 63.195 2.16 64.28 2.16 65.75ZM15.9239 71V66.725C15.9239 65.945 15.8089 65.36 15.5789 64.97C15.3589 64.57 14.9489 64.37 14.3489 64.37C13.8189 64.37 13.3789 64.515 13.0289 64.805C12.6889 65.085 12.4489 65.44 12.3089 65.87V71H11.1089V63.5H11.9489L12.1739 64.415H12.2339C12.4739 64.095 12.7939 63.835 13.1939 63.635C13.6039 63.425 14.0889 63.32 14.6489 63.32C15.0589 63.32 15.4189 63.37 15.7289 63.47C16.0389 63.56 16.2939 63.725 16.4939 63.965C16.7039 64.205 16.8589 64.53 16.9589 64.94C17.0689 65.34 17.1239 65.85 17.1239 66.47V71H15.9239ZM24.487 70.4C24.187 70.64 23.807 70.83 23.347 70.97C22.897 71.11 22.417 71.18 21.907 71.18C21.337 71.18 20.842 71.09 20.422 70.91C20.002 70.72 19.657 70.455 19.387 70.115C19.117 69.765 18.917 69.35 18.787 68.87C18.657 68.39 18.592 67.85 18.592 67.25C18.592 65.97 18.877 64.995 19.447 64.325C20.017 63.655 20.832 63.32 21.892 63.32C22.232 63.32 22.572 63.36 22.912 63.44C23.252 63.51 23.557 63.65 23.827 63.86C24.097 64.07 24.317 64.37 24.487 64.76C24.657 65.14 24.742 65.645 24.742 66.275C24.742 66.605 24.712 66.97 24.652 67.37H19.837C19.837 67.81 19.882 68.2 19.972 68.54C20.062 68.88 20.202 69.17 20.392 69.41C20.582 69.64 20.827 69.82 21.127 69.95C21.437 70.07 21.812 70.13 22.252 70.13C22.592 70.13 22.932 70.07 23.272 69.95C23.612 69.83 23.867 69.69 24.037 69.53L24.487 70.4ZM21.907 64.37C21.317 64.37 20.842 64.525 20.482 64.835C20.132 65.145 19.922 65.675 19.852 66.425H23.572C23.572 65.665 23.427 65.135 23.137 64.835C22.847 64.525 22.437 64.37 21.907 64.37ZM29.2032 63.5H30.3732V63.08C30.3732 62.62 30.4082 62.22 30.4782 61.88C30.5582 61.54 30.6832 61.265 30.8532 61.055C31.0232 60.835 31.2432 60.675 31.5132 60.575C31.7832 60.465 32.1182 60.41 32.5182 60.41C32.8382 60.41 33.1182 60.43 33.3582 60.47C33.6082 60.51 33.8682 60.585 34.1382 60.695L33.8682 61.7C33.6382 61.6 33.4182 61.535 33.2082 61.505C33.0082 61.475 32.8182 61.46 32.6382 61.46C32.3782 61.46 32.1732 61.5 32.0232 61.58C31.8832 61.66 31.7782 61.78 31.7082 61.94C31.6482 62.09 31.6082 62.28 31.5882 62.51C31.5782 62.73 31.5732 62.99 31.5732 63.29V63.5H33.5682V64.55H31.5732V71H30.3732V64.55H29.2032V63.5ZM33.9371 67.25C33.9371 65.98 34.2171 65.01 34.7771 64.34C35.3471 63.66 36.1621 63.32 37.2221 63.32C37.7821 63.32 38.2671 63.415 38.6771 63.605C39.0971 63.785 39.4421 64.05 39.7121 64.4C39.9821 64.74 40.1821 65.155 40.3121 65.645C40.4421 66.125 40.5071 66.66 40.5071 67.25C40.5071 68.52 40.2221 69.495 39.6521 70.175C39.0921 70.845 38.2821 71.18 37.2221 71.18C36.6621 71.18 36.1721 71.09 35.7521 70.91C35.3421 70.72 35.0021 70.455 34.7321 70.115C34.4621 69.765 34.2621 69.35 34.1321 68.87C34.0021 68.38 33.9371 67.84 33.9371 67.25ZM35.1821 67.25C35.1821 67.63 35.2171 67.995 35.2871 68.345C35.3671 68.695 35.4871 69 35.6471 69.26C35.8071 69.52 36.0171 69.73 36.2771 69.89C36.5371 70.05 36.8521 70.13 37.2221 70.13C38.5821 70.14 39.2621 69.18 39.2621 67.25C39.2621 66.86 39.2221 66.49 39.1421 66.14C39.0721 65.79 38.9571 65.485 38.7971 65.225C38.6371 64.965 38.4271 64.76 38.1671 64.61C37.9071 64.45 37.5921 64.37 37.2221 64.37C35.8621 64.36 35.1821 65.32 35.1821 67.25ZM45.6391 64.655C45.3391 64.555 45.0541 64.505 44.7841 64.505C44.3541 64.505 44.0141 64.625 43.7641 64.865C43.5141 65.095 43.3591 65.39 43.2991 65.75V71H42.0991V63.5H42.9391L43.1641 64.415H43.2241C43.4141 64.075 43.6391 63.815 43.8991 63.635C44.1691 63.445 44.5091 63.35 44.9191 63.35C45.2091 63.35 45.5341 63.4 45.8941 63.5L45.6391 64.655ZM53.8958 68.96C53.8958 68.66 53.8058 68.425 53.6258 68.255C53.4458 68.085 53.2208 67.945 52.9508 67.835C52.6908 67.715 52.4008 67.605 52.0808 67.505C51.7708 67.395 51.4808 67.26 51.2108 67.1C50.9508 66.93 50.7308 66.715 50.5508 66.455C50.3708 66.195 50.2808 65.845 50.2808 65.405C50.2808 64.685 50.4858 64.16 50.8958 63.83C51.3058 63.49 51.8758 63.32 52.6058 63.32C53.1458 63.32 53.5958 63.37 53.9558 63.47C54.3258 63.56 54.6458 63.67 54.9158 63.8L54.6308 64.79C54.4008 64.68 54.1208 64.585 53.7908 64.505C53.4708 64.415 53.1258 64.37 52.7558 64.37C52.3158 64.37 51.9908 64.445 51.7808 64.595C51.5808 64.745 51.4808 65.005 51.4808 65.375C51.4808 65.635 51.5708 65.84 51.7508 65.99C51.9308 66.13 52.1508 66.26 52.4108 66.38C52.6808 66.49 52.9708 66.6 53.2808 66.71C53.6008 66.82 53.8908 66.965 54.1508 67.145C54.4208 67.325 54.6458 67.555 54.8258 67.835C55.0058 68.105 55.0958 68.465 55.0958 68.915C55.0958 69.235 55.0408 69.535 54.9308 69.815C54.8308 70.095 54.6708 70.335 54.4508 70.535C54.2308 70.735 53.9558 70.89 53.6258 71C53.3058 71.12 52.9258 71.18 52.4858 71.18C51.9158 71.18 51.4308 71.125 51.0308 71.015C50.6308 70.905 50.2958 70.775 50.0258 70.625L50.3858 69.605C50.6158 69.735 50.9158 69.855 51.2858 69.965C51.6558 70.075 52.0308 70.13 52.4108 70.13C52.8408 70.13 53.1958 70.045 53.4758 69.875C53.7558 69.705 53.8958 69.4 53.8958 68.96ZM56.1893 67.25C56.1893 65.98 56.4693 65.01 57.0293 64.34C57.5993 63.66 58.4143 63.32 59.4743 63.32C60.0343 63.32 60.5193 63.415 60.9293 63.605C61.3493 63.785 61.6943 64.05 61.9643 64.4C62.2343 64.74 62.4343 65.155 62.5643 65.645C62.6943 66.125 62.7593 66.66 62.7593 67.25C62.7593 68.52 62.4743 69.495 61.9043 70.175C61.3443 70.845 60.5343 71.18 59.4743 71.18C58.9143 71.18 58.4243 71.09 58.0043 70.91C57.5943 70.72 57.2543 70.455 56.9843 70.115C56.7143 69.765 56.5143 69.35 56.3843 68.87C56.2543 68.38 56.1893 67.84 56.1893 67.25ZM57.4343 67.25C57.4343 67.63 57.4693 67.995 57.5393 68.345C57.6193 68.695 57.7393 69 57.8993 69.26C58.0593 69.52 58.2693 69.73 58.5293 69.89C58.7893 70.05 59.1043 70.13 59.4743 70.13C60.8343 70.14 61.5143 69.18 61.5143 67.25C61.5143 66.86 61.4743 66.49 61.3943 66.14C61.3243 65.79 61.2093 65.485 61.0493 65.225C60.8893 64.965 60.6793 64.76 60.4193 64.61C60.1593 64.45 59.8443 64.37 59.4743 64.37C58.1143 64.36 57.4343 65.32 57.4343 67.25ZM67.8913 64.655C67.5913 64.555 67.3063 64.505 67.0363 64.505C66.6063 64.505 66.2663 64.625 66.0163 64.865C65.7663 65.095 65.6113 65.39 65.5513 65.75V71H64.3513V63.5H65.1913L65.4163 64.415H65.4763C65.6663 64.075 65.8913 63.815 66.1513 63.635C66.4213 63.445 66.7613 63.35 67.1713 63.35C67.4613 63.35 67.7863 63.4 68.1463 63.5L67.8913 64.655ZM72.6889 64.655C72.3889 64.555 72.1039 64.505 71.8339 64.505C71.4039 64.505 71.0639 64.625 70.8139 64.865C70.5639 65.095 70.4089 65.39 70.3489 65.75V71H69.1489V63.5H69.9889L70.2139 64.415H70.2739C70.4639 64.075 70.6889 63.815 70.9489 63.635C71.2189 63.445 71.5589 63.35 71.9689 63.35C72.2589 63.35 72.5839 63.4 72.9439 63.5L72.6889 64.655ZM73.5266 67.25C73.5266 65.98 73.8066 65.01 74.3666 64.34C74.9366 63.66 75.7516 63.32 76.8116 63.32C77.3716 63.32 77.8566 63.415 78.2666 63.605C78.6866 63.785 79.0316 64.05 79.3016 64.4C79.5716 64.74 79.7716 65.155 79.9016 65.645C80.0316 66.125 80.0966 66.66 80.0966 67.25C80.0966 68.52 79.8116 69.495 79.2416 70.175C78.6816 70.845 77.8716 71.18 76.8116 71.18C76.2516 71.18 75.7616 71.09 75.3416 70.91C74.9316 70.72 74.5916 70.455 74.3216 70.115C74.0516 69.765 73.8516 69.35 73.7216 68.87C73.5916 68.38 73.5266 67.84 73.5266 67.25ZM74.7716 67.25C74.7716 67.63 74.8066 67.995 74.8766 68.345C74.9566 68.695 75.0766 69 75.2366 69.26C75.3966 69.52 75.6066 69.73 75.8666 69.89C76.1266 70.05 76.4416 70.13 76.8116 70.13C78.1716 70.14 78.8516 69.18 78.8516 67.25C78.8516 66.86 78.8116 66.49 78.7316 66.14C78.6616 65.79 78.5466 65.485 78.3866 65.225C78.2266 64.965 78.0166 64.76 77.7566 64.61C77.4966 64.45 77.1816 64.37 76.8116 64.37C75.4516 64.36 74.7716 65.32 74.7716 67.25ZM86.3875 63.5L88.1125 67.88L88.4875 69.32H88.5175L88.8025 67.85L90.1375 63.5H91.2775L88.7575 71.165H88.1725L86.2075 66.215L85.9225 64.985H85.8775L85.5775 66.23L83.6875 71.165H83.1025L80.4925 63.5H81.7975L83.2825 67.865L83.5375 69.32H83.5525L83.9125 67.835L85.5175 63.5H86.3875ZM90.9149 70.355C90.9149 70.115 90.9949 69.92 91.1549 69.77C91.3149 69.62 91.5199 69.545 91.7699 69.545C92.0799 69.545 92.3299 69.655 92.5199 69.875C92.7199 70.095 92.8199 70.415 92.8199 70.835C92.8199 71.195 92.7699 71.51 92.6699 71.78C92.5699 72.05 92.4399 72.28 92.2799 72.47C92.1199 72.67 91.9449 72.83 91.7549 72.95C91.5649 73.08 91.3749 73.175 91.1849 73.235L90.8099 72.65C91.1699 72.51 91.4349 72.29 91.6049 71.99C91.7849 71.7 91.8749 71.405 91.8749 71.105C91.7849 71.135 91.6999 71.15 91.6199 71.15C91.4199 71.15 91.2499 71.085 91.1099 70.955C90.9799 70.815 90.9149 70.615 90.9149 70.355ZM102.923 61.61H99.653V71H98.408V61.61H95.138V60.5H102.923V61.61ZM106.984 63.5L108.709 67.88L109.084 69.32H109.114L109.399 67.85L110.734 63.5H111.874L109.354 71.165H108.769L106.804 66.215L106.519 64.985H106.474L106.174 66.23L104.284 71.165H103.699L101.089 63.5H102.394L103.879 67.865L104.134 69.32H104.149L104.509 67.835L106.114 63.5H106.984ZM112.273 67.25C112.273 65.98 112.553 65.01 113.113 64.34C113.683 63.66 114.498 63.32 115.558 63.32C116.118 63.32 116.603 63.415 117.013 63.605C117.433 63.785 117.778 64.05 118.048 64.4C118.318 64.74 118.518 65.155 118.648 65.645C118.778 66.125 118.843 66.66 118.843 67.25C118.843 68.52 118.558 69.495 117.988 70.175C117.428 70.845 116.618 71.18 115.558 71.18C114.998 71.18 114.508 71.09 114.088 70.91C113.678 70.72 113.338 70.455 113.068 70.115C112.798 69.765 112.598 69.35 112.468 68.87C112.338 68.38 112.273 67.84 112.273 67.25ZM113.518 67.25C113.518 67.63 113.553 67.995 113.623 68.345C113.703 68.695 113.823 69 113.983 69.26C114.143 69.52 114.353 69.73 114.613 69.89C114.873 70.05 115.188 70.13 115.558 70.13C116.918 70.14 117.598 69.18 117.598 67.25C117.598 66.86 117.558 66.49 117.478 66.14C117.408 65.79 117.293 65.485 117.133 65.225C116.973 64.965 116.763 64.76 116.503 64.61C116.243 64.45 115.928 64.37 115.558 64.37C114.198 64.36 113.518 65.32 113.518 67.25ZM123.309 63.5H124.479V63.08C124.479 62.62 124.514 62.22 124.584 61.88C124.664 61.54 124.789 61.265 124.959 61.055C125.129 60.835 125.349 60.675 125.619 60.575C125.889 60.465 126.224 60.41 126.624 60.41C126.944 60.41 127.224 60.43 127.464 60.47C127.714 60.51 127.974 60.585 128.244 60.695L127.974 61.7C127.744 61.6 127.524 61.535 127.314 61.505C127.114 61.475 126.924 61.46 126.744 61.46C126.484 61.46 126.279 61.5 126.129 61.58C125.989 61.66 125.884 61.78 125.814 61.94C125.754 62.09 125.714 62.28 125.694 62.51C125.684 62.73 125.679 62.99 125.679 63.29V63.5H127.674V64.55H125.679V71H124.479V64.55H123.309V63.5ZM128.043 67.25C128.043 65.98 128.323 65.01 128.883 64.34C129.453 63.66 130.268 63.32 131.328 63.32C131.888 63.32 132.373 63.415 132.783 63.605C133.203 63.785 133.548 64.05 133.818 64.4C134.088 64.74 134.288 65.155 134.418 65.645C134.548 66.125 134.613 66.66 134.613 67.25C134.613 68.52 134.328 69.495 133.758 70.175C133.198 70.845 132.388 71.18 131.328 71.18C130.768 71.18 130.278 71.09 129.858 70.91C129.448 70.72 129.108 70.455 128.838 70.115C128.568 69.765 128.368 69.35 128.238 68.87C128.108 68.38 128.043 67.84 128.043 67.25ZM129.288 67.25C129.288 67.63 129.323 67.995 129.393 68.345C129.473 68.695 129.593 69 129.753 69.26C129.913 69.52 130.123 69.73 130.383 69.89C130.643 70.05 130.958 70.13 131.328 70.13C132.688 70.14 133.368 69.18 133.368 67.25C133.368 66.86 133.328 66.49 133.248 66.14C133.178 65.79 133.063 65.485 132.903 65.225C132.743 64.965 132.533 64.76 132.273 64.61C132.013 64.45 131.698 64.37 131.328 64.37C129.968 64.36 129.288 65.32 129.288 67.25ZM139.745 64.655C139.445 64.555 139.16 64.505 138.89 64.505C138.46 64.505 138.12 64.625 137.87 64.865C137.62 65.095 137.465 65.39 137.405 65.75V71H136.205V63.5H137.045L137.27 64.415H137.33C137.52 64.075 137.745 63.815 138.005 63.635C138.275 63.445 138.615 63.35 139.025 63.35C139.315 63.35 139.64 63.4 140 63.5L139.745 64.655ZM5.55 92V87.755C5.55 87.355 5.53 87.01 5.49 86.72C5.46 86.42 5.395 86.17 5.295 85.97C5.195 85.77 5.05 85.62 4.86 85.52C4.68 85.42 4.44 85.37 4.14 85.37C3.68 85.37 3.295 85.51 2.985 85.79C2.685 86.07 2.475 86.42 2.355 86.84V92H1.155V84.5H1.995L2.22 85.415H2.28C2.55 85.095 2.86 84.835 3.21 84.635C3.57 84.425 4.035 84.32 4.605 84.32C5.085 84.32 5.475 84.415 5.775 84.605C6.085 84.785 6.325 85.105 6.495 85.565C6.725 85.175 7.04 84.87 7.44 84.65C7.85 84.43 8.31 84.32 8.82 84.32C9.24 84.32 9.595 84.37 9.885 84.47C10.175 84.56 10.415 84.725 10.605 84.965C10.795 85.205 10.93 85.53 11.01 85.94C11.1 86.35 11.145 86.87 11.145 87.5V92H9.945V87.485C9.945 87.125 9.925 86.815 9.885 86.555C9.855 86.285 9.785 86.065 9.675 85.895C9.575 85.715 9.43 85.585 9.24 85.505C9.06 85.415 8.82 85.37 8.52 85.37C8.02 85.37 7.63 85.51 7.35 85.79C7.07 86.07 6.87 86.47 6.75 86.99V92H5.55ZM13.2829 84.5H14.4829V92H13.2829V84.5ZM13.0279 82.22C13.0279 81.99 13.1029 81.795 13.2529 81.635C13.4129 81.465 13.6129 81.38 13.8529 81.38C14.0929 81.38 14.2979 81.465 14.4679 81.635C14.6379 81.795 14.7229 81.99 14.7229 82.22C14.7229 82.45 14.6379 82.64 14.4679 82.79C14.2979 82.94 14.0929 83.015 13.8529 83.015C13.6129 83.015 13.4129 82.94 13.2529 82.79C13.1029 82.64 13.0279 82.45 13.0279 82.22ZM20.2815 85.655C19.9815 85.555 19.6965 85.505 19.4265 85.505C18.9965 85.505 18.6565 85.625 18.4065 85.865C18.1565 86.095 18.0015 86.39 17.9415 86.75V92H16.7415V84.5H17.5815L17.8065 85.415H17.8665C18.0565 85.075 18.2815 84.815 18.5415 84.635C18.8115 84.445 19.1515 84.35 19.5615 84.35C19.8515 84.35 20.1765 84.4 20.5365 84.5L20.2815 85.655ZM21.0033 84.5H22.1733V83.015L23.3733 82.67V84.5H25.4133V85.55H23.3733V89.705C23.3733 90.225 23.4383 90.595 23.5683 90.815C23.6983 91.025 23.9183 91.13 24.2283 91.13C24.4883 91.13 24.7083 91.105 24.8883 91.055C25.0683 90.995 25.2683 90.92 25.4883 90.83L25.7583 91.745C25.4883 91.875 25.1933 91.98 24.8733 92.06C24.5533 92.14 24.2083 92.18 23.8383 92.18C23.2283 92.18 22.7983 92.01 22.5483 91.67C22.2983 91.32 22.1733 90.74 22.1733 89.93V85.55H21.0033V84.5ZM31.5913 92V87.725C31.5913 87.335 31.5663 86.995 31.5163 86.705C31.4763 86.405 31.3963 86.16 31.2763 85.97C31.1563 85.77 30.9913 85.62 30.7813 85.52C30.5813 85.42 30.3163 85.37 29.9863 85.37C29.5163 85.37 29.0913 85.525 28.7113 85.835C28.3313 86.135 28.0863 86.525 27.9763 87.005V92H26.7763V81.5H27.9763V85.34H28.0363C28.2963 85.03 28.6063 84.785 28.9663 84.605C29.3363 84.415 29.7913 84.32 30.3313 84.32C30.7513 84.32 31.1163 84.37 31.4263 84.47C31.7363 84.56 31.9913 84.725 32.1913 84.965C32.4013 85.205 32.5513 85.53 32.6413 85.94C32.7413 86.34 32.7913 86.85 32.7913 87.47V92H31.5913ZM34.2594 91.355C34.2594 91.115 34.3394 90.92 34.4994 90.77C34.6594 90.62 34.8644 90.545 35.1144 90.545C35.4244 90.545 35.6744 90.655 35.8644 90.875C36.0644 91.095 36.1644 91.415 36.1644 91.835C36.1644 92.195 36.1144 92.51 36.0144 92.78C35.9144 93.05 35.7844 93.28 35.6244 93.47C35.4644 93.67 35.2894 93.83 35.0994 93.95C34.9094 94.08 34.7194 94.175 34.5294 94.235L34.1544 93.65C34.5144 93.51 34.7794 93.29 34.9494 92.99C35.1294 92.7 35.2194 92.405 35.2194 92.105C35.1294 92.135 35.0444 92.15 34.9644 92.15C34.7644 92.15 34.5944 92.085 34.4544 91.955C34.3244 91.815 34.2594 91.615 34.2594 91.355ZM46.2675 82.61H42.9975V92H41.7525V82.61H38.4825V81.5H46.2675V82.61ZM52.2028 92V87.725C52.2028 87.335 52.1778 86.995 52.1278 86.705C52.0878 86.405 52.0078 86.16 51.8878 85.97C51.7678 85.77 51.6028 85.62 51.3928 85.52C51.1928 85.42 50.9278 85.37 50.5978 85.37C50.1278 85.37 49.7028 85.525 49.3228 85.835C48.9428 86.135 48.6978 86.525 48.5878 87.005V92H47.3878V81.5H48.5878V85.34H48.6478C48.9078 85.03 49.2178 84.785 49.5778 84.605C49.9478 84.415 50.4028 84.32 50.9428 84.32C51.3628 84.32 51.7278 84.37 52.0378 84.47C52.3478 84.56 52.6028 84.725 52.8028 84.965C53.0128 85.205 53.1628 85.53 53.2528 85.94C53.3528 86.34 53.4028 86.85 53.4028 87.47V92H52.2028ZM58.8309 85.655C58.5309 85.555 58.2459 85.505 57.9759 85.505C57.5459 85.505 57.2059 85.625 56.9559 85.865C56.7059 86.095 56.5509 86.39 56.4909 86.75V92H55.2909V84.5H56.1309L56.3559 85.415H56.4159C56.6059 85.075 56.8309 84.815 57.0909 84.635C57.3609 84.445 57.7009 84.35 58.1109 84.35C58.4009 84.35 58.7259 84.4 59.0859 84.5L58.8309 85.655ZM65.5636 91.4C65.2636 91.64 64.8836 91.83 64.4236 91.97C63.9736 92.11 63.4936 92.18 62.9836 92.18C62.4136 92.18 61.9186 92.09 61.4986 91.91C61.0786 91.72 60.7336 91.455 60.4636 91.115C60.1936 90.765 59.9936 90.35 59.8636 89.87C59.7336 89.39 59.6686 88.85 59.6686 88.25C59.6686 86.97 59.9536 85.995 60.5236 85.325C61.0936 84.655 61.9086 84.32 62.9686 84.32C63.3086 84.32 63.6486 84.36 63.9886 84.44C64.3286 84.51 64.6336 84.65 64.9036 84.86C65.1736 85.07 65.3936 85.37 65.5636 85.76C65.7336 86.14 65.8186 86.645 65.8186 87.275C65.8186 87.605 65.7886 87.97 65.7286 88.37H60.9136C60.9136 88.81 60.9586 89.2 61.0486 89.54C61.1386 89.88 61.2786 90.17 61.4686 90.41C61.6586 90.64 61.9036 90.82 62.2036 90.95C62.5136 91.07 62.8886 91.13 63.3286 91.13C63.6686 91.13 64.0086 91.07 64.3486 90.95C64.6886 90.83 64.9436 90.69 65.1136 90.53L65.5636 91.4ZM62.9836 85.37C62.3936 85.37 61.9186 85.525 61.5586 85.835C61.2086 86.145 60.9986 86.675 60.9286 87.425H64.6486C64.6486 86.665 64.5036 86.135 64.2136 85.835C63.9236 85.525 63.5136 85.37 62.9836 85.37ZM72.7196 91.4C72.4196 91.64 72.0396 91.83 71.5796 91.97C71.1296 92.11 70.6496 92.18 70.1396 92.18C69.5696 92.18 69.0746 92.09 68.6546 91.91C68.2346 91.72 67.8896 91.455 67.6196 91.115C67.3496 90.765 67.1496 90.35 67.0196 89.87C66.8896 89.39 66.8246 88.85 66.8246 88.25C66.8246 86.97 67.1096 85.995 67.6796 85.325C68.2496 84.655 69.0646 84.32 70.1246 84.32C70.4646 84.32 70.8046 84.36 71.1446 84.44C71.4846 84.51 71.7896 84.65 72.0596 84.86C72.3296 85.07 72.5496 85.37 72.7196 85.76C72.8896 86.14 72.9746 86.645 72.9746 87.275C72.9746 87.605 72.9446 87.97 72.8846 88.37H68.0696C68.0696 88.81 68.1146 89.2 68.2046 89.54C68.2946 89.88 68.4346 90.17 68.6246 90.41C68.8146 90.64 69.0596 90.82 69.3596 90.95C69.6696 91.07 70.0446 91.13 70.4846 91.13C70.8246 91.13 71.1646 91.07 71.5046 90.95C71.8446 90.83 72.0996 90.69 72.2696 90.53L72.7196 91.4ZM70.1396 85.37C69.5496 85.37 69.0746 85.525 68.7146 85.835C68.3646 86.145 68.1546 86.675 68.0846 87.425H71.8046C71.8046 86.665 71.6596 86.135 71.3696 85.835C71.0796 85.525 70.6696 85.37 70.1396 85.37ZM77.4359 84.5H78.6059V84.08C78.6059 83.62 78.6409 83.22 78.7109 82.88C78.7909 82.54 78.9159 82.265 79.0859 82.055C79.2559 81.835 79.4759 81.675 79.7459 81.575C80.0159 81.465 80.3509 81.41 80.7509 81.41C81.0709 81.41 81.3509 81.43 81.5909 81.47C81.8409 81.51 82.1009 81.585 82.3709 81.695L82.1009 82.7C81.8709 82.6 81.6509 82.535 81.4409 82.505C81.2409 82.475 81.0509 82.46 80.8709 82.46C80.6109 82.46 80.4059 82.5 80.2559 82.58C80.1159 82.66 80.0109 82.78 79.9409 82.94C79.8809 83.09 79.8409 83.28 79.8209 83.51C79.8109 83.73 79.8059 83.99 79.8059 84.29V84.5H81.8009V85.55H79.8059V92H78.6059V85.55H77.4359V84.5ZM82.1698 88.25C82.1698 86.98 82.4498 86.01 83.0098 85.34C83.5798 84.66 84.3948 84.32 85.4548 84.32C86.0148 84.32 86.4998 84.415 86.9098 84.605C87.3298 84.785 87.6748 85.05 87.9448 85.4C88.2148 85.74 88.4148 86.155 88.5448 86.645C88.6748 87.125 88.7398 87.66 88.7398 88.25C88.7398 89.52 88.4548 90.495 87.8848 91.175C87.3248 91.845 86.5148 92.18 85.4548 92.18C84.8948 92.18 84.4048 92.09 83.9848 91.91C83.5748 91.72 83.2348 91.455 82.9648 91.115C82.6948 90.765 82.4948 90.35 82.3648 89.87C82.2348 89.38 82.1698 88.84 82.1698 88.25ZM83.4148 88.25C83.4148 88.63 83.4498 88.995 83.5198 89.345C83.5998 89.695 83.7198 90 83.8798 90.26C84.0398 90.52 84.2498 90.73 84.5098 90.89C84.7698 91.05 85.0848 91.13 85.4548 91.13C86.8148 91.14 87.4948 90.18 87.4948 88.25C87.4948 87.86 87.4548 87.49 87.3748 87.14C87.3048 86.79 87.1898 86.485 87.0298 86.225C86.8698 85.965 86.6598 85.76 86.3998 85.61C86.1398 85.45 85.8248 85.37 85.4548 85.37C84.0948 85.36 83.4148 86.32 83.4148 88.25ZM93.8718 85.655C93.5718 85.555 93.2868 85.505 93.0168 85.505C92.5868 85.505 92.2468 85.625 91.9968 85.865C91.7468 86.095 91.5918 86.39 91.5318 86.75V92H90.3318V84.5H91.1718L91.3968 85.415H91.4568C91.6468 85.075 91.8718 84.815 92.1318 84.635C92.4018 84.445 92.7418 84.35 93.1518 84.35C93.4418 84.35 93.7668 84.4 94.1268 84.5L93.8718 85.655ZM98.7084 85.055C99.0884 84.825 99.5284 84.655 100.028 84.545C100.538 84.435 101.068 84.38 101.618 84.38C102.138 84.38 102.553 84.45 102.863 84.59C103.183 84.73 103.423 84.915 103.583 85.145C103.753 85.365 103.863 85.61 103.913 85.88C103.973 86.15 104.003 86.42 104.003 86.69C104.003 87.29 103.988 87.875 103.958 88.445C103.928 89.015 103.913 89.555 103.913 90.065C103.913 90.435 103.928 90.785 103.958 91.115C103.988 91.445 104.043 91.75 104.123 92.03H103.238L102.923 90.98H102.848C102.758 91.12 102.643 91.26 102.503 91.4C102.373 91.53 102.213 91.65 102.023 91.76C101.833 91.86 101.613 91.945 101.363 92.015C101.113 92.085 100.828 92.12 100.508 92.12C100.188 92.12 99.8884 92.07 99.6084 91.97C99.3384 91.87 99.1034 91.73 98.9034 91.55C98.7034 91.36 98.5434 91.135 98.4234 90.875C98.3134 90.615 98.2584 90.32 98.2584 89.99C98.2584 89.55 98.3484 89.185 98.5284 88.895C98.7084 88.595 98.9584 88.36 99.2784 88.19C99.6084 88.01 99.9984 87.885 100.448 87.815C100.908 87.735 101.413 87.695 101.963 87.695C102.103 87.695 102.238 87.695 102.368 87.695C102.508 87.695 102.648 87.705 102.788 87.725C102.818 87.425 102.833 87.155 102.833 86.915C102.833 86.365 102.723 85.98 102.503 85.76C102.283 85.54 101.883 85.43 101.303 85.43C101.133 85.43 100.948 85.445 100.748 85.475C100.558 85.495 100.358 85.53 100.148 85.58C99.9484 85.62 99.7534 85.675 99.5634 85.745C99.3834 85.805 99.2234 85.875 99.0834 85.955L98.7084 85.055ZM100.838 91.07C101.118 91.07 101.368 91.035 101.588 90.965C101.808 90.885 101.998 90.79 102.158 90.68C102.318 90.56 102.448 90.43 102.548 90.29C102.658 90.15 102.738 90.015 102.788 89.885V88.64C102.648 88.63 102.503 88.625 102.353 88.625C102.213 88.615 102.073 88.61 101.933 88.61C101.623 88.61 101.318 88.63 101.018 88.67C100.728 88.7 100.468 88.765 100.238 88.865C100.018 88.955 99.8384 89.085 99.6984 89.255C99.5684 89.415 99.5034 89.62 99.5034 89.87C99.5034 90.22 99.6284 90.51 99.8784 90.74C100.128 90.96 100.448 91.07 100.838 91.07ZM114.529 84.5L116.254 88.88L116.629 90.32H116.659L116.944 88.85L118.279 84.5H119.419L116.899 92.165H116.314L114.349 87.215L114.064 85.985H114.019L113.719 87.23L111.829 92.165H111.244L108.634 84.5H109.939L111.424 88.865L111.679 90.32H111.694L112.054 88.835L113.659 84.5H114.529ZM125.713 91.4C125.413 91.64 125.033 91.83 124.573 91.97C124.123 92.11 123.643 92.18 123.133 92.18C122.563 92.18 122.068 92.09 121.648 91.91C121.228 91.72 120.883 91.455 120.613 91.115C120.343 90.765 120.143 90.35 120.013 89.87C119.883 89.39 119.818 88.85 119.818 88.25C119.818 86.97 120.103 85.995 120.673 85.325C121.243 84.655 122.058 84.32 123.118 84.32C123.458 84.32 123.798 84.36 124.138 84.44C124.478 84.51 124.783 84.65 125.053 84.86C125.323 85.07 125.543 85.37 125.713 85.76C125.883 86.14 125.968 86.645 125.968 87.275C125.968 87.605 125.938 87.97 125.878 88.37H121.063C121.063 88.81 121.108 89.2 121.198 89.54C121.288 89.88 121.428 90.17 121.618 90.41C121.808 90.64 122.053 90.82 122.353 90.95C122.663 91.07 123.038 91.13 123.478 91.13C123.818 91.13 124.158 91.07 124.498 90.95C124.838 90.83 125.093 90.69 125.263 90.53L125.713 91.4ZM123.133 85.37C122.543 85.37 122.068 85.525 121.708 85.835C121.358 86.145 121.148 86.675 121.078 87.425H124.798C124.798 86.665 124.653 86.135 124.363 85.835C124.073 85.525 123.663 85.37 123.133 85.37ZM133.315 89.42C133.315 89.93 133.32 90.395 133.33 90.815C133.34 91.225 133.385 91.63 133.465 92.03H132.655L132.355 90.965H132.295C132.095 91.315 131.805 91.605 131.425 91.835C131.045 92.065 130.6 92.18 130.09 92.18C129.09 92.18 128.345 91.865 127.855 91.235C127.375 90.605 127.135 89.62 127.135 88.28C127.135 87 127.435 86.03 128.035 85.37C128.645 84.7 129.48 84.365 130.54 84.365C130.91 84.365 131.2 84.385 131.41 84.425C131.63 84.465 131.865 84.53 132.115 84.62V81.5H133.315V89.42ZM130.285 91.13C130.795 91.13 131.2 91 131.5 90.74C131.8 90.47 132.005 90.065 132.115 89.525V85.805C131.935 85.665 131.73 85.565 131.5 85.505C131.27 85.445 130.965 85.415 130.585 85.415C129.895 85.415 129.355 85.645 128.965 86.105C128.575 86.555 128.38 87.28 128.38 88.28C128.38 88.69 128.41 89.07 128.47 89.42C128.54 89.77 128.65 90.07 128.8 90.32C128.95 90.57 129.145 90.77 129.385 90.92C129.635 91.06 129.935 91.13 130.285 91.13ZM141.086 89.42C141.086 89.93 141.091 90.395 141.101 90.815C141.111 91.225 141.156 91.63 141.236 92.03H140.426L140.126 90.965H140.066C139.866 91.315 139.576 91.605 139.196 91.835C138.816 92.065 138.371 92.18 137.861 92.18C136.861 92.18 136.116 91.865 135.626 91.235C135.146 90.605 134.906 89.62 134.906 88.28C134.906 87 135.206 86.03 135.806 85.37C136.416 84.7 137.251 84.365 138.311 84.365C138.681 84.365 138.971 84.385 139.181 84.425C139.401 84.465 139.636 84.53 139.886 84.62V81.5H141.086V89.42ZM138.056 91.13C138.566 91.13 138.971 91 139.271 90.74C139.571 90.47 139.776 90.065 139.886 89.525V85.805C139.706 85.665 139.501 85.565 139.271 85.505C139.041 85.445 138.736 85.415 138.356 85.415C137.666 85.415 137.126 85.645 136.736 86.105C136.346 86.555 136.151 87.28 136.151 88.28C136.151 88.69 136.181 89.07 136.241 89.42C136.311 89.77 136.421 90.07 136.571 90.32C136.721 90.57 136.916 90.77 137.156 90.92C137.406 91.06 137.706 91.13 138.056 91.13ZM143.353 84.5H144.553V92H143.353V84.5ZM143.098 82.22C143.098 81.99 143.173 81.795 143.323 81.635C143.483 81.465 143.683 81.38 143.923 81.38C144.163 81.38 144.368 81.465 144.538 81.635C144.708 81.795 144.793 81.99 144.793 82.22C144.793 82.45 144.708 82.64 144.538 82.79C144.368 82.94 144.163 83.015 143.923 83.015C143.683 83.015 143.483 82.94 143.323 82.79C143.173 82.64 143.098 82.45 143.098 82.22ZM151.626 92V87.725C151.626 86.945 151.511 86.36 151.281 85.97C151.061 85.57 150.651 85.37 150.051 85.37C149.521 85.37 149.081 85.515 148.731 85.805C148.391 86.085 148.151 86.44 148.011 86.87V92H146.811V84.5H147.651L147.876 85.415H147.936C148.176 85.095 148.496 84.835 148.896 84.635C149.306 84.425 149.791 84.32 150.351 84.32C150.761 84.32 151.121 84.37 151.431 84.47C151.741 84.56 151.996 84.725 152.196 84.965C152.406 85.205 152.561 85.53 152.661 85.94C152.771 86.34 152.826 86.85 152.826 87.47V92H151.626ZM160.46 92.345C160.46 93.315 160.2 94.03 159.68 94.49C159.17 94.95 158.41 95.18 157.4 95.18C156.8 95.18 156.315 95.14 155.945 95.06C155.585 94.99 155.275 94.895 155.015 94.775L155.33 93.755C155.56 93.845 155.815 93.93 156.095 94.01C156.375 94.09 156.74 94.13 157.19 94.13C157.61 94.13 157.95 94.09 158.21 94.01C158.48 93.94 158.695 93.815 158.855 93.635C159.015 93.465 159.125 93.24 159.185 92.96C159.245 92.69 159.275 92.365 159.275 91.985V91.265H159.215C159.015 91.555 158.76 91.78 158.45 91.94C158.14 92.09 157.735 92.165 157.235 92.165C156.225 92.165 155.48 91.85 155 91.22C154.53 90.59 154.295 89.61 154.295 88.28C154.295 87 154.6 86.03 155.21 85.37C155.82 84.7 156.72 84.365 157.91 84.365C158.48 84.365 158.965 84.41 159.365 84.5C159.775 84.59 160.14 84.695 160.46 84.815V92.345ZM157.445 91.115C157.955 91.115 158.355 90.99 158.645 90.74C158.935 90.48 159.14 90.08 159.26 89.54V85.7C158.86 85.51 158.35 85.415 157.73 85.415C157.05 85.415 156.515 85.645 156.125 86.105C155.735 86.565 155.54 87.285 155.54 88.265C155.54 88.685 155.575 89.07 155.645 89.42C155.715 89.77 155.825 90.07 155.975 90.32C156.125 90.57 156.32 90.765 156.56 90.905C156.8 91.045 157.095 91.115 157.445 91.115ZM162.051 91.355C162.051 91.115 162.131 90.92 162.291 90.77C162.451 90.62 162.656 90.545 162.906 90.545C163.216 90.545 163.466 90.655 163.656 90.875C163.856 91.095 163.956 91.415 163.956 91.835C163.956 92.195 163.906 92.51 163.806 92.78C163.706 93.05 163.576 93.28 163.416 93.47C163.256 93.67 163.081 93.83 162.891 93.95C162.701 94.08 162.511 94.175 162.321 94.235L161.946 93.65C162.306 93.51 162.571 93.29 162.741 92.99C162.921 92.7 163.011 92.405 163.011 92.105C162.921 92.135 162.836 92.15 162.756 92.15C162.556 92.15 162.386 92.085 162.246 91.955C162.116 91.815 162.051 91.615 162.051 91.355ZM6.27 110.09H2.4L1.35 113H0.12L4.095 102.335H4.665L8.655 113H7.35L6.27 110.09ZM2.805 109.01H5.895L4.725 105.815L4.35 104.225H4.335L3.96 105.845L2.805 109.01ZM14.4444 113V108.725C14.4444 107.945 14.3294 107.36 14.0994 106.97C13.8794 106.57 13.4694 106.37 12.8694 106.37C12.3394 106.37 11.8994 106.515 11.5494 106.805C11.2094 107.085 10.9694 107.44 10.8294 107.87V113H9.62941V105.5H10.4694L10.6944 106.415H10.7544C10.9944 106.095 11.3144 105.835 11.7144 105.635C12.1244 105.425 12.6094 105.32 13.1694 105.32C13.5794 105.32 13.9394 105.37 14.2494 105.47C14.5594 105.56 14.8144 105.725 15.0144 105.965C15.2244 106.205 15.3794 106.53 15.4794 106.94C15.5894 107.34 15.6444 107.85 15.6444 108.47V113H14.4444ZM23.2925 110.42C23.2925 110.93 23.2975 111.395 23.3075 111.815C23.3175 112.225 23.3625 112.63 23.4425 113.03H22.6325L22.3325 111.965H22.2725C22.0725 112.315 21.7825 112.605 21.4025 112.835C21.0225 113.065 20.5775 113.18 20.0675 113.18C19.0675 113.18 18.3225 112.865 17.8325 112.235C17.3525 111.605 17.1125 110.62 17.1125 109.28C17.1125 108 17.4125 107.03 18.0125 106.37C18.6225 105.7 19.4575 105.365 20.5175 105.365C20.8875 105.365 21.1775 105.385 21.3875 105.425C21.6075 105.465 21.8425 105.53 22.0925 105.62V102.5H23.2925V110.42ZM20.2625 112.13C20.7725 112.13 21.1775 112 21.4775 111.74C21.7775 111.47 21.9825 111.065 22.0925 110.525V106.805C21.9125 106.665 21.7075 106.565 21.4775 106.505C21.2475 106.445 20.9425 106.415 20.5625 106.415C19.8725 106.415 19.3325 106.645 18.9425 107.105C18.5525 107.555 18.3575 108.28 18.3575 109.28C18.3575 109.69 18.3875 110.07 18.4475 110.42C18.5175 110.77 18.6275 111.07 18.7775 111.32C18.9275 111.57 19.1225 111.77 19.3625 111.92C19.6125 112.06 19.9125 112.13 20.2625 112.13ZM28.1779 105.5H29.3479V105.08C29.3479 104.62 29.3829 104.22 29.4529 103.88C29.5329 103.54 29.6579 103.265 29.8279 103.055C29.9979 102.835 30.2179 102.675 30.4879 102.575C30.7579 102.465 31.0929 102.41 31.4929 102.41C31.8129 102.41 32.0929 102.43 32.3329 102.47C32.5829 102.51 32.8429 102.585 33.1129 102.695L32.8429 103.7C32.6129 103.6 32.3929 103.535 32.1829 103.505C31.9829 103.475 31.7929 103.46 31.6129 103.46C31.3529 103.46 31.1479 103.5 30.9979 103.58C30.8579 103.66 30.7529 103.78 30.6829 103.94C30.6229 104.09 30.5829 104.28 30.5629 104.51C30.5529 104.73 30.5479 104.99 30.5479 105.29V105.5H32.5429V106.55H30.5479V113H29.3479V106.55H28.1779V105.5ZM32.9118 109.25C32.9118 107.98 33.1918 107.01 33.7518 106.34C34.3218 105.66 35.1368 105.32 36.1968 105.32C36.7568 105.32 37.2418 105.415 37.6518 105.605C38.0718 105.785 38.4168 106.05 38.6868 106.4C38.9568 106.74 39.1568 107.155 39.2868 107.645C39.4168 108.125 39.4818 108.66 39.4818 109.25C39.4818 110.52 39.1968 111.495 38.6268 112.175C38.0668 112.845 37.2568 113.18 36.1968 113.18C35.6368 113.18 35.1468 113.09 34.7268 112.91C34.3168 112.72 33.9768 112.455 33.7068 112.115C33.4368 111.765 33.2368 111.35 33.1068 110.87C32.9768 110.38 32.9118 109.84 32.9118 109.25ZM34.1568 109.25C34.1568 109.63 34.1918 109.995 34.2618 110.345C34.3418 110.695 34.4618 111 34.6218 111.26C34.7818 111.52 34.9918 111.73 35.2518 111.89C35.5118 112.05 35.8268 112.13 36.1968 112.13C37.5568 112.14 38.2368 111.18 38.2368 109.25C38.2368 108.86 38.1968 108.49 38.1168 108.14C38.0468 107.79 37.9318 107.485 37.7718 107.225C37.6118 106.965 37.4018 106.76 37.1418 106.61C36.8818 106.45 36.5668 106.37 36.1968 106.37C34.8368 106.36 34.1568 107.32 34.1568 109.25ZM42.1538 105.5V109.775C42.1538 110.165 42.1738 110.51 42.2138 110.81C42.2638 111.1 42.3438 111.345 42.4538 111.545C42.5638 111.735 42.7138 111.88 42.9038 111.98C43.0938 112.08 43.3338 112.13 43.6238 112.13C43.8938 112.13 44.1338 112.09 44.3438 112.01C44.5538 111.92 44.7388 111.8 44.8988 111.65C45.0688 111.5 45.2138 111.33 45.3338 111.14C45.4638 110.94 45.5688 110.73 45.6488 110.51V105.5H46.8488V110.87C46.8488 111.23 46.8588 111.605 46.8788 111.995C46.9088 112.375 46.9538 112.71 47.0138 113H46.1888L45.8888 111.815H45.8138C45.5838 112.205 45.2738 112.53 44.8838 112.79C44.4938 113.05 43.9988 113.18 43.3988 113.18C42.9988 113.18 42.6438 113.13 42.3338 113.03C42.0338 112.94 41.7788 112.775 41.5688 112.535C41.3688 112.295 41.2138 111.975 41.1038 111.575C41.0038 111.165 40.9538 110.65 40.9538 110.03V105.5H42.1538ZM52.3997 106.655C52.0997 106.555 51.8147 106.505 51.5447 106.505C51.1147 106.505 50.7747 106.625 50.5247 106.865C50.2747 107.095 50.1197 107.39 50.0597 107.75V113H48.8597V105.5H49.6997L49.9247 106.415H49.9847C50.1747 106.075 50.3997 105.815 50.6597 105.635C50.9297 105.445 51.2697 105.35 51.6797 105.35C51.9697 105.35 52.2947 105.4 52.6547 105.5L52.3997 106.655ZM56.5314 105.5H57.7014V105.08C57.7014 104.62 57.7364 104.22 57.8064 103.88C57.8864 103.54 58.0114 103.265 58.1814 103.055C58.3514 102.835 58.5714 102.675 58.8414 102.575C59.1114 102.465 59.4464 102.41 59.8464 102.41C60.1664 102.41 60.4464 102.43 60.6864 102.47C60.9364 102.51 61.1964 102.585 61.4664 102.695L61.1964 103.7C60.9664 103.6 60.7464 103.535 60.5364 103.505C60.3364 103.475 60.1464 103.46 59.9664 103.46C59.7064 103.46 59.5014 103.5 59.3514 103.58C59.2114 103.66 59.1064 103.78 59.0364 103.94C58.9764 104.09 58.9364 104.28 58.9164 104.51C58.9064 104.73 58.9014 104.99 58.9014 105.29V105.5H60.8964V106.55H58.9014V113H57.7014V106.55H56.5314V105.5ZM61.2653 109.25C61.2653 107.98 61.5453 107.01 62.1053 106.34C62.6753 105.66 63.4903 105.32 64.5503 105.32C65.1103 105.32 65.5953 105.415 66.0053 105.605C66.4253 105.785 66.7703 106.05 67.0403 106.4C67.3103 106.74 67.5103 107.155 67.6403 107.645C67.7703 108.125 67.8353 108.66 67.8353 109.25C67.8353 110.52 67.5503 111.495 66.9803 112.175C66.4203 112.845 65.6103 113.18 64.5503 113.18C63.9903 113.18 63.5003 113.09 63.0803 112.91C62.6703 112.72 62.3303 112.455 62.0603 112.115C61.7903 111.765 61.5903 111.35 61.4603 110.87C61.3303 110.38 61.2653 109.84 61.2653 109.25ZM62.5103 109.25C62.5103 109.63 62.5453 109.995 62.6153 110.345C62.6953 110.695 62.8153 111 62.9753 111.26C63.1353 111.52 63.3453 111.73 63.6053 111.89C63.8653 112.05 64.1803 112.13 64.5503 112.13C65.9103 112.14 66.5903 111.18 66.5903 109.25C66.5903 108.86 66.5503 108.49 66.4703 108.14C66.4003 107.79 66.2853 107.485 66.1253 107.225C65.9653 106.965 65.7553 106.76 65.4953 106.61C65.2353 106.45 64.9203 106.37 64.5503 106.37C63.1903 106.36 62.5103 107.32 62.5103 109.25ZM72.9673 106.655C72.6673 106.555 72.3823 106.505 72.1123 106.505C71.6823 106.505 71.3423 106.625 71.0923 106.865C70.8423 107.095 70.6873 107.39 70.6273 107.75V113H69.4273V105.5H70.2673L70.4923 106.415H70.5523C70.7423 106.075 70.9673 105.815 71.2273 105.635C71.4973 105.445 71.8373 105.35 72.2473 105.35C72.5373 105.35 72.8623 105.4 73.2223 105.5L72.9673 106.655ZM83.6839 110.42C83.6839 110.93 83.6889 111.395 83.6989 111.815C83.7089 112.225 83.7539 112.63 83.8339 113.03H83.0239L82.7239 111.965H82.6639C82.4639 112.315 82.1739 112.605 81.7939 112.835C81.4139 113.065 80.9689 113.18 80.4589 113.18C79.4589 113.18 78.7139 112.865 78.2239 112.235C77.7439 111.605 77.5039 110.62 77.5039 109.28C77.5039 108 77.8039 107.03 78.4039 106.37C79.0139 105.7 79.8489 105.365 80.9089 105.365C81.2789 105.365 81.5689 105.385 81.7789 105.425C81.9989 105.465 82.2339 105.53 82.4839 105.62V102.5H83.6839V110.42ZM80.6539 112.13C81.1639 112.13 81.5689 112 81.8689 111.74C82.1689 111.47 82.3739 111.065 82.4839 110.525V106.805C82.3039 106.665 82.0989 106.565 81.8689 106.505C81.6389 106.445 81.3339 106.415 80.9539 106.415C80.2639 106.415 79.7239 106.645 79.3339 107.105C78.9439 107.555 78.7489 108.28 78.7489 109.28C78.7489 109.69 78.7789 110.07 78.8389 110.42C78.9089 110.77 79.0189 111.07 79.1689 111.32C79.3189 111.57 79.5139 111.77 79.7539 111.92C80.0039 112.06 80.3039 112.13 80.6539 112.13ZM91.1702 112.4C90.8702 112.64 90.4902 112.83 90.0302 112.97C89.5802 113.11 89.1002 113.18 88.5902 113.18C88.0202 113.18 87.5252 113.09 87.1052 112.91C86.6852 112.72 86.3402 112.455 86.0702 112.115C85.8002 111.765 85.6002 111.35 85.4702 110.87C85.3402 110.39 85.2752 109.85 85.2752 109.25C85.2752 107.97 85.5602 106.995 86.1302 106.325C86.7002 105.655 87.5152 105.32 88.5752 105.32C88.9152 105.32 89.2552 105.36 89.5952 105.44C89.9352 105.51 90.2402 105.65 90.5102 105.86C90.7802 106.07 91.0002 106.37 91.1702 106.76C91.3402 107.14 91.4252 107.645 91.4252 108.275C91.4252 108.605 91.3952 108.97 91.3352 109.37H86.5202C86.5202 109.81 86.5652 110.2 86.6552 110.54C86.7452 110.88 86.8852 111.17 87.0752 111.41C87.2652 111.64 87.5102 111.82 87.8102 111.95C88.1202 112.07 88.4952 112.13 88.9352 112.13C89.2752 112.13 89.6152 112.07 89.9552 111.95C90.2952 111.83 90.5502 111.69 90.7202 111.53L91.1702 112.4ZM88.5902 106.37C88.0002 106.37 87.5252 106.525 87.1652 106.835C86.8152 107.145 86.6052 107.675 86.5352 108.425H90.2552C90.2552 107.665 90.1102 107.135 89.8202 106.835C89.5302 106.525 89.1202 106.37 88.5902 106.37ZM92.8924 106.055C93.2724 105.825 93.7124 105.655 94.2124 105.545C94.7224 105.435 95.2524 105.38 95.8024 105.38C96.3224 105.38 96.7374 105.45 97.0474 105.59C97.3674 105.73 97.6074 105.915 97.7674 106.145C97.9374 106.365 98.0474 106.61 98.0974 106.88C98.1574 107.15 98.1874 107.42 98.1874 107.69C98.1874 108.29 98.1724 108.875 98.1424 109.445C98.1124 110.015 98.0974 110.555 98.0974 111.065C98.0974 111.435 98.1124 111.785 98.1424 112.115C98.1724 112.445 98.2274 112.75 98.3074 113.03H97.4224L97.1074 111.98H97.0324C96.9424 112.12 96.8274 112.26 96.6874 112.4C96.5574 112.53 96.3974 112.65 96.2074 112.76C96.0174 112.86 95.7974 112.945 95.5474 113.015C95.2974 113.085 95.0124 113.12 94.6924 113.12C94.3724 113.12 94.0724 113.07 93.7924 112.97C93.5224 112.87 93.2874 112.73 93.0874 112.55C92.8874 112.36 92.7274 112.135 92.6074 111.875C92.4974 111.615 92.4424 111.32 92.4424 110.99C92.4424 110.55 92.5324 110.185 92.7124 109.895C92.8924 109.595 93.1424 109.36 93.4624 109.19C93.7924 109.01 94.1824 108.885 94.6324 108.815C95.0924 108.735 95.5974 108.695 96.1474 108.695C96.2874 108.695 96.4224 108.695 96.5524 108.695C96.6924 108.695 96.8324 108.705 96.9724 108.725C97.0024 108.425 97.0174 108.155 97.0174 107.915C97.0174 107.365 96.9074 106.98 96.6874 106.76C96.4674 106.54 96.0674 106.43 95.4874 106.43C95.3174 106.43 95.1324 106.445 94.9324 106.475C94.7424 106.495 94.5424 106.53 94.3324 106.58C94.1324 106.62 93.9374 106.675 93.7474 106.745C93.5674 106.805 93.4074 106.875 93.2674 106.955L92.8924 106.055ZM95.0224 112.07C95.3024 112.07 95.5524 112.035 95.7724 111.965C95.9924 111.885 96.1824 111.79 96.3424 111.68C96.5024 111.56 96.6324 111.43 96.7324 111.29C96.8424 111.15 96.9224 111.015 96.9724 110.885V109.64C96.8324 109.63 96.6874 109.625 96.5374 109.625C96.3974 109.615 96.2574 109.61 96.1174 109.61C95.8074 109.61 95.5024 109.63 95.2024 109.67C94.9124 109.7 94.6524 109.765 94.4224 109.865C94.2024 109.955 94.0224 110.085 93.8824 110.255C93.7524 110.415 93.6874 110.62 93.6874 110.87C93.6874 111.22 93.8124 111.51 94.0624 111.74C94.3124 111.96 94.6324 112.07 95.0224 112.07ZM99.1638 105.5H100.334V104.015L101.534 103.67V105.5H103.574V106.55H101.534V110.705C101.534 111.225 101.599 111.595 101.729 111.815C101.859 112.025 102.079 112.13 102.389 112.13C102.649 112.13 102.869 112.105 103.049 112.055C103.229 111.995 103.429 111.92 103.649 111.83L103.919 112.745C103.649 112.875 103.354 112.98 103.034 113.06C102.714 113.14 102.369 113.18 101.999 113.18C101.389 113.18 100.959 113.01 100.709 112.67C100.459 112.32 100.334 111.74 100.334 110.93V106.55H99.1638V105.5ZM109.752 113V108.725C109.752 108.335 109.727 107.995 109.677 107.705C109.637 107.405 109.557 107.16 109.437 106.97C109.317 106.77 109.152 106.62 108.942 106.52C108.742 106.42 108.477 106.37 108.147 106.37C107.677 106.37 107.252 106.525 106.872 106.835C106.492 107.135 106.247 107.525 106.137 108.005V113H104.937V102.5H106.137V106.34H106.197C106.457 106.03 106.767 105.785 107.127 105.605C107.497 105.415 107.952 105.32 108.492 105.32C108.912 105.32 109.277 105.37 109.587 105.47C109.897 105.56 110.152 105.725 110.352 105.965C110.562 106.205 110.712 106.53 110.802 106.94C110.902 107.34 110.952 107.85 110.952 108.47V113H109.752Z" fill="#2A2921"/>
</svg>
