<svg width="169" height="136" viewBox="0 0 169 136" fill="none" xmlns="http://www.w3.org/2000/svg">
<path d="M3.84 28V38H1.6V23.8H3.36L11.48 34.04V23.82H13.74V38H11.88L3.84 28ZM19.472 38.2C18.3787 38.2 17.552 37.8467 16.992 37.14C16.432 36.42 16.152 35.3533 16.152 33.94V27.54H18.352V33.5C18.352 35.38 19.0187 36.32 20.352 36.32C20.9787 36.32 21.572 36.1267 22.132 35.74C22.692 35.3533 23.1254 34.7933 23.432 34.06V27.54H25.632V35.4C25.632 35.6533 25.672 35.8333 25.752 35.94C25.8454 36.0467 26.0054 36.1067 26.232 36.12V38C26.0054 38.04 25.8187 38.0667 25.672 38.08C25.5254 38.0933 25.3854 38.1 25.252 38.1C24.852 38.1 24.512 37.9933 24.232 37.78C23.952 37.5533 23.8054 37.2667 23.792 36.92L23.752 35.88C23.2854 36.64 22.6787 37.22 21.932 37.62C21.1854 38.0067 20.3654 38.2 19.472 38.2ZM33.9195 29.44C33.0662 29.4667 32.3062 29.6667 31.6395 30.04C30.9862 30.4 30.5195 30.92 30.2395 31.6V38H28.0395V27.54H30.0795V29.88C30.4395 29.16 30.9062 28.5867 31.4795 28.16C32.0662 27.72 32.6929 27.48 33.3595 27.44C33.4929 27.44 33.5995 27.44 33.6795 27.44C33.7729 27.44 33.8529 27.4467 33.9195 27.46V29.44ZM38.92 38.2C38.08 38.2 37.24 38.0667 36.4 37.8C35.5733 37.52 34.86 37.1267 34.26 36.62L35.14 35.22C35.7667 35.6733 36.3867 36.02 37 36.26C37.6133 36.4867 38.24 36.6 38.88 36.6C39.5333 36.6 40.0467 36.4733 40.42 36.22C40.8067 35.9667 41 35.6067 41 35.14C41 34.7 40.7867 34.38 40.36 34.18C39.9333 33.98 39.2667 33.76 38.36 33.52C37.7067 33.3467 37.1467 33.18 36.68 33.02C36.2133 32.86 35.8333 32.6733 35.54 32.46C35.2467 32.2467 35.0333 32 34.9 31.72C34.7667 31.44 34.7 31.1 34.7 30.7C34.7 30.1667 34.8 29.6933 35 29.28C35.2133 28.8667 35.5 28.52 35.86 28.24C36.2333 27.9467 36.6667 27.7267 37.16 27.58C37.6533 27.4333 38.1867 27.36 38.76 27.36C39.5467 27.36 40.28 27.48 40.96 27.72C41.64 27.96 42.2467 28.3067 42.78 28.76L41.84 30.08C40.8667 29.3067 39.8333 28.92 38.74 28.92C38.18 28.92 37.7067 29.04 37.32 29.28C36.9467 29.5067 36.76 29.8733 36.76 30.38C36.76 30.5933 36.8 30.7733 36.88 30.92C36.96 31.0667 37.0867 31.1933 37.26 31.3C37.4467 31.4067 37.68 31.5067 37.96 31.6C38.2533 31.68 38.6133 31.7733 39.04 31.88C39.7467 32.0533 40.3533 32.2267 40.86 32.4C41.38 32.5733 41.8067 32.78 42.14 33.02C42.4733 33.2467 42.72 33.52 42.88 33.84C43.04 34.1467 43.12 34.52 43.12 34.96C43.12 35.96 42.74 36.7533 41.98 37.34C41.2333 37.9133 40.2133 38.2 38.92 38.2ZM49.3819 38.2C48.5685 38.2 47.8285 38.06 47.1619 37.78C46.4952 37.4867 45.9219 37.0933 45.4419 36.6C44.9752 36.1067 44.6085 35.5333 44.3419 34.88C44.0885 34.2267 43.9619 33.5333 43.9619 32.8C43.9619 32.0667 44.0885 31.3733 44.3419 30.72C44.6085 30.0533 44.9752 29.4733 45.4419 28.98C45.9219 28.4733 46.4952 28.08 47.1619 27.8C47.8285 27.5067 48.5752 27.36 49.4019 27.36C50.2152 27.36 50.9485 27.5067 51.6019 27.8C52.2685 28.0933 52.8352 28.4867 53.3019 28.98C53.7685 29.46 54.1219 30.0267 54.3619 30.68C54.6152 31.32 54.7419 31.9933 54.7419 32.7C54.7419 32.86 54.7352 33.0133 54.7219 33.16C54.7085 33.2933 54.6952 33.4067 54.6819 33.5H46.3019C46.3419 33.9667 46.4485 34.3867 46.6219 34.76C46.8085 35.1333 47.0419 35.46 47.3219 35.74C47.6152 36.0067 47.9419 36.2133 48.3019 36.36C48.6752 36.5067 49.0619 36.58 49.4619 36.58C49.7552 36.58 50.0419 36.5467 50.3219 36.48C50.6152 36.4 50.8819 36.2933 51.1219 36.16C51.3619 36.0133 51.5752 35.84 51.7619 35.64C51.9485 35.44 52.0952 35.22 52.2019 34.98L54.0819 35.52C53.7219 36.3067 53.1219 36.9533 52.2819 37.46C51.4552 37.9533 50.4885 38.2 49.3819 38.2ZM52.5619 31.98C52.5219 31.54 52.4085 31.1333 52.2219 30.76C52.0485 30.3867 51.8219 30.0733 51.5419 29.82C51.2619 29.5533 50.9352 29.3467 50.5619 29.2C50.1885 29.0533 49.7952 28.98 49.3819 28.98C48.9685 28.98 48.5752 29.0533 48.2019 29.2C47.8419 29.3467 47.5219 29.5533 47.2419 29.82C46.9619 30.0733 46.7352 30.3867 46.5619 30.76C46.3885 31.1333 46.2819 31.54 46.2419 31.98H52.5619ZM62.0164 29.44C61.1631 29.4667 60.4031 29.6667 59.7364 30.04C59.0831 30.4 58.6164 30.92 58.3364 31.6V38H56.1364V27.54H58.1764V29.88C58.5364 29.16 59.0031 28.5867 59.5764 28.16C60.1631 27.72 60.7897 27.48 61.4564 27.44C61.5897 27.44 61.6964 27.44 61.7764 27.44C61.8697 27.44 61.9497 27.4467 62.0164 27.46V29.44ZM63.5769 40.46C63.7769 40.5 63.9702 40.5333 64.1569 40.56C64.3569 40.5867 64.5169 40.6 64.6369 40.6C64.8102 40.6 64.9569 40.56 65.0769 40.48C65.2102 40.4133 65.3435 40.2867 65.4769 40.1C65.6102 39.9133 65.7435 39.6467 65.8769 39.3C66.0235 38.9667 66.1902 38.5333 66.3769 38L62.0769 27.54H64.3369L67.5769 36.06L70.4569 27.54H72.5369L67.7969 40.42C67.5835 41.02 67.2102 41.52 66.6769 41.92C66.1569 42.3333 65.4835 42.54 64.6569 42.54C64.4969 42.54 64.3302 42.5267 64.1569 42.5C63.9835 42.4867 63.7902 42.4467 63.5769 42.38V40.46ZM78.0289 38V23.8H84.2089C84.8489 23.8 85.4356 23.9333 85.9689 24.2C86.5156 24.4667 86.9822 24.82 87.3689 25.26C87.7556 25.6867 88.0556 26.18 88.2689 26.74C88.4956 27.2867 88.6089 27.8467 88.6089 28.42C88.6089 28.9 88.5422 29.36 88.4089 29.8C88.2756 30.24 88.0889 30.6467 87.8489 31.02C87.6089 31.3933 87.3156 31.72 86.9689 32C86.6222 32.2667 86.2422 32.4667 85.8289 32.6L89.1689 38H86.6289L83.5489 33.06H80.2689V38H78.0289ZM80.2689 31.08H84.1889C84.5089 31.08 84.7956 31.0133 85.0489 30.88C85.3156 30.7333 85.5422 30.54 85.7289 30.3C85.9156 30.0467 86.0622 29.76 86.1689 29.44C86.2756 29.12 86.3289 28.78 86.3289 28.42C86.3289 28.06 86.2622 27.72 86.1289 27.4C86.0089 27.08 85.8422 26.8 85.6289 26.56C85.4289 26.32 85.1889 26.1333 84.9089 26C84.6422 25.8533 84.3622 25.78 84.0689 25.78H80.2689V31.08ZM99.9516 38H97.7516V32.14C97.7516 31.18 97.5782 30.4733 97.2316 30.02C96.8982 29.5533 96.4116 29.32 95.7716 29.32C95.4649 29.32 95.1582 29.38 94.8516 29.5C94.5449 29.62 94.2516 29.7933 93.9716 30.02C93.7049 30.2333 93.4649 30.4933 93.2516 30.8C93.0382 31.0933 92.8782 31.42 92.7716 31.78V38H90.5716V23.4H92.7716V29.64C93.1716 28.92 93.7116 28.36 94.3916 27.96C95.0849 27.56 95.8382 27.36 96.6516 27.36C97.3049 27.36 97.8382 27.48 98.2516 27.72C98.6782 27.9467 99.0182 28.2533 99.2716 28.64C99.5249 29.0267 99.6982 29.48 99.7916 30C99.8982 30.5067 99.9516 31.0467 99.9516 31.62V38ZM102.192 40.46C102.392 40.5 102.585 40.5333 102.772 40.56C102.972 40.5867 103.132 40.6 103.252 40.6C103.425 40.6 103.572 40.56 103.692 40.48C103.825 40.4133 103.958 40.2867 104.092 40.1C104.225 39.9133 104.358 39.6467 104.492 39.3C104.638 38.9667 104.805 38.5333 104.992 38L100.692 27.54H102.952L106.192 36.06L109.072 27.54H111.152L106.412 40.42C106.198 41.02 105.825 41.52 105.292 41.92C104.772 42.3333 104.098 42.54 103.272 42.54C103.112 42.54 102.945 42.5267 102.772 42.5C102.598 42.4867 102.405 42.4467 102.192 42.38V40.46ZM128.369 38H126.169V32.14C126.169 31.1667 126.009 30.4533 125.689 30C125.369 29.5467 124.903 29.32 124.289 29.32C123.663 29.32 123.089 29.5533 122.569 30.02C122.063 30.4733 121.696 31.0667 121.469 31.8V38H119.269V32.14C119.269 31.1533 119.109 30.44 118.789 30C118.469 29.5467 118.009 29.32 117.409 29.32C116.783 29.32 116.209 29.5467 115.689 30C115.169 30.4533 114.796 31.0467 114.569 31.78V38H112.369V27.54H114.369V29.64C114.783 28.9067 115.323 28.3467 115.989 27.96C116.669 27.56 117.443 27.36 118.309 27.36C119.176 27.36 119.856 27.5867 120.349 28.04C120.856 28.4933 121.169 29.06 121.289 29.74C121.729 28.9667 122.283 28.38 122.949 27.98C123.616 27.5667 124.376 27.36 125.229 27.36C125.843 27.36 126.349 27.48 126.749 27.72C127.163 27.9467 127.489 28.2533 127.729 28.64C127.969 29.0267 128.136 29.48 128.229 30C128.323 30.5067 128.369 31.0467 128.369 31.62V38ZM135.244 38.2C134.431 38.2 133.691 38.06 133.024 37.78C132.358 37.4867 131.784 37.0933 131.304 36.6C130.838 36.1067 130.471 35.5333 130.204 34.88C129.951 34.2267 129.824 33.5333 129.824 32.8C129.824 32.0667 129.951 31.3733 130.204 30.72C130.471 30.0533 130.838 29.4733 131.304 28.98C131.784 28.4733 132.358 28.08 133.024 27.8C133.691 27.5067 134.438 27.36 135.264 27.36C136.078 27.36 136.811 27.5067 137.464 27.8C138.131 28.0933 138.698 28.4867 139.164 28.98C139.631 29.46 139.984 30.0267 140.224 30.68C140.478 31.32 140.604 31.9933 140.604 32.7C140.604 32.86 140.598 33.0133 140.584 33.16C140.571 33.2933 140.558 33.4067 140.544 33.5H132.164C132.204 33.9667 132.311 34.3867 132.484 34.76C132.671 35.1333 132.904 35.46 133.184 35.74C133.478 36.0067 133.804 36.2133 134.164 36.36C134.538 36.5067 134.924 36.58 135.324 36.58C135.618 36.58 135.904 36.5467 136.184 36.48C136.478 36.4 136.744 36.2933 136.984 36.16C137.224 36.0133 137.438 35.84 137.624 35.64C137.811 35.44 137.958 35.22 138.064 34.98L139.944 35.52C139.584 36.3067 138.984 36.9533 138.144 37.46C137.318 37.9533 136.351 38.2 135.244 38.2ZM138.424 31.98C138.384 31.54 138.271 31.1333 138.084 30.76C137.911 30.3867 137.684 30.0733 137.404 29.82C137.124 29.5533 136.798 29.3467 136.424 29.2C136.051 29.0533 135.658 28.98 135.244 28.98C134.831 28.98 134.438 29.0533 134.064 29.2C133.704 29.3467 133.384 29.5533 133.104 29.82C132.824 30.0733 132.598 30.3867 132.424 30.76C132.251 31.1333 132.144 31.54 132.104 31.98H138.424ZM145.799 38.2C144.959 38.2 144.119 38.0667 143.279 37.8C142.452 37.52 141.739 37.1267 141.139 36.62L142.019 35.22C142.646 35.6733 143.266 36.02 143.879 36.26C144.492 36.4867 145.119 36.6 145.759 36.6C146.412 36.6 146.926 36.4733 147.299 36.22C147.686 35.9667 147.879 35.6067 147.879 35.14C147.879 34.7 147.666 34.38 147.239 34.18C146.812 33.98 146.146 33.76 145.239 33.52C144.586 33.3467 144.026 33.18 143.559 33.02C143.092 32.86 142.712 32.6733 142.419 32.46C142.126 32.2467 141.912 32 141.779 31.72C141.646 31.44 141.579 31.1 141.579 30.7C141.579 30.1667 141.679 29.6933 141.879 29.28C142.092 28.8667 142.379 28.52 142.739 28.24C143.112 27.9467 143.546 27.7267 144.039 27.58C144.532 27.4333 145.066 27.36 145.639 27.36C146.426 27.36 147.159 27.48 147.839 27.72C148.519 27.96 149.126 28.3067 149.659 28.76L148.719 30.08C147.746 29.3067 146.712 28.92 145.619 28.92C145.059 28.92 144.586 29.04 144.199 29.28C143.826 29.5067 143.639 29.8733 143.639 30.38C143.639 30.5933 143.679 30.7733 143.759 30.92C143.839 31.0667 143.966 31.1933 144.139 31.3C144.326 31.4067 144.559 31.5067 144.839 31.6C145.132 31.68 145.492 31.7733 145.919 31.88C146.626 32.0533 147.232 32.2267 147.739 32.4C148.259 32.5733 148.686 32.78 149.019 33.02C149.352 33.2467 149.599 33.52 149.759 33.84C149.919 34.1467 149.999 34.52 149.999 34.96C149.999 35.96 149.619 36.7533 148.859 37.34C148.112 37.9133 147.092 38.2 145.799 38.2Z" fill="#2A2921"/>
<path d="M9.22852 67.2466C9.22852 68.228 9.05762 69.0898 8.71582 69.832C8.37891 70.5742 7.89551 71.1455 7.26562 71.5459C6.63574 71.9463 5.9082 72.1465 5.08301 72.1465C3.83789 72.1465 2.83203 71.7021 2.06543 70.8135C1.29883 69.9199 0.915527 68.7163 0.915527 67.2026V66.104C0.915527 65.1323 1.08643 64.2729 1.42822 63.5259C1.7749 62.7739 2.26318 62.1978 2.89307 61.7974C3.52295 61.3921 4.24805 61.1895 5.06836 61.1895C5.88867 61.1895 6.61133 61.3872 7.23633 61.7827C7.86621 62.1782 8.35205 62.7373 8.69385 63.46C9.03564 64.1826 9.21387 65.02 9.22852 65.9722V67.2466ZM8.32764 66.0894C8.32764 64.8052 8.03711 63.7993 7.45605 63.0718C6.875 62.3442 6.0791 61.9805 5.06836 61.9805C4.07715 61.9805 3.28613 62.3467 2.69531 63.0791C2.10938 63.8066 1.81641 64.8247 1.81641 66.1333V67.2466C1.81641 68.5112 2.10938 69.5146 2.69531 70.2568C3.28125 70.9941 4.07715 71.3628 5.08301 71.3628C6.10352 71.3628 6.89941 70.999 7.4707 70.2715C8.04199 69.5391 8.32764 68.521 8.32764 67.2173V66.0894ZM11.8289 64.0752L11.8582 65.4302C12.1561 64.9419 12.5271 64.5708 12.9715 64.3169C13.4158 64.0581 13.9065 63.9287 14.4437 63.9287C15.2933 63.9287 15.9256 64.168 16.3406 64.6465C16.7557 65.125 16.9656 65.8428 16.9705 66.7998V72H16.0989V66.7925C16.094 66.0845 15.9427 65.5571 15.6448 65.2104C15.3519 64.8638 14.8807 64.6904 14.2312 64.6904C13.6893 64.6904 13.2083 64.8613 12.7884 65.2031C12.3733 65.54 12.0657 65.9966 11.8655 66.5728V72H10.9939V64.0752H11.8289ZM22.0099 72.1465C21.336 72.1465 20.7257 71.9805 20.1788 71.6484C19.6368 71.3164 19.2145 70.855 18.9117 70.2642C18.609 69.6685 18.4576 69.002 18.4576 68.2646V67.9497C18.4576 67.188 18.6041 66.502 18.8971 65.8916C19.1949 65.2812 19.6075 64.8027 20.1349 64.4561C20.6622 64.1045 21.2335 63.9287 21.8487 63.9287C22.8106 63.9287 23.5724 64.2583 24.1339 64.9175C24.7003 65.5718 24.9835 66.4678 24.9835 67.6055V68.0962H19.3292V68.2646C19.3292 69.1631 19.5855 69.9126 20.0982 70.5132C20.6158 71.1089 21.2652 71.4067 22.0465 71.4067C22.5152 71.4067 22.9278 71.3213 23.2843 71.1504C23.6456 70.9795 23.9728 70.7061 24.2657 70.3301L24.815 70.7476C24.1705 71.6802 23.2354 72.1465 22.0099 72.1465ZM21.8487 64.6758C21.1896 64.6758 20.6329 64.9175 20.1788 65.4009C19.7296 65.8843 19.4562 66.5337 19.3585 67.3491H24.1119V67.2539C24.0875 66.4922 23.8702 65.8721 23.4601 65.3936C23.0499 64.915 22.5128 64.6758 21.8487 64.6758ZM30.3674 72V64.793H29.0563V64.0752H30.3674V63.1157C30.3674 62.3052 30.5725 61.6826 30.9826 61.248C31.3977 60.8135 31.9738 60.5962 32.7111 60.5962C33.0432 60.5962 33.3532 60.6377 33.6413 60.7207L33.5754 61.4531C33.3312 61.3945 33.0651 61.3652 32.7771 61.3652C32.2937 61.3652 31.9177 61.5166 31.6491 61.8193C31.3806 62.1172 31.2463 62.542 31.2463 63.0938V64.0752H33.1359V64.793H31.2463V72H30.3674ZM33.9199 67.9204C33.9199 67.1587 34.0664 66.4727 34.3594 65.8623C34.6572 65.252 35.0747 64.7783 35.6118 64.4414C36.1538 64.0996 36.7666 63.9287 37.4502 63.9287C38.5049 63.9287 39.3594 64.2998 40.0137 65.042C40.668 65.7793 40.9951 66.7583 40.9951 67.979V68.1621C40.9951 68.9287 40.8462 69.6196 40.5483 70.2349C40.2554 70.8452 39.8403 71.3164 39.3032 71.6484C38.7661 71.9805 38.1533 72.1465 37.4648 72.1465C36.415 72.1465 35.5605 71.7778 34.9014 71.0405C34.2471 70.2983 33.9199 69.3169 33.9199 68.0962V67.9204ZM34.7988 68.1621C34.7988 69.1094 35.043 69.8882 35.5312 70.4985C36.0244 71.104 36.6689 71.4067 37.4648 71.4067C38.2559 71.4067 38.8955 71.104 39.3838 70.4985C39.877 69.8882 40.1235 69.085 40.1235 68.0889V67.9204C40.1235 67.3149 40.0112 66.7607 39.7866 66.2578C39.562 65.7549 39.2471 65.3667 38.8418 65.0933C38.4365 64.8149 37.9727 64.6758 37.4502 64.6758C36.6689 64.6758 36.0317 64.9834 35.5386 65.5986C35.0454 66.209 34.7988 67.0098 34.7988 68.001V68.1621ZM46.1736 64.8223C45.9881 64.7881 45.7903 64.771 45.5804 64.771C45.0335 64.771 44.5696 64.9248 44.1888 65.2324C43.8128 65.5352 43.5442 65.9771 43.3831 66.5581V72H42.5115V64.0752H43.3685L43.3831 65.335C43.847 64.3975 44.5916 63.9287 45.617 63.9287C45.8611 63.9287 46.054 63.9604 46.1956 64.0239L46.1736 64.8223ZM55.3588 69.9858C55.3588 69.5513 55.183 69.2021 54.8314 68.9385C54.4848 68.6748 53.9599 68.4697 53.2567 68.3232C52.5536 68.1719 52.0067 68.001 51.6161 67.8105C51.2304 67.6152 50.9423 67.3784 50.7519 67.1001C50.5663 66.8218 50.4735 66.4849 50.4735 66.0894C50.4735 65.4644 50.7348 64.9492 51.2572 64.5439C51.7797 64.1338 52.4486 63.9287 53.2641 63.9287C54.1479 63.9287 54.8559 64.1484 55.3881 64.5879C55.9252 65.0225 56.1937 65.5913 56.1937 66.2944H55.3148C55.3148 65.8306 55.1195 65.4448 54.7289 65.1372C54.3432 64.8296 53.8549 64.6758 53.2641 64.6758C52.6879 64.6758 52.224 64.8052 51.8725 65.064C51.5258 65.3179 51.3524 65.6499 51.3524 66.0601C51.3524 66.4556 51.4965 66.7632 51.7846 66.9829C52.0775 67.1978 52.6073 67.3955 53.3739 67.5762C54.1454 67.7568 54.7216 67.9497 55.1024 68.1548C55.4882 68.3599 55.7738 68.6064 55.9594 68.8945C56.1449 69.1826 56.2377 69.5317 56.2377 69.9419C56.2377 70.6108 55.9667 71.1455 55.4247 71.5459C54.8876 71.9463 54.1845 72.1465 53.3153 72.1465C52.3925 72.1465 51.643 71.9243 51.0668 71.48C50.4955 71.0308 50.2099 70.4644 50.2099 69.7808H51.0888C51.1229 70.2935 51.3378 70.6938 51.7333 70.9819C52.1337 71.2651 52.661 71.4067 53.3153 71.4067C53.9257 71.4067 54.4188 71.2725 54.7948 71.0039C55.1708 70.7354 55.3588 70.396 55.3588 69.9858ZM57.4318 67.9204C57.4318 67.1587 57.5783 66.4727 57.8713 65.8623C58.1691 65.252 58.5866 64.7783 59.1237 64.4414C59.6657 64.0996 60.2785 63.9287 60.9621 63.9287C62.0168 63.9287 62.8713 64.2998 63.5256 65.042C64.1799 65.7793 64.507 66.7583 64.507 67.979V68.1621C64.507 68.9287 64.3581 69.6196 64.0603 70.2349C63.7673 70.8452 63.3522 71.3164 62.8151 71.6484C62.278 71.9805 61.6652 72.1465 60.9768 72.1465C59.927 72.1465 59.0725 71.7778 58.4133 71.0405C57.759 70.2983 57.4318 69.3169 57.4318 68.0962V67.9204ZM58.3107 68.1621C58.3107 69.1094 58.5549 69.8882 59.0432 70.4985C59.5363 71.104 60.1809 71.4067 60.9768 71.4067C61.7678 71.4067 62.4074 71.104 62.8957 70.4985C63.3889 69.8882 63.6354 69.085 63.6354 68.0889V67.9204C63.6354 67.3149 63.5231 66.7607 63.2985 66.2578C63.0739 65.7549 62.759 65.3667 62.3537 65.0933C61.9484 64.8149 61.4846 64.6758 60.9621 64.6758C60.1809 64.6758 59.5437 64.9834 59.0505 65.5986C58.5573 66.209 58.3107 67.0098 58.3107 68.001V68.1621ZM69.6855 64.8223C69.5 64.7881 69.3022 64.771 69.0923 64.771C68.5454 64.771 68.0815 64.9248 67.7007 65.2324C67.3247 65.5352 67.0562 65.9771 66.895 66.5581V72H66.0234V64.0752H66.8804L66.895 65.335C67.3589 64.3975 68.1035 63.9287 69.1289 63.9287C69.373 63.9287 69.5659 63.9604 69.7075 64.0239L69.6855 64.8223ZM74.4393 64.8223C74.2537 64.7881 74.056 64.771 73.846 64.771C73.2991 64.771 72.8353 64.9248 72.4544 65.2324C72.0784 65.5352 71.8099 65.9771 71.6487 66.5581V72H70.7771V64.0752H71.6341L71.6487 65.335C72.1126 64.3975 72.8572 63.9287 73.8826 63.9287C74.1268 63.9287 74.3196 63.9604 74.4612 64.0239L74.4393 64.8223ZM74.901 67.9204C74.901 67.1587 75.0475 66.4727 75.3404 65.8623C75.6383 65.252 76.0558 64.7783 76.5929 64.4414C77.1349 64.0996 77.7477 63.9287 78.4313 63.9287C79.4859 63.9287 80.3404 64.2998 80.9947 65.042C81.649 65.7793 81.9762 66.7583 81.9762 67.979V68.1621C81.9762 68.9287 81.8272 69.6196 81.5294 70.2349C81.2364 70.8452 80.8214 71.3164 80.2843 71.6484C79.7472 71.9805 79.1344 72.1465 78.4459 72.1465C77.3961 72.1465 76.5416 71.7778 75.8824 71.0405C75.2281 70.2983 74.901 69.3169 74.901 68.0962V67.9204ZM75.7799 68.1621C75.7799 69.1094 76.024 69.8882 76.5123 70.4985C77.0055 71.104 77.65 71.4067 78.4459 71.4067C79.2369 71.4067 79.8766 71.104 80.3648 70.4985C80.858 69.8882 81.1046 69.085 81.1046 68.0889V67.9204C81.1046 67.3149 80.9923 66.7607 80.7677 66.2578C80.5431 65.7549 80.2281 65.3667 79.8229 65.0933C79.4176 64.8149 78.9537 64.6758 78.4313 64.6758C77.65 64.6758 77.0128 64.9834 76.5196 65.5986C76.0265 66.209 75.7799 67.0098 75.7799 68.001V68.1621ZM85.3895 70.1763L85.5214 70.8574L85.6972 70.1396L87.6015 64.0752H88.3485L90.2309 70.0884L90.4359 70.9233L90.6044 70.1543L92.2304 64.0752H93.1386L90.8314 72H90.0844L88.0482 65.7158L87.953 65.2837L87.8578 65.7231L85.8583 72H85.1112L82.8114 64.0752H83.7123L85.3895 70.1763ZM93.4099 73.9922L92.8898 73.6113C93.3342 73.0156 93.5637 72.3979 93.5783 71.7583V70.623H94.4353V71.5386C94.4353 72.5542 94.0935 73.3721 93.4099 73.9922ZM106.66 62.105H103.005V72H102.104V62.105H98.4568V61.3359H106.66V62.105ZM109.356 70.1763L109.487 70.8574L109.663 70.1396L111.567 64.0752H112.315L114.197 70.0884L114.402 70.9233L114.57 70.1543L116.196 64.0752H117.105L114.797 72H114.05L112.014 65.7158L111.919 65.2837L111.824 65.7231L109.824 72H109.077L106.777 64.0752H107.678L109.356 70.1763ZM117.984 67.9204C117.984 67.1587 118.13 66.4727 118.423 65.8623C118.721 65.252 119.139 64.7783 119.676 64.4414C120.218 64.0996 120.83 63.9287 121.514 63.9287C122.569 63.9287 123.423 64.2998 124.078 65.042C124.732 65.7793 125.059 66.7583 125.059 67.979V68.1621C125.059 68.9287 124.91 69.6196 124.612 70.2349C124.319 70.8452 123.904 71.3164 123.367 71.6484C122.83 71.9805 122.217 72.1465 121.529 72.1465C120.479 72.1465 119.624 71.7778 118.965 71.0405C118.311 70.2983 117.984 69.3169 117.984 68.0962V67.9204ZM118.863 68.1621C118.863 69.1094 119.107 69.8882 119.595 70.4985C120.088 71.104 120.733 71.4067 121.529 71.4067C122.32 71.4067 122.959 71.104 123.448 70.4985C123.941 69.8882 124.187 69.085 124.187 68.0889V67.9204C124.187 67.3149 124.075 66.7607 123.85 66.2578C123.626 65.7549 123.311 65.3667 122.906 65.0933C122.5 64.8149 122.037 64.6758 121.514 64.6758C120.733 64.6758 120.096 64.9834 119.602 65.5986C119.109 66.209 118.863 67.0098 118.863 68.001V68.1621ZM130.553 72V64.793H129.242V64.0752H130.553V63.1157C130.553 62.3052 130.758 61.6826 131.168 61.248C131.583 60.8135 132.159 60.5962 132.896 60.5962C133.229 60.5962 133.539 60.6377 133.827 60.7207L133.761 61.4531C133.517 61.3945 133.25 61.3652 132.962 61.3652C132.479 61.3652 132.103 61.5166 131.834 61.8193C131.566 62.1172 131.432 62.542 131.432 63.0938V64.0752H133.321V64.793H131.432V72H130.553ZM134.105 67.9204C134.105 67.1587 134.252 66.4727 134.545 65.8623C134.843 65.252 135.26 64.7783 135.797 64.4414C136.339 64.0996 136.952 63.9287 137.636 63.9287C138.69 63.9287 139.545 64.2998 140.199 65.042C140.853 65.7793 141.18 66.7583 141.18 67.979V68.1621C141.18 68.9287 141.032 69.6196 140.734 70.2349C140.441 70.8452 140.026 71.3164 139.489 71.6484C138.951 71.9805 138.339 72.1465 137.65 72.1465C136.6 72.1465 135.746 71.7778 135.087 71.0405C134.432 70.2983 134.105 69.3169 134.105 68.0962V67.9204ZM134.984 68.1621C134.984 69.1094 135.228 69.8882 135.717 70.4985C136.21 71.104 136.854 71.4067 137.65 71.4067C138.441 71.4067 139.081 71.104 139.569 70.4985C140.062 69.8882 140.309 69.085 140.309 68.0889V67.9204C140.309 67.3149 140.197 66.7607 139.972 66.2578C139.747 65.7549 139.432 65.3667 139.027 65.0933C138.622 64.8149 138.158 64.6758 137.636 64.6758C136.854 64.6758 136.217 64.9834 135.724 65.5986C135.231 66.209 134.984 67.0098 134.984 68.001V68.1621ZM146.359 64.8223C146.173 64.7881 145.976 64.771 145.766 64.771C145.219 64.771 144.755 64.9248 144.374 65.2324C143.998 65.5352 143.73 65.9771 143.568 66.5581V72H142.697V64.0752H143.554L143.568 65.335C144.032 64.3975 144.777 63.9287 145.802 63.9287C146.046 63.9287 146.239 63.9604 146.381 64.0239L146.359 64.8223ZM1.94092 85.0752L1.97021 86.3643C2.26318 85.8857 2.62939 85.5269 3.06885 85.2876C3.5083 85.0483 3.99658 84.9287 4.53369 84.9287C5.78369 84.9287 6.57715 85.4414 6.91406 86.4668C7.19727 85.9736 7.57568 85.5952 8.04932 85.3315C8.52295 85.063 9.04541 84.9287 9.6167 84.9287C11.3159 84.9287 12.1826 85.8564 12.2168 87.7119V93H11.3379V87.7778C11.333 87.0698 11.1792 86.5449 10.8765 86.2031C10.5786 85.8613 10.0903 85.6904 9.41162 85.6904C8.78174 85.7002 8.24951 85.9053 7.81494 86.3057C7.38037 86.7012 7.13867 87.1846 7.08984 87.7559V93H6.21094V87.7119C6.20605 87.0332 6.04492 86.5278 5.72754 86.1958C5.41504 85.8589 4.93164 85.6904 4.27734 85.6904C3.72559 85.6904 3.25195 85.8491 2.85645 86.1665C2.46094 86.479 2.16797 86.9453 1.97754 87.5654V93H1.09863V85.0752H1.94092ZM15.1248 93H14.2459V85.0752H15.1248V93ZM14.0921 82.7827C14.0921 82.6167 14.1458 82.4775 14.2532 82.3652C14.3606 82.248 14.5071 82.1895 14.6927 82.1895C14.8782 82.1895 15.0247 82.248 15.1321 82.3652C15.2444 82.4775 15.3006 82.6167 15.3006 82.7827C15.3006 82.9487 15.2444 83.0879 15.1321 83.2002C15.0247 83.3125 14.8782 83.3687 14.6927 83.3687C14.5071 83.3687 14.3606 83.3125 14.2532 83.2002C14.1458 83.0879 14.0921 82.9487 14.0921 82.7827ZM20.8746 85.8223C20.6891 85.7881 20.4913 85.771 20.2813 85.771C19.7345 85.771 19.2706 85.9248 18.8897 86.2324C18.5138 86.5352 18.2452 86.9771 18.0841 87.5581V93H17.2125V85.0752H18.0694L18.0841 86.335C18.5479 85.3975 19.2926 84.9287 20.318 84.9287C20.5621 84.9287 20.755 84.9604 20.8966 85.0239L20.8746 85.8223ZM23.6947 83.0464V85.0752H25.3354V85.793H23.6947V91.0737C23.6947 91.5132 23.7729 91.8403 23.9291 92.0552C24.0902 92.27 24.3563 92.3774 24.7274 92.3774C24.8739 92.3774 25.1107 92.353 25.4379 92.3042L25.4745 93.022C25.245 93.105 24.9325 93.1465 24.537 93.1465C23.9364 93.1465 23.4994 92.9731 23.226 92.6265C22.9525 92.2749 22.8158 91.7598 22.8158 91.0811V85.793H21.3583V85.0752H22.8158V83.0464H23.6947ZM27.7233 86.4155C28.0114 85.9419 28.3801 85.5757 28.8293 85.3169C29.2785 85.0581 29.7692 84.9287 30.3015 84.9287C31.1511 84.9287 31.7834 85.168 32.1984 85.6465C32.6135 86.125 32.8234 86.8428 32.8283 87.7998V93H31.9567V87.7925C31.9519 87.0845 31.8005 86.5571 31.5026 86.2104C31.2097 85.8638 30.7385 85.6904 30.0891 85.6904C29.5471 85.6904 29.0661 85.8613 28.6462 86.2031C28.2312 86.54 27.9235 86.9966 27.7233 87.5728V93H26.8518V81.75H27.7233V86.4155ZM34.6011 94.9922L34.0811 94.6113C34.5254 94.0156 34.7549 93.3979 34.7695 92.7583V91.623H35.6265V92.5386C35.6265 93.5542 35.2847 94.3721 34.6011 94.9922ZM47.8512 83.105H44.1964V93H43.2955V83.105H39.648V82.3359H47.8512V83.105ZM49.9462 86.4155C50.2343 85.9419 50.6029 85.5757 51.0521 85.3169C51.5014 85.0581 51.9921 84.9287 52.5243 84.9287C53.3739 84.9287 54.0062 85.168 54.4213 85.6465C54.8363 86.125 55.0463 86.8428 55.0512 87.7998V93H54.1796V87.7925C54.1747 87.0845 54.0233 86.5571 53.7255 86.2104C53.4325 85.8638 52.9613 85.6904 52.3119 85.6904C51.7699 85.6904 51.289 85.8613 50.869 86.2031C50.454 86.54 50.1464 86.9966 49.9462 87.5728V93H49.0746V81.75H49.9462V86.4155ZM60.6691 85.8223C60.4836 85.7881 60.2858 85.771 60.0759 85.771C59.529 85.771 59.0651 85.9248 58.6843 86.2324C58.3083 86.5352 58.0397 86.9771 57.8786 87.5581V93H57.007V85.0752H57.864L57.8786 86.335C58.3425 85.3975 59.0871 84.9287 60.1125 84.9287C60.3566 84.9287 60.5495 84.9604 60.6911 85.0239L60.6691 85.8223ZM64.6831 93.1465C64.0093 93.1465 63.3989 92.9805 62.8521 92.6484C62.3101 92.3164 61.8877 91.855 61.585 91.2642C61.2822 90.6685 61.1309 90.002 61.1309 89.2646V88.9497C61.1309 88.188 61.2773 87.502 61.5703 86.8916C61.8682 86.2812 62.2808 85.8027 62.8081 85.4561C63.3354 85.1045 63.9067 84.9287 64.522 84.9287C65.4839 84.9287 66.2456 85.2583 66.8071 85.9175C67.3735 86.5718 67.6567 87.4678 67.6567 88.6055V89.0962H62.0024V89.2646C62.0024 90.1631 62.2588 90.9126 62.7715 91.5132C63.2891 92.1089 63.9385 92.4067 64.7197 92.4067C65.1885 92.4067 65.6011 92.3213 65.9575 92.1504C66.3188 91.9795 66.646 91.7061 66.939 91.3301L67.4883 91.7476C66.8438 92.6802 65.9087 93.1465 64.6831 93.1465ZM64.522 85.6758C63.8628 85.6758 63.3062 85.9175 62.8521 86.4009C62.4028 86.8843 62.1294 87.5337 62.0317 88.3491H66.7852V88.2539C66.7607 87.4922 66.5435 86.8721 66.1333 86.3936C65.7231 85.915 65.186 85.6758 64.522 85.6758ZM72.1321 93.1465C71.4583 93.1465 70.8479 92.9805 70.3011 92.6484C69.7591 92.3164 69.3367 91.855 69.034 91.2642C68.7312 90.6685 68.5799 90.002 68.5799 89.2646V88.9497C68.5799 88.188 68.7264 87.502 69.0193 86.8916C69.3172 86.2812 69.7298 85.8027 70.2571 85.4561C70.7845 85.1045 71.3558 84.9287 71.971 84.9287C72.9329 84.9287 73.6946 85.2583 74.2561 85.9175C74.8226 86.5718 75.1058 87.4678 75.1058 88.6055V89.0962H69.4515V89.2646C69.4515 90.1631 69.7078 90.9126 70.2205 91.5132C70.7381 92.1089 71.3875 92.4067 72.1687 92.4067C72.6375 92.4067 73.0501 92.3213 73.4065 92.1504C73.7679 91.9795 74.095 91.7061 74.388 91.3301L74.9373 91.7476C74.2928 92.6802 73.3577 93.1465 72.1321 93.1465ZM71.971 85.6758C71.3118 85.6758 70.7552 85.9175 70.3011 86.4009C69.8519 86.8843 69.5784 87.5337 69.4808 88.3491H74.2342V88.2539C74.2098 87.4922 73.9925 86.8721 73.5823 86.3936C73.1722 85.915 72.6351 85.6758 71.971 85.6758ZM80.4896 93V85.793H79.1786V85.0752H80.4896V84.1157C80.4896 83.3052 80.6947 82.6826 81.1049 82.248C81.5199 81.8135 82.0961 81.5962 82.8334 81.5962C83.1654 81.5962 83.4755 81.6377 83.7636 81.7207L83.6977 82.4531C83.4535 82.3945 83.1874 82.3652 82.8993 82.3652C82.4159 82.3652 82.0399 82.5166 81.7714 82.8193C81.5028 83.1172 81.3686 83.542 81.3686 84.0938V85.0752H83.2582V85.793H81.3686V93H80.4896ZM84.0422 88.9204C84.0422 88.1587 84.1887 87.4727 84.4816 86.8623C84.7795 86.252 85.197 85.7783 85.7341 85.4414C86.2761 85.0996 86.8889 84.9287 87.5725 84.9287C88.6272 84.9287 89.4816 85.2998 90.1359 86.042C90.7902 86.7793 91.1174 87.7583 91.1174 88.979V89.1621C91.1174 89.9287 90.9685 90.6196 90.6706 91.2349C90.3776 91.8452 89.9626 92.3164 89.4255 92.6484C88.8884 92.9805 88.2756 93.1465 87.5871 93.1465C86.5373 93.1465 85.6828 92.7778 85.0236 92.0405C84.3693 91.2983 84.0422 90.3169 84.0422 89.0962V88.9204ZM84.9211 89.1621C84.9211 90.1094 85.1652 90.8882 85.6535 91.4985C86.1467 92.104 86.7912 92.4067 87.5871 92.4067C88.3781 92.4067 89.0178 92.104 89.5061 91.4985C89.9992 90.8882 90.2458 90.085 90.2458 89.0889V88.9204C90.2458 88.3149 90.1335 87.7607 89.9089 87.2578C89.6843 86.7549 89.3693 86.3667 88.9641 86.0933C88.5588 85.8149 88.0949 85.6758 87.5725 85.6758C86.7912 85.6758 86.154 85.9834 85.6608 86.5986C85.1677 87.209 84.9211 88.0098 84.9211 89.001V89.1621ZM96.2959 85.8223C96.1104 85.7881 95.9126 85.771 95.7026 85.771C95.1558 85.771 94.6919 85.9248 94.311 86.2324C93.9351 86.5352 93.6665 86.9771 93.5054 87.5581V93H92.6338V85.0752H93.4907L93.5054 86.335C93.9692 85.3975 94.7139 84.9287 95.7393 84.9287C95.9834 84.9287 96.1763 84.9604 96.3179 85.0239L96.2959 85.8223ZM105.737 93C105.65 92.751 105.593 92.3823 105.569 91.894C105.261 92.2944 104.868 92.6045 104.39 92.8242C103.916 93.0391 103.413 93.1465 102.881 93.1465C102.119 93.1465 101.502 92.9341 101.028 92.5093C100.559 92.0845 100.325 91.5474 100.325 90.8979C100.325 90.1265 100.645 89.5161 101.284 89.0669C101.929 88.6177 102.825 88.3931 103.972 88.3931H105.562V87.4922C105.562 86.9258 105.386 86.4814 105.034 86.1592C104.688 85.832 104.18 85.6685 103.511 85.6685C102.9 85.6685 102.395 85.8247 101.995 86.1372C101.594 86.4497 101.394 86.8257 101.394 87.2651L100.515 87.2578C100.515 86.6279 100.808 86.0835 101.394 85.6245C101.98 85.1606 102.7 84.9287 103.555 84.9287C104.439 84.9287 105.134 85.1509 105.642 85.5952C106.155 86.0347 106.419 86.6499 106.433 87.4409V91.1909C106.433 91.9575 106.514 92.5312 106.675 92.9121V93H105.737ZM102.983 92.3701C103.569 92.3701 104.092 92.2285 104.551 91.9453C105.015 91.6621 105.352 91.2837 105.562 90.8101V89.0669H103.994C103.12 89.0767 102.437 89.2378 101.943 89.5503C101.45 89.8579 101.204 90.2827 101.204 90.8247C101.204 91.269 101.367 91.6377 101.694 91.9307C102.026 92.2236 102.456 92.3701 102.983 92.3701ZM113.721 91.1763L113.853 91.8574L114.029 91.1396L115.933 85.0752H116.68L118.563 91.0884L118.768 91.9233L118.936 91.1543L120.562 85.0752H121.47L119.163 93H118.416L116.38 86.7158L116.285 86.2837L116.19 86.7231L114.19 93H113.443L111.143 85.0752H112.044L113.721 91.1763ZM125.902 93.1465C125.228 93.1465 124.618 92.9805 124.071 92.6484C123.529 92.3164 123.106 91.855 122.804 91.2642C122.501 90.6685 122.35 90.002 122.35 89.2646V88.9497C122.35 88.188 122.496 87.502 122.789 86.8916C123.087 86.2812 123.5 85.8027 124.027 85.4561C124.554 85.1045 125.125 84.9287 125.741 84.9287C126.703 84.9287 127.464 85.2583 128.026 85.9175C128.592 86.5718 128.875 87.4678 128.875 88.6055V89.0962H123.221V89.2646C123.221 90.1631 123.478 90.9126 123.99 91.5132C124.508 92.1089 125.157 92.4067 125.938 92.4067C126.407 92.4067 126.82 92.3213 127.176 92.1504C127.538 91.9795 127.865 91.7061 128.158 91.3301L128.707 91.7476C128.062 92.6802 127.127 93.1465 125.902 93.1465ZM125.741 85.6758C125.082 85.6758 124.525 85.9175 124.071 86.4009C123.622 86.8843 123.348 87.5337 123.25 88.3491H128.004V88.2539C127.979 87.4922 127.762 86.8721 127.352 86.3936C126.942 85.915 126.405 85.6758 125.741 85.6758ZM129.93 88.9644C129.93 87.7339 130.204 86.7549 130.751 86.0273C131.303 85.2949 132.05 84.9287 132.992 84.9287C134.061 84.9287 134.877 85.3511 135.438 86.1958V81.75H136.31V93H135.49L135.453 91.9453C134.891 92.7461 134.066 93.1465 132.977 93.1465C132.064 93.1465 131.327 92.7803 130.765 92.0479C130.209 91.3105 129.93 90.3169 129.93 89.0669V88.9644ZM130.817 89.1182C130.817 90.1289 131.019 90.9272 131.425 91.5132C131.83 92.0942 132.401 92.3848 133.138 92.3848C134.218 92.3848 134.984 91.9087 135.438 90.9565V87.2358C134.984 86.2056 134.222 85.6904 133.153 85.6904C132.416 85.6904 131.842 85.981 131.432 86.562C131.022 87.1382 130.817 87.9902 130.817 89.1182ZM137.965 88.9644C137.965 87.7339 138.239 86.7549 138.786 86.0273C139.337 85.2949 140.085 84.9287 141.027 84.9287C142.096 84.9287 142.912 85.3511 143.473 86.1958V81.75H144.345V93H143.525L143.488 91.9453C142.926 92.7461 142.101 93.1465 141.012 93.1465C140.099 93.1465 139.362 92.7803 138.8 92.0479C138.244 91.3105 137.965 90.3169 137.965 89.0669V88.9644ZM138.852 89.1182C138.852 90.1289 139.054 90.9272 139.46 91.5132C139.865 92.0942 140.436 92.3848 141.173 92.3848C142.253 92.3848 143.019 91.9087 143.473 90.9565V87.2358C143.019 86.2056 142.257 85.6904 141.188 85.6904C140.451 85.6904 139.877 85.981 139.467 86.562C139.057 87.1382 138.852 87.9902 138.852 89.1182ZM147.333 93H146.454V85.0752H147.333V93ZM146.301 82.7827C146.301 82.6167 146.354 82.4775 146.462 82.3652C146.569 82.248 146.716 82.1895 146.901 82.1895C147.087 82.1895 147.233 82.248 147.341 82.3652C147.453 82.4775 147.509 82.6167 147.509 82.7827C147.509 82.9487 147.453 83.0879 147.341 83.2002C147.233 83.3125 147.087 83.3687 146.901 83.3687C146.716 83.3687 146.569 83.3125 146.462 83.2002C146.354 83.0879 146.301 82.9487 146.301 82.7827ZM150.256 85.0752L150.285 86.4302C150.583 85.9419 150.954 85.5708 151.399 85.3169C151.843 85.0581 152.334 84.9287 152.871 84.9287C153.72 84.9287 154.353 85.168 154.768 85.6465C155.183 86.125 155.393 86.8428 155.398 87.7998V93H154.526V87.7925C154.521 87.0845 154.37 86.5571 154.072 86.2104C153.779 85.8638 153.308 85.6904 152.658 85.6904C152.116 85.6904 151.635 85.8613 151.216 86.2031C150.8 86.54 150.493 86.9966 150.293 87.5728V93H149.421V85.0752H150.256ZM157.017 88.9644C157.017 87.7241 157.29 86.7427 157.837 86.02C158.389 85.2925 159.136 84.9287 160.078 84.9287C161.157 84.9287 161.978 85.3584 162.539 86.2178L162.583 85.0752H163.403V92.8389C163.403 93.8594 163.118 94.6675 162.546 95.2632C161.975 95.8589 161.201 96.1567 160.225 96.1567C159.673 96.1567 159.146 96.0322 158.643 95.7832C158.145 95.5391 157.751 95.2119 157.463 94.8018L157.954 94.2744C158.574 95.0361 159.312 95.417 160.166 95.417C160.898 95.417 161.47 95.1997 161.88 94.7651C162.29 94.3354 162.502 93.7373 162.517 92.9707V91.9746C161.956 92.7559 161.138 93.1465 160.063 93.1465C159.146 93.1465 158.408 92.7803 157.852 92.0479C157.295 91.3154 157.017 90.3267 157.017 89.0815V88.9644ZM157.903 89.1182C157.903 90.1289 158.105 90.9272 158.511 91.5132C158.916 92.0942 159.487 92.3848 160.225 92.3848C161.304 92.3848 162.068 91.9014 162.517 90.9346V87.2505C162.312 86.7427 162.017 86.3569 161.631 86.0933C161.245 85.8247 160.781 85.6904 160.239 85.6904C159.502 85.6904 158.928 85.981 158.518 86.562C158.108 87.1382 157.903 87.9902 157.903 89.1182ZM165.205 94.9922L164.685 94.6113C165.13 94.0156 165.359 93.3979 165.374 92.7583V91.623H166.231V92.5386C166.231 93.5542 165.889 94.3721 165.205 94.9922ZM7.10449 111.012H2.26318L1.16455 114H0.219727L4.25537 103.336H5.1123L9.14795 114H8.21045L7.10449 111.012ZM2.5415 110.243H6.81885L4.68018 104.435L2.5415 110.243ZM11.0525 106.075L11.0818 107.43C11.3797 106.942 11.7508 106.571 12.1951 106.317C12.6395 106.058 13.1302 105.929 13.6673 105.929C14.5169 105.929 15.1492 106.168 15.5643 106.646C15.9793 107.125 16.1893 107.843 16.1941 108.8V114H15.3226V108.792C15.3177 108.084 15.1663 107.557 14.8685 107.21C14.5755 106.864 14.1043 106.69 13.4549 106.69C12.9129 106.69 12.4319 106.861 12.012 107.203C11.597 107.54 11.2894 107.997 11.0892 108.573V114H10.2176V106.075H11.0525ZM17.8131 109.964C17.8131 108.734 18.0865 107.755 18.6334 107.027C19.1852 106.295 19.9322 105.929 20.8746 105.929C21.9439 105.929 22.7594 106.351 23.3209 107.196V102.75H24.1925V114H23.3722L23.3355 112.945C22.774 113.746 21.9488 114.146 20.86 114.146C19.9469 114.146 19.2096 113.78 18.648 113.048C18.0914 112.311 17.8131 111.317 17.8131 110.067V109.964ZM18.6993 110.118C18.6993 111.129 18.902 111.927 19.3072 112.513C19.7125 113.094 20.2838 113.385 21.0211 113.385C22.1002 113.385 22.8668 112.909 23.3209 111.957V108.236C22.8668 107.206 22.1051 106.69 21.0357 106.69C20.2984 106.69 19.7247 106.981 19.3146 107.562C18.9044 108.138 18.6993 108.99 18.6993 110.118ZM30.177 114V106.793H28.8659V106.075H30.177V105.116C30.177 104.305 30.382 103.683 30.7922 103.248C31.2072 102.813 31.7834 102.596 32.5207 102.596C32.8527 102.596 33.1628 102.638 33.4509 102.721L33.385 103.453C33.1408 103.395 32.8747 103.365 32.5866 103.365C32.1032 103.365 31.7272 103.517 31.4587 103.819C31.1901 104.117 31.0559 104.542 31.0559 105.094V106.075H32.9455V106.793H31.0559V114H30.177ZM33.7295 109.92C33.7295 109.159 33.876 108.473 34.1689 107.862C34.4668 107.252 34.8843 106.778 35.4214 106.441C35.9634 106.1 36.5762 105.929 37.2598 105.929C38.3145 105.929 39.1689 106.3 39.8232 107.042C40.4775 107.779 40.8047 108.758 40.8047 109.979V110.162C40.8047 110.929 40.6558 111.62 40.3579 112.235C40.0649 112.845 39.6499 113.316 39.1128 113.648C38.5757 113.98 37.9629 114.146 37.2744 114.146C36.2246 114.146 35.3701 113.778 34.7109 113.041C34.0566 112.298 33.7295 111.317 33.7295 110.096V109.92ZM34.6084 110.162C34.6084 111.109 34.8525 111.888 35.3408 112.499C35.834 113.104 36.4785 113.407 37.2744 113.407C38.0654 113.407 38.7051 113.104 39.1934 112.499C39.6865 111.888 39.9331 111.085 39.9331 110.089V109.92C39.9331 109.315 39.8208 108.761 39.5962 108.258C39.3716 107.755 39.0566 107.367 38.6514 107.093C38.2461 106.815 37.7822 106.676 37.2598 106.676C36.4785 106.676 35.8413 106.983 35.3481 107.599C34.855 108.209 34.6084 109.01 34.6084 110.001V110.162ZM47.4188 112.997C46.8914 113.763 46.0491 114.146 44.8919 114.146C44.0472 114.146 43.4051 113.902 42.9656 113.414C42.5262 112.921 42.3016 112.193 42.2918 111.231V106.075H43.1634V111.122C43.1634 112.63 43.7737 113.385 44.9944 113.385C46.264 113.385 47.0672 112.86 47.4041 111.81V106.075H48.283V114H47.4334L47.4188 112.997ZM53.9303 106.822C53.7447 106.788 53.547 106.771 53.337 106.771C52.7901 106.771 52.3263 106.925 51.9454 107.232C51.5694 107.535 51.3009 107.977 51.1397 108.558V114H50.2682V106.075H51.1251L51.1397 107.335C51.6036 106.397 52.3482 105.929 53.3736 105.929C53.6178 105.929 53.8106 105.96 53.9522 106.024L53.9303 106.822ZM58.9992 114V106.793H57.6882V106.075H58.9992V105.116C58.9992 104.305 59.2043 103.683 59.6145 103.248C60.0295 102.813 60.6057 102.596 61.343 102.596C61.675 102.596 61.9851 102.638 62.2731 102.721L62.2072 103.453C61.9631 103.395 61.697 103.365 61.4089 103.365C60.9255 103.365 60.5495 103.517 60.281 103.819C60.0124 104.117 59.8781 104.542 59.8781 105.094V106.075H61.7678V106.793H59.8781V114H58.9992ZM62.5518 109.92C62.5518 109.159 62.6982 108.473 62.9912 107.862C63.2891 107.252 63.7065 106.778 64.2437 106.441C64.7856 106.1 65.3984 105.929 66.082 105.929C67.1367 105.929 67.9912 106.3 68.6455 107.042C69.2998 107.779 69.627 108.758 69.627 109.979V110.162C69.627 110.929 69.478 111.62 69.1802 112.235C68.8872 112.845 68.4722 113.316 67.9351 113.648C67.3979 113.98 66.7852 114.146 66.0967 114.146C65.0469 114.146 64.1924 113.778 63.5332 113.041C62.8789 112.298 62.5518 111.317 62.5518 110.096V109.92ZM63.4307 110.162C63.4307 111.109 63.6748 111.888 64.1631 112.499C64.6562 113.104 65.3008 113.407 66.0967 113.407C66.8877 113.407 67.5273 113.104 68.0156 112.499C68.5088 111.888 68.7554 111.085 68.7554 110.089V109.92C68.7554 109.315 68.6431 108.761 68.4185 108.258C68.1938 107.755 67.8789 107.367 67.4736 107.093C67.0684 106.815 66.6045 106.676 66.082 106.676C65.3008 106.676 64.6636 106.983 64.1704 107.599C63.6772 108.209 63.4307 109.01 63.4307 110.001V110.162ZM74.8055 106.822C74.6199 106.788 74.4222 106.771 74.2122 106.771C73.6653 106.771 73.2015 106.925 72.8206 107.232C72.4446 107.535 72.1761 107.977 72.0149 108.558V114H71.1434V106.075H72.0003L72.0149 107.335C72.4788 106.397 73.2234 105.929 74.2488 105.929C74.493 105.929 74.6858 105.96 74.8274 106.024L74.8055 106.822ZM78.893 109.964C78.893 108.734 79.1664 107.755 79.7133 107.027C80.265 106.295 81.0121 105.929 81.9545 105.929C83.0238 105.929 83.8393 106.351 84.4008 107.196V102.75H85.2724V114H84.452L84.4154 112.945C83.8539 113.746 83.0287 114.146 81.9398 114.146C81.0268 114.146 80.2895 113.78 79.7279 113.048C79.1713 112.311 78.893 111.317 78.893 110.067V109.964ZM79.7792 110.118C79.7792 111.129 79.9818 111.927 80.3871 112.513C80.7924 113.094 81.3637 113.385 82.101 113.385C83.1801 113.385 83.9467 112.909 84.4008 111.957V108.236C83.9467 107.206 83.185 106.69 82.1156 106.69C81.3783 106.69 80.8046 106.981 80.3944 107.562C79.9843 108.138 79.7792 108.99 79.7792 110.118ZM90.3483 114.146C89.6745 114.146 89.0642 113.98 88.5173 113.648C87.9753 113.316 87.5529 112.855 87.2502 112.264C86.9475 111.668 86.7961 111.002 86.7961 110.265V109.95C86.7961 109.188 86.9426 108.502 87.2355 107.892C87.5334 107.281 87.946 106.803 88.4733 106.456C89.0007 106.104 89.572 105.929 90.1872 105.929C91.1491 105.929 91.9108 106.258 92.4724 106.917C93.0388 107.572 93.322 108.468 93.322 109.605V110.096H87.6677V110.265C87.6677 111.163 87.924 111.913 88.4367 112.513C88.9543 113.109 89.6037 113.407 90.385 113.407C90.8537 113.407 91.2663 113.321 91.6228 113.15C91.9841 112.979 92.3112 112.706 92.6042 112.33L93.1535 112.748C92.509 113.68 91.5739 114.146 90.3483 114.146ZM90.1872 106.676C89.528 106.676 88.9714 106.917 88.5173 107.401C88.0681 107.884 87.7946 108.534 87.697 109.349H92.4504V109.254C92.426 108.492 92.2087 107.872 91.7985 107.394C91.3884 106.915 90.8513 106.676 90.1872 106.676ZM99.731 114C99.6431 113.751 99.5869 113.382 99.5625 112.894C99.2549 113.294 98.8618 113.604 98.3833 113.824C97.9097 114.039 97.4067 114.146 96.8745 114.146C96.1128 114.146 95.4951 113.934 95.0215 113.509C94.5527 113.084 94.3184 112.547 94.3184 111.898C94.3184 111.126 94.6382 110.516 95.2778 110.067C95.9224 109.618 96.8184 109.393 97.9658 109.393H99.5552V108.492C99.5552 107.926 99.3794 107.481 99.0278 107.159C98.6812 106.832 98.1733 106.668 97.5044 106.668C96.894 106.668 96.3887 106.825 95.9883 107.137C95.5879 107.45 95.3877 107.826 95.3877 108.265L94.5088 108.258C94.5088 107.628 94.8018 107.083 95.3877 106.625C95.9736 106.161 96.6938 105.929 97.5483 105.929C98.4321 105.929 99.1279 106.151 99.6357 106.595C100.148 107.035 100.412 107.65 100.427 108.441V112.191C100.427 112.958 100.507 113.531 100.668 113.912V114H99.731ZM96.9771 113.37C97.563 113.37 98.0854 113.229 98.5444 112.945C99.0083 112.662 99.3452 112.284 99.5552 111.81V110.067H97.9878C97.1138 110.077 96.4302 110.238 95.937 110.55C95.4438 110.858 95.1973 111.283 95.1973 111.825C95.1973 112.269 95.3608 112.638 95.688 112.931C96.02 113.224 96.4497 113.37 96.9771 113.37ZM103.833 104.046V106.075H105.473V106.793H103.833V112.074C103.833 112.513 103.911 112.84 104.067 113.055C104.228 113.27 104.494 113.377 104.866 113.377C105.012 113.377 105.249 113.353 105.576 113.304L105.613 114.022C105.383 114.105 105.071 114.146 104.675 114.146C104.075 114.146 103.637 113.973 103.364 113.626C103.091 113.275 102.954 112.76 102.954 112.081V106.793H101.496V106.075H102.954V104.046H103.833ZM107.861 107.416C108.15 106.942 108.518 106.576 108.967 106.317C109.417 106.058 109.907 105.929 110.44 105.929C111.289 105.929 111.921 106.168 112.337 106.646C112.752 107.125 112.962 107.843 112.966 108.8V114H112.095V108.792C112.09 108.084 111.939 107.557 111.641 107.21C111.348 106.864 110.877 106.69 110.227 106.69C109.685 106.69 109.204 106.861 108.784 107.203C108.369 107.54 108.062 107.997 107.861 108.573V114H106.99V102.75H107.861V107.416Z" fill="#2A2921"/>
</svg>
