<svg width="169" height="136" viewBox="0 0 169 136" fill="none" xmlns="http://www.w3.org/2000/svg">
<path d="M12.832 28H9.90234L4.19922 18.6445V28H1.26953V13.7812H4.19922L9.91211 23.1562V13.7812H12.832V28ZM21.1332 26.9258C20.4366 27.7721 19.473 28.1953 18.2426 28.1953C17.1098 28.1953 16.2439 27.8698 15.6449 27.2188C15.0525 26.5677 14.7497 25.6139 14.7367 24.3574V17.4336H17.559V24.2598C17.559 25.36 18.0603 25.9102 19.0629 25.9102C20.0199 25.9102 20.6775 25.5781 21.0355 24.9141V17.4336H23.8676V28H21.2113L21.1332 26.9258ZM31.534 20.0801C31.1499 20.028 30.8113 20.002 30.5184 20.002C29.4507 20.002 28.7508 20.3633 28.4188 21.0859V28H25.5965V17.4336H28.2625L28.3406 18.6934C28.907 17.7233 29.6915 17.2383 30.6941 17.2383C31.0066 17.2383 31.2996 17.2806 31.573 17.3652L31.534 20.0801ZM38.2238 25.0801C38.2238 24.735 38.0513 24.4648 37.7062 24.2695C37.3677 24.0677 36.8208 23.8887 36.0656 23.7324C33.5526 23.2051 32.2961 22.1374 32.2961 20.5293C32.2961 19.5918 32.6835 18.8105 33.4582 18.1855C34.2395 17.554 35.2583 17.2383 36.5148 17.2383C37.856 17.2383 38.927 17.554 39.7277 18.1855C40.535 18.8171 40.9387 19.6374 40.9387 20.6465H38.1164C38.1164 20.2428 37.9862 19.9108 37.7258 19.6504C37.4654 19.3835 37.0585 19.25 36.5051 19.25C36.0298 19.25 35.662 19.3574 35.4016 19.5723C35.1411 19.7871 35.0109 20.0605 35.0109 20.3926C35.0109 20.7051 35.1574 20.959 35.4504 21.1543C35.7499 21.3431 36.2512 21.5091 36.9543 21.6523C37.6574 21.7891 38.2499 21.9453 38.7316 22.1211C40.2225 22.668 40.968 23.6152 40.968 24.9629C40.968 25.9264 40.5546 26.7077 39.7277 27.3066C38.9009 27.8991 37.8332 28.1953 36.5246 28.1953C35.6392 28.1953 34.8514 28.0391 34.1613 27.7266C33.4777 27.4076 32.9406 26.9746 32.55 26.4277C32.1594 25.8743 31.9641 25.2786 31.9641 24.6406H34.6398C34.6659 25.1419 34.8514 25.526 35.1965 25.793C35.5415 26.0599 36.0038 26.1934 36.5832 26.1934C37.1236 26.1934 37.5305 26.0924 37.8039 25.8906C38.0839 25.6823 38.2238 25.4121 38.2238 25.0801ZM47.2574 28.1953C45.7079 28.1953 44.4449 27.7201 43.4684 26.7695C42.4983 25.819 42.0133 24.5527 42.0133 22.9707V22.6973C42.0133 21.6361 42.2184 20.6888 42.6285 19.8555C43.0387 19.0156 43.6181 18.3711 44.3668 17.9219C45.122 17.4661 45.9814 17.2383 46.9449 17.2383C48.3902 17.2383 49.5263 17.694 50.3531 18.6055C51.1865 19.5169 51.6031 20.8092 51.6031 22.4824V23.6348H44.8746C44.9658 24.3249 45.2392 24.8783 45.6949 25.2949C46.1572 25.7116 46.7398 25.9199 47.443 25.9199C48.5302 25.9199 49.3798 25.526 49.9918 24.7383L51.3785 26.291C50.9553 26.89 50.3824 27.3587 49.6598 27.6973C48.9371 28.0293 48.1363 28.1953 47.2574 28.1953ZM46.9352 19.5234C46.3753 19.5234 45.9195 19.7122 45.568 20.0898C45.2229 20.4674 45.0016 21.0078 44.9039 21.7109H48.8297V21.4863C48.8167 20.8613 48.6474 20.3796 48.3219 20.041C47.9964 19.696 47.5341 19.5234 46.9352 19.5234ZM58.752 20.0801C58.3678 20.028 58.0293 20.002 57.7363 20.002C56.6686 20.002 55.9688 20.3633 55.6367 21.0859V28H52.8145V17.4336H55.4805L55.5586 18.6934C56.125 17.7233 56.9095 17.2383 57.9121 17.2383C58.2246 17.2383 58.5176 17.2806 58.791 17.3652L58.752 20.0801ZM63.8402 24.0059L65.7934 17.4336H68.8207L64.5727 29.6406L64.3383 30.1973C63.7068 31.5775 62.6651 32.2676 61.2133 32.2676C60.8031 32.2676 60.3865 32.2057 59.9633 32.082V29.9434L60.393 29.9531C60.9268 29.9531 61.324 29.8717 61.5844 29.709C61.8513 29.5462 62.0596 29.276 62.2094 28.8984L62.5414 28.0293L58.8402 17.4336H61.8773L63.8402 24.0059ZM79.5637 22.7949H77.2297V28H74.3V13.7812H79.5832C81.2629 13.7812 82.5585 14.1556 83.4699 14.9043C84.3814 15.653 84.8371 16.7109 84.8371 18.0781C84.8371 19.0482 84.6255 19.8587 84.2023 20.5098C83.7857 21.1543 83.1509 21.6686 82.298 22.0527L85.3742 27.8633V28H82.2297L79.5637 22.7949ZM77.2297 20.4219H79.593C80.3286 20.4219 80.8983 20.2363 81.302 19.8652C81.7056 19.4876 81.9074 18.9701 81.9074 18.3125C81.9074 17.6419 81.7154 17.1146 81.3313 16.7305C80.9536 16.3464 80.371 16.1543 79.5832 16.1543H77.2297V20.4219ZM89.2418 18.5859C89.9905 17.6875 90.9313 17.2383 92.0641 17.2383C94.3557 17.2383 95.5178 18.5697 95.5504 21.2324V28H92.7281V21.3105C92.7281 20.7051 92.5979 20.2591 92.3375 19.9727C92.0771 19.6797 91.6441 19.5332 91.0387 19.5332C90.2119 19.5332 89.6129 19.8522 89.2418 20.4902V28H86.4195V13H89.2418V18.5859ZM101.225 24.0059L103.178 17.4336H106.205L101.957 29.6406L101.723 30.1973C101.091 31.5775 100.049 32.2676 98.5977 32.2676C98.1875 32.2676 97.7708 32.2057 97.3477 32.082V29.9434L97.7773 29.9531C98.3112 29.9531 98.7083 29.8717 98.9688 29.709C99.2357 29.5462 99.444 29.276 99.5938 28.8984L99.9258 28.0293L96.2246 17.4336H99.2617L101.225 24.0059ZM109.565 17.4336L109.653 18.6152C110.401 17.6973 111.414 17.2383 112.69 17.2383C114.051 17.2383 114.985 17.7754 115.493 18.8496C116.235 17.7754 117.293 17.2383 118.666 17.2383C119.812 17.2383 120.665 17.5736 121.225 18.2441C121.785 18.9082 122.065 19.9108 122.065 21.252V28H119.233V21.2617C119.233 20.6628 119.116 20.2266 118.881 19.9531C118.647 19.6732 118.233 19.5332 117.641 19.5332C116.795 19.5332 116.209 19.9368 115.883 20.7441L115.893 28H113.071V21.2715C113.071 20.6595 112.95 20.2168 112.709 19.9434C112.468 19.6699 112.058 19.5332 111.479 19.5332C110.678 19.5332 110.099 19.8652 109.741 20.5293V28H106.918V17.4336H109.565ZM128.706 28.1953C127.156 28.1953 125.893 27.7201 124.917 26.7695C123.947 25.819 123.462 24.5527 123.462 22.9707V22.6973C123.462 21.6361 123.667 20.6888 124.077 19.8555C124.487 19.0156 125.067 18.3711 125.815 17.9219C126.57 17.4661 127.43 17.2383 128.393 17.2383C129.839 17.2383 130.975 17.694 131.802 18.6055C132.635 19.5169 133.052 20.8092 133.052 22.4824V23.6348H126.323C126.414 24.3249 126.688 24.8783 127.143 25.2949C127.606 25.7116 128.188 25.9199 128.891 25.9199C129.979 25.9199 130.828 25.526 131.44 24.7383L132.827 26.291C132.404 26.89 131.831 27.3587 131.108 27.6973C130.386 28.0293 129.585 28.1953 128.706 28.1953ZM128.384 19.5234C127.824 19.5234 127.368 19.7122 127.016 20.0898C126.671 20.4674 126.45 21.0078 126.352 21.7109H130.278V21.4863C130.265 20.8613 130.096 20.3796 129.77 20.041C129.445 19.696 128.983 19.5234 128.384 19.5234ZM139.986 25.0801C139.986 24.735 139.813 24.4648 139.468 24.2695C139.129 24.0677 138.583 23.8887 137.827 23.7324C135.314 23.2051 134.058 22.1374 134.058 20.5293C134.058 19.5918 134.445 18.8105 135.22 18.1855C136.001 17.554 137.02 17.2383 138.277 17.2383C139.618 17.2383 140.689 17.554 141.489 18.1855C142.297 18.8171 142.7 19.6374 142.7 20.6465H139.878C139.878 20.2428 139.748 19.9108 139.488 19.6504C139.227 19.3835 138.82 19.25 138.267 19.25C137.792 19.25 137.424 19.3574 137.163 19.5723C136.903 19.7871 136.773 20.0605 136.773 20.3926C136.773 20.7051 136.919 20.959 137.212 21.1543C137.512 21.3431 138.013 21.5091 138.716 21.6523C139.419 21.7891 140.012 21.9453 140.493 22.1211C141.984 22.668 142.73 23.6152 142.73 24.9629C142.73 25.9264 142.316 26.7077 141.489 27.3066C140.663 27.8991 139.595 28.1953 138.286 28.1953C137.401 28.1953 136.613 28.0391 135.923 27.7266C135.239 27.4076 134.702 26.9746 134.312 26.4277C133.921 25.8743 133.726 25.2786 133.726 24.6406H136.402C136.428 25.1419 136.613 25.526 136.958 25.793C137.303 26.0599 137.765 26.1934 138.345 26.1934C138.885 26.1934 139.292 26.0924 139.566 25.8906C139.846 25.6823 139.986 25.4121 139.986 25.0801Z" fill="#2A2921"/>
<path d="M5.625 62.075C4.885 62.075 4.205 61.925 3.585 61.625C2.975 61.315 2.45 60.91 2.01 60.41C1.57 59.9 1.23 59.32 0.99 58.67C0.75 58.02 0.63 57.355 0.63 56.675C0.63 55.965 0.755 55.285 1.005 54.635C1.265 53.985 1.62 53.41 2.07 52.91C2.52 52.41 3.05 52.015 3.66 51.725C4.27 51.425 4.93 51.275 5.64 51.275C6.38 51.275 7.055 51.435 7.665 51.755C8.285 52.065 8.81 52.475 9.24 52.985C9.68 53.495 10.02 54.075 10.26 54.725C10.5 55.365 10.62 56.02 10.62 56.69C10.62 57.4 10.49 58.08 10.23 58.73C9.98 59.38 9.63 59.955 9.18 60.455C8.74 60.945 8.215 61.34 7.605 61.64C6.995 61.93 6.335 62.075 5.625 62.075ZM1.68 56.675C1.68 57.255 1.775 57.815 1.965 58.355C2.155 58.885 2.425 59.36 2.775 59.78C3.125 60.19 3.54 60.52 4.02 60.77C4.5 61.01 5.035 61.13 5.625 61.13C6.225 61.13 6.77 61 7.26 60.74C7.75 60.48 8.165 60.14 8.505 59.72C8.845 59.3 9.105 58.825 9.285 58.295C9.475 57.765 9.57 57.225 9.57 56.675C9.57 56.095 9.47 55.54 9.27 55.01C9.08 54.47 8.81 53.995 8.46 53.585C8.11 53.175 7.695 52.85 7.215 52.61C6.735 52.36 6.205 52.235 5.625 52.235C5.025 52.235 4.48 52.365 3.99 52.625C3.5 52.875 3.085 53.21 2.745 53.63C2.405 54.05 2.14 54.525 1.95 55.055C1.77 55.585 1.68 56.125 1.68 56.675ZM18.6596 62H17.6396V57.635C17.6396 56.705 17.4996 56.03 17.2196 55.61C16.9496 55.19 16.5296 54.98 15.9596 54.98C15.6596 54.98 15.3596 55.035 15.0596 55.145C14.7596 55.255 14.4796 55.41 14.2196 55.61C13.9696 55.81 13.7446 56.05 13.5446 56.33C13.3446 56.6 13.1996 56.895 13.1096 57.215V62H12.0896V54.185H13.0196V55.955C13.3396 55.385 13.7946 54.925 14.3846 54.575C14.9846 54.225 15.6346 54.05 16.3346 54.05C16.7646 54.05 17.1296 54.13 17.4296 54.29C17.7296 54.45 17.9696 54.675 18.1496 54.965C18.3296 55.255 18.4596 55.61 18.5396 56.03C18.6196 56.45 18.6596 56.915 18.6596 57.425V62ZM23.9098 62.15C23.3398 62.15 22.8148 62.045 22.3348 61.835C21.8648 61.615 21.4548 61.32 21.1048 60.95C20.7548 60.57 20.4798 60.135 20.2798 59.645C20.0898 59.155 19.9948 58.63 19.9948 58.07C19.9948 57.52 20.0898 57.005 20.2798 56.525C20.4798 56.035 20.7498 55.61 21.0898 55.25C21.4398 54.88 21.8548 54.59 22.3348 54.38C22.8148 54.16 23.3348 54.05 23.8948 54.05C24.4648 54.05 24.9848 54.16 25.4548 54.38C25.9348 54.59 26.3448 54.88 26.6848 55.25C27.0248 55.62 27.2898 56.045 27.4798 56.525C27.6698 57.005 27.7648 57.515 27.7648 58.055C27.7648 58.135 27.7648 58.215 27.7648 58.295C27.7648 58.375 27.7598 58.43 27.7498 58.46H21.0598C21.0898 58.88 21.1848 59.27 21.3448 59.63C21.5148 59.98 21.7298 60.285 21.9898 60.545C22.2498 60.805 22.5448 61.01 22.8748 61.16C23.2148 61.3 23.5748 61.37 23.9548 61.37C24.2048 61.37 24.4548 61.335 24.7048 61.265C24.9548 61.195 25.1848 61.1 25.3948 60.98C25.6048 60.86 25.7948 60.715 25.9648 60.545C26.1348 60.365 26.2648 60.17 26.3548 59.96L27.2398 60.2C27.1198 60.49 26.9498 60.755 26.7298 60.995C26.5098 61.225 26.2548 61.43 25.9648 61.61C25.6748 61.78 25.3548 61.91 25.0048 62C24.6548 62.1 24.2898 62.15 23.9098 62.15ZM26.7898 57.68C26.7598 57.26 26.6598 56.88 26.4898 56.54C26.3298 56.19 26.1198 55.89 25.8598 55.64C25.6098 55.39 25.3148 55.195 24.9748 55.055C24.6448 54.915 24.2898 54.845 23.9098 54.845C23.5298 54.845 23.1698 54.915 22.8298 55.055C22.4898 55.195 22.1898 55.39 21.9298 55.64C21.6798 55.89 21.4748 56.19 21.3148 56.54C21.1648 56.89 21.0748 57.27 21.0448 57.68H26.7898ZM32.9367 62V54.995H31.8567V54.185H32.9367V53.975C32.9367 53.015 33.1417 52.265 33.5517 51.725C33.9617 51.175 34.5217 50.9 35.2317 50.9C35.5417 50.9 35.8417 50.945 36.1317 51.035C36.4217 51.125 36.6717 51.245 36.8817 51.395L36.5667 52.13C36.4267 52.02 36.2517 51.935 36.0417 51.875C35.8417 51.815 35.6367 51.785 35.4267 51.785C34.9467 51.785 34.5817 51.97 34.3317 52.34C34.0817 52.71 33.9567 53.245 33.9567 53.945V54.185H36.1167V54.995H33.9567V62H32.9367ZM40.1474 62.15C39.5774 62.15 39.0574 62.045 38.5874 61.835C38.1174 61.615 37.7074 61.32 37.3574 60.95C37.0174 60.58 36.7524 60.15 36.5624 59.66C36.3724 59.17 36.2774 58.655 36.2774 58.115C36.2774 57.565 36.3724 57.045 36.5624 56.555C36.7624 56.065 37.0324 55.635 37.3724 55.265C37.7224 54.895 38.1324 54.6 38.6024 54.38C39.0724 54.16 39.5874 54.05 40.1474 54.05C40.7074 54.05 41.2224 54.16 41.6924 54.38C42.1724 54.6 42.5824 54.895 42.9224 55.265C43.2724 55.635 43.5424 56.065 43.7324 56.555C43.9324 57.045 44.0324 57.565 44.0324 58.115C44.0324 58.655 43.9374 59.17 43.7474 59.66C43.5574 60.15 43.2874 60.58 42.9374 60.95C42.5974 61.32 42.1874 61.615 41.7074 61.835C41.2374 62.045 40.7174 62.15 40.1474 62.15ZM37.3124 58.13C37.3124 58.57 37.3874 58.98 37.5374 59.36C37.6874 59.73 37.8874 60.06 38.1374 60.35C38.3974 60.63 38.6974 60.85 39.0374 61.01C39.3874 61.17 39.7574 61.25 40.1474 61.25C40.5374 61.25 40.9024 61.17 41.2424 61.01C41.5924 60.84 41.8974 60.615 42.1574 60.335C42.4174 60.045 42.6224 59.71 42.7724 59.33C42.9224 58.95 42.9974 58.54 42.9974 58.1C42.9974 57.67 42.9224 57.265 42.7724 56.885C42.6224 56.495 42.4174 56.16 42.1574 55.88C41.8974 55.59 41.5924 55.365 41.2424 55.205C40.9024 55.035 40.5374 54.95 40.1474 54.95C39.7574 54.95 39.3924 55.035 39.0524 55.205C38.7124 55.365 38.4124 55.59 38.1524 55.88C37.8924 56.17 37.6874 56.51 37.5374 56.9C37.3874 57.28 37.3124 57.69 37.3124 58.13ZM49.3383 55.085C48.6483 55.105 48.0483 55.295 47.5383 55.655C47.0283 56.015 46.6683 56.51 46.4583 57.14V62H45.4383V54.185H46.3983V56.06C46.6883 55.46 47.0783 54.99 47.5683 54.65C48.0583 54.31 48.5833 54.14 49.1433 54.14C49.2233 54.14 49.2883 54.145 49.3383 54.155V55.085ZM56.1491 62.15C55.5391 62.15 54.9441 62.05 54.3641 61.85C53.7841 61.65 53.2841 61.36 52.8641 60.98L53.3291 60.29C53.7691 60.65 54.2141 60.92 54.6641 61.1C55.1241 61.28 55.6141 61.37 56.1341 61.37C56.7641 61.37 57.2641 61.245 57.6341 60.995C58.0141 60.735 58.2041 60.37 58.2041 59.9C58.2041 59.68 58.1541 59.5 58.0541 59.36C57.9541 59.21 57.8041 59.08 57.6041 58.97C57.4141 58.86 57.1691 58.765 56.8691 58.685C56.5791 58.595 56.2391 58.505 55.8491 58.415C55.3991 58.305 55.0091 58.195 54.6791 58.085C54.3491 57.975 54.0741 57.85 53.8541 57.71C53.6441 57.57 53.4841 57.4 53.3741 57.2C53.2741 56.99 53.2241 56.73 53.2241 56.42C53.2241 56.03 53.2991 55.685 53.4491 55.385C53.6091 55.085 53.8191 54.84 54.0791 54.65C54.3491 54.45 54.6591 54.3 55.0091 54.2C55.3691 54.1 55.7491 54.05 56.1491 54.05C56.7491 54.05 57.2941 54.15 57.7841 54.35C58.2741 54.54 58.6691 54.795 58.9691 55.115L58.4741 55.715C58.1841 55.415 57.8291 55.19 57.4091 55.04C56.9991 54.89 56.5691 54.815 56.1191 54.815C55.8491 54.815 55.5991 54.845 55.3691 54.905C55.1391 54.955 54.9341 55.04 54.7541 55.16C54.5841 55.28 54.4491 55.435 54.3491 55.625C54.2491 55.805 54.1991 56.02 54.1991 56.27C54.1991 56.48 54.2341 56.65 54.3041 56.78C54.3741 56.91 54.4891 57.025 54.6491 57.125C54.8091 57.215 55.0091 57.3 55.2491 57.38C55.4991 57.45 55.7991 57.525 56.1491 57.605C56.6491 57.725 57.0891 57.845 57.4691 57.965C57.8491 58.085 58.1641 58.225 58.4141 58.385C58.6741 58.545 58.8691 58.74 58.9991 58.97C59.1291 59.2 59.1941 59.48 59.1941 59.81C59.1941 60.53 58.9191 61.1 58.3691 61.52C57.8191 61.94 57.0791 62.15 56.1491 62.15ZM63.8937 62.15C63.3237 62.15 62.8037 62.045 62.3337 61.835C61.8637 61.615 61.4537 61.32 61.1037 60.95C60.7637 60.58 60.4987 60.15 60.3087 59.66C60.1187 59.17 60.0237 58.655 60.0237 58.115C60.0237 57.565 60.1187 57.045 60.3087 56.555C60.5087 56.065 60.7787 55.635 61.1187 55.265C61.4687 54.895 61.8787 54.6 62.3487 54.38C62.8187 54.16 63.3337 54.05 63.8937 54.05C64.4537 54.05 64.9687 54.16 65.4387 54.38C65.9187 54.6 66.3287 54.895 66.6687 55.265C67.0187 55.635 67.2887 56.065 67.4787 56.555C67.6787 57.045 67.7787 57.565 67.7787 58.115C67.7787 58.655 67.6837 59.17 67.4937 59.66C67.3037 60.15 67.0337 60.58 66.6837 60.95C66.3437 61.32 65.9337 61.615 65.4537 61.835C64.9837 62.045 64.4637 62.15 63.8937 62.15ZM61.0587 58.13C61.0587 58.57 61.1337 58.98 61.2837 59.36C61.4337 59.73 61.6337 60.06 61.8837 60.35C62.1437 60.63 62.4437 60.85 62.7837 61.01C63.1337 61.17 63.5037 61.25 63.8937 61.25C64.2837 61.25 64.6487 61.17 64.9887 61.01C65.3387 60.84 65.6437 60.615 65.9037 60.335C66.1637 60.045 66.3687 59.71 66.5187 59.33C66.6687 58.95 66.7437 58.54 66.7437 58.1C66.7437 57.67 66.6687 57.265 66.5187 56.885C66.3687 56.495 66.1637 56.16 65.9037 55.88C65.6437 55.59 65.3387 55.365 64.9887 55.205C64.6487 55.035 64.2837 54.95 63.8937 54.95C63.5037 54.95 63.1387 55.035 62.7987 55.205C62.4587 55.365 62.1587 55.59 61.8987 55.88C61.6387 56.17 61.4337 56.51 61.2837 56.9C61.1337 57.28 61.0587 57.69 61.0587 58.13ZM73.0846 55.085C72.3946 55.105 71.7946 55.295 71.2846 55.655C70.7746 56.015 70.4146 56.51 70.2046 57.14V62H69.1846V54.185H70.1446V56.06C70.4346 55.46 70.8246 54.99 71.3146 54.65C71.8046 54.31 72.3296 54.14 72.8896 54.14C72.9696 54.14 73.0346 54.145 73.0846 54.155V55.085ZM78.0434 55.085C77.3534 55.105 76.7534 55.295 76.2434 55.655C75.7334 56.015 75.3734 56.51 75.1634 57.14V62H74.1434V54.185H75.1034V56.06C75.3934 55.46 75.7834 54.99 76.2734 54.65C76.7634 54.31 77.2884 54.14 77.8484 54.14C77.9284 54.14 77.9934 54.145 78.0434 54.155V55.085ZM82.0366 62.15C81.4666 62.15 80.9466 62.045 80.4766 61.835C80.0066 61.615 79.5966 61.32 79.2466 60.95C78.9066 60.58 78.6416 60.15 78.4516 59.66C78.2616 59.17 78.1666 58.655 78.1666 58.115C78.1666 57.565 78.2616 57.045 78.4516 56.555C78.6516 56.065 78.9216 55.635 79.2616 55.265C79.6116 54.895 80.0216 54.6 80.4916 54.38C80.9616 54.16 81.4766 54.05 82.0366 54.05C82.5966 54.05 83.1116 54.16 83.5816 54.38C84.0616 54.6 84.4716 54.895 84.8116 55.265C85.1616 55.635 85.4316 56.065 85.6216 56.555C85.8216 57.045 85.9216 57.565 85.9216 58.115C85.9216 58.655 85.8266 59.17 85.6366 59.66C85.4466 60.15 85.1766 60.58 84.8266 60.95C84.4866 61.32 84.0766 61.615 83.5966 61.835C83.1266 62.045 82.6066 62.15 82.0366 62.15ZM79.2016 58.13C79.2016 58.57 79.2766 58.98 79.4266 59.36C79.5766 59.73 79.7766 60.06 80.0266 60.35C80.2866 60.63 80.5866 60.85 80.9266 61.01C81.2766 61.17 81.6466 61.25 82.0366 61.25C82.4266 61.25 82.7916 61.17 83.1316 61.01C83.4816 60.84 83.7866 60.615 84.0466 60.335C84.3066 60.045 84.5116 59.71 84.6616 59.33C84.8116 58.95 84.8866 58.54 84.8866 58.1C84.8866 57.67 84.8116 57.265 84.6616 56.885C84.5116 56.495 84.3066 56.16 84.0466 55.88C83.7866 55.59 83.4816 55.365 83.1316 55.205C82.7916 55.035 82.4266 54.95 82.0366 54.95C81.6466 54.95 81.2816 55.035 80.9416 55.205C80.6016 55.365 80.3016 55.59 80.0416 55.88C79.7816 56.17 79.5766 56.51 79.4266 56.9C79.2766 57.28 79.2016 57.69 79.2016 58.13ZM96.8892 54.185H97.8942L94.5342 62H93.6942L92.0142 58.01L90.3492 62H89.5092L86.1492 54.185H87.1392L89.9892 60.95L91.4742 57.38L90.1392 54.2H90.9942L92.0142 56.75L93.0342 54.2H93.9042L92.5692 57.38L94.0542 60.95L96.8892 54.185ZM98.3986 63.215L98.6536 61.955H98.3086V60.53H99.2986V61.955L98.9236 63.215H98.3986ZM112.171 52.28H108.376V62H107.326V52.28H103.531V51.35H112.171V52.28ZM121.925 54.185H122.93L119.57 62H118.73L117.05 58.01L115.385 62H114.545L111.185 54.185H112.175L115.025 60.95L116.51 57.38L115.175 54.2H116.03L117.05 56.75L118.07 54.2H118.94L117.605 57.38L119.09 60.95L121.925 54.185ZM127.038 62.15C126.468 62.15 125.948 62.045 125.478 61.835C125.008 61.615 124.598 61.32 124.248 60.95C123.908 60.58 123.643 60.15 123.453 59.66C123.263 59.17 123.168 58.655 123.168 58.115C123.168 57.565 123.263 57.045 123.453 56.555C123.653 56.065 123.923 55.635 124.263 55.265C124.613 54.895 125.023 54.6 125.493 54.38C125.963 54.16 126.478 54.05 127.038 54.05C127.598 54.05 128.113 54.16 128.583 54.38C129.063 54.6 129.473 54.895 129.813 55.265C130.163 55.635 130.433 56.065 130.623 56.555C130.823 57.045 130.923 57.565 130.923 58.115C130.923 58.655 130.828 59.17 130.638 59.66C130.448 60.15 130.178 60.58 129.828 60.95C129.488 61.32 129.078 61.615 128.598 61.835C128.128 62.045 127.608 62.15 127.038 62.15ZM124.203 58.13C124.203 58.57 124.278 58.98 124.428 59.36C124.578 59.73 124.778 60.06 125.028 60.35C125.288 60.63 125.588 60.85 125.928 61.01C126.278 61.17 126.648 61.25 127.038 61.25C127.428 61.25 127.793 61.17 128.133 61.01C128.483 60.84 128.788 60.615 129.048 60.335C129.308 60.045 129.513 59.71 129.663 59.33C129.813 58.95 129.888 58.54 129.888 58.1C129.888 57.67 129.813 57.265 129.663 56.885C129.513 56.495 129.308 56.16 129.048 55.88C128.788 55.59 128.483 55.365 128.133 55.205C127.793 55.035 127.428 54.95 127.038 54.95C126.648 54.95 126.283 55.035 125.943 55.205C125.603 55.365 125.303 55.59 125.043 55.88C124.783 56.17 124.578 56.51 124.428 56.9C124.278 57.28 124.203 57.69 124.203 58.13ZM136.228 62V54.995H135.148V54.185H136.228V53.975C136.228 53.015 136.433 52.265 136.843 51.725C137.253 51.175 137.813 50.9 138.523 50.9C138.833 50.9 139.133 50.945 139.423 51.035C139.713 51.125 139.963 51.245 140.173 51.395L139.858 52.13C139.718 52.02 139.543 51.935 139.333 51.875C139.133 51.815 138.928 51.785 138.718 51.785C138.238 51.785 137.873 51.97 137.623 52.34C137.373 52.71 137.248 53.245 137.248 53.945V54.185H139.408V54.995H137.248V62H136.228ZM143.438 62.15C142.868 62.15 142.348 62.045 141.878 61.835C141.408 61.615 140.998 61.32 140.648 60.95C140.308 60.58 140.043 60.15 139.853 59.66C139.663 59.17 139.568 58.655 139.568 58.115C139.568 57.565 139.663 57.045 139.853 56.555C140.053 56.065 140.323 55.635 140.663 55.265C141.013 54.895 141.423 54.6 141.893 54.38C142.363 54.16 142.878 54.05 143.438 54.05C143.998 54.05 144.513 54.16 144.983 54.38C145.463 54.6 145.873 54.895 146.213 55.265C146.563 55.635 146.833 56.065 147.023 56.555C147.223 57.045 147.323 57.565 147.323 58.115C147.323 58.655 147.228 59.17 147.038 59.66C146.848 60.15 146.578 60.58 146.228 60.95C145.888 61.32 145.478 61.615 144.998 61.835C144.528 62.045 144.008 62.15 143.438 62.15ZM140.603 58.13C140.603 58.57 140.678 58.98 140.828 59.36C140.978 59.73 141.178 60.06 141.428 60.35C141.688 60.63 141.988 60.85 142.328 61.01C142.678 61.17 143.048 61.25 143.438 61.25C143.828 61.25 144.193 61.17 144.533 61.01C144.883 60.84 145.188 60.615 145.448 60.335C145.708 60.045 145.913 59.71 146.063 59.33C146.213 58.95 146.288 58.54 146.288 58.1C146.288 57.67 146.213 57.265 146.063 56.885C145.913 56.495 145.708 56.16 145.448 55.88C145.188 55.59 144.883 55.365 144.533 55.205C144.193 55.035 143.828 54.95 143.438 54.95C143.048 54.95 142.683 55.035 142.343 55.205C142.003 55.365 141.703 55.59 141.443 55.88C141.183 56.17 140.978 56.51 140.828 56.9C140.678 57.28 140.603 57.69 140.603 58.13ZM152.629 55.085C151.939 55.105 151.339 55.295 150.829 55.655C150.319 56.015 149.959 56.51 149.749 57.14V62H148.729V54.185H149.689V56.06C149.979 55.46 150.369 54.99 150.859 54.65C151.349 54.31 151.874 54.14 152.434 54.14C152.514 54.14 152.579 54.145 152.629 54.155V55.085ZM12.75 83H11.73V78.635C11.73 77.725 11.585 77.055 11.295 76.625C11.005 76.195 10.575 75.98 10.005 75.98C9.705 75.98 9.42 76.035 9.15 76.145C8.89 76.255 8.645 76.41 8.415 76.61C8.195 76.81 8 77.05 7.83 77.33C7.66 77.6 7.53 77.9 7.44 78.23V83H6.42V78.635C6.42 77.705 6.28 77.03 6 76.61C5.72 76.19 5.29 75.98 4.71 75.98C4.12 75.98 3.595 76.185 3.135 76.595C2.675 77.005 2.345 77.545 2.145 78.215V83H1.125V75.185H2.055V76.955C2.375 76.355 2.795 75.89 3.315 75.56C3.835 75.22 4.41 75.05 5.04 75.05C5.7 75.05 6.225 75.235 6.615 75.605C7.015 75.975 7.26 76.46 7.35 77.06C8.08 75.72 9.085 75.05 10.365 75.05C10.805 75.05 11.175 75.13 11.475 75.29C11.785 75.45 12.03 75.68 12.21 75.98C12.4 76.27 12.535 76.625 12.615 77.045C12.705 77.455 12.75 77.915 12.75 78.425V83ZM14.6092 83V75.185H15.6292V83H14.6092ZM14.6092 73.55V72.05H15.6292V73.55H14.6092ZM21.4758 76.085C20.7858 76.105 20.1858 76.295 19.6758 76.655C19.1658 77.015 18.8058 77.51 18.5958 78.14V83H17.5758V75.185H18.5358V77.06C18.8258 76.46 19.2158 75.99 19.7058 75.65C20.1958 75.31 20.7208 75.14 21.2808 75.14C21.3608 75.14 21.4258 75.145 21.4758 75.155V76.085ZM26.2846 82.625C26.2246 82.655 26.1346 82.695 26.0146 82.745C25.9046 82.795 25.7746 82.845 25.6246 82.895C25.4746 82.945 25.3046 82.99 25.1146 83.03C24.9246 83.07 24.7246 83.09 24.5146 83.09C24.2946 83.09 24.0846 83.06 23.8846 83C23.6846 82.94 23.5096 82.85 23.3596 82.73C23.2096 82.6 23.0896 82.44 22.9996 82.25C22.9096 82.06 22.8646 81.84 22.8646 81.59V75.995H21.7846V75.185H22.8646V72.545H23.8846V75.185H25.6846V75.995H23.8846V81.305C23.9046 81.595 24.0046 81.81 24.1846 81.95C24.3746 82.08 24.5896 82.145 24.8296 82.145C25.1196 82.145 25.3746 82.1 25.5946 82.01C25.8146 81.91 25.9546 81.84 26.0146 81.8L26.2846 82.625ZM33.829 83H32.809V78.635C32.809 77.745 32.654 77.08 32.344 76.64C32.044 76.2 31.599 75.98 31.009 75.98C30.719 75.98 30.429 76.04 30.139 76.16C29.859 76.27 29.594 76.425 29.344 76.625C29.094 76.825 28.874 77.06 28.684 77.33C28.504 77.6 28.369 77.895 28.279 78.215V83H27.259V72.05H28.279V76.955C28.589 76.365 29.019 75.9 29.569 75.56C30.119 75.22 30.714 75.05 31.354 75.05C31.804 75.05 32.184 75.135 32.494 75.305C32.804 75.465 33.059 75.695 33.259 75.995C33.459 76.285 33.604 76.64 33.694 77.06C33.784 77.47 33.829 77.925 33.829 78.425V83ZM35.8691 84.215L36.1241 82.955H35.7791V81.53H36.7691V82.955L36.3941 84.215H35.8691ZM49.6417 73.28H45.8467V83H44.7967V73.28H41.0017V72.35H49.6417V73.28ZM57.297 83H56.277V78.635C56.277 77.745 56.122 77.08 55.812 76.64C55.512 76.2 55.067 75.98 54.477 75.98C54.187 75.98 53.897 76.04 53.607 76.16C53.327 76.27 53.062 76.425 52.812 76.625C52.562 76.825 52.342 77.06 52.152 77.33C51.972 77.6 51.837 77.895 51.747 78.215V83H50.727V72.05H51.747V76.955C52.057 76.365 52.487 75.9 53.037 75.56C53.587 75.22 54.182 75.05 54.822 75.05C55.272 75.05 55.652 75.135 55.962 75.305C56.272 75.465 56.527 75.695 56.727 75.995C56.927 76.285 57.072 76.64 57.162 77.06C57.252 77.47 57.297 77.925 57.297 78.425V83ZM63.0721 76.085C62.3821 76.105 61.7821 76.295 61.2721 76.655C60.7621 77.015 60.4021 77.51 60.1921 78.14V83H59.1721V75.185H60.1321V77.06C60.4221 76.46 60.8121 75.99 61.3021 75.65C61.7921 75.31 62.3171 75.14 62.8771 75.14C62.9571 75.14 63.0221 75.145 63.0721 75.155V76.085ZM67.1104 83.15C66.5404 83.15 66.0154 83.045 65.5354 82.835C65.0654 82.615 64.6554 82.32 64.3054 81.95C63.9554 81.57 63.6804 81.135 63.4804 80.645C63.2904 80.155 63.1954 79.63 63.1954 79.07C63.1954 78.52 63.2904 78.005 63.4804 77.525C63.6804 77.035 63.9504 76.61 64.2904 76.25C64.6404 75.88 65.0554 75.59 65.5354 75.38C66.0154 75.16 66.5354 75.05 67.0954 75.05C67.6654 75.05 68.1854 75.16 68.6554 75.38C69.1354 75.59 69.5454 75.88 69.8854 76.25C70.2254 76.62 70.4904 77.045 70.6804 77.525C70.8704 78.005 70.9654 78.515 70.9654 79.055C70.9654 79.135 70.9654 79.215 70.9654 79.295C70.9654 79.375 70.9604 79.43 70.9504 79.46H64.2604C64.2904 79.88 64.3854 80.27 64.5454 80.63C64.7154 80.98 64.9304 81.285 65.1904 81.545C65.4504 81.805 65.7454 82.01 66.0754 82.16C66.4154 82.3 66.7754 82.37 67.1554 82.37C67.4054 82.37 67.6554 82.335 67.9054 82.265C68.1554 82.195 68.3854 82.1 68.5954 81.98C68.8054 81.86 68.9954 81.715 69.1654 81.545C69.3354 81.365 69.4654 81.17 69.5554 80.96L70.4404 81.2C70.3204 81.49 70.1504 81.755 69.9304 81.995C69.7104 82.225 69.4554 82.43 69.1654 82.61C68.8754 82.78 68.5554 82.91 68.2054 83C67.8554 83.1 67.4904 83.15 67.1104 83.15ZM69.9904 78.68C69.9604 78.26 69.8604 77.88 69.6904 77.54C69.5304 77.19 69.3204 76.89 69.0604 76.64C68.8104 76.39 68.5154 76.195 68.1754 76.055C67.8454 75.915 67.4904 75.845 67.1104 75.845C66.7304 75.845 66.3704 75.915 66.0304 76.055C65.6904 76.195 65.3904 76.39 65.1304 76.64C64.8804 76.89 64.6754 77.19 64.5154 77.54C64.3654 77.89 64.2754 78.27 64.2454 78.68H69.9904ZM75.6141 83.15C75.0441 83.15 74.5191 83.045 74.0391 82.835C73.5691 82.615 73.1591 82.32 72.8091 81.95C72.4591 81.57 72.1841 81.135 71.9841 80.645C71.7941 80.155 71.6991 79.63 71.6991 79.07C71.6991 78.52 71.7941 78.005 71.9841 77.525C72.1841 77.035 72.4541 76.61 72.7941 76.25C73.1441 75.88 73.5591 75.59 74.0391 75.38C74.5191 75.16 75.0391 75.05 75.5991 75.05C76.1691 75.05 76.6891 75.16 77.1591 75.38C77.6391 75.59 78.0491 75.88 78.3891 76.25C78.7291 76.62 78.9941 77.045 79.1841 77.525C79.3741 78.005 79.4691 78.515 79.4691 79.055C79.4691 79.135 79.4691 79.215 79.4691 79.295C79.4691 79.375 79.4641 79.43 79.4541 79.46H72.7641C72.7941 79.88 72.8891 80.27 73.0491 80.63C73.2191 80.98 73.4341 81.285 73.6941 81.545C73.9541 81.805 74.2491 82.01 74.5791 82.16C74.9191 82.3 75.2791 82.37 75.6591 82.37C75.9091 82.37 76.1591 82.335 76.4091 82.265C76.6591 82.195 76.8891 82.1 77.0991 81.98C77.3091 81.86 77.4991 81.715 77.6691 81.545C77.8391 81.365 77.9691 81.17 78.0591 80.96L78.9441 81.2C78.8241 81.49 78.6541 81.755 78.4341 81.995C78.2141 82.225 77.9591 82.43 77.6691 82.61C77.3791 82.78 77.0591 82.91 76.7091 83C76.3591 83.1 75.9941 83.15 75.6141 83.15ZM78.4941 78.68C78.4641 78.26 78.3641 77.88 78.1941 77.54C78.0341 77.19 77.8241 76.89 77.5641 76.64C77.3141 76.39 77.0191 76.195 76.6791 76.055C76.3491 75.915 75.9941 75.845 75.6141 75.845C75.2341 75.845 74.8741 75.915 74.5341 76.055C74.1941 76.195 73.8941 76.39 73.6341 76.64C73.3841 76.89 73.1791 77.19 73.0191 77.54C72.8691 77.89 72.7791 78.27 72.7491 78.68H78.4941ZM84.641 83V75.995H83.561V75.185H84.641V74.975C84.641 74.015 84.846 73.265 85.256 72.725C85.666 72.175 86.226 71.9 86.936 71.9C87.246 71.9 87.546 71.945 87.836 72.035C88.126 72.125 88.376 72.245 88.586 72.395L88.271 73.13C88.131 73.02 87.956 72.935 87.746 72.875C87.546 72.815 87.341 72.785 87.131 72.785C86.651 72.785 86.286 72.97 86.036 73.34C85.786 73.71 85.661 74.245 85.661 74.945V75.185H87.821V75.995H85.661V83H84.641ZM91.8517 83.15C91.2817 83.15 90.7617 83.045 90.2917 82.835C89.8217 82.615 89.4117 82.32 89.0617 81.95C88.7217 81.58 88.4567 81.15 88.2667 80.66C88.0767 80.17 87.9817 79.655 87.9817 79.115C87.9817 78.565 88.0767 78.045 88.2667 77.555C88.4667 77.065 88.7367 76.635 89.0767 76.265C89.4267 75.895 89.8367 75.6 90.3067 75.38C90.7767 75.16 91.2917 75.05 91.8517 75.05C92.4117 75.05 92.9267 75.16 93.3967 75.38C93.8767 75.6 94.2867 75.895 94.6267 76.265C94.9767 76.635 95.2467 77.065 95.4367 77.555C95.6367 78.045 95.7367 78.565 95.7367 79.115C95.7367 79.655 95.6417 80.17 95.4517 80.66C95.2617 81.15 94.9917 81.58 94.6417 81.95C94.3017 82.32 93.8917 82.615 93.4117 82.835C92.9417 83.045 92.4217 83.15 91.8517 83.15ZM89.0167 79.13C89.0167 79.57 89.0917 79.98 89.2417 80.36C89.3917 80.73 89.5917 81.06 89.8417 81.35C90.1017 81.63 90.4017 81.85 90.7417 82.01C91.0917 82.17 91.4617 82.25 91.8517 82.25C92.2417 82.25 92.6067 82.17 92.9467 82.01C93.2967 81.84 93.6017 81.615 93.8617 81.335C94.1217 81.045 94.3267 80.71 94.4767 80.33C94.6267 79.95 94.7017 79.54 94.7017 79.1C94.7017 78.67 94.6267 78.265 94.4767 77.885C94.3267 77.495 94.1217 77.16 93.8617 76.88C93.6017 76.59 93.2967 76.365 92.9467 76.205C92.6067 76.035 92.2417 75.95 91.8517 75.95C91.4617 75.95 91.0967 76.035 90.7567 76.205C90.4167 76.365 90.1167 76.59 89.8567 76.88C89.5967 77.17 89.3917 77.51 89.2417 77.9C89.0917 78.28 89.0167 78.69 89.0167 79.13ZM101.043 76.085C100.353 76.105 99.7526 76.295 99.2426 76.655C98.7326 77.015 98.3726 77.51 98.1626 78.14V83H97.1426V75.185H98.1026V77.06C98.3926 76.46 98.7826 75.99 99.2726 75.65C99.7626 75.31 100.288 75.14 100.848 75.14C100.928 75.14 100.993 75.145 101.043 75.155V76.085ZM107.223 83.15C106.853 83.15 106.508 83.09 106.188 82.97C105.878 82.84 105.603 82.665 105.363 82.445C105.133 82.225 104.953 81.97 104.823 81.68C104.693 81.38 104.628 81.06 104.628 80.72C104.628 80.38 104.708 80.065 104.868 79.775C105.028 79.485 105.253 79.235 105.543 79.025C105.833 78.815 106.178 78.655 106.578 78.545C106.978 78.425 107.418 78.365 107.898 78.365C108.298 78.365 108.703 78.4 109.113 78.47C109.523 78.54 109.888 78.64 110.208 78.77V78.065C110.208 77.375 110.013 76.83 109.623 76.43C109.233 76.02 108.693 75.815 108.003 75.815C107.603 75.815 107.193 75.895 106.773 76.055C106.353 76.215 105.928 76.445 105.498 76.745L105.138 76.07C106.148 75.39 107.128 75.05 108.078 75.05C109.058 75.05 109.828 75.325 110.388 75.875C110.948 76.425 111.228 77.185 111.228 78.155V81.68C111.228 81.96 111.353 82.1 111.603 82.1V83C111.433 83.03 111.303 83.045 111.213 83.045C110.953 83.045 110.748 82.98 110.598 82.85C110.458 82.72 110.383 82.54 110.373 82.31L110.343 81.695C109.983 82.165 109.528 82.525 108.978 82.775C108.438 83.025 107.853 83.15 107.223 83.15ZM107.463 82.37C107.993 82.37 108.478 82.27 108.918 82.07C109.368 81.87 109.708 81.605 109.938 81.275C110.028 81.185 110.093 81.09 110.133 80.99C110.183 80.88 110.208 80.78 110.208 80.69V79.415C109.868 79.285 109.513 79.185 109.143 79.115C108.783 79.045 108.413 79.01 108.033 79.01C107.313 79.01 106.728 79.16 106.278 79.46C105.828 79.76 105.603 80.155 105.603 80.645C105.603 80.885 105.648 81.11 105.738 81.32C105.838 81.53 105.968 81.715 106.128 81.875C106.298 82.025 106.498 82.145 106.728 82.235C106.958 82.325 107.203 82.37 107.463 82.37ZM10.965 96.185H11.97L8.61 104H7.77L6.09 100.01L4.425 104H3.585L0.225 96.185H1.215L4.065 102.95L5.55 99.38L4.215 96.2H5.07L6.09 98.75L7.11 96.2H7.98L6.645 99.38L8.13 102.95L10.965 96.185ZM16.1238 104.15C15.5538 104.15 15.0288 104.045 14.5488 103.835C14.0788 103.615 13.6688 103.32 13.3188 102.95C12.9688 102.57 12.6938 102.135 12.4938 101.645C12.3038 101.155 12.2088 100.63 12.2088 100.07C12.2088 99.52 12.3038 99.005 12.4938 98.525C12.6938 98.035 12.9638 97.61 13.3038 97.25C13.6538 96.88 14.0688 96.59 14.5488 96.38C15.0288 96.16 15.5488 96.05 16.1088 96.05C16.6788 96.05 17.1988 96.16 17.6688 96.38C18.1488 96.59 18.5588 96.88 18.8988 97.25C19.2388 97.62 19.5038 98.045 19.6938 98.525C19.8838 99.005 19.9788 99.515 19.9788 100.055C19.9788 100.135 19.9788 100.215 19.9788 100.295C19.9788 100.375 19.9738 100.43 19.9638 100.46H13.2738C13.3038 100.88 13.3988 101.27 13.5588 101.63C13.7288 101.98 13.9438 102.285 14.2038 102.545C14.4638 102.805 14.7588 103.01 15.0888 103.16C15.4288 103.3 15.7888 103.37 16.1688 103.37C16.4188 103.37 16.6688 103.335 16.9188 103.265C17.1688 103.195 17.3988 103.1 17.6088 102.98C17.8188 102.86 18.0088 102.715 18.1788 102.545C18.3488 102.365 18.4788 102.17 18.5688 101.96L19.4538 102.2C19.3338 102.49 19.1638 102.755 18.9438 102.995C18.7238 103.225 18.4688 103.43 18.1788 103.61C17.8888 103.78 17.5688 103.91 17.2188 104C16.8688 104.1 16.5038 104.15 16.1238 104.15ZM19.0038 99.68C18.9738 99.26 18.8738 98.88 18.7038 98.54C18.5438 98.19 18.3338 97.89 18.0738 97.64C17.8238 97.39 17.5288 97.195 17.1888 97.055C16.8588 96.915 16.5038 96.845 16.1238 96.845C15.7438 96.845 15.3838 96.915 15.0438 97.055C14.7038 97.195 14.4038 97.39 14.1438 97.64C13.8938 97.89 13.6888 98.19 13.5288 98.54C13.3788 98.89 13.2888 99.27 13.2588 99.68H19.0038ZM24.4625 104.15C23.9225 104.15 23.4225 104.04 22.9625 103.82C22.5025 103.59 22.1075 103.29 21.7775 102.92C21.4475 102.55 21.1875 102.125 20.9975 101.645C20.8175 101.155 20.7275 100.645 20.7275 100.115C20.7275 99.565 20.8175 99.045 20.9975 98.555C21.1775 98.055 21.4225 97.62 21.7325 97.25C22.0525 96.88 22.4275 96.59 22.8575 96.38C23.2975 96.16 23.7775 96.05 24.2975 96.05C24.9575 96.05 25.5425 96.225 26.0525 96.575C26.5625 96.915 26.9625 97.33 27.2525 97.82V93.05H28.2725V102.68C28.2725 102.96 28.3925 103.1 28.6325 103.1V104C28.4825 104.03 28.3625 104.045 28.2725 104.045C28.0325 104.045 27.8225 103.97 27.6425 103.82C27.4625 103.66 27.3725 103.47 27.3725 103.25V102.485C27.0625 102.995 26.6425 103.4 26.1125 103.7C25.5825 104 25.0325 104.15 24.4625 104.15ZM24.6875 103.25C24.9375 103.25 25.2025 103.2 25.4825 103.1C25.7725 103 26.0425 102.865 26.2925 102.695C26.5425 102.515 26.7525 102.31 26.9225 102.08C27.1025 101.84 27.2125 101.585 27.2525 101.315V98.9C27.1525 98.63 27.0075 98.38 26.8175 98.15C26.6275 97.91 26.4075 97.7 26.1575 97.52C25.9175 97.34 25.6575 97.2 25.3775 97.1C25.0975 97 24.8225 96.95 24.5525 96.95C24.1325 96.95 23.7525 97.04 23.4125 97.22C23.0725 97.4 22.7775 97.64 22.5275 97.94C22.2875 98.23 22.1025 98.565 21.9725 98.945C21.8425 99.325 21.7775 99.715 21.7775 100.115C21.7775 100.535 21.8525 100.935 22.0025 101.315C22.1525 101.695 22.3575 102.03 22.6175 102.32C22.8775 102.6 23.1825 102.825 23.5325 102.995C23.8925 103.165 24.2775 103.25 24.6875 103.25ZM33.4936 104.15C32.9536 104.15 32.4536 104.04 31.9936 103.82C31.5336 103.59 31.1386 103.29 30.8086 102.92C30.4786 102.55 30.2186 102.125 30.0286 101.645C29.8486 101.155 29.7586 100.645 29.7586 100.115C29.7586 99.565 29.8486 99.045 30.0286 98.555C30.2086 98.055 30.4536 97.62 30.7636 97.25C31.0836 96.88 31.4586 96.59 31.8886 96.38C32.3286 96.16 32.8086 96.05 33.3286 96.05C33.9886 96.05 34.5736 96.225 35.0836 96.575C35.5936 96.915 35.9936 97.33 36.2836 97.82V93.05H37.3036V102.68C37.3036 102.96 37.4236 103.1 37.6636 103.1V104C37.5136 104.03 37.3936 104.045 37.3036 104.045C37.0636 104.045 36.8536 103.97 36.6736 103.82C36.4936 103.66 36.4036 103.47 36.4036 103.25V102.485C36.0936 102.995 35.6736 103.4 35.1436 103.7C34.6136 104 34.0636 104.15 33.4936 104.15ZM33.7186 103.25C33.9686 103.25 34.2336 103.2 34.5136 103.1C34.8036 103 35.0736 102.865 35.3236 102.695C35.5736 102.515 35.7836 102.31 35.9536 102.08C36.1336 101.84 36.2436 101.585 36.2836 101.315V98.9C36.1836 98.63 36.0386 98.38 35.8486 98.15C35.6586 97.91 35.4386 97.7 35.1886 97.52C34.9486 97.34 34.6886 97.2 34.4086 97.1C34.1286 97 33.8536 96.95 33.5836 96.95C33.1636 96.95 32.7836 97.04 32.4436 97.22C32.1036 97.4 31.8086 97.64 31.5586 97.94C31.3186 98.23 31.1336 98.565 31.0036 98.945C30.8736 99.325 30.8086 99.715 30.8086 100.115C30.8086 100.535 30.8836 100.935 31.0336 101.315C31.1836 101.695 31.3886 102.03 31.6486 102.32C31.9086 102.6 32.2136 102.825 32.5636 102.995C32.9236 103.165 33.3086 103.25 33.7186 103.25ZM39.3146 104V96.185H40.3346V104H39.3146ZM39.3146 94.55V93.05H40.3346V94.55H39.3146ZM48.8513 104H47.8313V99.635C47.8313 98.705 47.6913 98.03 47.4113 97.61C47.1413 97.19 46.7213 96.98 46.1513 96.98C45.8513 96.98 45.5513 97.035 45.2513 97.145C44.9513 97.255 44.6713 97.41 44.4113 97.61C44.1613 97.81 43.9363 98.05 43.7363 98.33C43.5363 98.6 43.3913 98.895 43.3013 99.215V104H42.2813V96.185H43.2113V97.955C43.5313 97.385 43.9863 96.925 44.5763 96.575C45.1763 96.225 45.8263 96.05 46.5263 96.05C46.9563 96.05 47.3213 96.13 47.6213 96.29C47.9213 96.45 48.1613 96.675 48.3413 96.965C48.5213 97.255 48.6513 97.61 48.7312 98.03C48.8113 98.45 48.8513 98.915 48.8513 99.425V104ZM53.8614 104.105C53.3214 104.105 52.8264 103.995 52.3764 103.775C51.9364 103.545 51.5514 103.245 51.2214 102.875C50.9014 102.505 50.6514 102.08 50.4714 101.6C50.2914 101.12 50.2014 100.625 50.2014 100.115C50.2014 99.575 50.2864 99.06 50.4564 98.57C50.6364 98.07 50.8864 97.635 51.2064 97.265C51.5264 96.895 51.9064 96.6 52.3464 96.38C52.7964 96.16 53.2914 96.05 53.8314 96.05C54.5014 96.05 55.0814 96.22 55.5714 96.56C56.0614 96.89 56.4814 97.31 56.8314 97.82V96.185H57.7464V104.03C57.7464 104.57 57.6414 105.045 57.4314 105.455C57.2314 105.875 56.9564 106.225 56.6064 106.505C56.2664 106.785 55.8614 106.995 55.3914 107.135C54.9314 107.275 54.4414 107.345 53.9214 107.345C53.0214 107.345 52.2964 107.185 51.7464 106.865C51.1964 106.545 50.7514 106.115 50.4114 105.575L51.0414 105.08C51.3514 105.58 51.7614 105.945 52.2714 106.175C52.7814 106.415 53.3314 106.535 53.9214 106.535C54.3014 106.535 54.6614 106.48 55.0014 106.37C55.3414 106.27 55.6364 106.115 55.8864 105.905C56.1464 105.705 56.3514 105.445 56.5014 105.125C56.6514 104.815 56.7264 104.45 56.7264 104.03V102.485C56.4264 102.985 56.0164 103.38 55.4964 103.67C54.9764 103.96 54.4314 104.105 53.8614 104.105ZM54.1464 103.25C54.4464 103.25 54.7414 103.195 55.0314 103.085C55.3214 102.975 55.5814 102.83 55.8114 102.65C56.0514 102.46 56.2514 102.25 56.4114 102.02C56.5714 101.79 56.6764 101.555 56.7264 101.315V98.9C56.6164 98.62 56.4664 98.36 56.2764 98.12C56.0864 97.88 55.8714 97.675 55.6314 97.505C55.3914 97.335 55.1314 97.2 54.8514 97.1C54.5814 97 54.3064 96.95 54.0264 96.95C53.5864 96.95 53.1914 97.045 52.8414 97.235C52.5014 97.415 52.2114 97.655 51.9714 97.955C51.7314 98.255 51.5464 98.595 51.4164 98.975C51.2964 99.355 51.2364 99.74 51.2364 100.13C51.2364 100.55 51.3114 100.95 51.4614 101.33C51.6114 101.71 51.8164 102.045 52.0764 102.335C52.3464 102.615 52.6564 102.84 53.0064 103.01C53.3564 103.17 53.7364 103.25 54.1464 103.25ZM59.8638 105.215L60.1188 103.955H59.7738V102.53H60.7638V103.955L60.3888 105.215H59.8638ZM69.3325 93.35H70.2175L74.6425 104H73.5325L72.1525 100.67H67.3675L66.0025 104H64.8775L69.3325 93.35ZM71.9125 99.845L69.7675 94.58L67.5925 99.845H71.9125ZM82.2292 104H81.2092V99.635C81.2092 98.705 81.0692 98.03 80.7892 97.61C80.5192 97.19 80.0992 96.98 79.5292 96.98C79.2292 96.98 78.9292 97.035 78.6292 97.145C78.3292 97.255 78.0492 97.41 77.7892 97.61C77.5392 97.81 77.3142 98.05 77.1142 98.33C76.9142 98.6 76.7692 98.895 76.6792 99.215V104H75.6592V96.185H76.5892V97.955C76.9092 97.385 77.3642 96.925 77.9542 96.575C78.5542 96.225 79.2042 96.05 79.9042 96.05C80.3342 96.05 80.6992 96.13 80.9992 96.29C81.2992 96.45 81.5392 96.675 81.7192 96.965C81.8992 97.255 82.0292 97.61 82.1092 98.03C82.1892 98.45 82.2292 98.915 82.2292 99.425V104ZM87.3143 104.15C86.7743 104.15 86.2743 104.04 85.8143 103.82C85.3543 103.59 84.9593 103.29 84.6293 102.92C84.2993 102.55 84.0393 102.125 83.8493 101.645C83.6693 101.155 83.5793 100.645 83.5793 100.115C83.5793 99.565 83.6693 99.045 83.8493 98.555C84.0293 98.055 84.2743 97.62 84.5843 97.25C84.9043 96.88 85.2793 96.59 85.7093 96.38C86.1493 96.16 86.6293 96.05 87.1493 96.05C87.8093 96.05 88.3943 96.225 88.9043 96.575C89.4143 96.915 89.8143 97.33 90.1043 97.82V93.05H91.1243V102.68C91.1243 102.96 91.2443 103.1 91.4843 103.1V104C91.3343 104.03 91.2143 104.045 91.1243 104.045C90.8843 104.045 90.6743 103.97 90.4943 103.82C90.3143 103.66 90.2243 103.47 90.2243 103.25V102.485C89.9143 102.995 89.4943 103.4 88.9643 103.7C88.4343 104 87.8843 104.15 87.3143 104.15ZM87.5393 103.25C87.7893 103.25 88.0543 103.2 88.3343 103.1C88.6243 103 88.8943 102.865 89.1443 102.695C89.3943 102.515 89.6043 102.31 89.7743 102.08C89.9543 101.84 90.0643 101.585 90.1043 101.315V98.9C90.0043 98.63 89.8593 98.38 89.6693 98.15C89.4793 97.91 89.2593 97.7 89.0093 97.52C88.7693 97.34 88.5093 97.2 88.2293 97.1C87.9493 97 87.6743 96.95 87.4043 96.95C86.9843 96.95 86.6043 97.04 86.2643 97.22C85.9243 97.4 85.6293 97.64 85.3793 97.94C85.1393 98.23 84.9543 98.565 84.8243 98.945C84.6943 99.325 84.6293 99.715 84.6293 100.115C84.6293 100.535 84.7043 100.935 84.8543 101.315C85.0043 101.695 85.2093 102.03 85.4693 102.32C85.7293 102.6 86.0343 102.825 86.3843 102.995C86.7443 103.165 87.1293 103.25 87.5393 103.25ZM97.0336 104V96.995H95.9536V96.185H97.0336V95.975C97.0336 95.015 97.2386 94.265 97.6486 93.725C98.0586 93.175 98.6186 92.9 99.3286 92.9C99.6386 92.9 99.9386 92.945 100.229 93.035C100.519 93.125 100.769 93.245 100.979 93.395L100.664 94.13C100.524 94.02 100.349 93.935 100.139 93.875C99.9386 93.815 99.7336 93.785 99.5236 93.785C99.0436 93.785 98.6786 93.97 98.4286 94.34C98.1786 94.71 98.0536 95.245 98.0536 95.945V96.185H100.214V96.995H98.0536V104H97.0336ZM104.244 104.15C103.674 104.15 103.154 104.045 102.684 103.835C102.214 103.615 101.804 103.32 101.454 102.95C101.114 102.58 100.849 102.15 100.659 101.66C100.469 101.17 100.374 100.655 100.374 100.115C100.374 99.565 100.469 99.045 100.659 98.555C100.859 98.065 101.129 97.635 101.469 97.265C101.819 96.895 102.229 96.6 102.699 96.38C103.169 96.16 103.684 96.05 104.244 96.05C104.804 96.05 105.319 96.16 105.789 96.38C106.269 96.6 106.679 96.895 107.019 97.265C107.369 97.635 107.639 98.065 107.829 98.555C108.029 99.045 108.129 99.565 108.129 100.115C108.129 100.655 108.034 101.17 107.844 101.66C107.654 102.15 107.384 102.58 107.034 102.95C106.694 103.32 106.284 103.615 105.804 103.835C105.334 104.045 104.814 104.15 104.244 104.15ZM101.409 100.13C101.409 100.57 101.484 100.98 101.634 101.36C101.784 101.73 101.984 102.06 102.234 102.35C102.494 102.63 102.794 102.85 103.134 103.01C103.484 103.17 103.854 103.25 104.244 103.25C104.634 103.25 104.999 103.17 105.339 103.01C105.689 102.84 105.994 102.615 106.254 102.335C106.514 102.045 106.719 101.71 106.869 101.33C107.019 100.95 107.094 100.54 107.094 100.1C107.094 99.67 107.019 99.265 106.869 98.885C106.719 98.495 106.514 98.16 106.254 97.88C105.994 97.59 105.689 97.365 105.339 97.205C104.999 97.035 104.634 96.95 104.244 96.95C103.854 96.95 103.489 97.035 103.149 97.205C102.809 97.365 102.509 97.59 102.249 97.88C101.989 98.17 101.784 98.51 101.634 98.9C101.484 99.28 101.409 99.69 101.409 100.13ZM111.98 104.15C111.13 104.15 110.495 103.87 110.075 103.31C109.665 102.74 109.46 101.895 109.46 100.775V96.185H110.48V100.595C110.48 102.365 111.085 103.25 112.295 103.25C112.595 103.25 112.89 103.2 113.18 103.1C113.47 103 113.735 102.855 113.975 102.665C114.225 102.475 114.445 102.25 114.635 101.99C114.835 101.73 114.995 101.435 115.115 101.105V96.185H116.135V102.68C116.135 102.96 116.255 103.1 116.495 103.1V104C116.375 104.02 116.275 104.03 116.195 104.03C116.125 104.03 116.075 104.03 116.045 104.03C115.805 104.02 115.61 103.935 115.46 103.775C115.31 103.615 115.235 103.4 115.235 103.13V102.23C114.895 102.84 114.43 103.315 113.84 103.655C113.26 103.985 112.64 104.15 111.98 104.15ZM122.041 97.085C121.351 97.105 120.751 97.295 120.241 97.655C119.731 98.015 119.371 98.51 119.161 99.14V104H118.141V96.185H119.101V98.06C119.391 97.46 119.781 96.99 120.271 96.65C120.761 96.31 121.286 96.14 121.846 96.14C121.926 96.14 121.991 96.145 122.041 96.155V97.085ZM126.632 104V96.995H125.552V96.185H126.632V95.975C126.632 95.015 126.837 94.265 127.247 93.725C127.657 93.175 128.217 92.9 128.927 92.9C129.237 92.9 129.537 92.945 129.827 93.035C130.117 93.125 130.367 93.245 130.577 93.395L130.262 94.13C130.122 94.02 129.947 93.935 129.737 93.875C129.537 93.815 129.332 93.785 129.122 93.785C128.642 93.785 128.277 93.97 128.027 94.34C127.777 94.71 127.652 95.245 127.652 95.945V96.185H129.812V96.995H127.652V104H126.632ZM133.843 104.15C133.273 104.15 132.753 104.045 132.283 103.835C131.813 103.615 131.403 103.32 131.053 102.95C130.713 102.58 130.448 102.15 130.258 101.66C130.068 101.17 129.973 100.655 129.973 100.115C129.973 99.565 130.068 99.045 130.258 98.555C130.458 98.065 130.728 97.635 131.068 97.265C131.418 96.895 131.828 96.6 132.298 96.38C132.768 96.16 133.283 96.05 133.843 96.05C134.403 96.05 134.918 96.16 135.388 96.38C135.868 96.6 136.278 96.895 136.618 97.265C136.968 97.635 137.238 98.065 137.428 98.555C137.628 99.045 137.728 99.565 137.728 100.115C137.728 100.655 137.633 101.17 137.443 101.66C137.253 102.15 136.983 102.58 136.633 102.95C136.293 103.32 135.883 103.615 135.403 103.835C134.933 104.045 134.413 104.15 133.843 104.15ZM131.008 100.13C131.008 100.57 131.083 100.98 131.233 101.36C131.383 101.73 131.583 102.06 131.833 102.35C132.093 102.63 132.393 102.85 132.733 103.01C133.083 103.17 133.453 103.25 133.843 103.25C134.233 103.25 134.598 103.17 134.938 103.01C135.288 102.84 135.593 102.615 135.853 102.335C136.113 102.045 136.318 101.71 136.468 101.33C136.618 100.95 136.693 100.54 136.693 100.1C136.693 99.67 136.618 99.265 136.468 98.885C136.318 98.495 136.113 98.16 135.853 97.88C135.593 97.59 135.288 97.365 134.938 97.205C134.598 97.035 134.233 96.95 133.843 96.95C133.453 96.95 133.088 97.035 132.748 97.205C132.408 97.365 132.108 97.59 131.848 97.88C131.588 98.17 131.383 98.51 131.233 98.9C131.083 99.28 131.008 99.69 131.008 100.13ZM143.034 97.085C142.344 97.105 141.744 97.295 141.234 97.655C140.724 98.015 140.364 98.51 140.154 99.14V104H139.134V96.185H140.094V98.06C140.384 97.46 140.774 96.99 141.264 96.65C141.754 96.31 142.279 96.14 142.839 96.14C142.919 96.14 142.984 96.145 143.034 96.155V97.085ZM4.335 125.15C3.795 125.15 3.295 125.04 2.835 124.82C2.375 124.59 1.98 124.29 1.65 123.92C1.32 123.55 1.06 123.125 0.87 122.645C0.69 122.155 0.6 121.645 0.6 121.115C0.6 120.565 0.69 120.045 0.87 119.555C1.05 119.055 1.295 118.62 1.605 118.25C1.925 117.88 2.3 117.59 2.73 117.38C3.17 117.16 3.65 117.05 4.17 117.05C4.83 117.05 5.415 117.225 5.925 117.575C6.435 117.915 6.835 118.33 7.125 118.82V114.05H8.145V123.68C8.145 123.96 8.265 124.1 8.505 124.1V125C8.355 125.03 8.235 125.045 8.145 125.045C7.905 125.045 7.695 124.97 7.515 124.82C7.335 124.66 7.245 124.47 7.245 124.25V123.485C6.935 123.995 6.515 124.4 5.985 124.7C5.455 125 4.905 125.15 4.335 125.15ZM4.56 124.25C4.81 124.25 5.075 124.2 5.355 124.1C5.645 124 5.915 123.865 6.165 123.695C6.415 123.515 6.625 123.31 6.795 123.08C6.975 122.84 7.085 122.585 7.125 122.315V119.9C7.025 119.63 6.88 119.38 6.69 119.15C6.5 118.91 6.28 118.7 6.03 118.52C5.79 118.34 5.53 118.2 5.25 118.1C4.97 118 4.695 117.95 4.425 117.95C4.005 117.95 3.625 118.04 3.285 118.22C2.945 118.4 2.65 118.64 2.4 118.94C2.16 119.23 1.975 119.565 1.845 119.945C1.715 120.325 1.65 120.715 1.65 121.115C1.65 121.535 1.725 121.935 1.875 122.315C2.025 122.695 2.23 123.03 2.49 123.32C2.75 123.6 3.055 123.825 3.405 123.995C3.765 124.165 4.15 124.25 4.56 124.25ZM13.5311 125.15C12.9611 125.15 12.4361 125.045 11.9561 124.835C11.4861 124.615 11.0761 124.32 10.7261 123.95C10.3761 123.57 10.1011 123.135 9.90105 122.645C9.71105 122.155 9.61605 121.63 9.61605 121.07C9.61605 120.52 9.71105 120.005 9.90105 119.525C10.1011 119.035 10.3711 118.61 10.7111 118.25C11.0611 117.88 11.4761 117.59 11.9561 117.38C12.4361 117.16 12.9561 117.05 13.5161 117.05C14.0861 117.05 14.6061 117.16 15.0761 117.38C15.5561 117.59 15.9661 117.88 16.3061 118.25C16.6461 118.62 16.9111 119.045 17.1011 119.525C17.2911 120.005 17.3861 120.515 17.3861 121.055C17.3861 121.135 17.3861 121.215 17.3861 121.295C17.3861 121.375 17.3811 121.43 17.3711 121.46H10.6811C10.7111 121.88 10.8061 122.27 10.9661 122.63C11.1361 122.98 11.3511 123.285 11.6111 123.545C11.8711 123.805 12.1661 124.01 12.4961 124.16C12.8361 124.3 13.1961 124.37 13.5761 124.37C13.8261 124.37 14.0761 124.335 14.3261 124.265C14.5761 124.195 14.8061 124.1 15.0161 123.98C15.2261 123.86 15.4161 123.715 15.5861 123.545C15.7561 123.365 15.8861 123.17 15.9761 122.96L16.8611 123.2C16.7411 123.49 16.5711 123.755 16.3511 123.995C16.1311 124.225 15.8761 124.43 15.5861 124.61C15.2961 124.78 14.9761 124.91 14.6261 125C14.2761 125.1 13.9111 125.15 13.5311 125.15ZM16.4111 120.68C16.3811 120.26 16.2811 119.88 16.1111 119.54C15.9511 119.19 15.7411 118.89 15.4811 118.64C15.2311 118.39 14.9361 118.195 14.5961 118.055C14.2661 117.915 13.9111 117.845 13.5311 117.845C13.1511 117.845 12.7911 117.915 12.4511 118.055C12.1111 118.195 11.8111 118.39 11.5511 118.64C11.3011 118.89 11.0961 119.19 10.9361 119.54C10.7861 119.89 10.6961 120.27 10.6661 120.68H16.4111ZM20.6248 125.15C20.2548 125.15 19.9098 125.09 19.5898 124.97C19.2798 124.84 19.0048 124.665 18.7648 124.445C18.5348 124.225 18.3548 123.97 18.2248 123.68C18.0948 123.38 18.0298 123.06 18.0298 122.72C18.0298 122.38 18.1098 122.065 18.2698 121.775C18.4298 121.485 18.6548 121.235 18.9448 121.025C19.2348 120.815 19.5798 120.655 19.9798 120.545C20.3798 120.425 20.8198 120.365 21.2998 120.365C21.6998 120.365 22.1048 120.4 22.5148 120.47C22.9248 120.54 23.2898 120.64 23.6098 120.77V120.065C23.6098 119.375 23.4148 118.83 23.0248 118.43C22.6348 118.02 22.0948 117.815 21.4048 117.815C21.0048 117.815 20.5948 117.895 20.1748 118.055C19.7548 118.215 19.3298 118.445 18.8998 118.745L18.5398 118.07C19.5498 117.39 20.5298 117.05 21.4798 117.05C22.4598 117.05 23.2298 117.325 23.7898 117.875C24.3498 118.425 24.6298 119.185 24.6298 120.155V123.68C24.6298 123.96 24.7548 124.1 25.0048 124.1V125C24.8348 125.03 24.7048 125.045 24.6148 125.045C24.3548 125.045 24.1498 124.98 23.9998 124.85C23.8598 124.72 23.7848 124.54 23.7748 124.31L23.7448 123.695C23.3848 124.165 22.9298 124.525 22.3798 124.775C21.8398 125.025 21.2548 125.15 20.6248 125.15ZM20.8648 124.37C21.3948 124.37 21.8798 124.27 22.3198 124.07C22.7698 123.87 23.1098 123.605 23.3398 123.275C23.4298 123.185 23.4948 123.09 23.5348 122.99C23.5848 122.88 23.6098 122.78 23.6098 122.69V121.415C23.2698 121.285 22.9148 121.185 22.5448 121.115C22.1848 121.045 21.8148 121.01 21.4348 121.01C20.7148 121.01 20.1298 121.16 19.6798 121.46C19.2298 121.76 19.0048 122.155 19.0048 122.645C19.0048 122.885 19.0498 123.11 19.1398 123.32C19.2398 123.53 19.3698 123.715 19.5298 123.875C19.6998 124.025 19.8998 124.145 20.1298 124.235C20.3598 124.325 20.6048 124.37 20.8648 124.37ZM30.225 124.625C30.165 124.655 30.075 124.695 29.955 124.745C29.845 124.795 29.715 124.845 29.565 124.895C29.415 124.945 29.245 124.99 29.055 125.03C28.865 125.07 28.665 125.09 28.455 125.09C28.235 125.09 28.025 125.06 27.825 125C27.625 124.94 27.45 124.85 27.3 124.73C27.15 124.6 27.03 124.44 26.94 124.25C26.85 124.06 26.805 123.84 26.805 123.59V117.995H25.725V117.185H26.805V114.545H27.825V117.185H29.625V117.995H27.825V123.305C27.845 123.595 27.945 123.81 28.125 123.95C28.315 124.08 28.53 124.145 28.77 124.145C29.06 124.145 29.315 124.1 29.535 124.01C29.755 123.91 29.895 123.84 29.955 123.8L30.225 124.625ZM37.7694 125H36.7494V120.635C36.7494 119.745 36.5944 119.08 36.2844 118.64C35.9844 118.2 35.5394 117.98 34.9494 117.98C34.6594 117.98 34.3694 118.04 34.0794 118.16C33.7994 118.27 33.5344 118.425 33.2844 118.625C33.0344 118.825 32.8144 119.06 32.6244 119.33C32.4444 119.6 32.3094 119.895 32.2194 120.215V125H31.1994V114.05H32.2194V118.955C32.5294 118.365 32.9594 117.9 33.5094 117.56C34.0594 117.22 34.6544 117.05 35.2944 117.05C35.7444 117.05 36.1244 117.135 36.4344 117.305C36.7444 117.465 36.9994 117.695 37.1994 117.995C37.3994 118.285 37.5444 118.64 37.6344 119.06C37.7244 119.47 37.7694 119.925 37.7694 120.425V125Z" fill="#2A2921"/>
</svg>
