<svg width="169" height="136" viewBox="0 0 169 136" fill="none" xmlns="http://www.w3.org/2000/svg">
<path d="M1.54 28V14.96H4.56L7.96 21.44L9.24 24.32H9.32C9.25333 23.6267 9.17333 22.8533 9.08 22C9 21.1467 8.96 20.3333 8.96 19.56V14.96H11.76V28H8.74L5.34 21.5L4.06 18.66H3.98C4.04667 19.38 4.12 20.1533 4.2 20.98C4.29333 21.8067 4.34 22.6067 4.34 23.38V28H1.54ZM17.1808 28.24C16.1008 28.24 15.3141 27.8867 14.8208 27.18C14.3408 26.4733 14.1008 25.4933 14.1008 24.24V18.08H17.0408V23.86C17.0408 24.58 17.1408 25.0733 17.3408 25.34C17.5408 25.6067 17.8541 25.74 18.2808 25.74C18.6541 25.74 18.9674 25.6533 19.2208 25.48C19.4741 25.3067 19.7474 25.0267 20.0408 24.64V18.08H22.9808V28H20.5808L20.3608 26.62H20.3008C19.8741 27.1267 19.4141 27.5267 18.9208 27.82C18.4408 28.1 17.8608 28.24 17.1808 28.24ZM25.168 28V18.08H27.568L27.768 19.82H27.848C28.208 19.14 28.6413 18.64 29.148 18.32C29.6546 18 30.1613 17.84 30.668 17.84C30.948 17.84 31.1746 17.86 31.348 17.9C31.5346 17.9267 31.7013 17.9733 31.848 18.04L31.368 20.58C31.1813 20.5267 31.008 20.4867 30.848 20.46C30.688 20.4333 30.5013 20.42 30.288 20.42C29.9146 20.42 29.5213 20.5533 29.108 20.82C28.708 21.0867 28.3746 21.56 28.108 22.24V28H25.168ZM35.5005 28.24C34.8471 28.24 34.1738 28.1133 33.4805 27.86C32.8005 27.6067 32.2071 27.2733 31.7005 26.86L33.0205 25.02C33.4738 25.3667 33.9071 25.6267 34.3205 25.8C34.7338 25.9733 35.1538 26.06 35.5805 26.06C36.0205 26.06 36.3405 25.9867 36.5405 25.84C36.7405 25.6933 36.8405 25.4867 36.8405 25.22C36.8405 25.06 36.7805 24.92 36.6605 24.8C36.5538 24.6667 36.4005 24.5467 36.2005 24.44C36.0138 24.3333 35.8005 24.24 35.5605 24.16C35.3205 24.0667 35.0738 23.9667 34.8205 23.86C34.5138 23.74 34.2071 23.6 33.9005 23.44C33.5938 23.28 33.3138 23.0867 33.0605 22.86C32.8071 22.62 32.6005 22.3467 32.4405 22.04C32.2805 21.72 32.2005 21.3533 32.2005 20.94C32.2005 20.4867 32.2871 20.0667 32.4605 19.68C32.6471 19.2933 32.9071 18.9667 33.2405 18.7C33.5738 18.4333 33.9738 18.2267 34.4405 18.08C34.9071 17.92 35.4271 17.84 36.0005 17.84C36.7605 17.84 37.4271 17.9733 38.0005 18.24C38.5738 18.4933 39.0738 18.78 39.5005 19.1L38.1805 20.86C37.8205 20.5933 37.4671 20.3867 37.1205 20.24C36.7738 20.0933 36.4271 20.02 36.0805 20.02C35.3338 20.02 34.9605 20.28 34.9605 20.8C34.9605 20.96 35.0138 21.1 35.1205 21.22C35.2271 21.3267 35.3671 21.4267 35.5405 21.52C35.7271 21.6133 35.9338 21.7067 36.1605 21.8C36.4005 21.88 36.6471 21.9667 36.9005 22.06C37.2205 22.18 37.5338 22.32 37.8405 22.48C38.1605 22.6267 38.4471 22.8133 38.7005 23.04C38.9671 23.2667 39.1805 23.5467 39.3405 23.88C39.5005 24.2 39.5805 24.5867 39.5805 25.04C39.5805 25.4933 39.4938 25.9133 39.3205 26.3C39.1471 26.6867 38.8871 27.0267 38.5405 27.32C38.1938 27.6 37.7671 27.8267 37.2605 28C36.7538 28.16 36.1671 28.24 35.5005 28.24ZM45.4877 28.24C44.781 28.24 44.121 28.1267 43.5077 27.9C42.8943 27.66 42.361 27.32 41.9077 26.88C41.4543 26.4267 41.101 25.88 40.8477 25.24C40.5943 24.6 40.4677 23.8667 40.4677 23.04C40.4677 22.24 40.601 21.52 40.8677 20.88C41.1343 20.2267 41.481 19.68 41.9077 19.24C42.3477 18.7867 42.8477 18.44 43.4077 18.2C43.9677 17.96 44.5477 17.84 45.1477 17.84C45.8543 17.84 46.4677 17.96 46.9877 18.2C47.521 18.44 47.961 18.7733 48.3077 19.2C48.6677 19.6267 48.9343 20.1333 49.1077 20.72C49.281 21.2933 49.3677 21.92 49.3677 22.6C49.3677 22.8667 49.3543 23.12 49.3277 23.36C49.301 23.6 49.2743 23.78 49.2477 23.9H43.3077C43.441 24.62 43.7343 25.1533 44.1877 25.5C44.6543 25.8333 45.221 26 45.8877 26C46.5943 26 47.3077 25.78 48.0277 25.34L49.0077 27.12C48.501 27.4667 47.9343 27.74 47.3077 27.94C46.6943 28.14 46.0877 28.24 45.4877 28.24ZM43.2877 21.96H46.8677C46.8677 21.4 46.741 20.9467 46.4877 20.6C46.2343 20.2533 45.8077 20.08 45.2077 20.08C44.741 20.08 44.3277 20.2333 43.9677 20.54C43.621 20.8467 43.3943 21.32 43.2877 21.96ZM50.9992 28V18.08H53.3992L53.5992 19.82H53.6792C54.0392 19.14 54.4726 18.64 54.9792 18.32C55.4859 18 55.9926 17.84 56.4992 17.84C56.7792 17.84 57.0059 17.86 57.1792 17.9C57.3659 17.9267 57.5326 17.9733 57.6792 18.04L57.1992 20.58C57.0126 20.5267 56.8392 20.4867 56.6792 20.46C56.5192 20.4333 56.3326 20.42 56.1192 20.42C55.7459 20.42 55.3526 20.5533 54.9392 20.82C54.5392 21.0867 54.2059 21.56 53.9392 22.24V28H50.9992ZM59.8047 31.88C59.498 31.88 59.238 31.86 59.0247 31.82C58.8114 31.7933 58.6047 31.7467 58.4047 31.68L58.9247 29.44C59.018 29.4667 59.1247 29.4933 59.2447 29.52C59.3647 29.5467 59.478 29.56 59.5847 29.56C60.078 29.56 60.458 29.44 60.7247 29.2C60.9914 28.96 61.1914 28.6467 61.3247 28.26L61.4647 27.74L57.6447 18.08H60.6047L62.0247 22.34C62.1714 22.7933 62.3047 23.2533 62.4247 23.72C62.5447 24.1867 62.6714 24.6667 62.8047 25.16H62.8847C62.9914 24.6933 63.098 24.2267 63.2047 23.76C63.3247 23.28 63.4447 22.8067 63.5647 22.34L64.7647 18.08H67.5847L64.1447 28.1C63.9047 28.7267 63.6514 29.2733 63.3847 29.74C63.1314 30.22 62.8314 30.6133 62.4847 30.92C62.1514 31.24 61.7647 31.48 61.3247 31.64C60.898 31.8 60.3914 31.88 59.8047 31.88ZM72.5783 28V14.96H77.2783C77.9716 14.96 78.6183 15.0267 79.2183 15.16C79.8316 15.2933 80.365 15.52 80.8183 15.84C81.2716 16.1467 81.6316 16.56 81.8983 17.08C82.165 17.6 82.2983 18.2467 82.2983 19.02C82.2983 19.98 82.085 20.7733 81.6583 21.4C81.245 22.0133 80.685 22.4733 79.9783 22.78L82.9383 28H79.6383L77.1383 23.3H75.5183V28H72.5783ZM75.5183 20.96H77.0383C77.8116 20.96 78.3983 20.8 78.7983 20.48C79.2116 20.1467 79.4183 19.66 79.4183 19.02C79.4183 18.38 79.2116 17.9333 78.7983 17.68C78.3983 17.4267 77.8116 17.3 77.0383 17.3H75.5183V20.96ZM84.2039 28V13.98H87.1439V17.42L87.0039 19.2C87.3772 18.8667 87.8106 18.56 88.3039 18.28C88.7972 17.9867 89.3839 17.84 90.0639 17.84C91.1439 17.84 91.9239 18.1933 92.4039 18.9C92.8972 19.6067 93.1439 20.5867 93.1439 21.84V28H90.2039V22.22C90.2039 21.5 90.1039 21.0067 89.9039 20.74C89.7172 20.4733 89.4106 20.34 88.9839 20.34C88.6106 20.34 88.2906 20.4267 88.0239 20.6C87.7572 20.76 87.4639 20.9933 87.1439 21.3V28H84.2039ZM96.3297 31.88C96.023 31.88 95.763 31.86 95.5497 31.82C95.3364 31.7933 95.1297 31.7467 94.9297 31.68L95.4497 29.44C95.543 29.4667 95.6497 29.4933 95.7697 29.52C95.8897 29.5467 96.003 29.56 96.1097 29.56C96.603 29.56 96.983 29.44 97.2497 29.2C97.5164 28.96 97.7164 28.6467 97.8497 28.26L97.9897 27.74L94.1697 18.08H97.1297L98.5497 22.34C98.6964 22.7933 98.8297 23.2533 98.9497 23.72C99.0697 24.1867 99.1964 24.6667 99.3297 25.16H99.4097C99.5164 24.6933 99.623 24.2267 99.7297 23.76C99.8497 23.28 99.9697 22.8067 100.09 22.34L101.29 18.08H104.11L100.67 28.1C100.43 28.7267 100.176 29.2733 99.9097 29.74C99.6564 30.22 99.3564 30.6133 99.0097 30.92C98.6764 31.24 98.2897 31.48 97.8497 31.64C97.423 31.8 96.9164 31.88 96.3297 31.88ZM105.259 28V18.08H107.659L107.859 19.36H107.939C108.353 18.9467 108.793 18.5933 109.259 18.3C109.726 17.9933 110.286 17.84 110.939 17.84C111.646 17.84 112.213 17.9867 112.639 18.28C113.079 18.56 113.426 18.9667 113.679 19.5C114.119 19.0467 114.579 18.66 115.059 18.34C115.553 18.0067 116.133 17.84 116.799 17.84C117.866 17.84 118.646 18.2 119.139 18.92C119.646 19.6267 119.899 20.6 119.899 21.84V28H116.959V22.22C116.959 21.5 116.859 21.0067 116.659 20.74C116.473 20.4733 116.166 20.34 115.739 20.34C115.246 20.34 114.679 20.66 114.039 21.3V28H111.099V22.22C111.099 21.5 110.999 21.0067 110.799 20.74C110.613 20.4733 110.306 20.34 109.879 20.34C109.373 20.34 108.813 20.66 108.199 21.3V28H105.259ZM126.448 28.24C125.741 28.24 125.081 28.1267 124.468 27.9C123.854 27.66 123.321 27.32 122.868 26.88C122.414 26.4267 122.061 25.88 121.808 25.24C121.554 24.6 121.428 23.8667 121.428 23.04C121.428 22.24 121.561 21.52 121.828 20.88C122.094 20.2267 122.441 19.68 122.868 19.24C123.308 18.7867 123.808 18.44 124.368 18.2C124.928 17.96 125.508 17.84 126.108 17.84C126.814 17.84 127.428 17.96 127.948 18.2C128.481 18.44 128.921 18.7733 129.268 19.2C129.628 19.6267 129.894 20.1333 130.068 20.72C130.241 21.2933 130.328 21.92 130.328 22.6C130.328 22.8667 130.314 23.12 130.288 23.36C130.261 23.6 130.234 23.78 130.208 23.9H124.268C124.401 24.62 124.694 25.1533 125.148 25.5C125.614 25.8333 126.181 26 126.848 26C127.554 26 128.268 25.78 128.988 25.34L129.968 27.12C129.461 27.4667 128.894 27.74 128.268 27.94C127.654 28.14 127.048 28.24 126.448 28.24ZM124.248 21.96H127.828C127.828 21.4 127.701 20.9467 127.448 20.6C127.194 20.2533 126.768 20.08 126.168 20.08C125.701 20.08 125.288 20.2333 124.928 20.54C124.581 20.8467 124.354 21.32 124.248 21.96ZM134.879 28.24C134.226 28.24 133.553 28.1133 132.859 27.86C132.179 27.6067 131.586 27.2733 131.079 26.86L132.399 25.02C132.853 25.3667 133.286 25.6267 133.699 25.8C134.113 25.9733 134.533 26.06 134.959 26.06C135.399 26.06 135.719 25.9867 135.919 25.84C136.119 25.6933 136.219 25.4867 136.219 25.22C136.219 25.06 136.159 24.92 136.039 24.8C135.933 24.6667 135.779 24.5467 135.579 24.44C135.393 24.3333 135.179 24.24 134.939 24.16C134.699 24.0667 134.453 23.9667 134.199 23.86C133.893 23.74 133.586 23.6 133.279 23.44C132.973 23.28 132.693 23.0867 132.439 22.86C132.186 22.62 131.979 22.3467 131.819 22.04C131.659 21.72 131.579 21.3533 131.579 20.94C131.579 20.4867 131.666 20.0667 131.839 19.68C132.026 19.2933 132.286 18.9667 132.619 18.7C132.953 18.4333 133.353 18.2267 133.819 18.08C134.286 17.92 134.806 17.84 135.379 17.84C136.139 17.84 136.806 17.9733 137.379 18.24C137.953 18.4933 138.453 18.78 138.879 19.1L137.559 20.86C137.199 20.5933 136.846 20.3867 136.499 20.24C136.153 20.0933 135.806 20.02 135.459 20.02C134.713 20.02 134.339 20.28 134.339 20.8C134.339 20.96 134.393 21.1 134.499 21.22C134.606 21.3267 134.746 21.4267 134.919 21.52C135.106 21.6133 135.313 21.7067 135.539 21.8C135.779 21.88 136.026 21.9667 136.279 22.06C136.599 22.18 136.913 22.32 137.219 22.48C137.539 22.6267 137.826 22.8133 138.079 23.04C138.346 23.2667 138.559 23.5467 138.719 23.88C138.879 24.2 138.959 24.5867 138.959 25.04C138.959 25.4933 138.873 25.9133 138.699 26.3C138.526 26.6867 138.266 27.0267 137.919 27.32C137.573 27.6 137.146 27.8267 136.639 28C136.133 28.16 135.546 28.24 134.879 28.24Z" fill="#2A2921"/>
<path d="M0.87 56.795C0.87 55.905 1 55.12 1.26 54.44C1.53 53.76 1.89 53.195 2.34 52.745C2.8 52.285 3.33 51.94 3.93 51.71C4.54 51.48 5.185 51.365 5.865 51.365C6.535 51.365 7.165 51.48 7.755 51.71C8.355 51.94 8.88 52.285 9.33 52.745C9.78 53.195 10.135 53.76 10.395 54.44C10.665 55.12 10.8 55.905 10.8 56.795C10.8 57.685 10.665 58.47 10.395 59.15C10.135 59.83 9.78 60.4 9.33 60.86C8.88 61.31 8.355 61.65 7.755 61.88C7.165 62.11 6.535 62.225 5.865 62.225C5.185 62.225 4.54 62.11 3.93 61.88C3.33 61.65 2.8 61.31 2.34 60.86C1.89 60.4 1.53 59.83 1.26 59.15C1 58.47 0.87 57.685 0.87 56.795ZM2.4 56.795C2.4 57.425 2.48 58 2.64 58.52C2.8 59.03 3.025 59.465 3.315 59.825C3.615 60.185 3.975 60.465 4.395 60.665C4.825 60.855 5.305 60.95 5.835 60.95C6.365 60.95 6.84 60.855 7.26 60.665C7.68 60.465 8.035 60.185 8.325 59.825C8.625 59.465 8.855 59.03 9.015 58.52C9.175 58 9.255 57.425 9.255 56.795C9.255 56.165 9.175 55.595 9.015 55.085C8.855 54.565 8.625 54.125 8.325 53.765C8.035 53.405 7.68 53.13 7.26 52.94C6.84 52.74 6.365 52.64 5.835 52.64C5.305 52.64 4.825 52.74 4.395 52.94C3.975 53.13 3.615 53.405 3.315 53.765C3.025 54.125 2.8 54.565 2.64 55.085C2.48 55.595 2.4 56.165 2.4 56.795ZM12.5748 54.425C12.8948 54.345 13.3198 54.26 13.8498 54.17C14.3798 54.08 14.9898 54.035 15.6798 54.035C16.2998 54.035 16.8148 54.125 17.2248 54.305C17.6348 54.475 17.9598 54.72 18.1998 55.04C18.4498 55.35 18.6248 55.725 18.7248 56.165C18.8248 56.605 18.8748 57.09 18.8748 57.62V62H17.4798V57.92C17.4798 57.44 17.4448 57.03 17.3748 56.69C17.3148 56.35 17.2098 56.075 17.0598 55.865C16.9098 55.655 16.7098 55.505 16.4598 55.415C16.2098 55.315 15.8998 55.265 15.5298 55.265C15.3798 55.265 15.2248 55.27 15.0648 55.28C14.9048 55.29 14.7498 55.305 14.5998 55.325C14.4598 55.335 14.3298 55.35 14.2098 55.37C14.0998 55.39 14.0198 55.405 13.9698 55.415V62H12.5748V54.425ZM20.4531 58.115C20.4531 57.425 20.5531 56.825 20.7531 56.315C20.9531 55.795 21.2181 55.365 21.5481 55.025C21.8781 54.685 22.2581 54.43 22.6881 54.26C23.1181 54.09 23.5581 54.005 24.0081 54.005C25.0581 54.005 25.8631 54.335 26.4231 54.995C26.9831 55.645 27.2631 56.64 27.2631 57.98C27.2631 58.04 27.2631 58.12 27.2631 58.22C27.2631 58.31 27.2581 58.395 27.2481 58.475H21.9081C21.9681 59.285 22.2031 59.9 22.6131 60.32C23.0231 60.74 23.6631 60.95 24.5331 60.95C25.0231 60.95 25.4331 60.91 25.7631 60.83C26.1031 60.74 26.3581 60.655 26.5281 60.575L26.7231 61.745C26.5531 61.835 26.2531 61.93 25.8231 62.03C25.4031 62.13 24.9231 62.18 24.3831 62.18C23.7031 62.18 23.1131 62.08 22.6131 61.88C22.1231 61.67 21.7181 61.385 21.3981 61.025C21.0781 60.665 20.8381 60.24 20.6781 59.75C20.5281 59.25 20.4531 58.705 20.4531 58.115ZM25.8081 57.35C25.8181 56.72 25.6581 56.205 25.3281 55.805C25.0081 55.395 24.5631 55.19 23.9931 55.19C23.6731 55.19 23.3881 55.255 23.1381 55.385C22.8981 55.505 22.6931 55.665 22.5231 55.865C22.3531 56.065 22.2181 56.295 22.1181 56.555C22.0281 56.815 21.9681 57.08 21.9381 57.35H25.8081ZM35.1837 50.36C35.5937 50.36 35.9437 50.39 36.2337 50.45C36.5337 50.51 36.7437 50.565 36.8637 50.615L36.6087 51.815C36.4887 51.755 36.3187 51.7 36.0987 51.65C35.8787 51.59 35.6087 51.56 35.2887 51.56C34.6387 51.56 34.1837 51.74 33.9237 52.1C33.6637 52.45 33.5337 52.925 33.5337 53.525V54.2H36.5337V55.37H33.5337V62H32.1387V53.495C32.1387 52.495 32.3837 51.725 32.8737 51.185C33.3637 50.635 34.1337 50.36 35.1837 50.36ZM44.5098 58.1C44.5098 58.72 44.4198 59.28 44.2398 59.78C44.0598 60.28 43.8048 60.71 43.4748 61.07C43.1548 61.43 42.7698 61.71 42.3198 61.91C41.8698 62.1 41.3798 62.195 40.8498 62.195C40.3198 62.195 39.8298 62.1 39.3798 61.91C38.9298 61.71 38.5398 61.43 38.2098 61.07C37.8898 60.71 37.6398 60.28 37.4598 59.78C37.2798 59.28 37.1898 58.72 37.1898 58.1C37.1898 57.49 37.2798 56.935 37.4598 56.435C37.6398 55.925 37.8898 55.49 38.2098 55.13C38.5398 54.77 38.9298 54.495 39.3798 54.305C39.8298 54.105 40.3198 54.005 40.8498 54.005C41.3798 54.005 41.8698 54.105 42.3198 54.305C42.7698 54.495 43.1548 54.77 43.4748 55.13C43.8048 55.49 44.0598 55.925 44.2398 56.435C44.4198 56.935 44.5098 57.49 44.5098 58.1ZM43.0548 58.1C43.0548 57.22 42.8548 56.525 42.4548 56.015C42.0648 55.495 41.5298 55.235 40.8498 55.235C40.1698 55.235 39.6298 55.495 39.2298 56.015C38.8398 56.525 38.6448 57.22 38.6448 58.1C38.6448 58.98 38.8398 59.68 39.2298 60.2C39.6298 60.71 40.1698 60.965 40.8498 60.965C41.5298 60.965 42.0648 60.71 42.4548 60.2C42.8548 59.68 43.0548 58.98 43.0548 58.1ZM49.0525 54.035C49.1725 54.035 49.3075 54.045 49.4575 54.065C49.6175 54.075 49.7725 54.095 49.9225 54.125C50.0725 54.145 50.2075 54.17 50.3275 54.2C50.4575 54.22 50.5525 54.24 50.6125 54.26L50.3725 55.475C50.2625 55.435 50.0775 55.39 49.8175 55.34C49.5675 55.28 49.2425 55.25 48.8425 55.25C48.5825 55.25 48.3225 55.28 48.0625 55.34C47.8125 55.39 47.6475 55.425 47.5675 55.445V62H46.1725V54.53C46.5025 54.41 46.9125 54.3 47.4025 54.2C47.8925 54.09 48.4425 54.035 49.0525 54.035ZM56.6453 60.995C57.2153 60.995 57.6353 60.92 57.9053 60.77C58.1853 60.62 58.3253 60.38 58.3253 60.05C58.3253 59.71 58.1903 59.44 57.9203 59.24C57.6503 59.04 57.2053 58.815 56.5853 58.565C56.2853 58.445 55.9953 58.325 55.7153 58.205C55.4453 58.075 55.2103 57.925 55.0103 57.755C54.8103 57.585 54.6503 57.38 54.5303 57.14C54.4103 56.9 54.3503 56.605 54.3503 56.255C54.3503 55.565 54.6053 55.02 55.1153 54.62C55.6253 54.21 56.3203 54.005 57.2003 54.005C57.4203 54.005 57.6403 54.02 57.8603 54.05C58.0803 54.07 58.2853 54.1 58.4753 54.14C58.6653 54.17 58.8303 54.205 58.9703 54.245C59.1203 54.285 59.2353 54.32 59.3153 54.35L59.0603 55.55C58.9103 55.47 58.6753 55.39 58.3553 55.31C58.0353 55.22 57.6503 55.175 57.2003 55.175C56.8103 55.175 56.4703 55.255 56.1803 55.415C55.8903 55.565 55.7453 55.805 55.7453 56.135C55.7453 56.305 55.7753 56.455 55.8353 56.585C55.9053 56.715 56.0053 56.835 56.1353 56.945C56.2753 57.045 56.4453 57.14 56.6453 57.23C56.8453 57.32 57.0853 57.415 57.3653 57.515C57.7353 57.655 58.0653 57.795 58.3553 57.935C58.6453 58.065 58.8903 58.22 59.0903 58.4C59.3003 58.58 59.4603 58.8 59.5703 59.06C59.6803 59.31 59.7353 59.62 59.7353 59.99C59.7353 60.71 59.4653 61.255 58.9253 61.625C58.3953 61.995 57.6353 62.18 56.6453 62.18C55.9553 62.18 55.4153 62.12 55.0253 62C54.6353 61.89 54.3703 61.805 54.2303 61.745L54.4853 60.545C54.6453 60.605 54.9003 60.695 55.2503 60.815C55.6003 60.935 56.0653 60.995 56.6453 60.995ZM68.1096 58.1C68.1096 58.72 68.0196 59.28 67.8396 59.78C67.6596 60.28 67.4046 60.71 67.0746 61.07C66.7546 61.43 66.3696 61.71 65.9196 61.91C65.4696 62.1 64.9796 62.195 64.4496 62.195C63.9196 62.195 63.4296 62.1 62.9796 61.91C62.5296 61.71 62.1396 61.43 61.8096 61.07C61.4896 60.71 61.2396 60.28 61.0596 59.78C60.8796 59.28 60.7896 58.72 60.7896 58.1C60.7896 57.49 60.8796 56.935 61.0596 56.435C61.2396 55.925 61.4896 55.49 61.8096 55.13C62.1396 54.77 62.5296 54.495 62.9796 54.305C63.4296 54.105 63.9196 54.005 64.4496 54.005C64.9796 54.005 65.4696 54.105 65.9196 54.305C66.3696 54.495 66.7546 54.77 67.0746 55.13C67.4046 55.49 67.6596 55.925 67.8396 56.435C68.0196 56.935 68.1096 57.49 68.1096 58.1ZM66.6546 58.1C66.6546 57.22 66.4546 56.525 66.0546 56.015C65.6646 55.495 65.1296 55.235 64.4496 55.235C63.7696 55.235 63.2296 55.495 62.8296 56.015C62.4396 56.525 62.2446 57.22 62.2446 58.1C62.2446 58.98 62.4396 59.68 62.8296 60.2C63.2296 60.71 63.7696 60.965 64.4496 60.965C65.1296 60.965 65.6646 60.71 66.0546 60.2C66.4546 59.68 66.6546 58.98 66.6546 58.1ZM72.6523 54.035C72.7723 54.035 72.9073 54.045 73.0573 54.065C73.2173 54.075 73.3723 54.095 73.5223 54.125C73.6723 54.145 73.8073 54.17 73.9273 54.2C74.0573 54.22 74.1523 54.24 74.2123 54.26L73.9723 55.475C73.8623 55.435 73.6773 55.39 73.4173 55.34C73.1673 55.28 72.8423 55.25 72.4423 55.25C72.1823 55.25 71.9223 55.28 71.6623 55.34C71.4123 55.39 71.2473 55.425 71.1673 55.445V62H69.7723V54.53C70.1023 54.41 70.5123 54.3 71.0023 54.2C71.4923 54.09 72.0423 54.035 72.6523 54.035ZM78.1384 54.035C78.2584 54.035 78.3934 54.045 78.5434 54.065C78.7034 54.075 78.8584 54.095 79.0084 54.125C79.1584 54.145 79.2934 54.17 79.4134 54.2C79.5434 54.22 79.6384 54.24 79.6984 54.26L79.4584 55.475C79.3484 55.435 79.1634 55.39 78.9034 55.34C78.6534 55.28 78.3284 55.25 77.9284 55.25C77.6684 55.25 77.4084 55.28 77.1484 55.34C76.8984 55.39 76.7334 55.425 76.6534 55.445V62H75.2584V54.53C75.5884 54.41 75.9984 54.3 76.4884 54.2C76.9784 54.09 77.5284 54.035 78.1384 54.035ZM87.6295 58.1C87.6295 58.72 87.5395 59.28 87.3595 59.78C87.1795 60.28 86.9245 60.71 86.5945 61.07C86.2745 61.43 85.8895 61.71 85.4395 61.91C84.9895 62.1 84.4995 62.195 83.9695 62.195C83.4395 62.195 82.9495 62.1 82.4995 61.91C82.0495 61.71 81.6595 61.43 81.3295 61.07C81.0095 60.71 80.7595 60.28 80.5795 59.78C80.3995 59.28 80.3095 58.72 80.3095 58.1C80.3095 57.49 80.3995 56.935 80.5795 56.435C80.7595 55.925 81.0095 55.49 81.3295 55.13C81.6595 54.77 82.0495 54.495 82.4995 54.305C82.9495 54.105 83.4395 54.005 83.9695 54.005C84.4995 54.005 84.9895 54.105 85.4395 54.305C85.8895 54.495 86.2745 54.77 86.5945 55.13C86.9245 55.49 87.1795 55.925 87.3595 56.435C87.5395 56.935 87.6295 57.49 87.6295 58.1ZM86.1745 58.1C86.1745 57.22 85.9745 56.525 85.5745 56.015C85.1845 55.495 84.6495 55.235 83.9695 55.235C83.2895 55.235 82.7495 55.495 82.3495 56.015C81.9595 56.525 81.7645 57.22 81.7645 58.1C81.7645 58.98 81.9595 59.68 82.3495 60.2C82.7495 60.71 83.2895 60.965 83.9695 60.965C84.6495 60.965 85.1845 60.71 85.5745 60.2C85.9745 59.68 86.1745 58.98 86.1745 58.1ZM95.4768 62C95.1968 61.28 94.8968 60.46 94.5768 59.54C94.2668 58.61 93.9818 57.645 93.7218 56.645C93.4618 57.645 93.1768 58.61 92.8668 59.54C92.5568 60.46 92.2618 61.28 91.9818 62H90.7668C90.3068 60.97 89.8568 59.795 89.4168 58.475C88.9768 57.155 88.5618 55.73 88.1718 54.2H89.6718C89.7718 54.67 89.8918 55.18 90.0318 55.73C90.1718 56.28 90.3168 56.83 90.4668 57.38C90.6268 57.93 90.7918 58.46 90.9618 58.97C91.1318 59.48 91.2918 59.925 91.4418 60.305C91.6118 59.835 91.7768 59.34 91.9368 58.82C92.1068 58.29 92.2668 57.76 92.4168 57.23C92.5668 56.69 92.7068 56.165 92.8368 55.655C92.9768 55.135 93.0968 54.65 93.1968 54.2H94.3518C94.4418 54.65 94.5518 55.135 94.6818 55.655C94.8118 56.165 94.9518 56.69 95.1018 57.23C95.2518 57.76 95.4068 58.29 95.5668 58.82C95.7368 59.34 95.9068 59.835 96.0768 60.305C96.2268 59.925 96.3818 59.48 96.5418 58.97C96.7118 58.46 96.8768 57.93 97.0368 57.38C97.1968 56.83 97.3468 56.28 97.4868 55.73C97.6268 55.18 97.7468 54.67 97.8468 54.2H99.2868C98.8968 55.73 98.4818 57.155 98.0418 58.475C97.6018 59.795 97.1518 60.97 96.6918 62H95.4768ZM101.449 60.29C101.459 60.37 101.464 60.45 101.464 60.53C101.464 60.6 101.464 60.675 101.464 60.755C101.464 61.385 101.369 62.005 101.179 62.615C100.999 63.235 100.749 63.825 100.429 64.385L99.3485 64.04C99.5985 63.53 99.7635 63.01 99.8435 62.48C99.9235 61.96 99.9635 61.47 99.9635 61.01C99.9635 60.88 99.9585 60.755 99.9485 60.635C99.9485 60.515 99.9435 60.4 99.9335 60.29H101.449ZM113.577 51.605V52.865H110.307V62H108.852V52.865H105.582V51.605H113.577ZM119.882 62C119.602 61.28 119.302 60.46 118.982 59.54C118.672 58.61 118.387 57.645 118.127 56.645C117.867 57.645 117.582 58.61 117.272 59.54C116.962 60.46 116.667 61.28 116.387 62H115.172C114.712 60.97 114.262 59.795 113.822 58.475C113.382 57.155 112.967 55.73 112.577 54.2H114.077C114.177 54.67 114.297 55.18 114.437 55.73C114.577 56.28 114.722 56.83 114.872 57.38C115.032 57.93 115.197 58.46 115.367 58.97C115.537 59.48 115.697 59.925 115.847 60.305C116.017 59.835 116.182 59.34 116.342 58.82C116.512 58.29 116.672 57.76 116.822 57.23C116.972 56.69 117.112 56.165 117.242 55.655C117.382 55.135 117.502 54.65 117.602 54.2H118.757C118.847 54.65 118.957 55.135 119.087 55.655C119.217 56.165 119.357 56.69 119.507 57.23C119.657 57.76 119.812 58.29 119.972 58.82C120.142 59.34 120.312 59.835 120.482 60.305C120.632 59.925 120.787 59.48 120.947 58.97C121.117 58.46 121.282 57.93 121.442 57.38C121.602 56.83 121.752 56.28 121.892 55.73C122.032 55.18 122.152 54.67 122.252 54.2H123.692C123.302 55.73 122.887 57.155 122.447 58.475C122.007 59.795 121.557 60.97 121.097 62H119.882ZM131.577 58.1C131.577 58.72 131.487 59.28 131.307 59.78C131.127 60.28 130.872 60.71 130.542 61.07C130.222 61.43 129.837 61.71 129.387 61.91C128.937 62.1 128.447 62.195 127.917 62.195C127.387 62.195 126.897 62.1 126.447 61.91C125.997 61.71 125.607 61.43 125.277 61.07C124.957 60.71 124.707 60.28 124.527 59.78C124.347 59.28 124.257 58.72 124.257 58.1C124.257 57.49 124.347 56.935 124.527 56.435C124.707 55.925 124.957 55.49 125.277 55.13C125.607 54.77 125.997 54.495 126.447 54.305C126.897 54.105 127.387 54.005 127.917 54.005C128.447 54.005 128.937 54.105 129.387 54.305C129.837 54.495 130.222 54.77 130.542 55.13C130.872 55.49 131.127 55.925 131.307 56.435C131.487 56.935 131.577 57.49 131.577 58.1ZM130.122 58.1C130.122 57.22 129.922 56.525 129.522 56.015C129.132 55.495 128.597 55.235 127.917 55.235C127.237 55.235 126.697 55.495 126.297 56.015C125.907 56.525 125.712 57.22 125.712 58.1C125.712 58.98 125.907 59.68 126.297 60.2C126.697 60.71 127.237 60.965 127.917 60.965C128.597 60.965 129.132 60.71 129.522 60.2C129.922 59.68 130.122 58.98 130.122 58.1ZM139.456 50.36C139.866 50.36 140.216 50.39 140.506 50.45C140.806 50.51 141.016 50.565 141.136 50.615L140.881 51.815C140.761 51.755 140.591 51.7 140.371 51.65C140.151 51.59 139.881 51.56 139.561 51.56C138.911 51.56 138.456 51.74 138.196 52.1C137.936 52.45 137.806 52.925 137.806 53.525V54.2H140.806V55.37H137.806V62H136.411V53.495C136.411 52.495 136.656 51.725 137.146 51.185C137.636 50.635 138.406 50.36 139.456 50.36ZM148.782 58.1C148.782 58.72 148.692 59.28 148.512 59.78C148.332 60.28 148.077 60.71 147.747 61.07C147.427 61.43 147.042 61.71 146.592 61.91C146.142 62.1 145.652 62.195 145.122 62.195C144.592 62.195 144.102 62.1 143.652 61.91C143.202 61.71 142.812 61.43 142.482 61.07C142.162 60.71 141.912 60.28 141.732 59.78C141.552 59.28 141.462 58.72 141.462 58.1C141.462 57.49 141.552 56.935 141.732 56.435C141.912 55.925 142.162 55.49 142.482 55.13C142.812 54.77 143.202 54.495 143.652 54.305C144.102 54.105 144.592 54.005 145.122 54.005C145.652 54.005 146.142 54.105 146.592 54.305C147.042 54.495 147.427 54.77 147.747 55.13C148.077 55.49 148.332 55.925 148.512 56.435C148.692 56.935 148.782 57.49 148.782 58.1ZM147.327 58.1C147.327 57.22 147.127 56.525 146.727 56.015C146.337 55.495 145.802 55.235 145.122 55.235C144.442 55.235 143.902 55.495 143.502 56.015C143.112 56.525 142.917 57.22 142.917 58.1C142.917 58.98 143.112 59.68 143.502 60.2C143.902 60.71 144.442 60.965 145.122 60.965C145.802 60.965 146.337 60.71 146.727 60.2C147.127 59.68 147.327 58.98 147.327 58.1ZM153.325 54.035C153.445 54.035 153.58 54.045 153.73 54.065C153.89 54.075 154.045 54.095 154.195 54.125C154.345 54.145 154.48 54.17 154.6 54.2C154.73 54.22 154.825 54.24 154.885 54.26L154.645 55.475C154.535 55.435 154.35 55.39 154.09 55.34C153.84 55.28 153.515 55.25 153.115 55.25C152.855 55.25 152.595 55.28 152.335 55.34C152.085 55.39 151.92 55.425 151.84 55.445V62H150.445V54.53C150.775 54.41 151.185 54.3 151.675 54.2C152.165 54.09 152.715 54.035 153.325 54.035ZM1.2 75.425C1.52 75.345 1.94 75.26 2.46 75.17C2.99 75.08 3.6 75.035 4.29 75.035C4.79 75.035 5.21 75.105 5.55 75.245C5.89 75.375 6.175 75.57 6.405 75.83C6.475 75.78 6.585 75.71 6.735 75.62C6.885 75.53 7.07 75.445 7.29 75.365C7.51 75.275 7.755 75.2 8.025 75.14C8.295 75.07 8.585 75.035 8.895 75.035C9.495 75.035 9.985 75.125 10.365 75.305C10.745 75.475 11.04 75.72 11.25 76.04C11.47 76.36 11.615 76.74 11.685 77.18C11.765 77.62 11.805 78.1 11.805 78.62V83H10.41V78.92C10.41 78.46 10.385 78.065 10.335 77.735C10.295 77.405 10.21 77.13 10.08 76.91C9.96 76.69 9.79 76.53 9.57 76.43C9.36 76.32 9.085 76.265 8.745 76.265C8.275 76.265 7.885 76.33 7.575 76.46C7.275 76.58 7.07 76.69 6.96 76.79C7.04 77.05 7.1 77.335 7.14 77.645C7.18 77.955 7.2 78.28 7.2 78.62V83H5.805V78.92C5.805 78.46 5.78 78.065 5.73 77.735C5.68 77.405 5.59 77.13 5.46 76.91C5.34 76.69 5.17 76.53 4.95 76.43C4.74 76.32 4.47 76.265 4.14 76.265C4 76.265 3.85 76.27 3.69 76.28C3.53 76.29 3.375 76.305 3.225 76.325C3.085 76.335 2.955 76.35 2.835 76.37C2.715 76.39 2.635 76.405 2.595 76.415V83H1.2V75.425ZM15.2149 83H13.8199V75.2H15.2149V83ZM14.5099 73.79C14.2599 73.79 14.0449 73.71 13.8649 73.55C13.6949 73.38 13.6099 73.155 13.6099 72.875C13.6099 72.595 13.6949 72.375 13.8649 72.215C14.0449 72.045 14.2599 71.96 14.5099 71.96C14.7599 71.96 14.9699 72.045 15.1399 72.215C15.3199 72.375 15.4099 72.595 15.4099 72.875C15.4099 73.155 15.3199 73.38 15.1399 73.55C14.9699 73.71 14.7599 73.79 14.5099 73.79ZM20.1939 75.035C20.3139 75.035 20.4489 75.045 20.5989 75.065C20.7589 75.075 20.9139 75.095 21.0639 75.125C21.2139 75.145 21.3489 75.17 21.4689 75.2C21.5989 75.22 21.6939 75.24 21.7539 75.26L21.5139 76.475C21.4039 76.435 21.2189 76.39 20.9589 76.34C20.7089 76.28 20.3839 76.25 19.9839 76.25C19.7239 76.25 19.4639 76.28 19.2039 76.34C18.9539 76.39 18.7889 76.425 18.7089 76.445V83H17.3139V75.53C17.6439 75.41 18.0539 75.3 18.5439 75.2C19.0339 75.09 19.5839 75.035 20.1939 75.035ZM24.105 75.2H27.06V76.37H24.105V79.97C24.105 80.36 24.135 80.685 24.195 80.945C24.255 81.195 24.345 81.395 24.465 81.545C24.585 81.685 24.735 81.785 24.915 81.845C25.095 81.905 25.305 81.935 25.545 81.935C25.965 81.935 26.3 81.89 26.55 81.8C26.81 81.7 26.99 81.63 27.09 81.59L27.36 82.745C27.22 82.815 26.975 82.9 26.625 83C26.275 83.11 25.875 83.165 25.425 83.165C24.895 83.165 24.455 83.1 24.105 82.97C23.765 82.83 23.49 82.625 23.28 82.355C23.07 82.085 22.92 81.755 22.83 81.365C22.75 80.965 22.71 80.505 22.71 79.985V73.025L24.105 72.785V75.2ZM28.5352 83V71.6L29.9302 71.36V75.35C30.1902 75.25 30.4652 75.175 30.7552 75.125C31.0552 75.065 31.3502 75.035 31.6402 75.035C32.2602 75.035 32.7752 75.125 33.1852 75.305C33.5952 75.475 33.9202 75.72 34.1602 76.04C34.4102 76.35 34.5852 76.725 34.6852 77.165C34.7852 77.605 34.8352 78.09 34.8352 78.62V83H33.4402V78.92C33.4402 78.44 33.4052 78.03 33.3352 77.69C33.2752 77.35 33.1702 77.075 33.0202 76.865C32.8702 76.655 32.6702 76.505 32.4202 76.415C32.1702 76.315 31.8602 76.265 31.4902 76.265C31.3402 76.265 31.1852 76.275 31.0252 76.295C30.8652 76.315 30.7102 76.34 30.5602 76.37C30.4202 76.39 30.2902 76.415 30.1702 76.445C30.0602 76.475 29.9802 76.5 29.9302 76.52V83H28.5352ZM38.2745 81.29C38.2845 81.37 38.2895 81.45 38.2895 81.53C38.2895 81.6 38.2895 81.675 38.2895 81.755C38.2895 82.385 38.1945 83.005 38.0045 83.615C37.8245 84.235 37.5745 84.825 37.2545 85.385L36.1745 85.04C36.4245 84.53 36.5895 84.01 36.6695 83.48C36.7495 82.96 36.7895 82.47 36.7895 82.01C36.7895 81.88 36.7845 81.755 36.7745 81.635C36.7745 81.515 36.7695 81.4 36.7595 81.29H38.2745ZM50.4026 72.605V73.865H47.1326V83H45.6776V73.865H42.4076V72.605H50.4026ZM51.549 83V71.6L52.944 71.36V75.35C53.204 75.25 53.479 75.175 53.769 75.125C54.069 75.065 54.364 75.035 54.654 75.035C55.274 75.035 55.789 75.125 56.199 75.305C56.609 75.475 56.934 75.72 57.174 76.04C57.424 76.35 57.599 76.725 57.699 77.165C57.799 77.605 57.849 78.09 57.849 78.62V83H56.454V78.92C56.454 78.44 56.419 78.03 56.349 77.69C56.289 77.35 56.184 77.075 56.034 76.865C55.884 76.655 55.684 76.505 55.434 76.415C55.184 76.315 54.874 76.265 54.504 76.265C54.354 76.265 54.199 76.275 54.039 76.295C53.879 76.315 53.724 76.34 53.574 76.37C53.434 76.39 53.304 76.415 53.184 76.445C53.074 76.475 52.994 76.5 52.944 76.52V83H51.549ZM62.6984 75.035C62.8184 75.035 62.9534 75.045 63.1034 75.065C63.2634 75.075 63.4184 75.095 63.5684 75.125C63.7184 75.145 63.8534 75.17 63.9734 75.2C64.1034 75.22 64.1984 75.24 64.2584 75.26L64.0184 76.475C63.9084 76.435 63.7234 76.39 63.4634 76.34C63.2134 76.28 62.8884 76.25 62.4884 76.25C62.2284 76.25 61.9684 76.28 61.7084 76.34C61.4584 76.39 61.2934 76.425 61.2134 76.445V83H59.8184V75.53C60.1484 75.41 60.5584 75.3 61.0484 75.2C61.5384 75.09 62.0884 75.035 62.6984 75.035ZM64.8695 79.115C64.8695 78.425 64.9695 77.825 65.1695 77.315C65.3695 76.795 65.6345 76.365 65.9645 76.025C66.2945 75.685 66.6745 75.43 67.1045 75.26C67.5345 75.09 67.9745 75.005 68.4245 75.005C69.4745 75.005 70.2795 75.335 70.8395 75.995C71.3995 76.645 71.6795 77.64 71.6795 78.98C71.6795 79.04 71.6795 79.12 71.6795 79.22C71.6795 79.31 71.6745 79.395 71.6645 79.475H66.3245C66.3845 80.285 66.6195 80.9 67.0295 81.32C67.4395 81.74 68.0795 81.95 68.9495 81.95C69.4395 81.95 69.8495 81.91 70.1795 81.83C70.5195 81.74 70.7745 81.655 70.9445 81.575L71.1395 82.745C70.9695 82.835 70.6695 82.93 70.2395 83.03C69.8195 83.13 69.3395 83.18 68.7995 83.18C68.1195 83.18 67.5295 83.08 67.0295 82.88C66.5395 82.67 66.1345 82.385 65.8145 82.025C65.4945 81.665 65.2545 81.24 65.0945 80.75C64.9445 80.25 64.8695 79.705 64.8695 79.115ZM70.2245 78.35C70.2345 77.72 70.0745 77.205 69.7445 76.805C69.4245 76.395 68.9795 76.19 68.4095 76.19C68.0895 76.19 67.8045 76.255 67.5545 76.385C67.3145 76.505 67.1095 76.665 66.9395 76.865C66.7695 77.065 66.6345 77.295 66.5345 77.555C66.4445 77.815 66.3845 78.08 66.3545 78.35H70.2245ZM72.9484 79.115C72.9484 78.425 73.0484 77.825 73.2484 77.315C73.4484 76.795 73.7134 76.365 74.0434 76.025C74.3734 75.685 74.7534 75.43 75.1834 75.26C75.6134 75.09 76.0534 75.005 76.5034 75.005C77.5534 75.005 78.3584 75.335 78.9184 75.995C79.4784 76.645 79.7584 77.64 79.7584 78.98C79.7584 79.04 79.7584 79.12 79.7584 79.22C79.7584 79.31 79.7534 79.395 79.7434 79.475H74.4034C74.4634 80.285 74.6984 80.9 75.1084 81.32C75.5184 81.74 76.1584 81.95 77.0284 81.95C77.5184 81.95 77.9284 81.91 78.2584 81.83C78.5984 81.74 78.8534 81.655 79.0234 81.575L79.2184 82.745C79.0484 82.835 78.7484 82.93 78.3184 83.03C77.8984 83.13 77.4184 83.18 76.8784 83.18C76.1984 83.18 75.6084 83.08 75.1084 82.88C74.6184 82.67 74.2134 82.385 73.8934 82.025C73.5734 81.665 73.3334 81.24 73.1734 80.75C73.0234 80.25 72.9484 79.705 72.9484 79.115ZM78.3034 78.35C78.3134 77.72 78.1534 77.205 77.8234 76.805C77.5034 76.395 77.0584 76.19 76.4884 76.19C76.1684 76.19 75.8834 76.255 75.6334 76.385C75.3934 76.505 75.1884 76.665 75.0184 76.865C74.8484 77.065 74.7134 77.295 74.6134 77.555C74.5234 77.815 74.4634 78.08 74.4334 78.35H78.3034ZM87.679 71.36C88.089 71.36 88.439 71.39 88.729 71.45C89.029 71.51 89.239 71.565 89.359 71.615L89.104 72.815C88.984 72.755 88.814 72.7 88.594 72.65C88.374 72.59 88.104 72.56 87.784 72.56C87.134 72.56 86.679 72.74 86.419 73.1C86.159 73.45 86.029 73.925 86.029 74.525V75.2H89.029V76.37H86.029V83H84.634V74.495C84.634 73.495 84.879 72.725 85.369 72.185C85.859 71.635 86.629 71.36 87.679 71.36ZM97.0051 79.1C97.0051 79.72 96.9151 80.28 96.7351 80.78C96.5551 81.28 96.3001 81.71 95.9701 82.07C95.6501 82.43 95.2651 82.71 94.8151 82.91C94.3651 83.1 93.8751 83.195 93.3451 83.195C92.8151 83.195 92.3251 83.1 91.8751 82.91C91.4251 82.71 91.0351 82.43 90.7051 82.07C90.3851 81.71 90.1351 81.28 89.9551 80.78C89.7751 80.28 89.6851 79.72 89.6851 79.1C89.6851 78.49 89.7751 77.935 89.9551 77.435C90.1351 76.925 90.3851 76.49 90.7051 76.13C91.0351 75.77 91.4251 75.495 91.8751 75.305C92.3251 75.105 92.8151 75.005 93.3451 75.005C93.8751 75.005 94.3651 75.105 94.8151 75.305C95.2651 75.495 95.6501 75.77 95.9701 76.13C96.3001 76.49 96.5551 76.925 96.7351 77.435C96.9151 77.935 97.0051 78.49 97.0051 79.1ZM95.5501 79.1C95.5501 78.22 95.3501 77.525 94.9501 77.015C94.5601 76.495 94.0251 76.235 93.3451 76.235C92.6651 76.235 92.1251 76.495 91.7251 77.015C91.3351 77.525 91.1401 78.22 91.1401 79.1C91.1401 79.98 91.3351 80.68 91.7251 81.2C92.1251 81.71 92.6651 81.965 93.3451 81.965C94.0251 81.965 94.5601 81.71 94.9501 81.2C95.3501 80.68 95.5501 79.98 95.5501 79.1ZM101.548 75.035C101.668 75.035 101.803 75.045 101.953 75.065C102.113 75.075 102.268 75.095 102.418 75.125C102.568 75.145 102.703 75.17 102.823 75.2C102.953 75.22 103.048 75.24 103.108 75.26L102.868 76.475C102.758 76.435 102.573 76.39 102.313 76.34C102.063 76.28 101.738 76.25 101.338 76.25C101.078 76.25 100.818 76.28 100.558 76.34C100.308 76.39 100.143 76.425 100.063 76.445V83H98.6678V75.53C98.9978 75.41 99.4078 75.3 99.8978 75.2C100.388 75.09 100.938 75.035 101.548 75.035ZM109.966 81.995C110.296 81.995 110.586 81.99 110.836 81.98C111.096 81.96 111.311 81.93 111.481 81.89V79.565C111.381 79.515 111.216 79.475 110.986 79.445C110.766 79.405 110.496 79.385 110.176 79.385C109.966 79.385 109.741 79.4 109.501 79.43C109.271 79.46 109.056 79.525 108.856 79.625C108.666 79.715 108.506 79.845 108.376 80.015C108.246 80.175 108.181 80.39 108.181 80.66C108.181 81.16 108.341 81.51 108.661 81.71C108.981 81.9 109.416 81.995 109.966 81.995ZM109.846 75.005C110.406 75.005 110.876 75.08 111.256 75.23C111.646 75.37 111.956 75.575 112.186 75.845C112.426 76.105 112.596 76.42 112.696 76.79C112.796 77.15 112.846 77.55 112.846 77.99V82.865C112.726 82.885 112.556 82.915 112.336 82.955C112.126 82.985 111.886 83.015 111.616 83.045C111.346 83.075 111.051 83.1 110.731 83.12C110.421 83.15 110.111 83.165 109.801 83.165C109.361 83.165 108.956 83.12 108.586 83.03C108.216 82.94 107.896 82.8 107.626 82.61C107.356 82.41 107.146 82.15 106.996 81.83C106.846 81.51 106.771 81.125 106.771 80.675C106.771 80.245 106.856 79.875 107.026 79.565C107.206 79.255 107.446 79.005 107.746 78.815C108.046 78.625 108.396 78.485 108.796 78.395C109.196 78.305 109.616 78.26 110.056 78.26C110.196 78.26 110.341 78.27 110.491 78.29C110.641 78.3 110.781 78.32 110.911 78.35C111.051 78.37 111.171 78.39 111.271 78.41C111.371 78.43 111.441 78.445 111.481 78.455V78.065C111.481 77.835 111.456 77.61 111.406 77.39C111.356 77.16 111.266 76.96 111.136 76.79C111.006 76.61 110.826 76.47 110.596 76.37C110.376 76.26 110.086 76.205 109.726 76.205C109.266 76.205 108.861 76.24 108.511 76.31C108.171 76.37 107.916 76.435 107.746 76.505L107.581 75.35C107.761 75.27 108.061 75.195 108.481 75.125C108.901 75.045 109.356 75.005 109.846 75.005ZM7.575 104C7.295 103.28 6.995 102.46 6.675 101.54C6.365 100.61 6.08 99.645 5.82 98.645C5.56 99.645 5.275 100.61 4.965 101.54C4.655 102.46 4.36 103.28 4.08 104H2.865C2.405 102.97 1.955 101.795 1.515 100.475C1.075 99.155 0.66 97.73 0.27 96.2H1.77C1.87 96.67 1.99 97.18 2.13 97.73C2.27 98.28 2.415 98.83 2.565 99.38C2.725 99.93 2.89 100.46 3.06 100.97C3.23 101.48 3.39 101.925 3.54 102.305C3.71 101.835 3.875 101.34 4.035 100.82C4.205 100.29 4.365 99.76 4.515 99.23C4.665 98.69 4.805 98.165 4.935 97.655C5.075 97.135 5.195 96.65 5.295 96.2H6.45C6.54 96.65 6.65 97.135 6.78 97.655C6.91 98.165 7.05 98.69 7.2 99.23C7.35 99.76 7.505 100.29 7.665 100.82C7.835 101.34 8.005 101.835 8.175 102.305C8.325 101.925 8.48 101.48 8.64 100.97C8.81 100.46 8.975 99.93 9.135 99.38C9.295 98.83 9.445 98.28 9.585 97.73C9.725 97.18 9.845 96.67 9.945 96.2H11.385C10.995 97.73 10.58 99.155 10.14 100.475C9.7 101.795 9.25 102.97 8.79 104H7.575ZM12.1252 100.115C12.1252 99.425 12.2252 98.825 12.4252 98.315C12.6252 97.795 12.8902 97.365 13.2202 97.025C13.5502 96.685 13.9302 96.43 14.3602 96.26C14.7902 96.09 15.2302 96.005 15.6802 96.005C16.7302 96.005 17.5352 96.335 18.0952 96.995C18.6552 97.645 18.9352 98.64 18.9352 99.98C18.9352 100.04 18.9352 100.12 18.9352 100.22C18.9352 100.31 18.9302 100.395 18.9202 100.475H13.5802C13.6402 101.285 13.8752 101.9 14.2852 102.32C14.6952 102.74 15.3352 102.95 16.2052 102.95C16.6952 102.95 17.1052 102.91 17.4352 102.83C17.7752 102.74 18.0302 102.655 18.2002 102.575L18.3952 103.745C18.2252 103.835 17.9252 103.93 17.4952 104.03C17.0752 104.13 16.5952 104.18 16.0552 104.18C15.3752 104.18 14.7852 104.08 14.2852 103.88C13.7952 103.67 13.3902 103.385 13.0702 103.025C12.7502 102.665 12.5102 102.24 12.3502 101.75C12.2002 101.25 12.1252 100.705 12.1252 100.115ZM17.4802 99.35C17.4902 98.72 17.3302 98.205 17.0002 97.805C16.6802 97.395 16.2352 97.19 15.6652 97.19C15.3452 97.19 15.0602 97.255 14.8102 97.385C14.5702 97.505 14.3652 97.665 14.1952 97.865C14.0252 98.065 13.8902 98.295 13.7902 98.555C13.7002 98.815 13.6402 99.08 13.6102 99.35H17.4802ZM25.6791 97.85C25.5091 97.71 25.2641 97.575 24.9441 97.445C24.6241 97.315 24.2741 97.25 23.8941 97.25C23.4941 97.25 23.1491 97.325 22.8591 97.475C22.5791 97.615 22.3491 97.815 22.1691 98.075C21.9891 98.325 21.8591 98.625 21.7791 98.975C21.6991 99.325 21.6591 99.7 21.6591 100.1C21.6591 101.01 21.8841 101.715 22.3341 102.215C22.7841 102.705 23.3841 102.95 24.1341 102.95C24.5141 102.95 24.8291 102.935 25.0791 102.905C25.3391 102.865 25.5391 102.825 25.6791 102.785V97.85ZM25.6791 92.6L27.0741 92.36V103.775C26.7541 103.865 26.3441 103.955 25.8441 104.045C25.3441 104.135 24.7691 104.18 24.1191 104.18C23.5191 104.18 22.9791 104.085 22.4991 103.895C22.0191 103.705 21.6091 103.435 21.2691 103.085C20.9291 102.735 20.6641 102.31 20.4741 101.81C20.2941 101.3 20.2041 100.73 20.2041 100.1C20.2041 99.5 20.2791 98.95 20.4291 98.45C20.5891 97.95 20.8191 97.52 21.1191 97.16C21.4191 96.8 21.7841 96.52 22.2141 96.32C22.6541 96.12 23.1541 96.02 23.7141 96.02C24.1641 96.02 24.5591 96.08 24.8991 96.2C25.2491 96.32 25.5091 96.435 25.6791 96.545V92.6ZM34.2121 97.85C34.0421 97.71 33.7971 97.575 33.4771 97.445C33.1571 97.315 32.8071 97.25 32.4271 97.25C32.0271 97.25 31.6821 97.325 31.3921 97.475C31.1121 97.615 30.8821 97.815 30.7021 98.075C30.5221 98.325 30.3921 98.625 30.3121 98.975C30.2321 99.325 30.1921 99.7 30.1921 100.1C30.1921 101.01 30.4171 101.715 30.8671 102.215C31.3171 102.705 31.9171 102.95 32.6671 102.95C33.0471 102.95 33.3621 102.935 33.6121 102.905C33.8721 102.865 34.0721 102.825 34.2121 102.785V97.85ZM34.2121 92.6L35.6071 92.36V103.775C35.2871 103.865 34.8771 103.955 34.3771 104.045C33.8771 104.135 33.3021 104.18 32.6521 104.18C32.0521 104.18 31.5121 104.085 31.0321 103.895C30.5521 103.705 30.1421 103.435 29.8021 103.085C29.4621 102.735 29.1971 102.31 29.0071 101.81C28.8271 101.3 28.7371 100.73 28.7371 100.1C28.7371 99.5 28.8121 98.95 28.9621 98.45C29.1221 97.95 29.3521 97.52 29.6521 97.16C29.9521 96.8 30.3171 96.52 30.7471 96.32C31.1871 96.12 31.6871 96.02 32.2471 96.02C32.6971 96.02 33.0921 96.08 33.4321 96.2C33.7821 96.32 34.0421 96.435 34.2121 96.545V92.6ZM39.1001 104H37.7051V96.2H39.1001V104ZM38.3951 94.79C38.1451 94.79 37.9301 94.71 37.7501 94.55C37.5801 94.38 37.4951 94.155 37.4951 93.875C37.4951 93.595 37.5801 93.375 37.7501 93.215C37.9301 93.045 38.1451 92.96 38.3951 92.96C38.6451 92.96 38.8551 93.045 39.0251 93.215C39.2051 93.375 39.2951 93.595 39.2951 93.875C39.2951 94.155 39.2051 94.38 39.0251 94.55C38.8551 94.71 38.6451 94.79 38.3951 94.79ZM41.199 96.425C41.519 96.345 41.944 96.26 42.474 96.17C43.004 96.08 43.614 96.035 44.304 96.035C44.924 96.035 45.439 96.125 45.849 96.305C46.259 96.475 46.584 96.72 46.824 97.04C47.074 97.35 47.249 97.725 47.349 98.165C47.449 98.605 47.499 99.09 47.499 99.62V104H46.104V99.92C46.104 99.44 46.069 99.03 45.999 98.69C45.939 98.35 45.834 98.075 45.684 97.865C45.534 97.655 45.334 97.505 45.084 97.415C44.834 97.315 44.524 97.265 44.154 97.265C44.004 97.265 43.849 97.27 43.689 97.28C43.529 97.29 43.374 97.305 43.224 97.325C43.084 97.335 42.954 97.35 42.834 97.37C42.724 97.39 42.644 97.405 42.594 97.415V104H41.199V96.425ZM54.4023 103.22C54.2823 103.3 54.0473 103.405 53.6973 103.535C53.3573 103.655 52.9573 103.715 52.4973 103.715C52.0273 103.715 51.5823 103.64 51.1623 103.49C50.7523 103.34 50.3923 103.11 50.0823 102.8C49.7723 102.48 49.5273 102.085 49.3473 101.615C49.1673 101.145 49.0773 100.585 49.0773 99.935C49.0773 99.365 49.1623 98.845 49.3323 98.375C49.5023 97.895 49.7473 97.485 50.0673 97.145C50.3973 96.795 50.7973 96.525 51.2673 96.335C51.7373 96.135 52.2673 96.035 52.8573 96.035C53.5073 96.035 54.0723 96.085 54.5523 96.185C55.0423 96.275 55.4523 96.36 55.7823 96.44V103.4C55.7823 104.6 55.4723 105.47 54.8523 106.01C54.2323 106.55 53.2923 106.82 52.0323 106.82C51.5423 106.82 51.0773 106.78 50.6373 106.7C50.2073 106.62 49.8323 106.525 49.5123 106.415L49.7673 105.2C50.0473 105.31 50.3873 105.405 50.7873 105.485C51.1973 105.575 51.6223 105.62 52.0623 105.62C52.8923 105.62 53.4873 105.455 53.8473 105.125C54.2173 104.795 54.4023 104.27 54.4023 103.55V103.22ZM54.3873 97.43C54.2473 97.39 54.0573 97.355 53.8173 97.325C53.5873 97.285 53.2723 97.265 52.8723 97.265C52.1223 97.265 51.5423 97.51 51.1323 98C50.7323 98.49 50.5323 99.14 50.5323 99.95C50.5323 100.4 50.5873 100.785 50.6973 101.105C50.8173 101.425 50.9723 101.69 51.1623 101.9C51.3623 102.11 51.5873 102.265 51.8373 102.365C52.0973 102.465 52.3623 102.515 52.6323 102.515C53.0023 102.515 53.3423 102.465 53.6523 102.365C53.9623 102.255 54.2073 102.13 54.3873 101.99V97.43ZM59.3542 102.29C59.3642 102.37 59.3692 102.45 59.3692 102.53C59.3692 102.6 59.3692 102.675 59.3692 102.755C59.3692 103.385 59.2742 104.005 59.0842 104.615C58.9042 105.235 58.6542 105.825 58.3342 106.385L57.2542 106.04C57.5042 105.53 57.6692 105.01 57.7492 104.48C57.8292 103.96 57.8692 103.47 57.8692 103.01C57.8692 102.88 57.8642 102.755 57.8542 102.635C57.8542 102.515 57.8492 102.4 57.8392 102.29H59.3542ZM71.4823 104C71.3123 103.55 71.1523 103.11 71.0023 102.68C70.8523 102.24 70.6973 101.795 70.5373 101.345H65.8273L64.8823 104H63.3673C63.7673 102.9 64.1423 101.885 64.4923 100.955C64.8423 100.015 65.1823 99.125 65.5123 98.285C65.8523 97.445 66.1873 96.645 66.5173 95.885C66.8473 95.115 67.1923 94.355 67.5523 93.605H68.8873C69.2473 94.355 69.5923 95.115 69.9223 95.885C70.2523 96.645 70.5823 97.445 70.9123 98.285C71.2523 99.125 71.5973 100.015 71.9473 100.955C72.2973 101.885 72.6723 102.9 73.0723 104H71.4823ZM70.1173 100.145C69.7973 99.275 69.4773 98.435 69.1573 97.625C68.8473 96.805 68.5223 96.02 68.1823 95.27C67.8323 96.02 67.4973 96.805 67.1773 97.625C66.8673 98.435 66.5573 99.275 66.2473 100.145H70.1173ZM74.0936 96.425C74.4136 96.345 74.8386 96.26 75.3686 96.17C75.8986 96.08 76.5086 96.035 77.1986 96.035C77.8186 96.035 78.3336 96.125 78.7436 96.305C79.1536 96.475 79.4786 96.72 79.7186 97.04C79.9686 97.35 80.1436 97.725 80.2436 98.165C80.3436 98.605 80.3936 99.09 80.3936 99.62V104H78.9986V99.92C78.9986 99.44 78.9636 99.03 78.8936 98.69C78.8336 98.35 78.7286 98.075 78.5786 97.865C78.4286 97.655 78.2286 97.505 77.9786 97.415C77.7286 97.315 77.4186 97.265 77.0486 97.265C76.8986 97.265 76.7436 97.27 76.5836 97.28C76.4236 97.29 76.2686 97.305 76.1186 97.325C75.9786 97.335 75.8486 97.35 75.7286 97.37C75.6186 97.39 75.5386 97.405 75.4886 97.415V104H74.0936V96.425ZM87.4468 97.85C87.2768 97.71 87.0318 97.575 86.7118 97.445C86.3918 97.315 86.0418 97.25 85.6618 97.25C85.2618 97.25 84.9168 97.325 84.6268 97.475C84.3468 97.615 84.1168 97.815 83.9368 98.075C83.7568 98.325 83.6268 98.625 83.5468 98.975C83.4668 99.325 83.4268 99.7 83.4268 100.1C83.4268 101.01 83.6518 101.715 84.1018 102.215C84.5518 102.705 85.1518 102.95 85.9018 102.95C86.2818 102.95 86.5968 102.935 86.8468 102.905C87.1068 102.865 87.3068 102.825 87.4468 102.785V97.85ZM87.4468 92.6L88.8418 92.36V103.775C88.5218 103.865 88.1118 103.955 87.6118 104.045C87.1118 104.135 86.5368 104.18 85.8868 104.18C85.2868 104.18 84.7468 104.085 84.2668 103.895C83.7868 103.705 83.3768 103.435 83.0368 103.085C82.6968 102.735 82.4318 102.31 82.2418 101.81C82.0618 101.3 81.9718 100.73 81.9718 100.1C81.9718 99.5 82.0468 98.95 82.1968 98.45C82.3568 97.95 82.5868 97.52 82.8868 97.16C83.1868 96.8 83.5518 96.52 83.9818 96.32C84.4218 96.12 84.9218 96.02 85.4818 96.02C85.9318 96.02 86.3268 96.08 86.6668 96.2C87.0168 96.32 87.2768 96.435 87.4468 96.545V92.6ZM97.1565 92.36C97.5665 92.36 97.9165 92.39 98.2065 92.45C98.5065 92.51 98.7165 92.565 98.8365 92.615L98.5815 93.815C98.4615 93.755 98.2915 93.7 98.0715 93.65C97.8515 93.59 97.5815 93.56 97.2615 93.56C96.6115 93.56 96.1565 93.74 95.8965 94.1C95.6365 94.45 95.5065 94.925 95.5065 95.525V96.2H98.5065V97.37H95.5065V104H94.1115V95.495C94.1115 94.495 94.3565 93.725 94.8465 93.185C95.3365 92.635 96.1065 92.36 97.1565 92.36ZM106.483 100.1C106.483 100.72 106.393 101.28 106.213 101.78C106.033 102.28 105.778 102.71 105.448 103.07C105.128 103.43 104.743 103.71 104.293 103.91C103.843 104.1 103.353 104.195 102.823 104.195C102.293 104.195 101.803 104.1 101.353 103.91C100.903 103.71 100.513 103.43 100.183 103.07C99.8627 102.71 99.6127 102.28 99.4327 101.78C99.2527 101.28 99.1627 100.72 99.1627 100.1C99.1627 99.49 99.2527 98.935 99.4327 98.435C99.6127 97.925 99.8627 97.49 100.183 97.13C100.513 96.77 100.903 96.495 101.353 96.305C101.803 96.105 102.293 96.005 102.823 96.005C103.353 96.005 103.843 96.105 104.293 96.305C104.743 96.495 105.128 96.77 105.448 97.13C105.778 97.49 106.033 97.925 106.213 98.435C106.393 98.935 106.483 99.49 106.483 100.1ZM105.028 100.1C105.028 99.22 104.828 98.525 104.428 98.015C104.038 97.495 103.503 97.235 102.823 97.235C102.143 97.235 101.603 97.495 101.203 98.015C100.813 98.525 100.618 99.22 100.618 100.1C100.618 100.98 100.813 101.68 101.203 102.2C101.603 102.71 102.143 102.965 102.823 102.965C103.503 102.965 104.038 102.71 104.428 102.2C104.828 101.68 105.028 100.98 105.028 100.1ZM114.355 103.775C114.035 103.855 113.61 103.94 113.08 104.03C112.56 104.12 111.955 104.165 111.265 104.165C110.665 104.165 110.16 104.08 109.75 103.91C109.34 103.73 109.01 103.48 108.76 103.16C108.51 102.84 108.33 102.465 108.22 102.035C108.11 101.595 108.055 101.11 108.055 100.58V96.2H109.45V100.28C109.45 101.23 109.6 101.91 109.9 102.32C110.2 102.73 110.705 102.935 111.415 102.935C111.565 102.935 111.72 102.93 111.88 102.92C112.04 102.91 112.19 102.9 112.33 102.89C112.47 102.87 112.595 102.855 112.705 102.845C112.825 102.825 112.91 102.805 112.96 102.785V96.2H114.355V103.775ZM119.339 96.035C119.459 96.035 119.594 96.045 119.744 96.065C119.904 96.075 120.059 96.095 120.209 96.125C120.359 96.145 120.494 96.17 120.614 96.2C120.744 96.22 120.839 96.24 120.899 96.26L120.659 97.475C120.549 97.435 120.364 97.39 120.104 97.34C119.854 97.28 119.529 97.25 119.129 97.25C118.869 97.25 118.609 97.28 118.349 97.34C118.099 97.39 117.934 97.425 117.854 97.445V104H116.459V96.53C116.789 96.41 117.199 96.3 117.689 96.2C118.179 96.09 118.729 96.035 119.339 96.035ZM128.161 92.36C128.571 92.36 128.921 92.39 129.211 92.45C129.511 92.51 129.721 92.565 129.841 92.615L129.586 93.815C129.466 93.755 129.296 93.7 129.076 93.65C128.856 93.59 128.586 93.56 128.266 93.56C127.616 93.56 127.161 93.74 126.901 94.1C126.641 94.45 126.511 94.925 126.511 95.525V96.2H129.511V97.37H126.511V104H125.116V95.495C125.116 94.495 125.361 93.725 125.851 93.185C126.341 92.635 127.111 92.36 128.161 92.36ZM137.488 100.1C137.488 100.72 137.398 101.28 137.218 101.78C137.038 102.28 136.783 102.71 136.453 103.07C136.133 103.43 135.748 103.71 135.298 103.91C134.848 104.1 134.358 104.195 133.828 104.195C133.298 104.195 132.808 104.1 132.358 103.91C131.908 103.71 131.518 103.43 131.188 103.07C130.868 102.71 130.618 102.28 130.438 101.78C130.258 101.28 130.168 100.72 130.168 100.1C130.168 99.49 130.258 98.935 130.438 98.435C130.618 97.925 130.868 97.49 131.188 97.13C131.518 96.77 131.908 96.495 132.358 96.305C132.808 96.105 133.298 96.005 133.828 96.005C134.358 96.005 134.848 96.105 135.298 96.305C135.748 96.495 136.133 96.77 136.453 97.13C136.783 97.49 137.038 97.925 137.218 98.435C137.398 98.935 137.488 99.49 137.488 100.1ZM136.033 100.1C136.033 99.22 135.833 98.525 135.433 98.015C135.043 97.495 134.508 97.235 133.828 97.235C133.148 97.235 132.608 97.495 132.208 98.015C131.818 98.525 131.623 99.22 131.623 100.1C131.623 100.98 131.818 101.68 132.208 102.2C132.608 102.71 133.148 102.965 133.828 102.965C134.508 102.965 135.043 102.71 135.433 102.2C135.833 101.68 136.033 100.98 136.033 100.1ZM142.03 96.035C142.15 96.035 142.285 96.045 142.435 96.065C142.595 96.075 142.75 96.095 142.9 96.125C143.05 96.145 143.185 96.17 143.305 96.2C143.435 96.22 143.53 96.24 143.59 96.26L143.35 97.475C143.24 97.435 143.055 97.39 142.795 97.34C142.545 97.28 142.22 97.25 141.82 97.25C141.56 97.25 141.3 97.28 141.04 97.34C140.79 97.39 140.625 97.425 140.545 97.445V104H139.15V96.53C139.48 96.41 139.89 96.3 140.38 96.2C140.87 96.09 141.42 96.035 142.03 96.035ZM6.24 118.85C6.07 118.71 5.825 118.575 5.505 118.445C5.185 118.315 4.835 118.25 4.455 118.25C4.055 118.25 3.71 118.325 3.42 118.475C3.14 118.615 2.91 118.815 2.73 119.075C2.55 119.325 2.42 119.625 2.34 119.975C2.26 120.325 2.22 120.7 2.22 121.1C2.22 122.01 2.445 122.715 2.895 123.215C3.345 123.705 3.945 123.95 4.695 123.95C5.075 123.95 5.39 123.935 5.64 123.905C5.9 123.865 6.1 123.825 6.24 123.785V118.85ZM6.24 113.6L7.635 113.36V124.775C7.315 124.865 6.905 124.955 6.405 125.045C5.905 125.135 5.33 125.18 4.68 125.18C4.08 125.18 3.54 125.085 3.06 124.895C2.58 124.705 2.17 124.435 1.83 124.085C1.49 123.735 1.225 123.31 1.035 122.81C0.855 122.3 0.765 121.73 0.765 121.1C0.765 120.5 0.84 119.95 0.99 119.45C1.15 118.95 1.38 118.52 1.68 118.16C1.98 117.8 2.345 117.52 2.775 117.32C3.215 117.12 3.715 117.02 4.275 117.02C4.725 117.02 5.12 117.08 5.46 117.2C5.81 117.32 6.07 117.435 6.24 117.545V113.6ZM9.29801 121.115C9.29801 120.425 9.39801 119.825 9.59801 119.315C9.79801 118.795 10.063 118.365 10.393 118.025C10.723 117.685 11.103 117.43 11.533 117.26C11.963 117.09 12.403 117.005 12.853 117.005C13.903 117.005 14.708 117.335 15.268 117.995C15.828 118.645 16.108 119.64 16.108 120.98C16.108 121.04 16.108 121.12 16.108 121.22C16.108 121.31 16.103 121.395 16.093 121.475H10.753C10.813 122.285 11.048 122.9 11.458 123.32C11.868 123.74 12.508 123.95 13.378 123.95C13.868 123.95 14.278 123.91 14.608 123.83C14.948 123.74 15.203 123.655 15.373 123.575L15.568 124.745C15.398 124.835 15.098 124.93 14.668 125.03C14.248 125.13 13.768 125.18 13.228 125.18C12.548 125.18 11.958 125.08 11.458 124.88C10.968 124.67 10.563 124.385 10.243 124.025C9.92301 123.665 9.68301 123.24 9.52301 122.75C9.37301 122.25 9.29801 121.705 9.29801 121.115ZM14.653 120.35C14.663 119.72 14.503 119.205 14.173 118.805C13.853 118.395 13.408 118.19 12.838 118.19C12.518 118.19 12.233 118.255 11.983 118.385C11.743 118.505 11.538 118.665 11.368 118.865C11.198 119.065 11.063 119.295 10.963 119.555C10.873 119.815 10.813 120.08 10.783 120.35H14.653ZM20.4519 123.995C20.7819 123.995 21.0719 123.99 21.3219 123.98C21.5819 123.96 21.7969 123.93 21.9669 123.89V121.565C21.8669 121.515 21.7019 121.475 21.4719 121.445C21.2519 121.405 20.9819 121.385 20.6619 121.385C20.4519 121.385 20.2269 121.4 19.9869 121.43C19.7569 121.46 19.5419 121.525 19.3419 121.625C19.1519 121.715 18.9919 121.845 18.8619 122.015C18.7319 122.175 18.6669 122.39 18.6669 122.66C18.6669 123.16 18.8269 123.51 19.1469 123.71C19.4669 123.9 19.9019 123.995 20.4519 123.995ZM20.3319 117.005C20.8919 117.005 21.3619 117.08 21.7419 117.23C22.1319 117.37 22.4419 117.575 22.6719 117.845C22.9119 118.105 23.0819 118.42 23.1819 118.79C23.2819 119.15 23.3319 119.55 23.3319 119.99V124.865C23.2119 124.885 23.0419 124.915 22.8219 124.955C22.6119 124.985 22.3719 125.015 22.1019 125.045C21.8319 125.075 21.5369 125.1 21.2169 125.12C20.9069 125.15 20.5969 125.165 20.2869 125.165C19.8469 125.165 19.4419 125.12 19.0719 125.03C18.7019 124.94 18.3819 124.8 18.1119 124.61C17.8419 124.41 17.6319 124.15 17.4819 123.83C17.3319 123.51 17.2569 123.125 17.2569 122.675C17.2569 122.245 17.3419 121.875 17.5119 121.565C17.6919 121.255 17.9319 121.005 18.2319 120.815C18.5319 120.625 18.8819 120.485 19.2819 120.395C19.6819 120.305 20.1019 120.26 20.5419 120.26C20.6819 120.26 20.8269 120.27 20.9769 120.29C21.1269 120.3 21.2669 120.32 21.3969 120.35C21.5369 120.37 21.6569 120.39 21.7569 120.41C21.8569 120.43 21.9269 120.445 21.9669 120.455V120.065C21.9669 119.835 21.9419 119.61 21.8919 119.39C21.8419 119.16 21.7519 118.96 21.6219 118.79C21.4919 118.61 21.3119 118.47 21.0819 118.37C20.8619 118.26 20.5719 118.205 20.2119 118.205C19.7519 118.205 19.3469 118.24 18.9969 118.31C18.6569 118.37 18.4019 118.435 18.2319 118.505L18.0669 117.35C18.2469 117.27 18.5469 117.195 18.9669 117.125C19.3869 117.045 19.8419 117.005 20.3319 117.005ZM26.6538 117.2H29.6088V118.37H26.6538V121.97C26.6538 122.36 26.6838 122.685 26.7438 122.945C26.8038 123.195 26.8938 123.395 27.0138 123.545C27.1338 123.685 27.2838 123.785 27.4638 123.845C27.6438 123.905 27.8538 123.935 28.0938 123.935C28.5138 123.935 28.8488 123.89 29.0988 123.8C29.3588 123.7 29.5388 123.63 29.6388 123.59L29.9088 124.745C29.7688 124.815 29.5238 124.9 29.1738 125C28.8238 125.11 28.4238 125.165 27.9738 125.165C27.4438 125.165 27.0038 125.1 26.6538 124.97C26.3138 124.83 26.0388 124.625 25.8288 124.355C25.6188 124.085 25.4688 123.755 25.3788 123.365C25.2988 122.965 25.2588 122.505 25.2588 121.985V115.025L26.6538 114.785V117.2ZM31.084 125V113.6L32.479 113.36V117.35C32.739 117.25 33.014 117.175 33.304 117.125C33.604 117.065 33.899 117.035 34.189 117.035C34.809 117.035 35.324 117.125 35.734 117.305C36.144 117.475 36.469 117.72 36.709 118.04C36.959 118.35 37.134 118.725 37.234 119.165C37.334 119.605 37.384 120.09 37.384 120.62V125H35.989V120.92C35.989 120.44 35.954 120.03 35.884 119.69C35.824 119.35 35.719 119.075 35.569 118.865C35.419 118.655 35.219 118.505 34.969 118.415C34.719 118.315 34.409 118.265 34.039 118.265C33.889 118.265 33.734 118.275 33.574 118.295C33.414 118.315 33.259 118.34 33.109 118.37C32.969 118.39 32.839 118.415 32.719 118.445C32.609 118.475 32.529 118.5 32.479 118.52V125H31.084Z" fill="#2A2921"/>
</svg>
