<svg width="169" height="136" viewBox="0 0 169 136" fill="none" xmlns="http://www.w3.org/2000/svg">
<path d="M11 28C10.5467 27.24 10.04 26.4267 9.48 25.56C8.92 24.68 8.34 23.8 7.74 22.92C7.14 22.0267 6.52667 21.1667 5.9 20.34C5.28667 19.5 4.7 18.7467 4.14 18.08V28H1.66V14.14H3.72C4.25333 14.7 4.82667 15.3667 5.44 16.14C6.05333 16.9 6.66667 17.6933 7.28 18.52C7.90667 19.3467 8.50667 20.18 9.08 21.02C9.66667 21.8467 10.1867 22.62 10.64 23.34V14.14H13.14V28H11ZM24.5247 27.68C24.058 27.8 23.4514 27.92 22.7047 28.04C21.958 28.1733 21.138 28.24 20.2447 28.24C19.4047 28.24 18.698 28.12 18.1247 27.88C17.5647 27.64 17.1114 27.3067 16.7647 26.88C16.4314 26.4533 16.1914 25.9467 16.0447 25.36C15.898 24.76 15.8247 24.1067 15.8247 23.4V17.54H18.2447V23.02C18.2447 24.14 18.4047 24.94 18.7247 25.42C19.058 25.9 19.6314 26.14 20.4447 26.14C20.738 26.14 21.0447 26.1267 21.3647 26.1C21.698 26.0733 21.9447 26.04 22.1047 26V17.54H24.5247V27.68ZM33.1648 19.72C32.9648 19.6533 32.6848 19.5867 32.3248 19.52C31.9782 19.44 31.5715 19.4 31.1048 19.4C30.8382 19.4 30.5515 19.4267 30.2448 19.48C29.9515 19.5333 29.7448 19.58 29.6248 19.62V28H27.2048V18.04C27.6715 17.8667 28.2515 17.7067 28.9448 17.56C29.6515 17.4 30.4315 17.32 31.2848 17.32C31.4448 17.32 31.6315 17.3333 31.8448 17.36C32.0582 17.3733 32.2715 17.4 32.4848 17.44C32.6982 17.4667 32.9048 17.5067 33.1048 17.56C33.3048 17.6 33.4648 17.64 33.5848 17.68L33.1648 19.72ZM37.4912 26.26C38.1312 26.26 38.5979 26.1867 38.8912 26.04C39.1846 25.88 39.3312 25.6133 39.3312 25.24C39.3312 24.8933 39.1712 24.6067 38.8512 24.38C38.5446 24.1533 38.0312 23.9067 37.3112 23.64C36.8712 23.48 36.4646 23.3133 36.0912 23.14C35.7312 22.9533 35.4179 22.74 35.1512 22.5C34.8846 22.26 34.6712 21.9733 34.5112 21.64C34.3646 21.2933 34.2912 20.8733 34.2912 20.38C34.2912 19.42 34.6446 18.6667 35.3512 18.12C36.0579 17.56 37.0179 17.28 38.2312 17.28C38.8446 17.28 39.4312 17.34 39.9912 17.46C40.5512 17.5667 40.9712 17.6733 41.2512 17.78L40.8112 19.74C40.5446 19.62 40.2046 19.5133 39.7912 19.42C39.3779 19.3133 38.8979 19.26 38.3512 19.26C37.8579 19.26 37.4579 19.3467 37.1512 19.52C36.8446 19.68 36.6912 19.9333 36.6912 20.28C36.6912 20.4533 36.7179 20.6067 36.7712 20.74C36.8379 20.8733 36.9446 21 37.0912 21.12C37.2379 21.2267 37.4312 21.34 37.6712 21.46C37.9112 21.5667 38.2046 21.68 38.5512 21.8C39.1246 22.0133 39.6112 22.2267 40.0112 22.44C40.4112 22.64 40.7379 22.8733 40.9912 23.14C41.2579 23.3933 41.4512 23.6867 41.5712 24.02C41.6912 24.3533 41.7512 24.7533 41.7512 25.22C41.7512 26.22 41.3779 26.98 40.6312 27.5C39.8979 28.0067 38.8446 28.26 37.4712 28.26C36.5512 28.26 35.8112 28.18 35.2512 28.02C34.6912 27.8733 34.2979 27.7533 34.0712 27.66L34.4912 25.64C34.8512 25.7867 35.2779 25.9267 35.7712 26.06C36.2779 26.1933 36.8512 26.26 37.4912 26.26ZM43.0319 22.82C43.0319 21.9 43.1652 21.0933 43.4319 20.4C43.7119 19.7067 44.0785 19.1333 44.5319 18.68C44.9852 18.2133 45.5052 17.8667 46.0919 17.64C46.6785 17.4 47.2785 17.28 47.8919 17.28C49.3319 17.28 50.4519 17.7267 51.2519 18.62C52.0652 19.5133 52.4719 20.8467 52.4719 22.62C52.4719 22.7533 52.4652 22.9067 52.4519 23.08C52.4519 23.24 52.4452 23.3867 52.4319 23.52H45.5319C45.5985 24.36 45.8919 25.0133 46.4119 25.48C46.9452 25.9333 47.7119 26.16 48.7119 26.16C49.2985 26.16 49.8319 26.1067 50.3119 26C50.8052 25.8933 51.1919 25.78 51.4719 25.66L51.7919 27.64C51.6585 27.7067 51.4719 27.78 51.2319 27.86C51.0052 27.9267 50.7385 27.9867 50.4319 28.04C50.1385 28.1067 49.8185 28.16 49.4719 28.2C49.1252 28.24 48.7719 28.26 48.4119 28.26C47.4919 28.26 46.6919 28.1267 46.0119 27.86C45.3319 27.58 44.7719 27.2 44.3319 26.72C43.8919 26.2267 43.5652 25.6533 43.3519 25C43.1385 24.3333 43.0319 23.6067 43.0319 22.82ZM50.0519 21.74C50.0519 21.4067 50.0052 21.0933 49.9119 20.8C49.8185 20.4933 49.6785 20.2333 49.4919 20.02C49.3185 19.7933 49.0985 19.62 48.8319 19.5C48.5785 19.3667 48.2719 19.3 47.9119 19.3C47.5385 19.3 47.2119 19.3733 46.9319 19.52C46.6519 19.6533 46.4119 19.8333 46.2119 20.06C46.0252 20.2867 45.8785 20.5467 45.7719 20.84C45.6652 21.1333 45.5919 21.4333 45.5519 21.74H50.0519ZM60.5977 19.72C60.3977 19.6533 60.1177 19.5867 59.7577 19.52C59.411 19.44 59.0043 19.4 58.5377 19.4C58.271 19.4 57.9843 19.4267 57.6777 19.48C57.3843 19.5333 57.1777 19.58 57.0577 19.62V28H54.6377V18.04C55.1043 17.8667 55.6843 17.7067 56.3777 17.56C57.0843 17.4 57.8643 17.32 58.7177 17.32C58.8777 17.32 59.0643 17.3333 59.2777 17.36C59.491 17.3733 59.7043 17.4 59.9177 17.44C60.131 17.4667 60.3377 17.5067 60.5377 17.56C60.7377 17.6 60.8977 17.64 61.0177 17.68L60.5977 19.72ZM71.1956 17.54C70.1156 21.5133 68.8623 25.1133 67.4356 28.34C67.169 28.94 66.8956 29.4533 66.6156 29.88C66.3356 30.3067 66.0223 30.66 65.6756 30.94C65.329 31.22 64.9423 31.42 64.5156 31.54C64.089 31.6733 63.5956 31.74 63.0356 31.74C62.6623 31.74 62.289 31.7 61.9156 31.62C61.5556 31.54 61.2823 31.4533 61.0956 31.36L61.5356 29.42C62.0156 29.6067 62.489 29.7 62.9556 29.7C63.5823 29.7 64.069 29.5467 64.4156 29.24C64.7756 28.9467 65.089 28.4867 65.3556 27.86C64.5956 26.3933 63.8623 24.7933 63.1556 23.06C62.4623 21.3267 61.8423 19.4867 61.2956 17.54H63.8756C64.009 18.1 64.169 18.7067 64.3556 19.36C64.5556 20.0133 64.769 20.68 64.9956 21.36C65.2223 22.0267 65.4623 22.6933 65.7156 23.36C65.969 24.0267 66.2223 24.6467 66.4756 25.22C66.9023 24.0333 67.3023 22.7733 67.6756 21.44C68.049 20.0933 68.389 18.7933 68.6956 17.54H71.1956ZM80.8347 14C82.8347 14 84.3614 14.3667 85.4147 15.1C86.4814 15.8333 87.0147 16.9533 87.0147 18.46C87.0147 20.34 86.088 21.6133 84.2347 22.28C84.488 22.5867 84.7747 22.96 85.0947 23.4C85.4147 23.84 85.7414 24.32 86.0747 24.84C86.408 25.3467 86.728 25.8733 87.0347 26.42C87.3414 26.9533 87.6147 27.48 87.8547 28H85.0347C84.7814 27.52 84.508 27.04 84.2147 26.56C83.9214 26.0667 83.6214 25.5933 83.3147 25.14C83.0214 24.6733 82.728 24.24 82.4347 23.84C82.1414 23.4267 81.868 23.06 81.6147 22.74C81.428 22.7533 81.268 22.76 81.1347 22.76C81.0014 22.76 80.8747 22.76 80.7547 22.76H79.5347V28H77.0147V14.34C77.628 14.2067 78.2814 14.12 78.9747 14.08C79.668 14.0267 80.288 14 80.8347 14ZM81.0147 16.18C80.4814 16.18 79.988 16.2 79.5347 16.24V20.72H80.6347C81.248 20.72 81.788 20.6867 82.2547 20.62C82.7214 20.5533 83.108 20.4333 83.4147 20.26C83.7347 20.0867 83.9747 19.8533 84.1347 19.56C84.2947 19.2667 84.3747 18.8933 84.3747 18.44C84.3747 18.0133 84.2947 17.6533 84.1347 17.36C83.9747 17.0667 83.7414 16.8333 83.4347 16.66C83.1414 16.4867 82.788 16.3667 82.3747 16.3C81.9614 16.22 81.508 16.18 81.0147 16.18ZM89.2877 28V12.88L91.7077 12.48V17.66C91.9743 17.5667 92.281 17.4867 92.6277 17.42C92.9877 17.3533 93.341 17.32 93.6877 17.32C94.5277 17.32 95.221 17.44 95.7677 17.68C96.3277 17.9067 96.7743 18.2333 97.1077 18.66C97.441 19.0733 97.6743 19.5733 97.8077 20.16C97.9543 20.7467 98.0277 21.4 98.0277 22.12V28H95.6077V22.5C95.6077 21.94 95.5677 21.4667 95.4877 21.08C95.421 20.68 95.301 20.36 95.1277 20.12C94.9677 19.8667 94.7477 19.6867 94.4677 19.58C94.1877 19.46 93.841 19.4 93.4277 19.4C93.1077 19.4 92.781 19.4333 92.4477 19.5C92.1143 19.5667 91.8677 19.6267 91.7077 19.68V28H89.2877ZM108.775 17.54C107.695 21.5133 106.442 25.1133 105.015 28.34C104.749 28.94 104.475 29.4533 104.195 29.88C103.915 30.3067 103.602 30.66 103.255 30.94C102.909 31.22 102.522 31.42 102.095 31.54C101.669 31.6733 101.175 31.74 100.615 31.74C100.242 31.74 99.8686 31.7 99.4953 31.62C99.1353 31.54 98.862 31.4533 98.6753 31.36L99.1153 29.42C99.5953 29.6067 100.069 29.7 100.535 29.7C101.162 29.7 101.649 29.5467 101.995 29.24C102.355 28.9467 102.669 28.4867 102.935 27.86C102.175 26.3933 101.442 24.7933 100.735 23.06C100.042 21.3267 99.422 19.4867 98.8753 17.54H101.455C101.589 18.1 101.749 18.7067 101.935 19.36C102.135 20.0133 102.349 20.68 102.575 21.36C102.802 22.0267 103.042 22.6933 103.295 23.36C103.549 24.0267 103.802 24.6467 104.055 25.22C104.482 24.0333 104.882 22.7733 105.255 21.44C105.629 20.0933 105.969 18.7933 106.275 17.54H108.775ZM116.166 22.5C116.166 21.4067 116.026 20.62 115.746 20.14C115.48 19.6467 114.973 19.4 114.226 19.4C113.96 19.4 113.666 19.42 113.346 19.46C113.026 19.5 112.786 19.5333 112.626 19.56V28H110.206V17.88C110.673 17.7467 111.28 17.62 112.026 17.5C112.786 17.38 113.586 17.32 114.426 17.32C115.146 17.32 115.733 17.4133 116.186 17.6C116.653 17.7867 117.04 18.0333 117.346 18.34C117.493 18.2333 117.68 18.12 117.906 18C118.133 17.88 118.386 17.7733 118.666 17.68C118.946 17.5733 119.24 17.4867 119.546 17.42C119.866 17.3533 120.186 17.32 120.506 17.32C121.32 17.32 121.986 17.44 122.506 17.68C123.04 17.9067 123.453 18.2333 123.746 18.66C124.053 19.0733 124.26 19.58 124.366 20.18C124.486 20.7667 124.546 21.4133 124.546 22.12V28H122.126V22.5C122.126 21.4067 121.993 20.62 121.726 20.14C121.46 19.6467 120.946 19.4 120.186 19.4C119.8 19.4 119.433 19.4667 119.086 19.6C118.74 19.72 118.48 19.84 118.306 19.96C118.413 20.2933 118.486 20.6467 118.526 21.02C118.566 21.3933 118.586 21.7933 118.586 22.22V28H116.166V22.5ZM126.531 22.82C126.531 21.9 126.664 21.0933 126.931 20.4C127.211 19.7067 127.578 19.1333 128.031 18.68C128.484 18.2133 129.004 17.8667 129.591 17.64C130.178 17.4 130.778 17.28 131.391 17.28C132.831 17.28 133.951 17.7267 134.751 18.62C135.564 19.5133 135.971 20.8467 135.971 22.62C135.971 22.7533 135.964 22.9067 135.951 23.08C135.951 23.24 135.944 23.3867 135.931 23.52H129.031C129.098 24.36 129.391 25.0133 129.911 25.48C130.444 25.9333 131.211 26.16 132.211 26.16C132.798 26.16 133.331 26.1067 133.811 26C134.304 25.8933 134.691 25.78 134.971 25.66L135.291 27.64C135.158 27.7067 134.971 27.78 134.731 27.86C134.504 27.9267 134.238 27.9867 133.931 28.04C133.638 28.1067 133.318 28.16 132.971 28.2C132.624 28.24 132.271 28.26 131.911 28.26C130.991 28.26 130.191 28.1267 129.511 27.86C128.831 27.58 128.271 27.2 127.831 26.72C127.391 26.2267 127.064 25.6533 126.851 25C126.638 24.3333 126.531 23.6067 126.531 22.82ZM133.551 21.74C133.551 21.4067 133.504 21.0933 133.411 20.8C133.318 20.4933 133.178 20.2333 132.991 20.02C132.818 19.7933 132.598 19.62 132.331 19.5C132.078 19.3667 131.771 19.3 131.411 19.3C131.038 19.3 130.711 19.3733 130.431 19.52C130.151 19.6533 129.911 19.8333 129.711 20.06C129.524 20.2867 129.378 20.5467 129.271 20.84C129.164 21.1333 129.091 21.4333 129.051 21.74H133.551ZM140.757 26.26C141.397 26.26 141.864 26.1867 142.157 26.04C142.45 25.88 142.597 25.6133 142.597 25.24C142.597 24.8933 142.437 24.6067 142.117 24.38C141.81 24.1533 141.297 23.9067 140.577 23.64C140.137 23.48 139.73 23.3133 139.357 23.14C138.997 22.9533 138.684 22.74 138.417 22.5C138.15 22.26 137.937 21.9733 137.777 21.64C137.63 21.2933 137.557 20.8733 137.557 20.38C137.557 19.42 137.91 18.6667 138.617 18.12C139.324 17.56 140.284 17.28 141.497 17.28C142.11 17.28 142.697 17.34 143.257 17.46C143.817 17.5667 144.237 17.6733 144.517 17.78L144.077 19.74C143.81 19.62 143.47 19.5133 143.057 19.42C142.644 19.3133 142.164 19.26 141.617 19.26C141.124 19.26 140.724 19.3467 140.417 19.52C140.11 19.68 139.957 19.9333 139.957 20.28C139.957 20.4533 139.984 20.6067 140.037 20.74C140.104 20.8733 140.21 21 140.357 21.12C140.504 21.2267 140.697 21.34 140.937 21.46C141.177 21.5667 141.47 21.68 141.817 21.8C142.39 22.0133 142.877 22.2267 143.277 22.44C143.677 22.64 144.004 22.8733 144.257 23.14C144.524 23.3933 144.717 23.6867 144.837 24.02C144.957 24.3533 145.017 24.7533 145.017 25.22C145.017 26.22 144.644 26.98 143.897 27.5C143.164 28.0067 142.11 28.26 140.737 28.26C139.817 28.26 139.077 28.18 138.517 28.02C137.957 27.8733 137.564 27.7533 137.337 27.66L137.757 25.64C138.117 25.7867 138.544 25.9267 139.037 26.06C139.544 26.1933 140.117 26.26 140.757 26.26Z" fill="#2A2921"/>
<path d="M6.195 62.225C5.155 62.225 4.215 62 3.375 61.55C2.535 61.09 1.875 60.445 1.395 59.615C0.915 58.785 0.675 57.835 0.675 56.765C0.675 55.695 0.915 54.745 1.395 53.915C1.875 53.085 2.535 52.44 3.375 51.98C4.215 51.52 5.155 51.29 6.195 51.29C7.235 51.29 8.175 51.52 9.015 51.98C9.855 52.44 10.515 53.085 10.995 53.915C11.475 54.745 11.715 55.695 11.715 56.765C11.715 57.835 11.475 58.785 10.995 59.615C10.515 60.445 9.855 61.09 9.015 61.55C8.175 62 7.235 62.225 6.195 62.225ZM6.195 60.845C6.935 60.845 7.605 60.68 8.205 60.35C8.815 60.01 9.295 59.535 9.645 58.925C9.995 58.305 10.17 57.585 10.17 56.765C10.17 55.955 9.995 55.245 9.645 54.635C9.305 54.015 8.835 53.54 8.235 53.21C7.635 52.87 6.965 52.7 6.225 52.7C5.475 52.7 4.795 52.865 4.185 53.195C3.585 53.525 3.105 54 2.745 54.62C2.395 55.24 2.22 55.955 2.22 56.765C2.22 57.585 2.395 58.305 2.745 58.925C3.095 59.535 3.57 60.01 4.17 60.35C4.78 60.68 5.455 60.845 6.195 60.845ZM13.0676 54.8H14.5376V55.835C14.8776 55.405 15.2926 55.09 15.7826 54.89C16.2826 54.68 16.8026 54.575 17.3426 54.575C18.3026 54.575 19.0176 54.83 19.4876 55.34C19.9576 55.85 20.1926 56.535 20.1926 57.395V62H18.6776V57.545C18.6776 56.375 18.1176 55.79 16.9976 55.79C16.5176 55.79 16.0676 55.905 15.6476 56.135C15.2376 56.355 14.8826 56.695 14.5826 57.155V62H13.0676V54.8ZM25.7217 62.225C24.3917 62.225 23.3467 61.895 22.5867 61.235C21.8367 60.565 21.4617 59.625 21.4617 58.415C21.4617 57.235 21.7967 56.3 22.4667 55.61C23.1467 54.92 24.1117 54.575 25.3617 54.575C26.1917 54.575 26.8967 54.735 27.4767 55.055C28.0567 55.365 28.4917 55.8 28.7817 56.36C29.0817 56.91 29.2317 57.54 29.2317 58.25V59H22.9017C22.9517 59.68 23.2367 60.19 23.7567 60.53C24.2867 60.86 25.0017 61.025 25.9017 61.025C26.3617 61.025 26.8267 60.985 27.2967 60.905C27.7667 60.815 28.1817 60.7 28.5417 60.56V61.775C28.2217 61.905 27.7967 62.01 27.2667 62.09C26.7467 62.18 26.2317 62.225 25.7217 62.225ZM27.8067 57.935C27.7867 57.255 27.5617 56.73 27.1317 56.36C26.7117 55.98 26.1117 55.79 25.3317 55.79C24.5717 55.79 23.9817 55.985 23.5617 56.375C23.1417 56.765 22.9217 57.285 22.9017 57.935H27.8067ZM36.3345 55.97H35.2395V54.8H36.3345V53.39C36.3345 52.56 36.5695 51.93 37.0395 51.5C37.5095 51.06 38.1395 50.84 38.9295 50.84C39.3395 50.84 39.7245 50.9 40.0845 51.02V52.28C39.8045 52.15 39.5145 52.085 39.2145 52.085C38.7445 52.085 38.3995 52.2 38.1795 52.43C37.9595 52.65 37.8495 53 37.8495 53.48V54.8H39.6495V55.97H37.8495V62H36.3345V55.97ZM44.0952 62.225C43.2852 62.225 42.5702 62.075 41.9502 61.775C41.3402 61.465 40.8602 61.025 40.5102 60.455C40.1702 59.875 40.0002 59.195 40.0002 58.415C40.0002 57.645 40.1702 56.97 40.5102 56.39C40.8502 55.81 41.3302 55.365 41.9502 55.055C42.5702 54.735 43.2852 54.575 44.0952 54.575C44.9052 54.575 45.6202 54.735 46.2402 55.055C46.8602 55.365 47.3402 55.81 47.6802 56.39C48.0302 56.97 48.2052 57.645 48.2052 58.415C48.2052 59.195 48.0302 59.875 47.6802 60.455C47.3402 61.025 46.8602 61.465 46.2402 61.775C45.6202 62.075 44.9052 62.225 44.0952 62.225ZM44.0952 61.025C44.8752 61.025 45.4952 60.785 45.9552 60.305C46.4152 59.825 46.6452 59.195 46.6452 58.415C46.6452 57.605 46.4152 56.965 45.9552 56.495C45.4952 56.025 44.8752 55.79 44.0952 55.79C43.3152 55.79 42.6952 56.025 42.2352 56.495C41.7752 56.965 41.5452 57.605 41.5452 58.415C41.5452 59.195 41.7752 59.825 42.2352 60.305C42.6952 60.785 43.3152 61.025 44.0952 61.025ZM49.551 54.8H51.021V56.09C51.321 55.65 51.741 55.325 52.281 55.115C52.831 54.905 53.466 54.8 54.186 54.8V55.985C53.416 55.985 52.756 56.11 52.206 56.36C51.656 56.61 51.276 57.005 51.066 57.545V62H49.551V54.8ZM63.1489 62.225C62.6489 62.225 62.1189 62.16 61.5589 62.03C60.9989 61.91 60.5589 61.745 60.2389 61.535V60.245C60.6289 60.475 61.0789 60.665 61.5889 60.815C62.0989 60.955 62.5939 61.025 63.0739 61.025C63.6139 61.025 64.0089 60.96 64.2589 60.83C64.5089 60.7 64.6339 60.49 64.6339 60.2C64.6339 59.98 64.5739 59.805 64.4539 59.675C64.3439 59.535 64.1489 59.41 63.8689 59.3C63.5989 59.19 63.1889 59.06 62.6389 58.91C62.0489 58.74 61.5789 58.57 61.2289 58.4C60.8889 58.22 60.6289 57.995 60.4489 57.725C60.2789 57.455 60.1939 57.105 60.1939 56.675C60.1939 55.985 60.4639 55.465 61.0039 55.115C61.5539 54.755 62.2889 54.575 63.2089 54.575C63.6889 54.575 64.1589 54.62 64.6189 54.71C65.0789 54.8 65.4489 54.925 65.7289 55.085V56.345C65.4389 56.175 65.0789 56.04 64.6489 55.94C64.2289 55.84 63.7989 55.79 63.3589 55.79C62.8289 55.79 62.4239 55.855 62.1439 55.985C61.8639 56.115 61.7239 56.345 61.7239 56.675C61.7239 56.885 61.7839 57.055 61.9039 57.185C62.0239 57.315 62.2139 57.43 62.4739 57.53C62.7439 57.62 63.1689 57.74 63.7489 57.89C64.6589 58.14 65.2889 58.435 65.6389 58.775C65.9989 59.115 66.1789 59.585 66.1789 60.185C66.1789 60.805 65.9239 61.3 65.4139 61.67C64.9039 62.04 64.1489 62.225 63.1489 62.225ZM71.1081 62.225C70.2981 62.225 69.5831 62.075 68.9631 61.775C68.3531 61.465 67.8731 61.025 67.5231 60.455C67.1831 59.875 67.0131 59.195 67.0131 58.415C67.0131 57.645 67.1831 56.97 67.5231 56.39C67.8631 55.81 68.3431 55.365 68.9631 55.055C69.5831 54.735 70.2981 54.575 71.1081 54.575C71.9181 54.575 72.6331 54.735 73.2531 55.055C73.8731 55.365 74.3531 55.81 74.6931 56.39C75.0431 56.97 75.2181 57.645 75.2181 58.415C75.2181 59.195 75.0431 59.875 74.6931 60.455C74.3531 61.025 73.8731 61.465 73.2531 61.775C72.6331 62.075 71.9181 62.225 71.1081 62.225ZM71.1081 61.025C71.8881 61.025 72.5081 60.785 72.9681 60.305C73.4281 59.825 73.6581 59.195 73.6581 58.415C73.6581 57.605 73.4281 56.965 72.9681 56.495C72.5081 56.025 71.8881 55.79 71.1081 55.79C70.3281 55.79 69.7081 56.025 69.2481 56.495C68.7881 56.965 68.5581 57.605 68.5581 58.415C68.5581 59.195 68.7881 59.825 69.2481 60.305C69.7081 60.785 70.3281 61.025 71.1081 61.025ZM76.5639 54.8H78.0339V56.09C78.3339 55.65 78.7539 55.325 79.2939 55.115C79.8439 54.905 80.4789 54.8 81.1989 54.8V55.985C80.4289 55.985 79.7689 56.11 79.2189 56.36C78.6689 56.61 78.2889 57.005 78.0789 57.545V62H76.5639V54.8ZM82.1818 54.8H83.6518V56.09C83.9518 55.65 84.3718 55.325 84.9118 55.115C85.4618 54.905 86.0968 54.8 86.8168 54.8V55.985C86.0468 55.985 85.3868 56.11 84.8368 56.36C84.2868 56.61 83.9068 57.005 83.6968 57.545V62H82.1818V54.8ZM91.4483 62.225C90.6383 62.225 89.9233 62.075 89.3033 61.775C88.6933 61.465 88.2133 61.025 87.8633 60.455C87.5233 59.875 87.3533 59.195 87.3533 58.415C87.3533 57.645 87.5233 56.97 87.8633 56.39C88.2033 55.81 88.6833 55.365 89.3033 55.055C89.9233 54.735 90.6383 54.575 91.4483 54.575C92.2583 54.575 92.9733 54.735 93.5933 55.055C94.2133 55.365 94.6933 55.81 95.0333 56.39C95.3833 56.97 95.5583 57.645 95.5583 58.415C95.5583 59.195 95.3833 59.875 95.0333 60.455C94.6933 61.025 94.2133 61.465 93.5933 61.775C92.9733 62.075 92.2583 62.225 91.4483 62.225ZM91.4483 61.025C92.2283 61.025 92.8483 60.785 93.3083 60.305C93.7683 59.825 93.9983 59.195 93.9983 58.415C93.9983 57.605 93.7683 56.965 93.3083 56.495C92.8483 56.025 92.2283 55.79 91.4483 55.79C90.6683 55.79 90.0483 56.025 89.5883 56.495C89.1283 56.965 88.8983 57.605 88.8983 58.415C88.8983 59.195 89.1283 59.825 89.5883 60.305C90.0483 60.785 90.6683 61.025 91.4483 61.025ZM95.6227 54.8H97.1677L98.7877 60.14L100.393 54.8H101.758L103.363 60.14L104.983 54.8H106.543L104.203 62H102.748L101.083 56.63L99.4177 62H97.9477L95.6227 54.8ZM107.392 61.205H108.982L107.557 64.22H106.177L107.392 61.205ZM118.244 52.805H114.989V51.515H123.044V52.805H119.789V62H118.244V52.805ZM122.064 54.8H123.609L125.229 60.14L126.834 54.8H128.199L129.804 60.14L131.424 54.8H132.984L130.644 62H129.189L127.524 56.63L125.859 62H124.389L122.064 54.8ZM137.153 62.225C136.343 62.225 135.628 62.075 135.008 61.775C134.398 61.465 133.918 61.025 133.568 60.455C133.228 59.875 133.058 59.195 133.058 58.415C133.058 57.645 133.228 56.97 133.568 56.39C133.908 55.81 134.388 55.365 135.008 55.055C135.628 54.735 136.343 54.575 137.153 54.575C137.963 54.575 138.678 54.735 139.298 55.055C139.918 55.365 140.398 55.81 140.738 56.39C141.088 56.97 141.263 57.645 141.263 58.415C141.263 59.195 141.088 59.875 140.738 60.455C140.398 61.025 139.918 61.465 139.298 61.775C138.678 62.075 137.963 62.225 137.153 62.225ZM137.153 61.025C137.933 61.025 138.553 60.785 139.013 60.305C139.473 59.825 139.703 59.195 139.703 58.415C139.703 57.605 139.473 56.965 139.013 56.495C138.553 56.025 137.933 55.79 137.153 55.79C136.373 55.79 135.753 56.025 135.293 56.495C134.833 56.965 134.603 57.605 134.603 58.415C134.603 59.195 134.833 59.825 135.293 60.305C135.753 60.785 136.373 61.025 137.153 61.025ZM148.356 55.97H147.261V54.8H148.356V53.39C148.356 52.56 148.591 51.93 149.061 51.5C149.531 51.06 150.161 50.84 150.951 50.84C151.361 50.84 151.746 50.9 152.106 51.02V52.28C151.826 52.15 151.536 52.085 151.236 52.085C150.766 52.085 150.421 52.2 150.201 52.43C149.981 52.65 149.871 53 149.871 53.48V54.8H151.671V55.97H149.871V62H148.356V55.97ZM156.116 62.225C155.306 62.225 154.591 62.075 153.971 61.775C153.361 61.465 152.881 61.025 152.531 60.455C152.191 59.875 152.021 59.195 152.021 58.415C152.021 57.645 152.191 56.97 152.531 56.39C152.871 55.81 153.351 55.365 153.971 55.055C154.591 54.735 155.306 54.575 156.116 54.575C156.926 54.575 157.641 54.735 158.261 55.055C158.881 55.365 159.361 55.81 159.701 56.39C160.051 56.97 160.226 57.645 160.226 58.415C160.226 59.195 160.051 59.875 159.701 60.455C159.361 61.025 158.881 61.465 158.261 61.775C157.641 62.075 156.926 62.225 156.116 62.225ZM156.116 61.025C156.896 61.025 157.516 60.785 157.976 60.305C158.436 59.825 158.666 59.195 158.666 58.415C158.666 57.605 158.436 56.965 157.976 56.495C157.516 56.025 156.896 55.79 156.116 55.79C155.336 55.79 154.716 56.025 154.256 56.495C153.796 56.965 153.566 57.605 153.566 58.415C153.566 59.195 153.796 59.825 154.256 60.305C154.716 60.785 155.336 61.025 156.116 61.025ZM161.572 54.8H163.042V56.09C163.342 55.65 163.762 55.325 164.302 55.115C164.852 54.905 165.487 54.8 166.207 54.8V55.985C165.437 55.985 164.777 56.11 164.227 56.36C163.677 56.61 163.297 57.005 163.087 57.545V62H161.572V54.8ZM0.975 75.8H2.415V76.835C2.755 76.415 3.14 76.1 3.57 75.89C4 75.68 4.445 75.575 4.905 75.575C5.485 75.575 5.945 75.675 6.285 75.875C6.625 76.065 6.875 76.36 7.035 76.76C7.355 76.37 7.745 76.075 8.205 75.875C8.675 75.675 9.145 75.575 9.615 75.575C10.495 75.575 11.13 75.8 11.52 76.25C11.91 76.69 12.105 77.345 12.105 78.215V83H10.635V78.41C10.635 77.82 10.525 77.405 10.305 77.165C10.085 76.915 9.71 76.79 9.18 76.79C8.42 76.79 7.8 77.12 7.32 77.78C7.34 77.93 7.35 78.175 7.35 78.515V83H5.88V78.41C5.88 77.82 5.78 77.405 5.58 77.165C5.38 76.915 5.02 76.79 4.5 76.79C3.74 76.79 3.06 77.22 2.46 78.08V83H0.975V75.8ZM14.5678 74.39C14.3178 74.39 14.1078 74.305 13.9378 74.135C13.7678 73.965 13.6828 73.755 13.6828 73.505C13.6828 73.255 13.7678 73.045 13.9378 72.875C14.1078 72.705 14.3178 72.62 14.5678 72.62C14.8278 72.62 15.0428 72.705 15.2128 72.875C15.3928 73.045 15.4828 73.255 15.4828 73.505C15.4828 73.755 15.3928 73.965 15.2128 74.135C15.0428 74.305 14.8278 74.39 14.5678 74.39ZM13.8028 75.8H15.3478V83H13.8028V75.8ZM17.1328 75.8H18.6028V77.09C18.9028 76.65 19.3228 76.325 19.8628 76.115C20.4128 75.905 21.0478 75.8 21.7678 75.8V76.985C20.9978 76.985 20.3378 77.11 19.7878 77.36C19.2378 77.61 18.8578 78.005 18.6478 78.545V83H17.1328V75.8ZM25.599 83.225C24.869 83.225 24.304 83.015 23.904 82.595C23.514 82.175 23.319 81.58 23.319 80.81V76.97H22.224V75.8H23.319V73.64H24.849V75.8H26.619V76.97H24.849V80.705C24.849 81.185 24.939 81.525 25.119 81.725C25.309 81.925 25.649 82.025 26.139 82.025C26.429 82.025 26.719 81.96 27.009 81.83V83.03C26.629 83.16 26.159 83.225 25.599 83.225ZM28.1344 71.915H29.6494V76.79C30.3394 75.98 31.2594 75.575 32.4094 75.575C33.3694 75.575 34.0844 75.83 34.5544 76.34C35.0244 76.85 35.2594 77.535 35.2594 78.395V83H33.7444V78.545C33.7444 77.375 33.1844 76.79 32.0644 76.79C31.5844 76.79 31.1344 76.905 30.7144 77.135C30.3044 77.355 29.9494 77.695 29.6494 78.155V83H28.1344V71.915ZM37.7435 82.205H39.3335L37.9085 85.22H36.5285L37.7435 82.205ZM48.5954 73.805H45.3404V72.515H53.3954V73.805H50.1404V83H48.5954V73.805ZM54.4441 71.915H55.9591V76.79C56.6491 75.98 57.5691 75.575 58.7191 75.575C59.6791 75.575 60.3941 75.83 60.8641 76.34C61.3341 76.85 61.5691 77.535 61.5691 78.395V83H60.0541V78.545C60.0541 77.375 59.4941 76.79 58.3741 76.79C57.8941 76.79 57.4441 76.905 57.0241 77.135C56.6141 77.355 56.2591 77.695 55.9591 78.155V83H54.4441V71.915ZM63.1383 75.8H64.6083V77.09C64.9083 76.65 65.3283 76.325 65.8683 76.115C66.4183 75.905 67.0533 75.8 67.7733 75.8V76.985C67.0033 76.985 66.3433 77.11 65.7933 77.36C65.2433 77.61 64.8633 78.005 64.6533 78.545V83H63.1383V75.8ZM72.3354 83.225C71.0054 83.225 69.9604 82.895 69.2004 82.235C68.4504 81.565 68.0754 80.625 68.0754 79.415C68.0754 78.235 68.4104 77.3 69.0804 76.61C69.7604 75.92 70.7254 75.575 71.9754 75.575C72.8054 75.575 73.5104 75.735 74.0904 76.055C74.6704 76.365 75.1054 76.8 75.3954 77.36C75.6954 77.91 75.8454 78.54 75.8454 79.25V80H69.5154C69.5654 80.68 69.8504 81.19 70.3704 81.53C70.9004 81.86 71.6154 82.025 72.5154 82.025C72.9754 82.025 73.4404 81.985 73.9104 81.905C74.3804 81.815 74.7954 81.7 75.1554 81.56V82.775C74.8354 82.905 74.4104 83.01 73.8804 83.09C73.3604 83.18 72.8454 83.225 72.3354 83.225ZM74.4204 78.935C74.4004 78.255 74.1754 77.73 73.7454 77.36C73.3254 76.98 72.7254 76.79 71.9454 76.79C71.1854 76.79 70.5954 76.985 70.1754 77.375C69.7554 77.765 69.5354 78.285 69.5154 78.935H74.4204ZM81.1614 83.225C79.8314 83.225 78.7864 82.895 78.0264 82.235C77.2764 81.565 76.9014 80.625 76.9014 79.415C76.9014 78.235 77.2364 77.3 77.9064 76.61C78.5864 75.92 79.5514 75.575 80.8014 75.575C81.6314 75.575 82.3364 75.735 82.9164 76.055C83.4964 76.365 83.9314 76.8 84.2214 77.36C84.5214 77.91 84.6714 78.54 84.6714 79.25V80H78.3414C78.3914 80.68 78.6764 81.19 79.1964 81.53C79.7264 81.86 80.4414 82.025 81.3414 82.025C81.8014 82.025 82.2664 81.985 82.7364 81.905C83.2064 81.815 83.6214 81.7 83.9814 81.56V82.775C83.6614 82.905 83.2364 83.01 82.7064 83.09C82.1864 83.18 81.6714 83.225 81.1614 83.225ZM83.2464 78.935C83.2264 78.255 83.0014 77.73 82.5714 77.36C82.1514 76.98 81.5514 76.79 80.7714 76.79C80.0114 76.79 79.4214 76.985 79.0014 77.375C78.5814 77.765 78.3614 78.285 78.3414 78.935H83.2464ZM91.7741 76.97H90.6791V75.8H91.7741V74.39C91.7741 73.56 92.0091 72.93 92.4791 72.5C92.9491 72.06 93.5791 71.84 94.3691 71.84C94.7791 71.84 95.1641 71.9 95.5241 72.02V73.28C95.2441 73.15 94.9541 73.085 94.6541 73.085C94.1841 73.085 93.8391 73.2 93.6191 73.43C93.3991 73.65 93.2891 74 93.2891 74.48V75.8H95.0891V76.97H93.2891V83H91.7741V76.97ZM99.5348 83.225C98.7248 83.225 98.0098 83.075 97.3898 82.775C96.7798 82.465 96.2998 82.025 95.9498 81.455C95.6098 80.875 95.4398 80.195 95.4398 79.415C95.4398 78.645 95.6098 77.97 95.9498 77.39C96.2898 76.81 96.7698 76.365 97.3898 76.055C98.0098 75.735 98.7248 75.575 99.5348 75.575C100.345 75.575 101.06 75.735 101.68 76.055C102.3 76.365 102.78 76.81 103.12 77.39C103.47 77.97 103.645 78.645 103.645 79.415C103.645 80.195 103.47 80.875 103.12 81.455C102.78 82.025 102.3 82.465 101.68 82.775C101.06 83.075 100.345 83.225 99.5348 83.225ZM99.5348 82.025C100.315 82.025 100.935 81.785 101.395 81.305C101.855 80.825 102.085 80.195 102.085 79.415C102.085 78.605 101.855 77.965 101.395 77.495C100.935 77.025 100.315 76.79 99.5348 76.79C98.7548 76.79 98.1348 77.025 97.6748 77.495C97.2148 77.965 96.9848 78.605 96.9848 79.415C96.9848 80.195 97.2148 80.825 97.6748 81.305C98.1348 81.785 98.7548 82.025 99.5348 82.025ZM104.991 75.8H106.461V77.09C106.761 76.65 107.181 76.325 107.721 76.115C108.271 75.905 108.906 75.8 109.626 75.8V76.985C108.856 76.985 108.196 77.11 107.646 77.36C107.096 77.61 106.716 78.005 106.506 78.545V83H104.991V75.8ZM118.514 83.225C117.644 83.225 116.944 83.005 116.414 82.565C115.894 82.115 115.634 81.51 115.634 80.75C115.634 79.95 115.884 79.335 116.384 78.905C116.894 78.465 117.614 78.245 118.544 78.245C119.534 78.245 120.374 78.445 121.064 78.845V78.47C121.064 77.9 120.889 77.48 120.539 77.21C120.199 76.93 119.659 76.79 118.919 76.79C118.479 76.79 118.049 76.835 117.629 76.925C117.219 77.005 116.849 77.12 116.519 77.27V76.04C116.819 75.9 117.209 75.79 117.689 75.71C118.169 75.62 118.634 75.575 119.084 75.575C120.274 75.575 121.154 75.84 121.724 76.37C122.304 76.89 122.594 77.615 122.594 78.545V83H121.169V82.19C120.859 82.53 120.489 82.79 120.059 82.97C119.639 83.14 119.124 83.225 118.514 83.225ZM118.889 82.07C119.369 82.07 119.804 81.975 120.194 81.785C120.584 81.595 120.874 81.33 121.064 80.99V80.015C120.414 79.595 119.689 79.385 118.889 79.385C118.309 79.385 117.874 79.5 117.584 79.73C117.304 79.95 117.164 80.29 117.164 80.75C117.164 81.63 117.739 82.07 118.889 82.07ZM0.675 96.8H2.22L3.84 102.14L5.445 96.8H6.81L8.415 102.14L10.035 96.8H11.595L9.255 104H7.8L6.135 98.63L4.47 104H3L0.675 96.8ZM16.4563 104.225C15.1263 104.225 14.0813 103.895 13.3213 103.235C12.5713 102.565 12.1963 101.625 12.1963 100.415C12.1963 99.235 12.5313 98.3 13.2013 97.61C13.8813 96.92 14.8463 96.575 16.0963 96.575C16.9263 96.575 17.6313 96.735 18.2113 97.055C18.7913 97.365 19.2263 97.8 19.5163 98.36C19.8163 98.91 19.9663 99.54 19.9663 100.25V101H13.6363C13.6863 101.68 13.9713 102.19 14.4913 102.53C15.0213 102.86 15.7363 103.025 16.6363 103.025C17.0963 103.025 17.5613 102.985 18.0313 102.905C18.5013 102.815 18.9163 102.7 19.2763 102.56V103.775C18.9563 103.905 18.5313 104.01 18.0013 104.09C17.4813 104.18 16.9663 104.225 16.4563 104.225ZM18.5413 99.935C18.5213 99.255 18.2963 98.73 17.8663 98.36C17.4463 97.98 16.8463 97.79 16.0663 97.79C15.3063 97.79 14.7163 97.985 14.2963 98.375C13.8763 98.765 13.6563 99.285 13.6363 99.935H18.5413ZM24.8023 104.225C24.0823 104.225 23.4323 104.07 22.8523 103.76C22.2823 103.44 21.8323 102.995 21.5023 102.425C21.1823 101.845 21.0223 101.175 21.0223 100.415C21.0223 99.665 21.1823 99 21.5023 98.42C21.8323 97.84 22.2823 97.39 22.8523 97.07C23.4323 96.74 24.0823 96.575 24.8023 96.575C26.1023 96.575 27.0873 96.97 27.7573 97.76V92.915H29.2723V104H27.8023V102.95C27.4023 103.39 26.9623 103.715 26.4823 103.925C26.0123 104.125 25.4523 104.225 24.8023 104.225ZM25.1473 103.025C25.7673 103.025 26.3073 102.865 26.7673 102.545C27.2373 102.215 27.5673 101.775 27.7573 101.225V99.605C27.5873 99.055 27.2623 98.615 26.7823 98.285C26.3123 97.955 25.7673 97.79 25.1473 97.79C24.6573 97.79 24.2123 97.9 23.8123 98.12C23.4223 98.34 23.1123 98.65 22.8823 99.05C22.6623 99.45 22.5523 99.905 22.5523 100.415C22.5523 100.925 22.6623 101.38 22.8823 101.78C23.1123 102.18 23.4223 102.49 23.8123 102.71C24.2123 102.92 24.6573 103.025 25.1473 103.025ZM34.1849 104.225C33.4649 104.225 32.8149 104.07 32.2349 103.76C31.6649 103.44 31.2149 102.995 30.8849 102.425C30.5649 101.845 30.4049 101.175 30.4049 100.415C30.4049 99.665 30.5649 99 30.8849 98.42C31.2149 97.84 31.6649 97.39 32.2349 97.07C32.8149 96.74 33.4649 96.575 34.1849 96.575C35.4849 96.575 36.4699 96.97 37.1399 97.76V92.915H38.6549V104H37.1849V102.95C36.7849 103.39 36.3449 103.715 35.8649 103.925C35.3949 104.125 34.8349 104.225 34.1849 104.225ZM34.5299 103.025C35.1499 103.025 35.6899 102.865 36.1499 102.545C36.6199 102.215 36.9499 101.775 37.1399 101.225V99.605C36.9699 99.055 36.6449 98.615 36.1649 98.285C35.6949 97.955 35.1499 97.79 34.5299 97.79C34.0399 97.79 33.5949 97.9 33.1949 98.12C32.8049 98.34 32.4949 98.65 32.2649 99.05C32.0449 99.45 31.9349 99.905 31.9349 100.415C31.9349 100.925 32.0449 101.38 32.2649 101.78C32.4949 102.18 32.8049 102.49 33.1949 102.71C33.5949 102.92 34.0399 103.025 34.5299 103.025ZM41.1922 95.39C40.9422 95.39 40.7322 95.305 40.5622 95.135C40.3922 94.965 40.3072 94.755 40.3072 94.505C40.3072 94.255 40.3922 94.045 40.5622 93.875C40.7322 93.705 40.9422 93.62 41.1922 93.62C41.4522 93.62 41.6672 93.705 41.8372 93.875C42.0172 94.045 42.1072 94.255 42.1072 94.505C42.1072 94.755 42.0172 94.965 41.8372 95.135C41.6672 95.305 41.4522 95.39 41.1922 95.39ZM40.4272 96.8H41.9722V104H40.4272V96.8ZM43.7572 96.8H45.2272V97.835C45.5672 97.405 45.9822 97.09 46.4722 96.89C46.9722 96.68 47.4922 96.575 48.0322 96.575C48.9922 96.575 49.7072 96.83 50.1772 97.34C50.6472 97.85 50.8822 98.535 50.8822 99.395V104H49.3672V99.545C49.3672 98.375 48.8072 97.79 47.6872 97.79C47.2072 97.79 46.7572 97.905 46.3372 98.135C45.9272 98.355 45.5722 98.695 45.2722 99.155V104H43.7572V96.8ZM56.2164 107.45C55.7264 107.45 55.2464 107.41 54.7764 107.33C54.3164 107.25 53.9264 107.135 53.6064 106.985V105.74C54.3564 106.08 55.2264 106.25 56.2164 106.25C57.1464 106.25 57.8214 106.045 58.2414 105.635C58.6714 105.235 58.8864 104.625 58.8864 103.805V103.04C58.2264 103.83 57.2564 104.225 55.9764 104.225C55.2464 104.225 54.5914 104.065 54.0114 103.745C53.4314 103.425 52.9764 102.975 52.6464 102.395C52.3164 101.815 52.1514 101.15 52.1514 100.4C52.1514 99.64 52.3114 98.975 52.6314 98.405C52.9614 97.825 53.4114 97.375 53.9814 97.055C54.5614 96.735 55.2114 96.575 55.9314 96.575C56.6014 96.575 57.1664 96.675 57.6264 96.875C58.0964 97.065 58.5314 97.385 58.9314 97.835V96.8H60.4014V103.64C60.4014 104.87 60.0564 105.81 59.3664 106.46C58.6864 107.12 57.6364 107.45 56.2164 107.45ZM56.2764 103.025C56.8964 103.025 57.4414 102.86 57.9114 102.53C58.3914 102.2 58.7164 101.76 58.8864 101.21V99.59C58.6964 99.03 58.3664 98.59 57.8964 98.27C57.4364 97.95 56.8964 97.79 56.2764 97.79C55.7864 97.79 55.3414 97.9 54.9414 98.12C54.5514 98.33 54.2414 98.635 54.0114 99.035C53.7914 99.435 53.6814 99.89 53.6814 100.4C53.6814 100.92 53.7914 101.38 54.0114 101.78C54.2414 102.17 54.5514 102.475 54.9414 102.695C55.3414 102.915 55.7864 103.025 56.2764 103.025ZM62.9687 103.205H64.5587L63.1337 106.22H61.7537L62.9687 103.205ZM75.0506 93.515H76.5206L80.7056 104H79.1456L78.0956 101.39H73.4606L72.4406 104H70.8656L75.0506 93.515ZM77.6756 100.115L75.7856 95.21L73.8956 100.115H77.6756ZM82.057 96.8H83.527V97.835C83.867 97.405 84.282 97.09 84.772 96.89C85.272 96.68 85.792 96.575 86.332 96.575C87.292 96.575 88.007 96.83 88.477 97.34C88.947 97.85 89.182 98.535 89.182 99.395V104H87.667V99.545C87.667 98.375 87.107 97.79 85.987 97.79C85.507 97.79 85.057 97.905 84.637 98.135C84.227 98.355 83.872 98.695 83.572 99.155V104H82.057V96.8ZM94.2312 104.225C93.5112 104.225 92.8612 104.07 92.2812 103.76C91.7112 103.44 91.2612 102.995 90.9312 102.425C90.6112 101.845 90.4512 101.175 90.4512 100.415C90.4512 99.665 90.6112 99 90.9312 98.42C91.2612 97.84 91.7112 97.39 92.2812 97.07C92.8612 96.74 93.5112 96.575 94.2312 96.575C95.5312 96.575 96.5162 96.97 97.1862 97.76V92.915H98.7012V104H97.2312V102.95C96.8312 103.39 96.3912 103.715 95.9112 103.925C95.4412 104.125 94.8812 104.225 94.2312 104.225ZM94.5762 103.025C95.1962 103.025 95.7362 102.865 96.1962 102.545C96.6662 102.215 96.9962 101.775 97.1862 101.225V99.605C97.0162 99.055 96.6912 98.615 96.2112 98.285C95.7412 97.955 95.1962 97.79 94.5762 97.79C94.0862 97.79 93.6412 97.9 93.2412 98.12C92.8512 98.34 92.5412 98.65 92.3112 99.05C92.0912 99.45 91.9812 99.905 91.9812 100.415C91.9812 100.925 92.0912 101.38 92.3112 101.78C92.5412 102.18 92.8512 102.49 93.2412 102.71C93.6412 102.92 94.0862 103.025 94.5762 103.025ZM106.1 97.97H105.005V96.8H106.1V95.39C106.1 94.56 106.335 93.93 106.805 93.5C107.275 93.06 107.905 92.84 108.695 92.84C109.105 92.84 109.49 92.9 109.85 93.02V94.28C109.57 94.15 109.28 94.085 108.98 94.085C108.51 94.085 108.165 94.2 107.945 94.43C107.725 94.65 107.615 95 107.615 95.48V96.8H109.415V97.97H107.615V104H106.1V97.97ZM113.861 104.225C113.051 104.225 112.336 104.075 111.716 103.775C111.106 103.465 110.626 103.025 110.276 102.455C109.936 101.875 109.766 101.195 109.766 100.415C109.766 99.645 109.936 98.97 110.276 98.39C110.616 97.81 111.096 97.365 111.716 97.055C112.336 96.735 113.051 96.575 113.861 96.575C114.671 96.575 115.386 96.735 116.006 97.055C116.626 97.365 117.106 97.81 117.446 98.39C117.796 98.97 117.971 99.645 117.971 100.415C117.971 101.195 117.796 101.875 117.446 102.455C117.106 103.025 116.626 103.465 116.006 103.775C115.386 104.075 114.671 104.225 113.861 104.225ZM113.861 103.025C114.641 103.025 115.261 102.785 115.721 102.305C116.181 101.825 116.411 101.195 116.411 100.415C116.411 99.605 116.181 98.965 115.721 98.495C115.261 98.025 114.641 97.79 113.861 97.79C113.081 97.79 112.461 98.025 112.001 98.495C111.541 98.965 111.311 99.605 111.311 100.415C111.311 101.195 111.541 101.825 112.001 102.305C112.461 102.785 113.081 103.025 113.861 103.025ZM122.182 104.225C121.212 104.225 120.477 103.965 119.977 103.445C119.487 102.925 119.242 102.23 119.242 101.36V96.8H120.757V101.3C120.757 102.45 121.332 103.025 122.482 103.025C123.492 103.025 124.282 102.57 124.852 101.66V96.8H126.367V104H124.897V102.98C124.557 103.41 124.152 103.725 123.682 103.925C123.222 104.125 122.722 104.225 122.182 104.225ZM128.011 96.8H129.481V98.09C129.781 97.65 130.201 97.325 130.741 97.115C131.291 96.905 131.926 96.8 132.646 96.8V97.985C131.876 97.985 131.216 98.11 130.666 98.36C130.116 98.61 129.736 99.005 129.526 99.545V104H128.011V96.8ZM139.449 97.97H138.354V96.8H139.449V95.39C139.449 94.56 139.684 93.93 140.154 93.5C140.624 93.06 141.254 92.84 142.044 92.84C142.454 92.84 142.839 92.9 143.199 93.02V94.28C142.919 94.15 142.629 94.085 142.329 94.085C141.859 94.085 141.514 94.2 141.294 94.43C141.074 94.65 140.964 95 140.964 95.48V96.8H142.764V97.97H140.964V104H139.449V97.97ZM147.21 104.225C146.4 104.225 145.685 104.075 145.065 103.775C144.455 103.465 143.975 103.025 143.625 102.455C143.285 101.875 143.115 101.195 143.115 100.415C143.115 99.645 143.285 98.97 143.625 98.39C143.965 97.81 144.445 97.365 145.065 97.055C145.685 96.735 146.4 96.575 147.21 96.575C148.02 96.575 148.735 96.735 149.355 97.055C149.975 97.365 150.455 97.81 150.795 98.39C151.145 98.97 151.32 99.645 151.32 100.415C151.32 101.195 151.145 101.875 150.795 102.455C150.455 103.025 149.975 103.465 149.355 103.775C148.735 104.075 148.02 104.225 147.21 104.225ZM147.21 103.025C147.99 103.025 148.61 102.785 149.07 102.305C149.53 101.825 149.76 101.195 149.76 100.415C149.76 99.605 149.53 98.965 149.07 98.495C148.61 98.025 147.99 97.79 147.21 97.79C146.43 97.79 145.81 98.025 145.35 98.495C144.89 98.965 144.66 99.605 144.66 100.415C144.66 101.195 144.89 101.825 145.35 102.305C145.81 102.785 146.43 103.025 147.21 103.025ZM152.665 96.8H154.135V98.09C154.435 97.65 154.855 97.325 155.395 97.115C155.945 96.905 156.58 96.8 157.3 96.8V97.985C156.53 97.985 155.87 98.11 155.32 98.36C154.77 98.61 154.39 99.005 154.18 99.545V104H152.665V96.8ZM4.455 125.225C3.735 125.225 3.085 125.07 2.505 124.76C1.935 124.44 1.485 123.995 1.155 123.425C0.835 122.845 0.675 122.175 0.675 121.415C0.675 120.665 0.835 120 1.155 119.42C1.485 118.84 1.935 118.39 2.505 118.07C3.085 117.74 3.735 117.575 4.455 117.575C5.755 117.575 6.74 117.97 7.41 118.76V113.915H8.925V125H7.455V123.95C7.055 124.39 6.615 124.715 6.135 124.925C5.665 125.125 5.105 125.225 4.455 125.225ZM4.8 124.025C5.42 124.025 5.96 123.865 6.42 123.545C6.89 123.215 7.22 122.775 7.41 122.225V120.605C7.24 120.055 6.915 119.615 6.435 119.285C5.965 118.955 5.42 118.79 4.8 118.79C4.31 118.79 3.865 118.9 3.465 119.12C3.075 119.34 2.765 119.65 2.535 120.05C2.315 120.45 2.205 120.905 2.205 121.415C2.205 121.925 2.315 122.38 2.535 122.78C2.765 123.18 3.075 123.49 3.465 123.71C3.865 123.92 4.31 124.025 4.8 124.025ZM14.5373 125.225C13.2073 125.225 12.1623 124.895 11.4023 124.235C10.6523 123.565 10.2773 122.625 10.2773 121.415C10.2773 120.235 10.6123 119.3 11.2823 118.61C11.9623 117.92 12.9273 117.575 14.1773 117.575C15.0073 117.575 15.7123 117.735 16.2923 118.055C16.8723 118.365 17.3073 118.8 17.5973 119.36C17.8973 119.91 18.0473 120.54 18.0473 121.25V122H11.7173C11.7673 122.68 12.0523 123.19 12.5723 123.53C13.1023 123.86 13.8173 124.025 14.7173 124.025C15.1773 124.025 15.6423 123.985 16.1123 123.905C16.5823 123.815 16.9973 123.7 17.3573 123.56V124.775C17.0373 124.905 16.6123 125.01 16.0823 125.09C15.5623 125.18 15.0473 125.225 14.5373 125.225ZM16.6223 120.935C16.6023 120.255 16.3773 119.73 15.9473 119.36C15.5273 118.98 14.9273 118.79 14.1473 118.79C13.3873 118.79 12.7973 118.985 12.3773 119.375C11.9573 119.765 11.7373 120.285 11.7173 120.935H16.6223ZM21.9833 125.225C21.1133 125.225 20.4133 125.005 19.8833 124.565C19.3633 124.115 19.1033 123.51 19.1033 122.75C19.1033 121.95 19.3533 121.335 19.8533 120.905C20.3633 120.465 21.0833 120.245 22.0133 120.245C23.0033 120.245 23.8433 120.445 24.5333 120.845V120.47C24.5333 119.9 24.3583 119.48 24.0083 119.21C23.6683 118.93 23.1283 118.79 22.3883 118.79C21.9483 118.79 21.5183 118.835 21.0983 118.925C20.6883 119.005 20.3183 119.12 19.9883 119.27V118.04C20.2883 117.9 20.6783 117.79 21.1583 117.71C21.6383 117.62 22.1033 117.575 22.5533 117.575C23.7433 117.575 24.6233 117.84 25.1933 118.37C25.7733 118.89 26.0633 119.615 26.0633 120.545V125H24.6383V124.19C24.3283 124.53 23.9583 124.79 23.5283 124.97C23.1083 125.14 22.5933 125.225 21.9833 125.225ZM22.3583 124.07C22.8383 124.07 23.2733 123.975 23.6633 123.785C24.0533 123.595 24.3433 123.33 24.5333 122.99V122.015C23.8833 121.595 23.1583 121.385 22.3583 121.385C21.7783 121.385 21.3433 121.5 21.0533 121.73C20.7733 121.95 20.6333 122.29 20.6333 122.75C20.6333 123.63 21.2083 124.07 22.3583 124.07ZM30.0375 125.225C29.3075 125.225 28.7425 125.015 28.3425 124.595C27.9525 124.175 27.7575 123.58 27.7575 122.81V118.97H26.6625V117.8H27.7575V115.64H29.2875V117.8H31.0575V118.97H29.2875V122.705C29.2875 123.185 29.3775 123.525 29.5575 123.725C29.7475 123.925 30.0875 124.025 30.5775 124.025C30.8675 124.025 31.1575 123.96 31.4475 123.83V125.03C31.0675 125.16 30.5975 125.225 30.0375 125.225ZM32.5729 113.915H34.0879V118.79C34.7779 117.98 35.6979 117.575 36.8479 117.575C37.8079 117.575 38.5229 117.83 38.9929 118.34C39.4629 118.85 39.6979 119.535 39.6979 120.395V125H38.1829V120.545C38.1829 119.375 37.6229 118.79 36.5029 118.79C36.0229 118.79 35.5729 118.905 35.1529 119.135C34.7429 119.355 34.3879 119.695 34.0879 120.155V125H32.5729V113.915Z" fill="#2A2921"/>
</svg>
