<svg width="170" height="136" viewBox="0 0 170 136" fill="none" xmlns="http://www.w3.org/2000/svg">
<path d="M12.22 38C11.9267 37.5067 11.5867 36.9533 11.2 36.34C10.8267 35.7267 10.42 35.0933 9.98 34.44C9.54 33.7733 9.08 33.1 8.6 32.42C8.13333 31.74 7.66667 31.0867 7.2 30.46C6.73333 29.82 6.28 29.22 5.84 28.66C5.4 28.1 4.99333 27.6067 4.62 27.18V38H2.72V24.14H4.26C4.88667 24.8067 5.55333 25.5867 6.26 26.48C6.98 27.36 7.68667 28.2733 8.38 29.22C9.08667 30.1533 9.74667 31.0733 10.36 31.98C10.9867 32.8867 11.5133 33.6933 11.94 34.4V24.14H13.84V38H12.22ZM25.0308 37.7C24.6041 37.8067 24.0374 37.92 23.3308 38.04C22.6374 38.16 21.8308 38.22 20.9108 38.22C20.1108 38.22 19.4374 38.1067 18.8908 37.88C18.3441 37.64 17.9041 37.3067 17.5708 36.88C17.2374 36.4533 16.9974 35.9533 16.8508 35.38C16.7041 34.7933 16.6308 34.1467 16.6308 33.44V27.6H18.4908V33.04C18.4908 34.3067 18.6908 35.2133 19.0908 35.76C19.4908 36.3067 20.1641 36.58 21.1108 36.58C21.3108 36.58 21.5174 36.5733 21.7308 36.56C21.9441 36.5467 22.1441 36.5333 22.3308 36.52C22.5174 36.4933 22.6841 36.4733 22.8308 36.46C22.9908 36.4333 23.1041 36.4067 23.1708 36.38V27.6H25.0308V37.7ZM31.6752 27.38C31.8352 27.38 32.0152 27.3933 32.2152 27.42C32.4285 27.4333 32.6352 27.46 32.8352 27.5C33.0352 27.5267 33.2152 27.56 33.3752 27.6C33.5485 27.6267 33.6752 27.6533 33.7552 27.68L33.4352 29.3C33.2885 29.2467 33.0418 29.1867 32.6952 29.12C32.3618 29.04 31.9285 29 31.3952 29C31.0485 29 30.7018 29.04 30.3552 29.12C30.0218 29.1867 29.8018 29.2333 29.6952 29.26V38H27.8352V28.04C28.2752 27.88 28.8218 27.7333 29.4752 27.6C30.1285 27.4533 30.8618 27.38 31.6752 27.38ZM37.57 36.66C38.33 36.66 38.89 36.56 39.25 36.36C39.6233 36.16 39.81 35.84 39.81 35.4C39.81 34.9467 39.63 34.5867 39.27 34.32C38.91 34.0533 38.3167 33.7533 37.49 33.42C37.09 33.26 36.7033 33.1 36.33 32.94C35.97 32.7667 35.6567 32.5667 35.39 32.34C35.1233 32.1133 34.91 31.84 34.75 31.52C34.59 31.2 34.51 30.8067 34.51 30.34C34.51 29.42 34.85 28.6933 35.53 28.16C36.21 27.6133 37.1367 27.34 38.31 27.34C38.6033 27.34 38.8967 27.36 39.19 27.4C39.4833 27.4267 39.7567 27.4667 40.01 27.52C40.2633 27.56 40.4833 27.6067 40.67 27.66C40.87 27.7133 41.0233 27.76 41.13 27.8L40.79 29.4C40.59 29.2933 40.2767 29.1867 39.85 29.08C39.4233 28.96 38.91 28.9 38.31 28.9C37.79 28.9 37.3367 29.0067 36.95 29.22C36.5633 29.42 36.37 29.74 36.37 30.18C36.37 30.4067 36.41 30.6067 36.49 30.78C36.5833 30.9533 36.7167 31.1133 36.89 31.26C37.0767 31.3933 37.3033 31.52 37.57 31.64C37.8367 31.76 38.1567 31.8867 38.53 32.02C39.0233 32.2067 39.4633 32.3933 39.85 32.58C40.2367 32.7533 40.5633 32.96 40.83 33.2C41.11 33.44 41.3233 33.7333 41.47 34.08C41.6167 34.4133 41.69 34.8267 41.69 35.32C41.69 36.28 41.33 37.0067 40.61 37.5C39.9033 37.9933 38.89 38.24 37.57 38.24C36.65 38.24 35.93 38.16 35.41 38C34.89 37.8533 34.5367 37.74 34.35 37.66L34.69 36.06C34.9033 36.14 35.2433 36.26 35.71 36.42C36.1767 36.58 36.7967 36.66 37.57 36.66ZM43.0958 32.82C43.0958 31.9 43.2291 31.1 43.4958 30.42C43.7624 29.7267 44.1158 29.1533 44.5558 28.7C44.9958 28.2467 45.5024 27.9067 46.0758 27.68C46.6491 27.4533 47.2358 27.34 47.8358 27.34C49.2358 27.34 50.3091 27.78 51.0558 28.66C51.8024 29.5267 52.1758 30.8533 52.1758 32.64C52.1758 32.72 52.1758 32.8267 52.1758 32.96C52.1758 33.08 52.1691 33.1933 52.1558 33.3H45.0358C45.1158 34.38 45.4291 35.2 45.9758 35.76C46.5224 36.32 47.3758 36.6 48.5358 36.6C49.1891 36.6 49.7358 36.5467 50.1758 36.44C50.6291 36.32 50.9691 36.2067 51.1958 36.1L51.4558 37.66C51.2291 37.78 50.8291 37.9067 50.2558 38.04C49.6958 38.1733 49.0558 38.24 48.3358 38.24C47.4291 38.24 46.6424 38.1067 45.9758 37.84C45.3224 37.56 44.7824 37.18 44.3558 36.7C43.9291 36.22 43.6091 35.6533 43.3958 35C43.1958 34.3333 43.0958 33.6067 43.0958 32.82ZM50.2358 31.8C50.2491 30.96 50.0358 30.2733 49.5958 29.74C49.1691 29.1933 48.5758 28.92 47.8158 28.92C47.3891 28.92 47.0091 29.0067 46.6758 29.18C46.3558 29.34 46.0824 29.5533 45.8558 29.82C45.6291 30.0867 45.4491 30.3933 45.3158 30.74C45.1958 31.0867 45.1158 31.44 45.0758 31.8H50.2358ZM58.2877 27.38C58.4477 27.38 58.6277 27.3933 58.8277 27.42C59.041 27.4333 59.2477 27.46 59.4477 27.5C59.6477 27.5267 59.8277 27.56 59.9877 27.6C60.161 27.6267 60.2877 27.6533 60.3677 27.68L60.0477 29.3C59.901 29.2467 59.6543 29.1867 59.3077 29.12C58.9743 29.04 58.541 29 58.0077 29C57.661 29 57.3143 29.04 56.9677 29.12C56.6343 29.1867 56.4143 29.2333 56.3077 29.26V38H54.4477V28.04C54.8877 27.88 55.4343 27.7333 56.0877 27.6C56.741 27.4533 57.4743 27.38 58.2877 27.38ZM60.9722 39.94C61.1189 40.0067 61.3055 40.0667 61.5322 40.12C61.7722 40.1867 62.0055 40.22 62.2322 40.22C62.9655 40.22 63.5389 40.0533 63.9522 39.72C64.3655 39.4 64.7389 38.8733 65.0722 38.14C64.2322 36.54 63.4455 34.8467 62.7122 33.06C61.9922 31.26 61.3922 29.44 60.9122 27.6H62.9122C63.0589 28.2 63.2322 28.8467 63.4322 29.54C63.6455 30.2333 63.8789 30.9467 64.1322 31.68C64.3855 32.4133 64.6589 33.1467 64.9522 33.88C65.2455 34.6133 65.5522 35.32 65.8722 36C66.3789 34.6 66.8189 33.2133 67.1922 31.84C67.5655 30.4667 67.9189 29.0533 68.2522 27.6H70.1722C69.6922 29.56 69.1589 31.4467 68.5722 33.26C67.9855 35.06 67.3522 36.7467 66.6722 38.32C66.4055 38.92 66.1255 39.4333 65.8322 39.86C65.5522 40.3 65.2389 40.66 64.8922 40.94C64.5455 41.22 64.1522 41.4267 63.7122 41.56C63.2855 41.6933 62.7989 41.76 62.2522 41.76C62.1055 41.76 61.9522 41.7467 61.7922 41.72C61.6322 41.7067 61.4722 41.68 61.3122 41.64C61.1655 41.6133 61.0255 41.58 60.8922 41.54C60.7722 41.5 60.6855 41.4667 60.6322 41.44L60.9722 39.94ZM82.8625 32.2C83.0758 32.4667 83.3425 32.82 83.6625 33.26C83.9958 33.6867 84.3358 34.1667 84.6825 34.7C85.0292 35.22 85.3692 35.7667 85.7025 36.34C86.0492 36.9133 86.3425 37.4667 86.5825 38H84.4625C84.1958 37.4933 83.9025 36.98 83.5825 36.46C83.2758 35.94 82.9625 35.4467 82.6425 34.98C82.3225 34.5 82.0025 34.0533 81.6825 33.64C81.3758 33.2267 81.0958 32.8667 80.8425 32.56C80.6692 32.5733 80.4892 32.58 80.3025 32.58C80.1292 32.58 79.9492 32.58 79.7625 32.58H78.0225V38H76.0825V24.34C76.6292 24.2067 77.2358 24.12 77.9025 24.08C78.5825 24.0267 79.2025 24 79.7625 24C81.7092 24 83.1892 24.3667 84.2025 25.1C85.2292 25.8333 85.7425 26.9267 85.7425 28.38C85.7425 29.3 85.4958 30.0867 85.0025 30.74C84.5225 31.3933 83.8092 31.88 82.8625 32.2ZM79.9225 25.7C79.0958 25.7 78.4625 25.72 78.0225 25.76V30.98H79.4025C80.0692 30.98 80.6692 30.9467 81.2025 30.88C81.7358 30.8133 82.1825 30.6867 82.5425 30.5C82.9158 30.3133 83.2025 30.0533 83.4025 29.72C83.6025 29.3733 83.7025 28.92 83.7025 28.36C83.7025 27.84 83.6025 27.4067 83.4025 27.06C83.2025 26.7133 82.9292 26.44 82.5825 26.24C82.2492 26.04 81.8492 25.9 81.3825 25.82C80.9292 25.74 80.4425 25.7 79.9225 25.7ZM88.1406 38V22.8L90.0006 22.48V27.8C90.3473 27.6667 90.714 27.5667 91.1006 27.5C91.5006 27.42 91.894 27.38 92.2806 27.38C93.1073 27.38 93.794 27.5 94.3406 27.74C94.8873 27.9667 95.3206 28.2933 95.6406 28.72C95.974 29.1333 96.2073 29.6333 96.3406 30.22C96.474 30.8067 96.5406 31.4533 96.5406 32.16V38H94.6806V32.56C94.6806 31.92 94.634 31.3733 94.5406 30.92C94.4606 30.4667 94.3206 30.1 94.1206 29.82C93.9206 29.54 93.654 29.34 93.3206 29.22C92.9873 29.0867 92.574 29.02 92.0806 29.02C91.8806 29.02 91.674 29.0333 91.4606 29.06C91.2473 29.0867 91.0406 29.12 90.8406 29.16C90.654 29.1867 90.4806 29.22 90.3206 29.26C90.174 29.3 90.0673 29.3333 90.0006 29.36V38H88.1406ZM97.6144 39.94C97.761 40.0067 97.9477 40.0667 98.1744 40.12C98.4144 40.1867 98.6477 40.22 98.8744 40.22C99.6077 40.22 100.181 40.0533 100.594 39.72C101.008 39.4 101.381 38.8733 101.714 38.14C100.874 36.54 100.088 34.8467 99.3544 33.06C98.6344 31.26 98.0344 29.44 97.5544 27.6H99.5544C99.701 28.2 99.8744 28.8467 100.074 29.54C100.288 30.2333 100.521 30.9467 100.774 31.68C101.028 32.4133 101.301 33.1467 101.594 33.88C101.888 34.6133 102.194 35.32 102.514 36C103.021 34.6 103.461 33.2133 103.834 31.84C104.208 30.4667 104.561 29.0533 104.894 27.6H106.814C106.334 29.56 105.801 31.4467 105.214 33.26C104.628 35.06 103.994 36.7467 103.314 38.32C103.048 38.92 102.768 39.4333 102.474 39.86C102.194 40.3 101.881 40.66 101.534 40.94C101.188 41.22 100.794 41.4267 100.354 41.56C99.9277 41.6933 99.441 41.76 98.8944 41.76C98.7477 41.76 98.5944 41.7467 98.4344 41.72C98.2744 41.7067 98.1144 41.68 97.9544 41.64C97.8077 41.6133 97.6677 41.58 97.5344 41.54C97.4144 41.5 97.3277 41.4667 97.2744 41.44L97.6144 39.94ZM108.376 27.9C108.802 27.7933 109.362 27.68 110.056 27.56C110.762 27.44 111.576 27.38 112.496 27.38C113.162 27.38 113.722 27.4733 114.176 27.66C114.629 27.8333 115.009 28.0933 115.316 28.44C115.409 28.3733 115.556 28.28 115.756 28.16C115.956 28.04 116.202 27.9267 116.496 27.82C116.789 27.7 117.116 27.6 117.476 27.52C117.836 27.4267 118.222 27.38 118.636 27.38C119.436 27.38 120.089 27.5 120.596 27.74C121.102 27.9667 121.496 28.2933 121.776 28.72C122.069 29.1467 122.262 29.6533 122.356 30.24C122.462 30.8267 122.516 31.4667 122.516 32.16V38H120.656V32.56C120.656 31.9467 120.622 31.42 120.556 30.98C120.502 30.54 120.389 30.1733 120.216 29.88C120.056 29.5867 119.829 29.3733 119.536 29.24C119.256 29.0933 118.889 29.02 118.436 29.02C117.809 29.02 117.289 29.1067 116.876 29.28C116.476 29.44 116.202 29.5867 116.056 29.72C116.162 30.0667 116.242 30.4467 116.296 30.86C116.349 31.2733 116.376 31.7067 116.376 32.16V38H114.516V32.56C114.516 31.9467 114.482 31.42 114.416 30.98C114.349 30.54 114.229 30.1733 114.056 29.88C113.896 29.5867 113.669 29.3733 113.376 29.24C113.096 29.0933 112.736 29.02 112.296 29.02C112.109 29.02 111.909 29.0267 111.696 29.04C111.482 29.0533 111.276 29.0733 111.076 29.1C110.889 29.1133 110.716 29.1333 110.556 29.16C110.396 29.1867 110.289 29.2067 110.236 29.22V38H108.376V27.9ZM124.622 32.82C124.622 31.9 124.756 31.1 125.022 30.42C125.289 29.7267 125.642 29.1533 126.082 28.7C126.522 28.2467 127.029 27.9067 127.602 27.68C128.176 27.4533 128.762 27.34 129.362 27.34C130.762 27.34 131.836 27.78 132.582 28.66C133.329 29.5267 133.702 30.8533 133.702 32.64C133.702 32.72 133.702 32.8267 133.702 32.96C133.702 33.08 133.696 33.1933 133.682 33.3H126.562C126.642 34.38 126.956 35.2 127.502 35.76C128.049 36.32 128.902 36.6 130.062 36.6C130.716 36.6 131.262 36.5467 131.702 36.44C132.156 36.32 132.496 36.2067 132.722 36.1L132.982 37.66C132.756 37.78 132.356 37.9067 131.782 38.04C131.222 38.1733 130.582 38.24 129.862 38.24C128.956 38.24 128.169 38.1067 127.502 37.84C126.849 37.56 126.309 37.18 125.882 36.7C125.456 36.22 125.136 35.6533 124.922 35C124.722 34.3333 124.622 33.6067 124.622 32.82ZM131.762 31.8C131.776 30.96 131.562 30.2733 131.122 29.74C130.696 29.1933 130.102 28.92 129.342 28.92C128.916 28.92 128.536 29.0067 128.202 29.18C127.882 29.34 127.609 29.5533 127.382 29.82C127.156 30.0867 126.976 30.3933 126.842 30.74C126.722 31.0867 126.642 31.44 126.602 31.8H131.762ZM138.394 36.66C139.154 36.66 139.714 36.56 140.074 36.36C140.448 36.16 140.634 35.84 140.634 35.4C140.634 34.9467 140.454 34.5867 140.094 34.32C139.734 34.0533 139.141 33.7533 138.314 33.42C137.914 33.26 137.528 33.1 137.154 32.94C136.794 32.7667 136.481 32.5667 136.214 32.34C135.948 32.1133 135.734 31.84 135.574 31.52C135.414 31.2 135.334 30.8067 135.334 30.34C135.334 29.42 135.674 28.6933 136.354 28.16C137.034 27.6133 137.961 27.34 139.134 27.34C139.428 27.34 139.721 27.36 140.014 27.4C140.308 27.4267 140.581 27.4667 140.834 27.52C141.088 27.56 141.308 27.6067 141.494 27.66C141.694 27.7133 141.848 27.76 141.954 27.8L141.614 29.4C141.414 29.2933 141.101 29.1867 140.674 29.08C140.248 28.96 139.734 28.9 139.134 28.9C138.614 28.9 138.161 29.0067 137.774 29.22C137.388 29.42 137.194 29.74 137.194 30.18C137.194 30.4067 137.234 30.6067 137.314 30.78C137.408 30.9533 137.541 31.1133 137.714 31.26C137.901 31.3933 138.128 31.52 138.394 31.64C138.661 31.76 138.981 31.8867 139.354 32.02C139.848 32.2067 140.288 32.3933 140.674 32.58C141.061 32.7533 141.388 32.96 141.654 33.2C141.934 33.44 142.148 33.7333 142.294 34.08C142.441 34.4133 142.514 34.8267 142.514 35.32C142.514 36.28 142.154 37.0067 141.434 37.5C140.728 37.9933 139.714 38.24 138.394 38.24C137.474 38.24 136.754 38.16 136.234 38C135.714 37.8533 135.361 37.74 135.174 37.66L135.514 36.06C135.728 36.14 136.068 36.26 136.534 36.42C137.001 36.58 137.621 36.66 138.394 36.66Z" fill="#2A2921"/>
<path d="M5.875 72.06C5.165 72.06 4.545 71.92 4.015 71.64C3.485 71.36 3.045 70.98 2.695 70.5C2.345 70.01 2.08 69.45 1.9 68.82C1.73 68.19 1.645 67.53 1.645 66.84C1.645 66.14 1.73 65.48 1.9 64.86C2.08 64.23 2.345 63.675 2.695 63.195C3.045 62.705 3.485 62.32 4.015 62.04C4.545 61.76 5.165 61.62 5.875 61.62C6.585 61.62 7.205 61.76 7.735 62.04C8.265 62.32 8.705 62.705 9.055 63.195C9.405 63.675 9.665 64.23 9.835 64.86C10.005 65.48 10.09 66.14 10.09 66.84C10.09 67.53 10.005 68.19 9.835 68.82C9.665 69.45 9.405 70.01 9.055 70.5C8.705 70.98 8.265 71.36 7.735 71.64C7.205 71.92 6.585 72.06 5.875 72.06ZM5.875 70.77C6.485 70.77 6.985 70.59 7.375 70.23C7.775 69.86 8.07 69.38 8.26 68.79C8.46 68.19 8.56 67.55 8.56 66.87C8.56 66.19 8.46 65.55 8.26 64.95C8.07 64.34 7.775 63.85 7.375 63.48C6.985 63.1 6.485 62.91 5.875 62.91C5.275 62.91 4.775 63.1 4.375 63.48C3.975 63.85 3.675 64.34 3.475 64.95C3.285 65.55 3.19 66.19 3.19 66.87C3.19 67.55 3.285 68.19 3.475 68.79C3.675 69.38 3.975 69.86 4.375 70.23C4.775 70.59 5.275 70.77 5.875 70.77ZM11.1309 72L10.9959 71.205L11.8359 70.995V65.85L11.0409 65.895L10.8909 65.04L12.7509 64.71L13.1709 65.295C13.4009 65.135 13.6709 65 13.9809 64.89C14.3009 64.78 14.6259 64.725 14.9559 64.725C15.6159 64.725 16.1509 64.9 16.5609 65.25C16.9809 65.59 17.1909 66.11 17.1909 66.81V71.025L18.0609 71.19L18.0459 72H15.0309L15.0009 71.19L15.8259 71.01V67.065C15.8259 66.275 15.4559 65.88 14.7159 65.88C14.4159 65.88 14.1209 65.945 13.8309 66.075C13.5509 66.195 13.3359 66.325 13.1859 66.465V70.995L14.0709 71.205V72H11.1309ZM21.936 72.06C21.286 72.06 20.711 71.915 20.211 71.625C19.711 71.335 19.316 70.92 19.026 70.38C18.746 69.84 18.606 69.205 18.606 68.475C18.606 67.695 18.751 67.025 19.041 66.465C19.331 65.905 19.721 65.475 20.211 65.175C20.701 64.875 21.246 64.725 21.846 64.725C22.256 64.725 22.641 64.8 23.001 64.95C23.371 65.1 23.671 65.325 23.901 65.625C24.131 65.925 24.246 66.295 24.246 66.735C24.246 67.215 24.136 67.61 23.916 67.92C23.696 68.23 23.401 68.475 23.031 68.655C22.671 68.835 22.266 68.96 21.816 69.03C21.376 69.1 20.931 69.135 20.481 69.135H20.046C20.126 69.645 20.326 70.075 20.646 70.425C20.976 70.765 21.466 70.935 22.116 70.935C22.496 70.935 22.836 70.87 23.136 70.74C23.436 70.61 23.691 70.46 23.901 70.29L24.186 71.34C23.976 71.53 23.671 71.7 23.271 71.85C22.871 71.99 22.426 72.06 21.936 72.06ZM20.031 68.07H20.406C20.646 68.07 20.906 68.06 21.186 68.04C21.466 68.01 21.731 67.95 21.981 67.86C22.231 67.77 22.436 67.64 22.596 67.47C22.766 67.29 22.851 67.055 22.851 66.765C22.851 66.455 22.746 66.225 22.536 66.075C22.336 65.925 22.111 65.85 21.861 65.85C21.501 65.85 21.186 65.955 20.916 66.165C20.656 66.365 20.451 66.635 20.301 66.975C20.151 67.305 20.061 67.67 20.031 68.07ZM28.6032 72L28.4382 71.205L29.2932 70.995V65.82H28.2882L28.0632 64.89L28.1682 64.725H29.3082V63.45C29.3082 62.64 29.4982 62.04 29.8782 61.65C30.2682 61.25 30.7782 61.05 31.4082 61.05C31.7082 61.05 32.0382 61.115 32.3982 61.245C32.7582 61.375 33.0882 61.6 33.3882 61.92L32.1882 62.94L31.4532 62.175H31.2732C31.0232 62.175 30.8582 62.26 30.7782 62.43C30.6982 62.59 30.6582 62.78 30.6582 63V64.725H32.3382C32.3882 64.725 32.4132 64.755 32.4132 64.815V65.82H30.6582V70.995L32.2032 71.19V72H28.6032ZM36.0904 72.06C35.4704 72.06 34.9204 71.9 34.4404 71.58C33.9704 71.26 33.6004 70.82 33.3304 70.26C33.0704 69.7 32.9404 69.065 32.9404 68.355C32.9404 67.635 33.0754 67 33.3454 66.45C33.6154 65.9 33.9854 65.475 34.4554 65.175C34.9354 64.865 35.4804 64.71 36.0904 64.71C36.7304 64.71 37.2854 64.865 37.7554 65.175C38.2354 65.485 38.6054 65.915 38.8654 66.465C39.1354 67.015 39.2704 67.645 39.2704 68.355C39.2704 69.065 39.1354 69.7 38.8654 70.26C38.6054 70.82 38.2354 71.26 37.7554 71.58C37.2854 71.9 36.7304 72.06 36.0904 72.06ZM36.0904 70.935C36.6804 70.935 37.1204 70.705 37.4104 70.245C37.7104 69.775 37.8604 69.175 37.8604 68.445C37.8604 67.705 37.7104 67.085 37.4104 66.585C37.1204 66.085 36.6804 65.835 36.0904 65.835C35.7004 65.835 35.3754 65.96 35.1154 66.21C34.8554 66.46 34.6604 66.785 34.5304 67.185C34.4004 67.585 34.3354 68.02 34.3354 68.49C34.3354 69.22 34.4854 69.81 34.7854 70.26C35.0954 70.71 35.5304 70.935 36.0904 70.935ZM40.1582 72L39.9782 71.19L40.8782 70.98V65.88L40.0832 65.91L39.9482 65.04L41.7032 64.725L42.1682 65.4C42.3782 65.18 42.6182 65.01 42.8882 64.89C43.1682 64.77 43.4332 64.71 43.6832 64.71C44.1232 64.71 44.5032 64.82 44.8232 65.04C45.1432 65.25 45.3782 65.52 45.5282 65.85L44.0582 66.6L43.5782 65.88C43.4282 65.88 43.2432 65.935 43.0232 66.045C42.8132 66.145 42.6282 66.315 42.4682 66.555C42.3082 66.785 42.2282 67.1 42.2282 67.5V70.785L44.1932 71.19L44.2082 72H40.1582ZM51.5505 72.06C51.0905 72.06 50.6855 71.98 50.3355 71.82C49.9855 71.65 49.6905 71.445 49.4505 71.205C49.2205 70.965 49.0555 70.725 48.9555 70.485L50.4855 69.9L50.8455 70.785C50.9055 70.805 51.0005 70.835 51.1305 70.875C51.2605 70.905 51.4305 70.92 51.6405 70.92C51.7805 70.92 51.9305 70.89 52.0905 70.83C52.2505 70.77 52.3855 70.675 52.4955 70.545C52.6155 70.415 52.6755 70.25 52.6755 70.05C52.6755 69.71 52.5255 69.465 52.2255 69.315C51.9255 69.155 51.5655 68.995 51.1455 68.835C50.5355 68.605 50.0705 68.325 49.7505 67.995C49.4305 67.655 49.2705 67.25 49.2705 66.78C49.2705 66.37 49.3805 66.01 49.6005 65.7C49.8205 65.39 50.1105 65.15 50.4705 64.98C50.8305 64.8 51.2305 64.71 51.6705 64.71C52.1305 64.71 52.5255 64.79 52.8555 64.95C53.1955 65.11 53.4705 65.305 53.6805 65.535C53.9005 65.755 54.0555 65.97 54.1455 66.18L52.6305 66.78L52.2855 66.015C52.2555 65.985 52.1855 65.95 52.0755 65.91C51.9755 65.86 51.8255 65.835 51.6255 65.835C51.4055 65.835 51.1905 65.9 50.9805 66.03C50.7805 66.15 50.6805 66.355 50.6805 66.645C50.6805 66.935 50.8355 67.16 51.1455 67.32C51.4655 67.48 51.9005 67.67 52.4505 67.89C52.9505 68.09 53.3405 68.35 53.6205 68.67C53.9105 68.99 54.0555 69.4 54.0555 69.9C54.0555 70.37 53.9355 70.765 53.6955 71.085C53.4555 71.405 53.1405 71.65 52.7505 71.82C52.3705 71.98 51.9705 72.06 51.5505 72.06ZM58.0349 72.06C57.4149 72.06 56.8649 71.9 56.3849 71.58C55.9149 71.26 55.5449 70.82 55.2749 70.26C55.0149 69.7 54.8849 69.065 54.8849 68.355C54.8849 67.635 55.0199 67 55.2899 66.45C55.5599 65.9 55.9299 65.475 56.3999 65.175C56.8799 64.865 57.4249 64.71 58.0349 64.71C58.6749 64.71 59.2299 64.865 59.6999 65.175C60.1799 65.485 60.5499 65.915 60.8099 66.465C61.0799 67.015 61.2149 67.645 61.2149 68.355C61.2149 69.065 61.0799 69.7 60.8099 70.26C60.5499 70.82 60.1799 71.26 59.6999 71.58C59.2299 71.9 58.6749 72.06 58.0349 72.06ZM58.0349 70.935C58.6249 70.935 59.0649 70.705 59.3549 70.245C59.6549 69.775 59.8049 69.175 59.8049 68.445C59.8049 67.705 59.6549 67.085 59.3549 66.585C59.0649 66.085 58.6249 65.835 58.0349 65.835C57.6449 65.835 57.3199 65.96 57.0599 66.21C56.7999 66.46 56.6049 66.785 56.4749 67.185C56.3449 67.585 56.2799 68.02 56.2799 68.49C56.2799 69.22 56.4299 69.81 56.7299 70.26C57.0399 70.71 57.4749 70.935 58.0349 70.935ZM62.1027 72L61.9227 71.19L62.8227 70.98V65.88L62.0277 65.91L61.8927 65.04L63.6477 64.725L64.1127 65.4C64.3227 65.18 64.5627 65.01 64.8327 64.89C65.1127 64.77 65.3777 64.71 65.6277 64.71C66.0677 64.71 66.4477 64.82 66.7677 65.04C67.0877 65.25 67.3227 65.52 67.4727 65.85L66.0027 66.6L65.5227 65.88C65.3727 65.88 65.1877 65.935 64.9677 66.045C64.7577 66.145 64.5727 66.315 64.4127 66.555C64.2527 66.785 64.1727 67.1 64.1727 67.5V70.785L66.1377 71.19L66.1527 72H62.1027ZM67.8965 72L67.7165 71.19L68.6165 70.98V65.88L67.8215 65.91L67.6865 65.04L69.4415 64.725L69.9065 65.4C70.1165 65.18 70.3565 65.01 70.6265 64.89C70.9065 64.77 71.1715 64.71 71.4215 64.71C71.8615 64.71 72.2415 64.82 72.5615 65.04C72.8815 65.25 73.1165 65.52 73.2665 65.85L71.7965 66.6L71.3165 65.88C71.1665 65.88 70.9815 65.935 70.7615 66.045C70.5515 66.145 70.3665 66.315 70.2065 66.555C70.0465 66.785 69.9665 67.1 69.9665 67.5V70.785L71.9315 71.19L71.9465 72H67.8965ZM76.6173 72.06C75.9973 72.06 75.4473 71.9 74.9673 71.58C74.4973 71.26 74.1273 70.82 73.8573 70.26C73.5973 69.7 73.4673 69.065 73.4673 68.355C73.4673 67.635 73.6023 67 73.8723 66.45C74.1423 65.9 74.5123 65.475 74.9823 65.175C75.4623 64.865 76.0073 64.71 76.6173 64.71C77.2573 64.71 77.8123 64.865 78.2823 65.175C78.7623 65.485 79.1323 65.915 79.3923 66.465C79.6623 67.015 79.7973 67.645 79.7973 68.355C79.7973 69.065 79.6623 69.7 79.3923 70.26C79.1323 70.82 78.7623 71.26 78.2823 71.58C77.8123 71.9 77.2573 72.06 76.6173 72.06ZM76.6173 70.935C77.2073 70.935 77.6473 70.705 77.9373 70.245C78.2373 69.775 78.3873 69.175 78.3873 68.445C78.3873 67.705 78.2373 67.085 77.9373 66.585C77.6473 66.085 77.2073 65.835 76.6173 65.835C76.2273 65.835 75.9023 65.96 75.6423 66.21C75.3823 66.46 75.1873 66.785 75.0573 67.185C74.9273 67.585 74.8623 68.02 74.8623 68.49C74.8623 69.22 75.0123 69.81 75.3123 70.26C75.6223 70.71 76.0573 70.935 76.6173 70.935ZM82.0652 72L80.8052 65.745H80.2202L80.1002 64.845L82.0502 64.725L83.1602 70.5L84.7052 65.115H86.1452L87.6902 70.5L88.8302 65.745H88.2302L88.0952 64.845L89.8802 64.725L90.1352 65.19L88.4552 72H86.6552L85.3052 67.125L83.9552 72H82.0652ZM90.4127 73.71L90.3977 73.515L91.1027 72.09L90.7277 70.275L92.3177 70.05C92.3377 70.12 92.3627 70.265 92.3927 70.485C92.4327 70.695 92.4527 70.93 92.4527 71.19C92.4527 71.56 92.3927 71.93 92.2727 72.3C92.1627 72.67 92.0177 73.015 91.8377 73.335C91.6677 73.655 91.4877 73.92 91.2977 74.13L90.4127 73.71ZM98.2435 72L98.1685 71.025L99.8785 70.725V62.925H98.0035L97.3885 64.395H96.4735L96.7885 61.635H104.408L104.753 64.395H103.838L103.223 62.925H101.333V70.725L103.073 71.025L102.998 72H98.2435ZM106.412 72L105.152 65.745H104.567L104.447 64.845L106.397 64.725L107.507 70.5L109.052 65.115H110.492L112.037 70.5L113.177 65.745H112.577L112.442 64.845L114.227 64.725L114.482 65.19L112.802 72H111.002L109.652 67.125L108.302 72H106.412ZM118.235 72.06C117.615 72.06 117.065 71.9 116.585 71.58C116.115 71.26 115.745 70.82 115.475 70.26C115.215 69.7 115.085 69.065 115.085 68.355C115.085 67.635 115.22 67 115.49 66.45C115.76 65.9 116.13 65.475 116.6 65.175C117.08 64.865 117.625 64.71 118.235 64.71C118.875 64.71 119.43 64.865 119.9 65.175C120.38 65.485 120.75 65.915 121.01 66.465C121.28 67.015 121.415 67.645 121.415 68.355C121.415 69.065 121.28 69.7 121.01 70.26C120.75 70.82 120.38 71.26 119.9 71.58C119.43 71.9 118.875 72.06 118.235 72.06ZM118.235 70.935C118.825 70.935 119.265 70.705 119.555 70.245C119.855 69.775 120.005 69.175 120.005 68.445C120.005 67.705 119.855 67.085 119.555 66.585C119.265 66.085 118.825 65.835 118.235 65.835C117.845 65.835 117.52 65.96 117.26 66.21C117 66.46 116.805 66.785 116.675 67.185C116.545 67.585 116.48 68.02 116.48 68.49C116.48 69.22 116.63 69.81 116.93 70.26C117.24 70.71 117.675 70.935 118.235 70.935ZM125.771 72L125.606 71.205L126.461 70.995V65.82H125.456L125.231 64.89L125.336 64.725H126.476V63.45C126.476 62.64 126.666 62.04 127.046 61.65C127.436 61.25 127.946 61.05 128.576 61.05C128.876 61.05 129.206 61.115 129.566 61.245C129.926 61.375 130.256 61.6 130.556 61.92L129.356 62.94L128.621 62.175H128.441C128.191 62.175 128.026 62.26 127.946 62.43C127.866 62.59 127.826 62.78 127.826 63V64.725H129.506C129.556 64.725 129.581 64.755 129.581 64.815V65.82H127.826V70.995L129.371 71.19V72H125.771ZM133.258 72.06C132.638 72.06 132.088 71.9 131.608 71.58C131.138 71.26 130.768 70.82 130.498 70.26C130.238 69.7 130.108 69.065 130.108 68.355C130.108 67.635 130.243 67 130.513 66.45C130.783 65.9 131.153 65.475 131.623 65.175C132.103 64.865 132.648 64.71 133.258 64.71C133.898 64.71 134.453 64.865 134.923 65.175C135.403 65.485 135.773 65.915 136.033 66.465C136.303 67.015 136.438 67.645 136.438 68.355C136.438 69.065 136.303 69.7 136.033 70.26C135.773 70.82 135.403 71.26 134.923 71.58C134.453 71.9 133.898 72.06 133.258 72.06ZM133.258 70.935C133.848 70.935 134.288 70.705 134.578 70.245C134.878 69.775 135.028 69.175 135.028 68.445C135.028 67.705 134.878 67.085 134.578 66.585C134.288 66.085 133.848 65.835 133.258 65.835C132.868 65.835 132.543 65.96 132.283 66.21C132.023 66.46 131.828 66.785 131.698 67.185C131.568 67.585 131.503 68.02 131.503 68.49C131.503 69.22 131.653 69.81 131.953 70.26C132.263 70.71 132.698 70.935 133.258 70.935ZM137.326 72L137.146 71.19L138.046 70.98V65.88L137.251 65.91L137.116 65.04L138.871 64.725L139.336 65.4C139.546 65.18 139.786 65.01 140.056 64.89C140.336 64.77 140.601 64.71 140.851 64.71C141.291 64.71 141.671 64.82 141.991 65.04C142.311 65.25 142.546 65.52 142.696 65.85L141.226 66.6L140.746 65.88C140.596 65.88 140.411 65.935 140.191 66.045C139.981 66.145 139.796 66.315 139.636 66.555C139.476 66.785 139.396 67.1 139.396 67.5V70.785L141.361 71.19L141.376 72H137.326ZM1.675 93L1.525 92.205L2.38 91.995V86.85L1.585 86.895L1.435 86.04L3.295 85.71L3.715 86.295C3.945 86.135 4.225 86 4.555 85.89C4.895 85.78 5.21 85.725 5.5 85.725C5.88 85.725 6.225 85.785 6.535 85.905C6.845 86.025 7.1 86.21 7.3 86.46C7.71 86.14 8.105 85.94 8.485 85.86C8.865 85.77 9.195 85.725 9.475 85.725C10.145 85.725 10.685 85.9 11.095 86.25C11.505 86.59 11.71 87.11 11.71 87.81V91.995L12.55 92.19V93H9.505L9.475 92.205L10.345 92.01V88.065C10.345 87.275 9.975 86.88 9.235 86.88C8.985 86.88 8.72 86.935 8.44 87.045C8.16 87.155 7.92 87.32 7.72 87.54V92.01L8.575 92.19V93H5.59L5.56 92.19L6.37 92.01V88.065C6.37 87.275 6 86.88 5.26 86.88C4.96 86.88 4.665 86.945 4.375 87.075C4.095 87.195 3.88 87.325 3.73 87.465V91.995L4.615 92.205V93H1.675ZM13.2695 93L13.1195 92.205L13.9895 91.995V86.895L13.1945 86.925L13.0445 86.04L14.8895 85.71L15.3395 86.205V91.995L16.2095 92.19V93H13.2695ZM14.4695 83.925C14.2195 83.925 13.9995 83.835 13.8095 83.655C13.6295 83.465 13.5395 83.245 13.5395 82.995C13.5395 82.735 13.6295 82.515 13.8095 82.335C13.9995 82.155 14.2195 82.065 14.4695 82.065C14.7295 82.065 14.9495 82.155 15.1295 82.335C15.3095 82.515 15.3995 82.735 15.3995 82.995C15.3995 83.245 15.3095 83.465 15.1295 83.655C14.9495 83.835 14.7295 83.925 14.4695 83.925ZM16.9832 93L16.8032 92.19L17.7032 91.98V86.88L16.9082 86.91L16.7732 86.04L18.5282 85.725L18.9932 86.4C19.2032 86.18 19.4432 86.01 19.7132 85.89C19.9932 85.77 20.2582 85.71 20.5082 85.71C20.9482 85.71 21.3282 85.82 21.6482 86.04C21.9682 86.25 22.2032 86.52 22.3532 86.85L20.8832 87.6L20.4032 86.88C20.2532 86.88 20.0682 86.935 19.8482 87.045C19.6382 87.145 19.4532 87.315 19.2932 87.555C19.1332 87.785 19.0532 88.1 19.0532 88.5V91.785L21.0182 92.19L21.0332 93H16.9832ZM25.147 93.06C24.667 93.06 24.277 92.91 23.977 92.61C23.677 92.31 23.527 91.835 23.527 91.185L23.557 86.805H22.387L22.177 85.89L22.282 85.725H23.572L23.602 83.205L24.802 82.935L24.907 83.13V85.725H26.452C26.502 85.725 26.527 85.755 26.527 85.815V86.805H24.892V91.215C24.892 91.505 24.942 91.695 25.042 91.785C25.142 91.865 25.287 91.905 25.477 91.905C25.667 91.905 25.857 91.855 26.047 91.755C26.237 91.645 26.372 91.56 26.452 91.5L26.752 92.475C26.632 92.595 26.432 92.725 26.152 92.865C25.882 92.995 25.547 93.06 25.147 93.06ZM27.1756 93L27.0556 92.19L27.9106 91.995V83.175H27.1156L26.9656 82.305L28.7956 82.02L29.2756 82.53V86.28C29.4956 86.12 29.7606 85.99 30.0706 85.89C30.3906 85.78 30.7156 85.725 31.0456 85.725C31.7056 85.725 32.2406 85.9 32.6506 86.25C33.0606 86.59 33.2656 87.11 33.2656 87.81V91.995L34.1356 92.19V93H31.1056L31.0756 92.19L31.9156 92.01V88.065C31.9156 87.275 31.5406 86.88 30.7906 86.88C30.4906 86.88 30.2006 86.945 29.9206 87.075C29.6406 87.195 29.4256 87.33 29.2756 87.48V92.01L30.1156 92.19V93H27.1756ZM34.5629 94.71L34.5479 94.515L35.2529 93.09L34.8779 91.275L36.4679 91.05C36.4879 91.12 36.5129 91.265 36.5429 91.485C36.5829 91.695 36.6029 91.93 36.6029 92.19C36.6029 92.56 36.5429 92.93 36.4229 93.3C36.3129 93.67 36.1679 94.015 35.9879 94.335C35.8179 94.655 35.6379 94.92 35.4479 95.13L34.5629 94.71ZM42.3937 93L42.3187 92.025L44.0287 91.725V83.925H42.1537L41.5387 85.395H40.6237L40.9387 82.635H48.5587L48.9037 85.395H47.9887L47.3737 83.925H45.4837V91.725L47.2237 92.025L47.1487 93H42.3937ZM49.3252 93L49.2052 92.19L50.0602 91.995V83.175H49.2652L49.1152 82.305L50.9452 82.02L51.4252 82.53V86.28C51.6452 86.12 51.9102 85.99 52.2202 85.89C52.5402 85.78 52.8652 85.725 53.1952 85.725C53.8552 85.725 54.3902 85.9 54.8002 86.25C55.2102 86.59 55.4152 87.11 55.4152 87.81V91.995L56.2852 92.19V93H53.2552L53.2252 92.19L54.0652 92.01V88.065C54.0652 87.275 53.6902 86.88 52.9402 86.88C52.6402 86.88 52.3502 86.945 52.0702 87.075C51.7902 87.195 51.5752 87.33 51.4252 87.48V92.01L52.2652 92.19V93H49.3252ZM56.9975 93L56.8175 92.19L57.7175 91.98V86.88L56.9225 86.91L56.7875 86.04L58.5425 85.725L59.0075 86.4C59.2175 86.18 59.4575 86.01 59.7275 85.89C60.0075 85.77 60.2725 85.71 60.5225 85.71C60.9625 85.71 61.3425 85.82 61.6625 86.04C61.9825 86.25 62.2175 86.52 62.3675 86.85L60.8975 87.6L60.4175 86.88C60.2675 86.88 60.0825 86.935 59.8625 87.045C59.6525 87.145 59.4675 87.315 59.3075 87.555C59.1475 87.785 59.0675 88.1 59.0675 88.5V91.785L61.0325 92.19L61.0475 93H56.9975ZM65.8983 93.06C65.2483 93.06 64.6733 92.915 64.1733 92.625C63.6733 92.335 63.2783 91.92 62.9883 91.38C62.7083 90.84 62.5683 90.205 62.5683 89.475C62.5683 88.695 62.7133 88.025 63.0033 87.465C63.2933 86.905 63.6833 86.475 64.1733 86.175C64.6633 85.875 65.2083 85.725 65.8083 85.725C66.2183 85.725 66.6033 85.8 66.9633 85.95C67.3333 86.1 67.6333 86.325 67.8633 86.625C68.0933 86.925 68.2083 87.295 68.2083 87.735C68.2083 88.215 68.0983 88.61 67.8783 88.92C67.6583 89.23 67.3633 89.475 66.9933 89.655C66.6333 89.835 66.2283 89.96 65.7783 90.03C65.3383 90.1 64.8933 90.135 64.4433 90.135H64.0083C64.0883 90.645 64.2883 91.075 64.6083 91.425C64.9383 91.765 65.4283 91.935 66.0783 91.935C66.4583 91.935 66.7983 91.87 67.0983 91.74C67.3983 91.61 67.6533 91.46 67.8633 91.29L68.1483 92.34C67.9383 92.53 67.6333 92.7 67.2333 92.85C66.8333 92.99 66.3883 93.06 65.8983 93.06ZM63.9933 89.07H64.3683C64.6083 89.07 64.8683 89.06 65.1483 89.04C65.4283 89.01 65.6933 88.95 65.9433 88.86C66.1933 88.77 66.3983 88.64 66.5583 88.47C66.7283 88.29 66.8133 88.055 66.8133 87.765C66.8133 87.455 66.7083 87.225 66.4983 87.075C66.2983 86.925 66.0733 86.85 65.8233 86.85C65.4633 86.85 65.1483 86.955 64.8783 87.165C64.6183 87.365 64.4133 87.635 64.2633 87.975C64.1133 88.305 64.0233 88.67 63.9933 89.07ZM72.322 93.06C71.672 93.06 71.097 92.915 70.597 92.625C70.097 92.335 69.702 91.92 69.412 91.38C69.132 90.84 68.992 90.205 68.992 89.475C68.992 88.695 69.137 88.025 69.427 87.465C69.717 86.905 70.107 86.475 70.597 86.175C71.087 85.875 71.632 85.725 72.232 85.725C72.642 85.725 73.027 85.8 73.387 85.95C73.757 86.1 74.057 86.325 74.287 86.625C74.517 86.925 74.632 87.295 74.632 87.735C74.632 88.215 74.522 88.61 74.302 88.92C74.082 89.23 73.787 89.475 73.417 89.655C73.057 89.835 72.652 89.96 72.202 90.03C71.762 90.1 71.317 90.135 70.867 90.135H70.432C70.512 90.645 70.712 91.075 71.032 91.425C71.362 91.765 71.852 91.935 72.502 91.935C72.882 91.935 73.222 91.87 73.522 91.74C73.822 91.61 74.077 91.46 74.287 91.29L74.572 92.34C74.362 92.53 74.057 92.7 73.657 92.85C73.257 92.99 72.812 93.06 72.322 93.06ZM70.417 89.07H70.792C71.032 89.07 71.292 89.06 71.572 89.04C71.852 89.01 72.117 88.95 72.367 88.86C72.617 88.77 72.822 88.64 72.982 88.47C73.152 88.29 73.237 88.055 73.237 87.765C73.237 87.455 73.132 87.225 72.922 87.075C72.722 86.925 72.497 86.85 72.247 86.85C71.887 86.85 71.572 86.955 71.302 87.165C71.042 87.365 70.837 87.635 70.687 87.975C70.537 88.305 70.447 88.67 70.417 89.07ZM78.9891 93L78.8241 92.205L79.6791 91.995V86.82H78.6741L78.4491 85.89L78.5541 85.725H79.6941V84.45C79.6941 83.64 79.8841 83.04 80.2641 82.65C80.6541 82.25 81.1641 82.05 81.7941 82.05C82.0941 82.05 82.4241 82.115 82.7841 82.245C83.1441 82.375 83.4741 82.6 83.7741 82.92L82.5741 83.94L81.8391 83.175H81.6591C81.4091 83.175 81.2441 83.26 81.1641 83.43C81.0841 83.59 81.0441 83.78 81.0441 84V85.725H82.7241C82.7741 85.725 82.7991 85.755 82.7991 85.815V86.82H81.0441V91.995L82.5891 92.19V93H78.9891ZM86.4763 93.06C85.8563 93.06 85.3063 92.9 84.8263 92.58C84.3563 92.26 83.9863 91.82 83.7163 91.26C83.4563 90.7 83.3263 90.065 83.3263 89.355C83.3263 88.635 83.4613 88 83.7313 87.45C84.0013 86.9 84.3713 86.475 84.8413 86.175C85.3213 85.865 85.8663 85.71 86.4763 85.71C87.1163 85.71 87.6713 85.865 88.1413 86.175C88.6213 86.485 88.9913 86.915 89.2513 87.465C89.5213 88.015 89.6563 88.645 89.6563 89.355C89.6563 90.065 89.5213 90.7 89.2513 91.26C88.9913 91.82 88.6213 92.26 88.1413 92.58C87.6713 92.9 87.1163 93.06 86.4763 93.06ZM86.4763 91.935C87.0663 91.935 87.5063 91.705 87.7963 91.245C88.0963 90.775 88.2463 90.175 88.2463 89.445C88.2463 88.705 88.0963 88.085 87.7963 87.585C87.5063 87.085 87.0663 86.835 86.4763 86.835C86.0863 86.835 85.7613 86.96 85.5013 87.21C85.2413 87.46 85.0463 87.785 84.9163 88.185C84.7863 88.585 84.7213 89.02 84.7213 89.49C84.7213 90.22 84.8713 90.81 85.1713 91.26C85.4813 91.71 85.9163 91.935 86.4763 91.935ZM90.5441 93L90.3641 92.19L91.2641 91.98V86.88L90.4691 86.91L90.3341 86.04L92.0891 85.725L92.5541 86.4C92.7641 86.18 93.0041 86.01 93.2741 85.89C93.5541 85.77 93.8191 85.71 94.0691 85.71C94.5091 85.71 94.8891 85.82 95.2091 86.04C95.5291 86.25 95.7641 86.52 95.9141 86.85L94.4441 87.6L93.9641 86.88C93.8141 86.88 93.6291 86.935 93.4091 87.045C93.1991 87.145 93.0141 87.315 92.8541 87.555C92.6941 87.785 92.6141 88.1 92.6141 88.5V91.785L94.5791 92.19L94.5941 93H90.5441ZM101.696 93.06C101.056 93.06 100.526 92.88 100.106 92.52C99.6964 92.15 99.4914 91.67 99.4914 91.08C99.4914 90.6 99.6164 90.21 99.8664 89.91C100.116 89.6 100.436 89.36 100.826 89.19C101.216 89.01 101.631 88.885 102.071 88.815C102.511 88.735 102.921 88.69 103.301 88.68V87.615C103.301 87.395 103.201 87.215 103.001 87.075C102.801 86.925 102.516 86.85 102.146 86.85C102.026 86.85 101.891 86.86 101.741 86.88C101.601 86.89 101.486 86.92 101.396 86.97L101.081 87.915L99.5514 87.42C99.7414 86.9 100.081 86.49 100.571 86.19C101.061 85.88 101.606 85.725 102.206 85.725C102.936 85.725 103.526 85.91 103.976 86.28C104.436 86.65 104.666 87.22 104.666 87.99V91.635C104.666 91.885 104.766 92.01 104.966 92.01C105.026 92.01 105.081 92.005 105.131 91.995C105.181 91.975 105.221 91.965 105.251 91.965L105.461 92.655C105.371 92.745 105.236 92.835 105.056 92.925C104.886 93.015 104.686 93.06 104.456 93.06C104.176 93.06 103.951 92.995 103.781 92.865C103.621 92.735 103.506 92.57 103.436 92.37C103.216 92.58 102.961 92.75 102.671 92.88C102.381 93 102.056 93.06 101.696 93.06ZM101.921 91.92C102.221 91.92 102.496 91.85 102.746 91.71C102.996 91.56 103.181 91.375 103.301 91.155V89.715C103.081 89.725 102.831 89.75 102.551 89.79C102.281 89.82 102.021 89.88 101.771 89.97C101.521 90.05 101.311 90.175 101.141 90.345C100.981 90.505 100.901 90.72 100.901 90.99C100.901 91.25 100.986 91.47 101.156 91.65C101.336 91.83 101.591 91.92 101.921 91.92ZM110.851 93L109.591 86.745H109.006L108.886 85.845L110.836 85.725L111.946 91.5L113.491 86.115H114.931L116.476 91.5L117.616 86.745H117.016L116.881 85.845L118.666 85.725L118.921 86.19L117.241 93H115.441L114.091 88.125L112.741 93H110.851ZM122.854 93.06C122.204 93.06 121.629 92.915 121.129 92.625C120.629 92.335 120.234 91.92 119.944 91.38C119.664 90.84 119.524 90.205 119.524 89.475C119.524 88.695 119.669 88.025 119.959 87.465C120.249 86.905 120.639 86.475 121.129 86.175C121.619 85.875 122.164 85.725 122.764 85.725C123.174 85.725 123.559 85.8 123.919 85.95C124.289 86.1 124.589 86.325 124.819 86.625C125.049 86.925 125.164 87.295 125.164 87.735C125.164 88.215 125.054 88.61 124.834 88.92C124.614 89.23 124.319 89.475 123.949 89.655C123.589 89.835 123.184 89.96 122.734 90.03C122.294 90.1 121.849 90.135 121.399 90.135H120.964C121.044 90.645 121.244 91.075 121.564 91.425C121.894 91.765 122.384 91.935 123.034 91.935C123.414 91.935 123.754 91.87 124.054 91.74C124.354 91.61 124.609 91.46 124.819 91.29L125.104 92.34C124.894 92.53 124.589 92.7 124.189 92.85C123.789 92.99 123.344 93.06 122.854 93.06ZM120.949 89.07H121.324C121.564 89.07 121.824 89.06 122.104 89.04C122.384 89.01 122.649 88.95 122.899 88.86C123.149 88.77 123.354 88.64 123.514 88.47C123.684 88.29 123.769 88.055 123.769 87.765C123.769 87.455 123.664 87.225 123.454 87.075C123.254 86.925 123.029 86.85 122.779 86.85C122.419 86.85 122.104 86.955 121.834 87.165C121.574 87.365 121.369 87.635 121.219 87.975C121.069 88.305 120.979 88.67 120.949 89.07ZM128.873 93.06C128.253 93.06 127.728 92.9 127.298 92.58C126.868 92.26 126.538 91.83 126.308 91.29C126.078 90.75 125.963 90.145 125.963 89.475C125.963 88.645 126.103 87.955 126.383 87.405C126.673 86.845 127.058 86.425 127.538 86.145C128.018 85.865 128.543 85.725 129.113 85.725C129.373 85.725 129.603 85.75 129.803 85.8C130.013 85.85 130.203 85.91 130.373 85.98V83.175L129.533 83.205L129.383 82.32L131.273 82.02L131.723 82.53V91.635C131.723 91.885 131.828 92.01 132.038 92.01C132.108 92.01 132.173 92 132.233 91.98C132.293 91.96 132.338 91.945 132.368 91.935L132.593 92.625C132.503 92.715 132.353 92.81 132.143 92.91C131.943 93.01 131.733 93.06 131.513 93.06C131.233 93.06 131.013 93 130.853 92.88C130.703 92.76 130.588 92.615 130.508 92.445C130.308 92.655 130.068 92.81 129.788 92.91C129.508 93.01 129.203 93.06 128.873 93.06ZM129.083 91.935C129.333 91.935 129.583 91.87 129.833 91.74C130.083 91.6 130.263 91.415 130.373 91.185V87.255C130.233 87.125 130.058 87.025 129.848 86.955C129.648 86.875 129.438 86.835 129.218 86.835C128.628 86.835 128.168 87.065 127.838 87.525C127.518 87.985 127.358 88.63 127.358 89.46C127.358 89.9 127.418 90.31 127.538 90.69C127.658 91.07 127.843 91.375 128.093 91.605C128.353 91.825 128.683 91.935 129.083 91.935ZM136.073 93.06C135.453 93.06 134.928 92.9 134.498 92.58C134.068 92.26 133.738 91.83 133.508 91.29C133.278 90.75 133.163 90.145 133.163 89.475C133.163 88.645 133.303 87.955 133.583 87.405C133.873 86.845 134.258 86.425 134.738 86.145C135.218 85.865 135.743 85.725 136.313 85.725C136.573 85.725 136.803 85.75 137.003 85.8C137.213 85.85 137.403 85.91 137.573 85.98V83.175L136.733 83.205L136.583 82.32L138.473 82.02L138.923 82.53V91.635C138.923 91.885 139.028 92.01 139.238 92.01C139.308 92.01 139.373 92 139.433 91.98C139.493 91.96 139.538 91.945 139.568 91.935L139.793 92.625C139.703 92.715 139.553 92.81 139.343 92.91C139.143 93.01 138.933 93.06 138.713 93.06C138.433 93.06 138.213 93 138.053 92.88C137.903 92.76 137.788 92.615 137.708 92.445C137.508 92.655 137.268 92.81 136.988 92.91C136.708 93.01 136.403 93.06 136.073 93.06ZM136.283 91.935C136.533 91.935 136.783 91.87 137.033 91.74C137.283 91.6 137.463 91.415 137.573 91.185V87.255C137.433 87.125 137.258 87.025 137.048 86.955C136.848 86.875 136.638 86.835 136.418 86.835C135.828 86.835 135.368 87.065 135.038 87.525C134.718 87.985 134.558 88.63 134.558 89.46C134.558 89.9 134.618 90.31 134.738 90.69C134.858 91.07 135.043 91.375 135.293 91.605C135.553 91.825 135.883 91.935 136.283 91.935ZM140.542 93L140.392 92.205L141.262 91.995V86.895L140.467 86.925L140.317 86.04L142.162 85.71L142.612 86.205V91.995L143.482 92.19V93H140.542ZM141.742 83.925C141.492 83.925 141.272 83.835 141.082 83.655C140.902 83.465 140.812 83.245 140.812 82.995C140.812 82.735 140.902 82.515 141.082 82.335C141.272 82.155 141.492 82.065 141.742 82.065C142.002 82.065 142.222 82.155 142.402 82.335C142.582 82.515 142.672 82.735 142.672 82.995C142.672 83.245 142.582 83.465 142.402 83.655C142.222 83.835 142.002 83.925 141.742 83.925ZM144.255 93L144.12 92.205L144.96 91.995V86.85L144.165 86.895L144.015 86.04L145.875 85.71L146.295 86.295C146.525 86.135 146.795 86 147.105 85.89C147.425 85.78 147.75 85.725 148.08 85.725C148.74 85.725 149.275 85.9 149.685 86.25C150.105 86.59 150.315 87.11 150.315 87.81V92.025L151.185 92.19L151.17 93H148.155L148.125 92.19L148.95 92.01V88.065C148.95 87.275 148.58 86.88 147.84 86.88C147.54 86.88 147.245 86.945 146.955 87.075C146.675 87.195 146.46 87.325 146.31 87.465V91.995L147.195 92.205V93H144.255ZM154.416 97.02C153.866 97.02 153.371 96.925 152.931 96.735C152.491 96.555 152.141 96.29 151.881 95.94C151.631 95.59 151.506 95.18 151.506 94.71C151.506 94.21 151.636 93.795 151.896 93.465C152.156 93.135 152.451 92.885 152.781 92.715C152.651 92.605 152.546 92.475 152.466 92.325C152.386 92.175 152.346 92 152.346 91.8C152.346 91.56 152.401 91.345 152.511 91.155C152.621 90.965 152.751 90.795 152.901 90.645C152.561 90.415 152.286 90.12 152.076 89.76C151.876 89.39 151.776 88.955 151.776 88.455C151.776 87.895 151.906 87.415 152.166 87.015C152.426 86.605 152.771 86.29 153.201 86.07C153.631 85.84 154.101 85.725 154.611 85.725C155.331 85.725 155.951 85.935 156.471 86.355L157.971 85.605L158.286 85.65L158.436 86.895L157.086 87.06C157.206 87.26 157.296 87.48 157.356 87.72C157.416 87.95 157.446 88.195 157.446 88.455C157.446 89.015 157.316 89.495 157.056 89.895C156.796 90.285 156.451 90.59 156.021 90.81C155.591 91.02 155.121 91.125 154.611 91.125C154.381 91.125 154.181 91.105 154.011 91.065L153.726 91.5L153.756 91.77L155.316 92.145C156.026 92.305 156.596 92.55 157.026 92.88C157.466 93.2 157.686 93.68 157.686 94.32C157.686 94.91 157.531 95.405 157.221 95.805C156.921 96.205 156.521 96.505 156.021 96.705C155.531 96.915 154.996 97.02 154.416 97.02ZM154.626 95.67C154.946 95.67 155.251 95.62 155.541 95.52C155.841 95.43 156.086 95.295 156.276 95.115C156.466 94.945 156.561 94.74 156.561 94.5C156.561 94.28 156.476 94.1 156.306 93.96C156.136 93.83 155.911 93.725 155.631 93.645C155.351 93.565 155.051 93.49 154.731 93.42C154.411 93.36 154.096 93.285 153.786 93.195C153.496 93.325 153.256 93.5 153.066 93.72C152.876 93.94 152.781 94.19 152.781 94.47C152.781 94.84 152.956 95.13 153.306 95.34C153.666 95.56 154.106 95.67 154.626 95.67ZM154.611 90C155.081 90 155.436 89.845 155.676 89.535C155.926 89.225 156.051 88.855 156.051 88.425C156.051 87.985 155.926 87.615 155.676 87.315C155.436 87.005 155.081 86.85 154.611 86.85C154.141 86.85 153.786 87.005 153.546 87.315C153.306 87.615 153.186 87.985 153.186 88.425C153.186 88.855 153.306 89.225 153.546 89.535C153.786 89.845 154.141 90 154.611 90ZM158.4 94.71L158.385 94.515L159.09 93.09L158.715 91.275L160.305 91.05C160.325 91.12 160.35 91.265 160.38 91.485C160.42 91.695 160.44 91.93 160.44 92.19C160.44 92.56 160.38 92.93 160.26 93.3C160.15 93.67 160.005 94.015 159.825 94.335C159.655 94.655 159.475 94.92 159.285 95.13L158.4 94.71ZM1.15 114L0.955 113.07L1.765 112.8L4.675 103.635H6.22L9.175 112.8L9.865 113.07L9.715 114H6.355V113.115L7.555 112.8L6.88 110.55H3.73L3.055 112.86L4.375 113.1V114H1.15ZM4.105 109.305H6.43L5.305 105.24L4.105 109.305ZM10.2812 114L10.1462 113.205L10.9862 112.995V107.85L10.1912 107.895L10.0412 107.04L11.9012 106.71L12.3212 107.295C12.5512 107.135 12.8212 107 13.1313 106.89C13.4513 106.78 13.7763 106.725 14.1062 106.725C14.7663 106.725 15.3013 106.9 15.7112 107.25C16.1313 107.59 16.3413 108.11 16.3413 108.81V113.025L17.2113 113.19L17.1963 114H14.1812L14.1512 113.19L14.9762 113.01V109.065C14.9762 108.275 14.6062 107.88 13.8662 107.88C13.5662 107.88 13.2712 107.945 12.9812 108.075C12.7012 108.195 12.4862 108.325 12.3362 108.465V112.995L13.2212 113.205V114H10.2812ZM20.6814 114.06C20.0614 114.06 19.5364 113.9 19.1064 113.58C18.6764 113.26 18.3464 112.83 18.1164 112.29C17.8864 111.75 17.7714 111.145 17.7714 110.475C17.7714 109.645 17.9114 108.955 18.1914 108.405C18.4814 107.845 18.8664 107.425 19.3464 107.145C19.8264 106.865 20.3514 106.725 20.9214 106.725C21.1814 106.725 21.4114 106.75 21.6114 106.8C21.8214 106.85 22.0114 106.91 22.1814 106.98V104.175L21.3414 104.205L21.1914 103.32L23.0814 103.02L23.5314 103.53V112.635C23.5314 112.885 23.6364 113.01 23.8464 113.01C23.9164 113.01 23.9814 113 24.0414 112.98C24.1014 112.96 24.1464 112.945 24.1764 112.935L24.4014 113.625C24.3114 113.715 24.1614 113.81 23.9514 113.91C23.7514 114.01 23.5414 114.06 23.3214 114.06C23.0414 114.06 22.8214 114 22.6614 113.88C22.5114 113.76 22.3964 113.615 22.3164 113.445C22.1164 113.655 21.8764 113.81 21.5964 113.91C21.3164 114.01 21.0114 114.06 20.6814 114.06ZM20.8914 112.935C21.1414 112.935 21.3914 112.87 21.6414 112.74C21.8914 112.6 22.0714 112.415 22.1814 112.185V108.255C22.0414 108.125 21.8664 108.025 21.6564 107.955C21.4564 107.875 21.2464 107.835 21.0264 107.835C20.4364 107.835 19.9764 108.065 19.6464 108.525C19.3264 108.985 19.1664 109.63 19.1664 110.46C19.1664 110.9 19.2264 111.31 19.3464 111.69C19.4664 112.07 19.6514 112.375 19.9014 112.605C20.1614 112.825 20.4914 112.935 20.8914 112.935ZM28.5885 114L28.4235 113.205L29.2785 112.995V107.82H28.2735L28.0485 106.89L28.1535 106.725H29.2935V105.45C29.2935 104.64 29.4835 104.04 29.8635 103.65C30.2535 103.25 30.7635 103.05 31.3935 103.05C31.6935 103.05 32.0235 103.115 32.3835 103.245C32.7435 103.375 33.0735 103.6 33.3735 103.92L32.1735 104.94L31.4385 104.175H31.2585C31.0085 104.175 30.8435 104.26 30.7635 104.43C30.6835 104.59 30.6435 104.78 30.6435 105V106.725H32.3235C32.3735 106.725 32.3985 106.755 32.3985 106.815V107.82H30.6435V112.995L32.1885 113.19V114H28.5885ZM36.0757 114.06C35.4557 114.06 34.9057 113.9 34.4257 113.58C33.9557 113.26 33.5857 112.82 33.3157 112.26C33.0557 111.7 32.9257 111.065 32.9257 110.355C32.9257 109.635 33.0607 109 33.3307 108.45C33.6007 107.9 33.9707 107.475 34.4407 107.175C34.9207 106.865 35.4657 106.71 36.0757 106.71C36.7157 106.71 37.2707 106.865 37.7407 107.175C38.2207 107.485 38.5907 107.915 38.8507 108.465C39.1207 109.015 39.2557 109.645 39.2557 110.355C39.2557 111.065 39.1207 111.7 38.8507 112.26C38.5907 112.82 38.2207 113.26 37.7407 113.58C37.2707 113.9 36.7157 114.06 36.0757 114.06ZM36.0757 112.935C36.6657 112.935 37.1057 112.705 37.3957 112.245C37.6957 111.775 37.8457 111.175 37.8457 110.445C37.8457 109.705 37.6957 109.085 37.3957 108.585C37.1057 108.085 36.6657 107.835 36.0757 107.835C35.6857 107.835 35.3607 107.96 35.1007 108.21C34.8407 108.46 34.6457 108.785 34.5157 109.185C34.3857 109.585 34.3207 110.02 34.3207 110.49C34.3207 111.22 34.4707 111.81 34.7707 112.26C35.0807 112.71 35.5157 112.935 36.0757 112.935ZM42.9336 114.06C42.5036 114.06 42.1136 113.985 41.7636 113.835C41.4236 113.675 41.1536 113.425 40.9536 113.085C40.7536 112.745 40.6536 112.295 40.6536 111.735V107.895H39.8586L39.7086 107.04L41.5686 106.71L42.0036 107.205V111.54C42.0036 111.94 42.0686 112.24 42.1986 112.44C42.3386 112.63 42.5086 112.76 42.7086 112.83C42.9086 112.89 43.0986 112.92 43.2786 112.92C43.5486 112.92 43.8136 112.845 44.0736 112.695C44.3436 112.545 44.5286 112.375 44.6286 112.185V107.88L43.8936 107.895L43.7436 107.04L45.5586 106.695L45.9936 107.205V112.68C45.9936 112.81 46.0236 112.9 46.0836 112.95C46.1436 112.99 46.2136 113.01 46.2936 113.01C46.3436 113.01 46.3886 113.005 46.4286 112.995C46.4786 112.975 46.5136 112.965 46.5336 112.965L46.7286 113.64C46.6686 113.71 46.5486 113.8 46.3686 113.91C46.1986 114.01 45.9836 114.06 45.7236 114.06C45.2336 114.06 44.9086 113.84 44.7486 113.4C44.5186 113.61 44.2386 113.775 43.9086 113.895C43.5786 114.005 43.2536 114.06 42.9336 114.06ZM47.534 114L47.354 113.19L48.254 112.98V107.88L47.459 107.91L47.324 107.04L49.079 106.725L49.544 107.4C49.754 107.18 49.994 107.01 50.264 106.89C50.544 106.77 50.809 106.71 51.059 106.71C51.499 106.71 51.879 106.82 52.199 107.04C52.519 107.25 52.754 107.52 52.904 107.85L51.434 108.6L50.954 107.88C50.804 107.88 50.619 107.935 50.399 108.045C50.189 108.145 50.004 108.315 49.844 108.555C49.684 108.785 49.604 109.1 49.604 109.5V112.785L51.569 113.19L51.584 114H47.534ZM56.7662 114L56.6012 113.205L57.4562 112.995V107.82H56.4512L56.2262 106.89L56.3312 106.725H57.4712V105.45C57.4712 104.64 57.6612 104.04 58.0412 103.65C58.4312 103.25 58.9412 103.05 59.5712 103.05C59.8712 103.05 60.2012 103.115 60.5612 103.245C60.9212 103.375 61.2512 103.6 61.5512 103.92L60.3512 104.94L59.6162 104.175H59.4362C59.1862 104.175 59.0212 104.26 58.9412 104.43C58.8612 104.59 58.8212 104.78 58.8212 105V106.725H60.5012C60.5512 106.725 60.5762 106.755 60.5762 106.815V107.82H58.8212V112.995L60.3662 113.19V114H56.7662ZM64.2535 114.06C63.6335 114.06 63.0835 113.9 62.6035 113.58C62.1335 113.26 61.7635 112.82 61.4935 112.26C61.2335 111.7 61.1035 111.065 61.1035 110.355C61.1035 109.635 61.2385 109 61.5085 108.45C61.7785 107.9 62.1485 107.475 62.6185 107.175C63.0985 106.865 63.6435 106.71 64.2535 106.71C64.8935 106.71 65.4485 106.865 65.9185 107.175C66.3985 107.485 66.7685 107.915 67.0285 108.465C67.2985 109.015 67.4335 109.645 67.4335 110.355C67.4335 111.065 67.2985 111.7 67.0285 112.26C66.7685 112.82 66.3985 113.26 65.9185 113.58C65.4485 113.9 64.8935 114.06 64.2535 114.06ZM64.2535 112.935C64.8435 112.935 65.2835 112.705 65.5735 112.245C65.8735 111.775 66.0235 111.175 66.0235 110.445C66.0235 109.705 65.8735 109.085 65.5735 108.585C65.2835 108.085 64.8435 107.835 64.2535 107.835C63.8635 107.835 63.5385 107.96 63.2785 108.21C63.0185 108.46 62.8235 108.785 62.6935 109.185C62.5635 109.585 62.4985 110.02 62.4985 110.49C62.4985 111.22 62.6485 111.81 62.9485 112.26C63.2585 112.71 63.6935 112.935 64.2535 112.935ZM68.3213 114L68.1413 113.19L69.0413 112.98V107.88L68.2463 107.91L68.1113 107.04L69.8663 106.725L70.3313 107.4C70.5413 107.18 70.7813 107.01 71.0513 106.89C71.3313 106.77 71.5963 106.71 71.8463 106.71C72.2863 106.71 72.6663 106.82 72.9863 107.04C73.3063 107.25 73.5413 107.52 73.6913 107.85L72.2213 108.6L71.7413 107.88C71.5913 107.88 71.4063 107.935 71.1863 108.045C70.9763 108.145 70.7913 108.315 70.6313 108.555C70.4713 108.785 70.3913 109.1 70.3913 109.5V112.785L72.3563 113.19L72.3713 114H68.3213ZM80.2086 114.06C79.5886 114.06 79.0636 113.9 78.6336 113.58C78.2036 113.26 77.8736 112.83 77.6436 112.29C77.4136 111.75 77.2986 111.145 77.2986 110.475C77.2986 109.645 77.4386 108.955 77.7186 108.405C78.0086 107.845 78.3936 107.425 78.8736 107.145C79.3536 106.865 79.8786 106.725 80.4486 106.725C80.7086 106.725 80.9386 106.75 81.1386 106.8C81.3486 106.85 81.5386 106.91 81.7086 106.98V104.175L80.8686 104.205L80.7186 103.32L82.6086 103.02L83.0586 103.53V112.635C83.0586 112.885 83.1636 113.01 83.3736 113.01C83.4436 113.01 83.5086 113 83.5686 112.98C83.6286 112.96 83.6736 112.945 83.7036 112.935L83.9286 113.625C83.8386 113.715 83.6886 113.81 83.4786 113.91C83.2786 114.01 83.0686 114.06 82.8486 114.06C82.5686 114.06 82.3486 114 82.1886 113.88C82.0386 113.76 81.9236 113.615 81.8436 113.445C81.6436 113.655 81.4036 113.81 81.1236 113.91C80.8436 114.01 80.5386 114.06 80.2086 114.06ZM80.4186 112.935C80.6686 112.935 80.9186 112.87 81.1686 112.74C81.4186 112.6 81.5986 112.415 81.7086 112.185V108.255C81.5686 108.125 81.3936 108.025 81.1836 107.955C80.9836 107.875 80.7736 107.835 80.5536 107.835C79.9636 107.835 79.5036 108.065 79.1736 108.525C78.8536 108.985 78.6936 109.63 78.6936 110.46C78.6936 110.9 78.7536 111.31 78.8736 111.69C78.9936 112.07 79.1786 112.375 79.4286 112.605C79.6886 112.825 80.0186 112.935 80.4186 112.935ZM87.7989 114.06C87.1489 114.06 86.5739 113.915 86.0739 113.625C85.5739 113.335 85.1789 112.92 84.8889 112.38C84.6089 111.84 84.4689 111.205 84.4689 110.475C84.4689 109.695 84.6139 109.025 84.9039 108.465C85.1939 107.905 85.5839 107.475 86.0739 107.175C86.5639 106.875 87.1089 106.725 87.7089 106.725C88.1189 106.725 88.5039 106.8 88.8639 106.95C89.2339 107.1 89.5339 107.325 89.7639 107.625C89.9939 107.925 90.1089 108.295 90.1089 108.735C90.1089 109.215 89.9989 109.61 89.7789 109.92C89.5589 110.23 89.2639 110.475 88.8939 110.655C88.5339 110.835 88.1289 110.96 87.6789 111.03C87.2389 111.1 86.7939 111.135 86.3439 111.135H85.9089C85.9889 111.645 86.1889 112.075 86.5089 112.425C86.8389 112.765 87.3289 112.935 87.9789 112.935C88.3589 112.935 88.6989 112.87 88.9989 112.74C89.2989 112.61 89.5539 112.46 89.7639 112.29L90.0489 113.34C89.8389 113.53 89.5339 113.7 89.1339 113.85C88.7339 113.99 88.2889 114.06 87.7989 114.06ZM85.8939 110.07H86.2689C86.5089 110.07 86.7689 110.06 87.0489 110.04C87.3289 110.01 87.5939 109.95 87.8439 109.86C88.0939 109.77 88.2989 109.64 88.4589 109.47C88.6289 109.29 88.7139 109.055 88.7139 108.765C88.7139 108.455 88.6089 108.225 88.3989 108.075C88.1989 107.925 87.9739 107.85 87.7239 107.85C87.3639 107.85 87.0489 107.955 86.7789 108.165C86.5189 108.365 86.3139 108.635 86.1639 108.975C86.0139 109.305 85.9239 109.67 85.8939 110.07ZM93.0825 114.06C92.4425 114.06 91.9125 113.88 91.4925 113.52C91.0825 113.15 90.8775 112.67 90.8775 112.08C90.8775 111.6 91.0025 111.21 91.2525 110.91C91.5025 110.6 91.8225 110.36 92.2125 110.19C92.6025 110.01 93.0175 109.885 93.4575 109.815C93.8975 109.735 94.3075 109.69 94.6875 109.68V108.615C94.6875 108.395 94.5875 108.215 94.3875 108.075C94.1875 107.925 93.9025 107.85 93.5325 107.85C93.4125 107.85 93.2775 107.86 93.1275 107.88C92.9875 107.89 92.8725 107.92 92.7825 107.97L92.4675 108.915L90.9375 108.42C91.1275 107.9 91.4675 107.49 91.9575 107.19C92.4475 106.88 92.9925 106.725 93.5925 106.725C94.3225 106.725 94.9125 106.91 95.3625 107.28C95.8225 107.65 96.0525 108.22 96.0525 108.99V112.635C96.0525 112.885 96.1525 113.01 96.3525 113.01C96.4125 113.01 96.4675 113.005 96.5175 112.995C96.5675 112.975 96.6075 112.965 96.6375 112.965L96.8475 113.655C96.7575 113.745 96.6225 113.835 96.4425 113.925C96.2725 114.015 96.0725 114.06 95.8425 114.06C95.5625 114.06 95.3375 113.995 95.1675 113.865C95.0075 113.735 94.8925 113.57 94.8225 113.37C94.6025 113.58 94.3475 113.75 94.0575 113.88C93.7675 114 93.4425 114.06 93.0825 114.06ZM93.3075 112.92C93.6075 112.92 93.8825 112.85 94.1325 112.71C94.3825 112.56 94.5675 112.375 94.6875 112.155V110.715C94.4675 110.725 94.2175 110.75 93.9375 110.79C93.6675 110.82 93.4075 110.88 93.1575 110.97C92.9075 111.05 92.6975 111.175 92.5275 111.345C92.3675 111.505 92.2875 111.72 92.2875 111.99C92.2875 112.25 92.3725 112.47 92.5425 112.65C92.7225 112.83 92.9775 112.92 93.3075 112.92ZM99.8212 114.06C99.3412 114.06 98.9512 113.91 98.6512 113.61C98.3512 113.31 98.2012 112.835 98.2012 112.185L98.2312 107.805H97.0612L96.8512 106.89L96.9562 106.725H98.2462L98.2762 104.205L99.4762 103.935L99.5812 104.13V106.725H101.126C101.176 106.725 101.201 106.755 101.201 106.815V107.805H99.5662V112.215C99.5662 112.505 99.6162 112.695 99.7162 112.785C99.8162 112.865 99.9612 112.905 100.151 112.905C100.341 112.905 100.531 112.855 100.721 112.755C100.911 112.645 101.046 112.56 101.126 112.5L101.426 113.475C101.306 113.595 101.106 113.725 100.826 113.865C100.556 113.995 100.221 114.06 99.8212 114.06ZM101.85 114L101.73 113.19L102.585 112.995V104.175H101.79L101.64 103.305L103.47 103.02L103.95 103.53V107.28C104.17 107.12 104.435 106.99 104.745 106.89C105.065 106.78 105.39 106.725 105.72 106.725C106.38 106.725 106.915 106.9 107.325 107.25C107.735 107.59 107.94 108.11 107.94 108.81V112.995L108.81 113.19V114H105.78L105.75 113.19L106.59 113.01V109.065C106.59 108.275 106.215 107.88 105.465 107.88C105.165 107.88 104.875 107.945 104.595 108.075C104.315 108.195 104.1 108.33 103.95 108.48V113.01L104.79 113.19V114H101.85Z" fill="#2A2921"/>
</svg>
