<svg width="169" height="136" viewBox="0 0 169 136" fill="none" xmlns="http://www.w3.org/2000/svg">
<path d="M10.9 38C10.0067 36.4133 9.04 34.8467 8 33.3C6.96 31.7533 5.85333 30.2933 4.68 28.92V38H1.6V24.14H4.14C4.58 24.58 5.06667 25.12 5.6 25.76C6.13333 26.4 6.67333 27.0867 7.22 27.82C7.78 28.54 8.33333 29.2933 8.88 30.08C9.42667 30.8533 9.94 31.6 10.42 32.32V24.14H13.52V38H10.9ZM25.0972 37.64C24.5905 37.7867 23.9372 37.92 23.1372 38.04C22.3372 38.1733 21.4972 38.24 20.6172 38.24C19.7239 38.24 18.9772 38.12 18.3772 37.88C17.7905 37.64 17.3239 37.3067 16.9772 36.88C16.6305 36.44 16.3839 35.92 16.2372 35.32C16.0905 34.72 16.0172 34.06 16.0172 33.34V27.48H18.9972V32.98C18.9972 33.94 19.1239 34.6333 19.3772 35.06C19.6305 35.4867 20.1039 35.7 20.7972 35.7C21.0105 35.7 21.2372 35.6933 21.4772 35.68C21.7172 35.6533 21.9305 35.6267 22.1172 35.6V27.48H25.0972V37.64ZM33.8345 30.12C33.5679 30.0533 33.2545 29.9867 32.8945 29.92C32.5345 29.84 32.1479 29.8 31.7345 29.8C31.5479 29.8 31.3212 29.82 31.0545 29.86C30.8012 29.8867 30.6079 29.92 30.4745 29.96V38H27.4945V28.04C28.0279 27.8533 28.6545 27.68 29.3745 27.52C30.1079 27.3467 30.9212 27.26 31.8145 27.26C31.9745 27.26 32.1679 27.2733 32.3945 27.3C32.6212 27.3133 32.8479 27.34 33.0745 27.38C33.3012 27.4067 33.5279 27.4467 33.7545 27.5C33.9812 27.54 34.1745 27.5933 34.3345 27.66L33.8345 30.12ZM38.552 35.86C39.0987 35.86 39.4854 35.8067 39.712 35.7C39.9387 35.5933 40.052 35.3867 40.052 35.08C40.052 34.84 39.9054 34.6333 39.612 34.46C39.3187 34.2733 38.872 34.0667 38.272 33.84C37.8054 33.6667 37.3787 33.4867 36.992 33.3C36.6187 33.1133 36.2987 32.8933 36.032 32.64C35.7654 32.3733 35.5587 32.06 35.412 31.7C35.2654 31.34 35.192 30.9067 35.192 30.4C35.192 29.4133 35.5587 28.6333 36.292 28.06C37.0254 27.4867 38.032 27.2 39.312 27.2C39.952 27.2 40.5654 27.26 41.152 27.38C41.7387 27.4867 42.2054 27.6067 42.552 27.74L42.032 30.06C41.6854 29.94 41.3054 29.8333 40.892 29.74C40.492 29.6467 40.0387 29.6 39.532 29.6C38.5987 29.6 38.132 29.86 38.132 30.38C38.132 30.5 38.152 30.6067 38.192 30.7C38.232 30.7933 38.312 30.8867 38.432 30.98C38.552 31.06 38.712 31.1533 38.912 31.26C39.1254 31.3533 39.392 31.46 39.712 31.58C40.3654 31.82 40.9054 32.06 41.332 32.3C41.7587 32.5267 42.092 32.78 42.332 33.06C42.5854 33.3267 42.7587 33.6267 42.852 33.96C42.9587 34.2933 43.012 34.68 43.012 35.12C43.012 36.16 42.6187 36.9467 41.832 37.48C41.0587 38.0133 39.9587 38.28 38.532 38.28C37.5987 38.28 36.8187 38.2 36.192 38.04C35.5787 37.88 35.152 37.7467 34.912 37.64L35.412 35.22C35.9187 35.42 36.4387 35.58 36.972 35.7C37.5054 35.8067 38.032 35.86 38.552 35.86ZM44.3391 32.82C44.3391 31.8867 44.4791 31.0733 44.7591 30.38C45.0524 29.6733 45.4324 29.0867 45.8991 28.62C46.3657 28.1533 46.8991 27.8 47.4991 27.56C48.1124 27.32 48.7391 27.2 49.3791 27.2C50.8724 27.2 52.0524 27.66 52.9191 28.58C53.7857 29.4867 54.2191 30.8267 54.2191 32.6C54.2191 32.7733 54.2124 32.9667 54.1991 33.18C54.1857 33.38 54.1724 33.56 54.1591 33.72H47.3991C47.4657 34.3333 47.7524 34.82 48.2591 35.18C48.7657 35.54 49.4457 35.72 50.2991 35.72C50.8457 35.72 51.3791 35.6733 51.8991 35.58C52.4324 35.4733 52.8657 35.3467 53.1991 35.2L53.5991 37.62C53.4391 37.7 53.2257 37.78 52.9591 37.86C52.6924 37.94 52.3924 38.0067 52.0591 38.06C51.7391 38.1267 51.3924 38.18 51.0191 38.22C50.6457 38.26 50.2724 38.28 49.8991 38.28C48.9524 38.28 48.1257 38.14 47.4191 37.86C46.7257 37.58 46.1457 37.2 45.6791 36.72C45.2257 36.2267 44.8857 35.6467 44.6591 34.98C44.4457 34.3133 44.3391 33.5933 44.3391 32.82ZM51.3391 31.68C51.3257 31.4267 51.2791 31.18 51.1991 30.94C51.1324 30.7 51.0191 30.4867 50.8591 30.3C50.7124 30.1133 50.5191 29.96 50.2791 29.84C50.0524 29.72 49.7657 29.66 49.4191 29.66C49.0857 29.66 48.7991 29.72 48.5591 29.84C48.3191 29.9467 48.1191 30.0933 47.9591 30.28C47.7991 30.4667 47.6724 30.6867 47.5791 30.94C47.4991 31.18 47.4391 31.4267 47.3991 31.68H51.3391ZM62.4588 30.12C62.1921 30.0533 61.8788 29.9867 61.5188 29.92C61.1588 29.84 60.7721 29.8 60.3588 29.8C60.1721 29.8 59.9454 29.82 59.6788 29.86C59.4254 29.8867 59.2321 29.92 59.0988 29.96V38H56.1188V28.04C56.6521 27.8533 57.2788 27.68 57.9988 27.52C58.7321 27.3467 59.5454 27.26 60.4388 27.26C60.5988 27.26 60.7921 27.2733 61.0188 27.3C61.2454 27.3133 61.4721 27.34 61.6988 27.38C61.9254 27.4067 62.1521 27.4467 62.3788 27.5C62.6054 27.54 62.7988 27.5933 62.9588 27.66L62.4588 30.12ZM74.1212 27.48C73.5212 29.5067 72.8946 31.4067 72.2412 33.18C71.5879 34.9533 70.8746 36.6733 70.1012 38.34C69.8212 38.94 69.5412 39.4467 69.2612 39.86C68.9812 40.2867 68.6746 40.6333 68.3412 40.9C68.0079 41.18 67.6279 41.38 67.2012 41.5C66.7879 41.6333 66.3012 41.7 65.7412 41.7C65.2746 41.7 64.8412 41.6533 64.4412 41.56C64.0546 41.48 63.7346 41.3867 63.4812 41.28L64.0012 38.9C64.3079 39.0067 64.5812 39.08 64.8212 39.12C65.0612 39.16 65.3146 39.18 65.5812 39.18C66.1146 39.18 66.5212 39.0333 66.8012 38.74C67.0946 38.46 67.3412 38.0667 67.5412 37.56C66.8612 36.2267 66.1812 34.7333 65.5012 33.08C64.8212 31.4133 64.1812 29.5467 63.5812 27.48H66.7412C66.8746 28 67.0279 28.5667 67.2012 29.18C67.3879 29.78 67.5812 30.3933 67.7812 31.02C67.9812 31.6333 68.1812 32.2333 68.3812 32.82C68.5946 33.4067 68.7946 33.94 68.9812 34.42C69.1546 33.94 69.3346 33.4067 69.5212 32.82C69.7079 32.2333 69.8879 31.6333 70.0612 31.02C70.2479 30.3933 70.4212 29.78 70.5812 29.18C70.7546 28.5667 70.9079 28 71.0412 27.48H74.1212ZM83.9834 23.98C86.0634 23.98 87.6568 24.3533 88.7634 25.1C89.8701 25.8333 90.4234 26.98 90.4234 28.54C90.4234 29.5133 90.1968 30.3067 89.7434 30.92C89.3034 31.52 88.6634 31.9933 87.8234 32.34C88.1034 32.6867 88.3968 33.0867 88.7034 33.54C89.0101 33.98 89.3101 34.4467 89.6034 34.94C89.9101 35.42 90.2034 35.9267 90.4834 36.46C90.7634 36.98 91.0234 37.4933 91.2634 38H87.7634C87.5101 37.5467 87.2501 37.0867 86.9834 36.62C86.7301 36.1533 86.4634 35.7 86.1834 35.26C85.9168 34.82 85.6501 34.4067 85.3834 34.02C85.1168 33.62 84.8501 33.26 84.5834 32.94H83.0434V38H79.9234V24.34C80.6034 24.2067 81.3034 24.1133 82.0234 24.06C82.7568 24.0067 83.4101 23.98 83.9834 23.98ZM84.1634 26.64C83.9368 26.64 83.7301 26.6467 83.5434 26.66C83.3701 26.6733 83.2034 26.6867 83.0434 26.7V30.46H83.9234C85.0968 30.46 85.9368 30.3133 86.4434 30.02C86.9501 29.7267 87.2034 29.2267 87.2034 28.52C87.2034 27.84 86.9434 27.36 86.4234 27.08C85.9168 26.7867 85.1634 26.64 84.1634 26.64ZM92.6633 38V22.96L95.6433 22.48V27.52C95.8433 27.4533 96.0966 27.3933 96.4033 27.34C96.7233 27.2733 97.0299 27.24 97.3233 27.24C98.1766 27.24 98.8833 27.36 99.4433 27.6C100.017 27.8267 100.47 28.1533 100.803 28.58C101.15 29.0067 101.39 29.5133 101.523 30.1C101.67 30.6867 101.743 31.34 101.743 32.06V38H98.7633V32.42C98.7633 31.46 98.6366 30.78 98.3833 30.38C98.1433 29.98 97.6899 29.78 97.0233 29.78C96.7566 29.78 96.5033 29.8067 96.2633 29.86C96.0366 29.9 95.8299 29.9467 95.6433 30V38H92.6633ZM113.068 27.48C112.468 29.5067 111.841 31.4067 111.188 33.18C110.535 34.9533 109.821 36.6733 109.048 38.34C108.768 38.94 108.488 39.4467 108.208 39.86C107.928 40.2867 107.621 40.6333 107.288 40.9C106.955 41.18 106.575 41.38 106.148 41.5C105.735 41.6333 105.248 41.7 104.688 41.7C104.221 41.7 103.788 41.6533 103.388 41.56C103.001 41.48 102.681 41.3867 102.428 41.28L102.948 38.9C103.255 39.0067 103.528 39.08 103.768 39.12C104.008 39.16 104.261 39.18 104.528 39.18C105.061 39.18 105.468 39.0333 105.748 38.74C106.041 38.46 106.288 38.0667 106.488 37.56C105.808 36.2267 105.128 34.7333 104.448 33.08C103.768 31.4133 103.128 29.5467 102.528 27.48H105.688C105.821 28 105.975 28.5667 106.148 29.18C106.335 29.78 106.528 30.3933 106.728 31.02C106.928 31.6333 107.128 32.2333 107.328 32.82C107.541 33.4067 107.741 33.94 107.928 34.42C108.101 33.94 108.281 33.4067 108.468 32.82C108.655 32.2333 108.835 31.6333 109.008 31.02C109.195 30.3933 109.368 29.78 109.528 29.18C109.701 28.5667 109.855 28 109.988 27.48H113.068ZM120.046 32.42C120.046 31.46 119.919 30.78 119.666 30.38C119.426 29.98 119.006 29.78 118.406 29.78C118.219 29.78 118.026 29.7933 117.826 29.82C117.626 29.8333 117.432 29.8533 117.246 29.88V38H114.266V27.84C114.519 27.7733 114.812 27.7067 115.146 27.64C115.492 27.56 115.852 27.4933 116.226 27.44C116.612 27.3733 117.006 27.3267 117.406 27.3C117.806 27.26 118.199 27.24 118.586 27.24C119.346 27.24 119.959 27.34 120.426 27.54C120.906 27.7267 121.299 27.9533 121.606 28.22C122.032 27.9133 122.519 27.6733 123.066 27.5C123.626 27.3267 124.139 27.24 124.606 27.24C125.446 27.24 126.132 27.36 126.666 27.6C127.212 27.8267 127.646 28.1533 127.966 28.58C128.286 29.0067 128.506 29.5133 128.626 30.1C128.746 30.6867 128.806 31.34 128.806 32.06V38H125.826V32.42C125.826 31.46 125.699 30.78 125.446 30.38C125.206 29.98 124.786 29.78 124.186 29.78C124.026 29.78 123.799 29.82 123.506 29.9C123.226 29.98 122.992 30.08 122.806 30.2C122.899 30.5067 122.959 30.8333 122.986 31.18C123.012 31.5133 123.026 31.8733 123.026 32.26V38H120.046V32.42ZM130.612 32.82C130.612 31.8867 130.752 31.0733 131.032 30.38C131.325 29.6733 131.705 29.0867 132.172 28.62C132.638 28.1533 133.172 27.8 133.772 27.56C134.385 27.32 135.012 27.2 135.652 27.2C137.145 27.2 138.325 27.66 139.192 28.58C140.058 29.4867 140.492 30.8267 140.492 32.6C140.492 32.7733 140.485 32.9667 140.472 33.18C140.458 33.38 140.445 33.56 140.432 33.72H133.672C133.738 34.3333 134.025 34.82 134.532 35.18C135.038 35.54 135.718 35.72 136.572 35.72C137.118 35.72 137.652 35.6733 138.172 35.58C138.705 35.4733 139.138 35.3467 139.472 35.2L139.872 37.62C139.712 37.7 139.498 37.78 139.232 37.86C138.965 37.94 138.665 38.0067 138.332 38.06C138.012 38.1267 137.665 38.18 137.292 38.22C136.918 38.26 136.545 38.28 136.172 38.28C135.225 38.28 134.398 38.14 133.692 37.86C132.998 37.58 132.418 37.2 131.952 36.72C131.498 36.2267 131.158 35.6467 130.932 34.98C130.718 34.3133 130.612 33.5933 130.612 32.82ZM137.612 31.68C137.598 31.4267 137.552 31.18 137.472 30.94C137.405 30.7 137.292 30.4867 137.132 30.3C136.985 30.1133 136.792 29.96 136.552 29.84C136.325 29.72 136.038 29.66 135.692 29.66C135.358 29.66 135.072 29.72 134.832 29.84C134.592 29.9467 134.392 30.0933 134.232 30.28C134.072 30.4667 133.945 30.6867 133.852 30.94C133.772 31.18 133.712 31.4267 133.672 31.68H137.612ZM145.411 35.86C145.958 35.86 146.345 35.8067 146.571 35.7C146.798 35.5933 146.911 35.3867 146.911 35.08C146.911 34.84 146.765 34.6333 146.471 34.46C146.178 34.2733 145.731 34.0667 145.131 33.84C144.665 33.6667 144.238 33.4867 143.851 33.3C143.478 33.1133 143.158 32.8933 142.891 32.64C142.625 32.3733 142.418 32.06 142.271 31.7C142.125 31.34 142.051 30.9067 142.051 30.4C142.051 29.4133 142.418 28.6333 143.151 28.06C143.885 27.4867 144.891 27.2 146.171 27.2C146.811 27.2 147.425 27.26 148.011 27.38C148.598 27.4867 149.065 27.6067 149.411 27.74L148.891 30.06C148.545 29.94 148.165 29.8333 147.751 29.74C147.351 29.6467 146.898 29.6 146.391 29.6C145.458 29.6 144.991 29.86 144.991 30.38C144.991 30.5 145.011 30.6067 145.051 30.7C145.091 30.7933 145.171 30.8867 145.291 30.98C145.411 31.06 145.571 31.1533 145.771 31.26C145.985 31.3533 146.251 31.46 146.571 31.58C147.225 31.82 147.765 32.06 148.191 32.3C148.618 32.5267 148.951 32.78 149.191 33.06C149.445 33.3267 149.618 33.6267 149.711 33.96C149.818 34.2933 149.871 34.68 149.871 35.12C149.871 36.16 149.478 36.9467 148.691 37.48C147.918 38.0133 146.818 38.28 145.391 38.28C144.458 38.28 143.678 38.2 143.051 38.04C142.438 37.88 142.011 37.7467 141.771 37.64L142.271 35.22C142.778 35.42 143.298 35.58 143.831 35.7C144.365 35.8067 144.891 35.86 145.411 35.86Z" fill="#2A2921"/>
<path d="M5.775 72.21C4.775 72.21 3.88 71.985 3.09 71.535C2.31 71.085 1.7 70.45 1.26 69.63C0.82 68.8 0.6 67.84 0.6 66.75C0.6 65.66 0.82 64.705 1.26 63.885C1.7 63.055 2.31 62.415 3.09 61.965C3.88 61.515 4.775 61.29 5.775 61.29C6.775 61.29 7.665 61.515 8.445 61.965C9.235 62.415 9.85 63.055 10.29 63.885C10.73 64.705 10.95 65.66 10.95 66.75C10.95 67.84 10.73 68.8 10.29 69.63C9.85 70.45 9.235 71.085 8.445 71.535C7.665 71.985 6.775 72.21 5.775 72.21ZM5.775 70.83C6.555 70.83 7.22 70.655 7.77 70.305C8.32 69.945 8.73 69.46 9 68.85C9.28 68.23 9.42 67.53 9.42 66.75C9.42 65.97 9.28 65.275 9 64.665C8.73 64.045 8.32 63.56 7.77 63.21C7.22 62.85 6.555 62.67 5.775 62.67C4.995 62.67 4.33 62.85 3.78 63.21C3.23 63.56 2.815 64.045 2.535 64.665C2.265 65.275 2.13 65.97 2.13 66.75C2.13 67.53 2.265 68.23 2.535 68.85C2.815 69.46 3.23 69.945 3.78 70.305C4.33 70.655 4.995 70.83 5.775 70.83ZM15.6854 64.5C17.6854 64.5 18.6854 65.65 18.6854 67.95V72H17.3354V67.95C17.3354 67.16 17.1854 66.59 16.8854 66.24C16.5954 65.88 16.1054 65.7 15.4154 65.7C14.9754 65.7 14.5754 65.78 14.2154 65.94C13.8554 66.1 13.5854 66.34 13.4054 66.66V72H12.0554V64.65H13.1054L13.2554 65.43C13.6454 65.08 14.0354 64.84 14.4254 64.71C14.8254 64.57 15.2454 64.5 15.6854 64.5ZM23.6593 72.15C22.8193 72.15 22.0993 71.98 21.4993 71.64C20.9093 71.29 20.4593 70.82 20.1493 70.23C19.8393 69.64 19.6843 68.985 19.6843 68.265C19.6843 67.575 19.8243 66.945 20.1043 66.375C20.3943 65.795 20.8093 65.34 21.3493 65.01C21.8993 64.67 22.5443 64.5 23.2843 64.5C24.2243 64.5 24.9843 64.775 25.5643 65.325C26.1543 65.875 26.4493 66.635 26.4493 67.605C26.4493 67.855 26.4293 68.095 26.3893 68.325H21.0643C21.1543 69.275 21.4443 69.95 21.9343 70.35C22.4243 70.75 23.0543 70.95 23.8243 70.95C24.5943 70.95 25.2993 70.805 25.9393 70.515L26.1193 71.58C25.2693 71.96 24.4493 72.15 23.6593 72.15ZM25.0543 67.395C25.0543 66.865 24.9043 66.45 24.6043 66.15C24.3043 65.85 23.8543 65.7 23.2543 65.7C22.6743 65.7 22.2193 65.845 21.8893 66.135C21.5593 66.415 21.3243 66.835 21.1843 67.395H25.0543ZM31.0893 65.7H29.8143L29.9943 64.65H31.0893V62.91C31.0893 62.24 31.2643 61.715 31.6143 61.335C31.9743 60.945 32.4893 60.75 33.1593 60.75C33.5993 60.75 33.9893 60.815 34.3293 60.945L34.1193 62.085C33.8793 61.995 33.6293 61.95 33.3693 61.95C32.7493 61.95 32.4393 62.3 32.4393 63V64.65H34.4193V65.7H32.4393V72H31.0893V65.7ZM38.3086 72.15C37.5586 72.15 36.9086 71.985 36.3586 71.655C35.8086 71.315 35.3886 70.855 35.0986 70.275C34.8086 69.695 34.6636 69.045 34.6636 68.325C34.6636 67.605 34.8086 66.955 35.0986 66.375C35.3886 65.795 35.8086 65.34 36.3586 65.01C36.9086 64.67 37.5586 64.5 38.3086 64.5C39.0486 64.5 39.6936 64.67 40.2436 65.01C40.8036 65.34 41.2286 65.795 41.5186 66.375C41.8086 66.955 41.9536 67.605 41.9536 68.325C41.9536 69.045 41.8086 69.695 41.5186 70.275C41.2286 70.855 40.8036 71.315 40.2436 71.655C39.6936 71.985 39.0486 72.15 38.3086 72.15ZM38.3086 70.95C39.0286 70.95 39.5836 70.72 39.9736 70.26C40.3736 69.8 40.5736 69.155 40.5736 68.325C40.5736 67.495 40.3736 66.85 39.9736 66.39C39.5836 65.93 39.0286 65.7 38.3086 65.7C37.5886 65.7 37.0286 65.93 36.6286 66.39C36.2386 66.85 36.0436 67.495 36.0436 68.325C36.0436 69.155 36.2386 69.8 36.6286 70.26C37.0286 70.72 37.5886 70.95 38.3086 70.95ZM43.0457 64.65H44.1557L44.3207 65.865C44.7007 65.395 45.0607 65.05 45.4007 64.83C45.7507 64.61 46.1157 64.5 46.4957 64.5C46.6157 64.5 46.7307 64.515 46.8407 64.545L46.7057 66.03C46.5757 66 46.4257 65.985 46.2557 65.985C45.8857 65.985 45.5357 66.07 45.2057 66.24C44.8757 66.4 44.6357 66.59 44.4857 66.81V72H43.0457V64.65ZM52.6459 72.15C52.0659 72.15 51.5559 72.085 51.1159 71.955C50.6859 71.815 50.3559 71.665 50.1259 71.505L50.2909 70.2C50.4909 70.38 50.7959 70.55 51.2059 70.71C51.6259 70.87 52.0859 70.95 52.5859 70.95C53.0559 70.95 53.4159 70.87 53.6659 70.71C53.9259 70.55 54.0559 70.325 54.0559 70.035C54.0559 69.695 53.9159 69.44 53.6359 69.27C53.3559 69.09 53.0059 68.94 52.5859 68.82C52.1259 68.7 51.7359 68.575 51.4159 68.445C51.1059 68.305 50.8359 68.095 50.6059 67.815C50.3859 67.535 50.2759 67.165 50.2759 66.705C50.2759 66.075 50.5009 65.55 50.9509 65.13C51.4009 64.71 52.0959 64.5 53.0359 64.5C53.4659 64.5 53.8309 64.545 54.1309 64.635C54.4309 64.715 54.7309 64.83 55.0309 64.98L54.8659 66.21C54.6259 66.01 54.3609 65.855 54.0709 65.745C53.7809 65.625 53.4459 65.565 53.0659 65.565C52.6259 65.565 52.2759 65.65 52.0159 65.82C51.7659 65.98 51.6409 66.225 51.6409 66.555C51.6409 66.775 51.7009 66.955 51.8209 67.095C51.9409 67.225 52.1109 67.335 52.3309 67.425C52.5509 67.515 52.8909 67.63 53.3509 67.77C53.9209 67.94 54.4109 68.18 54.8209 68.49C55.2409 68.8 55.4509 69.29 55.4509 69.96C55.4509 70.56 55.2359 71.075 54.8059 71.505C54.3859 71.935 53.6659 72.15 52.6459 72.15ZM59.6818 72.15C58.9318 72.15 58.2818 71.985 57.7318 71.655C57.1818 71.315 56.7618 70.855 56.4718 70.275C56.1818 69.695 56.0368 69.045 56.0368 68.325C56.0368 67.605 56.1818 66.955 56.4718 66.375C56.7618 65.795 57.1818 65.34 57.7318 65.01C58.2818 64.67 58.9318 64.5 59.6818 64.5C60.4218 64.5 61.0668 64.67 61.6168 65.01C62.1768 65.34 62.6018 65.795 62.8918 66.375C63.1818 66.955 63.3268 67.605 63.3268 68.325C63.3268 69.045 63.1818 69.695 62.8918 70.275C62.6018 70.855 62.1768 71.315 61.6168 71.655C61.0668 71.985 60.4218 72.15 59.6818 72.15ZM59.6818 70.95C60.4018 70.95 60.9568 70.72 61.3468 70.26C61.7468 69.8 61.9468 69.155 61.9468 68.325C61.9468 67.495 61.7468 66.85 61.3468 66.39C60.9568 65.93 60.4018 65.7 59.6818 65.7C58.9618 65.7 58.4018 65.93 58.0018 66.39C57.6118 66.85 57.4168 67.495 57.4168 68.325C57.4168 69.155 57.6118 69.8 58.0018 70.26C58.4018 70.72 58.9618 70.95 59.6818 70.95ZM64.4189 64.65H65.5289L65.6939 65.865C66.0739 65.395 66.4339 65.05 66.7739 64.83C67.1239 64.61 67.4889 64.5 67.8689 64.5C67.9889 64.5 68.1039 64.515 68.2139 64.545L68.0789 66.03C67.9489 66 67.7989 65.985 67.6289 65.985C67.2589 65.985 66.9089 66.07 66.5789 66.24C66.2489 66.4 66.0089 66.59 65.8589 66.81V72H64.4189V64.65ZM68.865 64.65H69.975L70.14 65.865C70.52 65.395 70.88 65.05 71.22 64.83C71.57 64.61 71.935 64.5 72.315 64.5C72.435 64.5 72.55 64.515 72.66 64.545L72.525 66.03C72.395 66 72.245 65.985 72.075 65.985C71.705 65.985 71.355 66.07 71.025 66.24C70.695 66.4 70.455 66.59 70.305 66.81V72H68.865V64.65ZM76.3307 72.15C75.5807 72.15 74.9307 71.985 74.3807 71.655C73.8307 71.315 73.4107 70.855 73.1207 70.275C72.8307 69.695 72.6857 69.045 72.6857 68.325C72.6857 67.605 72.8307 66.955 73.1207 66.375C73.4107 65.795 73.8307 65.34 74.3807 65.01C74.9307 64.67 75.5807 64.5 76.3307 64.5C77.0707 64.5 77.7157 64.67 78.2657 65.01C78.8257 65.34 79.2507 65.795 79.5407 66.375C79.8307 66.955 79.9757 67.605 79.9757 68.325C79.9757 69.045 79.8307 69.695 79.5407 70.275C79.2507 70.855 78.8257 71.315 78.2657 71.655C77.7157 71.985 77.0707 72.15 76.3307 72.15ZM76.3307 70.95C77.0507 70.95 77.6057 70.72 77.9957 70.26C78.3957 69.8 78.5957 69.155 78.5957 68.325C78.5957 67.495 78.3957 66.85 77.9957 66.39C77.6057 65.93 77.0507 65.7 76.3307 65.7C75.6107 65.7 75.0507 65.93 74.6507 66.39C74.2607 66.85 74.0657 67.495 74.0657 68.325C74.0657 69.155 74.2607 69.8 74.6507 70.26C75.0507 70.72 75.6107 70.95 76.3307 70.95ZM80.2595 64.65H81.8495L83.2595 70.515L84.8195 64.875H86.2145L87.7895 70.515L89.1995 64.65H90.7895L88.5695 72H87.0545L85.5245 66.57L83.9795 72H82.4645L80.2595 64.65ZM91.1814 73.605L91.7214 72H91.1964V70.41H92.8164V71.85L92.0364 73.605H91.1814ZM99.6178 62.79H96.5578V61.5H104.103V62.79H101.043V72H99.6178V62.79ZM103.098 64.65H104.688L106.098 70.515L107.658 64.875H109.053L110.628 70.515L112.038 64.65H113.628L111.408 72H109.893L108.363 66.57L106.818 72H105.303L103.098 64.65ZM117.538 72.15C116.788 72.15 116.138 71.985 115.588 71.655C115.038 71.315 114.618 70.855 114.328 70.275C114.038 69.695 113.893 69.045 113.893 68.325C113.893 67.605 114.038 66.955 114.328 66.375C114.618 65.795 115.038 65.34 115.588 65.01C116.138 64.67 116.788 64.5 117.538 64.5C118.278 64.5 118.923 64.67 119.473 65.01C120.033 65.34 120.458 65.795 120.748 66.375C121.038 66.955 121.183 67.605 121.183 68.325C121.183 69.045 121.038 69.695 120.748 70.275C120.458 70.855 120.033 71.315 119.473 71.655C118.923 71.985 118.278 72.15 117.538 72.15ZM117.538 70.95C118.258 70.95 118.813 70.72 119.203 70.26C119.603 69.8 119.803 69.155 119.803 68.325C119.803 67.495 119.603 66.85 119.203 66.39C118.813 65.93 118.258 65.7 117.538 65.7C116.818 65.7 116.258 65.93 115.858 66.39C115.468 66.85 115.273 67.495 115.273 68.325C115.273 69.155 115.468 69.8 115.858 70.26C116.258 70.72 116.818 70.95 117.538 70.95ZM125.855 65.7H124.58L124.76 64.65H125.855V62.91C125.855 62.24 126.03 61.715 126.38 61.335C126.74 60.945 127.255 60.75 127.925 60.75C128.365 60.75 128.755 60.815 129.095 60.945L128.885 62.085C128.645 61.995 128.395 61.95 128.135 61.95C127.515 61.95 127.205 62.3 127.205 63V64.65H129.185V65.7H127.205V72H125.855V65.7ZM133.074 72.15C132.324 72.15 131.674 71.985 131.124 71.655C130.574 71.315 130.154 70.855 129.864 70.275C129.574 69.695 129.429 69.045 129.429 68.325C129.429 67.605 129.574 66.955 129.864 66.375C130.154 65.795 130.574 65.34 131.124 65.01C131.674 64.67 132.324 64.5 133.074 64.5C133.814 64.5 134.459 64.67 135.009 65.01C135.569 65.34 135.994 65.795 136.284 66.375C136.574 66.955 136.719 67.605 136.719 68.325C136.719 69.045 136.574 69.695 136.284 70.275C135.994 70.855 135.569 71.315 135.009 71.655C134.459 71.985 133.814 72.15 133.074 72.15ZM133.074 70.95C133.794 70.95 134.349 70.72 134.739 70.26C135.139 69.8 135.339 69.155 135.339 68.325C135.339 67.495 135.139 66.85 134.739 66.39C134.349 65.93 133.794 65.7 133.074 65.7C132.354 65.7 131.794 65.93 131.394 66.39C131.004 66.85 130.809 67.495 130.809 68.325C130.809 69.155 131.004 69.8 131.394 70.26C131.794 70.72 132.354 70.95 133.074 70.95ZM137.811 64.65H138.921L139.086 65.865C139.466 65.395 139.826 65.05 140.166 64.83C140.516 64.61 140.881 64.5 141.261 64.5C141.381 64.5 141.496 64.515 141.606 64.545L141.471 66.03C141.341 66 141.191 65.985 141.021 65.985C140.651 65.985 140.301 66.07 139.971 66.24C139.641 66.4 139.401 66.59 139.251 66.81V72H137.811V64.65ZM9.495 85.5C11.375 85.5 12.315 86.555 12.315 88.665V93H10.965V88.68C10.965 87.99 10.83 87.49 10.56 87.18C10.29 86.86 9.85 86.7 9.24 86.7C7.94 86.7 7.29 87.38 7.29 88.74V93H5.94V88.95C5.94 88.11 5.79 87.525 5.49 87.195C5.2 86.865 4.775 86.7 4.215 86.7C3.775 86.7 3.385 86.78 3.045 86.94C2.705 87.1 2.445 87.34 2.265 87.66V93H0.915V85.65H1.965L2.115 86.43C2.485 86.1 2.855 85.865 3.225 85.725C3.605 85.575 4.01 85.5 4.44 85.5C5.56 85.5 6.35 85.99 6.81 86.97C7.32 85.99 8.215 85.5 9.495 85.5ZM13.7693 82.5H15.1193V84H13.7693V82.5ZM13.7693 85.65H15.1193V93H13.7693V85.65ZM16.648 85.65H17.758L17.923 86.865C18.303 86.395 18.663 86.05 19.003 85.83C19.353 85.61 19.718 85.5 20.098 85.5C20.218 85.5 20.333 85.515 20.443 85.545L20.308 87.03C20.178 87 20.028 86.985 19.858 86.985C19.488 86.985 19.138 87.07 18.808 87.24C18.478 87.4 18.238 87.59 18.088 87.81V93H16.648V85.65ZM23.6291 93.15C22.9791 93.15 22.4941 92.98 22.1741 92.64C21.8641 92.3 21.7091 91.885 21.7091 91.395V86.7H20.4491L20.5691 85.65H21.7091V83.835L23.0591 83.7V85.65H24.9941V86.7H23.0591V90.57C23.0591 91.08 23.0891 91.43 23.1491 91.62C23.2091 91.81 23.3341 91.935 23.5241 91.995C23.7241 92.045 24.0841 92.07 24.6041 92.07H24.9491L24.8441 93.15H23.6291ZM29.3578 85.5C30.2878 85.5 30.9978 85.805 31.4878 86.415C31.9778 87.025 32.2228 87.855 32.2228 88.905V93H30.8728V89.07C30.8728 88.26 30.7228 87.665 30.4228 87.285C30.1328 86.895 29.6778 86.7 29.0578 86.7C28.6778 86.7 28.3278 86.79 28.0078 86.97C27.6878 87.14 27.4178 87.385 27.1978 87.705V93H25.8328V81.75H27.1978V86.355C27.4878 86.075 27.8028 85.865 28.1428 85.725C28.4928 85.575 28.8978 85.5 29.3578 85.5ZM33.6177 94.605L34.1577 93H33.6327V91.41H35.2527V92.85L34.4727 94.605H33.6177ZM42.0541 83.79H38.9941V82.5H46.5391V83.79H43.4791V93H42.0541V83.79ZM50.8043 85.5C51.7343 85.5 52.4443 85.805 52.9343 86.415C53.4243 87.025 53.6693 87.855 53.6693 88.905V93H52.3193V89.07C52.3193 88.26 52.1693 87.665 51.8693 87.285C51.5793 86.895 51.1243 86.7 50.5043 86.7C50.1243 86.7 49.7743 86.79 49.4543 86.97C49.1343 87.14 48.8643 87.385 48.6443 87.705V93H47.2793V81.75H48.6443V86.355C48.9343 86.075 49.2493 85.865 49.5893 85.725C49.9393 85.575 50.3443 85.5 50.8043 85.5ZM55.1242 85.65H56.2342L56.3992 86.865C56.7792 86.395 57.1392 86.05 57.4792 85.83C57.8292 85.61 58.1942 85.5 58.5742 85.5C58.6942 85.5 58.8092 85.515 58.9192 85.545L58.7842 87.03C58.6542 87 58.5042 86.985 58.3342 86.985C57.9642 86.985 57.6142 87.07 57.2842 87.24C56.9542 87.4 56.7142 87.59 56.5642 87.81V93H55.1242V85.65ZM62.9048 93.15C62.0648 93.15 61.3448 92.98 60.7448 92.64C60.1548 92.29 59.7048 91.82 59.3948 91.23C59.0848 90.64 58.9298 89.985 58.9298 89.265C58.9298 88.575 59.0698 87.945 59.3498 87.375C59.6398 86.795 60.0548 86.34 60.5948 86.01C61.1448 85.67 61.7898 85.5 62.5298 85.5C63.4698 85.5 64.2298 85.775 64.8098 86.325C65.3998 86.875 65.6948 87.635 65.6948 88.605C65.6948 88.855 65.6748 89.095 65.6348 89.325H60.3098C60.3998 90.275 60.6898 90.95 61.1798 91.35C61.6698 91.75 62.2998 91.95 63.0698 91.95C63.8398 91.95 64.5448 91.805 65.1848 91.515L65.3648 92.58C64.5148 92.96 63.6948 93.15 62.9048 93.15ZM64.2998 88.395C64.2998 87.865 64.1498 87.45 63.8498 87.15C63.5498 86.85 63.0998 86.7 62.4998 86.7C61.9198 86.7 61.4648 86.845 61.1348 87.135C60.8048 87.415 60.5698 87.835 60.4298 88.395H64.2998ZM70.2806 93.15C69.4406 93.15 68.7206 92.98 68.1206 92.64C67.5306 92.29 67.0806 91.82 66.7706 91.23C66.4606 90.64 66.3056 89.985 66.3056 89.265C66.3056 88.575 66.4456 87.945 66.7256 87.375C67.0156 86.795 67.4306 86.34 67.9706 86.01C68.5206 85.67 69.1656 85.5 69.9056 85.5C70.8456 85.5 71.6056 85.775 72.1856 86.325C72.7756 86.875 73.0706 87.635 73.0706 88.605C73.0706 88.855 73.0506 89.095 73.0106 89.325H67.6856C67.7756 90.275 68.0656 90.95 68.5556 91.35C69.0456 91.75 69.6756 91.95 70.4456 91.95C71.2156 91.95 71.9206 91.805 72.5606 91.515L72.7406 92.58C71.8906 92.96 71.0706 93.15 70.2806 93.15ZM71.6756 88.395C71.6756 87.865 71.5256 87.45 71.2256 87.15C70.9256 86.85 70.4756 86.7 69.8756 86.7C69.2956 86.7 68.8406 86.845 68.5106 87.135C68.1806 87.415 67.9456 87.835 67.8056 88.395H71.6756ZM77.7105 86.7H76.4355L76.6155 85.65H77.7105V83.91C77.7105 83.24 77.8855 82.715 78.2355 82.335C78.5955 81.945 79.1105 81.75 79.7805 81.75C80.2205 81.75 80.6105 81.815 80.9505 81.945L80.7405 83.085C80.5005 82.995 80.2505 82.95 79.9905 82.95C79.3705 82.95 79.0605 83.3 79.0605 84V85.65H81.0405V86.7H79.0605V93H77.7105V86.7ZM84.9299 93.15C84.1799 93.15 83.5299 92.985 82.9799 92.655C82.4299 92.315 82.0099 91.855 81.7199 91.275C81.4299 90.695 81.2849 90.045 81.2849 89.325C81.2849 88.605 81.4299 87.955 81.7199 87.375C82.0099 86.795 82.4299 86.34 82.9799 86.01C83.5299 85.67 84.1799 85.5 84.9299 85.5C85.6699 85.5 86.3149 85.67 86.8649 86.01C87.4249 86.34 87.8499 86.795 88.1399 87.375C88.4299 87.955 88.5749 88.605 88.5749 89.325C88.5749 90.045 88.4299 90.695 88.1399 91.275C87.8499 91.855 87.4249 92.315 86.8649 92.655C86.3149 92.985 85.6699 93.15 84.9299 93.15ZM84.9299 91.95C85.6499 91.95 86.2049 91.72 86.5949 91.26C86.9949 90.8 87.1949 90.155 87.1949 89.325C87.1949 88.495 86.9949 87.85 86.5949 87.39C86.2049 86.93 85.6499 86.7 84.9299 86.7C84.2099 86.7 83.6499 86.93 83.2499 87.39C82.8599 87.85 82.6649 88.495 82.6649 89.325C82.6649 90.155 82.8599 90.8 83.2499 91.26C83.6499 91.72 84.2099 91.95 84.9299 91.95ZM89.667 85.65H90.777L90.942 86.865C91.322 86.395 91.682 86.05 92.022 85.83C92.372 85.61 92.737 85.5 93.117 85.5C93.237 85.5 93.352 85.515 93.462 85.545L93.327 87.03C93.197 87 93.047 86.985 92.877 86.985C92.507 86.985 92.157 87.07 91.827 87.24C91.497 87.4 91.257 87.59 91.107 87.81V93H89.667V85.65ZM98.8922 93.15C98.2122 93.15 97.6622 92.95 97.2422 92.55C96.8322 92.15 96.6272 91.64 96.6272 91.02C96.6272 90.09 97.0672 89.425 97.9472 89.025C98.8272 88.625 99.8522 88.415 101.022 88.395C101.022 87.735 100.892 87.29 100.632 87.06C100.382 86.82 99.9772 86.7 99.4172 86.7C99.1072 86.7 98.7972 86.75 98.4872 86.85C98.1772 86.94 97.8422 87.11 97.4822 87.36L97.2872 86.265C97.5872 86.035 97.9572 85.85 98.3972 85.71C98.8372 85.57 99.2972 85.5 99.7772 85.5C100.407 85.5 100.907 85.61 101.277 85.83C101.657 86.05 101.932 86.415 102.102 86.925C102.282 87.435 102.372 88.135 102.372 89.025V90.525C102.372 90.925 102.387 91.23 102.417 91.44C102.457 91.64 102.537 91.795 102.657 91.905C102.777 92.015 102.962 92.07 103.212 92.07H103.347L103.137 93.15H103.032C102.612 93.15 102.282 93.11 102.042 93.03C101.802 92.95 101.617 92.835 101.487 92.685C101.367 92.535 101.252 92.33 101.142 92.07C100.522 92.79 99.7722 93.15 98.8922 93.15ZM99.1472 92.07C99.5072 92.07 99.8522 91.98 100.182 91.8C100.522 91.62 100.802 91.38 101.022 91.08V89.325C99.9422 89.365 99.1672 89.51 98.6972 89.76C98.2372 90 98.0072 90.395 98.0072 90.945C98.0072 91.325 98.1072 91.61 98.3072 91.8C98.5172 91.98 98.7972 92.07 99.1472 92.07ZM106.423 85.65H108.013L109.423 91.515L110.983 85.875H112.378L113.953 91.515L115.363 85.65H116.953L114.733 93H113.218L111.688 87.57L110.143 93H108.628L106.423 85.65ZM121.179 93.15C120.339 93.15 119.619 92.98 119.019 92.64C118.429 92.29 117.979 91.82 117.669 91.23C117.359 90.64 117.204 89.985 117.204 89.265C117.204 88.575 117.344 87.945 117.624 87.375C117.914 86.795 118.329 86.34 118.869 86.01C119.419 85.67 120.064 85.5 120.804 85.5C121.744 85.5 122.504 85.775 123.084 86.325C123.674 86.875 123.969 87.635 123.969 88.605C123.969 88.855 123.949 89.095 123.909 89.325H118.584C118.674 90.275 118.964 90.95 119.454 91.35C119.944 91.75 120.574 91.95 121.344 91.95C122.114 91.95 122.819 91.805 123.459 91.515L123.639 92.58C122.789 92.96 121.969 93.15 121.179 93.15ZM122.574 88.395C122.574 87.865 122.424 87.45 122.124 87.15C121.824 86.85 121.374 86.7 120.774 86.7C120.194 86.7 119.739 86.845 119.409 87.135C119.079 87.415 118.844 87.835 118.704 88.395H122.574ZM131.54 81.75V93H130.34L130.19 92.1C129.94 92.44 129.615 92.7 129.215 92.88C128.815 93.06 128.39 93.15 127.94 93.15C127.32 93.15 126.755 92.98 126.245 92.64C125.735 92.3 125.33 91.84 125.03 91.26C124.74 90.68 124.595 90.04 124.595 89.34C124.595 88.66 124.73 88.025 125 87.435C125.28 86.845 125.675 86.375 126.185 86.025C126.695 85.675 127.28 85.5 127.94 85.5C128.38 85.5 128.795 85.58 129.185 85.74C129.575 85.9 129.91 86.145 130.19 86.475V81.75H131.54ZM128.18 91.95C128.54 91.95 128.885 91.86 129.215 91.68C129.545 91.49 129.815 91.2 130.025 90.81C130.235 90.42 130.34 89.93 130.34 89.34C130.34 88.79 130.235 88.315 130.025 87.915C129.815 87.515 129.54 87.215 129.2 87.015C128.87 86.805 128.53 86.7 128.18 86.7C127.5 86.7 126.96 86.95 126.56 87.45C126.17 87.94 125.975 88.57 125.975 89.34C125.975 90.08 126.175 90.7 126.575 91.2C126.975 91.7 127.51 91.95 128.18 91.95ZM139.56 81.75V93H138.36L138.21 92.1C137.96 92.44 137.635 92.7 137.235 92.88C136.835 93.06 136.41 93.15 135.96 93.15C135.34 93.15 134.775 92.98 134.265 92.64C133.755 92.3 133.35 91.84 133.05 91.26C132.76 90.68 132.615 90.04 132.615 89.34C132.615 88.66 132.75 88.025 133.02 87.435C133.3 86.845 133.695 86.375 134.205 86.025C134.715 85.675 135.3 85.5 135.96 85.5C136.4 85.5 136.815 85.58 137.205 85.74C137.595 85.9 137.93 86.145 138.21 86.475V81.75H139.56ZM136.2 91.95C136.56 91.95 136.905 91.86 137.235 91.68C137.565 91.49 137.835 91.2 138.045 90.81C138.255 90.42 138.36 89.93 138.36 89.34C138.36 88.79 138.255 88.315 138.045 87.915C137.835 87.515 137.56 87.215 137.22 87.015C136.89 86.805 136.55 86.7 136.2 86.7C135.52 86.7 134.98 86.95 134.58 87.45C134.19 87.94 133.995 88.57 133.995 89.34C133.995 90.08 134.195 90.7 134.595 91.2C134.995 91.7 135.53 91.95 136.2 91.95ZM141.071 82.5H142.421V84H141.071V82.5ZM141.071 85.65H142.421V93H141.071V85.65ZM147.579 85.5C149.579 85.5 150.579 86.65 150.579 88.95V93H149.229V88.95C149.229 88.16 149.079 87.59 148.779 87.24C148.489 86.88 147.999 86.7 147.309 86.7C146.869 86.7 146.469 86.78 146.109 86.94C145.749 87.1 145.479 87.34 145.299 87.66V93H143.949V85.65H144.999L145.149 86.43C145.539 86.08 145.929 85.84 146.319 85.71C146.719 85.57 147.139 85.5 147.579 85.5ZM154.998 96.75C153.958 96.75 153.113 96.56 152.463 96.18C151.823 95.8 151.503 95.26 151.503 94.56C151.503 93.79 151.928 93.215 152.778 92.835C152.298 92.595 152.058 92.285 152.058 91.905C152.058 91.425 152.348 91.07 152.928 90.84C152.518 90.59 152.203 90.25 151.983 89.82C151.763 89.39 151.653 88.905 151.653 88.365C151.653 87.825 151.773 87.34 152.013 86.91C152.263 86.47 152.613 86.125 153.063 85.875C153.523 85.625 154.063 85.5 154.683 85.5C155.343 85.5 155.943 85.69 156.483 86.07C157.013 85.77 157.623 85.62 158.313 85.62H158.433L158.268 86.52H157.923C157.833 86.52 157.703 86.53 157.533 86.55C157.363 86.57 157.213 86.595 157.083 86.625C157.293 86.865 157.453 87.135 157.563 87.435C157.673 87.735 157.728 88.045 157.728 88.365C157.728 88.925 157.603 89.43 157.353 89.88C157.113 90.32 156.763 90.67 156.303 90.93C155.843 91.18 155.303 91.305 154.683 91.305C154.323 91.305 153.993 91.26 153.693 91.17C153.463 91.25 153.348 91.38 153.348 91.56C153.348 91.8 153.623 91.96 154.173 92.04L156.138 92.355C156.958 92.485 157.578 92.72 157.998 93.06C158.418 93.4 158.628 93.87 158.628 94.47C158.628 95.22 158.303 95.785 157.653 96.165C157.013 96.555 156.128 96.75 154.998 96.75ZM154.683 90.225C155.243 90.225 155.673 90.06 155.973 89.73C156.283 89.39 156.438 88.94 156.438 88.38C156.438 87.84 156.283 87.405 155.973 87.075C155.673 86.745 155.243 86.58 154.683 86.58C154.123 86.58 153.693 86.745 153.393 87.075C153.093 87.405 152.943 87.84 152.943 88.38C152.943 88.94 153.093 89.39 153.393 89.73C153.693 90.06 154.123 90.225 154.683 90.225ZM155.118 95.55C155.808 95.55 156.338 95.46 156.708 95.28C157.078 95.1 157.263 94.84 157.263 94.5C157.263 94.24 157.148 94.03 156.918 93.87C156.698 93.72 156.363 93.6 155.913 93.51L153.813 93.15C153.513 93.29 153.268 93.46 153.078 93.66C152.888 93.87 152.793 94.1 152.793 94.35C152.793 94.76 152.998 95.06 153.408 95.25C153.818 95.45 154.388 95.55 155.118 95.55ZM159.139 94.605L159.679 93H159.154V91.41H160.774V92.85L159.994 94.605H159.139ZM6.63 111.165H2.61L1.605 114H0.105L3.87 103.5H5.37L9.135 114H7.635L6.63 111.165ZM6.18 109.875L4.62 105.495L3.06 109.875H6.18ZM13.4882 106.5C15.4882 106.5 16.4882 107.65 16.4882 109.95V114H15.1382V109.95C15.1382 109.16 14.9882 108.59 14.6882 108.24C14.3982 107.88 13.9082 107.7 13.2182 107.7C12.7782 107.7 12.3782 107.78 12.0182 107.94C11.6582 108.1 11.3882 108.34 11.2082 108.66V114H9.85816V106.65H10.9082L11.0582 107.43C11.4482 107.08 11.8382 106.84 12.2282 106.71C12.6282 106.57 13.0482 106.5 13.4882 106.5ZM24.4471 102.75V114H23.2471L23.0971 113.1C22.8471 113.44 22.5221 113.7 22.1221 113.88C21.7221 114.06 21.2971 114.15 20.8471 114.15C20.2271 114.15 19.6621 113.98 19.1521 113.64C18.6421 113.3 18.2371 112.84 17.9371 112.26C17.6471 111.68 17.5021 111.04 17.5021 110.34C17.5021 109.66 17.6371 109.025 17.9071 108.435C18.1871 107.845 18.5821 107.375 19.0921 107.025C19.6021 106.675 20.1871 106.5 20.8471 106.5C21.2871 106.5 21.7021 106.58 22.0921 106.74C22.4821 106.9 22.8171 107.145 23.0971 107.475V102.75H24.4471ZM21.0871 112.95C21.4471 112.95 21.7921 112.86 22.1221 112.68C22.4521 112.49 22.7221 112.2 22.9321 111.81C23.1421 111.42 23.2471 110.93 23.2471 110.34C23.2471 109.79 23.1421 109.315 22.9321 108.915C22.7221 108.515 22.4471 108.215 22.1071 108.015C21.7771 107.805 21.4371 107.7 21.0871 107.7C20.4071 107.7 19.8671 107.95 19.4671 108.45C19.0771 108.94 18.8821 109.57 18.8821 110.34C18.8821 111.08 19.0821 111.7 19.4821 112.2C19.8821 112.7 20.4171 112.95 21.0871 112.95ZM29.5365 107.7H28.2615L28.4415 106.65H29.5365V104.91C29.5365 104.24 29.7115 103.715 30.0615 103.335C30.4215 102.945 30.9365 102.75 31.6065 102.75C32.0465 102.75 32.4365 102.815 32.7765 102.945L32.5665 104.085C32.3265 103.995 32.0765 103.95 31.8165 103.95C31.1965 103.95 30.8865 104.3 30.8865 105V106.65H32.8665V107.7H30.8865V114H29.5365V107.7ZM36.7559 114.15C36.0059 114.15 35.3559 113.985 34.8059 113.655C34.2559 113.315 33.8359 112.855 33.5459 112.275C33.2559 111.695 33.1109 111.045 33.1109 110.325C33.1109 109.605 33.2559 108.955 33.5459 108.375C33.8359 107.795 34.2559 107.34 34.8059 107.01C35.3559 106.67 36.0059 106.5 36.7559 106.5C37.4959 106.5 38.1409 106.67 38.6909 107.01C39.2509 107.34 39.6759 107.795 39.9659 108.375C40.2559 108.955 40.4009 109.605 40.4009 110.325C40.4009 111.045 40.2559 111.695 39.9659 112.275C39.6759 112.855 39.2509 113.315 38.6909 113.655C38.1409 113.985 37.4959 114.15 36.7559 114.15ZM36.7559 112.95C37.4759 112.95 38.0309 112.72 38.4209 112.26C38.8209 111.8 39.0209 111.155 39.0209 110.325C39.0209 109.495 38.8209 108.85 38.4209 108.39C38.0309 107.93 37.4759 107.7 36.7559 107.7C36.0359 107.7 35.4759 107.93 35.0759 108.39C34.6859 108.85 34.4909 109.495 34.4909 110.325C34.4909 111.155 34.6859 111.8 35.0759 112.26C35.4759 112.72 36.0359 112.95 36.7559 112.95ZM47.5229 106.65V114H46.3229L46.1729 113.19C45.9329 113.52 45.6479 113.765 45.3179 113.925C44.9979 114.075 44.6029 114.15 44.1329 114.15C43.2529 114.15 42.5779 113.885 42.1079 113.355C41.6479 112.815 41.4179 112.005 41.4179 110.925V106.65H42.7679V110.55C42.7679 111.35 42.9029 111.95 43.1729 112.35C43.4529 112.75 43.8879 112.95 44.4779 112.95C44.8279 112.95 45.1529 112.88 45.4529 112.74C45.7629 112.6 46.0029 112.395 46.1729 112.125V106.65H47.5229ZM49.0591 106.65H50.1691L50.3341 107.865C50.7141 107.395 51.0741 107.05 51.4141 106.83C51.7641 106.61 52.1291 106.5 52.5091 106.5C52.6291 106.5 52.7441 106.515 52.8541 106.545L52.7191 108.03C52.5891 108 52.4391 107.985 52.2691 107.985C51.8991 107.985 51.5491 108.07 51.2191 108.24C50.8891 108.4 50.6491 108.59 50.4991 108.81V114H49.0591V106.65ZM57.0844 107.7H55.8094L55.9894 106.65H57.0844V104.91C57.0844 104.24 57.2594 103.715 57.6094 103.335C57.9694 102.945 58.4844 102.75 59.1544 102.75C59.5944 102.75 59.9844 102.815 60.3244 102.945L60.1144 104.085C59.8744 103.995 59.6244 103.95 59.3644 103.95C58.7444 103.95 58.4344 104.3 58.4344 105V106.65H60.4144V107.7H58.4344V114H57.0844V107.7ZM64.3037 114.15C63.5537 114.15 62.9037 113.985 62.3537 113.655C61.8037 113.315 61.3837 112.855 61.0937 112.275C60.8037 111.695 60.6587 111.045 60.6587 110.325C60.6587 109.605 60.8037 108.955 61.0937 108.375C61.3837 107.795 61.8037 107.34 62.3537 107.01C62.9037 106.67 63.5537 106.5 64.3037 106.5C65.0437 106.5 65.6887 106.67 66.2387 107.01C66.7987 107.34 67.2237 107.795 67.5137 108.375C67.8037 108.955 67.9487 109.605 67.9487 110.325C67.9487 111.045 67.8037 111.695 67.5137 112.275C67.2237 112.855 66.7987 113.315 66.2387 113.655C65.6887 113.985 65.0437 114.15 64.3037 114.15ZM64.3037 112.95C65.0237 112.95 65.5787 112.72 65.9687 112.26C66.3687 111.8 66.5687 111.155 66.5687 110.325C66.5687 109.495 66.3687 108.85 65.9687 108.39C65.5787 107.93 65.0237 107.7 64.3037 107.7C63.5837 107.7 63.0237 107.93 62.6237 108.39C62.2337 108.85 62.0387 109.495 62.0387 110.325C62.0387 111.155 62.2337 111.8 62.6237 112.26C63.0237 112.72 63.5837 112.95 64.3037 112.95ZM69.0408 106.65H70.1508L70.3158 107.865C70.6958 107.395 71.0558 107.05 71.3958 106.83C71.7458 106.61 72.1108 106.5 72.4908 106.5C72.6108 106.5 72.7258 106.515 72.8358 106.545L72.7008 108.03C72.5708 108 72.4208 107.985 72.2508 107.985C71.8808 107.985 71.5308 108.07 71.2008 108.24C70.8708 108.4 70.6308 108.59 70.4808 108.81V114H69.0408V106.65ZM83.066 102.75V114H81.866L81.716 113.1C81.466 113.44 81.141 113.7 80.741 113.88C80.341 114.06 79.916 114.15 79.466 114.15C78.846 114.15 78.281 113.98 77.771 113.64C77.261 113.3 76.856 112.84 76.556 112.26C76.266 111.68 76.121 111.04 76.121 110.34C76.121 109.66 76.256 109.025 76.526 108.435C76.806 107.845 77.201 107.375 77.711 107.025C78.221 106.675 78.806 106.5 79.466 106.5C79.906 106.5 80.321 106.58 80.711 106.74C81.101 106.9 81.436 107.145 81.716 107.475V102.75H83.066ZM79.706 112.95C80.066 112.95 80.411 112.86 80.741 112.68C81.071 112.49 81.341 112.2 81.551 111.81C81.761 111.42 81.866 110.93 81.866 110.34C81.866 109.79 81.761 109.315 81.551 108.915C81.341 108.515 81.066 108.215 80.726 108.015C80.396 107.805 80.056 107.7 79.706 107.7C79.026 107.7 78.486 107.95 78.086 108.45C77.696 108.94 77.501 109.57 77.501 110.34C77.501 111.08 77.701 111.7 78.101 112.2C78.501 112.7 79.036 112.95 79.706 112.95ZM88.1013 114.15C87.2613 114.15 86.5413 113.98 85.9413 113.64C85.3513 113.29 84.9013 112.82 84.5913 112.23C84.2813 111.64 84.1263 110.985 84.1263 110.265C84.1263 109.575 84.2663 108.945 84.5463 108.375C84.8363 107.795 85.2513 107.34 85.7913 107.01C86.3413 106.67 86.9863 106.5 87.7263 106.5C88.6663 106.5 89.4263 106.775 90.0063 107.325C90.5963 107.875 90.8913 108.635 90.8913 109.605C90.8913 109.855 90.8713 110.095 90.8313 110.325H85.5063C85.5963 111.275 85.8863 111.95 86.3763 112.35C86.8663 112.75 87.4963 112.95 88.2663 112.95C89.0363 112.95 89.7413 112.805 90.3813 112.515L90.5613 113.58C89.7113 113.96 88.8913 114.15 88.1013 114.15ZM89.4963 109.395C89.4963 108.865 89.3463 108.45 89.0463 108.15C88.7463 107.85 88.2963 107.7 87.6963 107.7C87.1163 107.7 86.6613 107.845 86.3313 108.135C86.0013 108.415 85.7663 108.835 85.6263 109.395H89.4963ZM93.6621 114.15C92.9821 114.15 92.4321 113.95 92.0121 113.55C91.6021 113.15 91.3971 112.64 91.3971 112.02C91.3971 111.09 91.8371 110.425 92.7171 110.025C93.5971 109.625 94.6221 109.415 95.7921 109.395C95.7921 108.735 95.6621 108.29 95.4021 108.06C95.1521 107.82 94.7471 107.7 94.1871 107.7C93.8771 107.7 93.5671 107.75 93.2571 107.85C92.9471 107.94 92.6121 108.11 92.2521 108.36L92.0571 107.265C92.3571 107.035 92.7271 106.85 93.1671 106.71C93.6071 106.57 94.0671 106.5 94.5471 106.5C95.1771 106.5 95.6771 106.61 96.0471 106.83C96.4271 107.05 96.7021 107.415 96.8721 107.925C97.0521 108.435 97.1421 109.135 97.1421 110.025V111.525C97.1421 111.925 97.1571 112.23 97.1871 112.44C97.2271 112.64 97.3071 112.795 97.4271 112.905C97.5471 113.015 97.7321 113.07 97.9821 113.07H98.1171L97.9071 114.15H97.8021C97.3821 114.15 97.0521 114.11 96.8121 114.03C96.5721 113.95 96.3871 113.835 96.2571 113.685C96.1371 113.535 96.0221 113.33 95.9121 113.07C95.2921 113.79 94.5421 114.15 93.6621 114.15ZM93.9171 113.07C94.2771 113.07 94.6221 112.98 94.9521 112.8C95.2921 112.62 95.5721 112.38 95.7921 112.08V110.325C94.7121 110.365 93.9371 110.51 93.4671 110.76C93.0071 111 92.7771 111.395 92.7771 111.945C92.7771 112.325 92.8771 112.61 93.0771 112.8C93.2871 112.98 93.5671 113.07 93.9171 113.07ZM101.248 114.15C100.598 114.15 100.113 113.98 99.7927 113.64C99.4827 113.3 99.3277 112.885 99.3277 112.395V107.7H98.0677L98.1877 106.65H99.3277V104.835L100.678 104.7V106.65H102.613V107.7H100.678V111.57C100.678 112.08 100.708 112.43 100.768 112.62C100.828 112.81 100.953 112.935 101.143 112.995C101.343 113.045 101.703 113.07 102.223 113.07H102.568L102.463 114.15H101.248ZM106.976 106.5C107.906 106.5 108.616 106.805 109.106 107.415C109.596 108.025 109.841 108.855 109.841 109.905V114H108.491V110.07C108.491 109.26 108.341 108.665 108.041 108.285C107.751 107.895 107.296 107.7 106.676 107.7C106.296 107.7 105.946 107.79 105.626 107.97C105.306 108.14 105.036 108.385 104.816 108.705V114H103.451V102.75H104.816V107.355C105.106 107.075 105.421 106.865 105.761 106.725C106.111 106.575 106.516 106.5 106.976 106.5Z" fill="#2A2921"/>
</svg>
