<svg width="169" height="136" viewBox="0 0 169 136" fill="none" xmlns="http://www.w3.org/2000/svg">
<path d="M27.9405 53V50.725C28.9205 50.725 29.5155 50.445 29.7255 49.885C29.9355 49.3017 30.0405 48.5433 30.0405 47.61V38.37L27.4855 38.405V35.5H30.0405C30.1805 32.28 30.9272 29.9933 32.2805 28.64C33.6339 27.2633 35.6755 26.575 38.4055 26.575C40.4355 26.575 42.0572 26.82 43.2705 27.31C44.4839 27.8 45.3589 28.3717 45.8955 29.025C46.4322 29.655 46.6889 30.1917 46.6655 30.635C46.6655 31.1483 46.4905 31.6733 46.1405 32.21C45.7905 32.7233 45.2539 32.9917 44.5305 33.015C43.8772 33.0383 43.3405 32.8517 42.9205 32.455C42.5005 32.035 42.2905 31.5217 42.2905 30.915C42.2905 30.6583 42.3255 30.4133 42.3955 30.18C42.3022 30.0633 41.9989 29.8533 41.4855 29.55C40.9955 29.2233 40.2022 29.06 39.1055 29.06C37.7989 29.06 36.8422 29.34 36.2355 29.9C35.6522 30.4367 35.2789 31.1367 35.1155 32C34.9755 32.84 34.9055 33.7267 34.9055 34.66V35.5H37.8105C38.8839 35.5 39.9339 35.5 40.9605 35.5C41.9872 35.5 42.8622 35.4767 43.5855 35.43C44.3089 35.3833 44.7522 35.29 44.9155 35.15H46.8055V47.365C46.8055 47.6917 46.7939 48.1583 46.7705 48.765C46.7472 49.3483 46.7122 49.9083 46.6655 50.445C47.0622 50.3983 47.4822 50.375 47.9255 50.375C48.3689 50.3517 48.7072 50.34 48.9405 50.34V53H39.7705V50.725C40.7505 50.725 41.3339 50.445 41.5205 49.885C41.7305 49.3017 41.8355 48.5433 41.8355 47.61V41.135C41.8355 40.715 41.8472 40.2367 41.8705 39.7C41.8939 39.14 41.9289 38.6033 41.9755 38.09L34.9405 38.265L34.9755 47.295C34.9755 47.6217 34.9639 48.1 34.9405 48.73C34.9172 49.3367 34.8822 49.9083 34.8355 50.445C35.2322 50.3983 35.6755 50.375 36.1655 50.375C36.6789 50.3517 37.0522 50.34 37.2855 50.34V53H27.9405ZM50.5153 53V50.725C51.4719 50.725 52.0553 50.445 52.2653 49.885C52.4753 49.3017 52.5803 48.5433 52.5803 47.61V41.73C52.5803 41.31 52.5919 40.8433 52.6153 40.33C52.6386 39.7933 52.6736 39.2683 52.7203 38.755C52.3469 38.7783 51.9036 38.8017 51.3903 38.825C50.9003 38.825 50.5269 38.8367 50.2703 38.86V36.2C51.8803 36.2 53.1169 36.0833 53.9803 35.85C54.8669 35.6167 55.4269 35.3833 55.6603 35.15H57.3753C57.4219 35.4533 57.4453 35.675 57.4453 35.815C57.4453 35.955 57.4453 36.095 57.4453 36.235C57.4686 36.3517 57.5153 36.5733 57.5853 36.9C58.0519 36.5267 58.5886 36.2 59.1953 35.92C59.8019 35.6167 60.4086 35.3833 61.0153 35.22C61.6219 35.0333 62.1586 34.94 62.6253 34.94C64.7719 34.94 66.2886 35.5583 67.1753 36.795C68.0853 38.0083 68.5403 39.9683 68.5403 42.675V47.365C68.5403 47.6917 68.5286 48.1583 68.5053 48.765C68.4819 49.3483 68.4469 49.9083 68.4003 50.445C68.7969 50.3983 69.2169 50.375 69.6603 50.375C70.1036 50.3517 70.4419 50.34 70.6753 50.34V53H61.5053V50.725C62.4853 50.725 63.0803 50.445 63.2903 49.885C63.5003 49.3017 63.6053 48.5433 63.6053 47.61L63.5703 42.64C63.5703 41.1233 63.3486 40.0033 62.9053 39.28C62.4853 38.5333 61.7619 38.16 60.7353 38.16C60.1519 38.16 59.5686 38.2883 58.9853 38.545C58.4253 38.8017 57.9469 39.105 57.5503 39.455V47.365C57.5503 47.6917 57.5386 48.1583 57.5153 48.765C57.4919 49.3483 57.4569 49.9083 57.4103 50.445C57.7836 50.3983 58.1919 50.375 58.6353 50.375C59.1019 50.3517 59.4519 50.34 59.6853 50.34V53H50.5153ZM78.8212 53.56C77.4212 53.56 76.1846 53.1983 75.1112 52.475C74.0612 51.7517 73.2329 50.725 72.6262 49.395C72.0429 48.065 71.7512 46.5017 71.7512 44.705C71.7512 42.815 72.1129 41.135 72.8362 39.665C73.5596 38.195 74.5746 37.04 75.8812 36.2C77.1879 35.36 78.7046 34.94 80.4312 34.94C81.0612 34.94 81.6212 35.01 82.1112 35.15C82.6246 35.2667 83.1029 35.4067 83.5462 35.57V33.26C83.5462 32.9333 83.5579 32.4667 83.5812 31.86C83.6046 31.2533 83.6396 30.6933 83.6862 30.18C83.3129 30.2033 82.8696 30.2267 82.3562 30.25C81.8429 30.2733 81.4579 30.285 81.2012 30.285V27.625C82.8346 27.625 84.0829 27.5083 84.9462 27.275C85.8096 27.0417 86.3579 26.8083 86.5912 26.575H88.4813V47.365C88.4813 47.6917 88.4696 48.1583 88.4462 48.765C88.4229 49.3483 88.3879 49.9083 88.3412 50.445C88.7379 50.3983 89.1579 50.375 89.6013 50.375C90.0446 50.3517 90.3829 50.34 90.6162 50.34V53H83.9662C83.9429 52.7433 83.9079 52.475 83.8612 52.195C83.8379 51.915 83.8029 51.6467 83.7562 51.39C82.9862 52.1833 82.1929 52.7433 81.3762 53.07C80.5596 53.3967 79.7079 53.56 78.8212 53.56ZM80.6412 50.375C81.2479 50.375 81.8079 50.2233 82.3212 49.92C82.8346 49.5933 83.2429 49.185 83.5462 48.695V38.195C83.3129 38.0083 82.9629 37.8567 82.4962 37.74C82.0296 37.6 81.5512 37.53 81.0612 37.53C79.9879 37.5533 79.1479 37.8917 78.5412 38.545C77.9346 39.1983 77.5029 40.0267 77.2462 41.03C77.0129 42.0333 76.8962 43.0833 76.8962 44.18C76.8962 45.16 77.0129 46.1283 77.2462 47.085C77.5029 48.0417 77.8996 48.835 78.4362 49.465C78.9962 50.0717 79.7312 50.375 80.6412 50.375ZM92.2159 50.725C93.1725 50.725 93.7559 50.445 93.9659 49.885C94.1759 49.3017 94.2809 48.5433 94.2809 47.61V41.8C94.2809 41.38 94.2925 40.9017 94.3159 40.365C94.3392 39.805 94.3742 39.2683 94.4209 38.755C94.0475 38.7783 93.6042 38.8017 93.0909 38.825C92.6009 38.825 92.2275 38.8367 91.9709 38.86V36.2C93.5809 36.2 94.8175 36.0833 95.6809 35.85C96.5675 35.6167 97.1275 35.3833 97.3609 35.15H99.2509V47.365C99.2509 47.6917 99.2392 48.1583 99.2159 48.765C99.1925 49.3483 99.1575 49.9083 99.1109 50.445C99.4842 50.3983 99.8925 50.375 100.336 50.375C100.803 50.3517 101.153 50.34 101.386 50.34V53H92.2159V50.725ZM96.5909 32.385C95.7975 32.385 95.1442 32.105 94.6309 31.545C94.1175 30.985 93.8609 30.3083 93.8609 29.515C93.8609 28.7217 94.1292 28.045 94.6659 27.485C95.2025 26.925 95.8325 26.645 96.5559 26.645C97.3025 26.645 97.9209 26.925 98.4109 27.485C98.9242 28.045 99.1809 28.7217 99.1809 29.515C99.1809 30.3083 98.9475 30.985 98.4809 31.545C98.0142 32.105 97.3842 32.385 96.5909 32.385ZM102.966 53V50.725C103.923 50.725 104.506 50.445 104.716 49.885C104.926 49.3017 105.031 48.5433 105.031 47.61V41.73C105.031 41.31 105.043 40.8433 105.066 40.33C105.089 39.7933 105.124 39.2683 105.171 38.755C104.798 38.7783 104.354 38.8017 103.841 38.825C103.351 38.825 102.978 38.8367 102.721 38.86V36.2C104.331 36.2 105.568 36.0833 106.431 35.85C107.318 35.6167 107.878 35.3833 108.111 35.15H109.826C109.873 35.4533 109.896 35.675 109.896 35.815C109.896 35.955 109.896 36.095 109.896 36.235C109.919 36.3517 109.966 36.5733 110.036 36.9C110.503 36.5267 111.039 36.2 111.646 35.92C112.253 35.6167 112.859 35.3833 113.466 35.22C114.073 35.0333 114.609 34.94 115.076 34.94C117.223 34.94 118.739 35.5583 119.626 36.795C120.536 38.0083 120.991 39.9683 120.991 42.675V47.365C120.991 47.6917 120.979 48.1583 120.956 48.765C120.933 49.3483 120.898 49.9083 120.851 50.445C121.248 50.3983 121.668 50.375 122.111 50.375C122.554 50.3517 122.893 50.34 123.126 50.34V53H113.956V50.725C114.936 50.725 115.531 50.445 115.741 49.885C115.951 49.3017 116.056 48.5433 116.056 47.61L116.021 42.64C116.021 41.1233 115.799 40.0033 115.356 39.28C114.936 38.5333 114.213 38.16 113.186 38.16C112.603 38.16 112.019 38.2883 111.436 38.545C110.876 38.8017 110.398 39.105 110.001 39.455V47.365C110.001 47.6917 109.989 48.1583 109.966 48.765C109.943 49.3483 109.908 49.9083 109.861 50.445C110.234 50.3983 110.643 50.375 111.086 50.375C111.553 50.3517 111.903 50.34 112.136 50.34V53H102.966ZM132.042 62.485C130.035 62.485 128.449 62.2633 127.282 61.82C126.115 61.4 125.287 60.84 124.797 60.14C124.307 59.44 124.062 58.6933 124.062 57.9C124.062 57.1767 124.295 56.4417 124.762 55.695C125.252 54.9483 126.127 54.3417 127.387 53.875C126.43 53.6183 125.754 53.21 125.357 52.65C124.984 52.0667 124.797 51.4483 124.797 50.795C124.797 50.1883 125.042 49.5117 125.532 48.765C126.022 47.995 126.909 47.4117 128.192 47.015C127.212 46.6183 126.407 46 125.777 45.16C125.147 44.32 124.809 43.305 124.762 42.115C124.715 40.715 125.065 39.4783 125.812 38.405C126.559 37.3083 127.539 36.4567 128.752 35.85C129.965 35.2433 131.237 34.94 132.567 34.94C133.174 34.94 133.874 35.0217 134.667 35.185C135.46 35.3483 136.149 35.6283 136.732 36.025C136.989 35.3017 137.315 34.625 137.712 33.995C138.132 33.3417 138.634 32.8167 139.217 32.42C139.8 32 140.454 31.79 141.177 31.79C141.97 31.79 142.565 32 142.962 32.42C143.382 32.8167 143.592 33.3533 143.592 34.03C143.592 34.31 143.522 34.625 143.382 34.975C143.265 35.3017 143.044 35.5817 142.717 35.815C142.414 36.0483 141.982 36.165 141.422 36.165C141.072 36.165 140.722 36.0367 140.372 35.78C140.022 35.5 139.812 35.1733 139.742 34.8C139.439 34.8933 139.135 35.1967 138.832 35.71C138.529 36.2233 138.354 36.6783 138.307 37.075C139.684 38.265 140.372 39.77 140.372 41.59C140.372 42.9433 139.987 44.145 139.217 45.195C138.47 46.2217 137.49 47.0383 136.277 47.645C135.087 48.2283 133.804 48.52 132.427 48.52C132.124 48.52 131.785 48.5083 131.412 48.485C131.039 48.4383 130.677 48.415 130.327 48.415C129.814 48.415 129.382 48.5083 129.032 48.695C128.682 48.8817 128.507 49.1383 128.507 49.465C128.507 49.9083 128.845 50.2117 129.522 50.375C130.199 50.5383 131.354 50.6667 132.987 50.76C134.784 50.8533 136.347 51.0867 137.677 51.46C139.03 51.81 140.08 52.37 140.827 53.14C141.574 53.91 141.947 54.9717 141.947 56.325C141.947 57.3283 141.655 58.2033 141.072 58.95C140.489 59.72 139.707 60.3617 138.727 60.875C137.77 61.4117 136.709 61.8083 135.542 62.065C134.375 62.345 133.209 62.485 132.042 62.485ZM132.567 46.175C133.197 46.175 133.722 45.9767 134.142 45.58C134.585 45.1833 134.912 44.6817 135.122 44.075C135.355 43.4683 135.472 42.85 135.472 42.22C135.472 41.4033 135.367 40.6217 135.157 39.875C134.947 39.105 134.62 38.4867 134.177 38.02C133.757 37.53 133.209 37.285 132.532 37.285C131.599 37.285 130.875 37.705 130.362 38.545C129.849 39.385 129.592 40.3417 129.592 41.415C129.592 42.2317 129.709 43.0133 129.942 43.76C130.175 44.4833 130.514 45.0667 130.957 45.51C131.4 45.9533 131.937 46.175 132.567 46.175ZM133.057 60.07C134.714 60.07 135.962 59.7667 136.802 59.16C137.665 58.5533 138.097 57.9233 138.097 57.27C138.097 55.87 136.417 55.1 133.057 54.96C132.544 54.9133 131.949 54.8783 131.272 54.855C130.595 54.8317 130 54.7733 129.487 54.68C129.137 54.96 128.869 55.31 128.682 55.73C128.495 56.15 128.39 56.5583 128.367 56.955C128.32 57.8883 128.717 58.635 129.557 59.195C130.42 59.7783 131.587 60.07 133.057 60.07ZM19.5879 82.11C20.3112 81.1767 21.1979 80.4533 22.2479 79.94C23.2979 79.4267 24.3829 79.17 25.5029 79.17C28.9562 79.17 30.6829 80.99 30.6829 84.63V98H27.7429V84.665C27.7429 83.5683 27.4862 82.775 26.9729 82.285C26.4595 81.7717 25.6429 81.515 24.5229 81.515C23.5662 81.515 22.6445 81.8183 21.7579 82.425C20.8712 83.0317 20.1479 83.7433 19.5879 84.56V98H16.6479V72.17L19.5879 71.855V82.11ZM50.1642 93.975C50.1642 94.6983 50.2808 95.235 50.5142 95.585C50.7475 95.9117 51.1325 96.1567 51.6692 96.32L50.9342 98.42C49.1375 98.1867 48.0175 97.3117 47.5742 95.795C46.9208 96.635 46.0925 97.2767 45.0892 97.72C44.1092 98.1633 43.0125 98.385 41.7992 98.385C39.9558 98.385 38.4975 97.8717 37.4242 96.845C36.3742 95.8183 35.8492 94.4417 35.8492 92.715C35.8492 90.825 36.5842 89.3667 38.0542 88.34C39.5475 87.3133 41.6825 86.8 44.4592 86.8H47.1892V85.295C47.1892 83.9883 46.8158 83.055 46.0692 82.495C45.3225 81.9117 44.2375 81.62 42.8142 81.62C41.4142 81.62 39.8158 81.935 38.0192 82.565L37.2142 80.325C39.3842 79.555 41.4025 79.17 43.2692 79.17C45.5092 79.17 47.2125 79.695 48.3792 80.745C49.5692 81.795 50.1642 83.2533 50.1642 85.12V93.975ZM42.5342 96.18C43.4442 96.18 44.3075 95.9467 45.1242 95.48C45.9642 95.0133 46.6525 94.3717 47.1892 93.555V88.83H44.5292C42.5692 88.83 41.1575 89.1567 40.2942 89.81C39.4308 90.4633 38.9992 91.42 38.9992 92.68C38.9992 95.0133 40.1775 96.18 42.5342 96.18ZM69.6805 79.17C70.4272 79.17 71.2905 79.2983 72.2705 79.555L71.8505 85.82H69.4705V81.865H69.2955C66.4488 81.865 64.4305 83.895 63.2405 87.955V95.725H66.9855V98H57.3955V95.725H60.3005V81.83H57.3955V79.555H62.5055L63.0655 83.93C63.8122 82.3433 64.6988 81.1533 65.7255 80.36C66.7755 79.5667 68.0938 79.17 69.6805 79.17ZM89.6518 79.17C90.7018 79.17 91.5535 79.5433 92.2068 80.29C92.8835 81.0133 93.2218 82.3433 93.2218 84.28V98H90.5268V84.77C90.5268 83.4867 90.4452 82.6233 90.2818 82.18C90.1185 81.7133 89.7218 81.48 89.0918 81.48C87.9018 81.48 86.8285 82.215 85.8718 83.685V98H83.1418V84.77C83.1418 83.4867 83.0602 82.6233 82.8968 82.18C82.7335 81.7133 82.3368 81.48 81.7068 81.48C80.5168 81.48 79.4435 82.215 78.4868 83.685V98H75.7918V79.555H78.0668L78.2768 81.725C78.8368 80.9083 79.4202 80.2783 80.0268 79.835C80.6568 79.3917 81.4035 79.17 82.2668 79.17C83.9935 79.17 85.1018 79.9867 85.5918 81.62C86.1518 80.8267 86.7468 80.22 87.3768 79.8C88.0068 79.38 88.7652 79.17 89.6518 79.17ZM104.828 79.17C107.371 79.17 109.32 80.0333 110.673 81.76C112.05 83.4633 112.738 85.7967 112.738 88.76C112.738 91.6533 112.038 93.9867 110.638 95.76C109.261 97.51 107.313 98.385 104.793 98.385C102.25 98.385 100.29 97.5333 98.9132 95.83C97.5365 94.1033 96.8482 91.7583 96.8482 88.795C96.8482 85.8783 97.5365 83.545 98.9132 81.795C100.313 80.045 102.285 79.17 104.828 79.17ZM104.828 81.585C103.218 81.585 102.016 82.18 101.223 83.37C100.43 84.56 100.033 86.3683 100.033 88.795C100.033 91.2217 100.418 93.03 101.188 94.22C101.981 95.3867 103.183 95.97 104.793 95.97C106.403 95.97 107.593 95.3867 108.363 94.22C109.156 93.03 109.553 91.21 109.553 88.76C109.553 86.3333 109.156 84.5367 108.363 83.37C107.593 82.18 106.415 81.585 104.828 81.585ZM118.079 79.555H120.599L120.844 82.145C121.568 81.2117 122.478 80.4883 123.574 79.975C124.694 79.4383 125.814 79.17 126.934 79.17C130.388 79.17 132.114 80.99 132.114 84.63V98H129.174V86.8C129.174 85.4233 129.093 84.3733 128.929 83.65C128.789 82.9267 128.498 82.39 128.054 82.04C127.611 81.69 126.934 81.515 126.024 81.515C125.021 81.515 124.076 81.8183 123.189 82.425C122.303 83.0317 121.579 83.755 121.019 84.595V98H118.079V79.555ZM147.256 98.105C146.532 100.228 145.541 101.92 144.281 103.18C143.021 104.44 141.259 105.187 138.996 105.42L138.576 103.075C139.812 102.865 140.792 102.538 141.516 102.095C142.262 101.675 142.846 101.138 143.266 100.485C143.686 99.855 144.071 99.0267 144.421 98H143.441L137.036 79.555H140.151L145.436 95.76L150.651 79.555H153.696L147.256 98.105Z" fill="#2A2921"/>
</svg>
