<svg width="169" height="136" viewBox="0 0 169 136" fill="none" xmlns="http://www.w3.org/2000/svg">
<path d="M31.3997 57V45.975H28.8097V41.635H31.3997V36.315C31.3997 34.3083 31.9713 32.675 33.1147 31.415C34.2813 30.1317 35.9613 29.49 38.1547 29.49C38.808 29.49 39.5313 29.595 40.3247 29.805C41.1413 29.9917 41.853 30.3067 42.4597 30.75L40.3947 34.285C40.1613 33.9817 39.8813 33.7833 39.5547 33.69C39.2513 33.5733 38.9597 33.515 38.6797 33.515C37.9797 33.515 37.408 33.7483 36.9647 34.215C36.5213 34.6817 36.2997 35.4283 36.2997 36.455V41.635H40.2197V45.975H36.2997V57H31.3997ZM42.0747 36.28C42.0747 35.5567 42.3547 34.9617 42.9147 34.495C43.498 34.0283 44.1163 33.795 44.7697 33.795C45.423 33.795 46.018 34.0283 46.5547 34.495C47.1147 34.9617 47.3947 35.5567 47.3947 36.28C47.3947 37.0033 47.1147 37.5983 46.5547 38.065C46.018 38.5083 45.423 38.73 44.7697 38.73C44.1163 38.73 43.498 38.5083 42.9147 38.065C42.3547 37.5983 42.0747 37.0033 42.0747 36.28ZM42.1797 41.705H47.0797V57H42.1797V41.705ZM55.8573 41.705L56.2073 44.155C56.744 43.1983 57.5023 42.4283 58.4823 41.845C59.4623 41.2617 60.6523 40.97 62.0523 40.97C63.499 40.97 64.7006 41.4017 65.6573 42.265C66.6373 43.105 67.139 44.2017 67.1623 45.555V57H62.2623V47.375C62.239 46.6983 62.0523 46.1617 61.7023 45.765C61.3756 45.345 60.8156 45.135 60.0223 45.135C58.879 45.135 57.969 45.6717 57.2923 46.745C56.639 47.795 56.3123 49.1367 56.3123 50.77V57H51.4123V41.705H55.8573ZM77.7235 57.42C76.3002 57.42 75.0285 57.0933 73.9085 56.44C72.7885 55.7633 71.9019 54.795 71.2485 53.535C70.6185 52.275 70.3035 50.7817 70.3035 49.055C70.3035 47.3283 70.6535 45.8583 71.3535 44.645C72.0535 43.4317 73.0102 42.51 74.2235 41.88C75.4369 41.25 76.8135 40.935 78.3535 40.935C79.3335 40.935 80.2669 41.0867 81.1535 41.39C82.0635 41.6933 82.8219 42.16 83.4285 42.79V29.385H88.2935V57H83.3935V55.39C82.6469 55.9733 81.8069 56.4633 80.8735 56.86C79.9402 57.2333 78.8902 57.42 77.7235 57.42ZM79.3335 53.29C80.3135 53.29 81.1302 53.1033 81.7835 52.73C82.4369 52.3333 82.9735 51.75 83.3935 50.98V47.235C83.1135 46.4883 82.6119 45.8933 81.8885 45.45C81.1652 45.0067 80.3135 44.785 79.3335 44.785C78.6102 44.785 77.9335 44.9717 77.3035 45.345C76.6969 45.695 76.2069 46.185 75.8335 46.815C75.4602 47.445 75.2735 48.1683 75.2735 48.985C75.2735 49.8017 75.4602 50.5367 75.8335 51.19C76.2069 51.8433 76.6969 52.3567 77.3035 52.73C77.9335 53.1033 78.6102 53.29 79.3335 53.29ZM92.6344 41.705H97.5344V57H92.6344V41.705ZM92.5294 36.28C92.5294 35.5567 92.8094 34.9617 93.3694 34.495C93.9527 34.0283 94.571 33.795 95.2244 33.795C95.8777 33.795 96.4727 34.0283 97.0094 34.495C97.5694 34.9617 97.8494 35.5567 97.8494 36.28C97.8494 37.0033 97.5694 37.5983 97.0094 38.065C96.4727 38.5083 95.8777 38.73 95.2244 38.73C94.571 38.73 93.9527 38.5083 93.3694 38.065C92.8094 37.5983 92.5294 37.0033 92.5294 36.28ZM106.326 41.705L106.676 44.155C107.212 43.1983 107.971 42.4283 108.951 41.845C109.931 41.2617 111.121 40.97 112.521 40.97C113.967 40.97 115.169 41.4017 116.126 42.265C117.106 43.105 117.607 44.2017 117.631 45.555V57H112.731V47.375C112.707 46.6983 112.521 46.1617 112.171 45.765C111.844 45.345 111.284 45.135 110.491 45.135C109.347 45.135 108.437 45.6717 107.761 46.745C107.107 47.795 106.781 49.1367 106.781 50.77V57H101.881V41.705H106.326ZM129.872 64.7C128.495 64.7 127.329 64.5367 126.372 64.21C125.439 63.8833 124.645 63.4867 123.992 63.02C123.339 62.5533 122.755 62.11 122.242 61.69L125.112 58.33C125.649 58.82 126.267 59.2867 126.967 59.73C127.69 60.1967 128.635 60.43 129.802 60.43C130.969 60.43 131.984 60.1267 132.847 59.52C133.734 58.9367 134.177 58.0733 134.177 56.93V54.76C133.734 55.4833 133.045 56.1133 132.112 56.65C131.179 57.1633 129.965 57.42 128.472 57.42C127.095 57.42 125.812 57.07 124.622 56.37C123.455 55.6467 122.522 54.6783 121.822 53.465C121.122 52.2283 120.772 50.8283 120.772 49.265C120.772 47.655 121.145 46.2317 121.892 44.995C122.639 43.735 123.607 42.7433 124.797 42.02C125.987 41.2967 127.247 40.935 128.577 40.935C129.907 40.935 131.05 41.1333 132.007 41.53C132.987 41.9033 133.71 42.3583 134.177 42.895L134.562 41.705H139.077V57C139.077 58.4933 138.657 59.8117 137.817 60.955C136.977 62.1217 135.857 63.0317 134.457 63.685C133.08 64.3617 131.552 64.7 129.872 64.7ZM125.707 49.125C125.707 50.3383 126.115 51.365 126.932 52.205C127.749 53.0217 128.752 53.43 129.942 53.43C131.902 53.43 133.314 52.66 134.177 51.12V47.375C133.85 46.6283 133.314 46.0333 132.567 45.59C131.82 45.1467 130.945 44.925 129.942 44.925C128.752 44.925 127.749 45.3217 126.932 46.115C126.115 46.885 125.707 47.8883 125.707 49.125ZM13.6346 75.75H22.0696V88.56C22.4429 87.4867 23.0146 86.6233 23.7846 85.97C24.5546 85.3167 25.7212 84.99 27.2846 84.99C30.9012 84.99 32.7096 86.9383 32.7096 90.835V101.37H34.6696V102H24.7646V101.37H26.1996V89.995C26.1996 88.595 26.1062 87.6967 25.9196 87.3C25.7329 86.88 25.3946 86.67 24.9046 86.67C24.1579 86.67 23.4929 87.16 22.9096 88.14C22.3496 89.12 22.0696 90.31 22.0696 91.71V101.37H23.5746V102H13.6346V101.37H15.5596V76.38H13.6346V75.75ZM42.902 93.775H43.917V91.08C43.917 88.8633 43.7886 87.3817 43.532 86.635C43.2986 85.865 42.832 85.48 42.132 85.48C41.712 85.48 41.327 85.5967 40.977 85.83C40.6503 86.04 40.487 86.3433 40.487 86.74C40.487 87.1133 40.557 87.4983 40.697 87.895H41.572C41.7586 88.385 41.852 88.98 41.852 89.68C41.852 90.3567 41.5603 90.9517 40.977 91.465C40.3936 91.955 39.6586 92.2 38.772 92.2C36.7653 92.2 35.762 91.2317 35.762 89.295C35.762 86.425 38.2003 84.99 43.077 84.99C45.8536 84.99 47.767 85.4683 48.817 86.425C49.8903 87.3583 50.427 89.085 50.427 91.605V98.71C50.427 99.9233 50.7653 100.53 51.442 100.53C52.2353 100.53 52.702 99.3283 52.842 96.925L53.367 96.96C53.2736 99.0133 52.8886 100.425 52.212 101.195C51.5353 101.965 50.427 102.35 48.887 102.35C46.087 102.35 44.477 101.487 44.057 99.76C43.7536 100.647 43.2986 101.3 42.692 101.72C42.0853 102.14 41.1986 102.35 40.032 102.35C36.5786 102.35 34.852 100.938 34.852 98.115C34.852 96.4583 35.5053 95.3267 36.812 94.72C38.142 94.09 40.172 93.775 42.902 93.775ZM41.502 98.08C41.502 99.2933 41.5603 100.075 41.677 100.425C41.817 100.775 42.062 100.95 42.412 100.95C42.7853 100.95 43.1236 100.658 43.427 100.075C43.7536 99.4683 43.917 98.64 43.917 97.59V94.335H43.672C42.2253 94.335 41.502 95.3967 41.502 97.52V98.08ZM64.7009 86.32C63.8376 86.32 63.0793 86.88 62.4259 88C61.7726 89.12 61.4459 90.45 61.4459 91.99V101.37H63.9309V102H53.0109V101.37H54.9359V85.97H53.0109V85.34H61.4459V88.7C61.7493 87.51 62.3326 86.6 63.1959 85.97C64.0593 85.3167 65.0393 84.99 66.1359 84.99C67.2326 84.99 68.1193 85.305 68.7959 85.935C69.4959 86.5417 69.8459 87.4167 69.8459 88.56C69.8459 89.68 69.5893 90.5433 69.0759 91.15C68.5626 91.7567 67.7693 92.06 66.6959 92.06C65.6459 92.06 64.8643 91.71 64.3509 91.01C63.8609 90.31 63.8026 89.3417 64.1759 88.105H65.4359C66.0193 86.915 65.7743 86.32 64.7009 86.32ZM69.64 85.34H78.075V88.56C78.845 86.18 80.5367 84.99 83.15 84.99C85.7867 84.99 87.385 86.25 87.945 88.77C88.7617 86.25 90.4767 84.99 93.09 84.99C96.52 84.99 98.235 86.9383 98.235 90.835V101.37H100.195V102H90.5V101.37H91.725V89.995C91.725 88.2217 91.5734 87.1833 91.27 86.88C91.13 86.74 90.9434 86.67 90.71 86.67C90.0334 86.67 89.4384 87.125 88.925 88.035C88.4117 88.945 88.155 90.1 88.155 91.5V101.37H89.415V102H80.42V101.37H81.645V89.995C81.645 88.2217 81.4934 87.1833 81.19 86.88C81.05 86.74 80.8634 86.67 80.63 86.67C79.9767 86.67 79.3817 87.1717 78.845 88.175C78.3317 89.155 78.075 90.3333 78.075 91.71V101.37H79.335V102H69.64V101.37H71.565V85.97H69.64V85.34ZM111.314 95.105V92.13C111.314 89.8667 111.186 88.2217 110.929 87.195C110.696 86.145 110.136 85.62 109.249 85.62C108.736 85.62 108.316 85.7717 107.989 86.075C107.686 86.355 107.464 86.8333 107.324 87.51C107.114 88.56 107.009 90.1583 107.009 92.305V95.035C107.009 97.5783 107.079 99.1067 107.219 99.62C107.383 100.133 107.546 100.553 107.709 100.88C107.966 101.44 108.468 101.72 109.214 101.72C110.124 101.72 110.719 101.195 110.999 100.145C111.209 99.3983 111.314 97.7183 111.314 95.105ZM109.144 102.35C106.228 102.35 104.023 101.603 102.529 100.11C101.036 98.6167 100.289 96.4817 100.289 93.705C100.289 90.905 101.083 88.7583 102.669 87.265C104.279 85.7483 106.531 84.99 109.424 84.99C112.318 84.99 114.476 85.69 115.899 87.09C117.323 88.4667 118.034 90.5783 118.034 93.425C118.034 99.375 115.071 102.35 109.144 102.35ZM118.383 85.34H126.818V88.56C127.192 87.4867 127.763 86.6233 128.533 85.97C129.303 85.3167 130.47 84.99 132.033 84.99C135.65 84.99 137.458 86.9383 137.458 90.835V101.37H139.418V102H129.513V101.37H130.948V89.995C130.948 88.595 130.855 87.6967 130.668 87.3C130.482 86.88 130.143 86.67 129.653 86.67C128.907 86.67 128.242 87.16 127.658 88.14C127.098 89.12 126.818 90.31 126.818 91.71V101.37H128.323V102H118.383V101.37H120.308V85.97H118.383V85.34ZM137.263 85.97V85.34H147.413V85.97H145.523L149.338 97.59L153.398 85.97H151.053V85.34H155.988V85.97H154.238L147.693 104.835C146.923 107.028 146.059 108.557 145.103 109.42C144.146 110.307 142.979 110.75 141.603 110.75C140.226 110.75 139.141 110.435 138.348 109.805C137.554 109.175 137.158 108.37 137.158 107.39C137.158 106.41 137.414 105.663 137.928 105.15C138.441 104.637 139.118 104.38 139.958 104.38C141.894 104.38 142.863 105.185 142.863 106.795C142.863 107.145 142.793 107.565 142.653 108.055H141.428C141.241 108.592 141.218 109.035 141.358 109.385C141.498 109.735 141.813 109.91 142.303 109.91C143.259 109.91 144.111 109.432 144.858 108.475C145.604 107.542 146.316 106.107 146.993 104.17L147.763 102H144.683L138.698 85.97H137.263Z" fill="#2A2921"/>
</svg>
