<svg width="169" height="136" viewBox="0 0 169 136" fill="none" xmlns="http://www.w3.org/2000/svg">
<path d="M31.3997 49V37.975H28.8097V33.635H31.3997V28.315C31.3997 26.3083 31.9713 24.675 33.1147 23.415C34.2813 22.1317 35.9613 21.49 38.1547 21.49C38.808 21.49 39.5313 21.595 40.3247 21.805C41.1413 21.9917 41.853 22.3067 42.4597 22.75L40.3947 26.285C40.1613 25.9817 39.8813 25.7833 39.5547 25.69C39.2513 25.5733 38.9597 25.515 38.6797 25.515C37.9797 25.515 37.408 25.7483 36.9647 26.215C36.5213 26.6817 36.2997 27.4283 36.2997 28.455V33.635H40.2197V37.975H36.2997V49H31.3997ZM42.0747 28.28C42.0747 27.5567 42.3547 26.9617 42.9147 26.495C43.498 26.0283 44.1163 25.795 44.7697 25.795C45.423 25.795 46.018 26.0283 46.5547 26.495C47.1147 26.9617 47.3947 27.5567 47.3947 28.28C47.3947 29.0033 47.1147 29.5983 46.5547 30.065C46.018 30.5083 45.423 30.73 44.7697 30.73C44.1163 30.73 43.498 30.5083 42.9147 30.065C42.3547 29.5983 42.0747 29.0033 42.0747 28.28ZM42.1797 33.705H47.0797V49H42.1797V33.705ZM55.8573 33.705L56.2073 36.155C56.744 35.1983 57.5023 34.4283 58.4823 33.845C59.4623 33.2617 60.6523 32.97 62.0523 32.97C63.499 32.97 64.7006 33.4017 65.6573 34.265C66.6373 35.105 67.139 36.2017 67.1623 37.555V49H62.2623V39.375C62.239 38.6983 62.0523 38.1617 61.7023 37.765C61.3756 37.345 60.8156 37.135 60.0223 37.135C58.879 37.135 57.969 37.6717 57.2923 38.745C56.639 39.795 56.3123 41.1367 56.3123 42.77V49H51.4123V33.705H55.8573ZM77.7235 49.42C76.3002 49.42 75.0285 49.0933 73.9085 48.44C72.7885 47.7633 71.9019 46.795 71.2485 45.535C70.6185 44.275 70.3035 42.7817 70.3035 41.055C70.3035 39.3283 70.6535 37.8583 71.3535 36.645C72.0535 35.4317 73.0102 34.51 74.2235 33.88C75.4369 33.25 76.8135 32.935 78.3535 32.935C79.3335 32.935 80.2669 33.0867 81.1535 33.39C82.0635 33.6933 82.8219 34.16 83.4285 34.79V21.385H88.2935V49H83.3935V47.39C82.6469 47.9733 81.8069 48.4633 80.8735 48.86C79.9402 49.2333 78.8902 49.42 77.7235 49.42ZM79.3335 45.29C80.3135 45.29 81.1302 45.1033 81.7835 44.73C82.4369 44.3333 82.9735 43.75 83.3935 42.98V39.235C83.1135 38.4883 82.6119 37.8933 81.8885 37.45C81.1652 37.0067 80.3135 36.785 79.3335 36.785C78.6102 36.785 77.9335 36.9717 77.3035 37.345C76.6969 37.695 76.2069 38.185 75.8335 38.815C75.4602 39.445 75.2735 40.1683 75.2735 40.985C75.2735 41.8017 75.4602 42.5367 75.8335 43.19C76.2069 43.8433 76.6969 44.3567 77.3035 44.73C77.9335 45.1033 78.6102 45.29 79.3335 45.29ZM92.6344 33.705H97.5344V49H92.6344V33.705ZM92.5294 28.28C92.5294 27.5567 92.8094 26.9617 93.3694 26.495C93.9527 26.0283 94.571 25.795 95.2244 25.795C95.8777 25.795 96.4727 26.0283 97.0094 26.495C97.5694 26.9617 97.8494 27.5567 97.8494 28.28C97.8494 29.0033 97.5694 29.5983 97.0094 30.065C96.4727 30.5083 95.8777 30.73 95.2244 30.73C94.571 30.73 93.9527 30.5083 93.3694 30.065C92.8094 29.5983 92.5294 29.0033 92.5294 28.28ZM106.326 33.705L106.676 36.155C107.212 35.1983 107.971 34.4283 108.951 33.845C109.931 33.2617 111.121 32.97 112.521 32.97C113.967 32.97 115.169 33.4017 116.126 34.265C117.106 35.105 117.607 36.2017 117.631 37.555V49H112.731V39.375C112.707 38.6983 112.521 38.1617 112.171 37.765C111.844 37.345 111.284 37.135 110.491 37.135C109.347 37.135 108.437 37.6717 107.761 38.745C107.107 39.795 106.781 41.1367 106.781 42.77V49H101.881V33.705H106.326ZM129.872 56.7C128.495 56.7 127.329 56.5367 126.372 56.21C125.439 55.8833 124.645 55.4867 123.992 55.02C123.339 54.5533 122.755 54.11 122.242 53.69L125.112 50.33C125.649 50.82 126.267 51.2867 126.967 51.73C127.69 52.1967 128.635 52.43 129.802 52.43C130.969 52.43 131.984 52.1267 132.847 51.52C133.734 50.9367 134.177 50.0733 134.177 48.93V46.76C133.734 47.4833 133.045 48.1133 132.112 48.65C131.179 49.1633 129.965 49.42 128.472 49.42C127.095 49.42 125.812 49.07 124.622 48.37C123.455 47.6467 122.522 46.6783 121.822 45.465C121.122 44.2283 120.772 42.8283 120.772 41.265C120.772 39.655 121.145 38.2317 121.892 36.995C122.639 35.735 123.607 34.7433 124.797 34.02C125.987 33.2967 127.247 32.935 128.577 32.935C129.907 32.935 131.05 33.1333 132.007 33.53C132.987 33.9033 133.71 34.3583 134.177 34.895L134.562 33.705H139.077V49C139.077 50.4933 138.657 51.8117 137.817 52.955C136.977 54.1217 135.857 55.0317 134.457 55.685C133.08 56.3617 131.552 56.7 129.872 56.7ZM125.707 41.125C125.707 42.3383 126.115 43.365 126.932 44.205C127.749 45.0217 128.752 45.43 129.942 45.43C131.902 45.43 133.314 44.66 134.177 43.12V39.375C133.85 38.6283 133.314 38.0333 132.567 37.59C131.82 37.1467 130.945 36.925 129.942 36.925C128.752 36.925 127.749 37.3217 126.932 38.115C126.115 38.885 125.707 39.8883 125.707 41.125ZM8.53223 93.475L10.6322 92.95V70.55L8.53223 70.025V69.5H13.0822C15.1822 69.5 16.2322 70.55 16.2322 72.65V78.25C16.5822 77.7833 16.9439 77.41 17.3172 77.13C18.3206 76.36 19.4756 75.975 20.7822 75.975C22.0889 75.975 23.2556 76.255 24.2822 76.815C25.3322 77.3517 26.1489 78.0633 26.7322 78.95C27.3156 79.8367 27.6072 80.77 27.6072 81.75V92.95L29.7072 93.475V94H25.1572C23.0572 94 22.0072 92.95 22.0072 90.85V81.75C22.0072 80.28 21.7389 79.16 21.2022 78.39C20.6889 77.5967 20.0822 77.2 19.3822 77.2C18.4956 77.2 17.7022 77.6667 17.0022 78.6C16.6989 78.9967 16.4422 79.4633 16.2322 80V92.95L18.3322 93.475V94H8.53223V93.475ZM37.9336 94.525C35.8569 94.525 34.2586 94.0817 33.1386 93.195C32.0186 92.3083 31.4586 91.1767 31.4586 89.8C31.4586 88.89 31.6569 87.9917 32.0536 87.105C32.2169 86.685 32.4269 86.3 32.6836 85.95C33.6403 85.7167 34.6786 85.5067 35.7986 85.32C38.3186 84.9 40.5469 84.6433 42.4836 84.55V83.5C42.4836 80.91 42.1686 79.125 41.5386 78.145C40.9086 77.165 39.9403 76.675 38.6336 76.675C38.1436 76.675 37.7236 76.7333 37.3736 76.85L36.8836 77.025V82.275L36.4286 82.38C36.0553 82.4267 35.7403 82.45 35.4836 82.45C34.6903 82.45 34.0486 82.2167 33.5586 81.75C33.0919 81.26 32.8586 80.6183 32.8586 79.825C32.8586 78.7517 33.3953 77.8417 34.4686 77.095C35.5653 76.3483 37.1869 75.975 39.3336 75.975C41.1536 75.975 42.7169 76.3017 44.0236 76.955C45.3536 77.585 46.3569 78.4717 47.0336 79.615C47.7336 80.735 48.0836 82.03 48.0836 83.5V92.95L50.1836 93.475V94H47.0336C45.6336 94 44.5486 93.5683 43.7786 92.705C43.4519 92.355 43.1953 91.9117 43.0086 91.375C42.6819 91.9583 42.2969 92.4833 41.8536 92.95C40.8036 94 39.4969 94.525 37.9336 94.525ZM39.3336 93.3C40.1969 93.3 40.9786 92.8333 41.6786 91.9C41.9353 91.55 42.2036 91.0833 42.4836 90.5V85.425C41.4103 85.425 40.3836 85.4833 39.4036 85.6C38.6803 85.6933 38.1903 85.7517 37.9336 85.775C37.8169 86.0317 37.7003 86.3817 37.5836 86.825C37.3503 87.7117 37.2336 88.5867 37.2336 89.45C37.2336 90.7567 37.4319 91.725 37.8286 92.355C38.2253 92.985 38.7269 93.3 39.3336 93.3ZM51.6 93.475L53.7 92.95V77.55L51.6 77.025V76.5H54.75C56.1267 76.5 57.2117 76.9433 58.005 77.83C58.3083 78.18 58.565 78.6117 58.775 79.125C59.125 78.6117 59.5567 78.145 60.07 77.725C61.2367 76.7917 62.5433 76.325 63.99 76.325C65.2267 76.325 66.1483 76.6167 66.755 77.2C67.385 77.76 67.7 78.5767 67.7 79.65C67.7 80.4433 67.455 81.085 66.965 81.575C66.4983 82.0417 65.8683 82.275 65.075 82.275C64.7483 82.275 64.4217 82.2517 64.095 82.205L63.675 82.1V77.2C62.485 77.2 61.4 77.6667 60.42 78.6C59.9533 79.0667 59.58 79.5333 59.3 80V92.95L61.4 93.475V94H51.6V93.475ZM68.5709 93.475L70.6709 92.95V77.55L68.5709 77.025V76.5H71.7209C73.0976 76.5 74.1826 76.9433 74.9759 77.83C75.2792 78.18 75.5359 78.6117 75.7459 79.125C76.0959 78.4717 76.4692 77.9467 76.8659 77.55C77.9159 76.5 79.1176 75.975 80.4709 75.975C81.8242 75.975 83.0142 76.2783 84.0409 76.885C85.0676 77.4683 85.8609 78.2733 86.4209 79.3C86.7709 78.6233 87.1442 78.075 87.5409 77.655C88.6142 76.535 89.8159 75.975 91.1459 75.975C92.3826 75.975 93.4909 76.2317 94.4709 76.745C95.4742 77.2583 96.2442 77.9583 96.7809 78.845C97.3409 79.7317 97.6209 80.7 97.6209 81.75V92.95L99.7209 93.475V94H95.1709C93.0709 94 92.0209 92.95 92.0209 90.85V81.75C92.0209 80.2333 91.7876 79.1017 91.3209 78.355C90.8542 77.585 90.3292 77.2 89.7459 77.2C89.0692 77.2 88.3809 77.6667 87.6809 78.6C87.4009 79.0433 87.1559 79.51 86.9459 80V92.95L89.0459 93.475V94H79.2459V93.475L81.3459 92.95V81.75C81.3459 80.2333 81.1126 79.1017 80.6459 78.355C80.1792 77.585 79.6542 77.2 79.0709 77.2C78.3942 77.2 77.7059 77.6667 77.0059 78.6C76.7259 79.0433 76.4809 79.51 76.2709 80V92.95L78.3709 93.475V94H68.5709V93.475ZM110.403 94.525C107.509 94.525 105.234 93.7083 103.578 92.075C101.944 90.4183 101.128 88.1433 101.128 85.25C101.128 82.3567 101.944 80.0933 103.578 78.46C105.234 76.8033 107.509 75.975 110.403 75.975C113.296 75.975 115.559 76.8033 117.193 78.46C118.849 80.0933 119.678 82.3567 119.678 85.25C119.678 88.1433 118.849 90.4183 117.193 92.075C115.559 93.7083 113.296 94.525 110.403 94.525ZM110.403 93.825C111.336 93.825 112.118 93.1717 112.748 91.865C113.401 90.5583 113.728 88.3533 113.728 85.25C113.728 82.1467 113.401 79.9417 112.748 78.635C112.118 77.3283 111.336 76.675 110.403 76.675C109.469 76.675 108.676 77.3283 108.023 78.635C107.393 79.9417 107.078 82.1467 107.078 85.25C107.078 88.3533 107.393 90.5583 108.023 91.865C108.676 93.1717 109.469 93.825 110.403 93.825ZM121.79 93.475L123.89 92.95V77.55L121.79 77.025V76.5H124.94C126.317 76.5 127.402 76.9433 128.195 77.83C128.498 78.18 128.755 78.6117 128.965 79.125C129.292 78.5183 129.677 77.9933 130.12 77.55C131.17 76.5 132.477 75.975 134.04 75.975C135.347 75.975 136.513 76.255 137.54 76.815C138.59 77.3517 139.407 78.0633 139.99 78.95C140.573 79.8367 140.865 80.77 140.865 81.75V92.95L142.965 93.475V94H138.415C136.315 94 135.265 92.95 135.265 90.85V81.75C135.265 80.28 134.997 79.16 134.46 78.39C133.947 77.5967 133.34 77.2 132.64 77.2C131.753 77.2 130.96 77.6667 130.26 78.6C129.957 78.9967 129.7 79.4633 129.49 80V92.95L131.59 93.475V94H121.79V93.475ZM147.533 101.525C146.483 101.525 145.666 101.245 145.083 100.685C144.499 100.125 144.208 99.355 144.208 98.375C144.208 97.4883 144.441 96.8 144.908 96.31C145.398 95.82 146.039 95.575 146.833 95.575C147.019 95.575 147.206 95.5867 147.393 95.61C147.579 95.6567 147.708 95.68 147.778 95.68L148.233 95.75V100.475C148.909 100.358 149.504 99.985 150.018 99.355C150.531 98.725 151.103 97.64 151.733 96.1L152.433 94.35L143.333 77.55L141.583 77.025V76.5H145.958C147.171 76.5 148.128 76.7567 148.828 77.27C149.551 77.76 150.169 78.495 150.683 79.475L155.058 87.56L158.733 78.075L156.108 77.025V76.5H162.583V77.025L159.783 78.075L152.783 96.1C152.036 98.0133 151.243 99.39 150.403 100.23C149.563 101.093 148.606 101.525 147.533 101.525Z" fill="#2A2921"/>
</svg>
