<svg width="169" height="136" viewBox="0 0 169 136" fill="none" xmlns="http://www.w3.org/2000/svg">
<path d="M31.8997 57V45.975H29.3097V41.635H31.8997V36.315C31.8997 34.3083 32.4713 32.675 33.6147 31.415C34.7813 30.1317 36.4613 29.49 38.6547 29.49C39.308 29.49 40.0313 29.595 40.8247 29.805C41.6413 29.9917 42.353 30.3067 42.9597 30.75L40.8947 34.285C40.6613 33.9817 40.3813 33.7833 40.0547 33.69C39.7513 33.5733 39.4597 33.515 39.1797 33.515C38.4797 33.515 37.908 33.7483 37.4647 34.215C37.0213 34.6817 36.7997 35.4283 36.7997 36.455V41.635H40.7197V45.975H36.7997V57H31.8997ZM42.5747 36.28C42.5747 35.5567 42.8547 34.9617 43.4147 34.495C43.998 34.0283 44.6163 33.795 45.2697 33.795C45.923 33.795 46.518 34.0283 47.0547 34.495C47.6147 34.9617 47.8947 35.5567 47.8947 36.28C47.8947 37.0033 47.6147 37.5983 47.0547 38.065C46.518 38.5083 45.923 38.73 45.2697 38.73C44.6163 38.73 43.998 38.5083 43.4147 38.065C42.8547 37.5983 42.5747 37.0033 42.5747 36.28ZM42.6797 41.705H47.5797V57H42.6797V41.705ZM56.3573 41.705L56.7073 44.155C57.244 43.1983 58.0023 42.4283 58.9823 41.845C59.9623 41.2617 61.1523 40.97 62.5523 40.97C63.999 40.97 65.2006 41.4017 66.1573 42.265C67.1373 43.105 67.639 44.2017 67.6623 45.555V57H62.7623V47.375C62.739 46.6983 62.5523 46.1617 62.2023 45.765C61.8756 45.345 61.3156 45.135 60.5223 45.135C59.379 45.135 58.469 45.6717 57.7923 46.745C57.139 47.795 56.8123 49.1367 56.8123 50.77V57H51.9123V41.705H56.3573ZM78.2235 57.42C76.8002 57.42 75.5285 57.0933 74.4085 56.44C73.2885 55.7633 72.4019 54.795 71.7485 53.535C71.1185 52.275 70.8035 50.7817 70.8035 49.055C70.8035 47.3283 71.1535 45.8583 71.8535 44.645C72.5535 43.4317 73.5102 42.51 74.7235 41.88C75.9369 41.25 77.3135 40.935 78.8535 40.935C79.8335 40.935 80.7669 41.0867 81.6535 41.39C82.5635 41.6933 83.3219 42.16 83.9285 42.79V29.385H88.7935V57H83.8935V55.39C83.1469 55.9733 82.3069 56.4633 81.3735 56.86C80.4402 57.2333 79.3902 57.42 78.2235 57.42ZM79.8335 53.29C80.8135 53.29 81.6302 53.1033 82.2835 52.73C82.9369 52.3333 83.4735 51.75 83.8935 50.98V47.235C83.6135 46.4883 83.1119 45.8933 82.3885 45.45C81.6652 45.0067 80.8135 44.785 79.8335 44.785C79.1102 44.785 78.4335 44.9717 77.8035 45.345C77.1969 45.695 76.7069 46.185 76.3335 46.815C75.9602 47.445 75.7735 48.1683 75.7735 48.985C75.7735 49.8017 75.9602 50.5367 76.3335 51.19C76.7069 51.8433 77.1969 52.3567 77.8035 52.73C78.4335 53.1033 79.1102 53.29 79.8335 53.29ZM93.1344 41.705H98.0344V57H93.1344V41.705ZM93.0294 36.28C93.0294 35.5567 93.3094 34.9617 93.8694 34.495C94.4527 34.0283 95.071 33.795 95.7244 33.795C96.3777 33.795 96.9727 34.0283 97.5094 34.495C98.0694 34.9617 98.3494 35.5567 98.3494 36.28C98.3494 37.0033 98.0694 37.5983 97.5094 38.065C96.9727 38.5083 96.3777 38.73 95.7244 38.73C95.071 38.73 94.4527 38.5083 93.8694 38.065C93.3094 37.5983 93.0294 37.0033 93.0294 36.28ZM106.826 41.705L107.176 44.155C107.712 43.1983 108.471 42.4283 109.451 41.845C110.431 41.2617 111.621 40.97 113.021 40.97C114.467 40.97 115.669 41.4017 116.626 42.265C117.606 43.105 118.107 44.2017 118.131 45.555V57H113.231V47.375C113.207 46.6983 113.021 46.1617 112.671 45.765C112.344 45.345 111.784 45.135 110.991 45.135C109.847 45.135 108.937 45.6717 108.261 46.745C107.607 47.795 107.281 49.1367 107.281 50.77V57H102.381V41.705H106.826ZM130.372 64.7C128.995 64.7 127.829 64.5367 126.872 64.21C125.939 63.8833 125.145 63.4867 124.492 63.02C123.839 62.5533 123.255 62.11 122.742 61.69L125.612 58.33C126.149 58.82 126.767 59.2867 127.467 59.73C128.19 60.1967 129.135 60.43 130.302 60.43C131.469 60.43 132.484 60.1267 133.347 59.52C134.234 58.9367 134.677 58.0733 134.677 56.93V54.76C134.234 55.4833 133.545 56.1133 132.612 56.65C131.679 57.1633 130.465 57.42 128.972 57.42C127.595 57.42 126.312 57.07 125.122 56.37C123.955 55.6467 123.022 54.6783 122.322 53.465C121.622 52.2283 121.272 50.8283 121.272 49.265C121.272 47.655 121.645 46.2317 122.392 44.995C123.139 43.735 124.107 42.7433 125.297 42.02C126.487 41.2967 127.747 40.935 129.077 40.935C130.407 40.935 131.55 41.1333 132.507 41.53C133.487 41.9033 134.21 42.3583 134.677 42.895L135.062 41.705H139.577V57C139.577 58.4933 139.157 59.8117 138.317 60.955C137.477 62.1217 136.357 63.0317 134.957 63.685C133.58 64.3617 132.052 64.7 130.372 64.7ZM126.207 49.125C126.207 50.3383 126.615 51.365 127.432 52.205C128.249 53.0217 129.252 53.43 130.442 53.43C132.402 53.43 133.814 52.66 134.677 51.12V47.375C134.35 46.6283 133.814 46.0333 133.067 45.59C132.32 45.1467 131.445 44.925 130.442 44.925C129.252 44.925 128.249 45.3217 127.432 46.115C126.615 46.885 126.207 47.8883 126.207 49.125ZM22.5846 87.685C23.1679 86.215 23.9729 85.1533 24.9996 84.5C26.0496 83.8233 27.2279 83.485 28.5346 83.485C30.1679 83.485 31.4046 83.9283 32.2446 84.815C32.6879 85.2817 33.0029 85.865 33.1896 86.565C33.3763 87.265 33.4696 88.21 33.4696 89.4V98.745C33.4696 99.7017 33.6679 100.367 34.0646 100.74C34.4613 101.09 35.1496 101.265 36.1296 101.265V102C33.9829 101.907 32.5829 101.86 31.9296 101.86C31.2763 101.86 29.9696 101.907 28.0096 102V101.265C28.8729 101.265 29.4679 101.09 29.7946 100.74C30.1446 100.367 30.3196 99.7017 30.3196 98.745V88.63C30.3196 87.3233 30.1329 86.3317 29.7596 85.655C29.3863 84.955 28.6279 84.605 27.4846 84.605C26.5279 84.605 25.6763 84.8733 24.9296 85.41C24.2063 85.9467 23.6346 86.705 23.2146 87.685C22.7946 88.6417 22.5846 89.7267 22.5846 90.94V98.745C22.5846 99.7017 22.7479 100.367 23.0746 100.74C23.4246 101.09 24.0313 101.265 24.8946 101.265V102C22.9346 101.907 21.6279 101.86 20.9746 101.86C20.3213 101.86 18.9213 101.907 16.7746 102V101.265C17.7546 101.265 18.4429 101.09 18.8396 100.74C19.2363 100.367 19.4346 99.7017 19.4346 98.745V78.795C19.4346 77.7217 19.2363 76.94 18.8396 76.45C18.4429 75.96 17.7546 75.715 16.7746 75.715V74.98C17.5213 75.05 18.2446 75.085 18.9446 75.085C20.4146 75.085 21.6279 74.9217 22.5846 74.595V87.685ZM41.6558 102.245C40.1858 102.245 39.0891 101.883 38.3658 101.16C37.6658 100.413 37.3158 99.3867 37.3158 98.08C37.3158 97.03 37.5958 96.1667 38.1558 95.49C38.7391 94.8133 39.4158 94.2767 40.1858 93.88C40.9791 93.4833 42.0174 93.0633 43.3008 92.62C44.6074 92.1767 45.5758 91.7683 46.2058 91.395C46.8358 91.0217 47.1508 90.52 47.1508 89.89V87.72C47.1508 86.3667 46.8591 85.445 46.2758 84.955C45.7158 84.4417 44.9224 84.185 43.8958 84.185C42.2624 84.185 41.1074 84.605 40.4308 85.445C40.8974 85.5617 41.2824 85.8067 41.5858 86.18C41.9124 86.5533 42.0758 87.02 42.0758 87.58C42.0758 88.1633 41.8891 88.63 41.5158 88.98C41.1424 89.3067 40.6641 89.47 40.0808 89.47C39.4274 89.47 38.9374 89.2717 38.6108 88.875C38.2841 88.455 38.1208 87.9533 38.1208 87.37C38.1208 86.81 38.2491 86.3433 38.5058 85.97C38.7858 85.5967 39.1941 85.2233 39.7308 84.85C40.2908 84.4533 41.0024 84.1267 41.8658 83.87C42.7291 83.6133 43.6741 83.485 44.7008 83.485C46.5208 83.485 47.8974 83.9167 48.8308 84.78C49.4141 85.3167 49.7991 85.97 49.9858 86.74C50.1958 87.4867 50.3008 88.4783 50.3008 89.715V99.445C50.3008 100.028 50.3824 100.448 50.5458 100.705C50.7091 100.962 50.9891 101.09 51.3858 101.09C51.6658 101.09 51.9224 101.032 52.1558 100.915C52.4124 100.775 52.6808 100.588 52.9608 100.355L53.3458 100.95C52.7391 101.417 52.2141 101.755 51.7708 101.965C51.3508 102.152 50.8141 102.245 50.1608 102.245C49.0408 102.245 48.2591 101.965 47.8158 101.405C47.3724 100.845 47.1508 100.087 47.1508 99.13C46.4508 100.297 45.6458 101.113 44.7358 101.58C43.8258 102.023 42.7991 102.245 41.6558 102.245ZM43.1958 100.845C44.7358 100.845 46.0541 99.9583 47.1508 98.185V91.325C46.9408 91.6517 46.6491 91.92 46.2758 92.13C45.9024 92.34 45.3308 92.62 44.5608 92.97C43.6741 93.3433 42.9508 93.705 42.3908 94.055C41.8541 94.3817 41.3874 94.8367 40.9908 95.42C40.5941 96.0033 40.3958 96.75 40.3958 97.66C40.3958 98.71 40.6524 99.5033 41.1658 100.04C41.6791 100.577 42.3558 100.845 43.1958 100.845ZM64.5824 83.485C65.5158 83.485 66.2741 83.7533 66.8574 84.29C67.4641 84.8267 67.7674 85.48 67.7674 86.25C67.7674 86.8567 67.5808 87.3817 67.2074 87.825C66.8574 88.245 66.3791 88.455 65.7724 88.455C65.2591 88.455 64.8158 88.2917 64.4424 87.965C64.0924 87.6383 63.9174 87.195 63.9174 86.635C63.9174 85.865 64.3141 85.235 65.1074 84.745C64.9441 84.5117 64.6991 84.395 64.3724 84.395C63.4624 84.395 62.6341 84.7567 61.8874 85.48C61.1408 86.18 60.5574 87.0433 60.1374 88.07C59.7174 89.0967 59.5074 90.065 59.5074 90.975V98.395C59.5074 99.4683 59.8108 100.215 60.4174 100.635C61.0474 101.055 61.9808 101.265 63.2174 101.265V102L62.3774 101.965C59.9974 101.895 58.4808 101.86 57.8274 101.86C57.2208 101.86 55.8441 101.907 53.6974 102V101.265C54.6774 101.265 55.3658 101.09 55.7624 100.74C56.1591 100.367 56.3574 99.7017 56.3574 98.745V87.79C56.3574 86.7167 56.1591 85.935 55.7624 85.445C55.3658 84.955 54.6774 84.71 53.6974 84.71V83.975C54.4441 84.045 55.1674 84.08 55.8674 84.08C57.3374 84.08 58.5508 83.9167 59.5074 83.59V87.965C59.9274 86.7983 60.5924 85.76 61.5024 84.85C62.4358 83.94 63.4624 83.485 64.5824 83.485ZM95.4634 98.745C95.4634 99.7017 95.6617 100.367 96.0584 100.74C96.455 101.09 97.1434 101.265 98.1234 101.265V102C95.9767 101.907 94.5767 101.86 93.9234 101.86C93.27 101.86 91.9634 101.907 90.0034 102V101.265C90.8667 101.265 91.4617 101.09 91.7884 100.74C92.1384 100.367 92.3134 99.7017 92.3134 98.745V88.63C92.3134 87.7433 92.255 87.0317 92.1384 86.495C92.045 85.935 91.8 85.48 91.4034 85.13C91.03 84.78 90.4467 84.605 89.6534 84.605C88.7667 84.605 87.9617 84.885 87.2384 85.445C86.515 86.005 85.9434 86.775 85.5234 87.755C85.1267 88.7117 84.9284 89.7733 84.9284 90.94V98.745C84.9284 99.7017 85.1267 100.367 85.5234 100.74C85.92 101.09 86.6084 101.265 87.5884 101.265V102C85.4417 101.907 84.0417 101.86 83.3884 101.86C82.735 101.86 81.4284 101.907 79.4684 102V101.265C80.3317 101.265 80.9267 101.09 81.2534 100.74C81.6034 100.367 81.7784 99.7017 81.7784 98.745V88.63C81.7784 87.7433 81.72 87.0317 81.6034 86.495C81.51 85.935 81.265 85.48 80.8684 85.13C80.495 84.78 79.9117 84.605 79.1184 84.605C78.2317 84.605 77.4267 84.885 76.7034 85.445C75.98 86.005 75.4084 86.775 74.9884 87.755C74.5917 88.735 74.3934 89.8083 74.3934 90.975V98.745C74.3934 99.7017 74.5567 100.367 74.8834 100.74C75.2334 101.09 75.84 101.265 76.7034 101.265V102C74.7434 101.907 73.4367 101.86 72.7834 101.86C72.13 101.86 70.73 101.907 68.5834 102V101.265C69.5634 101.265 70.2517 101.09 70.6484 100.74C71.045 100.367 71.2434 99.7017 71.2434 98.745V87.79C71.2434 86.7167 71.045 85.935 70.6484 85.445C70.2517 84.955 69.5634 84.71 68.5834 84.71V83.975C69.33 84.045 70.0534 84.08 70.7534 84.08C72.2234 84.08 73.4367 83.9167 74.3934 83.59V87.72C74.9534 86.2733 75.7467 85.2117 76.7734 84.535C77.8 83.835 78.92 83.485 80.1334 83.485C81.72 83.485 82.9334 83.9283 83.7734 84.815C84.3567 85.4217 84.7184 86.355 84.8584 87.615C85.4417 86.145 86.2467 85.095 87.2734 84.465C88.3 83.8117 89.4317 83.485 90.6684 83.485C92.255 83.485 93.4684 83.9283 94.3084 84.815C94.7284 85.2817 95.02 85.8767 95.1834 86.6C95.37 87.3233 95.4634 88.2567 95.4634 89.4V98.745ZM107.528 83.485C109.908 83.485 111.821 84.2783 113.268 85.865C114.738 87.4283 115.473 89.8083 115.473 93.005C115.473 96.2017 114.738 98.5817 113.268 100.145C111.821 101.708 109.908 102.49 107.528 102.49C105.148 102.49 103.223 101.708 101.753 100.145C100.306 98.5817 99.5827 96.2017 99.5827 93.005C99.5827 89.8083 100.306 87.4283 101.753 85.865C103.223 84.2783 105.148 83.485 107.528 83.485ZM107.528 84.185C106.128 84.185 105.019 84.9083 104.203 86.355C103.386 87.7783 102.978 89.995 102.978 93.005C102.978 96.015 103.386 98.2317 104.203 99.655C105.019 101.078 106.128 101.79 107.528 101.79C108.928 101.79 110.036 101.078 110.853 99.655C111.669 98.2317 112.078 96.015 112.078 93.005C112.078 89.995 111.669 87.7783 110.853 86.355C110.036 84.9083 108.928 84.185 107.528 84.185ZM129.187 83.485C130.821 83.485 132.057 83.9283 132.897 84.815C133.341 85.2817 133.656 85.865 133.842 86.565C134.029 87.265 134.122 88.21 134.122 89.4V98.745C134.122 99.7017 134.321 100.367 134.717 100.74C135.114 101.09 135.802 101.265 136.782 101.265V102C134.636 101.907 133.236 101.86 132.582 101.86C131.929 101.86 130.622 101.907 128.662 102V101.265C129.526 101.265 130.121 101.09 130.447 100.74C130.797 100.367 130.972 99.7017 130.972 98.745V88.63C130.972 87.3233 130.786 86.3317 130.412 85.655C130.039 84.955 129.281 84.605 128.137 84.605C127.181 84.605 126.329 84.885 125.582 85.445C124.836 86.005 124.252 86.775 123.832 87.755C123.436 88.7117 123.237 89.785 123.237 90.975V98.745C123.237 99.7017 123.401 100.367 123.727 100.74C124.077 101.09 124.684 101.265 125.547 101.265V102C123.587 101.907 122.281 101.86 121.627 101.86C120.974 101.86 119.574 101.907 117.427 102V101.265C118.407 101.265 119.096 101.09 119.492 100.74C119.889 100.367 120.087 99.7017 120.087 98.745V87.79C120.087 86.7167 119.889 85.935 119.492 85.445C119.096 84.955 118.407 84.71 117.427 84.71V83.975C118.174 84.045 118.897 84.08 119.597 84.08C121.067 84.08 122.281 83.9167 123.237 83.59V87.72C123.821 86.2267 124.626 85.1533 125.652 84.5C126.702 83.8233 127.881 83.485 129.187 83.485ZM150.919 84.08C151.945 84.08 152.832 84.045 153.579 83.975V84.675C153.112 84.7217 152.692 84.9317 152.319 85.305C151.969 85.6783 151.63 86.285 151.304 87.125L145.564 102.175L144.374 105.22C143.93 106.363 143.429 107.18 142.869 107.67C142.519 107.997 142.099 108.23 141.609 108.37C141.119 108.51 140.629 108.58 140.139 108.58C139.439 108.58 138.867 108.393 138.424 108.02C137.98 107.647 137.759 107.133 137.759 106.48C137.759 105.92 137.922 105.465 138.249 105.115C138.575 104.788 139.03 104.625 139.614 104.625C140.127 104.625 140.547 104.765 140.874 105.045C141.224 105.348 141.399 105.757 141.399 106.27C141.399 106.97 141.084 107.495 140.454 107.845C140.5 107.868 140.57 107.88 140.664 107.88C141.947 107.88 142.939 106.97 143.639 105.15L144.864 101.965L138.529 86.67C138.132 85.8767 137.735 85.3517 137.339 85.095C136.942 84.8383 136.545 84.71 136.149 84.71V83.975C137.152 84.115 138.295 84.185 139.579 84.185C140.745 84.185 142.262 84.115 144.129 83.975V84.71C143.289 84.71 142.67 84.78 142.274 84.92C141.9 85.06 141.714 85.3983 141.714 85.935C141.714 86.425 141.854 86.9967 142.134 87.65L146.334 98.08L150.219 87.965C150.475 87.265 150.604 86.7283 150.604 86.355C150.604 85.8183 150.394 85.4217 149.974 85.165C149.554 84.9083 148.889 84.745 147.979 84.675V83.975C149.215 84.045 150.195 84.08 150.919 84.08Z" fill="#2A2921"/>
</svg>
