<svg width="169" height="136" viewBox="0 0 169 136" fill="none" xmlns="http://www.w3.org/2000/svg">
<path d="M31.8997 57V45.975H29.3097V41.635H31.8997V36.315C31.8997 34.3083 32.4713 32.675 33.6147 31.415C34.7813 30.1317 36.4613 29.49 38.6547 29.49C39.308 29.49 40.0313 29.595 40.8247 29.805C41.6413 29.9917 42.353 30.3067 42.9597 30.75L40.8947 34.285C40.6613 33.9817 40.3813 33.7833 40.0547 33.69C39.7513 33.5733 39.4597 33.515 39.1797 33.515C38.4797 33.515 37.908 33.7483 37.4647 34.215C37.0213 34.6817 36.7997 35.4283 36.7997 36.455V41.635H40.7197V45.975H36.7997V57H31.8997ZM42.5747 36.28C42.5747 35.5567 42.8547 34.9617 43.4147 34.495C43.998 34.0283 44.6163 33.795 45.2697 33.795C45.923 33.795 46.518 34.0283 47.0547 34.495C47.6147 34.9617 47.8947 35.5567 47.8947 36.28C47.8947 37.0033 47.6147 37.5983 47.0547 38.065C46.518 38.5083 45.923 38.73 45.2697 38.73C44.6163 38.73 43.998 38.5083 43.4147 38.065C42.8547 37.5983 42.5747 37.0033 42.5747 36.28ZM42.6797 41.705H47.5797V57H42.6797V41.705ZM56.3573 41.705L56.7073 44.155C57.244 43.1983 58.0023 42.4283 58.9823 41.845C59.9623 41.2617 61.1523 40.97 62.5523 40.97C63.999 40.97 65.2006 41.4017 66.1573 42.265C67.1373 43.105 67.639 44.2017 67.6623 45.555V57H62.7623V47.375C62.739 46.6983 62.5523 46.1617 62.2023 45.765C61.8756 45.345 61.3156 45.135 60.5223 45.135C59.379 45.135 58.469 45.6717 57.7923 46.745C57.139 47.795 56.8123 49.1367 56.8123 50.77V57H51.9123V41.705H56.3573ZM78.2235 57.42C76.8002 57.42 75.5285 57.0933 74.4085 56.44C73.2885 55.7633 72.4019 54.795 71.7485 53.535C71.1185 52.275 70.8035 50.7817 70.8035 49.055C70.8035 47.3283 71.1535 45.8583 71.8535 44.645C72.5535 43.4317 73.5102 42.51 74.7235 41.88C75.9369 41.25 77.3135 40.935 78.8535 40.935C79.8335 40.935 80.7669 41.0867 81.6535 41.39C82.5635 41.6933 83.3219 42.16 83.9285 42.79V29.385H88.7935V57H83.8935V55.39C83.1469 55.9733 82.3069 56.4633 81.3735 56.86C80.4402 57.2333 79.3902 57.42 78.2235 57.42ZM79.8335 53.29C80.8135 53.29 81.6302 53.1033 82.2835 52.73C82.9369 52.3333 83.4735 51.75 83.8935 50.98V47.235C83.6135 46.4883 83.1119 45.8933 82.3885 45.45C81.6652 45.0067 80.8135 44.785 79.8335 44.785C79.1102 44.785 78.4335 44.9717 77.8035 45.345C77.1969 45.695 76.7069 46.185 76.3335 46.815C75.9602 47.445 75.7735 48.1683 75.7735 48.985C75.7735 49.8017 75.9602 50.5367 76.3335 51.19C76.7069 51.8433 77.1969 52.3567 77.8035 52.73C78.4335 53.1033 79.1102 53.29 79.8335 53.29ZM93.1344 41.705H98.0344V57H93.1344V41.705ZM93.0294 36.28C93.0294 35.5567 93.3094 34.9617 93.8694 34.495C94.4527 34.0283 95.071 33.795 95.7244 33.795C96.3777 33.795 96.9727 34.0283 97.5094 34.495C98.0694 34.9617 98.3494 35.5567 98.3494 36.28C98.3494 37.0033 98.0694 37.5983 97.5094 38.065C96.9727 38.5083 96.3777 38.73 95.7244 38.73C95.071 38.73 94.4527 38.5083 93.8694 38.065C93.3094 37.5983 93.0294 37.0033 93.0294 36.28ZM106.826 41.705L107.176 44.155C107.712 43.1983 108.471 42.4283 109.451 41.845C110.431 41.2617 111.621 40.97 113.021 40.97C114.467 40.97 115.669 41.4017 116.626 42.265C117.606 43.105 118.107 44.2017 118.131 45.555V57H113.231V47.375C113.207 46.6983 113.021 46.1617 112.671 45.765C112.344 45.345 111.784 45.135 110.991 45.135C109.847 45.135 108.937 45.6717 108.261 46.745C107.607 47.795 107.281 49.1367 107.281 50.77V57H102.381V41.705H106.826ZM130.372 64.7C128.995 64.7 127.829 64.5367 126.872 64.21C125.939 63.8833 125.145 63.4867 124.492 63.02C123.839 62.5533 123.255 62.11 122.742 61.69L125.612 58.33C126.149 58.82 126.767 59.2867 127.467 59.73C128.19 60.1967 129.135 60.43 130.302 60.43C131.469 60.43 132.484 60.1267 133.347 59.52C134.234 58.9367 134.677 58.0733 134.677 56.93V54.76C134.234 55.4833 133.545 56.1133 132.612 56.65C131.679 57.1633 130.465 57.42 128.972 57.42C127.595 57.42 126.312 57.07 125.122 56.37C123.955 55.6467 123.022 54.6783 122.322 53.465C121.622 52.2283 121.272 50.8283 121.272 49.265C121.272 47.655 121.645 46.2317 122.392 44.995C123.139 43.735 124.107 42.7433 125.297 42.02C126.487 41.2967 127.747 40.935 129.077 40.935C130.407 40.935 131.55 41.1333 132.507 41.53C133.487 41.9033 134.21 42.3583 134.677 42.895L135.062 41.705H139.577V57C139.577 58.4933 139.157 59.8117 138.317 60.955C137.477 62.1217 136.357 63.0317 134.957 63.685C133.58 64.3617 132.052 64.7 130.372 64.7ZM126.207 49.125C126.207 50.3383 126.615 51.365 127.432 52.205C128.249 53.0217 129.252 53.43 130.442 53.43C132.402 53.43 133.814 52.66 134.677 51.12V47.375C134.35 46.6283 133.814 46.0333 133.067 45.59C132.32 45.1467 131.445 44.925 130.442 44.925C129.252 44.925 128.249 45.3217 127.432 46.115C126.615 46.885 126.207 47.8883 126.207 49.125ZM24.99 86.635C25.7484 85.83 26.5884 85.1883 27.51 84.71C28.4317 84.2317 29.4934 83.9925 30.695 83.9925C31.6634 83.9925 32.515 84.1558 33.25 84.4825C33.9967 84.7975 34.615 85.2525 35.105 85.8475C35.6067 86.4308 35.9859 87.1367 36.2425 87.965C36.4992 88.7933 36.6275 89.7092 36.6275 90.7125V102H33.495V90.7125C33.495 89.3708 33.1859 88.3325 32.5675 87.5975C31.9609 86.8508 31.0334 86.4775 29.785 86.4775C28.8634 86.4775 28 86.6992 27.195 87.1425C26.4017 87.5858 25.6667 88.1867 24.99 88.945V102H21.8575V76.2225H24.99V86.635ZM50.2816 94.02C48.8466 94.0667 47.6216 94.1833 46.6066 94.37C45.6033 94.545 44.7808 94.7783 44.1391 95.07C43.5091 95.3617 43.0483 95.7058 42.7566 96.1025C42.4766 96.4992 42.3366 96.9425 42.3366 97.4325C42.3366 97.8992 42.4125 98.3017 42.5641 98.64C42.7158 98.9783 42.92 99.2583 43.1766 99.48C43.445 99.69 43.7541 99.8475 44.1041 99.9525C44.4658 100.046 44.8508 100.092 45.2591 100.092C45.8075 100.092 46.3091 100.04 46.7641 99.935C47.2191 99.8183 47.645 99.655 48.0416 99.445C48.45 99.235 48.835 98.9842 49.1966 98.6925C49.57 98.4008 49.9316 98.0683 50.2816 97.695V94.02ZM40.2191 86.775C41.1991 85.83 42.255 85.1242 43.3866 84.6575C44.5183 84.1908 45.7725 83.9575 47.1491 83.9575C48.1408 83.9575 49.0216 84.1208 49.7916 84.4475C50.5616 84.7742 51.2091 85.2292 51.7341 85.8125C52.2591 86.3958 52.6558 87.1017 52.9241 87.93C53.1925 88.7583 53.3266 89.6683 53.3266 90.66V102H51.9441C51.6408 102 51.4075 101.953 51.2441 101.86C51.0808 101.755 50.9525 101.557 50.8591 101.265L50.5091 99.585C50.0425 100.017 49.5875 100.402 49.1441 100.74C48.7008 101.067 48.2341 101.347 47.7441 101.58C47.2541 101.802 46.7291 101.971 46.1691 102.088C45.6208 102.216 45.0083 102.28 44.3316 102.28C43.6433 102.28 42.9958 102.187 42.3891 102C41.7825 101.802 41.2516 101.51 40.7966 101.125C40.3533 100.74 39.9975 100.256 39.7291 99.6725C39.4725 99.0775 39.3441 98.3775 39.3441 97.5725C39.3441 96.8725 39.5366 96.2017 39.9216 95.56C40.3066 94.9067 40.9308 94.3292 41.7941 93.8275C42.6575 93.3258 43.7833 92.9175 45.1716 92.6025C46.56 92.2758 48.2633 92.0892 50.2816 92.0425V90.66C50.2816 89.2833 49.9841 88.245 49.3891 87.545C48.7941 86.8333 47.925 86.4775 46.7816 86.4775C46.0116 86.4775 45.3641 86.5767 44.8391 86.775C44.3258 86.9617 43.8766 87.1775 43.4916 87.4225C43.1183 87.6558 42.7916 87.8717 42.5116 88.07C42.2433 88.2567 41.975 88.35 41.7066 88.35C41.4966 88.35 41.3158 88.2975 41.1641 88.1925C41.0125 88.0758 40.8841 87.9358 40.7791 87.7725L40.2191 86.775ZM60.3291 87.825C60.8891 86.6117 61.5774 85.6667 62.3941 84.99C63.2108 84.3017 64.2083 83.9575 65.3866 83.9575C65.7599 83.9575 66.1158 83.9983 66.4541 84.08C66.8041 84.1617 67.1133 84.29 67.3816 84.465L67.1541 86.7925C67.0841 87.0842 66.9091 87.23 66.6291 87.23C66.4658 87.23 66.2266 87.195 65.9116 87.125C65.5966 87.055 65.2408 87.02 64.8441 87.02C64.2841 87.02 63.7824 87.1017 63.3391 87.265C62.9074 87.4283 62.5166 87.6733 62.1666 88C61.8283 88.315 61.5191 88.7117 61.2391 89.19C60.9708 89.6567 60.7258 90.1933 60.5041 90.8V102H57.3716V84.2725H59.1566C59.4949 84.2725 59.7283 84.3367 59.8566 84.465C59.9849 84.5933 60.0724 84.815 60.1191 85.13L60.3291 87.825ZM69.4206 102V84.2725H71.2931C71.7365 84.2725 72.0106 84.4883 72.1156 84.92L72.3431 86.74C72.9965 85.935 73.7315 85.2758 74.5481 84.7625C75.3648 84.2492 76.3098 83.9925 77.3831 83.9925C78.5731 83.9925 79.5356 84.325 80.2706 84.99C81.0173 85.655 81.554 86.5533 81.8806 87.685C82.1373 87.0433 82.464 86.4892 82.8606 86.0225C83.269 85.5558 83.724 85.1708 84.2256 84.8675C84.7273 84.5642 85.2581 84.3425 85.8181 84.2025C86.3898 84.0625 86.9673 83.9925 87.5506 83.9925C88.484 83.9925 89.3123 84.1442 90.0356 84.4475C90.7706 84.7392 91.389 85.1708 91.8906 85.7425C92.404 86.3142 92.7948 87.02 93.0631 87.86C93.3315 88.6883 93.4656 89.6392 93.4656 90.7125V102H90.3331V90.7125C90.3331 89.3242 90.0298 88.2742 89.4231 87.5625C88.8165 86.8392 87.9415 86.4775 86.7981 86.4775C86.2848 86.4775 85.7948 86.5708 85.3281 86.7575C84.8731 86.9325 84.4706 87.195 84.1206 87.545C83.7706 87.895 83.4906 88.3383 83.2806 88.875C83.0823 89.4 82.9831 90.0125 82.9831 90.7125V102H79.8506V90.7125C79.8506 89.2892 79.5648 88.2275 78.9931 87.5275C78.4215 86.8275 77.5873 86.4775 76.4906 86.4775C75.7206 86.4775 75.009 86.6875 74.3556 87.1075C73.7023 87.5158 73.1015 88.0758 72.5531 88.7875V102H69.4206ZM104.972 83.9925C106.267 83.9925 107.434 84.2083 108.472 84.64C109.511 85.0717 110.397 85.6842 111.132 86.4775C111.867 87.2708 112.427 88.2333 112.812 89.365C113.209 90.485 113.407 91.7392 113.407 93.1275C113.407 94.5275 113.209 95.7875 112.812 96.9075C112.427 98.0275 111.867 98.9842 111.132 99.7775C110.397 100.571 109.511 101.183 108.472 101.615C107.434 102.035 106.267 102.245 104.972 102.245C103.666 102.245 102.487 102.035 101.437 101.615C100.399 101.183 99.5124 100.571 98.7774 99.7775C98.0424 98.9842 97.4766 98.0275 97.0799 96.9075C96.6949 95.7875 96.5024 94.5275 96.5024 93.1275C96.5024 91.7392 96.6949 90.485 97.0799 89.365C97.4766 88.2333 98.0424 87.2708 98.7774 86.4775C99.5124 85.6842 100.399 85.0717 101.437 84.64C102.487 84.2083 103.666 83.9925 104.972 83.9925ZM104.972 99.8125C106.722 99.8125 108.029 99.2292 108.892 98.0625C109.756 96.8842 110.187 95.245 110.187 93.145C110.187 91.0333 109.756 89.3883 108.892 88.21C108.029 87.0317 106.722 86.4425 104.972 86.4425C104.086 86.4425 103.31 86.5942 102.645 86.8975C101.992 87.2008 101.443 87.6383 101 88.21C100.568 88.7817 100.242 89.4875 100.02 90.3275C99.8099 91.1558 99.7049 92.095 99.7049 93.145C99.7049 95.245 100.137 96.8842 101 98.0625C101.875 99.2292 103.199 99.8125 104.972 99.8125ZM119.598 86.845C119.983 86.4133 120.392 86.0225 120.823 85.6725C121.255 85.3225 121.71 85.025 122.188 84.78C122.678 84.5233 123.192 84.3308 123.728 84.2025C124.277 84.0625 124.866 83.9925 125.496 83.9925C126.464 83.9925 127.316 84.1558 128.051 84.4825C128.797 84.7975 129.416 85.2525 129.906 85.8475C130.407 86.4308 130.787 87.1367 131.043 87.965C131.3 88.7933 131.428 89.7092 131.428 90.7125V102H128.296V90.7125C128.296 89.3708 127.987 88.3325 127.368 87.5975C126.762 86.8508 125.834 86.4775 124.586 86.4775C123.664 86.4775 122.801 86.6992 121.996 87.1425C121.202 87.5858 120.467 88.1867 119.791 88.945V102H116.658V84.2725H118.531C118.974 84.2725 119.248 84.4883 119.353 84.92L119.598 86.845ZM150.326 84.2725L140.438 107.233C140.333 107.466 140.199 107.653 140.036 107.793C139.884 107.933 139.645 108.003 139.318 108.003H137.008L140.246 100.967L132.931 84.2725H135.626C135.894 84.2725 136.104 84.3425 136.256 84.4825C136.419 84.6108 136.53 84.7567 136.588 84.92L141.331 96.085C141.517 96.575 141.675 97.0883 141.803 97.625C141.966 97.0767 142.141 96.5575 142.328 96.0675L146.931 84.92C147.001 84.7333 147.117 84.5817 147.281 84.465C147.456 84.3367 147.648 84.2725 147.858 84.2725H150.326Z" fill="#2A2921"/>
</svg>
