<svg width="169" height="136" viewBox="0 0 169 136" fill="none" xmlns="http://www.w3.org/2000/svg">
<path d="M31.3997 55V43.975H28.8097V39.635H31.3997V34.315C31.3997 32.3083 31.9713 30.675 33.1147 29.415C34.2813 28.1317 35.9613 27.49 38.1547 27.49C38.808 27.49 39.5313 27.595 40.3247 27.805C41.1413 27.9917 41.853 28.3067 42.4597 28.75L40.3947 32.285C40.1613 31.9817 39.8813 31.7833 39.5547 31.69C39.2513 31.5733 38.9597 31.515 38.6797 31.515C37.9797 31.515 37.408 31.7483 36.9647 32.215C36.5213 32.6817 36.2997 33.4283 36.2997 34.455V39.635H40.2197V43.975H36.2997V55H31.3997ZM42.0747 34.28C42.0747 33.5567 42.3547 32.9617 42.9147 32.495C43.498 32.0283 44.1163 31.795 44.7697 31.795C45.423 31.795 46.018 32.0283 46.5547 32.495C47.1147 32.9617 47.3947 33.5567 47.3947 34.28C47.3947 35.0033 47.1147 35.5983 46.5547 36.065C46.018 36.5083 45.423 36.73 44.7697 36.73C44.1163 36.73 43.498 36.5083 42.9147 36.065C42.3547 35.5983 42.0747 35.0033 42.0747 34.28ZM42.1797 39.705H47.0797V55H42.1797V39.705ZM55.8573 39.705L56.2073 42.155C56.744 41.1983 57.5023 40.4283 58.4823 39.845C59.4623 39.2617 60.6523 38.97 62.0523 38.97C63.499 38.97 64.7006 39.4017 65.6573 40.265C66.6373 41.105 67.139 42.2017 67.1623 43.555V55H62.2623V45.375C62.239 44.6983 62.0523 44.1617 61.7023 43.765C61.3756 43.345 60.8156 43.135 60.0223 43.135C58.879 43.135 57.969 43.6717 57.2923 44.745C56.639 45.795 56.3123 47.1367 56.3123 48.77V55H51.4123V39.705H55.8573ZM77.7235 55.42C76.3002 55.42 75.0285 55.0933 73.9085 54.44C72.7885 53.7633 71.9019 52.795 71.2485 51.535C70.6185 50.275 70.3035 48.7817 70.3035 47.055C70.3035 45.3283 70.6535 43.8583 71.3535 42.645C72.0535 41.4317 73.0102 40.51 74.2235 39.88C75.4369 39.25 76.8135 38.935 78.3535 38.935C79.3335 38.935 80.2669 39.0867 81.1535 39.39C82.0635 39.6933 82.8219 40.16 83.4285 40.79V27.385H88.2935V55H83.3935V53.39C82.6469 53.9733 81.8069 54.4633 80.8735 54.86C79.9402 55.2333 78.8902 55.42 77.7235 55.42ZM79.3335 51.29C80.3135 51.29 81.1302 51.1033 81.7835 50.73C82.4369 50.3333 82.9735 49.75 83.3935 48.98V45.235C83.1135 44.4883 82.6119 43.8933 81.8885 43.45C81.1652 43.0067 80.3135 42.785 79.3335 42.785C78.6102 42.785 77.9335 42.9717 77.3035 43.345C76.6969 43.695 76.2069 44.185 75.8335 44.815C75.4602 45.445 75.2735 46.1683 75.2735 46.985C75.2735 47.8017 75.4602 48.5367 75.8335 49.19C76.2069 49.8433 76.6969 50.3567 77.3035 50.73C77.9335 51.1033 78.6102 51.29 79.3335 51.29ZM92.6344 39.705H97.5344V55H92.6344V39.705ZM92.5294 34.28C92.5294 33.5567 92.8094 32.9617 93.3694 32.495C93.9527 32.0283 94.571 31.795 95.2244 31.795C95.8777 31.795 96.4727 32.0283 97.0094 32.495C97.5694 32.9617 97.8494 33.5567 97.8494 34.28C97.8494 35.0033 97.5694 35.5983 97.0094 36.065C96.4727 36.5083 95.8777 36.73 95.2244 36.73C94.571 36.73 93.9527 36.5083 93.3694 36.065C92.8094 35.5983 92.5294 35.0033 92.5294 34.28ZM106.326 39.705L106.676 42.155C107.212 41.1983 107.971 40.4283 108.951 39.845C109.931 39.2617 111.121 38.97 112.521 38.97C113.967 38.97 115.169 39.4017 116.126 40.265C117.106 41.105 117.607 42.2017 117.631 43.555V55H112.731V45.375C112.707 44.6983 112.521 44.1617 112.171 43.765C111.844 43.345 111.284 43.135 110.491 43.135C109.347 43.135 108.437 43.6717 107.761 44.745C107.107 45.795 106.781 47.1367 106.781 48.77V55H101.881V39.705H106.326ZM129.872 62.7C128.495 62.7 127.329 62.5367 126.372 62.21C125.439 61.8833 124.645 61.4867 123.992 61.02C123.339 60.5533 122.755 60.11 122.242 59.69L125.112 56.33C125.649 56.82 126.267 57.2867 126.967 57.73C127.69 58.1967 128.635 58.43 129.802 58.43C130.969 58.43 131.984 58.1267 132.847 57.52C133.734 56.9367 134.177 56.0733 134.177 54.93V52.76C133.734 53.4833 133.045 54.1133 132.112 54.65C131.179 55.1633 129.965 55.42 128.472 55.42C127.095 55.42 125.812 55.07 124.622 54.37C123.455 53.6467 122.522 52.6783 121.822 51.465C121.122 50.2283 120.772 48.8283 120.772 47.265C120.772 45.655 121.145 44.2317 121.892 42.995C122.639 41.735 123.607 40.7433 124.797 40.02C125.987 39.2967 127.247 38.935 128.577 38.935C129.907 38.935 131.05 39.1333 132.007 39.53C132.987 39.9033 133.71 40.3583 134.177 40.895L134.562 39.705H139.077V55C139.077 56.4933 138.657 57.8117 137.817 58.955C136.977 60.1217 135.857 61.0317 134.457 61.685C133.08 62.3617 131.552 62.7 129.872 62.7ZM125.707 47.125C125.707 48.3383 126.115 49.365 126.932 50.205C127.749 51.0217 128.752 51.43 129.942 51.43C131.902 51.43 133.314 50.66 134.177 49.12V45.375C133.85 44.6283 133.314 44.0333 132.567 43.59C131.82 43.1467 130.945 42.925 129.942 42.925C128.752 42.925 127.749 43.3217 126.932 44.115C126.115 44.885 125.707 45.8883 125.707 47.125ZM25.4013 86.7725C25.4013 87.0459 25.4411 87.1826 25.5209 87.1826C25.6006 87.1826 25.6576 87.1655 25.6918 87.1313C25.726 87.0858 25.9652 86.818 26.4096 86.3281C27.697 84.8926 29.0015 84.1748 30.3231 84.1748C32.0549 84.1748 33.3253 84.5622 34.1342 85.3369C35.1254 86.3167 35.621 87.9631 35.621 90.2759V97.4023C35.621 98.5189 36.2362 99.1683 37.4667 99.3506C38.0022 99.4189 38.2699 99.5386 38.2699 99.7095C38.2699 99.8804 38.213 99.9772 38.099 100H30.477C30.363 99.9772 30.3061 99.8975 30.3061 99.7607C30.3061 99.5557 30.5738 99.4189 31.1093 99.3506C32.3397 99.1683 32.955 98.5189 32.955 97.4023V90.4468C32.955 88.772 32.8354 87.6839 32.5961 87.1826C32.1404 86.18 31.189 85.6787 29.7421 85.6787C28.8534 85.6787 27.9078 86.0604 26.9052 86.8237C25.9026 87.5757 25.4013 88.4074 25.4013 89.3188V97.4023C25.4013 98.5189 26.0165 99.1683 27.247 99.3506C27.7825 99.4189 28.0502 99.5386 28.0502 99.7095C28.0502 99.8804 27.9932 99.9772 27.8793 100H20.2572C20.1433 99.9772 20.0863 99.8975 20.0863 99.7607C20.0863 99.5557 20.3541 99.4189 20.8895 99.3506C22.12 99.1683 22.7353 98.5189 22.7353 97.4023V76.0913C22.7353 75.6128 22.4732 75.2824 21.9491 75.1001C21.7213 75.0203 21.4763 74.9577 21.2143 74.9121C20.9522 74.8551 20.7414 74.8039 20.5819 74.7583C20.4338 74.7127 20.337 74.6729 20.2914 74.6387C20.2572 74.5931 20.2401 74.5076 20.2401 74.3823C20.2401 74.2456 20.3256 74.1317 20.4965 74.0405L24.8544 71.9897C24.9911 71.9214 25.0766 71.8872 25.1107 71.8872C25.3044 71.8872 25.4013 72.0239 25.4013 72.2974V86.7725ZM49.8404 97.1802C49.8404 97.4764 49.9771 97.7157 50.2506 97.8979C50.5354 98.0688 50.8601 98.1543 51.2247 98.1543C51.5893 98.1543 51.8912 98.0632 52.1305 97.8809C52.3811 97.6872 52.552 97.5903 52.6432 97.5903C52.7343 97.5903 52.7799 97.7157 52.7799 97.9663C52.7799 98.2056 52.6659 98.4106 52.4381 98.5815C50.7291 99.8348 49.5727 100.461 48.9688 100.461C48.2397 100.461 47.6472 99.7038 47.1915 98.1885C47.1573 98.0745 47.1288 98.0233 47.1061 98.0347C45.6933 99.0942 44.8046 99.7323 44.44 99.9487C43.5058 100.484 42.5659 100.57 41.6202 100.205C40.686 99.8405 40.0081 99.2367 39.5865 98.3936C39.3814 97.9606 39.2789 97.4992 39.2789 97.0093C39.2789 96.0409 39.6378 95.2718 40.3556 94.7021C41.0733 94.1325 42.4405 93.5856 44.4571 93.0615C45.1407 92.8792 45.7503 92.6457 46.2857 92.3608C46.8212 92.076 47.1004 91.8937 47.1231 91.814C47.1573 91.7342 47.1744 91.6602 47.1744 91.5918V88.3105C47.1744 87.0231 46.6731 86.1174 45.6705 85.5933C45.3401 85.4224 44.9413 85.3369 44.4742 85.3369C44.0185 85.3369 43.5514 85.5192 43.0728 85.8838C42.6057 86.2484 42.3722 86.7668 42.3722 87.439L42.4576 88.1055C42.3893 88.2422 41.9791 88.4701 41.2271 88.7891C40.4752 89.1081 40.0423 89.279 39.9283 89.3018C39.746 89.3018 39.6549 89.0853 39.6549 88.6523C39.6549 88.208 39.7859 87.7181 40.0479 87.1826C40.31 86.6471 40.6803 86.1572 41.1588 85.7129C42.2753 84.6761 43.5514 84.1577 44.9869 84.1577C46.4225 84.1577 47.5903 84.5565 48.4903 85.354C49.3904 86.1401 49.8404 87.0801 49.8404 88.1738V97.1802ZM41.962 96.6846C41.962 97.2314 42.1728 97.71 42.5943 98.1201C43.0159 98.5189 43.4944 98.7183 44.0299 98.7183C44.5768 98.7183 45.2376 98.4904 46.0123 98.0347C46.787 97.5675 47.1744 97.089 47.1744 96.5991V93.1299C47.1744 93.0046 47.1459 92.9419 47.089 92.9419C47.032 92.9419 46.9921 92.9476 46.9693 92.959L43.0045 94.8047C42.5943 95.1009 42.3152 95.3516 42.1671 95.5566C42.0304 95.7617 41.962 96.1377 41.962 96.6846ZM64.1111 87.7466C63.9744 87.7238 63.775 87.6497 63.513 87.5244C62.5673 87.0915 61.8268 86.875 61.2913 86.875C60.7558 86.875 60.1919 87.2111 59.5994 87.8833C59.0184 88.5441 58.7278 89.1423 58.7278 89.6777V97.4023C58.7278 98.2568 59.2234 98.8265 60.2146 99.1113C60.6476 99.2253 61.052 99.3107 61.428 99.3677C61.804 99.4132 62.0433 99.4588 62.1458 99.5044C62.2597 99.55 62.3167 99.6411 62.3167 99.7778C62.3167 99.9032 62.2597 99.9772 62.1458 100H53.5838C53.4699 99.9772 53.4129 99.8975 53.4129 99.7607C53.4129 99.5557 53.6806 99.4189 54.2161 99.3506C55.4466 99.1683 56.0618 98.5189 56.0618 97.4023V88.3618C56.0618 87.8833 55.7998 87.5529 55.2757 87.3706C55.0478 87.2909 54.8029 87.2282 54.5408 87.1826C54.2788 87.1257 54.068 87.0744 53.9085 87.0288C53.7604 86.9832 53.6635 86.9434 53.618 86.9092C53.5838 86.8636 53.5667 86.7782 53.5667 86.6528C53.5667 86.5161 53.6521 86.4022 53.823 86.311L58.181 84.2603C58.3177 84.1919 58.4031 84.1577 58.4373 84.1577C58.631 84.1577 58.7278 84.2944 58.7278 84.5679V87.3364C58.7278 87.4731 58.762 87.5415 58.8304 87.5415C58.9215 87.5415 59.1551 87.2738 59.5311 86.7383C60.6134 85.223 61.5078 84.4653 62.2142 84.4653C62.6129 84.4653 63.2225 84.6248 64.0428 84.9438C64.8745 85.2629 65.2903 85.5306 65.2903 85.7471C65.2903 86.0091 65.1593 86.4079 64.8973 86.9434C64.6352 87.4788 64.3732 87.7466 64.1111 87.7466ZM88.3281 94.6167L88.2939 91.0107C88.2939 89.541 88.1686 88.5099 87.918 87.9175C87.6673 87.325 87.3483 86.8807 86.9609 86.5845C86.5736 86.2769 86.0495 86.123 85.3887 86.123C84.7393 86.123 83.355 86.6357 81.2358 87.6611C80.951 87.832 80.8029 87.9915 80.7915 88.1396V97.334C80.7915 98.4847 81.4067 99.1455 82.6372 99.3164C83.1727 99.3962 83.4404 99.5272 83.4404 99.7095C83.4404 99.8804 83.3835 99.9772 83.2695 100H75.6475C75.5335 99.9772 75.4766 99.8975 75.4766 99.7607C75.4766 99.5443 75.7443 99.3962 76.2798 99.3164C77.5103 99.1455 78.1255 98.4847 78.1255 97.334V88.8232C78.1255 87.0345 77.0203 86.1401 74.8101 86.1401C74.0011 86.1401 72.8789 86.6187 71.4434 87.5757C71.0788 87.8149 70.811 88.0371 70.6401 88.2422V97.334C70.6401 98.4847 71.2554 99.1455 72.4858 99.3164C73.0213 99.3962 73.2891 99.5272 73.2891 99.7095C73.2891 99.8804 73.2321 99.9772 73.1182 100H65.4961C65.3822 99.9772 65.3252 99.8975 65.3252 99.7607C65.3252 99.5443 65.5929 99.3962 66.1284 99.3164C67.3589 99.1455 67.9741 98.4961 67.9741 97.3682V87.5244C67.9741 87.0459 67.7121 86.7155 67.188 86.5332C66.9601 86.4535 66.7152 86.3908 66.4531 86.3452C66.1911 86.2882 65.9803 86.237 65.8208 86.1914C65.6727 86.1458 65.5758 86.106 65.5303 86.0718C65.4961 86.0262 65.479 85.9408 65.479 85.8154C65.479 85.6787 65.5645 85.5648 65.7354 85.4736L70.0933 83.4229C70.23 83.3545 70.3154 83.3203 70.3496 83.3203C70.5433 83.3203 70.6401 83.457 70.6401 83.7305V86.5674C70.6515 86.6357 70.6914 86.6699 70.7598 86.6699C70.8395 86.6699 71.0275 86.5902 71.3237 86.4307C71.6313 86.2712 72.0301 86.049 72.52 85.7642C73.0099 85.4679 73.6536 85.1261 74.4512 84.7388C75.2601 84.3514 76.1146 84.1577 77.0146 84.1577C78.4616 84.1577 79.4984 84.7786 80.125 86.0205C80.3643 86.5218 80.5807 86.7383 80.7744 86.6699C80.9681 86.5902 81.27 86.4478 81.6802 86.2427C82.6486 85.7642 83.6284 85.297 84.6196 84.8413C85.6108 84.3856 86.4312 84.1577 87.0806 84.1577C89.7124 84.1577 91.0283 86.556 91.0283 91.3525L90.8745 96.3428V97.334C90.8745 98.2227 91.3188 98.8037 92.2075 99.0771C92.5835 99.2025 92.9424 99.2936 93.2842 99.3506C93.6374 99.3962 93.8652 99.4417 93.9678 99.4873C94.0817 99.5329 94.1387 99.624 94.1387 99.7607C94.1387 99.8975 94.0817 99.9772 93.9678 100H85.7305C85.6165 99.9772 85.5596 99.8975 85.5596 99.7607C85.5596 99.5443 85.8273 99.3962 86.3628 99.3164C87.5819 99.1455 88.1914 98.4391 88.1914 97.1973C88.2826 96.6276 88.3281 95.7674 88.3281 94.6167ZM94.7888 92.3267C94.7888 90.0822 95.5806 88.1567 97.1643 86.5503C98.7593 84.9325 100.668 84.1235 102.889 84.1235C105.111 84.1235 107.042 84.9097 108.683 86.4819C110.323 88.0428 111.144 89.974 111.144 92.2754C111.144 94.5768 110.363 96.5194 108.802 98.103C107.253 99.6753 105.305 100.461 102.958 100.461C100.611 100.461 98.6625 99.6639 97.113 98.0688C95.5635 96.4738 94.7888 94.5597 94.7888 92.3267ZM99.0441 96.7188C100.161 98.5986 101.682 99.5386 103.607 99.5386C105.1 99.5386 106.239 98.9404 107.025 97.7441C107.823 96.5479 108.221 95.0781 108.221 93.335C108.221 91.5918 107.663 89.8031 106.547 87.9688C105.441 86.1344 103.949 85.2173 102.069 85.2173C100.69 85.2173 99.6024 85.8154 98.8049 87.0117C98.0187 88.1966 97.6257 89.7062 97.6257 91.5405C97.6257 93.3634 98.0985 95.0895 99.0441 96.7188ZM125.483 94.6167L125.449 91.0107C125.449 89.541 125.323 88.5099 125.073 87.9175C124.822 87.325 124.503 86.8807 124.116 86.5845C123.728 86.2769 123.204 86.123 122.543 86.123C121.894 86.123 120.51 86.6357 118.391 87.6611C118.106 87.832 117.958 87.9915 117.946 88.1396V97.334C117.946 98.4847 118.561 99.1455 119.792 99.3164C120.327 99.3962 120.595 99.5272 120.595 99.7095C120.595 99.8804 120.538 99.9772 120.424 100H112.802C112.688 99.9772 112.631 99.8975 112.631 99.7607C112.631 99.5443 112.899 99.3962 113.434 99.3164C114.665 99.1455 115.28 98.4847 115.28 97.334V87.5244C115.28 87.0459 115.018 86.7155 114.494 86.5332C114.266 86.4535 114.021 86.3908 113.759 86.3452C113.497 86.2882 113.286 86.237 113.127 86.1914C112.979 86.1458 112.882 86.106 112.836 86.0718C112.802 86.0262 112.785 85.9408 112.785 85.8154C112.785 85.6787 112.871 85.5648 113.041 85.4736L117.399 83.4229C117.536 83.3545 117.621 83.3203 117.656 83.3203C117.849 83.3203 117.946 83.457 117.946 83.7305V86.3965C117.98 86.5104 118.026 86.5674 118.083 86.5674C118.151 86.5674 118.396 86.4648 118.818 86.2598C119.798 85.7699 120.783 85.297 121.774 84.8413C122.766 84.3856 123.586 84.1577 124.235 84.1577C126.867 84.1577 128.183 86.556 128.183 91.3525L128.029 96.3428V97.334C128.029 98.2227 128.474 98.8037 129.362 99.0771C129.738 99.2025 130.097 99.2936 130.439 99.3506C130.792 99.3962 131.02 99.4417 131.122 99.4873C131.236 99.5329 131.293 99.624 131.293 99.7607C131.293 99.8975 131.236 99.9772 131.122 100H122.885C122.771 99.9772 122.714 99.8975 122.714 99.7607C122.714 99.5443 122.982 99.3962 123.517 99.3164C124.737 99.1455 125.346 98.4391 125.346 97.1973C125.437 96.6276 125.483 95.7674 125.483 94.6167ZM148.811 84.6191C148.936 84.6533 148.999 84.7331 148.999 84.8584C148.999 84.9837 148.988 85.0692 148.965 85.1147C148.942 85.1489 148.885 85.1831 148.794 85.2173C148.714 85.2401 148.595 85.2629 148.435 85.2856C148.287 85.3084 148.048 85.354 147.717 85.4224C147.387 85.4793 147.091 85.7072 146.829 86.106C146.567 86.5047 146.288 87.0573 145.991 87.7637L137.959 107.673L136.848 110.032C136.563 110.636 135.965 110.938 135.054 110.938C134.655 110.938 134.336 110.806 134.097 110.544C133.858 110.282 133.738 109.969 133.738 109.604C133.738 109.251 133.823 108.989 133.994 108.818C134.177 108.659 134.387 108.528 134.627 108.425C134.866 108.323 135.111 108.226 135.361 108.135C135.623 108.055 135.914 107.861 136.233 107.554C136.552 107.257 136.74 107.035 136.797 106.887C138.711 102.603 139.668 100.365 139.668 100.171C139.668 99.9772 139.554 99.738 139.326 99.4531L133.687 87.6782C133.265 86.5275 132.542 85.7869 131.516 85.4565C131.436 85.4338 131.34 85.4167 131.226 85.4053C130.747 85.3597 130.508 85.2173 130.508 84.978C130.508 84.7388 130.645 84.6191 130.918 84.6191H138.523C138.614 84.6191 138.66 84.7103 138.66 84.8926C138.66 85.0635 138.58 85.1831 138.421 85.2515C138.261 85.3084 137.908 85.3369 137.361 85.3369C136.484 85.3369 136.045 85.6787 136.045 86.3623L136.199 86.7725L140.625 96.2573C140.853 96.8384 141.081 96.8213 141.309 96.2061C141.331 96.1491 141.474 95.7788 141.736 95.0952C143.285 91.1646 144.151 88.8916 144.334 88.2764C144.527 87.6611 144.624 87.1997 144.624 86.8921C144.624 86.5845 144.459 86.2598 144.129 85.918C143.81 85.5762 143.365 85.4053 142.796 85.4053C142.237 85.4053 141.958 85.2401 141.958 84.9097C141.958 84.716 142.083 84.6191 142.334 84.6191H148.811Z" fill="#2A2921"/>
</svg>
