<svg width="169" height="136" viewBox="0 0 169 136" fill="none" xmlns="http://www.w3.org/2000/svg">
<path d="M35.7782 54V39.3L34.2207 39.055C33.8824 38.985 33.6082 38.8683 33.3982 38.705C33.1999 38.53 33.1007 38.285 33.1007 37.97V36.2025H35.7782V35.625C35.7782 34.5283 35.9591 33.5133 36.3207 32.58C36.6824 31.635 37.2307 30.8183 37.9657 30.13C38.7007 29.4417 39.6282 28.905 40.7482 28.52C41.8799 28.1233 43.2099 27.925 44.7382 27.925C45.2282 27.925 45.7241 27.9542 46.2257 28.0125C46.7391 28.0592 47.1824 28.1408 47.5557 28.2575L47.4157 30.4975C47.3924 30.7658 47.2466 30.9292 46.9782 30.9875C46.7099 31.0342 46.3774 31.0575 45.9807 31.0575C44.8491 31.0575 43.8982 31.1567 43.1282 31.355C42.3699 31.5533 41.7516 31.8508 41.2732 32.2475C40.8066 32.6325 40.4682 33.1225 40.2582 33.7175C40.0599 34.3008 39.9607 34.9833 39.9607 35.765V36.2025H51.0907V54H46.7682V39.2825H40.1007V54H35.7782ZM58.8637 38.25C59.2254 37.8883 59.6046 37.5558 60.0012 37.2525C60.4096 36.9375 60.8354 36.675 61.2787 36.465C61.7337 36.2433 62.2179 36.0742 62.7312 35.9575C63.2446 35.8292 63.8046 35.765 64.4112 35.765C65.3912 35.765 66.2604 35.9342 67.0187 36.2725C67.7771 36.5992 68.4071 37.0658 68.9087 37.6725C69.4221 38.2675 69.8071 38.985 70.0637 39.825C70.3321 40.6533 70.4662 41.5692 70.4662 42.5725V54H66.1437V42.5725C66.1437 41.4758 65.8929 40.63 65.3912 40.035C64.8896 39.4283 64.1254 39.125 63.0987 39.125C62.3521 39.125 61.6521 39.2942 60.9987 39.6325C60.3454 39.9708 59.7271 40.4317 59.1437 41.015V54H54.8212V36.045H57.4637C58.0237 36.045 58.3912 36.3075 58.5662 36.8325L58.8637 38.25ZM85.1471 40.63C84.6571 40.035 84.1204 39.615 83.5371 39.37C82.9654 39.125 82.3471 39.0025 81.6821 39.0025C81.0288 39.0025 80.4396 39.125 79.9146 39.37C79.3896 39.615 78.9404 39.9883 78.5671 40.49C78.1938 40.98 77.9079 41.61 77.7096 42.38C77.5113 43.1383 77.4121 44.0367 77.4121 45.075C77.4121 46.125 77.4938 47.0175 77.6571 47.7525C77.8321 48.4758 78.0771 49.0708 78.3921 49.5375C78.7071 49.9925 79.0921 50.325 79.5471 50.535C80.0021 50.7333 80.5096 50.8325 81.0696 50.8325C81.9679 50.8325 82.7321 50.6458 83.3621 50.2725C83.9921 49.8992 84.5871 49.3683 85.1471 48.68V40.63ZM89.4696 27.995V54H86.8271C86.2554 54 85.8938 53.7375 85.7421 53.2125L85.3746 51.48C84.6513 52.3083 83.8171 52.9792 82.8721 53.4925C81.9388 54.0058 80.8479 54.2625 79.5996 54.2625C78.6196 54.2625 77.7213 54.0583 76.9046 53.65C76.0879 53.2417 75.3821 52.6525 74.7871 51.8825C74.2038 51.1008 73.7488 50.1383 73.4221 48.995C73.1071 47.8517 72.9496 46.545 72.9496 45.075C72.9496 43.745 73.1304 42.5083 73.4921 41.365C73.8538 40.2217 74.3729 39.23 75.0496 38.39C75.7263 37.55 76.5371 36.8967 77.4821 36.43C78.4271 35.9517 79.4888 35.7125 80.6671 35.7125C81.6704 35.7125 82.5279 35.87 83.2396 36.185C83.9513 36.5 84.5871 36.9258 85.1471 37.4625V27.995H89.4696ZM97.5155 36.045V54H93.1755V36.045H97.5155ZM98.1105 30.8125C98.1105 31.1858 98.0347 31.5358 97.883 31.8625C97.7313 32.1892 97.5272 32.475 97.2705 32.72C97.0255 32.965 96.7338 33.1633 96.3955 33.315C96.0572 33.455 95.6955 33.525 95.3105 33.525C94.9372 33.525 94.5813 33.455 94.243 33.315C93.9163 33.1633 93.6305 32.965 93.3855 32.72C93.1405 32.475 92.9422 32.1892 92.7905 31.8625C92.6505 31.5358 92.5805 31.1858 92.5805 30.8125C92.5805 30.4275 92.6505 30.0658 92.7905 29.7275C92.9422 29.3892 93.1405 29.0975 93.3855 28.8525C93.6305 28.6075 93.9163 28.415 94.243 28.275C94.5813 28.1233 94.9372 28.0475 95.3105 28.0475C95.6955 28.0475 96.0572 28.1233 96.3955 28.275C96.7338 28.415 97.0255 28.6075 97.2705 28.8525C97.5272 29.0975 97.7313 29.3892 97.883 29.7275C98.0347 30.0658 98.1105 30.4275 98.1105 30.8125ZM105.265 38.25C105.626 37.8883 106.006 37.5558 106.402 37.2525C106.811 36.9375 107.236 36.675 107.68 36.465C108.135 36.2433 108.619 36.0742 109.132 35.9575C109.646 35.8292 110.206 35.765 110.812 35.765C111.792 35.765 112.661 35.9342 113.42 36.2725C114.178 36.5992 114.808 37.0658 115.31 37.6725C115.823 38.2675 116.208 38.985 116.465 39.825C116.733 40.6533 116.867 41.5692 116.867 42.5725V54H112.545V42.5725C112.545 41.4758 112.294 40.63 111.792 40.035C111.291 39.4283 110.526 39.125 109.5 39.125C108.753 39.125 108.053 39.2942 107.4 39.6325C106.746 39.9708 106.128 40.4317 105.545 41.015V54H101.222V36.045H103.865C104.425 36.045 104.792 36.3075 104.967 36.8325L105.265 38.25ZM126.841 44.585C127.377 44.585 127.844 44.515 128.241 44.375C128.637 44.2233 128.964 44.0192 129.221 43.7625C129.489 43.5058 129.687 43.1967 129.816 42.835C129.956 42.4733 130.026 42.0767 130.026 41.645C130.026 40.7583 129.757 40.0583 129.221 39.545C128.696 39.02 127.902 38.7575 126.841 38.7575C125.779 38.7575 124.98 39.02 124.443 39.545C123.918 40.0583 123.656 40.7583 123.656 41.645C123.656 42.065 123.72 42.4558 123.848 42.8175C123.988 43.1792 124.186 43.4942 124.443 43.7625C124.711 44.0192 125.044 44.2233 125.441 44.375C125.849 44.515 126.316 44.585 126.841 44.585ZM131.723 54.805C131.723 54.455 131.618 54.1692 131.408 53.9475C131.198 53.7258 130.912 53.5567 130.551 53.44C130.189 53.3117 129.763 53.2183 129.273 53.16C128.795 53.1017 128.281 53.0608 127.733 53.0375C127.196 53.0025 126.636 52.9733 126.053 52.95C125.481 52.9267 124.921 52.88 124.373 52.81C123.895 53.0783 123.504 53.3933 123.201 53.755C122.909 54.1167 122.763 54.5367 122.763 55.015C122.763 55.33 122.839 55.6217 122.991 55.89C123.154 56.17 123.405 56.4092 123.743 56.6075C124.093 56.8058 124.542 56.9575 125.091 57.0625C125.639 57.1792 126.31 57.2375 127.103 57.2375C127.908 57.2375 128.602 57.1733 129.186 57.045C129.769 56.9283 130.247 56.7592 130.621 56.5375C131.006 56.3275 131.286 56.0708 131.461 55.7675C131.636 55.4758 131.723 55.155 131.723 54.805ZM136.028 36.6575V38.2675C136.028 38.7808 135.719 39.0958 135.101 39.2125L133.491 39.51C133.736 40.1283 133.858 40.805 133.858 41.54C133.858 42.4267 133.677 43.2317 133.316 43.955C132.966 44.6667 132.476 45.2733 131.846 45.775C131.216 46.2767 130.469 46.6675 129.606 46.9475C128.754 47.2158 127.832 47.35 126.841 47.35C126.491 47.35 126.152 47.3325 125.826 47.2975C125.499 47.2625 125.178 47.2158 124.863 47.1575C124.303 47.4958 124.023 47.875 124.023 48.295C124.023 48.6567 124.186 48.925 124.513 49.1C124.851 49.2633 125.295 49.38 125.843 49.45C126.391 49.52 127.016 49.5667 127.716 49.59C128.416 49.6017 129.133 49.6367 129.868 49.695C130.603 49.7533 131.321 49.8583 132.021 50.01C132.721 50.15 133.345 50.3775 133.893 50.6925C134.441 51.0075 134.879 51.4392 135.206 51.9875C135.544 52.5242 135.713 53.2183 135.713 54.07C135.713 54.8633 135.515 55.6333 135.118 56.38C134.733 57.1267 134.167 57.7917 133.421 58.375C132.686 58.9583 131.776 59.425 130.691 59.775C129.617 60.1367 128.392 60.3175 127.016 60.3175C125.662 60.3175 124.484 60.1833 123.481 59.915C122.477 59.6583 121.643 59.3083 120.978 58.865C120.313 58.4333 119.817 57.9317 119.491 57.36C119.164 56.7883 119.001 56.1933 119.001 55.575C119.001 54.735 119.251 54.035 119.753 53.475C120.266 52.9033 120.966 52.4483 121.853 52.11C121.375 51.865 120.996 51.5383 120.716 51.13C120.436 50.7217 120.296 50.185 120.296 49.52C120.296 49.2517 120.342 48.9775 120.436 48.6975C120.541 48.4058 120.686 48.12 120.873 47.84C121.071 47.56 121.316 47.2975 121.608 47.0525C121.9 46.7958 122.244 46.5683 122.641 46.37C121.731 45.88 121.013 45.2267 120.488 44.41C119.975 43.5933 119.718 42.6367 119.718 41.54C119.718 40.6533 119.893 39.8542 120.243 39.1425C120.605 38.4192 121.101 37.8067 121.731 37.305C122.372 36.7917 123.125 36.4008 123.988 36.1325C124.863 35.8642 125.814 35.73 126.841 35.73C127.611 35.73 128.334 35.8117 129.011 35.975C129.687 36.1267 130.306 36.3542 130.866 36.6575H136.028ZM13.6346 72.75H22.0696V85.56C22.4429 84.4867 23.0146 83.6233 23.7846 82.97C24.5546 82.3167 25.7212 81.99 27.2846 81.99C30.9012 81.99 32.7096 83.9383 32.7096 87.835V98.37H34.6696V99H24.7646V98.37H26.1996V86.995C26.1996 85.595 26.1062 84.6967 25.9196 84.3C25.7329 83.88 25.3946 83.67 24.9046 83.67C24.1579 83.67 23.4929 84.16 22.9096 85.14C22.3496 86.12 22.0696 87.31 22.0696 88.71V98.37H23.5746V99H13.6346V98.37H15.5596V73.38H13.6346V72.75ZM42.902 90.775H43.917V88.08C43.917 85.8633 43.7886 84.3817 43.532 83.635C43.2986 82.865 42.832 82.48 42.132 82.48C41.712 82.48 41.327 82.5967 40.977 82.83C40.6503 83.04 40.487 83.3433 40.487 83.74C40.487 84.1133 40.557 84.4983 40.697 84.895H41.572C41.7586 85.385 41.852 85.98 41.852 86.68C41.852 87.3567 41.5603 87.9517 40.977 88.465C40.3936 88.955 39.6586 89.2 38.772 89.2C36.7653 89.2 35.762 88.2317 35.762 86.295C35.762 83.425 38.2003 81.99 43.077 81.99C45.8536 81.99 47.767 82.4683 48.817 83.425C49.8903 84.3583 50.427 86.085 50.427 88.605V95.71C50.427 96.9233 50.7653 97.53 51.442 97.53C52.2353 97.53 52.702 96.3283 52.842 93.925L53.367 93.96C53.2736 96.0133 52.8886 97.425 52.212 98.195C51.5353 98.965 50.427 99.35 48.887 99.35C46.087 99.35 44.477 98.4867 44.057 96.76C43.7536 97.6467 43.2986 98.3 42.692 98.72C42.0853 99.14 41.1986 99.35 40.032 99.35C36.5786 99.35 34.852 97.9383 34.852 95.115C34.852 93.4583 35.5053 92.3267 36.812 91.72C38.142 91.09 40.172 90.775 42.902 90.775ZM41.502 95.08C41.502 96.2933 41.5603 97.075 41.677 97.425C41.817 97.775 42.062 97.95 42.412 97.95C42.7853 97.95 43.1236 97.6583 43.427 97.075C43.7536 96.4683 43.917 95.64 43.917 94.59V91.335H43.672C42.2253 91.335 41.502 92.3967 41.502 94.52V95.08ZM64.7009 83.32C63.8376 83.32 63.0793 83.88 62.4259 85C61.7726 86.12 61.4459 87.45 61.4459 88.99V98.37H63.9309V99H53.0109V98.37H54.9359V82.97H53.0109V82.34H61.4459V85.7C61.7493 84.51 62.3326 83.6 63.1959 82.97C64.0593 82.3167 65.0393 81.99 66.1359 81.99C67.2326 81.99 68.1193 82.305 68.7959 82.935C69.4959 83.5417 69.8459 84.4167 69.8459 85.56C69.8459 86.68 69.5893 87.5433 69.0759 88.15C68.5626 88.7567 67.7693 89.06 66.6959 89.06C65.6459 89.06 64.8643 88.71 64.3509 88.01C63.8609 87.31 63.8026 86.3417 64.1759 85.105H65.4359C66.0193 83.915 65.7743 83.32 64.7009 83.32ZM69.64 82.34H78.075V85.56C78.845 83.18 80.5367 81.99 83.15 81.99C85.7867 81.99 87.385 83.25 87.945 85.77C88.7617 83.25 90.4767 81.99 93.09 81.99C96.52 81.99 98.235 83.9383 98.235 87.835V98.37H100.195V99H90.5V98.37H91.725V86.995C91.725 85.2217 91.5734 84.1833 91.27 83.88C91.13 83.74 90.9434 83.67 90.71 83.67C90.0334 83.67 89.4384 84.125 88.925 85.035C88.4117 85.945 88.155 87.1 88.155 88.5V98.37H89.415V99H80.42V98.37H81.645V86.995C81.645 85.2217 81.4934 84.1833 81.19 83.88C81.05 83.74 80.8634 83.67 80.63 83.67C79.9767 83.67 79.3817 84.1717 78.845 85.175C78.3317 86.155 78.075 87.3333 78.075 88.71V98.37H79.335V99H69.64V98.37H71.565V82.97H69.64V82.34ZM111.314 92.105V89.13C111.314 86.8667 111.186 85.2217 110.929 84.195C110.696 83.145 110.136 82.62 109.249 82.62C108.736 82.62 108.316 82.7717 107.989 83.075C107.686 83.355 107.464 83.8333 107.324 84.51C107.114 85.56 107.009 87.1583 107.009 89.305V92.035C107.009 94.5783 107.079 96.1067 107.219 96.62C107.383 97.1333 107.546 97.5533 107.709 97.88C107.966 98.44 108.468 98.72 109.214 98.72C110.124 98.72 110.719 98.195 110.999 97.145C111.209 96.3983 111.314 94.7183 111.314 92.105ZM109.144 99.35C106.228 99.35 104.023 98.6033 102.529 97.11C101.036 95.6167 100.289 93.4817 100.289 90.705C100.289 87.905 101.083 85.7583 102.669 84.265C104.279 82.7483 106.531 81.99 109.424 81.99C112.318 81.99 114.476 82.69 115.899 84.09C117.323 85.4667 118.034 87.5783 118.034 90.425C118.034 96.375 115.071 99.35 109.144 99.35ZM118.383 82.34H126.818V85.56C127.192 84.4867 127.763 83.6233 128.533 82.97C129.303 82.3167 130.47 81.99 132.033 81.99C135.65 81.99 137.458 83.9383 137.458 87.835V98.37H139.418V99H129.513V98.37H130.948V86.995C130.948 85.595 130.855 84.6967 130.668 84.3C130.482 83.88 130.143 83.67 129.653 83.67C128.907 83.67 128.242 84.16 127.658 85.14C127.098 86.12 126.818 87.31 126.818 88.71V98.37H128.323V99H118.383V98.37H120.308V82.97H118.383V82.34ZM137.263 82.97V82.34H147.413V82.97H145.523L149.338 94.59L153.398 82.97H151.053V82.34H155.988V82.97H154.238L147.693 101.835C146.923 104.028 146.059 105.557 145.103 106.42C144.146 107.307 142.979 107.75 141.603 107.75C140.226 107.75 139.141 107.435 138.348 106.805C137.554 106.175 137.158 105.37 137.158 104.39C137.158 103.41 137.414 102.663 137.928 102.15C138.441 101.637 139.118 101.38 139.958 101.38C141.894 101.38 142.863 102.185 142.863 103.795C142.863 104.145 142.793 104.565 142.653 105.055H141.428C141.241 105.592 141.218 106.035 141.358 106.385C141.498 106.735 141.813 106.91 142.303 106.91C143.259 106.91 144.111 106.432 144.858 105.475C145.604 104.542 146.316 103.107 146.993 101.17L147.763 99H144.683L138.698 82.97H137.263Z" fill="#2A2921"/>
</svg>
