<svg width="169" height="136" viewBox="0 0 169 136" fill="none" xmlns="http://www.w3.org/2000/svg">
<path d="M36.2782 54V39.3L34.7207 39.055C34.3824 38.985 34.1082 38.8683 33.8982 38.705C33.6999 38.53 33.6007 38.285 33.6007 37.97V36.2025H36.2782V35.625C36.2782 34.5283 36.4591 33.5133 36.8207 32.58C37.1824 31.635 37.7307 30.8183 38.4657 30.13C39.2007 29.4417 40.1282 28.905 41.2482 28.52C42.3799 28.1233 43.7099 27.925 45.2382 27.925C45.7282 27.925 46.2241 27.9542 46.7257 28.0125C47.2391 28.0592 47.6824 28.1408 48.0557 28.2575L47.9157 30.4975C47.8924 30.7658 47.7466 30.9292 47.4782 30.9875C47.2099 31.0342 46.8774 31.0575 46.4807 31.0575C45.3491 31.0575 44.3982 31.1567 43.6282 31.355C42.8699 31.5533 42.2516 31.8508 41.7732 32.2475C41.3066 32.6325 40.9682 33.1225 40.7582 33.7175C40.5599 34.3008 40.4607 34.9833 40.4607 35.765V36.2025H51.5907V54H47.2682V39.2825H40.6007V54H36.2782ZM59.3637 38.25C59.7254 37.8883 60.1046 37.5558 60.5012 37.2525C60.9096 36.9375 61.3354 36.675 61.7787 36.465C62.2337 36.2433 62.7179 36.0742 63.2312 35.9575C63.7446 35.8292 64.3046 35.765 64.9112 35.765C65.8912 35.765 66.7604 35.9342 67.5187 36.2725C68.2771 36.5992 68.9071 37.0658 69.4087 37.6725C69.9221 38.2675 70.3071 38.985 70.5637 39.825C70.8321 40.6533 70.9662 41.5692 70.9662 42.5725V54H66.6437V42.5725C66.6437 41.4758 66.3929 40.63 65.8912 40.035C65.3896 39.4283 64.6254 39.125 63.5987 39.125C62.8521 39.125 62.1521 39.2942 61.4987 39.6325C60.8454 39.9708 60.2271 40.4317 59.6437 41.015V54H55.3212V36.045H57.9637C58.5237 36.045 58.8912 36.3075 59.0662 36.8325L59.3637 38.25ZM85.6471 40.63C85.1571 40.035 84.6204 39.615 84.0371 39.37C83.4654 39.125 82.8471 39.0025 82.1821 39.0025C81.5288 39.0025 80.9396 39.125 80.4146 39.37C79.8896 39.615 79.4404 39.9883 79.0671 40.49C78.6938 40.98 78.4079 41.61 78.2096 42.38C78.0113 43.1383 77.9121 44.0367 77.9121 45.075C77.9121 46.125 77.9938 47.0175 78.1571 47.7525C78.3321 48.4758 78.5771 49.0708 78.8921 49.5375C79.2071 49.9925 79.5921 50.325 80.0471 50.535C80.5021 50.7333 81.0096 50.8325 81.5696 50.8325C82.4679 50.8325 83.2321 50.6458 83.8621 50.2725C84.4921 49.8992 85.0871 49.3683 85.6471 48.68V40.63ZM89.9696 27.995V54H87.3271C86.7554 54 86.3938 53.7375 86.2421 53.2125L85.8746 51.48C85.1513 52.3083 84.3171 52.9792 83.3721 53.4925C82.4388 54.0058 81.3479 54.2625 80.0996 54.2625C79.1196 54.2625 78.2213 54.0583 77.4046 53.65C76.5879 53.2417 75.8821 52.6525 75.2871 51.8825C74.7038 51.1008 74.2488 50.1383 73.9221 48.995C73.6071 47.8517 73.4496 46.545 73.4496 45.075C73.4496 43.745 73.6304 42.5083 73.9921 41.365C74.3538 40.2217 74.8729 39.23 75.5496 38.39C76.2263 37.55 77.0371 36.8967 77.9821 36.43C78.9271 35.9517 79.9888 35.7125 81.1671 35.7125C82.1704 35.7125 83.0279 35.87 83.7396 36.185C84.4513 36.5 85.0871 36.9258 85.6471 37.4625V27.995H89.9696ZM98.0155 36.045V54H93.6755V36.045H98.0155ZM98.6105 30.8125C98.6105 31.1858 98.5347 31.5358 98.383 31.8625C98.2313 32.1892 98.0272 32.475 97.7705 32.72C97.5255 32.965 97.2338 33.1633 96.8955 33.315C96.5572 33.455 96.1955 33.525 95.8105 33.525C95.4372 33.525 95.0813 33.455 94.743 33.315C94.4163 33.1633 94.1305 32.965 93.8855 32.72C93.6405 32.475 93.4422 32.1892 93.2905 31.8625C93.1505 31.5358 93.0805 31.1858 93.0805 30.8125C93.0805 30.4275 93.1505 30.0658 93.2905 29.7275C93.4422 29.3892 93.6405 29.0975 93.8855 28.8525C94.1305 28.6075 94.4163 28.415 94.743 28.275C95.0813 28.1233 95.4372 28.0475 95.8105 28.0475C96.1955 28.0475 96.5572 28.1233 96.8955 28.275C97.2338 28.415 97.5255 28.6075 97.7705 28.8525C98.0272 29.0975 98.2313 29.3892 98.383 29.7275C98.5347 30.0658 98.6105 30.4275 98.6105 30.8125ZM105.765 38.25C106.126 37.8883 106.506 37.5558 106.902 37.2525C107.311 36.9375 107.736 36.675 108.18 36.465C108.635 36.2433 109.119 36.0742 109.632 35.9575C110.146 35.8292 110.706 35.765 111.312 35.765C112.292 35.765 113.161 35.9342 113.92 36.2725C114.678 36.5992 115.308 37.0658 115.81 37.6725C116.323 38.2675 116.708 38.985 116.965 39.825C117.233 40.6533 117.367 41.5692 117.367 42.5725V54H113.045V42.5725C113.045 41.4758 112.794 40.63 112.292 40.035C111.791 39.4283 111.026 39.125 110 39.125C109.253 39.125 108.553 39.2942 107.9 39.6325C107.246 39.9708 106.628 40.4317 106.045 41.015V54H101.722V36.045H104.365C104.925 36.045 105.292 36.3075 105.467 36.8325L105.765 38.25ZM127.341 44.585C127.877 44.585 128.344 44.515 128.741 44.375C129.137 44.2233 129.464 44.0192 129.721 43.7625C129.989 43.5058 130.187 43.1967 130.316 42.835C130.456 42.4733 130.526 42.0767 130.526 41.645C130.526 40.7583 130.257 40.0583 129.721 39.545C129.196 39.02 128.402 38.7575 127.341 38.7575C126.279 38.7575 125.48 39.02 124.943 39.545C124.418 40.0583 124.156 40.7583 124.156 41.645C124.156 42.065 124.22 42.4558 124.348 42.8175C124.488 43.1792 124.686 43.4942 124.943 43.7625C125.211 44.0192 125.544 44.2233 125.941 44.375C126.349 44.515 126.816 44.585 127.341 44.585ZM132.223 54.805C132.223 54.455 132.118 54.1692 131.908 53.9475C131.698 53.7258 131.412 53.5567 131.051 53.44C130.689 53.3117 130.263 53.2183 129.773 53.16C129.295 53.1017 128.781 53.0608 128.233 53.0375C127.696 53.0025 127.136 52.9733 126.553 52.95C125.981 52.9267 125.421 52.88 124.873 52.81C124.395 53.0783 124.004 53.3933 123.701 53.755C123.409 54.1167 123.263 54.5367 123.263 55.015C123.263 55.33 123.339 55.6217 123.491 55.89C123.654 56.17 123.905 56.4092 124.243 56.6075C124.593 56.8058 125.042 56.9575 125.591 57.0625C126.139 57.1792 126.81 57.2375 127.603 57.2375C128.408 57.2375 129.102 57.1733 129.686 57.045C130.269 56.9283 130.747 56.7592 131.121 56.5375C131.506 56.3275 131.786 56.0708 131.961 55.7675C132.136 55.4758 132.223 55.155 132.223 54.805ZM136.528 36.6575V38.2675C136.528 38.7808 136.219 39.0958 135.601 39.2125L133.991 39.51C134.236 40.1283 134.358 40.805 134.358 41.54C134.358 42.4267 134.177 43.2317 133.816 43.955C133.466 44.6667 132.976 45.2733 132.346 45.775C131.716 46.2767 130.969 46.6675 130.106 46.9475C129.254 47.2158 128.332 47.35 127.341 47.35C126.991 47.35 126.652 47.3325 126.326 47.2975C125.999 47.2625 125.678 47.2158 125.363 47.1575C124.803 47.4958 124.523 47.875 124.523 48.295C124.523 48.6567 124.686 48.925 125.013 49.1C125.351 49.2633 125.795 49.38 126.343 49.45C126.891 49.52 127.516 49.5667 128.216 49.59C128.916 49.6017 129.633 49.6367 130.368 49.695C131.103 49.7533 131.821 49.8583 132.521 50.01C133.221 50.15 133.845 50.3775 134.393 50.6925C134.941 51.0075 135.379 51.4392 135.706 51.9875C136.044 52.5242 136.213 53.2183 136.213 54.07C136.213 54.8633 136.015 55.6333 135.618 56.38C135.233 57.1267 134.667 57.7917 133.921 58.375C133.186 58.9583 132.276 59.425 131.191 59.775C130.117 60.1367 128.892 60.3175 127.516 60.3175C126.162 60.3175 124.984 60.1833 123.981 59.915C122.977 59.6583 122.143 59.3083 121.478 58.865C120.813 58.4333 120.317 57.9317 119.991 57.36C119.664 56.7883 119.501 56.1933 119.501 55.575C119.501 54.735 119.751 54.035 120.253 53.475C120.766 52.9033 121.466 52.4483 122.353 52.11C121.875 51.865 121.496 51.5383 121.216 51.13C120.936 50.7217 120.796 50.185 120.796 49.52C120.796 49.2517 120.842 48.9775 120.936 48.6975C121.041 48.4058 121.186 48.12 121.373 47.84C121.571 47.56 121.816 47.2975 122.108 47.0525C122.4 46.7958 122.744 46.5683 123.141 46.37C122.231 45.88 121.513 45.2267 120.988 44.41C120.475 43.5933 120.218 42.6367 120.218 41.54C120.218 40.6533 120.393 39.8542 120.743 39.1425C121.105 38.4192 121.601 37.8067 122.231 37.305C122.872 36.7917 123.625 36.4008 124.488 36.1325C125.363 35.8642 126.314 35.73 127.341 35.73C128.111 35.73 128.834 35.8117 129.511 35.975C130.187 36.1267 130.806 36.3542 131.366 36.6575H136.528ZM21.4518 85.35C22.5718 83.0167 24.4268 81.85 27.0168 81.85C29.0001 81.85 30.5401 82.5033 31.6368 83.81C32.7568 85.1167 33.3168 86.9017 33.3168 89.165V99H30.5868V89.165C30.5868 87.555 30.2018 86.3417 29.4318 85.525C28.6851 84.7083 27.6001 84.3 26.1768 84.3C24.7534 84.3 23.6101 84.9067 22.7468 86.12C21.8834 87.31 21.4518 88.9667 21.4518 91.09V99H18.6868V75.165H21.4518V85.35ZM49.4698 88.15C49.4698 86.6333 49.1548 85.5483 48.5248 84.895C47.8948 84.2417 46.9731 83.915 45.7598 83.915C44.5698 83.915 43.6015 84.16 42.8548 84.65C42.1315 85.1167 41.7698 85.8633 41.7698 86.89H38.7248C38.7248 84.3233 40.1015 82.7367 42.8548 82.13C43.6948 81.9433 44.6048 81.85 45.5848 81.85C47.6615 81.85 49.2831 82.375 50.4498 83.425C51.6165 84.475 52.1998 86.0733 52.1998 88.22V99H49.8198L49.5398 96.2C48.5131 98.3233 46.6581 99.385 43.9748 99.385C42.1781 99.385 40.7315 98.8833 39.6348 97.88C38.5615 96.8767 38.0248 95.6283 38.0248 94.135C38.0248 92.6417 38.6198 91.475 39.8098 90.635C41.0231 89.795 42.5281 89.375 44.3248 89.375C46.1215 89.375 47.8365 89.6783 49.4698 90.285V88.15ZM49.4698 92.035C47.8131 91.5683 46.3665 91.335 45.1298 91.335C43.8931 91.335 42.8898 91.5567 42.1198 92C41.3498 92.4433 40.9648 93.1433 40.9648 94.1C40.9648 96.2 42.1548 97.25 44.5348 97.25C45.8881 97.25 47.0431 96.7717 47.9998 95.815C48.9798 94.835 49.4698 93.575 49.4698 92.035ZM64.8198 84.615C62.1831 84.615 60.8181 86.6917 60.7248 90.845V99H57.9598V82.235H60.7248V85.455C61.5648 83.1217 63.0464 81.955 65.1698 81.955C65.8464 81.955 66.4881 82.06 67.0948 82.27L66.9548 84.965C66.2548 84.7317 65.5431 84.615 64.8198 84.615ZM73.2848 85.49C74.3815 83.0633 76.2598 81.85 78.9198 81.85C80.3665 81.85 81.5798 82.2117 82.5598 82.935C83.5398 83.635 84.2515 84.615 84.6948 85.875C85.7448 83.1917 87.6932 81.85 90.5398 81.85C92.5465 81.85 94.0982 82.5033 95.1948 83.81C96.2915 85.1167 96.8398 86.9017 96.8398 89.165V99H94.1098V89.165C94.1098 87.555 93.7248 86.3417 92.9548 85.525C92.2082 84.7083 91.1232 84.3 89.6998 84.3C88.2765 84.3 87.1682 84.8833 86.3748 86.05C85.6048 87.2167 85.2198 88.8267 85.2198 90.88V99H82.4898V89.165C82.4898 87.555 82.1048 86.3417 81.3348 85.525C80.5882 84.7083 79.5148 84.3 78.1148 84.3C76.7148 84.3 75.5832 84.8717 74.7198 86.015C73.8565 87.1583 73.4015 88.745 73.3548 90.775V99H70.5898V82.27H72.9698L73.2848 85.49ZM108.655 81.85C110.988 81.85 112.866 82.6083 114.29 84.125C115.736 85.6417 116.46 87.8117 116.46 90.635C116.46 93.435 115.736 95.5933 114.29 97.11C112.866 98.6267 110.988 99.385 108.655 99.385C106.321 99.385 104.431 98.6267 102.985 97.11C101.561 95.5933 100.85 93.435 100.85 90.635C100.85 87.8117 101.561 85.6417 102.985 84.125C104.431 82.6083 106.321 81.85 108.655 81.85ZM113.66 90.635C113.66 88.6283 113.24 87.065 112.4 85.945C111.56 84.8017 110.323 84.23 108.69 84.23C107.08 84.23 105.843 84.8017 104.98 85.945C104.116 87.065 103.685 88.6283 103.685 90.635C103.685 92.6183 104.093 94.1817 104.91 95.325C105.726 96.445 106.94 97.005 108.55 97.005C110.183 97.005 111.443 96.445 112.33 95.325C113.216 94.1817 113.66 92.6183 113.66 90.635ZM123.701 85.49C124.798 83.0633 126.676 81.85 129.336 81.85C131.32 81.85 132.86 82.5033 133.956 83.81C135.076 85.1167 135.636 86.9017 135.636 89.165V99H132.906V89.165C132.906 87.555 132.521 86.3417 131.751 85.525C131.005 84.7083 129.931 84.3 128.531 84.3C127.131 84.3 126 84.8717 125.136 86.015C124.273 87.1583 123.818 88.745 123.771 90.775V99H121.006V82.27H123.386L123.701 85.49ZM138.07 103.865C139.213 104.752 140.415 105.195 141.675 105.195C142.608 105.195 143.413 104.728 144.09 103.795C144.58 103.118 145.023 102.092 145.42 100.715L145.91 99L139.05 82.27H142.13L147.205 95.605L151.16 82.27H153.96L147.695 102.325C147.158 104.028 146.447 105.335 145.56 106.245C144.697 107.155 143.588 107.61 142.235 107.61C140.905 107.61 139.517 107.202 138.07 106.385V103.865Z" fill="#2A2921"/>
</svg>
