<svg width="169" height="136" viewBox="0 0 169 136" fill="none" xmlns="http://www.w3.org/2000/svg">
<path d="M36.2782 54V39.3L34.7207 39.055C34.3824 38.985 34.1082 38.8683 33.8982 38.705C33.6999 38.53 33.6007 38.285 33.6007 37.97V36.2025H36.2782V35.625C36.2782 34.5283 36.4591 33.5133 36.8207 32.58C37.1824 31.635 37.7307 30.8183 38.4657 30.13C39.2007 29.4417 40.1282 28.905 41.2482 28.52C42.3799 28.1233 43.7099 27.925 45.2382 27.925C45.7282 27.925 46.2241 27.9542 46.7257 28.0125C47.2391 28.0592 47.6824 28.1408 48.0557 28.2575L47.9157 30.4975C47.8924 30.7658 47.7466 30.9292 47.4782 30.9875C47.2099 31.0342 46.8774 31.0575 46.4807 31.0575C45.3491 31.0575 44.3982 31.1567 43.6282 31.355C42.8699 31.5533 42.2516 31.8508 41.7732 32.2475C41.3066 32.6325 40.9682 33.1225 40.7582 33.7175C40.5599 34.3008 40.4607 34.9833 40.4607 35.765V36.2025H51.5907V54H47.2682V39.2825H40.6007V54H36.2782ZM59.3637 38.25C59.7254 37.8883 60.1046 37.5558 60.5012 37.2525C60.9096 36.9375 61.3354 36.675 61.7787 36.465C62.2337 36.2433 62.7179 36.0742 63.2312 35.9575C63.7446 35.8292 64.3046 35.765 64.9112 35.765C65.8912 35.765 66.7604 35.9342 67.5187 36.2725C68.2771 36.5992 68.9071 37.0658 69.4087 37.6725C69.9221 38.2675 70.3071 38.985 70.5637 39.825C70.8321 40.6533 70.9662 41.5692 70.9662 42.5725V54H66.6437V42.5725C66.6437 41.4758 66.3929 40.63 65.8912 40.035C65.3896 39.4283 64.6254 39.125 63.5987 39.125C62.8521 39.125 62.1521 39.2942 61.4987 39.6325C60.8454 39.9708 60.2271 40.4317 59.6437 41.015V54H55.3212V36.045H57.9637C58.5237 36.045 58.8912 36.3075 59.0662 36.8325L59.3637 38.25ZM85.6471 40.63C85.1571 40.035 84.6204 39.615 84.0371 39.37C83.4654 39.125 82.8471 39.0025 82.1821 39.0025C81.5288 39.0025 80.9396 39.125 80.4146 39.37C79.8896 39.615 79.4404 39.9883 79.0671 40.49C78.6938 40.98 78.4079 41.61 78.2096 42.38C78.0113 43.1383 77.9121 44.0367 77.9121 45.075C77.9121 46.125 77.9938 47.0175 78.1571 47.7525C78.3321 48.4758 78.5771 49.0708 78.8921 49.5375C79.2071 49.9925 79.5921 50.325 80.0471 50.535C80.5021 50.7333 81.0096 50.8325 81.5696 50.8325C82.4679 50.8325 83.2321 50.6458 83.8621 50.2725C84.4921 49.8992 85.0871 49.3683 85.6471 48.68V40.63ZM89.9696 27.995V54H87.3271C86.7554 54 86.3938 53.7375 86.2421 53.2125L85.8746 51.48C85.1513 52.3083 84.3171 52.9792 83.3721 53.4925C82.4388 54.0058 81.3479 54.2625 80.0996 54.2625C79.1196 54.2625 78.2213 54.0583 77.4046 53.65C76.5879 53.2417 75.8821 52.6525 75.2871 51.8825C74.7038 51.1008 74.2488 50.1383 73.9221 48.995C73.6071 47.8517 73.4496 46.545 73.4496 45.075C73.4496 43.745 73.6304 42.5083 73.9921 41.365C74.3538 40.2217 74.8729 39.23 75.5496 38.39C76.2263 37.55 77.0371 36.8967 77.9821 36.43C78.9271 35.9517 79.9888 35.7125 81.1671 35.7125C82.1704 35.7125 83.0279 35.87 83.7396 36.185C84.4513 36.5 85.0871 36.9258 85.6471 37.4625V27.995H89.9696ZM98.0155 36.045V54H93.6755V36.045H98.0155ZM98.6105 30.8125C98.6105 31.1858 98.5347 31.5358 98.383 31.8625C98.2313 32.1892 98.0272 32.475 97.7705 32.72C97.5255 32.965 97.2338 33.1633 96.8955 33.315C96.5572 33.455 96.1955 33.525 95.8105 33.525C95.4372 33.525 95.0813 33.455 94.743 33.315C94.4163 33.1633 94.1305 32.965 93.8855 32.72C93.6405 32.475 93.4422 32.1892 93.2905 31.8625C93.1505 31.5358 93.0805 31.1858 93.0805 30.8125C93.0805 30.4275 93.1505 30.0658 93.2905 29.7275C93.4422 29.3892 93.6405 29.0975 93.8855 28.8525C94.1305 28.6075 94.4163 28.415 94.743 28.275C95.0813 28.1233 95.4372 28.0475 95.8105 28.0475C96.1955 28.0475 96.5572 28.1233 96.8955 28.275C97.2338 28.415 97.5255 28.6075 97.7705 28.8525C98.0272 29.0975 98.2313 29.3892 98.383 29.7275C98.5347 30.0658 98.6105 30.4275 98.6105 30.8125ZM105.765 38.25C106.126 37.8883 106.506 37.5558 106.902 37.2525C107.311 36.9375 107.736 36.675 108.18 36.465C108.635 36.2433 109.119 36.0742 109.632 35.9575C110.146 35.8292 110.706 35.765 111.312 35.765C112.292 35.765 113.161 35.9342 113.92 36.2725C114.678 36.5992 115.308 37.0658 115.81 37.6725C116.323 38.2675 116.708 38.985 116.965 39.825C117.233 40.6533 117.367 41.5692 117.367 42.5725V54H113.045V42.5725C113.045 41.4758 112.794 40.63 112.292 40.035C111.791 39.4283 111.026 39.125 110 39.125C109.253 39.125 108.553 39.2942 107.9 39.6325C107.246 39.9708 106.628 40.4317 106.045 41.015V54H101.722V36.045H104.365C104.925 36.045 105.292 36.3075 105.467 36.8325L105.765 38.25ZM127.341 44.585C127.877 44.585 128.344 44.515 128.741 44.375C129.137 44.2233 129.464 44.0192 129.721 43.7625C129.989 43.5058 130.187 43.1967 130.316 42.835C130.456 42.4733 130.526 42.0767 130.526 41.645C130.526 40.7583 130.257 40.0583 129.721 39.545C129.196 39.02 128.402 38.7575 127.341 38.7575C126.279 38.7575 125.48 39.02 124.943 39.545C124.418 40.0583 124.156 40.7583 124.156 41.645C124.156 42.065 124.22 42.4558 124.348 42.8175C124.488 43.1792 124.686 43.4942 124.943 43.7625C125.211 44.0192 125.544 44.2233 125.941 44.375C126.349 44.515 126.816 44.585 127.341 44.585ZM132.223 54.805C132.223 54.455 132.118 54.1692 131.908 53.9475C131.698 53.7258 131.412 53.5567 131.051 53.44C130.689 53.3117 130.263 53.2183 129.773 53.16C129.295 53.1017 128.781 53.0608 128.233 53.0375C127.696 53.0025 127.136 52.9733 126.553 52.95C125.981 52.9267 125.421 52.88 124.873 52.81C124.395 53.0783 124.004 53.3933 123.701 53.755C123.409 54.1167 123.263 54.5367 123.263 55.015C123.263 55.33 123.339 55.6217 123.491 55.89C123.654 56.17 123.905 56.4092 124.243 56.6075C124.593 56.8058 125.042 56.9575 125.591 57.0625C126.139 57.1792 126.81 57.2375 127.603 57.2375C128.408 57.2375 129.102 57.1733 129.686 57.045C130.269 56.9283 130.747 56.7592 131.121 56.5375C131.506 56.3275 131.786 56.0708 131.961 55.7675C132.136 55.4758 132.223 55.155 132.223 54.805ZM136.528 36.6575V38.2675C136.528 38.7808 136.219 39.0958 135.601 39.2125L133.991 39.51C134.236 40.1283 134.358 40.805 134.358 41.54C134.358 42.4267 134.177 43.2317 133.816 43.955C133.466 44.6667 132.976 45.2733 132.346 45.775C131.716 46.2767 130.969 46.6675 130.106 46.9475C129.254 47.2158 128.332 47.35 127.341 47.35C126.991 47.35 126.652 47.3325 126.326 47.2975C125.999 47.2625 125.678 47.2158 125.363 47.1575C124.803 47.4958 124.523 47.875 124.523 48.295C124.523 48.6567 124.686 48.925 125.013 49.1C125.351 49.2633 125.795 49.38 126.343 49.45C126.891 49.52 127.516 49.5667 128.216 49.59C128.916 49.6017 129.633 49.6367 130.368 49.695C131.103 49.7533 131.821 49.8583 132.521 50.01C133.221 50.15 133.845 50.3775 134.393 50.6925C134.941 51.0075 135.379 51.4392 135.706 51.9875C136.044 52.5242 136.213 53.2183 136.213 54.07C136.213 54.8633 136.015 55.6333 135.618 56.38C135.233 57.1267 134.667 57.7917 133.921 58.375C133.186 58.9583 132.276 59.425 131.191 59.775C130.117 60.1367 128.892 60.3175 127.516 60.3175C126.162 60.3175 124.984 60.1833 123.981 59.915C122.977 59.6583 122.143 59.3083 121.478 58.865C120.813 58.4333 120.317 57.9317 119.991 57.36C119.664 56.7883 119.501 56.1933 119.501 55.575C119.501 54.735 119.751 54.035 120.253 53.475C120.766 52.9033 121.466 52.4483 122.353 52.11C121.875 51.865 121.496 51.5383 121.216 51.13C120.936 50.7217 120.796 50.185 120.796 49.52C120.796 49.2517 120.842 48.9775 120.936 48.6975C121.041 48.4058 121.186 48.12 121.373 47.84C121.571 47.56 121.816 47.2975 122.108 47.0525C122.4 46.7958 122.744 46.5683 123.141 46.37C122.231 45.88 121.513 45.2267 120.988 44.41C120.475 43.5933 120.218 42.6367 120.218 41.54C120.218 40.6533 120.393 39.8542 120.743 39.1425C121.105 38.4192 121.601 37.8067 122.231 37.305C122.872 36.7917 123.625 36.4008 124.488 36.1325C125.363 35.8642 126.314 35.73 127.341 35.73C128.111 35.73 128.834 35.8117 129.511 35.975C130.187 36.1267 130.806 36.3542 131.366 36.6575H136.528ZM11.5074 72.89L8.56738 72.505V71L14.2724 70.335H14.3424L15.1124 70.86V78.98L14.9724 81.955C15.719 81.2783 16.7457 80.6367 18.0524 80.03C19.359 79.4233 20.6774 79.12 22.0074 79.12C23.4774 79.12 24.6207 79.4 25.4374 79.96C26.254 80.52 26.8257 81.3833 27.1524 82.55C27.479 83.6933 27.6424 85.245 27.6424 87.205V96.97L30.0924 97.285V99H21.7274V97.285L24.0024 96.97V87.17C24.0024 85.7933 23.909 84.72 23.7224 83.95C23.5357 83.1567 23.1857 82.5733 22.6724 82.2C22.159 81.8033 21.389 81.605 20.3624 81.605C19.5224 81.605 18.624 81.815 17.6674 82.235C16.7107 82.655 15.8707 83.145 15.1474 83.705V96.97L17.5624 97.285V99H9.40738V97.285L11.5074 97.005V72.89ZM31.9887 93.75C31.9887 91.5567 33.0853 89.9467 35.2787 88.92C37.472 87.87 40.2487 87.31 43.6087 87.24V86.26C43.6087 85.1633 43.492 84.3 43.2587 83.67C43.0253 83.04 42.617 82.585 42.0337 82.305C41.4737 82.0017 40.6687 81.85 39.6187 81.85C38.4287 81.85 37.3553 82.025 36.3987 82.375C35.4653 82.7017 34.532 83.11 33.5987 83.6L32.7237 81.78C33.027 81.5233 33.587 81.185 34.4037 80.765C35.2203 80.345 36.1653 79.9717 37.2387 79.645C38.312 79.3183 39.3853 79.155 40.4587 79.155C42.1153 79.155 43.422 79.3883 44.3787 79.855C45.3587 80.2983 46.0587 81.0217 46.4787 82.025C46.8987 83.0283 47.1087 84.37 47.1087 86.05V97.285H49.1737V98.825C48.707 98.9417 48.112 99.0583 47.3887 99.175C46.6887 99.2917 46.0703 99.35 45.5337 99.35C44.8803 99.35 44.437 99.245 44.2037 99.035C43.9703 98.8483 43.8537 98.4167 43.8537 97.74V96.585C43.1537 97.285 42.2903 97.9267 41.2637 98.51C40.2603 99.0933 39.117 99.385 37.8337 99.385C36.1537 99.385 34.7537 98.9067 33.6337 97.95C32.537 96.97 31.9887 95.57 31.9887 93.75ZM39.3387 97.005C39.9453 97.005 40.6453 96.8183 41.4387 96.445C42.232 96.0717 42.9553 95.6283 43.6087 95.115V89.095C41.0653 89.095 39.1403 89.4917 37.8337 90.285C36.5503 91.055 35.9087 92.07 35.9087 93.33C35.9087 94.59 36.212 95.5233 36.8187 96.13C37.4487 96.7133 38.2887 97.005 39.3387 97.005ZM50.9778 97.285L53.6028 97.075V82.27L51.0828 81.64V79.75L55.9128 79.12H55.9828L56.7528 79.75V80.38L56.6478 83.11H56.7528C56.9861 82.7133 57.4061 82.2 58.0128 81.57C58.6195 80.94 59.4011 80.3683 60.3578 79.855C61.3145 79.3183 62.3528 79.05 63.4728 79.05C63.9395 79.05 64.3245 79.1083 64.6278 79.225V83.145C64.4645 83.0283 64.1961 82.9233 63.8228 82.83C63.4728 82.7133 63.0761 82.655 62.6328 82.655C60.6961 82.655 58.8995 83.25 57.2428 84.44V97.04L61.6878 97.32V99H50.9778V97.285ZM66.2031 97.285L68.3381 96.97V82.27L65.8181 81.64V79.75L70.8231 79.12L71.4531 79.575L71.6631 80.975L71.6281 82.095C72.4448 81.3483 73.5531 80.6717 74.9531 80.065C76.3764 79.435 77.6481 79.12 78.7681 79.12C80.0281 79.12 81.0431 79.33 81.8131 79.75C82.5831 80.17 83.1664 80.8233 83.5631 81.71C84.3098 81.08 85.3481 80.4967 86.6781 79.96C88.0314 79.4 89.2914 79.12 90.4581 79.12C91.9048 79.12 93.0364 79.4 93.8531 79.96C94.6698 80.4967 95.2414 81.3483 95.5681 82.515C95.9181 83.6583 96.0931 85.1983 96.0931 87.135V96.97L98.6131 97.285V99H90.2831V97.285L92.4531 96.97V87.24C92.4531 85.8867 92.3481 84.8133 92.1381 84.02C91.9514 83.2033 91.5781 82.5967 91.0181 82.2C90.4814 81.8033 89.6998 81.605 88.6731 81.605C87.9031 81.605 87.0864 81.78 86.2231 82.13C85.3598 82.4567 84.6248 82.8533 84.0181 83.32C84.2281 84.23 84.3331 85.525 84.3331 87.205V96.97L86.8181 97.285V99H78.3481V97.285L80.6581 96.97V87.17C80.6581 85.77 80.5648 84.685 80.3781 83.915C80.2148 83.145 79.8881 82.5733 79.3981 82.2C78.9081 81.8033 78.1614 81.605 77.1581 81.605C76.3181 81.605 75.4198 81.815 74.4631 82.235C73.5298 82.655 72.7131 83.145 72.0131 83.705V96.97L74.3581 97.285V99H66.2031V97.285ZM100.367 89.235C100.367 87.135 100.799 85.315 101.662 83.775C102.526 82.235 103.657 81.0683 105.057 80.275C106.481 79.4583 107.997 79.05 109.607 79.05C112.547 79.05 114.752 79.9833 116.222 81.85C117.716 83.7167 118.462 86.1667 118.462 89.2C118.462 91.3233 118.031 93.155 117.167 94.695C116.304 96.235 115.161 97.4017 113.737 98.195C112.337 98.9883 110.832 99.385 109.222 99.385C106.282 99.385 104.066 98.4517 102.572 96.585C101.102 94.7183 100.367 92.2683 100.367 89.235ZM109.432 97.39C111.042 97.39 112.279 96.725 113.142 95.395C114.006 94.065 114.437 92.0933 114.437 89.48C114.437 86.89 114.041 84.8367 113.247 83.32C112.454 81.8033 111.182 81.045 109.432 81.045C107.822 81.045 106.574 81.71 105.687 83.04C104.824 84.37 104.392 86.3417 104.392 88.955C104.392 91.545 104.801 93.5983 105.617 95.115C106.434 96.6317 107.706 97.39 109.432 97.39ZM123.061 82.27L120.541 81.64V79.75L125.546 79.12H125.651L126.386 79.75V81.22L126.351 82.06C127.191 81.3133 128.299 80.6367 129.676 80.03C131.053 79.4233 132.371 79.12 133.631 79.12C135.101 79.12 136.233 79.4 137.026 79.96C137.843 80.52 138.414 81.3833 138.741 82.55C139.068 83.6933 139.231 85.245 139.231 87.205V97.005L141.681 97.25V99H133.386V97.285L135.556 97.005V87.17C135.556 85.7933 135.463 84.72 135.276 83.95C135.089 83.1567 134.739 82.5733 134.226 82.2C133.713 81.8033 132.966 81.605 131.986 81.605C131.146 81.605 130.248 81.815 129.291 82.235C128.334 82.655 127.483 83.145 126.736 83.705V96.97L129.116 97.285V99H120.856V97.285L123.061 96.97V82.27ZM146.338 107.715C145.942 107.715 145.545 107.692 145.148 107.645C144.775 107.598 144.507 107.528 144.343 107.435V104.39C144.483 104.483 144.752 104.553 145.148 104.6C145.568 104.647 145.965 104.67 146.338 104.67C147.458 104.67 148.438 104.273 149.278 103.48C150.142 102.71 150.97 101.217 151.763 99H150.083L143.433 81.675L141.823 81.22V79.575H150.258V81.22L147.563 81.64L150.993 91.965L152.603 97.075L154.108 91.93L157.223 81.64L154.878 81.22V79.575H161.913V81.22L160.163 81.64C156.733 92.14 154.715 98.1017 154.108 99.525C153.315 101.532 152.592 103.095 151.938 104.215C151.285 105.358 150.515 106.222 149.628 106.805C148.742 107.412 147.645 107.715 146.338 107.715Z" fill="#2A2921"/>
</svg>
