<svg width="169" height="136" viewBox="0 0 169 136" fill="none" xmlns="http://www.w3.org/2000/svg">
<path d="M35.7782 54V39.3L34.2207 39.055C33.8824 38.985 33.6082 38.8683 33.3982 38.705C33.1999 38.53 33.1007 38.285 33.1007 37.97V36.2025H35.7782V35.625C35.7782 34.5283 35.9591 33.5133 36.3207 32.58C36.6824 31.635 37.2307 30.8183 37.9657 30.13C38.7007 29.4417 39.6282 28.905 40.7482 28.52C41.8799 28.1233 43.2099 27.925 44.7382 27.925C45.2282 27.925 45.7241 27.9542 46.2257 28.0125C46.7391 28.0592 47.1824 28.1408 47.5557 28.2575L47.4157 30.4975C47.3924 30.7658 47.2466 30.9292 46.9782 30.9875C46.7099 31.0342 46.3774 31.0575 45.9807 31.0575C44.8491 31.0575 43.8982 31.1567 43.1282 31.355C42.3699 31.5533 41.7516 31.8508 41.2732 32.2475C40.8066 32.6325 40.4682 33.1225 40.2582 33.7175C40.0599 34.3008 39.9607 34.9833 39.9607 35.765V36.2025H51.0907V54H46.7682V39.2825H40.1007V54H35.7782ZM58.8637 38.25C59.2254 37.8883 59.6046 37.5558 60.0012 37.2525C60.4096 36.9375 60.8354 36.675 61.2787 36.465C61.7337 36.2433 62.2179 36.0742 62.7312 35.9575C63.2446 35.8292 63.8046 35.765 64.4112 35.765C65.3912 35.765 66.2604 35.9342 67.0187 36.2725C67.7771 36.5992 68.4071 37.0658 68.9087 37.6725C69.4221 38.2675 69.8071 38.985 70.0637 39.825C70.3321 40.6533 70.4662 41.5692 70.4662 42.5725V54H66.1437V42.5725C66.1437 41.4758 65.8929 40.63 65.3912 40.035C64.8896 39.4283 64.1254 39.125 63.0987 39.125C62.3521 39.125 61.6521 39.2942 60.9987 39.6325C60.3454 39.9708 59.7271 40.4317 59.1437 41.015V54H54.8212V36.045H57.4637C58.0237 36.045 58.3912 36.3075 58.5662 36.8325L58.8637 38.25ZM85.1471 40.63C84.6571 40.035 84.1204 39.615 83.5371 39.37C82.9654 39.125 82.3471 39.0025 81.6821 39.0025C81.0288 39.0025 80.4396 39.125 79.9146 39.37C79.3896 39.615 78.9404 39.9883 78.5671 40.49C78.1938 40.98 77.9079 41.61 77.7096 42.38C77.5113 43.1383 77.4121 44.0367 77.4121 45.075C77.4121 46.125 77.4938 47.0175 77.6571 47.7525C77.8321 48.4758 78.0771 49.0708 78.3921 49.5375C78.7071 49.9925 79.0921 50.325 79.5471 50.535C80.0021 50.7333 80.5096 50.8325 81.0696 50.8325C81.9679 50.8325 82.7321 50.6458 83.3621 50.2725C83.9921 49.8992 84.5871 49.3683 85.1471 48.68V40.63ZM89.4696 27.995V54H86.8271C86.2554 54 85.8938 53.7375 85.7421 53.2125L85.3746 51.48C84.6513 52.3083 83.8171 52.9792 82.8721 53.4925C81.9388 54.0058 80.8479 54.2625 79.5996 54.2625C78.6196 54.2625 77.7213 54.0583 76.9046 53.65C76.0879 53.2417 75.3821 52.6525 74.7871 51.8825C74.2038 51.1008 73.7488 50.1383 73.4221 48.995C73.1071 47.8517 72.9496 46.545 72.9496 45.075C72.9496 43.745 73.1304 42.5083 73.4921 41.365C73.8538 40.2217 74.3729 39.23 75.0496 38.39C75.7263 37.55 76.5371 36.8967 77.4821 36.43C78.4271 35.9517 79.4888 35.7125 80.6671 35.7125C81.6704 35.7125 82.5279 35.87 83.2396 36.185C83.9513 36.5 84.5871 36.9258 85.1471 37.4625V27.995H89.4696ZM97.5155 36.045V54H93.1755V36.045H97.5155ZM98.1105 30.8125C98.1105 31.1858 98.0347 31.5358 97.883 31.8625C97.7313 32.1892 97.5272 32.475 97.2705 32.72C97.0255 32.965 96.7338 33.1633 96.3955 33.315C96.0572 33.455 95.6955 33.525 95.3105 33.525C94.9372 33.525 94.5813 33.455 94.243 33.315C93.9163 33.1633 93.6305 32.965 93.3855 32.72C93.1405 32.475 92.9422 32.1892 92.7905 31.8625C92.6505 31.5358 92.5805 31.1858 92.5805 30.8125C92.5805 30.4275 92.6505 30.0658 92.7905 29.7275C92.9422 29.3892 93.1405 29.0975 93.3855 28.8525C93.6305 28.6075 93.9163 28.415 94.243 28.275C94.5813 28.1233 94.9372 28.0475 95.3105 28.0475C95.6955 28.0475 96.0572 28.1233 96.3955 28.275C96.7338 28.415 97.0255 28.6075 97.2705 28.8525C97.5272 29.0975 97.7313 29.3892 97.883 29.7275C98.0347 30.0658 98.1105 30.4275 98.1105 30.8125ZM105.265 38.25C105.626 37.8883 106.006 37.5558 106.402 37.2525C106.811 36.9375 107.236 36.675 107.68 36.465C108.135 36.2433 108.619 36.0742 109.132 35.9575C109.646 35.8292 110.206 35.765 110.812 35.765C111.792 35.765 112.661 35.9342 113.42 36.2725C114.178 36.5992 114.808 37.0658 115.31 37.6725C115.823 38.2675 116.208 38.985 116.465 39.825C116.733 40.6533 116.867 41.5692 116.867 42.5725V54H112.545V42.5725C112.545 41.4758 112.294 40.63 111.792 40.035C111.291 39.4283 110.526 39.125 109.5 39.125C108.753 39.125 108.053 39.2942 107.4 39.6325C106.746 39.9708 106.128 40.4317 105.545 41.015V54H101.222V36.045H103.865C104.425 36.045 104.792 36.3075 104.967 36.8325L105.265 38.25ZM126.841 44.585C127.377 44.585 127.844 44.515 128.241 44.375C128.637 44.2233 128.964 44.0192 129.221 43.7625C129.489 43.5058 129.687 43.1967 129.816 42.835C129.956 42.4733 130.026 42.0767 130.026 41.645C130.026 40.7583 129.757 40.0583 129.221 39.545C128.696 39.02 127.902 38.7575 126.841 38.7575C125.779 38.7575 124.98 39.02 124.443 39.545C123.918 40.0583 123.656 40.7583 123.656 41.645C123.656 42.065 123.72 42.4558 123.848 42.8175C123.988 43.1792 124.186 43.4942 124.443 43.7625C124.711 44.0192 125.044 44.2233 125.441 44.375C125.849 44.515 126.316 44.585 126.841 44.585ZM131.723 54.805C131.723 54.455 131.618 54.1692 131.408 53.9475C131.198 53.7258 130.912 53.5567 130.551 53.44C130.189 53.3117 129.763 53.2183 129.273 53.16C128.795 53.1017 128.281 53.0608 127.733 53.0375C127.196 53.0025 126.636 52.9733 126.053 52.95C125.481 52.9267 124.921 52.88 124.373 52.81C123.895 53.0783 123.504 53.3933 123.201 53.755C122.909 54.1167 122.763 54.5367 122.763 55.015C122.763 55.33 122.839 55.6217 122.991 55.89C123.154 56.17 123.405 56.4092 123.743 56.6075C124.093 56.8058 124.542 56.9575 125.091 57.0625C125.639 57.1792 126.31 57.2375 127.103 57.2375C127.908 57.2375 128.602 57.1733 129.186 57.045C129.769 56.9283 130.247 56.7592 130.621 56.5375C131.006 56.3275 131.286 56.0708 131.461 55.7675C131.636 55.4758 131.723 55.155 131.723 54.805ZM136.028 36.6575V38.2675C136.028 38.7808 135.719 39.0958 135.101 39.2125L133.491 39.51C133.736 40.1283 133.858 40.805 133.858 41.54C133.858 42.4267 133.677 43.2317 133.316 43.955C132.966 44.6667 132.476 45.2733 131.846 45.775C131.216 46.2767 130.469 46.6675 129.606 46.9475C128.754 47.2158 127.832 47.35 126.841 47.35C126.491 47.35 126.152 47.3325 125.826 47.2975C125.499 47.2625 125.178 47.2158 124.863 47.1575C124.303 47.4958 124.023 47.875 124.023 48.295C124.023 48.6567 124.186 48.925 124.513 49.1C124.851 49.2633 125.295 49.38 125.843 49.45C126.391 49.52 127.016 49.5667 127.716 49.59C128.416 49.6017 129.133 49.6367 129.868 49.695C130.603 49.7533 131.321 49.8583 132.021 50.01C132.721 50.15 133.345 50.3775 133.893 50.6925C134.441 51.0075 134.879 51.4392 135.206 51.9875C135.544 52.5242 135.713 53.2183 135.713 54.07C135.713 54.8633 135.515 55.6333 135.118 56.38C134.733 57.1267 134.167 57.7917 133.421 58.375C132.686 58.9583 131.776 59.425 130.691 59.775C129.617 60.1367 128.392 60.3175 127.016 60.3175C125.662 60.3175 124.484 60.1833 123.481 59.915C122.477 59.6583 121.643 59.3083 120.978 58.865C120.313 58.4333 119.817 57.9317 119.491 57.36C119.164 56.7883 119.001 56.1933 119.001 55.575C119.001 54.735 119.251 54.035 119.753 53.475C120.266 52.9033 120.966 52.4483 121.853 52.11C121.375 51.865 120.996 51.5383 120.716 51.13C120.436 50.7217 120.296 50.185 120.296 49.52C120.296 49.2517 120.342 48.9775 120.436 48.6975C120.541 48.4058 120.686 48.12 120.873 47.84C121.071 47.56 121.316 47.2975 121.608 47.0525C121.9 46.7958 122.244 46.5683 122.641 46.37C121.731 45.88 121.013 45.2267 120.488 44.41C119.975 43.5933 119.718 42.6367 119.718 41.54C119.718 40.6533 119.893 39.8542 120.243 39.1425C120.605 38.4192 121.101 37.8067 121.731 37.305C122.372 36.7917 123.125 36.4008 123.988 36.1325C124.863 35.8642 125.814 35.73 126.841 35.73C127.611 35.73 128.334 35.8117 129.011 35.975C129.687 36.1267 130.306 36.3542 130.866 36.6575H136.028ZM25.3659 73.38L30.2659 72.75V81.815C32.2725 79.9717 34.1509 79.05 35.9009 79.05C37.1375 79.05 38.1409 79.505 38.9109 80.415C39.7042 81.3017 40.1009 82.5033 40.1009 84.02V98.79L35.2009 99.21V85.805C35.2009 84.9417 35.0375 84.3 34.7109 83.88C34.4075 83.46 33.9992 83.25 33.4859 83.25C33.0659 83.25 32.6225 83.355 32.1559 83.565C31.6892 83.775 31.0592 84.1133 30.2659 84.58V98.79L25.3659 99.21V73.38ZM46.753 99.455C45.913 99.455 45.1547 99.1983 44.478 98.685C43.8014 98.1483 43.2764 97.4367 42.903 96.55C42.5297 95.64 42.343 94.625 42.343 93.505C42.343 90.9617 43.2064 89.1767 44.933 88.15C46.683 87.1 48.713 86.505 51.023 86.365C51.023 85.105 50.9414 84.1717 50.778 83.565C50.6147 82.9583 50.218 82.655 49.588 82.655C49.0514 82.655 48.643 82.865 48.363 83.285C48.083 83.705 47.908 84.2417 47.838 84.895L43.043 84.055C43.2764 82.2583 44.0114 80.975 45.248 80.205C46.4847 79.435 47.9314 79.05 49.588 79.05C51.7114 79.05 53.298 79.61 54.348 80.73C55.4214 81.85 55.958 83.3083 55.958 85.105V95.29C55.958 96.3867 56.133 97.5533 56.483 98.79L51.688 99.21L51.128 96.795C50.708 97.5417 50.0897 98.1717 49.273 98.685C48.4564 99.1983 47.6164 99.455 46.753 99.455ZM49.028 95.955C49.4247 95.955 49.7514 95.8617 50.008 95.675C50.288 95.4883 50.6264 95.185 51.023 94.765V89.305C49.8564 89.305 48.923 89.62 48.223 90.25C47.523 90.88 47.173 91.86 47.173 93.19C47.173 94.0767 47.3247 94.765 47.628 95.255C47.9547 95.7217 48.4214 95.955 49.028 95.955ZM59.3077 79.715L64.2077 79.295V82.48C64.9077 81.4767 65.771 80.6717 66.7977 80.065C67.8477 79.435 69.1777 79.12 70.7877 79.12V83.915C69.9477 83.915 68.8393 84.0667 67.4627 84.37C66.1093 84.65 65.0243 85.1517 64.2077 85.875V98.79L59.3077 99.21V79.715ZM72.758 79.715L77.553 79.295V81.815C78.2764 80.975 79.1047 80.31 80.038 79.82C80.9947 79.3067 81.9397 79.05 82.873 79.05C84.343 79.05 85.3114 80.0767 85.778 82.13C87.318 80.0767 89.0447 79.05 90.958 79.05C92.218 79.05 93.1164 79.5517 93.653 80.555C94.1897 81.5583 94.458 83.0517 94.458 85.035V98.79L89.628 99.21V85.28C89.628 84.65 89.5114 84.16 89.278 83.81C89.0447 83.4367 88.7764 83.25 88.473 83.25C87.983 83.25 87.5164 83.39 87.073 83.67C86.653 83.9267 86.2914 84.2533 85.988 84.65V98.79L81.193 99.21V85.245C81.193 84.5917 81.088 84.1017 80.878 83.775C80.6914 83.425 80.4697 83.25 80.213 83.25C79.7464 83.25 79.268 83.39 78.778 83.67C78.288 83.95 77.8797 84.2767 77.553 84.65V98.79L72.758 99.21V79.715ZM104.269 99.455C101.912 99.455 100.092 98.5217 98.8087 96.655C97.5487 94.7883 96.9187 92.3033 96.9187 89.2C96.9187 86.12 97.5487 83.6583 98.8087 81.815C100.069 79.9717 101.889 79.05 104.269 79.05C106.625 79.05 108.445 79.9717 109.729 81.815C111.035 83.6583 111.689 86.12 111.689 89.2C111.689 92.28 111.035 94.765 109.729 96.655C108.445 98.5217 106.625 99.455 104.269 99.455ZM104.269 95.815C105.319 95.815 105.995 95.1733 106.299 93.89C106.602 92.6067 106.754 91.0317 106.754 89.165C106.754 87.2983 106.602 85.7233 106.299 84.44C105.995 83.1567 105.319 82.515 104.269 82.515C103.219 82.515 102.554 83.1217 102.274 84.335C101.994 85.5483 101.854 87.03 101.854 88.78C101.854 90.9267 101.994 92.6417 102.274 93.925C102.554 95.185 103.219 95.815 104.269 95.815ZM114.322 79.715L119.222 79.295V81.815C120.225 80.9283 121.205 80.2517 122.162 79.785C123.142 79.295 124.04 79.05 124.857 79.05C126.094 79.05 127.097 79.505 127.867 80.415C128.66 81.3017 129.057 82.5033 129.057 84.02V98.79L124.157 99.21V85.875C124.157 84.125 123.562 83.25 122.372 83.25C121.975 83.25 121.532 83.3667 121.042 83.6C120.575 83.8333 119.969 84.1717 119.222 84.615V98.79L114.322 99.21V79.715ZM132.944 105.23C132.384 105.23 131.696 105.16 130.879 105.02V100.925C131.742 100.972 132.431 100.995 132.944 100.995C134.997 100.995 136.024 100.038 136.024 98.125V97.145L130.389 79.54L135.709 79.295L138.474 91.65L141.099 79.4L145.544 79.365L140.504 98.65C139.804 101.17 138.777 102.897 137.424 103.83C136.094 104.763 134.601 105.23 132.944 105.23Z" fill="#2A2921"/>
</svg>
