<svg width="169" height="136" viewBox="0 0 169 136" fill="none" xmlns="http://www.w3.org/2000/svg">
<path d="M27.9405 53V50.725C28.9205 50.725 29.5155 50.445 29.7255 49.885C29.9355 49.3017 30.0405 48.5433 30.0405 47.61V38.37L27.4855 38.405V35.5H30.0405C30.1805 32.28 30.9272 29.9933 32.2805 28.64C33.6339 27.2633 35.6755 26.575 38.4055 26.575C40.4355 26.575 42.0572 26.82 43.2705 27.31C44.4839 27.8 45.3589 28.3717 45.8955 29.025C46.4322 29.655 46.6889 30.1917 46.6655 30.635C46.6655 31.1483 46.4905 31.6733 46.1405 32.21C45.7905 32.7233 45.2539 32.9917 44.5305 33.015C43.8772 33.0383 43.3405 32.8517 42.9205 32.455C42.5005 32.035 42.2905 31.5217 42.2905 30.915C42.2905 30.6583 42.3255 30.4133 42.3955 30.18C42.3022 30.0633 41.9989 29.8533 41.4855 29.55C40.9955 29.2233 40.2022 29.06 39.1055 29.06C37.7989 29.06 36.8422 29.34 36.2355 29.9C35.6522 30.4367 35.2789 31.1367 35.1155 32C34.9755 32.84 34.9055 33.7267 34.9055 34.66V35.5H37.8105C38.8839 35.5 39.9339 35.5 40.9605 35.5C41.9872 35.5 42.8622 35.4767 43.5855 35.43C44.3089 35.3833 44.7522 35.29 44.9155 35.15H46.8055V47.365C46.8055 47.6917 46.7939 48.1583 46.7705 48.765C46.7472 49.3483 46.7122 49.9083 46.6655 50.445C47.0622 50.3983 47.4822 50.375 47.9255 50.375C48.3689 50.3517 48.7072 50.34 48.9405 50.34V53H39.7705V50.725C40.7505 50.725 41.3339 50.445 41.5205 49.885C41.7305 49.3017 41.8355 48.5433 41.8355 47.61V41.135C41.8355 40.715 41.8472 40.2367 41.8705 39.7C41.8939 39.14 41.9289 38.6033 41.9755 38.09L34.9405 38.265L34.9755 47.295C34.9755 47.6217 34.9639 48.1 34.9405 48.73C34.9172 49.3367 34.8822 49.9083 34.8355 50.445C35.2322 50.3983 35.6755 50.375 36.1655 50.375C36.6789 50.3517 37.0522 50.34 37.2855 50.34V53H27.9405ZM50.5153 53V50.725C51.4719 50.725 52.0553 50.445 52.2653 49.885C52.4753 49.3017 52.5803 48.5433 52.5803 47.61V41.73C52.5803 41.31 52.5919 40.8433 52.6153 40.33C52.6386 39.7933 52.6736 39.2683 52.7203 38.755C52.3469 38.7783 51.9036 38.8017 51.3903 38.825C50.9003 38.825 50.5269 38.8367 50.2703 38.86V36.2C51.8803 36.2 53.1169 36.0833 53.9803 35.85C54.8669 35.6167 55.4269 35.3833 55.6603 35.15H57.3753C57.4219 35.4533 57.4453 35.675 57.4453 35.815C57.4453 35.955 57.4453 36.095 57.4453 36.235C57.4686 36.3517 57.5153 36.5733 57.5853 36.9C58.0519 36.5267 58.5886 36.2 59.1953 35.92C59.8019 35.6167 60.4086 35.3833 61.0153 35.22C61.6219 35.0333 62.1586 34.94 62.6253 34.94C64.7719 34.94 66.2886 35.5583 67.1753 36.795C68.0853 38.0083 68.5403 39.9683 68.5403 42.675V47.365C68.5403 47.6917 68.5286 48.1583 68.5053 48.765C68.4819 49.3483 68.4469 49.9083 68.4003 50.445C68.7969 50.3983 69.2169 50.375 69.6603 50.375C70.1036 50.3517 70.4419 50.34 70.6753 50.34V53H61.5053V50.725C62.4853 50.725 63.0803 50.445 63.2903 49.885C63.5003 49.3017 63.6053 48.5433 63.6053 47.61L63.5703 42.64C63.5703 41.1233 63.3486 40.0033 62.9053 39.28C62.4853 38.5333 61.7619 38.16 60.7353 38.16C60.1519 38.16 59.5686 38.2883 58.9853 38.545C58.4253 38.8017 57.9469 39.105 57.5503 39.455V47.365C57.5503 47.6917 57.5386 48.1583 57.5153 48.765C57.4919 49.3483 57.4569 49.9083 57.4103 50.445C57.7836 50.3983 58.1919 50.375 58.6353 50.375C59.1019 50.3517 59.4519 50.34 59.6853 50.34V53H50.5153ZM78.8212 53.56C77.4212 53.56 76.1846 53.1983 75.1112 52.475C74.0612 51.7517 73.2329 50.725 72.6262 49.395C72.0429 48.065 71.7512 46.5017 71.7512 44.705C71.7512 42.815 72.1129 41.135 72.8362 39.665C73.5596 38.195 74.5746 37.04 75.8812 36.2C77.1879 35.36 78.7046 34.94 80.4312 34.94C81.0612 34.94 81.6212 35.01 82.1112 35.15C82.6246 35.2667 83.1029 35.4067 83.5462 35.57V33.26C83.5462 32.9333 83.5579 32.4667 83.5812 31.86C83.6046 31.2533 83.6396 30.6933 83.6862 30.18C83.3129 30.2033 82.8696 30.2267 82.3562 30.25C81.8429 30.2733 81.4579 30.285 81.2012 30.285V27.625C82.8346 27.625 84.0829 27.5083 84.9462 27.275C85.8096 27.0417 86.3579 26.8083 86.5912 26.575H88.4813V47.365C88.4813 47.6917 88.4696 48.1583 88.4462 48.765C88.4229 49.3483 88.3879 49.9083 88.3412 50.445C88.7379 50.3983 89.1579 50.375 89.6013 50.375C90.0446 50.3517 90.3829 50.34 90.6162 50.34V53H83.9662C83.9429 52.7433 83.9079 52.475 83.8612 52.195C83.8379 51.915 83.8029 51.6467 83.7562 51.39C82.9862 52.1833 82.1929 52.7433 81.3762 53.07C80.5596 53.3967 79.7079 53.56 78.8212 53.56ZM80.6412 50.375C81.2479 50.375 81.8079 50.2233 82.3212 49.92C82.8346 49.5933 83.2429 49.185 83.5462 48.695V38.195C83.3129 38.0083 82.9629 37.8567 82.4962 37.74C82.0296 37.6 81.5512 37.53 81.0612 37.53C79.9879 37.5533 79.1479 37.8917 78.5412 38.545C77.9346 39.1983 77.5029 40.0267 77.2462 41.03C77.0129 42.0333 76.8962 43.0833 76.8962 44.18C76.8962 45.16 77.0129 46.1283 77.2462 47.085C77.5029 48.0417 77.8996 48.835 78.4362 49.465C78.9962 50.0717 79.7312 50.375 80.6412 50.375ZM92.2159 50.725C93.1725 50.725 93.7559 50.445 93.9659 49.885C94.1759 49.3017 94.2809 48.5433 94.2809 47.61V41.8C94.2809 41.38 94.2925 40.9017 94.3159 40.365C94.3392 39.805 94.3742 39.2683 94.4209 38.755C94.0475 38.7783 93.6042 38.8017 93.0909 38.825C92.6009 38.825 92.2275 38.8367 91.9709 38.86V36.2C93.5809 36.2 94.8175 36.0833 95.6809 35.85C96.5675 35.6167 97.1275 35.3833 97.3609 35.15H99.2509V47.365C99.2509 47.6917 99.2392 48.1583 99.2159 48.765C99.1925 49.3483 99.1575 49.9083 99.1109 50.445C99.4842 50.3983 99.8925 50.375 100.336 50.375C100.803 50.3517 101.153 50.34 101.386 50.34V53H92.2159V50.725ZM96.5909 32.385C95.7975 32.385 95.1442 32.105 94.6309 31.545C94.1175 30.985 93.8609 30.3083 93.8609 29.515C93.8609 28.7217 94.1292 28.045 94.6659 27.485C95.2025 26.925 95.8325 26.645 96.5559 26.645C97.3025 26.645 97.9209 26.925 98.4109 27.485C98.9242 28.045 99.1809 28.7217 99.1809 29.515C99.1809 30.3083 98.9475 30.985 98.4809 31.545C98.0142 32.105 97.3842 32.385 96.5909 32.385ZM102.966 53V50.725C103.923 50.725 104.506 50.445 104.716 49.885C104.926 49.3017 105.031 48.5433 105.031 47.61V41.73C105.031 41.31 105.043 40.8433 105.066 40.33C105.089 39.7933 105.124 39.2683 105.171 38.755C104.798 38.7783 104.354 38.8017 103.841 38.825C103.351 38.825 102.978 38.8367 102.721 38.86V36.2C104.331 36.2 105.568 36.0833 106.431 35.85C107.318 35.6167 107.878 35.3833 108.111 35.15H109.826C109.873 35.4533 109.896 35.675 109.896 35.815C109.896 35.955 109.896 36.095 109.896 36.235C109.919 36.3517 109.966 36.5733 110.036 36.9C110.503 36.5267 111.039 36.2 111.646 35.92C112.253 35.6167 112.859 35.3833 113.466 35.22C114.073 35.0333 114.609 34.94 115.076 34.94C117.223 34.94 118.739 35.5583 119.626 36.795C120.536 38.0083 120.991 39.9683 120.991 42.675V47.365C120.991 47.6917 120.979 48.1583 120.956 48.765C120.933 49.3483 120.898 49.9083 120.851 50.445C121.248 50.3983 121.668 50.375 122.111 50.375C122.554 50.3517 122.893 50.34 123.126 50.34V53H113.956V50.725C114.936 50.725 115.531 50.445 115.741 49.885C115.951 49.3017 116.056 48.5433 116.056 47.61L116.021 42.64C116.021 41.1233 115.799 40.0033 115.356 39.28C114.936 38.5333 114.213 38.16 113.186 38.16C112.603 38.16 112.019 38.2883 111.436 38.545C110.876 38.8017 110.398 39.105 110.001 39.455V47.365C110.001 47.6917 109.989 48.1583 109.966 48.765C109.943 49.3483 109.908 49.9083 109.861 50.445C110.234 50.3983 110.643 50.375 111.086 50.375C111.553 50.3517 111.903 50.34 112.136 50.34V53H102.966ZM132.042 62.485C130.035 62.485 128.449 62.2633 127.282 61.82C126.115 61.4 125.287 60.84 124.797 60.14C124.307 59.44 124.062 58.6933 124.062 57.9C124.062 57.1767 124.295 56.4417 124.762 55.695C125.252 54.9483 126.127 54.3417 127.387 53.875C126.43 53.6183 125.754 53.21 125.357 52.65C124.984 52.0667 124.797 51.4483 124.797 50.795C124.797 50.1883 125.042 49.5117 125.532 48.765C126.022 47.995 126.909 47.4117 128.192 47.015C127.212 46.6183 126.407 46 125.777 45.16C125.147 44.32 124.809 43.305 124.762 42.115C124.715 40.715 125.065 39.4783 125.812 38.405C126.559 37.3083 127.539 36.4567 128.752 35.85C129.965 35.2433 131.237 34.94 132.567 34.94C133.174 34.94 133.874 35.0217 134.667 35.185C135.46 35.3483 136.149 35.6283 136.732 36.025C136.989 35.3017 137.315 34.625 137.712 33.995C138.132 33.3417 138.634 32.8167 139.217 32.42C139.8 32 140.454 31.79 141.177 31.79C141.97 31.79 142.565 32 142.962 32.42C143.382 32.8167 143.592 33.3533 143.592 34.03C143.592 34.31 143.522 34.625 143.382 34.975C143.265 35.3017 143.044 35.5817 142.717 35.815C142.414 36.0483 141.982 36.165 141.422 36.165C141.072 36.165 140.722 36.0367 140.372 35.78C140.022 35.5 139.812 35.1733 139.742 34.8C139.439 34.8933 139.135 35.1967 138.832 35.71C138.529 36.2233 138.354 36.6783 138.307 37.075C139.684 38.265 140.372 39.77 140.372 41.59C140.372 42.9433 139.987 44.145 139.217 45.195C138.47 46.2217 137.49 47.0383 136.277 47.645C135.087 48.2283 133.804 48.52 132.427 48.52C132.124 48.52 131.785 48.5083 131.412 48.485C131.039 48.4383 130.677 48.415 130.327 48.415C129.814 48.415 129.382 48.5083 129.032 48.695C128.682 48.8817 128.507 49.1383 128.507 49.465C128.507 49.9083 128.845 50.2117 129.522 50.375C130.199 50.5383 131.354 50.6667 132.987 50.76C134.784 50.8533 136.347 51.0867 137.677 51.46C139.03 51.81 140.08 52.37 140.827 53.14C141.574 53.91 141.947 54.9717 141.947 56.325C141.947 57.3283 141.655 58.2033 141.072 58.95C140.489 59.72 139.707 60.3617 138.727 60.875C137.77 61.4117 136.709 61.8083 135.542 62.065C134.375 62.345 133.209 62.485 132.042 62.485ZM132.567 46.175C133.197 46.175 133.722 45.9767 134.142 45.58C134.585 45.1833 134.912 44.6817 135.122 44.075C135.355 43.4683 135.472 42.85 135.472 42.22C135.472 41.4033 135.367 40.6217 135.157 39.875C134.947 39.105 134.62 38.4867 134.177 38.02C133.757 37.53 133.209 37.285 132.532 37.285C131.599 37.285 130.875 37.705 130.362 38.545C129.849 39.385 129.592 40.3417 129.592 41.415C129.592 42.2317 129.709 43.0133 129.942 43.76C130.175 44.4833 130.514 45.0667 130.957 45.51C131.4 45.9533 131.937 46.175 132.567 46.175ZM133.057 60.07C134.714 60.07 135.962 59.7667 136.802 59.16C137.665 58.5533 138.097 57.9233 138.097 57.27C138.097 55.87 136.417 55.1 133.057 54.96C132.544 54.9133 131.949 54.8783 131.272 54.855C130.595 54.8317 130 54.7733 129.487 54.68C129.137 54.96 128.869 55.31 128.682 55.73C128.495 56.15 128.39 56.5583 128.367 56.955C128.32 57.8883 128.717 58.635 129.557 59.195C130.42 59.7783 131.587 60.07 133.057 60.07ZM23.7948 81.7476C25.1962 80.0272 27.0191 79.167 29.2636 79.167C33.1715 79.167 35.1425 81.3716 35.1767 85.7808V98H32.015V85.7637C32.0036 84.4307 31.696 83.4451 31.0922 82.8071C30.4997 82.1691 29.5712 81.8501 28.3065 81.8501C27.2812 81.8501 26.3811 82.1235 25.6063 82.6704C24.8316 83.2173 24.2278 83.9351 23.7948 84.8237V98H20.6332V71.75H23.7948V81.7476ZM50.6266 98C50.4443 97.6354 50.2962 96.986 50.1822 96.0518C48.7125 97.5785 46.9579 98.3418 44.9186 98.3418C43.0956 98.3418 41.5974 97.8291 40.4239 96.8037C39.2618 95.7669 38.6808 94.4567 38.6808 92.873C38.6808 90.9476 39.4099 89.4551 40.8683 88.3955C42.338 87.3245 44.4002 86.7891 47.0548 86.7891H50.131V85.3364C50.131 84.2313 49.8006 83.354 49.1397 82.7046C48.4789 82.0438 47.5048 81.7134 46.2174 81.7134C45.0895 81.7134 44.1438 81.9982 43.3805 82.5679C42.6171 83.1375 42.2354 83.8268 42.2354 84.6357H39.0567C39.0567 83.7129 39.3814 82.8242 40.0309 81.9697C40.6917 81.1038 41.5803 80.4202 42.6969 79.9189C43.8248 79.4176 45.061 79.167 46.4054 79.167C48.5359 79.167 50.205 79.7025 51.4127 80.7734C52.6204 81.833 53.247 83.297 53.2926 85.1655V93.6763C53.2926 95.3739 53.509 96.724 53.942 97.7266V98H50.6266ZM45.38 95.5903C46.3712 95.5903 47.3111 95.334 48.1998 94.8213C49.0885 94.3086 49.7322 93.6421 50.131 92.8218V89.0278H47.6529C43.7792 89.0278 41.8424 90.1615 41.8424 92.4287C41.8424 93.4199 42.1728 94.1947 42.8336 94.7529C43.4944 95.3112 44.3432 95.5903 45.38 95.5903ZM66.4866 82.3457C66.0081 82.266 65.4897 82.2261 64.9314 82.2261C62.8579 82.2261 61.4508 83.109 60.7103 84.875V98H57.5486V79.5088H60.6248L60.6761 81.645C61.7129 79.993 63.1826 79.167 65.0853 79.167C65.7005 79.167 66.1676 79.2467 66.4866 79.4062V82.3457ZM71.6826 79.5088L71.7681 81.5596C73.1239 79.9645 74.9525 79.167 77.2539 79.167C79.8402 79.167 81.6004 80.1582 82.5347 82.1406C83.1499 81.252 83.9474 80.5342 84.9272 79.9873C85.9185 79.4404 87.0863 79.167 88.4307 79.167C92.4867 79.167 94.5488 81.3146 94.6172 85.6099V98H91.4556V85.7979C91.4556 84.4762 91.1536 83.4907 90.5498 82.8413C89.946 82.1805 88.932 81.8501 87.5078 81.8501C86.3343 81.8501 85.3602 82.2033 84.5854 82.9097C83.8107 83.6047 83.3607 84.5446 83.2354 85.7295V98H80.0566V85.8833C80.0566 83.1945 78.7407 81.8501 76.1089 81.8501C74.0353 81.8501 72.6169 82.7331 71.8535 84.499V98H68.6919V79.5088H71.6826ZM97.8649 88.5835C97.8649 86.772 98.2181 85.1427 98.9245 83.6958C99.6423 82.2489 100.633 81.1323 101.898 80.3462C103.174 79.5601 104.627 79.167 106.256 79.167C108.774 79.167 110.808 80.0386 112.357 81.7817C113.918 83.5249 114.698 85.8434 114.698 88.7373V88.9595C114.698 90.7596 114.351 92.3774 113.656 93.813C112.972 95.2371 111.987 96.348 110.699 97.1455C109.423 97.943 107.954 98.3418 106.29 98.3418C103.784 98.3418 101.75 97.4702 100.189 95.7271C98.6397 93.9839 97.8649 91.6768 97.8649 88.8057V88.5835ZM101.044 88.9595C101.044 91.0103 101.516 92.6566 102.462 93.8984C103.419 95.1403 104.695 95.7612 106.29 95.7612C107.897 95.7612 109.173 95.1346 110.118 93.8813C111.064 92.6167 111.537 90.8507 111.537 88.5835C111.537 86.5555 111.053 84.9149 110.084 83.6616C109.127 82.397 107.851 81.7646 106.256 81.7646C104.695 81.7646 103.436 82.3856 102.479 83.6274C101.522 84.8693 101.044 86.6466 101.044 88.9595ZM120.954 79.5088L121.057 81.833C122.469 80.0557 124.315 79.167 126.594 79.167C130.502 79.167 132.473 81.3716 132.507 85.7808V98H129.345V85.7637C129.334 84.4307 129.026 83.4451 128.422 82.8071C127.83 82.1691 126.901 81.8501 125.637 81.8501C124.611 81.8501 123.711 82.1235 122.936 82.6704C122.162 83.2173 121.558 83.9351 121.125 84.8237V98H117.963V79.5088H120.954ZM142.625 93.3687L146.931 79.5088H150.315L142.881 100.854C141.73 103.93 139.902 105.468 137.395 105.468L136.797 105.417L135.618 105.195V102.631L136.472 102.7C137.543 102.7 138.375 102.483 138.967 102.05C139.571 101.617 140.067 100.826 140.454 99.6748L141.155 97.7949L134.558 79.5088H138.01L142.625 93.3687Z" fill="#2A2921"/>
</svg>
