<svg width="169" height="136" viewBox="0 0 169 136" fill="none" xmlns="http://www.w3.org/2000/svg">
<path d="M28.4405 53V50.725C29.4205 50.725 30.0155 50.445 30.2255 49.885C30.4355 49.3017 30.5405 48.5433 30.5405 47.61V38.37L27.9855 38.405V35.5H30.5405C30.6805 32.28 31.4272 29.9933 32.7805 28.64C34.1339 27.2633 36.1755 26.575 38.9055 26.575C40.9355 26.575 42.5572 26.82 43.7705 27.31C44.9839 27.8 45.8589 28.3717 46.3955 29.025C46.9322 29.655 47.1889 30.1917 47.1655 30.635C47.1655 31.1483 46.9905 31.6733 46.6405 32.21C46.2905 32.7233 45.7539 32.9917 45.0305 33.015C44.3772 33.0383 43.8405 32.8517 43.4205 32.455C43.0005 32.035 42.7905 31.5217 42.7905 30.915C42.7905 30.6583 42.8255 30.4133 42.8955 30.18C42.8022 30.0633 42.4989 29.8533 41.9855 29.55C41.4955 29.2233 40.7022 29.06 39.6055 29.06C38.2989 29.06 37.3422 29.34 36.7355 29.9C36.1522 30.4367 35.7789 31.1367 35.6155 32C35.4755 32.84 35.4055 33.7267 35.4055 34.66V35.5H38.3105C39.3839 35.5 40.4339 35.5 41.4605 35.5C42.4872 35.5 43.3622 35.4767 44.0855 35.43C44.8089 35.3833 45.2522 35.29 45.4155 35.15H47.3055V47.365C47.3055 47.6917 47.2939 48.1583 47.2705 48.765C47.2472 49.3483 47.2122 49.9083 47.1655 50.445C47.5622 50.3983 47.9822 50.375 48.4255 50.375C48.8689 50.3517 49.2072 50.34 49.4405 50.34V53H40.2705V50.725C41.2505 50.725 41.8339 50.445 42.0205 49.885C42.2305 49.3017 42.3355 48.5433 42.3355 47.61V41.135C42.3355 40.715 42.3472 40.2367 42.3705 39.7C42.3939 39.14 42.4289 38.6033 42.4755 38.09L35.4405 38.265L35.4755 47.295C35.4755 47.6217 35.4639 48.1 35.4405 48.73C35.4172 49.3367 35.3822 49.9083 35.3355 50.445C35.7322 50.3983 36.1755 50.375 36.6655 50.375C37.1789 50.3517 37.5522 50.34 37.7855 50.34V53H28.4405ZM51.0153 53V50.725C51.9719 50.725 52.5553 50.445 52.7653 49.885C52.9753 49.3017 53.0803 48.5433 53.0803 47.61V41.73C53.0803 41.31 53.0919 40.8433 53.1153 40.33C53.1386 39.7933 53.1736 39.2683 53.2203 38.755C52.8469 38.7783 52.4036 38.8017 51.8903 38.825C51.4003 38.825 51.0269 38.8367 50.7703 38.86V36.2C52.3803 36.2 53.6169 36.0833 54.4803 35.85C55.3669 35.6167 55.9269 35.3833 56.1603 35.15H57.8753C57.9219 35.4533 57.9453 35.675 57.9453 35.815C57.9453 35.955 57.9453 36.095 57.9453 36.235C57.9686 36.3517 58.0153 36.5733 58.0853 36.9C58.5519 36.5267 59.0886 36.2 59.6953 35.92C60.3019 35.6167 60.9086 35.3833 61.5153 35.22C62.1219 35.0333 62.6586 34.94 63.1253 34.94C65.2719 34.94 66.7886 35.5583 67.6753 36.795C68.5853 38.0083 69.0403 39.9683 69.0403 42.675V47.365C69.0403 47.6917 69.0286 48.1583 69.0053 48.765C68.9819 49.3483 68.9469 49.9083 68.9003 50.445C69.2969 50.3983 69.7169 50.375 70.1603 50.375C70.6036 50.3517 70.9419 50.34 71.1753 50.34V53H62.0053V50.725C62.9853 50.725 63.5803 50.445 63.7903 49.885C64.0003 49.3017 64.1053 48.5433 64.1053 47.61L64.0703 42.64C64.0703 41.1233 63.8486 40.0033 63.4053 39.28C62.9853 38.5333 62.2619 38.16 61.2353 38.16C60.6519 38.16 60.0686 38.2883 59.4853 38.545C58.9253 38.8017 58.4469 39.105 58.0503 39.455V47.365C58.0503 47.6917 58.0386 48.1583 58.0153 48.765C57.9919 49.3483 57.9569 49.9083 57.9103 50.445C58.2836 50.3983 58.6919 50.375 59.1353 50.375C59.6019 50.3517 59.9519 50.34 60.1853 50.34V53H51.0153ZM79.3212 53.56C77.9212 53.56 76.6846 53.1983 75.6112 52.475C74.5612 51.7517 73.7329 50.725 73.1262 49.395C72.5429 48.065 72.2512 46.5017 72.2512 44.705C72.2512 42.815 72.6129 41.135 73.3362 39.665C74.0596 38.195 75.0746 37.04 76.3812 36.2C77.6879 35.36 79.2046 34.94 80.9312 34.94C81.5612 34.94 82.1212 35.01 82.6112 35.15C83.1246 35.2667 83.6029 35.4067 84.0462 35.57V33.26C84.0462 32.9333 84.0579 32.4667 84.0812 31.86C84.1046 31.2533 84.1396 30.6933 84.1862 30.18C83.8129 30.2033 83.3696 30.2267 82.8562 30.25C82.3429 30.2733 81.9579 30.285 81.7012 30.285V27.625C83.3346 27.625 84.5829 27.5083 85.4462 27.275C86.3096 27.0417 86.8579 26.8083 87.0912 26.575H88.9813V47.365C88.9813 47.6917 88.9696 48.1583 88.9462 48.765C88.9229 49.3483 88.8879 49.9083 88.8412 50.445C89.2379 50.3983 89.6579 50.375 90.1013 50.375C90.5446 50.3517 90.8829 50.34 91.1162 50.34V53H84.4662C84.4429 52.7433 84.4079 52.475 84.3612 52.195C84.3379 51.915 84.3029 51.6467 84.2562 51.39C83.4862 52.1833 82.6929 52.7433 81.8762 53.07C81.0596 53.3967 80.2079 53.56 79.3212 53.56ZM81.1412 50.375C81.7479 50.375 82.3079 50.2233 82.8212 49.92C83.3346 49.5933 83.7429 49.185 84.0462 48.695V38.195C83.8129 38.0083 83.4629 37.8567 82.9962 37.74C82.5296 37.6 82.0512 37.53 81.5612 37.53C80.4879 37.5533 79.6479 37.8917 79.0412 38.545C78.4346 39.1983 78.0029 40.0267 77.7462 41.03C77.5129 42.0333 77.3962 43.0833 77.3962 44.18C77.3962 45.16 77.5129 46.1283 77.7462 47.085C78.0029 48.0417 78.3996 48.835 78.9362 49.465C79.4962 50.0717 80.2312 50.375 81.1412 50.375ZM92.7159 50.725C93.6725 50.725 94.2559 50.445 94.4659 49.885C94.6759 49.3017 94.7809 48.5433 94.7809 47.61V41.8C94.7809 41.38 94.7925 40.9017 94.8159 40.365C94.8392 39.805 94.8742 39.2683 94.9209 38.755C94.5475 38.7783 94.1042 38.8017 93.5909 38.825C93.1009 38.825 92.7275 38.8367 92.4709 38.86V36.2C94.0809 36.2 95.3175 36.0833 96.1809 35.85C97.0675 35.6167 97.6275 35.3833 97.8609 35.15H99.7509V47.365C99.7509 47.6917 99.7392 48.1583 99.7159 48.765C99.6925 49.3483 99.6575 49.9083 99.6109 50.445C99.9842 50.3983 100.393 50.375 100.836 50.375C101.303 50.3517 101.653 50.34 101.886 50.34V53H92.7159V50.725ZM97.0909 32.385C96.2975 32.385 95.6442 32.105 95.1309 31.545C94.6175 30.985 94.3609 30.3083 94.3609 29.515C94.3609 28.7217 94.6292 28.045 95.1659 27.485C95.7025 26.925 96.3325 26.645 97.0559 26.645C97.8025 26.645 98.4209 26.925 98.9109 27.485C99.4242 28.045 99.6809 28.7217 99.6809 29.515C99.6809 30.3083 99.4475 30.985 98.9809 31.545C98.5142 32.105 97.8842 32.385 97.0909 32.385ZM103.466 53V50.725C104.423 50.725 105.006 50.445 105.216 49.885C105.426 49.3017 105.531 48.5433 105.531 47.61V41.73C105.531 41.31 105.543 40.8433 105.566 40.33C105.589 39.7933 105.624 39.2683 105.671 38.755C105.298 38.7783 104.854 38.8017 104.341 38.825C103.851 38.825 103.478 38.8367 103.221 38.86V36.2C104.831 36.2 106.068 36.0833 106.931 35.85C107.818 35.6167 108.378 35.3833 108.611 35.15H110.326C110.373 35.4533 110.396 35.675 110.396 35.815C110.396 35.955 110.396 36.095 110.396 36.235C110.419 36.3517 110.466 36.5733 110.536 36.9C111.003 36.5267 111.539 36.2 112.146 35.92C112.753 35.6167 113.359 35.3833 113.966 35.22C114.573 35.0333 115.109 34.94 115.576 34.94C117.723 34.94 119.239 35.5583 120.126 36.795C121.036 38.0083 121.491 39.9683 121.491 42.675V47.365C121.491 47.6917 121.479 48.1583 121.456 48.765C121.433 49.3483 121.398 49.9083 121.351 50.445C121.748 50.3983 122.168 50.375 122.611 50.375C123.054 50.3517 123.393 50.34 123.626 50.34V53H114.456V50.725C115.436 50.725 116.031 50.445 116.241 49.885C116.451 49.3017 116.556 48.5433 116.556 47.61L116.521 42.64C116.521 41.1233 116.299 40.0033 115.856 39.28C115.436 38.5333 114.713 38.16 113.686 38.16C113.103 38.16 112.519 38.2883 111.936 38.545C111.376 38.8017 110.898 39.105 110.501 39.455V47.365C110.501 47.6917 110.489 48.1583 110.466 48.765C110.443 49.3483 110.408 49.9083 110.361 50.445C110.734 50.3983 111.143 50.375 111.586 50.375C112.053 50.3517 112.403 50.34 112.636 50.34V53H103.466ZM132.542 62.485C130.535 62.485 128.949 62.2633 127.782 61.82C126.615 61.4 125.787 60.84 125.297 60.14C124.807 59.44 124.562 58.6933 124.562 57.9C124.562 57.1767 124.795 56.4417 125.262 55.695C125.752 54.9483 126.627 54.3417 127.887 53.875C126.93 53.6183 126.254 53.21 125.857 52.65C125.484 52.0667 125.297 51.4483 125.297 50.795C125.297 50.1883 125.542 49.5117 126.032 48.765C126.522 47.995 127.409 47.4117 128.692 47.015C127.712 46.6183 126.907 46 126.277 45.16C125.647 44.32 125.309 43.305 125.262 42.115C125.215 40.715 125.565 39.4783 126.312 38.405C127.059 37.3083 128.039 36.4567 129.252 35.85C130.465 35.2433 131.737 34.94 133.067 34.94C133.674 34.94 134.374 35.0217 135.167 35.185C135.96 35.3483 136.649 35.6283 137.232 36.025C137.489 35.3017 137.815 34.625 138.212 33.995C138.632 33.3417 139.134 32.8167 139.717 32.42C140.3 32 140.954 31.79 141.677 31.79C142.47 31.79 143.065 32 143.462 32.42C143.882 32.8167 144.092 33.3533 144.092 34.03C144.092 34.31 144.022 34.625 143.882 34.975C143.765 35.3017 143.544 35.5817 143.217 35.815C142.914 36.0483 142.482 36.165 141.922 36.165C141.572 36.165 141.222 36.0367 140.872 35.78C140.522 35.5 140.312 35.1733 140.242 34.8C139.939 34.8933 139.635 35.1967 139.332 35.71C139.029 36.2233 138.854 36.6783 138.807 37.075C140.184 38.265 140.872 39.77 140.872 41.59C140.872 42.9433 140.487 44.145 139.717 45.195C138.97 46.2217 137.99 47.0383 136.777 47.645C135.587 48.2283 134.304 48.52 132.927 48.52C132.624 48.52 132.285 48.5083 131.912 48.485C131.539 48.4383 131.177 48.415 130.827 48.415C130.314 48.415 129.882 48.5083 129.532 48.695C129.182 48.8817 129.007 49.1383 129.007 49.465C129.007 49.9083 129.345 50.2117 130.022 50.375C130.699 50.5383 131.854 50.6667 133.487 50.76C135.284 50.8533 136.847 51.0867 138.177 51.46C139.53 51.81 140.58 52.37 141.327 53.14C142.074 53.91 142.447 54.9717 142.447 56.325C142.447 57.3283 142.155 58.2033 141.572 58.95C140.989 59.72 140.207 60.3617 139.227 60.875C138.27 61.4117 137.209 61.8083 136.042 62.065C134.875 62.345 133.709 62.485 132.542 62.485ZM133.067 46.175C133.697 46.175 134.222 45.9767 134.642 45.58C135.085 45.1833 135.412 44.6817 135.622 44.075C135.855 43.4683 135.972 42.85 135.972 42.22C135.972 41.4033 135.867 40.6217 135.657 39.875C135.447 39.105 135.12 38.4867 134.677 38.02C134.257 37.53 133.709 37.285 133.032 37.285C132.099 37.285 131.375 37.705 130.862 38.545C130.349 39.385 130.092 40.3417 130.092 41.415C130.092 42.2317 130.209 43.0133 130.442 43.76C130.675 44.4833 131.014 45.0667 131.457 45.51C131.9 45.9533 132.437 46.175 133.067 46.175ZM133.557 60.07C135.214 60.07 136.462 59.7667 137.302 59.16C138.165 58.5533 138.597 57.9233 138.597 57.27C138.597 55.87 136.917 55.1 133.557 54.96C133.044 54.9133 132.449 54.8783 131.772 54.855C131.095 54.8317 130.5 54.7733 129.987 54.68C129.637 54.96 129.369 55.31 129.182 55.73C128.995 56.15 128.89 56.5583 128.867 56.955C128.82 57.8883 129.217 58.635 130.057 59.195C130.92 59.7783 132.087 60.07 133.557 60.07ZM29.3946 80.535C31.4012 80.535 32.9179 81.1067 33.9446 82.25C34.9712 83.37 35.4846 85.05 35.4846 87.29V96.775C35.4846 97.2183 35.3562 97.5683 35.0996 97.825C34.8429 98.0583 34.5046 98.175 34.0846 98.175C33.6412 98.175 33.2912 98.0583 33.0346 97.825C32.7779 97.5683 32.6496 97.2183 32.6496 96.775V87.36C32.6496 85.8433 32.3346 84.7233 31.7046 84C31.0979 83.2767 30.1179 82.915 28.7646 82.915C27.2012 82.915 25.9529 83.3933 25.0196 84.35C24.0862 85.3067 23.6196 86.6017 23.6196 88.235V96.775C23.6196 97.2183 23.4912 97.5683 23.2346 97.825C23.0012 98.0583 22.6629 98.175 22.2196 98.175C21.7762 98.175 21.4262 98.0583 21.1696 97.825C20.9129 97.5683 20.7846 97.2183 20.7846 96.775V74.515C20.7846 74.1183 20.9129 73.7917 21.1696 73.535C21.4496 73.2783 21.7996 73.15 22.2196 73.15C22.6629 73.15 23.0012 73.2783 23.2346 73.535C23.4912 73.7683 23.6196 74.095 23.6196 74.515V83.685C24.1796 82.6583 24.9612 81.8767 25.9646 81.34C26.9679 80.8033 28.1112 80.535 29.3946 80.535ZM46.9421 80.535C51.2121 80.535 53.3471 82.775 53.3471 87.255V96.775C53.3471 97.195 53.2188 97.5333 52.9621 97.79C52.7288 98.0467 52.4021 98.175 51.9821 98.175C51.5621 98.175 51.2238 98.0467 50.9671 97.79C50.7105 97.5333 50.5821 97.195 50.5821 96.775V95.095C50.1388 96.0983 49.4621 96.88 48.5521 97.44C47.6421 97.9767 46.5921 98.245 45.4021 98.245C44.3055 98.245 43.2905 98.0233 42.3571 97.58C41.4471 97.1367 40.7238 96.5183 40.1871 95.725C39.6505 94.9317 39.3821 94.0567 39.3821 93.1C39.3821 91.8167 39.7088 90.825 40.3621 90.125C41.0155 89.4017 42.0888 88.8883 43.5821 88.585C45.0755 88.2583 47.1521 88.095 49.8121 88.095H50.5821V86.94C50.5821 85.54 50.2905 84.5133 49.7071 83.86C49.1471 83.2067 48.2255 82.88 46.9421 82.88C45.3555 82.88 43.7455 83.3117 42.1121 84.175C41.4821 84.5717 41.0388 84.77 40.7821 84.77C40.5021 84.77 40.2688 84.665 40.0821 84.455C39.8955 84.245 39.8021 83.9767 39.8021 83.65C39.8021 83.3233 39.8955 83.0433 40.0821 82.81C40.2921 82.5533 40.6188 82.2967 41.0621 82.04C41.8788 81.5733 42.8005 81.2117 43.8271 80.955C44.8771 80.675 45.9155 80.535 46.9421 80.535ZM45.7871 96.005C47.1871 96.005 48.3305 95.5383 49.2171 94.605C50.1271 93.6483 50.5821 92.4233 50.5821 90.93V89.915H49.9521C47.8988 89.915 46.3355 90.0083 45.2621 90.195C44.1888 90.3583 43.4188 90.65 42.9521 91.07C42.5088 91.4667 42.2871 92.0617 42.2871 92.855C42.2871 93.765 42.6138 94.5233 43.2671 95.13C43.9438 95.7133 44.7838 96.005 45.7871 96.005ZM66.2717 80.605C67.2517 80.535 67.7417 80.9317 67.7417 81.795C67.7417 82.1683 67.6367 82.4717 67.4267 82.705C67.2167 82.915 66.855 83.0433 66.3417 83.09L65.2917 83.195C63.7284 83.335 62.5617 83.895 61.7917 84.875C61.045 85.8317 60.6717 86.9633 60.6717 88.27V96.775C60.6717 97.2417 60.5434 97.5917 60.2867 97.825C60.03 98.0583 59.6917 98.175 59.2717 98.175C58.8517 98.175 58.5017 98.0583 58.2217 97.825C57.965 97.5683 57.8367 97.2183 57.8367 96.775V82.005C57.8367 81.5617 57.9767 81.2233 58.2567 80.99C58.5367 80.7333 58.875 80.605 59.2717 80.605C59.645 80.605 59.96 80.7333 60.2167 80.99C60.4734 81.2233 60.6017 81.55 60.6017 81.97V83.93C61.0917 82.9033 61.78 82.1217 62.6667 81.585C63.5767 81.0483 64.615 80.7333 65.7817 80.64L66.2717 80.605ZM88.4456 80.535C92.2256 80.535 94.1156 82.7867 94.1156 87.29V96.775C94.1156 97.2183 93.9873 97.5683 93.7306 97.825C93.4739 98.0583 93.1356 98.175 92.7156 98.175C92.2956 98.175 91.9456 98.0583 91.6656 97.825C91.4089 97.5683 91.2806 97.2183 91.2806 96.775V87.36C91.2806 85.7967 91.0006 84.665 90.4406 83.965C89.8806 83.265 89.0056 82.915 87.8156 82.915C86.3923 82.915 85.2723 83.3933 84.4556 84.35C83.6389 85.3067 83.2306 86.6017 83.2306 88.235V96.775C83.2306 97.2183 83.0906 97.5683 82.8106 97.825C82.5539 98.0583 82.2156 98.175 81.7956 98.175C81.3756 98.175 81.0373 98.0583 80.7806 97.825C80.5239 97.5683 80.3956 97.2183 80.3956 96.775V87.36C80.3956 85.7967 80.1156 84.665 79.5556 83.965C78.9956 83.265 78.1089 82.915 76.8956 82.915C75.4956 82.915 74.3756 83.3933 73.5356 84.35C72.7189 85.3067 72.3106 86.6017 72.3106 88.235V96.775C72.3106 97.2183 72.1823 97.5683 71.9256 97.825C71.6689 98.0583 71.3306 98.175 70.9106 98.175C70.4906 98.175 70.1406 98.0583 69.8606 97.825C69.6039 97.5683 69.4756 97.2183 69.4756 96.775V82.005C69.4756 81.585 69.6039 81.2467 69.8606 80.99C70.1406 80.7333 70.4906 80.605 70.9106 80.605C71.3073 80.605 71.6339 80.7333 71.8906 80.99C72.1473 81.2233 72.2756 81.55 72.2756 81.97V83.65C72.7889 82.6467 73.5006 81.8767 74.4106 81.34C75.3206 80.8033 76.3706 80.535 77.5606 80.535C80.2206 80.535 81.9589 81.655 82.7756 83.895C83.2656 82.8683 84.0123 82.0517 85.0156 81.445C86.0189 80.8383 87.1623 80.535 88.4456 80.535ZM105.65 98.245C104.04 98.245 102.617 97.8833 101.38 97.16C100.167 96.4367 99.2219 95.41 98.5453 94.08C97.8919 92.7267 97.5653 91.1633 97.5653 89.39C97.5653 87.6167 97.8919 86.065 98.5453 84.735C99.2219 83.3817 100.167 82.3433 101.38 81.62C102.617 80.8967 104.04 80.535 105.65 80.535C107.26 80.535 108.684 80.8967 109.92 81.62C111.157 82.3433 112.102 83.3817 112.755 84.735C113.432 86.065 113.77 87.6167 113.77 89.39C113.77 91.1633 113.432 92.7267 112.755 94.08C112.102 95.41 111.157 96.4367 109.92 97.16C108.684 97.8833 107.26 98.245 105.65 98.245ZM105.65 95.9C107.33 95.9 108.614 95.3517 109.5 94.255C110.41 93.135 110.865 91.5133 110.865 89.39C110.865 87.3133 110.41 85.715 109.5 84.595C108.59 83.4517 107.307 82.88 105.65 82.88C103.994 82.88 102.71 83.4517 101.8 84.595C100.89 85.715 100.435 87.3133 100.435 89.39C100.435 91.49 100.879 93.1 101.765 94.22C102.675 95.34 103.97 95.9 105.65 95.9ZM125.869 80.535C129.953 80.535 131.994 82.7867 131.994 87.29V96.775C131.994 97.2183 131.866 97.5683 131.609 97.825C131.376 98.0583 131.038 98.175 130.594 98.175C130.151 98.175 129.801 98.0583 129.544 97.825C129.288 97.5683 129.159 97.2183 129.159 96.775V87.465C129.159 85.8783 128.844 84.7233 128.214 84C127.608 83.2767 126.628 82.915 125.274 82.915C123.711 82.915 122.463 83.3933 121.529 84.35C120.596 85.3067 120.129 86.6017 120.129 88.235V96.775C120.129 97.2183 120.001 97.5683 119.744 97.825C119.511 98.0583 119.173 98.175 118.729 98.175C118.286 98.175 117.936 98.0583 117.679 97.825C117.423 97.5683 117.294 97.2183 117.294 96.775V82.005C117.294 81.585 117.423 81.2467 117.679 80.99C117.936 80.7333 118.286 80.605 118.729 80.605C119.149 80.605 119.476 80.7333 119.709 80.99C119.966 81.2467 120.094 81.5733 120.094 81.97V83.755C120.654 82.705 121.436 81.9117 122.439 81.375C123.443 80.815 124.586 80.535 125.869 80.535ZM148.772 81.48C149.029 80.92 149.437 80.64 149.997 80.64C150.347 80.64 150.662 80.7567 150.942 80.99C151.222 81.2233 151.362 81.515 151.362 81.865C151.362 82.075 151.315 82.2617 151.222 82.425L141.387 103.635C141.27 103.892 141.095 104.09 140.862 104.23C140.652 104.37 140.43 104.44 140.197 104.44C139.847 104.44 139.532 104.323 139.252 104.09C138.995 103.88 138.867 103.6 138.867 103.25C138.867 103.063 138.914 102.877 139.007 102.69L141.457 97.405L134.527 82.425C134.434 82.2617 134.387 82.0867 134.387 81.9C134.387 81.55 134.539 81.2467 134.842 80.99C135.169 80.7333 135.519 80.605 135.892 80.605C136.125 80.605 136.347 80.675 136.557 80.815C136.79 80.955 136.965 81.1533 137.082 81.41L142.927 94.535L148.772 81.48Z" fill="#2A2921"/>
</svg>
