<svg width="169" height="136" viewBox="0 0 169 136" fill="none" xmlns="http://www.w3.org/2000/svg">
<path d="M27.9405 53V50.725C28.9205 50.725 29.5155 50.445 29.7255 49.885C29.9355 49.3017 30.0405 48.5433 30.0405 47.61V38.37L27.4855 38.405V35.5H30.0405C30.1805 32.28 30.9272 29.9933 32.2805 28.64C33.6339 27.2633 35.6755 26.575 38.4055 26.575C40.4355 26.575 42.0572 26.82 43.2705 27.31C44.4839 27.8 45.3589 28.3717 45.8955 29.025C46.4322 29.655 46.6889 30.1917 46.6655 30.635C46.6655 31.1483 46.4905 31.6733 46.1405 32.21C45.7905 32.7233 45.2539 32.9917 44.5305 33.015C43.8772 33.0383 43.3405 32.8517 42.9205 32.455C42.5005 32.035 42.2905 31.5217 42.2905 30.915C42.2905 30.6583 42.3255 30.4133 42.3955 30.18C42.3022 30.0633 41.9989 29.8533 41.4855 29.55C40.9955 29.2233 40.2022 29.06 39.1055 29.06C37.7989 29.06 36.8422 29.34 36.2355 29.9C35.6522 30.4367 35.2789 31.1367 35.1155 32C34.9755 32.84 34.9055 33.7267 34.9055 34.66V35.5H37.8105C38.8839 35.5 39.9339 35.5 40.9605 35.5C41.9872 35.5 42.8622 35.4767 43.5855 35.43C44.3089 35.3833 44.7522 35.29 44.9155 35.15H46.8055V47.365C46.8055 47.6917 46.7939 48.1583 46.7705 48.765C46.7472 49.3483 46.7122 49.9083 46.6655 50.445C47.0622 50.3983 47.4822 50.375 47.9255 50.375C48.3689 50.3517 48.7072 50.34 48.9405 50.34V53H39.7705V50.725C40.7505 50.725 41.3339 50.445 41.5205 49.885C41.7305 49.3017 41.8355 48.5433 41.8355 47.61V41.135C41.8355 40.715 41.8472 40.2367 41.8705 39.7C41.8939 39.14 41.9289 38.6033 41.9755 38.09L34.9405 38.265L34.9755 47.295C34.9755 47.6217 34.9639 48.1 34.9405 48.73C34.9172 49.3367 34.8822 49.9083 34.8355 50.445C35.2322 50.3983 35.6755 50.375 36.1655 50.375C36.6789 50.3517 37.0522 50.34 37.2855 50.34V53H27.9405ZM50.5153 53V50.725C51.4719 50.725 52.0553 50.445 52.2653 49.885C52.4753 49.3017 52.5803 48.5433 52.5803 47.61V41.73C52.5803 41.31 52.5919 40.8433 52.6153 40.33C52.6386 39.7933 52.6736 39.2683 52.7203 38.755C52.3469 38.7783 51.9036 38.8017 51.3903 38.825C50.9003 38.825 50.5269 38.8367 50.2703 38.86V36.2C51.8803 36.2 53.1169 36.0833 53.9803 35.85C54.8669 35.6167 55.4269 35.3833 55.6603 35.15H57.3753C57.4219 35.4533 57.4453 35.675 57.4453 35.815C57.4453 35.955 57.4453 36.095 57.4453 36.235C57.4686 36.3517 57.5153 36.5733 57.5853 36.9C58.0519 36.5267 58.5886 36.2 59.1953 35.92C59.8019 35.6167 60.4086 35.3833 61.0153 35.22C61.6219 35.0333 62.1586 34.94 62.6253 34.94C64.7719 34.94 66.2886 35.5583 67.1753 36.795C68.0853 38.0083 68.5403 39.9683 68.5403 42.675V47.365C68.5403 47.6917 68.5286 48.1583 68.5053 48.765C68.4819 49.3483 68.4469 49.9083 68.4003 50.445C68.7969 50.3983 69.2169 50.375 69.6603 50.375C70.1036 50.3517 70.4419 50.34 70.6753 50.34V53H61.5053V50.725C62.4853 50.725 63.0803 50.445 63.2903 49.885C63.5003 49.3017 63.6053 48.5433 63.6053 47.61L63.5703 42.64C63.5703 41.1233 63.3486 40.0033 62.9053 39.28C62.4853 38.5333 61.7619 38.16 60.7353 38.16C60.1519 38.16 59.5686 38.2883 58.9853 38.545C58.4253 38.8017 57.9469 39.105 57.5503 39.455V47.365C57.5503 47.6917 57.5386 48.1583 57.5153 48.765C57.4919 49.3483 57.4569 49.9083 57.4103 50.445C57.7836 50.3983 58.1919 50.375 58.6353 50.375C59.1019 50.3517 59.4519 50.34 59.6853 50.34V53H50.5153ZM78.8212 53.56C77.4212 53.56 76.1846 53.1983 75.1112 52.475C74.0612 51.7517 73.2329 50.725 72.6262 49.395C72.0429 48.065 71.7512 46.5017 71.7512 44.705C71.7512 42.815 72.1129 41.135 72.8362 39.665C73.5596 38.195 74.5746 37.04 75.8812 36.2C77.1879 35.36 78.7046 34.94 80.4312 34.94C81.0612 34.94 81.6212 35.01 82.1112 35.15C82.6246 35.2667 83.1029 35.4067 83.5462 35.57V33.26C83.5462 32.9333 83.5579 32.4667 83.5812 31.86C83.6046 31.2533 83.6396 30.6933 83.6862 30.18C83.3129 30.2033 82.8696 30.2267 82.3562 30.25C81.8429 30.2733 81.4579 30.285 81.2012 30.285V27.625C82.8346 27.625 84.0829 27.5083 84.9462 27.275C85.8096 27.0417 86.3579 26.8083 86.5912 26.575H88.4813V47.365C88.4813 47.6917 88.4696 48.1583 88.4462 48.765C88.4229 49.3483 88.3879 49.9083 88.3412 50.445C88.7379 50.3983 89.1579 50.375 89.6013 50.375C90.0446 50.3517 90.3829 50.34 90.6162 50.34V53H83.9662C83.9429 52.7433 83.9079 52.475 83.8612 52.195C83.8379 51.915 83.8029 51.6467 83.7562 51.39C82.9862 52.1833 82.1929 52.7433 81.3762 53.07C80.5596 53.3967 79.7079 53.56 78.8212 53.56ZM80.6412 50.375C81.2479 50.375 81.8079 50.2233 82.3212 49.92C82.8346 49.5933 83.2429 49.185 83.5462 48.695V38.195C83.3129 38.0083 82.9629 37.8567 82.4962 37.74C82.0296 37.6 81.5512 37.53 81.0612 37.53C79.9879 37.5533 79.1479 37.8917 78.5412 38.545C77.9346 39.1983 77.5029 40.0267 77.2462 41.03C77.0129 42.0333 76.8962 43.0833 76.8962 44.18C76.8962 45.16 77.0129 46.1283 77.2462 47.085C77.5029 48.0417 77.8996 48.835 78.4362 49.465C78.9962 50.0717 79.7312 50.375 80.6412 50.375ZM92.2159 50.725C93.1725 50.725 93.7559 50.445 93.9659 49.885C94.1759 49.3017 94.2809 48.5433 94.2809 47.61V41.8C94.2809 41.38 94.2925 40.9017 94.3159 40.365C94.3392 39.805 94.3742 39.2683 94.4209 38.755C94.0475 38.7783 93.6042 38.8017 93.0909 38.825C92.6009 38.825 92.2275 38.8367 91.9709 38.86V36.2C93.5809 36.2 94.8175 36.0833 95.6809 35.85C96.5675 35.6167 97.1275 35.3833 97.3609 35.15H99.2509V47.365C99.2509 47.6917 99.2392 48.1583 99.2159 48.765C99.1925 49.3483 99.1575 49.9083 99.1109 50.445C99.4842 50.3983 99.8925 50.375 100.336 50.375C100.803 50.3517 101.153 50.34 101.386 50.34V53H92.2159V50.725ZM96.5909 32.385C95.7975 32.385 95.1442 32.105 94.6309 31.545C94.1175 30.985 93.8609 30.3083 93.8609 29.515C93.8609 28.7217 94.1292 28.045 94.6659 27.485C95.2025 26.925 95.8325 26.645 96.5559 26.645C97.3025 26.645 97.9209 26.925 98.4109 27.485C98.9242 28.045 99.1809 28.7217 99.1809 29.515C99.1809 30.3083 98.9475 30.985 98.4809 31.545C98.0142 32.105 97.3842 32.385 96.5909 32.385ZM102.966 53V50.725C103.923 50.725 104.506 50.445 104.716 49.885C104.926 49.3017 105.031 48.5433 105.031 47.61V41.73C105.031 41.31 105.043 40.8433 105.066 40.33C105.089 39.7933 105.124 39.2683 105.171 38.755C104.798 38.7783 104.354 38.8017 103.841 38.825C103.351 38.825 102.978 38.8367 102.721 38.86V36.2C104.331 36.2 105.568 36.0833 106.431 35.85C107.318 35.6167 107.878 35.3833 108.111 35.15H109.826C109.873 35.4533 109.896 35.675 109.896 35.815C109.896 35.955 109.896 36.095 109.896 36.235C109.919 36.3517 109.966 36.5733 110.036 36.9C110.503 36.5267 111.039 36.2 111.646 35.92C112.253 35.6167 112.859 35.3833 113.466 35.22C114.073 35.0333 114.609 34.94 115.076 34.94C117.223 34.94 118.739 35.5583 119.626 36.795C120.536 38.0083 120.991 39.9683 120.991 42.675V47.365C120.991 47.6917 120.979 48.1583 120.956 48.765C120.933 49.3483 120.898 49.9083 120.851 50.445C121.248 50.3983 121.668 50.375 122.111 50.375C122.554 50.3517 122.893 50.34 123.126 50.34V53H113.956V50.725C114.936 50.725 115.531 50.445 115.741 49.885C115.951 49.3017 116.056 48.5433 116.056 47.61L116.021 42.64C116.021 41.1233 115.799 40.0033 115.356 39.28C114.936 38.5333 114.213 38.16 113.186 38.16C112.603 38.16 112.019 38.2883 111.436 38.545C110.876 38.8017 110.398 39.105 110.001 39.455V47.365C110.001 47.6917 109.989 48.1583 109.966 48.765C109.943 49.3483 109.908 49.9083 109.861 50.445C110.234 50.3983 110.643 50.375 111.086 50.375C111.553 50.3517 111.903 50.34 112.136 50.34V53H102.966ZM132.042 62.485C130.035 62.485 128.449 62.2633 127.282 61.82C126.115 61.4 125.287 60.84 124.797 60.14C124.307 59.44 124.062 58.6933 124.062 57.9C124.062 57.1767 124.295 56.4417 124.762 55.695C125.252 54.9483 126.127 54.3417 127.387 53.875C126.43 53.6183 125.754 53.21 125.357 52.65C124.984 52.0667 124.797 51.4483 124.797 50.795C124.797 50.1883 125.042 49.5117 125.532 48.765C126.022 47.995 126.909 47.4117 128.192 47.015C127.212 46.6183 126.407 46 125.777 45.16C125.147 44.32 124.809 43.305 124.762 42.115C124.715 40.715 125.065 39.4783 125.812 38.405C126.559 37.3083 127.539 36.4567 128.752 35.85C129.965 35.2433 131.237 34.94 132.567 34.94C133.174 34.94 133.874 35.0217 134.667 35.185C135.46 35.3483 136.149 35.6283 136.732 36.025C136.989 35.3017 137.315 34.625 137.712 33.995C138.132 33.3417 138.634 32.8167 139.217 32.42C139.8 32 140.454 31.79 141.177 31.79C141.97 31.79 142.565 32 142.962 32.42C143.382 32.8167 143.592 33.3533 143.592 34.03C143.592 34.31 143.522 34.625 143.382 34.975C143.265 35.3017 143.044 35.5817 142.717 35.815C142.414 36.0483 141.982 36.165 141.422 36.165C141.072 36.165 140.722 36.0367 140.372 35.78C140.022 35.5 139.812 35.1733 139.742 34.8C139.439 34.8933 139.135 35.1967 138.832 35.71C138.529 36.2233 138.354 36.6783 138.307 37.075C139.684 38.265 140.372 39.77 140.372 41.59C140.372 42.9433 139.987 44.145 139.217 45.195C138.47 46.2217 137.49 47.0383 136.277 47.645C135.087 48.2283 133.804 48.52 132.427 48.52C132.124 48.52 131.785 48.5083 131.412 48.485C131.039 48.4383 130.677 48.415 130.327 48.415C129.814 48.415 129.382 48.5083 129.032 48.695C128.682 48.8817 128.507 49.1383 128.507 49.465C128.507 49.9083 128.845 50.2117 129.522 50.375C130.199 50.5383 131.354 50.6667 132.987 50.76C134.784 50.8533 136.347 51.0867 137.677 51.46C139.03 51.81 140.08 52.37 140.827 53.14C141.574 53.91 141.947 54.9717 141.947 56.325C141.947 57.3283 141.655 58.2033 141.072 58.95C140.489 59.72 139.707 60.3617 138.727 60.875C137.77 61.4117 136.709 61.8083 135.542 62.065C134.375 62.345 133.209 62.485 132.042 62.485ZM132.567 46.175C133.197 46.175 133.722 45.9767 134.142 45.58C134.585 45.1833 134.912 44.6817 135.122 44.075C135.355 43.4683 135.472 42.85 135.472 42.22C135.472 41.4033 135.367 40.6217 135.157 39.875C134.947 39.105 134.62 38.4867 134.177 38.02C133.757 37.53 133.209 37.285 132.532 37.285C131.599 37.285 130.875 37.705 130.362 38.545C129.849 39.385 129.592 40.3417 129.592 41.415C129.592 42.2317 129.709 43.0133 129.942 43.76C130.175 44.4833 130.514 45.0667 130.957 45.51C131.4 45.9533 131.937 46.175 132.567 46.175ZM133.057 60.07C134.714 60.07 135.962 59.7667 136.802 59.16C137.665 58.5533 138.097 57.9233 138.097 57.27C138.097 55.87 136.417 55.1 133.057 54.96C132.544 54.9133 131.949 54.8783 131.272 54.855C130.595 54.8317 130 54.7733 129.487 54.68C129.137 54.96 128.869 55.31 128.682 55.73C128.495 56.15 128.39 56.5583 128.367 56.955C128.32 57.8883 128.717 58.635 129.557 59.195C130.42 59.7783 131.587 60.07 133.057 60.07ZM23.2767 96.635C23.9533 96.565 24.42 96.39 24.6767 96.11C24.9567 95.83 25.0967 95.3633 25.0967 94.71V76.09C25.0967 75.46 24.9917 75.005 24.7817 74.725C24.5717 74.4217 24.245 74.27 23.8017 74.27H23.0667L22.9267 74.165L23.0667 73.045C23.86 72.9517 24.7583 72.8117 25.7617 72.625C26.765 72.415 27.5933 72.2167 28.2467 72.03L28.4567 72.485C28.2933 72.7417 28.13 73.99 27.9667 76.23C27.8267 78.47 27.71 81.2233 27.6167 84.49C30.2767 82.67 32.0267 81.76 32.8667 81.76C34.3833 81.76 35.5617 82.1567 36.4017 82.95C37.2417 83.7433 37.6617 84.8517 37.6617 86.275C37.6617 86.7417 37.58 87.815 37.4167 89.495C37.2067 92.225 37.1017 93.9167 37.1017 94.57C37.1017 95.2467 37.195 95.7483 37.3817 96.075C37.5683 96.3783 37.8833 96.53 38.3267 96.53L39.5517 96.46L39.6217 96.6L39.3417 98.105C37.8017 98.035 36.7633 98 36.2267 98C35.2933 98 34.0917 98.14 32.6217 98.42L32.7617 96.985C33.4617 96.7983 33.9633 96.53 34.2667 96.18C34.57 95.8067 34.7217 95.3167 34.7217 94.71L34.9317 87.78C34.9317 86.6133 34.675 85.715 34.1617 85.085C33.6717 84.455 32.96 84.14 32.0267 84.14C31.4433 84.14 30.72 84.3267 29.8567 84.7C29.0167 85.0733 28.2583 85.5283 27.5817 86.065C27.5117 88.6783 27.4767 91.5133 27.4767 94.57C27.4767 95.2933 27.57 95.8067 27.7567 96.11C27.9433 96.39 28.27 96.53 28.7367 96.53L29.9617 96.46L30.0317 96.6L29.7167 98.105C28.1067 98.035 27.045 98 26.5317 98C25.5283 98 24.3733 98.0233 23.0667 98.07L23.2767 96.635ZM53.0679 98.42C51.1779 98.42 50.1396 97.475 49.9529 95.585L49.8129 95.55C48.9729 96.39 48.2029 97.055 47.5029 97.545C46.8263 98.035 46.3129 98.28 45.9629 98.28C44.6563 98.28 43.5829 97.8717 42.7429 97.055C41.9029 96.2383 41.4829 95.2 41.4829 93.94C41.4829 93.2633 41.6463 92.6683 41.9729 92.155C42.3229 91.6417 42.7779 91.3033 43.3379 91.14L49.9879 89.32L50.0229 87.78C50.0229 86.6133 49.7546 85.7033 49.2179 85.05C48.6813 84.3967 47.9229 84.07 46.9429 84.07C46.2896 84.07 45.6013 84.2217 44.8779 84.525C44.1546 84.8283 43.4429 85.26 42.7429 85.82L42.5679 85.715L42.1479 84.21C43.2446 83.58 44.3413 83.02 45.4379 82.53C46.5579 82.0167 47.3629 81.76 47.8529 81.76C49.3696 81.76 50.5596 82.1567 51.4229 82.95C52.2863 83.7433 52.7179 84.8517 52.7179 86.275C52.7179 86.7883 52.6363 87.8383 52.4729 89.425C52.2163 91.9917 52.0879 93.625 52.0879 94.325C52.0879 94.8383 52.2163 95.235 52.4729 95.515C52.7296 95.795 53.0796 95.935 53.5229 95.935C53.8963 95.935 54.2813 95.8533 54.6779 95.69C55.0746 95.5033 55.3896 95.2933 55.6229 95.06L56.1129 95.62C55.7629 96.2033 55.3079 96.775 54.7479 97.335C54.2113 97.8717 53.6513 98.2333 53.0679 98.42ZM46.5579 95.9C47.0013 95.9 47.5146 95.7483 48.0979 95.445C48.7046 95.1183 49.2529 94.71 49.7429 94.22L49.9179 90.65L45.1579 92.085C44.4813 92.295 44.1429 92.785 44.1429 93.555C44.1429 94.2317 44.3646 94.7917 44.8079 95.235C45.2746 95.6783 45.8579 95.9 46.5579 95.9ZM57.7167 96.74C58.4167 96.67 58.8833 96.4483 59.1167 96.075C59.35 95.6783 59.4667 94.9317 59.4667 93.835V86.135C59.4667 85.365 59.3617 84.8167 59.1517 84.49C58.9417 84.1633 58.6033 84 58.1367 84C57.95 84 57.7867 84.0117 57.6467 84.035C57.53 84.0583 57.4483 84.0817 57.4017 84.105L57.2267 83.86L57.3317 82.775C58.2183 82.6117 59.1517 82.4133 60.1317 82.18C61.135 81.9467 61.7767 81.795 62.0567 81.725L62.3017 81.935C62.255 82.145 62.185 82.635 62.0917 83.405C61.9983 84.1517 61.9633 84.8633 61.9867 85.54L62.1267 85.645C62.8267 84.5483 63.6433 83.65 64.5767 82.95C65.5333 82.25 66.3617 81.9 67.0617 81.9C67.3883 81.9 67.6333 81.9233 67.7967 81.97C67.9833 81.9933 68.1 82.0167 68.1467 82.04L68.2517 82.18C68.205 82.5067 68.1 83.2067 67.9367 84.28C67.7967 85.33 67.715 86.2983 67.6917 87.185L66.3267 87.29C66.3267 86.3333 66.2567 85.7033 66.1167 85.4C66 85.0733 65.755 84.91 65.3817 84.91C64.8683 84.91 64.32 85.1317 63.7367 85.575C63.1533 85.995 62.6167 86.5667 62.1267 87.29C62.1033 87.9667 62.0567 89.0867 61.9867 90.65C61.9167 92.2133 61.87 93.4733 61.8467 94.43C61.8467 95.2233 61.9633 95.76 62.1967 96.04C62.43 96.32 62.8733 96.46 63.5267 96.46C63.83 96.46 64.1333 96.4483 64.4367 96.425C64.74 96.4017 64.95 96.39 65.0667 96.39L65.1017 96.53L64.7867 98.07C64.5533 98.07 64.0867 98.0583 63.3867 98.035C62.6867 98.0117 61.9633 98 61.2167 98C60.3533 98 59.5717 98.0117 58.8717 98.035C58.1717 98.0817 57.7283 98.1167 57.5417 98.14L57.7167 96.74ZM79.7251 96.985C80.4251 96.7983 80.9268 96.53 81.2301 96.18C81.5334 95.8067 81.6851 95.3167 81.6851 94.71L81.8251 87.78C81.8251 86.6133 81.5684 85.715 81.0551 85.085C80.5651 84.455 79.8534 84.14 78.9201 84.14C78.1734 84.14 77.4151 84.3383 76.6451 84.735C75.8751 85.1083 75.1984 85.5167 74.6151 85.96C74.4051 90.79 74.3001 93.66 74.3001 94.57C74.3001 95.2933 74.3934 95.8067 74.5801 96.11C74.7668 96.39 75.0934 96.53 75.5601 96.53C75.8168 96.53 76.0618 96.5183 76.2951 96.495C76.5284 96.4717 76.6918 96.46 76.7851 96.46L76.8551 96.6L76.5401 98.105C76.3301 98.0817 75.9218 98.0583 75.3151 98.035C74.7084 98.0117 74.0551 98 73.3551 98C72.5851 98 71.8734 98.0117 71.2201 98.035C70.5668 98.0583 70.1234 98.07 69.8901 98.07L70.1001 96.635C70.7768 96.565 71.2434 96.39 71.5001 96.11C71.7801 95.83 71.9201 95.3633 71.9201 94.71V86.17C71.9201 85.3767 71.7918 84.8283 71.5351 84.525C71.2784 84.1983 70.8351 84.035 70.2051 84.035H69.8201L69.7151 83.895L69.8201 82.74C70.8234 82.5767 71.8151 82.39 72.7951 82.18C73.7984 81.9467 74.4401 81.795 74.7201 81.725L74.9301 82.005C74.8834 82.145 74.8134 82.4483 74.7201 82.915C74.6268 83.3583 74.5684 83.825 74.5451 84.315L74.6151 84.42C77.2284 82.6467 78.9434 81.76 79.7601 81.76C80.8801 81.76 81.8251 82.005 82.5951 82.495C83.3651 82.9617 83.9134 83.6383 84.2401 84.525C85.0801 83.9183 86.0251 83.3117 87.0751 82.705C88.1251 82.075 88.9418 81.76 89.5251 81.76C90.9951 81.76 92.1618 82.1683 93.0251 82.985C93.8884 83.8017 94.3201 84.8983 94.3201 86.275C94.3201 86.5083 94.2501 87.5817 94.1101 89.495C93.9234 91.9217 93.8301 93.6133 93.8301 94.57C93.8301 95.2933 93.9234 95.8067 94.1101 96.11C94.2968 96.39 94.6234 96.53 95.0901 96.53C95.3468 96.53 95.5918 96.5183 95.8251 96.495C96.0584 96.4717 96.2218 96.46 96.3151 96.46L96.3851 96.6L96.0701 98.105C95.8601 98.0817 95.4518 98.0583 94.8451 98.035C94.2384 98.0117 93.5851 98 92.8851 98C92.2784 98 91.6018 98.0233 90.8551 98.07C90.1318 98.14 89.6534 98.1867 89.4201 98.21L89.5951 96.775C90.2718 96.6583 90.7501 96.4483 91.0301 96.145C91.3101 95.8417 91.4501 95.3633 91.4501 94.71L91.5901 87.78C91.5901 86.6133 91.3334 85.715 90.8201 85.085C90.3301 84.455 89.6184 84.14 88.6851 84.14C87.4718 84.14 86.0601 84.7233 84.4501 85.89L84.0651 94.57C84.0651 95.2467 84.1584 95.7483 84.3451 96.075C84.5318 96.3783 84.8468 96.53 85.2901 96.53C85.5468 96.53 85.7918 96.5183 86.0251 96.495C86.2584 96.4717 86.4218 96.46 86.5151 96.46L86.5851 96.6L86.3051 98.105C86.0951 98.0817 85.6984 98.0583 85.1151 98.035C84.5318 98.0117 83.8901 98 83.1901 98C82.5834 98 81.8834 98.0583 81.0901 98.175C80.3201 98.2917 79.8184 98.3733 79.5851 98.42L79.7251 96.985ZM104.821 98.42C103.491 98.42 102.313 98.0933 101.286 97.44C100.26 96.7867 99.4545 95.8767 98.8712 94.71C98.3112 93.52 98.0312 92.1667 98.0312 90.65C98.0312 89.0167 98.3812 87.5233 99.0812 86.17C99.8045 84.7933 100.785 83.72 102.021 82.95C103.258 82.1567 104.635 81.76 106.151 81.76C107.458 81.76 108.625 82.0867 109.651 82.74C110.701 83.3933 111.506 84.315 112.066 85.505C112.65 86.6717 112.941 88.0133 112.941 89.53C112.941 91.1633 112.58 92.6683 111.856 94.045C111.156 95.3983 110.188 96.4717 108.951 97.265C107.715 98.035 106.338 98.42 104.821 98.42ZM105.801 96.705C107.108 96.705 108.146 96.18 108.916 95.13C109.686 94.0567 110.071 92.61 110.071 90.79C110.071 89.4133 109.861 88.1883 109.441 87.115C109.021 86.0183 108.426 85.1667 107.656 84.56C106.91 83.9533 106.058 83.65 105.101 83.65C103.795 83.65 102.756 84.1867 101.986 85.26C101.216 86.3333 100.831 87.7917 100.831 89.635C100.831 91.0117 101.041 92.2367 101.461 93.31C101.881 94.3833 102.465 95.2233 103.211 95.83C103.958 96.4133 104.821 96.705 105.801 96.705ZM124.948 96.985C125.648 96.7983 126.149 96.53 126.453 96.18C126.756 95.8067 126.908 95.3167 126.908 94.71L127.048 87.78C127.048 86.6133 126.791 85.715 126.278 85.085C125.788 84.455 125.076 84.14 124.143 84.14C123.396 84.14 122.638 84.3383 121.868 84.735C121.098 85.1083 120.421 85.5167 119.838 85.96C119.628 90.79 119.523 93.66 119.523 94.57C119.523 95.2933 119.616 95.8067 119.803 96.11C119.989 96.39 120.316 96.53 120.783 96.53C121.039 96.53 121.284 96.5183 121.518 96.495C121.751 96.4717 121.914 96.46 122.008 96.46L122.078 96.6L121.763 98.105C121.553 98.0817 121.144 98.0583 120.538 98.035C119.931 98.0117 119.278 98 118.578 98C117.971 98 117.294 98.0233 116.548 98.07C115.824 98.14 115.346 98.1867 115.113 98.21L115.288 96.775C115.964 96.6583 116.443 96.4483 116.723 96.145C117.003 95.8417 117.143 95.3633 117.143 94.71V86.17C117.143 85.3767 117.014 84.8283 116.758 84.525C116.501 84.1983 116.058 84.035 115.428 84.035H115.043L114.938 83.895L115.043 82.74C116.046 82.5767 117.038 82.39 118.018 82.18C119.021 81.9467 119.663 81.795 119.943 81.725L120.153 82.005C120.106 82.145 120.036 82.4483 119.943 82.915C119.849 83.3583 119.791 83.825 119.768 84.315L119.838 84.42C122.498 82.6467 124.213 81.76 124.983 81.76C126.453 81.76 127.619 82.1683 128.483 82.985C129.346 83.8017 129.778 84.8983 129.778 86.275C129.778 86.5083 129.708 87.5817 129.568 89.495C129.381 91.9217 129.288 93.6133 129.288 94.57C129.288 95.2467 129.381 95.7483 129.568 96.075C129.754 96.3783 130.069 96.53 130.513 96.53C130.769 96.53 131.014 96.5183 131.248 96.495C131.481 96.4717 131.644 96.46 131.738 96.46L131.808 96.6L131.528 98.105C131.318 98.0817 130.921 98.0583 130.338 98.035C129.754 98.0117 129.113 98 128.413 98C127.806 98 127.106 98.0583 126.313 98.175C125.543 98.2917 125.041 98.3733 124.808 98.42L124.948 96.985ZM132.588 106.435C132.402 106.435 132.098 106.155 131.678 105.595C131.258 105.058 131.048 104.673 131.048 104.44L131.223 104.195C132.53 104.195 133.743 103.647 134.863 102.55C136.007 101.477 136.987 99.96 137.803 98C136.007 92.3067 134.56 88.0133 133.463 85.12C133.253 84.5367 132.95 84.1167 132.553 83.86C132.18 83.6033 131.69 83.4633 131.083 83.44L131.013 83.3L131.223 82.145L134.128 82.18C134.992 82.18 135.843 82.145 136.683 82.075C137.547 82.005 138.095 81.9583 138.328 81.935L138.398 82.11L138.188 83.195C137.395 83.2183 136.858 83.3 136.578 83.44C136.322 83.5567 136.193 83.7783 136.193 84.105C136.193 84.4783 136.415 85.4467 136.858 87.01C137.325 88.5733 137.803 90.1367 138.293 91.7C138.783 93.24 139.11 94.2433 139.273 94.71H139.413C142.097 88.2933 143.438 84.805 143.438 84.245C143.438 83.6383 142.995 83.335 142.108 83.335H140.498L140.428 83.195L140.638 82.04C140.848 82.0633 141.315 82.0983 142.038 82.145C142.762 82.1683 143.485 82.18 144.208 82.18L147.183 82.145L146.938 83.44C146.425 83.5333 146.028 83.72 145.748 84C145.492 84.2567 145.235 84.735 144.978 85.435L140.533 96.075C139.32 99.015 138.328 101.197 137.558 102.62C136.788 104.043 136.03 105.035 135.283 105.595C134.537 106.178 133.638 106.458 132.588 106.435Z" fill="#2A2921"/>
</svg>
