<svg width="169" height="136" viewBox="0 0 169 136" fill="none" xmlns="http://www.w3.org/2000/svg">
<path d="M28.4405 53V50.725C29.4205 50.725 30.0155 50.445 30.2255 49.885C30.4355 49.3017 30.5405 48.5433 30.5405 47.61V38.37L27.9855 38.405V35.5H30.5405C30.6805 32.28 31.4272 29.9933 32.7805 28.64C34.1339 27.2633 36.1755 26.575 38.9055 26.575C40.9355 26.575 42.5572 26.82 43.7705 27.31C44.9839 27.8 45.8589 28.3717 46.3955 29.025C46.9322 29.655 47.1889 30.1917 47.1655 30.635C47.1655 31.1483 46.9905 31.6733 46.6405 32.21C46.2905 32.7233 45.7539 32.9917 45.0305 33.015C44.3772 33.0383 43.8405 32.8517 43.4205 32.455C43.0005 32.035 42.7905 31.5217 42.7905 30.915C42.7905 30.6583 42.8255 30.4133 42.8955 30.18C42.8022 30.0633 42.4989 29.8533 41.9855 29.55C41.4955 29.2233 40.7022 29.06 39.6055 29.06C38.2989 29.06 37.3422 29.34 36.7355 29.9C36.1522 30.4367 35.7789 31.1367 35.6155 32C35.4755 32.84 35.4055 33.7267 35.4055 34.66V35.5H38.3105C39.3839 35.5 40.4339 35.5 41.4605 35.5C42.4872 35.5 43.3622 35.4767 44.0855 35.43C44.8089 35.3833 45.2522 35.29 45.4155 35.15H47.3055V47.365C47.3055 47.6917 47.2939 48.1583 47.2705 48.765C47.2472 49.3483 47.2122 49.9083 47.1655 50.445C47.5622 50.3983 47.9822 50.375 48.4255 50.375C48.8689 50.3517 49.2072 50.34 49.4405 50.34V53H40.2705V50.725C41.2505 50.725 41.8339 50.445 42.0205 49.885C42.2305 49.3017 42.3355 48.5433 42.3355 47.61V41.135C42.3355 40.715 42.3472 40.2367 42.3705 39.7C42.3939 39.14 42.4289 38.6033 42.4755 38.09L35.4405 38.265L35.4755 47.295C35.4755 47.6217 35.4639 48.1 35.4405 48.73C35.4172 49.3367 35.3822 49.9083 35.3355 50.445C35.7322 50.3983 36.1755 50.375 36.6655 50.375C37.1789 50.3517 37.5522 50.34 37.7855 50.34V53H28.4405ZM51.0153 53V50.725C51.9719 50.725 52.5553 50.445 52.7653 49.885C52.9753 49.3017 53.0803 48.5433 53.0803 47.61V41.73C53.0803 41.31 53.0919 40.8433 53.1153 40.33C53.1386 39.7933 53.1736 39.2683 53.2203 38.755C52.8469 38.7783 52.4036 38.8017 51.8903 38.825C51.4003 38.825 51.0269 38.8367 50.7703 38.86V36.2C52.3803 36.2 53.6169 36.0833 54.4803 35.85C55.3669 35.6167 55.9269 35.3833 56.1603 35.15H57.8753C57.9219 35.4533 57.9453 35.675 57.9453 35.815C57.9453 35.955 57.9453 36.095 57.9453 36.235C57.9686 36.3517 58.0153 36.5733 58.0853 36.9C58.5519 36.5267 59.0886 36.2 59.6953 35.92C60.3019 35.6167 60.9086 35.3833 61.5153 35.22C62.1219 35.0333 62.6586 34.94 63.1253 34.94C65.2719 34.94 66.7886 35.5583 67.6753 36.795C68.5853 38.0083 69.0403 39.9683 69.0403 42.675V47.365C69.0403 47.6917 69.0286 48.1583 69.0053 48.765C68.9819 49.3483 68.9469 49.9083 68.9003 50.445C69.2969 50.3983 69.7169 50.375 70.1603 50.375C70.6036 50.3517 70.9419 50.34 71.1753 50.34V53H62.0053V50.725C62.9853 50.725 63.5803 50.445 63.7903 49.885C64.0003 49.3017 64.1053 48.5433 64.1053 47.61L64.0703 42.64C64.0703 41.1233 63.8486 40.0033 63.4053 39.28C62.9853 38.5333 62.2619 38.16 61.2353 38.16C60.6519 38.16 60.0686 38.2883 59.4853 38.545C58.9253 38.8017 58.4469 39.105 58.0503 39.455V47.365C58.0503 47.6917 58.0386 48.1583 58.0153 48.765C57.9919 49.3483 57.9569 49.9083 57.9103 50.445C58.2836 50.3983 58.6919 50.375 59.1353 50.375C59.6019 50.3517 59.9519 50.34 60.1853 50.34V53H51.0153ZM79.3212 53.56C77.9212 53.56 76.6846 53.1983 75.6112 52.475C74.5612 51.7517 73.7329 50.725 73.1262 49.395C72.5429 48.065 72.2512 46.5017 72.2512 44.705C72.2512 42.815 72.6129 41.135 73.3362 39.665C74.0596 38.195 75.0746 37.04 76.3812 36.2C77.6879 35.36 79.2046 34.94 80.9312 34.94C81.5612 34.94 82.1212 35.01 82.6112 35.15C83.1246 35.2667 83.6029 35.4067 84.0462 35.57V33.26C84.0462 32.9333 84.0579 32.4667 84.0812 31.86C84.1046 31.2533 84.1396 30.6933 84.1862 30.18C83.8129 30.2033 83.3696 30.2267 82.8562 30.25C82.3429 30.2733 81.9579 30.285 81.7012 30.285V27.625C83.3346 27.625 84.5829 27.5083 85.4462 27.275C86.3096 27.0417 86.8579 26.8083 87.0912 26.575H88.9813V47.365C88.9813 47.6917 88.9696 48.1583 88.9462 48.765C88.9229 49.3483 88.8879 49.9083 88.8412 50.445C89.2379 50.3983 89.6579 50.375 90.1013 50.375C90.5446 50.3517 90.8829 50.34 91.1162 50.34V53H84.4662C84.4429 52.7433 84.4079 52.475 84.3612 52.195C84.3379 51.915 84.3029 51.6467 84.2562 51.39C83.4862 52.1833 82.6929 52.7433 81.8762 53.07C81.0596 53.3967 80.2079 53.56 79.3212 53.56ZM81.1412 50.375C81.7479 50.375 82.3079 50.2233 82.8212 49.92C83.3346 49.5933 83.7429 49.185 84.0462 48.695V38.195C83.8129 38.0083 83.4629 37.8567 82.9962 37.74C82.5296 37.6 82.0512 37.53 81.5612 37.53C80.4879 37.5533 79.6479 37.8917 79.0412 38.545C78.4346 39.1983 78.0029 40.0267 77.7462 41.03C77.5129 42.0333 77.3962 43.0833 77.3962 44.18C77.3962 45.16 77.5129 46.1283 77.7462 47.085C78.0029 48.0417 78.3996 48.835 78.9362 49.465C79.4962 50.0717 80.2312 50.375 81.1412 50.375ZM92.7159 50.725C93.6725 50.725 94.2559 50.445 94.4659 49.885C94.6759 49.3017 94.7809 48.5433 94.7809 47.61V41.8C94.7809 41.38 94.7925 40.9017 94.8159 40.365C94.8392 39.805 94.8742 39.2683 94.9209 38.755C94.5475 38.7783 94.1042 38.8017 93.5909 38.825C93.1009 38.825 92.7275 38.8367 92.4709 38.86V36.2C94.0809 36.2 95.3175 36.0833 96.1809 35.85C97.0675 35.6167 97.6275 35.3833 97.8609 35.15H99.7509V47.365C99.7509 47.6917 99.7392 48.1583 99.7159 48.765C99.6925 49.3483 99.6575 49.9083 99.6109 50.445C99.9842 50.3983 100.393 50.375 100.836 50.375C101.303 50.3517 101.653 50.34 101.886 50.34V53H92.7159V50.725ZM97.0909 32.385C96.2975 32.385 95.6442 32.105 95.1309 31.545C94.6175 30.985 94.3609 30.3083 94.3609 29.515C94.3609 28.7217 94.6292 28.045 95.1659 27.485C95.7025 26.925 96.3325 26.645 97.0559 26.645C97.8025 26.645 98.4209 26.925 98.9109 27.485C99.4242 28.045 99.6809 28.7217 99.6809 29.515C99.6809 30.3083 99.4475 30.985 98.9809 31.545C98.5142 32.105 97.8842 32.385 97.0909 32.385ZM103.466 53V50.725C104.423 50.725 105.006 50.445 105.216 49.885C105.426 49.3017 105.531 48.5433 105.531 47.61V41.73C105.531 41.31 105.543 40.8433 105.566 40.33C105.589 39.7933 105.624 39.2683 105.671 38.755C105.298 38.7783 104.854 38.8017 104.341 38.825C103.851 38.825 103.478 38.8367 103.221 38.86V36.2C104.831 36.2 106.068 36.0833 106.931 35.85C107.818 35.6167 108.378 35.3833 108.611 35.15H110.326C110.373 35.4533 110.396 35.675 110.396 35.815C110.396 35.955 110.396 36.095 110.396 36.235C110.419 36.3517 110.466 36.5733 110.536 36.9C111.003 36.5267 111.539 36.2 112.146 35.92C112.753 35.6167 113.359 35.3833 113.966 35.22C114.573 35.0333 115.109 34.94 115.576 34.94C117.723 34.94 119.239 35.5583 120.126 36.795C121.036 38.0083 121.491 39.9683 121.491 42.675V47.365C121.491 47.6917 121.479 48.1583 121.456 48.765C121.433 49.3483 121.398 49.9083 121.351 50.445C121.748 50.3983 122.168 50.375 122.611 50.375C123.054 50.3517 123.393 50.34 123.626 50.34V53H114.456V50.725C115.436 50.725 116.031 50.445 116.241 49.885C116.451 49.3017 116.556 48.5433 116.556 47.61L116.521 42.64C116.521 41.1233 116.299 40.0033 115.856 39.28C115.436 38.5333 114.713 38.16 113.686 38.16C113.103 38.16 112.519 38.2883 111.936 38.545C111.376 38.8017 110.898 39.105 110.501 39.455V47.365C110.501 47.6917 110.489 48.1583 110.466 48.765C110.443 49.3483 110.408 49.9083 110.361 50.445C110.734 50.3983 111.143 50.375 111.586 50.375C112.053 50.3517 112.403 50.34 112.636 50.34V53H103.466ZM132.542 62.485C130.535 62.485 128.949 62.2633 127.782 61.82C126.615 61.4 125.787 60.84 125.297 60.14C124.807 59.44 124.562 58.6933 124.562 57.9C124.562 57.1767 124.795 56.4417 125.262 55.695C125.752 54.9483 126.627 54.3417 127.887 53.875C126.93 53.6183 126.254 53.21 125.857 52.65C125.484 52.0667 125.297 51.4483 125.297 50.795C125.297 50.1883 125.542 49.5117 126.032 48.765C126.522 47.995 127.409 47.4117 128.692 47.015C127.712 46.6183 126.907 46 126.277 45.16C125.647 44.32 125.309 43.305 125.262 42.115C125.215 40.715 125.565 39.4783 126.312 38.405C127.059 37.3083 128.039 36.4567 129.252 35.85C130.465 35.2433 131.737 34.94 133.067 34.94C133.674 34.94 134.374 35.0217 135.167 35.185C135.96 35.3483 136.649 35.6283 137.232 36.025C137.489 35.3017 137.815 34.625 138.212 33.995C138.632 33.3417 139.134 32.8167 139.717 32.42C140.3 32 140.954 31.79 141.677 31.79C142.47 31.79 143.065 32 143.462 32.42C143.882 32.8167 144.092 33.3533 144.092 34.03C144.092 34.31 144.022 34.625 143.882 34.975C143.765 35.3017 143.544 35.5817 143.217 35.815C142.914 36.0483 142.482 36.165 141.922 36.165C141.572 36.165 141.222 36.0367 140.872 35.78C140.522 35.5 140.312 35.1733 140.242 34.8C139.939 34.8933 139.635 35.1967 139.332 35.71C139.029 36.2233 138.854 36.6783 138.807 37.075C140.184 38.265 140.872 39.77 140.872 41.59C140.872 42.9433 140.487 44.145 139.717 45.195C138.97 46.2217 137.99 47.0383 136.777 47.645C135.587 48.2283 134.304 48.52 132.927 48.52C132.624 48.52 132.285 48.5083 131.912 48.485C131.539 48.4383 131.177 48.415 130.827 48.415C130.314 48.415 129.882 48.5083 129.532 48.695C129.182 48.8817 129.007 49.1383 129.007 49.465C129.007 49.9083 129.345 50.2117 130.022 50.375C130.699 50.5383 131.854 50.6667 133.487 50.76C135.284 50.8533 136.847 51.0867 138.177 51.46C139.53 51.81 140.58 52.37 141.327 53.14C142.074 53.91 142.447 54.9717 142.447 56.325C142.447 57.3283 142.155 58.2033 141.572 58.95C140.989 59.72 140.207 60.3617 139.227 60.875C138.27 61.4117 137.209 61.8083 136.042 62.065C134.875 62.345 133.709 62.485 132.542 62.485ZM133.067 46.175C133.697 46.175 134.222 45.9767 134.642 45.58C135.085 45.1833 135.412 44.6817 135.622 44.075C135.855 43.4683 135.972 42.85 135.972 42.22C135.972 41.4033 135.867 40.6217 135.657 39.875C135.447 39.105 135.12 38.4867 134.677 38.02C134.257 37.53 133.709 37.285 133.032 37.285C132.099 37.285 131.375 37.705 130.862 38.545C130.349 39.385 130.092 40.3417 130.092 41.415C130.092 42.2317 130.209 43.0133 130.442 43.76C130.675 44.4833 131.014 45.0667 131.457 45.51C131.9 45.9533 132.437 46.175 133.067 46.175ZM133.557 60.07C135.214 60.07 136.462 59.7667 137.302 59.16C138.165 58.5533 138.597 57.9233 138.597 57.27C138.597 55.87 136.917 55.1 133.557 54.96C133.044 54.9133 132.449 54.8783 131.772 54.855C131.095 54.8317 130.5 54.7733 129.987 54.68C129.637 54.96 129.369 55.31 129.182 55.73C128.995 56.15 128.89 56.5583 128.867 56.955C128.82 57.8883 129.217 58.635 130.057 59.195C130.92 59.7783 132.087 60.07 133.557 60.07ZM20.1734 98V71.4L23.4284 70.84V80.15C24.0351 79.9167 24.6768 79.7417 25.3534 79.625C26.0534 79.485 26.7418 79.415 27.4184 79.415C28.8651 79.415 30.0668 79.625 31.0234 80.045C31.9801 80.4417 32.7384 81.0133 33.2984 81.76C33.8818 82.4833 34.2901 83.3583 34.5234 84.385C34.7568 85.4117 34.8734 86.5433 34.8734 87.78V98H31.6184V88.48C31.6184 87.36 31.5368 86.4033 31.3734 85.61C31.2334 84.8167 30.9884 84.175 30.6384 83.685C30.2884 83.195 29.8218 82.845 29.2384 82.635C28.6551 82.4017 27.9318 82.285 27.0684 82.285C26.7184 82.285 26.3568 82.3083 25.9834 82.355C25.6101 82.4017 25.2484 82.46 24.8984 82.53C24.5718 82.5767 24.2684 82.635 23.9884 82.705C23.7318 82.775 23.5451 82.8333 23.4284 82.88V98H20.1734ZM45.6286 95.655C46.3986 95.655 47.0752 95.6433 47.6586 95.62C48.2652 95.5733 48.7669 95.5033 49.1636 95.41V89.985C48.9302 89.8683 48.5452 89.775 48.0086 89.705C47.4952 89.6117 46.8652 89.565 46.1186 89.565C45.6286 89.565 45.1036 89.6 44.5436 89.67C44.0069 89.74 43.5052 89.8917 43.0386 90.125C42.5952 90.335 42.2219 90.6383 41.9186 91.035C41.6152 91.4083 41.4636 91.91 41.4636 92.54C41.4636 93.7067 41.8369 94.5233 42.5836 94.99C43.3302 95.4333 44.3452 95.655 45.6286 95.655ZM45.3486 79.345C46.6552 79.345 47.7519 79.52 48.6386 79.87C49.5486 80.1967 50.2719 80.675 50.8086 81.305C51.3686 81.9117 51.7652 82.6467 51.9986 83.51C52.2319 84.35 52.3486 85.2833 52.3486 86.31V97.685C52.0686 97.7317 51.6719 97.8017 51.1586 97.895C50.6686 97.965 50.1086 98.035 49.4786 98.105C48.8486 98.175 48.1602 98.2333 47.4136 98.28C46.6902 98.35 45.9669 98.385 45.2436 98.385C44.2169 98.385 43.2719 98.28 42.4086 98.07C41.5452 97.86 40.7986 97.5333 40.1686 97.09C39.5386 96.6233 39.0486 96.0167 38.6986 95.27C38.3486 94.5233 38.1736 93.625 38.1736 92.575C38.1736 91.5717 38.3719 90.7083 38.7686 89.985C39.1886 89.2617 39.7486 88.6783 40.4486 88.235C41.1486 87.7917 41.9652 87.465 42.8986 87.255C43.8319 87.045 44.8119 86.94 45.8386 86.94C46.1652 86.94 46.5036 86.9633 46.8536 87.01C47.2036 87.0333 47.5302 87.08 47.8336 87.15C48.1602 87.1967 48.4402 87.2433 48.6736 87.29C48.9069 87.3367 49.0702 87.3717 49.1636 87.395V86.485C49.1636 85.9483 49.1052 85.4233 48.9886 84.91C48.8719 84.3733 48.6619 83.9067 48.3586 83.51C48.0552 83.09 47.6352 82.7633 47.0986 82.53C46.5852 82.2733 45.9086 82.145 45.0686 82.145C43.9952 82.145 43.0502 82.2267 42.2336 82.39C41.4402 82.53 40.8452 82.6817 40.4486 82.845L40.0636 80.15C40.4836 79.9633 41.1836 79.7883 42.1636 79.625C43.1436 79.4383 44.2052 79.345 45.3486 79.345ZM63.7747 79.415C64.0547 79.415 64.3697 79.4383 64.7197 79.485C65.093 79.5083 65.4547 79.555 65.8047 79.625C66.1547 79.6717 66.4697 79.73 66.7497 79.8C67.053 79.8467 67.2747 79.8933 67.4147 79.94L66.8547 82.775C66.598 82.6817 66.1664 82.5767 65.5597 82.46C64.9764 82.32 64.218 82.25 63.2847 82.25C62.678 82.25 62.0714 82.32 61.4647 82.46C60.8814 82.5767 60.4964 82.6583 60.3097 82.705V98H57.0547V80.57C57.8247 80.29 58.7814 80.0333 59.9247 79.8C61.068 79.5433 62.3514 79.415 63.7747 79.415ZM69.8557 80.325C70.6023 80.1383 71.5823 79.94 72.7957 79.73C74.0323 79.52 75.4557 79.415 77.0657 79.415C78.2323 79.415 79.2123 79.5783 80.0057 79.905C80.799 80.2083 81.464 80.6633 82.0007 81.27C82.164 81.1533 82.4207 80.99 82.7707 80.78C83.1207 80.57 83.5523 80.3717 84.0657 80.185C84.579 79.975 85.1507 79.8 85.7807 79.66C86.4107 79.4967 87.0873 79.415 87.8107 79.415C89.2107 79.415 90.354 79.625 91.2407 80.045C92.1273 80.4417 92.8157 81.0133 93.3057 81.76C93.819 82.5067 94.1573 83.3933 94.3207 84.42C94.5073 85.4467 94.6007 86.5667 94.6007 87.78V98H91.3457V88.48C91.3457 87.4067 91.2873 86.485 91.1707 85.715C91.0773 84.945 90.879 84.3033 90.5757 83.79C90.2957 83.2767 89.899 82.9033 89.3857 82.67C88.8957 82.4133 88.254 82.285 87.4607 82.285C86.364 82.285 85.454 82.4367 84.7307 82.74C84.0307 83.02 83.5523 83.2767 83.2957 83.51C83.4823 84.1167 83.6223 84.7817 83.7157 85.505C83.809 86.2283 83.8557 86.9867 83.8557 87.78V98H80.6007V88.48C80.6007 87.4067 80.5423 86.485 80.4257 85.715C80.309 84.945 80.099 84.3033 79.7957 83.79C79.5157 83.2767 79.119 82.9033 78.6057 82.67C78.1157 82.4133 77.4857 82.285 76.7157 82.285C76.389 82.285 76.039 82.2967 75.6657 82.32C75.2923 82.3433 74.9307 82.3783 74.5807 82.425C74.254 82.4483 73.9507 82.4833 73.6707 82.53C73.3907 82.5767 73.204 82.6117 73.1107 82.635V98H69.8557V80.325ZM115.367 88.9C115.367 90.3467 115.157 91.6533 114.737 92.82C114.317 93.9867 113.722 94.99 112.952 95.83C112.205 96.67 111.307 97.3233 110.257 97.79C109.207 98.2333 108.064 98.455 106.827 98.455C105.59 98.455 104.447 98.2333 103.397 97.79C102.347 97.3233 101.437 96.67 100.667 95.83C99.9205 94.99 99.3371 93.9867 98.9171 92.82C98.4971 91.6533 98.2871 90.3467 98.2871 88.9C98.2871 87.4767 98.4971 86.1817 98.9171 85.015C99.3371 83.825 99.9205 82.81 100.667 81.97C101.437 81.13 102.347 80.4883 103.397 80.045C104.447 79.5783 105.59 79.345 106.827 79.345C108.064 79.345 109.207 79.5783 110.257 80.045C111.307 80.4883 112.205 81.13 112.952 81.97C113.722 82.81 114.317 83.825 114.737 85.015C115.157 86.1817 115.367 87.4767 115.367 88.9ZM111.972 88.9C111.972 86.8467 111.505 85.225 110.572 84.035C109.662 82.8217 108.414 82.215 106.827 82.215C105.24 82.215 103.98 82.8217 103.047 84.035C102.137 85.225 101.682 86.8467 101.682 88.9C101.682 90.9533 102.137 92.5867 103.047 93.8C103.98 94.99 105.24 95.585 106.827 95.585C108.414 95.585 109.662 94.99 110.572 93.8C111.505 92.5867 111.972 90.9533 111.972 88.9ZM119.247 80.325C119.993 80.1383 120.985 79.94 122.222 79.73C123.458 79.52 124.882 79.415 126.492 79.415C127.938 79.415 129.14 79.625 130.097 80.045C131.053 80.4417 131.812 81.0133 132.372 81.76C132.955 82.4833 133.363 83.3583 133.597 84.385C133.83 85.4117 133.947 86.5433 133.947 87.78V98H130.692V88.48C130.692 87.36 130.61 86.4033 130.447 85.61C130.307 84.8167 130.062 84.175 129.712 83.685C129.362 83.195 128.895 82.845 128.312 82.635C127.728 82.4017 127.005 82.285 126.142 82.285C125.792 82.285 125.43 82.2967 125.057 82.32C124.683 82.3433 124.322 82.3783 123.972 82.425C123.645 82.4483 123.342 82.4833 123.062 82.53C122.805 82.5767 122.618 82.6117 122.502 82.635V98H119.247V80.325ZM135.894 101.395C136.151 101.512 136.477 101.617 136.874 101.71C137.294 101.827 137.702 101.885 138.099 101.885C139.382 101.885 140.386 101.593 141.109 101.01C141.832 100.45 142.486 99.5283 143.069 98.245C141.599 95.445 140.222 92.4817 138.939 89.355C137.679 86.205 136.629 83.02 135.789 79.8H139.289C139.546 80.85 139.849 81.9817 140.199 83.195C140.572 84.4083 140.981 85.6567 141.424 86.94C141.867 88.2233 142.346 89.5067 142.859 90.79C143.372 92.0733 143.909 93.31 144.469 94.5C145.356 92.05 146.126 89.6233 146.779 87.22C147.432 84.8167 148.051 82.3433 148.634 79.8H151.994C151.154 83.23 150.221 86.5317 149.194 89.705C148.167 92.855 147.059 95.8067 145.869 98.56C145.402 99.61 144.912 100.508 144.399 101.255C143.909 102.025 143.361 102.655 142.754 103.145C142.147 103.635 141.459 103.997 140.689 104.23C139.942 104.463 139.091 104.58 138.134 104.58C137.877 104.58 137.609 104.557 137.329 104.51C137.049 104.487 136.769 104.44 136.489 104.37C136.232 104.323 135.987 104.265 135.754 104.195C135.544 104.125 135.392 104.067 135.299 104.02L135.894 101.395Z" fill="#2A2921"/>
</svg>
