<svg width="169" height="136" viewBox="0 0 169 136" fill="none" xmlns="http://www.w3.org/2000/svg">
<path d="M27.9405 53V50.725C28.9205 50.725 29.5155 50.445 29.7255 49.885C29.9355 49.3017 30.0405 48.5433 30.0405 47.61V38.37L27.4855 38.405V35.5H30.0405C30.1805 32.28 30.9272 29.9933 32.2805 28.64C33.6339 27.2633 35.6755 26.575 38.4055 26.575C40.4355 26.575 42.0572 26.82 43.2705 27.31C44.4839 27.8 45.3589 28.3717 45.8955 29.025C46.4322 29.655 46.6889 30.1917 46.6655 30.635C46.6655 31.1483 46.4905 31.6733 46.1405 32.21C45.7905 32.7233 45.2539 32.9917 44.5305 33.015C43.8772 33.0383 43.3405 32.8517 42.9205 32.455C42.5005 32.035 42.2905 31.5217 42.2905 30.915C42.2905 30.6583 42.3255 30.4133 42.3955 30.18C42.3022 30.0633 41.9989 29.8533 41.4855 29.55C40.9955 29.2233 40.2022 29.06 39.1055 29.06C37.7989 29.06 36.8422 29.34 36.2355 29.9C35.6522 30.4367 35.2789 31.1367 35.1155 32C34.9755 32.84 34.9055 33.7267 34.9055 34.66V35.5H37.8105C38.8839 35.5 39.9339 35.5 40.9605 35.5C41.9872 35.5 42.8622 35.4767 43.5855 35.43C44.3089 35.3833 44.7522 35.29 44.9155 35.15H46.8055V47.365C46.8055 47.6917 46.7939 48.1583 46.7705 48.765C46.7472 49.3483 46.7122 49.9083 46.6655 50.445C47.0622 50.3983 47.4822 50.375 47.9255 50.375C48.3689 50.3517 48.7072 50.34 48.9405 50.34V53H39.7705V50.725C40.7505 50.725 41.3339 50.445 41.5205 49.885C41.7305 49.3017 41.8355 48.5433 41.8355 47.61V41.135C41.8355 40.715 41.8472 40.2367 41.8705 39.7C41.8939 39.14 41.9289 38.6033 41.9755 38.09L34.9405 38.265L34.9755 47.295C34.9755 47.6217 34.9639 48.1 34.9405 48.73C34.9172 49.3367 34.8822 49.9083 34.8355 50.445C35.2322 50.3983 35.6755 50.375 36.1655 50.375C36.6789 50.3517 37.0522 50.34 37.2855 50.34V53H27.9405ZM50.5153 53V50.725C51.4719 50.725 52.0553 50.445 52.2653 49.885C52.4753 49.3017 52.5803 48.5433 52.5803 47.61V41.73C52.5803 41.31 52.5919 40.8433 52.6153 40.33C52.6386 39.7933 52.6736 39.2683 52.7203 38.755C52.3469 38.7783 51.9036 38.8017 51.3903 38.825C50.9003 38.825 50.5269 38.8367 50.2703 38.86V36.2C51.8803 36.2 53.1169 36.0833 53.9803 35.85C54.8669 35.6167 55.4269 35.3833 55.6603 35.15H57.3753C57.4219 35.4533 57.4453 35.675 57.4453 35.815C57.4453 35.955 57.4453 36.095 57.4453 36.235C57.4686 36.3517 57.5153 36.5733 57.5853 36.9C58.0519 36.5267 58.5886 36.2 59.1953 35.92C59.8019 35.6167 60.4086 35.3833 61.0153 35.22C61.6219 35.0333 62.1586 34.94 62.6253 34.94C64.7719 34.94 66.2886 35.5583 67.1753 36.795C68.0853 38.0083 68.5403 39.9683 68.5403 42.675V47.365C68.5403 47.6917 68.5286 48.1583 68.5053 48.765C68.4819 49.3483 68.4469 49.9083 68.4003 50.445C68.7969 50.3983 69.2169 50.375 69.6603 50.375C70.1036 50.3517 70.4419 50.34 70.6753 50.34V53H61.5053V50.725C62.4853 50.725 63.0803 50.445 63.2903 49.885C63.5003 49.3017 63.6053 48.5433 63.6053 47.61L63.5703 42.64C63.5703 41.1233 63.3486 40.0033 62.9053 39.28C62.4853 38.5333 61.7619 38.16 60.7353 38.16C60.1519 38.16 59.5686 38.2883 58.9853 38.545C58.4253 38.8017 57.9469 39.105 57.5503 39.455V47.365C57.5503 47.6917 57.5386 48.1583 57.5153 48.765C57.4919 49.3483 57.4569 49.9083 57.4103 50.445C57.7836 50.3983 58.1919 50.375 58.6353 50.375C59.1019 50.3517 59.4519 50.34 59.6853 50.34V53H50.5153ZM78.8212 53.56C77.4212 53.56 76.1846 53.1983 75.1112 52.475C74.0612 51.7517 73.2329 50.725 72.6262 49.395C72.0429 48.065 71.7512 46.5017 71.7512 44.705C71.7512 42.815 72.1129 41.135 72.8362 39.665C73.5596 38.195 74.5746 37.04 75.8812 36.2C77.1879 35.36 78.7046 34.94 80.4312 34.94C81.0612 34.94 81.6212 35.01 82.1112 35.15C82.6246 35.2667 83.1029 35.4067 83.5462 35.57V33.26C83.5462 32.9333 83.5579 32.4667 83.5812 31.86C83.6046 31.2533 83.6396 30.6933 83.6862 30.18C83.3129 30.2033 82.8696 30.2267 82.3562 30.25C81.8429 30.2733 81.4579 30.285 81.2012 30.285V27.625C82.8346 27.625 84.0829 27.5083 84.9462 27.275C85.8096 27.0417 86.3579 26.8083 86.5912 26.575H88.4813V47.365C88.4813 47.6917 88.4696 48.1583 88.4462 48.765C88.4229 49.3483 88.3879 49.9083 88.3412 50.445C88.7379 50.3983 89.1579 50.375 89.6013 50.375C90.0446 50.3517 90.3829 50.34 90.6162 50.34V53H83.9662C83.9429 52.7433 83.9079 52.475 83.8612 52.195C83.8379 51.915 83.8029 51.6467 83.7562 51.39C82.9862 52.1833 82.1929 52.7433 81.3762 53.07C80.5596 53.3967 79.7079 53.56 78.8212 53.56ZM80.6412 50.375C81.2479 50.375 81.8079 50.2233 82.3212 49.92C82.8346 49.5933 83.2429 49.185 83.5462 48.695V38.195C83.3129 38.0083 82.9629 37.8567 82.4962 37.74C82.0296 37.6 81.5512 37.53 81.0612 37.53C79.9879 37.5533 79.1479 37.8917 78.5412 38.545C77.9346 39.1983 77.5029 40.0267 77.2462 41.03C77.0129 42.0333 76.8962 43.0833 76.8962 44.18C76.8962 45.16 77.0129 46.1283 77.2462 47.085C77.5029 48.0417 77.8996 48.835 78.4362 49.465C78.9962 50.0717 79.7312 50.375 80.6412 50.375ZM92.2159 50.725C93.1725 50.725 93.7559 50.445 93.9659 49.885C94.1759 49.3017 94.2809 48.5433 94.2809 47.61V41.8C94.2809 41.38 94.2925 40.9017 94.3159 40.365C94.3392 39.805 94.3742 39.2683 94.4209 38.755C94.0475 38.7783 93.6042 38.8017 93.0909 38.825C92.6009 38.825 92.2275 38.8367 91.9709 38.86V36.2C93.5809 36.2 94.8175 36.0833 95.6809 35.85C96.5675 35.6167 97.1275 35.3833 97.3609 35.15H99.2509V47.365C99.2509 47.6917 99.2392 48.1583 99.2159 48.765C99.1925 49.3483 99.1575 49.9083 99.1109 50.445C99.4842 50.3983 99.8925 50.375 100.336 50.375C100.803 50.3517 101.153 50.34 101.386 50.34V53H92.2159V50.725ZM96.5909 32.385C95.7975 32.385 95.1442 32.105 94.6309 31.545C94.1175 30.985 93.8609 30.3083 93.8609 29.515C93.8609 28.7217 94.1292 28.045 94.6659 27.485C95.2025 26.925 95.8325 26.645 96.5559 26.645C97.3025 26.645 97.9209 26.925 98.4109 27.485C98.9242 28.045 99.1809 28.7217 99.1809 29.515C99.1809 30.3083 98.9475 30.985 98.4809 31.545C98.0142 32.105 97.3842 32.385 96.5909 32.385ZM102.966 53V50.725C103.923 50.725 104.506 50.445 104.716 49.885C104.926 49.3017 105.031 48.5433 105.031 47.61V41.73C105.031 41.31 105.043 40.8433 105.066 40.33C105.089 39.7933 105.124 39.2683 105.171 38.755C104.798 38.7783 104.354 38.8017 103.841 38.825C103.351 38.825 102.978 38.8367 102.721 38.86V36.2C104.331 36.2 105.568 36.0833 106.431 35.85C107.318 35.6167 107.878 35.3833 108.111 35.15H109.826C109.873 35.4533 109.896 35.675 109.896 35.815C109.896 35.955 109.896 36.095 109.896 36.235C109.919 36.3517 109.966 36.5733 110.036 36.9C110.503 36.5267 111.039 36.2 111.646 35.92C112.253 35.6167 112.859 35.3833 113.466 35.22C114.073 35.0333 114.609 34.94 115.076 34.94C117.223 34.94 118.739 35.5583 119.626 36.795C120.536 38.0083 120.991 39.9683 120.991 42.675V47.365C120.991 47.6917 120.979 48.1583 120.956 48.765C120.933 49.3483 120.898 49.9083 120.851 50.445C121.248 50.3983 121.668 50.375 122.111 50.375C122.554 50.3517 122.893 50.34 123.126 50.34V53H113.956V50.725C114.936 50.725 115.531 50.445 115.741 49.885C115.951 49.3017 116.056 48.5433 116.056 47.61L116.021 42.64C116.021 41.1233 115.799 40.0033 115.356 39.28C114.936 38.5333 114.213 38.16 113.186 38.16C112.603 38.16 112.019 38.2883 111.436 38.545C110.876 38.8017 110.398 39.105 110.001 39.455V47.365C110.001 47.6917 109.989 48.1583 109.966 48.765C109.943 49.3483 109.908 49.9083 109.861 50.445C110.234 50.3983 110.643 50.375 111.086 50.375C111.553 50.3517 111.903 50.34 112.136 50.34V53H102.966ZM132.042 62.485C130.035 62.485 128.449 62.2633 127.282 61.82C126.115 61.4 125.287 60.84 124.797 60.14C124.307 59.44 124.062 58.6933 124.062 57.9C124.062 57.1767 124.295 56.4417 124.762 55.695C125.252 54.9483 126.127 54.3417 127.387 53.875C126.43 53.6183 125.754 53.21 125.357 52.65C124.984 52.0667 124.797 51.4483 124.797 50.795C124.797 50.1883 125.042 49.5117 125.532 48.765C126.022 47.995 126.909 47.4117 128.192 47.015C127.212 46.6183 126.407 46 125.777 45.16C125.147 44.32 124.809 43.305 124.762 42.115C124.715 40.715 125.065 39.4783 125.812 38.405C126.559 37.3083 127.539 36.4567 128.752 35.85C129.965 35.2433 131.237 34.94 132.567 34.94C133.174 34.94 133.874 35.0217 134.667 35.185C135.46 35.3483 136.149 35.6283 136.732 36.025C136.989 35.3017 137.315 34.625 137.712 33.995C138.132 33.3417 138.634 32.8167 139.217 32.42C139.8 32 140.454 31.79 141.177 31.79C141.97 31.79 142.565 32 142.962 32.42C143.382 32.8167 143.592 33.3533 143.592 34.03C143.592 34.31 143.522 34.625 143.382 34.975C143.265 35.3017 143.044 35.5817 142.717 35.815C142.414 36.0483 141.982 36.165 141.422 36.165C141.072 36.165 140.722 36.0367 140.372 35.78C140.022 35.5 139.812 35.1733 139.742 34.8C139.439 34.8933 139.135 35.1967 138.832 35.71C138.529 36.2233 138.354 36.6783 138.307 37.075C139.684 38.265 140.372 39.77 140.372 41.59C140.372 42.9433 139.987 44.145 139.217 45.195C138.47 46.2217 137.49 47.0383 136.277 47.645C135.087 48.2283 133.804 48.52 132.427 48.52C132.124 48.52 131.785 48.5083 131.412 48.485C131.039 48.4383 130.677 48.415 130.327 48.415C129.814 48.415 129.382 48.5083 129.032 48.695C128.682 48.8817 128.507 49.1383 128.507 49.465C128.507 49.9083 128.845 50.2117 129.522 50.375C130.199 50.5383 131.354 50.6667 132.987 50.76C134.784 50.8533 136.347 51.0867 137.677 51.46C139.03 51.81 140.08 52.37 140.827 53.14C141.574 53.91 141.947 54.9717 141.947 56.325C141.947 57.3283 141.655 58.2033 141.072 58.95C140.489 59.72 139.707 60.3617 138.727 60.875C137.77 61.4117 136.709 61.8083 135.542 62.065C134.375 62.345 133.209 62.485 132.042 62.485ZM132.567 46.175C133.197 46.175 133.722 45.9767 134.142 45.58C134.585 45.1833 134.912 44.6817 135.122 44.075C135.355 43.4683 135.472 42.85 135.472 42.22C135.472 41.4033 135.367 40.6217 135.157 39.875C134.947 39.105 134.62 38.4867 134.177 38.02C133.757 37.53 133.209 37.285 132.532 37.285C131.599 37.285 130.875 37.705 130.362 38.545C129.849 39.385 129.592 40.3417 129.592 41.415C129.592 42.2317 129.709 43.0133 129.942 43.76C130.175 44.4833 130.514 45.0667 130.957 45.51C131.4 45.9533 131.937 46.175 132.567 46.175ZM133.057 60.07C134.714 60.07 135.962 59.7667 136.802 59.16C137.665 58.5533 138.097 57.9233 138.097 57.27C138.097 55.87 136.417 55.1 133.057 54.96C132.544 54.9133 131.949 54.8783 131.272 54.855C130.595 54.8317 130 54.7733 129.487 54.68C129.137 54.96 128.869 55.31 128.682 55.73C128.495 56.15 128.39 56.5583 128.367 56.955C128.32 57.8883 128.717 58.635 129.557 59.195C130.42 59.7783 131.587 60.07 133.057 60.07ZM23.3323 98V73.08H26.2023V79.87L26.0973 83.37C26.914 82.6 27.7656 81.9467 28.6523 81.41C29.539 80.85 30.5773 80.57 31.7673 80.57C33.564 80.57 34.8706 81.13 35.6873 82.25C36.5273 83.37 36.9473 85.0267 36.9473 87.22V98H34.0773V87.605C34.0773 85.995 33.8206 84.84 33.3073 84.14C32.794 83.4167 31.9773 83.055 30.8573 83.055C29.9706 83.055 29.189 83.2767 28.5123 83.72C27.8356 84.1633 27.0656 84.8167 26.2023 85.68V98H23.3323ZM45.5904 98.42C44.1671 98.42 42.9771 98 42.0204 97.16C41.0871 96.32 40.6204 95.13 40.6204 93.59C40.6204 91.7233 41.4487 90.3 43.1054 89.32C44.7621 88.3167 47.4104 87.6167 51.0504 87.22C51.0504 86.6833 50.9921 86.1583 50.8754 85.645C50.7821 85.1317 50.6071 84.6767 50.3504 84.28C50.0937 83.8833 49.7321 83.5683 49.2654 83.335C48.8221 83.0783 48.2504 82.95 47.5504 82.95C46.5704 82.95 45.6487 83.1367 44.7854 83.51C43.9221 83.8833 43.1521 84.3033 42.4754 84.77L41.3554 82.775C42.1487 82.2617 43.1171 81.7717 44.2604 81.305C45.4037 80.815 46.6637 80.57 48.0404 80.57C50.1171 80.57 51.6221 81.2117 52.5554 82.495C53.4887 83.755 53.9554 85.4467 53.9554 87.57V98H51.5754L51.3304 95.97H51.2254C50.4087 96.6467 49.5337 97.23 48.6004 97.72C47.6671 98.1867 46.6637 98.42 45.5904 98.42ZM46.4304 96.11C47.2471 96.11 48.0171 95.9233 48.7404 95.55C49.4637 95.1533 50.2337 94.5817 51.0504 93.835V89.11C49.6271 89.2967 48.4254 89.5183 47.4454 89.775C46.4887 90.0317 45.7071 90.335 45.1004 90.685C44.5171 91.035 44.0854 91.4433 43.8054 91.91C43.5487 92.3533 43.4204 92.8433 43.4204 93.38C43.4204 94.36 43.7121 95.06 44.2954 95.48C44.8787 95.9 45.5904 96.11 46.4304 96.11ZM58.6071 98V80.99H60.9871L61.2321 84.07H61.3371C61.9204 82.9967 62.6204 82.145 63.4371 81.515C64.2771 80.885 65.1871 80.57 66.1671 80.57C66.8438 80.57 67.4504 80.6867 67.9871 80.92L67.4271 83.44C67.1471 83.3467 66.8904 83.2767 66.6571 83.23C66.4238 83.1833 66.1321 83.16 65.7821 83.16C65.0588 83.16 64.3004 83.4517 63.5071 84.035C62.7371 84.6183 62.0604 85.6333 61.4771 87.08V98H58.6071ZM70.0409 98V80.99H72.4209L72.6659 83.44H72.7709C73.5176 82.6233 74.3226 81.9467 75.1859 81.41C76.0726 80.85 77.0292 80.57 78.0559 80.57C79.3626 80.57 80.3776 80.8617 81.1009 81.445C81.8476 82.005 82.3959 82.7983 82.7459 83.825C83.6326 82.845 84.5192 82.0633 85.4059 81.48C86.3159 80.8733 87.2959 80.57 88.3459 80.57C90.0959 80.57 91.3909 81.13 92.2309 82.25C93.0942 83.37 93.5259 85.0267 93.5259 87.22V98H90.6559V87.605C90.6559 85.995 90.3992 84.84 89.8859 84.14C89.3726 83.4167 88.5792 83.055 87.5059 83.055C86.2226 83.055 84.7992 83.93 83.2359 85.68V98H80.3659V87.605C80.3659 85.995 80.1092 84.84 79.5959 84.14C79.0826 83.4167 78.2776 83.055 77.1809 83.055C75.8976 83.055 74.4742 83.93 72.9109 85.68V98H70.0409ZM104.974 98.42C103.924 98.42 102.921 98.2217 101.964 97.825C101.031 97.4283 100.203 96.8567 99.4794 96.11C98.7561 95.34 98.1728 94.4067 97.7294 93.31C97.3094 92.19 97.0994 90.93 97.0994 89.53C97.0994 88.1067 97.3094 86.8467 97.7294 85.75C98.1728 84.63 98.7561 83.685 99.4794 82.915C100.203 82.145 101.031 81.5617 101.964 81.165C102.921 80.7683 103.924 80.57 104.974 80.57C106.024 80.57 107.016 80.7683 107.949 81.165C108.906 81.5617 109.746 82.145 110.469 82.915C111.193 83.685 111.764 84.63 112.184 85.75C112.628 86.8467 112.849 88.1067 112.849 89.53C112.849 90.93 112.628 92.19 112.184 93.31C111.764 94.4067 111.193 95.34 110.469 96.11C109.746 96.8567 108.906 97.4283 107.949 97.825C107.016 98.2217 106.024 98.42 104.974 98.42ZM104.974 96.04C105.698 96.04 106.363 95.8883 106.969 95.585C107.576 95.2583 108.089 94.815 108.509 94.255C108.953 93.6717 109.291 92.9833 109.524 92.19C109.758 91.3967 109.874 90.51 109.874 89.53C109.874 88.55 109.758 87.6633 109.524 86.87C109.291 86.0533 108.953 85.3533 108.509 84.77C108.089 84.1867 107.576 83.7433 106.969 83.44C106.363 83.1133 105.698 82.95 104.974 82.95C104.251 82.95 103.586 83.1133 102.979 83.44C102.373 83.7433 101.848 84.1867 101.404 84.77C100.984 85.3533 100.658 86.0533 100.424 86.87C100.191 87.6633 100.074 88.55 100.074 89.53C100.074 90.51 100.191 91.3967 100.424 92.19C100.658 92.9833 100.984 93.6717 101.404 94.255C101.848 94.815 102.373 95.2583 102.979 95.585C103.586 95.8883 104.251 96.04 104.974 96.04ZM116.629 98V80.99H119.009L119.254 83.44H119.359C120.176 82.6233 121.028 81.9467 121.914 81.41C122.824 80.85 123.874 80.57 125.064 80.57C126.861 80.57 128.168 81.13 128.984 82.25C129.824 83.37 130.244 85.0267 130.244 87.22V98H127.374V87.605C127.374 85.995 127.118 84.84 126.604 84.14C126.091 83.4167 125.274 83.055 124.154 83.055C123.268 83.055 122.486 83.2767 121.809 83.72C121.133 84.1633 120.363 84.8167 119.499 85.68V98H116.629ZM135.35 105.315C134.953 105.315 134.591 105.28 134.265 105.21C133.938 105.163 133.635 105.082 133.355 104.965L133.915 102.69C134.101 102.737 134.311 102.783 134.545 102.83C134.778 102.9 135 102.935 135.21 102.935C136.19 102.935 136.983 102.585 137.59 101.885C138.22 101.208 138.71 100.345 139.06 99.295L139.445 98.035L132.62 80.99H135.595L139.06 90.405C139.316 91.1517 139.585 91.945 139.865 92.785C140.168 93.6017 140.448 94.4067 140.705 95.2H140.845C141.101 94.43 141.346 93.625 141.58 92.785C141.813 91.945 142.046 91.1517 142.28 90.405L145.325 80.99H148.125L141.72 99.4C141.416 100.24 141.078 101.022 140.705 101.745C140.331 102.468 139.888 103.087 139.375 103.6C138.861 104.137 138.278 104.557 137.625 104.86C136.971 105.163 136.213 105.315 135.35 105.315Z" fill="#2A2921"/>
</svg>
