<svg width="169" height="136" viewBox="0 0 169 136" fill="none" xmlns="http://www.w3.org/2000/svg">
<path d="M28.4405 53V50.725C29.4205 50.725 30.0155 50.445 30.2255 49.885C30.4355 49.3017 30.5405 48.5433 30.5405 47.61V38.37L27.9855 38.405V35.5H30.5405C30.6805 32.28 31.4272 29.9933 32.7805 28.64C34.1339 27.2633 36.1755 26.575 38.9055 26.575C40.9355 26.575 42.5572 26.82 43.7705 27.31C44.9839 27.8 45.8589 28.3717 46.3955 29.025C46.9322 29.655 47.1889 30.1917 47.1655 30.635C47.1655 31.1483 46.9905 31.6733 46.6405 32.21C46.2905 32.7233 45.7539 32.9917 45.0305 33.015C44.3772 33.0383 43.8405 32.8517 43.4205 32.455C43.0005 32.035 42.7905 31.5217 42.7905 30.915C42.7905 30.6583 42.8255 30.4133 42.8955 30.18C42.8022 30.0633 42.4989 29.8533 41.9855 29.55C41.4955 29.2233 40.7022 29.06 39.6055 29.06C38.2989 29.06 37.3422 29.34 36.7355 29.9C36.1522 30.4367 35.7789 31.1367 35.6155 32C35.4755 32.84 35.4055 33.7267 35.4055 34.66V35.5H38.3105C39.3839 35.5 40.4339 35.5 41.4605 35.5C42.4872 35.5 43.3622 35.4767 44.0855 35.43C44.8089 35.3833 45.2522 35.29 45.4155 35.15H47.3055V47.365C47.3055 47.6917 47.2939 48.1583 47.2705 48.765C47.2472 49.3483 47.2122 49.9083 47.1655 50.445C47.5622 50.3983 47.9822 50.375 48.4255 50.375C48.8689 50.3517 49.2072 50.34 49.4405 50.34V53H40.2705V50.725C41.2505 50.725 41.8339 50.445 42.0205 49.885C42.2305 49.3017 42.3355 48.5433 42.3355 47.61V41.135C42.3355 40.715 42.3472 40.2367 42.3705 39.7C42.3939 39.14 42.4289 38.6033 42.4755 38.09L35.4405 38.265L35.4755 47.295C35.4755 47.6217 35.4639 48.1 35.4405 48.73C35.4172 49.3367 35.3822 49.9083 35.3355 50.445C35.7322 50.3983 36.1755 50.375 36.6655 50.375C37.1789 50.3517 37.5522 50.34 37.7855 50.34V53H28.4405ZM51.0153 53V50.725C51.9719 50.725 52.5553 50.445 52.7653 49.885C52.9753 49.3017 53.0803 48.5433 53.0803 47.61V41.73C53.0803 41.31 53.0919 40.8433 53.1153 40.33C53.1386 39.7933 53.1736 39.2683 53.2203 38.755C52.8469 38.7783 52.4036 38.8017 51.8903 38.825C51.4003 38.825 51.0269 38.8367 50.7703 38.86V36.2C52.3803 36.2 53.6169 36.0833 54.4803 35.85C55.3669 35.6167 55.9269 35.3833 56.1603 35.15H57.8753C57.9219 35.4533 57.9453 35.675 57.9453 35.815C57.9453 35.955 57.9453 36.095 57.9453 36.235C57.9686 36.3517 58.0153 36.5733 58.0853 36.9C58.5519 36.5267 59.0886 36.2 59.6953 35.92C60.3019 35.6167 60.9086 35.3833 61.5153 35.22C62.1219 35.0333 62.6586 34.94 63.1253 34.94C65.2719 34.94 66.7886 35.5583 67.6753 36.795C68.5853 38.0083 69.0403 39.9683 69.0403 42.675V47.365C69.0403 47.6917 69.0286 48.1583 69.0053 48.765C68.9819 49.3483 68.9469 49.9083 68.9003 50.445C69.2969 50.3983 69.7169 50.375 70.1603 50.375C70.6036 50.3517 70.9419 50.34 71.1753 50.34V53H62.0053V50.725C62.9853 50.725 63.5803 50.445 63.7903 49.885C64.0003 49.3017 64.1053 48.5433 64.1053 47.61L64.0703 42.64C64.0703 41.1233 63.8486 40.0033 63.4053 39.28C62.9853 38.5333 62.2619 38.16 61.2353 38.16C60.6519 38.16 60.0686 38.2883 59.4853 38.545C58.9253 38.8017 58.4469 39.105 58.0503 39.455V47.365C58.0503 47.6917 58.0386 48.1583 58.0153 48.765C57.9919 49.3483 57.9569 49.9083 57.9103 50.445C58.2836 50.3983 58.6919 50.375 59.1353 50.375C59.6019 50.3517 59.9519 50.34 60.1853 50.34V53H51.0153ZM79.3212 53.56C77.9212 53.56 76.6846 53.1983 75.6112 52.475C74.5612 51.7517 73.7329 50.725 73.1262 49.395C72.5429 48.065 72.2512 46.5017 72.2512 44.705C72.2512 42.815 72.6129 41.135 73.3362 39.665C74.0596 38.195 75.0746 37.04 76.3812 36.2C77.6879 35.36 79.2046 34.94 80.9312 34.94C81.5612 34.94 82.1212 35.01 82.6112 35.15C83.1246 35.2667 83.6029 35.4067 84.0462 35.57V33.26C84.0462 32.9333 84.0579 32.4667 84.0812 31.86C84.1046 31.2533 84.1396 30.6933 84.1862 30.18C83.8129 30.2033 83.3696 30.2267 82.8562 30.25C82.3429 30.2733 81.9579 30.285 81.7012 30.285V27.625C83.3346 27.625 84.5829 27.5083 85.4462 27.275C86.3096 27.0417 86.8579 26.8083 87.0912 26.575H88.9813V47.365C88.9813 47.6917 88.9696 48.1583 88.9462 48.765C88.9229 49.3483 88.8879 49.9083 88.8412 50.445C89.2379 50.3983 89.6579 50.375 90.1013 50.375C90.5446 50.3517 90.8829 50.34 91.1162 50.34V53H84.4662C84.4429 52.7433 84.4079 52.475 84.3612 52.195C84.3379 51.915 84.3029 51.6467 84.2562 51.39C83.4862 52.1833 82.6929 52.7433 81.8762 53.07C81.0596 53.3967 80.2079 53.56 79.3212 53.56ZM81.1412 50.375C81.7479 50.375 82.3079 50.2233 82.8212 49.92C83.3346 49.5933 83.7429 49.185 84.0462 48.695V38.195C83.8129 38.0083 83.4629 37.8567 82.9962 37.74C82.5296 37.6 82.0512 37.53 81.5612 37.53C80.4879 37.5533 79.6479 37.8917 79.0412 38.545C78.4346 39.1983 78.0029 40.0267 77.7462 41.03C77.5129 42.0333 77.3962 43.0833 77.3962 44.18C77.3962 45.16 77.5129 46.1283 77.7462 47.085C78.0029 48.0417 78.3996 48.835 78.9362 49.465C79.4962 50.0717 80.2312 50.375 81.1412 50.375ZM92.7159 50.725C93.6725 50.725 94.2559 50.445 94.4659 49.885C94.6759 49.3017 94.7809 48.5433 94.7809 47.61V41.8C94.7809 41.38 94.7925 40.9017 94.8159 40.365C94.8392 39.805 94.8742 39.2683 94.9209 38.755C94.5475 38.7783 94.1042 38.8017 93.5909 38.825C93.1009 38.825 92.7275 38.8367 92.4709 38.86V36.2C94.0809 36.2 95.3175 36.0833 96.1809 35.85C97.0675 35.6167 97.6275 35.3833 97.8609 35.15H99.7509V47.365C99.7509 47.6917 99.7392 48.1583 99.7159 48.765C99.6925 49.3483 99.6575 49.9083 99.6109 50.445C99.9842 50.3983 100.393 50.375 100.836 50.375C101.303 50.3517 101.653 50.34 101.886 50.34V53H92.7159V50.725ZM97.0909 32.385C96.2975 32.385 95.6442 32.105 95.1309 31.545C94.6175 30.985 94.3609 30.3083 94.3609 29.515C94.3609 28.7217 94.6292 28.045 95.1659 27.485C95.7025 26.925 96.3325 26.645 97.0559 26.645C97.8025 26.645 98.4209 26.925 98.9109 27.485C99.4242 28.045 99.6809 28.7217 99.6809 29.515C99.6809 30.3083 99.4475 30.985 98.9809 31.545C98.5142 32.105 97.8842 32.385 97.0909 32.385ZM103.466 53V50.725C104.423 50.725 105.006 50.445 105.216 49.885C105.426 49.3017 105.531 48.5433 105.531 47.61V41.73C105.531 41.31 105.543 40.8433 105.566 40.33C105.589 39.7933 105.624 39.2683 105.671 38.755C105.298 38.7783 104.854 38.8017 104.341 38.825C103.851 38.825 103.478 38.8367 103.221 38.86V36.2C104.831 36.2 106.068 36.0833 106.931 35.85C107.818 35.6167 108.378 35.3833 108.611 35.15H110.326C110.373 35.4533 110.396 35.675 110.396 35.815C110.396 35.955 110.396 36.095 110.396 36.235C110.419 36.3517 110.466 36.5733 110.536 36.9C111.003 36.5267 111.539 36.2 112.146 35.92C112.753 35.6167 113.359 35.3833 113.966 35.22C114.573 35.0333 115.109 34.94 115.576 34.94C117.723 34.94 119.239 35.5583 120.126 36.795C121.036 38.0083 121.491 39.9683 121.491 42.675V47.365C121.491 47.6917 121.479 48.1583 121.456 48.765C121.433 49.3483 121.398 49.9083 121.351 50.445C121.748 50.3983 122.168 50.375 122.611 50.375C123.054 50.3517 123.393 50.34 123.626 50.34V53H114.456V50.725C115.436 50.725 116.031 50.445 116.241 49.885C116.451 49.3017 116.556 48.5433 116.556 47.61L116.521 42.64C116.521 41.1233 116.299 40.0033 115.856 39.28C115.436 38.5333 114.713 38.16 113.686 38.16C113.103 38.16 112.519 38.2883 111.936 38.545C111.376 38.8017 110.898 39.105 110.501 39.455V47.365C110.501 47.6917 110.489 48.1583 110.466 48.765C110.443 49.3483 110.408 49.9083 110.361 50.445C110.734 50.3983 111.143 50.375 111.586 50.375C112.053 50.3517 112.403 50.34 112.636 50.34V53H103.466ZM132.542 62.485C130.535 62.485 128.949 62.2633 127.782 61.82C126.615 61.4 125.787 60.84 125.297 60.14C124.807 59.44 124.562 58.6933 124.562 57.9C124.562 57.1767 124.795 56.4417 125.262 55.695C125.752 54.9483 126.627 54.3417 127.887 53.875C126.93 53.6183 126.254 53.21 125.857 52.65C125.484 52.0667 125.297 51.4483 125.297 50.795C125.297 50.1883 125.542 49.5117 126.032 48.765C126.522 47.995 127.409 47.4117 128.692 47.015C127.712 46.6183 126.907 46 126.277 45.16C125.647 44.32 125.309 43.305 125.262 42.115C125.215 40.715 125.565 39.4783 126.312 38.405C127.059 37.3083 128.039 36.4567 129.252 35.85C130.465 35.2433 131.737 34.94 133.067 34.94C133.674 34.94 134.374 35.0217 135.167 35.185C135.96 35.3483 136.649 35.6283 137.232 36.025C137.489 35.3017 137.815 34.625 138.212 33.995C138.632 33.3417 139.134 32.8167 139.717 32.42C140.3 32 140.954 31.79 141.677 31.79C142.47 31.79 143.065 32 143.462 32.42C143.882 32.8167 144.092 33.3533 144.092 34.03C144.092 34.31 144.022 34.625 143.882 34.975C143.765 35.3017 143.544 35.5817 143.217 35.815C142.914 36.0483 142.482 36.165 141.922 36.165C141.572 36.165 141.222 36.0367 140.872 35.78C140.522 35.5 140.312 35.1733 140.242 34.8C139.939 34.8933 139.635 35.1967 139.332 35.71C139.029 36.2233 138.854 36.6783 138.807 37.075C140.184 38.265 140.872 39.77 140.872 41.59C140.872 42.9433 140.487 44.145 139.717 45.195C138.97 46.2217 137.99 47.0383 136.777 47.645C135.587 48.2283 134.304 48.52 132.927 48.52C132.624 48.52 132.285 48.5083 131.912 48.485C131.539 48.4383 131.177 48.415 130.827 48.415C130.314 48.415 129.882 48.5083 129.532 48.695C129.182 48.8817 129.007 49.1383 129.007 49.465C129.007 49.9083 129.345 50.2117 130.022 50.375C130.699 50.5383 131.854 50.6667 133.487 50.76C135.284 50.8533 136.847 51.0867 138.177 51.46C139.53 51.81 140.58 52.37 141.327 53.14C142.074 53.91 142.447 54.9717 142.447 56.325C142.447 57.3283 142.155 58.2033 141.572 58.95C140.989 59.72 140.207 60.3617 139.227 60.875C138.27 61.4117 137.209 61.8083 136.042 62.065C134.875 62.345 133.709 62.485 132.542 62.485ZM133.067 46.175C133.697 46.175 134.222 45.9767 134.642 45.58C135.085 45.1833 135.412 44.6817 135.622 44.075C135.855 43.4683 135.972 42.85 135.972 42.22C135.972 41.4033 135.867 40.6217 135.657 39.875C135.447 39.105 135.12 38.4867 134.677 38.02C134.257 37.53 133.709 37.285 133.032 37.285C132.099 37.285 131.375 37.705 130.862 38.545C130.349 39.385 130.092 40.3417 130.092 41.415C130.092 42.2317 130.209 43.0133 130.442 43.76C130.675 44.4833 131.014 45.0667 131.457 45.51C131.9 45.9533 132.437 46.175 133.067 46.175ZM133.557 60.07C135.214 60.07 136.462 59.7667 137.302 59.16C138.165 58.5533 138.597 57.9233 138.597 57.27C138.597 55.87 136.917 55.1 133.557 54.96C133.044 54.9133 132.449 54.8783 131.772 54.855C131.095 54.8317 130.5 54.7733 129.987 54.68C129.637 54.96 129.369 55.31 129.182 55.73C128.995 56.15 128.89 56.5583 128.867 56.955C128.82 57.8883 129.217 58.635 130.057 59.195C130.92 59.7783 132.087 60.07 133.557 60.07ZM11.5074 71.89L8.56738 71.505V70L14.2724 69.335H14.3424L15.1124 69.86V77.98L14.9724 80.955C15.719 80.2783 16.7457 79.6367 18.0524 79.03C19.359 78.4233 20.6774 78.12 22.0074 78.12C23.4774 78.12 24.6207 78.4 25.4374 78.96C26.254 79.52 26.8257 80.3833 27.1524 81.55C27.479 82.6933 27.6424 84.245 27.6424 86.205V95.97L30.0924 96.285V98H21.7274V96.285L24.0024 95.97V86.17C24.0024 84.7933 23.909 83.72 23.7224 82.95C23.5357 82.1567 23.1857 81.5733 22.6724 81.2C22.159 80.8033 21.389 80.605 20.3624 80.605C19.5224 80.605 18.624 80.815 17.6674 81.235C16.7107 81.655 15.8707 82.145 15.1474 82.705V95.97L17.5624 96.285V98H9.40738V96.285L11.5074 96.005V71.89ZM31.9887 92.75C31.9887 90.5567 33.0853 88.9467 35.2787 87.92C37.472 86.87 40.2487 86.31 43.6087 86.24V85.26C43.6087 84.1633 43.492 83.3 43.2587 82.67C43.0253 82.04 42.617 81.585 42.0337 81.305C41.4737 81.0017 40.6687 80.85 39.6187 80.85C38.4287 80.85 37.3553 81.025 36.3987 81.375C35.4653 81.7017 34.532 82.11 33.5987 82.6L32.7237 80.78C33.027 80.5233 33.587 80.185 34.4037 79.765C35.2203 79.345 36.1653 78.9717 37.2387 78.645C38.312 78.3183 39.3853 78.155 40.4587 78.155C42.1153 78.155 43.422 78.3883 44.3787 78.855C45.3587 79.2983 46.0587 80.0217 46.4787 81.025C46.8987 82.0283 47.1087 83.37 47.1087 85.05V96.285H49.1737V97.825C48.707 97.9417 48.112 98.0583 47.3887 98.175C46.6887 98.2917 46.0703 98.35 45.5337 98.35C44.8803 98.35 44.437 98.245 44.2037 98.035C43.9703 97.8483 43.8537 97.4167 43.8537 96.74V95.585C43.1537 96.285 42.2903 96.9267 41.2637 97.51C40.2603 98.0933 39.117 98.385 37.8337 98.385C36.1537 98.385 34.7537 97.9067 33.6337 96.95C32.537 95.97 31.9887 94.57 31.9887 92.75ZM39.3387 96.005C39.9453 96.005 40.6453 95.8183 41.4387 95.445C42.232 95.0717 42.9553 94.6283 43.6087 94.115V88.095C41.0653 88.095 39.1403 88.4917 37.8337 89.285C36.5503 90.055 35.9087 91.07 35.9087 92.33C35.9087 93.59 36.212 94.5233 36.8187 95.13C37.4487 95.7133 38.2887 96.005 39.3387 96.005ZM50.9778 96.285L53.6028 96.075V81.27L51.0828 80.64V78.75L55.9128 78.12H55.9828L56.7528 78.75V79.38L56.6478 82.11H56.7528C56.9861 81.7133 57.4061 81.2 58.0128 80.57C58.6195 79.94 59.4011 79.3683 60.3578 78.855C61.3145 78.3183 62.3528 78.05 63.4728 78.05C63.9395 78.05 64.3245 78.1083 64.6278 78.225V82.145C64.4645 82.0283 64.1961 81.9233 63.8228 81.83C63.4728 81.7133 63.0761 81.655 62.6328 81.655C60.6961 81.655 58.8995 82.25 57.2428 83.44V96.04L61.6878 96.32V98H50.9778V96.285ZM66.2031 96.285L68.3381 95.97V81.27L65.8181 80.64V78.75L70.8231 78.12L71.4531 78.575L71.6631 79.975L71.6281 81.095C72.4448 80.3483 73.5531 79.6717 74.9531 79.065C76.3764 78.435 77.6481 78.12 78.7681 78.12C80.0281 78.12 81.0431 78.33 81.8131 78.75C82.5831 79.17 83.1664 79.8233 83.5631 80.71C84.3098 80.08 85.3481 79.4967 86.6781 78.96C88.0314 78.4 89.2914 78.12 90.4581 78.12C91.9048 78.12 93.0364 78.4 93.8531 78.96C94.6698 79.4967 95.2414 80.3483 95.5681 81.515C95.9181 82.6583 96.0931 84.1983 96.0931 86.135V95.97L98.6131 96.285V98H90.2831V96.285L92.4531 95.97V86.24C92.4531 84.8867 92.3481 83.8133 92.1381 83.02C91.9514 82.2033 91.5781 81.5967 91.0181 81.2C90.4814 80.8033 89.6998 80.605 88.6731 80.605C87.9031 80.605 87.0864 80.78 86.2231 81.13C85.3598 81.4567 84.6248 81.8533 84.0181 82.32C84.2281 83.23 84.3331 84.525 84.3331 86.205V95.97L86.8181 96.285V98H78.3481V96.285L80.6581 95.97V86.17C80.6581 84.77 80.5648 83.685 80.3781 82.915C80.2148 82.145 79.8881 81.5733 79.3981 81.2C78.9081 80.8033 78.1614 80.605 77.1581 80.605C76.3181 80.605 75.4198 80.815 74.4631 81.235C73.5298 81.655 72.7131 82.145 72.0131 82.705V95.97L74.3581 96.285V98H66.2031V96.285ZM100.367 88.235C100.367 86.135 100.799 84.315 101.662 82.775C102.526 81.235 103.657 80.0683 105.057 79.275C106.481 78.4583 107.997 78.05 109.607 78.05C112.547 78.05 114.752 78.9833 116.222 80.85C117.716 82.7167 118.462 85.1667 118.462 88.2C118.462 90.3233 118.031 92.155 117.167 93.695C116.304 95.235 115.161 96.4017 113.737 97.195C112.337 97.9883 110.832 98.385 109.222 98.385C106.282 98.385 104.066 97.4517 102.572 95.585C101.102 93.7183 100.367 91.2683 100.367 88.235ZM109.432 96.39C111.042 96.39 112.279 95.725 113.142 94.395C114.006 93.065 114.437 91.0933 114.437 88.48C114.437 85.89 114.041 83.8367 113.247 82.32C112.454 80.8033 111.182 80.045 109.432 80.045C107.822 80.045 106.574 80.71 105.687 82.04C104.824 83.37 104.392 85.3417 104.392 87.955C104.392 90.545 104.801 92.5983 105.617 94.115C106.434 95.6317 107.706 96.39 109.432 96.39ZM123.061 81.27L120.541 80.64V78.75L125.546 78.12H125.651L126.386 78.75V80.22L126.351 81.06C127.191 80.3133 128.299 79.6367 129.676 79.03C131.053 78.4233 132.371 78.12 133.631 78.12C135.101 78.12 136.233 78.4 137.026 78.96C137.843 79.52 138.414 80.3833 138.741 81.55C139.068 82.6933 139.231 84.245 139.231 86.205V96.005L141.681 96.25V98H133.386V96.285L135.556 96.005V86.17C135.556 84.7933 135.463 83.72 135.276 82.95C135.089 82.1567 134.739 81.5733 134.226 81.2C133.713 80.8033 132.966 80.605 131.986 80.605C131.146 80.605 130.248 80.815 129.291 81.235C128.334 81.655 127.483 82.145 126.736 82.705V95.97L129.116 96.285V98H120.856V96.285L123.061 95.97V81.27ZM146.338 106.715C145.942 106.715 145.545 106.692 145.148 106.645C144.775 106.598 144.507 106.528 144.343 106.435V103.39C144.483 103.483 144.752 103.553 145.148 103.6C145.568 103.647 145.965 103.67 146.338 103.67C147.458 103.67 148.438 103.273 149.278 102.48C150.142 101.71 150.97 100.217 151.763 98H150.083L143.433 80.675L141.823 80.22V78.575H150.258V80.22L147.563 80.64L150.993 90.965L152.603 96.075L154.108 90.93L157.223 80.64L154.878 80.22V78.575H161.913V80.22L160.163 80.64C156.733 91.14 154.715 97.1017 154.108 98.525C153.315 100.532 152.592 102.095 151.938 103.215C151.285 104.358 150.515 105.222 149.628 105.805C148.742 106.412 147.645 106.715 146.338 106.715Z" fill="#2A2921"/>
</svg>
