<svg width="169" height="136" viewBox="0 0 169 136" fill="none" xmlns="http://www.w3.org/2000/svg">
<path d="M27.7843 34.59H32.6143V38.79H27.9243V53H22.4643V38.79H19.5593V34.59H22.4643V33.75C22.4643 31.6033 23.0943 29.9 24.3543 28.64C25.6376 27.38 27.4343 26.75 29.7443 26.75C30.561 26.75 31.331 26.8433 32.0543 27.03C32.801 27.1933 33.4193 27.4383 33.9093 27.765L32.4743 31.72C31.8443 31.2767 31.1093 31.055 30.2693 31.055C28.6126 31.055 27.7843 31.965 27.7843 33.785V34.59ZM38.1443 34.17H43.6043V53H38.1443V34.17ZM40.8743 31.545C39.871 31.545 39.0543 31.2533 38.4243 30.67C37.7943 30.0867 37.4793 29.3633 37.4793 28.5C37.4793 27.6367 37.7943 26.9133 38.4243 26.33C39.0543 25.7467 39.871 25.455 40.8743 25.455C41.8776 25.455 42.6943 25.735 43.3243 26.295C43.9543 26.855 44.2693 27.555 44.2693 28.395C44.2693 29.305 43.9543 30.0633 43.3243 30.67C42.6943 31.2533 41.8776 31.545 40.8743 31.545ZM59.4095 33.89C61.7429 33.89 63.6212 34.59 65.0445 35.99C66.4912 37.39 67.2145 39.4667 67.2145 42.22V53H61.7545V43.06C61.7545 41.5667 61.4279 40.4583 60.7745 39.735C60.1212 38.9883 59.1762 38.615 57.9395 38.615C56.5629 38.615 55.4662 39.0467 54.6495 39.91C53.8329 40.75 53.4245 42.01 53.4245 43.69V53H47.9645V34.17H53.1795V36.375C53.9029 35.5817 54.8012 34.975 55.8745 34.555C56.9479 34.1117 58.1262 33.89 59.4095 33.89ZM90.8488 27.03V53H85.6338V50.83C84.2805 52.4633 82.3205 53.28 79.7538 53.28C77.9805 53.28 76.3705 52.8833 74.9238 52.09C73.5005 51.2967 72.3805 50.165 71.5638 48.695C70.7472 47.225 70.3388 45.5217 70.3388 43.585C70.3388 41.6483 70.7472 39.945 71.5638 38.475C72.3805 37.005 73.5005 35.8733 74.9238 35.08C76.3705 34.2867 77.9805 33.89 79.7538 33.89C82.1572 33.89 84.0355 34.6483 85.3888 36.165V27.03H90.8488ZM80.6988 48.8C82.0755 48.8 83.2188 48.3333 84.1288 47.4C85.0388 46.4433 85.4938 45.1717 85.4938 43.585C85.4938 41.9983 85.0388 40.7383 84.1288 39.805C83.2188 38.8483 82.0755 38.37 80.6988 38.37C79.2988 38.37 78.1438 38.8483 77.2338 39.805C76.3238 40.7383 75.8688 41.9983 75.8688 43.585C75.8688 45.1717 76.3238 46.4433 77.2338 47.4C78.1438 48.3333 79.2988 48.8 80.6988 48.8ZM95.2022 34.17H100.662V53H95.2022V34.17ZM97.9322 31.545C96.9289 31.545 96.1122 31.2533 95.4822 30.67C94.8522 30.0867 94.5372 29.3633 94.5372 28.5C94.5372 27.6367 94.8522 26.9133 95.4822 26.33C96.1122 25.7467 96.9289 25.455 97.9322 25.455C98.9356 25.455 99.7522 25.735 100.382 26.295C101.012 26.855 101.327 27.555 101.327 28.395C101.327 29.305 101.012 30.0633 100.382 30.67C99.7522 31.2533 98.9356 31.545 97.9322 31.545ZM116.475 33.89C118.808 33.89 120.686 34.59 122.11 35.99C123.556 37.39 124.28 39.4667 124.28 42.22V53H118.82V43.06C118.82 41.5667 118.493 40.4583 117.84 39.735C117.186 38.9883 116.241 38.615 115.005 38.615C113.628 38.615 112.531 39.0467 111.715 39.91C110.898 40.75 110.49 42.01 110.49 43.69V53H105.03V34.17H110.245V36.375C110.968 35.5817 111.866 34.975 112.94 34.555C114.013 34.1117 115.191 33.89 116.475 33.89ZM148.159 34.17V49.85C148.159 53.3033 147.261 55.87 145.464 57.55C143.667 59.23 141.042 60.07 137.589 60.07C135.769 60.07 134.042 59.8483 132.409 59.405C130.776 58.9617 129.422 58.32 128.349 57.48L130.519 53.56C131.312 54.2133 132.316 54.7267 133.529 55.1C134.742 55.4967 135.956 55.695 137.169 55.695C139.059 55.695 140.447 55.2633 141.334 54.4C142.244 53.56 142.699 52.2767 142.699 50.55V49.745C141.276 51.3083 139.292 52.09 136.749 52.09C135.022 52.09 133.436 51.7167 131.989 50.97C130.566 50.2 129.434 49.1267 128.594 47.75C127.754 46.3733 127.334 44.7867 127.334 42.99C127.334 41.1933 127.754 39.6067 128.594 38.23C129.434 36.8533 130.566 35.7917 131.989 35.045C133.436 34.275 135.022 33.89 136.749 33.89C139.479 33.89 141.556 34.7883 142.979 36.585V34.17H148.159ZM137.834 47.61C139.281 47.61 140.459 47.19 141.369 46.35C142.302 45.4867 142.769 44.3667 142.769 42.99C142.769 41.6133 142.302 40.505 141.369 39.665C140.459 38.8017 139.281 38.37 137.834 38.37C136.387 38.37 135.197 38.8017 134.264 39.665C133.331 40.505 132.864 41.6133 132.864 42.99C132.864 44.3667 133.331 45.4867 134.264 46.35C135.197 47.19 136.387 47.61 137.834 47.61ZM23.8323 98V73.08H26.7023V79.87L26.5973 83.37C27.414 82.6 28.2656 81.9467 29.1523 81.41C30.039 80.85 31.0773 80.57 32.2673 80.57C34.064 80.57 35.3706 81.13 36.1873 82.25C37.0273 83.37 37.4473 85.0267 37.4473 87.22V98H34.5773V87.605C34.5773 85.995 34.3206 84.84 33.8073 84.14C33.294 83.4167 32.4773 83.055 31.3573 83.055C30.4706 83.055 29.689 83.2767 29.0123 83.72C28.3356 84.1633 27.5656 84.8167 26.7023 85.68V98H23.8323ZM46.0904 98.42C44.6671 98.42 43.4771 98 42.5204 97.16C41.5871 96.32 41.1204 95.13 41.1204 93.59C41.1204 91.7233 41.9487 90.3 43.6054 89.32C45.2621 88.3167 47.9104 87.6167 51.5504 87.22C51.5504 86.6833 51.4921 86.1583 51.3754 85.645C51.2821 85.1317 51.1071 84.6767 50.8504 84.28C50.5937 83.8833 50.2321 83.5683 49.7654 83.335C49.3221 83.0783 48.7504 82.95 48.0504 82.95C47.0704 82.95 46.1487 83.1367 45.2854 83.51C44.4221 83.8833 43.6521 84.3033 42.9754 84.77L41.8554 82.775C42.6487 82.2617 43.6171 81.7717 44.7604 81.305C45.9037 80.815 47.1637 80.57 48.5404 80.57C50.6171 80.57 52.1221 81.2117 53.0554 82.495C53.9887 83.755 54.4554 85.4467 54.4554 87.57V98H52.0754L51.8304 95.97H51.7254C50.9087 96.6467 50.0337 97.23 49.1004 97.72C48.1671 98.1867 47.1637 98.42 46.0904 98.42ZM46.9304 96.11C47.7471 96.11 48.5171 95.9233 49.2404 95.55C49.9637 95.1533 50.7337 94.5817 51.5504 93.835V89.11C50.1271 89.2967 48.9254 89.5183 47.9454 89.775C46.9887 90.0317 46.2071 90.335 45.6004 90.685C45.0171 91.035 44.5854 91.4433 44.3054 91.91C44.0487 92.3533 43.9204 92.8433 43.9204 93.38C43.9204 94.36 44.2121 95.06 44.7954 95.48C45.3787 95.9 46.0904 96.11 46.9304 96.11ZM59.1071 98V80.99H61.4871L61.7321 84.07H61.8371C62.4204 82.9967 63.1204 82.145 63.9371 81.515C64.7771 80.885 65.6871 80.57 66.6671 80.57C67.3438 80.57 67.9504 80.6867 68.4871 80.92L67.9271 83.44C67.6471 83.3467 67.3904 83.2767 67.1571 83.23C66.9238 83.1833 66.6321 83.16 66.2821 83.16C65.5588 83.16 64.8004 83.4517 64.0071 84.035C63.2371 84.6183 62.5604 85.6333 61.9771 87.08V98H59.1071ZM70.5409 98V80.99H72.9209L73.1659 83.44H73.2709C74.0176 82.6233 74.8226 81.9467 75.6859 81.41C76.5726 80.85 77.5292 80.57 78.5559 80.57C79.8626 80.57 80.8776 80.8617 81.6009 81.445C82.3476 82.005 82.8959 82.7983 83.2459 83.825C84.1326 82.845 85.0192 82.0633 85.9059 81.48C86.8159 80.8733 87.7959 80.57 88.8459 80.57C90.5959 80.57 91.8909 81.13 92.7309 82.25C93.5942 83.37 94.0259 85.0267 94.0259 87.22V98H91.1559V87.605C91.1559 85.995 90.8992 84.84 90.3859 84.14C89.8726 83.4167 89.0792 83.055 88.0059 83.055C86.7226 83.055 85.2992 83.93 83.7359 85.68V98H80.8659V87.605C80.8659 85.995 80.6092 84.84 80.0959 84.14C79.5826 83.4167 78.7776 83.055 77.6809 83.055C76.3976 83.055 74.9742 83.93 73.4109 85.68V98H70.5409ZM105.474 98.42C104.424 98.42 103.421 98.2217 102.464 97.825C101.531 97.4283 100.703 96.8567 99.9794 96.11C99.2561 95.34 98.6728 94.4067 98.2294 93.31C97.8094 92.19 97.5994 90.93 97.5994 89.53C97.5994 88.1067 97.8094 86.8467 98.2294 85.75C98.6728 84.63 99.2561 83.685 99.9794 82.915C100.703 82.145 101.531 81.5617 102.464 81.165C103.421 80.7683 104.424 80.57 105.474 80.57C106.524 80.57 107.516 80.7683 108.449 81.165C109.406 81.5617 110.246 82.145 110.969 82.915C111.693 83.685 112.264 84.63 112.684 85.75C113.128 86.8467 113.349 88.1067 113.349 89.53C113.349 90.93 113.128 92.19 112.684 93.31C112.264 94.4067 111.693 95.34 110.969 96.11C110.246 96.8567 109.406 97.4283 108.449 97.825C107.516 98.2217 106.524 98.42 105.474 98.42ZM105.474 96.04C106.198 96.04 106.863 95.8883 107.469 95.585C108.076 95.2583 108.589 94.815 109.009 94.255C109.453 93.6717 109.791 92.9833 110.024 92.19C110.258 91.3967 110.374 90.51 110.374 89.53C110.374 88.55 110.258 87.6633 110.024 86.87C109.791 86.0533 109.453 85.3533 109.009 84.77C108.589 84.1867 108.076 83.7433 107.469 83.44C106.863 83.1133 106.198 82.95 105.474 82.95C104.751 82.95 104.086 83.1133 103.479 83.44C102.873 83.7433 102.348 84.1867 101.904 84.77C101.484 85.3533 101.158 86.0533 100.924 86.87C100.691 87.6633 100.574 88.55 100.574 89.53C100.574 90.51 100.691 91.3967 100.924 92.19C101.158 92.9833 101.484 93.6717 101.904 94.255C102.348 94.815 102.873 95.2583 103.479 95.585C104.086 95.8883 104.751 96.04 105.474 96.04ZM117.129 98V80.99H119.509L119.754 83.44H119.859C120.676 82.6233 121.528 81.9467 122.414 81.41C123.324 80.85 124.374 80.57 125.564 80.57C127.361 80.57 128.668 81.13 129.484 82.25C130.324 83.37 130.744 85.0267 130.744 87.22V98H127.874V87.605C127.874 85.995 127.618 84.84 127.104 84.14C126.591 83.4167 125.774 83.055 124.654 83.055C123.768 83.055 122.986 83.2767 122.309 83.72C121.633 84.1633 120.863 84.8167 119.999 85.68V98H117.129ZM135.85 105.315C135.453 105.315 135.091 105.28 134.765 105.21C134.438 105.163 134.135 105.082 133.855 104.965L134.415 102.69C134.601 102.737 134.811 102.783 135.045 102.83C135.278 102.9 135.5 102.935 135.71 102.935C136.69 102.935 137.483 102.585 138.09 101.885C138.72 101.208 139.21 100.345 139.56 99.295L139.945 98.035L133.12 80.99H136.095L139.56 90.405C139.816 91.1517 140.085 91.945 140.365 92.785C140.668 93.6017 140.948 94.4067 141.205 95.2H141.345C141.601 94.43 141.846 93.625 142.08 92.785C142.313 91.945 142.546 91.1517 142.78 90.405L145.825 80.99H148.625L142.22 99.4C141.916 100.24 141.578 101.022 141.205 101.745C140.831 102.468 140.388 103.087 139.875 103.6C139.361 104.137 138.778 104.557 138.125 104.86C137.471 105.163 136.713 105.315 135.85 105.315Z" fill="#2A2921"/>
</svg>
