<svg width="169" height="136" viewBox="0 0 169 136" fill="none" xmlns="http://www.w3.org/2000/svg">
<path d="M27.7843 34.59H32.6143V38.79H27.9243V53H22.4643V38.79H19.5593V34.59H22.4643V33.75C22.4643 31.6033 23.0943 29.9 24.3543 28.64C25.6376 27.38 27.4343 26.75 29.7443 26.75C30.561 26.75 31.331 26.8433 32.0543 27.03C32.801 27.1933 33.4193 27.4383 33.9093 27.765L32.4743 31.72C31.8443 31.2767 31.1093 31.055 30.2693 31.055C28.6126 31.055 27.7843 31.965 27.7843 33.785V34.59ZM38.1443 34.17H43.6043V53H38.1443V34.17ZM40.8743 31.545C39.871 31.545 39.0543 31.2533 38.4243 30.67C37.7943 30.0867 37.4793 29.3633 37.4793 28.5C37.4793 27.6367 37.7943 26.9133 38.4243 26.33C39.0543 25.7467 39.871 25.455 40.8743 25.455C41.8776 25.455 42.6943 25.735 43.3243 26.295C43.9543 26.855 44.2693 27.555 44.2693 28.395C44.2693 29.305 43.9543 30.0633 43.3243 30.67C42.6943 31.2533 41.8776 31.545 40.8743 31.545ZM59.4095 33.89C61.7429 33.89 63.6212 34.59 65.0445 35.99C66.4912 37.39 67.2145 39.4667 67.2145 42.22V53H61.7545V43.06C61.7545 41.5667 61.4279 40.4583 60.7745 39.735C60.1212 38.9883 59.1762 38.615 57.9395 38.615C56.5629 38.615 55.4662 39.0467 54.6495 39.91C53.8329 40.75 53.4245 42.01 53.4245 43.69V53H47.9645V34.17H53.1795V36.375C53.9029 35.5817 54.8012 34.975 55.8745 34.555C56.9479 34.1117 58.1262 33.89 59.4095 33.89ZM90.8488 27.03V53H85.6338V50.83C84.2805 52.4633 82.3205 53.28 79.7538 53.28C77.9805 53.28 76.3705 52.8833 74.9238 52.09C73.5005 51.2967 72.3805 50.165 71.5638 48.695C70.7472 47.225 70.3388 45.5217 70.3388 43.585C70.3388 41.6483 70.7472 39.945 71.5638 38.475C72.3805 37.005 73.5005 35.8733 74.9238 35.08C76.3705 34.2867 77.9805 33.89 79.7538 33.89C82.1572 33.89 84.0355 34.6483 85.3888 36.165V27.03H90.8488ZM80.6988 48.8C82.0755 48.8 83.2188 48.3333 84.1288 47.4C85.0388 46.4433 85.4938 45.1717 85.4938 43.585C85.4938 41.9983 85.0388 40.7383 84.1288 39.805C83.2188 38.8483 82.0755 38.37 80.6988 38.37C79.2988 38.37 78.1438 38.8483 77.2338 39.805C76.3238 40.7383 75.8688 41.9983 75.8688 43.585C75.8688 45.1717 76.3238 46.4433 77.2338 47.4C78.1438 48.3333 79.2988 48.8 80.6988 48.8ZM95.2022 34.17H100.662V53H95.2022V34.17ZM97.9322 31.545C96.9289 31.545 96.1122 31.2533 95.4822 30.67C94.8522 30.0867 94.5372 29.3633 94.5372 28.5C94.5372 27.6367 94.8522 26.9133 95.4822 26.33C96.1122 25.7467 96.9289 25.455 97.9322 25.455C98.9356 25.455 99.7522 25.735 100.382 26.295C101.012 26.855 101.327 27.555 101.327 28.395C101.327 29.305 101.012 30.0633 100.382 30.67C99.7522 31.2533 98.9356 31.545 97.9322 31.545ZM116.475 33.89C118.808 33.89 120.686 34.59 122.11 35.99C123.556 37.39 124.28 39.4667 124.28 42.22V53H118.82V43.06C118.82 41.5667 118.493 40.4583 117.84 39.735C117.186 38.9883 116.241 38.615 115.005 38.615C113.628 38.615 112.531 39.0467 111.715 39.91C110.898 40.75 110.49 42.01 110.49 43.69V53H105.03V34.17H110.245V36.375C110.968 35.5817 111.866 34.975 112.94 34.555C114.013 34.1117 115.191 33.89 116.475 33.89ZM148.159 34.17V49.85C148.159 53.3033 147.261 55.87 145.464 57.55C143.667 59.23 141.042 60.07 137.589 60.07C135.769 60.07 134.042 59.8483 132.409 59.405C130.776 58.9617 129.422 58.32 128.349 57.48L130.519 53.56C131.312 54.2133 132.316 54.7267 133.529 55.1C134.742 55.4967 135.956 55.695 137.169 55.695C139.059 55.695 140.447 55.2633 141.334 54.4C142.244 53.56 142.699 52.2767 142.699 50.55V49.745C141.276 51.3083 139.292 52.09 136.749 52.09C135.022 52.09 133.436 51.7167 131.989 50.97C130.566 50.2 129.434 49.1267 128.594 47.75C127.754 46.3733 127.334 44.7867 127.334 42.99C127.334 41.1933 127.754 39.6067 128.594 38.23C129.434 36.8533 130.566 35.7917 131.989 35.045C133.436 34.275 135.022 33.89 136.749 33.89C139.479 33.89 141.556 34.7883 142.979 36.585V34.17H148.159ZM137.834 47.61C139.281 47.61 140.459 47.19 141.369 46.35C142.302 45.4867 142.769 44.3667 142.769 42.99C142.769 41.6133 142.302 40.505 141.369 39.665C140.459 38.8017 139.281 38.37 137.834 38.37C136.387 38.37 135.197 38.8017 134.264 39.665C133.331 40.505 132.864 41.6133 132.864 42.99C132.864 44.3667 133.331 45.4867 134.264 46.35C135.197 47.19 136.387 47.61 137.834 47.61ZM26.384 73.255V83.335C27.434 81.1183 29.3007 80.01 31.984 80.01C33.6874 80.01 35.0524 80.535 36.079 81.585C37.129 82.635 37.654 84.0583 37.654 85.855V98H34.889V86.52C34.889 85.2367 34.5507 84.245 33.874 83.545C33.2207 82.845 32.3574 82.495 31.284 82.495C29.9774 82.495 28.834 82.9967 27.854 84C26.874 85.0033 26.384 86.4383 26.384 88.305V98H23.654V73.255H26.384ZM51.4104 89.81H48.3304C46.8371 89.81 45.7171 90.1017 44.9704 90.685C44.2237 91.2683 43.8504 92.0033 43.8504 92.89C43.8504 93.7767 44.1421 94.5 44.7254 95.06C45.3087 95.5967 46.1604 95.865 47.2804 95.865C48.5404 95.865 49.5437 95.515 50.2904 94.815C51.0371 94.0917 51.4104 93.1817 51.4104 92.085V89.81ZM42.2404 83.965V81.2C43.5704 80.3833 45.3204 79.975 47.4904 79.975C51.9471 79.975 54.1754 82.2383 54.1754 86.765V98H51.4454V95.9C50.5354 97.4167 48.8787 98.175 46.4754 98.175C44.8187 98.175 43.4771 97.685 42.4504 96.705C41.4471 95.725 40.9454 94.4883 40.9454 92.995C40.9454 91.2917 41.5871 89.9733 42.8704 89.04C44.1771 88.0833 45.9504 87.605 48.1904 87.605H51.4104V86.695C51.4104 85.295 51.0954 84.245 50.4654 83.545C49.8354 82.8217 48.7737 82.46 47.2804 82.46C45.3904 82.46 43.7104 82.9617 42.2404 83.965ZM61.112 80.255V83.37C62.0453 81.1767 63.6553 80.08 65.942 80.08C66.362 80.08 66.6886 80.1033 66.922 80.15V82.88C66.432 82.7167 65.9303 82.635 65.417 82.635C64.1803 82.635 63.1536 83.2067 62.337 84.35C61.5203 85.4933 61.112 86.8117 61.112 88.305V98H58.347L58.382 80.255H61.112ZM71.828 80.255V83.125C72.808 81.0483 74.4763 80.01 76.833 80.01C79.563 80.01 81.2896 81.165 82.013 83.475C82.5263 82.355 83.238 81.5033 84.148 80.92C85.0813 80.3133 86.1196 80.01 87.263 80.01C89.1063 80.01 90.4946 80.535 91.428 81.585C92.3613 82.635 92.828 84.0467 92.828 85.82V98H90.063V86.52C90.063 83.8367 88.9313 82.495 86.668 82.495C85.548 82.495 84.5446 83.0083 83.658 84.035C82.7713 85.0383 82.328 86.4617 82.328 88.305V98H79.563V86.52C79.563 83.8367 78.4313 82.495 76.168 82.495C75.048 82.495 74.0446 83.0083 73.158 84.035C72.2713 85.0383 71.828 86.4617 71.828 88.305V98H69.098V80.255H71.828ZM104.251 98.315C101.707 98.315 99.6889 97.4633 98.1955 95.76C96.7255 94.0333 95.9905 91.8633 95.9905 89.25C95.9905 86.6133 96.7489 84.42 98.2655 82.67C99.8055 80.8967 101.801 80.01 104.251 80.01C106.934 80.01 108.999 80.8733 110.446 82.6C111.916 84.3267 112.651 86.52 112.651 89.18C112.651 91.8167 111.904 93.9983 110.411 95.725C108.917 97.4517 106.864 98.315 104.251 98.315ZM104.251 82.46C102.571 82.46 101.252 83.1133 100.296 84.42C99.3389 85.7267 98.8605 87.325 98.8605 89.215C98.8605 91.0583 99.3505 92.6333 100.331 93.94C101.311 95.2233 102.617 95.865 104.251 95.865C106.024 95.865 107.389 95.235 108.346 93.975C109.302 92.6917 109.781 91.105 109.781 89.215C109.781 87.255 109.326 85.645 108.416 84.385C107.506 83.1017 106.117 82.46 104.251 82.46ZM118.724 80.255V83.335C119.774 81.1183 121.641 80.01 124.324 80.01C126.051 80.01 127.427 80.535 128.454 81.585C129.481 82.635 129.994 84.035 129.994 85.785V98H127.229V86.52C127.229 85.2133 126.891 84.2217 126.214 83.545C125.561 82.845 124.697 82.495 123.624 82.495C122.294 82.495 121.139 83.0083 120.159 84.035C119.202 85.0617 118.724 86.485 118.724 88.305V98H115.994V80.255H118.724ZM139.095 97.545L131.92 80.255H135.035L137.345 86.1L140.46 94.15C140.647 93.5433 141.58 90.86 143.26 86.1L145.325 80.255H148.3L141.895 97.545C140.985 99.9483 139.9 101.64 138.64 102.62C137.404 103.6 135.98 104.09 134.37 104.09C133.764 104.09 133.274 104.032 132.9 103.915V101.43C133.25 101.523 133.647 101.57 134.09 101.57C136.447 101.57 138.115 100.228 139.095 97.545Z" fill="#2A2921"/>
</svg>
