<svg width="169" height="136" viewBox="0 0 169 136" fill="none" xmlns="http://www.w3.org/2000/svg">
<path d="M27.7843 34.59H32.6143V38.79H27.9243V53H22.4643V38.79H19.5593V34.59H22.4643V33.75C22.4643 31.6033 23.0943 29.9 24.3543 28.64C25.6376 27.38 27.4343 26.75 29.7443 26.75C30.561 26.75 31.331 26.8433 32.0543 27.03C32.801 27.1933 33.4193 27.4383 33.9093 27.765L32.4743 31.72C31.8443 31.2767 31.1093 31.055 30.2693 31.055C28.6126 31.055 27.7843 31.965 27.7843 33.785V34.59ZM38.1443 34.17H43.6043V53H38.1443V34.17ZM40.8743 31.545C39.871 31.545 39.0543 31.2533 38.4243 30.67C37.7943 30.0867 37.4793 29.3633 37.4793 28.5C37.4793 27.6367 37.7943 26.9133 38.4243 26.33C39.0543 25.7467 39.871 25.455 40.8743 25.455C41.8776 25.455 42.6943 25.735 43.3243 26.295C43.9543 26.855 44.2693 27.555 44.2693 28.395C44.2693 29.305 43.9543 30.0633 43.3243 30.67C42.6943 31.2533 41.8776 31.545 40.8743 31.545ZM59.4095 33.89C61.7429 33.89 63.6212 34.59 65.0445 35.99C66.4912 37.39 67.2145 39.4667 67.2145 42.22V53H61.7545V43.06C61.7545 41.5667 61.4279 40.4583 60.7745 39.735C60.1212 38.9883 59.1762 38.615 57.9395 38.615C56.5629 38.615 55.4662 39.0467 54.6495 39.91C53.8329 40.75 53.4245 42.01 53.4245 43.69V53H47.9645V34.17H53.1795V36.375C53.9029 35.5817 54.8012 34.975 55.8745 34.555C56.9479 34.1117 58.1262 33.89 59.4095 33.89ZM90.8488 27.03V53H85.6338V50.83C84.2805 52.4633 82.3205 53.28 79.7538 53.28C77.9805 53.28 76.3705 52.8833 74.9238 52.09C73.5005 51.2967 72.3805 50.165 71.5638 48.695C70.7472 47.225 70.3388 45.5217 70.3388 43.585C70.3388 41.6483 70.7472 39.945 71.5638 38.475C72.3805 37.005 73.5005 35.8733 74.9238 35.08C76.3705 34.2867 77.9805 33.89 79.7538 33.89C82.1572 33.89 84.0355 34.6483 85.3888 36.165V27.03H90.8488ZM80.6988 48.8C82.0755 48.8 83.2188 48.3333 84.1288 47.4C85.0388 46.4433 85.4938 45.1717 85.4938 43.585C85.4938 41.9983 85.0388 40.7383 84.1288 39.805C83.2188 38.8483 82.0755 38.37 80.6988 38.37C79.2988 38.37 78.1438 38.8483 77.2338 39.805C76.3238 40.7383 75.8688 41.9983 75.8688 43.585C75.8688 45.1717 76.3238 46.4433 77.2338 47.4C78.1438 48.3333 79.2988 48.8 80.6988 48.8ZM95.2022 34.17H100.662V53H95.2022V34.17ZM97.9322 31.545C96.9289 31.545 96.1122 31.2533 95.4822 30.67C94.8522 30.0867 94.5372 29.3633 94.5372 28.5C94.5372 27.6367 94.8522 26.9133 95.4822 26.33C96.1122 25.7467 96.9289 25.455 97.9322 25.455C98.9356 25.455 99.7522 25.735 100.382 26.295C101.012 26.855 101.327 27.555 101.327 28.395C101.327 29.305 101.012 30.0633 100.382 30.67C99.7522 31.2533 98.9356 31.545 97.9322 31.545ZM116.475 33.89C118.808 33.89 120.686 34.59 122.11 35.99C123.556 37.39 124.28 39.4667 124.28 42.22V53H118.82V43.06C118.82 41.5667 118.493 40.4583 117.84 39.735C117.186 38.9883 116.241 38.615 115.005 38.615C113.628 38.615 112.531 39.0467 111.715 39.91C110.898 40.75 110.49 42.01 110.49 43.69V53H105.03V34.17H110.245V36.375C110.968 35.5817 111.866 34.975 112.94 34.555C114.013 34.1117 115.191 33.89 116.475 33.89ZM148.159 34.17V49.85C148.159 53.3033 147.261 55.87 145.464 57.55C143.667 59.23 141.042 60.07 137.589 60.07C135.769 60.07 134.042 59.8483 132.409 59.405C130.776 58.9617 129.422 58.32 128.349 57.48L130.519 53.56C131.312 54.2133 132.316 54.7267 133.529 55.1C134.742 55.4967 135.956 55.695 137.169 55.695C139.059 55.695 140.447 55.2633 141.334 54.4C142.244 53.56 142.699 52.2767 142.699 50.55V49.745C141.276 51.3083 139.292 52.09 136.749 52.09C135.022 52.09 133.436 51.7167 131.989 50.97C130.566 50.2 129.434 49.1267 128.594 47.75C127.754 46.3733 127.334 44.7867 127.334 42.99C127.334 41.1933 127.754 39.6067 128.594 38.23C129.434 36.8533 130.566 35.7917 131.989 35.045C133.436 34.275 135.022 33.89 136.749 33.89C139.479 33.89 141.556 34.7883 142.979 36.585V34.17H148.159ZM137.834 47.61C139.281 47.61 140.459 47.19 141.369 46.35C142.302 45.4867 142.769 44.3667 142.769 42.99C142.769 41.6133 142.302 40.505 141.369 39.665C140.459 38.8017 139.281 38.37 137.834 38.37C136.387 38.37 135.197 38.8017 134.264 39.665C133.331 40.505 132.864 41.6133 132.864 42.99C132.864 44.3667 133.331 45.4867 134.264 46.35C135.197 47.19 136.387 47.61 137.834 47.61ZM30.655 80.5C32.825 80.5 34.4816 81.2117 35.625 82.635C36.7683 84.0583 37.34 85.995 37.34 88.445V98H34.19V88.83C34.19 86.94 33.84 85.5517 33.14 84.665C32.4633 83.755 31.4016 83.3 29.955 83.3C29.0683 83.3 28.2516 83.51 27.505 83.93C26.7583 84.3267 26.1283 84.8983 25.615 85.645V98H22.43V71.75H25.615V82.495C26.2916 81.8417 27.0266 81.3517 27.82 81.025C28.6366 80.675 29.5816 80.5 30.655 80.5ZM44.7247 98.35C43.138 98.35 41.8547 97.8833 40.8747 96.95C39.918 96.0167 39.4397 94.8267 39.4397 93.38C39.4397 91.21 40.4664 89.6583 42.5197 88.725C44.573 87.7917 46.9647 87.3017 49.6947 87.255C49.6947 85.715 49.3914 84.6767 48.7847 84.14C48.2014 83.58 47.2564 83.3 45.9497 83.3C45.2264 83.3 44.503 83.4167 43.7797 83.65C43.0564 83.86 42.2747 84.2567 41.4347 84.84L40.9797 82.285C41.6797 81.7483 42.543 81.3167 43.5697 80.99C44.5964 80.6633 45.6697 80.5 46.7897 80.5C48.2597 80.5 49.4264 80.7567 50.2897 81.27C51.1764 81.7833 51.818 82.635 52.2147 83.825C52.6347 85.015 52.8447 86.6483 52.8447 88.725V92.225C52.8447 93.1583 52.8797 93.87 52.9497 94.36C53.043 94.8267 53.2297 95.1883 53.5097 95.445C53.7897 95.7017 54.2214 95.83 54.8047 95.83H55.1197L54.6297 98.35H54.3847C53.4047 98.35 52.6347 98.2567 52.0747 98.07C51.5147 97.8833 51.083 97.615 50.7797 97.265C50.4997 96.915 50.2314 96.4367 49.9747 95.83C48.528 97.51 46.778 98.35 44.7247 98.35ZM45.3197 95.83C46.1597 95.83 46.9647 95.62 47.7347 95.2C48.528 94.78 49.1814 94.22 49.6947 93.52V89.425C47.1747 89.5183 45.3664 89.8567 44.2697 90.44C43.1964 91 42.6597 91.9217 42.6597 93.205C42.6597 94.0917 42.893 94.7567 43.3597 95.2C43.8497 95.62 44.503 95.83 45.3197 95.83ZM56.8511 80.85H59.4411L59.8261 83.685C60.7128 82.5883 61.5528 81.7833 62.3461 81.27C63.1628 80.7567 64.0144 80.5 64.9011 80.5C65.1811 80.5 65.4494 80.535 65.7061 80.605L65.3911 84.07C65.0878 84 64.7378 83.965 64.3411 83.965C63.4778 83.965 62.6611 84.1633 61.8911 84.56C61.1211 84.9333 60.5611 85.3767 60.2111 85.89V98H56.8511V80.85ZM87.2453 80.5C91.632 80.5 93.8253 82.9617 93.8253 87.885V98H90.6753V87.92C90.6753 86.31 90.3603 85.1433 89.7303 84.42C89.1003 83.6733 88.0737 83.3 86.6503 83.3C83.617 83.3 82.1003 84.8867 82.1003 88.06V98H78.9503V88.55C78.9503 86.59 78.6003 85.225 77.9003 84.455C77.2237 83.685 76.232 83.3 74.9253 83.3C73.8987 83.3 72.9887 83.4867 72.1953 83.86C71.402 84.2333 70.7953 84.7933 70.3753 85.54V98H67.2253V80.85H69.6753L70.0253 82.67C70.8887 81.9 71.752 81.3517 72.6153 81.025C73.502 80.675 74.447 80.5 75.4503 80.5C78.0637 80.5 79.907 81.6433 80.9803 83.93C82.1703 81.6433 84.2587 80.5 87.2453 80.5ZM104.709 98.35C102.959 98.35 101.442 97.965 100.159 97.195C98.8754 96.4017 97.8954 95.3283 97.2187 93.975C96.542 92.6217 96.2037 91.105 96.2037 89.425C96.2037 87.745 96.542 86.2283 97.2187 84.875C97.8954 83.5217 98.8754 82.46 100.159 81.69C101.442 80.8967 102.959 80.5 104.709 80.5C106.435 80.5 107.94 80.8967 109.224 81.69C110.53 82.46 111.522 83.5217 112.199 84.875C112.875 86.2283 113.214 87.745 113.214 89.425C113.214 91.105 112.875 92.6217 112.199 93.975C111.522 95.3283 110.53 96.4017 109.224 97.195C107.94 97.965 106.435 98.35 104.709 98.35ZM104.709 95.55C106.389 95.55 107.684 95.0133 108.594 93.94C109.527 92.8667 109.994 91.3617 109.994 89.425C109.994 87.4883 109.527 85.9833 108.594 84.91C107.684 83.8367 106.389 83.3 104.709 83.3C103.029 83.3 101.722 83.8367 100.789 84.91C99.8787 85.9833 99.4237 87.4883 99.4237 89.425C99.4237 91.3617 99.8787 92.8667 100.789 93.94C101.722 95.0133 103.029 95.55 104.709 95.55ZM124.232 80.5C128.899 80.5 131.232 83.1833 131.232 88.55V98H128.082V88.55C128.082 86.7067 127.732 85.3767 127.032 84.56C126.355 83.72 125.212 83.3 123.602 83.3C122.575 83.3 121.642 83.4867 120.802 83.86C119.962 84.2333 119.332 84.7933 118.912 85.54V98H115.762V80.85H118.212L118.562 82.67C119.472 81.8533 120.382 81.2933 121.292 80.99C122.225 80.6633 123.205 80.5 124.232 80.5ZM139.384 97.23L132.244 80.85H135.744L141.099 93.59L145.929 80.85H149.429L138.929 106.47H135.429L139.384 97.23Z" fill="#2A2921"/>
</svg>
