<svg width="169" height="136" viewBox="0 0 169 136" fill="none" xmlns="http://www.w3.org/2000/svg">
<path d="M27.2843 34.59H32.1143V38.79H27.4243V53H21.9643V38.79H19.0593V34.59H21.9643V33.75C21.9643 31.6033 22.5943 29.9 23.8543 28.64C25.1376 27.38 26.9343 26.75 29.2443 26.75C30.061 26.75 30.831 26.8433 31.5543 27.03C32.301 27.1933 32.9193 27.4383 33.4093 27.765L31.9743 31.72C31.3443 31.2767 30.6093 31.055 29.7693 31.055C28.1126 31.055 27.2843 31.965 27.2843 33.785V34.59ZM37.6443 34.17H43.1043V53H37.6443V34.17ZM40.3743 31.545C39.371 31.545 38.5543 31.2533 37.9243 30.67C37.2943 30.0867 36.9793 29.3633 36.9793 28.5C36.9793 27.6367 37.2943 26.9133 37.9243 26.33C38.5543 25.7467 39.371 25.455 40.3743 25.455C41.3776 25.455 42.1943 25.735 42.8243 26.295C43.4543 26.855 43.7693 27.555 43.7693 28.395C43.7693 29.305 43.4543 30.0633 42.8243 30.67C42.1943 31.2533 41.3776 31.545 40.3743 31.545ZM58.9095 33.89C61.2429 33.89 63.1212 34.59 64.5445 35.99C65.9912 37.39 66.7145 39.4667 66.7145 42.22V53H61.2545V43.06C61.2545 41.5667 60.9279 40.4583 60.2745 39.735C59.6212 38.9883 58.6762 38.615 57.4395 38.615C56.0629 38.615 54.9662 39.0467 54.1495 39.91C53.3329 40.75 52.9245 42.01 52.9245 43.69V53H47.4645V34.17H52.6795V36.375C53.4029 35.5817 54.3012 34.975 55.3745 34.555C56.4479 34.1117 57.6262 33.89 58.9095 33.89ZM90.3488 27.03V53H85.1338V50.83C83.7805 52.4633 81.8205 53.28 79.2538 53.28C77.4805 53.28 75.8705 52.8833 74.4238 52.09C73.0005 51.2967 71.8805 50.165 71.0638 48.695C70.2472 47.225 69.8388 45.5217 69.8388 43.585C69.8388 41.6483 70.2472 39.945 71.0638 38.475C71.8805 37.005 73.0005 35.8733 74.4238 35.08C75.8705 34.2867 77.4805 33.89 79.2538 33.89C81.6572 33.89 83.5355 34.6483 84.8888 36.165V27.03H90.3488ZM80.1988 48.8C81.5755 48.8 82.7188 48.3333 83.6288 47.4C84.5388 46.4433 84.9938 45.1717 84.9938 43.585C84.9938 41.9983 84.5388 40.7383 83.6288 39.805C82.7188 38.8483 81.5755 38.37 80.1988 38.37C78.7988 38.37 77.6438 38.8483 76.7338 39.805C75.8238 40.7383 75.3688 41.9983 75.3688 43.585C75.3688 45.1717 75.8238 46.4433 76.7338 47.4C77.6438 48.3333 78.7988 48.8 80.1988 48.8ZM94.7022 34.17H100.162V53H94.7022V34.17ZM97.4322 31.545C96.4289 31.545 95.6122 31.2533 94.9822 30.67C94.3522 30.0867 94.0372 29.3633 94.0372 28.5C94.0372 27.6367 94.3522 26.9133 94.9822 26.33C95.6122 25.7467 96.4289 25.455 97.4322 25.455C98.4356 25.455 99.2522 25.735 99.8822 26.295C100.512 26.855 100.827 27.555 100.827 28.395C100.827 29.305 100.512 30.0633 99.8822 30.67C99.2522 31.2533 98.4356 31.545 97.4322 31.545ZM115.975 33.89C118.308 33.89 120.186 34.59 121.61 35.99C123.056 37.39 123.78 39.4667 123.78 42.22V53H118.32V43.06C118.32 41.5667 117.993 40.4583 117.34 39.735C116.686 38.9883 115.741 38.615 114.505 38.615C113.128 38.615 112.031 39.0467 111.215 39.91C110.398 40.75 109.99 42.01 109.99 43.69V53H104.53V34.17H109.745V36.375C110.468 35.5817 111.366 34.975 112.44 34.555C113.513 34.1117 114.691 33.89 115.975 33.89ZM147.659 34.17V49.85C147.659 53.3033 146.761 55.87 144.964 57.55C143.167 59.23 140.542 60.07 137.089 60.07C135.269 60.07 133.542 59.8483 131.909 59.405C130.276 58.9617 128.922 58.32 127.849 57.48L130.019 53.56C130.812 54.2133 131.816 54.7267 133.029 55.1C134.242 55.4967 135.456 55.695 136.669 55.695C138.559 55.695 139.947 55.2633 140.834 54.4C141.744 53.56 142.199 52.2767 142.199 50.55V49.745C140.776 51.3083 138.792 52.09 136.249 52.09C134.522 52.09 132.936 51.7167 131.489 50.97C130.066 50.2 128.934 49.1267 128.094 47.75C127.254 46.3733 126.834 44.7867 126.834 42.99C126.834 41.1933 127.254 39.6067 128.094 38.23C128.934 36.8533 130.066 35.7917 131.489 35.045C132.936 34.275 134.522 33.89 136.249 33.89C138.979 33.89 141.056 34.7883 142.479 36.585V34.17H147.659ZM137.334 47.61C138.781 47.61 139.959 47.19 140.869 46.35C141.802 45.4867 142.269 44.3667 142.269 42.99C142.269 41.6133 141.802 40.505 140.869 39.665C139.959 38.8017 138.781 38.37 137.334 38.37C135.887 38.37 134.697 38.8017 133.764 39.665C132.831 40.505 132.364 41.6133 132.364 42.99C132.364 44.3667 132.831 45.4867 133.764 46.35C134.697 47.19 135.887 47.61 137.334 47.61ZM28.1094 79.135C29.7894 79.135 31.0961 79.6367 32.0294 80.64C32.9861 81.6433 33.4644 83.02 33.4644 84.77V98H30.2444V85.225C30.2444 83.9183 29.9877 82.9967 29.4744 82.46C28.9844 81.9233 28.2611 81.655 27.3044 81.655C26.3477 81.655 25.4961 81.935 24.7494 82.495C24.0027 83.055 23.3027 83.8483 22.6494 84.875V98H19.4294V72.17L22.6494 71.82V82.11C24.0961 80.1267 25.9161 79.135 28.1094 79.135ZM51.6622 93.695C51.6622 94.4417 51.7905 95.0017 52.0472 95.375C52.3039 95.725 52.6889 95.9933 53.2022 96.18L52.4672 98.42C51.5105 98.3033 50.7405 98.035 50.1572 97.615C49.5739 97.195 49.1422 96.5417 48.8622 95.655C47.6255 97.4983 45.7939 98.42 43.3672 98.42C41.5472 98.42 40.1122 97.9067 39.0622 96.88C38.0122 95.8533 37.4872 94.5117 37.4872 92.855C37.4872 90.895 38.1872 89.39 39.5872 88.34C41.0105 87.29 43.0172 86.765 45.6072 86.765H48.4422V85.4C48.4422 84.0933 48.1272 83.16 47.4972 82.6C46.8672 82.04 45.8989 81.76 44.5922 81.76C43.2389 81.76 41.5822 82.0867 39.6222 82.74L38.8172 80.395C41.1039 79.555 43.2272 79.135 45.1872 79.135C47.3572 79.135 48.9789 79.6717 50.0522 80.745C51.1255 81.795 51.6622 83.3 51.6622 85.26V93.695ZM44.1022 96.005C45.9455 96.005 47.3922 95.0483 48.4422 93.135V88.9H46.0272C42.6205 88.9 40.9172 90.16 40.9172 92.68C40.9172 93.7767 41.1855 94.605 41.7222 95.165C42.2589 95.725 43.0522 96.005 44.1022 96.005ZM65.5903 79.135C66.2436 79.135 66.8503 79.205 67.4103 79.345L66.8153 82.495C66.2553 82.355 65.7186 82.285 65.2053 82.285C64.062 82.285 63.1403 82.705 62.4403 83.545C61.7403 84.385 61.192 85.6917 60.7953 87.465V98H57.5753V79.555H60.3403L60.6553 83.3C61.1453 81.9233 61.8103 80.885 62.6503 80.185C63.4903 79.485 64.4703 79.135 65.5903 79.135ZM88.8913 79.135C90.4079 79.135 91.6213 79.6483 92.5313 80.675C93.4413 81.6783 93.8963 83.0433 93.8963 84.77V98H90.6763V85.225C90.6763 82.845 89.8129 81.655 88.0863 81.655C87.1763 81.655 86.4063 81.9233 85.7763 82.46C85.1463 82.9733 84.4696 83.79 83.7463 84.91V98H80.5263V85.225C80.5263 82.845 79.6629 81.655 77.9363 81.655C77.0029 81.655 76.2213 81.9233 75.5913 82.46C74.9613 82.9967 74.2963 83.8133 73.5963 84.91V98H70.3763V79.555H73.1413L73.4213 82.25C74.7979 80.1733 76.5713 79.135 78.7413 79.135C79.8846 79.135 80.8529 79.4267 81.6463 80.01C82.4629 80.5933 83.0463 81.41 83.3963 82.46C84.1196 81.3867 84.9129 80.57 85.7763 80.01C86.6629 79.4267 87.7013 79.135 88.8913 79.135ZM106.616 79.135C109.206 79.135 111.213 79.9983 112.636 81.725C114.083 83.4517 114.806 85.7967 114.806 88.76C114.806 90.6733 114.479 92.365 113.826 93.835C113.173 95.2817 112.228 96.4133 110.991 97.23C109.754 98.0233 108.284 98.42 106.581 98.42C103.991 98.42 101.973 97.5567 100.526 95.83C99.0794 94.1033 98.356 91.7583 98.356 88.795C98.356 86.8817 98.6827 85.2017 99.336 83.755C99.9894 82.285 100.934 81.1533 102.171 80.36C103.408 79.5433 104.889 79.135 106.616 79.135ZM106.616 81.725C103.419 81.725 101.821 84.0817 101.821 88.795C101.821 93.485 103.408 95.83 106.581 95.83C109.754 95.83 111.341 93.4733 111.341 88.76C111.341 84.07 109.766 81.725 106.616 81.725ZM128.105 79.135C129.785 79.135 131.092 79.6367 132.025 80.64C132.982 81.6433 133.46 83.02 133.46 84.77V98H130.24V85.225C130.24 83.9183 129.995 82.9967 129.505 82.46C129.015 81.9233 128.292 81.655 127.335 81.655C126.355 81.655 125.492 81.935 124.745 82.495C123.999 83.055 123.299 83.86 122.645 84.91V98H119.425V79.555H122.19L122.47 82.285C123.124 81.305 123.929 80.535 124.885 79.975C125.865 79.415 126.939 79.135 128.105 79.135ZM146.379 98.105C145.656 100.252 144.641 101.943 143.334 103.18C142.051 104.44 140.207 105.198 137.804 105.455L137.454 102.935C138.667 102.725 139.636 102.422 140.359 102.025C141.082 101.628 141.654 101.115 142.074 100.485C142.517 99.8783 142.926 99.05 143.299 98H142.214L136.019 79.555H139.449L144.384 95.655L149.214 79.555H152.539L146.379 98.105Z" fill="#2A2921"/>
</svg>
