<svg width="169" height="136" viewBox="0 0 169 136" fill="none" xmlns="http://www.w3.org/2000/svg">
<path d="M27.7843 34.59H32.6143V38.79H27.9243V53H22.4643V38.79H19.5593V34.59H22.4643V33.75C22.4643 31.6033 23.0943 29.9 24.3543 28.64C25.6376 27.38 27.4343 26.75 29.7443 26.75C30.561 26.75 31.331 26.8433 32.0543 27.03C32.801 27.1933 33.4193 27.4383 33.9093 27.765L32.4743 31.72C31.8443 31.2767 31.1093 31.055 30.2693 31.055C28.6126 31.055 27.7843 31.965 27.7843 33.785V34.59ZM38.1443 34.17H43.6043V53H38.1443V34.17ZM40.8743 31.545C39.871 31.545 39.0543 31.2533 38.4243 30.67C37.7943 30.0867 37.4793 29.3633 37.4793 28.5C37.4793 27.6367 37.7943 26.9133 38.4243 26.33C39.0543 25.7467 39.871 25.455 40.8743 25.455C41.8776 25.455 42.6943 25.735 43.3243 26.295C43.9543 26.855 44.2693 27.555 44.2693 28.395C44.2693 29.305 43.9543 30.0633 43.3243 30.67C42.6943 31.2533 41.8776 31.545 40.8743 31.545ZM59.4095 33.89C61.7429 33.89 63.6212 34.59 65.0445 35.99C66.4912 37.39 67.2145 39.4667 67.2145 42.22V53H61.7545V43.06C61.7545 41.5667 61.4279 40.4583 60.7745 39.735C60.1212 38.9883 59.1762 38.615 57.9395 38.615C56.5629 38.615 55.4662 39.0467 54.6495 39.91C53.8329 40.75 53.4245 42.01 53.4245 43.69V53H47.9645V34.17H53.1795V36.375C53.9029 35.5817 54.8012 34.975 55.8745 34.555C56.9479 34.1117 58.1262 33.89 59.4095 33.89ZM90.8488 27.03V53H85.6338V50.83C84.2805 52.4633 82.3205 53.28 79.7538 53.28C77.9805 53.28 76.3705 52.8833 74.9238 52.09C73.5005 51.2967 72.3805 50.165 71.5638 48.695C70.7472 47.225 70.3388 45.5217 70.3388 43.585C70.3388 41.6483 70.7472 39.945 71.5638 38.475C72.3805 37.005 73.5005 35.8733 74.9238 35.08C76.3705 34.2867 77.9805 33.89 79.7538 33.89C82.1572 33.89 84.0355 34.6483 85.3888 36.165V27.03H90.8488ZM80.6988 48.8C82.0755 48.8 83.2188 48.3333 84.1288 47.4C85.0388 46.4433 85.4938 45.1717 85.4938 43.585C85.4938 41.9983 85.0388 40.7383 84.1288 39.805C83.2188 38.8483 82.0755 38.37 80.6988 38.37C79.2988 38.37 78.1438 38.8483 77.2338 39.805C76.3238 40.7383 75.8688 41.9983 75.8688 43.585C75.8688 45.1717 76.3238 46.4433 77.2338 47.4C78.1438 48.3333 79.2988 48.8 80.6988 48.8ZM95.2022 34.17H100.662V53H95.2022V34.17ZM97.9322 31.545C96.9289 31.545 96.1122 31.2533 95.4822 30.67C94.8522 30.0867 94.5372 29.3633 94.5372 28.5C94.5372 27.6367 94.8522 26.9133 95.4822 26.33C96.1122 25.7467 96.9289 25.455 97.9322 25.455C98.9356 25.455 99.7522 25.735 100.382 26.295C101.012 26.855 101.327 27.555 101.327 28.395C101.327 29.305 101.012 30.0633 100.382 30.67C99.7522 31.2533 98.9356 31.545 97.9322 31.545ZM116.475 33.89C118.808 33.89 120.686 34.59 122.11 35.99C123.556 37.39 124.28 39.4667 124.28 42.22V53H118.82V43.06C118.82 41.5667 118.493 40.4583 117.84 39.735C117.186 38.9883 116.241 38.615 115.005 38.615C113.628 38.615 112.531 39.0467 111.715 39.91C110.898 40.75 110.49 42.01 110.49 43.69V53H105.03V34.17H110.245V36.375C110.968 35.5817 111.866 34.975 112.94 34.555C114.013 34.1117 115.191 33.89 116.475 33.89ZM148.159 34.17V49.85C148.159 53.3033 147.261 55.87 145.464 57.55C143.667 59.23 141.042 60.07 137.589 60.07C135.769 60.07 134.042 59.8483 132.409 59.405C130.776 58.9617 129.422 58.32 128.349 57.48L130.519 53.56C131.312 54.2133 132.316 54.7267 133.529 55.1C134.742 55.4967 135.956 55.695 137.169 55.695C139.059 55.695 140.447 55.2633 141.334 54.4C142.244 53.56 142.699 52.2767 142.699 50.55V49.745C141.276 51.3083 139.292 52.09 136.749 52.09C135.022 52.09 133.436 51.7167 131.989 50.97C130.566 50.2 129.434 49.1267 128.594 47.75C127.754 46.3733 127.334 44.7867 127.334 42.99C127.334 41.1933 127.754 39.6067 128.594 38.23C129.434 36.8533 130.566 35.7917 131.989 35.045C133.436 34.275 135.022 33.89 136.749 33.89C139.479 33.89 141.556 34.7883 142.979 36.585V34.17H148.159ZM137.834 47.61C139.281 47.61 140.459 47.19 141.369 46.35C142.302 45.4867 142.769 44.3667 142.769 42.99C142.769 41.6133 142.302 40.505 141.369 39.665C140.459 38.8017 139.281 38.37 137.834 38.37C136.387 38.37 135.197 38.8017 134.264 39.665C133.331 40.505 132.864 41.6133 132.864 42.99C132.864 44.3667 133.331 45.4867 134.264 46.35C135.197 47.19 136.387 47.61 137.834 47.61ZM21.4518 84.35C22.5718 82.0167 24.4268 80.85 27.0168 80.85C29.0001 80.85 30.5401 81.5033 31.6368 82.81C32.7568 84.1167 33.3168 85.9017 33.3168 88.165V98H30.5868V88.165C30.5868 86.555 30.2018 85.3417 29.4318 84.525C28.6851 83.7083 27.6001 83.3 26.1768 83.3C24.7534 83.3 23.6101 83.9067 22.7468 85.12C21.8834 86.31 21.4518 87.9667 21.4518 90.09V98H18.6868V74.165H21.4518V84.35ZM49.4698 87.15C49.4698 85.6333 49.1548 84.5483 48.5248 83.895C47.8948 83.2417 46.9731 82.915 45.7598 82.915C44.5698 82.915 43.6015 83.16 42.8548 83.65C42.1315 84.1167 41.7698 84.8633 41.7698 85.89H38.7248C38.7248 83.3233 40.1015 81.7367 42.8548 81.13C43.6948 80.9433 44.6048 80.85 45.5848 80.85C47.6615 80.85 49.2831 81.375 50.4498 82.425C51.6165 83.475 52.1998 85.0733 52.1998 87.22V98H49.8198L49.5398 95.2C48.5131 97.3233 46.6581 98.385 43.9748 98.385C42.1781 98.385 40.7315 97.8833 39.6348 96.88C38.5615 95.8767 38.0248 94.6283 38.0248 93.135C38.0248 91.6417 38.6198 90.475 39.8098 89.635C41.0231 88.795 42.5281 88.375 44.3248 88.375C46.1215 88.375 47.8365 88.6783 49.4698 89.285V87.15ZM49.4698 91.035C47.8131 90.5683 46.3665 90.335 45.1298 90.335C43.8931 90.335 42.8898 90.5567 42.1198 91C41.3498 91.4433 40.9648 92.1433 40.9648 93.1C40.9648 95.2 42.1548 96.25 44.5348 96.25C45.8881 96.25 47.0431 95.7717 47.9998 94.815C48.9798 93.835 49.4698 92.575 49.4698 91.035ZM64.8198 83.615C62.1831 83.615 60.8181 85.6917 60.7248 89.845V98H57.9598V81.235H60.7248V84.455C61.5648 82.1217 63.0464 80.955 65.1698 80.955C65.8464 80.955 66.4881 81.06 67.0948 81.27L66.9548 83.965C66.2548 83.7317 65.5431 83.615 64.8198 83.615ZM73.2848 84.49C74.3815 82.0633 76.2598 80.85 78.9198 80.85C80.3665 80.85 81.5798 81.2117 82.5598 81.935C83.5398 82.635 84.2515 83.615 84.6948 84.875C85.7448 82.1917 87.6932 80.85 90.5398 80.85C92.5465 80.85 94.0982 81.5033 95.1948 82.81C96.2915 84.1167 96.8398 85.9017 96.8398 88.165V98H94.1098V88.165C94.1098 86.555 93.7248 85.3417 92.9548 84.525C92.2082 83.7083 91.1232 83.3 89.6998 83.3C88.2765 83.3 87.1682 83.8833 86.3748 85.05C85.6048 86.2167 85.2198 87.8267 85.2198 89.88V98H82.4898V88.165C82.4898 86.555 82.1048 85.3417 81.3348 84.525C80.5882 83.7083 79.5148 83.3 78.1148 83.3C76.7148 83.3 75.5832 83.8717 74.7198 85.015C73.8565 86.1583 73.4015 87.745 73.3548 89.775V98H70.5898V81.27H72.9698L73.2848 84.49ZM108.655 80.85C110.988 80.85 112.866 81.6083 114.29 83.125C115.736 84.6417 116.46 86.8117 116.46 89.635C116.46 92.435 115.736 94.5933 114.29 96.11C112.866 97.6267 110.988 98.385 108.655 98.385C106.321 98.385 104.431 97.6267 102.985 96.11C101.561 94.5933 100.85 92.435 100.85 89.635C100.85 86.8117 101.561 84.6417 102.985 83.125C104.431 81.6083 106.321 80.85 108.655 80.85ZM113.66 89.635C113.66 87.6283 113.24 86.065 112.4 84.945C111.56 83.8017 110.323 83.23 108.69 83.23C107.08 83.23 105.843 83.8017 104.98 84.945C104.116 86.065 103.685 87.6283 103.685 89.635C103.685 91.6183 104.093 93.1817 104.91 94.325C105.726 95.445 106.94 96.005 108.55 96.005C110.183 96.005 111.443 95.445 112.33 94.325C113.216 93.1817 113.66 91.6183 113.66 89.635ZM123.701 84.49C124.798 82.0633 126.676 80.85 129.336 80.85C131.32 80.85 132.86 81.5033 133.956 82.81C135.076 84.1167 135.636 85.9017 135.636 88.165V98H132.906V88.165C132.906 86.555 132.521 85.3417 131.751 84.525C131.005 83.7083 129.931 83.3 128.531 83.3C127.131 83.3 126 83.8717 125.136 85.015C124.273 86.1583 123.818 87.745 123.771 89.775V98H121.006V81.27H123.386L123.701 84.49ZM138.07 102.865C139.213 103.752 140.415 104.195 141.675 104.195C142.608 104.195 143.413 103.728 144.09 102.795C144.58 102.118 145.023 101.092 145.42 99.715L145.91 98L139.05 81.27H142.13L147.205 94.605L151.16 81.27H153.96L147.695 101.325C147.158 103.028 146.447 104.335 145.56 105.245C144.697 106.155 143.588 106.61 142.235 106.61C140.905 106.61 139.517 106.202 138.07 105.385V102.865Z" fill="#2A2921"/>
</svg>
