<svg width="169" height="136" viewBox="0 0 169 136" fill="none" xmlns="http://www.w3.org/2000/svg">
<path d="M27.7843 39.59H32.6143V43.79H27.9243V58H22.4643V43.79H19.5593V39.59H22.4643V38.75C22.4643 36.6033 23.0943 34.9 24.3543 33.64C25.6376 32.38 27.4343 31.75 29.7443 31.75C30.561 31.75 31.331 31.8433 32.0543 32.03C32.801 32.1933 33.4193 32.4383 33.9093 32.765L32.4743 36.72C31.8443 36.2767 31.1093 36.055 30.2693 36.055C28.6126 36.055 27.7843 36.965 27.7843 38.785V39.59ZM38.1443 39.17H43.6043V58H38.1443V39.17ZM40.8743 36.545C39.871 36.545 39.0543 36.2533 38.4243 35.67C37.7943 35.0867 37.4793 34.3633 37.4793 33.5C37.4793 32.6367 37.7943 31.9133 38.4243 31.33C39.0543 30.7467 39.871 30.455 40.8743 30.455C41.8776 30.455 42.6943 30.735 43.3243 31.295C43.9543 31.855 44.2693 32.555 44.2693 33.395C44.2693 34.305 43.9543 35.0633 43.3243 35.67C42.6943 36.2533 41.8776 36.545 40.8743 36.545ZM59.4095 38.89C61.7429 38.89 63.6212 39.59 65.0445 40.99C66.4912 42.39 67.2145 44.4667 67.2145 47.22V58H61.7545V48.06C61.7545 46.5667 61.4279 45.4583 60.7745 44.735C60.1212 43.9883 59.1762 43.615 57.9395 43.615C56.5629 43.615 55.4662 44.0467 54.6495 44.91C53.8329 45.75 53.4245 47.01 53.4245 48.69V58H47.9645V39.17H53.1795V41.375C53.9029 40.5817 54.8012 39.975 55.8745 39.555C56.9479 39.1117 58.1262 38.89 59.4095 38.89ZM90.8488 32.03V58H85.6338V55.83C84.2805 57.4633 82.3205 58.28 79.7538 58.28C77.9805 58.28 76.3705 57.8833 74.9238 57.09C73.5005 56.2967 72.3805 55.165 71.5638 53.695C70.7472 52.225 70.3388 50.5217 70.3388 48.585C70.3388 46.6483 70.7472 44.945 71.5638 43.475C72.3805 42.005 73.5005 40.8733 74.9238 40.08C76.3705 39.2867 77.9805 38.89 79.7538 38.89C82.1572 38.89 84.0355 39.6483 85.3888 41.165V32.03H90.8488ZM80.6988 53.8C82.0755 53.8 83.2188 53.3333 84.1288 52.4C85.0388 51.4433 85.4938 50.1717 85.4938 48.585C85.4938 46.9983 85.0388 45.7383 84.1288 44.805C83.2188 43.8483 82.0755 43.37 80.6988 43.37C79.2988 43.37 78.1438 43.8483 77.2338 44.805C76.3238 45.7383 75.8688 46.9983 75.8688 48.585C75.8688 50.1717 76.3238 51.4433 77.2338 52.4C78.1438 53.3333 79.2988 53.8 80.6988 53.8ZM95.2022 39.17H100.662V58H95.2022V39.17ZM97.9322 36.545C96.9289 36.545 96.1122 36.2533 95.4822 35.67C94.8522 35.0867 94.5372 34.3633 94.5372 33.5C94.5372 32.6367 94.8522 31.9133 95.4822 31.33C96.1122 30.7467 96.9289 30.455 97.9322 30.455C98.9356 30.455 99.7522 30.735 100.382 31.295C101.012 31.855 101.327 32.555 101.327 33.395C101.327 34.305 101.012 35.0633 100.382 35.67C99.7522 36.2533 98.9356 36.545 97.9322 36.545ZM116.475 38.89C118.808 38.89 120.686 39.59 122.11 40.99C123.556 42.39 124.28 44.4667 124.28 47.22V58H118.82V48.06C118.82 46.5667 118.493 45.4583 117.84 44.735C117.186 43.9883 116.241 43.615 115.005 43.615C113.628 43.615 112.531 44.0467 111.715 44.91C110.898 45.75 110.49 47.01 110.49 48.69V58H105.03V39.17H110.245V41.375C110.968 40.5817 111.866 39.975 112.94 39.555C114.013 39.1117 115.191 38.89 116.475 38.89ZM148.159 39.17V54.85C148.159 58.3033 147.261 60.87 145.464 62.55C143.667 64.23 141.042 65.07 137.589 65.07C135.769 65.07 134.042 64.8483 132.409 64.405C130.776 63.9617 129.422 63.32 128.349 62.48L130.519 58.56C131.312 59.2133 132.316 59.7267 133.529 60.1C134.742 60.4967 135.956 60.695 137.169 60.695C139.059 60.695 140.447 60.2633 141.334 59.4C142.244 58.56 142.699 57.2767 142.699 55.55V54.745C141.276 56.3083 139.292 57.09 136.749 57.09C135.022 57.09 133.436 56.7167 131.989 55.97C130.566 55.2 129.434 54.1267 128.594 52.75C127.754 51.3733 127.334 49.7867 127.334 47.99C127.334 46.1933 127.754 44.6067 128.594 43.23C129.434 41.8533 130.566 40.7917 131.989 40.045C133.436 39.275 135.022 38.89 136.749 38.89C139.479 38.89 141.556 39.7883 142.979 41.585V39.17H148.159ZM137.834 52.61C139.281 52.61 140.459 52.19 141.369 51.35C142.302 50.4867 142.769 49.3667 142.769 47.99C142.769 46.6133 142.302 45.505 141.369 44.665C140.459 43.8017 139.281 43.37 137.834 43.37C136.387 43.37 135.197 43.8017 134.264 44.665C133.331 45.505 132.864 46.6133 132.864 47.99C132.864 49.3667 133.331 50.4867 134.264 51.35C135.197 52.19 136.387 52.61 137.834 52.61ZM28.405 79.725H31.17V79.97C31.03 80.11 30.9367 80.2617 30.89 80.425C30.8667 80.5883 30.855 80.8683 30.855 81.265V89.84C31.485 88.86 32.2667 88.0783 33.2 87.495C34.1567 86.9117 35.125 86.62 36.105 86.62C37.5517 86.62 38.7183 87.1333 39.605 88.16C40.515 89.1633 40.97 90.8783 40.97 93.305V103H38.52V93.375C38.52 91.695 38.2283 90.5167 37.645 89.84C37.085 89.1633 36.3967 88.825 35.58 88.825C34.88 88.825 34.1567 89.0233 33.41 89.42C32.6867 89.8167 32.08 90.3883 31.59 91.135C31.1 91.8583 30.855 92.745 30.855 93.795V103H28.405V79.725ZM50.035 103.385C48.215 103.385 46.815 102.977 45.835 102.16C44.855 101.32 44.365 100.258 44.365 98.975C44.365 97.8317 44.7267 96.8517 45.45 96.035C46.1733 95.195 47.1417 94.5533 48.355 94.11C49.5917 93.6433 50.945 93.41 52.415 93.41C52.9517 93.41 53.5117 93.4217 54.095 93.445C54.7017 93.4683 55.3433 93.5267 56.02 93.62C55.88 91.7533 55.39 90.47 54.55 89.77C53.7333 89.07 52.555 88.72 51.015 88.72C50.245 88.72 49.4867 88.8717 48.74 89.175C47.9933 89.455 47.3167 89.8983 46.71 90.505L45.485 88.895C46.2317 88.1483 47.095 87.5883 48.075 87.215C49.055 86.8417 50.0933 86.655 51.19 86.655C52.6133 86.655 53.85 86.8883 54.9 87.355C55.95 87.8217 56.7667 88.6267 57.35 89.77C57.9333 90.9133 58.225 92.4883 58.225 94.495V103H55.495V100.55C55.0983 101.32 54.585 101.915 53.955 102.335C53.3483 102.732 52.695 103 51.995 103.14C51.3183 103.303 50.665 103.385 50.035 103.385ZM46.885 98.835C46.885 99.8383 47.2117 100.527 47.865 100.9C48.5183 101.273 49.3233 101.46 50.28 101.46C52.0067 101.46 53.3717 100.958 54.375 99.955C55.3783 98.9283 55.9267 97.4583 56.02 95.545C54.8067 95.3817 53.675 95.3 52.625 95.3C50.945 95.3 49.5683 95.58 48.495 96.14C47.4217 96.7 46.885 97.5983 46.885 98.835ZM63.615 87.005H66.24L66.17 89.945C66.6133 88.8717 67.3017 88.055 68.235 87.495C69.1683 86.9117 70.1717 86.62 71.245 86.62C72.9483 86.62 74.36 87.2033 75.48 88.37L74.36 90.33L74.22 90.645L73.975 90.505C73.9283 90.3183 73.8583 90.1433 73.765 89.98C73.6717 89.8167 73.4733 89.6183 73.17 89.385C72.7967 89.1517 72.4467 89 72.12 88.93C71.8167 88.8367 71.4667 88.79 71.07 88.79C70.3 88.79 69.53 88.9883 68.76 89.385C68.0133 89.7817 67.395 90.4 66.905 91.24C66.415 92.08 66.17 93.1767 66.17 94.53V103.035H63.615V87.005ZM77.58 103V87.005H79.89V88.58C80.2633 87.9967 80.7417 87.53 81.325 87.18C81.9083 86.8067 82.515 86.62 83.145 86.62C83.845 86.62 84.4517 86.8417 84.965 87.285C85.5017 87.7283 85.84 88.2883 85.98 88.965C86.2833 88.265 86.7617 87.705 87.415 87.285C88.0683 86.8417 88.7917 86.62 89.585 86.62C90.6817 86.62 91.475 87.0167 91.965 87.81C92.4783 88.58 92.7117 89.5483 92.665 90.715V103H90.355V91.66C90.355 90.68 90.285 89.9683 90.145 89.525C90.0283 89.0817 89.8533 88.8017 89.62 88.685C89.3867 88.545 89.13 88.475 88.85 88.475C88.4067 88.475 87.9867 88.685 87.59 89.105C87.2167 89.5017 86.9017 90.0033 86.645 90.61C86.4117 91.2167 86.295 91.8233 86.295 92.43V103H83.95V91.87C83.95 90.54 83.8217 89.6533 83.565 89.21C83.3317 88.7667 82.8767 88.545 82.2 88.545C81.6867 88.545 81.1733 88.8833 80.66 89.56C80.1467 90.2133 79.89 91.135 79.89 92.325V103H77.58ZM101.8 103.28C100.353 103.28 99.07 102.93 97.95 102.23C96.8533 101.507 95.99 100.527 95.36 99.29C94.73 98.03 94.415 96.595 94.415 94.985C94.415 93.3517 94.73 91.9167 95.36 90.68C95.99 89.42 96.8533 88.44 97.95 87.74C99.07 87.0167 100.353 86.655 101.8 86.655C103.247 86.655 104.518 87.0167 105.615 87.74C106.735 88.44 107.61 89.42 108.24 90.68C108.87 91.9167 109.185 93.3517 109.185 94.985C109.185 96.595 108.87 98.03 108.24 99.29C107.61 100.527 106.735 101.507 105.615 102.23C104.518 102.93 103.247 103.28 101.8 103.28ZM101.8 101.18C102.733 101.18 103.55 100.912 104.25 100.375C104.95 99.8383 105.498 99.1033 105.895 98.17C106.315 97.2367 106.525 96.1633 106.525 94.95C106.525 93.13 106.082 91.6483 105.195 90.505C104.308 89.3383 103.177 88.755 101.8 88.755C100.423 88.755 99.2917 89.3383 98.405 90.505C97.5183 91.6483 97.075 93.13 97.075 94.95C97.075 96.1633 97.2733 97.2367 97.67 98.17C98.09 99.1033 98.65 99.8383 99.35 100.375C100.073 100.912 100.89 101.18 101.8 101.18ZM112.37 103V87.005H114.82V89.84C115.427 88.86 116.208 88.0783 117.165 87.495C118.145 86.9117 119.172 86.62 120.245 86.62C121.552 86.62 122.66 87.1333 123.57 88.16C124.48 89.1633 124.935 90.8783 124.935 93.305V103H122.485V93.375C122.485 91.695 122.193 90.5167 121.61 89.84C121.05 89.1633 120.362 88.825 119.545 88.825C118.845 88.825 118.122 89.035 117.375 89.455C116.652 89.8517 116.045 90.4233 115.555 91.17C115.065 91.8933 114.82 92.7683 114.82 93.795V103H112.37ZM131.095 109.09C129.602 109.09 128.377 108.635 127.42 107.725L128.505 106.01L128.715 105.695L128.925 105.835C128.972 106.022 129.053 106.173 129.17 106.29C129.287 106.43 129.508 106.605 129.835 106.815C130.255 106.955 130.722 107.025 131.235 107.025C132.145 107.025 132.857 106.698 133.37 106.045C133.883 105.415 134.362 104.435 134.805 103.105L128.26 87.005H130.885L135.855 99.815L137.955 93.375C138.305 92.3017 138.643 91.24 138.97 90.19C139.297 89.14 139.518 88.0783 139.635 87.005H142.155C141.992 88.0783 141.735 89.1633 141.385 90.26C141.035 91.3567 140.662 92.4533 140.265 93.55L136.275 104.82C135.715 106.383 134.992 107.48 134.105 108.11C133.242 108.763 132.238 109.09 131.095 109.09Z" fill="#2A2921"/>
</svg>
