<svg width="169" height="136" viewBox="0 0 169 136" fill="none" xmlns="http://www.w3.org/2000/svg">
<path d="M46.4867 31.42C45.6934 31.42 45.0634 31.21 44.5967 30.79C44.1301 30.3467 43.8967 29.775 43.8967 29.075C43.8967 28.375 44.1301 27.815 44.5967 27.395C45.0634 26.975 45.6934 26.765 46.4867 26.765C47.2567 26.765 47.8751 26.975 48.3417 27.395C48.8317 27.815 49.0767 28.375 49.0767 29.075C49.0767 29.775 48.8317 30.3467 48.3417 30.79C47.8751 31.21 47.2567 31.42 46.4867 31.42ZM46.6967 34.885C48.0034 34.885 48.6567 35.4333 48.6567 36.53V50.11C48.6567 50.7867 48.4467 51.3117 48.0267 51.685C47.6301 52.035 47.1167 52.21 46.4867 52.21C45.8567 52.21 45.3317 52.035 44.9117 51.685C44.4917 51.3117 44.2817 50.7867 44.2817 50.11V38.175H37.3517V50.11C37.3517 50.7867 37.1417 51.3 36.7217 51.65C36.3251 52 35.8117 52.175 35.1817 52.175C34.5517 52.175 34.0267 52 33.6067 51.65C33.1867 51.3 32.9767 50.7867 32.9767 50.11V38.175H31.2267C29.9201 38.175 29.2667 37.6267 29.2667 36.53C29.2667 35.4333 29.9201 34.885 31.2267 34.885H32.9767V34.71C32.9767 32.54 33.5484 30.825 34.6917 29.565C35.8584 28.2817 37.4917 27.5467 39.5917 27.36L40.3967 27.29C40.5134 27.2667 40.6884 27.255 40.9217 27.255C42.1584 27.255 42.7767 27.78 42.7767 28.83C42.7767 29.3433 42.6367 29.74 42.3567 30.02C42.0767 30.3 41.6917 30.4633 41.2017 30.51L40.4317 30.58C39.3584 30.6733 38.5767 31.0117 38.0867 31.595C37.5967 32.155 37.3517 32.9833 37.3517 34.08V34.885H46.6967ZM62.4574 34.465C64.5107 34.465 66.039 35.0483 67.0424 36.215C68.0457 37.3817 68.5474 39.1433 68.5474 41.5V50.11C68.5474 50.7633 68.349 51.2767 67.9524 51.65C67.579 52.0233 67.054 52.21 66.3774 52.21C65.7007 52.21 65.164 52.0233 64.7674 51.65C64.3707 51.2767 64.1724 50.7633 64.1724 50.11V41.745C64.1724 40.415 63.9157 39.4467 63.4024 38.84C62.9124 38.2333 62.1307 37.93 61.0574 37.93C59.7974 37.93 58.7824 38.3267 58.0124 39.12C57.2657 39.9133 56.8924 40.975 56.8924 42.305V50.11C56.8924 50.7633 56.694 51.2767 56.2974 51.65C55.9007 52.0233 55.364 52.21 54.6874 52.21C54.0107 52.21 53.474 52.0233 53.0774 51.65C52.704 51.2767 52.5174 50.7633 52.5174 50.11V36.565C52.5174 35.9583 52.7157 35.4683 53.1124 35.095C53.509 34.7217 54.0457 34.535 54.7224 34.535C55.329 34.535 55.819 34.7217 56.1924 35.095C56.589 35.445 56.7874 35.9117 56.7874 36.495V37.44C57.3707 36.4833 58.1524 35.7483 59.1324 35.235C60.1124 34.7217 61.2207 34.465 62.4574 34.465ZM86.571 27.15C87.2243 27.15 87.761 27.3367 88.181 27.71C88.601 28.0833 88.811 28.5733 88.811 29.18V50.11C88.811 50.74 88.6127 51.2417 88.216 51.615C87.8193 51.9883 87.2943 52.175 86.641 52.175C85.9877 52.175 85.4627 51.9883 85.066 51.615C84.6693 51.2417 84.471 50.74 84.471 50.11V49.235C83.9577 50.1917 83.211 50.9383 82.231 51.475C81.2743 52.0117 80.1777 52.28 78.941 52.28C77.471 52.28 76.1527 51.9067 74.986 51.16C73.8427 50.4133 72.9443 49.3633 72.291 48.01C71.661 46.6333 71.346 45.0583 71.346 43.285C71.346 41.5117 71.661 39.96 72.291 38.63C72.9443 37.3 73.8427 36.2733 74.986 35.55C76.1293 34.8267 77.4477 34.465 78.941 34.465C80.1777 34.465 81.2743 34.7217 82.231 35.235C83.1877 35.7483 83.9227 36.4717 84.436 37.405V29.11C84.436 28.5267 84.6227 28.06 84.996 27.71C85.3927 27.3367 85.9177 27.15 86.571 27.15ZM80.096 48.885C81.496 48.885 82.5693 48.4067 83.316 47.45C84.086 46.4933 84.471 45.1283 84.471 43.355C84.471 41.5817 84.086 40.2283 83.316 39.295C82.5693 38.3383 81.5077 37.86 80.131 37.86C78.731 37.86 77.646 38.3267 76.876 39.26C76.106 40.1933 75.721 41.535 75.721 43.285C75.721 45.0583 76.106 46.435 76.876 47.415C77.646 48.395 78.7193 48.885 80.096 48.885ZM94.7815 52.21C94.1515 52.21 93.6265 52.035 93.2065 51.685C92.8099 51.3117 92.6115 50.7867 92.6115 50.11V36.6C92.6115 35.9233 92.8099 35.41 93.2065 35.06C93.6265 34.71 94.1515 34.535 94.7815 34.535C95.4115 34.535 95.9365 34.71 96.3565 35.06C96.7765 35.41 96.9865 35.9233 96.9865 36.6V50.11C96.9865 50.7867 96.7765 51.3117 96.3565 51.685C95.9365 52.035 95.4115 52.21 94.7815 52.21ZM94.7815 31.42C93.9882 31.42 93.3582 31.21 92.8915 30.79C92.4249 30.3467 92.1915 29.775 92.1915 29.075C92.1915 28.375 92.4249 27.815 92.8915 27.395C93.3582 26.975 93.9882 26.765 94.7815 26.765C95.5515 26.765 96.1699 26.975 96.6365 27.395C97.1265 27.815 97.3715 28.375 97.3715 29.075C97.3715 29.775 97.1382 30.3467 96.6715 30.79C96.2049 31.21 95.5749 31.42 94.7815 31.42ZM110.738 34.465C112.792 34.465 114.32 35.0483 115.323 36.215C116.327 37.3817 116.828 39.1433 116.828 41.5V50.11C116.828 50.7633 116.63 51.2767 116.233 51.65C115.86 52.0233 115.335 52.21 114.658 52.21C113.982 52.21 113.445 52.0233 113.048 51.65C112.652 51.2767 112.453 50.7633 112.453 50.11V41.745C112.453 40.415 112.197 39.4467 111.683 38.84C111.193 38.2333 110.412 37.93 109.338 37.93C108.078 37.93 107.063 38.3267 106.293 39.12C105.547 39.9133 105.173 40.975 105.173 42.305V50.11C105.173 50.7633 104.975 51.2767 104.578 51.65C104.182 52.0233 103.645 52.21 102.968 52.21C102.292 52.21 101.755 52.0233 101.358 51.65C100.985 51.2767 100.798 50.7633 100.798 50.11V36.565C100.798 35.9583 100.997 35.4683 101.393 35.095C101.79 34.7217 102.327 34.535 103.003 34.535C103.61 34.535 104.1 34.7217 104.473 35.095C104.87 35.445 105.068 35.9117 105.068 36.495V37.44C105.652 36.4833 106.433 35.7483 107.413 35.235C108.393 34.7217 109.502 34.465 110.738 34.465ZM135.062 34.535C135.715 34.535 136.24 34.7217 136.637 35.095C137.034 35.4683 137.232 35.97 137.232 36.6V50.425C137.232 53.1083 136.485 55.1383 134.992 56.515C133.499 57.8917 131.294 58.58 128.377 58.58C125.834 58.58 123.71 58.1017 122.007 57.145C121.144 56.6317 120.712 56.0133 120.712 55.29C120.712 54.7767 120.829 54.3683 121.062 54.065C121.319 53.7617 121.645 53.61 122.042 53.61C122.252 53.61 122.509 53.6567 122.812 53.75C123.115 53.8667 123.43 53.995 123.757 54.135C124.597 54.485 125.344 54.7533 125.997 54.94C126.674 55.1267 127.444 55.22 128.307 55.22C131.364 55.22 132.892 53.7267 132.892 50.74V48.5C132.379 49.4567 131.632 50.2033 130.652 50.74C129.672 51.2533 128.552 51.51 127.292 51.51C125.799 51.51 124.469 51.16 123.302 50.46C122.159 49.7367 121.26 48.7333 120.607 47.45C119.954 46.1667 119.627 44.685 119.627 43.005C119.627 41.325 119.942 39.8433 120.572 38.56C121.225 37.2533 122.135 36.25 123.302 35.55C124.469 34.8267 125.799 34.465 127.292 34.465C128.552 34.465 129.672 34.7333 130.652 35.27C131.632 35.7833 132.379 36.5183 132.892 37.475V36.565C132.892 35.9583 133.09 35.4683 133.487 35.095C133.884 34.7217 134.409 34.535 135.062 34.535ZM128.447 48.115C129.847 48.115 130.932 47.66 131.702 46.75C132.495 45.84 132.892 44.5917 132.892 43.005C132.892 41.395 132.495 40.135 131.702 39.225C130.932 38.315 129.847 37.86 128.447 37.86C127.07 37.86 125.985 38.315 125.192 39.225C124.399 40.135 124.002 41.395 124.002 43.005C124.002 44.5917 124.399 45.84 125.192 46.75C125.985 47.66 127.07 48.115 128.447 48.115ZM23.2767 95.635C23.9533 95.565 24.42 95.39 24.6767 95.11C24.9567 94.83 25.0967 94.3633 25.0967 93.71V75.09C25.0967 74.46 24.9917 74.005 24.7817 73.725C24.5717 73.4217 24.245 73.27 23.8017 73.27H23.0667L22.9267 73.165L23.0667 72.045C23.86 71.9517 24.7583 71.8117 25.7617 71.625C26.765 71.415 27.5933 71.2167 28.2467 71.03L28.4567 71.485C28.2933 71.7417 28.13 72.99 27.9667 75.23C27.8267 77.47 27.71 80.2233 27.6167 83.49C30.2767 81.67 32.0267 80.76 32.8667 80.76C34.3833 80.76 35.5617 81.1567 36.4017 81.95C37.2417 82.7433 37.6617 83.8517 37.6617 85.275C37.6617 85.7417 37.58 86.815 37.4167 88.495C37.2067 91.225 37.1017 92.9167 37.1017 93.57C37.1017 94.2467 37.195 94.7483 37.3817 95.075C37.5683 95.3783 37.8833 95.53 38.3267 95.53L39.5517 95.46L39.6217 95.6L39.3417 97.105C37.8017 97.035 36.7633 97 36.2267 97C35.2933 97 34.0917 97.14 32.6217 97.42L32.7617 95.985C33.4617 95.7983 33.9633 95.53 34.2667 95.18C34.57 94.8067 34.7217 94.3167 34.7217 93.71L34.9317 86.78C34.9317 85.6133 34.675 84.715 34.1617 84.085C33.6717 83.455 32.96 83.14 32.0267 83.14C31.4433 83.14 30.72 83.3267 29.8567 83.7C29.0167 84.0733 28.2583 84.5283 27.5817 85.065C27.5117 87.6783 27.4767 90.5133 27.4767 93.57C27.4767 94.2933 27.57 94.8067 27.7567 95.11C27.9433 95.39 28.27 95.53 28.7367 95.53L29.9617 95.46L30.0317 95.6L29.7167 97.105C28.1067 97.035 27.045 97 26.5317 97C25.5283 97 24.3733 97.0233 23.0667 97.07L23.2767 95.635ZM53.0679 97.42C51.1779 97.42 50.1396 96.475 49.9529 94.585L49.8129 94.55C48.9729 95.39 48.2029 96.055 47.5029 96.545C46.8263 97.035 46.3129 97.28 45.9629 97.28C44.6563 97.28 43.5829 96.8717 42.7429 96.055C41.9029 95.2383 41.4829 94.2 41.4829 92.94C41.4829 92.2633 41.6463 91.6683 41.9729 91.155C42.3229 90.6417 42.7779 90.3033 43.3379 90.14L49.9879 88.32L50.0229 86.78C50.0229 85.6133 49.7546 84.7033 49.2179 84.05C48.6813 83.3967 47.9229 83.07 46.9429 83.07C46.2896 83.07 45.6013 83.2217 44.8779 83.525C44.1546 83.8283 43.4429 84.26 42.7429 84.82L42.5679 84.715L42.1479 83.21C43.2446 82.58 44.3413 82.02 45.4379 81.53C46.5579 81.0167 47.3629 80.76 47.8529 80.76C49.3696 80.76 50.5596 81.1567 51.4229 81.95C52.2863 82.7433 52.7179 83.8517 52.7179 85.275C52.7179 85.7883 52.6363 86.8383 52.4729 88.425C52.2163 90.9917 52.0879 92.625 52.0879 93.325C52.0879 93.8383 52.2163 94.235 52.4729 94.515C52.7296 94.795 53.0796 94.935 53.5229 94.935C53.8963 94.935 54.2813 94.8533 54.6779 94.69C55.0746 94.5033 55.3896 94.2933 55.6229 94.06L56.1129 94.62C55.7629 95.2033 55.3079 95.775 54.7479 96.335C54.2113 96.8717 53.6513 97.2333 53.0679 97.42ZM46.5579 94.9C47.0013 94.9 47.5146 94.7483 48.0979 94.445C48.7046 94.1183 49.2529 93.71 49.7429 93.22L49.9179 89.65L45.1579 91.085C44.4813 91.295 44.1429 91.785 44.1429 92.555C44.1429 93.2317 44.3646 93.7917 44.8079 94.235C45.2746 94.6783 45.8579 94.9 46.5579 94.9ZM57.7167 95.74C58.4167 95.67 58.8833 95.4483 59.1167 95.075C59.35 94.6783 59.4667 93.9317 59.4667 92.835V85.135C59.4667 84.365 59.3617 83.8167 59.1517 83.49C58.9417 83.1633 58.6033 83 58.1367 83C57.95 83 57.7867 83.0117 57.6467 83.035C57.53 83.0583 57.4483 83.0817 57.4017 83.105L57.2267 82.86L57.3317 81.775C58.2183 81.6117 59.1517 81.4133 60.1317 81.18C61.135 80.9467 61.7767 80.795 62.0567 80.725L62.3017 80.935C62.255 81.145 62.185 81.635 62.0917 82.405C61.9983 83.1517 61.9633 83.8633 61.9867 84.54L62.1267 84.645C62.8267 83.5483 63.6433 82.65 64.5767 81.95C65.5333 81.25 66.3617 80.9 67.0617 80.9C67.3883 80.9 67.6333 80.9233 67.7967 80.97C67.9833 80.9933 68.1 81.0167 68.1467 81.04L68.2517 81.18C68.205 81.5067 68.1 82.2067 67.9367 83.28C67.7967 84.33 67.715 85.2983 67.6917 86.185L66.3267 86.29C66.3267 85.3333 66.2567 84.7033 66.1167 84.4C66 84.0733 65.755 83.91 65.3817 83.91C64.8683 83.91 64.32 84.1317 63.7367 84.575C63.1533 84.995 62.6167 85.5667 62.1267 86.29C62.1033 86.9667 62.0567 88.0867 61.9867 89.65C61.9167 91.2133 61.87 92.4733 61.8467 93.43C61.8467 94.2233 61.9633 94.76 62.1967 95.04C62.43 95.32 62.8733 95.46 63.5267 95.46C63.83 95.46 64.1333 95.4483 64.4367 95.425C64.74 95.4017 64.95 95.39 65.0667 95.39L65.1017 95.53L64.7867 97.07C64.5533 97.07 64.0867 97.0583 63.3867 97.035C62.6867 97.0117 61.9633 97 61.2167 97C60.3533 97 59.5717 97.0117 58.8717 97.035C58.1717 97.0817 57.7283 97.1167 57.5417 97.14L57.7167 95.74ZM79.7251 95.985C80.4251 95.7983 80.9268 95.53 81.2301 95.18C81.5334 94.8067 81.6851 94.3167 81.6851 93.71L81.8251 86.78C81.8251 85.6133 81.5684 84.715 81.0551 84.085C80.5651 83.455 79.8534 83.14 78.9201 83.14C78.1734 83.14 77.4151 83.3383 76.6451 83.735C75.8751 84.1083 75.1984 84.5167 74.6151 84.96C74.4051 89.79 74.3001 92.66 74.3001 93.57C74.3001 94.2933 74.3934 94.8067 74.5801 95.11C74.7668 95.39 75.0934 95.53 75.5601 95.53C75.8168 95.53 76.0618 95.5183 76.2951 95.495C76.5284 95.4717 76.6918 95.46 76.7851 95.46L76.8551 95.6L76.5401 97.105C76.3301 97.0817 75.9218 97.0583 75.3151 97.035C74.7084 97.0117 74.0551 97 73.3551 97C72.5851 97 71.8734 97.0117 71.2201 97.035C70.5668 97.0583 70.1234 97.07 69.8901 97.07L70.1001 95.635C70.7768 95.565 71.2434 95.39 71.5001 95.11C71.7801 94.83 71.9201 94.3633 71.9201 93.71V85.17C71.9201 84.3767 71.7918 83.8283 71.5351 83.525C71.2784 83.1983 70.8351 83.035 70.2051 83.035H69.8201L69.7151 82.895L69.8201 81.74C70.8234 81.5767 71.8151 81.39 72.7951 81.18C73.7984 80.9467 74.4401 80.795 74.7201 80.725L74.9301 81.005C74.8834 81.145 74.8134 81.4483 74.7201 81.915C74.6268 82.3583 74.5684 82.825 74.5451 83.315L74.6151 83.42C77.2284 81.6467 78.9434 80.76 79.7601 80.76C80.8801 80.76 81.8251 81.005 82.5951 81.495C83.3651 81.9617 83.9134 82.6383 84.2401 83.525C85.0801 82.9183 86.0251 82.3117 87.0751 81.705C88.1251 81.075 88.9418 80.76 89.5251 80.76C90.9951 80.76 92.1618 81.1683 93.0251 81.985C93.8884 82.8017 94.3201 83.8983 94.3201 85.275C94.3201 85.5083 94.2501 86.5817 94.1101 88.495C93.9234 90.9217 93.8301 92.6133 93.8301 93.57C93.8301 94.2933 93.9234 94.8067 94.1101 95.11C94.2968 95.39 94.6234 95.53 95.0901 95.53C95.3468 95.53 95.5918 95.5183 95.8251 95.495C96.0584 95.4717 96.2218 95.46 96.3151 95.46L96.3851 95.6L96.0701 97.105C95.8601 97.0817 95.4518 97.0583 94.8451 97.035C94.2384 97.0117 93.5851 97 92.8851 97C92.2784 97 91.6018 97.0233 90.8551 97.07C90.1318 97.14 89.6534 97.1867 89.4201 97.21L89.5951 95.775C90.2718 95.6583 90.7501 95.4483 91.0301 95.145C91.3101 94.8417 91.4501 94.3633 91.4501 93.71L91.5901 86.78C91.5901 85.6133 91.3334 84.715 90.8201 84.085C90.3301 83.455 89.6184 83.14 88.6851 83.14C87.4718 83.14 86.0601 83.7233 84.4501 84.89L84.0651 93.57C84.0651 94.2467 84.1584 94.7483 84.3451 95.075C84.5318 95.3783 84.8468 95.53 85.2901 95.53C85.5468 95.53 85.7918 95.5183 86.0251 95.495C86.2584 95.4717 86.4218 95.46 86.5151 95.46L86.5851 95.6L86.3051 97.105C86.0951 97.0817 85.6984 97.0583 85.1151 97.035C84.5318 97.0117 83.8901 97 83.1901 97C82.5834 97 81.8834 97.0583 81.0901 97.175C80.3201 97.2917 79.8184 97.3733 79.5851 97.42L79.7251 95.985ZM104.821 97.42C103.491 97.42 102.313 97.0933 101.286 96.44C100.26 95.7867 99.4545 94.8767 98.8712 93.71C98.3112 92.52 98.0312 91.1667 98.0312 89.65C98.0312 88.0167 98.3812 86.5233 99.0812 85.17C99.8045 83.7933 100.785 82.72 102.021 81.95C103.258 81.1567 104.635 80.76 106.151 80.76C107.458 80.76 108.625 81.0867 109.651 81.74C110.701 82.3933 111.506 83.315 112.066 84.505C112.65 85.6717 112.941 87.0133 112.941 88.53C112.941 90.1633 112.58 91.6683 111.856 93.045C111.156 94.3983 110.188 95.4717 108.951 96.265C107.715 97.035 106.338 97.42 104.821 97.42ZM105.801 95.705C107.108 95.705 108.146 95.18 108.916 94.13C109.686 93.0567 110.071 91.61 110.071 89.79C110.071 88.4133 109.861 87.1883 109.441 86.115C109.021 85.0183 108.426 84.1667 107.656 83.56C106.91 82.9533 106.058 82.65 105.101 82.65C103.795 82.65 102.756 83.1867 101.986 84.26C101.216 85.3333 100.831 86.7917 100.831 88.635C100.831 90.0117 101.041 91.2367 101.461 92.31C101.881 93.3833 102.465 94.2233 103.211 94.83C103.958 95.4133 104.821 95.705 105.801 95.705ZM124.948 95.985C125.648 95.7983 126.149 95.53 126.453 95.18C126.756 94.8067 126.908 94.3167 126.908 93.71L127.048 86.78C127.048 85.6133 126.791 84.715 126.278 84.085C125.788 83.455 125.076 83.14 124.143 83.14C123.396 83.14 122.638 83.3383 121.868 83.735C121.098 84.1083 120.421 84.5167 119.838 84.96C119.628 89.79 119.523 92.66 119.523 93.57C119.523 94.2933 119.616 94.8067 119.803 95.11C119.989 95.39 120.316 95.53 120.783 95.53C121.039 95.53 121.284 95.5183 121.518 95.495C121.751 95.4717 121.914 95.46 122.008 95.46L122.078 95.6L121.763 97.105C121.553 97.0817 121.144 97.0583 120.538 97.035C119.931 97.0117 119.278 97 118.578 97C117.971 97 117.294 97.0233 116.548 97.07C115.824 97.14 115.346 97.1867 115.113 97.21L115.288 95.775C115.964 95.6583 116.443 95.4483 116.723 95.145C117.003 94.8417 117.143 94.3633 117.143 93.71V85.17C117.143 84.3767 117.014 83.8283 116.758 83.525C116.501 83.1983 116.058 83.035 115.428 83.035H115.043L114.938 82.895L115.043 81.74C116.046 81.5767 117.038 81.39 118.018 81.18C119.021 80.9467 119.663 80.795 119.943 80.725L120.153 81.005C120.106 81.145 120.036 81.4483 119.943 81.915C119.849 82.3583 119.791 82.825 119.768 83.315L119.838 83.42C122.498 81.6467 124.213 80.76 124.983 80.76C126.453 80.76 127.619 81.1683 128.483 81.985C129.346 82.8017 129.778 83.8983 129.778 85.275C129.778 85.5083 129.708 86.5817 129.568 88.495C129.381 90.9217 129.288 92.6133 129.288 93.57C129.288 94.2467 129.381 94.7483 129.568 95.075C129.754 95.3783 130.069 95.53 130.513 95.53C130.769 95.53 131.014 95.5183 131.248 95.495C131.481 95.4717 131.644 95.46 131.738 95.46L131.808 95.6L131.528 97.105C131.318 97.0817 130.921 97.0583 130.338 97.035C129.754 97.0117 129.113 97 128.413 97C127.806 97 127.106 97.0583 126.313 97.175C125.543 97.2917 125.041 97.3733 124.808 97.42L124.948 95.985ZM132.588 105.435C132.402 105.435 132.098 105.155 131.678 104.595C131.258 104.058 131.048 103.673 131.048 103.44L131.223 103.195C132.53 103.195 133.743 102.647 134.863 101.55C136.007 100.477 136.987 98.96 137.803 97C136.007 91.3067 134.56 87.0133 133.463 84.12C133.253 83.5367 132.95 83.1167 132.553 82.86C132.18 82.6033 131.69 82.4633 131.083 82.44L131.013 82.3L131.223 81.145L134.128 81.18C134.992 81.18 135.843 81.145 136.683 81.075C137.547 81.005 138.095 80.9583 138.328 80.935L138.398 81.11L138.188 82.195C137.395 82.2183 136.858 82.3 136.578 82.44C136.322 82.5567 136.193 82.7783 136.193 83.105C136.193 83.4783 136.415 84.4467 136.858 86.01C137.325 87.5733 137.803 89.1367 138.293 90.7C138.783 92.24 139.11 93.2433 139.273 93.71H139.413C142.097 87.2933 143.438 83.805 143.438 83.245C143.438 82.6383 142.995 82.335 142.108 82.335H140.498L140.428 82.195L140.638 81.04C140.848 81.0633 141.315 81.0983 142.038 81.145C142.762 81.1683 143.485 81.18 144.208 81.18L147.183 81.145L146.938 82.44C146.425 82.5333 146.028 82.72 145.748 83C145.492 83.2567 145.235 83.735 144.978 84.435L140.533 95.075C139.32 98.015 138.328 100.197 137.558 101.62C136.788 103.043 136.03 104.035 135.283 104.595C134.537 105.178 133.638 105.458 132.588 105.435Z" fill="#373746"/>
</svg>
