<svg width="169" height="136" viewBox="0 0 169 136" fill="none" xmlns="http://www.w3.org/2000/svg">
<path d="M46.4867 31.42C45.6934 31.42 45.0634 31.21 44.5967 30.79C44.1301 30.3467 43.8967 29.775 43.8967 29.075C43.8967 28.375 44.1301 27.815 44.5967 27.395C45.0634 26.975 45.6934 26.765 46.4867 26.765C47.2567 26.765 47.8751 26.975 48.3417 27.395C48.8317 27.815 49.0767 28.375 49.0767 29.075C49.0767 29.775 48.8317 30.3467 48.3417 30.79C47.8751 31.21 47.2567 31.42 46.4867 31.42ZM46.6967 34.885C48.0034 34.885 48.6567 35.4333 48.6567 36.53V50.11C48.6567 50.7867 48.4467 51.3117 48.0267 51.685C47.6301 52.035 47.1167 52.21 46.4867 52.21C45.8567 52.21 45.3317 52.035 44.9117 51.685C44.4917 51.3117 44.2817 50.7867 44.2817 50.11V38.175H37.3517V50.11C37.3517 50.7867 37.1417 51.3 36.7217 51.65C36.3251 52 35.8117 52.175 35.1817 52.175C34.5517 52.175 34.0267 52 33.6067 51.65C33.1867 51.3 32.9767 50.7867 32.9767 50.11V38.175H31.2267C29.9201 38.175 29.2667 37.6267 29.2667 36.53C29.2667 35.4333 29.9201 34.885 31.2267 34.885H32.9767V34.71C32.9767 32.54 33.5484 30.825 34.6917 29.565C35.8584 28.2817 37.4917 27.5467 39.5917 27.36L40.3967 27.29C40.5134 27.2667 40.6884 27.255 40.9217 27.255C42.1584 27.255 42.7767 27.78 42.7767 28.83C42.7767 29.3433 42.6367 29.74 42.3567 30.02C42.0767 30.3 41.6917 30.4633 41.2017 30.51L40.4317 30.58C39.3584 30.6733 38.5767 31.0117 38.0867 31.595C37.5967 32.155 37.3517 32.9833 37.3517 34.08V34.885H46.6967ZM62.4574 34.465C64.5107 34.465 66.039 35.0483 67.0424 36.215C68.0457 37.3817 68.5474 39.1433 68.5474 41.5V50.11C68.5474 50.7633 68.349 51.2767 67.9524 51.65C67.579 52.0233 67.054 52.21 66.3774 52.21C65.7007 52.21 65.164 52.0233 64.7674 51.65C64.3707 51.2767 64.1724 50.7633 64.1724 50.11V41.745C64.1724 40.415 63.9157 39.4467 63.4024 38.84C62.9124 38.2333 62.1307 37.93 61.0574 37.93C59.7974 37.93 58.7824 38.3267 58.0124 39.12C57.2657 39.9133 56.8924 40.975 56.8924 42.305V50.11C56.8924 50.7633 56.694 51.2767 56.2974 51.65C55.9007 52.0233 55.364 52.21 54.6874 52.21C54.0107 52.21 53.474 52.0233 53.0774 51.65C52.704 51.2767 52.5174 50.7633 52.5174 50.11V36.565C52.5174 35.9583 52.7157 35.4683 53.1124 35.095C53.509 34.7217 54.0457 34.535 54.7224 34.535C55.329 34.535 55.819 34.7217 56.1924 35.095C56.589 35.445 56.7874 35.9117 56.7874 36.495V37.44C57.3707 36.4833 58.1524 35.7483 59.1324 35.235C60.1124 34.7217 61.2207 34.465 62.4574 34.465ZM86.571 27.15C87.2243 27.15 87.761 27.3367 88.181 27.71C88.601 28.0833 88.811 28.5733 88.811 29.18V50.11C88.811 50.74 88.6127 51.2417 88.216 51.615C87.8193 51.9883 87.2943 52.175 86.641 52.175C85.9877 52.175 85.4627 51.9883 85.066 51.615C84.6693 51.2417 84.471 50.74 84.471 50.11V49.235C83.9577 50.1917 83.211 50.9383 82.231 51.475C81.2743 52.0117 80.1777 52.28 78.941 52.28C77.471 52.28 76.1527 51.9067 74.986 51.16C73.8427 50.4133 72.9443 49.3633 72.291 48.01C71.661 46.6333 71.346 45.0583 71.346 43.285C71.346 41.5117 71.661 39.96 72.291 38.63C72.9443 37.3 73.8427 36.2733 74.986 35.55C76.1293 34.8267 77.4477 34.465 78.941 34.465C80.1777 34.465 81.2743 34.7217 82.231 35.235C83.1877 35.7483 83.9227 36.4717 84.436 37.405V29.11C84.436 28.5267 84.6227 28.06 84.996 27.71C85.3927 27.3367 85.9177 27.15 86.571 27.15ZM80.096 48.885C81.496 48.885 82.5693 48.4067 83.316 47.45C84.086 46.4933 84.471 45.1283 84.471 43.355C84.471 41.5817 84.086 40.2283 83.316 39.295C82.5693 38.3383 81.5077 37.86 80.131 37.86C78.731 37.86 77.646 38.3267 76.876 39.26C76.106 40.1933 75.721 41.535 75.721 43.285C75.721 45.0583 76.106 46.435 76.876 47.415C77.646 48.395 78.7193 48.885 80.096 48.885ZM94.7815 52.21C94.1515 52.21 93.6265 52.035 93.2065 51.685C92.8099 51.3117 92.6115 50.7867 92.6115 50.11V36.6C92.6115 35.9233 92.8099 35.41 93.2065 35.06C93.6265 34.71 94.1515 34.535 94.7815 34.535C95.4115 34.535 95.9365 34.71 96.3565 35.06C96.7765 35.41 96.9865 35.9233 96.9865 36.6V50.11C96.9865 50.7867 96.7765 51.3117 96.3565 51.685C95.9365 52.035 95.4115 52.21 94.7815 52.21ZM94.7815 31.42C93.9882 31.42 93.3582 31.21 92.8915 30.79C92.4249 30.3467 92.1915 29.775 92.1915 29.075C92.1915 28.375 92.4249 27.815 92.8915 27.395C93.3582 26.975 93.9882 26.765 94.7815 26.765C95.5515 26.765 96.1699 26.975 96.6365 27.395C97.1265 27.815 97.3715 28.375 97.3715 29.075C97.3715 29.775 97.1382 30.3467 96.6715 30.79C96.2049 31.21 95.5749 31.42 94.7815 31.42ZM110.738 34.465C112.792 34.465 114.32 35.0483 115.323 36.215C116.327 37.3817 116.828 39.1433 116.828 41.5V50.11C116.828 50.7633 116.63 51.2767 116.233 51.65C115.86 52.0233 115.335 52.21 114.658 52.21C113.982 52.21 113.445 52.0233 113.048 51.65C112.652 51.2767 112.453 50.7633 112.453 50.11V41.745C112.453 40.415 112.197 39.4467 111.683 38.84C111.193 38.2333 110.412 37.93 109.338 37.93C108.078 37.93 107.063 38.3267 106.293 39.12C105.547 39.9133 105.173 40.975 105.173 42.305V50.11C105.173 50.7633 104.975 51.2767 104.578 51.65C104.182 52.0233 103.645 52.21 102.968 52.21C102.292 52.21 101.755 52.0233 101.358 51.65C100.985 51.2767 100.798 50.7633 100.798 50.11V36.565C100.798 35.9583 100.997 35.4683 101.393 35.095C101.79 34.7217 102.327 34.535 103.003 34.535C103.61 34.535 104.1 34.7217 104.473 35.095C104.87 35.445 105.068 35.9117 105.068 36.495V37.44C105.652 36.4833 106.433 35.7483 107.413 35.235C108.393 34.7217 109.502 34.465 110.738 34.465ZM135.062 34.535C135.715 34.535 136.24 34.7217 136.637 35.095C137.034 35.4683 137.232 35.97 137.232 36.6V50.425C137.232 53.1083 136.485 55.1383 134.992 56.515C133.499 57.8917 131.294 58.58 128.377 58.58C125.834 58.58 123.71 58.1017 122.007 57.145C121.144 56.6317 120.712 56.0133 120.712 55.29C120.712 54.7767 120.829 54.3683 121.062 54.065C121.319 53.7617 121.645 53.61 122.042 53.61C122.252 53.61 122.509 53.6567 122.812 53.75C123.115 53.8667 123.43 53.995 123.757 54.135C124.597 54.485 125.344 54.7533 125.997 54.94C126.674 55.1267 127.444 55.22 128.307 55.22C131.364 55.22 132.892 53.7267 132.892 50.74V48.5C132.379 49.4567 131.632 50.2033 130.652 50.74C129.672 51.2533 128.552 51.51 127.292 51.51C125.799 51.51 124.469 51.16 123.302 50.46C122.159 49.7367 121.26 48.7333 120.607 47.45C119.954 46.1667 119.627 44.685 119.627 43.005C119.627 41.325 119.942 39.8433 120.572 38.56C121.225 37.2533 122.135 36.25 123.302 35.55C124.469 34.8267 125.799 34.465 127.292 34.465C128.552 34.465 129.672 34.7333 130.652 35.27C131.632 35.7833 132.379 36.5183 132.892 37.475V36.565C132.892 35.9583 133.09 35.4683 133.487 35.095C133.884 34.7217 134.409 34.535 135.062 34.535ZM128.447 48.115C129.847 48.115 130.932 47.66 131.702 46.75C132.495 45.84 132.892 44.5917 132.892 43.005C132.892 41.395 132.495 40.135 131.702 39.225C130.932 38.315 129.847 37.86 128.447 37.86C127.07 37.86 125.985 38.315 125.192 39.225C124.399 40.135 124.002 41.395 124.002 43.005C124.002 44.5917 124.399 45.84 125.192 46.75C125.985 47.66 127.07 48.115 128.447 48.115ZM23.7948 80.7476C25.1962 79.0272 27.0191 78.167 29.2636 78.167C33.1715 78.167 35.1425 80.3716 35.1767 84.7808V97H32.015V84.7637C32.0036 83.4307 31.696 82.4451 31.0922 81.8071C30.4997 81.1691 29.5712 80.8501 28.3065 80.8501C27.2812 80.8501 26.3811 81.1235 25.6063 81.6704C24.8316 82.2173 24.2278 82.9351 23.7948 83.8237V97H20.6332V70.75H23.7948V80.7476ZM50.6266 97C50.4443 96.6354 50.2962 95.986 50.1822 95.0518C48.7125 96.5785 46.9579 97.3418 44.9186 97.3418C43.0956 97.3418 41.5974 96.8291 40.4239 95.8037C39.2618 94.7669 38.6808 93.4567 38.6808 91.873C38.6808 89.9476 39.4099 88.4551 40.8683 87.3955C42.338 86.3245 44.4002 85.7891 47.0548 85.7891H50.131V84.3364C50.131 83.2313 49.8006 82.354 49.1397 81.7046C48.4789 81.0438 47.5048 80.7134 46.2174 80.7134C45.0895 80.7134 44.1438 80.9982 43.3805 81.5679C42.6171 82.1375 42.2354 82.8268 42.2354 83.6357H39.0567C39.0567 82.7129 39.3814 81.8242 40.0309 80.9697C40.6917 80.1038 41.5803 79.4202 42.6969 78.9189C43.8248 78.4176 45.061 78.167 46.4054 78.167C48.5359 78.167 50.205 78.7025 51.4127 79.7734C52.6204 80.833 53.247 82.297 53.2926 84.1655V92.6763C53.2926 94.3739 53.509 95.724 53.942 96.7266V97H50.6266ZM45.38 94.5903C46.3712 94.5903 47.3111 94.334 48.1998 93.8213C49.0885 93.3086 49.7322 92.6421 50.131 91.8218V88.0278H47.6529C43.7792 88.0278 41.8424 89.1615 41.8424 91.4287C41.8424 92.4199 42.1728 93.1947 42.8336 93.7529C43.4944 94.3112 44.3432 94.5903 45.38 94.5903ZM66.4866 81.3457C66.0081 81.266 65.4897 81.2261 64.9314 81.2261C62.8579 81.2261 61.4508 82.109 60.7103 83.875V97H57.5486V78.5088H60.6248L60.6761 80.645C61.7129 78.993 63.1826 78.167 65.0853 78.167C65.7005 78.167 66.1676 78.2467 66.4866 78.4062V81.3457ZM71.6826 78.5088L71.7681 80.5596C73.1239 78.9645 74.9525 78.167 77.2539 78.167C79.8402 78.167 81.6004 79.1582 82.5347 81.1406C83.1499 80.252 83.9474 79.5342 84.9272 78.9873C85.9185 78.4404 87.0863 78.167 88.4307 78.167C92.4867 78.167 94.5488 80.3146 94.6172 84.6099V97H91.4556V84.7979C91.4556 83.4762 91.1536 82.4907 90.5498 81.8413C89.946 81.1805 88.932 80.8501 87.5078 80.8501C86.3343 80.8501 85.3602 81.2033 84.5854 81.9097C83.8107 82.6047 83.3607 83.5446 83.2354 84.7295V97H80.0566V84.8833C80.0566 82.1945 78.7407 80.8501 76.1089 80.8501C74.0353 80.8501 72.6169 81.7331 71.8535 83.499V97H68.6919V78.5088H71.6826ZM97.8649 87.5835C97.8649 85.772 98.2181 84.1427 98.9245 82.6958C99.6423 81.2489 100.633 80.1323 101.898 79.3462C103.174 78.5601 104.627 78.167 106.256 78.167C108.774 78.167 110.808 79.0386 112.357 80.7817C113.918 82.5249 114.698 84.8434 114.698 87.7373V87.9595C114.698 89.7596 114.351 91.3774 113.656 92.813C112.972 94.2371 111.987 95.348 110.699 96.1455C109.423 96.943 107.954 97.3418 106.29 97.3418C103.784 97.3418 101.75 96.4702 100.189 94.7271C98.6397 92.9839 97.8649 90.6768 97.8649 87.8057V87.5835ZM101.044 87.9595C101.044 90.0103 101.516 91.6566 102.462 92.8984C103.419 94.1403 104.695 94.7612 106.29 94.7612C107.897 94.7612 109.173 94.1346 110.118 92.8813C111.064 91.6167 111.537 89.8507 111.537 87.5835C111.537 85.5555 111.053 83.9149 110.084 82.6616C109.127 81.397 107.851 80.7646 106.256 80.7646C104.695 80.7646 103.436 81.3856 102.479 82.6274C101.522 83.8693 101.044 85.6466 101.044 87.9595ZM120.954 78.5088L121.057 80.833C122.469 79.0557 124.315 78.167 126.594 78.167C130.502 78.167 132.473 80.3716 132.507 84.7808V97H129.345V84.7637C129.334 83.4307 129.026 82.4451 128.422 81.8071C127.83 81.1691 126.901 80.8501 125.637 80.8501C124.611 80.8501 123.711 81.1235 122.936 81.6704C122.162 82.2173 121.558 82.9351 121.125 83.8237V97H117.963V78.5088H120.954ZM142.625 92.3687L146.931 78.5088H150.315L142.881 99.854C141.73 102.93 139.902 104.468 137.395 104.468L136.797 104.417L135.618 104.195V101.631L136.472 101.7C137.543 101.7 138.375 101.483 138.967 101.05C139.571 100.617 140.067 99.8255 140.454 98.6748L141.155 96.7949L134.558 78.5088H138.01L142.625 92.3687Z" fill="#2A2921"/>
</svg>
