<svg width="169" height="136" viewBox="0 0 169 136" fill="none" xmlns="http://www.w3.org/2000/svg">
<path d="M46.9867 31.42C46.1934 31.42 45.5634 31.21 45.0967 30.79C44.6301 30.3467 44.3967 29.775 44.3967 29.075C44.3967 28.375 44.6301 27.815 45.0967 27.395C45.5634 26.975 46.1934 26.765 46.9867 26.765C47.7567 26.765 48.3751 26.975 48.8417 27.395C49.3317 27.815 49.5767 28.375 49.5767 29.075C49.5767 29.775 49.3317 30.3467 48.8417 30.79C48.3751 31.21 47.7567 31.42 46.9867 31.42ZM47.1967 34.885C48.5034 34.885 49.1567 35.4333 49.1567 36.53V50.11C49.1567 50.7867 48.9467 51.3117 48.5267 51.685C48.1301 52.035 47.6167 52.21 46.9867 52.21C46.3567 52.21 45.8317 52.035 45.4117 51.685C44.9917 51.3117 44.7817 50.7867 44.7817 50.11V38.175H37.8517V50.11C37.8517 50.7867 37.6417 51.3 37.2217 51.65C36.8251 52 36.3117 52.175 35.6817 52.175C35.0517 52.175 34.5267 52 34.1067 51.65C33.6867 51.3 33.4767 50.7867 33.4767 50.11V38.175H31.7267C30.4201 38.175 29.7667 37.6267 29.7667 36.53C29.7667 35.4333 30.4201 34.885 31.7267 34.885H33.4767V34.71C33.4767 32.54 34.0484 30.825 35.1917 29.565C36.3584 28.2817 37.9917 27.5467 40.0917 27.36L40.8967 27.29C41.0134 27.2667 41.1884 27.255 41.4217 27.255C42.6584 27.255 43.2767 27.78 43.2767 28.83C43.2767 29.3433 43.1367 29.74 42.8567 30.02C42.5767 30.3 42.1917 30.4633 41.7017 30.51L40.9317 30.58C39.8584 30.6733 39.0767 31.0117 38.5867 31.595C38.0967 32.155 37.8517 32.9833 37.8517 34.08V34.885H47.1967ZM62.9574 34.465C65.0107 34.465 66.539 35.0483 67.5424 36.215C68.5457 37.3817 69.0474 39.1433 69.0474 41.5V50.11C69.0474 50.7633 68.849 51.2767 68.4524 51.65C68.079 52.0233 67.554 52.21 66.8774 52.21C66.2007 52.21 65.664 52.0233 65.2674 51.65C64.8707 51.2767 64.6724 50.7633 64.6724 50.11V41.745C64.6724 40.415 64.4157 39.4467 63.9024 38.84C63.4124 38.2333 62.6307 37.93 61.5574 37.93C60.2974 37.93 59.2824 38.3267 58.5124 39.12C57.7657 39.9133 57.3924 40.975 57.3924 42.305V50.11C57.3924 50.7633 57.194 51.2767 56.7974 51.65C56.4007 52.0233 55.864 52.21 55.1874 52.21C54.5107 52.21 53.974 52.0233 53.5774 51.65C53.204 51.2767 53.0174 50.7633 53.0174 50.11V36.565C53.0174 35.9583 53.2157 35.4683 53.6124 35.095C54.009 34.7217 54.5457 34.535 55.2224 34.535C55.829 34.535 56.319 34.7217 56.6924 35.095C57.089 35.445 57.2874 35.9117 57.2874 36.495V37.44C57.8707 36.4833 58.6524 35.7483 59.6324 35.235C60.6124 34.7217 61.7207 34.465 62.9574 34.465ZM87.071 27.15C87.7243 27.15 88.261 27.3367 88.681 27.71C89.101 28.0833 89.311 28.5733 89.311 29.18V50.11C89.311 50.74 89.1127 51.2417 88.716 51.615C88.3193 51.9883 87.7943 52.175 87.141 52.175C86.4877 52.175 85.9627 51.9883 85.566 51.615C85.1693 51.2417 84.971 50.74 84.971 50.11V49.235C84.4577 50.1917 83.711 50.9383 82.731 51.475C81.7743 52.0117 80.6777 52.28 79.441 52.28C77.971 52.28 76.6527 51.9067 75.486 51.16C74.3427 50.4133 73.4443 49.3633 72.791 48.01C72.161 46.6333 71.846 45.0583 71.846 43.285C71.846 41.5117 72.161 39.96 72.791 38.63C73.4443 37.3 74.3427 36.2733 75.486 35.55C76.6293 34.8267 77.9477 34.465 79.441 34.465C80.6777 34.465 81.7743 34.7217 82.731 35.235C83.6877 35.7483 84.4227 36.4717 84.936 37.405V29.11C84.936 28.5267 85.1227 28.06 85.496 27.71C85.8927 27.3367 86.4177 27.15 87.071 27.15ZM80.596 48.885C81.996 48.885 83.0693 48.4067 83.816 47.45C84.586 46.4933 84.971 45.1283 84.971 43.355C84.971 41.5817 84.586 40.2283 83.816 39.295C83.0693 38.3383 82.0077 37.86 80.631 37.86C79.231 37.86 78.146 38.3267 77.376 39.26C76.606 40.1933 76.221 41.535 76.221 43.285C76.221 45.0583 76.606 46.435 77.376 47.415C78.146 48.395 79.2193 48.885 80.596 48.885ZM95.2815 52.21C94.6515 52.21 94.1265 52.035 93.7065 51.685C93.3099 51.3117 93.1115 50.7867 93.1115 50.11V36.6C93.1115 35.9233 93.3099 35.41 93.7065 35.06C94.1265 34.71 94.6515 34.535 95.2815 34.535C95.9115 34.535 96.4365 34.71 96.8565 35.06C97.2765 35.41 97.4865 35.9233 97.4865 36.6V50.11C97.4865 50.7867 97.2765 51.3117 96.8565 51.685C96.4365 52.035 95.9115 52.21 95.2815 52.21ZM95.2815 31.42C94.4882 31.42 93.8582 31.21 93.3915 30.79C92.9249 30.3467 92.6915 29.775 92.6915 29.075C92.6915 28.375 92.9249 27.815 93.3915 27.395C93.8582 26.975 94.4882 26.765 95.2815 26.765C96.0515 26.765 96.6699 26.975 97.1365 27.395C97.6265 27.815 97.8715 28.375 97.8715 29.075C97.8715 29.775 97.6382 30.3467 97.1715 30.79C96.7049 31.21 96.0749 31.42 95.2815 31.42ZM111.238 34.465C113.292 34.465 114.82 35.0483 115.823 36.215C116.827 37.3817 117.328 39.1433 117.328 41.5V50.11C117.328 50.7633 117.13 51.2767 116.733 51.65C116.36 52.0233 115.835 52.21 115.158 52.21C114.482 52.21 113.945 52.0233 113.548 51.65C113.152 51.2767 112.953 50.7633 112.953 50.11V41.745C112.953 40.415 112.697 39.4467 112.183 38.84C111.693 38.2333 110.912 37.93 109.838 37.93C108.578 37.93 107.563 38.3267 106.793 39.12C106.047 39.9133 105.673 40.975 105.673 42.305V50.11C105.673 50.7633 105.475 51.2767 105.078 51.65C104.682 52.0233 104.145 52.21 103.468 52.21C102.792 52.21 102.255 52.0233 101.858 51.65C101.485 51.2767 101.298 50.7633 101.298 50.11V36.565C101.298 35.9583 101.497 35.4683 101.893 35.095C102.29 34.7217 102.827 34.535 103.503 34.535C104.11 34.535 104.6 34.7217 104.973 35.095C105.37 35.445 105.568 35.9117 105.568 36.495V37.44C106.152 36.4833 106.933 35.7483 107.913 35.235C108.893 34.7217 110.002 34.465 111.238 34.465ZM135.562 34.535C136.215 34.535 136.74 34.7217 137.137 35.095C137.534 35.4683 137.732 35.97 137.732 36.6V50.425C137.732 53.1083 136.985 55.1383 135.492 56.515C133.999 57.8917 131.794 58.58 128.877 58.58C126.334 58.58 124.21 58.1017 122.507 57.145C121.644 56.6317 121.212 56.0133 121.212 55.29C121.212 54.7767 121.329 54.3683 121.562 54.065C121.819 53.7617 122.145 53.61 122.542 53.61C122.752 53.61 123.009 53.6567 123.312 53.75C123.615 53.8667 123.93 53.995 124.257 54.135C125.097 54.485 125.844 54.7533 126.497 54.94C127.174 55.1267 127.944 55.22 128.807 55.22C131.864 55.22 133.392 53.7267 133.392 50.74V48.5C132.879 49.4567 132.132 50.2033 131.152 50.74C130.172 51.2533 129.052 51.51 127.792 51.51C126.299 51.51 124.969 51.16 123.802 50.46C122.659 49.7367 121.76 48.7333 121.107 47.45C120.454 46.1667 120.127 44.685 120.127 43.005C120.127 41.325 120.442 39.8433 121.072 38.56C121.725 37.2533 122.635 36.25 123.802 35.55C124.969 34.8267 126.299 34.465 127.792 34.465C129.052 34.465 130.172 34.7333 131.152 35.27C132.132 35.7833 132.879 36.5183 133.392 37.475V36.565C133.392 35.9583 133.59 35.4683 133.987 35.095C134.384 34.7217 134.909 34.535 135.562 34.535ZM128.947 48.115C130.347 48.115 131.432 47.66 132.202 46.75C132.995 45.84 133.392 44.5917 133.392 43.005C133.392 41.395 132.995 40.135 132.202 39.225C131.432 38.315 130.347 37.86 128.947 37.86C127.57 37.86 126.485 38.315 125.692 39.225C124.899 40.135 124.502 41.395 124.502 43.005C124.502 44.5917 124.899 45.84 125.692 46.75C126.485 47.66 127.57 48.115 128.947 48.115ZM27.1748 95.95C27.8981 95.95 28.3998 95.775 28.6798 95.425C28.9598 95.0517 29.1231 94.55 29.1698 93.92C29.2165 93.2667 29.2398 92.52 29.2398 91.68V86.78C29.2398 84.7733 28.9131 83.2683 28.2598 82.265C27.6298 81.2617 26.6265 80.7717 25.2498 80.795C24.3865 80.8183 23.5348 81.0283 22.6948 81.425C21.8781 81.8217 21.2131 82.335 20.6998 82.965V93.29C20.6998 93.7567 20.6881 94.1767 20.6648 94.55C20.6415 94.9 20.5948 95.2733 20.5248 95.67C20.8981 95.6467 21.2598 95.635 21.6098 95.635C21.9831 95.6117 22.3565 95.5883 22.7298 95.565V97H15.5898V95.95C16.3131 95.95 16.8148 95.775 17.0948 95.425C17.3748 95.0517 17.5381 94.55 17.5848 93.92C17.6548 93.2667 17.6898 92.52 17.6898 91.68V75.125C17.6898 74.7517 17.6898 74.4017 17.6898 74.075C17.7131 73.725 17.7481 73.3167 17.7948 72.85C17.3748 72.8733 16.9548 72.8967 16.5348 72.92C16.1381 72.9433 15.7298 72.9667 15.3098 72.99V71.52C16.3365 71.52 17.1298 71.4733 17.6898 71.38C18.2731 71.2867 18.7048 71.17 18.9848 71.03C19.2881 70.89 19.5215 70.7383 19.6848 70.575H20.6998V81.25C21.4698 80.5967 22.3681 80.0483 23.3948 79.605C24.4215 79.1617 25.4365 78.94 26.4398 78.94C28.4698 78.94 29.9281 79.5817 30.8148 80.865C31.7248 82.125 32.1915 84.0967 32.2148 86.78L32.2498 93.29C32.2498 93.7567 32.2381 94.1767 32.2148 94.55C32.2148 94.9 32.1798 95.2733 32.1098 95.67C32.4831 95.6467 32.8448 95.635 33.1948 95.635C33.5681 95.6117 33.9415 95.5883 34.3148 95.565V97H27.1748V95.95ZM46.832 97C46.762 96.6033 46.7153 96.2533 46.692 95.95C46.6686 95.6467 46.6336 95.3317 46.587 95.005C45.7936 95.7983 44.9303 96.4283 43.997 96.895C43.087 97.3383 42.1186 97.56 41.092 97.56C39.3186 97.56 38.0003 97.1633 37.137 96.37C36.2736 95.5533 35.842 94.5617 35.842 93.395C35.842 92.3217 36.1686 91.4 36.822 90.63C37.4986 89.8367 38.362 89.195 39.412 88.705C40.4853 88.1917 41.6403 87.8183 42.877 87.585C44.137 87.3283 45.3503 87.2117 46.517 87.235V85.065C46.517 84.2483 46.447 83.4783 46.307 82.755C46.167 82.0317 45.8636 81.4367 45.397 80.97C44.9303 80.5033 44.1836 80.2583 43.157 80.235C42.4803 80.2117 41.7803 80.34 41.057 80.62C40.357 80.9 39.8436 81.3783 39.517 82.055C39.7036 82.2417 39.8203 82.4633 39.867 82.72C39.937 82.9533 39.972 83.175 39.972 83.385C39.972 83.665 39.8553 83.9917 39.622 84.365C39.3886 84.715 38.9803 84.8783 38.397 84.855C37.907 84.855 37.5336 84.6917 37.277 84.365C37.0203 84.015 36.892 83.6067 36.892 83.14C36.892 82.3467 37.1836 81.635 37.767 81.005C38.3736 80.375 39.202 79.8733 40.252 79.5C41.302 79.1267 42.492 78.94 43.822 78.94C45.782 78.94 47.2286 79.465 48.162 80.515C49.0953 81.5417 49.5503 83.175 49.527 85.415C49.527 86.7217 49.5153 88.04 49.492 89.37C49.492 90.6767 49.492 91.9833 49.492 93.29C49.492 93.6633 49.4803 94.0367 49.457 94.41C49.4336 94.7833 49.3986 95.2033 49.352 95.67C49.772 95.6467 50.1803 95.6233 50.577 95.6C50.997 95.5767 51.417 95.5533 51.837 95.53V97H46.832ZM46.517 88.425C45.7236 88.4483 44.8836 88.5533 43.997 88.74C43.1336 88.9033 42.3286 89.16 41.582 89.51C40.8586 89.86 40.2636 90.3267 39.797 90.91C39.3536 91.47 39.1436 92.1583 39.167 92.975C39.2136 93.8383 39.4936 94.4917 40.007 94.935C40.5436 95.355 41.1736 95.565 41.897 95.565C42.8536 95.565 43.682 95.39 44.382 95.04C45.1053 94.6667 45.817 94.1533 46.517 93.5C46.4936 93.2433 46.482 92.9633 46.482 92.66C46.482 92.3567 46.482 92.0417 46.482 91.715C46.482 91.5983 46.482 91.225 46.482 90.595C46.5053 89.965 46.517 89.2417 46.517 88.425ZM53.5388 95.95C54.2622 95.95 54.7638 95.775 55.0438 95.425C55.3238 95.0517 55.4872 94.55 55.5338 93.92C55.5805 93.2667 55.6038 92.52 55.6038 91.68V83.7C55.6038 83.3267 55.6038 82.9533 55.6038 82.58C55.6272 82.2067 55.6738 81.8217 55.7438 81.425C55.3238 81.4483 54.9038 81.4717 54.4838 81.495C54.0872 81.495 53.6788 81.5067 53.2588 81.53V80.095H54.3438C55.3472 80.095 56.0355 80.0017 56.4088 79.815C56.8055 79.605 57.1322 79.3833 57.3888 79.15H58.4038C58.4505 79.5233 58.4855 79.99 58.5088 80.55C58.5322 81.0867 58.5555 81.775 58.5788 82.615C58.9288 82.0317 59.4072 81.46 60.0138 80.9C60.6205 80.34 61.2972 79.8733 62.0438 79.5C62.8138 79.1267 63.6188 78.94 64.4588 78.94C65.1122 78.94 65.6838 79.115 66.1738 79.465C66.6638 79.815 66.9088 80.375 66.9088 81.145C66.9088 81.4483 66.7688 81.81 66.4888 82.23C66.2322 82.65 65.7888 82.8483 65.1588 82.825C64.6455 82.8017 64.2372 82.6033 63.9338 82.23C63.6305 81.8333 63.5138 81.3783 63.5838 80.865C62.6972 80.8183 61.7988 81.1567 60.8888 81.88C59.9788 82.6033 59.2205 83.5367 58.6138 84.68L58.6488 93.29C58.6488 93.7567 58.6372 94.1767 58.6138 94.55C58.6138 94.9 58.5788 95.2733 58.5088 95.67C58.8822 95.6467 59.2438 95.635 59.5938 95.635C59.9672 95.6117 60.3405 95.5883 60.7138 95.565V97H53.5388V95.95ZM67.9804 97V95.95C68.7038 95.95 69.2054 95.775 69.4854 95.425C69.7654 95.0517 69.9288 94.55 69.9754 93.92C70.0221 93.2667 70.0454 92.52 70.0454 91.68V83.7C70.0454 83.3267 70.0454 82.9533 70.0454 82.58C70.0688 82.2067 70.1154 81.8217 70.1854 81.425C69.7654 81.4483 69.3454 81.4717 68.9254 81.495C68.5288 81.5183 68.1204 81.5417 67.7004 81.565V80.095C68.7271 80.095 69.4971 80.0483 70.0104 79.955C70.5471 79.8617 70.9438 79.745 71.2004 79.605C71.4571 79.465 71.6671 79.3133 71.8304 79.15H72.8454C72.8921 79.3833 72.9154 79.6517 72.9154 79.955C72.9388 80.2583 72.9621 80.6083 72.9854 81.005C73.6854 80.3983 74.4904 79.9083 75.4004 79.535C76.3104 79.1383 77.2204 78.94 78.1304 78.94C79.2971 78.94 80.2771 79.15 81.0704 79.57C81.8638 79.99 82.4821 80.5617 82.9254 81.285C83.7188 80.6317 84.6288 80.0833 85.6554 79.64C86.7054 79.1733 87.7321 78.94 88.7354 78.94C90.7654 78.94 92.2588 79.5583 93.2154 80.795C94.1721 82.0083 94.6271 84.0033 94.5804 86.78L94.5454 93.29C94.5454 93.7567 94.5338 94.1767 94.5104 94.55C94.5104 94.9 94.4754 95.2733 94.4054 95.67C94.7788 95.6467 95.1404 95.635 95.4904 95.635C95.8638 95.6117 96.2371 95.5883 96.6104 95.565V97H89.4704V95.95C90.1938 95.95 90.6954 95.775 90.9754 95.425C91.2554 95.0517 91.4188 94.55 91.4654 93.92C91.5121 93.2667 91.5354 92.52 91.5354 91.68V86.78C91.5354 84.7733 91.2088 83.2683 90.5554 82.265C89.9254 81.2617 88.9221 80.7717 87.5454 80.795C86.8221 80.795 86.0988 80.9583 85.3754 81.285C84.6521 81.6117 84.0221 82.02 83.4854 82.51C83.6021 82.8833 83.6838 83.2917 83.7304 83.735C83.8004 84.155 83.8354 84.5983 83.8354 85.065C83.8121 86.4183 83.8004 87.7833 83.8004 89.16C83.8004 90.5367 83.7888 91.9133 83.7654 93.29C83.7654 93.7567 83.7538 94.1767 83.7304 94.55C83.7304 94.9 83.6954 95.2733 83.6254 95.67C83.9988 95.6467 84.3604 95.635 84.7104 95.635C85.0838 95.6117 85.4571 95.5883 85.8304 95.565V97H78.6904V95.95C79.4138 95.95 79.9038 95.775 80.1604 95.425C80.4404 95.0517 80.6038 94.55 80.6504 93.92C80.7204 93.2667 80.7554 92.52 80.7554 91.68L80.7904 86.78C80.8138 84.7733 80.5221 83.2567 79.9154 82.23C79.3088 81.2033 78.3171 80.7017 76.9404 80.725C76.2171 80.725 75.5054 80.8883 74.8054 81.215C74.1054 81.5183 73.5104 81.915 73.0204 82.405C73.0204 82.685 73.0204 82.9883 73.0204 83.315C73.0438 83.6183 73.0554 83.945 73.0554 84.295V93.29C73.0554 93.7567 73.0438 94.1767 73.0204 94.55C73.0204 94.9 72.9854 95.2733 72.9154 95.67C73.2888 95.6467 73.6504 95.635 74.0004 95.635C74.3738 95.6117 74.7471 95.5883 75.1204 95.565V97H67.9804ZM107.235 97.56C105.602 97.56 104.12 97.1867 102.79 96.44C101.46 95.67 100.398 94.62 99.6048 93.29C98.8348 91.9367 98.4498 90.3967 98.4498 88.67C98.4498 86.8267 98.8348 85.17 99.6048 83.7C100.375 82.23 101.425 81.075 102.755 80.235C104.085 79.3717 105.578 78.94 107.235 78.94C108.868 78.94 110.35 79.3367 111.68 80.13C113.01 80.9 114.072 81.95 114.865 83.28C115.658 84.61 116.055 86.1267 116.055 87.83C116.055 89.6267 115.658 91.2717 114.865 92.765C114.095 94.235 113.045 95.4017 111.715 96.265C110.385 97.1283 108.892 97.56 107.235 97.56ZM107.515 96.16C108.752 96.16 109.732 95.81 110.455 95.11C111.178 94.41 111.692 93.5 111.995 92.38C112.322 91.26 112.485 90.0817 112.485 88.845C112.485 87.795 112.38 86.7683 112.17 85.765C111.983 84.7383 111.68 83.8167 111.26 83C110.84 82.16 110.292 81.495 109.615 81.005C108.962 80.515 108.168 80.27 107.235 80.27C106.022 80.27 105.03 80.62 104.26 81.32C103.49 82.02 102.918 82.93 102.545 84.05C102.195 85.17 102.02 86.3717 102.02 87.655C102.02 89.1017 102.218 90.4783 102.615 91.785C103.012 93.0683 103.618 94.1183 104.435 94.935C105.252 95.7517 106.278 96.16 107.515 96.16ZM118.328 97V95.95C119.052 95.95 119.553 95.775 119.833 95.425C120.113 95.0517 120.277 94.55 120.323 93.92C120.37 93.2667 120.393 92.52 120.393 91.68L120.428 83.7C120.428 83.3267 120.428 82.9533 120.428 82.58C120.452 82.2067 120.498 81.8217 120.568 81.425C120.148 81.4483 119.728 81.4717 119.308 81.495C118.912 81.5183 118.503 81.5417 118.083 81.565V80.095C119.11 80.095 119.88 80.0483 120.393 79.955C120.93 79.8617 121.327 79.745 121.583 79.605C121.84 79.465 122.05 79.3133 122.213 79.15H123.228C123.275 79.4067 123.298 79.71 123.298 80.06C123.322 80.3867 123.345 80.795 123.368 81.285C124.115 80.6083 125.002 80.0483 126.028 79.605C127.055 79.1617 128.07 78.94 129.073 78.94C131.103 78.94 132.585 79.5817 133.518 80.865C134.452 82.125 134.918 84.0967 134.918 86.78V93.29C134.918 93.7567 134.907 94.1767 134.883 94.55C134.883 94.9 134.848 95.2733 134.778 95.67C135.152 95.6467 135.513 95.635 135.863 95.635C136.237 95.6117 136.61 95.5883 136.983 95.565V97H129.843V95.95C130.567 95.95 131.068 95.775 131.348 95.425C131.628 95.0517 131.792 94.55 131.838 93.92C131.885 93.2667 131.908 92.52 131.908 91.68V86.78C131.885 84.7733 131.547 83.2567 130.893 82.23C130.263 81.2033 129.26 80.7017 127.883 80.725C127.043 80.7483 126.215 80.97 125.398 81.39C124.605 81.81 123.94 82.3467 123.403 83C123.427 83.1867 123.438 83.3967 123.438 83.63C123.438 83.8633 123.438 84.1083 123.438 84.365L123.403 93.29C123.403 93.7567 123.392 94.1767 123.368 94.55C123.368 94.9 123.333 95.2733 123.263 95.67C123.637 95.6467 123.998 95.635 124.348 95.635C124.722 95.6117 125.095 95.5883 125.468 95.565V97H118.328ZM141.344 106.485C140.621 106.485 140.002 106.31 139.489 105.96C138.976 105.61 138.719 105.073 138.719 104.35C138.719 103.93 138.859 103.545 139.139 103.195C139.419 102.845 139.781 102.67 140.224 102.67C140.784 102.647 141.157 102.822 141.344 103.195C141.554 103.568 141.659 103.895 141.659 104.175C141.659 104.245 141.659 104.315 141.659 104.385C141.659 104.478 141.647 104.572 141.624 104.665C141.694 104.712 141.822 104.735 142.009 104.735C142.289 104.735 142.592 104.618 142.919 104.385C143.246 104.152 143.537 103.813 143.794 103.37C144.097 102.857 144.447 102.087 144.844 101.06C145.264 100.033 145.731 98.8083 146.244 97.385L140.784 85.695C140.177 84.3883 139.734 83.35 139.454 82.58C139.197 81.81 139.022 81.2383 138.929 80.865L137.249 80.935V79.5H144.494V80.55H144.354C143.374 80.62 142.837 80.9933 142.744 81.67C142.651 82.3233 142.919 83.3267 143.549 84.68L147.644 93.465C148.181 91.9717 148.694 90.5017 149.184 89.055C149.674 87.585 150.164 86.1267 150.654 84.68C150.841 84.1667 151.027 83.6417 151.214 83.105C151.424 82.545 151.622 82.055 151.809 81.635C152.019 81.1917 152.206 80.9117 152.369 80.795L149.954 80.935V79.5H155.449V80.55C154.586 80.8767 153.932 81.425 153.489 82.195C153.069 82.9417 152.637 83.91 152.194 85.1L147.819 97.315C147.119 99.275 146.477 100.932 145.894 102.285C145.311 103.662 144.669 104.7 143.969 105.4C143.269 106.123 142.394 106.485 141.344 106.485Z" fill="#2A2921"/>
</svg>
