<svg width="169" height="136" viewBox="0 0 169 136" fill="none" xmlns="http://www.w3.org/2000/svg">
<path d="M46.9867 31.42C46.1934 31.42 45.5634 31.21 45.0967 30.79C44.6301 30.3467 44.3967 29.775 44.3967 29.075C44.3967 28.375 44.6301 27.815 45.0967 27.395C45.5634 26.975 46.1934 26.765 46.9867 26.765C47.7567 26.765 48.3751 26.975 48.8417 27.395C49.3317 27.815 49.5767 28.375 49.5767 29.075C49.5767 29.775 49.3317 30.3467 48.8417 30.79C48.3751 31.21 47.7567 31.42 46.9867 31.42ZM47.1967 34.885C48.5034 34.885 49.1567 35.4333 49.1567 36.53V50.11C49.1567 50.7867 48.9467 51.3117 48.5267 51.685C48.1301 52.035 47.6167 52.21 46.9867 52.21C46.3567 52.21 45.8317 52.035 45.4117 51.685C44.9917 51.3117 44.7817 50.7867 44.7817 50.11V38.175H37.8517V50.11C37.8517 50.7867 37.6417 51.3 37.2217 51.65C36.8251 52 36.3117 52.175 35.6817 52.175C35.0517 52.175 34.5267 52 34.1067 51.65C33.6867 51.3 33.4767 50.7867 33.4767 50.11V38.175H31.7267C30.4201 38.175 29.7667 37.6267 29.7667 36.53C29.7667 35.4333 30.4201 34.885 31.7267 34.885H33.4767V34.71C33.4767 32.54 34.0484 30.825 35.1917 29.565C36.3584 28.2817 37.9917 27.5467 40.0917 27.36L40.8967 27.29C41.0134 27.2667 41.1884 27.255 41.4217 27.255C42.6584 27.255 43.2767 27.78 43.2767 28.83C43.2767 29.3433 43.1367 29.74 42.8567 30.02C42.5767 30.3 42.1917 30.4633 41.7017 30.51L40.9317 30.58C39.8584 30.6733 39.0767 31.0117 38.5867 31.595C38.0967 32.155 37.8517 32.9833 37.8517 34.08V34.885H47.1967ZM62.9574 34.465C65.0107 34.465 66.539 35.0483 67.5424 36.215C68.5457 37.3817 69.0474 39.1433 69.0474 41.5V50.11C69.0474 50.7633 68.849 51.2767 68.4524 51.65C68.079 52.0233 67.554 52.21 66.8774 52.21C66.2007 52.21 65.664 52.0233 65.2674 51.65C64.8707 51.2767 64.6724 50.7633 64.6724 50.11V41.745C64.6724 40.415 64.4157 39.4467 63.9024 38.84C63.4124 38.2333 62.6307 37.93 61.5574 37.93C60.2974 37.93 59.2824 38.3267 58.5124 39.12C57.7657 39.9133 57.3924 40.975 57.3924 42.305V50.11C57.3924 50.7633 57.194 51.2767 56.7974 51.65C56.4007 52.0233 55.864 52.21 55.1874 52.21C54.5107 52.21 53.974 52.0233 53.5774 51.65C53.204 51.2767 53.0174 50.7633 53.0174 50.11V36.565C53.0174 35.9583 53.2157 35.4683 53.6124 35.095C54.009 34.7217 54.5457 34.535 55.2224 34.535C55.829 34.535 56.319 34.7217 56.6924 35.095C57.089 35.445 57.2874 35.9117 57.2874 36.495V37.44C57.8707 36.4833 58.6524 35.7483 59.6324 35.235C60.6124 34.7217 61.7207 34.465 62.9574 34.465ZM87.071 27.15C87.7243 27.15 88.261 27.3367 88.681 27.71C89.101 28.0833 89.311 28.5733 89.311 29.18V50.11C89.311 50.74 89.1127 51.2417 88.716 51.615C88.3193 51.9883 87.7943 52.175 87.141 52.175C86.4877 52.175 85.9627 51.9883 85.566 51.615C85.1693 51.2417 84.971 50.74 84.971 50.11V49.235C84.4577 50.1917 83.711 50.9383 82.731 51.475C81.7743 52.0117 80.6777 52.28 79.441 52.28C77.971 52.28 76.6527 51.9067 75.486 51.16C74.3427 50.4133 73.4443 49.3633 72.791 48.01C72.161 46.6333 71.846 45.0583 71.846 43.285C71.846 41.5117 72.161 39.96 72.791 38.63C73.4443 37.3 74.3427 36.2733 75.486 35.55C76.6293 34.8267 77.9477 34.465 79.441 34.465C80.6777 34.465 81.7743 34.7217 82.731 35.235C83.6877 35.7483 84.4227 36.4717 84.936 37.405V29.11C84.936 28.5267 85.1227 28.06 85.496 27.71C85.8927 27.3367 86.4177 27.15 87.071 27.15ZM80.596 48.885C81.996 48.885 83.0693 48.4067 83.816 47.45C84.586 46.4933 84.971 45.1283 84.971 43.355C84.971 41.5817 84.586 40.2283 83.816 39.295C83.0693 38.3383 82.0077 37.86 80.631 37.86C79.231 37.86 78.146 38.3267 77.376 39.26C76.606 40.1933 76.221 41.535 76.221 43.285C76.221 45.0583 76.606 46.435 77.376 47.415C78.146 48.395 79.2193 48.885 80.596 48.885ZM95.2815 52.21C94.6515 52.21 94.1265 52.035 93.7065 51.685C93.3099 51.3117 93.1115 50.7867 93.1115 50.11V36.6C93.1115 35.9233 93.3099 35.41 93.7065 35.06C94.1265 34.71 94.6515 34.535 95.2815 34.535C95.9115 34.535 96.4365 34.71 96.8565 35.06C97.2765 35.41 97.4865 35.9233 97.4865 36.6V50.11C97.4865 50.7867 97.2765 51.3117 96.8565 51.685C96.4365 52.035 95.9115 52.21 95.2815 52.21ZM95.2815 31.42C94.4882 31.42 93.8582 31.21 93.3915 30.79C92.9249 30.3467 92.6915 29.775 92.6915 29.075C92.6915 28.375 92.9249 27.815 93.3915 27.395C93.8582 26.975 94.4882 26.765 95.2815 26.765C96.0515 26.765 96.6699 26.975 97.1365 27.395C97.6265 27.815 97.8715 28.375 97.8715 29.075C97.8715 29.775 97.6382 30.3467 97.1715 30.79C96.7049 31.21 96.0749 31.42 95.2815 31.42ZM111.238 34.465C113.292 34.465 114.82 35.0483 115.823 36.215C116.827 37.3817 117.328 39.1433 117.328 41.5V50.11C117.328 50.7633 117.13 51.2767 116.733 51.65C116.36 52.0233 115.835 52.21 115.158 52.21C114.482 52.21 113.945 52.0233 113.548 51.65C113.152 51.2767 112.953 50.7633 112.953 50.11V41.745C112.953 40.415 112.697 39.4467 112.183 38.84C111.693 38.2333 110.912 37.93 109.838 37.93C108.578 37.93 107.563 38.3267 106.793 39.12C106.047 39.9133 105.673 40.975 105.673 42.305V50.11C105.673 50.7633 105.475 51.2767 105.078 51.65C104.682 52.0233 104.145 52.21 103.468 52.21C102.792 52.21 102.255 52.0233 101.858 51.65C101.485 51.2767 101.298 50.7633 101.298 50.11V36.565C101.298 35.9583 101.497 35.4683 101.893 35.095C102.29 34.7217 102.827 34.535 103.503 34.535C104.11 34.535 104.6 34.7217 104.973 35.095C105.37 35.445 105.568 35.9117 105.568 36.495V37.44C106.152 36.4833 106.933 35.7483 107.913 35.235C108.893 34.7217 110.002 34.465 111.238 34.465ZM135.562 34.535C136.215 34.535 136.74 34.7217 137.137 35.095C137.534 35.4683 137.732 35.97 137.732 36.6V50.425C137.732 53.1083 136.985 55.1383 135.492 56.515C133.999 57.8917 131.794 58.58 128.877 58.58C126.334 58.58 124.21 58.1017 122.507 57.145C121.644 56.6317 121.212 56.0133 121.212 55.29C121.212 54.7767 121.329 54.3683 121.562 54.065C121.819 53.7617 122.145 53.61 122.542 53.61C122.752 53.61 123.009 53.6567 123.312 53.75C123.615 53.8667 123.93 53.995 124.257 54.135C125.097 54.485 125.844 54.7533 126.497 54.94C127.174 55.1267 127.944 55.22 128.807 55.22C131.864 55.22 133.392 53.7267 133.392 50.74V48.5C132.879 49.4567 132.132 50.2033 131.152 50.74C130.172 51.2533 129.052 51.51 127.792 51.51C126.299 51.51 124.969 51.16 123.802 50.46C122.659 49.7367 121.76 48.7333 121.107 47.45C120.454 46.1667 120.127 44.685 120.127 43.005C120.127 41.325 120.442 39.8433 121.072 38.56C121.725 37.2533 122.635 36.25 123.802 35.55C124.969 34.8267 126.299 34.465 127.792 34.465C129.052 34.465 130.172 34.7333 131.152 35.27C132.132 35.7833 132.879 36.5183 133.392 37.475V36.565C133.392 35.9583 133.59 35.4683 133.987 35.095C134.384 34.7217 134.909 34.535 135.562 34.535ZM128.947 48.115C130.347 48.115 131.432 47.66 132.202 46.75C132.995 45.84 133.392 44.5917 133.392 43.005C133.392 41.395 132.995 40.135 132.202 39.225C131.432 38.315 130.347 37.86 128.947 37.86C127.57 37.86 126.485 38.315 125.692 39.225C124.899 40.135 124.502 41.395 124.502 43.005C124.502 44.5917 124.899 45.84 125.692 46.75C126.485 47.66 127.57 48.115 128.947 48.115ZM28.8578 97V84.8833C28.8578 83.3566 28.5103 82.2173 27.8153 81.4653C27.1203 80.7134 26.0323 80.3374 24.5512 80.3374C22.5801 80.3374 21.1389 80.8729 20.2274 81.9438C19.3274 83.0148 18.8773 84.7694 18.8773 87.2075V97H16.0404V70.4082H18.8773V78.4575C18.8773 79.4259 18.8318 80.2292 18.7406 80.8672H18.9115C19.4698 79.9671 20.2616 79.2607 21.287 78.748C22.3238 78.224 23.503 77.9619 24.8246 77.9619C27.1146 77.9619 28.8293 78.5088 29.9687 79.6025C31.1194 80.6849 31.6947 82.411 31.6947 84.7808V97H28.8578ZM48.358 97L47.794 94.334H47.6573C46.7231 95.5075 45.7888 96.305 44.8546 96.7266C43.9317 97.1367 42.7753 97.3418 41.3853 97.3418C39.5283 97.3418 38.0699 96.8633 37.0103 95.9062C35.9622 94.9492 35.4381 93.5877 35.4381 91.8218C35.4381 88.0392 38.463 86.0568 44.5128 85.8745L47.6915 85.772V84.6099C47.6915 83.1401 47.3725 82.0578 46.7345 81.3628C46.1078 80.6564 45.0995 80.3032 43.7096 80.3032C42.1487 80.3032 40.3827 80.7817 38.4117 81.7388L37.5401 79.5684C38.463 79.0671 39.4713 78.674 40.565 78.3892C41.6702 78.1043 42.7753 77.9619 43.8805 77.9619C46.1135 77.9619 47.7656 78.4575 48.8365 79.4487C49.9189 80.4399 50.4601 82.0293 50.4601 84.2168V97H48.358ZM41.9493 95.0005C43.7153 95.0005 45.0995 94.5163 46.1021 93.5479C47.1161 92.5794 47.6231 91.2236 47.6231 89.4805V87.7886L44.7862 87.9082C42.5304 87.988 40.9011 88.3411 39.8985 88.9678C38.9073 89.583 38.4117 90.5457 38.4117 91.856C38.4117 92.8813 38.7193 93.6618 39.3346 94.1973C39.9612 94.7327 40.8328 95.0005 41.9493 95.0005ZM64.1668 77.9277C64.9985 77.9277 65.7448 77.9961 66.4056 78.1328L66.0125 80.7646C65.2378 80.5938 64.5542 80.5083 63.9617 80.5083C62.4464 80.5083 61.1476 81.1235 60.0652 82.354C58.9943 83.5845 58.4588 85.1169 58.4588 86.9512V97H55.6219V78.2695H57.9632L58.2879 81.7388H58.4246C59.1196 80.5197 59.957 79.5798 60.9368 78.9189C61.9166 78.2581 62.9933 77.9277 64.1668 77.9277ZM93.0835 97V84.8149C93.0835 83.3224 92.7645 82.2059 92.1265 81.4653C91.4884 80.7134 90.4972 80.3374 89.1528 80.3374C87.3869 80.3374 86.0824 80.8444 85.2393 81.8584C84.3962 82.8724 83.9746 84.4333 83.9746 86.541V97H81.1377V84.8149C81.1377 83.3224 80.8187 82.2059 80.1807 81.4653C79.5426 80.7134 78.5457 80.3374 77.1899 80.3374C75.4126 80.3374 74.1081 80.8729 73.2764 81.9438C72.4561 83.0034 72.0459 84.7466 72.0459 87.1733V97H69.209V78.2695H71.5161L71.9775 80.833H72.1143C72.6497 79.9215 73.4017 79.2095 74.3701 78.6968C75.3499 78.1841 76.4437 77.9277 77.6514 77.9277C80.5794 77.9277 82.4935 78.9873 83.3936 81.1064H83.5303C84.0885 80.1266 84.8975 79.3519 85.957 78.7822C87.0166 78.2126 88.2243 77.9277 89.5801 77.9277C91.6992 77.9277 93.2829 78.4746 94.3311 79.5684C95.3906 80.6507 95.9204 82.3882 95.9204 84.7808V97H93.0835ZM117.249 87.6177C117.249 90.6711 116.48 93.0579 114.942 94.7783C113.404 96.4873 111.279 97.3418 108.568 97.3418C106.893 97.3418 105.406 96.9487 104.107 96.1626C102.808 95.3765 101.806 94.2485 101.099 92.7788C100.393 91.3091 100.04 89.5887 100.04 87.6177C100.04 84.5643 100.803 82.1888 102.33 80.4912C103.856 78.7822 105.976 77.9277 108.687 77.9277C111.308 77.9277 113.387 78.7993 114.925 80.5425C116.474 82.2856 117.249 84.644 117.249 87.6177ZM102.979 87.6177C102.979 90.0103 103.458 91.8332 104.415 93.0864C105.372 94.3397 106.779 94.9663 108.636 94.9663C110.493 94.9663 111.9 94.3454 112.857 93.1035C113.826 91.8503 114.31 90.0216 114.31 87.6177C114.31 85.2365 113.826 83.4307 112.857 82.2002C111.9 80.9583 110.482 80.3374 108.602 80.3374C106.745 80.3374 105.343 80.9469 104.398 82.166C103.452 83.3851 102.979 85.2023 102.979 87.6177ZM134.357 97V84.8833C134.357 83.3566 134.009 82.2173 133.314 81.4653C132.619 80.7134 131.531 80.3374 130.05 80.3374C128.091 80.3374 126.655 80.8672 125.744 81.9268C124.832 82.9863 124.376 84.7352 124.376 87.1733V97H121.539V78.2695H123.847L124.308 80.833H124.445C125.026 79.9102 125.84 79.1981 126.889 78.6968C127.937 78.1841 129.105 77.9277 130.392 77.9277C132.648 77.9277 134.345 78.4746 135.485 79.5684C136.624 80.6507 137.194 82.3882 137.194 84.7808V97H134.357ZM139.365 78.2695H142.407L146.508 88.9507C147.408 91.3888 147.967 93.1491 148.183 94.2314H148.32C148.468 93.6504 148.776 92.6592 149.243 91.2578C149.721 89.8451 151.271 85.5156 153.891 78.2695H156.933L148.884 99.5977C148.086 101.705 147.152 103.198 146.081 104.075C145.022 104.964 143.717 105.408 142.168 105.408C141.302 105.408 140.447 105.311 139.604 105.118V102.845C140.231 102.981 140.931 103.05 141.706 103.05C143.654 103.05 145.044 101.956 145.876 99.7686L146.919 97.1025L139.365 78.2695Z" fill="#373746"/>
</svg>
