<svg width="169" height="136" viewBox="0 0 169 136" fill="none" xmlns="http://www.w3.org/2000/svg">
<path d="M38.1079 38.8071H33.5962V54H28.3838V38.8071H25.5127V36.2949L28.3838 34.8936V33.4922C28.3838 31.3161 28.9193 29.7267 29.9902 28.7241C31.0612 27.7215 32.7759 27.2202 35.1343 27.2202C36.9344 27.2202 38.5352 27.488 39.9365 28.0234L38.6035 31.8516C37.5553 31.5212 36.5869 31.356 35.6982 31.356C34.9577 31.356 34.4222 31.5781 34.0918 32.0225C33.7614 32.4554 33.5962 33.0137 33.5962 33.6973V34.8936H38.1079V38.8071ZM40.8765 29.9546C40.8765 28.257 41.8221 27.4082 43.7134 27.4082C45.6047 27.4082 46.5503 28.257 46.5503 29.9546C46.5503 30.7635 46.311 31.3958 45.8325 31.8516C45.3654 32.2959 44.659 32.5181 43.7134 32.5181C41.8221 32.5181 40.8765 31.6636 40.8765 29.9546ZM46.311 54H41.0986V34.8936H46.311V54ZM68.7165 54H63.5041V42.8403C63.5041 41.4618 63.2591 40.4307 62.7692 39.7471C62.2793 39.0521 61.4989 38.7046 60.4279 38.7046C58.9696 38.7046 57.9157 39.1945 57.2663 40.1743C56.6169 41.1427 56.2922 42.7549 56.2922 45.0107V54H51.0798V34.8936H55.0617L55.7624 37.3374H56.0529C56.634 36.4146 57.4315 35.7196 58.4455 35.2524C59.4709 34.7739 60.633 34.5347 61.9318 34.5347C64.1535 34.5347 65.8397 35.1385 66.9904 36.3462C68.1411 37.5425 68.7165 39.2743 68.7165 41.5415V54ZM79.4325 54.3418C77.1881 54.3418 75.4221 53.4702 74.1347 51.7271C72.8586 49.9839 72.2206 47.5685 72.2206 44.481C72.2206 41.3478 72.87 38.9097 74.1688 37.1665C75.4791 35.4119 77.2792 34.5347 79.5692 34.5347C81.9732 34.5347 83.8075 35.4689 85.0722 37.3374H85.2431C84.981 35.9132 84.85 34.6429 84.85 33.5264V27.4082H90.0795V54H86.0805L85.0722 51.522H84.85C83.6651 53.4019 81.8593 54.3418 79.4325 54.3418ZM81.2611 50.189C82.5941 50.189 83.5683 49.8016 84.1835 49.0269C84.8101 48.2521 85.1519 46.9362 85.2089 45.0791V44.5151C85.2089 42.4644 84.8899 40.9946 84.2519 40.106C83.6252 39.2173 82.5998 38.7729 81.1757 38.7729C80.0136 38.7729 79.1078 39.2686 78.4584 40.2598C77.8204 41.2396 77.5014 42.6694 77.5014 44.5493C77.5014 46.4292 77.8261 47.842 78.4755 48.7876C79.1249 49.7218 80.0534 50.189 81.2611 50.189ZM94.609 29.9546C94.609 28.257 95.5546 27.4082 97.4459 27.4082C99.3372 27.4082 100.283 28.257 100.283 29.9546C100.283 30.7635 100.044 31.3958 99.565 31.8516C99.0979 32.2959 98.3915 32.5181 97.4459 32.5181C95.5546 32.5181 94.609 31.6636 94.609 29.9546ZM100.044 54H94.8312V34.8936H100.044V54ZM122.466 54H117.254V42.8403C117.254 41.4618 117.009 40.4307 116.519 39.7471C116.029 39.0521 115.248 38.7046 114.178 38.7046C112.719 38.7046 111.665 39.1945 111.016 40.1743C110.367 41.1427 110.042 42.7549 110.042 45.0107V54H104.829V34.8936H108.811L109.512 37.3374H109.803C110.384 36.4146 111.181 35.7196 112.195 35.2524C113.221 34.7739 114.383 34.5347 115.681 34.5347C117.903 34.5347 119.589 35.1385 120.74 36.3462C121.891 37.5425 122.466 39.2743 122.466 41.5415V54ZM143.761 34.8936V37.5425L140.77 38.3115C141.317 39.166 141.59 40.123 141.59 41.1826C141.59 43.2334 140.873 44.8341 139.437 45.9849C138.013 47.1242 136.03 47.6938 133.49 47.6938L132.55 47.6426L131.781 47.5571C131.245 47.9673 130.978 48.423 130.978 48.9243C130.978 49.6763 131.935 50.0522 133.849 50.0522H137.096C139.192 50.0522 140.787 50.5023 141.881 51.4023C142.986 52.3024 143.539 53.624 143.539 55.3672C143.539 57.6003 142.604 59.332 140.736 60.5625C138.879 61.793 136.207 62.4082 132.721 62.4082C130.055 62.4082 128.015 61.9411 126.603 61.0068C125.201 60.084 124.5 58.7852 124.5 57.1104C124.5 55.9596 124.859 54.9969 125.577 54.2222C126.295 53.4474 127.349 52.8949 128.739 52.5645C128.203 52.3366 127.736 51.9663 127.337 51.4536C126.939 50.9295 126.739 50.377 126.739 49.7959C126.739 49.0667 126.95 48.4629 127.372 47.9844C127.793 47.4945 128.403 47.016 129.2 46.5488C128.198 46.1159 127.4 45.4209 126.808 44.4639C126.227 43.5068 125.936 42.3789 125.936 41.0801C125.936 38.9951 126.614 37.383 127.97 36.2437C129.326 35.1043 131.262 34.5347 133.78 34.5347C134.316 34.5347 134.948 34.5859 135.677 34.6885C136.418 34.7796 136.891 34.848 137.096 34.8936H143.761ZM129.012 56.7002C129.012 57.418 129.354 57.9819 130.038 58.3921C130.733 58.8022 131.701 59.0073 132.943 59.0073C134.811 59.0073 136.275 58.751 137.335 58.2383C138.395 57.7256 138.924 57.0249 138.924 56.1362C138.924 55.4185 138.611 54.9229 137.984 54.6494C137.358 54.376 136.389 54.2393 135.079 54.2393H132.379C131.422 54.2393 130.619 54.4614 129.969 54.9058C129.331 55.3615 129.012 55.9596 129.012 56.7002ZM130.909 41.1484C130.909 42.1852 131.143 43.0055 131.61 43.6094C132.088 44.2132 132.812 44.5151 133.78 44.5151C134.76 44.5151 135.478 44.2132 135.934 43.6094C136.389 43.0055 136.617 42.1852 136.617 41.1484C136.617 38.847 135.672 37.6963 133.78 37.6963C131.866 37.6963 130.909 38.847 130.909 41.1484ZM24.9997 96.9V89.095C24.9997 87.5783 24.9531 86.4467 24.8597 85.7C24.7897 84.9533 24.6497 84.37 24.4397 83.95C23.8797 82.8067 22.8531 82.235 21.3597 82.235C20.0064 82.235 18.8397 82.6667 17.8597 83.53C16.9031 84.37 16.3781 85.665 16.2847 87.415V96.9L18.6297 97.565V99H10.1947V97.565L12.8897 96.9V73.8L10.1947 73.135V71.7H16.2847V83.39C16.9847 82.27 17.9064 81.3833 19.0497 80.73C20.2164 80.0767 21.4647 79.75 22.7947 79.75C24.7314 79.75 26.1664 80.38 27.0997 81.64C27.5664 82.2933 27.8931 83.215 28.0797 84.405C28.2897 85.5717 28.3947 87.1583 28.3947 89.165V96.9L31.0897 97.565V99H22.6547V97.565L24.9997 96.9ZM32.4741 94.905C32.4741 93.085 33.3258 91.65 35.0291 90.6C36.7325 89.55 39.5558 88.7333 43.4991 88.15C43.4058 86.7733 43.2775 85.7 43.1141 84.93C42.9508 84.16 42.7408 83.5417 42.4841 83.075C42.1575 82.4683 41.7025 82.025 41.1191 81.745C40.5358 81.4417 39.9058 81.29 39.2291 81.29C38.5758 81.29 37.9808 81.4067 37.4441 81.64C36.9308 81.8733 36.5808 82.1883 36.3941 82.585C36.7208 82.8183 36.9541 83.1217 37.0941 83.495C37.2575 83.8683 37.3391 84.2183 37.3391 84.545C37.3391 85.1283 37.1408 85.595 36.7441 85.945C36.3708 86.2717 35.9041 86.435 35.3441 86.435C34.7841 86.435 34.3175 86.2483 33.9441 85.875C33.5941 85.5017 33.4191 84.9767 33.4191 84.3C33.4191 83.32 33.7575 82.4917 34.4341 81.815C35.1108 81.1383 35.9625 80.625 36.9891 80.275C38.0391 79.925 39.0891 79.75 40.1391 79.75C42.1225 79.75 43.6858 80.3217 44.8291 81.465C46.2758 82.9117 46.9991 85.4783 46.9991 89.165V94.24C46.9991 95.3833 47.0691 96.1767 47.2091 96.62C47.3725 97.0633 47.7108 97.285 48.2241 97.285H49.7991V98.335C48.1191 99.0117 46.8125 99.35 45.8791 99.35C45.1558 99.35 44.6658 99.0933 44.4091 98.58C44.1758 98.0433 44.0591 97.0283 44.0591 95.535H43.9191C43.1958 96.725 42.2391 97.6583 41.0491 98.335C39.8591 99.0117 38.5758 99.35 37.1991 99.35C35.7291 99.35 34.5741 98.9533 33.7341 98.16C32.8941 97.3667 32.4741 96.2817 32.4741 94.905ZM38.6691 97.32C39.3225 97.32 39.9991 97.1567 40.6991 96.83C41.4225 96.48 42.0291 96.0017 42.5191 95.395C43.2425 94.5083 43.6041 93.2017 43.6041 91.475C43.6041 91.0783 43.5925 90.6933 43.5691 90.32C43.5458 89.9233 43.5108 89.55 43.4641 89.2C41.5741 89.5733 40.0925 89.9817 39.0191 90.425C37.9458 90.845 37.1875 91.3583 36.7441 91.965C36.3008 92.5483 36.0791 93.2833 36.0791 94.17C36.0791 95.1733 36.3008 95.955 36.7441 96.515C37.2108 97.0517 37.8525 97.32 38.6691 97.32ZM61.038 82.13C60.828 81.99 60.5946 81.92 60.338 81.92C59.8946 81.92 59.428 82.2 58.938 82.76C58.448 83.2967 58.0163 83.985 57.643 84.825C56.943 86.4817 56.593 88.325 56.593 90.355V96.9L60.373 97.565V99H50.503V97.565L53.198 96.9V82.2L50.503 81.535V80.1H55.543L56.313 84.72H56.453C56.9896 83.1333 57.713 81.9083 58.623 81.045C59.533 80.1817 60.5363 79.75 61.633 79.75C62.543 79.75 63.3013 80.0417 63.908 80.625C64.5146 81.185 64.818 81.9433 64.818 82.9C64.818 83.6 64.6313 84.16 64.258 84.58C63.908 84.9767 63.4296 85.175 62.823 85.175C62.2163 85.175 61.738 84.9883 61.388 84.615C61.038 84.2183 60.863 83.705 60.863 83.075C60.863 82.8417 60.9213 82.5267 61.038 82.13ZM68.5282 96.9V82.2L65.8332 81.535V80.1H70.8732L71.6432 83.6H71.7832C72.4599 82.4333 73.3582 81.5 74.4782 80.8C75.6216 80.1 76.8349 79.75 78.1182 79.75C79.0749 79.75 79.9266 79.9367 80.6732 80.31C81.4199 80.66 81.9682 81.1033 82.3182 81.64C82.6916 82.2233 82.9949 82.9933 83.2282 83.95C83.9749 82.6433 84.9432 81.6167 86.1332 80.87C87.3232 80.1233 88.5949 79.75 89.9482 79.75C90.8816 79.75 91.7216 79.9367 92.4682 80.31C93.2149 80.66 93.7866 81.15 94.1832 81.78C94.4632 82.2233 94.6849 82.795 94.8482 83.495C95.0116 84.195 95.1282 85.105 95.1982 86.225C95.2682 87.3217 95.3032 88.7217 95.3032 90.425V96.9L97.9982 97.565V99H89.5632V97.565L91.9082 96.9V89.095C91.9082 87.5783 91.8616 86.4467 91.7682 85.7C91.6982 84.9533 91.5582 84.37 91.3482 83.95C90.7882 82.8067 89.8082 82.235 88.4082 82.235C87.8249 82.235 87.2532 82.3517 86.6932 82.585C86.1332 82.8183 85.6316 83.1333 85.1882 83.53C84.6749 83.9967 84.2899 84.545 84.0332 85.175C83.7999 85.805 83.6599 86.5983 83.6132 87.555V96.9L85.9582 97.565V99H77.8732V97.565L80.2182 96.9V89.095C80.2182 87.5783 80.1716 86.4467 80.0782 85.7C80.0082 84.9533 79.8682 84.37 79.6582 83.95C79.0982 82.8067 78.1182 82.235 76.7182 82.235C76.1349 82.235 75.5632 82.3517 75.0032 82.585C74.4432 82.8183 73.9416 83.1333 73.4982 83.53C72.9849 83.9967 72.5999 84.545 72.3432 85.175C72.1099 85.805 71.9699 86.5983 71.9232 87.555V96.9L74.2682 97.565V99H65.8332V97.565L68.5282 96.9ZM116.745 89.375C116.745 90.8917 116.511 92.3383 116.045 93.715C115.601 95.0683 114.971 96.1883 114.155 97.075C112.778 98.5917 110.748 99.35 108.065 99.35C106.781 99.35 105.638 99.175 104.635 98.825C103.631 98.4517 102.78 97.8917 102.08 97.145C101.286 96.2817 100.668 95.22 100.225 93.96C99.8046 92.6767 99.5946 91.2883 99.5946 89.795C99.5946 88.2783 99.8162 86.8317 100.26 85.455C100.703 84.055 101.345 82.9117 102.185 82.025C102.931 81.2317 103.795 80.66 104.775 80.31C105.778 79.9367 106.921 79.75 108.205 79.75C109.488 79.75 110.643 79.9367 111.67 80.31C112.696 80.66 113.56 81.2083 114.26 81.955C115.076 82.8183 115.695 83.9033 116.115 85.21C116.535 86.4933 116.745 87.8817 116.745 89.375ZM103.34 89.41C103.34 90.8333 103.445 92.07 103.655 93.12C103.888 94.1467 104.203 94.9983 104.6 95.675C104.996 96.2583 105.463 96.7133 106 97.04C106.56 97.3667 107.283 97.53 108.17 97.53C109.78 97.53 110.981 96.9817 111.775 95.885C112.195 95.2783 112.498 94.4383 112.685 93.365C112.895 92.2917 113 91.055 113 89.655C113 88.255 112.883 87.03 112.65 85.98C112.44 84.93 112.136 84.0783 111.74 83.425C111.366 82.8183 110.888 82.3633 110.305 82.06C109.745 81.7333 109.021 81.57 108.135 81.57C106.501 81.57 105.323 82.1067 104.6 83.18C103.76 84.4867 103.34 86.5633 103.34 89.41ZM121.611 96.9V82.2L118.916 81.535V80.1H123.956L124.726 83.6H124.866C125.566 82.41 126.511 81.4767 127.701 80.8C128.891 80.1 130.162 79.75 131.516 79.75C133.452 79.75 134.887 80.38 135.821 81.64C136.287 82.2933 136.614 83.215 136.801 84.405C137.011 85.5717 137.116 87.1583 137.116 89.165V96.9L139.811 97.565V99H131.376V97.565L133.721 96.9V89.095C133.721 87.5783 133.674 86.4467 133.581 85.7C133.511 84.9533 133.371 84.37 133.161 83.95C132.601 82.8067 131.574 82.235 130.081 82.235C128.727 82.235 127.561 82.6667 126.581 83.53C125.624 84.3933 125.099 85.735 125.006 87.555V96.9L127.351 97.565V99H118.916V97.565L121.611 96.9ZM157.026 82.2L151.216 98.16C150.562 99.9567 149.967 101.403 149.431 102.5C148.894 103.62 148.299 104.425 147.646 104.915C146.992 105.405 146.152 105.65 145.126 105.65C144.029 105.65 143.084 105.358 142.291 104.775C141.521 104.192 141.136 103.457 141.136 102.57C141.136 101.917 141.322 101.368 141.696 100.925C142.069 100.505 142.559 100.295 143.166 100.295C143.702 100.295 144.122 100.435 144.426 100.715C144.752 101.018 144.916 101.427 144.916 101.94C144.916 102.593 144.682 103.177 144.216 103.69C144.262 103.923 144.402 104.075 144.636 104.145C144.869 104.238 145.067 104.285 145.231 104.285C145.557 104.285 145.861 104.203 146.141 104.04C146.421 103.877 146.712 103.527 147.016 102.99C147.342 102.477 147.692 101.66 148.066 100.54L148.486 99.245L141.241 82.2L139.141 81.535V80.1H146.981L147.261 81.535L144.776 82.2L149.991 95.92H150.131L154.541 82.2L152.511 81.535V80.1H159.161V81.535L157.026 82.2Z" fill="#2A2921"/>
</svg>
