<svg width="169" height="136" viewBox="0 0 169 136" fill="none" xmlns="http://www.w3.org/2000/svg">
<path d="M38.6079 38.8071H34.0962V54H28.8838V38.8071H26.0127V36.2949L28.8838 34.8936V33.4922C28.8838 31.3161 29.4193 29.7267 30.4902 28.7241C31.5612 27.7215 33.2759 27.2202 35.6343 27.2202C37.4344 27.2202 39.0352 27.488 40.4365 28.0234L39.1035 31.8516C38.0553 31.5212 37.0869 31.356 36.1982 31.356C35.4577 31.356 34.9222 31.5781 34.5918 32.0225C34.2614 32.4554 34.0962 33.0137 34.0962 33.6973V34.8936H38.6079V38.8071ZM41.3765 29.9546C41.3765 28.257 42.3221 27.4082 44.2134 27.4082C46.1047 27.4082 47.0503 28.257 47.0503 29.9546C47.0503 30.7635 46.811 31.3958 46.3325 31.8516C45.8654 32.2959 45.159 32.5181 44.2134 32.5181C42.3221 32.5181 41.3765 31.6636 41.3765 29.9546ZM46.811 54H41.5986V34.8936H46.811V54ZM69.2165 54H64.0041V42.8403C64.0041 41.4618 63.7591 40.4307 63.2692 39.7471C62.7793 39.0521 61.9989 38.7046 60.9279 38.7046C59.4696 38.7046 58.4157 39.1945 57.7663 40.1743C57.1169 41.1427 56.7922 42.7549 56.7922 45.0107V54H51.5798V34.8936H55.5617L56.2624 37.3374H56.5529C57.134 36.4146 57.9315 35.7196 58.9455 35.2524C59.9709 34.7739 61.133 34.5347 62.4318 34.5347C64.6535 34.5347 66.3397 35.1385 67.4904 36.3462C68.6411 37.5425 69.2165 39.2743 69.2165 41.5415V54ZM79.9325 54.3418C77.6881 54.3418 75.9221 53.4702 74.6347 51.7271C73.3586 49.9839 72.7206 47.5685 72.7206 44.481C72.7206 41.3478 73.37 38.9097 74.6688 37.1665C75.9791 35.4119 77.7792 34.5347 80.0692 34.5347C82.4732 34.5347 84.3075 35.4689 85.5722 37.3374H85.7431C85.481 35.9132 85.35 34.6429 85.35 33.5264V27.4082H90.5795V54H86.5805L85.5722 51.522H85.35C84.1651 53.4019 82.3593 54.3418 79.9325 54.3418ZM81.7611 50.189C83.0941 50.189 84.0683 49.8016 84.6835 49.0269C85.3101 48.2521 85.6519 46.9362 85.7089 45.0791V44.5151C85.7089 42.4644 85.3899 40.9946 84.7519 40.106C84.1252 39.2173 83.0998 38.7729 81.6757 38.7729C80.5136 38.7729 79.6078 39.2686 78.9584 40.2598C78.3204 41.2396 78.0014 42.6694 78.0014 44.5493C78.0014 46.4292 78.3261 47.842 78.9755 48.7876C79.6249 49.7218 80.5534 50.189 81.7611 50.189ZM95.109 29.9546C95.109 28.257 96.0546 27.4082 97.9459 27.4082C99.8372 27.4082 100.783 28.257 100.783 29.9546C100.783 30.7635 100.544 31.3958 100.065 31.8516C99.5979 32.2959 98.8915 32.5181 97.9459 32.5181C96.0546 32.5181 95.109 31.6636 95.109 29.9546ZM100.544 54H95.3312V34.8936H100.544V54ZM122.966 54H117.754V42.8403C117.754 41.4618 117.509 40.4307 117.019 39.7471C116.529 39.0521 115.748 38.7046 114.678 38.7046C113.219 38.7046 112.165 39.1945 111.516 40.1743C110.867 41.1427 110.542 42.7549 110.542 45.0107V54H105.329V34.8936H109.311L110.012 37.3374H110.303C110.884 36.4146 111.681 35.7196 112.695 35.2524C113.721 34.7739 114.883 34.5347 116.181 34.5347C118.403 34.5347 120.089 35.1385 121.24 36.3462C122.391 37.5425 122.966 39.2743 122.966 41.5415V54ZM144.261 34.8936V37.5425L141.27 38.3115C141.817 39.166 142.09 40.123 142.09 41.1826C142.09 43.2334 141.373 44.8341 139.937 45.9849C138.513 47.1242 136.53 47.6938 133.99 47.6938L133.05 47.6426L132.281 47.5571C131.745 47.9673 131.478 48.423 131.478 48.9243C131.478 49.6763 132.435 50.0522 134.349 50.0522H137.596C139.692 50.0522 141.287 50.5023 142.381 51.4023C143.486 52.3024 144.039 53.624 144.039 55.3672C144.039 57.6003 143.104 59.332 141.236 60.5625C139.379 61.793 136.707 62.4082 133.221 62.4082C130.555 62.4082 128.515 61.9411 127.103 61.0068C125.701 60.084 125 58.7852 125 57.1104C125 55.9596 125.359 54.9969 126.077 54.2222C126.795 53.4474 127.849 52.8949 129.239 52.5645C128.703 52.3366 128.236 51.9663 127.837 51.4536C127.439 50.9295 127.239 50.377 127.239 49.7959C127.239 49.0667 127.45 48.4629 127.872 47.9844C128.293 47.4945 128.903 47.016 129.7 46.5488C128.698 46.1159 127.9 45.4209 127.308 44.4639C126.727 43.5068 126.436 42.3789 126.436 41.0801C126.436 38.9951 127.114 37.383 128.47 36.2437C129.826 35.1043 131.762 34.5347 134.28 34.5347C134.816 34.5347 135.448 34.5859 136.177 34.6885C136.918 34.7796 137.391 34.848 137.596 34.8936H144.261ZM129.512 56.7002C129.512 57.418 129.854 57.9819 130.538 58.3921C131.233 58.8022 132.201 59.0073 133.443 59.0073C135.311 59.0073 136.775 58.751 137.835 58.2383C138.895 57.7256 139.424 57.0249 139.424 56.1362C139.424 55.4185 139.111 54.9229 138.484 54.6494C137.858 54.376 136.889 54.2393 135.579 54.2393H132.879C131.922 54.2393 131.119 54.4614 130.469 54.9058C129.831 55.3615 129.512 55.9596 129.512 56.7002ZM131.409 41.1484C131.409 42.1852 131.643 43.0055 132.11 43.6094C132.588 44.2132 133.312 44.5151 134.28 44.5151C135.26 44.5151 135.978 44.2132 136.434 43.6094C136.889 43.0055 137.117 42.1852 137.117 41.1484C137.117 38.847 136.172 37.6963 134.28 37.6963C132.366 37.6963 131.409 38.847 131.409 41.1484ZM20.1696 80.45C22.4796 80.45 24.3113 81.1267 25.6646 82.48C27.0413 83.81 27.7296 85.7583 27.7296 88.325V99H25.2446V88.57C25.2446 86.6567 24.7663 85.1983 23.8096 84.195C22.8529 83.1917 21.4879 82.69 19.7146 82.69C17.7313 82.69 16.1563 83.285 14.9896 84.475C13.8463 85.6417 13.2746 87.2633 13.2746 89.34V99H10.7896V73.03H13.2746V83.81C13.9513 82.7367 14.8846 81.9083 16.0746 81.325C17.2646 80.7417 18.6296 80.45 20.1696 80.45ZM40.2161 80.45C42.6195 80.45 44.4628 81.0567 45.7461 82.27C47.0295 83.46 47.6711 85.2333 47.6711 87.59V99H45.2911V96.13C44.7311 97.0867 43.9028 97.8333 42.8061 98.37C41.7328 98.9067 40.4495 99.175 38.9561 99.175C36.9028 99.175 35.2695 98.685 34.0561 97.705C32.8428 96.725 32.2361 95.43 32.2361 93.82C32.2361 92.2567 32.7961 90.9967 33.9161 90.04C35.0595 89.0833 36.8678 88.605 39.3411 88.605H45.1861V87.485C45.1861 85.8983 44.7428 84.6967 43.8561 83.88C42.9695 83.04 41.6745 82.62 39.9711 82.62C38.8045 82.62 37.6845 82.8183 36.6111 83.215C35.5378 83.5883 34.6161 84.1133 33.8461 84.79L32.7261 82.935C33.6595 82.1417 34.7795 81.535 36.0861 81.115C37.3928 80.6717 38.7695 80.45 40.2161 80.45ZM39.3411 97.215C40.7411 97.215 41.9428 96.9 42.9461 96.27C43.9495 95.6167 44.6961 94.6833 45.1861 93.47V90.46H39.4111C36.2611 90.46 34.6861 91.5567 34.6861 93.75C34.6861 94.8233 35.0945 95.675 35.9111 96.305C36.7278 96.9117 37.8711 97.215 39.3411 97.215ZM56.1007 84.195C56.684 82.9583 57.5473 82.025 58.6907 81.395C59.8573 80.765 61.2923 80.45 62.9957 80.45V82.865L62.4007 82.83C60.464 82.83 58.9473 83.425 57.8507 84.615C56.754 85.805 56.2057 87.4733 56.2057 89.62V99H53.7207V80.59H56.1007V84.195ZM89.7551 80.45C92.0651 80.45 93.8734 81.115 95.1801 82.445C96.5101 83.775 97.1751 85.735 97.1751 88.325V99H94.6901V88.57C94.6901 86.6567 94.2234 85.1983 93.2901 84.195C92.3801 83.1917 91.0851 82.69 89.4051 82.69C87.4917 82.69 85.9867 83.285 84.8901 84.475C83.7934 85.6417 83.2451 87.2633 83.2451 89.34V99H80.7601V88.57C80.7601 86.6567 80.2934 85.1983 79.3601 84.195C78.4501 83.1917 77.1434 82.69 75.4401 82.69C73.5501 82.69 72.0451 83.285 70.9251 84.475C69.8284 85.6417 69.2801 87.2633 69.2801 89.34V99H66.7951V80.59H69.1751V83.95C69.8284 82.83 70.7384 81.9667 71.9051 81.36C73.0717 80.7533 74.4134 80.45 75.9301 80.45C77.4701 80.45 78.8001 80.7767 79.9201 81.43C81.0634 82.0833 81.9151 83.0517 82.4751 84.335C83.1517 83.1217 84.1201 82.1767 85.3801 81.5C86.6634 80.8 88.1217 80.45 89.7551 80.45ZM110.808 99.175C109.034 99.175 107.436 98.7783 106.013 97.985C104.589 97.1683 103.469 96.0483 102.653 94.625C101.836 93.2017 101.428 91.5917 101.428 89.795C101.428 87.9983 101.836 86.3883 102.653 84.965C103.469 83.5417 104.589 82.4333 106.013 81.64C107.436 80.8467 109.034 80.45 110.808 80.45C112.581 80.45 114.179 80.8467 115.603 81.64C117.026 82.4333 118.134 83.5417 118.928 84.965C119.744 86.3883 120.153 87.9983 120.153 89.795C120.153 91.5917 119.744 93.2017 118.928 94.625C118.134 96.0483 117.026 97.1683 115.603 97.985C114.179 98.7783 112.581 99.175 110.808 99.175ZM110.808 96.97C112.114 96.97 113.281 96.6783 114.308 96.095C115.358 95.4883 116.174 94.6367 116.758 93.54C117.341 92.4433 117.633 91.195 117.633 89.795C117.633 88.395 117.341 87.1467 116.758 86.05C116.174 84.9533 115.358 84.1133 114.308 83.53C113.281 82.9233 112.114 82.62 110.808 82.62C109.501 82.62 108.323 82.9233 107.273 83.53C106.246 84.1133 105.429 84.9533 104.823 86.05C104.239 87.1467 103.948 88.395 103.948 89.795C103.948 91.195 104.239 92.4433 104.823 93.54C105.429 94.6367 106.246 95.4883 107.273 96.095C108.323 96.6783 109.501 96.97 110.808 96.97ZM133.906 80.45C136.216 80.45 138.048 81.1267 139.401 82.48C140.778 83.81 141.466 85.7583 141.466 88.325V99H138.981V88.57C138.981 86.6567 138.503 85.1983 137.546 84.195C136.589 83.1917 135.224 82.69 133.451 82.69C131.468 82.69 129.893 83.285 128.726 84.475C127.583 85.6417 127.011 87.2633 127.011 89.34V99H124.526V80.59H126.906V83.985C127.583 82.865 128.516 82.0017 129.706 81.395C130.919 80.765 132.319 80.45 133.906 80.45ZM162.641 80.59L153.436 101.205C152.689 102.932 151.826 104.157 150.846 104.88C149.866 105.603 148.687 105.965 147.311 105.965C146.424 105.965 145.596 105.825 144.826 105.545C144.056 105.265 143.391 104.845 142.831 104.285L143.986 102.43C144.919 103.363 146.039 103.83 147.346 103.83C148.186 103.83 148.897 103.597 149.481 103.13C150.087 102.663 150.647 101.87 151.161 100.75L151.966 98.965L143.741 80.59H146.331L153.261 96.235L160.191 80.59H162.641Z" fill="#2A2921"/>
</svg>
