<svg width="169" height="136" viewBox="0 0 169 136" fill="none" xmlns="http://www.w3.org/2000/svg">
<path d="M38.1079 38.8071H33.5962V54H28.3838V38.8071H25.5127V36.2949L28.3838 34.8936V33.4922C28.3838 31.3161 28.9193 29.7267 29.9902 28.7241C31.0612 27.7215 32.7759 27.2202 35.1343 27.2202C36.9344 27.2202 38.5352 27.488 39.9365 28.0234L38.6035 31.8516C37.5553 31.5212 36.5869 31.356 35.6982 31.356C34.9577 31.356 34.4222 31.5781 34.0918 32.0225C33.7614 32.4554 33.5962 33.0137 33.5962 33.6973V34.8936H38.1079V38.8071ZM40.8765 29.9546C40.8765 28.257 41.8221 27.4082 43.7134 27.4082C45.6047 27.4082 46.5503 28.257 46.5503 29.9546C46.5503 30.7635 46.311 31.3958 45.8325 31.8516C45.3654 32.2959 44.659 32.5181 43.7134 32.5181C41.8221 32.5181 40.8765 31.6636 40.8765 29.9546ZM46.311 54H41.0986V34.8936H46.311V54ZM68.7165 54H63.5041V42.8403C63.5041 41.4618 63.2591 40.4307 62.7692 39.7471C62.2793 39.0521 61.4989 38.7046 60.4279 38.7046C58.9696 38.7046 57.9157 39.1945 57.2663 40.1743C56.6169 41.1427 56.2922 42.7549 56.2922 45.0107V54H51.0798V34.8936H55.0617L55.7624 37.3374H56.0529C56.634 36.4146 57.4315 35.7196 58.4455 35.2524C59.4709 34.7739 60.633 34.5347 61.9318 34.5347C64.1535 34.5347 65.8397 35.1385 66.9904 36.3462C68.1411 37.5425 68.7165 39.2743 68.7165 41.5415V54ZM79.4325 54.3418C77.1881 54.3418 75.4221 53.4702 74.1347 51.7271C72.8586 49.9839 72.2206 47.5685 72.2206 44.481C72.2206 41.3478 72.87 38.9097 74.1688 37.1665C75.4791 35.4119 77.2792 34.5347 79.5692 34.5347C81.9732 34.5347 83.8075 35.4689 85.0722 37.3374H85.2431C84.981 35.9132 84.85 34.6429 84.85 33.5264V27.4082H90.0795V54H86.0805L85.0722 51.522H84.85C83.6651 53.4019 81.8593 54.3418 79.4325 54.3418ZM81.2611 50.189C82.5941 50.189 83.5683 49.8016 84.1835 49.0269C84.8101 48.2521 85.1519 46.9362 85.2089 45.0791V44.5151C85.2089 42.4644 84.8899 40.9946 84.2519 40.106C83.6252 39.2173 82.5998 38.7729 81.1757 38.7729C80.0136 38.7729 79.1078 39.2686 78.4584 40.2598C77.8204 41.2396 77.5014 42.6694 77.5014 44.5493C77.5014 46.4292 77.8261 47.842 78.4755 48.7876C79.1249 49.7218 80.0534 50.189 81.2611 50.189ZM94.609 29.9546C94.609 28.257 95.5546 27.4082 97.4459 27.4082C99.3372 27.4082 100.283 28.257 100.283 29.9546C100.283 30.7635 100.044 31.3958 99.565 31.8516C99.0979 32.2959 98.3915 32.5181 97.4459 32.5181C95.5546 32.5181 94.609 31.6636 94.609 29.9546ZM100.044 54H94.8312V34.8936H100.044V54ZM122.466 54H117.254V42.8403C117.254 41.4618 117.009 40.4307 116.519 39.7471C116.029 39.0521 115.248 38.7046 114.178 38.7046C112.719 38.7046 111.665 39.1945 111.016 40.1743C110.367 41.1427 110.042 42.7549 110.042 45.0107V54H104.829V34.8936H108.811L109.512 37.3374H109.803C110.384 36.4146 111.181 35.7196 112.195 35.2524C113.221 34.7739 114.383 34.5347 115.681 34.5347C117.903 34.5347 119.589 35.1385 120.74 36.3462C121.891 37.5425 122.466 39.2743 122.466 41.5415V54ZM143.761 34.8936V37.5425L140.77 38.3115C141.317 39.166 141.59 40.123 141.59 41.1826C141.59 43.2334 140.873 44.8341 139.437 45.9849C138.013 47.1242 136.03 47.6938 133.49 47.6938L132.55 47.6426L131.781 47.5571C131.245 47.9673 130.978 48.423 130.978 48.9243C130.978 49.6763 131.935 50.0522 133.849 50.0522H137.096C139.192 50.0522 140.787 50.5023 141.881 51.4023C142.986 52.3024 143.539 53.624 143.539 55.3672C143.539 57.6003 142.604 59.332 140.736 60.5625C138.879 61.793 136.207 62.4082 132.721 62.4082C130.055 62.4082 128.015 61.9411 126.603 61.0068C125.201 60.084 124.5 58.7852 124.5 57.1104C124.5 55.9596 124.859 54.9969 125.577 54.2222C126.295 53.4474 127.349 52.8949 128.739 52.5645C128.203 52.3366 127.736 51.9663 127.337 51.4536C126.939 50.9295 126.739 50.377 126.739 49.7959C126.739 49.0667 126.95 48.4629 127.372 47.9844C127.793 47.4945 128.403 47.016 129.2 46.5488C128.198 46.1159 127.4 45.4209 126.808 44.4639C126.227 43.5068 125.936 42.3789 125.936 41.0801C125.936 38.9951 126.614 37.383 127.97 36.2437C129.326 35.1043 131.262 34.5347 133.78 34.5347C134.316 34.5347 134.948 34.5859 135.677 34.6885C136.418 34.7796 136.891 34.848 137.096 34.8936H143.761ZM129.012 56.7002C129.012 57.418 129.354 57.9819 130.038 58.3921C130.733 58.8022 131.701 59.0073 132.943 59.0073C134.811 59.0073 136.275 58.751 137.335 58.2383C138.395 57.7256 138.924 57.0249 138.924 56.1362C138.924 55.4185 138.611 54.9229 137.984 54.6494C137.358 54.376 136.389 54.2393 135.079 54.2393H132.379C131.422 54.2393 130.619 54.4614 129.969 54.9058C129.331 55.3615 129.012 55.9596 129.012 56.7002ZM130.909 41.1484C130.909 42.1852 131.143 43.0055 131.61 43.6094C132.088 44.2132 132.812 44.5151 133.78 44.5151C134.76 44.5151 135.478 44.2132 135.934 43.6094C136.389 43.0055 136.617 42.1852 136.617 41.1484C136.617 38.847 135.672 37.6963 133.78 37.6963C131.866 37.6963 130.909 38.847 130.909 41.1484ZM23.3323 99V74.08H26.2023V80.87L26.0973 84.37C26.914 83.6 27.7656 82.9467 28.6523 82.41C29.539 81.85 30.5773 81.57 31.7673 81.57C33.564 81.57 34.8706 82.13 35.6873 83.25C36.5273 84.37 36.9473 86.0267 36.9473 88.22V99H34.0773V88.605C34.0773 86.995 33.8206 85.84 33.3073 85.14C32.794 84.4167 31.9773 84.055 30.8573 84.055C29.9706 84.055 29.189 84.2767 28.5123 84.72C27.8356 85.1633 27.0656 85.8167 26.2023 86.68V99H23.3323ZM45.5904 99.42C44.1671 99.42 42.9771 99 42.0204 98.16C41.0871 97.32 40.6204 96.13 40.6204 94.59C40.6204 92.7233 41.4487 91.3 43.1054 90.32C44.7621 89.3167 47.4104 88.6167 51.0504 88.22C51.0504 87.6833 50.9921 87.1583 50.8754 86.645C50.7821 86.1317 50.6071 85.6767 50.3504 85.28C50.0937 84.8833 49.7321 84.5683 49.2654 84.335C48.8221 84.0783 48.2504 83.95 47.5504 83.95C46.5704 83.95 45.6487 84.1367 44.7854 84.51C43.9221 84.8833 43.1521 85.3033 42.4754 85.77L41.3554 83.775C42.1487 83.2617 43.1171 82.7717 44.2604 82.305C45.4037 81.815 46.6637 81.57 48.0404 81.57C50.1171 81.57 51.6221 82.2117 52.5554 83.495C53.4887 84.755 53.9554 86.4467 53.9554 88.57V99H51.5754L51.3304 96.97H51.2254C50.4087 97.6467 49.5337 98.23 48.6004 98.72C47.6671 99.1867 46.6637 99.42 45.5904 99.42ZM46.4304 97.11C47.2471 97.11 48.0171 96.9233 48.7404 96.55C49.4637 96.1533 50.2337 95.5817 51.0504 94.835V90.11C49.6271 90.2967 48.4254 90.5183 47.4454 90.775C46.4887 91.0317 45.7071 91.335 45.1004 91.685C44.5171 92.035 44.0854 92.4433 43.8054 92.91C43.5487 93.3533 43.4204 93.8433 43.4204 94.38C43.4204 95.36 43.7121 96.06 44.2954 96.48C44.8787 96.9 45.5904 97.11 46.4304 97.11ZM58.6071 99V81.99H60.9871L61.2321 85.07H61.3371C61.9204 83.9967 62.6204 83.145 63.4371 82.515C64.2771 81.885 65.1871 81.57 66.1671 81.57C66.8438 81.57 67.4504 81.6867 67.9871 81.92L67.4271 84.44C67.1471 84.3467 66.8904 84.2767 66.6571 84.23C66.4238 84.1833 66.1321 84.16 65.7821 84.16C65.0588 84.16 64.3004 84.4517 63.5071 85.035C62.7371 85.6183 62.0604 86.6333 61.4771 88.08V99H58.6071ZM70.0409 99V81.99H72.4209L72.6659 84.44H72.7709C73.5176 83.6233 74.3226 82.9467 75.1859 82.41C76.0726 81.85 77.0292 81.57 78.0559 81.57C79.3626 81.57 80.3776 81.8617 81.1009 82.445C81.8476 83.005 82.3959 83.7983 82.7459 84.825C83.6326 83.845 84.5192 83.0633 85.4059 82.48C86.3159 81.8733 87.2959 81.57 88.3459 81.57C90.0959 81.57 91.3909 82.13 92.2309 83.25C93.0942 84.37 93.5259 86.0267 93.5259 88.22V99H90.6559V88.605C90.6559 86.995 90.3992 85.84 89.8859 85.14C89.3726 84.4167 88.5792 84.055 87.5059 84.055C86.2226 84.055 84.7992 84.93 83.2359 86.68V99H80.3659V88.605C80.3659 86.995 80.1092 85.84 79.5959 85.14C79.0826 84.4167 78.2776 84.055 77.1809 84.055C75.8976 84.055 74.4742 84.93 72.9109 86.68V99H70.0409ZM104.974 99.42C103.924 99.42 102.921 99.2217 101.964 98.825C101.031 98.4283 100.203 97.8567 99.4794 97.11C98.7561 96.34 98.1728 95.4067 97.7294 94.31C97.3094 93.19 97.0994 91.93 97.0994 90.53C97.0994 89.1067 97.3094 87.8467 97.7294 86.75C98.1728 85.63 98.7561 84.685 99.4794 83.915C100.203 83.145 101.031 82.5617 101.964 82.165C102.921 81.7683 103.924 81.57 104.974 81.57C106.024 81.57 107.016 81.7683 107.949 82.165C108.906 82.5617 109.746 83.145 110.469 83.915C111.193 84.685 111.764 85.63 112.184 86.75C112.628 87.8467 112.849 89.1067 112.849 90.53C112.849 91.93 112.628 93.19 112.184 94.31C111.764 95.4067 111.193 96.34 110.469 97.11C109.746 97.8567 108.906 98.4283 107.949 98.825C107.016 99.2217 106.024 99.42 104.974 99.42ZM104.974 97.04C105.698 97.04 106.363 96.8883 106.969 96.585C107.576 96.2583 108.089 95.815 108.509 95.255C108.953 94.6717 109.291 93.9833 109.524 93.19C109.758 92.3967 109.874 91.51 109.874 90.53C109.874 89.55 109.758 88.6633 109.524 87.87C109.291 87.0533 108.953 86.3533 108.509 85.77C108.089 85.1867 107.576 84.7433 106.969 84.44C106.363 84.1133 105.698 83.95 104.974 83.95C104.251 83.95 103.586 84.1133 102.979 84.44C102.373 84.7433 101.848 85.1867 101.404 85.77C100.984 86.3533 100.658 87.0533 100.424 87.87C100.191 88.6633 100.074 89.55 100.074 90.53C100.074 91.51 100.191 92.3967 100.424 93.19C100.658 93.9833 100.984 94.6717 101.404 95.255C101.848 95.815 102.373 96.2583 102.979 96.585C103.586 96.8883 104.251 97.04 104.974 97.04ZM116.629 99V81.99H119.009L119.254 84.44H119.359C120.176 83.6233 121.028 82.9467 121.914 82.41C122.824 81.85 123.874 81.57 125.064 81.57C126.861 81.57 128.168 82.13 128.984 83.25C129.824 84.37 130.244 86.0267 130.244 88.22V99H127.374V88.605C127.374 86.995 127.118 85.84 126.604 85.14C126.091 84.4167 125.274 84.055 124.154 84.055C123.268 84.055 122.486 84.2767 121.809 84.72C121.133 85.1633 120.363 85.8167 119.499 86.68V99H116.629ZM135.35 106.315C134.953 106.315 134.591 106.28 134.265 106.21C133.938 106.163 133.635 106.082 133.355 105.965L133.915 103.69C134.101 103.737 134.311 103.783 134.545 103.83C134.778 103.9 135 103.935 135.21 103.935C136.19 103.935 136.983 103.585 137.59 102.885C138.22 102.208 138.71 101.345 139.06 100.295L139.445 99.035L132.62 81.99H135.595L139.06 91.405C139.316 92.1517 139.585 92.945 139.865 93.785C140.168 94.6017 140.448 95.4067 140.705 96.2H140.845C141.101 95.43 141.346 94.625 141.58 93.785C141.813 92.945 142.046 92.1517 142.28 91.405L145.325 81.99H148.125L141.72 100.4C141.416 101.24 141.078 102.022 140.705 102.745C140.331 103.468 139.888 104.087 139.375 104.6C138.861 105.137 138.278 105.557 137.625 105.86C136.971 106.163 136.213 106.315 135.35 106.315Z" fill="#2A2921"/>
</svg>
