<svg width="169" height="136" viewBox="0 0 169 136" fill="none" xmlns="http://www.w3.org/2000/svg">
<path d="M38.1079 38.8071H33.5962V54H28.3838V38.8071H25.5127V36.2949L28.3838 34.8936V33.4922C28.3838 31.3161 28.9193 29.7267 29.9902 28.7241C31.0612 27.7215 32.7759 27.2202 35.1343 27.2202C36.9344 27.2202 38.5352 27.488 39.9365 28.0234L38.6035 31.8516C37.5553 31.5212 36.5869 31.356 35.6982 31.356C34.9577 31.356 34.4222 31.5781 34.0918 32.0225C33.7614 32.4554 33.5962 33.0137 33.5962 33.6973V34.8936H38.1079V38.8071ZM40.8765 29.9546C40.8765 28.257 41.8221 27.4082 43.7134 27.4082C45.6047 27.4082 46.5503 28.257 46.5503 29.9546C46.5503 30.7635 46.311 31.3958 45.8325 31.8516C45.3654 32.2959 44.659 32.5181 43.7134 32.5181C41.8221 32.5181 40.8765 31.6636 40.8765 29.9546ZM46.311 54H41.0986V34.8936H46.311V54ZM68.7165 54H63.5041V42.8403C63.5041 41.4618 63.2591 40.4307 62.7692 39.7471C62.2793 39.0521 61.4989 38.7046 60.4279 38.7046C58.9696 38.7046 57.9157 39.1945 57.2663 40.1743C56.6169 41.1427 56.2922 42.7549 56.2922 45.0107V54H51.0798V34.8936H55.0617L55.7624 37.3374H56.0529C56.634 36.4146 57.4315 35.7196 58.4455 35.2524C59.4709 34.7739 60.633 34.5347 61.9318 34.5347C64.1535 34.5347 65.8397 35.1385 66.9904 36.3462C68.1411 37.5425 68.7165 39.2743 68.7165 41.5415V54ZM79.4325 54.3418C77.1881 54.3418 75.4221 53.4702 74.1347 51.7271C72.8586 49.9839 72.2206 47.5685 72.2206 44.481C72.2206 41.3478 72.87 38.9097 74.1688 37.1665C75.4791 35.4119 77.2792 34.5347 79.5692 34.5347C81.9732 34.5347 83.8075 35.4689 85.0722 37.3374H85.2431C84.981 35.9132 84.85 34.6429 84.85 33.5264V27.4082H90.0795V54H86.0805L85.0722 51.522H84.85C83.6651 53.4019 81.8593 54.3418 79.4325 54.3418ZM81.2611 50.189C82.5941 50.189 83.5683 49.8016 84.1835 49.0269C84.8101 48.2521 85.1519 46.9362 85.2089 45.0791V44.5151C85.2089 42.4644 84.8899 40.9946 84.2519 40.106C83.6252 39.2173 82.5998 38.7729 81.1757 38.7729C80.0136 38.7729 79.1078 39.2686 78.4584 40.2598C77.8204 41.2396 77.5014 42.6694 77.5014 44.5493C77.5014 46.4292 77.8261 47.842 78.4755 48.7876C79.1249 49.7218 80.0534 50.189 81.2611 50.189ZM94.609 29.9546C94.609 28.257 95.5546 27.4082 97.4459 27.4082C99.3372 27.4082 100.283 28.257 100.283 29.9546C100.283 30.7635 100.044 31.3958 99.565 31.8516C99.0979 32.2959 98.3915 32.5181 97.4459 32.5181C95.5546 32.5181 94.609 31.6636 94.609 29.9546ZM100.044 54H94.8312V34.8936H100.044V54ZM122.466 54H117.254V42.8403C117.254 41.4618 117.009 40.4307 116.519 39.7471C116.029 39.0521 115.248 38.7046 114.178 38.7046C112.719 38.7046 111.665 39.1945 111.016 40.1743C110.367 41.1427 110.042 42.7549 110.042 45.0107V54H104.829V34.8936H108.811L109.512 37.3374H109.803C110.384 36.4146 111.181 35.7196 112.195 35.2524C113.221 34.7739 114.383 34.5347 115.681 34.5347C117.903 34.5347 119.589 35.1385 120.74 36.3462C121.891 37.5425 122.466 39.2743 122.466 41.5415V54ZM143.761 34.8936V37.5425L140.77 38.3115C141.317 39.166 141.59 40.123 141.59 41.1826C141.59 43.2334 140.873 44.8341 139.437 45.9849C138.013 47.1242 136.03 47.6938 133.49 47.6938L132.55 47.6426L131.781 47.5571C131.245 47.9673 130.978 48.423 130.978 48.9243C130.978 49.6763 131.935 50.0522 133.849 50.0522H137.096C139.192 50.0522 140.787 50.5023 141.881 51.4023C142.986 52.3024 143.539 53.624 143.539 55.3672C143.539 57.6003 142.604 59.332 140.736 60.5625C138.879 61.793 136.207 62.4082 132.721 62.4082C130.055 62.4082 128.015 61.9411 126.603 61.0068C125.201 60.084 124.5 58.7852 124.5 57.1104C124.5 55.9596 124.859 54.9969 125.577 54.2222C126.295 53.4474 127.349 52.8949 128.739 52.5645C128.203 52.3366 127.736 51.9663 127.337 51.4536C126.939 50.9295 126.739 50.377 126.739 49.7959C126.739 49.0667 126.95 48.4629 127.372 47.9844C127.793 47.4945 128.403 47.016 129.2 46.5488C128.198 46.1159 127.4 45.4209 126.808 44.4639C126.227 43.5068 125.936 42.3789 125.936 41.0801C125.936 38.9951 126.614 37.383 127.97 36.2437C129.326 35.1043 131.262 34.5347 133.78 34.5347C134.316 34.5347 134.948 34.5859 135.677 34.6885C136.418 34.7796 136.891 34.848 137.096 34.8936H143.761ZM129.012 56.7002C129.012 57.418 129.354 57.9819 130.038 58.3921C130.733 58.8022 131.701 59.0073 132.943 59.0073C134.811 59.0073 136.275 58.751 137.335 58.2383C138.395 57.7256 138.924 57.0249 138.924 56.1362C138.924 55.4185 138.611 54.9229 137.984 54.6494C137.358 54.376 136.389 54.2393 135.079 54.2393H132.379C131.422 54.2393 130.619 54.4614 129.969 54.9058C129.331 55.3615 129.012 55.9596 129.012 56.7002ZM130.909 41.1484C130.909 42.1852 131.143 43.0055 131.61 43.6094C132.088 44.2132 132.812 44.5151 133.78 44.5151C134.76 44.5151 135.478 44.2132 135.934 43.6094C136.389 43.0055 136.617 42.1852 136.617 41.1484C136.617 38.847 135.672 37.6963 133.78 37.6963C131.866 37.6963 130.909 38.847 130.909 41.1484ZM15.6614 72.05L9.18642 72.225V74.15L12.1614 74.85V96.2L9.18642 97.075V99H17.9364V97.075L15.6614 96.2V85.875C15.6614 85.875 17.8664 83.075 20.8414 83.075C23.1164 83.075 23.8864 84.3 23.8864 86.75V96.235L21.6114 97.075V99H30.0114V97.075L27.3864 96.2V86.4C27.3864 82.55 25.6364 80.1 21.7864 80.1C19.1964 80.1 16.7464 81.71 15.6614 82.62V72.05ZM33.1751 85.875H35.4501L35.9401 83.25C35.9401 83.25 37.3751 82.725 39.4751 82.725C41.5751 82.725 42.8001 83.775 42.8001 85.875V88.675H40.0001C35.1001 88.675 31.9501 90.075 31.9501 94.1C31.9501 97.425 33.8751 99.35 37.2001 99.35C39.6501 99.35 41.7501 97.74 42.9401 96.55L43.6751 99L49.1001 98.825V96.9L46.3001 96.2V85.525C46.3001 81.5 43.8851 80.1 39.8251 80.1C36.8501 80.1 33.0001 81.5 33.0001 81.5L33.1751 85.875ZM42.8001 90.95V93.75C42.8001 93.75 40.7001 96.55 38.0751 96.55C36.5001 96.55 35.5201 95.5 35.5201 93.925C35.5201 91.825 36.8501 90.95 40.3501 90.95H42.8001ZM56.6401 80.45L50.8651 80.625V82.55L53.8401 83.25V96.2L50.8651 97.075V99H60.8401V97.075L57.3401 96.2V85.805C58.1101 84.79 59.7901 83.075 62.4151 83.075L62.9401 85.7H65.2151L65.3901 80.625C65.3901 80.625 63.9901 80.1 62.2401 80.1C59.8601 80.1 57.8301 82.025 56.9551 83.005L56.6401 80.45ZM72.2097 80.45L66.4347 80.625V82.55L69.4097 83.25V96.2L66.4347 97.075V99H75.1847V97.075L72.9097 96.2V85.875C72.9097 85.875 74.8347 83.075 77.8097 83.075C80.0847 83.075 80.7847 84.3 80.7847 86.75V96.2L78.5097 97.075V99H86.5597V97.075L84.2847 96.2V85.875C84.2847 85.875 86.2097 83.075 89.1847 83.075C91.4597 83.075 92.1597 84.3 92.1597 86.75V96.2L89.8847 97.075V99H98.2847V97.075L95.6597 96.2V86.4C95.6597 82.55 94.0847 80.1 90.2347 80.1C87.0147 80.1 84.1797 82.655 83.7247 83.11C82.9197 81.29 81.3797 80.1 78.8597 80.1C75.9897 80.1 73.3297 82.165 72.5247 82.935L72.2097 80.45ZM108.976 80.1C103.726 80.1 100.051 83.95 100.051 89.9C100.051 96.2 103.201 99.35 108.451 99.35C113.701 99.35 117.201 95.325 117.201 89.375C117.201 83.775 114.226 80.1 108.976 80.1ZM108.801 82.9C112.301 82.9 113.526 85.7 113.526 89.55C113.526 94.1 112.126 96.55 108.626 96.55C105.126 96.55 103.726 93.925 103.726 89.725C103.726 85.175 105.301 82.9 108.801 82.9ZM125.087 80.45L119.312 80.625V82.55L122.287 83.25V96.2L119.312 97.075V99H128.062V97.075L125.787 96.2V85.875C125.787 85.875 127.887 83.075 130.862 83.075C133.137 83.075 134.012 84.3 134.012 86.75V96.2L131.737 97.075V99H140.137V97.075L137.512 96.2V86.4C137.512 82.55 135.762 80.1 131.912 80.1C129.007 80.1 126.242 82.2 125.402 82.935L125.087 80.45ZM146.613 82.9L149.063 82.55V80.45L140.838 80.625V82.55L142.938 83.075L149.203 99.07C147.663 102.465 146.088 104.775 143.638 104.775H141.888L141.573 107.225C141.573 107.225 142.938 107.4 143.813 107.4C149.588 107.4 151.408 101.625 153.263 96.76L158.233 82.9L160.508 82.55V80.45L152.213 80.625V82.55L154.663 83.075L150.813 95.15L146.613 82.9Z" fill="#2A2921"/>
</svg>
