<svg width="169" height="136" viewBox="0 0 169 136" fill="none" xmlns="http://www.w3.org/2000/svg">
<path d="M31.6046 39.21H29.1896V35.64H31.6046V34.52C31.6046 33.5167 31.7679 32.56 32.0946 31.65C32.4446 30.74 32.9346 29.9583 33.5646 29.305C34.2179 28.6283 34.9996 28.0917 35.9096 27.695C36.8429 27.2983 37.8929 27.1 39.0596 27.1C40.3896 27.1 41.6029 27.3217 42.6996 27.765C43.8196 28.185 44.8696 28.7217 45.8496 29.375L43.9946 32.875C43.3879 32.3383 42.6763 31.9067 41.8596 31.58C41.0429 31.2533 40.2146 31.09 39.3746 31.09C38.3246 31.09 37.5429 31.4167 37.0296 32.07C36.5396 32.7233 36.2946 33.4817 36.2946 34.345V35.64H46.1296V53H41.4396V39.21H36.2946V53H31.6046V39.21ZM66.7222 53H62.0322V42.71C62.0322 41.24 61.7755 40.1667 61.2622 39.49C60.7489 38.8133 60.0372 38.475 59.1272 38.475C58.6605 38.475 58.1822 38.5683 57.6922 38.755C57.2022 38.9417 56.7355 39.21 56.2922 39.56C55.8722 39.8867 55.4872 40.2833 55.1372 40.75C54.7872 41.2167 54.5305 41.73 54.3672 42.29V53H49.6772V34.66H53.9122V38.055C54.5889 36.8883 55.5689 35.9783 56.8522 35.325C58.1355 34.6717 59.5822 34.345 61.1922 34.345C62.3355 34.345 63.2689 34.555 63.9922 34.975C64.7155 35.395 65.2755 35.9433 65.6722 36.62C66.0689 37.2967 66.3372 38.0667 66.4772 38.93C66.6405 39.7933 66.7222 40.6683 66.7222 41.555V53ZM77.6952 53.35C76.4352 53.35 75.2686 53.105 74.1952 52.615C73.1219 52.125 72.2002 51.4483 71.4302 50.585C70.6602 49.7217 70.0536 48.7183 69.6102 47.575C69.1902 46.4083 68.9802 45.16 68.9802 43.83C68.9802 42.5 69.1786 41.2633 69.5752 40.12C69.9952 38.9767 70.5669 37.9733 71.2902 37.11C72.0136 36.2467 72.8769 35.57 73.8802 35.08C74.8836 34.59 75.9802 34.345 77.1702 34.345C78.5236 34.345 79.7369 34.6717 80.8102 35.325C81.9069 35.9783 82.7586 36.83 83.3652 37.88V27.45H88.0552V47.61C88.0552 48.1 88.1369 48.45 88.3002 48.66C88.4636 48.87 88.7436 48.9867 89.1402 49.01V53C88.3236 53.1633 87.6586 53.245 87.1452 53.245C86.3052 53.245 85.6169 53.035 85.0802 52.615C84.5436 52.195 84.2402 51.6467 84.1702 50.97L84.0652 49.815C83.3886 50.9817 82.4669 51.8683 81.3002 52.475C80.1569 53.0583 78.9552 53.35 77.6952 53.35ZM78.9202 49.36C79.3636 49.36 79.8186 49.29 80.2852 49.15C80.7519 48.9867 81.1836 48.765 81.5802 48.485C81.9769 48.205 82.3269 47.8783 82.6302 47.505C82.9569 47.1317 83.2019 46.7233 83.3652 46.28V41.905C83.1786 41.3917 82.9102 40.925 82.5602 40.505C82.2336 40.0617 81.8486 39.6883 81.4052 39.385C80.9852 39.0583 80.5302 38.8017 80.0402 38.615C79.5736 38.4283 79.1069 38.335 78.6402 38.335C77.9402 38.335 77.2869 38.4867 76.6802 38.79C76.0969 39.0933 75.5952 39.5133 75.1752 40.05C74.7552 40.5633 74.4286 41.1583 74.1952 41.835C73.9619 42.5117 73.8452 43.2117 73.8452 43.935C73.8452 44.705 73.9736 45.4167 74.2302 46.07C74.4869 46.7233 74.8369 47.295 75.2802 47.785C75.7236 48.275 76.2486 48.66 76.8552 48.94C77.4852 49.22 78.1736 49.36 78.9202 49.36ZM91.9588 53V34.66H96.6488V53H91.9588ZM91.9588 32.105V27.45H96.6488V32.105H91.9588ZM117.225 53H112.535V42.71C112.535 41.24 112.278 40.1667 111.765 39.49C111.251 38.8133 110.54 38.475 109.63 38.475C109.163 38.475 108.685 38.5683 108.195 38.755C107.705 38.9417 107.238 39.21 106.795 39.56C106.375 39.8867 105.99 40.2833 105.64 40.75C105.29 41.2167 105.033 41.73 104.87 42.29V53H100.18V34.66H104.415V38.055C105.091 36.8883 106.071 35.9783 107.355 35.325C108.638 34.6717 110.085 34.345 111.695 34.345C112.838 34.345 113.771 34.555 114.495 34.975C115.218 35.395 115.778 35.9433 116.175 36.62C116.571 37.2967 116.84 38.0667 116.98 38.93C117.143 39.7933 117.225 40.6683 117.225 41.555V53ZM127.778 53.105C126.541 53.105 125.421 52.86 124.418 52.37C123.414 51.88 122.539 51.215 121.793 50.375C121.069 49.5117 120.509 48.52 120.113 47.4C119.716 46.28 119.518 45.09 119.518 43.83C119.518 42.5 119.728 41.2633 120.148 40.12C120.568 38.9767 121.151 37.9733 121.898 37.11C122.644 36.2467 123.543 35.57 124.593 35.08C125.643 34.59 126.798 34.345 128.058 34.345C129.481 34.345 130.729 34.6717 131.803 35.325C132.876 35.955 133.763 36.8067 134.463 37.88V34.66H138.558V52.125C138.558 53.4783 138.301 54.6917 137.788 55.765C137.274 56.8383 136.563 57.7483 135.653 58.495C134.766 59.2417 133.693 59.8133 132.433 60.21C131.196 60.6067 129.843 60.805 128.373 60.805C126.366 60.805 124.674 60.4667 123.298 59.79C121.944 59.1367 120.778 58.2033 119.798 56.99L122.353 54.505C123.053 55.3683 123.928 56.045 124.978 56.535C126.051 57.025 127.183 57.27 128.373 57.27C129.096 57.27 129.784 57.165 130.438 56.955C131.114 56.7683 131.709 56.465 132.223 56.045C132.736 55.625 133.133 55.0883 133.413 54.435C133.716 53.7817 133.868 53.0117 133.868 52.125V49.815C133.261 50.865 132.409 51.6817 131.313 52.265C130.216 52.825 129.038 53.105 127.778 53.105ZM129.353 49.36C129.866 49.36 130.356 49.2783 130.823 49.115C131.289 48.9517 131.721 48.73 132.118 48.45C132.514 48.17 132.864 47.8433 133.168 47.47C133.471 47.0967 133.704 46.7 133.868 46.28V41.905C133.448 40.8317 132.783 39.9683 131.873 39.315C130.986 38.6617 130.053 38.335 129.073 38.335C128.349 38.335 127.696 38.4983 127.113 38.825C126.529 39.1283 126.028 39.5483 125.608 40.085C125.188 40.5983 124.861 41.1933 124.628 41.87C124.418 42.5467 124.313 43.2467 124.313 43.97C124.313 44.7167 124.441 45.4167 124.698 46.07C124.954 46.7233 125.304 47.295 125.748 47.785C126.214 48.275 126.751 48.66 127.358 48.94C127.964 49.22 128.629 49.36 129.353 49.36ZM15.6614 71.05L9.18642 71.225V73.15L12.1614 73.85V95.2L9.18642 96.075V98H17.9364V96.075L15.6614 95.2V84.875C15.6614 84.875 17.8664 82.075 20.8414 82.075C23.1164 82.075 23.8864 83.3 23.8864 85.75V95.235L21.6114 96.075V98H30.0114V96.075L27.3864 95.2V85.4C27.3864 81.55 25.6364 79.1 21.7864 79.1C19.1964 79.1 16.7464 80.71 15.6614 81.62V71.05ZM33.1751 84.875H35.4501L35.9401 82.25C35.9401 82.25 37.3751 81.725 39.4751 81.725C41.5751 81.725 42.8001 82.775 42.8001 84.875V87.675H40.0001C35.1001 87.675 31.9501 89.075 31.9501 93.1C31.9501 96.425 33.8751 98.35 37.2001 98.35C39.6501 98.35 41.7501 96.74 42.9401 95.55L43.6751 98L49.1001 97.825V95.9L46.3001 95.2V84.525C46.3001 80.5 43.8851 79.1 39.8251 79.1C36.8501 79.1 33.0001 80.5 33.0001 80.5L33.1751 84.875ZM42.8001 89.95V92.75C42.8001 92.75 40.7001 95.55 38.0751 95.55C36.5001 95.55 35.5201 94.5 35.5201 92.925C35.5201 90.825 36.8501 89.95 40.3501 89.95H42.8001ZM56.6401 79.45L50.8651 79.625V81.55L53.8401 82.25V95.2L50.8651 96.075V98H60.8401V96.075L57.3401 95.2V84.805C58.1101 83.79 59.7901 82.075 62.4151 82.075L62.9401 84.7H65.2151L65.3901 79.625C65.3901 79.625 63.9901 79.1 62.2401 79.1C59.8601 79.1 57.8301 81.025 56.9551 82.005L56.6401 79.45ZM72.2097 79.45L66.4347 79.625V81.55L69.4097 82.25V95.2L66.4347 96.075V98H75.1847V96.075L72.9097 95.2V84.875C72.9097 84.875 74.8347 82.075 77.8097 82.075C80.0847 82.075 80.7847 83.3 80.7847 85.75V95.2L78.5097 96.075V98H86.5597V96.075L84.2847 95.2V84.875C84.2847 84.875 86.2097 82.075 89.1847 82.075C91.4597 82.075 92.1597 83.3 92.1597 85.75V95.2L89.8847 96.075V98H98.2847V96.075L95.6597 95.2V85.4C95.6597 81.55 94.0847 79.1 90.2347 79.1C87.0147 79.1 84.1797 81.655 83.7247 82.11C82.9197 80.29 81.3797 79.1 78.8597 79.1C75.9897 79.1 73.3297 81.165 72.5247 81.935L72.2097 79.45ZM108.976 79.1C103.726 79.1 100.051 82.95 100.051 88.9C100.051 95.2 103.201 98.35 108.451 98.35C113.701 98.35 117.201 94.325 117.201 88.375C117.201 82.775 114.226 79.1 108.976 79.1ZM108.801 81.9C112.301 81.9 113.526 84.7 113.526 88.55C113.526 93.1 112.126 95.55 108.626 95.55C105.126 95.55 103.726 92.925 103.726 88.725C103.726 84.175 105.301 81.9 108.801 81.9ZM125.087 79.45L119.312 79.625V81.55L122.287 82.25V95.2L119.312 96.075V98H128.062V96.075L125.787 95.2V84.875C125.787 84.875 127.887 82.075 130.862 82.075C133.137 82.075 134.012 83.3 134.012 85.75V95.2L131.737 96.075V98H140.137V96.075L137.512 95.2V85.4C137.512 81.55 135.762 79.1 131.912 79.1C129.007 79.1 126.242 81.2 125.402 81.935L125.087 79.45ZM146.613 81.9L149.063 81.55V79.45L140.838 79.625V81.55L142.938 82.075L149.203 98.07C147.663 101.465 146.088 103.775 143.638 103.775H141.888L141.573 106.225C141.573 106.225 142.938 106.4 143.813 106.4C149.588 106.4 151.408 100.625 153.263 95.76L158.233 81.9L160.508 81.55V79.45L152.213 79.625V81.55L154.663 82.075L150.813 94.15L146.613 81.9Z" fill="#2A2921"/>
</svg>
