<svg width="169" height="136" viewBox="0 0 169 136" fill="none" xmlns="http://www.w3.org/2000/svg">
<path d="M32.1046 39.21H29.6896V35.64H32.1046V34.52C32.1046 33.5167 32.2679 32.56 32.5946 31.65C32.9446 30.74 33.4346 29.9583 34.0646 29.305C34.7179 28.6283 35.4996 28.0917 36.4096 27.695C37.3429 27.2983 38.3929 27.1 39.5596 27.1C40.8896 27.1 42.1029 27.3217 43.1996 27.765C44.3196 28.185 45.3696 28.7217 46.3496 29.375L44.4946 32.875C43.8879 32.3383 43.1763 31.9067 42.3596 31.58C41.5429 31.2533 40.7146 31.09 39.8746 31.09C38.8246 31.09 38.0429 31.4167 37.5296 32.07C37.0396 32.7233 36.7946 33.4817 36.7946 34.345V35.64H46.6296V53H41.9396V39.21H36.7946V53H32.1046V39.21ZM67.2222 53H62.5322V42.71C62.5322 41.24 62.2755 40.1667 61.7622 39.49C61.2489 38.8133 60.5372 38.475 59.6272 38.475C59.1605 38.475 58.6822 38.5683 58.1922 38.755C57.7022 38.9417 57.2355 39.21 56.7922 39.56C56.3722 39.8867 55.9872 40.2833 55.6372 40.75C55.2872 41.2167 55.0305 41.73 54.8672 42.29V53H50.1772V34.66H54.4122V38.055C55.0889 36.8883 56.0689 35.9783 57.3522 35.325C58.6355 34.6717 60.0822 34.345 61.6922 34.345C62.8355 34.345 63.7689 34.555 64.4922 34.975C65.2155 35.395 65.7755 35.9433 66.1722 36.62C66.5689 37.2967 66.8372 38.0667 66.9772 38.93C67.1405 39.7933 67.2222 40.6683 67.2222 41.555V53ZM78.1952 53.35C76.9352 53.35 75.7686 53.105 74.6952 52.615C73.6219 52.125 72.7002 51.4483 71.9302 50.585C71.1602 49.7217 70.5536 48.7183 70.1102 47.575C69.6902 46.4083 69.4802 45.16 69.4802 43.83C69.4802 42.5 69.6786 41.2633 70.0752 40.12C70.4952 38.9767 71.0669 37.9733 71.7902 37.11C72.5136 36.2467 73.3769 35.57 74.3802 35.08C75.3836 34.59 76.4802 34.345 77.6702 34.345C79.0236 34.345 80.2369 34.6717 81.3102 35.325C82.4069 35.9783 83.2586 36.83 83.8652 37.88V27.45H88.5552V47.61C88.5552 48.1 88.6369 48.45 88.8002 48.66C88.9636 48.87 89.2436 48.9867 89.6402 49.01V53C88.8236 53.1633 88.1586 53.245 87.6452 53.245C86.8052 53.245 86.1169 53.035 85.5802 52.615C85.0436 52.195 84.7402 51.6467 84.6702 50.97L84.5652 49.815C83.8886 50.9817 82.9669 51.8683 81.8002 52.475C80.6569 53.0583 79.4552 53.35 78.1952 53.35ZM79.4202 49.36C79.8636 49.36 80.3186 49.29 80.7852 49.15C81.2519 48.9867 81.6836 48.765 82.0802 48.485C82.4769 48.205 82.8269 47.8783 83.1302 47.505C83.4569 47.1317 83.7019 46.7233 83.8652 46.28V41.905C83.6786 41.3917 83.4102 40.925 83.0602 40.505C82.7336 40.0617 82.3486 39.6883 81.9052 39.385C81.4852 39.0583 81.0302 38.8017 80.5402 38.615C80.0736 38.4283 79.6069 38.335 79.1402 38.335C78.4402 38.335 77.7869 38.4867 77.1802 38.79C76.5969 39.0933 76.0952 39.5133 75.6752 40.05C75.2552 40.5633 74.9286 41.1583 74.6952 41.835C74.4619 42.5117 74.3452 43.2117 74.3452 43.935C74.3452 44.705 74.4736 45.4167 74.7302 46.07C74.9869 46.7233 75.3369 47.295 75.7802 47.785C76.2236 48.275 76.7486 48.66 77.3552 48.94C77.9852 49.22 78.6736 49.36 79.4202 49.36ZM92.4588 53V34.66H97.1488V53H92.4588ZM92.4588 32.105V27.45H97.1488V32.105H92.4588ZM117.725 53H113.035V42.71C113.035 41.24 112.778 40.1667 112.265 39.49C111.751 38.8133 111.04 38.475 110.13 38.475C109.663 38.475 109.185 38.5683 108.695 38.755C108.205 38.9417 107.738 39.21 107.295 39.56C106.875 39.8867 106.49 40.2833 106.14 40.75C105.79 41.2167 105.533 41.73 105.37 42.29V53H100.68V34.66H104.915V38.055C105.591 36.8883 106.571 35.9783 107.855 35.325C109.138 34.6717 110.585 34.345 112.195 34.345C113.338 34.345 114.271 34.555 114.995 34.975C115.718 35.395 116.278 35.9433 116.675 36.62C117.071 37.2967 117.34 38.0667 117.48 38.93C117.643 39.7933 117.725 40.6683 117.725 41.555V53ZM128.278 53.105C127.041 53.105 125.921 52.86 124.918 52.37C123.914 51.88 123.039 51.215 122.293 50.375C121.569 49.5117 121.009 48.52 120.613 47.4C120.216 46.28 120.018 45.09 120.018 43.83C120.018 42.5 120.228 41.2633 120.648 40.12C121.068 38.9767 121.651 37.9733 122.398 37.11C123.144 36.2467 124.043 35.57 125.093 35.08C126.143 34.59 127.298 34.345 128.558 34.345C129.981 34.345 131.229 34.6717 132.303 35.325C133.376 35.955 134.263 36.8067 134.963 37.88V34.66H139.058V52.125C139.058 53.4783 138.801 54.6917 138.288 55.765C137.774 56.8383 137.063 57.7483 136.153 58.495C135.266 59.2417 134.193 59.8133 132.933 60.21C131.696 60.6067 130.343 60.805 128.873 60.805C126.866 60.805 125.174 60.4667 123.798 59.79C122.444 59.1367 121.278 58.2033 120.298 56.99L122.853 54.505C123.553 55.3683 124.428 56.045 125.478 56.535C126.551 57.025 127.683 57.27 128.873 57.27C129.596 57.27 130.284 57.165 130.938 56.955C131.614 56.7683 132.209 56.465 132.723 56.045C133.236 55.625 133.633 55.0883 133.913 54.435C134.216 53.7817 134.368 53.0117 134.368 52.125V49.815C133.761 50.865 132.909 51.6817 131.813 52.265C130.716 52.825 129.538 53.105 128.278 53.105ZM129.853 49.36C130.366 49.36 130.856 49.2783 131.323 49.115C131.789 48.9517 132.221 48.73 132.618 48.45C133.014 48.17 133.364 47.8433 133.668 47.47C133.971 47.0967 134.204 46.7 134.368 46.28V41.905C133.948 40.8317 133.283 39.9683 132.373 39.315C131.486 38.6617 130.553 38.335 129.573 38.335C128.849 38.335 128.196 38.4983 127.613 38.825C127.029 39.1283 126.528 39.5483 126.108 40.085C125.688 40.5983 125.361 41.1933 125.128 41.87C124.918 42.5467 124.813 43.2467 124.813 43.97C124.813 44.7167 124.941 45.4167 125.198 46.07C125.454 46.7233 125.804 47.295 126.248 47.785C126.714 48.275 127.251 48.66 127.858 48.94C128.464 49.22 129.129 49.36 129.853 49.36ZM30.655 80.5C32.825 80.5 34.4816 81.2117 35.625 82.635C36.7683 84.0583 37.34 85.995 37.34 88.445V98H34.19V88.83C34.19 86.94 33.84 85.5517 33.14 84.665C32.4633 83.755 31.4016 83.3 29.955 83.3C29.0683 83.3 28.2516 83.51 27.505 83.93C26.7583 84.3267 26.1283 84.8983 25.615 85.645V98H22.43V71.75H25.615V82.495C26.2916 81.8417 27.0266 81.3517 27.82 81.025C28.6366 80.675 29.5816 80.5 30.655 80.5ZM44.7247 98.35C43.138 98.35 41.8547 97.8833 40.8747 96.95C39.918 96.0167 39.4397 94.8267 39.4397 93.38C39.4397 91.21 40.4664 89.6583 42.5197 88.725C44.573 87.7917 46.9647 87.3017 49.6947 87.255C49.6947 85.715 49.3914 84.6767 48.7847 84.14C48.2014 83.58 47.2564 83.3 45.9497 83.3C45.2264 83.3 44.503 83.4167 43.7797 83.65C43.0564 83.86 42.2747 84.2567 41.4347 84.84L40.9797 82.285C41.6797 81.7483 42.543 81.3167 43.5697 80.99C44.5964 80.6633 45.6697 80.5 46.7897 80.5C48.2597 80.5 49.4264 80.7567 50.2897 81.27C51.1764 81.7833 51.818 82.635 52.2147 83.825C52.6347 85.015 52.8447 86.6483 52.8447 88.725V92.225C52.8447 93.1583 52.8797 93.87 52.9497 94.36C53.043 94.8267 53.2297 95.1883 53.5097 95.445C53.7897 95.7017 54.2214 95.83 54.8047 95.83H55.1197L54.6297 98.35H54.3847C53.4047 98.35 52.6347 98.2567 52.0747 98.07C51.5147 97.8833 51.083 97.615 50.7797 97.265C50.4997 96.915 50.2314 96.4367 49.9747 95.83C48.528 97.51 46.778 98.35 44.7247 98.35ZM45.3197 95.83C46.1597 95.83 46.9647 95.62 47.7347 95.2C48.528 94.78 49.1814 94.22 49.6947 93.52V89.425C47.1747 89.5183 45.3664 89.8567 44.2697 90.44C43.1964 91 42.6597 91.9217 42.6597 93.205C42.6597 94.0917 42.893 94.7567 43.3597 95.2C43.8497 95.62 44.503 95.83 45.3197 95.83ZM56.8511 80.85H59.4411L59.8261 83.685C60.7128 82.5883 61.5528 81.7833 62.3461 81.27C63.1628 80.7567 64.0144 80.5 64.9011 80.5C65.1811 80.5 65.4494 80.535 65.7061 80.605L65.3911 84.07C65.0878 84 64.7378 83.965 64.3411 83.965C63.4778 83.965 62.6611 84.1633 61.8911 84.56C61.1211 84.9333 60.5611 85.3767 60.2111 85.89V98H56.8511V80.85ZM87.2453 80.5C91.632 80.5 93.8253 82.9617 93.8253 87.885V98H90.6753V87.92C90.6753 86.31 90.3603 85.1433 89.7303 84.42C89.1003 83.6733 88.0737 83.3 86.6503 83.3C83.617 83.3 82.1003 84.8867 82.1003 88.06V98H78.9503V88.55C78.9503 86.59 78.6003 85.225 77.9003 84.455C77.2237 83.685 76.232 83.3 74.9253 83.3C73.8987 83.3 72.9887 83.4867 72.1953 83.86C71.402 84.2333 70.7953 84.7933 70.3753 85.54V98H67.2253V80.85H69.6753L70.0253 82.67C70.8887 81.9 71.752 81.3517 72.6153 81.025C73.502 80.675 74.447 80.5 75.4503 80.5C78.0637 80.5 79.907 81.6433 80.9803 83.93C82.1703 81.6433 84.2587 80.5 87.2453 80.5ZM104.709 98.35C102.959 98.35 101.442 97.965 100.159 97.195C98.8754 96.4017 97.8954 95.3283 97.2187 93.975C96.542 92.6217 96.2037 91.105 96.2037 89.425C96.2037 87.745 96.542 86.2283 97.2187 84.875C97.8954 83.5217 98.8754 82.46 100.159 81.69C101.442 80.8967 102.959 80.5 104.709 80.5C106.435 80.5 107.94 80.8967 109.224 81.69C110.53 82.46 111.522 83.5217 112.199 84.875C112.875 86.2283 113.214 87.745 113.214 89.425C113.214 91.105 112.875 92.6217 112.199 93.975C111.522 95.3283 110.53 96.4017 109.224 97.195C107.94 97.965 106.435 98.35 104.709 98.35ZM104.709 95.55C106.389 95.55 107.684 95.0133 108.594 93.94C109.527 92.8667 109.994 91.3617 109.994 89.425C109.994 87.4883 109.527 85.9833 108.594 84.91C107.684 83.8367 106.389 83.3 104.709 83.3C103.029 83.3 101.722 83.8367 100.789 84.91C99.8787 85.9833 99.4237 87.4883 99.4237 89.425C99.4237 91.3617 99.8787 92.8667 100.789 93.94C101.722 95.0133 103.029 95.55 104.709 95.55ZM124.232 80.5C128.899 80.5 131.232 83.1833 131.232 88.55V98H128.082V88.55C128.082 86.7067 127.732 85.3767 127.032 84.56C126.355 83.72 125.212 83.3 123.602 83.3C122.575 83.3 121.642 83.4867 120.802 83.86C119.962 84.2333 119.332 84.7933 118.912 85.54V98H115.762V80.85H118.212L118.562 82.67C119.472 81.8533 120.382 81.2933 121.292 80.99C122.225 80.6633 123.205 80.5 124.232 80.5ZM139.384 97.23L132.244 80.85H135.744L141.099 93.59L145.929 80.85H149.429L138.929 106.47H135.429L139.384 97.23Z" fill="#2A2921"/>
</svg>
