<svg width="169" height="136" viewBox="0 0 169 136" fill="none" xmlns="http://www.w3.org/2000/svg">
<path d="M31.6046 39.21H29.1896V35.64H31.6046V34.52C31.6046 33.5167 31.7679 32.56 32.0946 31.65C32.4446 30.74 32.9346 29.9583 33.5646 29.305C34.2179 28.6283 34.9996 28.0917 35.9096 27.695C36.8429 27.2983 37.8929 27.1 39.0596 27.1C40.3896 27.1 41.6029 27.3217 42.6996 27.765C43.8196 28.185 44.8696 28.7217 45.8496 29.375L43.9946 32.875C43.3879 32.3383 42.6763 31.9067 41.8596 31.58C41.0429 31.2533 40.2146 31.09 39.3746 31.09C38.3246 31.09 37.5429 31.4167 37.0296 32.07C36.5396 32.7233 36.2946 33.4817 36.2946 34.345V35.64H46.1296V53H41.4396V39.21H36.2946V53H31.6046V39.21ZM66.7222 53H62.0322V42.71C62.0322 41.24 61.7755 40.1667 61.2622 39.49C60.7489 38.8133 60.0372 38.475 59.1272 38.475C58.6605 38.475 58.1822 38.5683 57.6922 38.755C57.2022 38.9417 56.7355 39.21 56.2922 39.56C55.8722 39.8867 55.4872 40.2833 55.1372 40.75C54.7872 41.2167 54.5305 41.73 54.3672 42.29V53H49.6772V34.66H53.9122V38.055C54.5889 36.8883 55.5689 35.9783 56.8522 35.325C58.1355 34.6717 59.5822 34.345 61.1922 34.345C62.3355 34.345 63.2689 34.555 63.9922 34.975C64.7155 35.395 65.2755 35.9433 65.6722 36.62C66.0689 37.2967 66.3372 38.0667 66.4772 38.93C66.6405 39.7933 66.7222 40.6683 66.7222 41.555V53ZM77.6952 53.35C76.4352 53.35 75.2686 53.105 74.1952 52.615C73.1219 52.125 72.2002 51.4483 71.4302 50.585C70.6602 49.7217 70.0536 48.7183 69.6102 47.575C69.1902 46.4083 68.9802 45.16 68.9802 43.83C68.9802 42.5 69.1786 41.2633 69.5752 40.12C69.9952 38.9767 70.5669 37.9733 71.2902 37.11C72.0136 36.2467 72.8769 35.57 73.8802 35.08C74.8836 34.59 75.9802 34.345 77.1702 34.345C78.5236 34.345 79.7369 34.6717 80.8102 35.325C81.9069 35.9783 82.7586 36.83 83.3652 37.88V27.45H88.0552V47.61C88.0552 48.1 88.1369 48.45 88.3002 48.66C88.4636 48.87 88.7436 48.9867 89.1402 49.01V53C88.3236 53.1633 87.6586 53.245 87.1452 53.245C86.3052 53.245 85.6169 53.035 85.0802 52.615C84.5436 52.195 84.2402 51.6467 84.1702 50.97L84.0652 49.815C83.3886 50.9817 82.4669 51.8683 81.3002 52.475C80.1569 53.0583 78.9552 53.35 77.6952 53.35ZM78.9202 49.36C79.3636 49.36 79.8186 49.29 80.2852 49.15C80.7519 48.9867 81.1836 48.765 81.5802 48.485C81.9769 48.205 82.3269 47.8783 82.6302 47.505C82.9569 47.1317 83.2019 46.7233 83.3652 46.28V41.905C83.1786 41.3917 82.9102 40.925 82.5602 40.505C82.2336 40.0617 81.8486 39.6883 81.4052 39.385C80.9852 39.0583 80.5302 38.8017 80.0402 38.615C79.5736 38.4283 79.1069 38.335 78.6402 38.335C77.9402 38.335 77.2869 38.4867 76.6802 38.79C76.0969 39.0933 75.5952 39.5133 75.1752 40.05C74.7552 40.5633 74.4286 41.1583 74.1952 41.835C73.9619 42.5117 73.8452 43.2117 73.8452 43.935C73.8452 44.705 73.9736 45.4167 74.2302 46.07C74.4869 46.7233 74.8369 47.295 75.2802 47.785C75.7236 48.275 76.2486 48.66 76.8552 48.94C77.4852 49.22 78.1736 49.36 78.9202 49.36ZM91.9588 53V34.66H96.6488V53H91.9588ZM91.9588 32.105V27.45H96.6488V32.105H91.9588ZM117.225 53H112.535V42.71C112.535 41.24 112.278 40.1667 111.765 39.49C111.251 38.8133 110.54 38.475 109.63 38.475C109.163 38.475 108.685 38.5683 108.195 38.755C107.705 38.9417 107.238 39.21 106.795 39.56C106.375 39.8867 105.99 40.2833 105.64 40.75C105.29 41.2167 105.033 41.73 104.87 42.29V53H100.18V34.66H104.415V38.055C105.091 36.8883 106.071 35.9783 107.355 35.325C108.638 34.6717 110.085 34.345 111.695 34.345C112.838 34.345 113.771 34.555 114.495 34.975C115.218 35.395 115.778 35.9433 116.175 36.62C116.571 37.2967 116.84 38.0667 116.98 38.93C117.143 39.7933 117.225 40.6683 117.225 41.555V53ZM127.778 53.105C126.541 53.105 125.421 52.86 124.418 52.37C123.414 51.88 122.539 51.215 121.793 50.375C121.069 49.5117 120.509 48.52 120.113 47.4C119.716 46.28 119.518 45.09 119.518 43.83C119.518 42.5 119.728 41.2633 120.148 40.12C120.568 38.9767 121.151 37.9733 121.898 37.11C122.644 36.2467 123.543 35.57 124.593 35.08C125.643 34.59 126.798 34.345 128.058 34.345C129.481 34.345 130.729 34.6717 131.803 35.325C132.876 35.955 133.763 36.8067 134.463 37.88V34.66H138.558V52.125C138.558 53.4783 138.301 54.6917 137.788 55.765C137.274 56.8383 136.563 57.7483 135.653 58.495C134.766 59.2417 133.693 59.8133 132.433 60.21C131.196 60.6067 129.843 60.805 128.373 60.805C126.366 60.805 124.674 60.4667 123.298 59.79C121.944 59.1367 120.778 58.2033 119.798 56.99L122.353 54.505C123.053 55.3683 123.928 56.045 124.978 56.535C126.051 57.025 127.183 57.27 128.373 57.27C129.096 57.27 129.784 57.165 130.438 56.955C131.114 56.7683 131.709 56.465 132.223 56.045C132.736 55.625 133.133 55.0883 133.413 54.435C133.716 53.7817 133.868 53.0117 133.868 52.125V49.815C133.261 50.865 132.409 51.6817 131.313 52.265C130.216 52.825 129.038 53.105 127.778 53.105ZM129.353 49.36C129.866 49.36 130.356 49.2783 130.823 49.115C131.289 48.9517 131.721 48.73 132.118 48.45C132.514 48.17 132.864 47.8433 133.168 47.47C133.471 47.0967 133.704 46.7 133.868 46.28V41.905C133.448 40.8317 132.783 39.9683 131.873 39.315C130.986 38.6617 130.053 38.335 129.073 38.335C128.349 38.335 127.696 38.4983 127.113 38.825C126.529 39.1283 126.028 39.5483 125.608 40.085C125.188 40.5983 124.861 41.1933 124.628 41.87C124.418 42.5467 124.313 43.2467 124.313 43.97C124.313 44.7167 124.441 45.4167 124.698 46.07C124.954 46.7233 125.304 47.295 125.748 47.785C126.214 48.275 126.751 48.66 127.358 48.94C127.964 49.22 128.629 49.36 129.353 49.36ZM28.3578 98V85.8833C28.3578 84.3566 28.0103 83.2173 27.3153 82.4653C26.6203 81.7134 25.5323 81.3374 24.0512 81.3374C22.0801 81.3374 20.6389 81.8729 19.7274 82.9438C18.8274 84.0148 18.3773 85.7694 18.3773 88.2075V98H15.5404V71.4082H18.3773V79.4575C18.3773 80.4259 18.3318 81.2292 18.2406 81.8672H18.4115C18.9698 80.9671 19.7616 80.2607 20.787 79.748C21.8238 79.224 23.003 78.9619 24.3246 78.9619C26.6146 78.9619 28.3293 79.5088 29.4687 80.6025C30.6194 81.6849 31.1947 83.411 31.1947 85.7808V98H28.3578ZM47.858 98L47.294 95.334H47.1573C46.2231 96.5075 45.2888 97.305 44.3546 97.7266C43.4317 98.1367 42.2753 98.3418 40.8853 98.3418C39.0283 98.3418 37.5699 97.8633 36.5103 96.9062C35.4622 95.9492 34.9381 94.5877 34.9381 92.8218C34.9381 89.0392 37.963 87.0568 44.0128 86.8745L47.1915 86.772V85.6099C47.1915 84.1401 46.8725 83.0578 46.2345 82.3628C45.6078 81.6564 44.5995 81.3032 43.2096 81.3032C41.6487 81.3032 39.8827 81.7817 37.9117 82.7388L37.0401 80.5684C37.963 80.0671 38.9713 79.674 40.065 79.3892C41.1702 79.1043 42.2753 78.9619 43.3805 78.9619C45.6135 78.9619 47.2656 79.4575 48.3365 80.4487C49.4189 81.4399 49.9601 83.0293 49.9601 85.2168V98H47.858ZM41.4493 96.0005C43.2153 96.0005 44.5995 95.5163 45.6021 94.5479C46.6161 93.5794 47.1231 92.2236 47.1231 90.4805V88.7886L44.2862 88.9082C42.0304 88.988 40.4011 89.3411 39.3985 89.9678C38.4073 90.583 37.9117 91.5457 37.9117 92.856C37.9117 93.8813 38.2193 94.6618 38.8346 95.1973C39.4612 95.7327 40.3328 96.0005 41.4493 96.0005ZM63.6668 78.9277C64.4985 78.9277 65.2448 78.9961 65.9056 79.1328L65.5125 81.7646C64.7378 81.5938 64.0542 81.5083 63.4617 81.5083C61.9464 81.5083 60.6476 82.1235 59.5652 83.354C58.4943 84.5845 57.9588 86.1169 57.9588 87.9512V98H55.1219V79.2695H57.4632L57.7879 82.7388H57.9246C58.6196 81.5197 59.457 80.5798 60.4368 79.9189C61.4166 79.2581 62.4933 78.9277 63.6668 78.9277ZM92.5835 98V85.8149C92.5835 84.3224 92.2645 83.2059 91.6265 82.4653C90.9884 81.7134 89.9972 81.3374 88.6528 81.3374C86.8869 81.3374 85.5824 81.8444 84.7393 82.8584C83.8962 83.8724 83.4746 85.4333 83.4746 87.541V98H80.6377V85.8149C80.6377 84.3224 80.3187 83.2059 79.6807 82.4653C79.0426 81.7134 78.0457 81.3374 76.6899 81.3374C74.9126 81.3374 73.6081 81.8729 72.7764 82.9438C71.9561 84.0034 71.5459 85.7466 71.5459 88.1733V98H68.709V79.2695H71.0161L71.4775 81.833H71.6143C72.1497 80.9215 72.9017 80.2095 73.8701 79.6968C74.8499 79.1841 75.9437 78.9277 77.1514 78.9277C80.0794 78.9277 81.9935 79.9873 82.8936 82.1064H83.0303C83.5885 81.1266 84.3975 80.3519 85.457 79.7822C86.5166 79.2126 87.7243 78.9277 89.0801 78.9277C91.1992 78.9277 92.7829 79.4746 93.8311 80.5684C94.8906 81.6507 95.4204 83.3882 95.4204 85.7808V98H92.5835ZM116.749 88.6177C116.749 91.6711 115.98 94.0579 114.442 95.7783C112.904 97.4873 110.779 98.3418 108.068 98.3418C106.393 98.3418 104.906 97.9487 103.607 97.1626C102.308 96.3765 101.306 95.2485 100.599 93.7788C99.8929 92.3091 99.5397 90.5887 99.5397 88.6177C99.5397 85.5643 100.303 83.1888 101.83 81.4912C103.356 79.7822 105.476 78.9277 108.187 78.9277C110.808 78.9277 112.887 79.7993 114.425 81.5425C115.974 83.2856 116.749 85.644 116.749 88.6177ZM102.479 88.6177C102.479 91.0103 102.958 92.8332 103.915 94.0864C104.872 95.3397 106.279 95.9663 108.136 95.9663C109.993 95.9663 111.4 95.3454 112.357 94.1035C113.326 92.8503 113.81 91.0216 113.81 88.6177C113.81 86.2365 113.326 84.4307 112.357 83.2002C111.4 81.9583 109.982 81.3374 108.102 81.3374C106.245 81.3374 104.843 81.9469 103.898 83.166C102.952 84.3851 102.479 86.2023 102.479 88.6177ZM133.857 98V85.8833C133.857 84.3566 133.509 83.2173 132.814 82.4653C132.119 81.7134 131.031 81.3374 129.55 81.3374C127.591 81.3374 126.155 81.8672 125.244 82.9268C124.332 83.9863 123.876 85.7352 123.876 88.1733V98H121.039V79.2695H123.347L123.808 81.833H123.945C124.526 80.9102 125.34 80.1981 126.389 79.6968C127.437 79.1841 128.605 78.9277 129.892 78.9277C132.148 78.9277 133.845 79.4746 134.985 80.5684C136.124 81.6507 136.694 83.3882 136.694 85.7808V98H133.857ZM138.865 79.2695H141.907L146.008 89.9507C146.908 92.3888 147.467 94.1491 147.683 95.2314H147.82C147.968 94.6504 148.276 93.6592 148.743 92.2578C149.221 90.8451 150.771 86.5156 153.391 79.2695H156.433L148.384 100.598C147.586 102.705 146.652 104.198 145.581 105.075C144.522 105.964 143.217 106.408 141.668 106.408C140.802 106.408 139.947 106.311 139.104 106.118V103.845C139.731 103.981 140.431 104.05 141.206 104.05C143.154 104.05 144.544 102.956 145.376 100.769L146.419 98.1025L138.865 79.2695Z" fill="#2A2921"/>
</svg>
