<svg width="169" height="136" viewBox="0 0 169 136" fill="none" xmlns="http://www.w3.org/2000/svg">
<path d="M31.6046 39.21H29.1896V35.64H31.6046V34.52C31.6046 33.5167 31.7679 32.56 32.0946 31.65C32.4446 30.74 32.9346 29.9583 33.5646 29.305C34.2179 28.6283 34.9996 28.0917 35.9096 27.695C36.8429 27.2983 37.8929 27.1 39.0596 27.1C40.3896 27.1 41.6029 27.3217 42.6996 27.765C43.8196 28.185 44.8696 28.7217 45.8496 29.375L43.9946 32.875C43.3879 32.3383 42.6763 31.9067 41.8596 31.58C41.0429 31.2533 40.2146 31.09 39.3746 31.09C38.3246 31.09 37.5429 31.4167 37.0296 32.07C36.5396 32.7233 36.2946 33.4817 36.2946 34.345V35.64H46.1296V53H41.4396V39.21H36.2946V53H31.6046V39.21ZM66.7222 53H62.0322V42.71C62.0322 41.24 61.7755 40.1667 61.2622 39.49C60.7489 38.8133 60.0372 38.475 59.1272 38.475C58.6605 38.475 58.1822 38.5683 57.6922 38.755C57.2022 38.9417 56.7355 39.21 56.2922 39.56C55.8722 39.8867 55.4872 40.2833 55.1372 40.75C54.7872 41.2167 54.5305 41.73 54.3672 42.29V53H49.6772V34.66H53.9122V38.055C54.5889 36.8883 55.5689 35.9783 56.8522 35.325C58.1355 34.6717 59.5822 34.345 61.1922 34.345C62.3355 34.345 63.2689 34.555 63.9922 34.975C64.7155 35.395 65.2755 35.9433 65.6722 36.62C66.0689 37.2967 66.3372 38.0667 66.4772 38.93C66.6405 39.7933 66.7222 40.6683 66.7222 41.555V53ZM77.6952 53.35C76.4352 53.35 75.2686 53.105 74.1952 52.615C73.1219 52.125 72.2002 51.4483 71.4302 50.585C70.6602 49.7217 70.0536 48.7183 69.6102 47.575C69.1902 46.4083 68.9802 45.16 68.9802 43.83C68.9802 42.5 69.1786 41.2633 69.5752 40.12C69.9952 38.9767 70.5669 37.9733 71.2902 37.11C72.0136 36.2467 72.8769 35.57 73.8802 35.08C74.8836 34.59 75.9802 34.345 77.1702 34.345C78.5236 34.345 79.7369 34.6717 80.8102 35.325C81.9069 35.9783 82.7586 36.83 83.3652 37.88V27.45H88.0552V47.61C88.0552 48.1 88.1369 48.45 88.3002 48.66C88.4636 48.87 88.7436 48.9867 89.1402 49.01V53C88.3236 53.1633 87.6586 53.245 87.1452 53.245C86.3052 53.245 85.6169 53.035 85.0802 52.615C84.5436 52.195 84.2402 51.6467 84.1702 50.97L84.0652 49.815C83.3886 50.9817 82.4669 51.8683 81.3002 52.475C80.1569 53.0583 78.9552 53.35 77.6952 53.35ZM78.9202 49.36C79.3636 49.36 79.8186 49.29 80.2852 49.15C80.7519 48.9867 81.1836 48.765 81.5802 48.485C81.9769 48.205 82.3269 47.8783 82.6302 47.505C82.9569 47.1317 83.2019 46.7233 83.3652 46.28V41.905C83.1786 41.3917 82.9102 40.925 82.5602 40.505C82.2336 40.0617 81.8486 39.6883 81.4052 39.385C80.9852 39.0583 80.5302 38.8017 80.0402 38.615C79.5736 38.4283 79.1069 38.335 78.6402 38.335C77.9402 38.335 77.2869 38.4867 76.6802 38.79C76.0969 39.0933 75.5952 39.5133 75.1752 40.05C74.7552 40.5633 74.4286 41.1583 74.1952 41.835C73.9619 42.5117 73.8452 43.2117 73.8452 43.935C73.8452 44.705 73.9736 45.4167 74.2302 46.07C74.4869 46.7233 74.8369 47.295 75.2802 47.785C75.7236 48.275 76.2486 48.66 76.8552 48.94C77.4852 49.22 78.1736 49.36 78.9202 49.36ZM91.9588 53V34.66H96.6488V53H91.9588ZM91.9588 32.105V27.45H96.6488V32.105H91.9588ZM117.225 53H112.535V42.71C112.535 41.24 112.278 40.1667 111.765 39.49C111.251 38.8133 110.54 38.475 109.63 38.475C109.163 38.475 108.685 38.5683 108.195 38.755C107.705 38.9417 107.238 39.21 106.795 39.56C106.375 39.8867 105.99 40.2833 105.64 40.75C105.29 41.2167 105.033 41.73 104.87 42.29V53H100.18V34.66H104.415V38.055C105.091 36.8883 106.071 35.9783 107.355 35.325C108.638 34.6717 110.085 34.345 111.695 34.345C112.838 34.345 113.771 34.555 114.495 34.975C115.218 35.395 115.778 35.9433 116.175 36.62C116.571 37.2967 116.84 38.0667 116.98 38.93C117.143 39.7933 117.225 40.6683 117.225 41.555V53ZM127.778 53.105C126.541 53.105 125.421 52.86 124.418 52.37C123.414 51.88 122.539 51.215 121.793 50.375C121.069 49.5117 120.509 48.52 120.113 47.4C119.716 46.28 119.518 45.09 119.518 43.83C119.518 42.5 119.728 41.2633 120.148 40.12C120.568 38.9767 121.151 37.9733 121.898 37.11C122.644 36.2467 123.543 35.57 124.593 35.08C125.643 34.59 126.798 34.345 128.058 34.345C129.481 34.345 130.729 34.6717 131.803 35.325C132.876 35.955 133.763 36.8067 134.463 37.88V34.66H138.558V52.125C138.558 53.4783 138.301 54.6917 137.788 55.765C137.274 56.8383 136.563 57.7483 135.653 58.495C134.766 59.2417 133.693 59.8133 132.433 60.21C131.196 60.6067 129.843 60.805 128.373 60.805C126.366 60.805 124.674 60.4667 123.298 59.79C121.944 59.1367 120.778 58.2033 119.798 56.99L122.353 54.505C123.053 55.3683 123.928 56.045 124.978 56.535C126.051 57.025 127.183 57.27 128.373 57.27C129.096 57.27 129.784 57.165 130.438 56.955C131.114 56.7683 131.709 56.465 132.223 56.045C132.736 55.625 133.133 55.0883 133.413 54.435C133.716 53.7817 133.868 53.0117 133.868 52.125V49.815C133.261 50.865 132.409 51.6817 131.313 52.265C130.216 52.825 129.038 53.105 127.778 53.105ZM129.353 49.36C129.866 49.36 130.356 49.2783 130.823 49.115C131.289 48.9517 131.721 48.73 132.118 48.45C132.514 48.17 132.864 47.8433 133.168 47.47C133.471 47.0967 133.704 46.7 133.868 46.28V41.905C133.448 40.8317 132.783 39.9683 131.873 39.315C130.986 38.6617 130.053 38.335 129.073 38.335C128.349 38.335 127.696 38.4983 127.113 38.825C126.529 39.1283 126.028 39.5483 125.608 40.085C125.188 40.5983 124.861 41.1933 124.628 41.87C124.418 42.5467 124.313 43.2467 124.313 43.97C124.313 44.7167 124.441 45.4167 124.698 46.07C124.954 46.7233 125.304 47.295 125.748 47.785C126.214 48.275 126.751 48.66 127.358 48.94C127.964 49.22 128.629 49.36 129.353 49.36ZM23.7948 81.7476C25.1962 80.0272 27.0191 79.167 29.2636 79.167C33.1715 79.167 35.1425 81.3716 35.1767 85.7808V98H32.015V85.7637C32.0036 84.4307 31.696 83.4451 31.0922 82.8071C30.4997 82.1691 29.5712 81.8501 28.3065 81.8501C27.2812 81.8501 26.3811 82.1235 25.6063 82.6704C24.8316 83.2173 24.2278 83.9351 23.7948 84.8237V98H20.6332V71.75H23.7948V81.7476ZM50.6266 98C50.4443 97.6354 50.2962 96.986 50.1822 96.0518C48.7125 97.5785 46.9579 98.3418 44.9186 98.3418C43.0956 98.3418 41.5974 97.8291 40.4239 96.8037C39.2618 95.7669 38.6808 94.4567 38.6808 92.873C38.6808 90.9476 39.4099 89.4551 40.8683 88.3955C42.338 87.3245 44.4002 86.7891 47.0548 86.7891H50.131V85.3364C50.131 84.2313 49.8006 83.354 49.1397 82.7046C48.4789 82.0438 47.5048 81.7134 46.2174 81.7134C45.0895 81.7134 44.1438 81.9982 43.3805 82.5679C42.6171 83.1375 42.2354 83.8268 42.2354 84.6357H39.0567C39.0567 83.7129 39.3814 82.8242 40.0309 81.9697C40.6917 81.1038 41.5803 80.4202 42.6969 79.9189C43.8248 79.4176 45.061 79.167 46.4054 79.167C48.5359 79.167 50.205 79.7025 51.4127 80.7734C52.6204 81.833 53.247 83.297 53.2926 85.1655V93.6763C53.2926 95.3739 53.509 96.724 53.942 97.7266V98H50.6266ZM45.38 95.5903C46.3712 95.5903 47.3111 95.334 48.1998 94.8213C49.0885 94.3086 49.7322 93.6421 50.131 92.8218V89.0278H47.6529C43.7792 89.0278 41.8424 90.1615 41.8424 92.4287C41.8424 93.4199 42.1728 94.1947 42.8336 94.7529C43.4944 95.3112 44.3432 95.5903 45.38 95.5903ZM66.4866 82.3457C66.0081 82.266 65.4897 82.2261 64.9314 82.2261C62.8579 82.2261 61.4508 83.109 60.7103 84.875V98H57.5486V79.5088H60.6248L60.6761 81.645C61.7129 79.993 63.1826 79.167 65.0853 79.167C65.7005 79.167 66.1676 79.2467 66.4866 79.4062V82.3457ZM71.6826 79.5088L71.7681 81.5596C73.1239 79.9645 74.9525 79.167 77.2539 79.167C79.8402 79.167 81.6004 80.1582 82.5347 82.1406C83.1499 81.252 83.9474 80.5342 84.9272 79.9873C85.9185 79.4404 87.0863 79.167 88.4307 79.167C92.4867 79.167 94.5488 81.3146 94.6172 85.6099V98H91.4556V85.7979C91.4556 84.4762 91.1536 83.4907 90.5498 82.8413C89.946 82.1805 88.932 81.8501 87.5078 81.8501C86.3343 81.8501 85.3602 82.2033 84.5854 82.9097C83.8107 83.6047 83.3607 84.5446 83.2354 85.7295V98H80.0566V85.8833C80.0566 83.1945 78.7407 81.8501 76.1089 81.8501C74.0353 81.8501 72.6169 82.7331 71.8535 84.499V98H68.6919V79.5088H71.6826ZM97.8649 88.5835C97.8649 86.772 98.2181 85.1427 98.9245 83.6958C99.6423 82.2489 100.633 81.1323 101.898 80.3462C103.174 79.5601 104.627 79.167 106.256 79.167C108.774 79.167 110.808 80.0386 112.357 81.7817C113.918 83.5249 114.698 85.8434 114.698 88.7373V88.9595C114.698 90.7596 114.351 92.3774 113.656 93.813C112.972 95.2371 111.987 96.348 110.699 97.1455C109.423 97.943 107.954 98.3418 106.29 98.3418C103.784 98.3418 101.75 97.4702 100.189 95.7271C98.6397 93.9839 97.8649 91.6768 97.8649 88.8057V88.5835ZM101.044 88.9595C101.044 91.0103 101.516 92.6566 102.462 93.8984C103.419 95.1403 104.695 95.7612 106.29 95.7612C107.897 95.7612 109.173 95.1346 110.118 93.8813C111.064 92.6167 111.537 90.8507 111.537 88.5835C111.537 86.5555 111.053 84.9149 110.084 83.6616C109.127 82.397 107.851 81.7646 106.256 81.7646C104.695 81.7646 103.436 82.3856 102.479 83.6274C101.522 84.8693 101.044 86.6466 101.044 88.9595ZM120.954 79.5088L121.057 81.833C122.469 80.0557 124.315 79.167 126.594 79.167C130.502 79.167 132.473 81.3716 132.507 85.7808V98H129.345V85.7637C129.334 84.4307 129.026 83.4451 128.422 82.8071C127.83 82.1691 126.901 81.8501 125.637 81.8501C124.611 81.8501 123.711 82.1235 122.936 82.6704C122.162 83.2173 121.558 83.9351 121.125 84.8237V98H117.963V79.5088H120.954ZM142.625 93.3687L146.931 79.5088H150.315L142.881 100.854C141.73 103.93 139.902 105.468 137.395 105.468L136.797 105.417L135.618 105.195V102.631L136.472 102.7C137.543 102.7 138.375 102.483 138.967 102.05C139.571 101.617 140.067 100.826 140.454 99.6748L141.155 97.7949L134.558 79.5088H138.01L142.625 93.3687Z" fill="#2A2921"/>
</svg>
