<svg width="169" height="136" viewBox="0 0 169 136" fill="none" xmlns="http://www.w3.org/2000/svg">
<path d="M32.1046 39.21H29.6896V35.64H32.1046V34.52C32.1046 33.5167 32.2679 32.56 32.5946 31.65C32.9446 30.74 33.4346 29.9583 34.0646 29.305C34.7179 28.6283 35.4996 28.0917 36.4096 27.695C37.3429 27.2983 38.3929 27.1 39.5596 27.1C40.8896 27.1 42.1029 27.3217 43.1996 27.765C44.3196 28.185 45.3696 28.7217 46.3496 29.375L44.4946 32.875C43.8879 32.3383 43.1763 31.9067 42.3596 31.58C41.5429 31.2533 40.7146 31.09 39.8746 31.09C38.8246 31.09 38.0429 31.4167 37.5296 32.07C37.0396 32.7233 36.7946 33.4817 36.7946 34.345V35.64H46.6296V53H41.9396V39.21H36.7946V53H32.1046V39.21ZM67.2222 53H62.5322V42.71C62.5322 41.24 62.2755 40.1667 61.7622 39.49C61.2489 38.8133 60.5372 38.475 59.6272 38.475C59.1605 38.475 58.6822 38.5683 58.1922 38.755C57.7022 38.9417 57.2355 39.21 56.7922 39.56C56.3722 39.8867 55.9872 40.2833 55.6372 40.75C55.2872 41.2167 55.0305 41.73 54.8672 42.29V53H50.1772V34.66H54.4122V38.055C55.0889 36.8883 56.0689 35.9783 57.3522 35.325C58.6355 34.6717 60.0822 34.345 61.6922 34.345C62.8355 34.345 63.7689 34.555 64.4922 34.975C65.2155 35.395 65.7755 35.9433 66.1722 36.62C66.5689 37.2967 66.8372 38.0667 66.9772 38.93C67.1405 39.7933 67.2222 40.6683 67.2222 41.555V53ZM78.1952 53.35C76.9352 53.35 75.7686 53.105 74.6952 52.615C73.6219 52.125 72.7002 51.4483 71.9302 50.585C71.1602 49.7217 70.5536 48.7183 70.1102 47.575C69.6902 46.4083 69.4802 45.16 69.4802 43.83C69.4802 42.5 69.6786 41.2633 70.0752 40.12C70.4952 38.9767 71.0669 37.9733 71.7902 37.11C72.5136 36.2467 73.3769 35.57 74.3802 35.08C75.3836 34.59 76.4802 34.345 77.6702 34.345C79.0236 34.345 80.2369 34.6717 81.3102 35.325C82.4069 35.9783 83.2586 36.83 83.8652 37.88V27.45H88.5552V47.61C88.5552 48.1 88.6369 48.45 88.8002 48.66C88.9636 48.87 89.2436 48.9867 89.6402 49.01V53C88.8236 53.1633 88.1586 53.245 87.6452 53.245C86.8052 53.245 86.1169 53.035 85.5802 52.615C85.0436 52.195 84.7402 51.6467 84.6702 50.97L84.5652 49.815C83.8886 50.9817 82.9669 51.8683 81.8002 52.475C80.6569 53.0583 79.4552 53.35 78.1952 53.35ZM79.4202 49.36C79.8636 49.36 80.3186 49.29 80.7852 49.15C81.2519 48.9867 81.6836 48.765 82.0802 48.485C82.4769 48.205 82.8269 47.8783 83.1302 47.505C83.4569 47.1317 83.7019 46.7233 83.8652 46.28V41.905C83.6786 41.3917 83.4102 40.925 83.0602 40.505C82.7336 40.0617 82.3486 39.6883 81.9052 39.385C81.4852 39.0583 81.0302 38.8017 80.5402 38.615C80.0736 38.4283 79.6069 38.335 79.1402 38.335C78.4402 38.335 77.7869 38.4867 77.1802 38.79C76.5969 39.0933 76.0952 39.5133 75.6752 40.05C75.2552 40.5633 74.9286 41.1583 74.6952 41.835C74.4619 42.5117 74.3452 43.2117 74.3452 43.935C74.3452 44.705 74.4736 45.4167 74.7302 46.07C74.9869 46.7233 75.3369 47.295 75.7802 47.785C76.2236 48.275 76.7486 48.66 77.3552 48.94C77.9852 49.22 78.6736 49.36 79.4202 49.36ZM92.4588 53V34.66H97.1488V53H92.4588ZM92.4588 32.105V27.45H97.1488V32.105H92.4588ZM117.725 53H113.035V42.71C113.035 41.24 112.778 40.1667 112.265 39.49C111.751 38.8133 111.04 38.475 110.13 38.475C109.663 38.475 109.185 38.5683 108.695 38.755C108.205 38.9417 107.738 39.21 107.295 39.56C106.875 39.8867 106.49 40.2833 106.14 40.75C105.79 41.2167 105.533 41.73 105.37 42.29V53H100.68V34.66H104.915V38.055C105.591 36.8883 106.571 35.9783 107.855 35.325C109.138 34.6717 110.585 34.345 112.195 34.345C113.338 34.345 114.271 34.555 114.995 34.975C115.718 35.395 116.278 35.9433 116.675 36.62C117.071 37.2967 117.34 38.0667 117.48 38.93C117.643 39.7933 117.725 40.6683 117.725 41.555V53ZM128.278 53.105C127.041 53.105 125.921 52.86 124.918 52.37C123.914 51.88 123.039 51.215 122.293 50.375C121.569 49.5117 121.009 48.52 120.613 47.4C120.216 46.28 120.018 45.09 120.018 43.83C120.018 42.5 120.228 41.2633 120.648 40.12C121.068 38.9767 121.651 37.9733 122.398 37.11C123.144 36.2467 124.043 35.57 125.093 35.08C126.143 34.59 127.298 34.345 128.558 34.345C129.981 34.345 131.229 34.6717 132.303 35.325C133.376 35.955 134.263 36.8067 134.963 37.88V34.66H139.058V52.125C139.058 53.4783 138.801 54.6917 138.288 55.765C137.774 56.8383 137.063 57.7483 136.153 58.495C135.266 59.2417 134.193 59.8133 132.933 60.21C131.696 60.6067 130.343 60.805 128.873 60.805C126.866 60.805 125.174 60.4667 123.798 59.79C122.444 59.1367 121.278 58.2033 120.298 56.99L122.853 54.505C123.553 55.3683 124.428 56.045 125.478 56.535C126.551 57.025 127.683 57.27 128.873 57.27C129.596 57.27 130.284 57.165 130.938 56.955C131.614 56.7683 132.209 56.465 132.723 56.045C133.236 55.625 133.633 55.0883 133.913 54.435C134.216 53.7817 134.368 53.0117 134.368 52.125V49.815C133.761 50.865 132.909 51.6817 131.813 52.265C130.716 52.825 129.538 53.105 128.278 53.105ZM129.853 49.36C130.366 49.36 130.856 49.2783 131.323 49.115C131.789 48.9517 132.221 48.73 132.618 48.45C133.014 48.17 133.364 47.8433 133.668 47.47C133.971 47.0967 134.204 46.7 134.368 46.28V41.905C133.948 40.8317 133.283 39.9683 132.373 39.315C131.486 38.6617 130.553 38.335 129.573 38.335C128.849 38.335 128.196 38.4983 127.613 38.825C127.029 39.1283 126.528 39.5483 126.108 40.085C125.688 40.5983 125.361 41.1933 125.128 41.87C124.918 42.5467 124.813 43.2467 124.813 43.97C124.813 44.7167 124.941 45.4167 125.198 46.07C125.454 46.7233 125.804 47.295 126.248 47.785C126.714 48.275 127.251 48.66 127.858 48.94C128.464 49.22 129.129 49.36 129.853 49.36ZM34.0775 98V88.06C34.0775 86.6367 33.8791 85.61 33.4825 84.98C33.0858 84.35 32.3625 84.035 31.3125 84.035C30.5425 84.035 29.8308 84.3033 29.1775 84.84C28.5475 85.3533 28.1275 86.0183 27.9175 86.835V98H23.3675V73.5H27.9175V82.46H28.0575C28.6175 81.7133 29.3058 81.1183 30.1225 80.675C30.9391 80.2317 31.9775 80.01 33.2375 80.01C34.1241 80.01 34.9058 80.1267 35.5825 80.36C36.2591 80.5933 36.8191 80.9783 37.2625 81.515C37.7291 82.0517 38.0675 82.7867 38.2775 83.72C38.5108 84.63 38.6275 85.7617 38.6275 87.115V98H34.0775ZM41.6347 81.515C42.5681 81.095 43.6764 80.7683 44.9597 80.535C46.2431 80.2783 47.5847 80.15 48.9847 80.15C50.1981 80.15 51.2131 80.3017 52.0297 80.605C52.8464 80.885 53.4881 81.2933 53.9547 81.83C54.4447 82.3667 54.7831 83.0083 54.9697 83.755C55.1797 84.5017 55.2847 85.3417 55.2847 86.275C55.2847 87.3017 55.2497 88.34 55.1797 89.39C55.1097 90.4167 55.0631 91.4317 55.0397 92.435C55.0397 93.4383 55.0747 94.4183 55.1447 95.375C55.2147 96.3083 55.3897 97.195 55.6697 98.035H51.9597L51.2247 95.62H51.0497C50.5831 96.3433 49.9297 96.9733 49.0897 97.51C48.2731 98.0233 47.2114 98.28 45.9047 98.28C45.0881 98.28 44.3531 98.1633 43.6997 97.93C43.0464 97.6733 42.4864 97.3233 42.0197 96.88C41.5531 96.4133 41.1914 95.8767 40.9347 95.27C40.6781 94.64 40.5497 93.94 40.5497 93.17C40.5497 92.0967 40.7831 91.1983 41.2497 90.475C41.7397 89.7283 42.4281 89.1333 43.3147 88.69C44.2247 88.2233 45.2981 87.9083 46.5347 87.745C47.7947 87.5583 49.1947 87.5 50.7347 87.57C50.8981 86.2633 50.8047 85.33 50.4547 84.77C50.1047 84.1867 49.3231 83.895 48.1097 83.895C47.1997 83.895 46.2314 83.9883 45.2047 84.175C44.2014 84.3617 43.3731 84.6067 42.7197 84.91L41.6347 81.515ZM47.4097 94.535C48.3197 94.535 49.0431 94.3367 49.5797 93.94C50.1164 93.52 50.5131 93.0767 50.7697 92.61V90.335C50.0464 90.265 49.3464 90.2533 48.6697 90.3C48.0164 90.3467 47.4331 90.4517 46.9197 90.615C46.4064 90.7783 45.9981 91.0117 45.6947 91.315C45.3914 91.6183 45.2397 92.0033 45.2397 92.47C45.2397 93.1233 45.4264 93.6367 45.7997 94.01C46.1964 94.36 46.7331 94.535 47.4097 94.535ZM68.063 84.77C67.3397 84.5133 66.6863 84.385 66.103 84.385C65.2863 84.385 64.598 84.6067 64.038 85.05C63.5013 85.47 63.1397 86.0183 62.953 86.695V98H58.403V80.5H61.938L62.463 82.81H62.603C62.9997 81.9467 63.5363 81.2817 64.213 80.815C64.8897 80.3483 65.683 80.115 66.593 80.115C67.1997 80.115 67.888 80.2433 68.658 80.5L68.063 84.77ZM79.9135 98V88.48C79.9135 86.87 79.7618 85.7267 79.4585 85.05C79.1552 84.3733 78.5252 84.035 77.5685 84.035C76.7752 84.035 76.1335 84.2567 75.6435 84.7C75.1535 85.12 74.7802 85.6683 74.5235 86.345V98H69.9735V80.5H73.5085L74.0335 82.81H74.1735C74.7102 82.0633 75.3868 81.41 76.2035 80.85C77.0435 80.29 78.1168 80.01 79.4235 80.01C80.5435 80.01 81.4535 80.2433 82.1535 80.71C82.8768 81.1533 83.4368 81.9117 83.8335 82.985C84.3702 82.075 85.0585 81.3517 85.8985 80.815C86.7385 80.2783 87.7535 80.01 88.9435 80.01C89.9235 80.01 90.7518 80.1267 91.4285 80.36C92.1285 80.5933 92.6885 81.0017 93.1085 81.585C93.5519 82.145 93.8785 82.9033 94.0885 83.86C94.2985 84.8167 94.4035 86.03 94.4035 87.5V98H89.8535V88.165C89.8535 86.7883 89.7018 85.7617 89.3985 85.085C89.1185 84.385 88.4768 84.035 87.4735 84.035C86.6568 84.035 86.0035 84.2567 85.5135 84.7C85.0469 85.1433 84.6968 85.75 84.4635 86.52V98H79.9135ZM96.5976 89.25C96.5976 86.2867 97.3209 84.0117 98.7676 82.425C100.214 80.815 102.244 80.01 104.858 80.01C106.258 80.01 107.471 80.2317 108.498 80.675C109.524 81.1183 110.376 81.7483 111.053 82.565C111.729 83.3583 112.231 84.3267 112.558 85.47C112.908 86.6133 113.083 87.8733 113.083 89.25C113.083 92.2133 112.359 94.5 110.913 96.11C109.489 97.6967 107.471 98.49 104.858 98.49C103.458 98.49 102.244 98.2683 101.218 97.825C100.191 97.3817 99.3276 96.7633 98.6276 95.97C97.9509 95.1533 97.4376 94.1733 97.0876 93.03C96.7609 91.8867 96.5976 90.6267 96.5976 89.25ZM101.288 89.25C101.288 90.02 101.358 90.7317 101.498 91.385C101.638 92.0383 101.848 92.61 102.128 93.1C102.408 93.59 102.769 93.975 103.213 94.255C103.679 94.5117 104.228 94.64 104.858 94.64C106.048 94.64 106.934 94.2083 107.518 93.345C108.101 92.4817 108.393 91.1167 108.393 89.25C108.393 87.64 108.124 86.345 107.588 85.365C107.051 84.3617 106.141 83.86 104.858 83.86C103.738 83.86 102.863 84.28 102.233 85.12C101.603 85.96 101.288 87.3367 101.288 89.25ZM126.246 98V88.06C126.246 86.6367 126.036 85.61 125.616 84.98C125.22 84.35 124.531 84.035 123.551 84.035C122.688 84.035 121.953 84.2917 121.346 84.805C120.763 85.295 120.343 85.9133 120.086 86.66V98H115.536V80.5H119.141L119.666 82.81H119.806C120.343 82.0633 121.055 81.41 121.941 80.85C122.828 80.29 123.971 80.01 125.371 80.01C126.235 80.01 127.005 80.1267 127.681 80.36C128.358 80.5933 128.93 80.9783 129.396 81.515C129.863 82.0517 130.213 82.7867 130.446 83.72C130.68 84.63 130.796 85.7617 130.796 87.115V98H126.246ZM140.279 90.335L140.909 93.065H141.119L141.574 90.3L144.234 80.5H148.924L143.604 96.285C143.16 97.5917 142.729 98.7817 142.309 99.855C141.912 100.952 141.469 101.897 140.979 102.69C140.489 103.483 139.94 104.09 139.334 104.51C138.75 104.953 138.05 105.175 137.234 105.175C136.02 105.175 135.052 104.977 134.329 104.58L135.169 100.94C135.519 101.08 135.869 101.15 136.219 101.15C136.755 101.15 137.269 100.917 137.759 100.45C138.272 100.007 138.657 99.19 138.914 98L131.599 80.5H137.059L140.279 90.335Z" fill="#2A2921"/>
</svg>
