<svg width="169" height="136" viewBox="0 0 169 136" fill="none" xmlns="http://www.w3.org/2000/svg">
<path d="M32.1046 39.21H29.6896V35.64H32.1046V34.52C32.1046 33.5167 32.2679 32.56 32.5946 31.65C32.9446 30.74 33.4346 29.9583 34.0646 29.305C34.7179 28.6283 35.4996 28.0917 36.4096 27.695C37.3429 27.2983 38.3929 27.1 39.5596 27.1C40.8896 27.1 42.1029 27.3217 43.1996 27.765C44.3196 28.185 45.3696 28.7217 46.3496 29.375L44.4946 32.875C43.8879 32.3383 43.1763 31.9067 42.3596 31.58C41.5429 31.2533 40.7146 31.09 39.8746 31.09C38.8246 31.09 38.0429 31.4167 37.5296 32.07C37.0396 32.7233 36.7946 33.4817 36.7946 34.345V35.64H46.6296V53H41.9396V39.21H36.7946V53H32.1046V39.21ZM67.2222 53H62.5322V42.71C62.5322 41.24 62.2755 40.1667 61.7622 39.49C61.2489 38.8133 60.5372 38.475 59.6272 38.475C59.1605 38.475 58.6822 38.5683 58.1922 38.755C57.7022 38.9417 57.2355 39.21 56.7922 39.56C56.3722 39.8867 55.9872 40.2833 55.6372 40.75C55.2872 41.2167 55.0305 41.73 54.8672 42.29V53H50.1772V34.66H54.4122V38.055C55.0889 36.8883 56.0689 35.9783 57.3522 35.325C58.6355 34.6717 60.0822 34.345 61.6922 34.345C62.8355 34.345 63.7689 34.555 64.4922 34.975C65.2155 35.395 65.7755 35.9433 66.1722 36.62C66.5689 37.2967 66.8372 38.0667 66.9772 38.93C67.1405 39.7933 67.2222 40.6683 67.2222 41.555V53ZM78.1952 53.35C76.9352 53.35 75.7686 53.105 74.6952 52.615C73.6219 52.125 72.7002 51.4483 71.9302 50.585C71.1602 49.7217 70.5536 48.7183 70.1102 47.575C69.6902 46.4083 69.4802 45.16 69.4802 43.83C69.4802 42.5 69.6786 41.2633 70.0752 40.12C70.4952 38.9767 71.0669 37.9733 71.7902 37.11C72.5136 36.2467 73.3769 35.57 74.3802 35.08C75.3836 34.59 76.4802 34.345 77.6702 34.345C79.0236 34.345 80.2369 34.6717 81.3102 35.325C82.4069 35.9783 83.2586 36.83 83.8652 37.88V27.45H88.5552V47.61C88.5552 48.1 88.6369 48.45 88.8002 48.66C88.9636 48.87 89.2436 48.9867 89.6402 49.01V53C88.8236 53.1633 88.1586 53.245 87.6452 53.245C86.8052 53.245 86.1169 53.035 85.5802 52.615C85.0436 52.195 84.7402 51.6467 84.6702 50.97L84.5652 49.815C83.8886 50.9817 82.9669 51.8683 81.8002 52.475C80.6569 53.0583 79.4552 53.35 78.1952 53.35ZM79.4202 49.36C79.8636 49.36 80.3186 49.29 80.7852 49.15C81.2519 48.9867 81.6836 48.765 82.0802 48.485C82.4769 48.205 82.8269 47.8783 83.1302 47.505C83.4569 47.1317 83.7019 46.7233 83.8652 46.28V41.905C83.6786 41.3917 83.4102 40.925 83.0602 40.505C82.7336 40.0617 82.3486 39.6883 81.9052 39.385C81.4852 39.0583 81.0302 38.8017 80.5402 38.615C80.0736 38.4283 79.6069 38.335 79.1402 38.335C78.4402 38.335 77.7869 38.4867 77.1802 38.79C76.5969 39.0933 76.0952 39.5133 75.6752 40.05C75.2552 40.5633 74.9286 41.1583 74.6952 41.835C74.4619 42.5117 74.3452 43.2117 74.3452 43.935C74.3452 44.705 74.4736 45.4167 74.7302 46.07C74.9869 46.7233 75.3369 47.295 75.7802 47.785C76.2236 48.275 76.7486 48.66 77.3552 48.94C77.9852 49.22 78.6736 49.36 79.4202 49.36ZM92.4588 53V34.66H97.1488V53H92.4588ZM92.4588 32.105V27.45H97.1488V32.105H92.4588ZM117.725 53H113.035V42.71C113.035 41.24 112.778 40.1667 112.265 39.49C111.751 38.8133 111.04 38.475 110.13 38.475C109.663 38.475 109.185 38.5683 108.695 38.755C108.205 38.9417 107.738 39.21 107.295 39.56C106.875 39.8867 106.49 40.2833 106.14 40.75C105.79 41.2167 105.533 41.73 105.37 42.29V53H100.68V34.66H104.915V38.055C105.591 36.8883 106.571 35.9783 107.855 35.325C109.138 34.6717 110.585 34.345 112.195 34.345C113.338 34.345 114.271 34.555 114.995 34.975C115.718 35.395 116.278 35.9433 116.675 36.62C117.071 37.2967 117.34 38.0667 117.48 38.93C117.643 39.7933 117.725 40.6683 117.725 41.555V53ZM128.278 53.105C127.041 53.105 125.921 52.86 124.918 52.37C123.914 51.88 123.039 51.215 122.293 50.375C121.569 49.5117 121.009 48.52 120.613 47.4C120.216 46.28 120.018 45.09 120.018 43.83C120.018 42.5 120.228 41.2633 120.648 40.12C121.068 38.9767 121.651 37.9733 122.398 37.11C123.144 36.2467 124.043 35.57 125.093 35.08C126.143 34.59 127.298 34.345 128.558 34.345C129.981 34.345 131.229 34.6717 132.303 35.325C133.376 35.955 134.263 36.8067 134.963 37.88V34.66H139.058V52.125C139.058 53.4783 138.801 54.6917 138.288 55.765C137.774 56.8383 137.063 57.7483 136.153 58.495C135.266 59.2417 134.193 59.8133 132.933 60.21C131.696 60.6067 130.343 60.805 128.873 60.805C126.866 60.805 125.174 60.4667 123.798 59.79C122.444 59.1367 121.278 58.2033 120.298 56.99L122.853 54.505C123.553 55.3683 124.428 56.045 125.478 56.535C126.551 57.025 127.683 57.27 128.873 57.27C129.596 57.27 130.284 57.165 130.938 56.955C131.614 56.7683 132.209 56.465 132.723 56.045C133.236 55.625 133.633 55.0883 133.913 54.435C134.216 53.7817 134.368 53.0117 134.368 52.125V49.815C133.761 50.865 132.909 51.6817 131.813 52.265C130.716 52.825 129.538 53.105 128.278 53.105ZM129.853 49.36C130.366 49.36 130.856 49.2783 131.323 49.115C131.789 48.9517 132.221 48.73 132.618 48.45C133.014 48.17 133.364 47.8433 133.668 47.47C133.971 47.0967 134.204 46.7 134.368 46.28V41.905C133.948 40.8317 133.283 39.9683 132.373 39.315C131.486 38.6617 130.553 38.335 129.573 38.335C128.849 38.335 128.196 38.4983 127.613 38.825C127.029 39.1283 126.528 39.5483 126.108 40.085C125.688 40.5983 125.361 41.1933 125.128 41.87C124.918 42.5467 124.813 43.2467 124.813 43.97C124.813 44.7167 124.941 45.4167 125.198 46.07C125.454 46.7233 125.804 47.295 126.248 47.785C126.714 48.275 127.251 48.66 127.858 48.94C128.464 49.22 129.129 49.36 129.853 49.36ZM11.5074 71.89L8.56738 71.505V70L14.2724 69.335H14.3424L15.1124 69.86V77.98L14.9724 80.955C15.719 80.2783 16.7457 79.6367 18.0524 79.03C19.359 78.4233 20.6774 78.12 22.0074 78.12C23.4774 78.12 24.6207 78.4 25.4374 78.96C26.254 79.52 26.8257 80.3833 27.1524 81.55C27.479 82.6933 27.6424 84.245 27.6424 86.205V95.97L30.0924 96.285V98H21.7274V96.285L24.0024 95.97V86.17C24.0024 84.7933 23.909 83.72 23.7224 82.95C23.5357 82.1567 23.1857 81.5733 22.6724 81.2C22.159 80.8033 21.389 80.605 20.3624 80.605C19.5224 80.605 18.624 80.815 17.6674 81.235C16.7107 81.655 15.8707 82.145 15.1474 82.705V95.97L17.5624 96.285V98H9.40738V96.285L11.5074 96.005V71.89ZM31.9887 92.75C31.9887 90.5567 33.0853 88.9467 35.2787 87.92C37.472 86.87 40.2487 86.31 43.6087 86.24V85.26C43.6087 84.1633 43.492 83.3 43.2587 82.67C43.0253 82.04 42.617 81.585 42.0337 81.305C41.4737 81.0017 40.6687 80.85 39.6187 80.85C38.4287 80.85 37.3553 81.025 36.3987 81.375C35.4653 81.7017 34.532 82.11 33.5987 82.6L32.7237 80.78C33.027 80.5233 33.587 80.185 34.4037 79.765C35.2203 79.345 36.1653 78.9717 37.2387 78.645C38.312 78.3183 39.3853 78.155 40.4587 78.155C42.1153 78.155 43.422 78.3883 44.3787 78.855C45.3587 79.2983 46.0587 80.0217 46.4787 81.025C46.8987 82.0283 47.1087 83.37 47.1087 85.05V96.285H49.1737V97.825C48.707 97.9417 48.112 98.0583 47.3887 98.175C46.6887 98.2917 46.0703 98.35 45.5337 98.35C44.8803 98.35 44.437 98.245 44.2037 98.035C43.9703 97.8483 43.8537 97.4167 43.8537 96.74V95.585C43.1537 96.285 42.2903 96.9267 41.2637 97.51C40.2603 98.0933 39.117 98.385 37.8337 98.385C36.1537 98.385 34.7537 97.9067 33.6337 96.95C32.537 95.97 31.9887 94.57 31.9887 92.75ZM39.3387 96.005C39.9453 96.005 40.6453 95.8183 41.4387 95.445C42.232 95.0717 42.9553 94.6283 43.6087 94.115V88.095C41.0653 88.095 39.1403 88.4917 37.8337 89.285C36.5503 90.055 35.9087 91.07 35.9087 92.33C35.9087 93.59 36.212 94.5233 36.8187 95.13C37.4487 95.7133 38.2887 96.005 39.3387 96.005ZM50.9778 96.285L53.6028 96.075V81.27L51.0828 80.64V78.75L55.9128 78.12H55.9828L56.7528 78.75V79.38L56.6478 82.11H56.7528C56.9861 81.7133 57.4061 81.2 58.0128 80.57C58.6195 79.94 59.4011 79.3683 60.3578 78.855C61.3145 78.3183 62.3528 78.05 63.4728 78.05C63.9395 78.05 64.3245 78.1083 64.6278 78.225V82.145C64.4645 82.0283 64.1961 81.9233 63.8228 81.83C63.4728 81.7133 63.0761 81.655 62.6328 81.655C60.6961 81.655 58.8995 82.25 57.2428 83.44V96.04L61.6878 96.32V98H50.9778V96.285ZM66.2031 96.285L68.3381 95.97V81.27L65.8181 80.64V78.75L70.8231 78.12L71.4531 78.575L71.6631 79.975L71.6281 81.095C72.4448 80.3483 73.5531 79.6717 74.9531 79.065C76.3764 78.435 77.6481 78.12 78.7681 78.12C80.0281 78.12 81.0431 78.33 81.8131 78.75C82.5831 79.17 83.1664 79.8233 83.5631 80.71C84.3098 80.08 85.3481 79.4967 86.6781 78.96C88.0314 78.4 89.2914 78.12 90.4581 78.12C91.9048 78.12 93.0364 78.4 93.8531 78.96C94.6698 79.4967 95.2414 80.3483 95.5681 81.515C95.9181 82.6583 96.0931 84.1983 96.0931 86.135V95.97L98.6131 96.285V98H90.2831V96.285L92.4531 95.97V86.24C92.4531 84.8867 92.3481 83.8133 92.1381 83.02C91.9514 82.2033 91.5781 81.5967 91.0181 81.2C90.4814 80.8033 89.6998 80.605 88.6731 80.605C87.9031 80.605 87.0864 80.78 86.2231 81.13C85.3598 81.4567 84.6248 81.8533 84.0181 82.32C84.2281 83.23 84.3331 84.525 84.3331 86.205V95.97L86.8181 96.285V98H78.3481V96.285L80.6581 95.97V86.17C80.6581 84.77 80.5648 83.685 80.3781 82.915C80.2148 82.145 79.8881 81.5733 79.3981 81.2C78.9081 80.8033 78.1614 80.605 77.1581 80.605C76.3181 80.605 75.4198 80.815 74.4631 81.235C73.5298 81.655 72.7131 82.145 72.0131 82.705V95.97L74.3581 96.285V98H66.2031V96.285ZM100.367 88.235C100.367 86.135 100.799 84.315 101.662 82.775C102.526 81.235 103.657 80.0683 105.057 79.275C106.481 78.4583 107.997 78.05 109.607 78.05C112.547 78.05 114.752 78.9833 116.222 80.85C117.716 82.7167 118.462 85.1667 118.462 88.2C118.462 90.3233 118.031 92.155 117.167 93.695C116.304 95.235 115.161 96.4017 113.737 97.195C112.337 97.9883 110.832 98.385 109.222 98.385C106.282 98.385 104.066 97.4517 102.572 95.585C101.102 93.7183 100.367 91.2683 100.367 88.235ZM109.432 96.39C111.042 96.39 112.279 95.725 113.142 94.395C114.006 93.065 114.437 91.0933 114.437 88.48C114.437 85.89 114.041 83.8367 113.247 82.32C112.454 80.8033 111.182 80.045 109.432 80.045C107.822 80.045 106.574 80.71 105.687 82.04C104.824 83.37 104.392 85.3417 104.392 87.955C104.392 90.545 104.801 92.5983 105.617 94.115C106.434 95.6317 107.706 96.39 109.432 96.39ZM123.061 81.27L120.541 80.64V78.75L125.546 78.12H125.651L126.386 78.75V80.22L126.351 81.06C127.191 80.3133 128.299 79.6367 129.676 79.03C131.053 78.4233 132.371 78.12 133.631 78.12C135.101 78.12 136.233 78.4 137.026 78.96C137.843 79.52 138.414 80.3833 138.741 81.55C139.068 82.6933 139.231 84.245 139.231 86.205V96.005L141.681 96.25V98H133.386V96.285L135.556 96.005V86.17C135.556 84.7933 135.463 83.72 135.276 82.95C135.089 82.1567 134.739 81.5733 134.226 81.2C133.713 80.8033 132.966 80.605 131.986 80.605C131.146 80.605 130.248 80.815 129.291 81.235C128.334 81.655 127.483 82.145 126.736 82.705V95.97L129.116 96.285V98H120.856V96.285L123.061 95.97V81.27ZM146.338 106.715C145.942 106.715 145.545 106.692 145.148 106.645C144.775 106.598 144.507 106.528 144.343 106.435V103.39C144.483 103.483 144.752 103.553 145.148 103.6C145.568 103.647 145.965 103.67 146.338 103.67C147.458 103.67 148.438 103.273 149.278 102.48C150.142 101.71 150.97 100.217 151.763 98H150.083L143.433 80.675L141.823 80.22V78.575H150.258V80.22L147.563 80.64L150.993 90.965L152.603 96.075L154.108 90.93L157.223 80.64L154.878 80.22V78.575H161.913V80.22L160.163 80.64C156.733 91.14 154.715 97.1017 154.108 98.525C153.315 100.532 152.592 102.095 151.938 103.215C151.285 104.358 150.515 105.222 149.628 105.805C148.742 106.412 147.645 106.715 146.338 106.715Z" fill="#2A2921"/>
</svg>
