<svg width="169" height="136" viewBox="0 0 169 136" fill="none" xmlns="http://www.w3.org/2000/svg">
<path d="M35.0703 52V37.1318H32.3188V33.5088H35.0703V32.6543C35.0931 30.3301 35.8052 28.5413 37.2065 27.2881C38.6193 26.0234 40.6074 25.3911 43.1709 25.3911C44.709 25.3911 46.5775 25.7272 48.7764 26.3994L48.0586 30.4839C46.9421 30.1535 46.0762 29.9427 45.4609 29.8516C44.8457 29.749 44.1849 29.6978 43.4785 29.6978C41.1771 29.6978 40.0264 30.7174 40.0264 32.7568V33.5088H43.6665V37.1318H40.0264V52H35.0703ZM51.0835 52H46.1274V33.5088H51.0835V52ZM59.0139 33.5088L59.1677 35.645C60.4893 33.993 62.2609 33.167 64.4826 33.167C66.4423 33.167 67.9006 33.7424 68.8576 34.8931C69.8146 36.0438 70.3046 37.7642 70.3273 40.0542V52H65.3884V40.1738C65.3884 39.1257 65.1605 38.368 64.7048 37.9009C64.2491 37.4224 63.4914 37.1831 62.4318 37.1831C61.0419 37.1831 59.9994 37.7756 59.3044 38.9604V52H54.3654V33.5088H59.0139ZM72.6181 42.6177C72.6181 39.7352 73.2618 37.4395 74.5492 35.7305C75.848 34.0215 77.6197 33.167 79.8642 33.167C81.6643 33.167 83.1511 33.8392 84.3246 35.1836V25.75H89.2807V52H84.8202L84.581 50.0347C83.3505 51.5728 81.7668 52.3418 79.83 52.3418C77.6539 52.3418 75.905 51.4873 74.5834 49.7783C73.2732 48.0579 72.6181 45.6711 72.6181 42.6177ZM77.557 42.9766C77.557 44.7083 77.859 46.0356 78.4628 46.9585C79.0666 47.8813 79.9439 48.3428 81.0946 48.3428C82.6213 48.3428 83.698 47.6991 84.3246 46.4116V39.1143C83.7094 37.8268 82.6441 37.1831 81.1288 37.1831C78.7476 37.1831 77.557 39.1143 77.557 42.9766ZM97.6212 52H92.6651V33.5088H97.6212V52ZM92.3746 28.7236C92.3746 27.9831 92.6196 27.3735 93.1095 26.895C93.6108 26.4165 94.2887 26.1772 95.1432 26.1772C95.9863 26.1772 96.6585 26.4165 97.1598 26.895C97.6611 27.3735 97.9117 27.9831 97.9117 28.7236C97.9117 29.4756 97.6554 30.0908 97.1427 30.5693C96.6414 31.0479 95.9749 31.2871 95.1432 31.2871C94.3115 31.2871 93.6393 31.0479 93.1266 30.5693C92.6253 30.0908 92.3746 29.4756 92.3746 28.7236ZM105.552 33.5088L105.705 35.645C107.027 33.993 108.799 33.167 111.02 33.167C112.98 33.167 114.438 33.7424 115.395 34.8931C116.352 36.0438 116.842 37.7642 116.865 40.0542V52H111.926V40.1738C111.926 39.1257 111.698 38.368 111.242 37.9009C110.787 37.4224 110.029 37.1831 108.97 37.1831C107.58 37.1831 106.537 37.7756 105.842 38.9604V52H100.903V33.5088H105.552ZM119.207 42.6177C119.207 39.7808 119.879 37.4964 121.224 35.7646C122.579 34.0329 124.402 33.167 126.692 33.167C128.72 33.167 130.298 33.862 131.426 35.252L131.631 33.5088H136.109V51.3848C136.109 53.0026 135.739 54.4097 134.998 55.606C134.269 56.8022 133.238 57.7137 131.905 58.3403C130.572 58.967 129.011 59.2803 127.222 59.2803C125.866 59.2803 124.545 59.0068 123.257 58.46C121.97 57.9245 120.996 57.2295 120.335 56.375L122.522 53.3672C123.753 54.7458 125.245 55.4351 127 55.4351C128.31 55.4351 129.33 55.0819 130.059 54.3755C130.788 53.6805 131.153 52.6893 131.153 51.4019V50.4106C130.014 51.6981 128.515 52.3418 126.658 52.3418C124.437 52.3418 122.636 51.4759 121.258 49.7441C119.891 48.001 119.207 45.6938 119.207 42.8228V42.6177ZM124.146 42.9766C124.146 44.6514 124.482 45.9673 125.154 46.9243C125.826 47.87 126.749 48.3428 127.923 48.3428C129.427 48.3428 130.503 47.7788 131.153 46.6509V38.875C130.492 37.7471 129.427 37.1831 127.957 37.1831C126.772 37.1831 125.838 37.6673 125.154 38.6357C124.482 39.6042 124.146 41.0511 124.146 42.9766ZM29.3946 79.535C31.4012 79.535 32.9179 80.1067 33.9446 81.25C34.9712 82.37 35.4846 84.05 35.4846 86.29V95.775C35.4846 96.2183 35.3562 96.5683 35.0996 96.825C34.8429 97.0583 34.5046 97.175 34.0846 97.175C33.6412 97.175 33.2912 97.0583 33.0346 96.825C32.7779 96.5683 32.6496 96.2183 32.6496 95.775V86.36C32.6496 84.8433 32.3346 83.7233 31.7046 83C31.0979 82.2767 30.1179 81.915 28.7646 81.915C27.2012 81.915 25.9529 82.3933 25.0196 83.35C24.0862 84.3067 23.6196 85.6017 23.6196 87.235V95.775C23.6196 96.2183 23.4912 96.5683 23.2346 96.825C23.0012 97.0583 22.6629 97.175 22.2196 97.175C21.7762 97.175 21.4262 97.0583 21.1696 96.825C20.9129 96.5683 20.7846 96.2183 20.7846 95.775V73.515C20.7846 73.1183 20.9129 72.7917 21.1696 72.535C21.4496 72.2783 21.7996 72.15 22.2196 72.15C22.6629 72.15 23.0012 72.2783 23.2346 72.535C23.4912 72.7683 23.6196 73.095 23.6196 73.515V82.685C24.1796 81.6583 24.9612 80.8767 25.9646 80.34C26.9679 79.8033 28.1112 79.535 29.3946 79.535ZM46.9421 79.535C51.2121 79.535 53.3471 81.775 53.3471 86.255V95.775C53.3471 96.195 53.2188 96.5333 52.9621 96.79C52.7288 97.0467 52.4021 97.175 51.9821 97.175C51.5621 97.175 51.2238 97.0467 50.9671 96.79C50.7105 96.5333 50.5821 96.195 50.5821 95.775V94.095C50.1388 95.0983 49.4621 95.88 48.5521 96.44C47.6421 96.9767 46.5921 97.245 45.4021 97.245C44.3055 97.245 43.2905 97.0233 42.3571 96.58C41.4471 96.1367 40.7238 95.5183 40.1871 94.725C39.6505 93.9317 39.3821 93.0567 39.3821 92.1C39.3821 90.8167 39.7088 89.825 40.3621 89.125C41.0155 88.4017 42.0888 87.8883 43.5821 87.585C45.0755 87.2583 47.1521 87.095 49.8121 87.095H50.5821V85.94C50.5821 84.54 50.2905 83.5133 49.7071 82.86C49.1471 82.2067 48.2255 81.88 46.9421 81.88C45.3555 81.88 43.7455 82.3117 42.1121 83.175C41.4821 83.5717 41.0388 83.77 40.7821 83.77C40.5021 83.77 40.2688 83.665 40.0821 83.455C39.8955 83.245 39.8021 82.9767 39.8021 82.65C39.8021 82.3233 39.8955 82.0433 40.0821 81.81C40.2921 81.5533 40.6188 81.2967 41.0621 81.04C41.8788 80.5733 42.8005 80.2117 43.8271 79.955C44.8771 79.675 45.9155 79.535 46.9421 79.535ZM45.7871 95.005C47.1871 95.005 48.3305 94.5383 49.2171 93.605C50.1271 92.6483 50.5821 91.4233 50.5821 89.93V88.915H49.9521C47.8988 88.915 46.3355 89.0083 45.2621 89.195C44.1888 89.3583 43.4188 89.65 42.9521 90.07C42.5088 90.4667 42.2871 91.0617 42.2871 91.855C42.2871 92.765 42.6138 93.5233 43.2671 94.13C43.9438 94.7133 44.7838 95.005 45.7871 95.005ZM66.2717 79.605C67.2517 79.535 67.7417 79.9317 67.7417 80.795C67.7417 81.1683 67.6367 81.4717 67.4267 81.705C67.2167 81.915 66.855 82.0433 66.3417 82.09L65.2917 82.195C63.7284 82.335 62.5617 82.895 61.7917 83.875C61.045 84.8317 60.6717 85.9633 60.6717 87.27V95.775C60.6717 96.2417 60.5434 96.5917 60.2867 96.825C60.03 97.0583 59.6917 97.175 59.2717 97.175C58.8517 97.175 58.5017 97.0583 58.2217 96.825C57.965 96.5683 57.8367 96.2183 57.8367 95.775V81.005C57.8367 80.5617 57.9767 80.2233 58.2567 79.99C58.5367 79.7333 58.875 79.605 59.2717 79.605C59.645 79.605 59.96 79.7333 60.2167 79.99C60.4734 80.2233 60.6017 80.55 60.6017 80.97V82.93C61.0917 81.9033 61.78 81.1217 62.6667 80.585C63.5767 80.0483 64.615 79.7333 65.7817 79.64L66.2717 79.605ZM88.4456 79.535C92.2256 79.535 94.1156 81.7867 94.1156 86.29V95.775C94.1156 96.2183 93.9873 96.5683 93.7306 96.825C93.4739 97.0583 93.1356 97.175 92.7156 97.175C92.2956 97.175 91.9456 97.0583 91.6656 96.825C91.4089 96.5683 91.2806 96.2183 91.2806 95.775V86.36C91.2806 84.7967 91.0006 83.665 90.4406 82.965C89.8806 82.265 89.0056 81.915 87.8156 81.915C86.3923 81.915 85.2723 82.3933 84.4556 83.35C83.6389 84.3067 83.2306 85.6017 83.2306 87.235V95.775C83.2306 96.2183 83.0906 96.5683 82.8106 96.825C82.5539 97.0583 82.2156 97.175 81.7956 97.175C81.3756 97.175 81.0373 97.0583 80.7806 96.825C80.5239 96.5683 80.3956 96.2183 80.3956 95.775V86.36C80.3956 84.7967 80.1156 83.665 79.5556 82.965C78.9956 82.265 78.1089 81.915 76.8956 81.915C75.4956 81.915 74.3756 82.3933 73.5356 83.35C72.7189 84.3067 72.3106 85.6017 72.3106 87.235V95.775C72.3106 96.2183 72.1823 96.5683 71.9256 96.825C71.6689 97.0583 71.3306 97.175 70.9106 97.175C70.4906 97.175 70.1406 97.0583 69.8606 96.825C69.6039 96.5683 69.4756 96.2183 69.4756 95.775V81.005C69.4756 80.585 69.6039 80.2467 69.8606 79.99C70.1406 79.7333 70.4906 79.605 70.9106 79.605C71.3073 79.605 71.6339 79.7333 71.8906 79.99C72.1473 80.2233 72.2756 80.55 72.2756 80.97V82.65C72.7889 81.6467 73.5006 80.8767 74.4106 80.34C75.3206 79.8033 76.3706 79.535 77.5606 79.535C80.2206 79.535 81.9589 80.655 82.7756 82.895C83.2656 81.8683 84.0123 81.0517 85.0156 80.445C86.0189 79.8383 87.1623 79.535 88.4456 79.535ZM105.65 97.245C104.04 97.245 102.617 96.8833 101.38 96.16C100.167 95.4367 99.2219 94.41 98.5453 93.08C97.8919 91.7267 97.5653 90.1633 97.5653 88.39C97.5653 86.6167 97.8919 85.065 98.5453 83.735C99.2219 82.3817 100.167 81.3433 101.38 80.62C102.617 79.8967 104.04 79.535 105.65 79.535C107.26 79.535 108.684 79.8967 109.92 80.62C111.157 81.3433 112.102 82.3817 112.755 83.735C113.432 85.065 113.77 86.6167 113.77 88.39C113.77 90.1633 113.432 91.7267 112.755 93.08C112.102 94.41 111.157 95.4367 109.92 96.16C108.684 96.8833 107.26 97.245 105.65 97.245ZM105.65 94.9C107.33 94.9 108.614 94.3517 109.5 93.255C110.41 92.135 110.865 90.5133 110.865 88.39C110.865 86.3133 110.41 84.715 109.5 83.595C108.59 82.4517 107.307 81.88 105.65 81.88C103.994 81.88 102.71 82.4517 101.8 83.595C100.89 84.715 100.435 86.3133 100.435 88.39C100.435 90.49 100.879 92.1 101.765 93.22C102.675 94.34 103.97 94.9 105.65 94.9ZM125.869 79.535C129.953 79.535 131.994 81.7867 131.994 86.29V95.775C131.994 96.2183 131.866 96.5683 131.609 96.825C131.376 97.0583 131.038 97.175 130.594 97.175C130.151 97.175 129.801 97.0583 129.544 96.825C129.288 96.5683 129.159 96.2183 129.159 95.775V86.465C129.159 84.8783 128.844 83.7233 128.214 83C127.608 82.2767 126.628 81.915 125.274 81.915C123.711 81.915 122.463 82.3933 121.529 83.35C120.596 84.3067 120.129 85.6017 120.129 87.235V95.775C120.129 96.2183 120.001 96.5683 119.744 96.825C119.511 97.0583 119.173 97.175 118.729 97.175C118.286 97.175 117.936 97.0583 117.679 96.825C117.423 96.5683 117.294 96.2183 117.294 95.775V81.005C117.294 80.585 117.423 80.2467 117.679 79.99C117.936 79.7333 118.286 79.605 118.729 79.605C119.149 79.605 119.476 79.7333 119.709 79.99C119.966 80.2467 120.094 80.5733 120.094 80.97V82.755C120.654 81.705 121.436 80.9117 122.439 80.375C123.443 79.815 124.586 79.535 125.869 79.535ZM148.772 80.48C149.029 79.92 149.437 79.64 149.997 79.64C150.347 79.64 150.662 79.7567 150.942 79.99C151.222 80.2233 151.362 80.515 151.362 80.865C151.362 81.075 151.315 81.2617 151.222 81.425L141.387 102.635C141.27 102.892 141.095 103.09 140.862 103.23C140.652 103.37 140.43 103.44 140.197 103.44C139.847 103.44 139.532 103.323 139.252 103.09C138.995 102.88 138.867 102.6 138.867 102.25C138.867 102.063 138.914 101.877 139.007 101.69L141.457 96.405L134.527 81.425C134.434 81.2617 134.387 81.0867 134.387 80.9C134.387 80.55 134.539 80.2467 134.842 79.99C135.169 79.7333 135.519 79.605 135.892 79.605C136.125 79.605 136.347 79.675 136.557 79.815C136.79 79.955 136.965 80.1533 137.082 80.41L142.927 93.535L148.772 80.48Z" fill="#2A2921"/>
</svg>
