<svg width="169" height="136" viewBox="0 0 169 136" fill="none" xmlns="http://www.w3.org/2000/svg">
<path d="M35.0703 52V37.1318H32.3188V33.5088H35.0703V32.6543C35.0931 30.3301 35.8052 28.5413 37.2065 27.2881C38.6193 26.0234 40.6074 25.3911 43.1709 25.3911C44.709 25.3911 46.5775 25.7272 48.7764 26.3994L48.0586 30.4839C46.9421 30.1535 46.0762 29.9427 45.4609 29.8516C44.8457 29.749 44.1849 29.6978 43.4785 29.6978C41.1771 29.6978 40.0264 30.7174 40.0264 32.7568V33.5088H43.6665V37.1318H40.0264V52H35.0703ZM51.0835 52H46.1274V33.5088H51.0835V52ZM59.0139 33.5088L59.1677 35.645C60.4893 33.993 62.2609 33.167 64.4826 33.167C66.4423 33.167 67.9006 33.7424 68.8576 34.8931C69.8146 36.0438 70.3046 37.7642 70.3273 40.0542V52H65.3884V40.1738C65.3884 39.1257 65.1605 38.368 64.7048 37.9009C64.2491 37.4224 63.4914 37.1831 62.4318 37.1831C61.0419 37.1831 59.9994 37.7756 59.3044 38.9604V52H54.3654V33.5088H59.0139ZM72.6181 42.6177C72.6181 39.7352 73.2618 37.4395 74.5492 35.7305C75.848 34.0215 77.6197 33.167 79.8642 33.167C81.6643 33.167 83.1511 33.8392 84.3246 35.1836V25.75H89.2807V52H84.8202L84.581 50.0347C83.3505 51.5728 81.7668 52.3418 79.83 52.3418C77.6539 52.3418 75.905 51.4873 74.5834 49.7783C73.2732 48.0579 72.6181 45.6711 72.6181 42.6177ZM77.557 42.9766C77.557 44.7083 77.859 46.0356 78.4628 46.9585C79.0666 47.8813 79.9439 48.3428 81.0946 48.3428C82.6213 48.3428 83.698 47.6991 84.3246 46.4116V39.1143C83.7094 37.8268 82.6441 37.1831 81.1288 37.1831C78.7476 37.1831 77.557 39.1143 77.557 42.9766ZM97.6212 52H92.6651V33.5088H97.6212V52ZM92.3746 28.7236C92.3746 27.9831 92.6196 27.3735 93.1095 26.895C93.6108 26.4165 94.2887 26.1772 95.1432 26.1772C95.9863 26.1772 96.6585 26.4165 97.1598 26.895C97.6611 27.3735 97.9117 27.9831 97.9117 28.7236C97.9117 29.4756 97.6554 30.0908 97.1427 30.5693C96.6414 31.0479 95.9749 31.2871 95.1432 31.2871C94.3115 31.2871 93.6393 31.0479 93.1266 30.5693C92.6253 30.0908 92.3746 29.4756 92.3746 28.7236ZM105.552 33.5088L105.705 35.645C107.027 33.993 108.799 33.167 111.02 33.167C112.98 33.167 114.438 33.7424 115.395 34.8931C116.352 36.0438 116.842 37.7642 116.865 40.0542V52H111.926V40.1738C111.926 39.1257 111.698 38.368 111.242 37.9009C110.787 37.4224 110.029 37.1831 108.97 37.1831C107.58 37.1831 106.537 37.7756 105.842 38.9604V52H100.903V33.5088H105.552ZM119.207 42.6177C119.207 39.7808 119.879 37.4964 121.224 35.7646C122.579 34.0329 124.402 33.167 126.692 33.167C128.72 33.167 130.298 33.862 131.426 35.252L131.631 33.5088H136.109V51.3848C136.109 53.0026 135.739 54.4097 134.998 55.606C134.269 56.8022 133.238 57.7137 131.905 58.3403C130.572 58.967 129.011 59.2803 127.222 59.2803C125.866 59.2803 124.545 59.0068 123.257 58.46C121.97 57.9245 120.996 57.2295 120.335 56.375L122.522 53.3672C123.753 54.7458 125.245 55.4351 127 55.4351C128.31 55.4351 129.33 55.0819 130.059 54.3755C130.788 53.6805 131.153 52.6893 131.153 51.4019V50.4106C130.014 51.6981 128.515 52.3418 126.658 52.3418C124.437 52.3418 122.636 51.4759 121.258 49.7441C119.891 48.001 119.207 45.6938 119.207 42.8228V42.6177ZM124.146 42.9766C124.146 44.6514 124.482 45.9673 125.154 46.9243C125.826 47.87 126.749 48.3428 127.923 48.3428C129.427 48.3428 130.503 47.7788 131.153 46.6509V38.875C130.492 37.7471 129.427 37.1831 127.957 37.1831C126.772 37.1831 125.838 37.6673 125.154 38.6357C124.482 39.6042 124.146 41.0511 124.146 42.9766ZM21.3932 71.695H24.4732V80.655H24.7182C26.0016 78.9983 27.9382 78.17 30.5282 78.17C34.3549 78.17 36.2682 80.2583 36.2682 84.435V97H33.1882V84.645C33.1882 83.175 32.8616 82.16 32.2082 81.6C31.5549 81.0167 30.6099 80.725 29.3732 80.725C28.4866 80.725 27.6699 80.9467 26.9232 81.39C26.1766 81.81 25.5816 82.4283 25.1382 83.245C24.6949 84.0617 24.4732 85.0183 24.4732 86.115V97H21.3932V71.695ZM45.1465 97.42C43.5598 97.42 42.1481 97.0467 40.9115 96.3C39.6748 95.5533 39.0565 94.2 39.0565 92.24C39.0565 89.8833 40.1065 88.2733 42.2065 87.41C44.3065 86.5233 47.3398 86.08 51.3065 86.08V84.05C51.3065 82.9767 51.0031 82.16 50.3965 81.6C49.7898 81.0167 48.6931 80.725 47.1065 80.725C45.6131 80.725 44.5398 81.005 43.8865 81.565C43.2565 82.125 42.9415 82.8133 42.9415 83.63V84.05H39.9665C39.9431 83.91 39.9315 83.6533 39.9315 83.28C39.9315 81.6467 40.6081 80.3867 41.9615 79.5C43.3148 78.6133 45.1231 78.17 47.3865 78.17C49.6731 78.17 51.4115 78.6483 52.6015 79.605C53.7915 80.5617 54.3865 81.915 54.3865 83.665V93.64C54.3865 94.06 54.5031 94.375 54.7365 94.585C54.9698 94.7717 55.2615 94.865 55.6115 94.865H57.0115V96.86C56.4048 97.14 55.6115 97.28 54.6315 97.28C53.8381 97.28 53.1731 97.0467 52.6365 96.58C52.0998 96.09 51.7381 95.4483 51.5515 94.655H51.3065C50.6765 95.5183 49.8131 96.195 48.7165 96.685C47.6431 97.175 46.4531 97.42 45.1465 97.42ZM45.9515 94.865C46.8615 94.865 47.7248 94.6783 48.5415 94.305C49.3581 93.9317 50.0231 93.3833 50.5365 92.66C51.0498 91.9133 51.3065 91.015 51.3065 89.965V88.635C48.2965 88.635 46.0331 88.88 44.5165 89.37C43.0231 89.8367 42.2765 90.735 42.2765 92.065C42.2765 93.0683 42.5798 93.7917 43.1865 94.235C43.8165 94.655 44.7381 94.865 45.9515 94.865ZM58.8897 78.59H61.2347L61.5847 81.355H61.7947C62.1447 80.445 62.6697 79.6867 63.3697 79.08C64.0697 78.4733 64.9914 78.17 66.1347 78.17C66.7647 78.17 67.3131 78.2633 67.7797 78.45V81.425H66.4847C65.1781 81.425 64.0931 81.81 63.2297 82.58C62.3897 83.3267 61.9697 84.505 61.9697 86.115V97H58.8897V78.59ZM69.845 78.59H72.19L72.54 81.075H72.785C74.045 79.1383 75.8883 78.17 78.315 78.17C80.695 78.17 82.2817 79.1383 83.075 81.075H83.285C83.915 80.1417 84.7317 79.43 85.735 78.94C86.7617 78.4267 87.8467 78.17 88.99 78.17C92.6067 78.17 94.415 80.025 94.415 83.735V97H91.335V84.295C91.335 82.965 91.0433 82.0433 90.46 81.53C89.8767 80.9933 89.0717 80.725 88.045 80.725C86.8083 80.725 85.77 81.215 84.93 82.195C84.09 83.175 83.67 84.4817 83.67 86.115V97H80.59V84.295C80.59 82.965 80.31 82.0433 79.75 81.53C79.19 80.9933 78.3967 80.725 77.37 80.725C76.5767 80.725 75.8417 80.9467 75.165 81.39C74.4883 81.81 73.94 82.4283 73.52 83.245C73.1233 84.0617 72.925 85.0183 72.925 86.115V97H69.845V78.59ZM105.685 97.42C102.862 97.42 100.739 96.6383 99.3153 95.075C97.8919 93.4883 97.1803 91.0617 97.1803 87.795C97.1803 84.5283 97.8919 82.1133 99.3153 80.55C100.739 78.9633 102.862 78.17 105.685 78.17C108.509 78.17 110.632 78.9633 112.055 80.55C113.479 82.1133 114.19 84.5283 114.19 87.795C114.19 91.0617 113.479 93.4883 112.055 95.075C110.632 96.6383 108.509 97.42 105.685 97.42ZM105.685 94.865C107.552 94.865 108.905 94.3283 109.745 93.255C110.585 92.1583 111.005 90.385 111.005 87.935V87.655C111.005 85.205 110.585 83.4433 109.745 82.37C108.905 81.2733 107.552 80.725 105.685 80.725C103.819 80.725 102.465 81.2733 101.625 82.37C100.785 83.4433 100.365 85.205 100.365 87.655V87.935C100.365 90.385 100.785 92.1583 101.625 93.255C102.465 94.3283 103.819 94.865 105.685 94.865ZM117.049 78.59H119.394L119.744 81.075H119.989C121.342 79.1383 123.407 78.17 126.184 78.17C128.027 78.17 129.439 78.6717 130.419 79.675C131.422 80.655 131.924 82.2417 131.924 84.435V97H128.844V84.645C128.844 83.175 128.517 82.16 127.864 81.6C127.21 81.0167 126.265 80.725 125.029 80.725C124.142 80.725 123.325 80.9467 122.579 81.39C121.832 81.81 121.237 82.4283 120.794 83.245C120.35 84.0617 120.129 85.0183 120.129 86.115V97H117.049V78.59ZM137.547 103.37C136.52 103.37 135.703 103.277 135.097 103.09V101.095H136.322C138.702 101.095 140.265 99.73 141.012 97L133.907 78.59H137.162L140.592 87.795C141.082 89.1017 141.747 91.0267 142.587 93.57H142.762C143.438 91.19 144.01 89.265 144.477 87.795L147.417 78.59H150.497L144.442 96.055C143.625 98.3883 142.692 100.185 141.642 101.445C140.615 102.728 139.25 103.37 137.547 103.37Z" fill="#2A2921"/>
</svg>
