<svg width="169" height="136" viewBox="0 0 169 136" fill="none" xmlns="http://www.w3.org/2000/svg">
<path d="M35.0703 52V37.1318H32.3188V33.5088H35.0703V32.6543C35.0931 30.3301 35.8052 28.5413 37.2065 27.2881C38.6193 26.0234 40.6074 25.3911 43.1709 25.3911C44.709 25.3911 46.5775 25.7272 48.7764 26.3994L48.0586 30.4839C46.9421 30.1535 46.0762 29.9427 45.4609 29.8516C44.8457 29.749 44.1849 29.6978 43.4785 29.6978C41.1771 29.6978 40.0264 30.7174 40.0264 32.7568V33.5088H43.6665V37.1318H40.0264V52H35.0703ZM51.0835 52H46.1274V33.5088H51.0835V52ZM59.0139 33.5088L59.1677 35.645C60.4893 33.993 62.2609 33.167 64.4826 33.167C66.4423 33.167 67.9006 33.7424 68.8576 34.8931C69.8146 36.0438 70.3046 37.7642 70.3273 40.0542V52H65.3884V40.1738C65.3884 39.1257 65.1605 38.368 64.7048 37.9009C64.2491 37.4224 63.4914 37.1831 62.4318 37.1831C61.0419 37.1831 59.9994 37.7756 59.3044 38.9604V52H54.3654V33.5088H59.0139ZM72.6181 42.6177C72.6181 39.7352 73.2618 37.4395 74.5492 35.7305C75.848 34.0215 77.6197 33.167 79.8642 33.167C81.6643 33.167 83.1511 33.8392 84.3246 35.1836V25.75H89.2807V52H84.8202L84.581 50.0347C83.3505 51.5728 81.7668 52.3418 79.83 52.3418C77.6539 52.3418 75.905 51.4873 74.5834 49.7783C73.2732 48.0579 72.6181 45.6711 72.6181 42.6177ZM77.557 42.9766C77.557 44.7083 77.859 46.0356 78.4628 46.9585C79.0666 47.8813 79.9439 48.3428 81.0946 48.3428C82.6213 48.3428 83.698 47.6991 84.3246 46.4116V39.1143C83.7094 37.8268 82.6441 37.1831 81.1288 37.1831C78.7476 37.1831 77.557 39.1143 77.557 42.9766ZM97.6212 52H92.6651V33.5088H97.6212V52ZM92.3746 28.7236C92.3746 27.9831 92.6196 27.3735 93.1095 26.895C93.6108 26.4165 94.2887 26.1772 95.1432 26.1772C95.9863 26.1772 96.6585 26.4165 97.1598 26.895C97.6611 27.3735 97.9117 27.9831 97.9117 28.7236C97.9117 29.4756 97.6554 30.0908 97.1427 30.5693C96.6414 31.0479 95.9749 31.2871 95.1432 31.2871C94.3115 31.2871 93.6393 31.0479 93.1266 30.5693C92.6253 30.0908 92.3746 29.4756 92.3746 28.7236ZM105.552 33.5088L105.705 35.645C107.027 33.993 108.799 33.167 111.02 33.167C112.98 33.167 114.438 33.7424 115.395 34.8931C116.352 36.0438 116.842 37.7642 116.865 40.0542V52H111.926V40.1738C111.926 39.1257 111.698 38.368 111.242 37.9009C110.787 37.4224 110.029 37.1831 108.97 37.1831C107.58 37.1831 106.537 37.7756 105.842 38.9604V52H100.903V33.5088H105.552ZM119.207 42.6177C119.207 39.7808 119.879 37.4964 121.224 35.7646C122.579 34.0329 124.402 33.167 126.692 33.167C128.72 33.167 130.298 33.862 131.426 35.252L131.631 33.5088H136.109V51.3848C136.109 53.0026 135.739 54.4097 134.998 55.606C134.269 56.8022 133.238 57.7137 131.905 58.3403C130.572 58.967 129.011 59.2803 127.222 59.2803C125.866 59.2803 124.545 59.0068 123.257 58.46C121.97 57.9245 120.996 57.2295 120.335 56.375L122.522 53.3672C123.753 54.7458 125.245 55.4351 127 55.4351C128.31 55.4351 129.33 55.0819 130.059 54.3755C130.788 53.6805 131.153 52.6893 131.153 51.4019V50.4106C130.014 51.6981 128.515 52.3418 126.658 52.3418C124.437 52.3418 122.636 51.4759 121.258 49.7441C119.891 48.001 119.207 45.6938 119.207 42.8228V42.6177ZM124.146 42.9766C124.146 44.6514 124.482 45.9673 125.154 46.9243C125.826 47.87 126.749 48.3428 127.923 48.3428C129.427 48.3428 130.503 47.7788 131.153 46.6509V38.875C130.492 37.7471 129.427 37.1831 127.957 37.1831C126.772 37.1831 125.838 37.6673 125.154 38.6357C124.482 39.6042 124.146 41.0511 124.146 42.9766ZM17.8677 97H15.1377V72.5H17.8677V82.79H18.2877C18.8243 81.67 19.571 80.7833 20.5277 80.13C21.5077 79.4767 22.6977 79.15 24.0977 79.15C25.9877 79.15 27.516 79.78 28.6827 81.04C29.8727 82.2767 30.4677 84.1433 30.4677 86.64V97H27.7377V87.2C27.7377 85.38 27.3293 84.015 26.5127 83.105C25.696 82.195 24.5877 81.74 23.1877 81.74C21.531 81.74 20.2243 82.3117 19.2677 83.455C18.3343 84.575 17.8677 86.08 17.8677 87.97V97ZM48.4683 94.06H48.0483C47.4883 95.2267 46.7067 96.09 45.7033 96.65C44.7233 97.21 43.685 97.49 42.5883 97.49C41.445 97.49 40.3833 97.3033 39.4033 96.93C38.4233 96.5333 37.56 95.9617 36.8133 95.215C36.09 94.445 35.5183 93.5117 35.0983 92.415C34.6783 91.3183 34.4683 90.0467 34.4683 88.6V88.04C34.4683 86.6167 34.6783 85.3567 35.0983 84.26C35.5183 83.1633 36.09 82.2417 36.8133 81.495C37.56 80.725 38.4233 80.1417 39.4033 79.745C40.3833 79.3483 41.4217 79.15 42.5183 79.15C43.7083 79.15 44.7817 79.4183 45.7383 79.955C46.7183 80.4683 47.4883 81.2733 48.0483 82.37H48.4683V79.64H51.1983V93.43C51.1983 94.13 51.5133 94.48 52.1433 94.48H53.0183V97H51.1633C50.37 97 49.7167 96.7433 49.2033 96.23C48.7133 95.7167 48.4683 95.0633 48.4683 94.27V94.06ZM42.8683 94.9C43.685 94.9 44.4317 94.7483 45.1083 94.445C45.8083 94.1417 46.4033 93.71 46.8933 93.15C47.3833 92.59 47.7683 91.925 48.0483 91.155C48.3283 90.3617 48.4683 89.4867 48.4683 88.53V88.11C48.4683 87.1767 48.3283 86.325 48.0483 85.555C47.7683 84.7617 47.3717 84.085 46.8583 83.525C46.3683 82.965 45.7733 82.5333 45.0733 82.23C44.3967 81.9033 43.6617 81.74 42.8683 81.74C42.0517 81.74 41.305 81.8917 40.6283 82.195C39.9517 82.4983 39.3567 82.93 38.8433 83.49C38.3533 84.0267 37.9683 84.6917 37.6883 85.485C37.4083 86.255 37.2683 87.1067 37.2683 88.04V88.6C37.2683 90.5833 37.7817 92.135 38.8083 93.255C39.8583 94.3517 41.2117 94.9 42.8683 94.9ZM55.619 79.64H61.919V81.95H62.339C62.7823 80.9933 63.4123 80.2933 64.229 79.85C65.0457 79.3833 65.979 79.15 67.029 79.15C68.779 79.15 70.1907 79.7217 71.264 80.865C72.3373 82.0083 72.909 83.6767 72.979 85.87L70.109 86.29C70.109 84.68 69.724 83.525 68.954 82.825C68.184 82.1017 67.239 81.74 66.119 81.74C65.3957 81.74 64.7657 81.88 64.229 82.16C63.7157 82.44 63.284 82.825 62.934 83.315C62.584 83.805 62.3273 84.3767 62.164 85.03C62.0007 85.6833 61.919 86.3833 61.919 87.13V94.48H66.329V97H55.199V94.48H59.189V82.16H55.619V79.64ZM94.0247 97H91.2947V84.54C91.2947 83.7233 91.108 83.0583 90.7347 82.545C90.3613 82.0083 89.7663 81.74 88.9497 81.74C88.1797 81.74 87.5497 82.0317 87.0597 82.615C86.593 83.175 86.3597 84.05 86.3597 85.24V97H83.6297V84.4C83.6297 83.63 83.4197 83 82.9997 82.51C82.5797 81.9967 82.0197 81.74 81.3197 81.74C80.4797 81.74 79.8263 82.0433 79.3597 82.65C78.9163 83.2567 78.6947 84.05 78.6947 85.03V97H75.9647V79.64H78.6947V81.53H79.1147C79.418 80.7133 79.8613 80.1183 80.4447 79.745C81.028 79.3483 81.7163 79.15 82.5097 79.15C83.3497 79.15 84.038 79.3717 84.5747 79.815C85.1347 80.2583 85.5197 80.83 85.7297 81.53H86.1497C86.943 79.9433 88.203 79.15 89.9297 79.15C91.2363 79.15 92.2397 79.57 92.9397 80.41C93.663 81.2267 94.0247 82.3 94.0247 83.63V97ZM114.44 88.53C114.44 89.9767 114.195 91.26 113.705 92.38C113.239 93.4767 112.609 94.41 111.815 95.18C111.022 95.9267 110.089 96.4983 109.015 96.895C107.965 97.2917 106.869 97.49 105.725 97.49C104.559 97.49 103.45 97.2917 102.4 96.895C101.35 96.4983 100.429 95.9267 99.6353 95.18C98.842 94.41 98.2003 93.4767 97.7103 92.38C97.2437 91.26 97.0103 89.9767 97.0103 88.53V88.11C97.0103 86.6867 97.2437 85.4267 97.7103 84.33C98.2003 83.21 98.842 82.265 99.6353 81.495C100.452 80.725 101.385 80.1417 102.435 79.745C103.485 79.3483 104.582 79.15 105.725 79.15C106.869 79.15 107.965 79.3483 109.015 79.745C110.065 80.1417 110.987 80.725 111.78 81.495C112.597 82.265 113.239 83.21 113.705 84.33C114.195 85.4267 114.44 86.6867 114.44 88.11V88.53ZM105.725 94.9C106.565 94.9 107.335 94.76 108.035 94.48C108.759 94.1767 109.389 93.745 109.925 93.185C110.462 92.625 110.882 91.96 111.185 91.19C111.489 90.3967 111.64 89.51 111.64 88.53V88.11C111.64 87.1767 111.489 86.325 111.185 85.555C110.882 84.7617 110.462 84.085 109.925 83.525C109.389 82.965 108.759 82.5333 108.035 82.23C107.312 81.9033 106.542 81.74 105.725 81.74C104.909 81.74 104.139 81.9033 103.415 82.23C102.692 82.5333 102.062 82.965 101.525 83.525C100.989 84.085 100.569 84.7617 100.265 85.555C99.962 86.325 99.8103 87.1767 99.8103 88.11V88.53C99.8103 89.51 99.962 90.3967 100.265 91.19C100.569 91.96 100.989 92.625 101.525 93.185C102.062 93.745 102.68 94.1767 103.38 94.48C104.104 94.76 104.885 94.9 105.725 94.9ZM121.521 97H118.791V79.64H121.521V82.58H121.941C123.014 80.2933 124.881 79.15 127.541 79.15C129.548 79.15 131.146 79.78 132.336 81.04C133.526 82.2767 134.121 84.1433 134.121 86.64V97H131.391V87.2C131.391 85.38 130.983 84.015 130.166 83.105C129.349 82.195 128.241 81.74 126.841 81.74C125.184 81.74 123.878 82.3117 122.921 83.455C121.988 84.575 121.521 86.08 121.521 87.97V97ZM152.122 93.85H151.702C151.142 94.97 150.407 95.8567 149.497 96.51C148.587 97.1633 147.432 97.49 146.032 97.49C145.075 97.49 144.188 97.3267 143.372 97C142.578 96.6967 141.89 96.23 141.307 95.6C140.747 94.97 140.303 94.1883 139.977 93.255C139.673 92.3217 139.522 91.2367 139.522 90V79.64H142.252V89.65C142.252 91.47 142.625 92.8 143.372 93.64C144.118 94.48 145.262 94.9 146.802 94.9C148.458 94.9 149.753 94.34 150.687 93.22C151.643 92.0767 152.122 90.56 152.122 88.67V79.64H154.852V101.27C154.852 102.063 154.595 102.717 154.082 103.23C153.592 103.743 152.95 104 152.157 104H142.252V101.48H151.177C151.807 101.48 152.122 101.13 152.122 100.43V93.85Z" fill="#2A2921"/>
</svg>
