<svg width="169" height="136" viewBox="0 0 169 136" fill="none" xmlns="http://www.w3.org/2000/svg">
<path d="M35.0703 52V37.1318H32.3188V33.5088H35.0703V32.6543C35.0931 30.3301 35.8052 28.5413 37.2065 27.2881C38.6193 26.0234 40.6074 25.3911 43.1709 25.3911C44.709 25.3911 46.5775 25.7272 48.7764 26.3994L48.0586 30.4839C46.9421 30.1535 46.0762 29.9427 45.4609 29.8516C44.8457 29.749 44.1849 29.6978 43.4785 29.6978C41.1771 29.6978 40.0264 30.7174 40.0264 32.7568V33.5088H43.6665V37.1318H40.0264V52H35.0703ZM51.0835 52H46.1274V33.5088H51.0835V52ZM59.0139 33.5088L59.1677 35.645C60.4893 33.993 62.2609 33.167 64.4826 33.167C66.4423 33.167 67.9006 33.7424 68.8576 34.8931C69.8146 36.0438 70.3046 37.7642 70.3273 40.0542V52H65.3884V40.1738C65.3884 39.1257 65.1605 38.368 64.7048 37.9009C64.2491 37.4224 63.4914 37.1831 62.4318 37.1831C61.0419 37.1831 59.9994 37.7756 59.3044 38.9604V52H54.3654V33.5088H59.0139ZM72.6181 42.6177C72.6181 39.7352 73.2618 37.4395 74.5492 35.7305C75.848 34.0215 77.6197 33.167 79.8642 33.167C81.6643 33.167 83.1511 33.8392 84.3246 35.1836V25.75H89.2807V52H84.8202L84.581 50.0347C83.3505 51.5728 81.7668 52.3418 79.83 52.3418C77.6539 52.3418 75.905 51.4873 74.5834 49.7783C73.2732 48.0579 72.6181 45.6711 72.6181 42.6177ZM77.557 42.9766C77.557 44.7083 77.859 46.0356 78.4628 46.9585C79.0666 47.8813 79.9439 48.3428 81.0946 48.3428C82.6213 48.3428 83.698 47.6991 84.3246 46.4116V39.1143C83.7094 37.8268 82.6441 37.1831 81.1288 37.1831C78.7476 37.1831 77.557 39.1143 77.557 42.9766ZM97.6212 52H92.6651V33.5088H97.6212V52ZM92.3746 28.7236C92.3746 27.9831 92.6196 27.3735 93.1095 26.895C93.6108 26.4165 94.2887 26.1772 95.1432 26.1772C95.9863 26.1772 96.6585 26.4165 97.1598 26.895C97.6611 27.3735 97.9117 27.9831 97.9117 28.7236C97.9117 29.4756 97.6554 30.0908 97.1427 30.5693C96.6414 31.0479 95.9749 31.2871 95.1432 31.2871C94.3115 31.2871 93.6393 31.0479 93.1266 30.5693C92.6253 30.0908 92.3746 29.4756 92.3746 28.7236ZM105.552 33.5088L105.705 35.645C107.027 33.993 108.799 33.167 111.02 33.167C112.98 33.167 114.438 33.7424 115.395 34.8931C116.352 36.0438 116.842 37.7642 116.865 40.0542V52H111.926V40.1738C111.926 39.1257 111.698 38.368 111.242 37.9009C110.787 37.4224 110.029 37.1831 108.97 37.1831C107.58 37.1831 106.537 37.7756 105.842 38.9604V52H100.903V33.5088H105.552ZM119.207 42.6177C119.207 39.7808 119.879 37.4964 121.224 35.7646C122.579 34.0329 124.402 33.167 126.692 33.167C128.72 33.167 130.298 33.862 131.426 35.252L131.631 33.5088H136.109V51.3848C136.109 53.0026 135.739 54.4097 134.998 55.606C134.269 56.8022 133.238 57.7137 131.905 58.3403C130.572 58.967 129.011 59.2803 127.222 59.2803C125.866 59.2803 124.545 59.0068 123.257 58.46C121.97 57.9245 120.996 57.2295 120.335 56.375L122.522 53.3672C123.753 54.7458 125.245 55.4351 127 55.4351C128.31 55.4351 129.33 55.0819 130.059 54.3755C130.788 53.6805 131.153 52.6893 131.153 51.4019V50.4106C130.014 51.6981 128.515 52.3418 126.658 52.3418C124.437 52.3418 122.636 51.4759 121.258 49.7441C119.891 48.001 119.207 45.6938 119.207 42.8228V42.6177ZM124.146 42.9766C124.146 44.6514 124.482 45.9673 125.154 46.9243C125.826 47.87 126.749 48.3428 127.923 48.3428C129.427 48.3428 130.503 47.7788 131.153 46.6509V38.875C130.492 37.7471 129.427 37.1831 127.957 37.1831C126.772 37.1831 125.838 37.6673 125.154 38.6357C124.482 39.6042 124.146 41.0511 124.146 42.9766ZM33.2093 97H30.8293V86.815C30.8293 84.7383 30.4676 83.1867 29.7443 82.16C29.0443 81.1333 28.006 80.62 26.6293 80.62C25.9526 80.62 25.276 80.76 24.5993 81.04C23.946 81.2967 23.3276 81.6583 22.7443 82.125C22.161 82.5917 21.6476 83.14 21.2043 83.77C20.7843 84.4 20.4693 85.0883 20.2593 85.835V97H17.8793V71.45H20.2593V82.895C20.9826 81.5183 21.986 80.4333 23.2693 79.64C24.5526 78.8467 25.941 78.45 27.4343 78.45C28.4843 78.45 29.371 78.6483 30.0943 79.045C30.8176 79.4183 31.4126 79.955 31.8793 80.655C32.346 81.3317 32.6843 82.16 32.8943 83.14C33.1043 84.0967 33.2093 85.1583 33.2093 86.325V97ZM42.1696 97.35C41.3062 97.35 40.5012 97.21 39.7546 96.93C39.0312 96.6267 38.3896 96.2183 37.8296 95.705C37.2929 95.1917 36.8729 94.5967 36.5696 93.92C36.2662 93.22 36.1146 92.4733 36.1146 91.68C36.1146 90.8867 36.3012 90.1517 36.6746 89.475C37.0479 88.7983 37.5729 88.215 38.2496 87.725C38.9262 87.235 39.7312 86.8617 40.6646 86.605C41.5979 86.325 42.6246 86.185 43.7446 86.185C44.6779 86.185 45.6229 86.2667 46.5796 86.43C47.5362 86.5933 48.3879 86.8267 49.1346 87.13V85.485C49.1346 83.875 48.6796 82.6033 47.7696 81.67C46.8596 80.7133 45.5996 80.235 43.9896 80.235C43.0562 80.235 42.0996 80.4217 41.1196 80.795C40.1396 81.1683 39.1479 81.705 38.1446 82.405L37.3046 80.83C39.6612 79.2433 41.9479 78.45 44.1646 78.45C46.4512 78.45 48.2479 79.0917 49.5546 80.375C50.8612 81.6583 51.5146 83.4317 51.5146 85.695V93.92C51.5146 94.5733 51.8062 94.9 52.3896 94.9V97C51.9929 97.07 51.6896 97.105 51.4796 97.105C50.8729 97.105 50.3946 96.9533 50.0446 96.65C49.7179 96.3467 49.5429 95.9267 49.5196 95.39L49.4496 93.955C48.6096 95.0517 47.5479 95.8917 46.2646 96.475C45.0046 97.0583 43.6396 97.35 42.1696 97.35ZM42.7296 95.53C43.9662 95.53 45.0979 95.2967 46.1246 94.83C47.1746 94.3633 47.9679 93.745 48.5046 92.975C48.7146 92.765 48.8662 92.5433 48.9596 92.31C49.0762 92.0533 49.1346 91.82 49.1346 91.61V88.635C48.3412 88.3317 47.5129 88.0983 46.6496 87.935C45.8096 87.7717 44.9462 87.69 44.0596 87.69C42.3796 87.69 41.0146 88.04 39.9646 88.74C38.9146 89.44 38.3896 90.3617 38.3896 91.505C38.3896 92.065 38.4946 92.59 38.7046 93.08C38.9379 93.57 39.2412 94.0017 39.6146 94.375C40.0112 94.725 40.4779 95.005 41.0146 95.215C41.5512 95.425 42.1229 95.53 42.7296 95.53ZM65.0568 80.865C63.4468 80.9117 62.0468 81.355 60.8568 82.195C59.6668 83.035 58.8268 84.19 58.3368 85.66V97H55.9568V78.765H58.1968V83.14C58.8735 81.74 59.7835 80.6433 60.9268 79.85C62.0702 79.0567 63.2952 78.66 64.6018 78.66C64.7885 78.66 64.9402 78.6717 65.0568 78.695V80.865ZM94.6523 97H92.2723V86.815C92.2723 84.6917 91.934 83.1283 91.2573 82.125C90.5807 81.1217 89.5773 80.62 88.2473 80.62C87.5473 80.62 86.8823 80.7483 86.2523 81.005C85.6457 81.2617 85.074 81.6233 84.5373 82.09C84.024 82.5567 83.569 83.1167 83.1723 83.77C82.7757 84.4 82.4723 85.1 82.2623 85.87V97H79.8823V86.815C79.8823 84.645 79.5557 83.07 78.9023 82.09C78.249 81.11 77.2457 80.62 75.8923 80.62C74.5157 80.62 73.2907 81.0983 72.2173 82.055C71.144 83.0117 70.374 84.2717 69.9073 85.835V97H67.5273V78.765H69.6973V82.895C70.444 81.495 71.424 80.41 72.6373 79.64C73.8507 78.8467 75.1923 78.45 76.6623 78.45C78.2023 78.45 79.4273 78.8817 80.3373 79.745C81.2707 80.6083 81.8423 81.74 82.0523 83.14C83.7557 80.0133 86.1007 78.45 89.0873 78.45C90.114 78.45 90.9773 78.6367 91.6773 79.01C92.4007 79.3833 92.9723 79.92 93.3923 80.62C93.8357 81.2967 94.1507 82.125 94.3373 83.105C94.5473 84.0617 94.6523 85.135 94.6523 86.325V97ZM106.76 97.35C105.43 97.35 104.217 97.105 103.12 96.615C102.024 96.1017 101.067 95.4133 100.25 94.55C99.4571 93.6867 98.8388 92.6833 98.3954 91.54C97.9521 90.3967 97.7304 89.195 97.7304 87.935C97.7304 86.6517 97.9521 85.4383 98.3954 84.295C98.8621 83.1517 99.4921 82.1483 100.285 81.285C101.102 80.4217 102.059 79.7333 103.155 79.22C104.252 78.7067 105.454 78.45 106.76 78.45C108.067 78.45 109.269 78.7067 110.365 79.22C111.485 79.7333 112.442 80.4217 113.235 81.285C114.052 82.1483 114.682 83.1517 115.125 84.295C115.592 85.4383 115.825 86.6517 115.825 87.935C115.825 89.195 115.604 90.3967 115.16 91.54C114.717 92.6833 114.087 93.6867 113.27 94.55C112.477 95.4133 111.52 96.1017 110.4 96.615C109.304 97.105 108.09 97.35 106.76 97.35ZM100.145 87.97C100.145 88.9967 100.32 89.9533 100.67 90.84C101.02 91.7033 101.487 92.4733 102.07 93.15C102.677 93.8033 103.377 94.3167 104.17 94.69C104.987 95.0633 105.85 95.25 106.76 95.25C107.67 95.25 108.522 95.0633 109.315 94.69C110.132 94.2933 110.844 93.7683 111.45 93.115C112.057 92.4383 112.535 91.6567 112.885 90.77C113.235 89.8833 113.41 88.9267 113.41 87.9C113.41 86.8967 113.235 85.9517 112.885 85.065C112.535 84.155 112.057 83.3733 111.45 82.72C110.844 82.0433 110.132 81.5183 109.315 81.145C108.522 80.7483 107.67 80.55 106.76 80.55C105.85 80.55 104.999 80.7483 104.205 81.145C103.412 81.5183 102.712 82.0433 102.105 82.72C101.499 83.3967 101.02 84.19 100.67 85.1C100.32 85.9867 100.145 86.9433 100.145 87.97ZM134.436 97H132.056V86.815C132.056 84.645 131.729 83.07 131.076 82.09C130.446 81.11 129.466 80.62 128.136 80.62C127.436 80.62 126.736 80.7483 126.036 81.005C125.336 81.2617 124.683 81.6233 124.076 82.09C123.493 82.5567 122.968 83.1167 122.501 83.77C122.034 84.4 121.696 85.0883 121.486 85.835V97H119.106V78.765H121.276V82.895C122.023 81.565 123.084 80.4917 124.461 79.675C125.861 78.8583 127.378 78.45 129.011 78.45C130.014 78.45 130.866 78.6367 131.566 79.01C132.266 79.3833 132.826 79.9083 133.246 80.585C133.666 81.2617 133.969 82.09 134.156 83.07C134.343 84.05 134.436 85.135 134.436 86.325V97ZM139.451 102.6C139.638 102.623 139.813 102.635 139.976 102.635C140.163 102.658 140.338 102.67 140.501 102.67C140.921 102.67 141.248 102.612 141.481 102.495C141.738 102.378 141.983 102.122 142.216 101.725C142.449 101.328 142.706 100.757 142.986 100.01C143.289 99.2633 143.709 98.26 144.246 97L136.301 78.765H138.751L145.506 94.795L151.771 78.765H154.046L144.596 102.285C144.339 102.962 143.908 103.545 143.301 104.035C142.718 104.548 141.913 104.805 140.886 104.805C140.653 104.805 140.431 104.793 140.221 104.77C140.011 104.77 139.754 104.747 139.451 104.7V102.6Z" fill="#2A2921"/>
</svg>
