<svg width="169" height="136" viewBox="0 0 169 136" fill="none" xmlns="http://www.w3.org/2000/svg">
<path d="M35.0703 52V37.1318H32.3188V33.5088H35.0703V32.6543C35.0931 30.3301 35.8052 28.5413 37.2065 27.2881C38.6193 26.0234 40.6074 25.3911 43.1709 25.3911C44.709 25.3911 46.5775 25.7272 48.7764 26.3994L48.0586 30.4839C46.9421 30.1535 46.0762 29.9427 45.4609 29.8516C44.8457 29.749 44.1849 29.6978 43.4785 29.6978C41.1771 29.6978 40.0264 30.7174 40.0264 32.7568V33.5088H43.6665V37.1318H40.0264V52H35.0703ZM51.0835 52H46.1274V33.5088H51.0835V52ZM59.0139 33.5088L59.1677 35.645C60.4893 33.993 62.2609 33.167 64.4826 33.167C66.4423 33.167 67.9006 33.7424 68.8576 34.8931C69.8146 36.0438 70.3046 37.7642 70.3273 40.0542V52H65.3884V40.1738C65.3884 39.1257 65.1605 38.368 64.7048 37.9009C64.2491 37.4224 63.4914 37.1831 62.4318 37.1831C61.0419 37.1831 59.9994 37.7756 59.3044 38.9604V52H54.3654V33.5088H59.0139ZM72.6181 42.6177C72.6181 39.7352 73.2618 37.4395 74.5492 35.7305C75.848 34.0215 77.6197 33.167 79.8642 33.167C81.6643 33.167 83.1511 33.8392 84.3246 35.1836V25.75H89.2807V52H84.8202L84.581 50.0347C83.3505 51.5728 81.7668 52.3418 79.83 52.3418C77.6539 52.3418 75.905 51.4873 74.5834 49.7783C73.2732 48.0579 72.6181 45.6711 72.6181 42.6177ZM77.557 42.9766C77.557 44.7083 77.859 46.0356 78.4628 46.9585C79.0666 47.8813 79.9439 48.3428 81.0946 48.3428C82.6213 48.3428 83.698 47.6991 84.3246 46.4116V39.1143C83.7094 37.8268 82.6441 37.1831 81.1288 37.1831C78.7476 37.1831 77.557 39.1143 77.557 42.9766ZM97.6212 52H92.6651V33.5088H97.6212V52ZM92.3746 28.7236C92.3746 27.9831 92.6196 27.3735 93.1095 26.895C93.6108 26.4165 94.2887 26.1772 95.1432 26.1772C95.9863 26.1772 96.6585 26.4165 97.1598 26.895C97.6611 27.3735 97.9117 27.9831 97.9117 28.7236C97.9117 29.4756 97.6554 30.0908 97.1427 30.5693C96.6414 31.0479 95.9749 31.2871 95.1432 31.2871C94.3115 31.2871 93.6393 31.0479 93.1266 30.5693C92.6253 30.0908 92.3746 29.4756 92.3746 28.7236ZM105.552 33.5088L105.705 35.645C107.027 33.993 108.799 33.167 111.02 33.167C112.98 33.167 114.438 33.7424 115.395 34.8931C116.352 36.0438 116.842 37.7642 116.865 40.0542V52H111.926V40.1738C111.926 39.1257 111.698 38.368 111.242 37.9009C110.787 37.4224 110.029 37.1831 108.97 37.1831C107.58 37.1831 106.537 37.7756 105.842 38.9604V52H100.903V33.5088H105.552ZM119.207 42.6177C119.207 39.7808 119.879 37.4964 121.224 35.7646C122.579 34.0329 124.402 33.167 126.692 33.167C128.72 33.167 130.298 33.862 131.426 35.252L131.631 33.5088H136.109V51.3848C136.109 53.0026 135.739 54.4097 134.998 55.606C134.269 56.8022 133.238 57.7137 131.905 58.3403C130.572 58.967 129.011 59.2803 127.222 59.2803C125.866 59.2803 124.545 59.0068 123.257 58.46C121.97 57.9245 120.996 57.2295 120.335 56.375L122.522 53.3672C123.753 54.7458 125.245 55.4351 127 55.4351C128.31 55.4351 129.33 55.0819 130.059 54.3755C130.788 53.6805 131.153 52.6893 131.153 51.4019V50.4106C130.014 51.6981 128.515 52.3418 126.658 52.3418C124.437 52.3418 122.636 51.4759 121.258 49.7441C119.891 48.001 119.207 45.6938 119.207 42.8228V42.6177ZM124.146 42.9766C124.146 44.6514 124.482 45.9673 125.154 46.9243C125.826 47.87 126.749 48.3428 127.923 48.3428C129.427 48.3428 130.503 47.7788 131.153 46.6509V38.875C130.492 37.7471 129.427 37.1831 127.957 37.1831C126.772 37.1831 125.838 37.6673 125.154 38.6357C124.482 39.6042 124.146 41.0511 124.146 42.9766ZM40.8452 95.145V97H33.4602V95.145H35.7352V87.97C35.7352 87.0133 35.5018 86.2667 35.0352 85.73C34.5918 85.1933 33.9618 84.925 33.1452 84.925C31.7452 84.925 30.2285 85.4617 28.5952 86.535V95.145H30.8352V97H23.4502V95.145H26.0052V78.765H23.4852V76.945H28.5952V84.785C30.4852 83.525 32.2118 82.895 33.7752 82.895C35.0818 82.895 36.1668 83.3033 37.0302 84.12C37.8935 84.9133 38.3252 86.0333 38.3252 87.48V95.145H40.8452ZM56.0171 95.145V97H51.5721L51.4321 95.775C50.6855 96.335 49.9388 96.7433 49.1921 97C48.4455 97.2567 47.6055 97.385 46.6721 97.385C45.2721 97.385 44.1288 97 43.2421 96.23C42.3788 95.4367 41.9471 94.4567 41.9471 93.29C41.9471 91.7967 42.4488 90.7117 43.4521 90.035C44.4788 89.335 45.8205 88.985 47.4771 88.985C48.6671 88.985 49.9388 89.1367 51.2921 89.44V88.005C51.2921 86.955 51.0005 86.1617 50.4171 85.625C49.8571 85.0883 49.0638 84.82 48.0371 84.82C47.3605 84.82 46.5788 84.9367 45.6921 85.17C44.8288 85.38 44.0355 85.6833 43.3121 86.08L42.5421 84.4C43.3121 83.91 44.1988 83.5367 45.2021 83.28C46.2288 83.0233 47.1855 82.895 48.0721 82.895C49.8688 82.895 51.2805 83.3383 52.3071 84.225C53.3338 85.0883 53.8471 86.2667 53.8471 87.76V95.145H56.0171ZM44.3971 93.15C44.3971 93.8733 44.6305 94.4683 45.0971 94.935C45.5871 95.3783 46.2405 95.6 47.0571 95.6C48.4338 95.6 49.8455 95.0983 51.2921 94.095V90.945C50.0555 90.665 48.8421 90.525 47.6521 90.525C46.7188 90.525 45.9371 90.735 45.3071 91.155C44.7005 91.5517 44.3971 92.2167 44.3971 93.15ZM65.819 83.07C66.7057 83.07 67.639 83.3033 68.619 83.77L67.989 86.115C67.1957 85.6017 66.3907 85.345 65.574 85.345C64.6407 85.345 63.859 85.73 63.229 86.5C62.6224 87.2467 62.319 88.285 62.319 89.615L62.284 95.145H64.734V97H57.069V95.145H59.729V85.1H57.069V83.245H62.284V85.765C63.0307 83.9683 64.209 83.07 65.819 83.07ZM96.12 95.145V97H88.735V95.145H91.045V87.97C91.045 87.0133 90.8117 86.2667 90.345 85.73C89.8784 85.1933 89.2367 84.925 88.42 84.925C86.9967 84.925 85.5034 85.45 83.94 86.5C84.01 86.85 84.045 87.2 84.045 87.55V95.145H86.565V97H79.18V95.145H81.49V87.97C81.49 87.0133 81.2567 86.2667 80.79 85.73C80.3234 85.1933 79.6817 84.925 78.865 84.925C77.675 84.925 76.2634 85.3917 74.63 86.325V95.145H77.115V97H69.415V95.145H72.075V85.1H69.415V83.245H74.63V84.575C76.4034 83.455 78.0367 82.895 79.53 82.895C80.44 82.895 81.2334 83.0933 81.91 83.49C82.5867 83.8633 83.1 84.3883 83.45 85.065C84.4767 84.365 85.4334 83.8283 86.32 83.455C87.2067 83.0817 88.1284 82.895 89.085 82.895C90.3917 82.895 91.465 83.3033 92.305 84.12C93.1684 84.9133 93.6 86.0333 93.6 87.48V95.145H96.12ZM103.789 97.42C102.319 97.42 101.024 97.1167 99.9038 96.51C98.7838 95.9033 97.9088 95.0517 97.2788 93.955C96.6722 92.835 96.3688 91.5517 96.3688 90.105C96.3688 88.6583 96.6722 87.3867 97.2788 86.29C97.9088 85.1933 98.7838 84.3533 99.9038 83.77C101.024 83.1633 102.319 82.86 103.789 82.86C105.259 82.86 106.554 83.1633 107.674 83.77C108.817 84.3533 109.704 85.1933 110.334 86.29C110.964 87.3867 111.279 88.6467 111.279 90.07C111.279 91.5167 110.964 92.8 110.334 93.92C109.704 95.04 108.817 95.9033 107.674 96.51C106.554 97.1167 105.259 97.42 103.789 97.42ZM103.789 95.39C105.236 95.39 106.402 94.9117 107.289 93.955C108.176 92.975 108.619 91.68 108.619 90.07C108.619 88.5067 108.176 87.2583 107.289 86.325C106.402 85.3683 105.236 84.89 103.789 84.89C102.342 84.89 101.187 85.3683 100.324 86.325C99.4605 87.2817 99.0288 88.5417 99.0288 90.105C99.0288 91.6917 99.4605 92.975 100.324 93.955C101.211 94.9117 102.366 95.39 103.789 95.39ZM129.464 95.145V97H122.079V95.145H124.354V87.97C124.354 87.0133 124.121 86.2667 123.654 85.73C123.188 85.1933 122.546 84.925 121.729 84.925C121.053 84.925 120.364 85.0533 119.664 85.31C118.988 85.5433 118.241 85.905 117.424 86.395V95.145H119.909V97H112.209V95.145H114.869V85.1H112.209V83.245H117.424V84.61C119.244 83.4667 120.901 82.895 122.394 82.895C123.701 82.895 124.774 83.3033 125.614 84.12C126.478 84.9133 126.909 86.0333 126.909 87.48V95.145H129.464ZM132.355 100.465H133.93C134.584 100.465 135.085 100.418 135.435 100.325C135.785 100.232 136.089 100.022 136.345 99.695C136.625 99.3683 136.882 98.855 137.115 98.155L137.85 96.125H136.765L131.655 85.1H129.1V83.245H136.31V85.1H134.28L138.41 94.445L142.085 85.1H139.705V83.245H146.88V85.1H144.64L139.53 97.805C139.017 99.135 138.585 100.092 138.235 100.675C137.909 101.282 137.43 101.748 136.8 102.075C136.17 102.402 135.284 102.565 134.14 102.565H132.355V100.465Z" fill="#2A2921"/>
</svg>
