<svg width="169" height="136" viewBox="0 0 169 136" fill="none" xmlns="http://www.w3.org/2000/svg">
<path d="M35.0703 52V37.1318H32.3188V33.5088H35.0703V32.6543C35.0931 30.3301 35.8052 28.5413 37.2065 27.2881C38.6193 26.0234 40.6074 25.3911 43.1709 25.3911C44.709 25.3911 46.5775 25.7272 48.7764 26.3994L48.0586 30.4839C46.9421 30.1535 46.0762 29.9427 45.4609 29.8516C44.8457 29.749 44.1849 29.6978 43.4785 29.6978C41.1771 29.6978 40.0264 30.7174 40.0264 32.7568V33.5088H43.6665V37.1318H40.0264V52H35.0703ZM51.0835 52H46.1274V33.5088H51.0835V52ZM59.0139 33.5088L59.1677 35.645C60.4893 33.993 62.2609 33.167 64.4826 33.167C66.4423 33.167 67.9006 33.7424 68.8576 34.8931C69.8146 36.0438 70.3046 37.7642 70.3273 40.0542V52H65.3884V40.1738C65.3884 39.1257 65.1605 38.368 64.7048 37.9009C64.2491 37.4224 63.4914 37.1831 62.4318 37.1831C61.0419 37.1831 59.9994 37.7756 59.3044 38.9604V52H54.3654V33.5088H59.0139ZM72.6181 42.6177C72.6181 39.7352 73.2618 37.4395 74.5492 35.7305C75.848 34.0215 77.6197 33.167 79.8642 33.167C81.6643 33.167 83.1511 33.8392 84.3246 35.1836V25.75H89.2807V52H84.8202L84.581 50.0347C83.3505 51.5728 81.7668 52.3418 79.83 52.3418C77.6539 52.3418 75.905 51.4873 74.5834 49.7783C73.2732 48.0579 72.6181 45.6711 72.6181 42.6177ZM77.557 42.9766C77.557 44.7083 77.859 46.0356 78.4628 46.9585C79.0666 47.8813 79.9439 48.3428 81.0946 48.3428C82.6213 48.3428 83.698 47.6991 84.3246 46.4116V39.1143C83.7094 37.8268 82.6441 37.1831 81.1288 37.1831C78.7476 37.1831 77.557 39.1143 77.557 42.9766ZM97.6212 52H92.6651V33.5088H97.6212V52ZM92.3746 28.7236C92.3746 27.9831 92.6196 27.3735 93.1095 26.895C93.6108 26.4165 94.2887 26.1772 95.1432 26.1772C95.9863 26.1772 96.6585 26.4165 97.1598 26.895C97.6611 27.3735 97.9117 27.9831 97.9117 28.7236C97.9117 29.4756 97.6554 30.0908 97.1427 30.5693C96.6414 31.0479 95.9749 31.2871 95.1432 31.2871C94.3115 31.2871 93.6393 31.0479 93.1266 30.5693C92.6253 30.0908 92.3746 29.4756 92.3746 28.7236ZM105.552 33.5088L105.705 35.645C107.027 33.993 108.799 33.167 111.02 33.167C112.98 33.167 114.438 33.7424 115.395 34.8931C116.352 36.0438 116.842 37.7642 116.865 40.0542V52H111.926V40.1738C111.926 39.1257 111.698 38.368 111.242 37.9009C110.787 37.4224 110.029 37.1831 108.97 37.1831C107.58 37.1831 106.537 37.7756 105.842 38.9604V52H100.903V33.5088H105.552ZM119.207 42.6177C119.207 39.7808 119.879 37.4964 121.224 35.7646C122.579 34.0329 124.402 33.167 126.692 33.167C128.72 33.167 130.298 33.862 131.426 35.252L131.631 33.5088H136.109V51.3848C136.109 53.0026 135.739 54.4097 134.998 55.606C134.269 56.8022 133.238 57.7137 131.905 58.3403C130.572 58.967 129.011 59.2803 127.222 59.2803C125.866 59.2803 124.545 59.0068 123.257 58.46C121.97 57.9245 120.996 57.2295 120.335 56.375L122.522 53.3672C123.753 54.7458 125.245 55.4351 127 55.4351C128.31 55.4351 129.33 55.0819 130.059 54.3755C130.788 53.6805 131.153 52.6893 131.153 51.4019V50.4106C130.014 51.6981 128.515 52.3418 126.658 52.3418C124.437 52.3418 122.636 51.4759 121.258 49.7441C119.891 48.001 119.207 45.6938 119.207 42.8228V42.6177ZM124.146 42.9766C124.146 44.6514 124.482 45.9673 125.154 46.9243C125.826 47.87 126.749 48.3428 127.923 48.3428C129.427 48.3428 130.503 47.7788 131.153 46.6509V38.875C130.492 37.7471 129.427 37.1831 127.957 37.1831C126.772 37.1831 125.838 37.6673 125.154 38.6357C124.482 39.6042 124.146 41.0511 124.146 42.9766ZM27.1748 95.95C27.8981 95.95 28.3998 95.775 28.6798 95.425C28.9598 95.0517 29.1231 94.55 29.1698 93.92C29.2165 93.2667 29.2398 92.52 29.2398 91.68V86.78C29.2398 84.7733 28.9131 83.2683 28.2598 82.265C27.6298 81.2617 26.6265 80.7717 25.2498 80.795C24.3865 80.8183 23.5348 81.0283 22.6948 81.425C21.8781 81.8217 21.2131 82.335 20.6998 82.965V93.29C20.6998 93.7567 20.6881 94.1767 20.6648 94.55C20.6415 94.9 20.5948 95.2733 20.5248 95.67C20.8981 95.6467 21.2598 95.635 21.6098 95.635C21.9831 95.6117 22.3565 95.5883 22.7298 95.565V97H15.5898V95.95C16.3131 95.95 16.8148 95.775 17.0948 95.425C17.3748 95.0517 17.5381 94.55 17.5848 93.92C17.6548 93.2667 17.6898 92.52 17.6898 91.68V75.125C17.6898 74.7517 17.6898 74.4017 17.6898 74.075C17.7131 73.725 17.7481 73.3167 17.7948 72.85C17.3748 72.8733 16.9548 72.8967 16.5348 72.92C16.1381 72.9433 15.7298 72.9667 15.3098 72.99V71.52C16.3365 71.52 17.1298 71.4733 17.6898 71.38C18.2731 71.2867 18.7048 71.17 18.9848 71.03C19.2881 70.89 19.5215 70.7383 19.6848 70.575H20.6998V81.25C21.4698 80.5967 22.3681 80.0483 23.3948 79.605C24.4215 79.1617 25.4365 78.94 26.4398 78.94C28.4698 78.94 29.9281 79.5817 30.8148 80.865C31.7248 82.125 32.1915 84.0967 32.2148 86.78L32.2498 93.29C32.2498 93.7567 32.2381 94.1767 32.2148 94.55C32.2148 94.9 32.1798 95.2733 32.1098 95.67C32.4831 95.6467 32.8448 95.635 33.1948 95.635C33.5681 95.6117 33.9415 95.5883 34.3148 95.565V97H27.1748V95.95ZM46.832 97C46.762 96.6033 46.7153 96.2533 46.692 95.95C46.6686 95.6467 46.6336 95.3317 46.587 95.005C45.7936 95.7983 44.9303 96.4283 43.997 96.895C43.087 97.3383 42.1186 97.56 41.092 97.56C39.3186 97.56 38.0003 97.1633 37.137 96.37C36.2736 95.5533 35.842 94.5617 35.842 93.395C35.842 92.3217 36.1686 91.4 36.822 90.63C37.4986 89.8367 38.362 89.195 39.412 88.705C40.4853 88.1917 41.6403 87.8183 42.877 87.585C44.137 87.3283 45.3503 87.2117 46.517 87.235V85.065C46.517 84.2483 46.447 83.4783 46.307 82.755C46.167 82.0317 45.8636 81.4367 45.397 80.97C44.9303 80.5033 44.1836 80.2583 43.157 80.235C42.4803 80.2117 41.7803 80.34 41.057 80.62C40.357 80.9 39.8436 81.3783 39.517 82.055C39.7036 82.2417 39.8203 82.4633 39.867 82.72C39.937 82.9533 39.972 83.175 39.972 83.385C39.972 83.665 39.8553 83.9917 39.622 84.365C39.3886 84.715 38.9803 84.8783 38.397 84.855C37.907 84.855 37.5336 84.6917 37.277 84.365C37.0203 84.015 36.892 83.6067 36.892 83.14C36.892 82.3467 37.1836 81.635 37.767 81.005C38.3736 80.375 39.202 79.8733 40.252 79.5C41.302 79.1267 42.492 78.94 43.822 78.94C45.782 78.94 47.2286 79.465 48.162 80.515C49.0953 81.5417 49.5503 83.175 49.527 85.415C49.527 86.7217 49.5153 88.04 49.492 89.37C49.492 90.6767 49.492 91.9833 49.492 93.29C49.492 93.6633 49.4803 94.0367 49.457 94.41C49.4336 94.7833 49.3986 95.2033 49.352 95.67C49.772 95.6467 50.1803 95.6233 50.577 95.6C50.997 95.5767 51.417 95.5533 51.837 95.53V97H46.832ZM46.517 88.425C45.7236 88.4483 44.8836 88.5533 43.997 88.74C43.1336 88.9033 42.3286 89.16 41.582 89.51C40.8586 89.86 40.2636 90.3267 39.797 90.91C39.3536 91.47 39.1436 92.1583 39.167 92.975C39.2136 93.8383 39.4936 94.4917 40.007 94.935C40.5436 95.355 41.1736 95.565 41.897 95.565C42.8536 95.565 43.682 95.39 44.382 95.04C45.1053 94.6667 45.817 94.1533 46.517 93.5C46.4936 93.2433 46.482 92.9633 46.482 92.66C46.482 92.3567 46.482 92.0417 46.482 91.715C46.482 91.5983 46.482 91.225 46.482 90.595C46.5053 89.965 46.517 89.2417 46.517 88.425ZM53.5388 95.95C54.2622 95.95 54.7638 95.775 55.0438 95.425C55.3238 95.0517 55.4872 94.55 55.5338 93.92C55.5805 93.2667 55.6038 92.52 55.6038 91.68V83.7C55.6038 83.3267 55.6038 82.9533 55.6038 82.58C55.6272 82.2067 55.6738 81.8217 55.7438 81.425C55.3238 81.4483 54.9038 81.4717 54.4838 81.495C54.0872 81.495 53.6788 81.5067 53.2588 81.53V80.095H54.3438C55.3472 80.095 56.0355 80.0017 56.4088 79.815C56.8055 79.605 57.1322 79.3833 57.3888 79.15H58.4038C58.4505 79.5233 58.4855 79.99 58.5088 80.55C58.5322 81.0867 58.5555 81.775 58.5788 82.615C58.9288 82.0317 59.4072 81.46 60.0138 80.9C60.6205 80.34 61.2972 79.8733 62.0438 79.5C62.8138 79.1267 63.6188 78.94 64.4588 78.94C65.1122 78.94 65.6838 79.115 66.1738 79.465C66.6638 79.815 66.9088 80.375 66.9088 81.145C66.9088 81.4483 66.7688 81.81 66.4888 82.23C66.2322 82.65 65.7888 82.8483 65.1588 82.825C64.6455 82.8017 64.2372 82.6033 63.9338 82.23C63.6305 81.8333 63.5138 81.3783 63.5838 80.865C62.6972 80.8183 61.7988 81.1567 60.8888 81.88C59.9788 82.6033 59.2205 83.5367 58.6138 84.68L58.6488 93.29C58.6488 93.7567 58.6372 94.1767 58.6138 94.55C58.6138 94.9 58.5788 95.2733 58.5088 95.67C58.8822 95.6467 59.2438 95.635 59.5938 95.635C59.9672 95.6117 60.3405 95.5883 60.7138 95.565V97H53.5388V95.95ZM67.9804 97V95.95C68.7038 95.95 69.2054 95.775 69.4854 95.425C69.7654 95.0517 69.9288 94.55 69.9754 93.92C70.0221 93.2667 70.0454 92.52 70.0454 91.68V83.7C70.0454 83.3267 70.0454 82.9533 70.0454 82.58C70.0688 82.2067 70.1154 81.8217 70.1854 81.425C69.7654 81.4483 69.3454 81.4717 68.9254 81.495C68.5288 81.5183 68.1204 81.5417 67.7004 81.565V80.095C68.7271 80.095 69.4971 80.0483 70.0104 79.955C70.5471 79.8617 70.9438 79.745 71.2004 79.605C71.4571 79.465 71.6671 79.3133 71.8304 79.15H72.8454C72.8921 79.3833 72.9154 79.6517 72.9154 79.955C72.9388 80.2583 72.9621 80.6083 72.9854 81.005C73.6854 80.3983 74.4904 79.9083 75.4004 79.535C76.3104 79.1383 77.2204 78.94 78.1304 78.94C79.2971 78.94 80.2771 79.15 81.0704 79.57C81.8638 79.99 82.4821 80.5617 82.9254 81.285C83.7188 80.6317 84.6288 80.0833 85.6554 79.64C86.7054 79.1733 87.7321 78.94 88.7354 78.94C90.7654 78.94 92.2588 79.5583 93.2154 80.795C94.1721 82.0083 94.6271 84.0033 94.5804 86.78L94.5454 93.29C94.5454 93.7567 94.5338 94.1767 94.5104 94.55C94.5104 94.9 94.4754 95.2733 94.4054 95.67C94.7788 95.6467 95.1404 95.635 95.4904 95.635C95.8638 95.6117 96.2371 95.5883 96.6104 95.565V97H89.4704V95.95C90.1938 95.95 90.6954 95.775 90.9754 95.425C91.2554 95.0517 91.4188 94.55 91.4654 93.92C91.5121 93.2667 91.5354 92.52 91.5354 91.68V86.78C91.5354 84.7733 91.2088 83.2683 90.5554 82.265C89.9254 81.2617 88.9221 80.7717 87.5454 80.795C86.8221 80.795 86.0988 80.9583 85.3754 81.285C84.6521 81.6117 84.0221 82.02 83.4854 82.51C83.6021 82.8833 83.6838 83.2917 83.7304 83.735C83.8004 84.155 83.8354 84.5983 83.8354 85.065C83.8121 86.4183 83.8004 87.7833 83.8004 89.16C83.8004 90.5367 83.7888 91.9133 83.7654 93.29C83.7654 93.7567 83.7538 94.1767 83.7304 94.55C83.7304 94.9 83.6954 95.2733 83.6254 95.67C83.9988 95.6467 84.3604 95.635 84.7104 95.635C85.0838 95.6117 85.4571 95.5883 85.8304 95.565V97H78.6904V95.95C79.4138 95.95 79.9038 95.775 80.1604 95.425C80.4404 95.0517 80.6038 94.55 80.6504 93.92C80.7204 93.2667 80.7554 92.52 80.7554 91.68L80.7904 86.78C80.8138 84.7733 80.5221 83.2567 79.9154 82.23C79.3088 81.2033 78.3171 80.7017 76.9404 80.725C76.2171 80.725 75.5054 80.8883 74.8054 81.215C74.1054 81.5183 73.5104 81.915 73.0204 82.405C73.0204 82.685 73.0204 82.9883 73.0204 83.315C73.0438 83.6183 73.0554 83.945 73.0554 84.295V93.29C73.0554 93.7567 73.0438 94.1767 73.0204 94.55C73.0204 94.9 72.9854 95.2733 72.9154 95.67C73.2888 95.6467 73.6504 95.635 74.0004 95.635C74.3738 95.6117 74.7471 95.5883 75.1204 95.565V97H67.9804ZM107.235 97.56C105.602 97.56 104.12 97.1867 102.79 96.44C101.46 95.67 100.398 94.62 99.6048 93.29C98.8348 91.9367 98.4498 90.3967 98.4498 88.67C98.4498 86.8267 98.8348 85.17 99.6048 83.7C100.375 82.23 101.425 81.075 102.755 80.235C104.085 79.3717 105.578 78.94 107.235 78.94C108.868 78.94 110.35 79.3367 111.68 80.13C113.01 80.9 114.072 81.95 114.865 83.28C115.658 84.61 116.055 86.1267 116.055 87.83C116.055 89.6267 115.658 91.2717 114.865 92.765C114.095 94.235 113.045 95.4017 111.715 96.265C110.385 97.1283 108.892 97.56 107.235 97.56ZM107.515 96.16C108.752 96.16 109.732 95.81 110.455 95.11C111.178 94.41 111.692 93.5 111.995 92.38C112.322 91.26 112.485 90.0817 112.485 88.845C112.485 87.795 112.38 86.7683 112.17 85.765C111.983 84.7383 111.68 83.8167 111.26 83C110.84 82.16 110.292 81.495 109.615 81.005C108.962 80.515 108.168 80.27 107.235 80.27C106.022 80.27 105.03 80.62 104.26 81.32C103.49 82.02 102.918 82.93 102.545 84.05C102.195 85.17 102.02 86.3717 102.02 87.655C102.02 89.1017 102.218 90.4783 102.615 91.785C103.012 93.0683 103.618 94.1183 104.435 94.935C105.252 95.7517 106.278 96.16 107.515 96.16ZM118.328 97V95.95C119.052 95.95 119.553 95.775 119.833 95.425C120.113 95.0517 120.277 94.55 120.323 93.92C120.37 93.2667 120.393 92.52 120.393 91.68L120.428 83.7C120.428 83.3267 120.428 82.9533 120.428 82.58C120.452 82.2067 120.498 81.8217 120.568 81.425C120.148 81.4483 119.728 81.4717 119.308 81.495C118.912 81.5183 118.503 81.5417 118.083 81.565V80.095C119.11 80.095 119.88 80.0483 120.393 79.955C120.93 79.8617 121.327 79.745 121.583 79.605C121.84 79.465 122.05 79.3133 122.213 79.15H123.228C123.275 79.4067 123.298 79.71 123.298 80.06C123.322 80.3867 123.345 80.795 123.368 81.285C124.115 80.6083 125.002 80.0483 126.028 79.605C127.055 79.1617 128.07 78.94 129.073 78.94C131.103 78.94 132.585 79.5817 133.518 80.865C134.452 82.125 134.918 84.0967 134.918 86.78V93.29C134.918 93.7567 134.907 94.1767 134.883 94.55C134.883 94.9 134.848 95.2733 134.778 95.67C135.152 95.6467 135.513 95.635 135.863 95.635C136.237 95.6117 136.61 95.5883 136.983 95.565V97H129.843V95.95C130.567 95.95 131.068 95.775 131.348 95.425C131.628 95.0517 131.792 94.55 131.838 93.92C131.885 93.2667 131.908 92.52 131.908 91.68V86.78C131.885 84.7733 131.547 83.2567 130.893 82.23C130.263 81.2033 129.26 80.7017 127.883 80.725C127.043 80.7483 126.215 80.97 125.398 81.39C124.605 81.81 123.94 82.3467 123.403 83C123.427 83.1867 123.438 83.3967 123.438 83.63C123.438 83.8633 123.438 84.1083 123.438 84.365L123.403 93.29C123.403 93.7567 123.392 94.1767 123.368 94.55C123.368 94.9 123.333 95.2733 123.263 95.67C123.637 95.6467 123.998 95.635 124.348 95.635C124.722 95.6117 125.095 95.5883 125.468 95.565V97H118.328ZM141.344 106.485C140.621 106.485 140.002 106.31 139.489 105.96C138.976 105.61 138.719 105.073 138.719 104.35C138.719 103.93 138.859 103.545 139.139 103.195C139.419 102.845 139.781 102.67 140.224 102.67C140.784 102.647 141.157 102.822 141.344 103.195C141.554 103.568 141.659 103.895 141.659 104.175C141.659 104.245 141.659 104.315 141.659 104.385C141.659 104.478 141.647 104.572 141.624 104.665C141.694 104.712 141.822 104.735 142.009 104.735C142.289 104.735 142.592 104.618 142.919 104.385C143.246 104.152 143.537 103.813 143.794 103.37C144.097 102.857 144.447 102.087 144.844 101.06C145.264 100.033 145.731 98.8083 146.244 97.385L140.784 85.695C140.177 84.3883 139.734 83.35 139.454 82.58C139.197 81.81 139.022 81.2383 138.929 80.865L137.249 80.935V79.5H144.494V80.55H144.354C143.374 80.62 142.837 80.9933 142.744 81.67C142.651 82.3233 142.919 83.3267 143.549 84.68L147.644 93.465C148.181 91.9717 148.694 90.5017 149.184 89.055C149.674 87.585 150.164 86.1267 150.654 84.68C150.841 84.1667 151.027 83.6417 151.214 83.105C151.424 82.545 151.622 82.055 151.809 81.635C152.019 81.1917 152.206 80.9117 152.369 80.795L149.954 80.935V79.5H155.449V80.55C154.586 80.8767 153.932 81.425 153.489 82.195C153.069 82.9417 152.637 83.91 152.194 85.1L147.819 97.315C147.119 99.275 146.477 100.932 145.894 102.285C145.311 103.662 144.669 104.7 143.969 105.4C143.269 106.123 142.394 106.485 141.344 106.485Z" fill="#2A2921"/>
</svg>
