<svg width="169" height="136" viewBox="0 0 169 136" fill="none" xmlns="http://www.w3.org/2000/svg">
<path d="M35.2036 53V39.665H32.8936V35.85L35.2036 35.675V34.73C35.2036 33.82 35.3086 32.9567 35.5186 32.14C35.7519 31.3233 36.1253 30.6117 36.6386 30.005C37.1519 29.3983 37.8169 28.92 38.6336 28.57C39.4503 28.22 40.4419 28.045 41.6086 28.045C42.3319 28.045 42.9853 28.115 43.5686 28.255C44.1753 28.395 44.6769 28.535 45.0736 28.675L44.1286 32.455C43.4753 32.2217 42.8803 32.105 42.3436 32.105C41.7136 32.105 41.2236 32.3033 40.8736 32.7C40.5236 33.0733 40.3486 33.7033 40.3486 34.59V35.64H43.4636V39.665H40.3486V53H35.2036ZM45.5573 53V35.64H50.7023V53H45.5573ZM48.1123 33.085C47.249 33.085 46.5373 32.84 45.9773 32.35C45.4173 31.8367 45.1373 31.1833 45.1373 30.39C45.1373 29.5967 45.4173 28.955 45.9773 28.465C46.5373 27.975 47.249 27.73 48.1123 27.73C48.999 27.73 49.7107 27.975 50.2473 28.465C50.8073 28.955 51.0873 29.5967 51.0873 30.39C51.0873 31.1833 50.8073 31.8367 50.2473 32.35C49.7107 32.84 48.999 33.085 48.1123 33.085ZM54.5302 53V35.64H58.7302L59.0802 37.845H59.2202C59.9668 37.145 60.7835 36.5383 61.6702 36.025C62.5568 35.4883 63.5952 35.22 64.7852 35.22C66.6752 35.22 68.0402 35.8383 68.8802 37.075C69.7435 38.3117 70.1752 40.0267 70.1752 42.22V53H65.0302V42.885C65.0302 41.625 64.8552 40.7617 64.5052 40.295C64.1785 39.8283 63.6418 39.595 62.8952 39.595C62.2418 39.595 61.6818 39.7467 61.2152 40.05C60.7485 40.33 60.2352 40.7383 59.6752 41.275V53H54.5302ZM80.0545 53.42C78.9811 53.42 78.0011 53.21 77.1145 52.79C76.2511 52.37 75.5045 51.775 74.8745 51.005C74.2678 50.2117 73.7895 49.255 73.4395 48.135C73.1128 47.015 72.9495 45.7433 72.9495 44.32C72.9495 42.8967 73.1478 41.625 73.5445 40.505C73.9645 39.385 74.5011 38.44 75.1545 37.67C75.8311 36.8767 76.6011 36.27 77.4645 35.85C78.3511 35.43 79.2495 35.22 80.1595 35.22C81.1395 35.22 81.9445 35.3833 82.5745 35.71C83.2045 36.0367 83.8228 36.48 84.4295 37.04L84.2195 34.38V28.465H89.3645V53H85.1645L84.8145 51.285H84.6745C84.0678 51.8917 83.3561 52.405 82.5395 52.825C81.7228 53.2217 80.8945 53.42 80.0545 53.42ZM81.3845 49.22C81.9445 49.22 82.4461 49.1033 82.8895 48.87C83.3561 48.6367 83.7995 48.2283 84.2195 47.645V40.54C83.7528 40.12 83.2745 39.8283 82.7845 39.665C82.2945 39.5017 81.8161 39.42 81.3495 39.42C80.5328 39.42 79.8095 39.8167 79.1795 40.61C78.5495 41.38 78.2345 42.5933 78.2345 44.25C78.2345 45.9767 78.5028 47.2367 79.0395 48.03C79.5995 48.8233 80.3811 49.22 81.3845 49.22ZM93.223 53V35.64H98.368V53H93.223ZM95.778 33.085C94.9146 33.085 94.203 32.84 93.643 32.35C93.083 31.8367 92.803 31.1833 92.803 30.39C92.803 29.5967 93.083 28.955 93.643 28.465C94.203 27.975 94.9146 27.73 95.778 27.73C96.6646 27.73 97.3763 27.975 97.913 28.465C98.473 28.955 98.753 29.5967 98.753 30.39C98.753 31.1833 98.473 31.8367 97.913 32.35C97.3763 32.84 96.6646 33.085 95.778 33.085ZM102.196 53V35.64H106.396L106.746 37.845H106.886C107.632 37.145 108.449 36.5383 109.336 36.025C110.222 35.4883 111.261 35.22 112.451 35.22C114.341 35.22 115.706 35.8383 116.546 37.075C117.409 38.3117 117.841 40.0267 117.841 42.22V53H112.696V42.885C112.696 41.625 112.521 40.7617 112.171 40.295C111.844 39.8283 111.307 39.595 110.561 39.595C109.907 39.595 109.347 39.7467 108.881 40.05C108.414 40.33 107.901 40.7383 107.341 41.275V53H102.196ZM127.72 60.385C126.693 60.385 125.737 60.2917 124.85 60.105C123.987 59.9417 123.217 59.685 122.54 59.335C121.887 58.985 121.373 58.53 121 57.97C120.627 57.41 120.44 56.745 120.44 55.975C120.44 54.575 121.268 53.4083 122.925 52.475V52.335C122.458 52.0317 122.073 51.6467 121.77 51.18C121.467 50.7133 121.315 50.1183 121.315 49.395C121.315 48.765 121.502 48.17 121.875 47.61C122.248 47.0267 122.715 46.5367 123.275 46.14V46C122.668 45.58 122.12 44.985 121.63 44.215C121.163 43.4217 120.93 42.5117 120.93 41.485C120.93 40.435 121.128 39.525 121.525 38.755C121.922 37.9617 122.447 37.3083 123.1 36.795C123.777 36.2583 124.547 35.8617 125.41 35.605C126.273 35.3483 127.172 35.22 128.105 35.22C129.132 35.22 130.03 35.36 130.8 35.64H137.135V39.385H134.37C134.533 39.6417 134.662 39.9683 134.755 40.365C134.872 40.7617 134.93 41.1933 134.93 41.66C134.93 42.6633 134.755 43.5383 134.405 44.285C134.055 45.0083 133.565 45.615 132.935 46.105C132.328 46.5717 131.605 46.9217 130.765 47.155C129.948 47.3883 129.062 47.505 128.105 47.505C127.428 47.505 126.728 47.3883 126.005 47.155C125.772 47.3417 125.608 47.5283 125.515 47.715C125.422 47.9017 125.375 48.1467 125.375 48.45C125.375 48.8933 125.562 49.22 125.935 49.43C126.332 49.64 127.02 49.745 128 49.745H130.8C132.947 49.745 134.58 50.095 135.7 50.795C136.843 51.4717 137.415 52.5917 137.415 54.155C137.415 55.065 137.182 55.8933 136.715 56.64C136.272 57.41 135.63 58.0633 134.79 58.6C133.95 59.16 132.935 59.5917 131.745 59.895C130.555 60.2217 129.213 60.385 127.72 60.385ZM128.105 44.39C128.782 44.39 129.342 44.1567 129.785 43.69C130.252 43.2 130.485 42.465 130.485 41.485C130.485 40.575 130.252 39.8867 129.785 39.42C129.342 38.93 128.782 38.685 128.105 38.685C127.428 38.685 126.857 38.9183 126.39 39.385C125.947 39.8517 125.725 40.5517 125.725 41.485C125.725 42.465 125.947 43.2 126.39 43.69C126.857 44.1567 127.428 44.39 128.105 44.39ZM128.525 57.165C129.692 57.165 130.648 56.955 131.395 56.535C132.142 56.1383 132.515 55.6367 132.515 55.03C132.515 54.4933 132.282 54.1317 131.815 53.945C131.372 53.7583 130.718 53.665 129.855 53.665H128.07C127.463 53.665 126.973 53.6417 126.6 53.595C126.227 53.5717 125.9 53.525 125.62 53.455C124.99 54.015 124.675 54.5867 124.675 55.17C124.675 55.8233 125.025 56.3133 125.725 56.64C126.425 56.99 127.358 57.165 128.525 57.165ZM27.1748 96.95C27.8981 96.95 28.3998 96.775 28.6798 96.425C28.9598 96.0517 29.1231 95.55 29.1698 94.92C29.2165 94.2667 29.2398 93.52 29.2398 92.68V87.78C29.2398 85.7733 28.9131 84.2683 28.2598 83.265C27.6298 82.2617 26.6265 81.7717 25.2498 81.795C24.3865 81.8183 23.5348 82.0283 22.6948 82.425C21.8781 82.8217 21.2131 83.335 20.6998 83.965V94.29C20.6998 94.7567 20.6881 95.1767 20.6648 95.55C20.6415 95.9 20.5948 96.2733 20.5248 96.67C20.8981 96.6467 21.2598 96.635 21.6098 96.635C21.9831 96.6117 22.3565 96.5883 22.7298 96.565V98H15.5898V96.95C16.3131 96.95 16.8148 96.775 17.0948 96.425C17.3748 96.0517 17.5381 95.55 17.5848 94.92C17.6548 94.2667 17.6898 93.52 17.6898 92.68V76.125C17.6898 75.7517 17.6898 75.4017 17.6898 75.075C17.7131 74.725 17.7481 74.3167 17.7948 73.85C17.3748 73.8733 16.9548 73.8967 16.5348 73.92C16.1381 73.9433 15.7298 73.9667 15.3098 73.99V72.52C16.3365 72.52 17.1298 72.4733 17.6898 72.38C18.2731 72.2867 18.7048 72.17 18.9848 72.03C19.2881 71.89 19.5215 71.7383 19.6848 71.575H20.6998V82.25C21.4698 81.5967 22.3681 81.0483 23.3948 80.605C24.4215 80.1617 25.4365 79.94 26.4398 79.94C28.4698 79.94 29.9281 80.5817 30.8148 81.865C31.7248 83.125 32.1915 85.0967 32.2148 87.78L32.2498 94.29C32.2498 94.7567 32.2381 95.1767 32.2148 95.55C32.2148 95.9 32.1798 96.2733 32.1098 96.67C32.4831 96.6467 32.8448 96.635 33.1948 96.635C33.5681 96.6117 33.9415 96.5883 34.3148 96.565V98H27.1748V96.95ZM46.832 98C46.762 97.6033 46.7153 97.2533 46.692 96.95C46.6686 96.6467 46.6336 96.3317 46.587 96.005C45.7936 96.7983 44.9303 97.4283 43.997 97.895C43.087 98.3383 42.1186 98.56 41.092 98.56C39.3186 98.56 38.0003 98.1633 37.137 97.37C36.2736 96.5533 35.842 95.5617 35.842 94.395C35.842 93.3217 36.1686 92.4 36.822 91.63C37.4986 90.8367 38.362 90.195 39.412 89.705C40.4853 89.1917 41.6403 88.8183 42.877 88.585C44.137 88.3283 45.3503 88.2117 46.517 88.235V86.065C46.517 85.2483 46.447 84.4783 46.307 83.755C46.167 83.0317 45.8636 82.4367 45.397 81.97C44.9303 81.5033 44.1836 81.2583 43.157 81.235C42.4803 81.2117 41.7803 81.34 41.057 81.62C40.357 81.9 39.8436 82.3783 39.517 83.055C39.7036 83.2417 39.8203 83.4633 39.867 83.72C39.937 83.9533 39.972 84.175 39.972 84.385C39.972 84.665 39.8553 84.9917 39.622 85.365C39.3886 85.715 38.9803 85.8783 38.397 85.855C37.907 85.855 37.5336 85.6917 37.277 85.365C37.0203 85.015 36.892 84.6067 36.892 84.14C36.892 83.3467 37.1836 82.635 37.767 82.005C38.3736 81.375 39.202 80.8733 40.252 80.5C41.302 80.1267 42.492 79.94 43.822 79.94C45.782 79.94 47.2286 80.465 48.162 81.515C49.0953 82.5417 49.5503 84.175 49.527 86.415C49.527 87.7217 49.5153 89.04 49.492 90.37C49.492 91.6767 49.492 92.9833 49.492 94.29C49.492 94.6633 49.4803 95.0367 49.457 95.41C49.4336 95.7833 49.3986 96.2033 49.352 96.67C49.772 96.6467 50.1803 96.6233 50.577 96.6C50.997 96.5767 51.417 96.5533 51.837 96.53V98H46.832ZM46.517 89.425C45.7236 89.4483 44.8836 89.5533 43.997 89.74C43.1336 89.9033 42.3286 90.16 41.582 90.51C40.8586 90.86 40.2636 91.3267 39.797 91.91C39.3536 92.47 39.1436 93.1583 39.167 93.975C39.2136 94.8383 39.4936 95.4917 40.007 95.935C40.5436 96.355 41.1736 96.565 41.897 96.565C42.8536 96.565 43.682 96.39 44.382 96.04C45.1053 95.6667 45.817 95.1533 46.517 94.5C46.4936 94.2433 46.482 93.9633 46.482 93.66C46.482 93.3567 46.482 93.0417 46.482 92.715C46.482 92.5983 46.482 92.225 46.482 91.595C46.5053 90.965 46.517 90.2417 46.517 89.425ZM53.5388 96.95C54.2622 96.95 54.7638 96.775 55.0438 96.425C55.3238 96.0517 55.4872 95.55 55.5338 94.92C55.5805 94.2667 55.6038 93.52 55.6038 92.68V84.7C55.6038 84.3267 55.6038 83.9533 55.6038 83.58C55.6272 83.2067 55.6738 82.8217 55.7438 82.425C55.3238 82.4483 54.9038 82.4717 54.4838 82.495C54.0872 82.495 53.6788 82.5067 53.2588 82.53V81.095H54.3438C55.3472 81.095 56.0355 81.0017 56.4088 80.815C56.8055 80.605 57.1322 80.3833 57.3888 80.15H58.4038C58.4505 80.5233 58.4855 80.99 58.5088 81.55C58.5322 82.0867 58.5555 82.775 58.5788 83.615C58.9288 83.0317 59.4072 82.46 60.0138 81.9C60.6205 81.34 61.2972 80.8733 62.0438 80.5C62.8138 80.1267 63.6188 79.94 64.4588 79.94C65.1122 79.94 65.6838 80.115 66.1738 80.465C66.6638 80.815 66.9088 81.375 66.9088 82.145C66.9088 82.4483 66.7688 82.81 66.4888 83.23C66.2322 83.65 65.7888 83.8483 65.1588 83.825C64.6455 83.8017 64.2372 83.6033 63.9338 83.23C63.6305 82.8333 63.5138 82.3783 63.5838 81.865C62.6972 81.8183 61.7988 82.1567 60.8888 82.88C59.9788 83.6033 59.2205 84.5367 58.6138 85.68L58.6488 94.29C58.6488 94.7567 58.6372 95.1767 58.6138 95.55C58.6138 95.9 58.5788 96.2733 58.5088 96.67C58.8822 96.6467 59.2438 96.635 59.5938 96.635C59.9672 96.6117 60.3405 96.5883 60.7138 96.565V98H53.5388V96.95ZM67.9804 98V96.95C68.7038 96.95 69.2054 96.775 69.4854 96.425C69.7654 96.0517 69.9288 95.55 69.9754 94.92C70.0221 94.2667 70.0454 93.52 70.0454 92.68V84.7C70.0454 84.3267 70.0454 83.9533 70.0454 83.58C70.0688 83.2067 70.1154 82.8217 70.1854 82.425C69.7654 82.4483 69.3454 82.4717 68.9254 82.495C68.5288 82.5183 68.1204 82.5417 67.7004 82.565V81.095C68.7271 81.095 69.4971 81.0483 70.0104 80.955C70.5471 80.8617 70.9438 80.745 71.2004 80.605C71.4571 80.465 71.6671 80.3133 71.8304 80.15H72.8454C72.8921 80.3833 72.9154 80.6517 72.9154 80.955C72.9388 81.2583 72.9621 81.6083 72.9854 82.005C73.6854 81.3983 74.4904 80.9083 75.4004 80.535C76.3104 80.1383 77.2204 79.94 78.1304 79.94C79.2971 79.94 80.2771 80.15 81.0704 80.57C81.8638 80.99 82.4821 81.5617 82.9254 82.285C83.7188 81.6317 84.6288 81.0833 85.6554 80.64C86.7054 80.1733 87.7321 79.94 88.7354 79.94C90.7654 79.94 92.2588 80.5583 93.2154 81.795C94.1721 83.0083 94.6271 85.0033 94.5804 87.78L94.5454 94.29C94.5454 94.7567 94.5338 95.1767 94.5104 95.55C94.5104 95.9 94.4754 96.2733 94.4054 96.67C94.7788 96.6467 95.1404 96.635 95.4904 96.635C95.8638 96.6117 96.2371 96.5883 96.6104 96.565V98H89.4704V96.95C90.1938 96.95 90.6954 96.775 90.9754 96.425C91.2554 96.0517 91.4188 95.55 91.4654 94.92C91.5121 94.2667 91.5354 93.52 91.5354 92.68V87.78C91.5354 85.7733 91.2088 84.2683 90.5554 83.265C89.9254 82.2617 88.9221 81.7717 87.5454 81.795C86.8221 81.795 86.0988 81.9583 85.3754 82.285C84.6521 82.6117 84.0221 83.02 83.4854 83.51C83.6021 83.8833 83.6838 84.2917 83.7304 84.735C83.8004 85.155 83.8354 85.5983 83.8354 86.065C83.8121 87.4183 83.8004 88.7833 83.8004 90.16C83.8004 91.5367 83.7888 92.9133 83.7654 94.29C83.7654 94.7567 83.7538 95.1767 83.7304 95.55C83.7304 95.9 83.6954 96.2733 83.6254 96.67C83.9988 96.6467 84.3604 96.635 84.7104 96.635C85.0838 96.6117 85.4571 96.5883 85.8304 96.565V98H78.6904V96.95C79.4138 96.95 79.9038 96.775 80.1604 96.425C80.4404 96.0517 80.6038 95.55 80.6504 94.92C80.7204 94.2667 80.7554 93.52 80.7554 92.68L80.7904 87.78C80.8138 85.7733 80.5221 84.2567 79.9154 83.23C79.3088 82.2033 78.3171 81.7017 76.9404 81.725C76.2171 81.725 75.5054 81.8883 74.8054 82.215C74.1054 82.5183 73.5104 82.915 73.0204 83.405C73.0204 83.685 73.0204 83.9883 73.0204 84.315C73.0438 84.6183 73.0554 84.945 73.0554 85.295V94.29C73.0554 94.7567 73.0438 95.1767 73.0204 95.55C73.0204 95.9 72.9854 96.2733 72.9154 96.67C73.2888 96.6467 73.6504 96.635 74.0004 96.635C74.3738 96.6117 74.7471 96.5883 75.1204 96.565V98H67.9804ZM107.235 98.56C105.602 98.56 104.12 98.1867 102.79 97.44C101.46 96.67 100.398 95.62 99.6048 94.29C98.8348 92.9367 98.4498 91.3967 98.4498 89.67C98.4498 87.8267 98.8348 86.17 99.6048 84.7C100.375 83.23 101.425 82.075 102.755 81.235C104.085 80.3717 105.578 79.94 107.235 79.94C108.868 79.94 110.35 80.3367 111.68 81.13C113.01 81.9 114.072 82.95 114.865 84.28C115.658 85.61 116.055 87.1267 116.055 88.83C116.055 90.6267 115.658 92.2717 114.865 93.765C114.095 95.235 113.045 96.4017 111.715 97.265C110.385 98.1283 108.892 98.56 107.235 98.56ZM107.515 97.16C108.752 97.16 109.732 96.81 110.455 96.11C111.178 95.41 111.692 94.5 111.995 93.38C112.322 92.26 112.485 91.0817 112.485 89.845C112.485 88.795 112.38 87.7683 112.17 86.765C111.983 85.7383 111.68 84.8167 111.26 84C110.84 83.16 110.292 82.495 109.615 82.005C108.962 81.515 108.168 81.27 107.235 81.27C106.022 81.27 105.03 81.62 104.26 82.32C103.49 83.02 102.918 83.93 102.545 85.05C102.195 86.17 102.02 87.3717 102.02 88.655C102.02 90.1017 102.218 91.4783 102.615 92.785C103.012 94.0683 103.618 95.1183 104.435 95.935C105.252 96.7517 106.278 97.16 107.515 97.16ZM118.328 98V96.95C119.052 96.95 119.553 96.775 119.833 96.425C120.113 96.0517 120.277 95.55 120.323 94.92C120.37 94.2667 120.393 93.52 120.393 92.68L120.428 84.7C120.428 84.3267 120.428 83.9533 120.428 83.58C120.452 83.2067 120.498 82.8217 120.568 82.425C120.148 82.4483 119.728 82.4717 119.308 82.495C118.912 82.5183 118.503 82.5417 118.083 82.565V81.095C119.11 81.095 119.88 81.0483 120.393 80.955C120.93 80.8617 121.327 80.745 121.583 80.605C121.84 80.465 122.05 80.3133 122.213 80.15H123.228C123.275 80.4067 123.298 80.71 123.298 81.06C123.322 81.3867 123.345 81.795 123.368 82.285C124.115 81.6083 125.002 81.0483 126.028 80.605C127.055 80.1617 128.07 79.94 129.073 79.94C131.103 79.94 132.585 80.5817 133.518 81.865C134.452 83.125 134.918 85.0967 134.918 87.78V94.29C134.918 94.7567 134.907 95.1767 134.883 95.55C134.883 95.9 134.848 96.2733 134.778 96.67C135.152 96.6467 135.513 96.635 135.863 96.635C136.237 96.6117 136.61 96.5883 136.983 96.565V98H129.843V96.95C130.567 96.95 131.068 96.775 131.348 96.425C131.628 96.0517 131.792 95.55 131.838 94.92C131.885 94.2667 131.908 93.52 131.908 92.68V87.78C131.885 85.7733 131.547 84.2567 130.893 83.23C130.263 82.2033 129.26 81.7017 127.883 81.725C127.043 81.7483 126.215 81.97 125.398 82.39C124.605 82.81 123.94 83.3467 123.403 84C123.427 84.1867 123.438 84.3967 123.438 84.63C123.438 84.8633 123.438 85.1083 123.438 85.365L123.403 94.29C123.403 94.7567 123.392 95.1767 123.368 95.55C123.368 95.9 123.333 96.2733 123.263 96.67C123.637 96.6467 123.998 96.635 124.348 96.635C124.722 96.6117 125.095 96.5883 125.468 96.565V98H118.328ZM141.344 107.485C140.621 107.485 140.002 107.31 139.489 106.96C138.976 106.61 138.719 106.073 138.719 105.35C138.719 104.93 138.859 104.545 139.139 104.195C139.419 103.845 139.781 103.67 140.224 103.67C140.784 103.647 141.157 103.822 141.344 104.195C141.554 104.568 141.659 104.895 141.659 105.175C141.659 105.245 141.659 105.315 141.659 105.385C141.659 105.478 141.647 105.572 141.624 105.665C141.694 105.712 141.822 105.735 142.009 105.735C142.289 105.735 142.592 105.618 142.919 105.385C143.246 105.152 143.537 104.813 143.794 104.37C144.097 103.857 144.447 103.087 144.844 102.06C145.264 101.033 145.731 99.8083 146.244 98.385L140.784 86.695C140.177 85.3883 139.734 84.35 139.454 83.58C139.197 82.81 139.022 82.2383 138.929 81.865L137.249 81.935V80.5H144.494V81.55H144.354C143.374 81.62 142.837 81.9933 142.744 82.67C142.651 83.3233 142.919 84.3267 143.549 85.68L147.644 94.465C148.181 92.9717 148.694 91.5017 149.184 90.055C149.674 88.585 150.164 87.1267 150.654 85.68C150.841 85.1667 151.027 84.6417 151.214 84.105C151.424 83.545 151.622 83.055 151.809 82.635C152.019 82.1917 152.206 81.9117 152.369 81.795L149.954 81.935V80.5H155.449V81.55C154.586 81.8767 153.932 82.425 153.489 83.195C153.069 83.9417 152.637 84.91 152.194 86.1L147.819 98.315C147.119 100.275 146.477 101.932 145.894 103.285C145.311 104.662 144.669 105.7 143.969 106.4C143.269 107.123 142.394 107.485 141.344 107.485Z" fill="#2A2921"/>
</svg>
