<svg width="169" height="136" viewBox="0 0 169 136" fill="none" xmlns="http://www.w3.org/2000/svg">
<path d="M35.2036 53V39.665H32.8936V35.85L35.2036 35.675V34.73C35.2036 33.82 35.3086 32.9567 35.5186 32.14C35.7519 31.3233 36.1253 30.6117 36.6386 30.005C37.1519 29.3983 37.8169 28.92 38.6336 28.57C39.4503 28.22 40.4419 28.045 41.6086 28.045C42.3319 28.045 42.9853 28.115 43.5686 28.255C44.1753 28.395 44.6769 28.535 45.0736 28.675L44.1286 32.455C43.4753 32.2217 42.8803 32.105 42.3436 32.105C41.7136 32.105 41.2236 32.3033 40.8736 32.7C40.5236 33.0733 40.3486 33.7033 40.3486 34.59V35.64H43.4636V39.665H40.3486V53H35.2036ZM45.5573 53V35.64H50.7023V53H45.5573ZM48.1123 33.085C47.249 33.085 46.5373 32.84 45.9773 32.35C45.4173 31.8367 45.1373 31.1833 45.1373 30.39C45.1373 29.5967 45.4173 28.955 45.9773 28.465C46.5373 27.975 47.249 27.73 48.1123 27.73C48.999 27.73 49.7107 27.975 50.2473 28.465C50.8073 28.955 51.0873 29.5967 51.0873 30.39C51.0873 31.1833 50.8073 31.8367 50.2473 32.35C49.7107 32.84 48.999 33.085 48.1123 33.085ZM54.5302 53V35.64H58.7302L59.0802 37.845H59.2202C59.9668 37.145 60.7835 36.5383 61.6702 36.025C62.5568 35.4883 63.5952 35.22 64.7852 35.22C66.6752 35.22 68.0402 35.8383 68.8802 37.075C69.7435 38.3117 70.1752 40.0267 70.1752 42.22V53H65.0302V42.885C65.0302 41.625 64.8552 40.7617 64.5052 40.295C64.1785 39.8283 63.6418 39.595 62.8952 39.595C62.2418 39.595 61.6818 39.7467 61.2152 40.05C60.7485 40.33 60.2352 40.7383 59.6752 41.275V53H54.5302ZM80.0545 53.42C78.9811 53.42 78.0011 53.21 77.1145 52.79C76.2511 52.37 75.5045 51.775 74.8745 51.005C74.2678 50.2117 73.7895 49.255 73.4395 48.135C73.1128 47.015 72.9495 45.7433 72.9495 44.32C72.9495 42.8967 73.1478 41.625 73.5445 40.505C73.9645 39.385 74.5011 38.44 75.1545 37.67C75.8311 36.8767 76.6011 36.27 77.4645 35.85C78.3511 35.43 79.2495 35.22 80.1595 35.22C81.1395 35.22 81.9445 35.3833 82.5745 35.71C83.2045 36.0367 83.8228 36.48 84.4295 37.04L84.2195 34.38V28.465H89.3645V53H85.1645L84.8145 51.285H84.6745C84.0678 51.8917 83.3561 52.405 82.5395 52.825C81.7228 53.2217 80.8945 53.42 80.0545 53.42ZM81.3845 49.22C81.9445 49.22 82.4461 49.1033 82.8895 48.87C83.3561 48.6367 83.7995 48.2283 84.2195 47.645V40.54C83.7528 40.12 83.2745 39.8283 82.7845 39.665C82.2945 39.5017 81.8161 39.42 81.3495 39.42C80.5328 39.42 79.8095 39.8167 79.1795 40.61C78.5495 41.38 78.2345 42.5933 78.2345 44.25C78.2345 45.9767 78.5028 47.2367 79.0395 48.03C79.5995 48.8233 80.3811 49.22 81.3845 49.22ZM93.223 53V35.64H98.368V53H93.223ZM95.778 33.085C94.9146 33.085 94.203 32.84 93.643 32.35C93.083 31.8367 92.803 31.1833 92.803 30.39C92.803 29.5967 93.083 28.955 93.643 28.465C94.203 27.975 94.9146 27.73 95.778 27.73C96.6646 27.73 97.3763 27.975 97.913 28.465C98.473 28.955 98.753 29.5967 98.753 30.39C98.753 31.1833 98.473 31.8367 97.913 32.35C97.3763 32.84 96.6646 33.085 95.778 33.085ZM102.196 53V35.64H106.396L106.746 37.845H106.886C107.632 37.145 108.449 36.5383 109.336 36.025C110.222 35.4883 111.261 35.22 112.451 35.22C114.341 35.22 115.706 35.8383 116.546 37.075C117.409 38.3117 117.841 40.0267 117.841 42.22V53H112.696V42.885C112.696 41.625 112.521 40.7617 112.171 40.295C111.844 39.8283 111.307 39.595 110.561 39.595C109.907 39.595 109.347 39.7467 108.881 40.05C108.414 40.33 107.901 40.7383 107.341 41.275V53H102.196ZM127.72 60.385C126.693 60.385 125.737 60.2917 124.85 60.105C123.987 59.9417 123.217 59.685 122.54 59.335C121.887 58.985 121.373 58.53 121 57.97C120.627 57.41 120.44 56.745 120.44 55.975C120.44 54.575 121.268 53.4083 122.925 52.475V52.335C122.458 52.0317 122.073 51.6467 121.77 51.18C121.467 50.7133 121.315 50.1183 121.315 49.395C121.315 48.765 121.502 48.17 121.875 47.61C122.248 47.0267 122.715 46.5367 123.275 46.14V46C122.668 45.58 122.12 44.985 121.63 44.215C121.163 43.4217 120.93 42.5117 120.93 41.485C120.93 40.435 121.128 39.525 121.525 38.755C121.922 37.9617 122.447 37.3083 123.1 36.795C123.777 36.2583 124.547 35.8617 125.41 35.605C126.273 35.3483 127.172 35.22 128.105 35.22C129.132 35.22 130.03 35.36 130.8 35.64H137.135V39.385H134.37C134.533 39.6417 134.662 39.9683 134.755 40.365C134.872 40.7617 134.93 41.1933 134.93 41.66C134.93 42.6633 134.755 43.5383 134.405 44.285C134.055 45.0083 133.565 45.615 132.935 46.105C132.328 46.5717 131.605 46.9217 130.765 47.155C129.948 47.3883 129.062 47.505 128.105 47.505C127.428 47.505 126.728 47.3883 126.005 47.155C125.772 47.3417 125.608 47.5283 125.515 47.715C125.422 47.9017 125.375 48.1467 125.375 48.45C125.375 48.8933 125.562 49.22 125.935 49.43C126.332 49.64 127.02 49.745 128 49.745H130.8C132.947 49.745 134.58 50.095 135.7 50.795C136.843 51.4717 137.415 52.5917 137.415 54.155C137.415 55.065 137.182 55.8933 136.715 56.64C136.272 57.41 135.63 58.0633 134.79 58.6C133.95 59.16 132.935 59.5917 131.745 59.895C130.555 60.2217 129.213 60.385 127.72 60.385ZM128.105 44.39C128.782 44.39 129.342 44.1567 129.785 43.69C130.252 43.2 130.485 42.465 130.485 41.485C130.485 40.575 130.252 39.8867 129.785 39.42C129.342 38.93 128.782 38.685 128.105 38.685C127.428 38.685 126.857 38.9183 126.39 39.385C125.947 39.8517 125.725 40.5517 125.725 41.485C125.725 42.465 125.947 43.2 126.39 43.69C126.857 44.1567 127.428 44.39 128.105 44.39ZM128.525 57.165C129.692 57.165 130.648 56.955 131.395 56.535C132.142 56.1383 132.515 55.6367 132.515 55.03C132.515 54.4933 132.282 54.1317 131.815 53.945C131.372 53.7583 130.718 53.665 129.855 53.665H128.07C127.463 53.665 126.973 53.6417 126.6 53.595C126.227 53.5717 125.9 53.525 125.62 53.455C124.99 54.015 124.675 54.5867 124.675 55.17C124.675 55.8233 125.025 56.3133 125.725 56.64C126.425 56.99 127.358 57.165 128.525 57.165ZM20.1734 98V71.4L23.4284 70.84V80.15C24.0351 79.9167 24.6768 79.7417 25.3534 79.625C26.0534 79.485 26.7418 79.415 27.4184 79.415C28.8651 79.415 30.0668 79.625 31.0234 80.045C31.9801 80.4417 32.7384 81.0133 33.2984 81.76C33.8818 82.4833 34.2901 83.3583 34.5234 84.385C34.7568 85.4117 34.8734 86.5433 34.8734 87.78V98H31.6184V88.48C31.6184 87.36 31.5368 86.4033 31.3734 85.61C31.2334 84.8167 30.9884 84.175 30.6384 83.685C30.2884 83.195 29.8218 82.845 29.2384 82.635C28.6551 82.4017 27.9318 82.285 27.0684 82.285C26.7184 82.285 26.3568 82.3083 25.9834 82.355C25.6101 82.4017 25.2484 82.46 24.8984 82.53C24.5718 82.5767 24.2684 82.635 23.9884 82.705C23.7318 82.775 23.5451 82.8333 23.4284 82.88V98H20.1734ZM45.6286 95.655C46.3986 95.655 47.0752 95.6433 47.6586 95.62C48.2652 95.5733 48.7669 95.5033 49.1636 95.41V89.985C48.9302 89.8683 48.5452 89.775 48.0086 89.705C47.4952 89.6117 46.8652 89.565 46.1186 89.565C45.6286 89.565 45.1036 89.6 44.5436 89.67C44.0069 89.74 43.5052 89.8917 43.0386 90.125C42.5952 90.335 42.2219 90.6383 41.9186 91.035C41.6152 91.4083 41.4636 91.91 41.4636 92.54C41.4636 93.7067 41.8369 94.5233 42.5836 94.99C43.3302 95.4333 44.3452 95.655 45.6286 95.655ZM45.3486 79.345C46.6552 79.345 47.7519 79.52 48.6386 79.87C49.5486 80.1967 50.2719 80.675 50.8086 81.305C51.3686 81.9117 51.7652 82.6467 51.9986 83.51C52.2319 84.35 52.3486 85.2833 52.3486 86.31V97.685C52.0686 97.7317 51.6719 97.8017 51.1586 97.895C50.6686 97.965 50.1086 98.035 49.4786 98.105C48.8486 98.175 48.1602 98.2333 47.4136 98.28C46.6902 98.35 45.9669 98.385 45.2436 98.385C44.2169 98.385 43.2719 98.28 42.4086 98.07C41.5452 97.86 40.7986 97.5333 40.1686 97.09C39.5386 96.6233 39.0486 96.0167 38.6986 95.27C38.3486 94.5233 38.1736 93.625 38.1736 92.575C38.1736 91.5717 38.3719 90.7083 38.7686 89.985C39.1886 89.2617 39.7486 88.6783 40.4486 88.235C41.1486 87.7917 41.9652 87.465 42.8986 87.255C43.8319 87.045 44.8119 86.94 45.8386 86.94C46.1652 86.94 46.5036 86.9633 46.8536 87.01C47.2036 87.0333 47.5302 87.08 47.8336 87.15C48.1602 87.1967 48.4402 87.2433 48.6736 87.29C48.9069 87.3367 49.0702 87.3717 49.1636 87.395V86.485C49.1636 85.9483 49.1052 85.4233 48.9886 84.91C48.8719 84.3733 48.6619 83.9067 48.3586 83.51C48.0552 83.09 47.6352 82.7633 47.0986 82.53C46.5852 82.2733 45.9086 82.145 45.0686 82.145C43.9952 82.145 43.0502 82.2267 42.2336 82.39C41.4402 82.53 40.8452 82.6817 40.4486 82.845L40.0636 80.15C40.4836 79.9633 41.1836 79.7883 42.1636 79.625C43.1436 79.4383 44.2052 79.345 45.3486 79.345ZM63.7747 79.415C64.0547 79.415 64.3697 79.4383 64.7197 79.485C65.093 79.5083 65.4547 79.555 65.8047 79.625C66.1547 79.6717 66.4697 79.73 66.7497 79.8C67.053 79.8467 67.2747 79.8933 67.4147 79.94L66.8547 82.775C66.598 82.6817 66.1664 82.5767 65.5597 82.46C64.9764 82.32 64.218 82.25 63.2847 82.25C62.678 82.25 62.0714 82.32 61.4647 82.46C60.8814 82.5767 60.4964 82.6583 60.3097 82.705V98H57.0547V80.57C57.8247 80.29 58.7814 80.0333 59.9247 79.8C61.068 79.5433 62.3514 79.415 63.7747 79.415ZM69.8557 80.325C70.6023 80.1383 71.5823 79.94 72.7957 79.73C74.0323 79.52 75.4557 79.415 77.0657 79.415C78.2323 79.415 79.2123 79.5783 80.0057 79.905C80.799 80.2083 81.464 80.6633 82.0007 81.27C82.164 81.1533 82.4207 80.99 82.7707 80.78C83.1207 80.57 83.5523 80.3717 84.0657 80.185C84.579 79.975 85.1507 79.8 85.7807 79.66C86.4107 79.4967 87.0873 79.415 87.8107 79.415C89.2107 79.415 90.354 79.625 91.2407 80.045C92.1273 80.4417 92.8157 81.0133 93.3057 81.76C93.819 82.5067 94.1573 83.3933 94.3207 84.42C94.5073 85.4467 94.6007 86.5667 94.6007 87.78V98H91.3457V88.48C91.3457 87.4067 91.2873 86.485 91.1707 85.715C91.0773 84.945 90.879 84.3033 90.5757 83.79C90.2957 83.2767 89.899 82.9033 89.3857 82.67C88.8957 82.4133 88.254 82.285 87.4607 82.285C86.364 82.285 85.454 82.4367 84.7307 82.74C84.0307 83.02 83.5523 83.2767 83.2957 83.51C83.4823 84.1167 83.6223 84.7817 83.7157 85.505C83.809 86.2283 83.8557 86.9867 83.8557 87.78V98H80.6007V88.48C80.6007 87.4067 80.5423 86.485 80.4257 85.715C80.309 84.945 80.099 84.3033 79.7957 83.79C79.5157 83.2767 79.119 82.9033 78.6057 82.67C78.1157 82.4133 77.4857 82.285 76.7157 82.285C76.389 82.285 76.039 82.2967 75.6657 82.32C75.2923 82.3433 74.9307 82.3783 74.5807 82.425C74.254 82.4483 73.9507 82.4833 73.6707 82.53C73.3907 82.5767 73.204 82.6117 73.1107 82.635V98H69.8557V80.325ZM115.367 88.9C115.367 90.3467 115.157 91.6533 114.737 92.82C114.317 93.9867 113.722 94.99 112.952 95.83C112.205 96.67 111.307 97.3233 110.257 97.79C109.207 98.2333 108.064 98.455 106.827 98.455C105.59 98.455 104.447 98.2333 103.397 97.79C102.347 97.3233 101.437 96.67 100.667 95.83C99.9205 94.99 99.3371 93.9867 98.9171 92.82C98.4971 91.6533 98.2871 90.3467 98.2871 88.9C98.2871 87.4767 98.4971 86.1817 98.9171 85.015C99.3371 83.825 99.9205 82.81 100.667 81.97C101.437 81.13 102.347 80.4883 103.397 80.045C104.447 79.5783 105.59 79.345 106.827 79.345C108.064 79.345 109.207 79.5783 110.257 80.045C111.307 80.4883 112.205 81.13 112.952 81.97C113.722 82.81 114.317 83.825 114.737 85.015C115.157 86.1817 115.367 87.4767 115.367 88.9ZM111.972 88.9C111.972 86.8467 111.505 85.225 110.572 84.035C109.662 82.8217 108.414 82.215 106.827 82.215C105.24 82.215 103.98 82.8217 103.047 84.035C102.137 85.225 101.682 86.8467 101.682 88.9C101.682 90.9533 102.137 92.5867 103.047 93.8C103.98 94.99 105.24 95.585 106.827 95.585C108.414 95.585 109.662 94.99 110.572 93.8C111.505 92.5867 111.972 90.9533 111.972 88.9ZM119.247 80.325C119.993 80.1383 120.985 79.94 122.222 79.73C123.458 79.52 124.882 79.415 126.492 79.415C127.938 79.415 129.14 79.625 130.097 80.045C131.053 80.4417 131.812 81.0133 132.372 81.76C132.955 82.4833 133.363 83.3583 133.597 84.385C133.83 85.4117 133.947 86.5433 133.947 87.78V98H130.692V88.48C130.692 87.36 130.61 86.4033 130.447 85.61C130.307 84.8167 130.062 84.175 129.712 83.685C129.362 83.195 128.895 82.845 128.312 82.635C127.728 82.4017 127.005 82.285 126.142 82.285C125.792 82.285 125.43 82.2967 125.057 82.32C124.683 82.3433 124.322 82.3783 123.972 82.425C123.645 82.4483 123.342 82.4833 123.062 82.53C122.805 82.5767 122.618 82.6117 122.502 82.635V98H119.247V80.325ZM135.894 101.395C136.151 101.512 136.477 101.617 136.874 101.71C137.294 101.827 137.702 101.885 138.099 101.885C139.382 101.885 140.386 101.593 141.109 101.01C141.832 100.45 142.486 99.5283 143.069 98.245C141.599 95.445 140.222 92.4817 138.939 89.355C137.679 86.205 136.629 83.02 135.789 79.8H139.289C139.546 80.85 139.849 81.9817 140.199 83.195C140.572 84.4083 140.981 85.6567 141.424 86.94C141.867 88.2233 142.346 89.5067 142.859 90.79C143.372 92.0733 143.909 93.31 144.469 94.5C145.356 92.05 146.126 89.6233 146.779 87.22C147.432 84.8167 148.051 82.3433 148.634 79.8H151.994C151.154 83.23 150.221 86.5317 149.194 89.705C148.167 92.855 147.059 95.8067 145.869 98.56C145.402 99.61 144.912 100.508 144.399 101.255C143.909 102.025 143.361 102.655 142.754 103.145C142.147 103.635 141.459 103.997 140.689 104.23C139.942 104.463 139.091 104.58 138.134 104.58C137.877 104.58 137.609 104.557 137.329 104.51C137.049 104.487 136.769 104.44 136.489 104.37C136.232 104.323 135.987 104.265 135.754 104.195C135.544 104.125 135.392 104.067 135.299 104.02L135.894 101.395Z" fill="#2A2921"/>
</svg>
