<svg width="169" height="136" viewBox="0 0 169 136" fill="none" xmlns="http://www.w3.org/2000/svg">
<path d="M34.7036 53V39.665H32.3936V35.85L34.7036 35.675V34.73C34.7036 33.82 34.8086 32.9567 35.0186 32.14C35.2519 31.3233 35.6253 30.6117 36.1386 30.005C36.6519 29.3983 37.3169 28.92 38.1336 28.57C38.9503 28.22 39.9419 28.045 41.1086 28.045C41.8319 28.045 42.4853 28.115 43.0686 28.255C43.6753 28.395 44.1769 28.535 44.5736 28.675L43.6286 32.455C42.9753 32.2217 42.3803 32.105 41.8436 32.105C41.2136 32.105 40.7236 32.3033 40.3736 32.7C40.0236 33.0733 39.8486 33.7033 39.8486 34.59V35.64H42.9636V39.665H39.8486V53H34.7036ZM45.0573 53V35.64H50.2023V53H45.0573ZM47.6123 33.085C46.749 33.085 46.0373 32.84 45.4773 32.35C44.9173 31.8367 44.6373 31.1833 44.6373 30.39C44.6373 29.5967 44.9173 28.955 45.4773 28.465C46.0373 27.975 46.749 27.73 47.6123 27.73C48.499 27.73 49.2107 27.975 49.7473 28.465C50.3073 28.955 50.5873 29.5967 50.5873 30.39C50.5873 31.1833 50.3073 31.8367 49.7473 32.35C49.2107 32.84 48.499 33.085 47.6123 33.085ZM54.0302 53V35.64H58.2302L58.5802 37.845H58.7202C59.4668 37.145 60.2835 36.5383 61.1702 36.025C62.0568 35.4883 63.0952 35.22 64.2852 35.22C66.1752 35.22 67.5402 35.8383 68.3802 37.075C69.2435 38.3117 69.6752 40.0267 69.6752 42.22V53H64.5302V42.885C64.5302 41.625 64.3552 40.7617 64.0052 40.295C63.6785 39.8283 63.1418 39.595 62.3952 39.595C61.7418 39.595 61.1818 39.7467 60.7152 40.05C60.2485 40.33 59.7352 40.7383 59.1752 41.275V53H54.0302ZM79.5545 53.42C78.4811 53.42 77.5011 53.21 76.6145 52.79C75.7511 52.37 75.0045 51.775 74.3745 51.005C73.7678 50.2117 73.2895 49.255 72.9395 48.135C72.6128 47.015 72.4495 45.7433 72.4495 44.32C72.4495 42.8967 72.6478 41.625 73.0445 40.505C73.4645 39.385 74.0011 38.44 74.6545 37.67C75.3311 36.8767 76.1011 36.27 76.9645 35.85C77.8511 35.43 78.7495 35.22 79.6595 35.22C80.6395 35.22 81.4445 35.3833 82.0745 35.71C82.7045 36.0367 83.3228 36.48 83.9295 37.04L83.7195 34.38V28.465H88.8645V53H84.6645L84.3145 51.285H84.1745C83.5678 51.8917 82.8561 52.405 82.0395 52.825C81.2228 53.2217 80.3945 53.42 79.5545 53.42ZM80.8845 49.22C81.4445 49.22 81.9461 49.1033 82.3895 48.87C82.8561 48.6367 83.2995 48.2283 83.7195 47.645V40.54C83.2528 40.12 82.7745 39.8283 82.2845 39.665C81.7945 39.5017 81.3161 39.42 80.8495 39.42C80.0328 39.42 79.3095 39.8167 78.6795 40.61C78.0495 41.38 77.7345 42.5933 77.7345 44.25C77.7345 45.9767 78.0028 47.2367 78.5395 48.03C79.0995 48.8233 79.8811 49.22 80.8845 49.22ZM92.723 53V35.64H97.868V53H92.723ZM95.278 33.085C94.4146 33.085 93.703 32.84 93.143 32.35C92.583 31.8367 92.303 31.1833 92.303 30.39C92.303 29.5967 92.583 28.955 93.143 28.465C93.703 27.975 94.4146 27.73 95.278 27.73C96.1646 27.73 96.8763 27.975 97.413 28.465C97.973 28.955 98.253 29.5967 98.253 30.39C98.253 31.1833 97.973 31.8367 97.413 32.35C96.8763 32.84 96.1646 33.085 95.278 33.085ZM101.696 53V35.64H105.896L106.246 37.845H106.386C107.132 37.145 107.949 36.5383 108.836 36.025C109.722 35.4883 110.761 35.22 111.951 35.22C113.841 35.22 115.206 35.8383 116.046 37.075C116.909 38.3117 117.341 40.0267 117.341 42.22V53H112.196V42.885C112.196 41.625 112.021 40.7617 111.671 40.295C111.344 39.8283 110.807 39.595 110.061 39.595C109.407 39.595 108.847 39.7467 108.381 40.05C107.914 40.33 107.401 40.7383 106.841 41.275V53H101.696ZM127.22 60.385C126.193 60.385 125.237 60.2917 124.35 60.105C123.487 59.9417 122.717 59.685 122.04 59.335C121.387 58.985 120.873 58.53 120.5 57.97C120.127 57.41 119.94 56.745 119.94 55.975C119.94 54.575 120.768 53.4083 122.425 52.475V52.335C121.958 52.0317 121.573 51.6467 121.27 51.18C120.967 50.7133 120.815 50.1183 120.815 49.395C120.815 48.765 121.002 48.17 121.375 47.61C121.748 47.0267 122.215 46.5367 122.775 46.14V46C122.168 45.58 121.62 44.985 121.13 44.215C120.663 43.4217 120.43 42.5117 120.43 41.485C120.43 40.435 120.628 39.525 121.025 38.755C121.422 37.9617 121.947 37.3083 122.6 36.795C123.277 36.2583 124.047 35.8617 124.91 35.605C125.773 35.3483 126.672 35.22 127.605 35.22C128.632 35.22 129.53 35.36 130.3 35.64H136.635V39.385H133.87C134.033 39.6417 134.162 39.9683 134.255 40.365C134.372 40.7617 134.43 41.1933 134.43 41.66C134.43 42.6633 134.255 43.5383 133.905 44.285C133.555 45.0083 133.065 45.615 132.435 46.105C131.828 46.5717 131.105 46.9217 130.265 47.155C129.448 47.3883 128.562 47.505 127.605 47.505C126.928 47.505 126.228 47.3883 125.505 47.155C125.272 47.3417 125.108 47.5283 125.015 47.715C124.922 47.9017 124.875 48.1467 124.875 48.45C124.875 48.8933 125.062 49.22 125.435 49.43C125.832 49.64 126.52 49.745 127.5 49.745H130.3C132.447 49.745 134.08 50.095 135.2 50.795C136.343 51.4717 136.915 52.5917 136.915 54.155C136.915 55.065 136.682 55.8933 136.215 56.64C135.772 57.41 135.13 58.0633 134.29 58.6C133.45 59.16 132.435 59.5917 131.245 59.895C130.055 60.2217 128.713 60.385 127.22 60.385ZM127.605 44.39C128.282 44.39 128.842 44.1567 129.285 43.69C129.752 43.2 129.985 42.465 129.985 41.485C129.985 40.575 129.752 39.8867 129.285 39.42C128.842 38.93 128.282 38.685 127.605 38.685C126.928 38.685 126.357 38.9183 125.89 39.385C125.447 39.8517 125.225 40.5517 125.225 41.485C125.225 42.465 125.447 43.2 125.89 43.69C126.357 44.1567 126.928 44.39 127.605 44.39ZM128.025 57.165C129.192 57.165 130.148 56.955 130.895 56.535C131.642 56.1383 132.015 55.6367 132.015 55.03C132.015 54.4933 131.782 54.1317 131.315 53.945C130.872 53.7583 130.218 53.665 129.355 53.665H127.57C126.963 53.665 126.473 53.6417 126.1 53.595C125.727 53.5717 125.4 53.525 125.12 53.455C124.49 54.015 124.175 54.5867 124.175 55.17C124.175 55.8233 124.525 56.3133 125.225 56.64C125.925 56.99 126.858 57.165 128.025 57.165ZM23.2767 96.635C23.9533 96.565 24.42 96.39 24.6767 96.11C24.9567 95.83 25.0967 95.3633 25.0967 94.71V76.09C25.0967 75.46 24.9917 75.005 24.7817 74.725C24.5717 74.4217 24.245 74.27 23.8017 74.27H23.0667L22.9267 74.165L23.0667 73.045C23.86 72.9517 24.7583 72.8117 25.7617 72.625C26.765 72.415 27.5933 72.2167 28.2467 72.03L28.4567 72.485C28.2933 72.7417 28.13 73.99 27.9667 76.23C27.8267 78.47 27.71 81.2233 27.6167 84.49C30.2767 82.67 32.0267 81.76 32.8667 81.76C34.3833 81.76 35.5617 82.1567 36.4017 82.95C37.2417 83.7433 37.6617 84.8517 37.6617 86.275C37.6617 86.7417 37.58 87.815 37.4167 89.495C37.2067 92.225 37.1017 93.9167 37.1017 94.57C37.1017 95.2467 37.195 95.7483 37.3817 96.075C37.5683 96.3783 37.8833 96.53 38.3267 96.53L39.5517 96.46L39.6217 96.6L39.3417 98.105C37.8017 98.035 36.7633 98 36.2267 98C35.2933 98 34.0917 98.14 32.6217 98.42L32.7617 96.985C33.4617 96.7983 33.9633 96.53 34.2667 96.18C34.57 95.8067 34.7217 95.3167 34.7217 94.71L34.9317 87.78C34.9317 86.6133 34.675 85.715 34.1617 85.085C33.6717 84.455 32.96 84.14 32.0267 84.14C31.4433 84.14 30.72 84.3267 29.8567 84.7C29.0167 85.0733 28.2583 85.5283 27.5817 86.065C27.5117 88.6783 27.4767 91.5133 27.4767 94.57C27.4767 95.2933 27.57 95.8067 27.7567 96.11C27.9433 96.39 28.27 96.53 28.7367 96.53L29.9617 96.46L30.0317 96.6L29.7167 98.105C28.1067 98.035 27.045 98 26.5317 98C25.5283 98 24.3733 98.0233 23.0667 98.07L23.2767 96.635ZM53.0679 98.42C51.1779 98.42 50.1396 97.475 49.9529 95.585L49.8129 95.55C48.9729 96.39 48.2029 97.055 47.5029 97.545C46.8263 98.035 46.3129 98.28 45.9629 98.28C44.6563 98.28 43.5829 97.8717 42.7429 97.055C41.9029 96.2383 41.4829 95.2 41.4829 93.94C41.4829 93.2633 41.6463 92.6683 41.9729 92.155C42.3229 91.6417 42.7779 91.3033 43.3379 91.14L49.9879 89.32L50.0229 87.78C50.0229 86.6133 49.7546 85.7033 49.2179 85.05C48.6813 84.3967 47.9229 84.07 46.9429 84.07C46.2896 84.07 45.6013 84.2217 44.8779 84.525C44.1546 84.8283 43.4429 85.26 42.7429 85.82L42.5679 85.715L42.1479 84.21C43.2446 83.58 44.3413 83.02 45.4379 82.53C46.5579 82.0167 47.3629 81.76 47.8529 81.76C49.3696 81.76 50.5596 82.1567 51.4229 82.95C52.2863 83.7433 52.7179 84.8517 52.7179 86.275C52.7179 86.7883 52.6363 87.8383 52.4729 89.425C52.2163 91.9917 52.0879 93.625 52.0879 94.325C52.0879 94.8383 52.2163 95.235 52.4729 95.515C52.7296 95.795 53.0796 95.935 53.5229 95.935C53.8963 95.935 54.2813 95.8533 54.6779 95.69C55.0746 95.5033 55.3896 95.2933 55.6229 95.06L56.1129 95.62C55.7629 96.2033 55.3079 96.775 54.7479 97.335C54.2113 97.8717 53.6513 98.2333 53.0679 98.42ZM46.5579 95.9C47.0013 95.9 47.5146 95.7483 48.0979 95.445C48.7046 95.1183 49.2529 94.71 49.7429 94.22L49.9179 90.65L45.1579 92.085C44.4813 92.295 44.1429 92.785 44.1429 93.555C44.1429 94.2317 44.3646 94.7917 44.8079 95.235C45.2746 95.6783 45.8579 95.9 46.5579 95.9ZM57.7167 96.74C58.4167 96.67 58.8833 96.4483 59.1167 96.075C59.35 95.6783 59.4667 94.9317 59.4667 93.835V86.135C59.4667 85.365 59.3617 84.8167 59.1517 84.49C58.9417 84.1633 58.6033 84 58.1367 84C57.95 84 57.7867 84.0117 57.6467 84.035C57.53 84.0583 57.4483 84.0817 57.4017 84.105L57.2267 83.86L57.3317 82.775C58.2183 82.6117 59.1517 82.4133 60.1317 82.18C61.135 81.9467 61.7767 81.795 62.0567 81.725L62.3017 81.935C62.255 82.145 62.185 82.635 62.0917 83.405C61.9983 84.1517 61.9633 84.8633 61.9867 85.54L62.1267 85.645C62.8267 84.5483 63.6433 83.65 64.5767 82.95C65.5333 82.25 66.3617 81.9 67.0617 81.9C67.3883 81.9 67.6333 81.9233 67.7967 81.97C67.9833 81.9933 68.1 82.0167 68.1467 82.04L68.2517 82.18C68.205 82.5067 68.1 83.2067 67.9367 84.28C67.7967 85.33 67.715 86.2983 67.6917 87.185L66.3267 87.29C66.3267 86.3333 66.2567 85.7033 66.1167 85.4C66 85.0733 65.755 84.91 65.3817 84.91C64.8683 84.91 64.32 85.1317 63.7367 85.575C63.1533 85.995 62.6167 86.5667 62.1267 87.29C62.1033 87.9667 62.0567 89.0867 61.9867 90.65C61.9167 92.2133 61.87 93.4733 61.8467 94.43C61.8467 95.2233 61.9633 95.76 62.1967 96.04C62.43 96.32 62.8733 96.46 63.5267 96.46C63.83 96.46 64.1333 96.4483 64.4367 96.425C64.74 96.4017 64.95 96.39 65.0667 96.39L65.1017 96.53L64.7867 98.07C64.5533 98.07 64.0867 98.0583 63.3867 98.035C62.6867 98.0117 61.9633 98 61.2167 98C60.3533 98 59.5717 98.0117 58.8717 98.035C58.1717 98.0817 57.7283 98.1167 57.5417 98.14L57.7167 96.74ZM79.7251 96.985C80.4251 96.7983 80.9268 96.53 81.2301 96.18C81.5334 95.8067 81.6851 95.3167 81.6851 94.71L81.8251 87.78C81.8251 86.6133 81.5684 85.715 81.0551 85.085C80.5651 84.455 79.8534 84.14 78.9201 84.14C78.1734 84.14 77.4151 84.3383 76.6451 84.735C75.8751 85.1083 75.1984 85.5167 74.6151 85.96C74.4051 90.79 74.3001 93.66 74.3001 94.57C74.3001 95.2933 74.3934 95.8067 74.5801 96.11C74.7668 96.39 75.0934 96.53 75.5601 96.53C75.8168 96.53 76.0618 96.5183 76.2951 96.495C76.5284 96.4717 76.6918 96.46 76.7851 96.46L76.8551 96.6L76.5401 98.105C76.3301 98.0817 75.9218 98.0583 75.3151 98.035C74.7084 98.0117 74.0551 98 73.3551 98C72.5851 98 71.8734 98.0117 71.2201 98.035C70.5668 98.0583 70.1234 98.07 69.8901 98.07L70.1001 96.635C70.7768 96.565 71.2434 96.39 71.5001 96.11C71.7801 95.83 71.9201 95.3633 71.9201 94.71V86.17C71.9201 85.3767 71.7918 84.8283 71.5351 84.525C71.2784 84.1983 70.8351 84.035 70.2051 84.035H69.8201L69.7151 83.895L69.8201 82.74C70.8234 82.5767 71.8151 82.39 72.7951 82.18C73.7984 81.9467 74.4401 81.795 74.7201 81.725L74.9301 82.005C74.8834 82.145 74.8134 82.4483 74.7201 82.915C74.6268 83.3583 74.5684 83.825 74.5451 84.315L74.6151 84.42C77.2284 82.6467 78.9434 81.76 79.7601 81.76C80.8801 81.76 81.8251 82.005 82.5951 82.495C83.3651 82.9617 83.9134 83.6383 84.2401 84.525C85.0801 83.9183 86.0251 83.3117 87.0751 82.705C88.1251 82.075 88.9418 81.76 89.5251 81.76C90.9951 81.76 92.1618 82.1683 93.0251 82.985C93.8884 83.8017 94.3201 84.8983 94.3201 86.275C94.3201 86.5083 94.2501 87.5817 94.1101 89.495C93.9234 91.9217 93.8301 93.6133 93.8301 94.57C93.8301 95.2933 93.9234 95.8067 94.1101 96.11C94.2968 96.39 94.6234 96.53 95.0901 96.53C95.3468 96.53 95.5918 96.5183 95.8251 96.495C96.0584 96.4717 96.2218 96.46 96.3151 96.46L96.3851 96.6L96.0701 98.105C95.8601 98.0817 95.4518 98.0583 94.8451 98.035C94.2384 98.0117 93.5851 98 92.8851 98C92.2784 98 91.6018 98.0233 90.8551 98.07C90.1318 98.14 89.6534 98.1867 89.4201 98.21L89.5951 96.775C90.2718 96.6583 90.7501 96.4483 91.0301 96.145C91.3101 95.8417 91.4501 95.3633 91.4501 94.71L91.5901 87.78C91.5901 86.6133 91.3334 85.715 90.8201 85.085C90.3301 84.455 89.6184 84.14 88.6851 84.14C87.4718 84.14 86.0601 84.7233 84.4501 85.89L84.0651 94.57C84.0651 95.2467 84.1584 95.7483 84.3451 96.075C84.5318 96.3783 84.8468 96.53 85.2901 96.53C85.5468 96.53 85.7918 96.5183 86.0251 96.495C86.2584 96.4717 86.4218 96.46 86.5151 96.46L86.5851 96.6L86.3051 98.105C86.0951 98.0817 85.6984 98.0583 85.1151 98.035C84.5318 98.0117 83.8901 98 83.1901 98C82.5834 98 81.8834 98.0583 81.0901 98.175C80.3201 98.2917 79.8184 98.3733 79.5851 98.42L79.7251 96.985ZM104.821 98.42C103.491 98.42 102.313 98.0933 101.286 97.44C100.26 96.7867 99.4545 95.8767 98.8712 94.71C98.3112 93.52 98.0312 92.1667 98.0312 90.65C98.0312 89.0167 98.3812 87.5233 99.0812 86.17C99.8045 84.7933 100.785 83.72 102.021 82.95C103.258 82.1567 104.635 81.76 106.151 81.76C107.458 81.76 108.625 82.0867 109.651 82.74C110.701 83.3933 111.506 84.315 112.066 85.505C112.65 86.6717 112.941 88.0133 112.941 89.53C112.941 91.1633 112.58 92.6683 111.856 94.045C111.156 95.3983 110.188 96.4717 108.951 97.265C107.715 98.035 106.338 98.42 104.821 98.42ZM105.801 96.705C107.108 96.705 108.146 96.18 108.916 95.13C109.686 94.0567 110.071 92.61 110.071 90.79C110.071 89.4133 109.861 88.1883 109.441 87.115C109.021 86.0183 108.426 85.1667 107.656 84.56C106.91 83.9533 106.058 83.65 105.101 83.65C103.795 83.65 102.756 84.1867 101.986 85.26C101.216 86.3333 100.831 87.7917 100.831 89.635C100.831 91.0117 101.041 92.2367 101.461 93.31C101.881 94.3833 102.465 95.2233 103.211 95.83C103.958 96.4133 104.821 96.705 105.801 96.705ZM124.948 96.985C125.648 96.7983 126.149 96.53 126.453 96.18C126.756 95.8067 126.908 95.3167 126.908 94.71L127.048 87.78C127.048 86.6133 126.791 85.715 126.278 85.085C125.788 84.455 125.076 84.14 124.143 84.14C123.396 84.14 122.638 84.3383 121.868 84.735C121.098 85.1083 120.421 85.5167 119.838 85.96C119.628 90.79 119.523 93.66 119.523 94.57C119.523 95.2933 119.616 95.8067 119.803 96.11C119.989 96.39 120.316 96.53 120.783 96.53C121.039 96.53 121.284 96.5183 121.518 96.495C121.751 96.4717 121.914 96.46 122.008 96.46L122.078 96.6L121.763 98.105C121.553 98.0817 121.144 98.0583 120.538 98.035C119.931 98.0117 119.278 98 118.578 98C117.971 98 117.294 98.0233 116.548 98.07C115.824 98.14 115.346 98.1867 115.113 98.21L115.288 96.775C115.964 96.6583 116.443 96.4483 116.723 96.145C117.003 95.8417 117.143 95.3633 117.143 94.71V86.17C117.143 85.3767 117.014 84.8283 116.758 84.525C116.501 84.1983 116.058 84.035 115.428 84.035H115.043L114.938 83.895L115.043 82.74C116.046 82.5767 117.038 82.39 118.018 82.18C119.021 81.9467 119.663 81.795 119.943 81.725L120.153 82.005C120.106 82.145 120.036 82.4483 119.943 82.915C119.849 83.3583 119.791 83.825 119.768 84.315L119.838 84.42C122.498 82.6467 124.213 81.76 124.983 81.76C126.453 81.76 127.619 82.1683 128.483 82.985C129.346 83.8017 129.778 84.8983 129.778 86.275C129.778 86.5083 129.708 87.5817 129.568 89.495C129.381 91.9217 129.288 93.6133 129.288 94.57C129.288 95.2467 129.381 95.7483 129.568 96.075C129.754 96.3783 130.069 96.53 130.513 96.53C130.769 96.53 131.014 96.5183 131.248 96.495C131.481 96.4717 131.644 96.46 131.738 96.46L131.808 96.6L131.528 98.105C131.318 98.0817 130.921 98.0583 130.338 98.035C129.754 98.0117 129.113 98 128.413 98C127.806 98 127.106 98.0583 126.313 98.175C125.543 98.2917 125.041 98.3733 124.808 98.42L124.948 96.985ZM132.588 106.435C132.402 106.435 132.098 106.155 131.678 105.595C131.258 105.058 131.048 104.673 131.048 104.44L131.223 104.195C132.53 104.195 133.743 103.647 134.863 102.55C136.007 101.477 136.987 99.96 137.803 98C136.007 92.3067 134.56 88.0133 133.463 85.12C133.253 84.5367 132.95 84.1167 132.553 83.86C132.18 83.6033 131.69 83.4633 131.083 83.44L131.013 83.3L131.223 82.145L134.128 82.18C134.992 82.18 135.843 82.145 136.683 82.075C137.547 82.005 138.095 81.9583 138.328 81.935L138.398 82.11L138.188 83.195C137.395 83.2183 136.858 83.3 136.578 83.44C136.322 83.5567 136.193 83.7783 136.193 84.105C136.193 84.4783 136.415 85.4467 136.858 87.01C137.325 88.5733 137.803 90.1367 138.293 91.7C138.783 93.24 139.11 94.2433 139.273 94.71H139.413C142.097 88.2933 143.438 84.805 143.438 84.245C143.438 83.6383 142.995 83.335 142.108 83.335H140.498L140.428 83.195L140.638 82.04C140.848 82.0633 141.315 82.0983 142.038 82.145C142.762 82.1683 143.485 82.18 144.208 82.18L147.183 82.145L146.938 83.44C146.425 83.5333 146.028 83.72 145.748 84C145.492 84.2567 145.235 84.735 144.978 85.435L140.533 96.075C139.32 99.015 138.328 101.197 137.558 102.62C136.788 104.043 136.03 105.035 135.283 105.595C134.537 106.178 133.638 106.458 132.588 106.435Z" fill="#2A2921"/>
</svg>
