<svg width="169" height="136" viewBox="0 0 169 136" fill="none" xmlns="http://www.w3.org/2000/svg">
<path d="M35.2036 53V39.665H32.8936V35.85L35.2036 35.675V34.73C35.2036 33.82 35.3086 32.9567 35.5186 32.14C35.7519 31.3233 36.1253 30.6117 36.6386 30.005C37.1519 29.3983 37.8169 28.92 38.6336 28.57C39.4503 28.22 40.4419 28.045 41.6086 28.045C42.3319 28.045 42.9853 28.115 43.5686 28.255C44.1753 28.395 44.6769 28.535 45.0736 28.675L44.1286 32.455C43.4753 32.2217 42.8803 32.105 42.3436 32.105C41.7136 32.105 41.2236 32.3033 40.8736 32.7C40.5236 33.0733 40.3486 33.7033 40.3486 34.59V35.64H43.4636V39.665H40.3486V53H35.2036ZM45.5573 53V35.64H50.7023V53H45.5573ZM48.1123 33.085C47.249 33.085 46.5373 32.84 45.9773 32.35C45.4173 31.8367 45.1373 31.1833 45.1373 30.39C45.1373 29.5967 45.4173 28.955 45.9773 28.465C46.5373 27.975 47.249 27.73 48.1123 27.73C48.999 27.73 49.7107 27.975 50.2473 28.465C50.8073 28.955 51.0873 29.5967 51.0873 30.39C51.0873 31.1833 50.8073 31.8367 50.2473 32.35C49.7107 32.84 48.999 33.085 48.1123 33.085ZM54.5302 53V35.64H58.7302L59.0802 37.845H59.2202C59.9668 37.145 60.7835 36.5383 61.6702 36.025C62.5568 35.4883 63.5952 35.22 64.7852 35.22C66.6752 35.22 68.0402 35.8383 68.8802 37.075C69.7435 38.3117 70.1752 40.0267 70.1752 42.22V53H65.0302V42.885C65.0302 41.625 64.8552 40.7617 64.5052 40.295C64.1785 39.8283 63.6418 39.595 62.8952 39.595C62.2418 39.595 61.6818 39.7467 61.2152 40.05C60.7485 40.33 60.2352 40.7383 59.6752 41.275V53H54.5302ZM80.0545 53.42C78.9811 53.42 78.0011 53.21 77.1145 52.79C76.2511 52.37 75.5045 51.775 74.8745 51.005C74.2678 50.2117 73.7895 49.255 73.4395 48.135C73.1128 47.015 72.9495 45.7433 72.9495 44.32C72.9495 42.8967 73.1478 41.625 73.5445 40.505C73.9645 39.385 74.5011 38.44 75.1545 37.67C75.8311 36.8767 76.6011 36.27 77.4645 35.85C78.3511 35.43 79.2495 35.22 80.1595 35.22C81.1395 35.22 81.9445 35.3833 82.5745 35.71C83.2045 36.0367 83.8228 36.48 84.4295 37.04L84.2195 34.38V28.465H89.3645V53H85.1645L84.8145 51.285H84.6745C84.0678 51.8917 83.3561 52.405 82.5395 52.825C81.7228 53.2217 80.8945 53.42 80.0545 53.42ZM81.3845 49.22C81.9445 49.22 82.4461 49.1033 82.8895 48.87C83.3561 48.6367 83.7995 48.2283 84.2195 47.645V40.54C83.7528 40.12 83.2745 39.8283 82.7845 39.665C82.2945 39.5017 81.8161 39.42 81.3495 39.42C80.5328 39.42 79.8095 39.8167 79.1795 40.61C78.5495 41.38 78.2345 42.5933 78.2345 44.25C78.2345 45.9767 78.5028 47.2367 79.0395 48.03C79.5995 48.8233 80.3811 49.22 81.3845 49.22ZM93.223 53V35.64H98.368V53H93.223ZM95.778 33.085C94.9146 33.085 94.203 32.84 93.643 32.35C93.083 31.8367 92.803 31.1833 92.803 30.39C92.803 29.5967 93.083 28.955 93.643 28.465C94.203 27.975 94.9146 27.73 95.778 27.73C96.6646 27.73 97.3763 27.975 97.913 28.465C98.473 28.955 98.753 29.5967 98.753 30.39C98.753 31.1833 98.473 31.8367 97.913 32.35C97.3763 32.84 96.6646 33.085 95.778 33.085ZM102.196 53V35.64H106.396L106.746 37.845H106.886C107.632 37.145 108.449 36.5383 109.336 36.025C110.222 35.4883 111.261 35.22 112.451 35.22C114.341 35.22 115.706 35.8383 116.546 37.075C117.409 38.3117 117.841 40.0267 117.841 42.22V53H112.696V42.885C112.696 41.625 112.521 40.7617 112.171 40.295C111.844 39.8283 111.307 39.595 110.561 39.595C109.907 39.595 109.347 39.7467 108.881 40.05C108.414 40.33 107.901 40.7383 107.341 41.275V53H102.196ZM127.72 60.385C126.693 60.385 125.737 60.2917 124.85 60.105C123.987 59.9417 123.217 59.685 122.54 59.335C121.887 58.985 121.373 58.53 121 57.97C120.627 57.41 120.44 56.745 120.44 55.975C120.44 54.575 121.268 53.4083 122.925 52.475V52.335C122.458 52.0317 122.073 51.6467 121.77 51.18C121.467 50.7133 121.315 50.1183 121.315 49.395C121.315 48.765 121.502 48.17 121.875 47.61C122.248 47.0267 122.715 46.5367 123.275 46.14V46C122.668 45.58 122.12 44.985 121.63 44.215C121.163 43.4217 120.93 42.5117 120.93 41.485C120.93 40.435 121.128 39.525 121.525 38.755C121.922 37.9617 122.447 37.3083 123.1 36.795C123.777 36.2583 124.547 35.8617 125.41 35.605C126.273 35.3483 127.172 35.22 128.105 35.22C129.132 35.22 130.03 35.36 130.8 35.64H137.135V39.385H134.37C134.533 39.6417 134.662 39.9683 134.755 40.365C134.872 40.7617 134.93 41.1933 134.93 41.66C134.93 42.6633 134.755 43.5383 134.405 44.285C134.055 45.0083 133.565 45.615 132.935 46.105C132.328 46.5717 131.605 46.9217 130.765 47.155C129.948 47.3883 129.062 47.505 128.105 47.505C127.428 47.505 126.728 47.3883 126.005 47.155C125.772 47.3417 125.608 47.5283 125.515 47.715C125.422 47.9017 125.375 48.1467 125.375 48.45C125.375 48.8933 125.562 49.22 125.935 49.43C126.332 49.64 127.02 49.745 128 49.745H130.8C132.947 49.745 134.58 50.095 135.7 50.795C136.843 51.4717 137.415 52.5917 137.415 54.155C137.415 55.065 137.182 55.8933 136.715 56.64C136.272 57.41 135.63 58.0633 134.79 58.6C133.95 59.16 132.935 59.5917 131.745 59.895C130.555 60.2217 129.213 60.385 127.72 60.385ZM128.105 44.39C128.782 44.39 129.342 44.1567 129.785 43.69C130.252 43.2 130.485 42.465 130.485 41.485C130.485 40.575 130.252 39.8867 129.785 39.42C129.342 38.93 128.782 38.685 128.105 38.685C127.428 38.685 126.857 38.9183 126.39 39.385C125.947 39.8517 125.725 40.5517 125.725 41.485C125.725 42.465 125.947 43.2 126.39 43.69C126.857 44.1567 127.428 44.39 128.105 44.39ZM128.525 57.165C129.692 57.165 130.648 56.955 131.395 56.535C132.142 56.1383 132.515 55.6367 132.515 55.03C132.515 54.4933 132.282 54.1317 131.815 53.945C131.372 53.7583 130.718 53.665 129.855 53.665H128.07C127.463 53.665 126.973 53.6417 126.6 53.595C126.227 53.5717 125.9 53.525 125.62 53.455C124.99 54.015 124.675 54.5867 124.675 55.17C124.675 55.8233 125.025 56.3133 125.725 56.64C126.425 56.99 127.358 57.165 128.525 57.165ZM20.1696 79.45C22.4796 79.45 24.3113 80.1267 25.6646 81.48C27.0413 82.81 27.7296 84.7583 27.7296 87.325V98H25.2446V87.57C25.2446 85.6567 24.7663 84.1983 23.8096 83.195C22.8529 82.1917 21.4879 81.69 19.7146 81.69C17.7313 81.69 16.1563 82.285 14.9896 83.475C13.8463 84.6417 13.2746 86.2633 13.2746 88.34V98H10.7896V72.03H13.2746V82.81C13.9513 81.7367 14.8846 80.9083 16.0746 80.325C17.2646 79.7417 18.6296 79.45 20.1696 79.45ZM40.2161 79.45C42.6195 79.45 44.4628 80.0567 45.7461 81.27C47.0295 82.46 47.6711 84.2333 47.6711 86.59V98H45.2911V95.13C44.7311 96.0867 43.9028 96.8333 42.8061 97.37C41.7328 97.9067 40.4495 98.175 38.9561 98.175C36.9028 98.175 35.2695 97.685 34.0561 96.705C32.8428 95.725 32.2361 94.43 32.2361 92.82C32.2361 91.2567 32.7961 89.9967 33.9161 89.04C35.0595 88.0833 36.8678 87.605 39.3411 87.605H45.1861V86.485C45.1861 84.8983 44.7428 83.6967 43.8561 82.88C42.9695 82.04 41.6745 81.62 39.9711 81.62C38.8045 81.62 37.6845 81.8183 36.6111 82.215C35.5378 82.5883 34.6161 83.1133 33.8461 83.79L32.7261 81.935C33.6595 81.1417 34.7795 80.535 36.0861 80.115C37.3928 79.6717 38.7695 79.45 40.2161 79.45ZM39.3411 96.215C40.7411 96.215 41.9428 95.9 42.9461 95.27C43.9495 94.6167 44.6961 93.6833 45.1861 92.47V89.46H39.4111C36.2611 89.46 34.6861 90.5567 34.6861 92.75C34.6861 93.8233 35.0945 94.675 35.9111 95.305C36.7278 95.9117 37.8711 96.215 39.3411 96.215ZM56.1007 83.195C56.684 81.9583 57.5473 81.025 58.6907 80.395C59.8573 79.765 61.2923 79.45 62.9957 79.45V81.865L62.4007 81.83C60.464 81.83 58.9473 82.425 57.8507 83.615C56.754 84.805 56.2057 86.4733 56.2057 88.62V98H53.7207V79.59H56.1007V83.195ZM89.7551 79.45C92.0651 79.45 93.8734 80.115 95.1801 81.445C96.5101 82.775 97.1751 84.735 97.1751 87.325V98H94.6901V87.57C94.6901 85.6567 94.2234 84.1983 93.2901 83.195C92.3801 82.1917 91.0851 81.69 89.4051 81.69C87.4917 81.69 85.9867 82.285 84.8901 83.475C83.7934 84.6417 83.2451 86.2633 83.2451 88.34V98H80.7601V87.57C80.7601 85.6567 80.2934 84.1983 79.3601 83.195C78.4501 82.1917 77.1434 81.69 75.4401 81.69C73.5501 81.69 72.0451 82.285 70.9251 83.475C69.8284 84.6417 69.2801 86.2633 69.2801 88.34V98H66.7951V79.59H69.1751V82.95C69.8284 81.83 70.7384 80.9667 71.9051 80.36C73.0717 79.7533 74.4134 79.45 75.9301 79.45C77.4701 79.45 78.8001 79.7767 79.9201 80.43C81.0634 81.0833 81.9151 82.0517 82.4751 83.335C83.1517 82.1217 84.1201 81.1767 85.3801 80.5C86.6634 79.8 88.1217 79.45 89.7551 79.45ZM110.808 98.175C109.034 98.175 107.436 97.7783 106.013 96.985C104.589 96.1683 103.469 95.0483 102.653 93.625C101.836 92.2017 101.428 90.5917 101.428 88.795C101.428 86.9983 101.836 85.3883 102.653 83.965C103.469 82.5417 104.589 81.4333 106.013 80.64C107.436 79.8467 109.034 79.45 110.808 79.45C112.581 79.45 114.179 79.8467 115.603 80.64C117.026 81.4333 118.134 82.5417 118.928 83.965C119.744 85.3883 120.153 86.9983 120.153 88.795C120.153 90.5917 119.744 92.2017 118.928 93.625C118.134 95.0483 117.026 96.1683 115.603 96.985C114.179 97.7783 112.581 98.175 110.808 98.175ZM110.808 95.97C112.114 95.97 113.281 95.6783 114.308 95.095C115.358 94.4883 116.174 93.6367 116.758 92.54C117.341 91.4433 117.633 90.195 117.633 88.795C117.633 87.395 117.341 86.1467 116.758 85.05C116.174 83.9533 115.358 83.1133 114.308 82.53C113.281 81.9233 112.114 81.62 110.808 81.62C109.501 81.62 108.323 81.9233 107.273 82.53C106.246 83.1133 105.429 83.9533 104.823 85.05C104.239 86.1467 103.948 87.395 103.948 88.795C103.948 90.195 104.239 91.4433 104.823 92.54C105.429 93.6367 106.246 94.4883 107.273 95.095C108.323 95.6783 109.501 95.97 110.808 95.97ZM133.906 79.45C136.216 79.45 138.048 80.1267 139.401 81.48C140.778 82.81 141.466 84.7583 141.466 87.325V98H138.981V87.57C138.981 85.6567 138.503 84.1983 137.546 83.195C136.589 82.1917 135.224 81.69 133.451 81.69C131.468 81.69 129.893 82.285 128.726 83.475C127.583 84.6417 127.011 86.2633 127.011 88.34V98H124.526V79.59H126.906V82.985C127.583 81.865 128.516 81.0017 129.706 80.395C130.919 79.765 132.319 79.45 133.906 79.45ZM162.641 79.59L153.436 100.205C152.689 101.932 151.826 103.157 150.846 103.88C149.866 104.603 148.687 104.965 147.311 104.965C146.424 104.965 145.596 104.825 144.826 104.545C144.056 104.265 143.391 103.845 142.831 103.285L143.986 101.43C144.919 102.363 146.039 102.83 147.346 102.83C148.186 102.83 148.897 102.597 149.481 102.13C150.087 101.663 150.647 100.87 151.161 99.75L151.966 97.965L143.741 79.59H146.331L153.261 95.235L160.191 79.59H162.641Z" fill="#2A2921"/>
</svg>
