<svg width="169" height="136" viewBox="0 0 169 136" fill="none" xmlns="http://www.w3.org/2000/svg">
<path d="M37.6688 26.84C38.6488 26.84 39.4538 26.9217 40.0838 27.085C40.7371 27.2483 41.2854 27.4233 41.7288 27.61L40.8188 31.705C40.4454 31.5417 40.0254 31.425 39.5588 31.355C39.1154 31.285 38.6604 31.25 38.1938 31.25C37.5638 31.25 37.0271 31.3433 36.5838 31.53C36.1638 31.6933 35.8254 31.9267 35.5688 32.23C35.3354 32.5333 35.1604 32.895 35.0438 33.315C34.9504 33.735 34.9038 34.19 34.9038 34.68V35.59H41.3438V39.93H34.9038V54H29.6888V34.61C29.6888 32.23 30.3538 30.34 31.6838 28.94C33.0371 27.54 35.0321 26.84 37.6688 26.84ZM49.5688 54H44.3538V35.59H49.5688V54ZM50.0588 30.27C50.0588 31.2267 49.7438 31.985 49.1138 32.545C48.5071 33.0817 47.7838 33.35 46.9438 33.35C46.1038 33.35 45.3688 33.0817 44.7388 32.545C44.1321 31.985 43.8288 31.2267 43.8288 30.27C43.8288 29.3133 44.1321 28.5667 44.7388 28.03C45.3688 27.47 46.1038 27.19 46.9438 27.19C47.7838 27.19 48.5071 27.47 49.1138 28.03C49.7438 28.5667 50.0588 29.3133 50.0588 30.27ZM53.769 36.22C54.6557 35.9633 55.799 35.73 57.199 35.52C58.599 35.2867 60.069 35.17 61.609 35.17C63.1724 35.17 64.4674 35.38 65.494 35.8C66.544 36.1967 67.3724 36.7683 67.979 37.515C68.5857 38.2617 69.0174 39.1483 69.274 40.175C69.5307 41.2017 69.659 42.345 69.659 43.605V54H64.444V44.235C64.444 42.555 64.2224 41.365 63.779 40.665C63.3357 39.965 62.5074 39.615 61.294 39.615C60.9207 39.615 60.524 39.6383 60.104 39.685C59.684 39.7083 59.3107 39.7433 58.984 39.79V54H53.769V36.22ZM78.1244 44.655C78.1244 46.265 78.4861 47.56 79.2094 48.54C79.9327 49.52 81.0061 50.01 82.4294 50.01C82.8961 50.01 83.3277 49.9983 83.7244 49.975C84.1211 49.9283 84.4477 49.8817 84.7044 49.835V40.35C84.3777 40.14 83.9461 39.965 83.4094 39.825C82.8961 39.685 82.3711 39.615 81.8344 39.615C79.3611 39.615 78.1244 41.295 78.1244 44.655ZM89.9194 53.405C89.4527 53.545 88.9161 53.685 88.3094 53.825C87.7027 53.9417 87.0611 54.0467 86.3844 54.14C85.7311 54.2333 85.0544 54.3033 84.3544 54.35C83.6777 54.42 83.0244 54.455 82.3944 54.455C80.8777 54.455 79.5244 54.2333 78.3344 53.79C77.1444 53.3467 76.1411 52.7167 75.3244 51.9C74.5077 51.06 73.8777 50.0567 73.4344 48.89C73.0144 47.7 72.8044 46.37 72.8044 44.9C72.8044 43.4067 72.9911 42.065 73.3644 40.875C73.7377 39.6617 74.2744 38.635 74.9744 37.795C75.6744 36.955 76.5261 36.3133 77.5294 35.87C78.5561 35.4267 79.7227 35.205 81.0294 35.205C81.7527 35.205 82.3944 35.275 82.9544 35.415C83.5377 35.555 84.1211 35.7533 84.7044 36.01V27.68L89.9194 26.84V53.405ZM99.3174 54H94.1024V35.59H99.3174V54ZM99.8074 30.27C99.8074 31.2267 99.4924 31.985 98.8624 32.545C98.2558 33.0817 97.5324 33.35 96.6924 33.35C95.8524 33.35 95.1174 33.0817 94.4874 32.545C93.8808 31.985 93.5774 31.2267 93.5774 30.27C93.5774 29.3133 93.8808 28.5667 94.4874 28.03C95.1174 27.47 95.8524 27.19 96.6924 27.19C97.5324 27.19 98.2558 27.47 98.8624 28.03C99.4924 28.5667 99.8074 29.3133 99.8074 30.27ZM103.52 36.22C104.406 35.9633 105.55 35.73 106.95 35.52C108.35 35.2867 109.82 35.17 111.36 35.17C112.923 35.17 114.218 35.38 115.245 35.8C116.295 36.1967 117.123 36.7683 117.73 37.515C118.336 38.2617 118.768 39.1483 119.025 40.175C119.281 41.2017 119.41 42.345 119.41 43.605V54H114.195V44.235C114.195 42.555 113.973 41.365 113.53 40.665C113.086 39.965 112.258 39.615 111.045 39.615C110.671 39.615 110.275 39.6383 109.855 39.685C109.435 39.7083 109.061 39.7433 108.735 39.79V54H103.52V36.22ZM127.875 44.2C127.875 47.1167 129.053 48.575 131.41 48.575C131.947 48.575 132.448 48.505 132.915 48.365C133.382 48.225 133.778 48.0617 134.105 47.875V39.545C133.848 39.4983 133.545 39.4633 133.195 39.44C132.845 39.3933 132.437 39.37 131.97 39.37C130.593 39.37 129.567 39.825 128.89 40.735C128.213 41.645 127.875 42.8 127.875 44.2ZM139.32 51.69C139.32 54.7 138.55 56.9283 137.01 58.375C135.493 59.845 133.137 60.58 129.94 60.58C128.82 60.58 127.7 60.475 126.58 60.265C125.46 60.0783 124.422 59.8217 123.465 59.495L124.375 55.12C125.192 55.4467 126.043 55.7033 126.93 55.89C127.84 56.0767 128.867 56.17 130.01 56.17C131.503 56.17 132.553 55.8433 133.16 55.19C133.79 54.5367 134.105 53.6967 134.105 52.67V52.005C133.545 52.2617 132.962 52.46 132.355 52.6C131.772 52.7167 131.13 52.775 130.43 52.775C127.887 52.775 125.938 52.0283 124.585 50.535C123.232 49.0183 122.555 46.9067 122.555 44.2C122.555 42.8467 122.765 41.6217 123.185 40.525C123.605 39.405 124.212 38.4483 125.005 37.655C125.822 36.8617 126.813 36.255 127.98 35.835C129.147 35.3917 130.465 35.17 131.935 35.17C132.565 35.17 133.207 35.205 133.86 35.275C134.537 35.3217 135.202 35.3917 135.855 35.485C136.508 35.5783 137.127 35.695 137.71 35.835C138.317 35.9517 138.853 36.08 139.32 36.22V51.69ZM23.3323 99V74.08H26.2023V80.87L26.0973 84.37C26.914 83.6 27.7656 82.9467 28.6523 82.41C29.539 81.85 30.5773 81.57 31.7673 81.57C33.564 81.57 34.8706 82.13 35.6873 83.25C36.5273 84.37 36.9473 86.0267 36.9473 88.22V99H34.0773V88.605C34.0773 86.995 33.8206 85.84 33.3073 85.14C32.794 84.4167 31.9773 84.055 30.8573 84.055C29.9706 84.055 29.189 84.2767 28.5123 84.72C27.8356 85.1633 27.0656 85.8167 26.2023 86.68V99H23.3323ZM45.5904 99.42C44.1671 99.42 42.9771 99 42.0204 98.16C41.0871 97.32 40.6204 96.13 40.6204 94.59C40.6204 92.7233 41.4487 91.3 43.1054 90.32C44.7621 89.3167 47.4104 88.6167 51.0504 88.22C51.0504 87.6833 50.9921 87.1583 50.8754 86.645C50.7821 86.1317 50.6071 85.6767 50.3504 85.28C50.0937 84.8833 49.7321 84.5683 49.2654 84.335C48.8221 84.0783 48.2504 83.95 47.5504 83.95C46.5704 83.95 45.6487 84.1367 44.7854 84.51C43.9221 84.8833 43.1521 85.3033 42.4754 85.77L41.3554 83.775C42.1487 83.2617 43.1171 82.7717 44.2604 82.305C45.4037 81.815 46.6637 81.57 48.0404 81.57C50.1171 81.57 51.6221 82.2117 52.5554 83.495C53.4887 84.755 53.9554 86.4467 53.9554 88.57V99H51.5754L51.3304 96.97H51.2254C50.4087 97.6467 49.5337 98.23 48.6004 98.72C47.6671 99.1867 46.6637 99.42 45.5904 99.42ZM46.4304 97.11C47.2471 97.11 48.0171 96.9233 48.7404 96.55C49.4637 96.1533 50.2337 95.5817 51.0504 94.835V90.11C49.6271 90.2967 48.4254 90.5183 47.4454 90.775C46.4887 91.0317 45.7071 91.335 45.1004 91.685C44.5171 92.035 44.0854 92.4433 43.8054 92.91C43.5487 93.3533 43.4204 93.8433 43.4204 94.38C43.4204 95.36 43.7121 96.06 44.2954 96.48C44.8787 96.9 45.5904 97.11 46.4304 97.11ZM58.6071 99V81.99H60.9871L61.2321 85.07H61.3371C61.9204 83.9967 62.6204 83.145 63.4371 82.515C64.2771 81.885 65.1871 81.57 66.1671 81.57C66.8438 81.57 67.4504 81.6867 67.9871 81.92L67.4271 84.44C67.1471 84.3467 66.8904 84.2767 66.6571 84.23C66.4238 84.1833 66.1321 84.16 65.7821 84.16C65.0588 84.16 64.3004 84.4517 63.5071 85.035C62.7371 85.6183 62.0604 86.6333 61.4771 88.08V99H58.6071ZM70.0409 99V81.99H72.4209L72.6659 84.44H72.7709C73.5176 83.6233 74.3226 82.9467 75.1859 82.41C76.0726 81.85 77.0292 81.57 78.0559 81.57C79.3626 81.57 80.3776 81.8617 81.1009 82.445C81.8476 83.005 82.3959 83.7983 82.7459 84.825C83.6326 83.845 84.5192 83.0633 85.4059 82.48C86.3159 81.8733 87.2959 81.57 88.3459 81.57C90.0959 81.57 91.3909 82.13 92.2309 83.25C93.0942 84.37 93.5259 86.0267 93.5259 88.22V99H90.6559V88.605C90.6559 86.995 90.3992 85.84 89.8859 85.14C89.3726 84.4167 88.5792 84.055 87.5059 84.055C86.2226 84.055 84.7992 84.93 83.2359 86.68V99H80.3659V88.605C80.3659 86.995 80.1092 85.84 79.5959 85.14C79.0826 84.4167 78.2776 84.055 77.1809 84.055C75.8976 84.055 74.4742 84.93 72.9109 86.68V99H70.0409ZM104.974 99.42C103.924 99.42 102.921 99.2217 101.964 98.825C101.031 98.4283 100.203 97.8567 99.4794 97.11C98.7561 96.34 98.1728 95.4067 97.7294 94.31C97.3094 93.19 97.0994 91.93 97.0994 90.53C97.0994 89.1067 97.3094 87.8467 97.7294 86.75C98.1728 85.63 98.7561 84.685 99.4794 83.915C100.203 83.145 101.031 82.5617 101.964 82.165C102.921 81.7683 103.924 81.57 104.974 81.57C106.024 81.57 107.016 81.7683 107.949 82.165C108.906 82.5617 109.746 83.145 110.469 83.915C111.193 84.685 111.764 85.63 112.184 86.75C112.628 87.8467 112.849 89.1067 112.849 90.53C112.849 91.93 112.628 93.19 112.184 94.31C111.764 95.4067 111.193 96.34 110.469 97.11C109.746 97.8567 108.906 98.4283 107.949 98.825C107.016 99.2217 106.024 99.42 104.974 99.42ZM104.974 97.04C105.698 97.04 106.363 96.8883 106.969 96.585C107.576 96.2583 108.089 95.815 108.509 95.255C108.953 94.6717 109.291 93.9833 109.524 93.19C109.758 92.3967 109.874 91.51 109.874 90.53C109.874 89.55 109.758 88.6633 109.524 87.87C109.291 87.0533 108.953 86.3533 108.509 85.77C108.089 85.1867 107.576 84.7433 106.969 84.44C106.363 84.1133 105.698 83.95 104.974 83.95C104.251 83.95 103.586 84.1133 102.979 84.44C102.373 84.7433 101.848 85.1867 101.404 85.77C100.984 86.3533 100.658 87.0533 100.424 87.87C100.191 88.6633 100.074 89.55 100.074 90.53C100.074 91.51 100.191 92.3967 100.424 93.19C100.658 93.9833 100.984 94.6717 101.404 95.255C101.848 95.815 102.373 96.2583 102.979 96.585C103.586 96.8883 104.251 97.04 104.974 97.04ZM116.629 99V81.99H119.009L119.254 84.44H119.359C120.176 83.6233 121.028 82.9467 121.914 82.41C122.824 81.85 123.874 81.57 125.064 81.57C126.861 81.57 128.168 82.13 128.984 83.25C129.824 84.37 130.244 86.0267 130.244 88.22V99H127.374V88.605C127.374 86.995 127.118 85.84 126.604 85.14C126.091 84.4167 125.274 84.055 124.154 84.055C123.268 84.055 122.486 84.2767 121.809 84.72C121.133 85.1633 120.363 85.8167 119.499 86.68V99H116.629ZM135.35 106.315C134.953 106.315 134.591 106.28 134.265 106.21C133.938 106.163 133.635 106.082 133.355 105.965L133.915 103.69C134.101 103.737 134.311 103.783 134.545 103.83C134.778 103.9 135 103.935 135.21 103.935C136.19 103.935 136.983 103.585 137.59 102.885C138.22 102.208 138.71 101.345 139.06 100.295L139.445 99.035L132.62 81.99H135.595L139.06 91.405C139.316 92.1517 139.585 92.945 139.865 93.785C140.168 94.6017 140.448 95.4067 140.705 96.2H140.845C141.101 95.43 141.346 94.625 141.58 93.785C141.813 92.945 142.046 92.1517 142.28 91.405L145.325 81.99H148.125L141.72 100.4C141.416 101.24 141.078 102.022 140.705 102.745C140.331 103.468 139.888 104.087 139.375 104.6C138.861 105.137 138.278 105.557 137.625 105.86C136.971 106.163 136.213 106.315 135.35 106.315Z" fill="#2A2921"/>
</svg>
