<svg width="169" height="136" viewBox="0 0 169 136" fill="none" xmlns="http://www.w3.org/2000/svg">
<path d="M38.1688 26.84C39.1488 26.84 39.9538 26.9217 40.5838 27.085C41.2371 27.2483 41.7854 27.4233 42.2288 27.61L41.3188 31.705C40.9454 31.5417 40.5254 31.425 40.0588 31.355C39.6154 31.285 39.1604 31.25 38.6938 31.25C38.0638 31.25 37.5271 31.3433 37.0838 31.53C36.6638 31.6933 36.3254 31.9267 36.0688 32.23C35.8354 32.5333 35.6604 32.895 35.5438 33.315C35.4504 33.735 35.4038 34.19 35.4038 34.68V35.59H41.8438V39.93H35.4038V54H30.1888V34.61C30.1888 32.23 30.8538 30.34 32.1838 28.94C33.5371 27.54 35.5321 26.84 38.1688 26.84ZM50.0688 54H44.8538V35.59H50.0688V54ZM50.5588 30.27C50.5588 31.2267 50.2438 31.985 49.6138 32.545C49.0071 33.0817 48.2838 33.35 47.4438 33.35C46.6038 33.35 45.8688 33.0817 45.2388 32.545C44.6321 31.985 44.3288 31.2267 44.3288 30.27C44.3288 29.3133 44.6321 28.5667 45.2388 28.03C45.8688 27.47 46.6038 27.19 47.4438 27.19C48.2838 27.19 49.0071 27.47 49.6138 28.03C50.2438 28.5667 50.5588 29.3133 50.5588 30.27ZM54.269 36.22C55.1557 35.9633 56.299 35.73 57.699 35.52C59.099 35.2867 60.569 35.17 62.109 35.17C63.6724 35.17 64.9674 35.38 65.994 35.8C67.044 36.1967 67.8724 36.7683 68.479 37.515C69.0857 38.2617 69.5174 39.1483 69.774 40.175C70.0307 41.2017 70.159 42.345 70.159 43.605V54H64.944V44.235C64.944 42.555 64.7224 41.365 64.279 40.665C63.8357 39.965 63.0074 39.615 61.794 39.615C61.4207 39.615 61.024 39.6383 60.604 39.685C60.184 39.7083 59.8107 39.7433 59.484 39.79V54H54.269V36.22ZM78.6244 44.655C78.6244 46.265 78.9861 47.56 79.7094 48.54C80.4327 49.52 81.5061 50.01 82.9294 50.01C83.3961 50.01 83.8277 49.9983 84.2244 49.975C84.6211 49.9283 84.9477 49.8817 85.2044 49.835V40.35C84.8777 40.14 84.4461 39.965 83.9094 39.825C83.3961 39.685 82.8711 39.615 82.3344 39.615C79.8611 39.615 78.6244 41.295 78.6244 44.655ZM90.4194 53.405C89.9527 53.545 89.4161 53.685 88.8094 53.825C88.2027 53.9417 87.5611 54.0467 86.8844 54.14C86.2311 54.2333 85.5544 54.3033 84.8544 54.35C84.1777 54.42 83.5244 54.455 82.8944 54.455C81.3777 54.455 80.0244 54.2333 78.8344 53.79C77.6444 53.3467 76.6411 52.7167 75.8244 51.9C75.0077 51.06 74.3777 50.0567 73.9344 48.89C73.5144 47.7 73.3044 46.37 73.3044 44.9C73.3044 43.4067 73.4911 42.065 73.8644 40.875C74.2377 39.6617 74.7744 38.635 75.4744 37.795C76.1744 36.955 77.0261 36.3133 78.0294 35.87C79.0561 35.4267 80.2227 35.205 81.5294 35.205C82.2527 35.205 82.8944 35.275 83.4544 35.415C84.0377 35.555 84.6211 35.7533 85.2044 36.01V27.68L90.4194 26.84V53.405ZM99.8174 54H94.6024V35.59H99.8174V54ZM100.307 30.27C100.307 31.2267 99.9924 31.985 99.3624 32.545C98.7558 33.0817 98.0324 33.35 97.1924 33.35C96.3524 33.35 95.6174 33.0817 94.9874 32.545C94.3808 31.985 94.0774 31.2267 94.0774 30.27C94.0774 29.3133 94.3808 28.5667 94.9874 28.03C95.6174 27.47 96.3524 27.19 97.1924 27.19C98.0324 27.19 98.7558 27.47 99.3624 28.03C99.9924 28.5667 100.307 29.3133 100.307 30.27ZM104.02 36.22C104.906 35.9633 106.05 35.73 107.45 35.52C108.85 35.2867 110.32 35.17 111.86 35.17C113.423 35.17 114.718 35.38 115.745 35.8C116.795 36.1967 117.623 36.7683 118.23 37.515C118.836 38.2617 119.268 39.1483 119.525 40.175C119.781 41.2017 119.91 42.345 119.91 43.605V54H114.695V44.235C114.695 42.555 114.473 41.365 114.03 40.665C113.586 39.965 112.758 39.615 111.545 39.615C111.171 39.615 110.775 39.6383 110.355 39.685C109.935 39.7083 109.561 39.7433 109.235 39.79V54H104.02V36.22ZM128.375 44.2C128.375 47.1167 129.553 48.575 131.91 48.575C132.447 48.575 132.948 48.505 133.415 48.365C133.882 48.225 134.278 48.0617 134.605 47.875V39.545C134.348 39.4983 134.045 39.4633 133.695 39.44C133.345 39.3933 132.937 39.37 132.47 39.37C131.093 39.37 130.067 39.825 129.39 40.735C128.713 41.645 128.375 42.8 128.375 44.2ZM139.82 51.69C139.82 54.7 139.05 56.9283 137.51 58.375C135.993 59.845 133.637 60.58 130.44 60.58C129.32 60.58 128.2 60.475 127.08 60.265C125.96 60.0783 124.922 59.8217 123.965 59.495L124.875 55.12C125.692 55.4467 126.543 55.7033 127.43 55.89C128.34 56.0767 129.367 56.17 130.51 56.17C132.003 56.17 133.053 55.8433 133.66 55.19C134.29 54.5367 134.605 53.6967 134.605 52.67V52.005C134.045 52.2617 133.462 52.46 132.855 52.6C132.272 52.7167 131.63 52.775 130.93 52.775C128.387 52.775 126.438 52.0283 125.085 50.535C123.732 49.0183 123.055 46.9067 123.055 44.2C123.055 42.8467 123.265 41.6217 123.685 40.525C124.105 39.405 124.712 38.4483 125.505 37.655C126.322 36.8617 127.313 36.255 128.48 35.835C129.647 35.3917 130.965 35.17 132.435 35.17C133.065 35.17 133.707 35.205 134.36 35.275C135.037 35.3217 135.702 35.3917 136.355 35.485C137.008 35.5783 137.627 35.695 138.21 35.835C138.817 35.9517 139.353 36.08 139.82 36.22V51.69ZM24.3235 99L24.0435 97.11L26.0385 96.655V76.075H24.1835L23.8335 74.045L28.1035 73.38L29.2235 74.57V83.32C29.7369 82.9467 30.3552 82.6433 31.0785 82.41C31.8252 82.1533 32.5835 82.025 33.3535 82.025C34.8935 82.025 36.1419 82.4333 37.0985 83.25C38.0552 84.0433 38.5335 85.2567 38.5335 86.89V96.655L40.5635 97.11V99H33.4935L33.4235 97.11L35.3835 96.69V87.485C35.3835 85.6417 34.5085 84.72 32.7585 84.72C32.0585 84.72 31.3819 84.8717 30.7285 85.175C30.0752 85.455 29.5735 85.77 29.2235 86.12V96.69L31.1835 97.11V99H24.3235ZM47.0205 99.14C45.5272 99.14 44.2905 98.72 43.3105 97.88C42.3538 97.0167 41.8755 95.8967 41.8755 94.52C41.8755 93.4 42.1672 92.49 42.7505 91.79C43.3338 91.0667 44.0805 90.5067 44.9905 90.11C45.9005 89.69 46.8688 89.3983 47.8955 89.235C48.9222 89.0483 49.8788 88.9433 50.7655 88.92V86.435C50.7655 85.9217 50.5322 85.5017 50.0655 85.175C49.5988 84.825 48.9338 84.65 48.0705 84.65C47.7905 84.65 47.4755 84.6733 47.1255 84.72C46.7988 84.7433 46.5305 84.8133 46.3205 84.93L45.5855 87.135L42.0155 85.98C42.4588 84.7667 43.2522 83.81 44.3955 83.11C45.5388 82.3867 46.8105 82.025 48.2105 82.025C49.9138 82.025 51.2905 82.4567 52.3405 83.32C53.4138 84.1833 53.9505 85.5133 53.9505 87.31V95.815C53.9505 96.3983 54.1838 96.69 54.6505 96.69C54.7905 96.69 54.9188 96.6783 55.0355 96.655C55.1522 96.6083 55.2455 96.585 55.3155 96.585L55.8055 98.195C55.5955 98.405 55.2805 98.615 54.8605 98.825C54.4638 99.035 53.9972 99.14 53.4605 99.14C52.8072 99.14 52.2822 98.9883 51.8855 98.685C51.5122 98.3817 51.2438 97.9967 51.0805 97.53C50.5672 98.02 49.9722 98.4167 49.2955 98.72C48.6188 99 47.8605 99.14 47.0205 99.14ZM47.5455 96.48C48.2455 96.48 48.8872 96.3167 49.4705 95.99C50.0538 95.64 50.4855 95.2083 50.7655 94.695V91.335C50.2522 91.3583 49.6688 91.4167 49.0155 91.51C48.3855 91.58 47.7788 91.72 47.1955 91.93C46.6122 92.1167 46.1222 92.4083 45.7255 92.805C45.3522 93.1783 45.1655 93.68 45.1655 94.31C45.1655 94.9167 45.3638 95.43 45.7605 95.85C46.1805 96.27 46.7755 96.48 47.5455 96.48ZM57.4532 99L57.0332 97.11L59.1332 96.62V84.72L57.2782 84.79L56.9632 82.76L61.0582 82.025L62.1432 83.6C62.6332 83.0867 63.1932 82.69 63.8232 82.41C64.4766 82.13 65.0949 81.99 65.6782 81.99C66.7049 81.99 67.5916 82.2467 68.3382 82.76C69.0849 83.25 69.6332 83.88 69.9832 84.65L66.5532 86.4L65.4332 84.72C65.0832 84.72 64.6516 84.8483 64.1382 85.105C63.6482 85.3383 63.2166 85.735 62.8432 86.295C62.4699 86.8317 62.2832 87.5667 62.2832 88.5V96.165L66.8682 97.11L66.9032 99H57.4532ZM70.972 99L70.622 97.145L72.617 96.655V84.65L70.762 84.755L70.412 82.76L74.752 81.99L75.732 83.355C76.2686 82.9817 76.922 82.6667 77.692 82.41C78.4853 82.1533 79.2203 82.025 79.897 82.025C80.7836 82.025 81.5886 82.165 82.312 82.445C83.0353 82.725 83.6303 83.1567 84.097 83.74C85.0536 82.9933 85.9753 82.5267 86.862 82.34C87.7486 82.13 88.5186 82.025 89.172 82.025C90.7353 82.025 91.9953 82.4333 92.952 83.25C93.9086 84.0433 94.387 85.2567 94.387 86.89V96.655L96.347 97.11V99H89.242L89.172 97.145L91.202 96.69V87.485C91.202 85.6417 90.3386 84.72 88.612 84.72C88.0286 84.72 87.4103 84.8483 86.757 85.105C86.1036 85.3617 85.5436 85.7467 85.077 86.26V96.69L87.072 97.11V99H80.107L80.037 97.11L81.927 96.69V87.485C81.927 85.6417 81.0636 84.72 79.337 84.72C78.637 84.72 77.9486 84.8717 77.272 85.175C76.6186 85.455 76.117 85.7583 75.767 86.085V96.655L77.832 97.145V99H70.972ZM104.993 99.14C103.546 99.14 102.263 98.7667 101.143 98.02C100.046 97.2733 99.1825 96.2467 98.5525 94.94C97.9458 93.6333 97.6425 92.1517 97.6425 90.495C97.6425 88.815 97.9575 87.3333 98.5875 86.05C99.2175 84.7667 100.081 83.775 101.178 83.075C102.298 82.3517 103.569 81.99 104.993 81.99C106.486 81.99 107.781 82.3517 108.878 83.075C109.998 83.7983 110.861 84.8017 111.468 86.085C112.098 87.3683 112.413 88.8383 112.413 90.495C112.413 92.1517 112.098 93.6333 111.468 94.94C110.861 96.2467 109.998 97.2733 108.878 98.02C107.781 98.7667 106.486 99.14 104.993 99.14ZM104.993 96.515C106.369 96.515 107.396 95.9783 108.073 94.905C108.773 93.8083 109.123 92.4083 109.123 90.705C109.123 88.9783 108.773 87.5317 108.073 86.365C107.396 85.1983 106.369 84.615 104.993 84.615C104.083 84.615 103.324 84.9067 102.718 85.49C102.111 86.0733 101.656 86.8317 101.353 87.765C101.049 88.6983 100.898 89.7133 100.898 90.81C100.898 92.5133 101.248 93.89 101.948 94.94C102.671 95.99 103.686 96.515 104.993 96.515ZM114.484 99L114.169 97.145L116.129 96.655V84.65L114.274 84.755L113.924 82.76L118.264 81.99L119.244 83.355C119.781 82.9817 120.411 82.6667 121.134 82.41C121.881 82.1533 122.639 82.025 123.409 82.025C124.949 82.025 126.197 82.4333 127.154 83.25C128.134 84.0433 128.624 85.2567 128.624 86.89V96.725L130.654 97.11L130.619 99H123.584L123.514 97.11L125.439 96.69V87.485C125.439 85.6417 124.576 84.72 122.849 84.72C122.149 84.72 121.461 84.8717 120.784 85.175C120.131 85.455 119.629 85.7583 119.279 86.085V96.655L121.344 97.145V99H114.484ZM134.698 108.555C134.184 108.555 133.589 108.438 132.913 108.205C132.259 107.995 131.653 107.645 131.093 107.155L132.563 104.775C132.726 104.938 133.006 105.172 133.403 105.475C133.799 105.778 134.196 105.93 134.593 105.93C135.129 105.93 135.561 105.662 135.888 105.125C136.214 104.588 136.518 103.947 136.798 103.2L137.638 100.89L131.968 84.44H130.743L130.463 82.34L134.698 82.025L139.353 96.025L143.518 84.44H142.083L141.803 82.305L146.003 82.025L146.668 83.25C146.364 84.0433 145.968 85.1167 145.478 86.47C145.011 87.8 144.486 89.2817 143.903 90.915C143.319 92.5483 142.724 94.2167 142.118 95.92C141.511 97.6 140.939 99.175 140.403 100.645C139.866 102.115 139.411 103.352 139.038 104.355C137.941 107.155 136.494 108.555 134.698 108.555Z" fill="#2A2921"/>
</svg>
