<svg width="169" height="136" viewBox="0 0 169 136" fill="none" xmlns="http://www.w3.org/2000/svg">
<path d="M38.1688 26.84C39.1488 26.84 39.9538 26.9217 40.5838 27.085C41.2371 27.2483 41.7854 27.4233 42.2288 27.61L41.3188 31.705C40.9454 31.5417 40.5254 31.425 40.0588 31.355C39.6154 31.285 39.1604 31.25 38.6938 31.25C38.0638 31.25 37.5271 31.3433 37.0838 31.53C36.6638 31.6933 36.3254 31.9267 36.0688 32.23C35.8354 32.5333 35.6604 32.895 35.5438 33.315C35.4504 33.735 35.4038 34.19 35.4038 34.68V35.59H41.8438V39.93H35.4038V54H30.1888V34.61C30.1888 32.23 30.8538 30.34 32.1838 28.94C33.5371 27.54 35.5321 26.84 38.1688 26.84ZM50.0688 54H44.8538V35.59H50.0688V54ZM50.5588 30.27C50.5588 31.2267 50.2438 31.985 49.6138 32.545C49.0071 33.0817 48.2838 33.35 47.4438 33.35C46.6038 33.35 45.8688 33.0817 45.2388 32.545C44.6321 31.985 44.3288 31.2267 44.3288 30.27C44.3288 29.3133 44.6321 28.5667 45.2388 28.03C45.8688 27.47 46.6038 27.19 47.4438 27.19C48.2838 27.19 49.0071 27.47 49.6138 28.03C50.2438 28.5667 50.5588 29.3133 50.5588 30.27ZM54.269 36.22C55.1557 35.9633 56.299 35.73 57.699 35.52C59.099 35.2867 60.569 35.17 62.109 35.17C63.6724 35.17 64.9674 35.38 65.994 35.8C67.044 36.1967 67.8724 36.7683 68.479 37.515C69.0857 38.2617 69.5174 39.1483 69.774 40.175C70.0307 41.2017 70.159 42.345 70.159 43.605V54H64.944V44.235C64.944 42.555 64.7224 41.365 64.279 40.665C63.8357 39.965 63.0074 39.615 61.794 39.615C61.4207 39.615 61.024 39.6383 60.604 39.685C60.184 39.7083 59.8107 39.7433 59.484 39.79V54H54.269V36.22ZM78.6244 44.655C78.6244 46.265 78.9861 47.56 79.7094 48.54C80.4327 49.52 81.5061 50.01 82.9294 50.01C83.3961 50.01 83.8277 49.9983 84.2244 49.975C84.6211 49.9283 84.9477 49.8817 85.2044 49.835V40.35C84.8777 40.14 84.4461 39.965 83.9094 39.825C83.3961 39.685 82.8711 39.615 82.3344 39.615C79.8611 39.615 78.6244 41.295 78.6244 44.655ZM90.4194 53.405C89.9527 53.545 89.4161 53.685 88.8094 53.825C88.2027 53.9417 87.5611 54.0467 86.8844 54.14C86.2311 54.2333 85.5544 54.3033 84.8544 54.35C84.1777 54.42 83.5244 54.455 82.8944 54.455C81.3777 54.455 80.0244 54.2333 78.8344 53.79C77.6444 53.3467 76.6411 52.7167 75.8244 51.9C75.0077 51.06 74.3777 50.0567 73.9344 48.89C73.5144 47.7 73.3044 46.37 73.3044 44.9C73.3044 43.4067 73.4911 42.065 73.8644 40.875C74.2377 39.6617 74.7744 38.635 75.4744 37.795C76.1744 36.955 77.0261 36.3133 78.0294 35.87C79.0561 35.4267 80.2227 35.205 81.5294 35.205C82.2527 35.205 82.8944 35.275 83.4544 35.415C84.0377 35.555 84.6211 35.7533 85.2044 36.01V27.68L90.4194 26.84V53.405ZM99.8174 54H94.6024V35.59H99.8174V54ZM100.307 30.27C100.307 31.2267 99.9924 31.985 99.3624 32.545C98.7558 33.0817 98.0324 33.35 97.1924 33.35C96.3524 33.35 95.6174 33.0817 94.9874 32.545C94.3808 31.985 94.0774 31.2267 94.0774 30.27C94.0774 29.3133 94.3808 28.5667 94.9874 28.03C95.6174 27.47 96.3524 27.19 97.1924 27.19C98.0324 27.19 98.7558 27.47 99.3624 28.03C99.9924 28.5667 100.307 29.3133 100.307 30.27ZM104.02 36.22C104.906 35.9633 106.05 35.73 107.45 35.52C108.85 35.2867 110.32 35.17 111.86 35.17C113.423 35.17 114.718 35.38 115.745 35.8C116.795 36.1967 117.623 36.7683 118.23 37.515C118.836 38.2617 119.268 39.1483 119.525 40.175C119.781 41.2017 119.91 42.345 119.91 43.605V54H114.695V44.235C114.695 42.555 114.473 41.365 114.03 40.665C113.586 39.965 112.758 39.615 111.545 39.615C111.171 39.615 110.775 39.6383 110.355 39.685C109.935 39.7083 109.561 39.7433 109.235 39.79V54H104.02V36.22ZM128.375 44.2C128.375 47.1167 129.553 48.575 131.91 48.575C132.447 48.575 132.948 48.505 133.415 48.365C133.882 48.225 134.278 48.0617 134.605 47.875V39.545C134.348 39.4983 134.045 39.4633 133.695 39.44C133.345 39.3933 132.937 39.37 132.47 39.37C131.093 39.37 130.067 39.825 129.39 40.735C128.713 41.645 128.375 42.8 128.375 44.2ZM139.82 51.69C139.82 54.7 139.05 56.9283 137.51 58.375C135.993 59.845 133.637 60.58 130.44 60.58C129.32 60.58 128.2 60.475 127.08 60.265C125.96 60.0783 124.922 59.8217 123.965 59.495L124.875 55.12C125.692 55.4467 126.543 55.7033 127.43 55.89C128.34 56.0767 129.367 56.17 130.51 56.17C132.003 56.17 133.053 55.8433 133.66 55.19C134.29 54.5367 134.605 53.6967 134.605 52.67V52.005C134.045 52.2617 133.462 52.46 132.855 52.6C132.272 52.7167 131.63 52.775 130.93 52.775C128.387 52.775 126.438 52.0283 125.085 50.535C123.732 49.0183 123.055 46.9067 123.055 44.2C123.055 42.8467 123.265 41.6217 123.685 40.525C124.105 39.405 124.712 38.4483 125.505 37.655C126.322 36.8617 127.313 36.255 128.48 35.835C129.647 35.3917 130.965 35.17 132.435 35.17C133.065 35.17 133.707 35.205 134.36 35.275C135.037 35.3217 135.702 35.3917 136.355 35.485C137.008 35.5783 137.627 35.695 138.21 35.835C138.817 35.9517 139.353 36.08 139.82 36.22V51.69Z" fill="#2A2921"/>
<path d="M27.1748 97.95C27.8981 97.95 28.3998 97.775 28.6798 97.425C28.9598 97.0517 29.1231 96.55 29.1698 95.92C29.2165 95.2667 29.2398 94.52 29.2398 93.68V88.78C29.2398 86.7733 28.9131 85.2683 28.2598 84.265C27.6298 83.2617 26.6265 82.7717 25.2498 82.795C24.3865 82.8183 23.5348 83.0283 22.6948 83.425C21.8781 83.8217 21.2131 84.335 20.6998 84.965V95.29C20.6998 95.7567 20.6881 96.1767 20.6648 96.55C20.6415 96.9 20.5948 97.2733 20.5248 97.67C20.8981 97.6467 21.2598 97.635 21.6098 97.635C21.9831 97.6117 22.3565 97.5883 22.7298 97.565V99H15.5898V97.95C16.3131 97.95 16.8148 97.775 17.0948 97.425C17.3748 97.0517 17.5381 96.55 17.5848 95.92C17.6548 95.2667 17.6898 94.52 17.6898 93.68V77.125C17.6898 76.7517 17.6898 76.4017 17.6898 76.075C17.7131 75.725 17.7481 75.3167 17.7948 74.85C17.3748 74.8733 16.9548 74.8967 16.5348 74.92C16.1381 74.9433 15.7298 74.9667 15.3098 74.99V73.52C16.3365 73.52 17.1298 73.4733 17.6898 73.38C18.2731 73.2867 18.7048 73.17 18.9848 73.03C19.2881 72.89 19.5215 72.7383 19.6848 72.575H20.6998V83.25C21.4698 82.5967 22.3681 82.0483 23.3948 81.605C24.4215 81.1617 25.4365 80.94 26.4398 80.94C28.4698 80.94 29.9281 81.5817 30.8148 82.865C31.7248 84.125 32.1915 86.0967 32.2148 88.78L32.2498 95.29C32.2498 95.7567 32.2381 96.1767 32.2148 96.55C32.2148 96.9 32.1798 97.2733 32.1098 97.67C32.4831 97.6467 32.8448 97.635 33.1948 97.635C33.5681 97.6117 33.9415 97.5883 34.3148 97.565V99H27.1748V97.95ZM46.832 99C46.762 98.6033 46.7153 98.2533 46.692 97.95C46.6686 97.6467 46.6336 97.3317 46.587 97.005C45.7936 97.7983 44.9303 98.4283 43.997 98.895C43.087 99.3383 42.1186 99.56 41.092 99.56C39.3186 99.56 38.0003 99.1633 37.137 98.37C36.2736 97.5533 35.842 96.5617 35.842 95.395C35.842 94.3217 36.1686 93.4 36.822 92.63C37.4986 91.8367 38.362 91.195 39.412 90.705C40.4853 90.1917 41.6403 89.8183 42.877 89.585C44.137 89.3283 45.3503 89.2117 46.517 89.235V87.065C46.517 86.2483 46.447 85.4783 46.307 84.755C46.167 84.0317 45.8636 83.4367 45.397 82.97C44.9303 82.5033 44.1836 82.2583 43.157 82.235C42.4803 82.2117 41.7803 82.34 41.057 82.62C40.357 82.9 39.8436 83.3783 39.517 84.055C39.7036 84.2417 39.8203 84.4633 39.867 84.72C39.937 84.9533 39.972 85.175 39.972 85.385C39.972 85.665 39.8553 85.9917 39.622 86.365C39.3886 86.715 38.9803 86.8783 38.397 86.855C37.907 86.855 37.5336 86.6917 37.277 86.365C37.0203 86.015 36.892 85.6067 36.892 85.14C36.892 84.3467 37.1836 83.635 37.767 83.005C38.3736 82.375 39.202 81.8733 40.252 81.5C41.302 81.1267 42.492 80.94 43.822 80.94C45.782 80.94 47.2286 81.465 48.162 82.515C49.0953 83.5417 49.5503 85.175 49.527 87.415C49.527 88.7217 49.5153 90.04 49.492 91.37C49.492 92.6767 49.492 93.9833 49.492 95.29C49.492 95.6633 49.4803 96.0367 49.457 96.41C49.4336 96.7833 49.3986 97.2033 49.352 97.67C49.772 97.6467 50.1803 97.6233 50.577 97.6C50.997 97.5767 51.417 97.5533 51.837 97.53V99H46.832ZM46.517 90.425C45.7236 90.4483 44.8836 90.5533 43.997 90.74C43.1336 90.9033 42.3286 91.16 41.582 91.51C40.8586 91.86 40.2636 92.3267 39.797 92.91C39.3536 93.47 39.1436 94.1583 39.167 94.975C39.2136 95.8383 39.4936 96.4917 40.007 96.935C40.5436 97.355 41.1736 97.565 41.897 97.565C42.8536 97.565 43.682 97.39 44.382 97.04C45.1053 96.6667 45.817 96.1533 46.517 95.5C46.4936 95.2433 46.482 94.9633 46.482 94.66C46.482 94.3567 46.482 94.0417 46.482 93.715C46.482 93.5983 46.482 93.225 46.482 92.595C46.5053 91.965 46.517 91.2417 46.517 90.425ZM53.5388 97.95C54.2622 97.95 54.7638 97.775 55.0438 97.425C55.3238 97.0517 55.4872 96.55 55.5338 95.92C55.5805 95.2667 55.6038 94.52 55.6038 93.68V85.7C55.6038 85.3267 55.6038 84.9533 55.6038 84.58C55.6272 84.2067 55.6738 83.8217 55.7438 83.425C55.3238 83.4483 54.9038 83.4717 54.4838 83.495C54.0872 83.495 53.6788 83.5067 53.2588 83.53V82.095H54.3438C55.3472 82.095 56.0355 82.0017 56.4088 81.815C56.8055 81.605 57.1322 81.3833 57.3888 81.15H58.4038C58.4505 81.5233 58.4855 81.99 58.5088 82.55C58.5322 83.0867 58.5555 83.775 58.5788 84.615C58.9288 84.0317 59.4072 83.46 60.0138 82.9C60.6205 82.34 61.2972 81.8733 62.0438 81.5C62.8138 81.1267 63.6188 80.94 64.4588 80.94C65.1122 80.94 65.6838 81.115 66.1738 81.465C66.6638 81.815 66.9088 82.375 66.9088 83.145C66.9088 83.4483 66.7688 83.81 66.4888 84.23C66.2322 84.65 65.7888 84.8483 65.1588 84.825C64.6455 84.8017 64.2372 84.6033 63.9338 84.23C63.6305 83.8333 63.5138 83.3783 63.5838 82.865C62.6972 82.8183 61.7988 83.1567 60.8888 83.88C59.9788 84.6033 59.2205 85.5367 58.6138 86.68L58.6488 95.29C58.6488 95.7567 58.6372 96.1767 58.6138 96.55C58.6138 96.9 58.5788 97.2733 58.5088 97.67C58.8822 97.6467 59.2438 97.635 59.5938 97.635C59.9672 97.6117 60.3405 97.5883 60.7138 97.565V99H53.5388V97.95ZM67.9804 99V97.95C68.7038 97.95 69.2054 97.775 69.4854 97.425C69.7654 97.0517 69.9288 96.55 69.9754 95.92C70.0221 95.2667 70.0454 94.52 70.0454 93.68V85.7C70.0454 85.3267 70.0454 84.9533 70.0454 84.58C70.0688 84.2067 70.1154 83.8217 70.1854 83.425C69.7654 83.4483 69.3454 83.4717 68.9254 83.495C68.5288 83.5183 68.1204 83.5417 67.7004 83.565V82.095C68.7271 82.095 69.4971 82.0483 70.0104 81.955C70.5471 81.8617 70.9438 81.745 71.2004 81.605C71.4571 81.465 71.6671 81.3133 71.8304 81.15H72.8454C72.8921 81.3833 72.9154 81.6517 72.9154 81.955C72.9388 82.2583 72.9621 82.6083 72.9854 83.005C73.6854 82.3983 74.4904 81.9083 75.4004 81.535C76.3104 81.1383 77.2204 80.94 78.1304 80.94C79.2971 80.94 80.2771 81.15 81.0704 81.57C81.8638 81.99 82.4821 82.5617 82.9254 83.285C83.7188 82.6317 84.6288 82.0833 85.6554 81.64C86.7054 81.1733 87.7321 80.94 88.7354 80.94C90.7654 80.94 92.2588 81.5583 93.2154 82.795C94.1721 84.0083 94.6271 86.0033 94.5804 88.78L94.5454 95.29C94.5454 95.7567 94.5338 96.1767 94.5104 96.55C94.5104 96.9 94.4754 97.2733 94.4054 97.67C94.7788 97.6467 95.1404 97.635 95.4904 97.635C95.8638 97.6117 96.2371 97.5883 96.6104 97.565V99H89.4704V97.95C90.1938 97.95 90.6954 97.775 90.9754 97.425C91.2554 97.0517 91.4188 96.55 91.4654 95.92C91.5121 95.2667 91.5354 94.52 91.5354 93.68V88.78C91.5354 86.7733 91.2088 85.2683 90.5554 84.265C89.9254 83.2617 88.9221 82.7717 87.5454 82.795C86.8221 82.795 86.0988 82.9583 85.3754 83.285C84.6521 83.6117 84.0221 84.02 83.4854 84.51C83.6021 84.8833 83.6838 85.2917 83.7304 85.735C83.8004 86.155 83.8354 86.5983 83.8354 87.065C83.8121 88.4183 83.8004 89.7833 83.8004 91.16C83.8004 92.5367 83.7888 93.9133 83.7654 95.29C83.7654 95.7567 83.7538 96.1767 83.7304 96.55C83.7304 96.9 83.6954 97.2733 83.6254 97.67C83.9988 97.6467 84.3604 97.635 84.7104 97.635C85.0838 97.6117 85.4571 97.5883 85.8304 97.565V99H78.6904V97.95C79.4138 97.95 79.9038 97.775 80.1604 97.425C80.4404 97.0517 80.6038 96.55 80.6504 95.92C80.7204 95.2667 80.7554 94.52 80.7554 93.68L80.7904 88.78C80.8138 86.7733 80.5221 85.2567 79.9154 84.23C79.3088 83.2033 78.3171 82.7017 76.9404 82.725C76.2171 82.725 75.5054 82.8883 74.8054 83.215C74.1054 83.5183 73.5104 83.915 73.0204 84.405C73.0204 84.685 73.0204 84.9883 73.0204 85.315C73.0438 85.6183 73.0554 85.945 73.0554 86.295V95.29C73.0554 95.7567 73.0438 96.1767 73.0204 96.55C73.0204 96.9 72.9854 97.2733 72.9154 97.67C73.2888 97.6467 73.6504 97.635 74.0004 97.635C74.3738 97.6117 74.7471 97.5883 75.1204 97.565V99H67.9804ZM107.235 99.56C105.602 99.56 104.12 99.1867 102.79 98.44C101.46 97.67 100.398 96.62 99.6048 95.29C98.8348 93.9367 98.4498 92.3967 98.4498 90.67C98.4498 88.8267 98.8348 87.17 99.6048 85.7C100.375 84.23 101.425 83.075 102.755 82.235C104.085 81.3717 105.578 80.94 107.235 80.94C108.868 80.94 110.35 81.3367 111.68 82.13C113.01 82.9 114.072 83.95 114.865 85.28C115.658 86.61 116.055 88.1267 116.055 89.83C116.055 91.6267 115.658 93.2717 114.865 94.765C114.095 96.235 113.045 97.4017 111.715 98.265C110.385 99.1283 108.892 99.56 107.235 99.56ZM107.515 98.16C108.752 98.16 109.732 97.81 110.455 97.11C111.178 96.41 111.692 95.5 111.995 94.38C112.322 93.26 112.485 92.0817 112.485 90.845C112.485 89.795 112.38 88.7683 112.17 87.765C111.983 86.7383 111.68 85.8167 111.26 85C110.84 84.16 110.292 83.495 109.615 83.005C108.962 82.515 108.168 82.27 107.235 82.27C106.022 82.27 105.03 82.62 104.26 83.32C103.49 84.02 102.918 84.93 102.545 86.05C102.195 87.17 102.02 88.3717 102.02 89.655C102.02 91.1017 102.218 92.4783 102.615 93.785C103.012 95.0683 103.618 96.1183 104.435 96.935C105.252 97.7517 106.278 98.16 107.515 98.16ZM118.328 99V97.95C119.052 97.95 119.553 97.775 119.833 97.425C120.113 97.0517 120.277 96.55 120.323 95.92C120.37 95.2667 120.393 94.52 120.393 93.68L120.428 85.7C120.428 85.3267 120.428 84.9533 120.428 84.58C120.452 84.2067 120.498 83.8217 120.568 83.425C120.148 83.4483 119.728 83.4717 119.308 83.495C118.912 83.5183 118.503 83.5417 118.083 83.565V82.095C119.11 82.095 119.88 82.0483 120.393 81.955C120.93 81.8617 121.327 81.745 121.583 81.605C121.84 81.465 122.05 81.3133 122.213 81.15H123.228C123.275 81.4067 123.298 81.71 123.298 82.06C123.322 82.3867 123.345 82.795 123.368 83.285C124.115 82.6083 125.002 82.0483 126.028 81.605C127.055 81.1617 128.07 80.94 129.073 80.94C131.103 80.94 132.585 81.5817 133.518 82.865C134.452 84.125 134.918 86.0967 134.918 88.78V95.29C134.918 95.7567 134.907 96.1767 134.883 96.55C134.883 96.9 134.848 97.2733 134.778 97.67C135.152 97.6467 135.513 97.635 135.863 97.635C136.237 97.6117 136.61 97.5883 136.983 97.565V99H129.843V97.95C130.567 97.95 131.068 97.775 131.348 97.425C131.628 97.0517 131.792 96.55 131.838 95.92C131.885 95.2667 131.908 94.52 131.908 93.68V88.78C131.885 86.7733 131.547 85.2567 130.893 84.23C130.263 83.2033 129.26 82.7017 127.883 82.725C127.043 82.7483 126.215 82.97 125.398 83.39C124.605 83.81 123.94 84.3467 123.403 85C123.427 85.1867 123.438 85.3967 123.438 85.63C123.438 85.8633 123.438 86.1083 123.438 86.365L123.403 95.29C123.403 95.7567 123.392 96.1767 123.368 96.55C123.368 96.9 123.333 97.2733 123.263 97.67C123.637 97.6467 123.998 97.635 124.348 97.635C124.722 97.6117 125.095 97.5883 125.468 97.565V99H118.328ZM141.344 108.485C140.621 108.485 140.002 108.31 139.489 107.96C138.976 107.61 138.719 107.073 138.719 106.35C138.719 105.93 138.859 105.545 139.139 105.195C139.419 104.845 139.781 104.67 140.224 104.67C140.784 104.647 141.157 104.822 141.344 105.195C141.554 105.568 141.659 105.895 141.659 106.175C141.659 106.245 141.659 106.315 141.659 106.385C141.659 106.478 141.647 106.572 141.624 106.665C141.694 106.712 141.822 106.735 142.009 106.735C142.289 106.735 142.592 106.618 142.919 106.385C143.246 106.152 143.537 105.813 143.794 105.37C144.097 104.857 144.447 104.087 144.844 103.06C145.264 102.033 145.731 100.808 146.244 99.385L140.784 87.695C140.177 86.3883 139.734 85.35 139.454 84.58C139.197 83.81 139.022 83.2383 138.929 82.865L137.249 82.935V81.5H144.494V82.55H144.354C143.374 82.62 142.837 82.9933 142.744 83.67C142.651 84.3233 142.919 85.3267 143.549 86.68L147.644 95.465C148.181 93.9717 148.694 92.5017 149.184 91.055C149.674 89.585 150.164 88.1267 150.654 86.68C150.841 86.1667 151.027 85.6417 151.214 85.105C151.424 84.545 151.622 84.055 151.809 83.635C152.019 83.1917 152.206 82.9117 152.369 82.795L149.954 82.935V81.5H155.449V82.55C154.586 82.8767 153.932 83.425 153.489 84.195C153.069 84.9417 152.637 85.91 152.194 87.1L147.819 99.315C147.119 101.275 146.477 102.932 145.894 104.285C145.311 105.662 144.669 106.7 143.969 107.4C143.269 108.123 142.394 108.485 141.344 108.485Z" fill="#373746"/>
</svg>
