<svg width="169" height="136" viewBox="0 0 169 136" fill="none" xmlns="http://www.w3.org/2000/svg">
<path d="M37.6688 26.84C38.6488 26.84 39.4538 26.9217 40.0838 27.085C40.7371 27.2483 41.2854 27.4233 41.7288 27.61L40.8188 31.705C40.4454 31.5417 40.0254 31.425 39.5588 31.355C39.1154 31.285 38.6604 31.25 38.1938 31.25C37.5638 31.25 37.0271 31.3433 36.5838 31.53C36.1638 31.6933 35.8254 31.9267 35.5688 32.23C35.3354 32.5333 35.1604 32.895 35.0438 33.315C34.9504 33.735 34.9038 34.19 34.9038 34.68V35.59H41.3438V39.93H34.9038V54H29.6888V34.61C29.6888 32.23 30.3538 30.34 31.6838 28.94C33.0371 27.54 35.0321 26.84 37.6688 26.84ZM49.5688 54H44.3538V35.59H49.5688V54ZM50.0588 30.27C50.0588 31.2267 49.7438 31.985 49.1138 32.545C48.5071 33.0817 47.7838 33.35 46.9438 33.35C46.1038 33.35 45.3688 33.0817 44.7388 32.545C44.1321 31.985 43.8288 31.2267 43.8288 30.27C43.8288 29.3133 44.1321 28.5667 44.7388 28.03C45.3688 27.47 46.1038 27.19 46.9438 27.19C47.7838 27.19 48.5071 27.47 49.1138 28.03C49.7438 28.5667 50.0588 29.3133 50.0588 30.27ZM53.769 36.22C54.6557 35.9633 55.799 35.73 57.199 35.52C58.599 35.2867 60.069 35.17 61.609 35.17C63.1724 35.17 64.4674 35.38 65.494 35.8C66.544 36.1967 67.3724 36.7683 67.979 37.515C68.5857 38.2617 69.0174 39.1483 69.274 40.175C69.5307 41.2017 69.659 42.345 69.659 43.605V54H64.444V44.235C64.444 42.555 64.2224 41.365 63.779 40.665C63.3357 39.965 62.5074 39.615 61.294 39.615C60.9207 39.615 60.524 39.6383 60.104 39.685C59.684 39.7083 59.3107 39.7433 58.984 39.79V54H53.769V36.22ZM78.1244 44.655C78.1244 46.265 78.4861 47.56 79.2094 48.54C79.9327 49.52 81.0061 50.01 82.4294 50.01C82.8961 50.01 83.3277 49.9983 83.7244 49.975C84.1211 49.9283 84.4477 49.8817 84.7044 49.835V40.35C84.3777 40.14 83.9461 39.965 83.4094 39.825C82.8961 39.685 82.3711 39.615 81.8344 39.615C79.3611 39.615 78.1244 41.295 78.1244 44.655ZM89.9194 53.405C89.4527 53.545 88.9161 53.685 88.3094 53.825C87.7027 53.9417 87.0611 54.0467 86.3844 54.14C85.7311 54.2333 85.0544 54.3033 84.3544 54.35C83.6777 54.42 83.0244 54.455 82.3944 54.455C80.8777 54.455 79.5244 54.2333 78.3344 53.79C77.1444 53.3467 76.1411 52.7167 75.3244 51.9C74.5077 51.06 73.8777 50.0567 73.4344 48.89C73.0144 47.7 72.8044 46.37 72.8044 44.9C72.8044 43.4067 72.9911 42.065 73.3644 40.875C73.7377 39.6617 74.2744 38.635 74.9744 37.795C75.6744 36.955 76.5261 36.3133 77.5294 35.87C78.5561 35.4267 79.7227 35.205 81.0294 35.205C81.7527 35.205 82.3944 35.275 82.9544 35.415C83.5377 35.555 84.1211 35.7533 84.7044 36.01V27.68L89.9194 26.84V53.405ZM99.3174 54H94.1024V35.59H99.3174V54ZM99.8074 30.27C99.8074 31.2267 99.4924 31.985 98.8624 32.545C98.2558 33.0817 97.5324 33.35 96.6924 33.35C95.8524 33.35 95.1174 33.0817 94.4874 32.545C93.8808 31.985 93.5774 31.2267 93.5774 30.27C93.5774 29.3133 93.8808 28.5667 94.4874 28.03C95.1174 27.47 95.8524 27.19 96.6924 27.19C97.5324 27.19 98.2558 27.47 98.8624 28.03C99.4924 28.5667 99.8074 29.3133 99.8074 30.27ZM103.52 36.22C104.406 35.9633 105.55 35.73 106.95 35.52C108.35 35.2867 109.82 35.17 111.36 35.17C112.923 35.17 114.218 35.38 115.245 35.8C116.295 36.1967 117.123 36.7683 117.73 37.515C118.336 38.2617 118.768 39.1483 119.025 40.175C119.281 41.2017 119.41 42.345 119.41 43.605V54H114.195V44.235C114.195 42.555 113.973 41.365 113.53 40.665C113.086 39.965 112.258 39.615 111.045 39.615C110.671 39.615 110.275 39.6383 109.855 39.685C109.435 39.7083 109.061 39.7433 108.735 39.79V54H103.52V36.22ZM127.875 44.2C127.875 47.1167 129.053 48.575 131.41 48.575C131.947 48.575 132.448 48.505 132.915 48.365C133.382 48.225 133.778 48.0617 134.105 47.875V39.545C133.848 39.4983 133.545 39.4633 133.195 39.44C132.845 39.3933 132.437 39.37 131.97 39.37C130.593 39.37 129.567 39.825 128.89 40.735C128.213 41.645 127.875 42.8 127.875 44.2ZM139.32 51.69C139.32 54.7 138.55 56.9283 137.01 58.375C135.493 59.845 133.137 60.58 129.94 60.58C128.82 60.58 127.7 60.475 126.58 60.265C125.46 60.0783 124.422 59.8217 123.465 59.495L124.375 55.12C125.192 55.4467 126.043 55.7033 126.93 55.89C127.84 56.0767 128.867 56.17 130.01 56.17C131.503 56.17 132.553 55.8433 133.16 55.19C133.79 54.5367 134.105 53.6967 134.105 52.67V52.005C133.545 52.2617 132.962 52.46 132.355 52.6C131.772 52.7167 131.13 52.775 130.43 52.775C127.887 52.775 125.938 52.0283 124.585 50.535C123.232 49.0183 122.555 46.9067 122.555 44.2C122.555 42.8467 122.765 41.6217 123.185 40.525C123.605 39.405 124.212 38.4483 125.005 37.655C125.822 36.8617 126.813 36.255 127.98 35.835C129.147 35.3917 130.465 35.17 131.935 35.17C132.565 35.17 133.207 35.205 133.86 35.275C134.537 35.3217 135.202 35.3917 135.855 35.485C136.508 35.5783 137.127 35.695 137.71 35.835C138.317 35.9517 138.853 36.08 139.32 36.22V51.69ZM15.645 73.135H19.18V84.51C20.79 82.62 22.9367 81.675 25.62 81.675C27.86 81.675 29.5284 82.27 30.625 83.46C31.7217 84.65 32.27 86.2483 32.27 88.255V99H28.735V88.605C28.735 85.875 27.4284 84.51 24.815 84.51C23.695 84.51 22.645 84.7783 21.665 85.315C20.7084 85.8283 19.88 86.6217 19.18 87.695V99H15.645V73.135ZM41.4387 99.525C39.4087 99.525 37.7753 99.0117 36.5387 97.985C35.3253 96.935 34.7187 95.5233 34.7187 93.75C34.7187 91.8833 35.302 90.4483 36.4687 89.445C37.6587 88.4183 39.3387 87.905 41.5087 87.905C43.8187 87.905 45.7787 88.3717 47.3887 89.305V88.43C47.3887 87.1 46.9803 86.12 46.1637 85.49C45.3703 84.8367 44.1103 84.51 42.3837 84.51C41.357 84.51 40.3537 84.615 39.3737 84.825C38.417 85.0117 37.5537 85.28 36.7837 85.63V82.76C37.4837 82.4333 38.3937 82.1767 39.5137 81.99C40.6337 81.78 41.7187 81.675 42.7687 81.675C45.5453 81.675 47.5987 82.2933 48.9287 83.53C50.282 84.7433 50.9587 86.435 50.9587 88.605V99H47.6337V97.11C46.9103 97.9033 46.047 98.51 45.0437 98.93C44.0637 99.3267 42.862 99.525 41.4387 99.525ZM42.3137 96.83C43.4337 96.83 44.4487 96.6083 45.3587 96.165C46.2687 95.7217 46.9453 95.1033 47.3887 94.31V92.035C45.872 91.055 44.1803 90.565 42.3137 90.565C40.9603 90.565 39.9453 90.8333 39.2687 91.37C38.6153 91.8833 38.2887 92.6767 38.2887 93.75C38.2887 95.8033 39.6303 96.83 42.3137 96.83ZM54.6454 82.2H58.0754V85.21C58.7754 84.1833 59.7554 83.425 61.0154 82.935C62.2987 82.445 63.7804 82.2 65.4604 82.2V84.965C63.6637 84.965 62.1237 85.2567 60.8404 85.84C59.5571 86.4233 58.6704 87.345 58.1804 88.605V99H54.6454V82.2ZM67.9249 82.2H71.2849V84.615C72.0782 83.635 72.9766 82.9 73.9799 82.41C74.9832 81.92 76.0216 81.675 77.0949 81.675C78.4482 81.675 79.5216 81.9083 80.3149 82.375C81.1082 82.8183 81.6916 83.5067 82.0649 84.44C82.8116 83.53 83.7216 82.8417 84.7949 82.375C85.8916 81.9083 86.9882 81.675 88.0849 81.675C90.1382 81.675 91.6199 82.2 92.5299 83.25C93.4399 84.2767 93.8949 85.805 93.8949 87.835V99H90.4649V88.29C90.4649 86.9133 90.2082 85.945 89.6949 85.385C89.1816 84.8017 88.3066 84.51 87.0699 84.51C85.2966 84.51 83.8499 85.28 82.7299 86.82C82.7766 87.17 82.7999 87.7417 82.7999 88.535V99H79.3699V88.29C79.3699 86.9133 79.1366 85.945 78.6699 85.385C78.2032 84.8017 77.3632 84.51 76.1499 84.51C74.3766 84.51 72.7899 85.5133 71.3899 87.52V99H67.9249V82.2ZM105.919 99.525C104.029 99.525 102.36 99.175 100.914 98.475C99.4904 97.7517 98.3704 96.725 97.5538 95.395C96.7604 94.0417 96.3638 92.455 96.3638 90.635C96.3638 88.8383 96.7604 87.2633 97.5538 85.91C98.3471 84.5567 99.4671 83.5183 100.914 82.795C102.36 82.0483 104.029 81.675 105.919 81.675C107.809 81.675 109.477 82.0483 110.924 82.795C112.37 83.5183 113.49 84.5567 114.284 85.91C115.1 87.2633 115.509 88.8383 115.509 90.635C115.509 92.455 115.1 94.0417 114.284 95.395C113.49 96.725 112.37 97.7517 110.924 98.475C109.477 99.175 107.809 99.525 105.919 99.525ZM105.919 96.725C107.739 96.725 109.185 96.165 110.259 95.045C111.332 93.925 111.869 92.455 111.869 90.635C111.869 88.745 111.332 87.2517 110.259 86.155C109.185 85.0583 107.739 84.51 105.919 84.51C104.099 84.51 102.652 85.0583 101.579 86.155C100.505 87.2517 99.9688 88.745 99.9688 90.635C99.9688 92.455 100.505 93.925 101.579 95.045C102.652 96.165 104.099 96.725 105.919 96.725ZM118.649 82.2H122.079V84.615C122.872 83.6117 123.841 82.8767 124.984 82.41C126.151 81.92 127.364 81.675 128.624 81.675C130.864 81.675 132.532 82.27 133.629 83.46C134.726 84.65 135.274 86.2483 135.274 88.255V99H131.739V88.605C131.739 85.875 130.432 84.51 127.819 84.51C126.699 84.51 125.649 84.7783 124.669 85.315C123.712 85.8283 122.884 86.6217 122.184 87.695V99H118.649V82.2ZM140.933 105.93C139.673 105.93 138.623 105.802 137.783 105.545V102.78C138.39 103.013 139.136 103.13 140.023 103.13C140.84 103.13 141.481 102.92 141.948 102.5C142.415 102.103 142.835 101.45 143.208 100.54L144.013 98.58L136.663 82.2H140.303L145.903 95.115L151.118 82.2H154.758L147.198 100.89C146.498 102.64 145.658 103.912 144.678 104.705C143.721 105.522 142.473 105.93 140.933 105.93Z" fill="#2A2921"/>
</svg>
