<svg width="169" height="136" viewBox="0 0 169 136" fill="none" xmlns="http://www.w3.org/2000/svg">
<path d="M38.1688 26.84C39.1488 26.84 39.9538 26.9217 40.5838 27.085C41.2371 27.2483 41.7854 27.4233 42.2288 27.61L41.3188 31.705C40.9454 31.5417 40.5254 31.425 40.0588 31.355C39.6154 31.285 39.1604 31.25 38.6938 31.25C38.0638 31.25 37.5271 31.3433 37.0838 31.53C36.6638 31.6933 36.3254 31.9267 36.0688 32.23C35.8354 32.5333 35.6604 32.895 35.5438 33.315C35.4504 33.735 35.4038 34.19 35.4038 34.68V35.59H41.8438V39.93H35.4038V54H30.1888V34.61C30.1888 32.23 30.8538 30.34 32.1838 28.94C33.5371 27.54 35.5321 26.84 38.1688 26.84ZM50.0688 54H44.8538V35.59H50.0688V54ZM50.5588 30.27C50.5588 31.2267 50.2438 31.985 49.6138 32.545C49.0071 33.0817 48.2838 33.35 47.4438 33.35C46.6038 33.35 45.8688 33.0817 45.2388 32.545C44.6321 31.985 44.3288 31.2267 44.3288 30.27C44.3288 29.3133 44.6321 28.5667 45.2388 28.03C45.8688 27.47 46.6038 27.19 47.4438 27.19C48.2838 27.19 49.0071 27.47 49.6138 28.03C50.2438 28.5667 50.5588 29.3133 50.5588 30.27ZM54.269 36.22C55.1557 35.9633 56.299 35.73 57.699 35.52C59.099 35.2867 60.569 35.17 62.109 35.17C63.6724 35.17 64.9674 35.38 65.994 35.8C67.044 36.1967 67.8724 36.7683 68.479 37.515C69.0857 38.2617 69.5174 39.1483 69.774 40.175C70.0307 41.2017 70.159 42.345 70.159 43.605V54H64.944V44.235C64.944 42.555 64.7224 41.365 64.279 40.665C63.8357 39.965 63.0074 39.615 61.794 39.615C61.4207 39.615 61.024 39.6383 60.604 39.685C60.184 39.7083 59.8107 39.7433 59.484 39.79V54H54.269V36.22ZM78.6244 44.655C78.6244 46.265 78.9861 47.56 79.7094 48.54C80.4327 49.52 81.5061 50.01 82.9294 50.01C83.3961 50.01 83.8277 49.9983 84.2244 49.975C84.6211 49.9283 84.9477 49.8817 85.2044 49.835V40.35C84.8777 40.14 84.4461 39.965 83.9094 39.825C83.3961 39.685 82.8711 39.615 82.3344 39.615C79.8611 39.615 78.6244 41.295 78.6244 44.655ZM90.4194 53.405C89.9527 53.545 89.4161 53.685 88.8094 53.825C88.2027 53.9417 87.5611 54.0467 86.8844 54.14C86.2311 54.2333 85.5544 54.3033 84.8544 54.35C84.1777 54.42 83.5244 54.455 82.8944 54.455C81.3777 54.455 80.0244 54.2333 78.8344 53.79C77.6444 53.3467 76.6411 52.7167 75.8244 51.9C75.0077 51.06 74.3777 50.0567 73.9344 48.89C73.5144 47.7 73.3044 46.37 73.3044 44.9C73.3044 43.4067 73.4911 42.065 73.8644 40.875C74.2377 39.6617 74.7744 38.635 75.4744 37.795C76.1744 36.955 77.0261 36.3133 78.0294 35.87C79.0561 35.4267 80.2227 35.205 81.5294 35.205C82.2527 35.205 82.8944 35.275 83.4544 35.415C84.0377 35.555 84.6211 35.7533 85.2044 36.01V27.68L90.4194 26.84V53.405ZM99.8174 54H94.6024V35.59H99.8174V54ZM100.307 30.27C100.307 31.2267 99.9924 31.985 99.3624 32.545C98.7558 33.0817 98.0324 33.35 97.1924 33.35C96.3524 33.35 95.6174 33.0817 94.9874 32.545C94.3808 31.985 94.0774 31.2267 94.0774 30.27C94.0774 29.3133 94.3808 28.5667 94.9874 28.03C95.6174 27.47 96.3524 27.19 97.1924 27.19C98.0324 27.19 98.7558 27.47 99.3624 28.03C99.9924 28.5667 100.307 29.3133 100.307 30.27ZM104.02 36.22C104.906 35.9633 106.05 35.73 107.45 35.52C108.85 35.2867 110.32 35.17 111.86 35.17C113.423 35.17 114.718 35.38 115.745 35.8C116.795 36.1967 117.623 36.7683 118.23 37.515C118.836 38.2617 119.268 39.1483 119.525 40.175C119.781 41.2017 119.91 42.345 119.91 43.605V54H114.695V44.235C114.695 42.555 114.473 41.365 114.03 40.665C113.586 39.965 112.758 39.615 111.545 39.615C111.171 39.615 110.775 39.6383 110.355 39.685C109.935 39.7083 109.561 39.7433 109.235 39.79V54H104.02V36.22ZM128.375 44.2C128.375 47.1167 129.553 48.575 131.91 48.575C132.447 48.575 132.948 48.505 133.415 48.365C133.882 48.225 134.278 48.0617 134.605 47.875V39.545C134.348 39.4983 134.045 39.4633 133.695 39.44C133.345 39.3933 132.937 39.37 132.47 39.37C131.093 39.37 130.067 39.825 129.39 40.735C128.713 41.645 128.375 42.8 128.375 44.2ZM139.82 51.69C139.82 54.7 139.05 56.9283 137.51 58.375C135.993 59.845 133.637 60.58 130.44 60.58C129.32 60.58 128.2 60.475 127.08 60.265C125.96 60.0783 124.922 59.8217 123.965 59.495L124.875 55.12C125.692 55.4467 126.543 55.7033 127.43 55.89C128.34 56.0767 129.367 56.17 130.51 56.17C132.003 56.17 133.053 55.8433 133.66 55.19C134.29 54.5367 134.605 53.6967 134.605 52.67V52.005C134.045 52.2617 133.462 52.46 132.855 52.6C132.272 52.7167 131.63 52.775 130.93 52.775C128.387 52.775 126.438 52.0283 125.085 50.535C123.732 49.0183 123.055 46.9067 123.055 44.2C123.055 42.8467 123.265 41.6217 123.685 40.525C124.105 39.405 124.712 38.4483 125.505 37.655C126.322 36.8617 127.313 36.255 128.48 35.835C129.647 35.3917 130.965 35.17 132.435 35.17C133.065 35.17 133.707 35.205 134.36 35.275C135.037 35.3217 135.702 35.3917 136.355 35.485C137.008 35.5783 137.627 35.695 138.21 35.835C138.817 35.9517 139.353 36.08 139.82 36.22V51.69ZM40.8452 97.145V99H33.4602V97.145H35.7352V89.97C35.7352 89.0133 35.5018 88.2667 35.0352 87.73C34.5918 87.1933 33.9618 86.925 33.1452 86.925C31.7452 86.925 30.2285 87.4617 28.5952 88.535V97.145H30.8352V99H23.4502V97.145H26.0052V80.765H23.4852V78.945H28.5952V86.785C30.4852 85.525 32.2118 84.895 33.7752 84.895C35.0818 84.895 36.1668 85.3033 37.0302 86.12C37.8935 86.9133 38.3252 88.0333 38.3252 89.48V97.145H40.8452ZM56.0171 97.145V99H51.5721L51.4321 97.775C50.6855 98.335 49.9388 98.7433 49.1921 99C48.4455 99.2567 47.6055 99.385 46.6721 99.385C45.2721 99.385 44.1288 99 43.2421 98.23C42.3788 97.4367 41.9471 96.4567 41.9471 95.29C41.9471 93.7967 42.4488 92.7117 43.4521 92.035C44.4788 91.335 45.8205 90.985 47.4771 90.985C48.6671 90.985 49.9388 91.1367 51.2921 91.44V90.005C51.2921 88.955 51.0005 88.1617 50.4171 87.625C49.8571 87.0883 49.0638 86.82 48.0371 86.82C47.3605 86.82 46.5788 86.9367 45.6921 87.17C44.8288 87.38 44.0355 87.6833 43.3121 88.08L42.5421 86.4C43.3121 85.91 44.1988 85.5367 45.2021 85.28C46.2288 85.0233 47.1855 84.895 48.0721 84.895C49.8688 84.895 51.2805 85.3383 52.3071 86.225C53.3338 87.0883 53.8471 88.2667 53.8471 89.76V97.145H56.0171ZM44.3971 95.15C44.3971 95.8733 44.6305 96.4683 45.0971 96.935C45.5871 97.3783 46.2405 97.6 47.0571 97.6C48.4338 97.6 49.8455 97.0983 51.2921 96.095V92.945C50.0555 92.665 48.8421 92.525 47.6521 92.525C46.7188 92.525 45.9371 92.735 45.3071 93.155C44.7005 93.5517 44.3971 94.2167 44.3971 95.15ZM65.819 85.07C66.7057 85.07 67.639 85.3033 68.619 85.77L67.989 88.115C67.1957 87.6017 66.3907 87.345 65.574 87.345C64.6407 87.345 63.859 87.73 63.229 88.5C62.6224 89.2467 62.319 90.285 62.319 91.615L62.284 97.145H64.734V99H57.069V97.145H59.729V87.1H57.069V85.245H62.284V87.765C63.0307 85.9683 64.209 85.07 65.819 85.07ZM96.12 97.145V99H88.735V97.145H91.045V89.97C91.045 89.0133 90.8117 88.2667 90.345 87.73C89.8784 87.1933 89.2367 86.925 88.42 86.925C86.9967 86.925 85.5034 87.45 83.94 88.5C84.01 88.85 84.045 89.2 84.045 89.55V97.145H86.565V99H79.18V97.145H81.49V89.97C81.49 89.0133 81.2567 88.2667 80.79 87.73C80.3234 87.1933 79.6817 86.925 78.865 86.925C77.675 86.925 76.2634 87.3917 74.63 88.325V97.145H77.115V99H69.415V97.145H72.075V87.1H69.415V85.245H74.63V86.575C76.4034 85.455 78.0367 84.895 79.53 84.895C80.44 84.895 81.2334 85.0933 81.91 85.49C82.5867 85.8633 83.1 86.3883 83.45 87.065C84.4767 86.365 85.4334 85.8283 86.32 85.455C87.2067 85.0817 88.1284 84.895 89.085 84.895C90.3917 84.895 91.465 85.3033 92.305 86.12C93.1684 86.9133 93.6 88.0333 93.6 89.48V97.145H96.12ZM103.789 99.42C102.319 99.42 101.024 99.1167 99.9038 98.51C98.7838 97.9033 97.9088 97.0517 97.2788 95.955C96.6722 94.835 96.3688 93.5517 96.3688 92.105C96.3688 90.6583 96.6722 89.3867 97.2788 88.29C97.9088 87.1933 98.7838 86.3533 99.9038 85.77C101.024 85.1633 102.319 84.86 103.789 84.86C105.259 84.86 106.554 85.1633 107.674 85.77C108.817 86.3533 109.704 87.1933 110.334 88.29C110.964 89.3867 111.279 90.6467 111.279 92.07C111.279 93.5167 110.964 94.8 110.334 95.92C109.704 97.04 108.817 97.9033 107.674 98.51C106.554 99.1167 105.259 99.42 103.789 99.42ZM103.789 97.39C105.236 97.39 106.402 96.9117 107.289 95.955C108.176 94.975 108.619 93.68 108.619 92.07C108.619 90.5067 108.176 89.2583 107.289 88.325C106.402 87.3683 105.236 86.89 103.789 86.89C102.342 86.89 101.187 87.3683 100.324 88.325C99.4605 89.2817 99.0288 90.5417 99.0288 92.105C99.0288 93.6917 99.4605 94.975 100.324 95.955C101.211 96.9117 102.366 97.39 103.789 97.39ZM129.464 97.145V99H122.079V97.145H124.354V89.97C124.354 89.0133 124.121 88.2667 123.654 87.73C123.188 87.1933 122.546 86.925 121.729 86.925C121.053 86.925 120.364 87.0533 119.664 87.31C118.988 87.5433 118.241 87.905 117.424 88.395V97.145H119.909V99H112.209V97.145H114.869V87.1H112.209V85.245H117.424V86.61C119.244 85.4667 120.901 84.895 122.394 84.895C123.701 84.895 124.774 85.3033 125.614 86.12C126.478 86.9133 126.909 88.0333 126.909 89.48V97.145H129.464ZM132.355 102.465H133.93C134.584 102.465 135.085 102.418 135.435 102.325C135.785 102.232 136.089 102.022 136.345 101.695C136.625 101.368 136.882 100.855 137.115 100.155L137.85 98.125H136.765L131.655 87.1H129.1V85.245H136.31V87.1H134.28L138.41 96.445L142.085 87.1H139.705V85.245H146.88V87.1H144.64L139.53 99.805C139.017 101.135 138.585 102.092 138.235 102.675C137.909 103.282 137.43 103.748 136.8 104.075C136.17 104.402 135.284 104.565 134.14 104.565H132.355V102.465Z" fill="#2A2921"/>
</svg>
