<svg width="169" height="136" viewBox="0 0 169 136" fill="none" xmlns="http://www.w3.org/2000/svg">
<path d="M38.1688 26.84C39.1488 26.84 39.9538 26.9217 40.5838 27.085C41.2371 27.2483 41.7854 27.4233 42.2288 27.61L41.3188 31.705C40.9454 31.5417 40.5254 31.425 40.0588 31.355C39.6154 31.285 39.1604 31.25 38.6938 31.25C38.0638 31.25 37.5271 31.3433 37.0838 31.53C36.6638 31.6933 36.3254 31.9267 36.0688 32.23C35.8354 32.5333 35.6604 32.895 35.5438 33.315C35.4504 33.735 35.4038 34.19 35.4038 34.68V35.59H41.8438V39.93H35.4038V54H30.1888V34.61C30.1888 32.23 30.8538 30.34 32.1838 28.94C33.5371 27.54 35.5321 26.84 38.1688 26.84ZM50.0688 54H44.8538V35.59H50.0688V54ZM50.5588 30.27C50.5588 31.2267 50.2438 31.985 49.6138 32.545C49.0071 33.0817 48.2838 33.35 47.4438 33.35C46.6038 33.35 45.8688 33.0817 45.2388 32.545C44.6321 31.985 44.3288 31.2267 44.3288 30.27C44.3288 29.3133 44.6321 28.5667 45.2388 28.03C45.8688 27.47 46.6038 27.19 47.4438 27.19C48.2838 27.19 49.0071 27.47 49.6138 28.03C50.2438 28.5667 50.5588 29.3133 50.5588 30.27ZM54.269 36.22C55.1557 35.9633 56.299 35.73 57.699 35.52C59.099 35.2867 60.569 35.17 62.109 35.17C63.6724 35.17 64.9674 35.38 65.994 35.8C67.044 36.1967 67.8724 36.7683 68.479 37.515C69.0857 38.2617 69.5174 39.1483 69.774 40.175C70.0307 41.2017 70.159 42.345 70.159 43.605V54H64.944V44.235C64.944 42.555 64.7224 41.365 64.279 40.665C63.8357 39.965 63.0074 39.615 61.794 39.615C61.4207 39.615 61.024 39.6383 60.604 39.685C60.184 39.7083 59.8107 39.7433 59.484 39.79V54H54.269V36.22ZM78.6244 44.655C78.6244 46.265 78.9861 47.56 79.7094 48.54C80.4327 49.52 81.5061 50.01 82.9294 50.01C83.3961 50.01 83.8277 49.9983 84.2244 49.975C84.6211 49.9283 84.9477 49.8817 85.2044 49.835V40.35C84.8777 40.14 84.4461 39.965 83.9094 39.825C83.3961 39.685 82.8711 39.615 82.3344 39.615C79.8611 39.615 78.6244 41.295 78.6244 44.655ZM90.4194 53.405C89.9527 53.545 89.4161 53.685 88.8094 53.825C88.2027 53.9417 87.5611 54.0467 86.8844 54.14C86.2311 54.2333 85.5544 54.3033 84.8544 54.35C84.1777 54.42 83.5244 54.455 82.8944 54.455C81.3777 54.455 80.0244 54.2333 78.8344 53.79C77.6444 53.3467 76.6411 52.7167 75.8244 51.9C75.0077 51.06 74.3777 50.0567 73.9344 48.89C73.5144 47.7 73.3044 46.37 73.3044 44.9C73.3044 43.4067 73.4911 42.065 73.8644 40.875C74.2377 39.6617 74.7744 38.635 75.4744 37.795C76.1744 36.955 77.0261 36.3133 78.0294 35.87C79.0561 35.4267 80.2227 35.205 81.5294 35.205C82.2527 35.205 82.8944 35.275 83.4544 35.415C84.0377 35.555 84.6211 35.7533 85.2044 36.01V27.68L90.4194 26.84V53.405ZM99.8174 54H94.6024V35.59H99.8174V54ZM100.307 30.27C100.307 31.2267 99.9924 31.985 99.3624 32.545C98.7558 33.0817 98.0324 33.35 97.1924 33.35C96.3524 33.35 95.6174 33.0817 94.9874 32.545C94.3808 31.985 94.0774 31.2267 94.0774 30.27C94.0774 29.3133 94.3808 28.5667 94.9874 28.03C95.6174 27.47 96.3524 27.19 97.1924 27.19C98.0324 27.19 98.7558 27.47 99.3624 28.03C99.9924 28.5667 100.307 29.3133 100.307 30.27ZM104.02 36.22C104.906 35.9633 106.05 35.73 107.45 35.52C108.85 35.2867 110.32 35.17 111.86 35.17C113.423 35.17 114.718 35.38 115.745 35.8C116.795 36.1967 117.623 36.7683 118.23 37.515C118.836 38.2617 119.268 39.1483 119.525 40.175C119.781 41.2017 119.91 42.345 119.91 43.605V54H114.695V44.235C114.695 42.555 114.473 41.365 114.03 40.665C113.586 39.965 112.758 39.615 111.545 39.615C111.171 39.615 110.775 39.6383 110.355 39.685C109.935 39.7083 109.561 39.7433 109.235 39.79V54H104.02V36.22ZM128.375 44.2C128.375 47.1167 129.553 48.575 131.91 48.575C132.447 48.575 132.948 48.505 133.415 48.365C133.882 48.225 134.278 48.0617 134.605 47.875V39.545C134.348 39.4983 134.045 39.4633 133.695 39.44C133.345 39.3933 132.937 39.37 132.47 39.37C131.093 39.37 130.067 39.825 129.39 40.735C128.713 41.645 128.375 42.8 128.375 44.2ZM139.82 51.69C139.82 54.7 139.05 56.9283 137.51 58.375C135.993 59.845 133.637 60.58 130.44 60.58C129.32 60.58 128.2 60.475 127.08 60.265C125.96 60.0783 124.922 59.8217 123.965 59.495L124.875 55.12C125.692 55.4467 126.543 55.7033 127.43 55.89C128.34 56.0767 129.367 56.17 130.51 56.17C132.003 56.17 133.053 55.8433 133.66 55.19C134.29 54.5367 134.605 53.6967 134.605 52.67V52.005C134.045 52.2617 133.462 52.46 132.855 52.6C132.272 52.7167 131.63 52.775 130.93 52.775C128.387 52.775 126.438 52.0283 125.085 50.535C123.732 49.0183 123.055 46.9067 123.055 44.2C123.055 42.8467 123.265 41.6217 123.685 40.525C124.105 39.405 124.712 38.4483 125.505 37.655C126.322 36.8617 127.313 36.255 128.48 35.835C129.647 35.3917 130.965 35.17 132.435 35.17C133.065 35.17 133.707 35.205 134.36 35.275C135.037 35.3217 135.702 35.3917 136.355 35.485C137.008 35.5783 137.627 35.695 138.21 35.835C138.817 35.9517 139.353 36.08 139.82 36.22V51.69Z" fill="#2A2921"/>
<path d="M30.655 81.5C32.825 81.5 34.4816 82.2117 35.625 83.635C36.7683 85.0583 37.34 86.995 37.34 89.445V99H34.19V89.83C34.19 87.94 33.84 86.5517 33.14 85.665C32.4633 84.755 31.4016 84.3 29.955 84.3C29.0683 84.3 28.2516 84.51 27.505 84.93C26.7583 85.3267 26.1283 85.8983 25.615 86.645V99H22.43V72.75H25.615V83.495C26.2916 82.8417 27.0266 82.3517 27.82 82.025C28.6366 81.675 29.5816 81.5 30.655 81.5ZM44.7247 99.35C43.138 99.35 41.8547 98.8833 40.8747 97.95C39.918 97.0167 39.4397 95.8267 39.4397 94.38C39.4397 92.21 40.4664 90.6583 42.5197 89.725C44.573 88.7917 46.9647 88.3017 49.6947 88.255C49.6947 86.715 49.3914 85.6767 48.7847 85.14C48.2014 84.58 47.2564 84.3 45.9497 84.3C45.2264 84.3 44.503 84.4167 43.7797 84.65C43.0564 84.86 42.2747 85.2567 41.4347 85.84L40.9797 83.285C41.6797 82.7483 42.543 82.3167 43.5697 81.99C44.5964 81.6633 45.6697 81.5 46.7897 81.5C48.2597 81.5 49.4264 81.7567 50.2897 82.27C51.1764 82.7833 51.818 83.635 52.2147 84.825C52.6347 86.015 52.8447 87.6483 52.8447 89.725V93.225C52.8447 94.1583 52.8797 94.87 52.9497 95.36C53.043 95.8267 53.2297 96.1883 53.5097 96.445C53.7897 96.7017 54.2214 96.83 54.8047 96.83H55.1197L54.6297 99.35H54.3847C53.4047 99.35 52.6347 99.2567 52.0747 99.07C51.5147 98.8833 51.083 98.615 50.7797 98.265C50.4997 97.915 50.2314 97.4367 49.9747 96.83C48.528 98.51 46.778 99.35 44.7247 99.35ZM45.3197 96.83C46.1597 96.83 46.9647 96.62 47.7347 96.2C48.528 95.78 49.1814 95.22 49.6947 94.52V90.425C47.1747 90.5183 45.3664 90.8567 44.2697 91.44C43.1964 92 42.6597 92.9217 42.6597 94.205C42.6597 95.0917 42.893 95.7567 43.3597 96.2C43.8497 96.62 44.503 96.83 45.3197 96.83ZM56.8511 81.85H59.4411L59.8261 84.685C60.7128 83.5883 61.5528 82.7833 62.3461 82.27C63.1628 81.7567 64.0144 81.5 64.9011 81.5C65.1811 81.5 65.4494 81.535 65.7061 81.605L65.3911 85.07C65.0878 85 64.7378 84.965 64.3411 84.965C63.4778 84.965 62.6611 85.1633 61.8911 85.56C61.1211 85.9333 60.5611 86.3767 60.2111 86.89V99H56.8511V81.85ZM87.2453 81.5C91.632 81.5 93.8253 83.9617 93.8253 88.885V99H90.6753V88.92C90.6753 87.31 90.3603 86.1433 89.7303 85.42C89.1003 84.6733 88.0737 84.3 86.6503 84.3C83.617 84.3 82.1003 85.8867 82.1003 89.06V99H78.9503V89.55C78.9503 87.59 78.6003 86.225 77.9003 85.455C77.2237 84.685 76.232 84.3 74.9253 84.3C73.8987 84.3 72.9887 84.4867 72.1953 84.86C71.402 85.2333 70.7953 85.7933 70.3753 86.54V99H67.2253V81.85H69.6753L70.0253 83.67C70.8887 82.9 71.752 82.3517 72.6153 82.025C73.502 81.675 74.447 81.5 75.4503 81.5C78.0637 81.5 79.907 82.6433 80.9803 84.93C82.1703 82.6433 84.2587 81.5 87.2453 81.5ZM104.709 99.35C102.959 99.35 101.442 98.965 100.159 98.195C98.8754 97.4017 97.8954 96.3283 97.2187 94.975C96.542 93.6217 96.2037 92.105 96.2037 90.425C96.2037 88.745 96.542 87.2283 97.2187 85.875C97.8954 84.5217 98.8754 83.46 100.159 82.69C101.442 81.8967 102.959 81.5 104.709 81.5C106.435 81.5 107.94 81.8967 109.224 82.69C110.53 83.46 111.522 84.5217 112.199 85.875C112.875 87.2283 113.214 88.745 113.214 90.425C113.214 92.105 112.875 93.6217 112.199 94.975C111.522 96.3283 110.53 97.4017 109.224 98.195C107.94 98.965 106.435 99.35 104.709 99.35ZM104.709 96.55C106.389 96.55 107.684 96.0133 108.594 94.94C109.527 93.8667 109.994 92.3617 109.994 90.425C109.994 88.4883 109.527 86.9833 108.594 85.91C107.684 84.8367 106.389 84.3 104.709 84.3C103.029 84.3 101.722 84.8367 100.789 85.91C99.8787 86.9833 99.4237 88.4883 99.4237 90.425C99.4237 92.3617 99.8787 93.8667 100.789 94.94C101.722 96.0133 103.029 96.55 104.709 96.55ZM124.232 81.5C128.899 81.5 131.232 84.1833 131.232 89.55V99H128.082V89.55C128.082 87.7067 127.732 86.3767 127.032 85.56C126.355 84.72 125.212 84.3 123.602 84.3C122.575 84.3 121.642 84.4867 120.802 84.86C119.962 85.2333 119.332 85.7933 118.912 86.54V99H115.762V81.85H118.212L118.562 83.67C119.472 82.8533 120.382 82.2933 121.292 81.99C122.225 81.6633 123.205 81.5 124.232 81.5ZM139.384 98.23L132.244 81.85H135.744L141.099 94.59L145.929 81.85H149.429L138.929 107.47H135.429L139.384 98.23Z" fill="#373746"/>
</svg>
