<svg width="16" height="16" viewBox="0 0 16 16" fill="none" xmlns="http://www.w3.org/2000/svg">
<path d="M7.54077 2.3305C7.71431 1.92752 8.28568 1.92752 8.45923 2.33051L9.46896 4.67522C9.68612 5.17948 10.1614 5.52481 10.7081 5.57552L13.2501 5.81128C13.687 5.8518 13.8635 6.39521 13.5339 6.68478L11.616 8.36965C11.2035 8.73201 11.022 9.29077 11.1427 9.82637L11.704 12.3168C11.8004 12.7448 11.3382 13.0807 10.9609 12.8566L8.76584 11.5532C8.29376 11.2729 7.70624 11.2729 7.23416 11.5532L5.03908 12.8566C4.66181 13.0807 4.19956 12.7448 4.29603 12.3168L4.85733 9.82637C4.97804 9.29077 4.79649 8.73201 4.38401 8.36965L2.46608 6.68478C2.13645 6.3952 2.31301 5.8518 2.7499 5.81128L5.29188 5.57552C5.83857 5.52481 6.31388 5.17948 6.53103 4.67522L7.54077 2.3305Z" stroke="#FFC700"/>
</svg>
