<svg width="16" height="16" viewBox="0 0 16 16" fill="none" xmlns="http://www.w3.org/2000/svg">
<path d="M7.08155 2.13274C7.42863 1.32678 8.57137 1.32678 8.91845 2.13274L9.92819 4.47746C10.073 4.81363 10.3898 5.04385 10.7543 5.07765L13.2963 5.31342C14.17 5.39446 14.5232 6.48127 13.8639 7.06042L11.946 8.74529C11.671 8.98686 11.55 9.35937 11.6304 9.71644L12.1917 12.2069C12.3847 13.0629 11.4602 13.7346 10.7056 13.2866L8.51056 11.9832C8.19584 11.7963 7.80416 11.7963 7.48944 11.9832L5.29436 13.2866C4.53983 13.7346 3.61533 13.0629 3.80827 12.2069L4.36956 9.71644C4.45004 9.35937 4.329 8.98686 4.05402 8.74529L2.13609 7.06042C1.47683 6.48127 1.82995 5.39446 2.70372 5.31342L5.24571 5.07765C5.61016 5.04385 5.92704 4.81363 6.07181 4.47746L7.08155 2.13274Z" fill="#FFC700"/>
</svg>
