<svg width="169" height="136" viewBox="0 0 169 136" fill="none" xmlns="http://www.w3.org/2000/svg">
<path d="M14.8 26.52L4.3 16.34L4.36 26H2V10.94H2.12L12.58 21.26L12.54 11.44H14.86V26.52H14.8ZM20.735 26.36C19.9617 26.36 19.3217 26.1267 18.815 25.66C18.3083 25.18 18.0417 24.5667 18.015 23.82V17.54H20.255V23.02C20.2817 23.4467 20.4017 23.7933 20.615 24.06C20.8283 24.3133 21.1683 24.44 21.635 24.44C22.3017 24.44 22.8483 24.14 23.275 23.54C23.7017 22.94 23.915 22.1867 23.915 21.28V17.54H26.155V26H24.135L23.975 24.5C23.7083 25.0467 23.2883 25.4933 22.715 25.84C22.1417 26.1867 21.4817 26.36 20.735 26.36ZM30.8655 17.54L31.0255 19.5C31.2655 19.02 31.5921 18.6067 32.0055 18.26C32.4188 17.9 32.8388 17.6267 33.2655 17.44C33.7055 17.2533 34.0655 17.16 34.3455 17.16L34.2455 19.4C33.6055 19.3467 33.0455 19.46 32.5655 19.74C32.0988 20.02 31.7321 20.4 31.4655 20.88C31.2121 21.3467 31.0855 21.84 31.0855 22.36V26H28.8455V17.54H30.8655ZM38.7784 26.18C38.1384 26.18 37.5251 26.0667 36.9384 25.84C36.3651 25.6133 35.8784 25.28 35.4784 24.84L36.4384 23.58C36.8118 23.94 37.1784 24.2067 37.5384 24.38C37.9118 24.54 38.2651 24.62 38.5984 24.62C38.9718 24.62 39.2918 24.5533 39.5584 24.42C39.8384 24.2733 39.9784 24.0333 39.9784 23.7C39.9784 23.4333 39.8851 23.2267 39.6984 23.08C39.5118 22.92 39.2718 22.7933 38.9784 22.7C38.6851 22.5933 38.3784 22.4933 38.0584 22.4C37.3251 22.1733 36.7784 21.84 36.4184 21.4C36.0584 20.96 35.8784 20.4533 35.8784 19.88C35.8784 19.44 35.9918 19.02 36.2184 18.62C36.4451 18.2067 36.7851 17.8667 37.2384 17.6C37.7051 17.3333 38.2984 17.2 39.0184 17.2C39.6451 17.2 40.1984 17.2733 40.6784 17.42C41.1584 17.5667 41.6051 17.8 42.0184 18.12L41.1584 19.46C40.9184 19.2333 40.6318 19.06 40.2984 18.94C39.9784 18.8067 39.6851 18.7333 39.4184 18.72C39.0584 18.7067 38.7584 18.78 38.5184 18.94C38.2784 19.1 38.1584 19.3133 38.1584 19.58C38.1451 19.8467 38.2318 20.06 38.4184 20.22C38.6184 20.38 38.8718 20.5067 39.1784 20.6C39.4851 20.6933 39.7918 20.7933 40.0984 20.9C40.7118 21.1 41.2184 21.3867 41.6184 21.76C42.0184 22.12 42.2184 22.6267 42.2184 23.28C42.2184 23.8 42.0918 24.28 41.8384 24.72C41.5851 25.16 41.2051 25.5133 40.6984 25.78C40.1918 26.0467 39.5518 26.18 38.7784 26.18ZM48.3355 26.22C47.3355 26.22 46.4821 26.0267 45.7755 25.64C45.0688 25.2533 44.5288 24.72 44.1555 24.04C43.7821 23.3467 43.5955 22.5667 43.5955 21.7C43.5955 20.86 43.8088 20.1 44.2355 19.42C44.6621 18.7267 45.2355 18.18 45.9555 17.78C46.6755 17.3667 47.4821 17.16 48.3755 17.16C49.5355 17.16 50.4888 17.5 51.2355 18.18C51.9955 18.8467 52.5021 19.7933 52.7555 21.02L46.2555 23.22C46.7355 23.94 47.4421 24.3 48.3755 24.3C48.7221 24.3 49.0488 24.24 49.3555 24.12C49.6755 24 49.9821 23.84 50.2755 23.64L51.2955 25.3C50.8421 25.58 50.3555 25.8067 49.8355 25.98C49.3155 26.14 48.8155 26.22 48.3355 26.22ZM45.7955 21.58C45.7955 21.6867 45.8021 21.8 45.8155 21.92L50.2555 20.34C50.0955 19.9667 49.8555 19.64 49.5355 19.36C49.2155 19.0667 48.7688 18.92 48.1955 18.92C47.4888 18.92 46.9088 19.1667 46.4555 19.66C46.0155 20.1533 45.7955 20.7933 45.7955 21.58ZM56.5795 17.54L56.7395 19.5C56.9795 19.02 57.3062 18.6067 57.7195 18.26C58.1329 17.9 58.5529 17.6267 58.9795 17.44C59.4195 17.2533 59.7795 17.16 60.0595 17.16L59.9595 19.4C59.3195 19.3467 58.7595 19.46 58.2795 19.74C57.8129 20.02 57.4462 20.4 57.1795 20.88C56.9262 21.3467 56.7995 21.84 56.7995 22.36V26H54.5595V17.54H56.5795ZM62.6525 30.06L64.6325 25.66L60.7125 17.54H63.2325L65.7525 23.14L68.2725 17.54H70.3125L64.8525 30.06H62.6525ZM82.3141 11.44C83.3941 11.44 84.3341 11.6267 85.1341 12C85.9474 12.36 86.5741 12.8933 87.0141 13.6C87.4674 14.2933 87.6941 15.1333 87.6941 16.12C87.6941 16.9467 87.5141 17.7533 87.1541 18.54C86.7941 19.3267 86.1874 19.94 85.3341 20.38L88.8741 26H86.1741L82.8941 20.94C82.8141 20.94 82.7341 20.94 82.6541 20.94H80.5541V26H78.2141V11.44H82.3141ZM82.6341 18.7C83.3274 18.7 83.8674 18.5667 84.2541 18.3C84.6407 18.02 84.9074 17.6867 85.0541 17.3C85.2141 16.9 85.2941 16.5333 85.2941 16.2C85.2941 15.88 85.2207 15.5267 85.0741 15.14C84.9274 14.74 84.6674 14.4 84.2941 14.12C83.9207 13.8267 83.3941 13.68 82.7141 13.68H80.5541V18.7H82.6341ZM90.7525 26V10.4H92.9525V19C93.2458 18.4667 93.6725 18.0333 94.2325 17.7C94.8058 17.3533 95.4858 17.18 96.2725 17.18C97.0592 17.18 97.7125 17.42 98.2325 17.9C98.7658 18.3667 99.0392 18.9733 99.0525 19.72V26H96.8125V20.52C96.7858 20.0933 96.6592 19.7533 96.4325 19.5C96.2192 19.2333 95.8658 19.0933 95.3725 19.08C94.6792 19.08 94.1058 19.38 93.6525 19.98C93.2125 20.58 92.9925 21.3333 92.9925 22.24V26H90.7525ZM102.439 30.06L104.419 25.66L100.499 17.54H103.019L105.539 23.14L108.059 17.54H110.099L104.639 30.06H102.439ZM113.555 17.54L113.715 19.04C114.035 18.4533 114.468 17.9933 115.015 17.66C115.561 17.3267 116.195 17.16 116.915 17.16C117.608 17.16 118.188 17.3133 118.655 17.62C119.121 17.9267 119.408 18.3533 119.515 18.9C119.875 18.3667 120.315 17.9467 120.835 17.64C121.368 17.32 121.928 17.16 122.515 17.16C123.355 17.16 124.015 17.4 124.495 17.88C124.988 18.3467 125.241 18.9533 125.255 19.7V26H123.035V20.56C123.008 20.16 122.915 19.8267 122.755 19.56C122.595 19.28 122.301 19.1267 121.875 19.1C121.395 19.1 120.981 19.2533 120.635 19.56C120.288 19.8533 120.015 20.24 119.815 20.72C119.628 21.1867 119.535 21.68 119.535 22.2V26H117.275V20.56C117.261 20.16 117.168 19.8267 116.995 19.56C116.821 19.28 116.515 19.1267 116.075 19.1C115.608 19.1 115.201 19.2533 114.855 19.56C114.508 19.8533 114.241 20.24 114.055 20.72C113.868 21.1867 113.775 21.68 113.775 22.2V26H111.535V17.54H113.555ZM131.971 26.22C130.971 26.22 130.118 26.0267 129.411 25.64C128.705 25.2533 128.165 24.72 127.791 24.04C127.418 23.3467 127.231 22.5667 127.231 21.7C127.231 20.86 127.445 20.1 127.871 19.42C128.298 18.7267 128.871 18.18 129.591 17.78C130.311 17.3667 131.118 17.16 132.011 17.16C133.171 17.16 134.125 17.5 134.871 18.18C135.631 18.8467 136.138 19.7933 136.391 21.02L129.891 23.22C130.371 23.94 131.078 24.3 132.011 24.3C132.358 24.3 132.685 24.24 132.991 24.12C133.311 24 133.618 23.84 133.911 23.64L134.931 25.3C134.478 25.58 133.991 25.8067 133.471 25.98C132.951 26.14 132.451 26.22 131.971 26.22ZM129.431 21.58C129.431 21.6867 129.438 21.8 129.451 21.92L133.891 20.34C133.731 19.9667 133.491 19.64 133.171 19.36C132.851 19.0667 132.405 18.92 131.831 18.92C131.125 18.92 130.545 19.1667 130.091 19.66C129.651 20.1533 129.431 20.7933 129.431 21.58ZM140.735 26.18C140.095 26.18 139.482 26.0667 138.895 25.84C138.322 25.6133 137.835 25.28 137.435 24.84L138.395 23.58C138.769 23.94 139.135 24.2067 139.495 24.38C139.869 24.54 140.222 24.62 140.555 24.62C140.929 24.62 141.249 24.5533 141.515 24.42C141.795 24.2733 141.935 24.0333 141.935 23.7C141.935 23.4333 141.842 23.2267 141.655 23.08C141.469 22.92 141.229 22.7933 140.935 22.7C140.642 22.5933 140.335 22.4933 140.015 22.4C139.282 22.1733 138.735 21.84 138.375 21.4C138.015 20.96 137.835 20.4533 137.835 19.88C137.835 19.44 137.949 19.02 138.175 18.62C138.402 18.2067 138.742 17.8667 139.195 17.6C139.662 17.3333 140.255 17.2 140.975 17.2C141.602 17.2 142.155 17.2733 142.635 17.42C143.115 17.5667 143.562 17.8 143.975 18.12L143.115 19.46C142.875 19.2333 142.589 19.06 142.255 18.94C141.935 18.8067 141.642 18.7333 141.375 18.72C141.015 18.7067 140.715 18.78 140.475 18.94C140.235 19.1 140.115 19.3133 140.115 19.58C140.102 19.8467 140.189 20.06 140.375 20.22C140.575 20.38 140.829 20.5067 141.135 20.6C141.442 20.6933 141.749 20.7933 142.055 20.9C142.669 21.1 143.175 21.3867 143.575 21.76C143.975 22.12 144.175 22.6267 144.175 23.28C144.175 23.8 144.049 24.28 143.795 24.72C143.542 25.16 143.162 25.5133 142.655 25.78C142.149 26.0467 141.509 26.18 140.735 26.18Z" fill="#2A2921"/>
<path d="M9.38965 60.3701C8.96484 60.6289 8.50098 60.8315 7.99805 60.978C7.49512 61.1245 7.04834 61.1978 6.65771 61.1978C5.85693 61.1978 5.09277 61.0684 4.36523 60.8096C3.36914 60.4482 2.56836 59.9136 1.96289 59.2056C1.19141 58.3022 0.805664 57.1572 0.805664 55.7705C0.805664 54.7695 1.06201 53.8589 1.57471 53.0386C2.0874 52.2134 2.79541 51.5615 3.69873 51.083C4.60693 50.6045 5.58105 50.3652 6.62109 50.3652C7.66602 50.3652 8.60107 50.5972 9.42627 51.061C10.2515 51.5249 10.9131 52.1621 11.4111 52.9727C11.9092 53.7832 12.1582 54.6621 12.1582 55.6094C12.1582 56.5518 11.9116 57.4502 11.4185 58.3047C10.9253 59.1543 10.249 59.8428 9.38965 60.3701ZM2.34375 55.5361C2.34375 56.3467 2.52197 57.1523 2.87842 57.9531C3.23975 58.749 3.75488 59.3984 4.42383 59.9014C5.09277 60.4043 5.8667 60.6558 6.74561 60.6558C7.99561 60.6558 8.96973 60.1772 9.66797 59.2202C10.2979 58.356 10.6128 57.2524 10.6128 55.9097C10.6128 54.5669 10.2271 53.4097 9.45557 52.438C9.07959 51.9644 8.61816 51.5859 8.07129 51.3027C7.5293 51.0146 6.97998 50.8706 6.42334 50.8706C5.87158 50.8706 5.41748 50.9316 5.06104 51.0537C4.70947 51.1758 4.38965 51.3442 4.10156 51.5591C3.81348 51.769 3.55957 52.0205 3.33984 52.3135C3.12012 52.6064 2.93701 52.9238 2.79053 53.2656C2.49268 53.9688 2.34375 54.7256 2.34375 55.5361ZM18.5525 58.6929L18.5379 57.1475C18.5379 56.5176 18.4842 56.0757 18.3768 55.8218C18.2693 55.5679 18.1326 55.3774 17.9666 55.2505C17.8006 55.1187 17.576 55.0527 17.2928 55.0527C17.0145 55.0527 16.4212 55.2725 15.513 55.7119C15.3909 55.7852 15.3274 55.8535 15.3226 55.917V59.8574C15.3226 60.3506 15.5862 60.6338 16.1136 60.707C16.3431 60.7412 16.4578 60.7974 16.4578 60.8755C16.4578 60.9487 16.4334 60.9902 16.3846 61H13.118C13.0691 60.9902 13.0447 60.9561 13.0447 60.8975C13.0447 60.8047 13.1595 60.7412 13.389 60.707C13.9163 60.6338 14.18 60.3506 14.18 59.8574V55.6533C14.18 55.4482 14.0677 55.3066 13.8431 55.2285C13.7454 55.1943 13.6404 55.1675 13.5281 55.1479C13.4158 55.1235 13.3255 55.1016 13.2571 55.082C13.1937 55.0625 13.1521 55.0454 13.1326 55.0308C13.118 55.0112 13.1106 54.9746 13.1106 54.9209C13.1106 54.8623 13.1473 54.8135 13.2205 54.7744L15.0882 53.8955C15.1468 53.8662 15.1834 53.8516 15.198 53.8516C15.2811 53.8516 15.3226 53.9102 15.3226 54.0273V55.1699C15.3372 55.2188 15.3567 55.2432 15.3812 55.2432C15.4104 55.2432 15.5154 55.1992 15.6961 55.1113C16.116 54.9014 16.5384 54.6987 16.9632 54.5034C17.388 54.3081 17.7396 54.2104 18.0179 54.2104C19.1458 54.2104 19.7098 55.2383 19.7098 57.2939L19.6438 59.4326V59.8574C19.6438 60.2383 19.8343 60.4873 20.2151 60.6045C20.3763 60.6582 20.5301 60.6973 20.6766 60.7217C20.8279 60.7412 20.9256 60.7607 20.9695 60.7803C21.0184 60.7998 21.0428 60.8389 21.0428 60.8975C21.0428 60.9561 21.0184 60.9902 20.9695 61H17.4393C17.3904 60.9902 17.366 60.9561 17.366 60.8975C17.366 60.8047 17.4808 60.7412 17.7103 60.707C18.2327 60.6338 18.4939 60.3311 18.4939 59.7988C18.533 59.5547 18.5525 59.186 18.5525 58.6929ZM22.5812 57.1401C22.4981 57.1401 22.4566 57.3184 22.4566 57.6748C22.4566 58.4316 22.6812 59.0664 23.1305 59.5791C23.5797 60.0918 24.1363 60.3481 24.8004 60.3481C25.4693 60.3481 26.1114 60.0601 26.7267 59.4839C26.7364 59.4741 26.7486 59.4692 26.7633 59.4692H26.7999C26.8292 59.4692 26.8561 59.4937 26.8805 59.5425C26.9098 59.5864 26.9366 59.6157 26.961 59.6304C26.3946 60.3188 25.7281 60.7949 24.9615 61.0586C24.6979 61.1514 24.4 61.1978 24.068 61.1978C23.7359 61.1978 23.399 61.1074 23.0572 60.9268C22.7154 60.7412 22.4225 60.4995 22.1783 60.2017C21.6607 59.5815 21.402 58.8101 21.402 57.8872C21.402 56.9595 21.6827 56.1147 22.2442 55.353C22.8106 54.5913 23.587 54.2104 24.5733 54.2104C25.2813 54.2104 25.86 54.5278 26.3092 55.1626C26.7584 55.7925 26.983 56.3467 26.983 56.8252C26.983 57.0352 26.9317 57.1401 26.8292 57.1401H22.5812ZM22.6617 56.437C22.6617 56.5298 22.7057 56.5762 22.7936 56.5762H25.5548C25.6817 56.5762 25.7452 56.5005 25.7452 56.3491C25.7452 55.9976 25.5865 55.6387 25.2691 55.2725C24.9566 54.9014 24.6124 54.7158 24.2364 54.7158C23.8702 54.7158 23.5357 54.8818 23.233 55.2139C22.9352 55.5459 22.7447 55.9243 22.6617 56.3491V56.437ZM35.6481 60.8828C35.6481 60.9609 35.6042 61 35.5163 61H31.4953C31.4465 60.9902 31.4221 60.9561 31.4221 60.8975C31.4221 60.8096 31.5368 60.751 31.7663 60.7217C32.2937 60.6436 32.5573 60.3652 32.5573 59.8867V55.4482C32.5573 55.3945 32.528 55.3677 32.4694 55.3677H31.6711C31.6125 55.3677 31.5563 55.3506 31.5026 55.3164C31.4489 55.2773 31.4221 55.2285 31.4221 55.1699C31.4221 55.1064 31.4514 55.0576 31.51 55.0234C31.593 54.9746 31.7883 54.9087 32.0959 54.8257C32.4035 54.7427 32.5573 54.606 32.5573 54.4155V54.1738C32.5573 52.416 32.9382 51.0635 33.6999 50.1162C34.1247 49.584 34.7717 49.1738 35.6408 48.8857C35.9045 48.7979 36.1657 48.7539 36.4245 48.7539C36.6833 48.7539 36.986 48.8223 37.3327 48.959C37.6794 49.0908 37.8527 49.252 37.8527 49.4424C37.8527 49.4814 37.8454 49.5156 37.8308 49.5449C37.821 49.5742 37.8088 49.6108 37.7941 49.6548L37.4938 50.2993C37.4548 50.3774 37.4084 50.4165 37.3547 50.4165C37.34 50.4165 37.2351 50.3408 37.0397 50.1895C36.8444 50.0332 36.6369 49.8916 36.4172 49.7646C36.2023 49.6328 35.9484 49.5669 35.6555 49.5669C35.0842 49.5669 34.6521 49.7134 34.3591 50.0063C34.0661 50.2993 33.883 50.6313 33.8098 51.0024C33.7365 51.3687 33.6999 51.7739 33.6999 52.2183V54.3496C33.6999 54.3887 33.7243 54.4082 33.7731 54.4082H35.2014C35.3381 54.4082 35.426 54.4229 35.465 54.4521C35.509 54.4766 35.5505 54.5645 35.5896 54.7158C35.6286 54.8623 35.6481 54.999 35.6481 55.126C35.6481 55.248 35.6359 55.3188 35.6115 55.3384C35.5871 55.3579 35.5358 55.3677 35.4577 55.3677H33.7951C33.7316 55.3677 33.6999 55.3921 33.6999 55.4409V59.7402C33.6999 60.4385 34.3054 60.7876 35.5163 60.7876C35.6042 60.7974 35.6481 60.8291 35.6481 60.8828ZM35.9487 57.7114C35.9487 56.7495 36.2881 55.9243 36.9668 55.2358C37.6504 54.5425 38.4683 54.1958 39.4204 54.1958C40.3726 54.1958 41.2002 54.5327 41.9033 55.2065C42.6064 55.8755 42.958 56.7031 42.958 57.6895C42.958 58.6758 42.6235 59.5083 41.9546 60.187C41.2905 60.8608 40.4556 61.1978 39.4497 61.1978C38.4438 61.1978 37.6089 60.856 36.9448 60.1724C36.2808 59.4888 35.9487 58.6685 35.9487 57.7114ZM37.7725 59.5938C38.251 60.3994 38.9028 60.8022 39.728 60.8022C40.3677 60.8022 40.856 60.5459 41.1929 60.0332C41.5347 59.5205 41.7056 58.8906 41.7056 58.1436C41.7056 57.3965 41.4663 56.6299 40.9878 55.8438C40.5142 55.0576 39.8745 54.6646 39.0688 54.6646C38.478 54.6646 38.0117 54.9209 37.6699 55.4336C37.333 55.9414 37.1646 56.5884 37.1646 57.3745C37.1646 58.1558 37.3672 58.8955 37.7725 59.5938ZM48.1805 55.7485C48.1219 55.7388 48.0364 55.707 47.9241 55.6533C47.5188 55.4678 47.2015 55.375 46.972 55.375C46.7425 55.375 46.5008 55.519 46.2469 55.8071C45.9979 56.0903 45.8733 56.3467 45.8733 56.5762V59.8867C45.8733 60.2529 46.0857 60.4971 46.5105 60.6191C46.6961 60.668 46.8694 60.7046 47.0306 60.729C47.1917 60.7485 47.2942 60.7681 47.3382 60.7876C47.387 60.8071 47.4114 60.8462 47.4114 60.9048C47.4114 60.9585 47.387 60.9902 47.3382 61H43.6688C43.6199 60.9902 43.5955 60.9561 43.5955 60.8975C43.5955 60.8096 43.7103 60.751 43.9397 60.7217C44.4671 60.6436 44.7308 60.3652 44.7308 59.8867V56.0122C44.7308 55.8071 44.6185 55.6655 44.3938 55.5874C44.2962 55.5532 44.1912 55.5264 44.0789 55.5068C43.9666 55.4824 43.8763 55.4604 43.8079 55.4409C43.7444 55.4214 43.7029 55.4043 43.6834 55.3896C43.6688 55.3701 43.6614 55.3335 43.6614 55.2798C43.6614 55.2212 43.698 55.1724 43.7713 55.1333L45.639 54.2544C45.6976 54.2251 45.7342 54.2104 45.7488 54.2104C45.8318 54.2104 45.8733 54.269 45.8733 54.3862V55.5728C45.8733 55.6313 45.888 55.6606 45.9173 55.6606C45.9563 55.6606 46.0564 55.5459 46.2176 55.3164C46.6814 54.667 47.0647 54.3423 47.3675 54.3423C47.5384 54.3423 47.7996 54.4106 48.1512 54.5474C48.5076 54.6841 48.6858 54.7988 48.6858 54.8916C48.6858 55.0039 48.6297 55.1748 48.5174 55.4043C48.4051 55.6338 48.2928 55.7485 48.1805 55.7485ZM56.1864 55.9902C56.1864 56.0977 56.1449 56.1514 56.0619 56.1514C55.9838 56.1514 55.9228 56.0928 55.8788 55.9756C55.7616 55.6533 55.5858 55.3677 55.3515 55.1187C55.122 54.8696 54.8363 54.7451 54.4945 54.7451C54.0453 54.7451 53.7426 54.9697 53.5863 55.4189C53.5375 55.5703 53.5131 55.7266 53.5131 55.8877C53.5131 56.0488 53.6156 56.2295 53.8207 56.4297C54.0258 56.625 54.3627 56.8594 54.8314 57.1328C55.3002 57.4062 55.642 57.6382 55.8568 57.8286C56.3451 58.2632 56.5893 58.7661 56.5893 59.3374C56.5893 59.9087 56.3793 60.3628 55.9594 60.6997C55.5395 61.0317 55.0512 61.1978 54.4945 61.1978C54.1967 61.1978 53.9257 61.1562 53.6815 61.0732C53.4423 60.9951 53.3031 60.9561 53.2641 60.9561C53.2299 60.9561 53.1713 60.9951 53.0883 61.0732C53.0102 61.1562 52.9467 61.1978 52.8979 61.1978H52.7733C52.744 61.1978 52.7074 60.9341 52.6635 60.4067C52.6195 59.8794 52.5976 59.5669 52.5976 59.4692C52.5976 59.3716 52.6049 59.3179 52.6195 59.3081C52.6391 59.2983 52.6684 59.2935 52.7074 59.2935C52.7465 59.2935 52.7782 59.3057 52.8026 59.3301C52.8319 59.3545 52.8563 59.3862 52.8759 59.4253C52.8954 59.4595 52.9101 59.4961 52.9198 59.5352C52.9345 59.5742 52.9662 59.6475 53.015 59.7549C53.3471 60.4629 53.8598 60.8169 54.5531 60.8169C54.8607 60.8169 55.1073 60.7046 55.2929 60.48C55.4784 60.2505 55.5712 59.9966 55.5712 59.7183C55.5712 59.4399 55.4979 59.2056 55.3515 59.0151C55.205 58.8247 55.0219 58.6514 54.8021 58.4951C54.5873 58.3389 54.3529 58.1875 54.099 58.041C53.1127 57.4648 52.6195 56.8276 52.6195 56.1294C52.6195 55.6069 52.8441 55.1577 53.2934 54.7817C53.7426 54.4009 54.204 54.2104 54.6776 54.2104C55.1513 54.2104 55.5004 54.2617 55.725 54.3643C55.9545 54.4668 56.0888 54.5547 56.1278 54.6279C56.1669 54.6963 56.1864 54.9258 56.1864 55.3164V55.9902ZM57.3952 57.7114C57.3952 56.7495 57.7346 55.9243 58.4133 55.2358C59.0969 54.5425 59.9147 54.1958 60.8669 54.1958C61.819 54.1958 62.6467 54.5327 63.3498 55.2065C64.0529 55.8755 64.4045 56.7031 64.4045 57.6895C64.4045 58.6758 64.07 59.5083 63.4011 60.187C62.737 60.8608 61.9021 61.1978 60.8962 61.1978C59.8903 61.1978 59.0554 60.856 58.3913 60.1724C57.7272 59.4888 57.3952 58.6685 57.3952 57.7114ZM59.2189 59.5938C59.6975 60.3994 60.3493 60.8022 61.1745 60.8022C61.8142 60.8022 62.3024 60.5459 62.6394 60.0332C62.9812 59.5205 63.1521 58.8906 63.1521 58.1436C63.1521 57.3965 62.9128 56.6299 62.4343 55.8438C61.9606 55.0576 61.321 54.6646 60.5153 54.6646C59.9245 54.6646 59.4582 54.9209 59.1164 55.4336C58.7795 55.9414 58.611 56.5884 58.611 57.3745C58.611 58.1558 58.8137 58.8955 59.2189 59.5938ZM69.627 55.7485C69.5684 55.7388 69.4829 55.707 69.3706 55.6533C68.9653 55.4678 68.6479 55.375 68.4185 55.375C68.189 55.375 67.9473 55.519 67.6934 55.8071C67.4443 56.0903 67.3198 56.3467 67.3198 56.5762V59.8867C67.3198 60.2529 67.5322 60.4971 67.957 60.6191C68.1426 60.668 68.3159 60.7046 68.4771 60.729C68.6382 60.7485 68.7407 60.7681 68.7847 60.7876C68.8335 60.8071 68.8579 60.8462 68.8579 60.9048C68.8579 60.9585 68.8335 60.9902 68.7847 61H65.1152C65.0664 60.9902 65.042 60.9561 65.042 60.8975C65.042 60.8096 65.1567 60.751 65.3862 60.7217C65.9136 60.6436 66.1772 60.3652 66.1772 59.8867V56.0122C66.1772 55.8071 66.0649 55.6655 65.8403 55.5874C65.7427 55.5532 65.6377 55.5264 65.5254 55.5068C65.4131 55.4824 65.3228 55.4604 65.2544 55.4409C65.1909 55.4214 65.1494 55.4043 65.1299 55.3896C65.1152 55.3701 65.1079 55.3335 65.1079 55.2798C65.1079 55.2212 65.1445 55.1724 65.2178 55.1333L67.0854 54.2544C67.144 54.2251 67.1807 54.2104 67.1953 54.2104C67.2783 54.2104 67.3198 54.269 67.3198 54.3862V55.5728C67.3198 55.6313 67.3345 55.6606 67.3638 55.6606C67.4028 55.6606 67.5029 55.5459 67.6641 55.3164C68.1279 54.667 68.5112 54.3423 68.814 54.3423C68.9849 54.3423 69.2461 54.4106 69.5977 54.5474C69.9541 54.6841 70.1323 54.7988 70.1323 54.8916C70.1323 55.0039 70.0762 55.1748 69.9639 55.4043C69.8516 55.6338 69.7393 55.7485 69.627 55.7485ZM74.8055 55.7485C74.7469 55.7388 74.6614 55.707 74.5491 55.6533C74.1438 55.4678 73.8265 55.375 73.597 55.375C73.3675 55.375 73.1258 55.519 72.8719 55.8071C72.6228 56.0903 72.4983 56.3467 72.4983 56.5762V59.8867C72.4983 60.2529 72.7107 60.4971 73.1355 60.6191C73.3211 60.668 73.4944 60.7046 73.6556 60.729C73.8167 60.7485 73.9192 60.7681 73.9632 60.7876C74.012 60.8071 74.0364 60.8462 74.0364 60.9048C74.0364 60.9585 74.012 60.9902 73.9632 61H70.2937C70.2449 60.9902 70.2205 60.9561 70.2205 60.8975C70.2205 60.8096 70.3353 60.751 70.5647 60.7217C71.0921 60.6436 71.3558 60.3652 71.3558 59.8867V56.0122C71.3558 55.8071 71.2435 55.6655 71.0188 55.5874C70.9212 55.5532 70.8162 55.5264 70.7039 55.5068C70.5916 55.4824 70.5013 55.4604 70.4329 55.4409C70.3694 55.4214 70.3279 55.4043 70.3084 55.3896C70.2937 55.3701 70.2864 55.3335 70.2864 55.2798C70.2864 55.2212 70.323 55.1724 70.3963 55.1333L72.264 54.2544C72.3226 54.2251 72.3592 54.2104 72.3738 54.2104C72.4568 54.2104 72.4983 54.269 72.4983 54.3862V55.5728C72.4983 55.6313 72.513 55.6606 72.5423 55.6606C72.5813 55.6606 72.6814 55.5459 72.8426 55.3164C73.3064 54.667 73.6897 54.3423 73.9925 54.3423C74.1634 54.3423 74.4246 54.4106 74.7762 54.5474C75.1326 54.6841 75.3108 54.7988 75.3108 54.8916C75.3108 55.0039 75.2547 55.1748 75.1424 55.4043C75.0301 55.6338 74.9178 55.7485 74.8055 55.7485ZM75.5675 57.7114C75.5675 56.7495 75.9068 55.9243 76.5855 55.2358C77.2691 54.5425 78.087 54.1958 79.0392 54.1958C79.9913 54.1958 80.8189 54.5327 81.5221 55.2065C82.2252 55.8755 82.5768 56.7031 82.5768 57.6895C82.5768 58.6758 82.2423 59.5083 81.5733 60.187C80.9093 60.8608 80.0743 61.1978 79.0685 61.1978C78.0626 61.1978 77.2276 60.856 76.5636 60.1724C75.8995 59.4888 75.5675 58.6685 75.5675 57.7114ZM77.3912 59.5938C77.8697 60.3994 78.5216 60.8022 79.3468 60.8022C79.9864 60.8022 80.4747 60.5459 80.8116 60.0332C81.1534 59.5205 81.3243 58.8906 81.3243 58.1436C81.3243 57.3965 81.0851 56.6299 80.6065 55.8438C80.1329 55.0576 79.4933 54.6646 78.6876 54.6646C78.0968 54.6646 77.6305 54.9209 77.2887 55.4336C76.9518 55.9414 76.7833 56.5884 76.7833 57.3745C76.7833 58.1558 76.9859 58.8955 77.3912 59.5938ZM94.5595 54.4082C94.6132 54.4229 94.64 54.457 94.64 54.5107C94.64 54.5645 94.6327 54.6035 94.6181 54.6279C94.6034 54.6523 94.496 54.6792 94.2958 54.7085C94.0956 54.7378 93.9516 54.7964 93.8637 54.8843C93.7807 54.9673 93.705 55.0625 93.6366 55.1699C93.5731 55.2773 93.517 55.3896 93.4682 55.5068C93.4193 55.6191 93.3729 55.7217 93.329 55.8145L91.3295 60.9854C91.2709 61.127 91.2172 61.1978 91.1684 61.1978H90.5897C90.5409 61.1978 90.4872 61.1221 90.4286 60.9707L88.8026 56.5688L87.0961 60.9854C87.0375 61.127 86.9838 61.1978 86.935 61.1978H86.3563C86.3075 61.1978 86.2538 61.1221 86.1952 60.9707L84.2543 55.7192C84.0736 55.2261 83.7636 54.9087 83.3241 54.7671C83.2899 54.7573 83.2484 54.75 83.1996 54.7451C82.9945 54.7256 82.892 54.6646 82.892 54.562C82.892 54.4595 82.9506 54.4082 83.0678 54.4082H86.327C86.3661 54.4082 86.3856 54.4473 86.3856 54.5254C86.3856 54.5986 86.3588 54.6475 86.3051 54.6719C86.2172 54.7061 86.0658 54.7207 85.851 54.7158C85.4945 54.7061 85.3163 54.8525 85.3163 55.1553L85.331 55.3311L86.8178 59.396C86.9154 59.645 87.0131 59.6377 87.1107 59.374C87.1205 59.3496 87.3231 58.8369 87.7187 57.8359C88.119 56.835 88.3754 56.1294 88.4877 55.7192C88.307 55.2261 87.997 54.9087 87.5575 54.7671C87.5233 54.7573 87.4818 54.75 87.433 54.7451C87.2279 54.7256 87.1254 54.6646 87.1254 54.562C87.1254 54.4595 87.184 54.4082 87.3012 54.4082H90.5604C90.5995 54.4082 90.619 54.4473 90.619 54.5254C90.619 54.5986 90.5922 54.6475 90.5385 54.6719C90.4506 54.7061 90.2992 54.7207 90.0844 54.7158C89.7279 54.7061 89.5497 54.8525 89.5497 55.1553L89.5644 55.3311L91.0512 59.396C91.1488 59.645 91.2465 59.6377 91.3441 59.374C91.3539 59.3496 91.4174 59.1909 91.5346 58.8979C92.1352 57.394 92.4892 56.4663 92.5966 56.1147C92.7089 55.7583 92.765 55.5142 92.765 55.3823C92.765 55.2505 92.6942 55.1138 92.5526 54.9722C92.411 54.8257 92.2206 54.7524 91.9813 54.7524C91.7421 54.7524 91.6225 54.6792 91.6225 54.5327C91.6225 54.4497 91.6762 54.4082 91.7836 54.4082H94.5595ZM97.4821 60.6191C97.4821 61.5273 97.0549 62.2842 96.2004 62.8896C96.0051 63.0312 95.8586 63.1021 95.7609 63.1021C95.6877 63.1021 95.6511 63.0361 95.6511 62.9043C95.6511 62.8262 95.7023 62.7505 95.8049 62.6772C95.9123 62.6089 95.9904 62.5527 96.0393 62.5088C96.5324 62.0645 96.779 61.6616 96.779 61.3003C96.779 61.1587 96.7497 61.0732 96.6911 61.0439C96.6374 61.0146 96.5178 61 96.3322 61C96.1467 61 95.9514 60.9292 95.7463 60.7876C95.5461 60.646 95.446 60.4385 95.446 60.165C95.446 59.8916 95.5119 59.6963 95.6438 59.5791C95.8684 59.374 96.0832 59.2715 96.2883 59.2715C96.6691 59.2715 96.9621 59.4229 97.1672 59.7256C97.3772 60.0234 97.4821 60.3213 97.4821 60.6191ZM104.719 60.7656C104.719 60.7266 104.741 60.707 104.785 60.707H104.99C105.469 60.707 105.852 60.6045 106.14 60.3994C106.433 60.1943 106.579 59.9551 106.579 59.6816V51.5737C106.579 51.4712 106.557 51.415 106.513 51.4053C106.474 51.3906 106.426 51.3784 106.367 51.3687H103.554C103.1 51.4663 102.803 51.8154 102.661 52.416C102.583 52.7383 102.536 52.9458 102.522 53.0386C102.507 53.1265 102.48 53.1704 102.441 53.1704H102.309C102.28 53.1704 102.265 53.1606 102.265 53.1411V52.8994L102.536 50.6143C102.566 50.4629 102.615 50.3872 102.683 50.3872C102.751 50.3872 102.825 50.436 102.903 50.5337C102.981 50.6265 103.13 50.6729 103.349 50.6729H111.245C111.455 50.6729 111.582 50.6484 111.626 50.5996C111.67 50.5508 111.711 50.5044 111.75 50.4604C111.789 50.4116 111.838 50.3872 111.897 50.3872C111.96 50.3872 111.999 50.4116 112.014 50.4604C112.033 50.5093 112.048 50.5605 112.058 50.6143L112.329 52.8994V53.1411C112.329 53.1606 112.314 53.1704 112.285 53.1704H112.153C112.114 53.1704 112.087 53.1338 112.073 53.0605C111.994 52.5723 111.882 52.1865 111.736 51.9033C111.589 51.6152 111.357 51.437 111.04 51.3687H108.22C108.161 51.3784 108.11 51.3906 108.066 51.4053C108.027 51.415 108.008 51.4712 108.008 51.5737V59.6816C108.008 59.9551 108.152 60.1943 108.44 60.3994C108.733 60.6045 109.118 60.707 109.597 60.707H109.809C109.848 60.707 109.868 60.7266 109.868 60.7656V60.9414C109.868 60.9805 109.848 61 109.809 61H104.778C104.739 61 104.719 60.9805 104.719 60.9414V60.7656ZM124.224 54.4082C124.277 54.4229 124.304 54.457 124.304 54.5107C124.304 54.5645 124.297 54.6035 124.282 54.6279C124.268 54.6523 124.16 54.6792 123.96 54.7085C123.76 54.7378 123.616 54.7964 123.528 54.8843C123.445 54.9673 123.369 55.0625 123.301 55.1699C123.237 55.2773 123.181 55.3896 123.132 55.5068C123.084 55.6191 123.037 55.7217 122.993 55.8145L120.994 60.9854C120.935 61.127 120.881 61.1978 120.833 61.1978H120.254C120.205 61.1978 120.151 61.1221 120.093 60.9707L118.467 56.5688L116.76 60.9854C116.702 61.127 116.648 61.1978 116.599 61.1978H116.021C115.972 61.1978 115.918 61.1221 115.859 60.9707L113.919 55.7192C113.738 55.2261 113.428 54.9087 112.988 54.7671C112.954 54.7573 112.913 54.75 112.864 54.7451C112.659 54.7256 112.556 54.6646 112.556 54.562C112.556 54.4595 112.615 54.4082 112.732 54.4082H115.991C116.03 54.4082 116.05 54.4473 116.05 54.5254C116.05 54.5986 116.023 54.6475 115.969 54.6719C115.881 54.7061 115.73 54.7207 115.515 54.7158C115.159 54.7061 114.981 54.8525 114.981 55.1553L114.995 55.3311L116.482 59.396C116.58 59.645 116.677 59.6377 116.775 59.374C116.785 59.3496 116.987 58.8369 117.383 57.8359C117.783 56.835 118.04 56.1294 118.152 55.7192C117.971 55.2261 117.661 54.9087 117.222 54.7671C117.188 54.7573 117.146 54.75 117.097 54.7451C116.892 54.7256 116.79 54.6646 116.79 54.562C116.79 54.4595 116.848 54.4082 116.965 54.4082H120.225C120.264 54.4082 120.283 54.4473 120.283 54.5254C120.283 54.5986 120.256 54.6475 120.203 54.6719C120.115 54.7061 119.963 54.7207 119.749 54.7158C119.392 54.7061 119.214 54.8525 119.214 55.1553L119.229 55.3311L120.715 59.396C120.813 59.645 120.911 59.6377 121.008 59.374C121.018 59.3496 121.082 59.1909 121.199 58.8979C121.799 57.394 122.153 56.4663 122.261 56.1147C122.373 55.7583 122.429 55.5142 122.429 55.3823C122.429 55.2505 122.358 55.1138 122.217 54.9722C122.075 54.8257 121.885 54.7524 121.646 54.7524C121.406 54.7524 121.287 54.6792 121.287 54.5327C121.287 54.4497 121.34 54.4082 121.448 54.4082H124.224ZM124.773 57.7114C124.773 56.7495 125.113 55.9243 125.791 55.2358C126.475 54.5425 127.293 54.1958 128.245 54.1958C129.197 54.1958 130.025 54.5327 130.728 55.2065C131.431 55.8755 131.783 56.7031 131.783 57.6895C131.783 58.6758 131.448 59.5083 130.779 60.187C130.115 60.8608 129.28 61.1978 128.274 61.1978C127.268 61.1978 126.433 60.856 125.769 60.1724C125.105 59.4888 124.773 58.6685 124.773 57.7114ZM126.597 59.5938C127.076 60.3994 127.727 60.8022 128.553 60.8022C129.192 60.8022 129.681 60.5459 130.017 60.0332C130.359 59.5205 130.53 58.8906 130.53 58.1436C130.53 57.3965 130.291 56.6299 129.812 55.8438C129.339 55.0576 128.699 54.6646 127.893 54.6646C127.303 54.6646 126.836 54.9209 126.495 55.4336C126.158 55.9414 125.989 56.5884 125.989 57.3745C125.989 58.1558 126.192 58.8955 126.597 59.5938ZM140.287 60.8828C140.287 60.9609 140.243 61 140.155 61H136.134C136.085 60.9902 136.061 60.9561 136.061 60.8975C136.061 60.8096 136.175 60.751 136.405 60.7217C136.932 60.6436 137.196 60.3652 137.196 59.8867V55.4482C137.196 55.3945 137.167 55.3677 137.108 55.3677H136.31C136.251 55.3677 136.195 55.3506 136.141 55.3164C136.087 55.2773 136.061 55.2285 136.061 55.1699C136.061 55.1064 136.09 55.0576 136.148 55.0234C136.231 54.9746 136.427 54.9087 136.734 54.8257C137.042 54.7427 137.196 54.606 137.196 54.4155V54.1738C137.196 52.416 137.577 51.0635 138.338 50.1162C138.763 49.584 139.41 49.1738 140.279 48.8857C140.543 48.7979 140.804 48.7539 141.063 48.7539C141.322 48.7539 141.625 48.8223 141.971 48.959C142.318 49.0908 142.491 49.252 142.491 49.4424C142.491 49.4814 142.484 49.5156 142.469 49.5449C142.459 49.5742 142.447 49.6108 142.433 49.6548L142.132 50.2993C142.093 50.3774 142.047 50.4165 141.993 50.4165C141.979 50.4165 141.874 50.3408 141.678 50.1895C141.483 50.0332 141.275 49.8916 141.056 49.7646C140.841 49.6328 140.587 49.5669 140.294 49.5669C139.723 49.5669 139.291 49.7134 138.998 50.0063C138.705 50.2993 138.521 50.6313 138.448 51.0024C138.375 51.3687 138.338 51.7739 138.338 52.2183V54.3496C138.338 54.3887 138.363 54.4082 138.412 54.4082H139.84C139.977 54.4082 140.064 54.4229 140.104 54.4521C140.147 54.4766 140.189 54.5645 140.228 54.7158C140.267 54.8623 140.287 54.999 140.287 55.126C140.287 55.248 140.274 55.3188 140.25 55.3384C140.226 55.3579 140.174 55.3677 140.096 55.3677H138.434C138.37 55.3677 138.338 55.3921 138.338 55.4409V59.7402C138.338 60.4385 138.944 60.7876 140.155 60.7876C140.243 60.7974 140.287 60.8291 140.287 60.8828ZM140.587 57.7114C140.587 56.7495 140.927 55.9243 141.605 55.2358C142.289 54.5425 143.107 54.1958 144.059 54.1958C145.011 54.1958 145.839 54.5327 146.542 55.2065C147.245 55.8755 147.596 56.7031 147.596 57.6895C147.596 58.6758 147.262 59.5083 146.593 60.187C145.929 60.8608 145.094 61.1978 144.088 61.1978C143.082 61.1978 142.247 60.856 141.583 60.1724C140.919 59.4888 140.587 58.6685 140.587 57.7114ZM142.411 59.5938C142.889 60.3994 143.541 60.8022 144.367 60.8022C145.006 60.8022 145.494 60.5459 145.831 60.0332C146.173 59.5205 146.344 58.8906 146.344 58.1436C146.344 57.3965 146.105 56.6299 145.626 55.8438C145.153 55.0576 144.513 54.6646 143.707 54.6646C143.117 54.6646 142.65 54.9209 142.308 55.4336C141.971 55.9414 141.803 56.5884 141.803 57.3745C141.803 58.1558 142.006 58.8955 142.411 59.5938ZM152.819 55.7485C152.76 55.7388 152.675 55.707 152.563 55.6533C152.157 55.4678 151.84 55.375 151.61 55.375C151.381 55.375 151.139 55.519 150.885 55.8071C150.636 56.0903 150.512 56.3467 150.512 56.5762V59.8867C150.512 60.2529 150.724 60.4971 151.149 60.6191C151.335 60.668 151.508 60.7046 151.669 60.729C151.83 60.7485 151.933 60.7681 151.977 60.7876C152.025 60.8071 152.05 60.8462 152.05 60.9048C152.05 60.9585 152.025 60.9902 151.977 61H148.307C148.258 60.9902 148.234 60.9561 148.234 60.8975C148.234 60.8096 148.349 60.751 148.578 60.7217C149.106 60.6436 149.369 60.3652 149.369 59.8867V56.0122C149.369 55.8071 149.257 55.6655 149.032 55.5874C148.935 55.5532 148.83 55.5264 148.717 55.5068C148.605 55.4824 148.515 55.4604 148.446 55.4409C148.383 55.4214 148.341 55.4043 148.322 55.3896C148.307 55.3701 148.3 55.3335 148.3 55.2798C148.3 55.2212 148.337 55.1724 148.41 55.1333L150.277 54.2544C150.336 54.2251 150.373 54.2104 150.387 54.2104C150.47 54.2104 150.512 54.269 150.512 54.3862V55.5728C150.512 55.6313 150.526 55.6606 150.556 55.6606C150.595 55.6606 150.695 55.5459 150.856 55.3164C151.32 54.667 151.703 54.3423 152.006 54.3423C152.177 54.3423 152.438 54.4106 152.79 54.5474C153.146 54.6841 153.324 54.7988 153.324 54.8916C153.324 55.0039 153.268 55.1748 153.156 55.4043C153.044 55.6338 152.931 55.7485 152.819 55.7485ZM10.166 79.6929L10.1514 78.1475C10.1514 77.5176 10.0977 77.0757 9.99023 76.8218C9.88281 76.5679 9.74609 76.3774 9.58008 76.2505C9.41406 76.1187 9.18945 76.0527 8.90625 76.0527C8.62793 76.0527 8.03467 76.2725 7.12646 76.7119C7.00439 76.7852 6.94092 76.8535 6.93604 76.917V80.8574C6.93604 81.3506 7.19971 81.6338 7.72705 81.707C7.95654 81.7412 8.07129 81.7974 8.07129 81.8755C8.07129 81.9487 8.04688 81.9902 7.99805 82H4.73145C4.68262 81.9902 4.6582 81.9561 4.6582 81.8975C4.6582 81.8047 4.77295 81.7412 5.00244 81.707C5.52979 81.6338 5.79346 81.3506 5.79346 80.8574V77.21C5.79346 76.4434 5.31982 76.0601 4.37256 76.0601C4.02588 76.0601 3.54492 76.2651 2.92969 76.6753C2.77344 76.7778 2.65869 76.873 2.58545 76.9609V80.8574C2.58545 81.3506 2.84912 81.6338 3.37646 81.707C3.60596 81.7412 3.7207 81.7974 3.7207 81.8755C3.7207 81.9487 3.69629 81.9902 3.64746 82H0.380859C0.332031 81.9902 0.307617 81.9561 0.307617 81.8975C0.307617 81.8047 0.422363 81.7412 0.651855 81.707C1.1792 81.6338 1.44287 81.3555 1.44287 80.8721V76.6533C1.44287 76.4482 1.33057 76.3066 1.10596 76.2285C1.0083 76.1943 0.90332 76.1675 0.791016 76.1479C0.678711 76.1235 0.588379 76.1016 0.52002 76.082C0.456543 76.0625 0.415039 76.0454 0.395508 76.0308C0.380859 76.0112 0.373535 75.9746 0.373535 75.9209C0.373535 75.8623 0.410156 75.8135 0.483398 75.7744L2.35107 74.8955C2.40967 74.8662 2.44629 74.8516 2.46094 74.8516C2.54395 74.8516 2.58545 74.9102 2.58545 75.0273V76.2432C2.59033 76.2725 2.60742 76.2871 2.63672 76.2871C2.6709 76.2871 2.75146 76.2529 2.87842 76.1846C3.01025 76.1162 3.18115 76.021 3.39111 75.8989C3.60107 75.772 3.87695 75.6255 4.21875 75.4595C4.56543 75.2935 4.93164 75.2104 5.31738 75.2104C5.9375 75.2104 6.38184 75.4766 6.65039 76.0088C6.75293 76.2236 6.8457 76.3164 6.92871 76.2871C7.01172 76.2529 7.14111 76.1919 7.31689 76.104C7.73193 75.8989 8.15186 75.6987 8.57666 75.5034C9.00146 75.3081 9.35303 75.2104 9.63135 75.2104C10.7593 75.2104 11.3232 76.2383 11.3232 78.2939L11.2573 80.4326V80.8574C11.2573 81.2383 11.4478 81.4873 11.8286 81.6045C11.9897 81.6582 12.1436 81.6973 12.29 81.7217C12.4414 81.7412 12.5391 81.7607 12.583 81.7803C12.6318 81.7998 12.6562 81.8389 12.6562 81.8975C12.6562 81.9561 12.6318 81.9902 12.583 82H9.05273C9.00391 81.9902 8.97949 81.9561 8.97949 81.8975C8.97949 81.8047 9.09424 81.7412 9.32373 81.707C9.84619 81.6338 10.1074 81.3311 10.1074 80.7988C10.1465 80.5547 10.166 80.186 10.166 79.6929ZM12.8982 82C12.8494 81.9902 12.825 81.9561 12.825 81.8975C12.825 81.8096 12.9397 81.751 13.1692 81.7217C13.6966 81.6436 13.9603 81.3652 13.9603 80.8867V77.0122C13.9603 76.8071 13.8479 76.6655 13.6233 76.5874C13.5257 76.5532 13.4207 76.5264 13.3084 76.5068C13.1961 76.4824 13.1058 76.4604 13.0374 76.4409C12.9739 76.4214 12.9324 76.4043 12.9129 76.3896C12.8982 76.3701 12.8909 76.3335 12.8909 76.2798C12.8909 76.2212 12.9275 76.1724 13.0008 76.1333L14.8685 75.2544C14.9271 75.2251 14.9637 75.2104 14.9783 75.2104C15.0613 75.2104 15.1028 75.269 15.1028 75.3862V80.8867C15.1028 81.3652 15.3665 81.6436 15.8938 81.7217C16.1233 81.751 16.2381 81.8022 16.2381 81.8755C16.2381 81.9487 16.2137 81.9902 16.1648 82H12.8982ZM14.4217 73.1523C14.2215 73.1523 14.0433 73.0889 13.887 72.9619C13.7356 72.835 13.66 72.6592 13.66 72.4346C13.66 72.2051 13.7332 72.0244 13.8797 71.8926C14.0262 71.7607 14.1995 71.6948 14.3997 71.6948C14.6048 71.6948 14.7757 71.7729 14.9124 71.9292C15.054 72.0854 15.1248 72.2539 15.1248 72.4346C15.1248 72.6152 15.0589 72.7812 14.9271 72.9326C14.7952 73.0791 14.6268 73.1523 14.4217 73.1523ZM21.2701 76.7485C21.2115 76.7388 21.1261 76.707 21.0138 76.6533C20.6085 76.4678 20.2911 76.375 20.0616 76.375C19.8321 76.375 19.5904 76.519 19.3365 76.8071C19.0875 77.0903 18.963 77.3467 18.963 77.5762V80.8867C18.963 81.2529 19.1754 81.4971 19.6002 81.6191C19.7857 81.668 19.9591 81.7046 20.1202 81.729C20.2813 81.7485 20.3839 81.7681 20.4278 81.7876C20.4767 81.8071 20.5011 81.8462 20.5011 81.9048C20.5011 81.9585 20.4767 81.9902 20.4278 82H16.7584C16.7096 81.9902 16.6852 81.9561 16.6852 81.8975C16.6852 81.8096 16.7999 81.751 17.0294 81.7217C17.5567 81.6436 17.8204 81.3652 17.8204 80.8867V77.0122C17.8204 76.8071 17.7081 76.6655 17.4835 76.5874C17.3858 76.5532 17.2809 76.5264 17.1686 76.5068C17.0562 76.4824 16.9659 76.4604 16.8976 76.4409C16.8341 76.4214 16.7926 76.4043 16.773 76.3896C16.7584 76.3701 16.7511 76.3335 16.7511 76.2798C16.7511 76.2212 16.7877 76.1724 16.8609 76.1333L18.7286 75.2544C18.7872 75.2251 18.8238 75.2104 18.8385 75.2104C18.9215 75.2104 18.963 75.269 18.963 75.3862V76.5728C18.963 76.6313 18.9776 76.6606 19.0069 76.6606C19.046 76.6606 19.1461 76.5459 19.3072 76.3164C19.7711 75.667 20.1544 75.3423 20.4571 75.3423C20.628 75.3423 20.8893 75.4106 21.2408 75.5474C21.5973 75.6841 21.7755 75.7988 21.7755 75.8916C21.7755 76.0039 21.7193 76.1748 21.607 76.4043C21.4947 76.6338 21.3824 76.7485 21.2701 76.7485ZM23.7753 76.3677C23.746 76.3677 23.7313 76.3896 23.7313 76.4336V80.4766C23.7313 80.7695 23.7948 80.999 23.9218 81.165C24.0536 81.3311 24.2196 81.4141 24.4198 81.4141C24.62 81.4141 24.7934 81.3823 24.9398 81.3188C25.0912 81.2505 25.2206 81.1772 25.328 81.0991C25.4403 81.021 25.5404 80.9502 25.6283 80.8867C25.7162 80.8184 25.7943 80.7842 25.8627 80.7842C25.9311 80.7842 25.9652 80.8013 25.9652 80.8354C25.9652 80.9526 25.953 81.0283 25.9286 81.0625C25.3427 81.8193 24.7763 82.1978 24.2294 82.1978C23.6874 82.1978 23.2772 82.0269 22.9989 81.6851C22.7255 81.3384 22.5888 80.9258 22.5888 80.4473V76.3677H22.0395C21.9027 76.3677 21.8295 76.3237 21.8197 76.2358C21.8148 76.1479 21.8295 76.0918 21.8637 76.0674C22.1225 75.9014 22.4789 75.6035 22.933 75.1738C22.9818 75.1201 23.0478 75.0396 23.1308 74.9321C23.2138 74.8247 23.3334 74.6782 23.4896 74.4927C23.6508 74.3071 23.7729 74.2144 23.8559 74.2144C23.9389 74.2144 23.9804 74.2485 23.9804 74.3169C23.9804 74.3267 23.8974 74.6465 23.7313 75.2764C23.7313 75.3643 23.7704 75.4106 23.8485 75.4155H25.7162C25.9311 75.4155 26.0385 75.7183 26.0385 76.3237C26.0385 76.353 26.0189 76.3677 25.9799 76.3677H23.7753ZM28.4265 76.3311C28.4265 76.4482 28.4436 76.5068 28.4777 76.5068C28.5119 76.5068 28.5363 76.4995 28.551 76.4849C28.5656 76.4653 28.6682 76.3506 28.8586 76.1406C29.4104 75.5254 29.9694 75.2178 30.5358 75.2178C31.278 75.2178 31.8225 75.3838 32.1691 75.7158C32.5939 76.1357 32.8063 76.8413 32.8063 77.8325V80.8867C32.8063 81.3652 33.07 81.6436 33.5974 81.7217C33.8269 81.751 33.9416 81.8022 33.9416 81.8755C33.9416 81.9487 33.9172 81.9902 33.8684 82H30.6018C30.5529 81.9902 30.5285 81.9561 30.5285 81.8975C30.5285 81.8096 30.6433 81.751 30.8728 81.7217C31.4001 81.6436 31.6638 81.3652 31.6638 80.8867V77.9058C31.6638 77.188 31.6125 76.7217 31.51 76.5068C31.3146 76.0771 30.9069 75.8623 30.2868 75.8623C29.906 75.8623 29.5007 76.0259 29.071 76.353C28.6413 76.6753 28.4265 77.0317 28.4265 77.4224V80.8867C28.4265 81.3652 28.6901 81.6436 29.2175 81.7217C29.447 81.751 29.5617 81.8022 29.5617 81.8755C29.5617 81.9487 29.5373 81.9902 29.4885 82H26.2219C26.173 81.9902 26.1486 81.9561 26.1486 81.8975C26.1486 81.8096 26.2634 81.751 26.4929 81.7217C27.0202 81.6436 27.2839 81.3652 27.2839 80.8867V71.7534C27.2839 71.5483 27.1716 71.4067 26.947 71.3286C26.8493 71.2944 26.7443 71.2676 26.632 71.248C26.5197 71.2236 26.4294 71.2017 26.361 71.1821C26.2976 71.1626 26.2561 71.1455 26.2365 71.1309C26.2219 71.1113 26.2146 71.0747 26.2146 71.021C26.2146 70.9624 26.2512 70.9136 26.3244 70.8745L28.1921 69.9956C28.2507 69.9663 28.2873 69.9517 28.302 69.9517C28.385 69.9517 28.4265 70.0103 28.4265 70.1274V76.3311ZM36.7837 81.6191C36.7837 82.5273 36.3564 83.2842 35.502 83.8896C35.3066 84.0312 35.1602 84.1021 35.0625 84.1021C34.9893 84.1021 34.9526 84.0361 34.9526 83.9043C34.9526 83.8262 35.0039 83.7505 35.1064 83.6772C35.2139 83.6089 35.292 83.5527 35.3408 83.5088C35.834 83.0645 36.0806 82.6616 36.0806 82.3003C36.0806 82.1587 36.0513 82.0732 35.9927 82.0439C35.939 82.0146 35.8193 82 35.6338 82C35.4482 82 35.2529 81.9292 35.0479 81.7876C34.8477 81.646 34.7476 81.4385 34.7476 81.165C34.7476 80.8916 34.8135 80.6963 34.9453 80.5791C35.1699 80.374 35.3848 80.2715 35.5898 80.2715C35.9707 80.2715 36.2637 80.4229 36.4688 80.7256C36.6787 81.0234 36.7837 81.3213 36.7837 81.6191ZM44.0206 81.7656C44.0206 81.7266 44.0426 81.707 44.0865 81.707H44.2916C44.7701 81.707 45.1534 81.6045 45.4415 81.3994C45.7345 81.1943 45.881 80.9551 45.881 80.6816V72.5737C45.881 72.4712 45.859 72.415 45.815 72.4053C45.776 72.3906 45.7271 72.3784 45.6686 72.3687H42.8561C42.402 72.4663 42.1041 72.8154 41.9625 73.416C41.8844 73.7383 41.838 73.9458 41.8233 74.0386C41.8087 74.1265 41.7818 74.1704 41.7428 74.1704H41.6109C41.5816 74.1704 41.567 74.1606 41.567 74.1411V73.8994L41.838 71.6143C41.8673 71.4629 41.9161 71.3872 41.9845 71.3872C42.0528 71.3872 42.1261 71.436 42.2042 71.5337C42.2823 71.6265 42.4313 71.6729 42.651 71.6729H50.5465C50.7564 71.6729 50.8834 71.6484 50.9273 71.5996C50.9713 71.5508 51.0128 71.5044 51.0519 71.4604C51.0909 71.4116 51.1397 71.3872 51.1983 71.3872C51.2618 71.3872 51.3009 71.4116 51.3155 71.4604C51.3351 71.5093 51.3497 71.5605 51.3595 71.6143L51.6305 73.8994V74.1411C51.6305 74.1606 51.6158 74.1704 51.5865 74.1704H51.4547C51.4156 74.1704 51.3888 74.1338 51.3741 74.0605C51.296 73.5723 51.1837 73.1865 51.0372 72.9033C50.8907 72.6152 50.6588 72.437 50.3414 72.3687H47.5216C47.463 72.3784 47.4117 72.3906 47.3678 72.4053C47.3287 72.415 47.3092 72.4712 47.3092 72.5737V80.6816C47.3092 80.9551 47.4532 81.1943 47.7413 81.3994C48.0343 81.6045 48.42 81.707 48.8985 81.707H49.1109C49.15 81.707 49.1695 81.7266 49.1695 81.7656V81.9414C49.1695 81.9805 49.15 82 49.1109 82H44.0792C44.0401 82 44.0206 81.9805 44.0206 81.9414V81.7656ZM54.2968 76.3311C54.2968 76.4482 54.3139 76.5068 54.348 76.5068C54.3822 76.5068 54.4066 76.4995 54.4213 76.4849C54.4359 76.4653 54.5385 76.3506 54.7289 76.1406C55.2807 75.5254 55.8397 75.2178 56.4062 75.2178C57.1483 75.2178 57.6928 75.3838 58.0395 75.7158C58.4643 76.1357 58.6767 76.8413 58.6767 77.8325V80.8867C58.6767 81.3652 58.9403 81.6436 59.4677 81.7217C59.6972 81.751 59.8119 81.8022 59.8119 81.8755C59.8119 81.9487 59.7875 81.9902 59.7387 82H56.4721C56.4232 81.9902 56.3988 81.9561 56.3988 81.8975C56.3988 81.8096 56.5136 81.751 56.7431 81.7217C57.2704 81.6436 57.5341 81.3652 57.5341 80.8867V77.9058C57.5341 77.188 57.4828 76.7217 57.3803 76.5068C57.185 76.0771 56.7772 75.8623 56.1571 75.8623C55.7763 75.8623 55.371 76.0259 54.9413 76.353C54.5116 76.6753 54.2968 77.0317 54.2968 77.4224V80.8867C54.2968 81.3652 54.5604 81.6436 55.0878 81.7217C55.3173 81.751 55.432 81.8022 55.432 81.8755C55.432 81.9487 55.4076 81.9902 55.3588 82H52.0922C52.0434 81.9902 52.0189 81.9561 52.0189 81.8975C52.0189 81.8096 52.1337 81.751 52.3632 81.7217C52.8905 81.6436 53.1542 81.3652 53.1542 80.8867V71.7534C53.1542 71.5483 53.0419 71.4067 52.8173 71.3286C52.7196 71.2944 52.6146 71.2676 52.5023 71.248C52.39 71.2236 52.2997 71.2017 52.2313 71.1821C52.1679 71.1626 52.1264 71.1455 52.1068 71.1309C52.0922 71.1113 52.0849 71.0747 52.0849 71.021C52.0849 70.9624 52.1215 70.9136 52.1947 70.8745L54.0624 69.9956C54.121 69.9663 54.1576 69.9517 54.1723 69.9517C54.2553 69.9517 54.2968 70.0103 54.2968 70.1274V76.3311ZM64.6975 76.7485C64.6389 76.7388 64.5534 76.707 64.4411 76.6533C64.0358 76.4678 63.7185 76.375 63.489 76.375C63.2595 76.375 63.0178 76.519 62.7639 76.8071C62.5148 77.0903 62.3903 77.3467 62.3903 77.5762V80.8867C62.3903 81.2529 62.6027 81.4971 63.0275 81.6191C63.2131 81.668 63.3864 81.7046 63.5476 81.729C63.7087 81.7485 63.8112 81.7681 63.8552 81.7876C63.904 81.8071 63.9284 81.8462 63.9284 81.9048C63.9284 81.9585 63.904 81.9902 63.8552 82H60.1857C60.1369 81.9902 60.1125 81.9561 60.1125 81.8975C60.1125 81.8096 60.2272 81.751 60.4567 81.7217C60.9841 81.6436 61.2478 81.3652 61.2478 80.8867V77.0122C61.2478 76.8071 61.1354 76.6655 60.9108 76.5874C60.8132 76.5532 60.7082 76.5264 60.5959 76.5068C60.4836 76.4824 60.3933 76.4604 60.3249 76.4409C60.2614 76.4214 60.2199 76.4043 60.2004 76.3896C60.1857 76.3701 60.1784 76.3335 60.1784 76.2798C60.1784 76.2212 60.215 76.1724 60.2883 76.1333L62.156 75.2544C62.2146 75.2251 62.2512 75.2104 62.2658 75.2104C62.3488 75.2104 62.3903 75.269 62.3903 75.3862V76.5728C62.3903 76.6313 62.405 76.6606 62.4343 76.6606C62.4733 76.6606 62.5734 76.5459 62.7346 76.3164C63.1984 75.667 63.5817 75.3423 63.8845 75.3423C64.0554 75.3423 64.3166 75.4106 64.6682 75.5474C65.0246 75.6841 65.2028 75.7988 65.2028 75.8916C65.2028 76.0039 65.1467 76.1748 65.0344 76.4043C64.9221 76.6338 64.8098 76.7485 64.6975 76.7485ZM66.6021 78.1401C66.519 78.1401 66.4775 78.3184 66.4775 78.6748C66.4775 79.4316 66.7021 80.0664 67.1514 80.5791C67.6006 81.0918 68.1572 81.3481 68.8213 81.3481C69.4902 81.3481 70.1323 81.0601 70.7476 80.4839C70.7573 80.4741 70.7695 80.4692 70.7842 80.4692H70.8208C70.8501 80.4692 70.877 80.4937 70.9014 80.5425C70.9307 80.5864 70.9575 80.6157 70.9819 80.6304C70.4155 81.3188 69.749 81.7949 68.9824 82.0586C68.7188 82.1514 68.4209 82.1978 68.0889 82.1978C67.7568 82.1978 67.4199 82.1074 67.0781 81.9268C66.7363 81.7412 66.4434 81.4995 66.1992 81.2017C65.6816 80.5815 65.4229 79.8101 65.4229 78.8872C65.4229 77.9595 65.7036 77.1147 66.2651 76.353C66.8315 75.5913 67.6079 75.2104 68.5942 75.2104C69.3022 75.2104 69.8809 75.5278 70.3301 76.1626C70.7793 76.7925 71.0039 77.3467 71.0039 77.8252C71.0039 78.0352 70.9526 78.1401 70.8501 78.1401H66.6021ZM66.6826 77.437C66.6826 77.5298 66.7266 77.5762 66.8145 77.5762H69.5757C69.7026 77.5762 69.7661 77.5005 69.7661 77.3491C69.7661 76.9976 69.6074 76.6387 69.29 76.2725C68.9775 75.9014 68.6333 75.7158 68.2573 75.7158C67.8911 75.7158 67.5566 75.8818 67.2539 76.2139C66.9561 76.5459 66.7656 76.9243 66.6826 77.3491V77.437ZM73.1136 78.1401C73.0306 78.1401 72.9891 78.3184 72.9891 78.6748C72.9891 79.4316 73.2137 80.0664 73.6629 80.5791C74.1121 81.0918 74.6687 81.3481 75.3328 81.3481C76.0018 81.3481 76.6438 81.0601 77.2591 80.4839C77.2688 80.4741 77.2811 80.4692 77.2957 80.4692H77.3323C77.3616 80.4692 77.3885 80.4937 77.4129 80.5425C77.4422 80.5864 77.469 80.6157 77.4935 80.6304C76.927 81.3188 76.2605 81.7949 75.4939 82.0586C75.2303 82.1514 74.9324 82.1978 74.6004 82.1978C74.2684 82.1978 73.9314 82.1074 73.5896 81.9268C73.2478 81.7412 72.9549 81.4995 72.7107 81.2017C72.1932 80.5815 71.9344 79.8101 71.9344 78.8872C71.9344 77.9595 72.2151 77.1147 72.7767 76.353C73.3431 75.5913 74.1194 75.2104 75.1058 75.2104C75.8138 75.2104 76.3924 75.5278 76.8416 76.1626C77.2908 76.7925 77.5154 77.3467 77.5154 77.8252C77.5154 78.0352 77.4642 78.1401 77.3616 78.1401H73.1136ZM73.1941 77.437C73.1941 77.5298 73.2381 77.5762 73.326 77.5762H76.0872C76.2142 77.5762 76.2776 77.5005 76.2776 77.3491C76.2776 76.9976 76.1189 76.6387 75.8016 76.2725C75.4891 75.9014 75.1448 75.7158 74.7688 75.7158C74.4026 75.7158 74.0682 75.8818 73.7654 76.2139C73.4676 76.5459 73.2771 76.9243 73.1941 77.3491V77.437ZM86.1806 81.8828C86.1806 81.9609 86.1366 82 86.0487 82H82.0277C81.9789 81.9902 81.9545 81.9561 81.9545 81.8975C81.9545 81.8096 82.0692 81.751 82.2987 81.7217C82.8261 81.6436 83.0897 81.3652 83.0897 80.8867V76.4482C83.0897 76.3945 83.0604 76.3677 83.0019 76.3677H82.2035C82.1449 76.3677 82.0888 76.3506 82.0351 76.3164C81.9813 76.2773 81.9545 76.2285 81.9545 76.1699C81.9545 76.1064 81.9838 76.0576 82.0424 76.0234C82.1254 75.9746 82.3207 75.9087 82.6283 75.8257C82.9359 75.7427 83.0897 75.606 83.0897 75.4155V75.1738C83.0897 73.416 83.4706 72.0635 84.2323 71.1162C84.6571 70.584 85.3041 70.1738 86.1732 69.8857C86.4369 69.7979 86.6981 69.7539 86.9569 69.7539C87.2157 69.7539 87.5185 69.8223 87.8651 69.959C88.2118 70.0908 88.3852 70.252 88.3852 70.4424C88.3852 70.4814 88.3778 70.5156 88.3632 70.5449C88.3534 70.5742 88.3412 70.6108 88.3266 70.6548L88.0263 71.2993C87.9872 71.3774 87.9408 71.4165 87.8871 71.4165C87.8725 71.4165 87.7675 71.3408 87.5722 71.1895C87.3769 71.0332 87.1693 70.8916 86.9496 70.7646C86.7348 70.6328 86.4809 70.5669 86.1879 70.5669C85.6166 70.5669 85.1845 70.7134 84.8915 71.0063C84.5985 71.2993 84.4154 71.6313 84.3422 72.0024C84.2689 72.3687 84.2323 72.7739 84.2323 73.2183V75.3496C84.2323 75.3887 84.2567 75.4082 84.3056 75.4082H85.7338C85.8705 75.4082 85.9584 75.4229 85.9975 75.4521C86.0414 75.4766 86.0829 75.5645 86.122 75.7158C86.161 75.8623 86.1806 75.999 86.1806 76.126C86.1806 76.248 86.1684 76.3188 86.1439 76.3384C86.1195 76.3579 86.0683 76.3677 85.9901 76.3677H84.3275C84.2641 76.3677 84.2323 76.3921 84.2323 76.4409V80.7402C84.2323 81.4385 84.8378 81.7876 86.0487 81.7876C86.1366 81.7974 86.1806 81.8291 86.1806 81.8828ZM86.4812 78.7114C86.4812 77.7495 86.8205 76.9243 87.4992 76.2358C88.1828 75.5425 89.0007 75.1958 89.9528 75.1958C90.905 75.1958 91.7326 75.5327 92.4357 76.2065C93.1389 76.8755 93.4904 77.7031 93.4904 78.6895C93.4904 79.6758 93.156 80.5083 92.487 81.187C91.823 81.8608 90.988 82.1978 89.9821 82.1978C88.9763 82.1978 88.1413 81.856 87.4772 81.1724C86.8132 80.4888 86.4812 79.6685 86.4812 78.7114ZM88.3049 80.5938C88.7834 81.3994 89.4353 81.8022 90.2605 81.8022C90.9001 81.8022 91.3884 81.5459 91.7253 81.0332C92.0671 80.5205 92.238 79.8906 92.238 79.1436C92.238 78.3965 91.9987 77.6299 91.5202 76.8438C91.0466 76.0576 90.4069 75.6646 89.6013 75.6646C89.0105 75.6646 88.5441 75.9209 88.2023 76.4336C87.8654 76.9414 87.697 77.5884 87.697 78.3745C87.697 79.1558 87.8996 79.8955 88.3049 80.5938ZM98.7129 76.7485C98.6543 76.7388 98.5688 76.707 98.4565 76.6533C98.0513 76.4678 97.7339 76.375 97.5044 76.375C97.2749 76.375 97.0332 76.519 96.7793 76.8071C96.5303 77.0903 96.4058 77.3467 96.4058 77.5762V80.8867C96.4058 81.2529 96.6182 81.4971 97.043 81.6191C97.2285 81.668 97.4019 81.7046 97.563 81.729C97.7241 81.7485 97.8267 81.7681 97.8706 81.7876C97.9194 81.8071 97.9438 81.8462 97.9438 81.9048C97.9438 81.9585 97.9194 81.9902 97.8706 82H94.2012C94.1523 81.9902 94.1279 81.9561 94.1279 81.8975C94.1279 81.8096 94.2427 81.751 94.4722 81.7217C94.9995 81.6436 95.2632 81.3652 95.2632 80.8867V77.0122C95.2632 76.8071 95.1509 76.6655 94.9263 76.5874C94.8286 76.5532 94.7236 76.5264 94.6113 76.5068C94.499 76.4824 94.4087 76.4604 94.3403 76.4409C94.2769 76.4214 94.2354 76.4043 94.2158 76.3896C94.2012 76.3701 94.1938 76.3335 94.1938 76.2798C94.1938 76.2212 94.2305 76.1724 94.3037 76.1333L96.1714 75.2544C96.23 75.2251 96.2666 75.2104 96.2812 75.2104C96.3643 75.2104 96.4058 75.269 96.4058 75.3862V76.5728C96.4058 76.6313 96.4204 76.6606 96.4497 76.6606C96.4888 76.6606 96.5889 76.5459 96.75 76.3164C97.2139 75.667 97.5972 75.3423 97.8999 75.3423C98.0708 75.3423 98.332 75.4106 98.6836 75.5474C99.04 75.6841 99.2183 75.7988 99.2183 75.8916C99.2183 76.0039 99.1621 76.1748 99.0498 76.4043C98.9375 76.6338 98.8252 76.7485 98.7129 76.7485ZM107.693 80.7915C107.693 80.9185 107.752 81.021 107.869 81.0991C107.991 81.1724 108.13 81.209 108.286 81.209C108.442 81.209 108.572 81.1699 108.674 81.0918C108.782 81.0088 108.855 80.9673 108.894 80.9673C108.933 80.9673 108.953 81.021 108.953 81.1284C108.953 81.231 108.904 81.3188 108.806 81.3921C108.074 81.9292 107.578 82.1978 107.319 82.1978C107.007 82.1978 106.753 81.873 106.558 81.2236C106.543 81.1748 106.531 81.1528 106.521 81.1577C105.916 81.6118 105.535 81.8853 105.379 81.978C104.978 82.2075 104.575 82.2441 104.17 82.0879C103.77 81.9316 103.479 81.6729 103.298 81.3115C103.211 81.126 103.167 80.9282 103.167 80.7183C103.167 80.3032 103.32 79.9736 103.628 79.7295C103.936 79.4854 104.522 79.251 105.386 79.0264C105.679 78.9482 105.94 78.8481 106.17 78.7261C106.399 78.604 106.519 78.5259 106.528 78.4917C106.543 78.4575 106.55 78.4258 106.55 78.3965V76.9902C106.55 76.4385 106.336 76.0503 105.906 75.8257C105.764 75.7524 105.593 75.7158 105.393 75.7158C105.198 75.7158 104.998 75.7939 104.793 75.9502C104.592 76.1064 104.492 76.3286 104.492 76.6167L104.529 76.9023C104.5 76.9609 104.324 77.0586 104.002 77.1953C103.679 77.332 103.494 77.4053 103.445 77.415C103.367 77.415 103.328 77.3223 103.328 77.1367C103.328 76.9463 103.384 76.7363 103.496 76.5068C103.608 76.2773 103.767 76.0674 103.972 75.877C104.451 75.4326 104.998 75.2104 105.613 75.2104C106.228 75.2104 106.729 75.3813 107.114 75.7231C107.5 76.0601 107.693 76.4629 107.693 76.9316V80.7915ZM104.317 80.5791C104.317 80.8135 104.407 81.0186 104.588 81.1943C104.768 81.3652 104.973 81.4507 105.203 81.4507C105.437 81.4507 105.72 81.353 106.052 81.1577C106.384 80.9575 106.55 80.7524 106.55 80.5425V79.0557C106.55 79.002 106.538 78.9751 106.514 78.9751C106.489 78.9751 106.472 78.9775 106.463 78.9824L104.763 79.7734C104.588 79.9004 104.468 80.0078 104.404 80.0957C104.346 80.1836 104.317 80.3447 104.317 80.5791ZM11.7261 96.4082C11.7798 96.4229 11.8066 96.457 11.8066 96.5107C11.8066 96.5645 11.7993 96.6035 11.7847 96.6279C11.77 96.6523 11.6626 96.6792 11.4624 96.7085C11.2622 96.7378 11.1182 96.7964 11.0303 96.8843C10.9473 96.9673 10.8716 97.0625 10.8032 97.1699C10.7397 97.2773 10.6836 97.3896 10.6348 97.5068C10.5859 97.6191 10.5396 97.7217 10.4956 97.8145L8.49609 102.985C8.4375 103.127 8.38379 103.198 8.33496 103.198H7.75635C7.70752 103.198 7.65381 103.122 7.59521 102.971L5.96924 98.5688L4.2627 102.985C4.2041 103.127 4.15039 103.198 4.10156 103.198H3.52295C3.47412 103.198 3.42041 103.122 3.36182 102.971L1.4209 97.7192C1.24023 97.2261 0.930176 96.9087 0.490723 96.7671C0.456543 96.7573 0.415039 96.75 0.366211 96.7451C0.161133 96.7256 0.0585938 96.6646 0.0585938 96.562C0.0585938 96.4595 0.117188 96.4082 0.234375 96.4082H3.49365C3.53271 96.4082 3.55225 96.4473 3.55225 96.5254C3.55225 96.5986 3.52539 96.6475 3.47168 96.6719C3.38379 96.7061 3.23242 96.7207 3.01758 96.7158C2.66113 96.7061 2.48291 96.8525 2.48291 97.1553L2.49756 97.3311L3.98438 101.396C4.08203 101.645 4.17969 101.638 4.27734 101.374C4.28711 101.35 4.48975 100.837 4.88525 99.8359C5.28564 98.835 5.54199 98.1294 5.6543 97.7192C5.47363 97.2261 5.16357 96.9087 4.72412 96.7671C4.68994 96.7573 4.64844 96.75 4.59961 96.7451C4.39453 96.7256 4.29199 96.6646 4.29199 96.562C4.29199 96.4595 4.35059 96.4082 4.46777 96.4082H7.72705C7.76611 96.4082 7.78564 96.4473 7.78564 96.5254C7.78564 96.5986 7.75879 96.6475 7.70508 96.6719C7.61719 96.7061 7.46582 96.7207 7.25098 96.7158C6.89453 96.7061 6.71631 96.8525 6.71631 97.1553L6.73096 97.3311L8.21777 101.396C8.31543 101.645 8.41309 101.638 8.51074 101.374C8.52051 101.35 8.58398 101.191 8.70117 100.898C9.30176 99.394 9.65576 98.4663 9.76318 98.1147C9.87549 97.7583 9.93164 97.5142 9.93164 97.3823C9.93164 97.2505 9.86084 97.1138 9.71924 96.9722C9.57764 96.8257 9.38721 96.7524 9.14795 96.7524C8.90869 96.7524 8.78906 96.6792 8.78906 96.5327C8.78906 96.4497 8.84277 96.4082 8.9502 96.4082H11.7261ZM13.4183 99.1401C13.3353 99.1401 13.2937 99.3184 13.2937 99.6748C13.2937 100.432 13.5184 101.066 13.9676 101.579C14.4168 102.092 14.9734 102.348 15.6375 102.348C16.3064 102.348 16.9485 102.06 17.5638 101.484C17.5735 101.474 17.5857 101.469 17.6004 101.469H17.637C17.6663 101.469 17.6932 101.494 17.7176 101.542C17.7469 101.586 17.7737 101.616 17.7981 101.63C17.2317 102.319 16.5652 102.795 15.7986 103.059C15.535 103.151 15.2371 103.198 14.9051 103.198C14.573 103.198 14.2361 103.107 13.8943 102.927C13.5525 102.741 13.2596 102.5 13.0154 102.202C12.4979 101.582 12.2391 100.81 12.2391 99.8872C12.2391 98.9595 12.5198 98.1147 13.0813 97.353C13.6478 96.5913 14.4241 96.2104 15.4104 96.2104C16.1185 96.2104 16.6971 96.5278 17.1463 97.1626C17.5955 97.7925 17.8201 98.3467 17.8201 98.8252C17.8201 99.0352 17.7688 99.1401 17.6663 99.1401H13.4183ZM13.4988 98.437C13.4988 98.5298 13.5428 98.5762 13.6307 98.5762H16.3919C16.5188 98.5762 16.5823 98.5005 16.5823 98.3491C16.5823 97.9976 16.4236 97.6387 16.1062 97.2725C15.7937 96.9014 15.4495 96.7158 15.0735 96.7158C14.7073 96.7158 14.3729 96.8818 14.0701 97.2139C13.7723 97.5459 13.5818 97.9243 13.4988 98.3491V98.437ZM23.2696 96.5181C23.4845 96.5913 23.6163 96.6279 23.6651 96.6279C23.714 96.6279 23.7433 96.6279 23.753 96.6279C23.7677 96.623 23.7848 96.5913 23.8043 96.5327V92.7534C23.8043 92.5483 23.692 92.4067 23.4674 92.3286C23.3697 92.2944 23.2647 92.2676 23.1524 92.248C23.0401 92.2236 22.9498 92.2017 22.8814 92.1821C22.818 92.1626 22.7765 92.1455 22.7569 92.1309C22.7423 92.1113 22.735 92.0747 22.735 92.021C22.735 91.9624 22.7716 91.9136 22.8448 91.8745L24.7125 90.9956C24.7711 90.9663 24.8077 90.9517 24.8224 90.9517C24.9054 90.9517 24.9469 91.0103 24.9469 91.1274V101.557C24.9713 101.772 25.0323 101.926 25.13 102.019C25.2276 102.111 25.3863 102.158 25.6061 102.158L26.0309 102.128C26.0602 102.128 26.0748 102.158 26.0748 102.216C26.0748 102.27 26.0382 102.314 25.9649 102.348L24.0167 103.154C23.9581 103.183 23.9068 103.198 23.8629 103.198C23.8238 103.198 23.8043 103.137 23.8043 103.015V102.348C23.8043 102.299 23.7921 102.275 23.7677 102.275C23.7335 102.275 23.5309 102.385 23.1598 102.604C22.0221 103.278 21.0626 103.378 20.2813 102.905C19.6563 102.524 19.234 101.921 19.0143 101.096C18.9117 100.71 18.8604 100.302 18.8604 99.8726C18.8604 99.438 18.9483 99.0083 19.1241 98.5835C19.3048 98.1538 19.5514 97.7778 19.8639 97.4556C20.5523 96.7524 21.3824 96.4009 22.3541 96.4009C22.7496 96.4009 23.0548 96.4399 23.2696 96.5181ZM19.9664 99.6602C19.9664 100.397 20.1715 101.044 20.5816 101.601C20.9918 102.153 21.5631 102.429 22.2955 102.429C22.6178 102.429 22.9498 102.351 23.2916 102.194C23.6334 102.033 23.8043 101.911 23.8043 101.828V98.0488C23.8043 97.9561 23.7408 97.8462 23.6139 97.7192C23.2232 97.1821 22.7032 96.9136 22.0538 96.9136C21.4093 96.9136 20.899 97.187 20.523 97.7339C20.152 98.2759 19.9664 98.918 19.9664 99.6602ZM30.953 96.5181C31.1679 96.5913 31.2997 96.6279 31.3485 96.6279C31.3974 96.6279 31.4267 96.6279 31.4364 96.6279C31.4511 96.623 31.4682 96.5913 31.4877 96.5327V92.7534C31.4877 92.5483 31.3754 92.4067 31.1508 92.3286C31.0531 92.2944 30.9481 92.2676 30.8358 92.248C30.7235 92.2236 30.6332 92.2017 30.5648 92.1821C30.5014 92.1626 30.4599 92.1455 30.4403 92.1309C30.4257 92.1113 30.4184 92.0747 30.4184 92.021C30.4184 91.9624 30.455 91.9136 30.5282 91.8745L32.3959 90.9956C32.4545 90.9663 32.4911 90.9517 32.5058 90.9517C32.5888 90.9517 32.6303 91.0103 32.6303 91.1274V101.557C32.6547 101.772 32.7157 101.926 32.8134 102.019C32.911 102.111 33.0697 102.158 33.2895 102.158L33.7143 102.128C33.7436 102.128 33.7582 102.158 33.7582 102.216C33.7582 102.27 33.7216 102.314 33.6483 102.348L31.7001 103.154C31.6415 103.183 31.5902 103.198 31.5463 103.198C31.5072 103.198 31.4877 103.137 31.4877 103.015V102.348C31.4877 102.299 31.4755 102.275 31.4511 102.275C31.4169 102.275 31.2143 102.385 30.8432 102.604C29.7055 103.278 28.746 103.378 27.9647 102.905C27.3397 102.524 26.9174 101.921 26.6977 101.096C26.5951 100.71 26.5438 100.302 26.5438 99.8726C26.5438 99.438 26.6317 99.0083 26.8075 98.5835C26.9882 98.1538 27.2348 97.7778 27.5473 97.4556C28.2357 96.7524 29.0658 96.4009 30.0375 96.4009C30.433 96.4009 30.7382 96.4399 30.953 96.5181ZM27.6498 99.6602C27.6498 100.397 27.8549 101.044 28.265 101.601C28.6752 102.153 29.2465 102.429 29.9789 102.429C30.3012 102.429 30.6332 102.351 30.975 102.194C31.3168 102.033 31.4877 101.911 31.4877 101.828V98.0488C31.4877 97.9561 31.4242 97.8462 31.2973 97.7192C30.9066 97.1821 30.3866 96.9136 29.7372 96.9136C29.0927 96.9136 28.5824 97.187 28.2064 97.7339C27.8354 98.2759 27.6498 98.918 27.6498 99.6602ZM34.1174 103C34.0686 102.99 34.0441 102.956 34.0441 102.897C34.0441 102.81 34.1589 102.751 34.3884 102.722C34.9157 102.644 35.1794 102.365 35.1794 101.887V98.0122C35.1794 97.8071 35.0671 97.6655 34.8425 97.5874C34.7448 97.5532 34.6398 97.5264 34.5275 97.5068C34.4152 97.4824 34.3249 97.4604 34.2565 97.4409C34.1931 97.4214 34.1516 97.4043 34.132 97.3896C34.1174 97.3701 34.1101 97.3335 34.1101 97.2798C34.1101 97.2212 34.1467 97.1724 34.2199 97.1333L36.0876 96.2544C36.1462 96.2251 36.1828 96.2104 36.1975 96.2104C36.2805 96.2104 36.322 96.269 36.322 96.3862V101.887C36.322 102.365 36.5856 102.644 37.113 102.722C37.3425 102.751 37.4572 102.802 37.4572 102.875C37.4572 102.949 37.4328 102.99 37.384 103H34.1174ZM35.6408 94.1523C35.4406 94.1523 35.2624 94.0889 35.1062 93.9619C34.9548 93.835 34.8791 93.6592 34.8791 93.4346C34.8791 93.2051 34.9523 93.0244 35.0988 92.8926C35.2453 92.7607 35.4187 92.6948 35.6188 92.6948C35.8239 92.6948 35.9948 92.7729 36.1315 92.9292C36.2731 93.0854 36.3439 93.2539 36.3439 93.4346C36.3439 93.6152 36.278 93.7812 36.1462 93.9326C36.0144 94.0791 35.8459 94.1523 35.6408 94.1523ZM43.4121 100.693L43.3975 99.1475C43.3975 98.5176 43.3438 98.0757 43.2363 97.8218C43.1289 97.5679 42.9922 97.3774 42.8262 97.2505C42.6602 97.1187 42.4355 97.0527 42.1523 97.0527C41.874 97.0527 41.2808 97.2725 40.3726 97.7119C40.2505 97.7852 40.187 97.8535 40.1821 97.917V101.857C40.1821 102.351 40.4458 102.634 40.9731 102.707C41.2026 102.741 41.3174 102.797 41.3174 102.875C41.3174 102.949 41.293 102.99 41.2441 103H37.9775C37.9287 102.99 37.9043 102.956 37.9043 102.897C37.9043 102.805 38.019 102.741 38.2485 102.707C38.7759 102.634 39.0396 102.351 39.0396 101.857V97.6533C39.0396 97.4482 38.9272 97.3066 38.7026 97.2285C38.605 97.1943 38.5 97.1675 38.3877 97.1479C38.2754 97.1235 38.1851 97.1016 38.1167 97.082C38.0532 97.0625 38.0117 97.0454 37.9922 97.0308C37.9775 97.0112 37.9702 96.9746 37.9702 96.9209C37.9702 96.8623 38.0068 96.8135 38.0801 96.7744L39.9478 95.8955C40.0063 95.8662 40.043 95.8516 40.0576 95.8516C40.1406 95.8516 40.1821 95.9102 40.1821 96.0273V97.1699C40.1968 97.2188 40.2163 97.2432 40.2407 97.2432C40.27 97.2432 40.375 97.1992 40.5557 97.1113C40.9756 96.9014 41.3979 96.6987 41.8228 96.5034C42.2476 96.3081 42.5991 96.2104 42.8774 96.2104C44.0054 96.2104 44.5693 97.2383 44.5693 99.2939L44.5034 101.433V101.857C44.5034 102.238 44.6938 102.487 45.0747 102.604C45.2358 102.658 45.3896 102.697 45.5361 102.722C45.6875 102.741 45.7852 102.761 45.8291 102.78C45.8779 102.8 45.9023 102.839 45.9023 102.897C45.9023 102.956 45.8779 102.99 45.8291 103H42.2988C42.25 102.99 42.2256 102.956 42.2256 102.897C42.2256 102.805 42.3403 102.741 42.5698 102.707C43.0923 102.634 43.3535 102.331 43.3535 101.799C43.3926 101.555 43.4121 101.186 43.4121 100.693ZM51.7474 96.9136C51.7474 96.9136 52.4017 96.8843 53.7103 96.8257C53.8226 96.8257 53.8958 96.8379 53.93 96.8623C53.9642 96.8867 54.0008 96.9722 54.0398 97.1187C54.0789 97.2603 54.0984 97.3945 54.0984 97.5215C54.0984 97.6484 54.0862 97.7217 54.0618 97.7412C54.0374 97.7607 53.9886 97.7705 53.9153 97.7705H52.2894C52.3187 97.8242 52.3504 97.8804 52.3846 97.939C52.4188 97.9976 52.4627 98.0952 52.5164 98.2319C52.5701 98.3687 52.597 98.5811 52.597 98.8691C52.597 99.1523 52.5262 99.4502 52.3846 99.7627C52.2479 100.07 52.0452 100.344 51.7767 100.583C51.181 101.12 50.4095 101.389 49.4622 101.389C49.2132 101.389 48.9397 101.342 48.6419 101.25C48.5687 101.328 48.471 101.401 48.3489 101.469C48.2269 101.533 48.1072 101.599 47.99 101.667C47.6971 101.833 47.5506 101.999 47.5506 102.165C47.5506 102.58 48.2391 102.792 49.616 102.802C50.993 102.812 51.8963 102.858 52.326 102.941C52.7605 103.02 53.0975 103.178 53.3367 103.417C53.7127 103.793 53.9007 104.223 53.9007 104.707C53.9007 105.122 53.7225 105.549 53.366 105.988C52.7459 106.765 51.7986 107.282 50.5242 107.541C50.0701 107.634 49.5892 107.68 49.0813 107.68C48.1585 107.68 47.4578 107.512 46.9793 107.175C46.5008 106.843 46.2615 106.44 46.2615 105.966C46.2615 105.708 46.3226 105.493 46.4446 105.322C46.5667 105.156 46.7205 104.997 46.9061 104.846C47.0965 104.699 47.304 104.543 47.5286 104.377C47.7532 104.216 47.9681 104.008 48.1731 103.754C47.7044 103.715 47.3016 103.566 46.9646 103.308C46.6326 103.049 46.4666 102.795 46.4666 102.546C46.4666 102.297 46.5325 102.114 46.6644 101.997C46.7962 101.875 46.9573 101.772 47.1478 101.689C47.3382 101.601 47.5384 101.521 47.7483 101.447C47.9583 101.374 48.1414 101.279 48.2977 101.162C47.7508 100.947 47.3284 100.651 47.0306 100.275C46.7327 99.8945 46.5838 99.4795 46.5838 99.0303C46.5838 98.1953 46.8865 97.5142 47.492 96.9868C48.1023 96.4595 48.8372 96.1958 49.6966 96.1958C50.556 96.1958 51.2396 96.4351 51.7474 96.9136ZM47.763 104.553C47.6507 104.665 47.5579 104.785 47.4847 104.912C47.4114 105.039 47.3748 105.197 47.3748 105.388C47.3748 105.583 47.4432 105.786 47.5799 105.996C47.7215 106.21 47.9119 106.403 48.1512 106.574C48.6785 106.965 49.3133 107.16 50.0555 107.16C50.7977 107.16 51.469 106.943 52.0696 106.508C52.6751 106.079 52.9778 105.605 52.9778 105.087C52.9778 104.575 52.7288 104.23 52.2308 104.055C51.9964 103.977 51.3934 103.928 50.4217 103.908C49.45 103.889 48.8201 103.862 48.532 103.828C48.4051 103.974 48.2732 104.104 48.1365 104.216C48.0047 104.328 47.8802 104.44 47.763 104.553ZM51.3958 98.8618C51.3958 98.1733 51.2225 97.6143 50.8758 97.1846C50.534 96.75 50.0799 96.5327 49.5135 96.5327C48.7811 96.5327 48.2635 96.877 47.9607 97.5654C47.8436 97.8291 47.785 98.1318 47.785 98.4736C47.785 99.1719 47.929 99.7529 48.2171 100.217C48.5687 100.773 49.0301 101.052 49.6014 101.052C50.1727 101.052 50.6146 100.859 50.9271 100.473C51.2396 100.087 51.3958 99.5503 51.3958 98.8618ZM56.7794 102.619C56.7794 103.527 56.3521 104.284 55.4977 104.89C55.3023 105.031 55.1559 105.102 55.0582 105.102C54.985 105.102 54.9483 105.036 54.9483 104.904C54.9483 104.826 54.9996 104.75 55.1021 104.677C55.2096 104.609 55.2877 104.553 55.3365 104.509C55.8297 104.064 56.0763 103.662 56.0763 103.3C56.0763 103.159 56.047 103.073 55.9884 103.044C55.9347 103.015 55.815 103 55.6295 103C55.4439 103 55.2486 102.929 55.0436 102.788C54.8434 102.646 54.7433 102.438 54.7433 102.165C54.7433 101.892 54.8092 101.696 54.941 101.579C55.1656 101.374 55.3805 101.271 55.5855 101.271C55.9664 101.271 56.2594 101.423 56.4645 101.726C56.6744 102.023 56.7794 102.321 56.7794 102.619ZM64.9904 102.941C64.9904 102.98 64.9709 103 64.9318 103H61.1892C61.1501 103 61.1306 102.98 61.1306 102.941V102.766C61.1306 102.727 61.1623 102.707 61.2258 102.707C61.8947 102.678 62.3464 102.321 62.5808 101.638L65.569 92.9878C65.5739 92.978 65.5764 92.9658 65.5764 92.9512L65.4958 92.7095C65.4958 92.6851 65.5056 92.6729 65.5251 92.6729H66.9899C66.9997 92.6777 67.0119 92.6826 67.0266 92.6875C67.0461 92.6924 67.0607 92.707 67.0705 92.7314L70.1687 101.425C70.237 101.557 70.2907 101.677 70.3298 101.784C70.3737 101.892 70.4226 101.989 70.4763 102.077C70.5935 102.277 70.7863 102.431 71.0549 102.539C71.2795 102.651 71.4846 102.707 71.6701 102.707C71.7092 102.707 71.7287 102.729 71.7287 102.773V102.941C71.7287 102.98 71.7092 103 71.6701 103H67.1877C67.1486 103 67.1291 102.98 67.1291 102.941V102.766C67.1291 102.727 67.2194 102.702 67.4001 102.692C67.5808 102.683 67.7297 102.673 67.8469 102.663C68.5256 102.59 68.8649 102.36 68.8649 101.975C68.8649 101.945 68.8601 101.911 68.8503 101.872L67.7443 98.752C67.7395 98.7422 67.7297 98.7202 67.715 98.686C67.6564 98.52 67.5539 98.437 67.4074 98.437H64.8073C64.6608 98.437 64.5461 98.5176 64.4631 98.6787C64.4484 98.7129 64.4411 98.7324 64.4411 98.7373L63.3425 101.953V102.019C63.3425 102.146 63.4084 102.26 63.5402 102.363C63.8381 102.592 64.2385 102.707 64.7414 102.707H64.9318C64.9709 102.707 64.9904 102.727 64.9904 102.766V102.941ZM67.1584 97.624C67.2463 97.624 67.2902 97.5874 67.2902 97.5142C67.2902 97.4751 67.2805 97.4312 67.2609 97.3823L66.1696 94.3794C66.1208 94.2476 66.0842 94.1816 66.0598 94.1816C66.0354 94.1816 65.9963 94.25 65.9426 94.3867L64.9172 97.3823C64.8977 97.4312 64.8879 97.4849 64.8879 97.5435C64.8879 97.5972 64.9245 97.624 64.9978 97.624H67.1584ZM77.3613 100.693L77.3467 99.1475C77.3467 98.5176 77.293 98.0757 77.1855 97.8218C77.0781 97.5679 76.9414 97.3774 76.7754 97.2505C76.6094 97.1187 76.3848 97.0527 76.1016 97.0527C75.8232 97.0527 75.23 97.2725 74.3218 97.7119C74.1997 97.7852 74.1362 97.8535 74.1313 97.917V101.857C74.1313 102.351 74.395 102.634 74.9224 102.707C75.1519 102.741 75.2666 102.797 75.2666 102.875C75.2666 102.949 75.2422 102.99 75.1934 103H71.9268C71.8779 102.99 71.8535 102.956 71.8535 102.897C71.8535 102.805 71.9683 102.741 72.1978 102.707C72.7251 102.634 72.9888 102.351 72.9888 101.857V97.6533C72.9888 97.4482 72.8765 97.3066 72.6519 97.2285C72.5542 97.1943 72.4492 97.1675 72.3369 97.1479C72.2246 97.1235 72.1343 97.1016 72.0659 97.082C72.0024 97.0625 71.9609 97.0454 71.9414 97.0308C71.9268 97.0112 71.9194 96.9746 71.9194 96.9209C71.9194 96.8623 71.9561 96.8135 72.0293 96.7744L73.897 95.8955C73.9556 95.8662 73.9922 95.8516 74.0068 95.8516C74.0898 95.8516 74.1313 95.9102 74.1313 96.0273V97.1699C74.146 97.2188 74.1655 97.2432 74.1899 97.2432C74.2192 97.2432 74.3242 97.1992 74.5049 97.1113C74.9248 96.9014 75.3472 96.6987 75.772 96.5034C76.1968 96.3081 76.5483 96.2104 76.8267 96.2104C77.9546 96.2104 78.5186 97.2383 78.5186 99.2939L78.4526 101.433V101.857C78.4526 102.238 78.6431 102.487 79.0239 102.604C79.1851 102.658 79.3389 102.697 79.4854 102.722C79.6367 102.741 79.7344 102.761 79.7783 102.78C79.8271 102.8 79.8516 102.839 79.8516 102.897C79.8516 102.956 79.8271 102.99 79.7783 103H76.248C76.1992 102.99 76.1748 102.956 76.1748 102.897C76.1748 102.805 76.2896 102.741 76.519 102.707C77.0415 102.634 77.3027 102.331 77.3027 101.799C77.3418 101.555 77.3613 101.186 77.3613 100.693ZM84.7298 96.5181C84.9446 96.5913 85.0765 96.6279 85.1253 96.6279C85.1741 96.6279 85.2034 96.6279 85.2132 96.6279C85.2278 96.623 85.2449 96.5913 85.2645 96.5327V92.7534C85.2645 92.5483 85.1521 92.4067 84.9275 92.3286C84.8299 92.2944 84.7249 92.2676 84.6126 92.248C84.5003 92.2236 84.41 92.2017 84.3416 92.1821C84.2781 92.1626 84.2366 92.1455 84.2171 92.1309C84.2024 92.1113 84.1951 92.0747 84.1951 92.021C84.1951 91.9624 84.2317 91.9136 84.305 91.8745L86.1727 90.9956C86.2312 90.9663 86.2679 90.9517 86.2825 90.9517C86.3655 90.9517 86.407 91.0103 86.407 91.1274V101.557C86.4314 101.772 86.4925 101.926 86.5901 102.019C86.6878 102.111 86.8465 102.158 87.0662 102.158L87.491 102.128C87.5203 102.128 87.535 102.158 87.535 102.216C87.535 102.27 87.4983 102.314 87.4251 102.348L85.4769 103.154C85.4183 103.183 85.367 103.198 85.323 103.198C85.284 103.198 85.2645 103.137 85.2645 103.015V102.348C85.2645 102.299 85.2522 102.275 85.2278 102.275C85.1936 102.275 84.991 102.385 84.6199 102.604C83.4822 103.278 82.5228 103.378 81.7415 102.905C81.1165 102.524 80.6941 101.921 80.4744 101.096C80.3719 100.71 80.3206 100.302 80.3206 99.8726C80.3206 99.438 80.4085 99.0083 80.5843 98.5835C80.7649 98.1538 81.0115 97.7778 81.324 97.4556C82.0125 96.7524 82.8426 96.4009 83.8143 96.4009C84.2098 96.4009 84.5149 96.4399 84.7298 96.5181ZM81.4266 99.6602C81.4266 100.397 81.6316 101.044 82.0418 101.601C82.452 102.153 83.0232 102.429 83.7557 102.429C84.0779 102.429 84.41 102.351 84.7518 102.194C85.0936 102.033 85.2645 101.911 85.2645 101.828V98.0488C85.2645 97.9561 85.201 97.8462 85.074 97.7192C84.6834 97.1821 84.1634 96.9136 83.514 96.9136C82.8694 96.9136 82.3592 97.187 81.9832 97.7339C81.6121 98.2759 81.4266 98.918 81.4266 99.6602ZM95.6288 102.883C95.6288 102.961 95.5849 103 95.497 103H91.476C91.4271 102.99 91.4027 102.956 91.4027 102.897C91.4027 102.81 91.5175 102.751 91.747 102.722C92.2743 102.644 92.538 102.365 92.538 101.887V97.4482C92.538 97.3945 92.5087 97.3677 92.4501 97.3677H91.6518C91.5932 97.3677 91.537 97.3506 91.4833 97.3164C91.4296 97.2773 91.4027 97.2285 91.4027 97.1699C91.4027 97.1064 91.432 97.0576 91.4906 97.0234C91.5736 96.9746 91.7689 96.9087 92.0766 96.8257C92.3842 96.7427 92.538 96.606 92.538 96.4155V96.1738C92.538 94.416 92.9188 93.0635 93.6806 92.1162C94.1054 91.584 94.7523 91.1738 95.6215 90.8857C95.8852 90.7979 96.1464 90.7539 96.4052 90.7539C96.664 90.7539 96.9667 90.8223 97.3134 90.959C97.6601 91.0908 97.8334 91.252 97.8334 91.4424C97.8334 91.4814 97.8261 91.5156 97.8114 91.5449C97.8017 91.5742 97.7895 91.6108 97.7748 91.6548L97.4745 92.2993C97.4354 92.3774 97.3891 92.4165 97.3354 92.4165C97.3207 92.4165 97.2157 92.3408 97.0204 92.1895C96.8251 92.0332 96.6176 91.8916 96.3979 91.7646C96.183 91.6328 95.9291 91.5669 95.6361 91.5669C95.0648 91.5669 94.6327 91.7134 94.3397 92.0063C94.0468 92.2993 93.8637 92.6313 93.7904 93.0024C93.7172 93.3687 93.6806 93.7739 93.6806 94.2183V96.3496C93.6806 96.3887 93.705 96.4082 93.7538 96.4082H95.182C95.3187 96.4082 95.4066 96.4229 95.4457 96.4521C95.4896 96.4766 95.5312 96.5645 95.5702 96.7158C95.6093 96.8623 95.6288 96.999 95.6288 97.126C95.6288 97.248 95.6166 97.3188 95.5922 97.3384C95.5678 97.3579 95.5165 97.3677 95.4384 97.3677H93.7758C93.7123 97.3677 93.6806 97.3921 93.6806 97.4409V101.74C93.6806 102.438 94.286 102.788 95.497 102.788C95.5849 102.797 95.6288 102.829 95.6288 102.883ZM95.9294 99.7114C95.9294 98.7495 96.2688 97.9243 96.9475 97.2358C97.6311 96.5425 98.4489 96.1958 99.4011 96.1958C100.353 96.1958 101.181 96.5327 101.884 97.2065C102.587 97.8755 102.939 98.7031 102.939 99.6895C102.939 100.676 102.604 101.508 101.935 102.187C101.271 102.861 100.436 103.198 99.4304 103.198C98.4245 103.198 97.5896 102.856 96.9255 102.172C96.2614 101.489 95.9294 100.668 95.9294 99.7114ZM97.7531 101.594C98.2316 102.399 98.8835 102.802 99.7087 102.802C100.348 102.802 100.837 102.546 101.174 102.033C101.515 101.521 101.686 100.891 101.686 100.144C101.686 99.3965 101.447 98.6299 100.968 97.8438C100.495 97.0576 99.8552 96.6646 99.0495 96.6646C98.4587 96.6646 97.9924 96.9209 97.6506 97.4336C97.3137 97.9414 97.1452 98.5884 97.1452 99.3745C97.1452 100.156 97.3479 100.896 97.7531 101.594ZM108.718 102.355C108.693 102.272 108.662 102.246 108.623 102.275C108.583 102.299 108.425 102.382 108.146 102.524C107.233 102.978 106.472 103.205 105.861 103.205C105.251 103.205 104.812 103.01 104.543 102.619C104.445 102.473 104.396 102.292 104.396 102.077V97.6094C104.382 97.4678 104.318 97.3457 104.206 97.2432C104.055 97.1162 103.896 97.0479 103.73 97.0381C103.569 97.0283 103.488 96.9795 103.488 96.8916C103.488 96.7988 103.527 96.7427 103.605 96.7231L105.283 96.2397C105.341 96.2202 105.397 96.2104 105.451 96.2104C105.51 96.2104 105.539 96.252 105.539 96.335V101.25C105.539 101.591 105.69 101.855 105.993 102.041C106.296 102.226 106.682 102.319 107.15 102.319C107.624 102.319 108.049 102.175 108.425 101.887C108.542 101.794 108.64 101.691 108.718 101.579V97.6094C108.703 97.4678 108.64 97.3457 108.527 97.2432C108.376 97.1162 108.217 97.0479 108.051 97.0381C107.89 97.0283 107.81 96.9795 107.81 96.8916C107.81 96.7988 107.849 96.7427 107.927 96.7231L109.604 96.2397C109.663 96.2202 109.719 96.2104 109.772 96.2104C109.831 96.2104 109.86 96.2593 109.86 96.3569V101.557C109.885 101.772 109.946 101.926 110.043 102.019C110.141 102.111 110.3 102.158 110.52 102.158L110.944 102.128C110.974 102.128 110.988 102.158 110.988 102.216C110.988 102.27 110.952 102.314 110.878 102.348L108.93 103.154C108.872 103.183 108.82 103.198 108.776 103.198C108.737 103.198 108.718 103.137 108.718 103.015V102.355ZM116.094 97.7485C116.035 97.7388 115.95 97.707 115.837 97.6533C115.432 97.4678 115.115 97.375 114.885 97.375C114.656 97.375 114.414 97.519 114.16 97.8071C113.911 98.0903 113.786 98.3467 113.786 98.5762V101.887C113.786 102.253 113.999 102.497 114.424 102.619C114.609 102.668 114.783 102.705 114.944 102.729C115.105 102.749 115.207 102.768 115.251 102.788C115.3 102.807 115.325 102.846 115.325 102.905C115.325 102.958 115.3 102.99 115.251 103H111.582C111.533 102.99 111.509 102.956 111.509 102.897C111.509 102.81 111.623 102.751 111.853 102.722C112.38 102.644 112.644 102.365 112.644 101.887V98.0122C112.644 97.8071 112.532 97.6655 112.307 97.5874C112.209 97.5532 112.104 97.5264 111.992 97.5068C111.88 97.4824 111.789 97.4604 111.721 97.4409C111.658 97.4214 111.616 97.4043 111.596 97.3896C111.582 97.3701 111.575 97.3335 111.575 97.2798C111.575 97.2212 111.611 97.1724 111.684 97.1333L113.552 96.2544C113.611 96.2251 113.647 96.2104 113.662 96.2104C113.745 96.2104 113.786 96.269 113.786 96.3862V97.5728C113.786 97.6313 113.801 97.6606 113.83 97.6606C113.869 97.6606 113.97 97.5459 114.131 97.3164C114.595 96.667 114.978 96.3423 115.281 96.3423C115.451 96.3423 115.713 96.4106 116.064 96.5474C116.421 96.6841 116.599 96.7988 116.599 96.8916C116.599 97.0039 116.543 97.1748 116.43 97.4043C116.318 97.6338 116.206 97.7485 116.094 97.7485ZM124.554 102.883C124.554 102.961 124.51 103 124.422 103H120.401C120.352 102.99 120.328 102.956 120.328 102.897C120.328 102.81 120.442 102.751 120.672 102.722C121.199 102.644 121.463 102.365 121.463 101.887V97.4482C121.463 97.3945 121.433 97.3677 121.375 97.3677H120.577C120.518 97.3677 120.462 97.3506 120.408 97.3164C120.354 97.2773 120.328 97.2285 120.328 97.1699C120.328 97.1064 120.357 97.0576 120.415 97.0234C120.498 96.9746 120.694 96.9087 121.001 96.8257C121.309 96.7427 121.463 96.606 121.463 96.4155V96.1738C121.463 94.416 121.844 93.0635 122.605 92.1162C123.03 91.584 123.677 91.1738 124.546 90.8857C124.81 90.7979 125.071 90.7539 125.33 90.7539C125.589 90.7539 125.892 90.8223 126.238 90.959C126.585 91.0908 126.758 91.252 126.758 91.4424C126.758 91.4814 126.751 91.5156 126.736 91.5449C126.726 91.5742 126.714 91.6108 126.7 91.6548L126.399 92.2993C126.36 92.3774 126.314 92.4165 126.26 92.4165C126.246 92.4165 126.141 92.3408 125.945 92.1895C125.75 92.0332 125.542 91.8916 125.323 91.7646C125.108 91.6328 124.854 91.5669 124.561 91.5669C123.99 91.5669 123.558 91.7134 123.265 92.0063C122.972 92.2993 122.788 92.6313 122.715 93.0024C122.642 93.3687 122.605 93.7739 122.605 94.2183V96.3496C122.605 96.3887 122.63 96.4082 122.679 96.4082H124.107C124.244 96.4082 124.331 96.4229 124.371 96.4521C124.414 96.4766 124.456 96.5645 124.495 96.7158C124.534 96.8623 124.554 96.999 124.554 97.126C124.554 97.248 124.541 97.3188 124.517 97.3384C124.493 97.3579 124.441 97.3677 124.363 97.3677H122.701C122.637 97.3677 122.605 97.3921 122.605 97.4409V101.74C122.605 102.438 123.211 102.788 124.422 102.788C124.51 102.797 124.554 102.829 124.554 102.883ZM124.854 99.7114C124.854 98.7495 125.194 97.9243 125.872 97.2358C126.556 96.5425 127.374 96.1958 128.326 96.1958C129.278 96.1958 130.106 96.5327 130.809 97.2065C131.512 97.8755 131.863 98.7031 131.863 99.6895C131.863 100.676 131.529 101.508 130.86 102.187C130.196 102.861 129.361 103.198 128.355 103.198C127.349 103.198 126.514 102.856 125.85 102.172C125.186 101.489 124.854 100.668 124.854 99.7114ZM126.678 101.594C127.156 102.399 127.808 102.802 128.633 102.802C129.273 102.802 129.761 102.546 130.098 102.033C130.44 101.521 130.611 100.891 130.611 100.144C130.611 99.3965 130.372 98.6299 129.893 97.8438C129.42 97.0576 128.78 96.6646 127.974 96.6646C127.383 96.6646 126.917 96.9209 126.575 97.4336C126.238 97.9414 126.07 98.5884 126.07 99.3745C126.07 100.156 126.273 100.896 126.678 101.594ZM137.086 97.7485C137.027 97.7388 136.942 97.707 136.83 97.6533C136.424 97.4678 136.107 97.375 135.877 97.375C135.648 97.375 135.406 97.519 135.152 97.8071C134.903 98.0903 134.779 98.3467 134.779 98.5762V101.887C134.779 102.253 134.991 102.497 135.416 102.619C135.602 102.668 135.775 102.705 135.936 102.729C136.097 102.749 136.2 102.768 136.244 102.788C136.292 102.807 136.317 102.846 136.317 102.905C136.317 102.958 136.292 102.99 136.244 103H132.574C132.525 102.99 132.501 102.956 132.501 102.897C132.501 102.81 132.616 102.751 132.845 102.722C133.373 102.644 133.636 102.365 133.636 101.887V98.0122C133.636 97.8071 133.524 97.6655 133.299 97.5874C133.202 97.5532 133.097 97.5264 132.984 97.5068C132.872 97.4824 132.782 97.4604 132.713 97.4409C132.65 97.4214 132.608 97.4043 132.589 97.3896C132.574 97.3701 132.567 97.3335 132.567 97.2798C132.567 97.2212 132.604 97.1724 132.677 97.1333L134.544 96.2544C134.603 96.2251 134.64 96.2104 134.654 96.2104C134.737 96.2104 134.779 96.269 134.779 96.3862V97.5728C134.779 97.6313 134.793 97.6606 134.823 97.6606C134.862 97.6606 134.962 97.5459 135.123 97.3164C135.587 96.667 135.97 96.3423 136.273 96.3423C136.444 96.3423 136.705 96.4106 137.057 96.5474C137.413 96.6841 137.591 96.7988 137.591 96.8916C137.591 97.0039 137.535 97.1748 137.423 97.4043C137.311 97.6338 137.198 97.7485 137.086 97.7485ZM5.03174 117.518C5.24658 117.591 5.37842 117.628 5.42725 117.628C5.47607 117.628 5.50537 117.628 5.51514 117.628C5.52979 117.623 5.54688 117.591 5.56641 117.533V113.753C5.56641 113.548 5.4541 113.407 5.22949 113.329C5.13184 113.294 5.02686 113.268 4.91455 113.248C4.80225 113.224 4.71191 113.202 4.64355 113.182C4.58008 113.163 4.53857 113.146 4.51904 113.131C4.50439 113.111 4.49707 113.075 4.49707 113.021C4.49707 112.962 4.53369 112.914 4.60693 112.875L6.47461 111.996C6.5332 111.966 6.56982 111.952 6.58447 111.952C6.66748 111.952 6.70898 112.01 6.70898 112.127V122.557C6.7334 122.772 6.79443 122.926 6.89209 123.019C6.98975 123.111 7.14844 123.158 7.36816 123.158L7.79297 123.128C7.82227 123.128 7.83691 123.158 7.83691 123.216C7.83691 123.27 7.80029 123.314 7.72705 123.348L5.77881 124.154C5.72021 124.183 5.66895 124.198 5.625 124.198C5.58594 124.198 5.56641 124.137 5.56641 124.015V123.348C5.56641 123.299 5.5542 123.275 5.52979 123.275C5.49561 123.275 5.29297 123.385 4.92188 123.604C3.78418 124.278 2.82471 124.378 2.04346 123.905C1.41846 123.524 0.996094 122.921 0.776367 122.096C0.673828 121.71 0.622559 121.302 0.622559 120.873C0.622559 120.438 0.710449 120.008 0.88623 119.583C1.06689 119.154 1.31348 118.778 1.62598 118.456C2.31445 117.752 3.14453 117.401 4.11621 117.401C4.51172 117.401 4.81689 117.44 5.03174 117.518ZM1.72852 120.66C1.72852 121.397 1.93359 122.044 2.34375 122.601C2.75391 123.153 3.3252 123.429 4.05762 123.429C4.37988 123.429 4.71191 123.351 5.05371 123.194C5.39551 123.033 5.56641 122.911 5.56641 122.828V119.049C5.56641 118.956 5.50293 118.846 5.37598 118.719C4.98535 118.182 4.46533 117.914 3.81592 117.914C3.17139 117.914 2.66113 118.187 2.28516 118.734C1.91406 119.276 1.72852 119.918 1.72852 120.66ZM9.37529 120.14C9.29228 120.14 9.25078 120.318 9.25078 120.675C9.25078 121.432 9.47539 122.066 9.92461 122.579C10.3738 123.092 10.9305 123.348 11.5945 123.348C12.2635 123.348 12.9056 123.06 13.5208 122.484C13.5306 122.474 13.5428 122.469 13.5574 122.469H13.594C13.6233 122.469 13.6502 122.494 13.6746 122.542C13.7039 122.586 13.7308 122.616 13.7552 122.63C13.1888 123.319 12.5223 123.795 11.7557 124.059C11.492 124.151 11.1941 124.198 10.8621 124.198C10.5301 124.198 10.1932 124.107 9.85137 123.927C9.50957 123.741 9.2166 123.5 8.97246 123.202C8.45488 122.582 8.19609 121.81 8.19609 120.887C8.19609 119.959 8.47686 119.115 9.03838 118.353C9.60478 117.591 10.3812 117.21 11.3675 117.21C12.0755 117.21 12.6541 117.528 13.1033 118.163C13.5525 118.792 13.7771 119.347 13.7771 119.825C13.7771 120.035 13.7259 120.14 13.6233 120.14H9.37529ZM9.45586 119.437C9.45586 119.53 9.4998 119.576 9.5877 119.576H12.3489C12.4759 119.576 12.5394 119.5 12.5394 119.349C12.5394 118.998 12.3807 118.639 12.0633 118.272C11.7508 117.901 11.4065 117.716 11.0306 117.716C10.6644 117.716 10.3299 117.882 10.0271 118.214C9.7293 118.546 9.53887 118.924 9.45586 119.349V119.437ZM19.234 122.792C19.234 122.918 19.2926 123.021 19.4098 123.099C19.5318 123.172 19.671 123.209 19.8272 123.209C19.9835 123.209 20.1129 123.17 20.2154 123.092C20.3229 123.009 20.3961 122.967 20.4352 122.967C20.4742 122.967 20.4937 123.021 20.4937 123.128C20.4937 123.231 20.4449 123.319 20.3473 123.392C19.6148 123.929 19.1192 124.198 18.8604 124.198C18.5479 124.198 18.294 123.873 18.0987 123.224C18.0841 123.175 18.0719 123.153 18.0621 123.158C17.4566 123.612 17.0758 123.885 16.9195 123.978C16.5191 124.208 16.1163 124.244 15.711 124.088C15.3106 123.932 15.0201 123.673 14.8395 123.312C14.7516 123.126 14.7076 122.928 14.7076 122.718C14.7076 122.303 14.8614 121.974 15.169 121.729C15.4767 121.485 16.0626 121.251 16.9269 121.026C17.2198 120.948 17.4811 120.848 17.7105 120.726C17.94 120.604 18.0597 120.526 18.0694 120.492C18.0841 120.458 18.0914 120.426 18.0914 120.396V118.99C18.0914 118.438 17.8766 118.05 17.4469 117.826C17.3053 117.752 17.1344 117.716 16.9342 117.716C16.7389 117.716 16.5387 117.794 16.3336 117.95C16.1334 118.106 16.0333 118.329 16.0333 118.617L16.0699 118.902C16.0406 118.961 15.8648 119.059 15.5426 119.195C15.2203 119.332 15.0348 119.405 14.9859 119.415C14.9078 119.415 14.8687 119.322 14.8687 119.137C14.8687 118.946 14.9249 118.736 15.0372 118.507C15.1495 118.277 15.3082 118.067 15.5133 117.877C15.9918 117.433 16.5387 117.21 17.1539 117.21C17.7691 117.21 18.2696 117.381 18.6554 117.723C19.0411 118.06 19.234 118.463 19.234 118.932V122.792ZM15.8575 122.579C15.8575 122.813 15.9479 123.019 16.1285 123.194C16.3092 123.365 16.5143 123.451 16.7437 123.451C16.9781 123.451 17.2613 123.353 17.5934 123.158C17.9254 122.958 18.0914 122.752 18.0914 122.542V121.056C18.0914 121.002 18.0792 120.975 18.0548 120.975C18.0304 120.975 18.0133 120.978 18.0035 120.982L16.3043 121.773C16.1285 121.9 16.0089 122.008 15.9454 122.096C15.8868 122.184 15.8575 122.345 15.8575 122.579ZM22.6767 118.368C22.6474 118.368 22.6327 118.39 22.6327 118.434V122.477C22.6327 122.77 22.6962 122.999 22.8231 123.165C22.955 123.331 23.121 123.414 23.3212 123.414C23.5214 123.414 23.6947 123.382 23.8412 123.319C23.9926 123.25 24.122 123.177 24.2294 123.099C24.3417 123.021 24.4418 122.95 24.5297 122.887C24.6176 122.818 24.6957 122.784 24.7641 122.784C24.8324 122.784 24.8666 122.801 24.8666 122.835C24.8666 122.953 24.8544 123.028 24.83 123.062C24.244 123.819 23.6776 124.198 23.1308 124.198C22.5888 124.198 22.1786 124.027 21.9003 123.685C21.6269 123.338 21.4901 122.926 21.4901 122.447V118.368H20.9408C20.8041 118.368 20.7309 118.324 20.7211 118.236C20.7162 118.148 20.7309 118.092 20.765 118.067C21.0238 117.901 21.3803 117.604 21.8344 117.174C21.8832 117.12 21.9491 117.04 22.0321 116.932C22.1151 116.825 22.2348 116.678 22.391 116.493C22.5521 116.307 22.6742 116.214 22.7572 116.214C22.8402 116.214 22.8817 116.249 22.8817 116.317C22.8817 116.327 22.7987 116.646 22.6327 117.276C22.6327 117.364 22.6718 117.411 22.7499 117.416H24.6176C24.8324 117.416 24.9398 117.718 24.9398 118.324C24.9398 118.353 24.9203 118.368 24.8813 118.368H22.6767ZM27.3278 118.331C27.3278 118.448 27.3449 118.507 27.3791 118.507C27.4133 118.507 27.4377 118.5 27.4523 118.485C27.467 118.465 27.5695 118.351 27.76 118.141C28.3117 117.525 28.8708 117.218 29.4372 117.218C30.1794 117.218 30.7238 117.384 31.0705 117.716C31.4953 118.136 31.7077 118.841 31.7077 119.833V122.887C31.7077 123.365 31.9714 123.644 32.4987 123.722C32.7282 123.751 32.843 123.802 32.843 123.875C32.843 123.949 32.8186 123.99 32.7697 124H29.5031C29.4543 123.99 29.4299 123.956 29.4299 123.897C29.4299 123.81 29.5446 123.751 29.7741 123.722C30.3015 123.644 30.5651 123.365 30.5651 122.887V119.906C30.5651 119.188 30.5139 118.722 30.4113 118.507C30.216 118.077 29.8083 117.862 29.1882 117.862C28.8073 117.862 28.4021 118.026 27.9724 118.353C27.5427 118.675 27.3278 119.032 27.3278 119.422V122.887C27.3278 123.365 27.5915 123.644 28.1188 123.722C28.3483 123.751 28.4631 123.802 28.4631 123.875C28.4631 123.949 28.4387 123.99 28.3898 124H25.1232C25.0744 123.99 25.05 123.956 25.05 123.897C25.05 123.81 25.1647 123.751 25.3942 123.722C25.9216 123.644 26.1853 123.365 26.1853 122.887V113.753C26.1853 113.548 26.0729 113.407 25.8483 113.329C25.7507 113.294 25.6457 113.268 25.5334 113.248C25.4211 113.224 25.3308 113.202 25.2624 113.182C25.1989 113.163 25.1574 113.146 25.1379 113.131C25.1232 113.111 25.1159 113.075 25.1159 113.021C25.1159 112.962 25.1525 112.914 25.2258 112.875L27.0935 111.996C27.1521 111.966 27.1887 111.952 27.2033 111.952C27.2863 111.952 27.3278 112.01 27.3278 112.127V118.331Z" fill="#2A2921"/>
</svg>
