<svg width="170" height="136" viewBox="0 0 170 136" fill="none" xmlns="http://www.w3.org/2000/svg">
<path d="M16.08 26.6L5.78 17.3L5.84 26H2.9V10.7H3.02L13.3 20.14L13.24 11.28H16.16V26.6H16.08ZM21.9108 26.42C21.1241 26.42 20.4641 26.18 19.9308 25.7C19.3974 25.2067 19.1174 24.5733 19.0908 23.8V17.26H21.8908V22.76C21.9174 23.1467 22.0174 23.46 22.1908 23.7C22.3641 23.9267 22.6574 24.04 23.0708 24.04C23.6974 24.04 24.1908 23.74 24.5508 23.14C24.9108 22.5267 25.0908 21.7533 25.0908 20.82V17.26H27.8908V26H25.3508L25.1508 24.6C24.8574 25.1467 24.4374 25.5867 23.8908 25.92C23.3441 26.2533 22.6841 26.42 21.9108 26.42ZM32.8905 17.26L33.1105 19.26C33.3638 18.7533 33.7105 18.32 34.1505 17.96C34.5905 17.5867 35.0238 17.3067 35.4505 17.12C35.8771 16.92 36.2038 16.82 36.4305 16.82L36.2905 19.62C35.6371 19.54 35.0771 19.6467 34.6105 19.94C34.1438 20.2333 33.7838 20.62 33.5305 21.1C33.2771 21.58 33.1505 22.0733 33.1505 22.58V26H30.3705V17.26H32.8905ZM41.0136 26.18C40.2936 26.18 39.6203 26.0533 38.9936 25.8C38.3803 25.5467 37.8603 25.1933 37.4336 24.74L38.5936 23.2C39.0203 23.5867 39.4136 23.8667 39.7736 24.04C40.1469 24.2 40.4803 24.28 40.7736 24.28C41.1203 24.28 41.4069 24.2267 41.6336 24.12C41.8603 24.0133 41.9736 23.84 41.9736 23.6C41.9736 23.3733 41.8803 23.1933 41.6936 23.06C41.5203 22.9267 41.2936 22.82 41.0136 22.74C40.7336 22.6467 40.4336 22.5533 40.1136 22.46C39.3136 22.2067 38.7336 21.84 38.3736 21.36C38.0269 20.8667 37.8536 20.3333 37.8536 19.76C37.8536 19.32 37.9669 18.88 38.1936 18.44C38.4336 17.9867 38.8069 17.6133 39.3136 17.32C39.8336 17.0133 40.5003 16.86 41.3136 16.86C42.0469 16.86 42.6669 16.9333 43.1736 17.08C43.6803 17.2267 44.1603 17.4667 44.6136 17.8L43.5536 19.44C43.3003 19.24 43.0136 19.0733 42.6936 18.94C42.3869 18.7933 42.1003 18.7133 41.8336 18.7C41.4736 18.6867 41.1936 18.7533 40.9936 18.9C40.7936 19.0333 40.6936 19.1933 40.6936 19.38C40.6803 19.6333 40.7736 19.8333 40.9736 19.98C41.1869 20.1267 41.4536 20.24 41.7736 20.32C42.0936 20.4 42.4069 20.4933 42.7136 20.6C43.3403 20.8133 43.8403 21.12 44.2136 21.52C44.5869 21.9067 44.7736 22.4267 44.7736 23.08C44.7736 23.6133 44.6336 24.12 44.3536 24.6C44.0869 25.0667 43.6736 25.4467 43.1136 25.74C42.5669 26.0333 41.8669 26.18 41.0136 26.18ZM51.0189 26.24C49.9522 26.24 49.0456 26.04 48.2989 25.64C47.5656 25.24 47.0056 24.6867 46.6189 23.98C46.2322 23.2733 46.0389 22.46 46.0389 21.54C46.0389 20.66 46.2656 19.8667 46.7189 19.16C47.1722 18.4533 47.7789 17.8933 48.5389 17.48C49.2989 17.0533 50.1456 16.84 51.0789 16.84C52.3322 16.84 53.3589 17.2067 54.1589 17.94C54.9722 18.66 55.4989 19.7067 55.7389 21.08L49.3389 23.12C49.7656 23.6133 50.3456 23.86 51.0789 23.86C51.3856 23.86 51.6789 23.8067 51.9589 23.7C52.2522 23.5933 52.5389 23.4533 52.8189 23.28L54.0589 25.36C53.5922 25.6267 53.0856 25.84 52.5389 26C52.0056 26.16 51.4989 26.24 51.0189 26.24ZM48.7989 21.38C48.7989 21.4467 48.7989 21.5067 48.7989 21.56L52.6389 20.26C52.5189 19.9267 52.3256 19.64 52.0589 19.4C51.7922 19.1467 51.3922 19.02 50.8589 19.02C50.2322 19.02 49.7322 19.2333 49.3589 19.66C48.9856 20.0867 48.7989 20.66 48.7989 21.38ZM59.8936 17.26L60.1136 19.26C60.3669 18.7533 60.7136 18.32 61.1536 17.96C61.5936 17.5867 62.0269 17.3067 62.4536 17.12C62.8803 16.92 63.2069 16.82 63.4336 16.82L63.2936 19.62C62.6403 19.54 62.0803 19.6467 61.6136 19.94C61.1469 20.2333 60.7869 20.62 60.5336 21.1C60.2803 21.58 60.1536 22.0733 60.1536 22.58V26H57.3736V17.26H59.8936ZM65.8767 30.2L67.9767 25.54L63.9367 17.26H67.0767L69.3767 22.42L71.6967 17.26H74.2167L68.5767 30.2H65.8767ZM86.4842 11.28C88.3376 11.28 89.7576 11.7333 90.7442 12.64C91.7442 13.5333 92.2442 14.7333 92.2442 16.24C92.2442 17.08 92.0642 17.9067 91.7042 18.72C91.3576 19.5333 90.7642 20.18 89.9242 20.66L93.3442 26H89.9642L86.8642 21.32H84.9242V26H82.0242V11.28H86.4842ZM86.9842 18.52C87.5709 18.52 88.0242 18.4 88.3442 18.16C88.6776 17.9067 88.9109 17.6133 89.0442 17.28C89.1776 16.9333 89.2442 16.62 89.2442 16.34C89.2442 16.18 89.2176 15.98 89.1642 15.74C89.1242 15.4867 89.0309 15.2333 88.8842 14.98C88.7376 14.7267 88.5109 14.5133 88.2042 14.34C87.9109 14.1667 87.5109 14.08 87.0042 14.08H84.9242V18.52H86.9842ZM94.8752 26V10.22H97.6152V18.64C97.9218 18.1067 98.3552 17.6733 98.9152 17.34C99.4752 17.0067 100.155 16.84 100.955 16.84C101.782 16.84 102.468 17.0867 103.015 17.58C103.575 18.06 103.862 18.6867 103.875 19.46V26H101.075V20.5C101.062 20.1133 100.955 19.8067 100.755 19.58C100.568 19.34 100.248 19.22 99.7952 19.22C99.1418 19.22 98.6218 19.5267 98.2352 20.14C97.8618 20.74 97.6752 21.5067 97.6752 22.44V26H94.8752ZM107.05 30.2L109.15 25.54L105.11 17.26H108.25L110.55 22.42L112.87 17.26H115.39L109.75 30.2H107.05ZM119.174 17.26L119.374 18.64C119.707 18.0667 120.134 17.62 120.654 17.3C121.187 16.98 121.814 16.82 122.534 16.82C123.24 16.82 123.827 16.9667 124.294 17.26C124.774 17.54 125.087 17.9667 125.234 18.54C125.594 18.02 126.027 17.6067 126.534 17.3C127.054 16.98 127.594 16.82 128.154 16.82C129.02 16.82 129.707 17.0667 130.214 17.56C130.734 18.04 131 18.6667 131.014 19.44V26H128.234V20.6C128.22 20.2133 128.16 19.9 128.054 19.66C127.947 19.4067 127.7 19.2667 127.314 19.24C126.86 19.24 126.474 19.4 126.154 19.72C125.847 20.0267 125.614 20.4267 125.454 20.92C125.307 21.4 125.234 21.9 125.234 22.42V26H122.434V20.6C122.42 20.2133 122.347 19.9 122.214 19.66C122.094 19.4067 121.84 19.2667 121.454 19.24C121.014 19.24 120.64 19.4 120.334 19.72C120.04 20.0267 119.814 20.42 119.654 20.9C119.507 21.38 119.434 21.8733 119.434 22.38V26H116.634V17.26H119.174ZM137.799 26.24C136.733 26.24 135.826 26.04 135.079 25.64C134.346 25.24 133.786 24.6867 133.399 23.98C133.013 23.2733 132.819 22.46 132.819 21.54C132.819 20.66 133.046 19.8667 133.499 19.16C133.953 18.4533 134.559 17.8933 135.319 17.48C136.079 17.0533 136.926 16.84 137.859 16.84C139.113 16.84 140.139 17.2067 140.939 17.94C141.753 18.66 142.279 19.7067 142.519 21.08L136.119 23.12C136.546 23.6133 137.126 23.86 137.859 23.86C138.166 23.86 138.459 23.8067 138.739 23.7C139.033 23.5933 139.319 23.4533 139.599 23.28L140.839 25.36C140.373 25.6267 139.866 25.84 139.319 26C138.786 26.16 138.279 26.24 137.799 26.24ZM135.579 21.38C135.579 21.4467 135.579 21.5067 135.579 21.56L139.419 20.26C139.299 19.9267 139.106 19.64 138.839 19.4C138.573 19.1467 138.173 19.02 137.639 19.02C137.013 19.02 136.513 19.2333 136.139 19.66C135.766 20.0867 135.579 20.66 135.579 21.38ZM146.994 26.18C146.274 26.18 145.601 26.0533 144.974 25.8C144.361 25.5467 143.841 25.1933 143.414 24.74L144.574 23.2C145.001 23.5867 145.394 23.8667 145.754 24.04C146.127 24.2 146.461 24.28 146.754 24.28C147.101 24.28 147.387 24.2267 147.614 24.12C147.841 24.0133 147.954 23.84 147.954 23.6C147.954 23.3733 147.861 23.1933 147.674 23.06C147.501 22.9267 147.274 22.82 146.994 22.74C146.714 22.6467 146.414 22.5533 146.094 22.46C145.294 22.2067 144.714 21.84 144.354 21.36C144.007 20.8667 143.834 20.3333 143.834 19.76C143.834 19.32 143.947 18.88 144.174 18.44C144.414 17.9867 144.787 17.6133 145.294 17.32C145.814 17.0133 146.481 16.86 147.294 16.86C148.027 16.86 148.647 16.9333 149.154 17.08C149.661 17.2267 150.141 17.4667 150.594 17.8L149.534 19.44C149.281 19.24 148.994 19.0733 148.674 18.94C148.367 18.7933 148.081 18.7133 147.814 18.7C147.454 18.6867 147.174 18.7533 146.974 18.9C146.774 19.0333 146.674 19.1933 146.674 19.38C146.661 19.6333 146.754 19.8333 146.954 19.98C147.167 20.1267 147.434 20.24 147.754 20.32C148.074 20.4 148.387 20.4933 148.694 20.6C149.321 20.8133 149.821 21.12 150.194 21.52C150.567 21.9067 150.754 22.4267 150.754 23.08C150.754 23.6133 150.614 24.12 150.334 24.6C150.067 25.0667 149.654 25.4467 149.094 25.74C148.547 26.0333 147.847 26.18 146.994 26.18Z" fill="#2A2921"/>
<path d="M6.55 62.225C5.57 62.225 4.71 62.015 3.97 61.595C3.24 61.165 2.675 60.54 2.275 59.72C1.875 58.9 1.675 57.91 1.675 56.75C1.675 55.59 1.875 54.6 2.275 53.78C2.675 52.96 3.24 52.34 3.97 51.92C4.71 51.49 5.57 51.275 6.55 51.275C7.53 51.275 8.385 51.49 9.115 51.92C9.855 52.34 10.425 52.96 10.825 53.78C11.225 54.6 11.425 55.59 11.425 56.75C11.425 57.91 11.225 58.9 10.825 59.72C10.425 60.54 9.855 61.165 9.115 61.595C8.385 62.015 7.53 62.225 6.55 62.225ZM6.55 61.925C6.94 61.925 7.3 61.76 7.63 61.43C7.97 61.1 8.25 60.55 8.47 59.78C8.69 59.01 8.8 58 8.8 56.75C8.8 55.5 8.69 54.49 8.47 53.72C8.25 52.95 7.97 52.4 7.63 52.07C7.3 51.74 6.94 51.575 6.55 51.575C6.16 51.575 5.795 51.74 5.455 52.07C5.125 52.4 4.85 52.95 4.63 53.72C4.41 54.49 4.3 55.5 4.3 56.75C4.3 58 4.41 59.01 4.63 59.78C4.85 60.55 5.125 61.1 5.455 61.43C5.795 61.76 6.16 61.925 6.55 61.925ZM12.4035 61.775L13.3035 61.55V54.95L12.4035 54.725V54.5H13.7535C14.3435 54.5 14.8085 54.69 15.1485 55.07C15.2785 55.22 15.3885 55.405 15.4785 55.625C15.6185 55.365 15.7835 55.14 15.9735 54.95C16.4235 54.5 16.9835 54.275 17.6535 54.275C18.2135 54.275 18.7135 54.395 19.1535 54.635C19.6035 54.865 19.9535 55.17 20.2035 55.55C20.4535 55.93 20.5785 56.33 20.5785 56.75V61.55L21.4785 61.775V62H19.5285C18.6285 62 18.1785 61.55 18.1785 60.65V56.75C18.1785 56.12 18.0635 55.64 17.8335 55.31C17.6135 54.97 17.3535 54.8 17.0535 54.8C16.6735 54.8 16.3335 55 16.0335 55.4C15.9035 55.57 15.7935 55.77 15.7035 56V61.55L16.6035 61.775V62H12.4035V61.775ZM26.1291 62.225C24.8491 62.225 23.8541 61.875 23.1441 61.175C22.4341 60.465 22.0791 59.49 22.0791 58.25C22.0791 57.44 22.2341 56.735 22.5441 56.135C22.8541 55.535 23.2841 55.075 23.8341 54.755C24.3941 54.435 25.0341 54.275 25.7541 54.275C26.4741 54.275 27.1041 54.41 27.6441 54.68C28.1941 54.95 28.6141 55.315 28.9041 55.775C29.2041 56.225 29.3541 56.725 29.3541 57.275C29.3541 57.525 29.3291 57.74 29.2791 57.92L29.2041 58.175C28.7741 58.265 28.3091 58.34 27.8091 58.4C26.7591 58.55 25.6991 58.625 24.6291 58.625C24.6291 59.785 24.7891 60.615 25.1091 61.115C25.4291 61.605 25.8691 61.85 26.4291 61.85C26.8191 61.85 27.1791 61.76 27.5091 61.58C27.8491 61.39 28.1141 61.145 28.3041 60.845C28.5041 60.535 28.6041 60.22 28.6041 59.9H28.9791C28.9791 60.3 28.8591 60.68 28.6191 61.04C28.3791 61.4 28.0441 61.69 27.6141 61.91C27.1841 62.12 26.6891 62.225 26.1291 62.225ZM24.6291 58.25C25.2691 58.25 25.7891 58.225 26.1891 58.175C26.3591 58.165 26.5391 58.14 26.7291 58.1C26.7391 58.05 26.7641 57.94 26.8041 57.77C26.8541 57.52 26.8791 57.255 26.8791 56.975C26.8791 56.145 26.7691 55.54 26.5491 55.16C26.3291 54.77 26.0641 54.575 25.7541 54.575C25.0041 54.575 24.6291 55.8 24.6291 58.25ZM34.0018 61.775L34.9018 61.55V55.175H33.8518V54.8H34.9018V54.05C34.9018 53.52 35.0268 53.045 35.2768 52.625C35.5368 52.205 35.9018 51.875 36.3718 51.635C36.8518 51.395 37.4118 51.275 38.0518 51.275C38.5718 51.275 39.0168 51.355 39.3868 51.515C39.7668 51.665 40.0518 51.87 40.2418 52.13C40.4318 52.38 40.5268 52.645 40.5268 52.925C40.5268 53.265 40.4218 53.54 40.2118 53.75C40.0118 53.95 39.7418 54.05 39.4018 54.05C39.2618 54.05 39.1218 54.04 38.9818 54.02L38.8018 53.975V51.65L38.6668 51.62C38.6268 51.61 38.5818 51.6 38.5318 51.59C38.4818 51.58 38.4218 51.575 38.3518 51.575C38.0118 51.575 37.7518 51.755 37.5718 52.115C37.3918 52.465 37.3018 53.11 37.3018 54.05V54.8H39.7018V55.175H37.3018V61.55L38.2018 61.775V62H34.0018V61.775ZM43.8309 62.225C42.5909 62.225 41.6159 61.875 40.9059 61.175C40.2059 60.465 39.8559 59.49 39.8559 58.25C39.8559 57.01 40.2059 56.04 40.9059 55.34C41.6159 54.63 42.5909 54.275 43.8309 54.275C45.0709 54.275 46.0409 54.63 46.7409 55.34C47.4509 56.04 47.8059 57.01 47.8059 58.25C47.8059 59.49 47.4509 60.465 46.7409 61.175C46.0409 61.875 45.0709 62.225 43.8309 62.225ZM43.8309 61.925C44.2309 61.925 44.5659 61.645 44.8359 61.085C45.1159 60.525 45.2559 59.58 45.2559 58.25C45.2559 56.92 45.1159 55.975 44.8359 55.415C44.5659 54.855 44.2309 54.575 43.8309 54.575C43.4309 54.575 43.0909 54.855 42.8109 55.415C42.5409 55.975 42.4059 56.92 42.4059 58.25C42.4059 59.58 42.5409 60.525 42.8109 61.085C43.0909 61.645 43.4309 61.925 43.8309 61.925ZM48.7111 61.775L49.6111 61.55V54.95L48.7111 54.725V54.5H50.0611C50.6511 54.5 51.1161 54.69 51.4561 55.07C51.5861 55.22 51.6961 55.405 51.7861 55.625C51.9361 55.405 52.1211 55.205 52.3411 55.025C52.8411 54.625 53.4011 54.425 54.0211 54.425C54.5511 54.425 54.9461 54.55 55.2061 54.8C55.4761 55.04 55.6111 55.39 55.6111 55.85C55.6111 56.19 55.5061 56.465 55.2961 56.675C55.0961 56.875 54.8261 56.975 54.4861 56.975C54.3461 56.975 54.2061 56.965 54.0661 56.945L53.8861 56.9V54.8C53.3761 54.8 52.9111 55 52.4911 55.4C52.2911 55.6 52.1311 55.8 52.0111 56V61.55L52.9111 61.775V62H48.7111V61.775ZM63.4135 62.225C62.7935 62.225 62.2385 62.09 61.7485 61.82C61.5085 61.69 61.3135 61.55 61.1635 61.4C61.0035 61.62 60.8285 61.79 60.6385 61.91C60.5485 61.97 60.4485 62.025 60.3385 62.075H59.9635V59.525H60.5635C60.6935 59.945 60.8835 60.335 61.1335 60.695C61.6635 61.465 62.3235 61.85 63.1135 61.85C63.5335 61.85 63.8485 61.75 64.0585 61.55C64.2785 61.34 64.3885 61.04 64.3885 60.65C64.3885 60.32 64.2385 60.045 63.9385 59.825C63.6485 59.595 63.1885 59.315 62.5585 58.985C62.0185 58.715 61.5785 58.475 61.2385 58.265C60.9085 58.045 60.6235 57.775 60.3835 57.455C60.1535 57.125 60.0385 56.74 60.0385 56.3C60.0385 55.7 60.2935 55.215 60.8035 54.845C61.3235 54.465 62.1185 54.275 63.1885 54.275C63.7185 54.275 64.2085 54.415 64.6585 54.695C64.8785 54.825 65.0685 54.96 65.2285 55.1C65.3585 54.92 65.5335 54.75 65.7535 54.59C65.9235 54.49 66.0235 54.435 66.0535 54.425H66.4285V56.975H65.8285C65.6785 56.545 65.4935 56.16 65.2735 55.82C64.7735 55.04 64.1785 54.65 63.4885 54.65C63.2185 54.65 62.9885 54.75 62.7985 54.95C62.6085 55.15 62.5135 55.4 62.5135 55.7C62.5135 56.08 62.6735 56.4 62.9935 56.66C63.3135 56.91 63.7985 57.2 64.4485 57.53C64.9785 57.8 65.3985 58.04 65.7085 58.25C66.0285 58.45 66.2985 58.7 66.5185 59C66.7485 59.3 66.8635 59.65 66.8635 60.05C66.8635 61.5 65.7135 62.225 63.4135 62.225ZM71.6641 62.225C70.4241 62.225 69.4491 61.875 68.7391 61.175C68.0391 60.465 67.6891 59.49 67.6891 58.25C67.6891 57.01 68.0391 56.04 68.7391 55.34C69.4491 54.63 70.4241 54.275 71.6641 54.275C72.9041 54.275 73.8741 54.63 74.5741 55.34C75.2841 56.04 75.6391 57.01 75.6391 58.25C75.6391 59.49 75.2841 60.465 74.5741 61.175C73.8741 61.875 72.9041 62.225 71.6641 62.225ZM71.6641 61.925C72.0641 61.925 72.3991 61.645 72.6691 61.085C72.9491 60.525 73.0891 59.58 73.0891 58.25C73.0891 56.92 72.9491 55.975 72.6691 55.415C72.3991 54.855 72.0641 54.575 71.6641 54.575C71.2641 54.575 70.9241 54.855 70.6441 55.415C70.3741 55.975 70.2391 56.92 70.2391 58.25C70.2391 59.58 70.3741 60.525 70.6441 61.085C70.9241 61.645 71.2641 61.925 71.6641 61.925ZM76.5443 61.775L77.4443 61.55V54.95L76.5443 54.725V54.5H77.8943C78.4843 54.5 78.9493 54.69 79.2893 55.07C79.4193 55.22 79.5293 55.405 79.6193 55.625C79.7693 55.405 79.9543 55.205 80.1743 55.025C80.6743 54.625 81.2343 54.425 81.8543 54.425C82.3843 54.425 82.7793 54.55 83.0393 54.8C83.3093 55.04 83.4443 55.39 83.4443 55.85C83.4443 56.19 83.3393 56.465 83.1293 56.675C82.9293 56.875 82.6593 56.975 82.3193 56.975C82.1793 56.975 82.0393 56.965 81.8993 56.945L81.7193 56.9V54.8C81.2093 54.8 80.7443 55 80.3243 55.4C80.1243 55.6 79.9643 55.8 79.8443 56V61.55L80.7443 61.775V62H76.5443V61.775ZM83.8176 61.775L84.7176 61.55V54.95L83.8176 54.725V54.5H85.1676C85.7576 54.5 86.2226 54.69 86.5626 55.07C86.6926 55.22 86.8026 55.405 86.8926 55.625C87.0426 55.405 87.2276 55.205 87.4476 55.025C87.9476 54.625 88.5076 54.425 89.1276 54.425C89.6576 54.425 90.0526 54.55 90.3126 54.8C90.5826 55.04 90.7176 55.39 90.7176 55.85C90.7176 56.19 90.6126 56.465 90.4026 56.675C90.2026 56.875 89.9326 56.975 89.5926 56.975C89.4526 56.975 89.3126 56.965 89.1726 56.945L88.9926 56.9V54.8C88.4826 54.8 88.0176 55 87.5976 55.4C87.3976 55.6 87.2376 55.8 87.1176 56V61.55L88.0176 61.775V62H83.8176V61.775ZM95.0658 62.225C93.8258 62.225 92.8508 61.875 92.1408 61.175C91.4408 60.465 91.0908 59.49 91.0908 58.25C91.0908 57.01 91.4408 56.04 92.1408 55.34C92.8508 54.63 93.8258 54.275 95.0658 54.275C96.3058 54.275 97.2758 54.63 97.9758 55.34C98.6858 56.04 99.0408 57.01 99.0408 58.25C99.0408 59.49 98.6858 60.465 97.9758 61.175C97.2758 61.875 96.3058 62.225 95.0658 62.225ZM95.0658 61.925C95.4658 61.925 95.8008 61.645 96.0708 61.085C96.3508 60.525 96.4908 59.58 96.4908 58.25C96.4908 56.92 96.3508 55.975 96.0708 55.415C95.8008 54.855 95.4658 54.575 95.0658 54.575C94.6658 54.575 94.3258 54.855 94.0458 55.415C93.7758 55.975 93.6408 56.92 93.6408 58.25C93.6408 59.58 93.7758 60.525 94.0458 61.085C94.3258 61.645 94.6658 61.925 95.0658 61.925ZM99.7961 54.95L99.0461 54.725V54.5H100.771C101.301 54.5 101.721 54.61 102.031 54.83C102.341 55.05 102.596 55.365 102.796 55.775L104.446 59.225L105.301 57.035L104.296 54.95L103.546 54.725V54.5H105.271C105.801 54.5 106.221 54.61 106.531 54.83C106.841 55.05 107.096 55.365 107.296 55.775L108.946 59.225L110.521 55.175L109.396 54.725V54.5H112.171V54.725L110.971 55.175L108.196 62.15H107.746L105.526 57.53L103.696 62.15H103.246L99.7961 54.95ZM112.621 63.575C112.831 63.505 113.041 63.39 113.251 63.23C113.681 62.91 113.946 62.475 114.046 61.925L113.851 62.045C113.721 62.115 113.561 62.15 113.371 62.15C113.071 62.15 112.806 62.04 112.576 61.82C112.356 61.59 112.246 61.325 112.246 61.025C112.246 60.725 112.356 60.465 112.576 60.245C112.806 60.015 113.071 59.9 113.371 59.9C113.721 59.9 114.006 60.025 114.226 60.275C114.456 60.515 114.571 60.84 114.571 61.25C114.571 62.17 114.271 62.89 113.671 63.41C113.411 63.65 113.111 63.83 112.771 63.95L112.621 63.575ZM121.476 61.775L122.376 61.55V51.875H120.651C120.651 52.485 120.486 53.07 120.156 53.63C120.016 53.86 119.856 54.05 119.676 54.2H119.226V51.5H128.001V54.2H127.551C127.361 54.05 127.196 53.86 127.056 53.63C126.736 53.09 126.576 52.505 126.576 51.875H124.851V61.55L125.751 61.775V62H121.476V61.775ZM127.922 54.95L127.172 54.725V54.5H128.897C129.427 54.5 129.847 54.61 130.157 54.83C130.467 55.05 130.722 55.365 130.922 55.775L132.572 59.225L133.427 57.035L132.422 54.95L131.672 54.725V54.5H133.397C133.927 54.5 134.347 54.61 134.657 54.83C134.967 55.05 135.222 55.365 135.422 55.775L137.072 59.225L138.647 55.175L137.522 54.725V54.5H140.297V54.725L139.097 55.175L136.322 62.15H135.872L133.652 57.53L131.822 62.15H131.372L127.922 54.95ZM143.979 62.225C142.739 62.225 141.764 61.875 141.054 61.175C140.354 60.465 140.004 59.49 140.004 58.25C140.004 57.01 140.354 56.04 141.054 55.34C141.764 54.63 142.739 54.275 143.979 54.275C145.219 54.275 146.189 54.63 146.889 55.34C147.599 56.04 147.954 57.01 147.954 58.25C147.954 59.49 147.599 60.465 146.889 61.175C146.189 61.875 145.219 62.225 143.979 62.225ZM143.979 61.925C144.379 61.925 144.714 61.645 144.984 61.085C145.264 60.525 145.404 59.58 145.404 58.25C145.404 56.92 145.264 55.975 144.984 55.415C144.714 54.855 144.379 54.575 143.979 54.575C143.579 54.575 143.239 54.855 142.959 55.415C142.689 55.975 142.554 56.92 142.554 58.25C142.554 59.58 142.689 60.525 142.959 61.085C143.239 61.645 143.579 61.925 143.979 61.925ZM1.525 82.775L2.425 82.55V76.175H1.375V75.8H2.425V75.05C2.425 74.52 2.55 74.045 2.8 73.625C3.06 73.205 3.425 72.875 3.895 72.635C4.375 72.395 4.935 72.275 5.575 72.275C6.095 72.275 6.54 72.355 6.91 72.515C7.29 72.665 7.575 72.87 7.765 73.13C7.955 73.38 8.05 73.645 8.05 73.925C8.05 74.265 7.945 74.54 7.735 74.75C7.535 74.95 7.265 75.05 6.925 75.05C6.785 75.05 6.645 75.04 6.505 75.02L6.325 74.975V72.65L6.19 72.62C6.15 72.61 6.105 72.6 6.055 72.59C6.005 72.58 5.945 72.575 5.875 72.575C5.535 72.575 5.275 72.755 5.095 73.115C4.915 73.465 4.825 74.11 4.825 75.05V75.8H7.225V76.175H4.825V82.55L5.725 82.775V83H1.525V82.775ZM11.3541 83.225C10.1141 83.225 9.1391 82.875 8.4291 82.175C7.7291 81.465 7.3791 80.49 7.3791 79.25C7.3791 78.01 7.7291 77.04 8.4291 76.34C9.1391 75.63 10.1141 75.275 11.3541 75.275C12.5941 75.275 13.5641 75.63 14.2641 76.34C14.9741 77.04 15.3291 78.01 15.3291 79.25C15.3291 80.49 14.9741 81.465 14.2641 82.175C13.5641 82.875 12.5941 83.225 11.3541 83.225ZM11.3541 82.925C11.7541 82.925 12.0891 82.645 12.3591 82.085C12.6391 81.525 12.7791 80.58 12.7791 79.25C12.7791 77.92 12.6391 76.975 12.3591 76.415C12.0891 75.855 11.7541 75.575 11.3541 75.575C10.9541 75.575 10.6141 75.855 10.3341 76.415C10.0641 76.975 9.9291 77.92 9.9291 79.25C9.9291 80.58 10.0641 81.525 10.3341 82.085C10.6141 82.645 10.9541 82.925 11.3541 82.925ZM16.2344 82.775L17.1344 82.55V75.95L16.2344 75.725V75.5H17.5844C18.1744 75.5 18.6394 75.69 18.9794 76.07C19.1094 76.22 19.2194 76.405 19.3094 76.625C19.4594 76.405 19.6444 76.205 19.8644 76.025C20.3644 75.625 20.9244 75.425 21.5444 75.425C22.0744 75.425 22.4694 75.55 22.7294 75.8C22.9994 76.04 23.1344 76.39 23.1344 76.85C23.1344 77.19 23.0294 77.465 22.8194 77.675C22.6194 77.875 22.3494 77.975 22.0094 77.975C21.8694 77.975 21.7294 77.965 21.5894 77.945L21.4094 77.9V75.8C20.8994 75.8 20.4344 76 20.0144 76.4C19.8144 76.6 19.6544 76.8 19.5344 77V82.55L20.4344 82.775V83H16.2344V82.775ZM27.4117 82.775L28.3117 82.55V75.95L27.4117 75.725V75.5H28.7617C29.3517 75.5 29.8167 75.69 30.1567 76.07C30.2867 76.22 30.3967 76.405 30.4867 76.625C30.6367 76.345 30.7967 76.12 30.9667 75.95C31.4167 75.5 31.9317 75.275 32.5117 75.275C33.0917 75.275 33.6017 75.405 34.0417 75.665C34.4817 75.915 34.8217 76.26 35.0617 76.7C35.2117 76.41 35.3717 76.175 35.5417 75.995C36.0017 75.515 36.5167 75.275 37.0867 75.275C37.6167 75.275 38.0917 75.385 38.5117 75.605C38.9417 75.825 39.2717 76.125 39.5017 76.505C39.7417 76.885 39.8617 77.3 39.8617 77.75V82.55L40.7617 82.775V83H38.8117C37.9117 83 37.4617 82.55 37.4617 81.65V77.75C37.4617 77.1 37.3617 76.615 37.1617 76.295C36.9617 75.965 36.7367 75.8 36.4867 75.8C36.1967 75.8 35.9017 76 35.6017 76.4C35.4817 76.59 35.3767 76.79 35.2867 77V82.55L36.1867 82.775V83H31.9867V82.775L32.8867 82.55V77.75C32.8867 77.1 32.7867 76.615 32.5867 76.295C32.3867 75.965 32.1617 75.8 31.9117 75.8C31.6217 75.8 31.3267 76 31.0267 76.4C30.9067 76.59 30.8017 76.79 30.7117 77V82.55L31.6117 82.775V83H27.4117V82.775ZM41.3646 82.775L42.2646 82.55V75.95L41.3646 75.725V75.5H43.3146C44.2146 75.5 44.6646 75.95 44.6646 76.85V82.55L45.5646 82.775V83H41.3646V82.775ZM43.3146 74.6C43.0146 74.6 42.7646 74.5 42.5646 74.3C42.3646 74.1 42.2646 73.85 42.2646 73.55C42.2646 73.25 42.3646 73 42.5646 72.8C42.7646 72.6 43.0146 72.5 43.3146 72.5C43.6146 72.5 43.8646 72.6 44.0646 72.8C44.2646 73 44.3646 73.25 44.3646 73.55C44.3646 73.85 44.2646 74.1 44.0646 74.3C43.8646 74.5 43.6146 74.6 43.3146 74.6ZM46.1623 82.775L47.0623 82.55V75.95L46.1623 75.725V75.5H47.5123C48.1023 75.5 48.5673 75.69 48.9073 76.07C49.0373 76.22 49.1473 76.405 49.2373 76.625C49.3873 76.405 49.5723 76.205 49.7923 76.025C50.2923 75.625 50.8523 75.425 51.4723 75.425C52.0023 75.425 52.3973 75.55 52.6573 75.8C52.9273 76.04 53.0623 76.39 53.0623 76.85C53.0623 77.19 52.9573 77.465 52.7473 77.675C52.5473 77.875 52.2773 77.975 51.9373 77.975C51.7973 77.975 51.6573 77.965 51.5173 77.945L51.3373 77.9V75.8C50.8273 75.8 50.3623 76 49.9423 76.4C49.7423 76.6 49.5823 76.8 49.4623 77V82.55L50.3623 82.775V83H46.1623V82.775ZM57.482 83.225C56.822 83.225 56.247 83.105 55.757 82.865C55.277 82.625 54.907 82.295 54.647 81.875C54.387 81.455 54.257 80.98 54.257 80.45V75.875H53.207V75.5H54.257V74.75C54.257 73.85 54.707 73.4 55.607 73.4H56.657V75.5H58.757V75.875H56.657V80.45C56.657 81.37 56.752 82 56.942 82.34C57.132 82.68 57.412 82.85 57.782 82.85C58.142 82.85 58.457 82.675 58.727 82.325C58.997 81.975 59.132 81.5 59.132 80.9H59.507C59.507 81.64 59.322 82.215 58.952 82.625C58.582 83.025 58.092 83.225 57.482 83.225ZM60.035 82.775L60.935 82.55V72.95L60.035 72.725V72.5H61.985C62.885 72.5 63.335 72.95 63.335 73.85V76.25C63.485 76.05 63.64 75.89 63.8 75.77C64.23 75.44 64.725 75.275 65.285 75.275C65.845 75.275 66.345 75.395 66.785 75.635C67.235 75.865 67.585 76.17 67.835 76.55C68.085 76.93 68.21 77.33 68.21 77.75V82.55L69.11 82.775V83H67.16C66.26 83 65.81 82.55 65.81 81.65V77.75C65.81 77.12 65.695 76.64 65.465 76.31C65.245 75.97 64.985 75.8 64.685 75.8C64.305 75.8 63.965 76 63.665 76.4C63.535 76.57 63.425 76.77 63.335 77V82.55L64.235 82.775V83H60.035V82.775ZM70.1605 84.575C70.3705 84.505 70.5806 84.39 70.7905 84.23C71.2205 83.91 71.4855 83.475 71.5856 82.925L71.3906 83.045C71.2606 83.115 71.1006 83.15 70.9105 83.15C70.6105 83.15 70.3455 83.04 70.1155 82.82C69.8955 82.59 69.7855 82.325 69.7855 82.025C69.7855 81.725 69.8955 81.465 70.1155 81.245C70.3455 81.015 70.6105 80.9 70.9105 80.9C71.2605 80.9 71.5455 81.025 71.7655 81.275C71.9955 81.515 72.1105 81.84 72.1105 82.25C72.1105 83.17 71.8105 83.89 71.2105 84.41C70.9506 84.65 70.6506 84.83 70.3106 84.95L70.1605 84.575ZM79.0164 82.775L79.9164 82.55V72.875H78.1914C78.1914 73.485 78.0264 74.07 77.6964 74.63C77.5564 74.86 77.3964 75.05 77.2164 75.2H76.7664V72.5H85.5414V75.2H85.0914C84.9014 75.05 84.7364 74.86 84.5964 74.63C84.2764 74.09 84.1164 73.505 84.1164 72.875H82.3914V82.55L83.2914 82.775V83H79.0164V82.775ZM86.2129 82.775L87.1129 82.55V72.95L86.2129 72.725V72.5H88.1629C89.0629 72.5 89.5129 72.95 89.5129 73.85V76.25C89.6629 76.05 89.8179 75.89 89.9779 75.77C90.4079 75.44 90.9029 75.275 91.4629 75.275C92.0229 75.275 92.5229 75.395 92.9629 75.635C93.4129 75.865 93.7629 76.17 94.0129 76.55C94.2629 76.93 94.3879 77.33 94.3879 77.75V82.55L95.2879 82.775V83H93.3379C92.4379 83 91.9879 82.55 91.9879 81.65V77.75C91.9879 77.12 91.8729 76.64 91.6429 76.31C91.4229 75.97 91.1629 75.8 90.8629 75.8C90.4829 75.8 90.1429 76 89.8429 76.4C89.7129 76.57 89.6029 76.77 89.5129 77V82.55L90.4129 82.775V83H86.2129V82.775ZM95.8885 82.775L96.7885 82.55V75.95L95.8885 75.725V75.5H97.2385C97.8285 75.5 98.2935 75.69 98.6335 76.07C98.7635 76.22 98.8735 76.405 98.9635 76.625C99.1135 76.405 99.2985 76.205 99.5185 76.025C100.018 75.625 100.578 75.425 101.198 75.425C101.728 75.425 102.123 75.55 102.383 75.8C102.653 76.04 102.788 76.39 102.788 76.85C102.788 77.19 102.683 77.465 102.473 77.675C102.273 77.875 102.003 77.975 101.663 77.975C101.523 77.975 101.383 77.965 101.243 77.945L101.063 77.9V75.8C100.553 75.8 100.088 76 99.6685 76.4C99.4685 76.6 99.3085 76.8 99.1885 77V82.55L100.088 82.775V83H95.8885V82.775ZM107.212 83.225C105.932 83.225 104.937 82.875 104.227 82.175C103.517 81.465 103.162 80.49 103.162 79.25C103.162 78.44 103.317 77.735 103.627 77.135C103.937 76.535 104.367 76.075 104.917 75.755C105.477 75.435 106.117 75.275 106.837 75.275C107.557 75.275 108.187 75.41 108.727 75.68C109.277 75.95 109.697 76.315 109.987 76.775C110.287 77.225 110.437 77.725 110.437 78.275C110.437 78.525 110.412 78.74 110.362 78.92L110.287 79.175C109.857 79.265 109.392 79.34 108.892 79.4C107.842 79.55 106.782 79.625 105.712 79.625C105.712 80.785 105.872 81.615 106.192 82.115C106.512 82.605 106.952 82.85 107.512 82.85C107.902 82.85 108.262 82.76 108.592 82.58C108.932 82.39 109.197 82.145 109.387 81.845C109.587 81.535 109.687 81.22 109.687 80.9H110.062C110.062 81.3 109.942 81.68 109.702 82.04C109.462 82.4 109.127 82.69 108.697 82.91C108.267 83.12 107.772 83.225 107.212 83.225ZM105.712 79.25C106.352 79.25 106.872 79.225 107.272 79.175C107.442 79.165 107.622 79.14 107.812 79.1C107.822 79.05 107.847 78.94 107.887 78.77C107.937 78.52 107.962 78.255 107.962 77.975C107.962 77.145 107.852 76.54 107.632 76.16C107.412 75.77 107.147 75.575 106.837 75.575C106.087 75.575 105.712 76.8 105.712 79.25ZM115.305 83.225C114.025 83.225 113.03 82.875 112.32 82.175C111.61 81.465 111.255 80.49 111.255 79.25C111.255 78.44 111.41 77.735 111.72 77.135C112.03 76.535 112.46 76.075 113.01 75.755C113.57 75.435 114.21 75.275 114.93 75.275C115.65 75.275 116.28 75.41 116.82 75.68C117.37 75.95 117.79 76.315 118.08 76.775C118.38 77.225 118.53 77.725 118.53 78.275C118.53 78.525 118.505 78.74 118.455 78.92L118.38 79.175C117.95 79.265 117.485 79.34 116.985 79.4C115.935 79.55 114.875 79.625 113.805 79.625C113.805 80.785 113.965 81.615 114.285 82.115C114.605 82.605 115.045 82.85 115.605 82.85C115.995 82.85 116.355 82.76 116.685 82.58C117.025 82.39 117.29 82.145 117.48 81.845C117.68 81.535 117.78 81.22 117.78 80.9H118.155C118.155 81.3 118.035 81.68 117.795 82.04C117.555 82.4 117.22 82.69 116.79 82.91C116.36 83.12 115.865 83.225 115.305 83.225ZM113.805 79.25C114.445 79.25 114.965 79.225 115.365 79.175C115.535 79.165 115.715 79.14 115.905 79.1C115.915 79.05 115.94 78.94 115.98 78.77C116.03 78.52 116.055 78.255 116.055 77.975C116.055 77.145 115.945 76.54 115.725 76.16C115.505 75.77 115.24 75.575 114.93 75.575C114.18 75.575 113.805 76.8 113.805 79.25ZM123.178 82.775L124.078 82.55V76.175H123.028V75.8H124.078V75.05C124.078 74.52 124.203 74.045 124.453 73.625C124.713 73.205 125.078 72.875 125.548 72.635C126.028 72.395 126.588 72.275 127.228 72.275C127.748 72.275 128.193 72.355 128.563 72.515C128.943 72.665 129.228 72.87 129.418 73.13C129.608 73.38 129.703 73.645 129.703 73.925C129.703 74.265 129.598 74.54 129.388 74.75C129.188 74.95 128.918 75.05 128.578 75.05C128.438 75.05 128.298 75.04 128.158 75.02L127.978 74.975V72.65L127.843 72.62C127.803 72.61 127.758 72.6 127.708 72.59C127.658 72.58 127.598 72.575 127.528 72.575C127.188 72.575 126.928 72.755 126.748 73.115C126.568 73.465 126.478 74.11 126.478 75.05V75.8H128.878V76.175H126.478V82.55L127.378 82.775V83H123.178V82.775ZM133.007 83.225C131.767 83.225 130.792 82.875 130.082 82.175C129.382 81.465 129.032 80.49 129.032 79.25C129.032 78.01 129.382 77.04 130.082 76.34C130.792 75.63 131.767 75.275 133.007 75.275C134.247 75.275 135.217 75.63 135.917 76.34C136.627 77.04 136.982 78.01 136.982 79.25C136.982 80.49 136.627 81.465 135.917 82.175C135.217 82.875 134.247 83.225 133.007 83.225ZM133.007 82.925C133.407 82.925 133.742 82.645 134.012 82.085C134.292 81.525 134.432 80.58 134.432 79.25C134.432 77.92 134.292 76.975 134.012 76.415C133.742 75.855 133.407 75.575 133.007 75.575C132.607 75.575 132.267 75.855 131.987 76.415C131.717 76.975 131.582 77.92 131.582 79.25C131.582 80.58 131.717 81.525 131.987 82.085C132.267 82.645 132.607 82.925 133.007 82.925ZM137.887 82.775L138.787 82.55V75.95L137.887 75.725V75.5H139.237C139.827 75.5 140.292 75.69 140.632 76.07C140.762 76.22 140.872 76.405 140.962 76.625C141.112 76.405 141.297 76.205 141.517 76.025C142.017 75.625 142.577 75.425 143.197 75.425C143.727 75.425 144.122 75.55 144.382 75.8C144.652 76.04 144.787 76.39 144.787 76.85C144.787 77.19 144.682 77.465 144.472 77.675C144.272 77.875 144.002 77.975 143.662 77.975C143.522 77.975 143.382 77.965 143.242 77.945L143.062 77.9V75.8C142.552 75.8 142.087 76 141.667 76.4C141.467 76.6 141.307 76.8 141.187 77V82.55L142.087 82.775V83H137.887V82.775ZM151.99 83.225C151.1 83.225 150.415 83.035 149.935 82.655C149.455 82.275 149.215 81.79 149.215 81.2C149.215 80.81 149.3 80.425 149.47 80.045C149.54 79.865 149.63 79.7 149.74 79.55C150.15 79.45 150.595 79.36 151.075 79.28C152.155 79.1 153.11 78.99 153.94 78.95V78.5C153.94 77.39 153.805 76.625 153.535 76.205C153.265 75.785 152.85 75.575 152.29 75.575C152.08 75.575 151.9 75.6 151.75 75.65L151.54 75.725V77.975L151.345 78.02C151.185 78.04 151.05 78.05 150.94 78.05C150.6 78.05 150.325 77.95 150.115 77.75C149.915 77.54 149.815 77.265 149.815 76.925C149.815 76.465 150.045 76.075 150.505 75.755C150.975 75.435 151.67 75.275 152.59 75.275C153.37 75.275 154.04 75.415 154.6 75.695C155.17 75.965 155.6 76.345 155.89 76.835C156.19 77.315 156.34 77.87 156.34 78.5V82.55L157.24 82.775V83H155.89C155.29 83 154.825 82.815 154.495 82.445C154.355 82.295 154.245 82.105 154.165 81.875C154.025 82.125 153.86 82.35 153.67 82.55C153.22 83 152.66 83.225 151.99 83.225ZM152.59 82.7C152.96 82.7 153.295 82.5 153.595 82.1C153.705 81.95 153.82 81.75 153.94 81.5V79.325C153.48 79.325 153.04 79.35 152.62 79.4C152.31 79.44 152.1 79.465 151.99 79.475C151.94 79.585 151.89 79.735 151.84 79.925C151.74 80.305 151.69 80.68 151.69 81.05C151.69 81.61 151.775 82.025 151.945 82.295C152.115 82.565 152.33 82.7 152.59 82.7ZM1.45 96.95L0.7 96.725V96.5H2.425C2.955 96.5 3.375 96.61 3.685 96.83C3.995 97.05 4.25 97.365 4.45 97.775L6.1 101.225L6.955 99.035L5.95 96.95L5.2 96.725V96.5H6.925C7.455 96.5 7.875 96.61 8.185 96.83C8.495 97.05 8.75 97.365 8.95 97.775L10.6 101.225L12.175 97.175L11.05 96.725V96.5H13.825V96.725L12.625 97.175L9.85 104.15H9.4L7.18 99.53L5.35 104.15H4.9L1.45 96.95ZM17.5814 104.225C16.3014 104.225 15.3064 103.875 14.5964 103.175C13.8864 102.465 13.5314 101.49 13.5314 100.25C13.5314 99.44 13.6864 98.735 13.9964 98.135C14.3064 97.535 14.7364 97.075 15.2864 96.755C15.8464 96.435 16.4864 96.275 17.2064 96.275C17.9264 96.275 18.5564 96.41 19.0964 96.68C19.6464 96.95 20.0664 97.315 20.3564 97.775C20.6564 98.225 20.8064 98.725 20.8064 99.275C20.8064 99.525 20.7814 99.74 20.7314 99.92L20.6564 100.175C20.2264 100.265 19.7614 100.34 19.2614 100.4C18.2114 100.55 17.1514 100.625 16.0814 100.625C16.0814 101.785 16.2414 102.615 16.5614 103.115C16.8814 103.605 17.3214 103.85 17.8814 103.85C18.2714 103.85 18.6314 103.76 18.9614 103.58C19.3014 103.39 19.5664 103.145 19.7564 102.845C19.9564 102.535 20.0564 102.22 20.0564 101.9H20.4314C20.4314 102.3 20.3114 102.68 20.0714 103.04C19.8314 103.4 19.4964 103.69 19.0664 103.91C18.6364 104.12 18.1414 104.225 17.5814 104.225ZM16.0814 100.25C16.7214 100.25 17.2414 100.225 17.6414 100.175C17.8114 100.165 17.9914 100.14 18.1814 100.1C18.1914 100.05 18.2164 99.94 18.2564 99.77C18.3064 99.52 18.3314 99.255 18.3314 98.975C18.3314 98.145 18.2214 97.54 18.0014 97.16C17.7814 96.77 17.5164 96.575 17.2064 96.575C16.4564 96.575 16.0814 97.8 16.0814 100.25ZM24.7 104.225C24.11 104.225 23.585 104.075 23.125 103.775C22.665 103.465 22.3 103.015 22.03 102.425C21.76 101.825 21.625 101.1 21.625 100.25C21.625 98.97 21.92 97.99 22.51 97.31C23.11 96.62 23.915 96.275 24.925 96.275C25.405 96.275 25.825 96.375 26.185 96.575C26.335 96.645 26.49 96.745 26.65 96.875V93.95L25.75 93.725V93.5H27.7C28.6 93.5 29.05 93.95 29.05 94.85V103.55L29.95 103.775V104H28.6C28 104 27.535 103.815 27.205 103.445C27.065 103.295 26.955 103.105 26.875 102.875C26.745 103.125 26.58 103.35 26.38 103.55C25.93 104 25.37 104.225 24.7 104.225ZM25.3 103.7C25.67 103.7 26.005 103.5 26.305 103.1C26.415 102.95 26.53 102.75 26.65 102.5V97.325C26.54 97.215 26.425 97.115 26.305 97.025C26.035 96.825 25.775 96.725 25.525 96.725C25.095 96.725 24.76 96.975 24.52 97.475C24.29 97.975 24.175 98.9 24.175 100.25C24.175 101.54 24.28 102.44 24.49 102.95C24.71 103.45 24.98 103.7 25.3 103.7ZM33.7018 104.225C33.1118 104.225 32.5868 104.075 32.1268 103.775C31.6668 103.465 31.3018 103.015 31.0318 102.425C30.7618 101.825 30.6268 101.1 30.6268 100.25C30.6268 98.97 30.9218 97.99 31.5118 97.31C32.1118 96.62 32.9168 96.275 33.9268 96.275C34.4068 96.275 34.8268 96.375 35.1868 96.575C35.3368 96.645 35.4918 96.745 35.6518 96.875V93.95L34.7518 93.725V93.5H36.7018C37.6018 93.5 38.0518 93.95 38.0518 94.85V103.55L38.9518 103.775V104H37.6018C37.0018 104 36.5368 103.815 36.2068 103.445C36.0668 103.295 35.9568 103.105 35.8768 102.875C35.7468 103.125 35.5818 103.35 35.3818 103.55C34.9318 104 34.3718 104.225 33.7018 104.225ZM34.3018 103.7C34.6718 103.7 35.0068 103.5 35.3068 103.1C35.4168 102.95 35.5318 102.75 35.6518 102.5V97.325C35.5418 97.215 35.4268 97.115 35.3068 97.025C35.0368 96.825 34.7768 96.725 34.5268 96.725C34.0968 96.725 33.7618 96.975 33.5218 97.475C33.2918 97.975 33.1768 98.9 33.1768 100.25C33.1768 101.54 33.2818 102.44 33.4918 102.95C33.7118 103.45 33.9818 103.7 34.3018 103.7ZM39.6285 103.775L40.5285 103.55V96.95L39.6285 96.725V96.5H41.5785C42.4785 96.5 42.9285 96.95 42.9285 97.85V103.55L43.8285 103.775V104H39.6285V103.775ZM41.5785 95.6C41.2785 95.6 41.0285 95.5 40.8285 95.3C40.6285 95.1 40.5285 94.85 40.5285 94.55C40.5285 94.25 40.6285 94 40.8285 93.8C41.0285 93.6 41.2785 93.5 41.5785 93.5C41.8785 93.5 42.1285 93.6 42.3285 93.8C42.5285 94 42.6285 94.25 42.6285 94.55C42.6285 94.85 42.5285 95.1 42.3285 95.3C42.1285 95.5 41.8785 95.6 41.5785 95.6ZM44.4262 103.775L45.3262 103.55V96.95L44.4262 96.725V96.5H45.7762C46.3662 96.5 46.8312 96.69 47.1712 97.07C47.3012 97.22 47.4112 97.405 47.5012 97.625C47.6412 97.365 47.8062 97.14 47.9962 96.95C48.4462 96.5 49.0062 96.275 49.6762 96.275C50.2362 96.275 50.7362 96.395 51.1762 96.635C51.6262 96.865 51.9762 97.17 52.2262 97.55C52.4762 97.93 52.6012 98.33 52.6012 98.75V103.55L53.5012 103.775V104H51.5512C50.6512 104 50.2012 103.55 50.2012 102.65V98.75C50.2012 98.12 50.0862 97.64 49.8562 97.31C49.6362 96.97 49.3762 96.8 49.0762 96.8C48.6962 96.8 48.3562 97 48.0562 97.4C47.9262 97.57 47.8162 97.77 47.7262 98V103.55L48.6262 103.775V104H44.4262V103.775ZM57.6268 107.225C56.7368 107.225 56.0118 107.145 55.4518 106.985C54.8918 106.825 54.4868 106.62 54.2368 106.37C53.9968 106.12 53.8768 105.855 53.8768 105.575C53.8768 105.235 53.9768 104.96 54.1768 104.75C54.3868 104.55 54.6618 104.45 55.0018 104.45C55.0818 104.45 55.2268 104.465 55.4368 104.495L55.6018 104.525V106.625C55.7218 106.665 55.9118 106.715 56.1718 106.775C56.6318 106.875 57.0668 106.925 57.4768 106.925C58.6968 106.925 59.5868 106.75 60.1468 106.4C60.7168 106.06 61.0018 105.635 61.0018 105.125C61.0018 104.475 60.4018 104.15 59.2018 104.15H56.3518C55.6018 104.15 55.0268 103.995 54.6268 103.685C54.2268 103.375 54.0268 102.98 54.0268 102.5C54.0268 102.02 54.2618 101.595 54.7318 101.225C54.9218 101.085 55.1618 100.96 55.4518 100.85C55.0818 100.62 54.8118 100.35 54.6418 100.04C54.4818 99.72 54.4018 99.34 54.4018 98.9C54.4018 98.16 54.6818 97.565 55.2418 97.115C55.8018 96.655 56.6218 96.425 57.7018 96.425C58.1718 96.425 58.6018 96.475 58.9918 96.575C59.3918 96.665 59.7118 96.79 59.9518 96.95C60.0318 96.78 60.1368 96.63 60.2668 96.5C60.5668 96.2 60.9368 96.05 61.3768 96.05C61.7168 96.05 62.0018 96.17 62.2318 96.41C62.4618 96.64 62.5768 96.945 62.5768 97.325C62.5768 97.615 62.4968 97.85 62.3368 98.03C62.1868 98.21 61.9918 98.3 61.7518 98.3C61.6418 98.3 61.5168 98.29 61.3768 98.27L61.2268 98.225V96.425C60.9668 96.425 60.7218 96.55 60.4918 96.8C60.4018 96.89 60.3218 97.015 60.2518 97.175C60.7518 97.615 61.0018 98.19 61.0018 98.9C61.0018 99.64 60.7218 100.24 60.1618 100.7C59.6018 101.15 58.7818 101.375 57.7018 101.375C56.9818 101.375 56.3318 101.25 55.7518 101L55.4518 101.15C55.3518 101.21 55.2768 101.27 55.2268 101.33C55.1768 101.38 55.1518 101.445 55.1518 101.525C55.1518 101.695 55.2368 101.825 55.4068 101.915C55.5868 102.005 55.9018 102.05 56.3518 102.05H59.2018C59.9518 102.05 60.5368 102.27 60.9568 102.71C61.3868 103.14 61.6018 103.745 61.6018 104.525C61.6018 105.325 61.2668 105.975 60.5968 106.475C59.9368 106.975 58.9468 107.225 57.6268 107.225ZM57.7018 101.075C58.0318 101.075 58.2868 100.915 58.4668 100.595C58.6568 100.275 58.7518 99.71 58.7518 98.9C58.7518 98.09 58.6568 97.525 58.4668 97.205C58.2868 96.885 58.0318 96.725 57.7018 96.725C57.3718 96.725 57.1118 96.885 56.9218 97.205C56.7418 97.525 56.6518 98.09 56.6518 98.9C56.6518 99.71 56.7418 100.275 56.9218 100.595C57.1118 100.915 57.3718 101.075 57.7018 101.075ZM63.3338 105.575C63.5438 105.505 63.7538 105.39 63.9638 105.23C64.3938 104.91 64.6588 104.475 64.7588 103.925L64.5638 104.045C64.4338 104.115 64.2738 104.15 64.0838 104.15C63.7838 104.15 63.5188 104.04 63.2888 103.82C63.0688 103.59 62.9588 103.325 62.9588 103.025C62.9588 102.725 63.0688 102.465 63.2888 102.245C63.5188 102.015 63.7838 101.9 64.0838 101.9C64.4338 101.9 64.7188 102.025 64.9388 102.275C65.1688 102.515 65.2838 102.84 65.2838 103.25C65.2838 104.17 64.9838 104.89 64.3838 105.41C64.1238 105.65 63.8238 105.83 63.4838 105.95L63.3338 105.575ZM69.2647 103.775L70.4647 103.325L74.5897 93.35H75.0397L79.3147 103.55L80.0647 103.775V104H78.2647C77.7447 104 77.3197 103.885 76.9897 103.655C76.6597 103.415 76.4147 103.105 76.2547 102.725L75.4897 100.925H71.9047L70.9147 103.325L72.0397 103.775V104H69.2647V103.775ZM72.0547 100.55H75.3397L73.6897 96.605L72.0547 100.55ZM80.06 103.775L80.96 103.55V96.95L80.06 96.725V96.5H81.41C82 96.5 82.465 96.69 82.805 97.07C82.935 97.22 83.045 97.405 83.135 97.625C83.275 97.365 83.44 97.14 83.63 96.95C84.08 96.5 84.64 96.275 85.31 96.275C85.87 96.275 86.37 96.395 86.81 96.635C87.26 96.865 87.61 97.17 87.86 97.55C88.11 97.93 88.235 98.33 88.235 98.75V103.55L89.135 103.775V104H87.185C86.285 104 85.835 103.55 85.835 102.65V98.75C85.835 98.12 85.72 97.64 85.49 97.31C85.27 96.97 85.01 96.8 84.71 96.8C84.33 96.8 83.99 97 83.69 97.4C83.56 97.57 83.45 97.77 83.36 98V103.55L84.26 103.775V104H80.06V103.775ZM92.8105 104.225C92.2205 104.225 91.6955 104.075 91.2355 103.775C90.7755 103.465 90.4105 103.015 90.1405 102.425C89.8705 101.825 89.7355 101.1 89.7355 100.25C89.7355 98.97 90.0305 97.99 90.6205 97.31C91.2205 96.62 92.0255 96.275 93.0355 96.275C93.5155 96.275 93.9355 96.375 94.2955 96.575C94.4455 96.645 94.6005 96.745 94.7605 96.875V93.95L93.8605 93.725V93.5H95.8105C96.7105 93.5 97.1605 93.95 97.1605 94.85V103.55L98.0605 103.775V104H96.7105C96.1105 104 95.6455 103.815 95.3155 103.445C95.1755 103.295 95.0655 103.105 94.9855 102.875C94.8555 103.125 94.6905 103.35 94.4905 103.55C94.0405 104 93.4805 104.225 92.8105 104.225ZM93.4105 103.7C93.7805 103.7 94.1155 103.5 94.4155 103.1C94.5255 102.95 94.6405 102.75 94.7605 102.5V97.325C94.6505 97.215 94.5355 97.115 94.4155 97.025C94.1455 96.825 93.8855 96.725 93.6355 96.725C93.2055 96.725 92.8705 96.975 92.6305 97.475C92.4005 97.975 92.2855 98.9 92.2855 100.25C92.2855 101.54 92.3905 102.44 92.6005 102.95C92.8205 103.45 93.0905 103.7 93.4105 103.7ZM102.566 103.775L103.466 103.55V97.175H102.416V96.8H103.466V96.05C103.466 95.52 103.591 95.045 103.841 94.625C104.101 94.205 104.466 93.875 104.936 93.635C105.416 93.395 105.976 93.275 106.616 93.275C107.136 93.275 107.581 93.355 107.951 93.515C108.331 93.665 108.616 93.87 108.806 94.13C108.996 94.38 109.091 94.645 109.091 94.925C109.091 95.265 108.986 95.54 108.776 95.75C108.576 95.95 108.306 96.05 107.966 96.05C107.826 96.05 107.686 96.04 107.546 96.02L107.366 95.975V93.65L107.231 93.62C107.191 93.61 107.146 93.6 107.096 93.59C107.046 93.58 106.986 93.575 106.916 93.575C106.576 93.575 106.316 93.755 106.136 94.115C105.956 94.465 105.866 95.11 105.866 96.05V96.8H108.266V97.175H105.866V103.55L106.766 103.775V104H102.566V103.775ZM112.396 104.225C111.156 104.225 110.181 103.875 109.471 103.175C108.771 102.465 108.421 101.49 108.421 100.25C108.421 99.01 108.771 98.04 109.471 97.34C110.181 96.63 111.156 96.275 112.396 96.275C113.636 96.275 114.606 96.63 115.306 97.34C116.016 98.04 116.371 99.01 116.371 100.25C116.371 101.49 116.016 102.465 115.306 103.175C114.606 103.875 113.636 104.225 112.396 104.225ZM112.396 103.925C112.796 103.925 113.131 103.645 113.401 103.085C113.681 102.525 113.821 101.58 113.821 100.25C113.821 98.92 113.681 97.975 113.401 97.415C113.131 96.855 112.796 96.575 112.396 96.575C111.996 96.575 111.656 96.855 111.376 97.415C111.106 97.975 110.971 98.92 110.971 100.25C110.971 101.58 111.106 102.525 111.376 103.085C111.656 103.645 111.996 103.925 112.396 103.925ZM120.876 104.225C120.316 104.225 119.811 104.11 119.361 103.88C118.921 103.64 118.576 103.33 118.326 102.95C118.076 102.57 117.951 102.17 117.951 101.75V96.95L117.051 96.725V96.5H119.001C119.901 96.5 120.351 96.95 120.351 97.85V101.75C120.351 102.38 120.461 102.865 120.681 103.205C120.911 103.535 121.176 103.7 121.476 103.7C121.846 103.7 122.181 103.5 122.481 103.1C122.591 102.95 122.706 102.75 122.826 102.5V96.95L121.926 96.725V96.5H126.126V96.725L125.226 96.95V104.075H125.076C124.346 104.075 123.791 103.875 123.411 103.475C123.241 103.295 123.121 103.095 123.051 102.875C122.911 103.125 122.746 103.35 122.556 103.55C122.106 104 121.546 104.225 120.876 104.225ZM126.732 103.775L127.632 103.55V96.95L126.732 96.725V96.5H128.082C128.672 96.5 129.137 96.69 129.477 97.07C129.607 97.22 129.717 97.405 129.807 97.625C129.957 97.405 130.142 97.205 130.362 97.025C130.862 96.625 131.422 96.425 132.042 96.425C132.572 96.425 132.967 96.55 133.227 96.8C133.497 97.04 133.632 97.39 133.632 97.85C133.632 98.19 133.527 98.465 133.317 98.675C133.117 98.875 132.847 98.975 132.507 98.975C132.367 98.975 132.227 98.965 132.087 98.945L131.907 98.9V96.8C131.397 96.8 130.932 97 130.512 97.4C130.312 97.6 130.152 97.8 130.032 98V103.55L130.932 103.775V104H126.732V103.775ZM137.834 103.775L138.734 103.55V97.175H137.684V96.8H138.734V96.05C138.734 95.52 138.859 95.045 139.109 94.625C139.369 94.205 139.734 93.875 140.204 93.635C140.684 93.395 141.244 93.275 141.884 93.275C142.404 93.275 142.849 93.355 143.219 93.515C143.599 93.665 143.884 93.87 144.074 94.13C144.264 94.38 144.359 94.645 144.359 94.925C144.359 95.265 144.254 95.54 144.044 95.75C143.844 95.95 143.574 96.05 143.234 96.05C143.094 96.05 142.954 96.04 142.814 96.02L142.634 95.975V93.65L142.499 93.62C142.459 93.61 142.414 93.6 142.364 93.59C142.314 93.58 142.254 93.575 142.184 93.575C141.844 93.575 141.584 93.755 141.404 94.115C141.224 94.465 141.134 95.11 141.134 96.05V96.8H143.534V97.175H141.134V103.55L142.034 103.775V104H137.834V103.775ZM147.663 104.225C146.423 104.225 145.448 103.875 144.738 103.175C144.038 102.465 143.688 101.49 143.688 100.25C143.688 99.01 144.038 98.04 144.738 97.34C145.448 96.63 146.423 96.275 147.663 96.275C148.903 96.275 149.873 96.63 150.573 97.34C151.283 98.04 151.638 99.01 151.638 100.25C151.638 101.49 151.283 102.465 150.573 103.175C149.873 103.875 148.903 104.225 147.663 104.225ZM147.663 103.925C148.063 103.925 148.398 103.645 148.668 103.085C148.948 102.525 149.088 101.58 149.088 100.25C149.088 98.92 148.948 97.975 148.668 97.415C148.398 96.855 148.063 96.575 147.663 96.575C147.263 96.575 146.923 96.855 146.643 97.415C146.373 97.975 146.238 98.92 146.238 100.25C146.238 101.58 146.373 102.525 146.643 103.085C146.923 103.645 147.263 103.925 147.663 103.925ZM152.543 103.775L153.443 103.55V96.95L152.543 96.725V96.5H153.893C154.483 96.5 154.948 96.69 155.288 97.07C155.418 97.22 155.528 97.405 155.618 97.625C155.768 97.405 155.953 97.205 156.173 97.025C156.673 96.625 157.233 96.425 157.853 96.425C158.383 96.425 158.778 96.55 159.038 96.8C159.308 97.04 159.443 97.39 159.443 97.85C159.443 98.19 159.338 98.465 159.128 98.675C158.928 98.875 158.658 98.975 158.318 98.975C158.178 98.975 158.038 98.965 157.898 98.945L157.718 98.9V96.8C157.208 96.8 156.743 97 156.323 97.4C156.123 97.6 155.963 97.8 155.843 98V103.55L156.743 103.775V104H152.543V103.775ZM4.675 125.225C4.085 125.225 3.56 125.075 3.1 124.775C2.64 124.465 2.275 124.015 2.005 123.425C1.735 122.825 1.6 122.1 1.6 121.25C1.6 119.97 1.895 118.99 2.485 118.31C3.085 117.62 3.89 117.275 4.9 117.275C5.38 117.275 5.8 117.375 6.16 117.575C6.31 117.645 6.465 117.745 6.625 117.875V114.95L5.725 114.725V114.5H7.675C8.575 114.5 9.025 114.95 9.025 115.85V124.55L9.925 124.775V125H8.575C7.975 125 7.51 124.815 7.18 124.445C7.04 124.295 6.93 124.105 6.85 123.875C6.72 124.125 6.555 124.35 6.355 124.55C5.905 125 5.345 125.225 4.675 125.225ZM5.275 124.7C5.645 124.7 5.98 124.5 6.28 124.1C6.39 123.95 6.505 123.75 6.625 123.5V118.325C6.515 118.215 6.4 118.115 6.28 118.025C6.01 117.825 5.75 117.725 5.5 117.725C5.07 117.725 4.735 117.975 4.495 118.475C4.265 118.975 4.15 119.9 4.15 121.25C4.15 122.54 4.255 123.44 4.465 123.95C4.685 124.45 4.955 124.7 5.275 124.7ZM14.6518 125.225C13.3718 125.225 12.3768 124.875 11.6668 124.175C10.9568 123.465 10.6018 122.49 10.6018 121.25C10.6018 120.44 10.7568 119.735 11.0668 119.135C11.3768 118.535 11.8068 118.075 12.3568 117.755C12.9168 117.435 13.5568 117.275 14.2768 117.275C14.9968 117.275 15.6268 117.41 16.1668 117.68C16.7168 117.95 17.1368 118.315 17.4268 118.775C17.7268 119.225 17.8768 119.725 17.8768 120.275C17.8768 120.525 17.8518 120.74 17.8018 120.92L17.7268 121.175C17.2968 121.265 16.8318 121.34 16.3318 121.4C15.2818 121.55 14.2218 121.625 13.1518 121.625C13.1518 122.785 13.3118 123.615 13.6318 124.115C13.9518 124.605 14.3918 124.85 14.9518 124.85C15.3418 124.85 15.7018 124.76 16.0318 124.58C16.3718 124.39 16.6368 124.145 16.8268 123.845C17.0268 123.535 17.1268 123.22 17.1268 122.9H17.5018C17.5018 123.3 17.3818 123.68 17.1418 124.04C16.9018 124.4 16.5668 124.69 16.1368 124.91C15.7068 125.12 15.2118 125.225 14.6518 125.225ZM13.1518 121.25C13.7918 121.25 14.3118 121.225 14.7118 121.175C14.8818 121.165 15.0618 121.14 15.2518 121.1C15.2618 121.05 15.2868 120.94 15.3268 120.77C15.3768 120.52 15.4018 120.255 15.4018 119.975C15.4018 119.145 15.2918 118.54 15.0718 118.16C14.8518 117.77 14.5868 117.575 14.2768 117.575C13.5268 117.575 13.1518 118.8 13.1518 121.25ZM21.4738 125.225C20.5838 125.225 19.8988 125.035 19.4188 124.655C18.9388 124.275 18.6988 123.79 18.6988 123.2C18.6988 122.81 18.7838 122.425 18.9538 122.045C19.0238 121.865 19.1138 121.7 19.2238 121.55C19.6338 121.45 20.0788 121.36 20.5588 121.28C21.6388 121.1 22.5938 120.99 23.4238 120.95V120.5C23.4238 119.39 23.2888 118.625 23.0188 118.205C22.7488 117.785 22.3338 117.575 21.7738 117.575C21.5638 117.575 21.3838 117.6 21.2338 117.65L21.0238 117.725V119.975L20.8288 120.02C20.6688 120.04 20.5338 120.05 20.4238 120.05C20.0838 120.05 19.8088 119.95 19.5988 119.75C19.3988 119.54 19.2988 119.265 19.2988 118.925C19.2988 118.465 19.5288 118.075 19.9888 117.755C20.4588 117.435 21.1538 117.275 22.0738 117.275C22.8538 117.275 23.5238 117.415 24.0838 117.695C24.6538 117.965 25.0838 118.345 25.3738 118.835C25.6738 119.315 25.8238 119.87 25.8238 120.5V124.55L26.7238 124.775V125H25.3738C24.7738 125 24.3088 124.815 23.9788 124.445C23.8388 124.295 23.7288 124.105 23.6488 123.875C23.5088 124.125 23.3438 124.35 23.1538 124.55C22.7038 125 22.1438 125.225 21.4738 125.225ZM22.0738 124.7C22.4438 124.7 22.7788 124.5 23.0788 124.1C23.1888 123.95 23.3038 123.75 23.4238 123.5V121.325C22.9638 121.325 22.5238 121.35 22.1038 121.4C21.7938 121.44 21.5838 121.465 21.4738 121.475C21.4238 121.585 21.3738 121.735 21.3238 121.925C21.2238 122.305 21.1738 122.68 21.1738 123.05C21.1738 123.61 21.2588 124.025 21.4288 124.295C21.5988 124.565 21.8138 124.7 22.0738 124.7ZM31.2309 125.225C30.5709 125.225 29.9959 125.105 29.5059 124.865C29.0259 124.625 28.6559 124.295 28.3959 123.875C28.1359 123.455 28.0059 122.98 28.0059 122.45V117.875H26.9559V117.5H28.0059V116.75C28.0059 115.85 28.4559 115.4 29.3559 115.4H30.4059V117.5H32.5059V117.875H30.4059V122.45C30.4059 123.37 30.5009 124 30.6909 124.34C30.8809 124.68 31.1609 124.85 31.5309 124.85C31.8909 124.85 32.2059 124.675 32.4759 124.325C32.7459 123.975 32.8809 123.5 32.8809 122.9H33.2559C33.2559 123.64 33.0709 124.215 32.7009 124.625C32.3309 125.025 31.8409 125.225 31.2309 125.225ZM33.7838 124.775L34.6838 124.55V114.95L33.7838 114.725V114.5H35.7338C36.6338 114.5 37.0838 114.95 37.0838 115.85V118.25C37.2338 118.05 37.3888 117.89 37.5488 117.77C37.9788 117.44 38.4738 117.275 39.0338 117.275C39.5938 117.275 40.0938 117.395 40.5338 117.635C40.9838 117.865 41.3338 118.17 41.5838 118.55C41.8338 118.93 41.9588 119.33 41.9588 119.75V124.55L42.8588 124.775V125H40.9088C40.0088 125 39.5588 124.55 39.5588 123.65V119.75C39.5588 119.12 39.4438 118.64 39.2138 118.31C38.9938 117.97 38.7338 117.8 38.4338 117.8C38.0538 117.8 37.7138 118 37.4138 118.4C37.2838 118.57 37.1738 118.77 37.0838 119V124.55L37.9838 124.775V125H33.7838V124.775Z" fill="#2A2921"/>
</svg>
