<svg width="169" height="136" viewBox="0 0 169 136" fill="none" xmlns="http://www.w3.org/2000/svg">
<path d="M15.08 26.6L4.78 17.3L4.84 26H1.9V10.7H2.02L12.3 20.14L12.24 11.28H15.16V26.6H15.08ZM20.9108 26.42C20.1241 26.42 19.4641 26.18 18.9308 25.7C18.3974 25.2067 18.1174 24.5733 18.0908 23.8V17.26H20.8908V22.76C20.9174 23.1467 21.0174 23.46 21.1908 23.7C21.3641 23.9267 21.6574 24.04 22.0708 24.04C22.6974 24.04 23.1908 23.74 23.5508 23.14C23.9108 22.5267 24.0908 21.7533 24.0908 20.82V17.26H26.8908V26H24.3508L24.1508 24.6C23.8574 25.1467 23.4374 25.5867 22.8908 25.92C22.3441 26.2533 21.6841 26.42 20.9108 26.42ZM31.8905 17.26L32.1105 19.26C32.3638 18.7533 32.7105 18.32 33.1505 17.96C33.5905 17.5867 34.0238 17.3067 34.4505 17.12C34.8771 16.92 35.2038 16.82 35.4305 16.82L35.2905 19.62C34.6371 19.54 34.0771 19.6467 33.6105 19.94C33.1438 20.2333 32.7838 20.62 32.5305 21.1C32.2771 21.58 32.1505 22.0733 32.1505 22.58V26H29.3705V17.26H31.8905ZM40.0136 26.18C39.2936 26.18 38.6203 26.0533 37.9936 25.8C37.3803 25.5467 36.8603 25.1933 36.4336 24.74L37.5936 23.2C38.0203 23.5867 38.4136 23.8667 38.7736 24.04C39.1469 24.2 39.4803 24.28 39.7736 24.28C40.1203 24.28 40.4069 24.2267 40.6336 24.12C40.8603 24.0133 40.9736 23.84 40.9736 23.6C40.9736 23.3733 40.8803 23.1933 40.6936 23.06C40.5203 22.9267 40.2936 22.82 40.0136 22.74C39.7336 22.6467 39.4336 22.5533 39.1136 22.46C38.3136 22.2067 37.7336 21.84 37.3736 21.36C37.0269 20.8667 36.8536 20.3333 36.8536 19.76C36.8536 19.32 36.9669 18.88 37.1936 18.44C37.4336 17.9867 37.8069 17.6133 38.3136 17.32C38.8336 17.0133 39.5003 16.86 40.3136 16.86C41.0469 16.86 41.6669 16.9333 42.1736 17.08C42.6803 17.2267 43.1603 17.4667 43.6136 17.8L42.5536 19.44C42.3003 19.24 42.0136 19.0733 41.6936 18.94C41.3869 18.7933 41.1003 18.7133 40.8336 18.7C40.4736 18.6867 40.1936 18.7533 39.9936 18.9C39.7936 19.0333 39.6936 19.1933 39.6936 19.38C39.6803 19.6333 39.7736 19.8333 39.9736 19.98C40.1869 20.1267 40.4536 20.24 40.7736 20.32C41.0936 20.4 41.4069 20.4933 41.7136 20.6C42.3403 20.8133 42.8403 21.12 43.2136 21.52C43.5869 21.9067 43.7736 22.4267 43.7736 23.08C43.7736 23.6133 43.6336 24.12 43.3536 24.6C43.0869 25.0667 42.6736 25.4467 42.1136 25.74C41.5669 26.0333 40.8669 26.18 40.0136 26.18ZM50.0189 26.24C48.9522 26.24 48.0456 26.04 47.2989 25.64C46.5656 25.24 46.0056 24.6867 45.6189 23.98C45.2322 23.2733 45.0389 22.46 45.0389 21.54C45.0389 20.66 45.2656 19.8667 45.7189 19.16C46.1722 18.4533 46.7789 17.8933 47.5389 17.48C48.2989 17.0533 49.1456 16.84 50.0789 16.84C51.3322 16.84 52.3589 17.2067 53.1589 17.94C53.9722 18.66 54.4989 19.7067 54.7389 21.08L48.3389 23.12C48.7656 23.6133 49.3456 23.86 50.0789 23.86C50.3856 23.86 50.6789 23.8067 50.9589 23.7C51.2522 23.5933 51.5389 23.4533 51.8189 23.28L53.0589 25.36C52.5922 25.6267 52.0856 25.84 51.5389 26C51.0056 26.16 50.4989 26.24 50.0189 26.24ZM47.7989 21.38C47.7989 21.4467 47.7989 21.5067 47.7989 21.56L51.6389 20.26C51.5189 19.9267 51.3256 19.64 51.0589 19.4C50.7922 19.1467 50.3922 19.02 49.8589 19.02C49.2322 19.02 48.7322 19.2333 48.3589 19.66C47.9856 20.0867 47.7989 20.66 47.7989 21.38ZM58.8936 17.26L59.1136 19.26C59.3669 18.7533 59.7136 18.32 60.1536 17.96C60.5936 17.5867 61.0269 17.3067 61.4536 17.12C61.8803 16.92 62.2069 16.82 62.4336 16.82L62.2936 19.62C61.6403 19.54 61.0803 19.6467 60.6136 19.94C60.1469 20.2333 59.7869 20.62 59.5336 21.1C59.2803 21.58 59.1536 22.0733 59.1536 22.58V26H56.3736V17.26H58.8936ZM64.8767 30.2L66.9767 25.54L62.9367 17.26H66.0767L68.3767 22.42L70.6967 17.26H73.2167L67.5767 30.2H64.8767ZM85.4842 11.28C87.3376 11.28 88.7576 11.7333 89.7442 12.64C90.7442 13.5333 91.2442 14.7333 91.2442 16.24C91.2442 17.08 91.0642 17.9067 90.7042 18.72C90.3576 19.5333 89.7642 20.18 88.9242 20.66L92.3442 26H88.9642L85.8642 21.32H83.9242V26H81.0242V11.28H85.4842ZM85.9842 18.52C86.5709 18.52 87.0242 18.4 87.3442 18.16C87.6776 17.9067 87.9109 17.6133 88.0442 17.28C88.1776 16.9333 88.2442 16.62 88.2442 16.34C88.2442 16.18 88.2176 15.98 88.1642 15.74C88.1242 15.4867 88.0309 15.2333 87.8842 14.98C87.7376 14.7267 87.5109 14.5133 87.2042 14.34C86.9109 14.1667 86.5109 14.08 86.0042 14.08H83.9242V18.52H85.9842ZM93.8752 26V10.22H96.6152V18.64C96.9218 18.1067 97.3552 17.6733 97.9152 17.34C98.4752 17.0067 99.1552 16.84 99.9552 16.84C100.782 16.84 101.468 17.0867 102.015 17.58C102.575 18.06 102.862 18.6867 102.875 19.46V26H100.075V20.5C100.062 20.1133 99.9552 19.8067 99.7552 19.58C99.5685 19.34 99.2485 19.22 98.7952 19.22C98.1418 19.22 97.6218 19.5267 97.2352 20.14C96.8618 20.74 96.6752 21.5067 96.6752 22.44V26H93.8752ZM106.05 30.2L108.15 25.54L104.11 17.26H107.25L109.55 22.42L111.87 17.26H114.39L108.75 30.2H106.05ZM118.174 17.26L118.374 18.64C118.707 18.0667 119.134 17.62 119.654 17.3C120.187 16.98 120.814 16.82 121.534 16.82C122.24 16.82 122.827 16.9667 123.294 17.26C123.774 17.54 124.087 17.9667 124.234 18.54C124.594 18.02 125.027 17.6067 125.534 17.3C126.054 16.98 126.594 16.82 127.154 16.82C128.02 16.82 128.707 17.0667 129.214 17.56C129.734 18.04 130 18.6667 130.014 19.44V26H127.234V20.6C127.22 20.2133 127.16 19.9 127.054 19.66C126.947 19.4067 126.7 19.2667 126.314 19.24C125.86 19.24 125.474 19.4 125.154 19.72C124.847 20.0267 124.614 20.4267 124.454 20.92C124.307 21.4 124.234 21.9 124.234 22.42V26H121.434V20.6C121.42 20.2133 121.347 19.9 121.214 19.66C121.094 19.4067 120.84 19.2667 120.454 19.24C120.014 19.24 119.64 19.4 119.334 19.72C119.04 20.0267 118.814 20.42 118.654 20.9C118.507 21.38 118.434 21.8733 118.434 22.38V26H115.634V17.26H118.174ZM136.799 26.24C135.733 26.24 134.826 26.04 134.079 25.64C133.346 25.24 132.786 24.6867 132.399 23.98C132.013 23.2733 131.819 22.46 131.819 21.54C131.819 20.66 132.046 19.8667 132.499 19.16C132.953 18.4533 133.559 17.8933 134.319 17.48C135.079 17.0533 135.926 16.84 136.859 16.84C138.113 16.84 139.139 17.2067 139.939 17.94C140.753 18.66 141.279 19.7067 141.519 21.08L135.119 23.12C135.546 23.6133 136.126 23.86 136.859 23.86C137.166 23.86 137.459 23.8067 137.739 23.7C138.033 23.5933 138.319 23.4533 138.599 23.28L139.839 25.36C139.373 25.6267 138.866 25.84 138.319 26C137.786 26.16 137.279 26.24 136.799 26.24ZM134.579 21.38C134.579 21.4467 134.579 21.5067 134.579 21.56L138.419 20.26C138.299 19.9267 138.106 19.64 137.839 19.4C137.573 19.1467 137.173 19.02 136.639 19.02C136.013 19.02 135.513 19.2333 135.139 19.66C134.766 20.0867 134.579 20.66 134.579 21.38ZM145.994 26.18C145.274 26.18 144.601 26.0533 143.974 25.8C143.361 25.5467 142.841 25.1933 142.414 24.74L143.574 23.2C144.001 23.5867 144.394 23.8667 144.754 24.04C145.127 24.2 145.461 24.28 145.754 24.28C146.101 24.28 146.387 24.2267 146.614 24.12C146.841 24.0133 146.954 23.84 146.954 23.6C146.954 23.3733 146.861 23.1933 146.674 23.06C146.501 22.9267 146.274 22.82 145.994 22.74C145.714 22.6467 145.414 22.5533 145.094 22.46C144.294 22.2067 143.714 21.84 143.354 21.36C143.007 20.8667 142.834 20.3333 142.834 19.76C142.834 19.32 142.947 18.88 143.174 18.44C143.414 17.9867 143.787 17.6133 144.294 17.32C144.814 17.0133 145.481 16.86 146.294 16.86C147.027 16.86 147.647 16.9333 148.154 17.08C148.661 17.2267 149.141 17.4667 149.594 17.8L148.534 19.44C148.281 19.24 147.994 19.0733 147.674 18.94C147.367 18.7933 147.081 18.7133 146.814 18.7C146.454 18.6867 146.174 18.7533 145.974 18.9C145.774 19.0333 145.674 19.1933 145.674 19.38C145.661 19.6333 145.754 19.8333 145.954 19.98C146.167 20.1267 146.434 20.24 146.754 20.32C147.074 20.4 147.387 20.4933 147.694 20.6C148.321 20.8133 148.821 21.12 149.194 21.52C149.567 21.9067 149.754 22.4267 149.754 23.08C149.754 23.6133 149.614 24.12 149.334 24.6C149.067 25.0667 148.654 25.4467 148.094 25.74C147.547 26.0333 146.847 26.18 145.994 26.18Z" fill="#2A2921"/>
<path d="M8.295 56.84C8.295 58.45 7.965 59.74 7.305 60.71C6.655 61.68 5.72 62.165 4.5 62.165C3.27 62.165 2.33 61.69 1.68 60.74C1.03 59.79 0.705 58.495 0.705 56.855C0.705 55.805 0.85 54.875 1.14 54.065C1.43 53.255 1.86 52.625 2.43 52.175C3 51.725 3.69 51.5 4.5 51.5C5.72 51.5 6.655 51.985 7.305 52.955C7.965 53.915 8.295 55.21 8.295 56.84ZM6.945 56.84C6.945 55.43 6.75 54.37 6.36 53.66C5.97 52.95 5.35 52.595 4.5 52.595C3.65 52.595 3.03 52.955 2.64 53.675C2.25 54.385 2.055 55.445 2.055 56.855C2.055 58.255 2.25 59.31 2.64 60.02C3.04 60.72 3.66 61.07 4.5 61.07C5.35 61.07 5.97 60.72 6.36 60.02C6.75 59.31 6.945 58.25 6.945 56.84ZM10.1941 54.095H11.2741L11.3791 55.205C11.6891 54.805 12.0791 54.495 12.5491 54.275C13.0291 54.045 13.5091 53.93 13.9891 53.93C15.4691 53.93 16.2091 54.71 16.2091 56.27V62H14.9491V57.2C14.9491 56.61 14.9141 56.16 14.8441 55.85C14.7841 55.54 14.6591 55.31 14.4691 55.16C14.2791 55.01 13.9891 54.935 13.5991 54.935C13.1691 54.935 12.7641 55.065 12.3841 55.325C12.0041 55.585 11.6941 55.895 11.4541 56.255V62H10.1941V54.095ZM19.8933 58.49C19.9233 59.36 20.1483 60.015 20.5683 60.455C20.9983 60.895 21.5383 61.115 22.1883 61.115C22.5783 61.115 22.9333 61.06 23.2533 60.95C23.5833 60.83 23.9333 60.65 24.3033 60.41L24.8883 61.25C24.5183 61.54 24.0933 61.765 23.6133 61.925C23.1433 62.085 22.6683 62.165 22.1883 62.165C21.0483 62.165 20.1583 61.795 19.5183 61.055C18.8883 60.305 18.5733 59.305 18.5733 58.055C18.5733 57.265 18.7133 56.56 18.9933 55.94C19.2733 55.31 19.6733 54.82 20.1933 54.47C20.7133 54.11 21.3183 53.93 22.0083 53.93C23.0083 53.93 23.7933 54.28 24.3633 54.98C24.9433 55.67 25.2333 56.615 25.2333 57.815C25.2333 58.045 25.2233 58.27 25.2033 58.49H19.8933ZM22.0233 54.965C21.4133 54.965 20.9183 55.185 20.5383 55.625C20.1583 56.055 19.9433 56.69 19.8933 57.53H24.0033C23.9933 56.7 23.8133 56.065 23.4633 55.625C23.1133 55.185 22.6333 54.965 22.0233 54.965ZM40.9416 50.765C41.6916 50.765 42.4066 50.905 43.0866 51.185L42.6816 52.13C42.1816 51.91 41.6166 51.8 40.9866 51.8C39.8866 51.8 39.3366 52.235 39.3366 53.105V54.71H42.0066L41.8716 55.715H39.3366V62H38.0616V55.715H36.1866V54.71H38.0616V53.135C38.0616 52.425 38.3316 51.855 38.8716 51.425C39.4216 50.985 40.1116 50.765 40.9416 50.765ZM47.9857 53.93C49.0757 53.93 49.9107 54.3 50.4907 55.04C51.0807 55.77 51.3757 56.77 51.3757 58.04C51.3757 59.28 51.0757 60.28 50.4757 61.04C49.8857 61.79 49.0507 62.165 47.9707 62.165C46.8807 62.165 46.0407 61.8 45.4507 61.07C44.8607 60.33 44.5657 59.325 44.5657 58.055C44.5657 56.805 44.8607 55.805 45.4507 55.055C46.0507 54.305 46.8957 53.93 47.9857 53.93ZM47.9857 54.965C47.2957 54.965 46.7807 55.22 46.4407 55.73C46.1007 56.24 45.9307 57.015 45.9307 58.055C45.9307 59.095 46.0957 59.87 46.4257 60.38C46.7657 60.88 47.2807 61.13 47.9707 61.13C48.6607 61.13 49.1707 60.88 49.5007 60.38C49.8407 59.87 50.0107 59.09 50.0107 58.04C50.0107 57 49.8407 56.23 49.5007 55.73C49.1707 55.22 48.6657 54.965 47.9857 54.965ZM59.0048 53.93C59.3248 53.93 59.6948 53.985 60.1148 54.095L59.9348 56.78H58.9148V55.085H58.8398C57.6198 55.085 56.7548 55.955 56.2448 57.695V61.025H57.8498V62H53.7398V61.025H54.9848V55.07H53.7398V54.095H55.9298L56.1698 55.97C56.4898 55.29 56.8698 54.78 57.3098 54.44C57.7598 54.1 58.3248 53.93 59.0048 53.93ZM73.7531 61.13C74.3531 61.13 74.8281 61.015 75.1781 60.785C75.5281 60.555 75.7031 60.25 75.7031 59.87C75.7031 59.61 75.6581 59.4 75.5681 59.24C75.4781 59.07 75.2981 58.92 75.0281 58.79C74.7581 58.65 74.3481 58.51 73.7981 58.37C72.8781 58.14 72.1981 57.865 71.7581 57.545C71.3181 57.215 71.0981 56.73 71.0981 56.09C71.0981 55.43 71.3731 54.905 71.9231 54.515C72.4731 54.125 73.1981 53.93 74.0981 53.93C75.1981 53.93 76.1581 54.22 76.9781 54.8L76.4081 55.67C76.0781 55.44 75.7331 55.265 75.3731 55.145C75.0131 55.015 74.5981 54.95 74.1281 54.95C72.9881 54.95 72.4181 55.295 72.4181 55.985C72.4181 56.225 72.4781 56.42 72.5981 56.57C72.7281 56.72 72.9331 56.855 73.2131 56.975C73.5031 57.085 73.9331 57.22 74.5031 57.38C75.3631 57.61 76.0031 57.905 76.4231 58.265C76.8531 58.615 77.0681 59.13 77.0681 59.81C77.0681 60.6 76.7481 61.19 76.1081 61.58C75.4681 61.97 74.6831 62.165 73.7531 62.165C72.5131 62.165 71.4831 61.81 70.6631 61.1L71.3681 60.275C71.6881 60.535 72.0531 60.745 72.4631 60.905C72.8731 61.055 73.3031 61.13 73.7531 61.13ZM82.7623 53.93C83.8523 53.93 84.6873 54.3 85.2673 55.04C85.8573 55.77 86.1523 56.77 86.1523 58.04C86.1523 59.28 85.8523 60.28 85.2523 61.04C84.6623 61.79 83.8273 62.165 82.7473 62.165C81.6573 62.165 80.8173 61.8 80.2273 61.07C79.6373 60.33 79.3423 59.325 79.3423 58.055C79.3423 56.805 79.6373 55.805 80.2273 55.055C80.8273 54.305 81.6723 53.93 82.7623 53.93ZM82.7623 54.965C82.0723 54.965 81.5573 55.22 81.2173 55.73C80.8773 56.24 80.7073 57.015 80.7073 58.055C80.7073 59.095 80.8723 59.87 81.2023 60.38C81.5423 60.88 82.0573 61.13 82.7473 61.13C83.4373 61.13 83.9473 60.88 84.2773 60.38C84.6173 59.87 84.7873 59.09 84.7873 58.04C84.7873 57 84.6173 56.23 84.2773 55.73C83.9473 55.22 83.4423 54.965 82.7623 54.965ZM93.7814 53.93C94.1014 53.93 94.4714 53.985 94.8914 54.095L94.7114 56.78H93.6914V55.085H93.6164C92.3964 55.085 91.5314 55.955 91.0214 57.695V61.025H92.6264V62H88.5164V61.025H89.7614V55.07H88.5164V54.095H90.7064L90.9464 55.97C91.2664 55.29 91.6464 54.78 92.0864 54.44C92.5364 54.1 93.1014 53.93 93.7814 53.93ZM102.476 53.93C102.796 53.93 103.166 53.985 103.586 54.095L103.406 56.78H102.386V55.085H102.311C101.091 55.085 100.226 55.955 99.7155 57.695V61.025H101.321V62H97.2105V61.025H98.4555V55.07H97.2105V54.095H99.4005L99.6405 55.97C99.9605 55.29 100.341 54.78 100.781 54.44C101.231 54.1 101.796 53.93 102.476 53.93ZM108.845 53.93C109.935 53.93 110.77 54.3 111.35 55.04C111.94 55.77 112.235 56.77 112.235 58.04C112.235 59.28 111.935 60.28 111.335 61.04C110.745 61.79 109.91 62.165 108.83 62.165C107.74 62.165 106.9 61.8 106.31 61.07C105.72 60.33 105.425 59.325 105.425 58.055C105.425 56.805 105.72 55.805 106.31 55.055C106.91 54.305 107.755 53.93 108.845 53.93ZM108.845 54.965C108.155 54.965 107.64 55.22 107.3 55.73C106.96 56.24 106.79 57.015 106.79 58.055C106.79 59.095 106.955 59.87 107.285 60.38C107.625 60.88 108.14 61.13 108.83 61.13C109.52 61.13 110.03 60.88 110.36 60.38C110.7 59.87 110.87 59.09 110.87 58.04C110.87 57 110.7 56.23 110.36 55.73C110.03 55.22 109.525 54.965 108.845 54.965ZM118.604 62L117.569 56.21L116.459 62H114.719L113.294 54.095H114.569L115.589 61.22L116.849 55.1H118.334L119.519 61.22L120.539 54.095H121.754L120.389 62H118.604ZM126.218 59.525C126.558 59.525 126.843 59.645 127.073 59.885C127.313 60.115 127.433 60.395 127.433 60.725C127.433 61.095 127.338 61.49 127.148 61.91L125.933 64.685H124.793L125.498 61.73C125.358 61.62 125.243 61.475 125.153 61.295C125.063 61.115 125.018 60.93 125.018 60.74C125.018 60.4 125.133 60.115 125.363 59.885C125.593 59.645 125.878 59.525 126.218 59.525ZM144.236 62H142.931V52.79H139.706V51.665H147.491L147.356 52.79H144.236V62ZM153.38 62L152.345 56.21L151.235 62H149.495L148.07 54.095H149.345L150.365 61.22L151.625 55.1H153.11L154.295 61.22L155.315 54.095H156.53L155.165 62H153.38ZM161.01 53.93C162.1 53.93 162.935 54.3 163.515 55.04C164.105 55.77 164.4 56.77 164.4 58.04C164.4 59.28 164.1 60.28 163.5 61.04C162.91 61.79 162.075 62.165 160.995 62.165C159.905 62.165 159.065 61.8 158.475 61.07C157.885 60.33 157.59 59.325 157.59 58.055C157.59 56.805 157.885 55.805 158.475 55.055C159.075 54.305 159.92 53.93 161.01 53.93ZM161.01 54.965C160.32 54.965 159.805 55.22 159.465 55.73C159.125 56.24 158.955 57.015 158.955 58.055C158.955 59.095 159.12 59.87 159.45 60.38C159.79 60.88 160.305 61.13 160.995 61.13C161.685 61.13 162.195 60.88 162.525 60.38C162.865 59.87 163.035 59.09 163.035 58.04C163.035 57 162.865 56.23 162.525 55.73C162.195 55.22 161.69 54.965 161.01 54.965ZM6.165 71.765C6.915 71.765 7.63 71.905 8.31 72.185L7.905 73.13C7.405 72.91 6.84 72.8 6.21 72.8C5.11 72.8 4.56 73.235 4.56 74.105V75.71H7.23L7.095 76.715H4.56V83H3.285V76.715H1.41V75.71H3.285V74.135C3.285 73.425 3.555 72.855 4.095 72.425C4.645 71.985 5.335 71.765 6.165 71.765ZM13.2091 74.93C14.2991 74.93 15.1341 75.3 15.7141 76.04C16.3041 76.77 16.5991 77.77 16.5991 79.04C16.5991 80.28 16.2991 81.28 15.6991 82.04C15.1091 82.79 14.2741 83.165 13.1941 83.165C12.1041 83.165 11.2641 82.8 10.6741 82.07C10.0841 81.33 9.78914 80.325 9.78914 79.055C9.78914 77.805 10.0841 76.805 10.6741 76.055C11.2741 75.305 12.1191 74.93 13.2091 74.93ZM13.2091 75.965C12.5191 75.965 12.0041 76.22 11.6641 76.73C11.3241 77.24 11.1541 78.015 11.1541 79.055C11.1541 80.095 11.3191 80.87 11.6491 81.38C11.9891 81.88 12.5041 82.13 13.1941 82.13C13.8841 82.13 14.3941 81.88 14.7241 81.38C15.0641 80.87 15.2341 80.09 15.2341 79.04C15.2341 78 15.0641 77.23 14.7241 76.73C14.3941 76.22 13.8891 75.965 13.2091 75.965ZM24.2283 74.93C24.5483 74.93 24.9183 74.985 25.3383 75.095L25.1583 77.78H24.1383V76.085H24.0633C22.8433 76.085 21.9783 76.955 21.4683 78.695V82.025H23.0733V83H18.9633V82.025H20.2083V76.07H18.9633V75.095H21.1533L21.3933 76.97C21.7133 76.29 22.0933 75.78 22.5333 75.44C22.9833 75.1 23.5483 74.93 24.2283 74.93ZM41.4816 74.93C41.9316 74.93 42.2966 75.09 42.5766 75.41C42.8666 75.72 43.0116 76.29 43.0116 77.12V83H41.8566V77.33C41.8566 76.78 41.8216 76.41 41.7516 76.22C41.6816 76.02 41.5116 75.92 41.2416 75.92C40.7316 75.92 40.2716 76.235 39.8616 76.865V83H38.6916V77.33C38.6916 76.78 38.6566 76.41 38.5866 76.22C38.5166 76.02 38.3466 75.92 38.0766 75.92C37.5666 75.92 37.1066 76.235 36.6966 76.865V83H35.5416V75.095H36.5166L36.6066 76.025C36.8466 75.675 37.0966 75.405 37.3566 75.215C37.6266 75.025 37.9466 74.93 38.3166 74.93C39.0566 74.93 39.5316 75.28 39.7416 75.98C39.9816 75.64 40.2366 75.38 40.5066 75.2C40.7766 75.02 41.1016 74.93 41.4816 74.93ZM47.9707 71.405C48.2507 71.405 48.4757 71.49 48.6457 71.66C48.8157 71.82 48.9007 72.03 48.9007 72.29C48.9007 72.55 48.8157 72.765 48.6457 72.935C48.4757 73.095 48.2507 73.175 47.9707 73.175C47.7007 73.175 47.4807 73.095 47.3107 72.935C47.1507 72.765 47.0707 72.55 47.0707 72.29C47.0707 72.03 47.1507 71.82 47.3107 71.66C47.4807 71.49 47.7007 71.405 47.9707 71.405ZM48.9757 81.995H51.1957V83H45.2857V81.995H47.7157V76.1H45.3607V75.095H48.9757V81.995ZM59.0048 74.93C59.3248 74.93 59.6948 74.985 60.1148 75.095L59.9348 77.78H58.9148V76.085H58.8398C57.6198 76.085 56.7548 76.955 56.2448 78.695V82.025H57.8498V83H53.7398V82.025H54.9848V76.07H53.7398V75.095H55.9298L56.1698 76.97C56.4898 76.29 56.8698 75.78 57.3098 75.44C57.7598 75.1 58.3248 74.93 59.0048 74.93ZM68.644 82.595C68.374 82.775 68.044 82.915 67.654 83.015C67.274 83.115 66.894 83.165 66.514 83.165C65.684 83.165 65.034 82.95 64.564 82.52C64.094 82.08 63.859 81.505 63.859 80.795V76.085H62.044V75.095H63.859V73.31L65.119 73.16V75.095H67.864L67.699 76.085H65.119V80.78C65.119 81.23 65.239 81.565 65.479 81.785C65.719 82.005 66.104 82.115 66.634 82.115C67.174 82.115 67.679 81.99 68.149 81.74L68.644 82.595ZM72.3131 76.19C72.6231 75.79 73.0031 75.48 73.4531 75.26C73.9031 75.04 74.3681 74.93 74.8481 74.93C76.3281 74.93 77.0681 75.71 77.0681 77.27V83H75.8081V77.285C75.8081 76.815 75.6981 76.475 75.4781 76.265C75.2581 76.045 74.9081 75.935 74.4281 75.935C74.0181 75.935 73.6231 76.065 73.2431 76.325C72.8631 76.585 72.5531 76.89 72.3131 77.24V83H71.0531V71.93L72.3131 71.795V76.19ZM82.7473 80.525C83.0873 80.525 83.3723 80.645 83.6023 80.885C83.8423 81.115 83.9623 81.395 83.9623 81.725C83.9623 82.095 83.8673 82.49 83.6773 82.91L82.4623 85.685H81.3223L82.0273 82.73C81.8873 82.62 81.7723 82.475 81.6823 82.295C81.5923 82.115 81.5473 81.93 81.5473 81.74C81.5473 81.4 81.6623 81.115 81.8923 80.885C82.1223 80.645 82.4073 80.525 82.7473 80.525ZM100.766 83H99.4605V73.79H96.2355V72.665H104.021L103.886 73.79H100.766V83ZM107.09 76.19C107.4 75.79 107.78 75.48 108.23 75.26C108.68 75.04 109.145 74.93 109.625 74.93C111.105 74.93 111.845 75.71 111.845 77.27V83H110.585V77.285C110.585 76.815 110.475 76.475 110.255 76.265C110.035 76.045 109.685 75.935 109.205 75.935C108.795 75.935 108.4 76.065 108.02 76.325C107.64 76.585 107.33 76.89 107.09 77.24V83H105.83V71.93L107.09 71.795V76.19ZM119.864 74.93C120.184 74.93 120.554 74.985 120.974 75.095L120.794 77.78H119.774V76.085H119.699C118.479 76.085 117.614 76.955 117.104 78.695V82.025H118.709V83H114.599V82.025H115.844V76.07H114.599V75.095H116.789L117.029 76.97C117.349 76.29 117.729 75.78 118.169 75.44C118.619 75.1 119.184 74.93 119.864 74.93ZM124.223 79.49C124.253 80.36 124.478 81.015 124.898 81.455C125.328 81.895 125.868 82.115 126.518 82.115C126.908 82.115 127.263 82.06 127.583 81.95C127.913 81.83 128.263 81.65 128.633 81.41L129.218 82.25C128.848 82.54 128.423 82.765 127.943 82.925C127.473 83.085 126.998 83.165 126.518 83.165C125.378 83.165 124.488 82.795 123.848 82.055C123.218 81.305 122.903 80.305 122.903 79.055C122.903 78.265 123.043 77.56 123.323 76.94C123.603 76.31 124.003 75.82 124.523 75.47C125.043 75.11 125.648 74.93 126.338 74.93C127.338 74.93 128.123 75.28 128.693 75.98C129.273 76.67 129.563 77.615 129.563 78.815C129.563 79.045 129.553 79.27 129.533 79.49H124.223ZM126.353 75.965C125.743 75.965 125.248 76.185 124.868 76.625C124.488 77.055 124.273 77.69 124.223 78.53H128.333C128.323 77.7 128.143 77.065 127.793 76.625C127.443 76.185 126.963 75.965 126.353 75.965ZM132.917 79.49C132.947 80.36 133.172 81.015 133.592 81.455C134.022 81.895 134.562 82.115 135.212 82.115C135.602 82.115 135.957 82.06 136.277 81.95C136.607 81.83 136.957 81.65 137.327 81.41L137.912 82.25C137.542 82.54 137.117 82.765 136.637 82.925C136.167 83.085 135.692 83.165 135.212 83.165C134.072 83.165 133.182 82.795 132.542 82.055C131.912 81.305 131.597 80.305 131.597 79.055C131.597 78.265 131.737 77.56 132.017 76.94C132.297 76.31 132.697 75.82 133.217 75.47C133.737 75.11 134.342 74.93 135.032 74.93C136.032 74.93 136.817 75.28 137.387 75.98C137.967 76.67 138.257 77.615 138.257 78.815C138.257 79.045 138.247 79.27 138.227 79.49H132.917ZM135.047 75.965C134.437 75.965 133.942 76.185 133.562 76.625C133.182 77.055 132.967 77.69 132.917 78.53H137.027C137.017 77.7 136.837 77.065 136.487 76.625C136.137 76.185 135.657 75.965 135.047 75.965ZM6.165 92.765C6.915 92.765 7.63 92.905 8.31 93.185L7.905 94.13C7.405 93.91 6.84 93.8 6.21 93.8C5.11 93.8 4.56 94.235 4.56 95.105V96.71H7.23L7.095 97.715H4.56V104H3.285V97.715H1.41V96.71H3.285V95.135C3.285 94.425 3.555 93.855 4.095 93.425C4.645 92.985 5.335 92.765 6.165 92.765ZM13.2091 95.93C14.2991 95.93 15.1341 96.3 15.7141 97.04C16.3041 97.77 16.5991 98.77 16.5991 100.04C16.5991 101.28 16.2991 102.28 15.6991 103.04C15.1091 103.79 14.2741 104.165 13.1941 104.165C12.1041 104.165 11.2641 103.8 10.6741 103.07C10.0841 102.33 9.78914 101.325 9.78914 100.055C9.78914 98.805 10.0841 97.805 10.6741 97.055C11.2741 96.305 12.1191 95.93 13.2091 95.93ZM13.2091 96.965C12.5191 96.965 12.0041 97.22 11.6641 97.73C11.3241 98.24 11.1541 99.015 11.1541 100.055C11.1541 101.095 11.3191 101.87 11.6491 102.38C11.9891 102.88 12.5041 103.13 13.1941 103.13C13.8841 103.13 14.3941 102.88 14.7241 102.38C15.0641 101.87 15.2341 101.09 15.2341 100.04C15.2341 99 15.0641 98.23 14.7241 97.73C14.3941 97.22 13.8891 96.965 13.2091 96.965ZM24.2283 95.93C24.5483 95.93 24.9183 95.985 25.3383 96.095L25.1583 98.78H24.1383V97.085H24.0633C22.8433 97.085 21.9783 97.955 21.4683 99.695V103.025H23.0733V104H18.9633V103.025H20.2083V97.07H18.9633V96.095H21.1533L21.3933 97.97C21.7133 97.29 22.0933 96.78 22.5333 96.44C22.9833 96.1 23.5483 95.93 24.2283 95.93ZM41.9466 102.275C41.9466 102.585 41.9966 102.815 42.0966 102.965C42.1966 103.105 42.3616 103.21 42.5916 103.28L42.2766 104.18C41.5066 104.08 41.0266 103.705 40.8366 103.055C40.5566 103.415 40.2016 103.69 39.7716 103.88C39.3516 104.07 38.8816 104.165 38.3616 104.165C37.5716 104.165 36.9466 103.945 36.4866 103.505C36.0366 103.065 35.8116 102.475 35.8116 101.735C35.8116 100.925 36.1266 100.3 36.7566 99.86C37.3966 99.42 38.3116 99.2 39.5016 99.2H40.6716V98.555C40.6716 97.995 40.5116 97.595 40.1916 97.355C39.8716 97.105 39.4066 96.98 38.7966 96.98C38.1966 96.98 37.5116 97.115 36.7416 97.385L36.3966 96.425C37.3266 96.095 38.1916 95.93 38.9916 95.93C39.9516 95.93 40.6816 96.155 41.1816 96.605C41.6916 97.055 41.9466 97.68 41.9466 98.48V102.275ZM38.6766 103.22C39.0666 103.22 39.4366 103.12 39.7866 102.92C40.1466 102.72 40.4416 102.445 40.6716 102.095V100.07H39.5316C38.6916 100.07 38.0866 100.21 37.7166 100.49C37.3466 100.77 37.1616 101.18 37.1616 101.72C37.1616 102.72 37.6666 103.22 38.6766 103.22ZM57.7448 104L56.7098 98.21L55.5998 104H53.8598L52.4348 96.095H53.7098L54.7298 103.22L55.9898 97.1H57.4748L58.6598 103.22L59.6798 96.095H60.8948L59.5298 104H57.7448ZM63.364 100.49C63.394 101.36 63.619 102.015 64.039 102.455C64.469 102.895 65.009 103.115 65.659 103.115C66.049 103.115 66.404 103.06 66.724 102.95C67.054 102.83 67.404 102.65 67.774 102.41L68.359 103.25C67.989 103.54 67.564 103.765 67.084 103.925C66.614 104.085 66.139 104.165 65.659 104.165C64.519 104.165 63.629 103.795 62.989 103.055C62.359 102.305 62.044 101.305 62.044 100.055C62.044 99.265 62.184 98.56 62.464 97.94C62.744 97.31 63.144 96.82 63.664 96.47C64.184 96.11 64.789 95.93 65.479 95.93C66.479 95.93 67.264 96.28 67.834 96.98C68.414 97.67 68.704 98.615 68.704 99.815C68.704 100.045 68.694 100.27 68.674 100.49H63.364ZM65.494 96.965C64.884 96.965 64.389 97.185 64.009 97.625C63.629 98.055 63.414 98.69 63.364 99.53H67.474C67.464 98.7 67.284 98.065 66.934 97.625C66.584 97.185 66.104 96.965 65.494 96.965ZM77.0531 92.915V104H75.9431L75.8231 102.965C75.5331 103.365 75.1981 103.665 74.8181 103.865C74.4381 104.065 74.0281 104.165 73.5881 104.165C72.5881 104.165 71.8331 103.8 71.3231 103.07C70.8231 102.34 70.5731 101.335 70.5731 100.055C70.5731 99.265 70.6981 98.56 70.9481 97.94C71.1981 97.31 71.5531 96.82 72.0131 96.47C72.4831 96.11 73.0331 95.93 73.6631 95.93C74.5331 95.93 75.2431 96.245 75.7931 96.875V92.765L77.0531 92.915ZM73.9931 96.95C73.3331 96.95 72.8231 97.21 72.4631 97.73C72.1131 98.25 71.9381 99.025 71.9381 100.055C71.9381 101.075 72.0981 101.85 72.4181 102.38C72.7481 102.9 73.2231 103.16 73.8431 103.16C74.5931 103.16 75.2431 102.74 75.7931 101.9V97.97C75.5731 97.64 75.3081 97.39 74.9981 97.22C74.6881 97.04 74.3531 96.95 73.9931 96.95ZM85.7473 92.915V104H84.6373L84.5173 102.965C84.2273 103.365 83.8923 103.665 83.5123 103.865C83.1323 104.065 82.7223 104.165 82.2823 104.165C81.2823 104.165 80.5273 103.8 80.0173 103.07C79.5173 102.34 79.2673 101.335 79.2673 100.055C79.2673 99.265 79.3923 98.56 79.6423 97.94C79.8923 97.31 80.2473 96.82 80.7073 96.47C81.1773 96.11 81.7273 95.93 82.3573 95.93C83.2273 95.93 83.9373 96.245 84.4873 96.875V92.765L85.7473 92.915ZM82.6873 96.95C82.0273 96.95 81.5173 97.21 81.1573 97.73C80.8073 98.25 80.6323 99.025 80.6323 100.055C80.6323 101.075 80.7923 101.85 81.1123 102.38C81.4423 102.9 81.9173 103.16 82.5373 103.16C83.2873 103.16 83.9373 102.74 84.4873 101.9V97.97C84.2673 97.64 84.0023 97.39 83.6923 97.22C83.3823 97.04 83.0473 96.95 82.6873 96.95ZM91.4414 92.405C91.7214 92.405 91.9464 92.49 92.1164 92.66C92.2864 92.82 92.3714 93.03 92.3714 93.29C92.3714 93.55 92.2864 93.765 92.1164 93.935C91.9464 94.095 91.7214 94.175 91.4414 94.175C91.1714 94.175 90.9514 94.095 90.7814 93.935C90.6214 93.765 90.5414 93.55 90.5414 93.29C90.5414 93.03 90.6214 92.82 90.7814 92.66C90.9514 92.49 91.1714 92.405 91.4414 92.405ZM92.4464 102.995H94.6664V104H88.7564V102.995H91.1864V97.1H88.8314V96.095H92.4464V102.995ZM97.1355 96.095H98.2155L98.3205 97.205C98.6305 96.805 99.0205 96.495 99.4905 96.275C99.9705 96.045 100.451 95.93 100.931 95.93C102.411 95.93 103.151 96.71 103.151 98.27V104H101.891V99.2C101.891 98.61 101.856 98.16 101.786 97.85C101.726 97.54 101.601 97.31 101.411 97.16C101.221 97.01 100.931 96.935 100.541 96.935C100.111 96.935 99.7055 97.065 99.3255 97.325C98.9455 97.585 98.6355 97.895 98.3955 98.255V104H97.1355V96.095ZM112.64 96.455C112.34 96.555 112.015 96.62 111.665 96.65C111.315 96.67 110.87 96.68 110.33 96.68C111.25 97.1 111.71 97.765 111.71 98.675C111.71 99.475 111.445 100.125 110.915 100.625C110.385 101.115 109.66 101.36 108.74 101.36C108.27 101.36 107.875 101.305 107.555 101.195C107.435 101.285 107.335 101.4 107.255 101.54C107.185 101.68 107.15 101.82 107.15 101.96C107.15 102.41 107.5 102.635 108.2 102.635H109.625C110.145 102.635 110.615 102.73 111.035 102.92C111.465 103.1 111.8 103.355 112.04 103.685C112.29 104.015 112.415 104.38 112.415 104.78C112.415 105.55 112.085 106.14 111.425 106.55C110.775 106.97 109.85 107.18 108.65 107.18C107.43 107.18 106.57 106.99 106.07 106.61C105.57 106.23 105.32 105.625 105.32 104.795H106.46C106.46 105.125 106.52 105.385 106.64 105.575C106.77 105.775 106.99 105.92 107.3 106.01C107.62 106.11 108.07 106.16 108.65 106.16C109.5 106.16 110.125 106.05 110.525 105.83C110.935 105.61 111.14 105.285 111.14 104.855C111.14 104.495 110.975 104.215 110.645 104.015C110.315 103.825 109.89 103.73 109.37 103.73H107.96C107.31 103.73 106.815 103.59 106.475 103.31C106.135 103.02 105.965 102.66 105.965 102.23C105.965 101.98 106.04 101.735 106.19 101.495C106.34 101.245 106.555 101.03 106.835 100.85C106.385 100.62 106.05 100.33 105.83 99.98C105.62 99.62 105.515 99.185 105.515 98.675C105.515 98.145 105.645 97.675 105.905 97.265C106.175 96.845 106.545 96.52 107.015 96.29C107.495 96.05 108.045 95.93 108.665 95.93C109.565 95.93 110.25 95.88 110.72 95.78C111.19 95.68 111.705 95.51 112.265 95.27L112.64 96.455ZM108.65 96.86C108.04 96.86 107.58 97.025 107.27 97.355C106.96 97.675 106.805 98.115 106.805 98.675C106.805 99.235 106.96 99.685 107.27 100.025C107.59 100.355 108.06 100.52 108.68 100.52C109.24 100.52 109.665 100.36 109.955 100.04C110.255 99.71 110.405 99.25 110.405 98.66C110.405 97.46 109.82 96.86 108.65 96.86ZM117.524 101.525C117.864 101.525 118.149 101.645 118.379 101.885C118.619 102.115 118.739 102.395 118.739 102.725C118.739 103.095 118.644 103.49 118.454 103.91L117.239 106.685H116.099L116.804 103.73C116.664 103.62 116.549 103.475 116.459 103.295C116.369 103.115 116.324 102.93 116.324 102.74C116.324 102.4 116.439 102.115 116.669 101.885C116.899 101.645 117.184 101.525 117.524 101.525ZM132.827 101.36L132.002 104H130.712L134.087 93.665H135.737L139.097 104H137.747L136.922 101.36H132.827ZM136.577 100.28L134.882 94.775L133.172 100.28H136.577ZM140.606 96.095H141.686L141.791 97.205C142.101 96.805 142.491 96.495 142.961 96.275C143.441 96.045 143.921 95.93 144.401 95.93C145.881 95.93 146.621 96.71 146.621 98.27V104H145.361V99.2C145.361 98.61 145.326 98.16 145.256 97.85C145.196 97.54 145.071 97.31 144.881 97.16C144.691 97.01 144.401 96.935 144.011 96.935C143.581 96.935 143.176 97.065 142.796 97.325C142.416 97.585 142.106 97.895 141.866 98.255V104H140.606V96.095ZM155.3 92.915V104H154.19L154.07 102.965C153.78 103.365 153.445 103.665 153.065 103.865C152.685 104.065 152.275 104.165 151.835 104.165C150.835 104.165 150.08 103.8 149.57 103.07C149.07 102.34 148.82 101.335 148.82 100.055C148.82 99.265 148.945 98.56 149.195 97.94C149.445 97.31 149.8 96.82 150.26 96.47C150.73 96.11 151.28 95.93 151.91 95.93C152.78 95.93 153.49 96.245 154.04 96.875V92.765L155.3 92.915ZM152.24 96.95C151.58 96.95 151.07 97.21 150.71 97.73C150.36 98.25 150.185 99.025 150.185 100.055C150.185 101.075 150.345 101.85 150.665 102.38C150.995 102.9 151.47 103.16 152.09 103.16C152.84 103.16 153.49 102.74 154.04 101.9V97.97C153.82 97.64 153.555 97.39 153.245 97.22C152.935 97.04 152.6 96.95 152.24 96.95ZM6.165 113.765C6.915 113.765 7.63 113.905 8.31 114.185L7.905 115.13C7.405 114.91 6.84 114.8 6.21 114.8C5.11 114.8 4.56 115.235 4.56 116.105V117.71H7.23L7.095 118.715H4.56V125H3.285V118.715H1.41V117.71H3.285V116.135C3.285 115.425 3.555 114.855 4.095 114.425C4.645 113.985 5.335 113.765 6.165 113.765ZM13.2091 116.93C14.2991 116.93 15.1341 117.3 15.7141 118.04C16.3041 118.77 16.5991 119.77 16.5991 121.04C16.5991 122.28 16.2991 123.28 15.6991 124.04C15.1091 124.79 14.2741 125.165 13.1941 125.165C12.1041 125.165 11.2641 124.8 10.6741 124.07C10.0841 123.33 9.78914 122.325 9.78914 121.055C9.78914 119.805 10.0841 118.805 10.6741 118.055C11.2741 117.305 12.1191 116.93 13.2091 116.93ZM13.2091 117.965C12.5191 117.965 12.0041 118.22 11.6641 118.73C11.3241 119.24 11.1541 120.015 11.1541 121.055C11.1541 122.095 11.3191 122.87 11.6491 123.38C11.9891 123.88 12.5041 124.13 13.1941 124.13C13.8841 124.13 14.3941 123.88 14.7241 123.38C15.0641 122.87 15.2341 122.09 15.2341 121.04C15.2341 120 15.0641 119.23 14.7241 118.73C14.3941 118.22 13.8891 117.965 13.2091 117.965ZM20.1483 122.705C20.1483 123.215 20.2533 123.59 20.4633 123.83C20.6833 124.06 21.0233 124.175 21.4833 124.175C21.9033 124.175 22.3083 124.055 22.6983 123.815C23.0883 123.575 23.3983 123.275 23.6283 122.915V117.095H24.8883V125H23.8083L23.7033 123.935C23.3933 124.325 23.0083 124.63 22.5483 124.85C22.0983 125.06 21.6383 125.165 21.1683 125.165C20.4183 125.165 19.8483 124.965 19.4583 124.565C19.0783 124.165 18.8883 123.59 18.8883 122.84V117.095H20.1483V122.705ZM32.9224 116.93C33.2424 116.93 33.6124 116.985 34.0324 117.095L33.8524 119.78H32.8324V118.085H32.7574C31.5374 118.085 30.6724 118.955 30.1624 120.695V124.025H31.7674V125H27.6574V124.025H28.9024V118.07H27.6574V117.095H29.8474L30.0874 118.97C30.4074 118.29 30.7874 117.78 31.2274 117.44C31.6774 117.1 32.2424 116.93 32.9224 116.93ZM49.6357 113.765C50.3857 113.765 51.1007 113.905 51.7807 114.185L51.3757 115.13C50.8757 114.91 50.3107 114.8 49.6807 114.8C48.5807 114.8 48.0307 115.235 48.0307 116.105V117.71H50.7007L50.5657 118.715H48.0307V125H46.7557V118.715H44.8807V117.71H46.7557V116.135C46.7557 115.425 47.0257 114.855 47.5657 114.425C48.1157 113.985 48.8057 113.765 49.6357 113.765ZM56.6798 116.93C57.7698 116.93 58.6048 117.3 59.1848 118.04C59.7748 118.77 60.0698 119.77 60.0698 121.04C60.0698 122.28 59.7698 123.28 59.1698 124.04C58.5798 124.79 57.7448 125.165 56.6648 125.165C55.5748 125.165 54.7348 124.8 54.1448 124.07C53.5548 123.33 53.2598 122.325 53.2598 121.055C53.2598 119.805 53.5548 118.805 54.1448 118.055C54.7448 117.305 55.5898 116.93 56.6798 116.93ZM56.6798 117.965C55.9898 117.965 55.4748 118.22 55.1348 118.73C54.7948 119.24 54.6248 120.015 54.6248 121.055C54.6248 122.095 54.7898 122.87 55.1198 123.38C55.4598 123.88 55.9748 124.13 56.6648 124.13C57.3548 124.13 57.8648 123.88 58.1948 123.38C58.5348 122.87 58.7048 122.09 58.7048 121.04C58.7048 120 58.5348 119.23 58.1948 118.73C57.8648 118.22 57.3598 117.965 56.6798 117.965ZM67.699 116.93C68.019 116.93 68.389 116.985 68.809 117.095L68.629 119.78H67.609V118.085H67.534C66.314 118.085 65.449 118.955 64.939 120.695V124.025H66.544V125H62.434V124.025H63.679V118.07H62.434V117.095H64.624L64.864 118.97C65.184 118.29 65.564 117.78 66.004 117.44C66.454 117.1 67.019 116.93 67.699 116.93ZM85.7473 113.915V125H84.6373L84.5173 123.965C84.2273 124.365 83.8923 124.665 83.5123 124.865C83.1323 125.065 82.7223 125.165 82.2823 125.165C81.2823 125.165 80.5273 124.8 80.0173 124.07C79.5173 123.34 79.2673 122.335 79.2673 121.055C79.2673 120.265 79.3923 119.56 79.6423 118.94C79.8923 118.31 80.2473 117.82 80.7073 117.47C81.1773 117.11 81.7273 116.93 82.3573 116.93C83.2273 116.93 83.9373 117.245 84.4873 117.875V113.765L85.7473 113.915ZM82.6873 117.95C82.0273 117.95 81.5173 118.21 81.1573 118.73C80.8073 119.25 80.6323 120.025 80.6323 121.055C80.6323 122.075 80.7923 122.85 81.1123 123.38C81.4423 123.9 81.9173 124.16 82.5373 124.16C83.2873 124.16 83.9373 123.74 84.4873 122.9V118.97C84.2673 118.64 84.0023 118.39 83.6923 118.22C83.3823 118.04 83.0473 117.95 82.6873 117.95ZM89.4464 121.49C89.4764 122.36 89.7014 123.015 90.1214 123.455C90.5514 123.895 91.0914 124.115 91.7414 124.115C92.1314 124.115 92.4864 124.06 92.8064 123.95C93.1364 123.83 93.4864 123.65 93.8564 123.41L94.4414 124.25C94.0714 124.54 93.6464 124.765 93.1664 124.925C92.6964 125.085 92.2214 125.165 91.7414 125.165C90.6014 125.165 89.7114 124.795 89.0714 124.055C88.4414 123.305 88.1264 122.305 88.1264 121.055C88.1264 120.265 88.2664 119.56 88.5464 118.94C88.8264 118.31 89.2264 117.82 89.7464 117.47C90.2664 117.11 90.8714 116.93 91.5614 116.93C92.5614 116.93 93.3464 117.28 93.9164 117.98C94.4964 118.67 94.7864 119.615 94.7864 120.815C94.7864 121.045 94.7764 121.27 94.7564 121.49H89.4464ZM91.5764 117.965C90.9664 117.965 90.4714 118.185 90.0914 118.625C89.7114 119.055 89.4964 119.69 89.4464 120.53H93.5564C93.5464 119.7 93.3664 119.065 93.0164 118.625C92.6664 118.185 92.1864 117.965 91.5764 117.965ZM102.806 123.275C102.806 123.585 102.856 123.815 102.956 123.965C103.056 124.105 103.221 124.21 103.451 124.28L103.136 125.18C102.366 125.08 101.886 124.705 101.696 124.055C101.416 124.415 101.061 124.69 100.631 124.88C100.211 125.07 99.7405 125.165 99.2205 125.165C98.4305 125.165 97.8055 124.945 97.3455 124.505C96.8955 124.065 96.6705 123.475 96.6705 122.735C96.6705 121.925 96.9855 121.3 97.6155 120.86C98.2555 120.42 99.1705 120.2 100.361 120.2H101.531V119.555C101.531 118.995 101.371 118.595 101.051 118.355C100.731 118.105 100.266 117.98 99.6555 117.98C99.0555 117.98 98.3705 118.115 97.6005 118.385L97.2555 117.425C98.1855 117.095 99.0505 116.93 99.8505 116.93C100.811 116.93 101.541 117.155 102.041 117.605C102.551 118.055 102.806 118.68 102.806 119.48V123.275ZM99.5355 124.22C99.9255 124.22 100.296 124.12 100.646 123.92C101.006 123.72 101.301 123.445 101.531 123.095V121.07H100.391C99.5505 121.07 98.9455 121.21 98.5755 121.49C98.2055 121.77 98.0205 122.18 98.0205 122.72C98.0205 123.72 98.5255 124.22 99.5355 124.22ZM112.115 124.595C111.845 124.775 111.515 124.915 111.125 125.015C110.745 125.115 110.365 125.165 109.985 125.165C109.155 125.165 108.505 124.95 108.035 124.52C107.565 124.08 107.33 123.505 107.33 122.795V118.085H105.515V117.095H107.33V115.31L108.59 115.16V117.095H111.335L111.17 118.085H108.59V122.78C108.59 123.23 108.71 123.565 108.95 123.785C109.19 124.005 109.575 124.115 110.105 124.115C110.645 124.115 111.15 123.99 111.62 123.74L112.115 124.595ZM115.784 118.19C116.094 117.79 116.474 117.48 116.924 117.26C117.374 117.04 117.839 116.93 118.319 116.93C119.799 116.93 120.539 117.71 120.539 119.27V125H119.279V119.285C119.279 118.815 119.169 118.475 118.949 118.265C118.729 118.045 118.379 117.935 117.899 117.935C117.489 117.935 117.094 118.065 116.714 118.325C116.334 118.585 116.024 118.89 115.784 119.24V125H114.524V113.93L115.784 113.795V118.19Z" fill="#2A2921"/>
</svg>
