<svg width="170" height="136" viewBox="0 0 170 136" fill="none" xmlns="http://www.w3.org/2000/svg">
<path d="M14.63 14.6V29H13.44C13.26 29 13.1067 28.97 12.98 28.91C12.8533 28.8433 12.7333 28.7367 12.62 28.59L4.71 18.43C4.73 18.6233 4.74333 18.8167 4.75 19.01C4.76333 19.1967 4.77 19.37 4.77 19.53V29H2.71V14.6H3.93C4.03 14.6 4.11333 14.6067 4.18 14.62C4.25333 14.6267 4.32 14.6433 4.38 14.67C4.44 14.6967 4.49667 14.7367 4.55 14.79C4.60333 14.8433 4.66 14.91 4.72 14.99L12.64 25.16C12.62 24.9533 12.6033 24.75 12.59 24.55C12.5833 24.35 12.58 24.1633 12.58 23.99V14.6H14.63ZM25.6663 18.8V29H24.3663C24.0796 29 23.8963 28.8633 23.8163 28.59L23.6563 27.64C23.4429 27.8667 23.2163 28.0733 22.9763 28.26C22.7429 28.4467 22.4929 28.6067 22.2263 28.74C21.9596 28.8733 21.6729 28.9767 21.3663 29.05C21.0663 29.1233 20.7429 29.16 20.3963 29.16C19.8363 29.16 19.3429 29.0667 18.9163 28.88C18.4896 28.6933 18.1296 28.43 17.8363 28.09C17.5496 27.75 17.3329 27.3433 17.1863 26.87C17.0396 26.39 16.9663 25.8633 16.9663 25.29V18.8H19.1163V25.29C19.1163 25.9767 19.2729 26.51 19.5863 26.89C19.9063 27.27 20.3896 27.46 21.0363 27.46C21.5096 27.46 21.9496 27.3533 22.3563 27.14C22.7696 26.92 23.1563 26.62 23.5163 26.24V18.8H25.6663ZM29.9072 20.69C30.2272 20.0433 30.6139 19.5367 31.0672 19.17C31.5205 18.7967 32.0639 18.61 32.6972 18.61C32.9172 18.61 33.1239 18.6367 33.3172 18.69C33.5105 18.7367 33.6839 18.81 33.8372 18.91L33.6872 20.53C33.6605 20.6433 33.6172 20.7233 33.5572 20.77C33.5039 20.81 33.4305 20.83 33.3372 20.83C33.2372 20.83 33.0939 20.8133 32.9072 20.78C32.7205 20.74 32.5239 20.72 32.3172 20.72C32.0172 20.72 31.7505 20.7633 31.5172 20.85C31.2905 20.9367 31.0839 21.0633 30.8972 21.23C30.7172 21.3967 30.5572 21.6 30.4172 21.84C30.2772 22.08 30.1472 22.3533 30.0272 22.66V29H27.8772V18.8H29.1272C29.3539 18.8 29.5105 18.8433 29.5972 18.93C29.6839 19.01 29.7439 19.1533 29.7772 19.36L29.9072 20.69ZM40.8914 20.65C40.8381 20.7433 40.7781 20.81 40.7114 20.85C40.6447 20.89 40.5614 20.91 40.4614 20.91C40.3481 20.91 40.2247 20.8767 40.0914 20.81C39.9581 20.7367 39.8014 20.6567 39.6214 20.57C39.4414 20.4833 39.2281 20.4067 38.9814 20.34C38.7414 20.2667 38.4581 20.23 38.1314 20.23C37.8647 20.23 37.6214 20.2633 37.4014 20.33C37.1881 20.39 37.0047 20.48 36.8514 20.6C36.7047 20.7133 36.5914 20.85 36.5114 21.01C36.4314 21.1633 36.3914 21.33 36.3914 21.51C36.3914 21.75 36.4647 21.95 36.6114 22.11C36.7581 22.27 36.9514 22.41 37.1914 22.53C37.4314 22.6433 37.7047 22.7467 38.0114 22.84C38.3181 22.9333 38.6314 23.0333 38.9514 23.14C39.2714 23.2467 39.5847 23.37 39.8914 23.51C40.1981 23.65 40.4714 23.8233 40.7114 24.03C40.9514 24.23 41.1447 24.4767 41.2914 24.77C41.4381 25.0567 41.5114 25.4067 41.5114 25.82C41.5114 26.3 41.4247 26.7433 41.2514 27.15C41.0781 27.5567 40.8247 27.91 40.4914 28.21C40.1581 28.51 39.7414 28.7433 39.2414 28.91C38.7481 29.0767 38.1814 29.16 37.5414 29.16C37.1881 29.16 36.8447 29.1267 36.5114 29.06C36.1847 29 35.8714 28.9167 35.5714 28.81C35.2781 28.6967 35.0014 28.5633 34.7414 28.41C34.4881 28.2567 34.2614 28.09 34.0614 27.91L34.5614 27.09C34.6214 26.99 34.6947 26.9133 34.7814 26.86C34.8747 26.8 34.9881 26.77 35.1214 26.77C35.2614 26.77 35.3981 26.8167 35.5314 26.91C35.6714 26.9967 35.8314 27.0933 36.0114 27.2C36.1981 27.3067 36.4214 27.4067 36.6814 27.5C36.9414 27.5867 37.2647 27.63 37.6514 27.63C37.9714 27.63 38.2481 27.5933 38.4814 27.52C38.7147 27.44 38.9081 27.3333 39.0614 27.2C39.2147 27.0667 39.3281 26.9167 39.4014 26.75C39.4747 26.5767 39.5114 26.3933 39.5114 26.2C39.5114 25.94 39.4381 25.7267 39.2914 25.56C39.1447 25.3933 38.9481 25.25 38.7014 25.13C38.4614 25.01 38.1847 24.9033 37.8714 24.81C37.5647 24.7167 37.2514 24.6167 36.9314 24.51C36.6114 24.4033 36.2947 24.28 35.9814 24.14C35.6747 24 35.3981 23.8233 35.1514 23.61C34.9114 23.39 34.7181 23.1267 34.5714 22.82C34.4247 22.5067 34.3514 22.1267 34.3514 21.68C34.3514 21.2733 34.4314 20.8867 34.5914 20.52C34.7581 20.1533 34.9981 19.83 35.3114 19.55C35.6314 19.27 36.0214 19.05 36.4814 18.89C36.9481 18.7233 37.4847 18.64 38.0914 18.64C38.7781 18.64 39.4014 18.75 39.9614 18.97C40.5214 19.19 40.9914 19.49 41.3714 19.87L40.8914 20.65ZM49.8219 22.75C49.8219 22.39 49.7685 22.0567 49.6619 21.75C49.5619 21.4367 49.4119 21.1667 49.2119 20.94C49.0119 20.7067 48.7619 20.5267 48.4619 20.4C48.1685 20.2667 47.8285 20.2 47.4419 20.2C46.6619 20.2 46.0485 20.4233 45.6019 20.87C45.1552 21.3167 44.8719 21.9433 44.7519 22.75H49.8219ZM44.6919 24.07C44.7185 24.65 44.8085 25.1533 44.9619 25.58C45.1152 26 45.3185 26.35 45.5719 26.63C45.8319 26.91 46.1385 27.12 46.4919 27.26C46.8519 27.3933 47.2519 27.46 47.6919 27.46C48.1119 27.46 48.4752 27.4133 48.7819 27.32C49.0885 27.22 49.3552 27.1133 49.5819 27C49.8085 26.88 50.0019 26.7733 50.1619 26.68C50.3219 26.58 50.4685 26.53 50.6019 26.53C50.7752 26.53 50.9085 26.5967 51.0019 26.73L51.6119 27.52C51.3585 27.82 51.0719 28.0733 50.7519 28.28C50.4319 28.4867 50.0919 28.6567 49.7319 28.79C49.3719 28.9167 49.0019 29.0067 48.6219 29.06C48.2419 29.12 47.8719 29.15 47.5119 29.15C46.8052 29.15 46.1485 29.0333 45.5419 28.8C44.9419 28.56 44.4185 28.21 43.9719 27.75C43.5319 27.29 43.1852 26.72 42.9319 26.04C42.6852 25.36 42.5619 24.5767 42.5619 23.69C42.5619 22.9833 42.6719 22.3233 42.8919 21.71C43.1185 21.0967 43.4385 20.5633 43.8519 20.11C44.2719 19.6567 44.7785 19.3 45.3719 19.04C45.9719 18.7733 46.6485 18.64 47.4019 18.64C48.0285 18.64 48.6085 18.7433 49.1419 18.95C49.6752 19.15 50.1352 19.4467 50.5219 19.84C50.9085 20.2333 51.2085 20.7167 51.4219 21.29C51.6419 21.8567 51.7519 22.5033 51.7519 23.23C51.7519 23.5633 51.7152 23.7867 51.6419 23.9C51.5685 24.0133 51.4352 24.07 51.2419 24.07H44.6919ZM55.3869 20.69C55.7069 20.0433 56.0935 19.5367 56.5469 19.17C57.0002 18.7967 57.5435 18.61 58.1769 18.61C58.3969 18.61 58.6035 18.6367 58.7969 18.69C58.9902 18.7367 59.1635 18.81 59.3169 18.91L59.1669 20.53C59.1402 20.6433 59.0969 20.7233 59.0369 20.77C58.9835 20.81 58.9102 20.83 58.8169 20.83C58.7169 20.83 58.5735 20.8133 58.3869 20.78C58.2002 20.74 58.0035 20.72 57.7969 20.72C57.4969 20.72 57.2302 20.7633 56.9969 20.85C56.7702 20.9367 56.5635 21.0633 56.3769 21.23C56.1969 21.3967 56.0369 21.6 55.8969 21.84C55.7569 22.08 55.6269 22.3533 55.5069 22.66V29H53.3569V18.8H54.6069C54.8335 18.8 54.9902 18.8433 55.0769 18.93C55.1635 19.01 55.2235 19.1533 55.2569 19.36L55.3869 20.69ZM69.3897 18.8L63.7697 31.9C63.6964 32.0533 63.6064 32.1733 63.4997 32.26C63.3997 32.3467 63.243 32.39 63.0297 32.39H61.4397L63.3197 28.31L59.1597 18.8H61.0297C61.2097 18.8 61.3464 18.8433 61.4397 18.93C61.5397 19.01 61.613 19.1067 61.6597 19.22L64.0897 25.01C64.1497 25.1767 64.203 25.3433 64.2497 25.51C64.303 25.67 64.353 25.8367 64.3997 26.01C64.453 25.8367 64.5064 25.6667 64.5597 25.5C64.613 25.3333 64.673 25.1667 64.7397 25L67.0697 19.22C67.1164 19.1 67.193 19 67.2997 18.92C67.413 18.84 67.5364 18.8 67.6697 18.8H69.3897ZM79.0611 21.5C79.5944 21.5 80.0611 21.4367 80.4611 21.31C80.8611 21.1767 81.1944 20.9933 81.4611 20.76C81.7278 20.5267 81.9278 20.25 82.0611 19.93C82.1944 19.6033 82.2611 19.2433 82.2611 18.85C82.2611 18.0633 82.0011 17.4633 81.4811 17.05C80.9611 16.6367 80.1744 16.43 79.1211 16.43H77.2211V21.5H79.0611ZM85.8411 29H83.7511C83.3378 29 83.0378 28.84 82.8511 28.52L79.4911 23.67C79.3778 23.5033 79.2544 23.3833 79.1211 23.31C78.9878 23.2367 78.7878 23.2 78.5211 23.2H77.2211V29H74.8811V14.6H79.1211C80.0678 14.6 80.8811 14.6967 81.5611 14.89C82.2478 15.0833 82.8111 15.36 83.2511 15.72C83.6911 16.0733 84.0144 16.5 84.2211 17C84.4344 17.5 84.5411 18.0567 84.5411 18.67C84.5411 19.17 84.4644 19.6367 84.3111 20.07C84.1644 20.5033 83.9478 20.8967 83.6611 21.25C83.3811 21.6033 83.0344 21.91 82.6211 22.17C82.2078 22.43 81.7378 22.6333 81.2111 22.78C81.4978 22.9533 81.7444 23.1967 81.9511 23.51L85.8411 29ZM88.7897 20.01C89.2097 19.5967 89.6697 19.2667 90.1697 19.02C90.6697 18.7667 91.253 18.64 91.9197 18.64C92.4797 18.64 92.9697 18.7333 93.3897 18.92C93.8164 19.1067 94.173 19.37 94.4597 19.71C94.753 20.05 94.973 20.46 95.1197 20.94C95.2664 21.4133 95.3397 21.9367 95.3397 22.51V29H93.1997V22.51C93.1997 21.8233 93.0397 21.29 92.7197 20.91C92.4064 20.53 91.9264 20.34 91.2797 20.34C90.7997 20.34 90.353 20.45 89.9397 20.67C89.533 20.89 89.1497 21.19 88.7897 21.57V29H86.6397V14.2H88.7897V20.01ZM106.247 18.8L100.627 31.9C100.553 32.0533 100.463 32.1733 100.357 32.26C100.257 32.3467 100.1 32.39 99.8867 32.39H98.2967L100.177 28.31L96.0167 18.8H97.8867C98.0667 18.8 98.2034 18.8433 98.2967 18.93C98.3967 19.01 98.4701 19.1067 98.5167 19.22L100.947 25.01C101.007 25.1767 101.06 25.3433 101.107 25.51C101.16 25.67 101.21 25.8367 101.257 26.01C101.31 25.8367 101.363 25.6667 101.417 25.5C101.47 25.3333 101.53 25.1667 101.597 25L103.927 19.22C103.973 19.1 104.05 19 104.157 18.92C104.27 18.84 104.393 18.8 104.527 18.8H106.247ZM107.246 29V18.8H108.546C108.839 18.8 109.026 18.9367 109.106 19.21L109.246 20.1C109.433 19.8867 109.626 19.6933 109.826 19.52C110.026 19.34 110.239 19.1867 110.466 19.06C110.699 18.9267 110.946 18.8233 111.206 18.75C111.473 18.6767 111.759 18.64 112.066 18.64C112.393 18.64 112.693 18.6867 112.966 18.78C113.239 18.8733 113.479 19.0067 113.686 19.18C113.899 19.3533 114.083 19.5633 114.236 19.81C114.389 20.0567 114.516 20.3333 114.616 20.64C114.769 20.2867 114.963 19.9833 115.196 19.73C115.429 19.4767 115.689 19.27 115.976 19.11C116.263 18.95 116.566 18.8333 116.886 18.76C117.213 18.68 117.543 18.64 117.876 18.64C118.423 18.64 118.909 18.7267 119.336 18.9C119.769 19.0733 120.133 19.3267 120.426 19.66C120.726 19.9867 120.953 20.39 121.106 20.87C121.259 21.35 121.336 21.8967 121.336 22.51V29H119.186V22.51C119.186 21.79 119.029 21.25 118.716 20.89C118.409 20.5233 117.953 20.34 117.346 20.34C117.073 20.34 116.816 20.3867 116.576 20.48C116.336 20.5733 116.126 20.71 115.946 20.89C115.766 21.07 115.623 21.2967 115.516 21.57C115.416 21.8367 115.366 22.15 115.366 22.51V29H113.216V22.51C113.216 21.7633 113.066 21.2167 112.766 20.87C112.466 20.5167 112.026 20.34 111.446 20.34C111.046 20.34 110.676 20.4433 110.336 20.65C109.996 20.85 109.683 21.1267 109.396 21.48V29H107.246ZM130.137 22.75C130.137 22.39 130.084 22.0567 129.977 21.75C129.877 21.4367 129.727 21.1667 129.527 20.94C129.327 20.7067 129.077 20.5267 128.777 20.4C128.484 20.2667 128.144 20.2 127.757 20.2C126.977 20.2 126.364 20.4233 125.917 20.87C125.471 21.3167 125.187 21.9433 125.067 22.75H130.137ZM125.007 24.07C125.034 24.65 125.124 25.1533 125.277 25.58C125.431 26 125.634 26.35 125.887 26.63C126.147 26.91 126.454 27.12 126.807 27.26C127.167 27.3933 127.567 27.46 128.007 27.46C128.427 27.46 128.791 27.4133 129.097 27.32C129.404 27.22 129.671 27.1133 129.897 27C130.124 26.88 130.317 26.7733 130.477 26.68C130.637 26.58 130.784 26.53 130.917 26.53C131.091 26.53 131.224 26.5967 131.317 26.73L131.927 27.52C131.674 27.82 131.387 28.0733 131.067 28.28C130.747 28.4867 130.407 28.6567 130.047 28.79C129.687 28.9167 129.317 29.0067 128.937 29.06C128.557 29.12 128.187 29.15 127.827 29.15C127.121 29.15 126.464 29.0333 125.857 28.8C125.257 28.56 124.734 28.21 124.287 27.75C123.847 27.29 123.501 26.72 123.247 26.04C123.001 25.36 122.877 24.5767 122.877 23.69C122.877 22.9833 122.987 22.3233 123.207 21.71C123.434 21.0967 123.754 20.5633 124.167 20.11C124.587 19.6567 125.094 19.3 125.687 19.04C126.287 18.7733 126.964 18.64 127.717 18.64C128.344 18.64 128.924 18.7433 129.457 18.95C129.991 19.15 130.451 19.4467 130.837 19.84C131.224 20.2333 131.524 20.7167 131.737 21.29C131.957 21.8567 132.067 22.5033 132.067 23.23C132.067 23.5633 132.031 23.7867 131.957 23.9C131.884 24.0133 131.751 24.07 131.557 24.07H125.007ZM139.763 20.65C139.709 20.7433 139.649 20.81 139.583 20.85C139.516 20.89 139.433 20.91 139.333 20.91C139.219 20.91 139.096 20.8767 138.963 20.81C138.829 20.7367 138.673 20.6567 138.493 20.57C138.313 20.4833 138.099 20.4067 137.853 20.34C137.613 20.2667 137.329 20.23 137.003 20.23C136.736 20.23 136.493 20.2633 136.273 20.33C136.059 20.39 135.876 20.48 135.723 20.6C135.576 20.7133 135.463 20.85 135.383 21.01C135.303 21.1633 135.263 21.33 135.263 21.51C135.263 21.75 135.336 21.95 135.483 22.11C135.629 22.27 135.823 22.41 136.063 22.53C136.303 22.6433 136.576 22.7467 136.883 22.84C137.189 22.9333 137.503 23.0333 137.823 23.14C138.143 23.2467 138.456 23.37 138.763 23.51C139.069 23.65 139.343 23.8233 139.583 24.03C139.823 24.23 140.016 24.4767 140.163 24.77C140.309 25.0567 140.383 25.4067 140.383 25.82C140.383 26.3 140.296 26.7433 140.123 27.15C139.949 27.5567 139.696 27.91 139.363 28.21C139.029 28.51 138.613 28.7433 138.113 28.91C137.619 29.0767 137.053 29.16 136.413 29.16C136.059 29.16 135.716 29.1267 135.383 29.06C135.056 29 134.743 28.9167 134.443 28.81C134.149 28.6967 133.873 28.5633 133.613 28.41C133.359 28.2567 133.133 28.09 132.933 27.91L133.433 27.09C133.493 26.99 133.566 26.9133 133.653 26.86C133.746 26.8 133.859 26.77 133.993 26.77C134.133 26.77 134.269 26.8167 134.403 26.91C134.543 26.9967 134.703 27.0933 134.883 27.2C135.069 27.3067 135.293 27.4067 135.553 27.5C135.813 27.5867 136.136 27.63 136.523 27.63C136.843 27.63 137.119 27.5933 137.353 27.52C137.586 27.44 137.779 27.3333 137.933 27.2C138.086 27.0667 138.199 26.9167 138.273 26.75C138.346 26.5767 138.383 26.3933 138.383 26.2C138.383 25.94 138.309 25.7267 138.163 25.56C138.016 25.3933 137.819 25.25 137.573 25.13C137.333 25.01 137.056 24.9033 136.743 24.81C136.436 24.7167 136.123 24.6167 135.803 24.51C135.483 24.4033 135.166 24.28 134.853 24.14C134.546 24 134.269 23.8233 134.023 23.61C133.783 23.39 133.589 23.1267 133.443 22.82C133.296 22.5067 133.223 22.1267 133.223 21.68C133.223 21.2733 133.303 20.8867 133.463 20.52C133.629 20.1533 133.869 19.83 134.183 19.55C134.503 19.27 134.893 19.05 135.353 18.89C135.819 18.7233 136.356 18.64 136.963 18.64C137.649 18.64 138.273 18.75 138.833 18.97C139.393 19.19 139.863 19.49 140.243 19.87L139.763 20.65Z" fill="#2A2921"/>
<path d="M6.175 62.165C5.205 62.165 4.37 61.93 3.67 61.46C2.98 60.98 2.455 60.315 2.095 59.465C1.735 58.615 1.555 57.63 1.555 56.51C1.555 55.36 1.775 54.35 2.215 53.48C2.655 52.6 3.255 51.925 4.015 51.455C4.775 50.975 5.62 50.735 6.55 50.735C7.54 50.735 8.385 50.965 9.085 51.425C9.795 51.885 10.33 52.535 10.69 53.375C11.06 54.215 11.245 55.2 11.245 56.33C11.245 57.49 11.02 58.515 10.57 59.405C10.12 60.285 9.51 60.965 8.74 61.445C7.97 61.925 7.115 62.165 6.175 62.165ZM6.415 51.44C5.345 51.44 4.495 51.875 3.865 52.745C3.235 53.605 2.92 54.86 2.92 56.51C2.92 57.47 3.055 58.325 3.325 59.075C3.595 59.825 3.99 60.41 4.51 60.83C5.03 61.25 5.65 61.46 6.37 61.46C7.07 61.46 7.68 61.27 8.2 60.89C8.72 60.5 9.125 59.92 9.415 59.15C9.705 58.38 9.85 57.44 9.85 56.33C9.85 55.36 9.715 54.51 9.445 53.78C9.175 53.04 8.78 52.465 8.26 52.055C7.75 51.645 7.135 51.44 6.415 51.44ZM13.1012 54.665L11.9462 54.41V53.735L13.8512 53.495H13.8963L14.1812 53.735V54.395L14.1662 54.77C14.5362 54.45 15.0262 54.155 15.6362 53.885C16.2463 53.615 16.8113 53.48 17.3313 53.48C17.9713 53.48 18.4613 53.605 18.8013 53.855C19.1513 54.095 19.3912 54.47 19.5213 54.98C19.6612 55.48 19.7312 56.155 19.7312 57.005V61.25L20.8562 61.355V62H17.5112V61.355L18.5162 61.25V56.99C18.5162 56.36 18.4712 55.865 18.3812 55.505C18.3013 55.145 18.1363 54.875 17.8863 54.695C17.6463 54.505 17.2913 54.41 16.8212 54.41C16.4212 54.41 15.9863 54.51 15.5163 54.71C15.0562 54.91 14.6562 55.145 14.3162 55.415V61.235L15.4113 61.355V62H12.0962V61.355L13.1012 61.235V54.665ZM25.3011 62.165C24.1411 62.165 23.2461 61.77 22.6161 60.98C21.9961 60.18 21.6861 59.12 21.6861 57.8C21.6861 56.95 21.8511 56.195 22.1811 55.535C22.5111 54.875 22.9661 54.365 23.5461 54.005C24.1361 53.635 24.7961 53.45 25.5261 53.45C26.4161 53.45 27.1061 53.705 27.5961 54.215C28.0961 54.725 28.3661 55.46 28.4061 56.42C28.4061 57.04 28.3761 57.48 28.3161 57.74H22.9761C22.9761 58.79 23.2111 59.65 23.6811 60.32C24.1611 60.98 24.8311 61.31 25.6911 61.31C26.1111 61.31 26.5411 61.235 26.9811 61.085C27.4211 60.935 27.7611 60.755 28.0011 60.545L28.2411 61.1C27.9511 61.4 27.5261 61.655 26.9661 61.865C26.4161 62.065 25.8611 62.165 25.3011 62.165ZM27.0561 57.035C27.0861 56.825 27.1011 56.605 27.1011 56.375C27.0911 55.715 26.9311 55.19 26.6211 54.8C26.3211 54.41 25.8561 54.215 25.2261 54.215C23.8561 54.215 23.1111 55.155 22.9911 57.035H27.0561ZM34.0212 54.575H32.5062V53.975L34.0212 53.69V52.955C34.0212 52.355 34.1762 51.805 34.4862 51.305C34.7962 50.795 35.1962 50.39 35.6862 50.09C36.1862 49.79 36.7062 49.64 37.2462 49.64C37.5662 49.64 37.8462 49.68 38.0862 49.76V50.99C38.0062 50.93 37.8412 50.87 37.5912 50.81C37.3512 50.75 37.0712 50.72 36.7512 50.72C36.2212 50.72 35.8362 50.86 35.5962 51.14C35.3562 51.42 35.2362 51.895 35.2362 52.565V53.69H37.4112V54.575H35.2362V61.25L36.9462 61.355V62H32.7012V61.355L34.0212 61.235V54.575ZM38.3342 57.785C38.3342 56.915 38.5142 56.15 38.8742 55.49C39.2442 54.83 39.7242 54.325 40.3142 53.975C40.9142 53.625 41.5392 53.45 42.1892 53.45C43.4492 53.45 44.3792 53.86 44.9792 54.68C45.5892 55.5 45.8942 56.55 45.8942 57.83C45.8942 58.7 45.7092 59.465 45.3392 60.125C44.9792 60.785 44.4992 61.29 43.8992 61.64C43.3092 61.99 42.6892 62.165 42.0392 62.165C40.7792 62.165 39.8442 61.755 39.2342 60.935C38.6342 60.115 38.3342 59.065 38.3342 57.785ZM42.1142 61.385C42.8842 61.385 43.4792 61.09 43.8992 60.5C44.3192 59.91 44.5292 59.05 44.5292 57.92C44.5292 56.84 44.3342 55.955 43.9442 55.265C43.5542 54.575 42.9492 54.23 42.1292 54.23C41.3592 54.23 40.7592 54.525 40.3292 55.115C39.9092 55.705 39.6992 56.565 39.6992 57.695C39.6992 58.785 39.8942 59.675 40.2842 60.365C40.6842 61.045 41.2942 61.385 42.1142 61.385ZM47.0151 61.37L48.2151 61.28V54.665L47.0601 54.41V53.735L48.9651 53.495H48.9951L49.2801 53.735V53.975L49.2501 55.115H49.2801C49.3001 55.095 49.4301 54.945 49.6701 54.665C49.9201 54.375 50.2851 54.1 50.7651 53.84C51.2551 53.58 51.7451 53.45 52.2351 53.45C52.3951 53.45 52.5451 53.47 52.6851 53.51V54.83C52.6451 54.8 52.5551 54.77 52.4151 54.74C52.2851 54.71 52.1451 54.695 51.9951 54.695C51.4251 54.695 50.9401 54.78 50.5401 54.95C50.1401 55.12 49.7701 55.33 49.4301 55.58V61.265L51.4251 61.385V62H47.0151V61.37ZM57.8976 60.815C58.0076 60.985 58.2376 61.135 58.5876 61.265C58.9376 61.395 59.3126 61.46 59.7126 61.46C60.9326 61.46 61.5426 61.01 61.5426 60.11C61.5426 59.7 61.3726 59.37 61.0326 59.12C60.6926 58.86 60.1126 58.575 59.2926 58.265C58.4826 57.975 57.8926 57.63 57.5226 57.23C57.1526 56.83 56.9676 56.295 56.9676 55.625C56.9676 55.195 57.0976 54.82 57.3576 54.5C57.6276 54.18 57.9826 53.935 58.4226 53.765C58.8726 53.585 59.3576 53.495 59.8776 53.495C60.3876 53.495 60.8126 53.54 61.1526 53.63C61.5026 53.72 61.8476 53.83 62.1876 53.96V55.745H61.4526L61.1826 54.65C61.1126 54.52 60.9326 54.41 60.6426 54.32C60.3626 54.23 60.0526 54.185 59.7126 54.185C59.2326 54.185 58.8426 54.295 58.5426 54.515C58.2426 54.725 58.0926 55.01 58.0926 55.37C58.0926 55.69 58.1676 55.955 58.3176 56.165C58.4676 56.375 58.6526 56.545 58.8726 56.675C59.0926 56.795 59.3976 56.935 59.7876 57.095L60.0726 57.215C60.6426 57.435 61.1026 57.645 61.4526 57.845C61.8026 58.035 62.0926 58.29 62.3226 58.61C62.5526 58.92 62.6676 59.31 62.6676 59.78C62.6676 60.52 62.3826 61.105 61.8126 61.535C61.2526 61.955 60.5026 62.165 59.5626 62.165C59.1326 62.165 58.6426 62.095 58.0926 61.955C57.5426 61.815 57.1326 61.675 56.8626 61.535V59.645H57.6726L57.8976 60.815ZM63.809 57.785C63.809 56.915 63.989 56.15 64.349 55.49C64.719 54.83 65.199 54.325 65.789 53.975C66.389 53.625 67.014 53.45 67.664 53.45C68.924 53.45 69.854 53.86 70.454 54.68C71.064 55.5 71.369 56.55 71.369 57.83C71.369 58.7 71.184 59.465 70.814 60.125C70.454 60.785 69.974 61.29 69.374 61.64C68.784 61.99 68.164 62.165 67.514 62.165C66.254 62.165 65.319 61.755 64.709 60.935C64.109 60.115 63.809 59.065 63.809 57.785ZM67.589 61.385C68.359 61.385 68.954 61.09 69.374 60.5C69.794 59.91 70.004 59.05 70.004 57.92C70.004 56.84 69.809 55.955 69.419 55.265C69.029 54.575 68.424 54.23 67.604 54.23C66.834 54.23 66.234 54.525 65.804 55.115C65.384 55.705 65.174 56.565 65.174 57.695C65.174 58.785 65.369 59.675 65.759 60.365C66.159 61.045 66.769 61.385 67.589 61.385ZM72.4899 61.37L73.6899 61.28V54.665L72.5349 54.41V53.735L74.4399 53.495H74.4699L74.7549 53.735V53.975L74.7249 55.115H74.7549C74.7749 55.095 74.9049 54.945 75.1449 54.665C75.3949 54.375 75.7599 54.1 76.2399 53.84C76.7299 53.58 77.2199 53.45 77.7099 53.45C77.8699 53.45 78.0199 53.47 78.1599 53.51V54.83C78.1199 54.8 78.0299 54.77 77.8899 54.74C77.7599 54.71 77.6199 54.695 77.4699 54.695C76.8999 54.695 76.4149 54.78 76.0149 54.95C75.6149 55.12 75.2449 55.33 74.9049 55.58V61.265L76.8999 61.385V62H72.4899V61.37ZM78.9428 61.37L80.1428 61.28V54.665L78.9878 54.41V53.735L80.8928 53.495H80.9228L81.2078 53.735V53.975L81.1778 55.115H81.2078C81.2278 55.095 81.3578 54.945 81.5978 54.665C81.8478 54.375 82.2128 54.1 82.6928 53.84C83.1828 53.58 83.6728 53.45 84.1628 53.45C84.3228 53.45 84.4728 53.47 84.6128 53.51V54.83C84.5728 54.8 84.4828 54.77 84.3428 54.74C84.2128 54.71 84.0728 54.695 83.9228 54.695C83.3528 54.695 82.8678 54.78 82.4678 54.95C82.0678 55.12 81.6978 55.33 81.3578 55.58V61.265L83.3528 61.385V62H78.9428V61.37ZM85.3357 57.785C85.3357 56.915 85.5157 56.15 85.8757 55.49C86.2457 54.83 86.7257 54.325 87.3157 53.975C87.9157 53.625 88.5407 53.45 89.1907 53.45C90.4507 53.45 91.3807 53.86 91.9807 54.68C92.5907 55.5 92.8957 56.55 92.8957 57.83C92.8957 58.7 92.7107 59.465 92.3407 60.125C91.9807 60.785 91.5007 61.29 90.9007 61.64C90.3107 61.99 89.6907 62.165 89.0407 62.165C87.7807 62.165 86.8457 61.755 86.2357 60.935C85.6357 60.115 85.3357 59.065 85.3357 57.785ZM89.1157 61.385C89.8857 61.385 90.4807 61.09 90.9007 60.5C91.3207 59.91 91.5307 59.05 91.5307 57.92C91.5307 56.84 91.3357 55.955 90.9457 55.265C90.5557 54.575 89.9507 54.23 89.1307 54.23C88.3607 54.23 87.7607 54.525 87.3307 55.115C86.9107 55.705 86.7007 56.565 86.7007 57.695C86.7007 58.785 86.8957 59.675 87.2857 60.365C87.6857 61.045 88.2957 61.385 89.1157 61.385ZM93.2366 53.675H96.4916V54.29L95.2916 54.47L96.6266 59.135L97.1216 61.22L97.6166 59.12L99.1166 53.675H100.362L101.862 59.12L102.342 61.235L102.882 59.135L104.202 54.485L103.047 54.29V53.675H105.987V54.29L105.162 54.485L102.822 62.12H101.607L99.9716 56.54L99.5516 54.65L99.1916 56.54L97.6166 62.12H96.4316L94.0316 54.47L93.2366 54.29V53.675ZM108.13 59.915C108.45 59.915 108.705 60.065 108.895 60.365C109.085 60.665 109.18 61.09 109.18 61.64C109.18 62.19 109.1 62.71 108.94 63.2C108.78 63.69 108.575 64.11 108.325 64.46C108.075 64.81 107.825 65.06 107.575 65.21H107.56L107.125 64.91V64.775C107.245 64.685 107.375 64.5 107.515 64.22C107.665 63.95 107.79 63.635 107.89 63.275C108 62.915 108.055 62.565 108.055 62.225C108.055 62.075 108.025 61.955 107.965 61.865C107.915 61.775 107.835 61.67 107.725 61.55C107.595 61.42 107.495 61.295 107.425 61.175C107.365 61.055 107.335 60.89 107.335 60.68C107.335 60.45 107.405 60.265 107.545 60.125C107.695 59.985 107.87 59.915 108.07 59.915H108.13ZM117.959 51.53L115.109 51.62L114.629 54.665H113.804L114.059 50.855H123.194L123.359 54.665H122.564L122.144 51.62L119.249 51.53V61.22L121.394 61.355V62H115.994V61.355L117.959 61.22V51.53ZM123.37 53.675H126.625V54.29L125.425 54.47L126.76 59.135L127.255 61.22L127.75 59.12L129.25 53.675H130.495L131.995 59.12L132.475 61.235L133.015 59.135L134.335 54.485L133.18 54.29V53.675H136.12V54.29L135.295 54.485L132.955 62.12H131.74L130.105 56.54L129.685 54.65L129.325 56.54L127.75 62.12H126.565L124.165 54.47L123.37 54.29V53.675ZM136.358 57.785C136.358 56.915 136.538 56.15 136.898 55.49C137.268 54.83 137.748 54.325 138.338 53.975C138.938 53.625 139.563 53.45 140.213 53.45C141.473 53.45 142.403 53.86 143.003 54.68C143.613 55.5 143.918 56.55 143.918 57.83C143.918 58.7 143.733 59.465 143.363 60.125C143.003 60.785 142.523 61.29 141.923 61.64C141.333 61.99 140.713 62.165 140.063 62.165C138.803 62.165 137.868 61.755 137.258 60.935C136.658 60.115 136.358 59.065 136.358 57.785ZM140.138 61.385C140.908 61.385 141.503 61.09 141.923 60.5C142.343 59.91 142.553 59.05 142.553 57.92C142.553 56.84 142.358 55.955 141.968 55.265C141.578 54.575 140.973 54.23 140.153 54.23C139.383 54.23 138.783 54.525 138.353 55.115C137.933 55.705 137.723 56.565 137.723 57.695C137.723 58.785 137.918 59.675 138.308 60.365C138.708 61.045 139.318 61.385 140.138 61.385ZM149.543 54.575H148.028V53.975L149.543 53.69V52.955C149.543 52.355 149.698 51.805 150.008 51.305C150.318 50.795 150.718 50.39 151.208 50.09C151.708 49.79 152.228 49.64 152.768 49.64C153.088 49.64 153.368 49.68 153.608 49.76V50.99C153.528 50.93 153.363 50.87 153.113 50.81C152.873 50.75 152.593 50.72 152.273 50.72C151.743 50.72 151.358 50.86 151.118 51.14C150.878 51.42 150.758 51.895 150.758 52.565V53.69H152.933V54.575H150.758V61.25L152.468 61.355V62H148.223V61.355L149.543 61.235V54.575ZM153.856 57.785C153.856 56.915 154.036 56.15 154.396 55.49C154.766 54.83 155.246 54.325 155.836 53.975C156.436 53.625 157.061 53.45 157.711 53.45C158.971 53.45 159.901 53.86 160.501 54.68C161.111 55.5 161.416 56.55 161.416 57.83C161.416 58.7 161.231 59.465 160.861 60.125C160.501 60.785 160.021 61.29 159.421 61.64C158.831 61.99 158.211 62.165 157.561 62.165C156.301 62.165 155.366 61.755 154.756 60.935C154.156 60.115 153.856 59.065 153.856 57.785ZM157.636 61.385C158.406 61.385 159.001 61.09 159.421 60.5C159.841 59.91 160.051 59.05 160.051 57.92C160.051 56.84 159.856 55.955 159.466 55.265C159.076 54.575 158.471 54.23 157.651 54.23C156.881 54.23 156.281 54.525 155.851 55.115C155.431 55.705 155.221 56.565 155.221 57.695C155.221 58.785 155.416 59.675 155.806 60.365C156.206 61.045 156.816 61.385 157.636 61.385ZM162.537 61.37L163.737 61.28V54.665L162.582 54.41V53.735L164.487 53.495H164.517L164.802 53.735V53.975L164.772 55.115H164.802C164.822 55.095 164.952 54.945 165.192 54.665C165.442 54.375 165.807 54.1 166.287 53.84C166.777 53.58 167.267 53.45 167.757 53.45C167.917 53.45 168.067 53.47 168.207 53.51V54.83C168.167 54.8 168.077 54.77 167.937 54.74C167.807 54.71 167.667 54.695 167.517 54.695C166.947 54.695 166.462 54.78 166.062 54.95C165.662 55.12 165.292 55.33 164.952 55.58V61.265L166.947 61.385V62H162.537V61.37ZM1.66 82.355L2.62 82.235V75.665L1.465 75.41V74.735L3.37 74.495L3.7 74.735V75.395L3.685 75.77C4.055 75.45 4.54 75.155 5.14 74.885C5.74 74.615 6.285 74.48 6.775 74.48C7.315 74.48 7.745 74.57 8.065 74.75C8.395 74.93 8.645 75.21 8.815 75.59C9.125 75.33 9.575 75.08 10.165 74.84C10.765 74.6 11.315 74.48 11.815 74.48C12.445 74.48 12.93 74.6 13.27 74.84C13.62 75.08 13.865 75.45 14.005 75.95C14.145 76.45 14.215 77.125 14.215 77.975V82.235L15.355 82.355V83H11.995V82.355L13.015 82.235V78.02C13.015 77.39 12.97 76.89 12.88 76.52C12.79 76.15 12.615 75.87 12.355 75.68C12.095 75.49 11.715 75.395 11.215 75.395C10.845 75.395 10.455 75.48 10.045 75.65C9.645 75.81 9.3 75.995 9.01 76.205C9.11 76.665 9.16 77.265 9.16 78.005V82.235L10.3 82.355V83H6.865V82.355L7.945 82.235V77.99C7.945 77.35 7.905 76.85 7.825 76.49C7.755 76.13 7.6 75.86 7.36 75.68C7.12 75.5 6.765 75.41 6.295 75.41C5.905 75.41 5.48 75.51 5.02 75.71C4.57 75.9 4.175 76.13 3.835 76.4V82.235L4.9 82.355V83H1.66V82.355ZM17.8956 73.1C17.3556 73.1 17.0856 72.815 17.0856 72.245C17.0856 71.955 17.1706 71.72 17.3406 71.54C17.5106 71.35 17.7406 71.255 18.0306 71.255C18.3306 71.255 18.5456 71.34 18.6756 71.51C18.8056 71.67 18.8706 71.87 18.8706 72.11C18.8706 72.42 18.7856 72.665 18.6156 72.845C18.4556 73.015 18.2206 73.1 17.9106 73.1H17.8956ZM17.4156 75.665L16.2456 75.41V74.735L18.3006 74.495H18.3306L18.6306 74.735V82.25L19.9356 82.355V83H16.0956V82.355L17.4156 82.235V75.665ZM20.7639 82.37L21.9639 82.28V75.665L20.8089 75.41V74.735L22.7139 74.495H22.7439L23.0289 74.735V74.975L22.9989 76.115H23.0289C23.0489 76.095 23.1789 75.945 23.4189 75.665C23.6689 75.375 24.0339 75.1 24.5139 74.84C25.0039 74.58 25.4939 74.45 25.9839 74.45C26.1439 74.45 26.2939 74.47 26.4339 74.51V75.83C26.3939 75.8 26.3039 75.77 26.1639 75.74C26.0339 75.71 25.8939 75.695 25.7439 75.695C25.1739 75.695 24.6889 75.78 24.2889 75.95C23.8889 76.12 23.5189 76.33 23.1789 76.58V82.265L25.1739 82.385V83H20.7639V82.37ZM29.7518 83.165C29.2218 83.165 28.8218 83.045 28.5518 82.805C28.2818 82.555 28.1468 82.115 28.1468 81.485V75.56H27.0068V74.975C27.5068 74.865 27.7968 74.785 27.8768 74.735C28.0268 74.655 28.1368 74.5 28.2068 74.27C28.2668 74.12 28.3468 73.85 28.4468 73.46C28.5468 73.07 28.6218 72.765 28.6718 72.545H29.3618V74.675H32.0168V75.56H29.3618V80.42C29.3618 81 29.3818 81.41 29.4218 81.65C29.4618 81.88 29.5418 82.03 29.6618 82.1C29.7818 82.17 29.9918 82.205 30.2918 82.205C30.5818 82.205 30.9068 82.165 31.2668 82.085C31.6268 82.005 31.8968 81.92 32.0768 81.83L32.2718 82.4C32.0418 82.58 31.6618 82.755 31.1318 82.925C30.6018 83.085 30.1418 83.165 29.7518 83.165ZM33.8206 71.66L32.4856 71.525V70.97L34.7056 70.715H34.7356L35.0206 70.91V74.48L34.9906 75.725C35.3106 75.435 35.7606 75.155 36.3406 74.885C36.9206 74.615 37.4906 74.48 38.0506 74.48C38.6806 74.48 39.1706 74.6 39.5206 74.84C39.8706 75.08 40.1156 75.455 40.2556 75.965C40.3956 76.465 40.4656 77.145 40.4656 78.005V82.235L41.5606 82.355V83H38.2006V82.355L39.2506 82.235V77.99C39.2506 77.35 39.2056 76.85 39.1156 76.49C39.0356 76.13 38.8706 75.86 38.6206 75.68C38.3706 75.5 38.0056 75.41 37.5256 75.41C37.1256 75.41 36.6956 75.51 36.2356 75.71C35.7756 75.9 35.3706 76.13 35.0206 76.4V82.235L36.1306 82.355V83H32.8756V82.355L33.8206 82.25V71.66ZM44.3407 80.915C44.6607 80.915 44.9157 81.065 45.1057 81.365C45.2957 81.665 45.3907 82.09 45.3907 82.64C45.3907 83.19 45.3107 83.71 45.1507 84.2C44.9907 84.69 44.7857 85.11 44.5357 85.46C44.2857 85.81 44.0357 86.06 43.7857 86.21H43.7707L43.3357 85.91V85.775C43.4557 85.685 43.5857 85.5 43.7257 85.22C43.8757 84.95 44.0007 84.635 44.1007 84.275C44.2107 83.915 44.2657 83.565 44.2657 83.225C44.2657 83.075 44.2357 82.955 44.1757 82.865C44.1257 82.775 44.0457 82.67 43.9357 82.55C43.8057 82.42 43.7057 82.295 43.6357 82.175C43.5757 82.055 43.5457 81.89 43.5457 81.68C43.5457 81.45 43.6157 81.265 43.7557 81.125C43.9057 80.985 44.0807 80.915 44.2807 80.915H44.3407ZM54.1697 72.53L51.3197 72.62L50.8397 75.665H50.0147L50.2697 71.855H59.4047L59.5697 75.665H58.7747L58.3547 72.62L55.4597 72.53V82.22L57.6047 82.355V83H52.2047V82.355L54.1697 82.22V72.53ZM61.1704 71.66L59.8354 71.525V70.97L62.0554 70.715H62.0854L62.3704 70.91V74.48L62.3404 75.725C62.6604 75.435 63.1104 75.155 63.6904 74.885C64.2704 74.615 64.8404 74.48 65.4004 74.48C66.0304 74.48 66.5204 74.6 66.8704 74.84C67.2204 75.08 67.4654 75.455 67.6054 75.965C67.7454 76.465 67.8154 77.145 67.8154 78.005V82.235L68.9104 82.355V83H65.5504V82.355L66.6004 82.235V77.99C66.6004 77.35 66.5554 76.85 66.4654 76.49C66.3854 76.13 66.2204 75.86 65.9704 75.68C65.7204 75.5 65.3554 75.41 64.8754 75.41C64.4754 75.41 64.0454 75.51 63.5854 75.71C63.1254 75.9 62.7204 76.13 62.3704 76.4V82.235L63.4804 82.355V83H60.2254V82.355L61.1704 82.25V71.66ZM69.8455 82.37L71.0456 82.28V75.665L69.8905 75.41V74.735L71.7956 74.495H71.8256L72.1105 74.735V74.975L72.0806 76.115H72.1105C72.1306 76.095 72.2606 75.945 72.5006 75.665C72.7506 75.375 73.1156 75.1 73.5956 74.84C74.0856 74.58 74.5756 74.45 75.0656 74.45C75.2256 74.45 75.3756 74.47 75.5156 74.51V75.83C75.4756 75.8 75.3856 75.77 75.2456 75.74C75.1156 75.71 74.9756 75.695 74.8256 75.695C74.2555 75.695 73.7705 75.78 73.3706 75.95C72.9706 76.12 72.6006 76.33 72.2606 76.58V82.265L74.2556 82.385V83H69.8455V82.37ZM79.8835 83.165C78.7235 83.165 77.8285 82.77 77.1985 81.98C76.5785 81.18 76.2685 80.12 76.2685 78.8C76.2685 77.95 76.4335 77.195 76.7635 76.535C77.0935 75.875 77.5485 75.365 78.1285 75.005C78.7185 74.635 79.3785 74.45 80.1085 74.45C80.9985 74.45 81.6885 74.705 82.1785 75.215C82.6785 75.725 82.9485 76.46 82.9885 77.42C82.9885 78.04 82.9585 78.48 82.8985 78.74H77.5585C77.5585 79.79 77.7935 80.65 78.2635 81.32C78.7435 81.98 79.4135 82.31 80.2735 82.31C80.6935 82.31 81.1235 82.235 81.5635 82.085C82.0035 81.935 82.3435 81.755 82.5835 81.545L82.8235 82.1C82.5335 82.4 82.1085 82.655 81.5485 82.865C80.9985 83.065 80.4435 83.165 79.8835 83.165ZM81.6385 78.035C81.6685 77.825 81.6835 77.605 81.6835 77.375C81.6735 76.715 81.5135 76.19 81.2035 75.8C80.9035 75.41 80.4385 75.215 79.8085 75.215C78.4385 75.215 77.6935 76.155 77.5735 78.035H81.6385ZM87.6841 83.165C86.5241 83.165 85.6291 82.77 84.9991 81.98C84.3791 81.18 84.0691 80.12 84.0691 78.8C84.0691 77.95 84.2341 77.195 84.5641 76.535C84.8941 75.875 85.3491 75.365 85.9291 75.005C86.5191 74.635 87.1791 74.45 87.9091 74.45C88.7991 74.45 89.4891 74.705 89.9791 75.215C90.4791 75.725 90.7491 76.46 90.7891 77.42C90.7891 78.04 90.7591 78.48 90.6991 78.74H85.3591C85.3591 79.79 85.5941 80.65 86.0641 81.32C86.5441 81.98 87.2141 82.31 88.0741 82.31C88.4941 82.31 88.9241 82.235 89.3641 82.085C89.8041 81.935 90.1441 81.755 90.3841 81.545L90.6241 82.1C90.3341 82.4 89.9091 82.655 89.3491 82.865C88.7991 83.065 88.2441 83.165 87.6841 83.165ZM89.4391 78.035C89.4691 77.825 89.4841 77.605 89.4841 77.375C89.4741 76.715 89.3141 76.19 89.0041 75.8C88.7041 75.41 88.2391 75.215 87.6091 75.215C86.2391 75.215 85.4941 76.155 85.3741 78.035H89.4391ZM96.4042 75.575H94.8892V74.975L96.4042 74.69V73.955C96.4042 73.355 96.5592 72.805 96.8692 72.305C97.1792 71.795 97.5792 71.39 98.0692 71.09C98.5692 70.79 99.0892 70.64 99.6292 70.64C99.9492 70.64 100.229 70.68 100.469 70.76V71.99C100.389 71.93 100.224 71.87 99.9742 71.81C99.7342 71.75 99.4542 71.72 99.1342 71.72C98.6042 71.72 98.2192 71.86 97.9792 72.14C97.7392 72.42 97.6192 72.895 97.6192 73.565V74.69H99.7942V75.575H97.6192V82.25L99.3292 82.355V83H95.0842V82.355L96.4042 82.235V75.575ZM100.717 78.785C100.717 77.915 100.897 77.15 101.257 76.49C101.627 75.83 102.107 75.325 102.697 74.975C103.297 74.625 103.922 74.45 104.572 74.45C105.832 74.45 106.762 74.86 107.362 75.68C107.972 76.5 108.277 77.55 108.277 78.83C108.277 79.7 108.092 80.465 107.722 81.125C107.362 81.785 106.882 82.29 106.282 82.64C105.692 82.99 105.072 83.165 104.422 83.165C103.162 83.165 102.227 82.755 101.617 81.935C101.017 81.115 100.717 80.065 100.717 78.785ZM104.497 82.385C105.267 82.385 105.862 82.09 106.282 81.5C106.702 80.91 106.912 80.05 106.912 78.92C106.912 77.84 106.717 76.955 106.327 76.265C105.937 75.575 105.332 75.23 104.512 75.23C103.742 75.23 103.142 75.525 102.712 76.115C102.292 76.705 102.082 77.565 102.082 78.695C102.082 79.785 102.277 80.675 102.667 81.365C103.067 82.045 103.677 82.385 104.497 82.385ZM109.398 82.37L110.598 82.28V75.665L109.443 75.41V74.735L111.348 74.495H111.378L111.663 74.735V74.975L111.633 76.115H111.663C111.683 76.095 111.813 75.945 112.053 75.665C112.303 75.375 112.668 75.1 113.148 74.84C113.638 74.58 114.128 74.45 114.618 74.45C114.778 74.45 114.928 74.47 115.068 74.51V75.83C115.028 75.8 114.938 75.77 114.798 75.74C114.668 75.71 114.528 75.695 114.378 75.695C113.808 75.695 113.323 75.78 112.923 75.95C112.523 76.12 112.153 76.33 111.813 76.58V82.265L113.808 82.385V83H109.398V82.37ZM119.141 80.81C119.141 79.84 119.621 79.14 120.581 78.71C121.541 78.27 122.736 78.035 124.166 78.005V77.54C124.166 77.03 124.111 76.63 124.001 76.34C123.901 76.04 123.721 75.825 123.461 75.695C123.201 75.555 122.836 75.485 122.366 75.485C121.856 75.485 121.391 75.565 120.971 75.725C120.561 75.875 120.161 76.06 119.771 76.28L119.441 75.62C119.551 75.52 119.781 75.38 120.131 75.2C120.481 75.02 120.881 74.86 121.331 74.72C121.781 74.58 122.216 74.51 122.636 74.51C123.316 74.51 123.851 74.605 124.241 74.795C124.641 74.985 124.926 75.29 125.096 75.71C125.276 76.13 125.366 76.695 125.366 77.405V82.355H126.296V82.91C125.746 83.06 125.281 83.135 124.901 83.135C124.661 83.135 124.496 83.095 124.406 83.015C124.316 82.945 124.271 82.775 124.271 82.505V81.95C123.911 82.27 123.516 82.555 123.086 82.805C122.666 83.045 122.186 83.165 121.646 83.165C120.926 83.165 120.326 82.965 119.846 82.565C119.376 82.165 119.141 81.58 119.141 80.81ZM122.096 82.28C122.376 82.28 122.711 82.19 123.101 82.01C123.491 81.83 123.846 81.615 124.166 81.365V78.71C122.956 78.72 122.036 78.9 121.406 79.25C120.786 79.6 120.476 80.07 120.476 80.66C120.476 81.23 120.621 81.645 120.911 81.905C121.201 82.155 121.596 82.28 122.096 82.28ZM0.955 95.675H4.21V96.29L3.01 96.47L4.345 101.135L4.84 103.22L5.335 101.12L6.835 95.675H8.08L9.58 101.12L10.06 103.235L10.6 101.135L11.92 96.485L10.765 96.29V95.675H13.705V96.29L12.88 96.485L10.54 104.12H9.325L7.69 98.54L7.27 96.65L6.91 98.54L5.335 104.12H4.15L1.75 96.47L0.955 96.29V95.675ZM17.5884 104.165C16.4284 104.165 15.5334 103.77 14.9034 102.98C14.2834 102.18 13.9734 101.12 13.9734 99.8C13.9734 98.95 14.1384 98.195 14.4684 97.535C14.7984 96.875 15.2534 96.365 15.8334 96.005C16.4234 95.635 17.0834 95.45 17.8134 95.45C18.7034 95.45 19.3934 95.705 19.8834 96.215C20.3834 96.725 20.6534 97.46 20.6934 98.42C20.6934 99.04 20.6634 99.48 20.6034 99.74H15.2634C15.2634 100.79 15.4984 101.65 15.9684 102.32C16.4484 102.98 17.1184 103.31 17.9784 103.31C18.3984 103.31 18.8284 103.235 19.2684 103.085C19.7084 102.935 20.0484 102.755 20.2884 102.545L20.5284 103.1C20.2384 103.4 19.8134 103.655 19.2534 103.865C18.7034 104.065 18.1484 104.165 17.5884 104.165ZM19.3434 99.035C19.3734 98.825 19.3884 98.605 19.3884 98.375C19.3784 97.715 19.2184 97.19 18.9084 96.8C18.6084 96.41 18.1434 96.215 17.5134 96.215C16.1434 96.215 15.3984 97.155 15.2784 99.035H19.3434ZM25.0439 104.165C24.4539 104.165 23.9089 104.015 23.4089 103.715C22.9089 103.405 22.5089 102.94 22.2089 102.32C21.9089 101.7 21.7589 100.94 21.7589 100.04C21.7589 99.18 21.9339 98.405 22.2839 97.715C22.6339 97.015 23.1289 96.465 23.7689 96.065C24.4189 95.655 25.1739 95.45 26.0339 95.45C26.5839 95.45 27.1139 95.51 27.6239 95.63V92.66L26.0639 92.51V91.97L28.5239 91.715H28.5539L28.8389 91.925V103.325H29.7539V103.91C29.7039 103.92 29.5339 103.96 29.2439 104.03C28.9539 104.1 28.6439 104.135 28.3139 104.135C28.0839 104.135 27.9189 104.095 27.8189 104.015C27.7289 103.935 27.6839 103.76 27.6839 103.49V102.965C27.3739 103.305 26.9939 103.59 26.5439 103.82C26.1039 104.05 25.6039 104.165 25.0439 104.165ZM25.5389 103.22C25.9689 103.22 26.3739 103.12 26.7539 102.92C27.1439 102.71 27.4339 102.48 27.6239 102.23V96.71C27.5439 96.57 27.3339 96.45 26.9939 96.35C26.6639 96.25 26.3089 96.2 25.9289 96.2C25.0689 96.2 24.3789 96.51 23.8589 97.13C23.3389 97.74 23.0789 98.67 23.0789 99.92C23.0789 101.04 23.3089 101.87 23.7689 102.41C24.2289 102.95 24.8189 103.22 25.5389 103.22ZM34.0164 104.165C33.4264 104.165 32.8814 104.015 32.3814 103.715C31.8814 103.405 31.4814 102.94 31.1814 102.32C30.8814 101.7 30.7314 100.94 30.7314 100.04C30.7314 99.18 30.9064 98.405 31.2564 97.715C31.6064 97.015 32.1014 96.465 32.7414 96.065C33.3914 95.655 34.1464 95.45 35.0064 95.45C35.5564 95.45 36.0864 95.51 36.5964 95.63V92.66L35.0364 92.51V91.97L37.4964 91.715H37.5264L37.8114 91.925V103.325H38.7264V103.91C38.6764 103.92 38.5064 103.96 38.2164 104.03C37.9264 104.1 37.6164 104.135 37.2864 104.135C37.0564 104.135 36.8914 104.095 36.7914 104.015C36.7014 103.935 36.6564 103.76 36.6564 103.49V102.965C36.3464 103.305 35.9664 103.59 35.5164 103.82C35.0764 104.05 34.5764 104.165 34.0164 104.165ZM34.5114 103.22C34.9414 103.22 35.3464 103.12 35.7264 102.92C36.1164 102.71 36.4064 102.48 36.5964 102.23V96.71C36.5164 96.57 36.3064 96.45 35.9664 96.35C35.6364 96.25 35.2814 96.2 34.9014 96.2C34.0414 96.2 33.3514 96.51 32.8314 97.13C32.3114 97.74 32.0514 98.67 32.0514 99.92C32.0514 101.04 32.2814 101.87 32.7414 102.41C33.2014 102.95 33.7914 103.22 34.5114 103.22ZM41.4439 94.1C40.9039 94.1 40.6339 93.815 40.6339 93.245C40.6339 92.955 40.7189 92.72 40.8889 92.54C41.0589 92.35 41.2889 92.255 41.5789 92.255C41.8789 92.255 42.0939 92.34 42.2239 92.51C42.3539 92.67 42.4189 92.87 42.4189 93.11C42.4189 93.42 42.3339 93.665 42.1639 93.845C42.0039 94.015 41.7689 94.1 41.4589 94.1H41.4439ZM40.9639 96.665L39.7939 96.41V95.735L41.8489 95.495H41.8789L42.1789 95.735V103.25L43.4839 103.355V104H39.6439V103.355L40.9639 103.235V96.665ZM45.1971 96.665L44.0421 96.41V95.735L45.9471 95.495H45.9921L46.2771 95.735V96.395L46.2621 96.77C46.6321 96.45 47.1221 96.155 47.7321 95.885C48.3421 95.615 48.9071 95.48 49.4271 95.48C50.0671 95.48 50.5571 95.605 50.8971 95.855C51.2471 96.095 51.4871 96.47 51.6171 96.98C51.7571 97.48 51.8271 98.155 51.8271 99.005V103.25L52.9521 103.355V104H49.6071V103.355L50.6121 103.25V98.99C50.6121 98.36 50.5671 97.865 50.4771 97.505C50.3971 97.145 50.2321 96.875 49.9821 96.695C49.7421 96.505 49.3871 96.41 48.9171 96.41C48.5171 96.41 48.0821 96.51 47.6121 96.71C47.1521 96.91 46.7521 97.145 46.4121 97.415V103.235L47.5071 103.355V104H44.1921V103.355L45.1971 103.235V96.665ZM57.307 108.05C54.947 108.05 53.767 107.3 53.767 105.8C53.767 105.35 53.902 104.94 54.172 104.57C54.452 104.2 54.782 103.91 55.162 103.7C54.692 103.45 54.457 103.035 54.457 102.455C54.457 102.085 54.562 101.74 54.772 101.42C54.982 101.09 55.252 100.84 55.582 100.67C55.112 100.45 54.742 100.14 54.472 99.74C54.212 99.33 54.082 98.855 54.082 98.315C54.082 97.735 54.242 97.23 54.562 96.8C54.882 96.36 55.297 96.025 55.807 95.795C56.327 95.565 56.867 95.45 57.427 95.45C58.357 95.45 59.102 95.655 59.662 96.065C59.812 95.925 60.042 95.79 60.352 95.66C60.672 95.52 61.012 95.45 61.372 95.45H61.867V96.56H60.157C60.447 96.96 60.592 97.445 60.592 98.015C60.592 98.605 60.442 99.13 60.142 99.59C59.842 100.04 59.437 100.39 58.927 100.64C58.427 100.89 57.872 101.015 57.262 101.015C56.852 101.015 56.477 100.97 56.137 100.88C55.957 101.02 55.812 101.185 55.702 101.375C55.602 101.555 55.552 101.74 55.552 101.93C55.552 102.31 55.672 102.575 55.912 102.725C56.162 102.875 56.592 102.95 57.202 102.95H58.972C59.902 102.95 60.587 103.13 61.027 103.49C61.477 103.85 61.702 104.355 61.702 105.005C61.702 105.545 61.507 106.045 61.117 106.505C60.727 106.975 60.192 107.35 59.512 107.63C58.842 107.91 58.107 108.05 57.307 108.05ZM57.412 100.28C58.682 100.28 59.317 99.58 59.317 98.18C59.317 96.85 58.657 96.185 57.337 96.185C56.017 96.185 55.357 96.84 55.357 98.15C55.357 98.78 55.527 99.295 55.867 99.695C56.207 100.085 56.722 100.28 57.412 100.28ZM57.382 107.285C57.922 107.285 58.437 107.205 58.927 107.045C59.417 106.895 59.812 106.67 60.112 106.37C60.412 106.08 60.562 105.74 60.562 105.35C60.562 105.04 60.512 104.79 60.412 104.6C60.322 104.41 60.137 104.26 59.857 104.15C59.587 104.05 59.192 104 58.672 104H56.812C56.332 104 55.967 103.97 55.717 103.91C55.227 104.38 54.982 104.93 54.982 105.56C54.982 106.13 55.162 106.56 55.522 106.85C55.882 107.14 56.502 107.285 57.382 107.285ZM64.3072 101.915C64.6272 101.915 64.8822 102.065 65.0722 102.365C65.2622 102.665 65.3572 103.09 65.3572 103.64C65.3572 104.19 65.2772 104.71 65.1172 105.2C64.9572 105.69 64.7522 106.11 64.5021 106.46C64.2522 106.81 64.0022 107.06 63.7522 107.21H63.7372L63.3022 106.91V106.775C63.4222 106.685 63.5522 106.5 63.6922 106.22C63.8422 105.95 63.9672 105.635 64.0672 105.275C64.1772 104.915 64.2322 104.565 64.2322 104.225C64.2322 104.075 64.2022 103.955 64.1422 103.865C64.0922 103.775 64.0122 103.67 63.9022 103.55C63.7722 103.42 63.6721 103.295 63.6021 103.175C63.5421 103.055 63.5122 102.89 63.5122 102.68C63.5122 102.45 63.5821 102.265 63.7221 102.125C63.8721 101.985 64.0472 101.915 64.2472 101.915H64.3072ZM74.2261 92.75H75.4561L79.2211 103.22L80.1961 103.355V104H76.5361V103.355L77.8561 103.22L77.0611 100.835H72.3811L71.5861 103.205L72.9211 103.355V104H69.5461V103.355L70.5061 103.22L74.2261 92.75ZM75.0961 95.06L74.6761 93.635L74.2711 95.105L72.6361 100.055H76.7911L75.0961 95.06ZM81.3143 96.665L80.1593 96.41V95.735L82.0643 95.495H82.1093L82.3943 95.735V96.395L82.3793 96.77C82.7493 96.45 83.2393 96.155 83.8493 95.885C84.4593 95.615 85.0243 95.48 85.5443 95.48C86.1843 95.48 86.6743 95.605 87.0143 95.855C87.3643 96.095 87.6043 96.47 87.7343 96.98C87.8743 97.48 87.9443 98.155 87.9443 99.005V103.25L89.0693 103.355V104H85.7243V103.355L86.7293 103.25V98.99C86.7293 98.36 86.6843 97.865 86.5943 97.505C86.5143 97.145 86.3493 96.875 86.0993 96.695C85.8593 96.505 85.5043 96.41 85.0343 96.41C84.6343 96.41 84.1993 96.51 83.7293 96.71C83.2693 96.91 82.8693 97.145 82.5293 97.415V103.235L83.6243 103.355V104H80.3093V103.355L81.3143 103.235V96.665ZM93.1691 104.165C92.5791 104.165 92.0341 104.015 91.5341 103.715C91.0341 103.405 90.6341 102.94 90.3341 102.32C90.0341 101.7 89.8841 100.94 89.8841 100.04C89.8841 99.18 90.0591 98.405 90.4091 97.715C90.7591 97.015 91.2541 96.465 91.8941 96.065C92.5441 95.655 93.2991 95.45 94.1591 95.45C94.7091 95.45 95.2391 95.51 95.7491 95.63V92.66L94.1891 92.51V91.97L96.6491 91.715H96.6791L96.9641 91.925V103.325H97.8791V103.91C97.8291 103.92 97.6591 103.96 97.3691 104.03C97.0791 104.1 96.7691 104.135 96.4391 104.135C96.2091 104.135 96.0441 104.095 95.9441 104.015C95.8541 103.935 95.8091 103.76 95.8091 103.49V102.965C95.4991 103.305 95.1191 103.59 94.6691 103.82C94.2291 104.05 93.7291 104.165 93.1691 104.165ZM93.6641 103.22C94.0941 103.22 94.4991 103.12 94.8791 102.92C95.2691 102.71 95.5591 102.48 95.7491 102.23V96.71C95.6691 96.57 95.4591 96.45 95.1191 96.35C94.7891 96.25 94.4341 96.2 94.0541 96.2C93.1941 96.2 92.5041 96.51 91.9841 97.13C91.4641 97.74 91.2041 98.67 91.2041 99.92C91.2041 101.04 91.4341 101.87 91.8941 102.41C92.3541 102.95 92.9441 103.22 93.6641 103.22ZM103.406 96.575H101.891V95.975L103.406 95.69V94.955C103.406 94.355 103.561 93.805 103.871 93.305C104.181 92.795 104.581 92.39 105.071 92.09C105.571 91.79 106.091 91.64 106.631 91.64C106.951 91.64 107.231 91.68 107.471 91.76V92.99C107.391 92.93 107.226 92.87 106.976 92.81C106.736 92.75 106.456 92.72 106.136 92.72C105.606 92.72 105.221 92.86 104.981 93.14C104.741 93.42 104.621 93.895 104.621 94.565V95.69H106.796V96.575H104.621V103.25L106.331 103.355V104H102.086V103.355L103.406 103.235V96.575ZM107.719 99.785C107.719 98.915 107.899 98.15 108.259 97.49C108.629 96.83 109.109 96.325 109.699 95.975C110.299 95.625 110.924 95.45 111.574 95.45C112.834 95.45 113.764 95.86 114.364 96.68C114.974 97.5 115.279 98.55 115.279 99.83C115.279 100.7 115.094 101.465 114.724 102.125C114.364 102.785 113.884 103.29 113.284 103.64C112.694 103.99 112.074 104.165 111.424 104.165C110.164 104.165 109.229 103.755 108.619 102.935C108.019 102.115 107.719 101.065 107.719 99.785ZM111.499 103.385C112.269 103.385 112.864 103.09 113.284 102.5C113.704 101.91 113.914 101.05 113.914 99.92C113.914 98.84 113.719 97.955 113.329 97.265C112.939 96.575 112.334 96.23 111.514 96.23C110.744 96.23 110.144 96.525 109.714 97.115C109.294 97.705 109.084 98.565 109.084 99.695C109.084 100.785 109.279 101.675 109.669 102.365C110.069 103.045 110.679 103.385 111.499 103.385ZM123.21 104.135C122.95 104.135 122.76 104.09 122.64 104C122.52 103.91 122.46 103.745 122.46 103.505V102.92C122.09 103.25 121.655 103.54 121.155 103.79C120.655 104.04 120.155 104.165 119.655 104.165C118.745 104.165 118.095 103.91 117.705 103.4C117.325 102.89 117.135 102.06 117.135 100.91V96.5L116.25 96.245V95.69L118.065 95.495H118.08L118.35 95.675V100.73C118.35 101.36 118.395 101.855 118.485 102.215C118.575 102.565 118.74 102.825 118.98 102.995C119.22 103.165 119.57 103.25 120.03 103.25C120.47 103.25 120.89 103.155 121.29 102.965C121.69 102.775 122.035 102.55 122.325 102.29V96.5L121.185 96.245V95.69L123.18 95.495H123.195L123.54 95.675V103.34H124.47L124.455 103.91C124.405 103.92 124.26 103.96 124.02 104.03C123.78 104.1 123.51 104.135 123.21 104.135ZM125.519 103.37L126.719 103.28V96.665L125.564 96.41V95.735L127.469 95.495H127.499L127.784 95.735V95.975L127.754 97.115H127.784C127.804 97.095 127.934 96.945 128.174 96.665C128.424 96.375 128.789 96.1 129.269 95.84C129.759 95.58 130.249 95.45 130.739 95.45C130.899 95.45 131.049 95.47 131.189 95.51V96.83C131.149 96.8 131.059 96.77 130.919 96.74C130.789 96.71 130.649 96.695 130.499 96.695C129.929 96.695 129.444 96.78 129.044 96.95C128.644 97.12 128.274 97.33 127.934 97.58V103.265L129.929 103.385V104H125.519V103.37ZM136.476 96.575H134.961V95.975L136.476 95.69V94.955C136.476 94.355 136.631 93.805 136.941 93.305C137.251 92.795 137.651 92.39 138.141 92.09C138.641 91.79 139.161 91.64 139.701 91.64C140.021 91.64 140.301 91.68 140.541 91.76V92.99C140.461 92.93 140.296 92.87 140.046 92.81C139.806 92.75 139.526 92.72 139.206 92.72C138.676 92.72 138.291 92.86 138.051 93.14C137.811 93.42 137.691 93.895 137.691 94.565V95.69H139.866V96.575H137.691V103.25L139.401 103.355V104H135.156V103.355L136.476 103.235V96.575ZM140.789 99.785C140.789 98.915 140.969 98.15 141.329 97.49C141.699 96.83 142.179 96.325 142.769 95.975C143.369 95.625 143.994 95.45 144.644 95.45C145.904 95.45 146.834 95.86 147.434 96.68C148.044 97.5 148.349 98.55 148.349 99.83C148.349 100.7 148.164 101.465 147.794 102.125C147.434 102.785 146.954 103.29 146.354 103.64C145.764 103.99 145.144 104.165 144.494 104.165C143.234 104.165 142.299 103.755 141.689 102.935C141.089 102.115 140.789 101.065 140.789 99.785ZM144.569 103.385C145.339 103.385 145.934 103.09 146.354 102.5C146.774 101.91 146.984 101.05 146.984 99.92C146.984 98.84 146.789 97.955 146.399 97.265C146.009 96.575 145.404 96.23 144.584 96.23C143.814 96.23 143.214 96.525 142.784 97.115C142.364 97.705 142.154 98.565 142.154 99.695C142.154 100.785 142.349 101.675 142.739 102.365C143.139 103.045 143.749 103.385 144.569 103.385ZM149.47 103.37L150.67 103.28V96.665L149.515 96.41V95.735L151.42 95.495H151.45L151.735 95.735V95.975L151.705 97.115H151.735C151.755 97.095 151.885 96.945 152.125 96.665C152.375 96.375 152.74 96.1 153.22 95.84C153.71 95.58 154.2 95.45 154.69 95.45C154.85 95.45 155 95.47 155.14 95.51V96.83C155.1 96.8 155.01 96.77 154.87 96.74C154.74 96.71 154.6 96.695 154.45 96.695C153.88 96.695 153.395 96.78 152.995 96.95C152.595 97.12 152.225 97.33 151.885 97.58V103.265L153.88 103.385V104H149.47V103.37ZM4.975 125.165C4.385 125.165 3.84 125.015 3.34 124.715C2.84 124.405 2.44 123.94 2.14 123.32C1.84 122.7 1.69 121.94 1.69 121.04C1.69 120.18 1.865 119.405 2.215 118.715C2.565 118.015 3.06 117.465 3.7 117.065C4.35 116.655 5.105 116.45 5.965 116.45C6.515 116.45 7.045 116.51 7.555 116.63V113.66L5.995 113.51V112.97L8.455 112.715H8.485L8.77 112.925V124.325H9.685V124.91C9.635 124.92 9.465 124.96 9.175 125.03C8.885 125.1 8.575 125.135 8.245 125.135C8.015 125.135 7.85 125.095 7.75 125.015C7.66 124.935 7.615 124.76 7.615 124.49V123.965C7.305 124.305 6.925 124.59 6.475 124.82C6.035 125.05 5.535 125.165 4.975 125.165ZM5.47 124.22C5.9 124.22 6.305 124.12 6.685 123.92C7.075 123.71 7.365 123.48 7.555 123.23V117.71C7.475 117.57 7.265 117.45 6.925 117.35C6.595 117.25 6.24 117.2 5.86 117.2C5 117.2 4.31 117.51 3.79 118.13C3.27 118.74 3.01 119.67 3.01 120.92C3.01 122.04 3.24 122.87 3.7 123.41C4.16 123.95 4.75 124.22 5.47 124.22ZM14.2925 125.165C13.1325 125.165 12.2375 124.77 11.6075 123.98C10.9875 123.18 10.6775 122.12 10.6775 120.8C10.6775 119.95 10.8425 119.195 11.1725 118.535C11.5025 117.875 11.9575 117.365 12.5375 117.005C13.1275 116.635 13.7875 116.45 14.5175 116.45C15.4075 116.45 16.0975 116.705 16.5875 117.215C17.0875 117.725 17.3575 118.46 17.3975 119.42C17.3975 120.04 17.3675 120.48 17.3075 120.74H11.9675C11.9675 121.79 12.2025 122.65 12.6725 123.32C13.1525 123.98 13.8225 124.31 14.6825 124.31C15.1025 124.31 15.5325 124.235 15.9725 124.085C16.4125 123.935 16.7525 123.755 16.9925 123.545L17.2325 124.1C16.9425 124.4 16.5175 124.655 15.9575 124.865C15.4075 125.065 14.8525 125.165 14.2925 125.165ZM16.0475 120.035C16.0775 119.825 16.0925 119.605 16.0925 119.375C16.0825 118.715 15.9225 118.19 15.6125 117.8C15.3125 117.41 14.8475 117.215 14.2175 117.215C12.8475 117.215 12.1025 118.155 11.9825 120.035H16.0475ZM18.538 122.81C18.538 121.84 19.018 121.14 19.978 120.71C20.938 120.27 22.133 120.035 23.563 120.005V119.54C23.563 119.03 23.508 118.63 23.398 118.34C23.298 118.04 23.118 117.825 22.858 117.695C22.598 117.555 22.233 117.485 21.763 117.485C21.253 117.485 20.788 117.565 20.368 117.725C19.958 117.875 19.558 118.06 19.168 118.28L18.838 117.62C18.948 117.52 19.178 117.38 19.528 117.2C19.878 117.02 20.278 116.86 20.728 116.72C21.178 116.58 21.613 116.51 22.033 116.51C22.713 116.51 23.248 116.605 23.638 116.795C24.038 116.985 24.323 117.29 24.493 117.71C24.673 118.13 24.763 118.695 24.763 119.405V124.355H25.693V124.91C25.143 125.06 24.678 125.135 24.298 125.135C24.058 125.135 23.893 125.095 23.803 125.015C23.713 124.945 23.668 124.775 23.668 124.505V123.95C23.308 124.27 22.913 124.555 22.483 124.805C22.063 125.045 21.583 125.165 21.043 125.165C20.323 125.165 19.723 124.965 19.243 124.565C18.773 124.165 18.538 123.58 18.538 122.81ZM21.493 124.28C21.773 124.28 22.108 124.19 22.498 124.01C22.888 123.83 23.243 123.615 23.563 123.365V120.71C22.353 120.72 21.433 120.9 20.803 121.25C20.183 121.6 19.873 122.07 19.873 122.66C19.873 123.23 20.018 123.645 20.308 123.905C20.598 124.155 20.993 124.28 21.493 124.28ZM29.0927 125.165C28.5627 125.165 28.1627 125.045 27.8927 124.805C27.6227 124.555 27.4877 124.115 27.4877 123.485V117.56H26.3477V116.975C26.8477 116.865 27.1377 116.785 27.2177 116.735C27.3677 116.655 27.4777 116.5 27.5477 116.27C27.6077 116.12 27.6877 115.85 27.7877 115.46C27.8877 115.07 27.9627 114.765 28.0127 114.545H28.7027V116.675H31.3577V117.56H28.7027V122.42C28.7027 123 28.7227 123.41 28.7627 123.65C28.8027 123.88 28.8827 124.03 29.0027 124.1C29.1227 124.17 29.3327 124.205 29.6327 124.205C29.9227 124.205 30.2477 124.165 30.6077 124.085C30.9677 124.005 31.2377 123.92 31.4177 123.83L31.6127 124.4C31.3827 124.58 31.0027 124.755 30.4727 124.925C29.9427 125.085 29.4827 125.165 29.0927 125.165ZM33.1614 113.66L31.8264 113.525V112.97L34.0464 112.715H34.0764L34.3614 112.91V116.48L34.3314 117.725C34.6514 117.435 35.1014 117.155 35.6814 116.885C36.2614 116.615 36.8314 116.48 37.3914 116.48C38.0214 116.48 38.5114 116.6 38.8614 116.84C39.2114 117.08 39.4564 117.455 39.5964 117.965C39.7364 118.465 39.8064 119.145 39.8064 120.005V124.235L40.9014 124.355V125H37.5414V124.355L38.5914 124.235V119.99C38.5914 119.35 38.5464 118.85 38.4564 118.49C38.3764 118.13 38.2114 117.86 37.9614 117.68C37.7114 117.5 37.3464 117.41 36.8664 117.41C36.4664 117.41 36.0364 117.51 35.5764 117.71C35.1164 117.9 34.7114 118.13 34.3614 118.4V124.235L35.4714 124.355V125H32.2164V124.355L33.1614 124.25V113.66Z" fill="#2A2921"/>
</svg>
