<svg width="169" height="140" viewBox="0 0 169 140" fill="none" xmlns="http://www.w3.org/2000/svg">
<path d="M12.04 38.32L4.06 27.6C3.94 27.44 3.82 27.2867 3.7 27.14C3.59333 26.98 3.48 26.82 3.36 26.66H3.34L3.4 35.22C3.4 35.5533 3.4 35.8867 3.4 36.22C3.4 36.5533 3.38667 36.88 3.36 37.2C3.6 37.1867 3.84 37.1733 4.08 37.16C4.32 37.1467 4.56 37.1333 4.8 37.12V38H1.14V37.34C1.55333 37.34 1.84667 37.2533 2.02 37.08C2.20667 36.8933 2.32667 36.68 2.38 36.44C2.43333 36.1867 2.46 35.96 2.46 35.76L2.48 26.14V24.8C2.26667 24.8133 2.04667 24.8267 1.82 24.84C1.59333 24.8533 1.36667 24.8667 1.14 24.88V24H3.52L11.02 34.04C11.1933 34.2667 11.36 34.4933 11.52 34.72C11.6933 34.9467 11.8667 35.1733 12.04 35.4H12.06L12.08 26.24C12.08 25.68 12.1 25.2 12.14 24.8C11.9 24.8133 11.66 24.8267 11.42 24.84C11.18 24.8533 10.94 24.8667 10.7 24.88V24H14.38V24.66C13.8867 24.6733 13.5467 24.7867 13.36 25C13.1733 25.2133 13.0733 25.5 13.06 25.86C13.0467 26.22 13.04 26.64 13.04 27.12L13 38.32H12.04ZM19.9344 38.32C19.2144 38.32 18.6077 38.1867 18.1144 37.92C17.6344 37.6533 17.2677 37.2 17.0144 36.56C16.7744 35.92 16.6544 35.0533 16.6544 33.96V30.4C16.6544 30.1867 16.6544 29.9733 16.6544 29.76C16.6677 29.5467 16.6944 29.3267 16.7344 29.1C16.5077 29.1133 16.2744 29.1267 16.0344 29.14C15.8077 29.14 15.581 29.1467 15.3544 29.16V28.34H15.9744C16.5477 28.34 16.961 28.2867 17.2144 28.18C17.481 28.06 17.6877 27.9333 17.8344 27.8H18.4144V33.9C18.4144 35.0467 18.5744 35.9067 18.8944 36.48C19.2277 37.04 19.7877 37.3133 20.5744 37.3C21.081 37.2867 21.561 37.1333 22.0144 36.84C22.481 36.5333 22.8544 36.1733 23.1344 35.76V30.62C23.1344 30.3 23.141 30.0267 23.1544 29.8C23.1677 29.56 23.1944 29.3267 23.2344 29.1C22.9944 29.1133 22.7544 29.1267 22.5144 29.14C22.2744 29.14 22.0344 29.1467 21.7944 29.16V28.34H22.4144C22.9877 28.34 23.401 28.2867 23.6544 28.18C23.921 28.06 24.1277 27.9333 24.2744 27.8H24.8544L24.8344 35.36C24.8344 35.5733 24.8277 35.8733 24.8144 36.26C24.801 36.6467 24.781 36.9733 24.7544 37.24C24.9944 37.2267 25.2344 37.2133 25.4744 37.2C25.7144 37.1867 25.9544 37.1733 26.1944 37.16V38H23.3344C23.2944 37.7733 23.261 37.56 23.2344 37.36C23.221 37.16 23.2077 36.9733 23.1944 36.8C22.781 37.2133 22.281 37.5733 21.6944 37.88C21.1077 38.1733 20.521 38.32 19.9344 38.32ZM27.248 37.4C27.6613 37.4 27.948 37.3 28.108 37.1C28.268 36.8867 28.3613 36.6 28.388 36.24C28.4146 35.8667 28.428 35.44 28.428 34.96V30.4C28.428 30.1867 28.428 29.9733 28.428 29.76C28.4413 29.5467 28.468 29.3267 28.508 29.1C28.268 29.1133 28.028 29.1267 27.788 29.14C27.5613 29.14 27.328 29.1467 27.088 29.16V28.34H27.708C28.2813 28.34 28.6746 28.2867 28.888 28.18C29.1146 28.06 29.3013 27.9333 29.448 27.8H30.028C30.0546 28.0133 30.0746 28.28 30.088 28.6C30.1013 28.9067 30.1146 29.3 30.128 29.78C30.328 29.4467 30.6013 29.12 30.948 28.8C31.2946 28.48 31.6813 28.2133 32.108 28C32.548 27.7867 33.008 27.68 33.488 27.68C33.8613 27.68 34.188 27.78 34.468 27.98C34.748 28.18 34.888 28.5 34.888 28.94C34.888 29.1133 34.808 29.32 34.648 29.56C34.5013 29.8 34.248 29.9133 33.888 29.9C33.5946 29.8867 33.3613 29.7733 33.188 29.56C33.0146 29.3333 32.948 29.0733 32.988 28.78C32.4813 28.7533 31.968 28.9467 31.448 29.36C30.928 29.7733 30.4946 30.3067 30.148 30.96L30.168 35.88C30.168 36.1467 30.1613 36.3867 30.148 36.6C30.148 36.8 30.128 37.0133 30.088 37.24C30.3013 37.2267 30.508 37.22 30.708 37.22C30.9213 37.2067 31.1346 37.1933 31.348 37.18V38H27.248V37.4ZM39.6003 38.32C38.9336 38.32 38.3403 38.2267 37.8203 38.04C37.3003 37.8667 36.8736 37.6667 36.5403 37.44L36.6203 38.14H35.7803L35.6603 34.7H36.2803C36.307 35.2467 36.4603 35.74 36.7403 36.18C37.0203 36.6067 37.3803 36.94 37.8203 37.18C38.2603 37.42 38.7336 37.54 39.2403 37.54C39.587 37.54 39.927 37.4867 40.2603 37.38C40.5936 37.26 40.8736 37.0867 41.1003 36.86C41.327 36.62 41.4403 36.32 41.4403 35.96C41.4403 35.5867 41.327 35.28 41.1003 35.04C40.887 34.7867 40.6003 34.5667 40.2403 34.38C39.8803 34.1933 39.4936 34.02 39.0803 33.86C38.547 33.6467 38.0136 33.42 37.4803 33.18C36.9603 32.9267 36.527 32.6 36.1803 32.2C35.8336 31.7867 35.6603 31.2467 35.6603 30.58C35.6603 30.3 35.7136 29.9933 35.8203 29.66C35.927 29.3267 36.107 29.0133 36.3603 28.72C36.6136 28.4133 36.9603 28.1667 37.4003 27.98C37.8403 27.78 38.4003 27.68 39.0803 27.68C39.4403 27.68 39.8403 27.74 40.2803 27.86C40.7203 27.98 41.147 28.2067 41.5603 28.54L41.5203 27.78H42.3603V31.28H41.7203C41.6936 30.8133 41.587 30.3667 41.4003 29.94C41.2136 29.5 40.9403 29.14 40.5803 28.86C40.2203 28.5667 39.7536 28.42 39.1803 28.42C38.567 28.42 38.087 28.5733 37.7403 28.88C37.3936 29.1867 37.2203 29.54 37.2203 29.94C37.2203 30.3533 37.347 30.7 37.6003 30.98C37.867 31.2467 38.207 31.48 38.6203 31.68C39.0336 31.88 39.4736 32.0733 39.9403 32.26C40.447 32.4733 40.9403 32.7067 41.4203 32.96C41.9003 33.2133 42.2936 33.5333 42.6003 33.92C42.907 34.2933 43.0603 34.78 43.0603 35.38C43.0603 36.0467 42.887 36.6 42.5403 37.04C42.207 37.48 41.7736 37.8 41.2403 38C40.7203 38.2133 40.1736 38.32 39.6003 38.32ZM49.1981 38.32C48.2781 38.32 47.4448 38.1067 46.6981 37.68C45.9648 37.24 45.3848 36.6267 44.9581 35.84C44.5315 35.04 44.3181 34.1 44.3181 33.02C44.3181 32.0867 44.5248 31.2133 44.9381 30.4C45.3648 29.5867 45.9581 28.9333 46.7181 28.44C47.4781 27.9333 48.3581 27.68 49.3581 27.68C50.1048 27.68 50.7848 27.84 51.3981 28.16C52.0115 28.48 52.4981 28.9667 52.8581 29.62C53.2315 30.2733 53.4181 31.1 53.4181 32.1L46.3781 32.22C46.3648 33.7533 46.6181 34.9867 47.1381 35.92C47.6581 36.84 48.5048 37.3 49.6781 37.3C50.0915 37.3 50.5115 37.2267 50.9381 37.08C51.3781 36.9333 51.7848 36.7333 52.1581 36.48C52.5315 36.2267 52.8315 35.9467 53.0581 35.64L53.5381 36.04C53.1781 36.6 52.7448 37.0467 52.2381 37.38C51.7315 37.7133 51.2115 37.9533 50.6781 38.1C50.1448 38.2467 49.6515 38.32 49.1981 38.32ZM46.4381 31.38H51.5381C51.5381 30.9 51.4648 30.44 51.3181 30C51.1848 29.5467 50.9581 29.18 50.6381 28.9C50.3181 28.6067 49.8981 28.46 49.3781 28.46C48.6048 28.46 47.9581 28.6933 47.4381 29.16C46.9315 29.6133 46.5981 30.3533 46.4381 31.38ZM54.798 37.4C55.2113 37.4 55.498 37.3 55.658 37.1C55.818 36.8867 55.9113 36.6 55.938 36.24C55.9646 35.8667 55.978 35.44 55.978 34.96V30.4C55.978 30.1867 55.978 29.9733 55.978 29.76C55.9913 29.5467 56.018 29.3267 56.058 29.1C55.818 29.1133 55.578 29.1267 55.338 29.14C55.1113 29.14 54.878 29.1467 54.638 29.16V28.34H55.258C55.8313 28.34 56.2246 28.2867 56.438 28.18C56.6646 28.06 56.8513 27.9333 56.998 27.8H57.578C57.6046 28.0133 57.6246 28.28 57.638 28.6C57.6513 28.9067 57.6646 29.3 57.678 29.78C57.878 29.4467 58.1513 29.12 58.498 28.8C58.8446 28.48 59.2313 28.2133 59.658 28C60.098 27.7867 60.558 27.68 61.038 27.68C61.4113 27.68 61.738 27.78 62.018 27.98C62.298 28.18 62.438 28.5 62.438 28.94C62.438 29.1133 62.358 29.32 62.198 29.56C62.0513 29.8 61.798 29.9133 61.438 29.9C61.1446 29.8867 60.9113 29.7733 60.738 29.56C60.5646 29.3333 60.498 29.0733 60.538 28.78C60.0313 28.7533 59.518 28.9467 58.998 29.36C58.478 29.7733 58.0446 30.3067 57.698 30.96L57.718 35.88C57.718 36.1467 57.7113 36.3867 57.698 36.6C57.698 36.8 57.678 37.0133 57.638 37.24C57.8513 37.2267 58.058 37.22 58.258 37.22C58.4713 37.2067 58.6846 37.1933 58.898 37.18V38H54.798V37.4ZM64.9223 43.42C64.509 43.42 64.1557 43.32 63.8623 43.12C63.569 42.92 63.4223 42.6133 63.4223 42.2C63.4223 41.96 63.5023 41.74 63.6623 41.54C63.8223 41.34 64.029 41.24 64.2823 41.24C64.6023 41.2267 64.8157 41.3267 64.9223 41.54C65.0423 41.7533 65.1023 41.94 65.1023 42.1C65.1023 42.14 65.1023 42.18 65.1023 42.22C65.1023 42.2733 65.0957 42.3267 65.0823 42.38C65.1223 42.4067 65.1957 42.42 65.3023 42.42C65.4623 42.42 65.6357 42.3533 65.8223 42.22C66.009 42.0867 66.1757 41.8933 66.3223 41.64C66.4957 41.3467 66.6957 40.9067 66.9223 40.32C67.1623 39.7333 67.429 39.0333 67.7223 38.22L64.6023 31.54C64.2557 30.7933 64.0023 30.2 63.8423 29.76C63.6957 29.32 63.5957 28.9933 63.5423 28.78L62.5823 28.82V28H66.7223V28.6H66.6423C66.0823 28.64 65.7757 28.8533 65.7223 29.24C65.669 29.6133 65.8223 30.1867 66.1823 30.96L68.5223 35.98C68.829 35.1267 69.1223 34.2867 69.4023 33.46C69.6823 32.62 69.9623 31.7867 70.2423 30.96C70.349 30.6667 70.4557 30.3667 70.5623 30.06C70.6823 29.74 70.7957 29.46 70.9023 29.22C71.0223 28.9667 71.129 28.8067 71.2223 28.74L69.8423 28.82V28H72.9823V28.6C72.489 28.7867 72.1157 29.1 71.8623 29.54C71.6223 29.9667 71.3757 30.52 71.1223 31.2L68.6223 38.18C68.2223 39.3 67.8557 40.2467 67.5223 41.02C67.189 41.8067 66.8223 42.4 66.4223 42.8C66.0223 43.2133 65.5223 43.42 64.9223 43.42ZM78.6227 38V37.34C79.1293 37.3133 79.476 37.2 79.6627 37C79.8493 36.7867 79.9493 36.5 79.9627 36.14C79.9893 35.7667 80.0027 35.3467 80.0027 34.88V26.24C80.0027 25.68 80.0227 25.2 80.0627 24.8C79.8227 24.8133 79.5827 24.8267 79.3427 24.84C79.1027 24.8533 78.8627 24.8667 78.6227 24.88V24C79.3693 23.9867 80.1227 23.9733 80.8827 23.96C81.656 23.9467 82.4293 23.9533 83.2027 23.98C85.136 24.0067 86.5227 24.3333 87.3627 24.96C88.216 25.5867 88.6427 26.4533 88.6427 27.56C88.656 28.08 88.556 28.6133 88.3427 29.16C88.1427 29.6933 87.7693 30.1733 87.2227 30.6C86.6893 31.0267 85.916 31.3467 84.9027 31.56C85.1693 31.7467 85.4027 31.9867 85.6027 32.28C85.8027 32.5733 86.0293 32.9133 86.2827 33.3L87.6427 35.44C87.8693 35.8 88.0893 36.1267 88.3027 36.42C88.516 36.7 88.7627 36.9267 89.0427 37.1C89.3227 37.26 89.6693 37.34 90.0827 37.34V38H87.5627C87.176 37.6533 86.8493 37.3067 86.5827 36.96C86.3293 36.6133 86.0627 36.22 85.7827 35.78L84.4427 33.64C84.2693 33.36 84.0693 33.04 83.8427 32.68C83.6293 32.3067 83.3827 31.9933 83.1027 31.74C82.8893 31.7533 82.6627 31.76 82.4227 31.76C82.196 31.76 81.9693 31.7533 81.7427 31.74V35.62C81.7427 36.3267 81.7227 36.8533 81.6827 37.2C81.9227 37.1867 82.1627 37.1733 82.4027 37.16C82.6427 37.1467 82.8827 37.1333 83.1227 37.12V38H78.6227ZM82.9827 31C83.716 30.9733 84.356 30.8533 84.9027 30.64C85.4627 30.4267 85.9027 30.0867 86.2227 29.62C86.5427 29.1533 86.7027 28.54 86.7027 27.78C86.7027 26.7667 86.4093 26.0067 85.8227 25.5C85.2493 24.9933 84.3493 24.74 83.1227 24.74C82.6293 24.74 82.2827 24.84 82.0827 25.04C81.896 25.24 81.7893 25.52 81.7627 25.88C81.7493 26.2267 81.7427 26.64 81.7427 27.12V30.96C81.956 30.9733 82.156 30.9867 82.3427 31C82.5427 31.0133 82.756 31.0133 82.9827 31ZM96.9813 37.4C97.3946 37.4 97.6813 37.3 97.8413 37.1C98.0013 36.8867 98.0946 36.6 98.1213 36.24C98.1479 35.8667 98.1613 35.44 98.1613 34.96V32.16C98.1613 31.0133 97.9746 30.1533 97.6013 29.58C97.2413 29.0067 96.6679 28.7267 95.8813 28.74C95.3879 28.7533 94.9013 28.8733 94.4213 29.1C93.9546 29.3267 93.5746 29.62 93.2813 29.98V35.88C93.2813 36.1467 93.2746 36.3867 93.2613 36.6C93.2479 36.8 93.2213 37.0133 93.1813 37.24C93.3946 37.2267 93.6013 37.22 93.8013 37.22C94.0146 37.2067 94.2279 37.1933 94.4413 37.18V38H90.3613V37.4C90.7746 37.4 91.0613 37.3 91.2213 37.1C91.3813 36.8867 91.4746 36.6 91.5013 36.24C91.5413 35.8667 91.5613 35.44 91.5613 34.96V25.5C91.5613 25.2867 91.5613 25.0867 91.5613 24.9C91.5746 24.7 91.5946 24.4667 91.6213 24.2C91.3813 24.2133 91.1413 24.2267 90.9013 24.24C90.6746 24.2533 90.4413 24.2667 90.2013 24.28V23.44C90.7879 23.44 91.2413 23.4133 91.5613 23.36C91.8946 23.3067 92.1413 23.24 92.3013 23.16C92.4746 23.08 92.6079 22.9933 92.7013 22.9H93.2813V29C93.7213 28.6267 94.2346 28.3133 94.8213 28.06C95.4079 27.8067 95.9879 27.68 96.5613 27.68C97.7213 27.68 98.5546 28.0467 99.0613 28.78C99.5813 29.5 99.8479 30.6267 99.8613 32.16L99.8813 35.88C99.8813 36.1467 99.8746 36.3867 99.8613 36.6C99.8613 36.8 99.8413 37.0133 99.8013 37.24C100.015 37.2267 100.221 37.22 100.421 37.22C100.635 37.2067 100.848 37.1933 101.061 37.18V38H96.9813V37.4ZM103.537 43.42C103.124 43.42 102.771 43.32 102.477 43.12C102.184 42.92 102.037 42.6133 102.037 42.2C102.037 41.96 102.117 41.74 102.277 41.54C102.437 41.34 102.644 41.24 102.897 41.24C103.217 41.2267 103.431 41.3267 103.537 41.54C103.657 41.7533 103.717 41.94 103.717 42.1C103.717 42.14 103.717 42.18 103.717 42.22C103.717 42.2733 103.711 42.3267 103.697 42.38C103.737 42.4067 103.811 42.42 103.917 42.42C104.077 42.42 104.251 42.3533 104.437 42.22C104.624 42.0867 104.791 41.8933 104.937 41.64C105.111 41.3467 105.311 40.9067 105.537 40.32C105.777 39.7333 106.044 39.0333 106.337 38.22L103.217 31.54C102.871 30.7933 102.617 30.2 102.457 29.76C102.311 29.32 102.211 28.9933 102.157 28.78L101.197 28.82V28H105.337V28.6H105.257C104.697 28.64 104.391 28.8533 104.337 29.24C104.284 29.6133 104.437 30.1867 104.797 30.96L107.137 35.98C107.444 35.1267 107.737 34.2867 108.017 33.46C108.297 32.62 108.577 31.7867 108.857 30.96C108.964 30.6667 109.071 30.3667 109.177 30.06C109.297 29.74 109.411 29.46 109.517 29.22C109.637 28.9667 109.744 28.8067 109.837 28.74L108.457 28.82V28H111.597V28.6C111.104 28.7867 110.731 29.1 110.477 29.54C110.237 29.9667 109.991 30.52 109.737 31.2L107.237 38.18C106.837 39.3 106.471 40.2467 106.137 41.02C105.804 41.8067 105.437 42.4 105.037 42.8C104.637 43.2133 104.137 43.42 103.537 43.42ZM112.164 38V37.4C112.577 37.4 112.864 37.3 113.024 37.1C113.184 36.8867 113.277 36.6 113.304 36.24C113.33 35.8667 113.344 35.44 113.344 34.96V30.4C113.344 30.1867 113.344 29.9733 113.344 29.76C113.357 29.5467 113.384 29.3267 113.424 29.1C113.184 29.1133 112.944 29.1267 112.704 29.14C112.477 29.1533 112.244 29.1667 112.004 29.18V28.34C112.59 28.34 113.03 28.3133 113.324 28.26C113.63 28.2067 113.857 28.14 114.004 28.06C114.15 27.98 114.27 27.8933 114.364 27.8H114.944C114.97 27.9333 114.984 28.0867 114.984 28.26C114.997 28.4333 115.01 28.6333 115.024 28.86C115.424 28.5133 115.884 28.2333 116.404 28.02C116.924 27.7933 117.444 27.68 117.964 27.68C118.63 27.68 119.19 27.8 119.644 28.04C120.097 28.28 120.45 28.6067 120.704 29.02C121.157 28.6467 121.677 28.3333 122.264 28.08C122.864 27.8133 123.45 27.68 124.024 27.68C125.184 27.68 126.037 28.0333 126.584 28.74C127.13 29.4333 127.39 30.5733 127.364 32.16L127.344 35.88C127.344 36.1467 127.337 36.3867 127.324 36.6C127.324 36.8 127.304 37.0133 127.264 37.24C127.477 37.2267 127.684 37.22 127.884 37.22C128.097 37.2067 128.31 37.1933 128.524 37.18V38H124.444V37.4C124.857 37.4 125.144 37.3 125.304 37.1C125.464 36.8867 125.557 36.6 125.584 36.24C125.61 35.8667 125.624 35.44 125.624 34.96V32.16C125.624 31.0133 125.437 30.1533 125.064 29.58C124.704 29.0067 124.13 28.7267 123.344 28.74C122.93 28.74 122.517 28.8333 122.104 29.02C121.69 29.2067 121.33 29.44 121.024 29.72C121.09 29.9333 121.137 30.1667 121.164 30.42C121.204 30.66 121.224 30.9133 121.224 31.18C121.21 31.9533 121.204 32.7333 121.204 33.52C121.204 34.3067 121.197 35.0933 121.184 35.88C121.184 36.1467 121.177 36.3867 121.164 36.6C121.164 36.8 121.144 37.0133 121.104 37.24C121.317 37.2267 121.524 37.22 121.724 37.22C121.937 37.2067 122.15 37.1933 122.364 37.18V38H118.284V37.4C118.697 37.4 118.977 37.3 119.124 37.1C119.284 36.8867 119.377 36.6 119.404 36.24C119.444 35.8667 119.464 35.44 119.464 34.96L119.484 32.16C119.497 31.0133 119.33 30.1467 118.984 29.56C118.637 28.9733 118.07 28.6867 117.284 28.7C116.87 28.7 116.464 28.7933 116.064 28.98C115.664 29.1533 115.324 29.38 115.044 29.66C115.044 29.82 115.044 29.9933 115.044 30.18C115.057 30.3533 115.064 30.54 115.064 30.74V35.88C115.064 36.1467 115.057 36.3867 115.044 36.6C115.044 36.8 115.024 37.0133 114.984 37.24C115.197 37.2267 115.404 37.22 115.604 37.22C115.817 37.2067 116.03 37.1933 116.244 37.18V38H112.164ZM134.475 38.32C133.555 38.32 132.721 38.1067 131.975 37.68C131.241 37.24 130.661 36.6267 130.235 35.84C129.808 35.04 129.595 34.1 129.595 33.02C129.595 32.0867 129.801 31.2133 130.215 30.4C130.641 29.5867 131.235 28.9333 131.995 28.44C132.755 27.9333 133.635 27.68 134.635 27.68C135.381 27.68 136.061 27.84 136.675 28.16C137.288 28.48 137.775 28.9667 138.135 29.62C138.508 30.2733 138.695 31.1 138.695 32.1L131.655 32.22C131.641 33.7533 131.895 34.9867 132.415 35.92C132.935 36.84 133.781 37.3 134.955 37.3C135.368 37.3 135.788 37.2267 136.215 37.08C136.655 36.9333 137.061 36.7333 137.435 36.48C137.808 36.2267 138.108 35.9467 138.335 35.64L138.815 36.04C138.455 36.6 138.021 37.0467 137.515 37.38C137.008 37.7133 136.488 37.9533 135.955 38.1C135.421 38.2467 134.928 38.32 134.475 38.32ZM131.715 31.38H136.815C136.815 30.9 136.741 30.44 136.595 30C136.461 29.5467 136.235 29.18 135.915 28.9C135.595 28.6067 135.175 28.46 134.655 28.46C133.881 28.46 133.235 28.6933 132.715 29.16C132.208 29.6133 131.875 30.3533 131.715 31.38ZM144.175 38.32C143.508 38.32 142.915 38.2267 142.395 38.04C141.875 37.8667 141.448 37.6667 141.115 37.44L141.195 38.14H140.355L140.235 34.7H140.855C140.881 35.2467 141.035 35.74 141.315 36.18C141.595 36.6067 141.955 36.94 142.395 37.18C142.835 37.42 143.308 37.54 143.815 37.54C144.161 37.54 144.501 37.4867 144.835 37.38C145.168 37.26 145.448 37.0867 145.675 36.86C145.901 36.62 146.015 36.32 146.015 35.96C146.015 35.5867 145.901 35.28 145.675 35.04C145.461 34.7867 145.175 34.5667 144.815 34.38C144.455 34.1933 144.068 34.02 143.655 33.86C143.121 33.6467 142.588 33.42 142.055 33.18C141.535 32.9267 141.101 32.6 140.755 32.2C140.408 31.7867 140.235 31.2467 140.235 30.58C140.235 30.3 140.288 29.9933 140.395 29.66C140.501 29.3267 140.681 29.0133 140.935 28.72C141.188 28.4133 141.535 28.1667 141.975 27.98C142.415 27.78 142.975 27.68 143.655 27.68C144.015 27.68 144.415 27.74 144.855 27.86C145.295 27.98 145.721 28.2067 146.135 28.54L146.095 27.78H146.935V31.28H146.295C146.268 30.8133 146.161 30.3667 145.975 29.94C145.788 29.5 145.515 29.14 145.155 28.86C144.795 28.5667 144.328 28.42 143.755 28.42C143.141 28.42 142.661 28.5733 142.315 28.88C141.968 29.1867 141.795 29.54 141.795 29.94C141.795 30.3533 141.921 30.7 142.175 30.98C142.441 31.2467 142.781 31.48 143.195 31.68C143.608 31.88 144.048 32.0733 144.515 32.26C145.021 32.4733 145.515 32.7067 145.995 32.96C146.475 33.2133 146.868 33.5333 147.175 33.92C147.481 34.2933 147.635 34.78 147.635 35.38C147.635 36.0467 147.461 36.6 147.115 37.04C146.781 37.48 146.348 37.8 145.815 38C145.295 38.2133 144.748 38.32 144.175 38.32Z" fill="#2A2921"/>
<path d="M0.87 66.795C0.87 65.905 1 65.12 1.26 64.44C1.53 63.76 1.89 63.195 2.34 62.745C2.8 62.285 3.33 61.94 3.93 61.71C4.54 61.48 5.185 61.365 5.865 61.365C6.535 61.365 7.165 61.48 7.755 61.71C8.355 61.94 8.88 62.285 9.33 62.745C9.78 63.195 10.135 63.76 10.395 64.44C10.665 65.12 10.8 65.905 10.8 66.795C10.8 67.685 10.665 68.47 10.395 69.15C10.135 69.83 9.78 70.4 9.33 70.86C8.88 71.31 8.355 71.65 7.755 71.88C7.165 72.11 6.535 72.225 5.865 72.225C5.185 72.225 4.54 72.11 3.93 71.88C3.33 71.65 2.8 71.31 2.34 70.86C1.89 70.4 1.53 69.83 1.26 69.15C1 68.47 0.87 67.685 0.87 66.795ZM2.4 66.795C2.4 67.425 2.48 68 2.64 68.52C2.8 69.03 3.025 69.465 3.315 69.825C3.615 70.185 3.975 70.465 4.395 70.665C4.825 70.855 5.305 70.95 5.835 70.95C6.365 70.95 6.84 70.855 7.26 70.665C7.68 70.465 8.035 70.185 8.325 69.825C8.625 69.465 8.855 69.03 9.015 68.52C9.175 68 9.255 67.425 9.255 66.795C9.255 66.165 9.175 65.595 9.015 65.085C8.855 64.565 8.625 64.125 8.325 63.765C8.035 63.405 7.68 63.13 7.26 62.94C6.84 62.74 6.365 62.64 5.835 62.64C5.305 62.64 4.825 62.74 4.395 62.94C3.975 63.13 3.615 63.405 3.315 63.765C3.025 64.125 2.8 64.565 2.64 65.085C2.48 65.595 2.4 66.165 2.4 66.795ZM12.5748 64.425C12.8948 64.345 13.3198 64.26 13.8498 64.17C14.3798 64.08 14.9898 64.035 15.6798 64.035C16.2998 64.035 16.8148 64.125 17.2248 64.305C17.6348 64.475 17.9598 64.72 18.1998 65.04C18.4498 65.35 18.6248 65.725 18.7248 66.165C18.8248 66.605 18.8748 67.09 18.8748 67.62V72H17.4798V67.92C17.4798 67.44 17.4448 67.03 17.3748 66.69C17.3148 66.35 17.2098 66.075 17.0598 65.865C16.9098 65.655 16.7098 65.505 16.4598 65.415C16.2098 65.315 15.8998 65.265 15.5298 65.265C15.3798 65.265 15.2248 65.27 15.0648 65.28C14.9048 65.29 14.7498 65.305 14.5998 65.325C14.4598 65.335 14.3298 65.35 14.2098 65.37C14.0998 65.39 14.0198 65.405 13.9698 65.415V72H12.5748V64.425ZM20.4531 68.115C20.4531 67.425 20.5531 66.825 20.7531 66.315C20.9531 65.795 21.2181 65.365 21.5481 65.025C21.8781 64.685 22.2581 64.43 22.6881 64.26C23.1181 64.09 23.5581 64.005 24.0081 64.005C25.0581 64.005 25.8631 64.335 26.4231 64.995C26.9831 65.645 27.2631 66.64 27.2631 67.98C27.2631 68.04 27.2631 68.12 27.2631 68.22C27.2631 68.31 27.2581 68.395 27.2481 68.475H21.9081C21.9681 69.285 22.2031 69.9 22.6131 70.32C23.0231 70.74 23.6631 70.95 24.5331 70.95C25.0231 70.95 25.4331 70.91 25.7631 70.83C26.1031 70.74 26.3581 70.655 26.5281 70.575L26.7231 71.745C26.5531 71.835 26.2531 71.93 25.8231 72.03C25.4031 72.13 24.9231 72.18 24.3831 72.18C23.7031 72.18 23.1131 72.08 22.6131 71.88C22.1231 71.67 21.7181 71.385 21.3981 71.025C21.0781 70.665 20.8381 70.24 20.6781 69.75C20.5281 69.25 20.4531 68.705 20.4531 68.115ZM25.8081 67.35C25.8181 66.72 25.6581 66.205 25.3281 65.805C25.0081 65.395 24.5631 65.19 23.9931 65.19C23.6731 65.19 23.3881 65.255 23.1381 65.385C22.8981 65.505 22.6931 65.665 22.5231 65.865C22.3531 66.065 22.2181 66.295 22.1181 66.555C22.0281 66.815 21.9681 67.08 21.9381 67.35H25.8081ZM35.1837 60.36C35.5937 60.36 35.9437 60.39 36.2337 60.45C36.5337 60.51 36.7437 60.565 36.8637 60.615L36.6087 61.815C36.4887 61.755 36.3187 61.7 36.0987 61.65C35.8787 61.59 35.6087 61.56 35.2887 61.56C34.6387 61.56 34.1837 61.74 33.9237 62.1C33.6637 62.45 33.5337 62.925 33.5337 63.525V64.2H36.5337V65.37H33.5337V72H32.1387V63.495C32.1387 62.495 32.3837 61.725 32.8737 61.185C33.3637 60.635 34.1337 60.36 35.1837 60.36ZM44.5098 68.1C44.5098 68.72 44.4198 69.28 44.2398 69.78C44.0598 70.28 43.8048 70.71 43.4748 71.07C43.1548 71.43 42.7698 71.71 42.3198 71.91C41.8698 72.1 41.3798 72.195 40.8498 72.195C40.3198 72.195 39.8298 72.1 39.3798 71.91C38.9298 71.71 38.5398 71.43 38.2098 71.07C37.8898 70.71 37.6398 70.28 37.4598 69.78C37.2798 69.28 37.1898 68.72 37.1898 68.1C37.1898 67.49 37.2798 66.935 37.4598 66.435C37.6398 65.925 37.8898 65.49 38.2098 65.13C38.5398 64.77 38.9298 64.495 39.3798 64.305C39.8298 64.105 40.3198 64.005 40.8498 64.005C41.3798 64.005 41.8698 64.105 42.3198 64.305C42.7698 64.495 43.1548 64.77 43.4748 65.13C43.8048 65.49 44.0598 65.925 44.2398 66.435C44.4198 66.935 44.5098 67.49 44.5098 68.1ZM43.0548 68.1C43.0548 67.22 42.8548 66.525 42.4548 66.015C42.0648 65.495 41.5298 65.235 40.8498 65.235C40.1698 65.235 39.6298 65.495 39.2298 66.015C38.8398 66.525 38.6448 67.22 38.6448 68.1C38.6448 68.98 38.8398 69.68 39.2298 70.2C39.6298 70.71 40.1698 70.965 40.8498 70.965C41.5298 70.965 42.0648 70.71 42.4548 70.2C42.8548 69.68 43.0548 68.98 43.0548 68.1ZM49.0525 64.035C49.1725 64.035 49.3075 64.045 49.4575 64.065C49.6175 64.075 49.7725 64.095 49.9225 64.125C50.0725 64.145 50.2075 64.17 50.3275 64.2C50.4575 64.22 50.5525 64.24 50.6125 64.26L50.3725 65.475C50.2625 65.435 50.0775 65.39 49.8175 65.34C49.5675 65.28 49.2425 65.25 48.8425 65.25C48.5825 65.25 48.3225 65.28 48.0625 65.34C47.8125 65.39 47.6475 65.425 47.5675 65.445V72H46.1725V64.53C46.5025 64.41 46.9125 64.3 47.4025 64.2C47.8925 64.09 48.4425 64.035 49.0525 64.035ZM56.6453 70.995C57.2153 70.995 57.6353 70.92 57.9053 70.77C58.1853 70.62 58.3253 70.38 58.3253 70.05C58.3253 69.71 58.1903 69.44 57.9203 69.24C57.6503 69.04 57.2053 68.815 56.5853 68.565C56.2853 68.445 55.9953 68.325 55.7153 68.205C55.4453 68.075 55.2103 67.925 55.0103 67.755C54.8103 67.585 54.6503 67.38 54.5303 67.14C54.4103 66.9 54.3503 66.605 54.3503 66.255C54.3503 65.565 54.6053 65.02 55.1153 64.62C55.6253 64.21 56.3203 64.005 57.2003 64.005C57.4203 64.005 57.6403 64.02 57.8603 64.05C58.0803 64.07 58.2853 64.1 58.4753 64.14C58.6653 64.17 58.8303 64.205 58.9703 64.245C59.1203 64.285 59.2353 64.32 59.3153 64.35L59.0603 65.55C58.9103 65.47 58.6753 65.39 58.3553 65.31C58.0353 65.22 57.6503 65.175 57.2003 65.175C56.8103 65.175 56.4703 65.255 56.1803 65.415C55.8903 65.565 55.7453 65.805 55.7453 66.135C55.7453 66.305 55.7753 66.455 55.8353 66.585C55.9053 66.715 56.0053 66.835 56.1353 66.945C56.2753 67.045 56.4453 67.14 56.6453 67.23C56.8453 67.32 57.0853 67.415 57.3653 67.515C57.7353 67.655 58.0653 67.795 58.3553 67.935C58.6453 68.065 58.8903 68.22 59.0903 68.4C59.3003 68.58 59.4603 68.8 59.5703 69.06C59.6803 69.31 59.7353 69.62 59.7353 69.99C59.7353 70.71 59.4653 71.255 58.9253 71.625C58.3953 71.995 57.6353 72.18 56.6453 72.18C55.9553 72.18 55.4153 72.12 55.0253 72C54.6353 71.89 54.3703 71.805 54.2303 71.745L54.4853 70.545C54.6453 70.605 54.9003 70.695 55.2503 70.815C55.6003 70.935 56.0653 70.995 56.6453 70.995ZM68.1096 68.1C68.1096 68.72 68.0196 69.28 67.8396 69.78C67.6596 70.28 67.4046 70.71 67.0746 71.07C66.7546 71.43 66.3696 71.71 65.9196 71.91C65.4696 72.1 64.9796 72.195 64.4496 72.195C63.9196 72.195 63.4296 72.1 62.9796 71.91C62.5296 71.71 62.1396 71.43 61.8096 71.07C61.4896 70.71 61.2396 70.28 61.0596 69.78C60.8796 69.28 60.7896 68.72 60.7896 68.1C60.7896 67.49 60.8796 66.935 61.0596 66.435C61.2396 65.925 61.4896 65.49 61.8096 65.13C62.1396 64.77 62.5296 64.495 62.9796 64.305C63.4296 64.105 63.9196 64.005 64.4496 64.005C64.9796 64.005 65.4696 64.105 65.9196 64.305C66.3696 64.495 66.7546 64.77 67.0746 65.13C67.4046 65.49 67.6596 65.925 67.8396 66.435C68.0196 66.935 68.1096 67.49 68.1096 68.1ZM66.6546 68.1C66.6546 67.22 66.4546 66.525 66.0546 66.015C65.6646 65.495 65.1296 65.235 64.4496 65.235C63.7696 65.235 63.2296 65.495 62.8296 66.015C62.4396 66.525 62.2446 67.22 62.2446 68.1C62.2446 68.98 62.4396 69.68 62.8296 70.2C63.2296 70.71 63.7696 70.965 64.4496 70.965C65.1296 70.965 65.6646 70.71 66.0546 70.2C66.4546 69.68 66.6546 68.98 66.6546 68.1ZM72.6523 64.035C72.7723 64.035 72.9073 64.045 73.0573 64.065C73.2173 64.075 73.3723 64.095 73.5223 64.125C73.6723 64.145 73.8073 64.17 73.9273 64.2C74.0573 64.22 74.1523 64.24 74.2123 64.26L73.9723 65.475C73.8623 65.435 73.6773 65.39 73.4173 65.34C73.1673 65.28 72.8423 65.25 72.4423 65.25C72.1823 65.25 71.9223 65.28 71.6623 65.34C71.4123 65.39 71.2473 65.425 71.1673 65.445V72H69.7723V64.53C70.1023 64.41 70.5123 64.3 71.0023 64.2C71.4923 64.09 72.0423 64.035 72.6523 64.035ZM78.1384 64.035C78.2584 64.035 78.3934 64.045 78.5434 64.065C78.7034 64.075 78.8584 64.095 79.0084 64.125C79.1584 64.145 79.2934 64.17 79.4134 64.2C79.5434 64.22 79.6384 64.24 79.6984 64.26L79.4584 65.475C79.3484 65.435 79.1634 65.39 78.9034 65.34C78.6534 65.28 78.3284 65.25 77.9284 65.25C77.6684 65.25 77.4084 65.28 77.1484 65.34C76.8984 65.39 76.7334 65.425 76.6534 65.445V72H75.2584V64.53C75.5884 64.41 75.9984 64.3 76.4884 64.2C76.9784 64.09 77.5284 64.035 78.1384 64.035ZM87.6295 68.1C87.6295 68.72 87.5395 69.28 87.3595 69.78C87.1795 70.28 86.9245 70.71 86.5945 71.07C86.2745 71.43 85.8895 71.71 85.4395 71.91C84.9895 72.1 84.4995 72.195 83.9695 72.195C83.4395 72.195 82.9495 72.1 82.4995 71.91C82.0495 71.71 81.6595 71.43 81.3295 71.07C81.0095 70.71 80.7595 70.28 80.5795 69.78C80.3995 69.28 80.3095 68.72 80.3095 68.1C80.3095 67.49 80.3995 66.935 80.5795 66.435C80.7595 65.925 81.0095 65.49 81.3295 65.13C81.6595 64.77 82.0495 64.495 82.4995 64.305C82.9495 64.105 83.4395 64.005 83.9695 64.005C84.4995 64.005 84.9895 64.105 85.4395 64.305C85.8895 64.495 86.2745 64.77 86.5945 65.13C86.9245 65.49 87.1795 65.925 87.3595 66.435C87.5395 66.935 87.6295 67.49 87.6295 68.1ZM86.1745 68.1C86.1745 67.22 85.9745 66.525 85.5745 66.015C85.1845 65.495 84.6495 65.235 83.9695 65.235C83.2895 65.235 82.7495 65.495 82.3495 66.015C81.9595 66.525 81.7645 67.22 81.7645 68.1C81.7645 68.98 81.9595 69.68 82.3495 70.2C82.7495 70.71 83.2895 70.965 83.9695 70.965C84.6495 70.965 85.1845 70.71 85.5745 70.2C85.9745 69.68 86.1745 68.98 86.1745 68.1ZM95.4768 72C95.1968 71.28 94.8968 70.46 94.5768 69.54C94.2668 68.61 93.9818 67.645 93.7218 66.645C93.4618 67.645 93.1768 68.61 92.8668 69.54C92.5568 70.46 92.2618 71.28 91.9818 72H90.7668C90.3068 70.97 89.8568 69.795 89.4168 68.475C88.9768 67.155 88.5618 65.73 88.1718 64.2H89.6718C89.7718 64.67 89.8918 65.18 90.0318 65.73C90.1718 66.28 90.3168 66.83 90.4668 67.38C90.6268 67.93 90.7918 68.46 90.9618 68.97C91.1318 69.48 91.2918 69.925 91.4418 70.305C91.6118 69.835 91.7768 69.34 91.9368 68.82C92.1068 68.29 92.2668 67.76 92.4168 67.23C92.5668 66.69 92.7068 66.165 92.8368 65.655C92.9768 65.135 93.0968 64.65 93.1968 64.2H94.3518C94.4418 64.65 94.5518 65.135 94.6818 65.655C94.8118 66.165 94.9518 66.69 95.1018 67.23C95.2518 67.76 95.4068 68.29 95.5668 68.82C95.7368 69.34 95.9068 69.835 96.0768 70.305C96.2268 69.925 96.3818 69.48 96.5418 68.97C96.7118 68.46 96.8768 67.93 97.0368 67.38C97.1968 66.83 97.3468 66.28 97.4868 65.73C97.6268 65.18 97.7468 64.67 97.8468 64.2H99.2868C98.8968 65.73 98.4818 67.155 98.0418 68.475C97.6018 69.795 97.1518 70.97 96.6918 72H95.4768ZM101.449 70.29C101.459 70.37 101.464 70.45 101.464 70.53C101.464 70.6 101.464 70.675 101.464 70.755C101.464 71.385 101.369 72.005 101.179 72.615C100.999 73.235 100.749 73.825 100.429 74.385L99.3485 74.04C99.5985 73.53 99.7635 73.01 99.8435 72.48C99.9235 71.96 99.9635 71.47 99.9635 71.01C99.9635 70.88 99.9585 70.755 99.9485 70.635C99.9485 70.515 99.9435 70.4 99.9335 70.29H101.449ZM113.577 61.605V62.865H110.307V72H108.852V62.865H105.582V61.605H113.577ZM119.882 72C119.602 71.28 119.302 70.46 118.982 69.54C118.672 68.61 118.387 67.645 118.127 66.645C117.867 67.645 117.582 68.61 117.272 69.54C116.962 70.46 116.667 71.28 116.387 72H115.172C114.712 70.97 114.262 69.795 113.822 68.475C113.382 67.155 112.967 65.73 112.577 64.2H114.077C114.177 64.67 114.297 65.18 114.437 65.73C114.577 66.28 114.722 66.83 114.872 67.38C115.032 67.93 115.197 68.46 115.367 68.97C115.537 69.48 115.697 69.925 115.847 70.305C116.017 69.835 116.182 69.34 116.342 68.82C116.512 68.29 116.672 67.76 116.822 67.23C116.972 66.69 117.112 66.165 117.242 65.655C117.382 65.135 117.502 64.65 117.602 64.2H118.757C118.847 64.65 118.957 65.135 119.087 65.655C119.217 66.165 119.357 66.69 119.507 67.23C119.657 67.76 119.812 68.29 119.972 68.82C120.142 69.34 120.312 69.835 120.482 70.305C120.632 69.925 120.787 69.48 120.947 68.97C121.117 68.46 121.282 67.93 121.442 67.38C121.602 66.83 121.752 66.28 121.892 65.73C122.032 65.18 122.152 64.67 122.252 64.2H123.692C123.302 65.73 122.887 67.155 122.447 68.475C122.007 69.795 121.557 70.97 121.097 72H119.882ZM131.577 68.1C131.577 68.72 131.487 69.28 131.307 69.78C131.127 70.28 130.872 70.71 130.542 71.07C130.222 71.43 129.837 71.71 129.387 71.91C128.937 72.1 128.447 72.195 127.917 72.195C127.387 72.195 126.897 72.1 126.447 71.91C125.997 71.71 125.607 71.43 125.277 71.07C124.957 70.71 124.707 70.28 124.527 69.78C124.347 69.28 124.257 68.72 124.257 68.1C124.257 67.49 124.347 66.935 124.527 66.435C124.707 65.925 124.957 65.49 125.277 65.13C125.607 64.77 125.997 64.495 126.447 64.305C126.897 64.105 127.387 64.005 127.917 64.005C128.447 64.005 128.937 64.105 129.387 64.305C129.837 64.495 130.222 64.77 130.542 65.13C130.872 65.49 131.127 65.925 131.307 66.435C131.487 66.935 131.577 67.49 131.577 68.1ZM130.122 68.1C130.122 67.22 129.922 66.525 129.522 66.015C129.132 65.495 128.597 65.235 127.917 65.235C127.237 65.235 126.697 65.495 126.297 66.015C125.907 66.525 125.712 67.22 125.712 68.1C125.712 68.98 125.907 69.68 126.297 70.2C126.697 70.71 127.237 70.965 127.917 70.965C128.597 70.965 129.132 70.71 129.522 70.2C129.922 69.68 130.122 68.98 130.122 68.1ZM139.456 60.36C139.866 60.36 140.216 60.39 140.506 60.45C140.806 60.51 141.016 60.565 141.136 60.615L140.881 61.815C140.761 61.755 140.591 61.7 140.371 61.65C140.151 61.59 139.881 61.56 139.561 61.56C138.911 61.56 138.456 61.74 138.196 62.1C137.936 62.45 137.806 62.925 137.806 63.525V64.2H140.806V65.37H137.806V72H136.411V63.495C136.411 62.495 136.656 61.725 137.146 61.185C137.636 60.635 138.406 60.36 139.456 60.36ZM148.782 68.1C148.782 68.72 148.692 69.28 148.512 69.78C148.332 70.28 148.077 70.71 147.747 71.07C147.427 71.43 147.042 71.71 146.592 71.91C146.142 72.1 145.652 72.195 145.122 72.195C144.592 72.195 144.102 72.1 143.652 71.91C143.202 71.71 142.812 71.43 142.482 71.07C142.162 70.71 141.912 70.28 141.732 69.78C141.552 69.28 141.462 68.72 141.462 68.1C141.462 67.49 141.552 66.935 141.732 66.435C141.912 65.925 142.162 65.49 142.482 65.13C142.812 64.77 143.202 64.495 143.652 64.305C144.102 64.105 144.592 64.005 145.122 64.005C145.652 64.005 146.142 64.105 146.592 64.305C147.042 64.495 147.427 64.77 147.747 65.13C148.077 65.49 148.332 65.925 148.512 66.435C148.692 66.935 148.782 67.49 148.782 68.1ZM147.327 68.1C147.327 67.22 147.127 66.525 146.727 66.015C146.337 65.495 145.802 65.235 145.122 65.235C144.442 65.235 143.902 65.495 143.502 66.015C143.112 66.525 142.917 67.22 142.917 68.1C142.917 68.98 143.112 69.68 143.502 70.2C143.902 70.71 144.442 70.965 145.122 70.965C145.802 70.965 146.337 70.71 146.727 70.2C147.127 69.68 147.327 68.98 147.327 68.1ZM153.325 64.035C153.445 64.035 153.58 64.045 153.73 64.065C153.89 64.075 154.045 64.095 154.195 64.125C154.345 64.145 154.48 64.17 154.6 64.2C154.73 64.22 154.825 64.24 154.885 64.26L154.645 65.475C154.535 65.435 154.35 65.39 154.09 65.34C153.84 65.28 153.515 65.25 153.115 65.25C152.855 65.25 152.595 65.28 152.335 65.34C152.085 65.39 151.92 65.425 151.84 65.445V72H150.445V64.53C150.775 64.41 151.185 64.3 151.675 64.2C152.165 64.09 152.715 64.035 153.325 64.035ZM1.2 85.425C1.52 85.345 1.94 85.26 2.46 85.17C2.99 85.08 3.6 85.035 4.29 85.035C4.79 85.035 5.21 85.105 5.55 85.245C5.89 85.375 6.175 85.57 6.405 85.83C6.475 85.78 6.585 85.71 6.735 85.62C6.885 85.53 7.07 85.445 7.29 85.365C7.51 85.275 7.755 85.2 8.025 85.14C8.295 85.07 8.585 85.035 8.895 85.035C9.495 85.035 9.985 85.125 10.365 85.305C10.745 85.475 11.04 85.72 11.25 86.04C11.47 86.36 11.615 86.74 11.685 87.18C11.765 87.62 11.805 88.1 11.805 88.62V93H10.41V88.92C10.41 88.46 10.385 88.065 10.335 87.735C10.295 87.405 10.21 87.13 10.08 86.91C9.96 86.69 9.79 86.53 9.57 86.43C9.36 86.32 9.085 86.265 8.745 86.265C8.275 86.265 7.885 86.33 7.575 86.46C7.275 86.58 7.07 86.69 6.96 86.79C7.04 87.05 7.1 87.335 7.14 87.645C7.18 87.955 7.2 88.28 7.2 88.62V93H5.805V88.92C5.805 88.46 5.78 88.065 5.73 87.735C5.68 87.405 5.59 87.13 5.46 86.91C5.34 86.69 5.17 86.53 4.95 86.43C4.74 86.32 4.47 86.265 4.14 86.265C4 86.265 3.85 86.27 3.69 86.28C3.53 86.29 3.375 86.305 3.225 86.325C3.085 86.335 2.955 86.35 2.835 86.37C2.715 86.39 2.635 86.405 2.595 86.415V93H1.2V85.425ZM15.2149 93H13.8199V85.2H15.2149V93ZM14.5099 83.79C14.2599 83.79 14.0449 83.71 13.8649 83.55C13.6949 83.38 13.6099 83.155 13.6099 82.875C13.6099 82.595 13.6949 82.375 13.8649 82.215C14.0449 82.045 14.2599 81.96 14.5099 81.96C14.7599 81.96 14.9699 82.045 15.1399 82.215C15.3199 82.375 15.4099 82.595 15.4099 82.875C15.4099 83.155 15.3199 83.38 15.1399 83.55C14.9699 83.71 14.7599 83.79 14.5099 83.79ZM20.1939 85.035C20.3139 85.035 20.4489 85.045 20.5989 85.065C20.7589 85.075 20.9139 85.095 21.0639 85.125C21.2139 85.145 21.3489 85.17 21.4689 85.2C21.5989 85.22 21.6939 85.24 21.7539 85.26L21.5139 86.475C21.4039 86.435 21.2189 86.39 20.9589 86.34C20.7089 86.28 20.3839 86.25 19.9839 86.25C19.7239 86.25 19.4639 86.28 19.2039 86.34C18.9539 86.39 18.7889 86.425 18.7089 86.445V93H17.3139V85.53C17.6439 85.41 18.0539 85.3 18.5439 85.2C19.0339 85.09 19.5839 85.035 20.1939 85.035ZM24.105 85.2H27.06V86.37H24.105V89.97C24.105 90.36 24.135 90.685 24.195 90.945C24.255 91.195 24.345 91.395 24.465 91.545C24.585 91.685 24.735 91.785 24.915 91.845C25.095 91.905 25.305 91.935 25.545 91.935C25.965 91.935 26.3 91.89 26.55 91.8C26.81 91.7 26.99 91.63 27.09 91.59L27.36 92.745C27.22 92.815 26.975 92.9 26.625 93C26.275 93.11 25.875 93.165 25.425 93.165C24.895 93.165 24.455 93.1 24.105 92.97C23.765 92.83 23.49 92.625 23.28 92.355C23.07 92.085 22.92 91.755 22.83 91.365C22.75 90.965 22.71 90.505 22.71 89.985V83.025L24.105 82.785V85.2ZM28.5352 93V81.6L29.9302 81.36V85.35C30.1902 85.25 30.4652 85.175 30.7552 85.125C31.0552 85.065 31.3502 85.035 31.6402 85.035C32.2602 85.035 32.7752 85.125 33.1852 85.305C33.5952 85.475 33.9202 85.72 34.1602 86.04C34.4102 86.35 34.5852 86.725 34.6852 87.165C34.7852 87.605 34.8352 88.09 34.8352 88.62V93H33.4402V88.92C33.4402 88.44 33.4052 88.03 33.3352 87.69C33.2752 87.35 33.1702 87.075 33.0202 86.865C32.8702 86.655 32.6702 86.505 32.4202 86.415C32.1702 86.315 31.8602 86.265 31.4902 86.265C31.3402 86.265 31.1852 86.275 31.0252 86.295C30.8652 86.315 30.7102 86.34 30.5602 86.37C30.4202 86.39 30.2902 86.415 30.1702 86.445C30.0602 86.475 29.9802 86.5 29.9302 86.52V93H28.5352ZM38.2745 91.29C38.2845 91.37 38.2895 91.45 38.2895 91.53C38.2895 91.6 38.2895 91.675 38.2895 91.755C38.2895 92.385 38.1945 93.005 38.0045 93.615C37.8245 94.235 37.5745 94.825 37.2545 95.385L36.1745 95.04C36.4245 94.53 36.5895 94.01 36.6695 93.48C36.7495 92.96 36.7895 92.47 36.7895 92.01C36.7895 91.88 36.7845 91.755 36.7745 91.635C36.7745 91.515 36.7695 91.4 36.7595 91.29H38.2745ZM50.4026 82.605V83.865H47.1326V93H45.6776V83.865H42.4076V82.605H50.4026ZM51.549 93V81.6L52.944 81.36V85.35C53.204 85.25 53.479 85.175 53.769 85.125C54.069 85.065 54.364 85.035 54.654 85.035C55.274 85.035 55.789 85.125 56.199 85.305C56.609 85.475 56.934 85.72 57.174 86.04C57.424 86.35 57.599 86.725 57.699 87.165C57.799 87.605 57.849 88.09 57.849 88.62V93H56.454V88.92C56.454 88.44 56.419 88.03 56.349 87.69C56.289 87.35 56.184 87.075 56.034 86.865C55.884 86.655 55.684 86.505 55.434 86.415C55.184 86.315 54.874 86.265 54.504 86.265C54.354 86.265 54.199 86.275 54.039 86.295C53.879 86.315 53.724 86.34 53.574 86.37C53.434 86.39 53.304 86.415 53.184 86.445C53.074 86.475 52.994 86.5 52.944 86.52V93H51.549ZM62.6984 85.035C62.8184 85.035 62.9534 85.045 63.1034 85.065C63.2634 85.075 63.4184 85.095 63.5684 85.125C63.7184 85.145 63.8534 85.17 63.9734 85.2C64.1034 85.22 64.1984 85.24 64.2584 85.26L64.0184 86.475C63.9084 86.435 63.7234 86.39 63.4634 86.34C63.2134 86.28 62.8884 86.25 62.4884 86.25C62.2284 86.25 61.9684 86.28 61.7084 86.34C61.4584 86.39 61.2934 86.425 61.2134 86.445V93H59.8184V85.53C60.1484 85.41 60.5584 85.3 61.0484 85.2C61.5384 85.09 62.0884 85.035 62.6984 85.035ZM64.8695 89.115C64.8695 88.425 64.9695 87.825 65.1695 87.315C65.3695 86.795 65.6345 86.365 65.9645 86.025C66.2945 85.685 66.6745 85.43 67.1045 85.26C67.5345 85.09 67.9745 85.005 68.4245 85.005C69.4745 85.005 70.2795 85.335 70.8395 85.995C71.3995 86.645 71.6795 87.64 71.6795 88.98C71.6795 89.04 71.6795 89.12 71.6795 89.22C71.6795 89.31 71.6745 89.395 71.6645 89.475H66.3245C66.3845 90.285 66.6195 90.9 67.0295 91.32C67.4395 91.74 68.0795 91.95 68.9495 91.95C69.4395 91.95 69.8495 91.91 70.1795 91.83C70.5195 91.74 70.7745 91.655 70.9445 91.575L71.1395 92.745C70.9695 92.835 70.6695 92.93 70.2395 93.03C69.8195 93.13 69.3395 93.18 68.7995 93.18C68.1195 93.18 67.5295 93.08 67.0295 92.88C66.5395 92.67 66.1345 92.385 65.8145 92.025C65.4945 91.665 65.2545 91.24 65.0945 90.75C64.9445 90.25 64.8695 89.705 64.8695 89.115ZM70.2245 88.35C70.2345 87.72 70.0745 87.205 69.7445 86.805C69.4245 86.395 68.9795 86.19 68.4095 86.19C68.0895 86.19 67.8045 86.255 67.5545 86.385C67.3145 86.505 67.1095 86.665 66.9395 86.865C66.7695 87.065 66.6345 87.295 66.5345 87.555C66.4445 87.815 66.3845 88.08 66.3545 88.35H70.2245ZM72.9484 89.115C72.9484 88.425 73.0484 87.825 73.2484 87.315C73.4484 86.795 73.7134 86.365 74.0434 86.025C74.3734 85.685 74.7534 85.43 75.1834 85.26C75.6134 85.09 76.0534 85.005 76.5034 85.005C77.5534 85.005 78.3584 85.335 78.9184 85.995C79.4784 86.645 79.7584 87.64 79.7584 88.98C79.7584 89.04 79.7584 89.12 79.7584 89.22C79.7584 89.31 79.7534 89.395 79.7434 89.475H74.4034C74.4634 90.285 74.6984 90.9 75.1084 91.32C75.5184 91.74 76.1584 91.95 77.0284 91.95C77.5184 91.95 77.9284 91.91 78.2584 91.83C78.5984 91.74 78.8534 91.655 79.0234 91.575L79.2184 92.745C79.0484 92.835 78.7484 92.93 78.3184 93.03C77.8984 93.13 77.4184 93.18 76.8784 93.18C76.1984 93.18 75.6084 93.08 75.1084 92.88C74.6184 92.67 74.2134 92.385 73.8934 92.025C73.5734 91.665 73.3334 91.24 73.1734 90.75C73.0234 90.25 72.9484 89.705 72.9484 89.115ZM78.3034 88.35C78.3134 87.72 78.1534 87.205 77.8234 86.805C77.5034 86.395 77.0584 86.19 76.4884 86.19C76.1684 86.19 75.8834 86.255 75.6334 86.385C75.3934 86.505 75.1884 86.665 75.0184 86.865C74.8484 87.065 74.7134 87.295 74.6134 87.555C74.5234 87.815 74.4634 88.08 74.4334 88.35H78.3034ZM87.679 81.36C88.089 81.36 88.439 81.39 88.729 81.45C89.029 81.51 89.239 81.565 89.359 81.615L89.104 82.815C88.984 82.755 88.814 82.7 88.594 82.65C88.374 82.59 88.104 82.56 87.784 82.56C87.134 82.56 86.679 82.74 86.419 83.1C86.159 83.45 86.029 83.925 86.029 84.525V85.2H89.029V86.37H86.029V93H84.634V84.495C84.634 83.495 84.879 82.725 85.369 82.185C85.859 81.635 86.629 81.36 87.679 81.36ZM97.0051 89.1C97.0051 89.72 96.9151 90.28 96.7351 90.78C96.5551 91.28 96.3001 91.71 95.9701 92.07C95.6501 92.43 95.2651 92.71 94.8151 92.91C94.3651 93.1 93.8751 93.195 93.3451 93.195C92.8151 93.195 92.3251 93.1 91.8751 92.91C91.4251 92.71 91.0351 92.43 90.7051 92.07C90.3851 91.71 90.1351 91.28 89.9551 90.78C89.7751 90.28 89.6851 89.72 89.6851 89.1C89.6851 88.49 89.7751 87.935 89.9551 87.435C90.1351 86.925 90.3851 86.49 90.7051 86.13C91.0351 85.77 91.4251 85.495 91.8751 85.305C92.3251 85.105 92.8151 85.005 93.3451 85.005C93.8751 85.005 94.3651 85.105 94.8151 85.305C95.2651 85.495 95.6501 85.77 95.9701 86.13C96.3001 86.49 96.5551 86.925 96.7351 87.435C96.9151 87.935 97.0051 88.49 97.0051 89.1ZM95.5501 89.1C95.5501 88.22 95.3501 87.525 94.9501 87.015C94.5601 86.495 94.0251 86.235 93.3451 86.235C92.6651 86.235 92.1251 86.495 91.7251 87.015C91.3351 87.525 91.1401 88.22 91.1401 89.1C91.1401 89.98 91.3351 90.68 91.7251 91.2C92.1251 91.71 92.6651 91.965 93.3451 91.965C94.0251 91.965 94.5601 91.71 94.9501 91.2C95.3501 90.68 95.5501 89.98 95.5501 89.1ZM101.548 85.035C101.668 85.035 101.803 85.045 101.953 85.065C102.113 85.075 102.268 85.095 102.418 85.125C102.568 85.145 102.703 85.17 102.823 85.2C102.953 85.22 103.048 85.24 103.108 85.26L102.868 86.475C102.758 86.435 102.573 86.39 102.313 86.34C102.063 86.28 101.738 86.25 101.338 86.25C101.078 86.25 100.818 86.28 100.558 86.34C100.308 86.39 100.143 86.425 100.063 86.445V93H98.6678V85.53C98.9978 85.41 99.4078 85.3 99.8978 85.2C100.388 85.09 100.938 85.035 101.548 85.035ZM109.966 91.995C110.296 91.995 110.586 91.99 110.836 91.98C111.096 91.96 111.311 91.93 111.481 91.89V89.565C111.381 89.515 111.216 89.475 110.986 89.445C110.766 89.405 110.496 89.385 110.176 89.385C109.966 89.385 109.741 89.4 109.501 89.43C109.271 89.46 109.056 89.525 108.856 89.625C108.666 89.715 108.506 89.845 108.376 90.015C108.246 90.175 108.181 90.39 108.181 90.66C108.181 91.16 108.341 91.51 108.661 91.71C108.981 91.9 109.416 91.995 109.966 91.995ZM109.846 85.005C110.406 85.005 110.876 85.08 111.256 85.23C111.646 85.37 111.956 85.575 112.186 85.845C112.426 86.105 112.596 86.42 112.696 86.79C112.796 87.15 112.846 87.55 112.846 87.99V92.865C112.726 92.885 112.556 92.915 112.336 92.955C112.126 92.985 111.886 93.015 111.616 93.045C111.346 93.075 111.051 93.1 110.731 93.12C110.421 93.15 110.111 93.165 109.801 93.165C109.361 93.165 108.956 93.12 108.586 93.03C108.216 92.94 107.896 92.8 107.626 92.61C107.356 92.41 107.146 92.15 106.996 91.83C106.846 91.51 106.771 91.125 106.771 90.675C106.771 90.245 106.856 89.875 107.026 89.565C107.206 89.255 107.446 89.005 107.746 88.815C108.046 88.625 108.396 88.485 108.796 88.395C109.196 88.305 109.616 88.26 110.056 88.26C110.196 88.26 110.341 88.27 110.491 88.29C110.641 88.3 110.781 88.32 110.911 88.35C111.051 88.37 111.171 88.39 111.271 88.41C111.371 88.43 111.441 88.445 111.481 88.455V88.065C111.481 87.835 111.456 87.61 111.406 87.39C111.356 87.16 111.266 86.96 111.136 86.79C111.006 86.61 110.826 86.47 110.596 86.37C110.376 86.26 110.086 86.205 109.726 86.205C109.266 86.205 108.861 86.24 108.511 86.31C108.171 86.37 107.916 86.435 107.746 86.505L107.581 85.35C107.761 85.27 108.061 85.195 108.481 85.125C108.901 85.045 109.356 85.005 109.846 85.005ZM7.575 114C7.295 113.28 6.995 112.46 6.675 111.54C6.365 110.61 6.08 109.645 5.82 108.645C5.56 109.645 5.275 110.61 4.965 111.54C4.655 112.46 4.36 113.28 4.08 114H2.865C2.405 112.97 1.955 111.795 1.515 110.475C1.075 109.155 0.66 107.73 0.27 106.2H1.77C1.87 106.67 1.99 107.18 2.13 107.73C2.27 108.28 2.415 108.83 2.565 109.38C2.725 109.93 2.89 110.46 3.06 110.97C3.23 111.48 3.39 111.925 3.54 112.305C3.71 111.835 3.875 111.34 4.035 110.82C4.205 110.29 4.365 109.76 4.515 109.23C4.665 108.69 4.805 108.165 4.935 107.655C5.075 107.135 5.195 106.65 5.295 106.2H6.45C6.54 106.65 6.65 107.135 6.78 107.655C6.91 108.165 7.05 108.69 7.2 109.23C7.35 109.76 7.505 110.29 7.665 110.82C7.835 111.34 8.005 111.835 8.175 112.305C8.325 111.925 8.48 111.48 8.64 110.97C8.81 110.46 8.975 109.93 9.135 109.38C9.295 108.83 9.445 108.28 9.585 107.73C9.725 107.18 9.845 106.67 9.945 106.2H11.385C10.995 107.73 10.58 109.155 10.14 110.475C9.7 111.795 9.25 112.97 8.79 114H7.575ZM12.1252 110.115C12.1252 109.425 12.2252 108.825 12.4252 108.315C12.6252 107.795 12.8902 107.365 13.2202 107.025C13.5502 106.685 13.9302 106.43 14.3602 106.26C14.7902 106.09 15.2302 106.005 15.6802 106.005C16.7302 106.005 17.5352 106.335 18.0952 106.995C18.6552 107.645 18.9352 108.64 18.9352 109.98C18.9352 110.04 18.9352 110.12 18.9352 110.22C18.9352 110.31 18.9302 110.395 18.9202 110.475H13.5802C13.6402 111.285 13.8752 111.9 14.2852 112.32C14.6952 112.74 15.3352 112.95 16.2052 112.95C16.6952 112.95 17.1052 112.91 17.4352 112.83C17.7752 112.74 18.0302 112.655 18.2002 112.575L18.3952 113.745C18.2252 113.835 17.9252 113.93 17.4952 114.03C17.0752 114.13 16.5952 114.18 16.0552 114.18C15.3752 114.18 14.7852 114.08 14.2852 113.88C13.7952 113.67 13.3902 113.385 13.0702 113.025C12.7502 112.665 12.5102 112.24 12.3502 111.75C12.2002 111.25 12.1252 110.705 12.1252 110.115ZM17.4802 109.35C17.4902 108.72 17.3302 108.205 17.0002 107.805C16.6802 107.395 16.2352 107.19 15.6652 107.19C15.3452 107.19 15.0602 107.255 14.8102 107.385C14.5702 107.505 14.3652 107.665 14.1952 107.865C14.0252 108.065 13.8902 108.295 13.7902 108.555C13.7002 108.815 13.6402 109.08 13.6102 109.35H17.4802ZM25.6791 107.85C25.5091 107.71 25.2641 107.575 24.9441 107.445C24.6241 107.315 24.2741 107.25 23.8941 107.25C23.4941 107.25 23.1491 107.325 22.8591 107.475C22.5791 107.615 22.3491 107.815 22.1691 108.075C21.9891 108.325 21.8591 108.625 21.7791 108.975C21.6991 109.325 21.6591 109.7 21.6591 110.1C21.6591 111.01 21.8841 111.715 22.3341 112.215C22.7841 112.705 23.3841 112.95 24.1341 112.95C24.5141 112.95 24.8291 112.935 25.0791 112.905C25.3391 112.865 25.5391 112.825 25.6791 112.785V107.85ZM25.6791 102.6L27.0741 102.36V113.775C26.7541 113.865 26.3441 113.955 25.8441 114.045C25.3441 114.135 24.7691 114.18 24.1191 114.18C23.5191 114.18 22.9791 114.085 22.4991 113.895C22.0191 113.705 21.6091 113.435 21.2691 113.085C20.9291 112.735 20.6641 112.31 20.4741 111.81C20.2941 111.3 20.2041 110.73 20.2041 110.1C20.2041 109.5 20.2791 108.95 20.4291 108.45C20.5891 107.95 20.8191 107.52 21.1191 107.16C21.4191 106.8 21.7841 106.52 22.2141 106.32C22.6541 106.12 23.1541 106.02 23.7141 106.02C24.1641 106.02 24.5591 106.08 24.8991 106.2C25.2491 106.32 25.5091 106.435 25.6791 106.545V102.6ZM34.2121 107.85C34.0421 107.71 33.7971 107.575 33.4771 107.445C33.1571 107.315 32.8071 107.25 32.4271 107.25C32.0271 107.25 31.6821 107.325 31.3921 107.475C31.1121 107.615 30.8821 107.815 30.7021 108.075C30.5221 108.325 30.3921 108.625 30.3121 108.975C30.2321 109.325 30.1921 109.7 30.1921 110.1C30.1921 111.01 30.4171 111.715 30.8671 112.215C31.3171 112.705 31.9171 112.95 32.6671 112.95C33.0471 112.95 33.3621 112.935 33.6121 112.905C33.8721 112.865 34.0721 112.825 34.2121 112.785V107.85ZM34.2121 102.6L35.6071 102.36V113.775C35.2871 113.865 34.8771 113.955 34.3771 114.045C33.8771 114.135 33.3021 114.18 32.6521 114.18C32.0521 114.18 31.5121 114.085 31.0321 113.895C30.5521 113.705 30.1421 113.435 29.8021 113.085C29.4621 112.735 29.1971 112.31 29.0071 111.81C28.8271 111.3 28.7371 110.73 28.7371 110.1C28.7371 109.5 28.8121 108.95 28.9621 108.45C29.1221 107.95 29.3521 107.52 29.6521 107.16C29.9521 106.8 30.3171 106.52 30.7471 106.32C31.1871 106.12 31.6871 106.02 32.2471 106.02C32.6971 106.02 33.0921 106.08 33.4321 106.2C33.7821 106.32 34.0421 106.435 34.2121 106.545V102.6ZM39.1001 114H37.7051V106.2H39.1001V114ZM38.3951 104.79C38.1451 104.79 37.9301 104.71 37.7501 104.55C37.5801 104.38 37.4951 104.155 37.4951 103.875C37.4951 103.595 37.5801 103.375 37.7501 103.215C37.9301 103.045 38.1451 102.96 38.3951 102.96C38.6451 102.96 38.8551 103.045 39.0251 103.215C39.2051 103.375 39.2951 103.595 39.2951 103.875C39.2951 104.155 39.2051 104.38 39.0251 104.55C38.8551 104.71 38.6451 104.79 38.3951 104.79ZM41.199 106.425C41.519 106.345 41.944 106.26 42.474 106.17C43.004 106.08 43.614 106.035 44.304 106.035C44.924 106.035 45.439 106.125 45.849 106.305C46.259 106.475 46.584 106.72 46.824 107.04C47.074 107.35 47.249 107.725 47.349 108.165C47.449 108.605 47.499 109.09 47.499 109.62V114H46.104V109.92C46.104 109.44 46.069 109.03 45.999 108.69C45.939 108.35 45.834 108.075 45.684 107.865C45.534 107.655 45.334 107.505 45.084 107.415C44.834 107.315 44.524 107.265 44.154 107.265C44.004 107.265 43.849 107.27 43.689 107.28C43.529 107.29 43.374 107.305 43.224 107.325C43.084 107.335 42.954 107.35 42.834 107.37C42.724 107.39 42.644 107.405 42.594 107.415V114H41.199V106.425ZM54.4023 113.22C54.2823 113.3 54.0473 113.405 53.6973 113.535C53.3573 113.655 52.9573 113.715 52.4973 113.715C52.0273 113.715 51.5823 113.64 51.1623 113.49C50.7523 113.34 50.3923 113.11 50.0823 112.8C49.7723 112.48 49.5273 112.085 49.3473 111.615C49.1673 111.145 49.0773 110.585 49.0773 109.935C49.0773 109.365 49.1623 108.845 49.3323 108.375C49.5023 107.895 49.7473 107.485 50.0673 107.145C50.3973 106.795 50.7973 106.525 51.2673 106.335C51.7373 106.135 52.2673 106.035 52.8573 106.035C53.5073 106.035 54.0723 106.085 54.5523 106.185C55.0423 106.275 55.4523 106.36 55.7823 106.44V113.4C55.7823 114.6 55.4723 115.47 54.8523 116.01C54.2323 116.55 53.2923 116.82 52.0323 116.82C51.5423 116.82 51.0773 116.78 50.6373 116.7C50.2073 116.62 49.8323 116.525 49.5123 116.415L49.7673 115.2C50.0473 115.31 50.3873 115.405 50.7873 115.485C51.1973 115.575 51.6223 115.62 52.0623 115.62C52.8923 115.62 53.4873 115.455 53.8473 115.125C54.2173 114.795 54.4023 114.27 54.4023 113.55V113.22ZM54.3873 107.43C54.2473 107.39 54.0573 107.355 53.8173 107.325C53.5873 107.285 53.2723 107.265 52.8723 107.265C52.1223 107.265 51.5423 107.51 51.1323 108C50.7323 108.49 50.5323 109.14 50.5323 109.95C50.5323 110.4 50.5873 110.785 50.6973 111.105C50.8173 111.425 50.9723 111.69 51.1623 111.9C51.3623 112.11 51.5873 112.265 51.8373 112.365C52.0973 112.465 52.3623 112.515 52.6323 112.515C53.0023 112.515 53.3423 112.465 53.6523 112.365C53.9623 112.255 54.2073 112.13 54.3873 111.99V107.43ZM59.3542 112.29C59.3642 112.37 59.3692 112.45 59.3692 112.53C59.3692 112.6 59.3692 112.675 59.3692 112.755C59.3692 113.385 59.2742 114.005 59.0842 114.615C58.9042 115.235 58.6542 115.825 58.3342 116.385L57.2542 116.04C57.5042 115.53 57.6692 115.01 57.7492 114.48C57.8292 113.96 57.8692 113.47 57.8692 113.01C57.8692 112.88 57.8642 112.755 57.8542 112.635C57.8542 112.515 57.8492 112.4 57.8392 112.29H59.3542ZM71.4823 114C71.3123 113.55 71.1523 113.11 71.0023 112.68C70.8523 112.24 70.6973 111.795 70.5373 111.345H65.8273L64.8823 114H63.3673C63.7673 112.9 64.1423 111.885 64.4923 110.955C64.8423 110.015 65.1823 109.125 65.5123 108.285C65.8523 107.445 66.1873 106.645 66.5173 105.885C66.8473 105.115 67.1923 104.355 67.5523 103.605H68.8873C69.2473 104.355 69.5923 105.115 69.9223 105.885C70.2523 106.645 70.5823 107.445 70.9123 108.285C71.2523 109.125 71.5973 110.015 71.9473 110.955C72.2973 111.885 72.6723 112.9 73.0723 114H71.4823ZM70.1173 110.145C69.7973 109.275 69.4773 108.435 69.1573 107.625C68.8473 106.805 68.5223 106.02 68.1823 105.27C67.8323 106.02 67.4973 106.805 67.1773 107.625C66.8673 108.435 66.5573 109.275 66.2473 110.145H70.1173ZM74.0936 106.425C74.4136 106.345 74.8386 106.26 75.3686 106.17C75.8986 106.08 76.5086 106.035 77.1986 106.035C77.8186 106.035 78.3336 106.125 78.7436 106.305C79.1536 106.475 79.4786 106.72 79.7186 107.04C79.9686 107.35 80.1436 107.725 80.2436 108.165C80.3436 108.605 80.3936 109.09 80.3936 109.62V114H78.9986V109.92C78.9986 109.44 78.9636 109.03 78.8936 108.69C78.8336 108.35 78.7286 108.075 78.5786 107.865C78.4286 107.655 78.2286 107.505 77.9786 107.415C77.7286 107.315 77.4186 107.265 77.0486 107.265C76.8986 107.265 76.7436 107.27 76.5836 107.28C76.4236 107.29 76.2686 107.305 76.1186 107.325C75.9786 107.335 75.8486 107.35 75.7286 107.37C75.6186 107.39 75.5386 107.405 75.4886 107.415V114H74.0936V106.425ZM87.4468 107.85C87.2768 107.71 87.0318 107.575 86.7118 107.445C86.3918 107.315 86.0418 107.25 85.6618 107.25C85.2618 107.25 84.9168 107.325 84.6268 107.475C84.3468 107.615 84.1168 107.815 83.9368 108.075C83.7568 108.325 83.6268 108.625 83.5468 108.975C83.4668 109.325 83.4268 109.7 83.4268 110.1C83.4268 111.01 83.6518 111.715 84.1018 112.215C84.5518 112.705 85.1518 112.95 85.9018 112.95C86.2818 112.95 86.5968 112.935 86.8468 112.905C87.1068 112.865 87.3068 112.825 87.4468 112.785V107.85ZM87.4468 102.6L88.8418 102.36V113.775C88.5218 113.865 88.1118 113.955 87.6118 114.045C87.1118 114.135 86.5368 114.18 85.8868 114.18C85.2868 114.18 84.7468 114.085 84.2668 113.895C83.7868 113.705 83.3768 113.435 83.0368 113.085C82.6968 112.735 82.4318 112.31 82.2418 111.81C82.0618 111.3 81.9718 110.73 81.9718 110.1C81.9718 109.5 82.0468 108.95 82.1968 108.45C82.3568 107.95 82.5868 107.52 82.8868 107.16C83.1868 106.8 83.5518 106.52 83.9818 106.32C84.4218 106.12 84.9218 106.02 85.4818 106.02C85.9318 106.02 86.3268 106.08 86.6668 106.2C87.0168 106.32 87.2768 106.435 87.4468 106.545V102.6ZM97.1565 102.36C97.5665 102.36 97.9165 102.39 98.2065 102.45C98.5065 102.51 98.7165 102.565 98.8365 102.615L98.5815 103.815C98.4615 103.755 98.2915 103.7 98.0715 103.65C97.8515 103.59 97.5815 103.56 97.2615 103.56C96.6115 103.56 96.1565 103.74 95.8965 104.1C95.6365 104.45 95.5065 104.925 95.5065 105.525V106.2H98.5065V107.37H95.5065V114H94.1115V105.495C94.1115 104.495 94.3565 103.725 94.8465 103.185C95.3365 102.635 96.1065 102.36 97.1565 102.36ZM106.483 110.1C106.483 110.72 106.393 111.28 106.213 111.78C106.033 112.28 105.778 112.71 105.448 113.07C105.128 113.43 104.743 113.71 104.293 113.91C103.843 114.1 103.353 114.195 102.823 114.195C102.293 114.195 101.803 114.1 101.353 113.91C100.903 113.71 100.513 113.43 100.183 113.07C99.8627 112.71 99.6127 112.28 99.4327 111.78C99.2527 111.28 99.1627 110.72 99.1627 110.1C99.1627 109.49 99.2527 108.935 99.4327 108.435C99.6127 107.925 99.8627 107.49 100.183 107.13C100.513 106.77 100.903 106.495 101.353 106.305C101.803 106.105 102.293 106.005 102.823 106.005C103.353 106.005 103.843 106.105 104.293 106.305C104.743 106.495 105.128 106.77 105.448 107.13C105.778 107.49 106.033 107.925 106.213 108.435C106.393 108.935 106.483 109.49 106.483 110.1ZM105.028 110.1C105.028 109.22 104.828 108.525 104.428 108.015C104.038 107.495 103.503 107.235 102.823 107.235C102.143 107.235 101.603 107.495 101.203 108.015C100.813 108.525 100.618 109.22 100.618 110.1C100.618 110.98 100.813 111.68 101.203 112.2C101.603 112.71 102.143 112.965 102.823 112.965C103.503 112.965 104.038 112.71 104.428 112.2C104.828 111.68 105.028 110.98 105.028 110.1ZM114.355 113.775C114.035 113.855 113.61 113.94 113.08 114.03C112.56 114.12 111.955 114.165 111.265 114.165C110.665 114.165 110.16 114.08 109.75 113.91C109.34 113.73 109.01 113.48 108.76 113.16C108.51 112.84 108.33 112.465 108.22 112.035C108.11 111.595 108.055 111.11 108.055 110.58V106.2H109.45V110.28C109.45 111.23 109.6 111.91 109.9 112.32C110.2 112.73 110.705 112.935 111.415 112.935C111.565 112.935 111.72 112.93 111.88 112.92C112.04 112.91 112.19 112.9 112.33 112.89C112.47 112.87 112.595 112.855 112.705 112.845C112.825 112.825 112.91 112.805 112.96 112.785V106.2H114.355V113.775ZM119.339 106.035C119.459 106.035 119.594 106.045 119.744 106.065C119.904 106.075 120.059 106.095 120.209 106.125C120.359 106.145 120.494 106.17 120.614 106.2C120.744 106.22 120.839 106.24 120.899 106.26L120.659 107.475C120.549 107.435 120.364 107.39 120.104 107.34C119.854 107.28 119.529 107.25 119.129 107.25C118.869 107.25 118.609 107.28 118.349 107.34C118.099 107.39 117.934 107.425 117.854 107.445V114H116.459V106.53C116.789 106.41 117.199 106.3 117.689 106.2C118.179 106.09 118.729 106.035 119.339 106.035ZM128.161 102.36C128.571 102.36 128.921 102.39 129.211 102.45C129.511 102.51 129.721 102.565 129.841 102.615L129.586 103.815C129.466 103.755 129.296 103.7 129.076 103.65C128.856 103.59 128.586 103.56 128.266 103.56C127.616 103.56 127.161 103.74 126.901 104.1C126.641 104.45 126.511 104.925 126.511 105.525V106.2H129.511V107.37H126.511V114H125.116V105.495C125.116 104.495 125.361 103.725 125.851 103.185C126.341 102.635 127.111 102.36 128.161 102.36ZM137.488 110.1C137.488 110.72 137.398 111.28 137.218 111.78C137.038 112.28 136.783 112.71 136.453 113.07C136.133 113.43 135.748 113.71 135.298 113.91C134.848 114.1 134.358 114.195 133.828 114.195C133.298 114.195 132.808 114.1 132.358 113.91C131.908 113.71 131.518 113.43 131.188 113.07C130.868 112.71 130.618 112.28 130.438 111.78C130.258 111.28 130.168 110.72 130.168 110.1C130.168 109.49 130.258 108.935 130.438 108.435C130.618 107.925 130.868 107.49 131.188 107.13C131.518 106.77 131.908 106.495 132.358 106.305C132.808 106.105 133.298 106.005 133.828 106.005C134.358 106.005 134.848 106.105 135.298 106.305C135.748 106.495 136.133 106.77 136.453 107.13C136.783 107.49 137.038 107.925 137.218 108.435C137.398 108.935 137.488 109.49 137.488 110.1ZM136.033 110.1C136.033 109.22 135.833 108.525 135.433 108.015C135.043 107.495 134.508 107.235 133.828 107.235C133.148 107.235 132.608 107.495 132.208 108.015C131.818 108.525 131.623 109.22 131.623 110.1C131.623 110.98 131.818 111.68 132.208 112.2C132.608 112.71 133.148 112.965 133.828 112.965C134.508 112.965 135.043 112.71 135.433 112.2C135.833 111.68 136.033 110.98 136.033 110.1ZM142.03 106.035C142.15 106.035 142.285 106.045 142.435 106.065C142.595 106.075 142.75 106.095 142.9 106.125C143.05 106.145 143.185 106.17 143.305 106.2C143.435 106.22 143.53 106.24 143.59 106.26L143.35 107.475C143.24 107.435 143.055 107.39 142.795 107.34C142.545 107.28 142.22 107.25 141.82 107.25C141.56 107.25 141.3 107.28 141.04 107.34C140.79 107.39 140.625 107.425 140.545 107.445V114H139.15V106.53C139.48 106.41 139.89 106.3 140.38 106.2C140.87 106.09 141.42 106.035 142.03 106.035ZM6.24 128.85C6.07 128.71 5.825 128.575 5.505 128.445C5.185 128.315 4.835 128.25 4.455 128.25C4.055 128.25 3.71 128.325 3.42 128.475C3.14 128.615 2.91 128.815 2.73 129.075C2.55 129.325 2.42 129.625 2.34 129.975C2.26 130.325 2.22 130.7 2.22 131.1C2.22 132.01 2.445 132.715 2.895 133.215C3.345 133.705 3.945 133.95 4.695 133.95C5.075 133.95 5.39 133.935 5.64 133.905C5.9 133.865 6.1 133.825 6.24 133.785V128.85ZM6.24 123.6L7.635 123.36V134.775C7.315 134.865 6.905 134.955 6.405 135.045C5.905 135.135 5.33 135.18 4.68 135.18C4.08 135.18 3.54 135.085 3.06 134.895C2.58 134.705 2.17 134.435 1.83 134.085C1.49 133.735 1.225 133.31 1.035 132.81C0.855 132.3 0.765 131.73 0.765 131.1C0.765 130.5 0.84 129.95 0.99 129.45C1.15 128.95 1.38 128.52 1.68 128.16C1.98 127.8 2.345 127.52 2.775 127.32C3.215 127.12 3.715 127.02 4.275 127.02C4.725 127.02 5.12 127.08 5.46 127.2C5.81 127.32 6.07 127.435 6.24 127.545V123.6ZM9.29801 131.115C9.29801 130.425 9.39801 129.825 9.59801 129.315C9.79801 128.795 10.063 128.365 10.393 128.025C10.723 127.685 11.103 127.43 11.533 127.26C11.963 127.09 12.403 127.005 12.853 127.005C13.903 127.005 14.708 127.335 15.268 127.995C15.828 128.645 16.108 129.64 16.108 130.98C16.108 131.04 16.108 131.12 16.108 131.22C16.108 131.31 16.103 131.395 16.093 131.475H10.753C10.813 132.285 11.048 132.9 11.458 133.32C11.868 133.74 12.508 133.95 13.378 133.95C13.868 133.95 14.278 133.91 14.608 133.83C14.948 133.74 15.203 133.655 15.373 133.575L15.568 134.745C15.398 134.835 15.098 134.93 14.668 135.03C14.248 135.13 13.768 135.18 13.228 135.18C12.548 135.18 11.958 135.08 11.458 134.88C10.968 134.67 10.563 134.385 10.243 134.025C9.92301 133.665 9.68301 133.24 9.52301 132.75C9.37301 132.25 9.29801 131.705 9.29801 131.115ZM14.653 130.35C14.663 129.72 14.503 129.205 14.173 128.805C13.853 128.395 13.408 128.19 12.838 128.19C12.518 128.19 12.233 128.255 11.983 128.385C11.743 128.505 11.538 128.665 11.368 128.865C11.198 129.065 11.063 129.295 10.963 129.555C10.873 129.815 10.813 130.08 10.783 130.35H14.653ZM20.4519 133.995C20.7819 133.995 21.0719 133.99 21.3219 133.98C21.5819 133.96 21.7969 133.93 21.9669 133.89V131.565C21.8669 131.515 21.7019 131.475 21.4719 131.445C21.2519 131.405 20.9819 131.385 20.6619 131.385C20.4519 131.385 20.2269 131.4 19.9869 131.43C19.7569 131.46 19.5419 131.525 19.3419 131.625C19.1519 131.715 18.9919 131.845 18.8619 132.015C18.7319 132.175 18.6669 132.39 18.6669 132.66C18.6669 133.16 18.8269 133.51 19.1469 133.71C19.4669 133.9 19.9019 133.995 20.4519 133.995ZM20.3319 127.005C20.8919 127.005 21.3619 127.08 21.7419 127.23C22.1319 127.37 22.4419 127.575 22.6719 127.845C22.9119 128.105 23.0819 128.42 23.1819 128.79C23.2819 129.15 23.3319 129.55 23.3319 129.99V134.865C23.2119 134.885 23.0419 134.915 22.8219 134.955C22.6119 134.985 22.3719 135.015 22.1019 135.045C21.8319 135.075 21.5369 135.1 21.2169 135.12C20.9069 135.15 20.5969 135.165 20.2869 135.165C19.8469 135.165 19.4419 135.12 19.0719 135.03C18.7019 134.94 18.3819 134.8 18.1119 134.61C17.8419 134.41 17.6319 134.15 17.4819 133.83C17.3319 133.51 17.2569 133.125 17.2569 132.675C17.2569 132.245 17.3419 131.875 17.5119 131.565C17.6919 131.255 17.9319 131.005 18.2319 130.815C18.5319 130.625 18.8819 130.485 19.2819 130.395C19.6819 130.305 20.1019 130.26 20.5419 130.26C20.6819 130.26 20.8269 130.27 20.9769 130.29C21.1269 130.3 21.2669 130.32 21.3969 130.35C21.5369 130.37 21.6569 130.39 21.7569 130.41C21.8569 130.43 21.9269 130.445 21.9669 130.455V130.065C21.9669 129.835 21.9419 129.61 21.8919 129.39C21.8419 129.16 21.7519 128.96 21.6219 128.79C21.4919 128.61 21.3119 128.47 21.0819 128.37C20.8619 128.26 20.5719 128.205 20.2119 128.205C19.7519 128.205 19.3469 128.24 18.9969 128.31C18.6569 128.37 18.4019 128.435 18.2319 128.505L18.0669 127.35C18.2469 127.27 18.5469 127.195 18.9669 127.125C19.3869 127.045 19.8419 127.005 20.3319 127.005ZM26.6538 127.2H29.6088V128.37H26.6538V131.97C26.6538 132.36 26.6838 132.685 26.7438 132.945C26.8038 133.195 26.8938 133.395 27.0138 133.545C27.1338 133.685 27.2838 133.785 27.4638 133.845C27.6438 133.905 27.8538 133.935 28.0938 133.935C28.5138 133.935 28.8488 133.89 29.0988 133.8C29.3588 133.7 29.5388 133.63 29.6388 133.59L29.9088 134.745C29.7688 134.815 29.5238 134.9 29.1738 135C28.8238 135.11 28.4238 135.165 27.9738 135.165C27.4438 135.165 27.0038 135.1 26.6538 134.97C26.3138 134.83 26.0388 134.625 25.8288 134.355C25.6188 134.085 25.4688 133.755 25.3788 133.365C25.2988 132.965 25.2588 132.505 25.2588 131.985V125.025L26.6538 124.785V127.2ZM31.084 135V123.6L32.479 123.36V127.35C32.739 127.25 33.014 127.175 33.304 127.125C33.604 127.065 33.899 127.035 34.189 127.035C34.809 127.035 35.324 127.125 35.734 127.305C36.144 127.475 36.469 127.72 36.709 128.04C36.959 128.35 37.134 128.725 37.234 129.165C37.334 129.605 37.384 130.09 37.384 130.62V135H35.989V130.92C35.989 130.44 35.954 130.03 35.884 129.69C35.824 129.35 35.719 129.075 35.569 128.865C35.419 128.655 35.219 128.505 34.969 128.415C34.719 128.315 34.409 128.265 34.039 128.265C33.889 128.265 33.734 128.275 33.574 128.295C33.414 128.315 33.259 128.34 33.109 128.37C32.969 128.39 32.839 128.415 32.719 128.445C32.609 128.475 32.529 128.5 32.479 128.52V135H31.084Z" fill="#2A2921"/>
</svg>
