<svg width="170" height="136" viewBox="0 0 170 136" fill="none" xmlns="http://www.w3.org/2000/svg">
<path d="M12.64 28.2L6.24 20.02C6.06667 19.7933 5.88667 19.5533 5.7 19.3C5.51333 19.0467 5.32667 18.7867 5.14 18.52H5.12L5.16 24.72C5.16 25.08 5.15333 25.4267 5.14 25.76C5.12667 26.0933 5.10667 26.3467 5.08 26.52C5.29333 26.4933 5.56 26.48 5.88 26.48C6.21333 26.4667 6.44667 26.46 6.58 26.46V28H2.02V26.68C2.32667 26.6667 2.58 26.6267 2.78 26.56C2.99333 26.4933 3.15333 26.34 3.26 26.1C3.38 25.86 3.44 25.4733 3.44 24.94L3.4 17.28C3.4 16.92 3.40667 16.5733 3.42 16.24C3.43333 15.9067 3.45333 15.6533 3.48 15.48C3.26667 15.4933 2.99333 15.5067 2.66 15.52C2.34 15.52 2.10667 15.5267 1.96 15.54V14H5.1L11.22 21.72C11.5533 22.1467 11.8267 22.5133 12.04 22.82C12.2667 23.1267 12.46 23.3933 12.62 23.62H12.64V17.28C12.64 16.92 12.6467 16.5733 12.66 16.24C12.6733 15.9067 12.6867 15.6533 12.7 15.48C12.4867 15.4933 12.22 15.5067 11.9 15.52C11.58 15.52 11.3467 15.5267 11.2 15.54V14H15.76V15.32C15.4667 15.3333 15.2133 15.3733 15 15.44C14.7867 15.5067 14.62 15.66 14.5 15.9C14.3933 16.1267 14.34 16.5133 14.34 17.06V28.2H12.64ZM20.56 28.32C19.36 28.32 18.5067 27.9667 18 27.26C17.4933 26.5533 17.24 25.4333 17.24 23.9V21.6C17.24 21.36 17.2467 21.0867 17.26 20.78C17.2733 20.46 17.2867 20.1533 17.3 19.86C17.0867 19.8733 16.8333 19.8867 16.54 19.9C16.26 19.9 16.0467 19.9067 15.9 19.92V18.4H16.1C16.9267 18.4 17.58 18.3333 18.06 18.2C18.54 18.0667 18.8467 17.9333 18.98 17.8H20.08V23.92C20.08 24.7867 20.1933 25.4333 20.42 25.86C20.6467 26.2733 21.0067 26.48 21.5 26.48C21.8467 26.48 22.1933 26.3867 22.54 26.2C22.9 26 23.1933 25.7733 23.42 25.52V21.6C23.42 21.36 23.4267 21.0867 23.44 20.78C23.4533 20.46 23.4733 20.1533 23.5 19.86C23.2867 19.8733 23.0333 19.8867 22.74 19.9C22.46 19.9 22.2467 19.9067 22.1 19.92V18.4H22.58C23.2067 18.4 23.76 18.3333 24.24 18.2C24.72 18.0533 25.0267 17.92 25.16 17.8H26.26V24.78C26.26 24.9667 26.2533 25.2333 26.24 25.58C26.2267 25.9133 26.2067 26.2333 26.18 26.54C26.3933 26.5133 26.6267 26.5 26.88 26.5C27.1467 26.4867 27.3467 26.48 27.48 26.48V28H23.68C23.6667 27.8267 23.6467 27.6533 23.62 27.48C23.6067 27.3067 23.5867 27.1333 23.56 26.96C23.1467 27.3067 22.7 27.62 22.22 27.9C21.7533 28.18 21.2 28.32 20.56 28.32ZM28.3833 26.7C28.9299 26.7 29.2633 26.54 29.3833 26.22C29.5033 25.8867 29.5633 25.4533 29.5633 24.92V21.56C29.5633 21.32 29.5699 21.0533 29.5833 20.76C29.5966 20.4533 29.6166 20.1533 29.6433 19.86C29.4299 19.8733 29.1766 19.8867 28.8833 19.9C28.6033 19.9 28.3899 19.9067 28.2433 19.92V18.4H29.0433C29.5633 18.4 30.0366 18.3333 30.4633 18.2C30.9033 18.0667 31.1899 17.9333 31.3233 17.8H32.3033C32.3299 17.9333 32.3499 18.1867 32.3633 18.56C32.3766 18.92 32.3833 19.24 32.3833 19.52C32.9166 18.8533 33.4166 18.38 33.8833 18.1C34.3499 17.82 34.8233 17.68 35.3033 17.68C35.7699 17.68 36.1766 17.8133 36.5233 18.08C36.8699 18.3333 37.0433 18.7533 37.0433 19.34C37.0433 19.54 36.9966 19.7533 36.9033 19.98C36.8099 20.1933 36.6633 20.3733 36.4633 20.52C36.2633 20.6667 35.9899 20.74 35.6433 20.74C35.3766 20.74 35.1033 20.66 34.8233 20.5C34.5433 20.34 34.3833 20.0333 34.3433 19.58C34.0766 19.58 33.8099 19.6933 33.5433 19.92C33.2766 20.1333 33.0366 20.3933 32.8233 20.7C32.6233 20.9933 32.4833 21.2667 32.4033 21.52V24.78C32.4033 24.9667 32.3966 25.2333 32.3833 25.58C32.3699 25.9133 32.3499 26.2333 32.3233 26.54C32.5366 26.5133 32.7699 26.5 33.0233 26.5C33.2899 26.4867 33.4899 26.48 33.6233 26.48V28H28.3833V26.7ZM42.1145 28.32C41.5412 28.32 40.9812 28.2467 40.4345 28.1C39.8879 27.9533 39.4612 27.7667 39.1545 27.54L39.1945 28.14H37.6745L37.5945 24.7H38.8945C38.9612 25.3133 39.2812 25.8333 39.8545 26.26C40.4279 26.6733 41.1412 26.88 41.9945 26.88C42.3279 26.88 42.6412 26.8 42.9345 26.64C43.2279 26.48 43.3745 26.2267 43.3745 25.88C43.3612 25.4933 43.1545 25.2067 42.7545 25.02C42.3679 24.8333 41.8012 24.5933 41.0545 24.3C40.6412 24.14 40.2212 23.9733 39.7945 23.8C39.3812 23.6267 38.9945 23.42 38.6345 23.18C38.2879 22.9267 38.0079 22.62 37.7945 22.26C37.5812 21.8867 37.4745 21.4333 37.4745 20.9C37.4745 20.38 37.6012 19.8733 37.8545 19.38C38.1212 18.8867 38.5345 18.48 39.0945 18.16C39.6545 17.84 40.3679 17.68 41.2345 17.68C41.5945 17.68 42.0012 17.74 42.4545 17.86C42.9212 17.9667 43.3145 18.1333 43.6345 18.36V17.78H45.1545V21.32H43.8545C43.7345 20.6267 43.4279 20.08 42.9345 19.68C42.4412 19.28 41.8345 19.08 41.1145 19.08C40.7812 19.08 40.4745 19.16 40.1945 19.32C39.9279 19.48 39.7945 19.7533 39.7945 20.14C39.7945 20.4467 39.9012 20.6933 40.1145 20.88C40.3279 21.0533 40.6212 21.2 40.9945 21.32C41.3679 21.44 41.7812 21.58 42.2345 21.74C42.9145 21.9667 43.5145 22.2333 44.0345 22.54C44.5679 22.8467 44.9879 23.22 45.2945 23.66C45.6012 24.0867 45.7545 24.6133 45.7545 25.24C45.7545 25.9333 45.5812 26.5067 45.2345 26.96C44.8879 27.4133 44.4345 27.7533 43.8745 27.98C43.3279 28.2067 42.7412 28.32 42.1145 28.32ZM51.5616 28.32C50.5882 28.32 49.7282 28.1067 48.9816 27.68C48.2349 27.24 47.6549 26.6267 47.2416 25.84C46.8282 25.04 46.6216 24.1 46.6216 23.02C46.6216 22.0867 46.8282 21.2133 47.2416 20.4C47.6549 19.5867 48.2349 18.9333 48.9816 18.44C49.7416 17.9333 50.6216 17.68 51.6216 17.68C52.1816 17.68 52.7282 17.76 53.2616 17.92C53.7949 18.0667 54.2749 18.3267 54.7016 18.7C55.1416 19.0733 55.4882 19.58 55.7416 20.22C56.0082 20.86 56.1349 21.66 56.1216 22.62L49.5616 22.74C49.5616 23.46 49.6482 24.1067 49.8216 24.68C50.0082 25.2533 50.3082 25.7067 50.7216 26.04C51.1349 26.3733 51.6882 26.54 52.3816 26.54C52.7816 26.54 53.2549 26.4333 53.8016 26.22C54.3616 25.9933 54.8682 25.6 55.3216 25.04L56.2216 25.88C55.7416 26.56 55.2282 27.08 54.6816 27.44C54.1349 27.7867 53.5882 28.02 53.0416 28.14C52.5082 28.26 52.0149 28.32 51.5616 28.32ZM49.6816 21.34H53.3616C53.3482 20.5133 53.1882 19.9333 52.8816 19.6C52.5749 19.2533 52.1882 19.08 51.7216 19.08C51.1349 19.08 50.6749 19.2933 50.3416 19.72C50.0082 20.1333 49.7882 20.6733 49.6816 21.34ZM57.1833 26.7C57.7299 26.7 58.0633 26.54 58.1833 26.22C58.3033 25.8867 58.3633 25.4533 58.3633 24.92V21.56C58.3633 21.32 58.3699 21.0533 58.3833 20.76C58.3966 20.4533 58.4166 20.1533 58.4433 19.86C58.2299 19.8733 57.9766 19.8867 57.6833 19.9C57.4033 19.9 57.1899 19.9067 57.0433 19.92V18.4H57.8433C58.3633 18.4 58.8366 18.3333 59.2633 18.2C59.7033 18.0667 59.9899 17.9333 60.1233 17.8H61.1033C61.1299 17.9333 61.1499 18.1867 61.1633 18.56C61.1766 18.92 61.1833 19.24 61.1833 19.52C61.7166 18.8533 62.2166 18.38 62.6833 18.1C63.1499 17.82 63.6233 17.68 64.1033 17.68C64.5699 17.68 64.9766 17.8133 65.3233 18.08C65.6699 18.3333 65.8433 18.7533 65.8433 19.34C65.8433 19.54 65.7966 19.7533 65.7033 19.98C65.6099 20.1933 65.4633 20.3733 65.2633 20.52C65.0633 20.6667 64.7899 20.74 64.4433 20.74C64.1766 20.74 63.9033 20.66 63.6233 20.5C63.3433 20.34 63.1833 20.0333 63.1433 19.58C62.8766 19.58 62.6099 19.6933 62.3433 19.92C62.0766 20.1333 61.8366 20.3933 61.6233 20.7C61.4233 20.9933 61.2833 21.2667 61.2033 21.52V24.78C61.2033 24.9667 61.1966 25.2333 61.1833 25.58C61.1699 25.9133 61.1499 26.2333 61.1233 26.54C61.3366 26.5133 61.5699 26.5 61.8233 26.5C62.0899 26.4867 62.2899 26.48 62.4233 26.48V28H57.1833V26.7ZM68.7866 33.42C68.2799 33.42 67.8466 33.2667 67.4866 32.96C67.1399 32.6667 66.9666 32.2733 66.9666 31.78C66.9666 31.42 67.0799 31.1 67.3066 30.82C67.5466 30.5533 67.8532 30.4133 68.2266 30.4C68.5199 30.3867 68.7666 30.48 68.9666 30.68C69.1799 30.8933 69.2866 31.18 69.2866 31.54C69.2866 31.58 69.2866 31.62 69.2866 31.66C69.2866 31.7 69.2799 31.7467 69.2666 31.8C69.2932 31.8 69.3266 31.7933 69.3666 31.78C69.6066 31.7 69.8732 31.3533 70.1666 30.74C70.4732 30.1133 70.7399 29.3733 70.9666 28.52L67.8066 22.18C67.4332 21.4333 67.1866 20.8733 67.0666 20.5C66.9599 20.1133 66.8866 19.7733 66.8466 19.48L65.9266 19.52V18H70.9066V19.28C70.4132 19.3333 70.1399 19.52 70.0866 19.84C70.0466 20.16 70.1066 20.4933 70.2666 20.84L72.2266 25.32C72.3599 24.9733 72.5332 24.44 72.7466 23.72C72.9599 22.9867 73.2132 22.1933 73.5066 21.34C73.5866 21.0867 73.6999 20.7667 73.8466 20.38C74.0066 19.98 74.1732 19.6733 74.3466 19.46L73.2066 19.52V18H76.7666V19.28C76.3532 19.3733 76.0066 19.6267 75.7266 20.04C75.4599 20.4533 75.2199 20.96 75.0066 21.56L72.5066 28.7C72.1332 29.78 71.7799 30.6667 71.4466 31.36C71.1132 32.0667 70.7399 32.5867 70.3266 32.92C69.9132 33.2533 69.3999 33.42 68.7866 33.42ZM82.2961 28V26.68C82.6028 26.6667 82.8561 26.6267 83.0561 26.56C83.2694 26.4933 83.4294 26.34 83.5361 26.1C83.6561 25.86 83.7161 25.4733 83.7161 24.94V17.28C83.7161 16.92 83.7228 16.5733 83.7361 16.24C83.7628 15.9067 83.7828 15.6533 83.7961 15.48C83.5828 15.4933 83.3161 15.5067 82.9961 15.52C82.6761 15.52 82.4428 15.5267 82.2961 15.54V14C83.2428 13.9867 84.1894 13.98 85.1361 13.98C86.0828 13.98 87.0294 13.9733 87.9761 13.96C89.1494 13.9467 90.1694 14.08 91.0361 14.36C91.9028 14.64 92.5694 15.0933 93.0361 15.72C93.5028 16.3467 93.7228 17.1933 93.6961 18.26C93.6694 19.1133 93.3694 19.8867 92.7961 20.58C92.2228 21.2733 91.3494 21.7867 90.1761 22.12C90.4294 22.2267 90.6761 22.4 90.9161 22.64C91.1694 22.88 91.3828 23.1333 91.5561 23.4L92.4961 24.8C92.9361 25.48 93.3028 25.96 93.5961 26.24C93.9028 26.5067 94.2828 26.6533 94.7361 26.68V28H91.4361C91.1961 27.8267 90.9561 27.58 90.7161 27.26C90.4894 26.9267 90.2428 26.5467 89.9761 26.12L88.4961 23.72C88.1628 23.1867 87.8828 22.8 87.6561 22.56H86.6161V24.7C86.6161 25.0733 86.6094 25.4267 86.5961 25.76C86.5828 26.0933 86.5628 26.3467 86.5361 26.52C86.6828 26.5067 86.8694 26.5 87.0961 26.5C87.3228 26.4867 87.5428 26.48 87.7561 26.48C87.9828 26.4667 88.1428 26.46 88.2361 26.46V28H82.2961ZM87.5761 21.12C88.6828 21.12 89.4761 20.8733 89.9561 20.38C90.4361 19.8733 90.6761 19.1133 90.6761 18.1C90.6761 17.46 90.5761 16.96 90.3761 16.6C90.1761 16.2267 89.9228 15.9533 89.6161 15.78C89.3228 15.5933 89.0228 15.48 88.7161 15.44C88.4094 15.3867 88.1561 15.36 87.9561 15.36C87.5428 15.36 87.2161 15.4467 86.9761 15.62C86.7361 15.7933 86.6161 16.2333 86.6161 16.94V21.04C86.7628 21.0533 86.9161 21.0733 87.0761 21.1C87.2361 21.1133 87.4028 21.12 87.5761 21.12ZM101.387 26.7C101.947 26.7 102.287 26.54 102.407 26.22C102.527 25.8867 102.587 25.4533 102.587 24.92L102.567 22.08C102.567 20.3733 102.027 19.52 100.947 19.52C100.614 19.52 100.28 19.5933 99.947 19.74C99.627 19.8867 99.3537 20.06 99.127 20.26V24.78C99.127 24.9667 99.1204 25.2333 99.107 25.58C99.0937 25.9133 99.0737 26.2333 99.047 26.54C99.2737 26.5133 99.5137 26.5 99.767 26.5C100.02 26.4867 100.214 26.48 100.347 26.48V28H95.107V26.7C95.667 26.7 96.0004 26.54 96.107 26.22C96.227 25.8867 96.287 25.4533 96.287 24.92V16.7C96.287 16.46 96.2937 16.1867 96.307 15.88C96.3204 15.56 96.3404 15.2533 96.367 14.96C96.1537 14.9733 95.9004 14.9867 95.607 15C95.327 15 95.1137 15.0067 94.967 15.02V13.5C95.9004 13.5 96.6137 13.4333 97.107 13.3C97.6004 13.1667 97.9137 13.0333 98.047 12.9H99.127V18.8C99.3937 18.5867 99.7004 18.4 100.047 18.24C100.394 18.0667 100.747 17.9333 101.107 17.84C101.467 17.7333 101.78 17.68 102.047 17.68C103.274 17.68 104.14 18.0333 104.647 18.74C105.154 19.4333 105.414 20.5533 105.427 22.1V24.78C105.427 24.9667 105.42 25.2333 105.407 25.58C105.394 25.9133 105.374 26.2333 105.347 26.54C105.56 26.5133 105.794 26.5 106.047 26.5C106.3 26.4867 106.5 26.48 106.647 26.48V28H101.387V26.7ZM109.276 33.42C108.77 33.42 108.336 33.2667 107.976 32.96C107.63 32.6667 107.456 32.2733 107.456 31.78C107.456 31.42 107.57 31.1 107.796 30.82C108.036 30.5533 108.343 30.4133 108.716 30.4C109.01 30.3867 109.256 30.48 109.456 30.68C109.67 30.8933 109.776 31.18 109.776 31.54C109.776 31.58 109.776 31.62 109.776 31.66C109.776 31.7 109.77 31.7467 109.756 31.8C109.783 31.8 109.816 31.7933 109.856 31.78C110.096 31.7 110.363 31.3533 110.656 30.74C110.963 30.1133 111.23 29.3733 111.456 28.52L108.296 22.18C107.923 21.4333 107.676 20.8733 107.556 20.5C107.45 20.1133 107.376 19.7733 107.336 19.48L106.416 19.52V18H111.396V19.28C110.903 19.3333 110.63 19.52 110.576 19.84C110.536 20.16 110.596 20.4933 110.756 20.84L112.716 25.32C112.85 24.9733 113.023 24.44 113.236 23.72C113.45 22.9867 113.703 22.1933 113.996 21.34C114.076 21.0867 114.19 20.7667 114.336 20.38C114.496 19.98 114.663 19.6733 114.836 19.46L113.696 19.52V18H117.256V19.28C116.843 19.3733 116.496 19.6267 116.216 20.04C115.95 20.4533 115.71 20.96 115.496 21.56L112.996 28.7C112.623 29.78 112.27 30.6667 111.936 31.36C111.603 32.0667 111.23 32.5867 110.816 32.92C110.403 33.2533 109.89 33.42 109.276 33.42ZM117.752 28V26.7C118.299 26.7 118.632 26.54 118.752 26.22C118.872 25.8867 118.932 25.4533 118.932 24.92V21.56C118.932 21.32 118.939 21.0533 118.952 20.76C118.965 20.4533 118.985 20.1533 119.012 19.86C118.799 19.8733 118.545 19.8867 118.252 19.9C117.972 19.9 117.759 19.9067 117.612 19.92V18.4C118.532 18.4 119.239 18.3333 119.732 18.2C120.239 18.0667 120.559 17.9333 120.692 17.8H121.672C121.699 17.9333 121.712 18.1 121.712 18.3C121.725 18.5 121.739 18.6667 121.752 18.8C122.205 18.4533 122.692 18.18 123.212 17.98C123.745 17.78 124.245 17.68 124.712 17.68C125.325 17.68 125.832 17.7933 126.232 18.02C126.632 18.2333 126.952 18.56 127.192 19C127.672 18.6 128.199 18.28 128.772 18.04C129.359 17.8 129.919 17.68 130.452 17.68C131.532 17.68 132.345 17.9933 132.892 18.62C133.452 19.2333 133.732 20.3067 133.732 21.84V24.78C133.732 24.9667 133.725 25.2333 133.712 25.58C133.699 25.9133 133.679 26.2333 133.652 26.54C133.865 26.5133 134.099 26.5 134.352 26.5C134.619 26.4867 134.819 26.48 134.952 26.48V28H129.892V26.7C130.359 26.7 130.639 26.54 130.732 26.22C130.839 25.8867 130.892 25.4533 130.892 24.92V21.86C130.879 20.9933 130.732 20.3933 130.452 20.06C130.185 19.7267 129.825 19.5533 129.372 19.54C129.025 19.5267 128.699 19.5867 128.392 19.72C128.099 19.8533 127.832 20.0133 127.592 20.2C127.712 20.7333 127.772 21.3667 127.772 22.1V24.78C127.772 24.9667 127.765 25.2333 127.752 25.58C127.739 25.9133 127.719 26.2333 127.692 26.54C127.905 26.5133 128.139 26.5 128.392 26.5C128.645 26.4867 128.845 26.48 128.992 26.48V28H123.832V26.7C124.339 26.7 124.645 26.54 124.752 26.22C124.872 25.8867 124.932 25.4533 124.932 24.92L124.912 21.8C124.912 20.9333 124.785 20.34 124.532 20.02C124.279 19.7 123.925 19.5333 123.472 19.52C123.139 19.52 122.825 19.5933 122.532 19.74C122.252 19.8867 121.999 20.06 121.772 20.26V24.78C121.772 24.9667 121.765 25.2333 121.752 25.58C121.739 25.9133 121.719 26.2333 121.692 26.54C121.905 26.5133 122.125 26.5 122.352 26.5C122.579 26.4867 122.759 26.48 122.892 26.48V28H117.752ZM140.49 28.32C139.517 28.32 138.657 28.1067 137.91 27.68C137.164 27.24 136.584 26.6267 136.17 25.84C135.757 25.04 135.55 24.1 135.55 23.02C135.55 22.0867 135.757 21.2133 136.17 20.4C136.584 19.5867 137.164 18.9333 137.91 18.44C138.67 17.9333 139.55 17.68 140.55 17.68C141.11 17.68 141.657 17.76 142.19 17.92C142.724 18.0667 143.204 18.3267 143.63 18.7C144.07 19.0733 144.417 19.58 144.67 20.22C144.937 20.86 145.064 21.66 145.05 22.62L138.49 22.74C138.49 23.46 138.577 24.1067 138.75 24.68C138.937 25.2533 139.237 25.7067 139.65 26.04C140.064 26.3733 140.617 26.54 141.31 26.54C141.71 26.54 142.184 26.4333 142.73 26.22C143.29 25.9933 143.797 25.6 144.25 25.04L145.15 25.88C144.67 26.56 144.157 27.08 143.61 27.44C143.064 27.7867 142.517 28.02 141.97 28.14C141.437 28.26 140.944 28.32 140.49 28.32ZM138.61 21.34H142.29C142.277 20.5133 142.117 19.9333 141.81 19.6C141.504 19.2533 141.117 19.08 140.65 19.08C140.064 19.08 139.604 19.2933 139.27 19.72C138.937 20.1333 138.717 20.6733 138.61 21.34ZM150.712 28.32C150.139 28.32 149.579 28.2467 149.032 28.1C148.486 27.9533 148.059 27.7667 147.752 27.54L147.792 28.14H146.272L146.192 24.7H147.492C147.559 25.3133 147.879 25.8333 148.452 26.26C149.026 26.6733 149.739 26.88 150.592 26.88C150.926 26.88 151.239 26.8 151.532 26.64C151.826 26.48 151.972 26.2267 151.972 25.88C151.959 25.4933 151.752 25.2067 151.352 25.02C150.966 24.8333 150.399 24.5933 149.652 24.3C149.239 24.14 148.819 23.9733 148.392 23.8C147.979 23.6267 147.592 23.42 147.232 23.18C146.886 22.9267 146.606 22.62 146.392 22.26C146.179 21.8867 146.072 21.4333 146.072 20.9C146.072 20.38 146.199 19.8733 146.452 19.38C146.719 18.8867 147.132 18.48 147.692 18.16C148.252 17.84 148.966 17.68 149.832 17.68C150.192 17.68 150.599 17.74 151.052 17.86C151.519 17.9667 151.912 18.1333 152.232 18.36V17.78H153.752V21.32H152.452C152.332 20.6267 152.026 20.08 151.532 19.68C151.039 19.28 150.432 19.08 149.712 19.08C149.379 19.08 149.072 19.16 148.792 19.32C148.526 19.48 148.392 19.7533 148.392 20.14C148.392 20.4467 148.499 20.6933 148.712 20.88C148.926 21.0533 149.219 21.2 149.592 21.32C149.966 21.44 150.379 21.58 150.832 21.74C151.512 21.9667 152.112 22.2333 152.632 22.54C153.166 22.8467 153.586 23.22 153.892 23.66C154.199 24.0867 154.352 24.6133 154.352 25.24C154.352 25.9333 154.179 26.5067 153.832 26.96C153.486 27.4133 153.032 27.7533 152.472 27.98C151.926 28.2067 151.339 28.32 150.712 28.32Z" fill="#2A2921"/>
<path d="M6.175 62.165C5.205 62.165 4.37 61.93 3.67 61.46C2.98 60.98 2.455 60.315 2.095 59.465C1.735 58.615 1.555 57.63 1.555 56.51C1.555 55.36 1.775 54.35 2.215 53.48C2.655 52.6 3.255 51.925 4.015 51.455C4.775 50.975 5.62 50.735 6.55 50.735C7.54 50.735 8.385 50.965 9.085 51.425C9.795 51.885 10.33 52.535 10.69 53.375C11.06 54.215 11.245 55.2 11.245 56.33C11.245 57.49 11.02 58.515 10.57 59.405C10.12 60.285 9.51 60.965 8.74 61.445C7.97 61.925 7.115 62.165 6.175 62.165ZM6.415 51.44C5.345 51.44 4.495 51.875 3.865 52.745C3.235 53.605 2.92 54.86 2.92 56.51C2.92 57.47 3.055 58.325 3.325 59.075C3.595 59.825 3.99 60.41 4.51 60.83C5.03 61.25 5.65 61.46 6.37 61.46C7.07 61.46 7.68 61.27 8.2 60.89C8.72 60.5 9.125 59.92 9.415 59.15C9.705 58.38 9.85 57.44 9.85 56.33C9.85 55.36 9.715 54.51 9.445 53.78C9.175 53.04 8.78 52.465 8.26 52.055C7.75 51.645 7.135 51.44 6.415 51.44ZM13.1012 54.665L11.9462 54.41V53.735L13.8512 53.495H13.8963L14.1812 53.735V54.395L14.1662 54.77C14.5362 54.45 15.0262 54.155 15.6362 53.885C16.2463 53.615 16.8113 53.48 17.3313 53.48C17.9713 53.48 18.4613 53.605 18.8013 53.855C19.1513 54.095 19.3912 54.47 19.5213 54.98C19.6612 55.48 19.7312 56.155 19.7312 57.005V61.25L20.8562 61.355V62H17.5112V61.355L18.5162 61.25V56.99C18.5162 56.36 18.4712 55.865 18.3812 55.505C18.3013 55.145 18.1363 54.875 17.8863 54.695C17.6463 54.505 17.2913 54.41 16.8212 54.41C16.4212 54.41 15.9863 54.51 15.5163 54.71C15.0562 54.91 14.6562 55.145 14.3162 55.415V61.235L15.4113 61.355V62H12.0962V61.355L13.1012 61.235V54.665ZM25.3011 62.165C24.1411 62.165 23.2461 61.77 22.6161 60.98C21.9961 60.18 21.6861 59.12 21.6861 57.8C21.6861 56.95 21.8511 56.195 22.1811 55.535C22.5111 54.875 22.9661 54.365 23.5461 54.005C24.1361 53.635 24.7961 53.45 25.5261 53.45C26.4161 53.45 27.1061 53.705 27.5961 54.215C28.0961 54.725 28.3661 55.46 28.4061 56.42C28.4061 57.04 28.3761 57.48 28.3161 57.74H22.9761C22.9761 58.79 23.2111 59.65 23.6811 60.32C24.1611 60.98 24.8311 61.31 25.6911 61.31C26.1111 61.31 26.5411 61.235 26.9811 61.085C27.4211 60.935 27.7611 60.755 28.0011 60.545L28.2411 61.1C27.9511 61.4 27.5261 61.655 26.9661 61.865C26.4161 62.065 25.8611 62.165 25.3011 62.165ZM27.0561 57.035C27.0861 56.825 27.1011 56.605 27.1011 56.375C27.0911 55.715 26.9311 55.19 26.6211 54.8C26.3211 54.41 25.8561 54.215 25.2261 54.215C23.8561 54.215 23.1111 55.155 22.9911 57.035H27.0561ZM34.0212 54.575H32.5062V53.975L34.0212 53.69V52.955C34.0212 52.355 34.1762 51.805 34.4862 51.305C34.7962 50.795 35.1962 50.39 35.6862 50.09C36.1862 49.79 36.7062 49.64 37.2462 49.64C37.5662 49.64 37.8462 49.68 38.0862 49.76V50.99C38.0062 50.93 37.8412 50.87 37.5912 50.81C37.3512 50.75 37.0712 50.72 36.7512 50.72C36.2212 50.72 35.8362 50.86 35.5962 51.14C35.3562 51.42 35.2362 51.895 35.2362 52.565V53.69H37.4112V54.575H35.2362V61.25L36.9462 61.355V62H32.7012V61.355L34.0212 61.235V54.575ZM38.3342 57.785C38.3342 56.915 38.5142 56.15 38.8742 55.49C39.2442 54.83 39.7242 54.325 40.3142 53.975C40.9142 53.625 41.5392 53.45 42.1892 53.45C43.4492 53.45 44.3792 53.86 44.9792 54.68C45.5892 55.5 45.8942 56.55 45.8942 57.83C45.8942 58.7 45.7092 59.465 45.3392 60.125C44.9792 60.785 44.4992 61.29 43.8992 61.64C43.3092 61.99 42.6892 62.165 42.0392 62.165C40.7792 62.165 39.8442 61.755 39.2342 60.935C38.6342 60.115 38.3342 59.065 38.3342 57.785ZM42.1142 61.385C42.8842 61.385 43.4792 61.09 43.8992 60.5C44.3192 59.91 44.5292 59.05 44.5292 57.92C44.5292 56.84 44.3342 55.955 43.9442 55.265C43.5542 54.575 42.9492 54.23 42.1292 54.23C41.3592 54.23 40.7592 54.525 40.3292 55.115C39.9092 55.705 39.6992 56.565 39.6992 57.695C39.6992 58.785 39.8942 59.675 40.2842 60.365C40.6842 61.045 41.2942 61.385 42.1142 61.385ZM47.0151 61.37L48.2151 61.28V54.665L47.0601 54.41V53.735L48.9651 53.495H48.9951L49.2801 53.735V53.975L49.2501 55.115H49.2801C49.3001 55.095 49.4301 54.945 49.6701 54.665C49.9201 54.375 50.2851 54.1 50.7651 53.84C51.2551 53.58 51.7451 53.45 52.2351 53.45C52.3951 53.45 52.5451 53.47 52.6851 53.51V54.83C52.6451 54.8 52.5551 54.77 52.4151 54.74C52.2851 54.71 52.1451 54.695 51.9951 54.695C51.4251 54.695 50.9401 54.78 50.5401 54.95C50.1401 55.12 49.7701 55.33 49.4301 55.58V61.265L51.4251 61.385V62H47.0151V61.37ZM57.8976 60.815C58.0076 60.985 58.2376 61.135 58.5876 61.265C58.9376 61.395 59.3126 61.46 59.7126 61.46C60.9326 61.46 61.5426 61.01 61.5426 60.11C61.5426 59.7 61.3726 59.37 61.0326 59.12C60.6926 58.86 60.1126 58.575 59.2926 58.265C58.4826 57.975 57.8926 57.63 57.5226 57.23C57.1526 56.83 56.9676 56.295 56.9676 55.625C56.9676 55.195 57.0976 54.82 57.3576 54.5C57.6276 54.18 57.9826 53.935 58.4226 53.765C58.8726 53.585 59.3576 53.495 59.8776 53.495C60.3876 53.495 60.8126 53.54 61.1526 53.63C61.5026 53.72 61.8476 53.83 62.1876 53.96V55.745H61.4526L61.1826 54.65C61.1126 54.52 60.9326 54.41 60.6426 54.32C60.3626 54.23 60.0526 54.185 59.7126 54.185C59.2326 54.185 58.8426 54.295 58.5426 54.515C58.2426 54.725 58.0926 55.01 58.0926 55.37C58.0926 55.69 58.1676 55.955 58.3176 56.165C58.4676 56.375 58.6526 56.545 58.8726 56.675C59.0926 56.795 59.3976 56.935 59.7876 57.095L60.0726 57.215C60.6426 57.435 61.1026 57.645 61.4526 57.845C61.8026 58.035 62.0926 58.29 62.3226 58.61C62.5526 58.92 62.6676 59.31 62.6676 59.78C62.6676 60.52 62.3826 61.105 61.8126 61.535C61.2526 61.955 60.5026 62.165 59.5626 62.165C59.1326 62.165 58.6426 62.095 58.0926 61.955C57.5426 61.815 57.1326 61.675 56.8626 61.535V59.645H57.6726L57.8976 60.815ZM63.809 57.785C63.809 56.915 63.989 56.15 64.349 55.49C64.719 54.83 65.199 54.325 65.789 53.975C66.389 53.625 67.014 53.45 67.664 53.45C68.924 53.45 69.854 53.86 70.454 54.68C71.064 55.5 71.369 56.55 71.369 57.83C71.369 58.7 71.184 59.465 70.814 60.125C70.454 60.785 69.974 61.29 69.374 61.64C68.784 61.99 68.164 62.165 67.514 62.165C66.254 62.165 65.319 61.755 64.709 60.935C64.109 60.115 63.809 59.065 63.809 57.785ZM67.589 61.385C68.359 61.385 68.954 61.09 69.374 60.5C69.794 59.91 70.004 59.05 70.004 57.92C70.004 56.84 69.809 55.955 69.419 55.265C69.029 54.575 68.424 54.23 67.604 54.23C66.834 54.23 66.234 54.525 65.804 55.115C65.384 55.705 65.174 56.565 65.174 57.695C65.174 58.785 65.369 59.675 65.759 60.365C66.159 61.045 66.769 61.385 67.589 61.385ZM72.4899 61.37L73.6899 61.28V54.665L72.5349 54.41V53.735L74.4399 53.495H74.4699L74.7549 53.735V53.975L74.7249 55.115H74.7549C74.7749 55.095 74.9049 54.945 75.1449 54.665C75.3949 54.375 75.7599 54.1 76.2399 53.84C76.7299 53.58 77.2199 53.45 77.7099 53.45C77.8699 53.45 78.0199 53.47 78.1599 53.51V54.83C78.1199 54.8 78.0299 54.77 77.8899 54.74C77.7599 54.71 77.6199 54.695 77.4699 54.695C76.8999 54.695 76.4149 54.78 76.0149 54.95C75.6149 55.12 75.2449 55.33 74.9049 55.58V61.265L76.8999 61.385V62H72.4899V61.37ZM78.9428 61.37L80.1428 61.28V54.665L78.9878 54.41V53.735L80.8928 53.495H80.9228L81.2078 53.735V53.975L81.1778 55.115H81.2078C81.2278 55.095 81.3578 54.945 81.5978 54.665C81.8478 54.375 82.2128 54.1 82.6928 53.84C83.1828 53.58 83.6728 53.45 84.1628 53.45C84.3228 53.45 84.4728 53.47 84.6128 53.51V54.83C84.5728 54.8 84.4828 54.77 84.3428 54.74C84.2128 54.71 84.0728 54.695 83.9228 54.695C83.3528 54.695 82.8678 54.78 82.4678 54.95C82.0678 55.12 81.6978 55.33 81.3578 55.58V61.265L83.3528 61.385V62H78.9428V61.37ZM85.3357 57.785C85.3357 56.915 85.5157 56.15 85.8757 55.49C86.2457 54.83 86.7257 54.325 87.3157 53.975C87.9157 53.625 88.5407 53.45 89.1907 53.45C90.4507 53.45 91.3807 53.86 91.9807 54.68C92.5907 55.5 92.8957 56.55 92.8957 57.83C92.8957 58.7 92.7107 59.465 92.3407 60.125C91.9807 60.785 91.5007 61.29 90.9007 61.64C90.3107 61.99 89.6907 62.165 89.0407 62.165C87.7807 62.165 86.8457 61.755 86.2357 60.935C85.6357 60.115 85.3357 59.065 85.3357 57.785ZM89.1157 61.385C89.8857 61.385 90.4807 61.09 90.9007 60.5C91.3207 59.91 91.5307 59.05 91.5307 57.92C91.5307 56.84 91.3357 55.955 90.9457 55.265C90.5557 54.575 89.9507 54.23 89.1307 54.23C88.3607 54.23 87.7607 54.525 87.3307 55.115C86.9107 55.705 86.7007 56.565 86.7007 57.695C86.7007 58.785 86.8957 59.675 87.2857 60.365C87.6857 61.045 88.2957 61.385 89.1157 61.385ZM93.2366 53.675H96.4916V54.29L95.2916 54.47L96.6266 59.135L97.1216 61.22L97.6166 59.12L99.1166 53.675H100.362L101.862 59.12L102.342 61.235L102.882 59.135L104.202 54.485L103.047 54.29V53.675H105.987V54.29L105.162 54.485L102.822 62.12H101.607L99.9716 56.54L99.5516 54.65L99.1916 56.54L97.6166 62.12H96.4316L94.0316 54.47L93.2366 54.29V53.675ZM108.13 59.915C108.45 59.915 108.705 60.065 108.895 60.365C109.085 60.665 109.18 61.09 109.18 61.64C109.18 62.19 109.1 62.71 108.94 63.2C108.78 63.69 108.575 64.11 108.325 64.46C108.075 64.81 107.825 65.06 107.575 65.21H107.56L107.125 64.91V64.775C107.245 64.685 107.375 64.5 107.515 64.22C107.665 63.95 107.79 63.635 107.89 63.275C108 62.915 108.055 62.565 108.055 62.225C108.055 62.075 108.025 61.955 107.965 61.865C107.915 61.775 107.835 61.67 107.725 61.55C107.595 61.42 107.495 61.295 107.425 61.175C107.365 61.055 107.335 60.89 107.335 60.68C107.335 60.45 107.405 60.265 107.545 60.125C107.695 59.985 107.87 59.915 108.07 59.915H108.13ZM117.959 51.53L115.109 51.62L114.629 54.665H113.804L114.059 50.855H123.194L123.359 54.665H122.564L122.144 51.62L119.249 51.53V61.22L121.394 61.355V62H115.994V61.355L117.959 61.22V51.53ZM123.37 53.675H126.625V54.29L125.425 54.47L126.76 59.135L127.255 61.22L127.75 59.12L129.25 53.675H130.495L131.995 59.12L132.475 61.235L133.015 59.135L134.335 54.485L133.18 54.29V53.675H136.12V54.29L135.295 54.485L132.955 62.12H131.74L130.105 56.54L129.685 54.65L129.325 56.54L127.75 62.12H126.565L124.165 54.47L123.37 54.29V53.675ZM136.358 57.785C136.358 56.915 136.538 56.15 136.898 55.49C137.268 54.83 137.748 54.325 138.338 53.975C138.938 53.625 139.563 53.45 140.213 53.45C141.473 53.45 142.403 53.86 143.003 54.68C143.613 55.5 143.918 56.55 143.918 57.83C143.918 58.7 143.733 59.465 143.363 60.125C143.003 60.785 142.523 61.29 141.923 61.64C141.333 61.99 140.713 62.165 140.063 62.165C138.803 62.165 137.868 61.755 137.258 60.935C136.658 60.115 136.358 59.065 136.358 57.785ZM140.138 61.385C140.908 61.385 141.503 61.09 141.923 60.5C142.343 59.91 142.553 59.05 142.553 57.92C142.553 56.84 142.358 55.955 141.968 55.265C141.578 54.575 140.973 54.23 140.153 54.23C139.383 54.23 138.783 54.525 138.353 55.115C137.933 55.705 137.723 56.565 137.723 57.695C137.723 58.785 137.918 59.675 138.308 60.365C138.708 61.045 139.318 61.385 140.138 61.385ZM149.543 54.575H148.028V53.975L149.543 53.69V52.955C149.543 52.355 149.698 51.805 150.008 51.305C150.318 50.795 150.718 50.39 151.208 50.09C151.708 49.79 152.228 49.64 152.768 49.64C153.088 49.64 153.368 49.68 153.608 49.76V50.99C153.528 50.93 153.363 50.87 153.113 50.81C152.873 50.75 152.593 50.72 152.273 50.72C151.743 50.72 151.358 50.86 151.118 51.14C150.878 51.42 150.758 51.895 150.758 52.565V53.69H152.933V54.575H150.758V61.25L152.468 61.355V62H148.223V61.355L149.543 61.235V54.575ZM153.856 57.785C153.856 56.915 154.036 56.15 154.396 55.49C154.766 54.83 155.246 54.325 155.836 53.975C156.436 53.625 157.061 53.45 157.711 53.45C158.971 53.45 159.901 53.86 160.501 54.68C161.111 55.5 161.416 56.55 161.416 57.83C161.416 58.7 161.231 59.465 160.861 60.125C160.501 60.785 160.021 61.29 159.421 61.64C158.831 61.99 158.211 62.165 157.561 62.165C156.301 62.165 155.366 61.755 154.756 60.935C154.156 60.115 153.856 59.065 153.856 57.785ZM157.636 61.385C158.406 61.385 159.001 61.09 159.421 60.5C159.841 59.91 160.051 59.05 160.051 57.92C160.051 56.84 159.856 55.955 159.466 55.265C159.076 54.575 158.471 54.23 157.651 54.23C156.881 54.23 156.281 54.525 155.851 55.115C155.431 55.705 155.221 56.565 155.221 57.695C155.221 58.785 155.416 59.675 155.806 60.365C156.206 61.045 156.816 61.385 157.636 61.385ZM162.537 61.37L163.737 61.28V54.665L162.582 54.41V53.735L164.487 53.495H164.517L164.802 53.735V53.975L164.772 55.115H164.802C164.822 55.095 164.952 54.945 165.192 54.665C165.442 54.375 165.807 54.1 166.287 53.84C166.777 53.58 167.267 53.45 167.757 53.45C167.917 53.45 168.067 53.47 168.207 53.51V54.83C168.167 54.8 168.077 54.77 167.937 54.74C167.807 54.71 167.667 54.695 167.517 54.695C166.947 54.695 166.462 54.78 166.062 54.95C165.662 55.12 165.292 55.33 164.952 55.58V61.265L166.947 61.385V62H162.537V61.37ZM1.66 82.355L2.62 82.235V75.665L1.465 75.41V74.735L3.37 74.495L3.7 74.735V75.395L3.685 75.77C4.055 75.45 4.54 75.155 5.14 74.885C5.74 74.615 6.285 74.48 6.775 74.48C7.315 74.48 7.745 74.57 8.065 74.75C8.395 74.93 8.645 75.21 8.815 75.59C9.125 75.33 9.575 75.08 10.165 74.84C10.765 74.6 11.315 74.48 11.815 74.48C12.445 74.48 12.93 74.6 13.27 74.84C13.62 75.08 13.865 75.45 14.005 75.95C14.145 76.45 14.215 77.125 14.215 77.975V82.235L15.355 82.355V83H11.995V82.355L13.015 82.235V78.02C13.015 77.39 12.97 76.89 12.88 76.52C12.79 76.15 12.615 75.87 12.355 75.68C12.095 75.49 11.715 75.395 11.215 75.395C10.845 75.395 10.455 75.48 10.045 75.65C9.645 75.81 9.3 75.995 9.01 76.205C9.11 76.665 9.16 77.265 9.16 78.005V82.235L10.3 82.355V83H6.865V82.355L7.945 82.235V77.99C7.945 77.35 7.905 76.85 7.825 76.49C7.755 76.13 7.6 75.86 7.36 75.68C7.12 75.5 6.765 75.41 6.295 75.41C5.905 75.41 5.48 75.51 5.02 75.71C4.57 75.9 4.175 76.13 3.835 76.4V82.235L4.9 82.355V83H1.66V82.355ZM17.8956 73.1C17.3556 73.1 17.0856 72.815 17.0856 72.245C17.0856 71.955 17.1706 71.72 17.3406 71.54C17.5106 71.35 17.7406 71.255 18.0306 71.255C18.3306 71.255 18.5456 71.34 18.6756 71.51C18.8056 71.67 18.8706 71.87 18.8706 72.11C18.8706 72.42 18.7856 72.665 18.6156 72.845C18.4556 73.015 18.2206 73.1 17.9106 73.1H17.8956ZM17.4156 75.665L16.2456 75.41V74.735L18.3006 74.495H18.3306L18.6306 74.735V82.25L19.9356 82.355V83H16.0956V82.355L17.4156 82.235V75.665ZM20.7639 82.37L21.9639 82.28V75.665L20.8089 75.41V74.735L22.7139 74.495H22.7439L23.0289 74.735V74.975L22.9989 76.115H23.0289C23.0489 76.095 23.1789 75.945 23.4189 75.665C23.6689 75.375 24.0339 75.1 24.5139 74.84C25.0039 74.58 25.4939 74.45 25.9839 74.45C26.1439 74.45 26.2939 74.47 26.4339 74.51V75.83C26.3939 75.8 26.3039 75.77 26.1639 75.74C26.0339 75.71 25.8939 75.695 25.7439 75.695C25.1739 75.695 24.6889 75.78 24.2889 75.95C23.8889 76.12 23.5189 76.33 23.1789 76.58V82.265L25.1739 82.385V83H20.7639V82.37ZM29.7518 83.165C29.2218 83.165 28.8218 83.045 28.5518 82.805C28.2818 82.555 28.1468 82.115 28.1468 81.485V75.56H27.0068V74.975C27.5068 74.865 27.7968 74.785 27.8768 74.735C28.0268 74.655 28.1368 74.5 28.2068 74.27C28.2668 74.12 28.3468 73.85 28.4468 73.46C28.5468 73.07 28.6218 72.765 28.6718 72.545H29.3618V74.675H32.0168V75.56H29.3618V80.42C29.3618 81 29.3818 81.41 29.4218 81.65C29.4618 81.88 29.5418 82.03 29.6618 82.1C29.7818 82.17 29.9918 82.205 30.2918 82.205C30.5818 82.205 30.9068 82.165 31.2668 82.085C31.6268 82.005 31.8968 81.92 32.0768 81.83L32.2718 82.4C32.0418 82.58 31.6618 82.755 31.1318 82.925C30.6018 83.085 30.1418 83.165 29.7518 83.165ZM33.8206 71.66L32.4856 71.525V70.97L34.7056 70.715H34.7356L35.0206 70.91V74.48L34.9906 75.725C35.3106 75.435 35.7606 75.155 36.3406 74.885C36.9206 74.615 37.4906 74.48 38.0506 74.48C38.6806 74.48 39.1706 74.6 39.5206 74.84C39.8706 75.08 40.1156 75.455 40.2556 75.965C40.3956 76.465 40.4656 77.145 40.4656 78.005V82.235L41.5606 82.355V83H38.2006V82.355L39.2506 82.235V77.99C39.2506 77.35 39.2056 76.85 39.1156 76.49C39.0356 76.13 38.8706 75.86 38.6206 75.68C38.3706 75.5 38.0056 75.41 37.5256 75.41C37.1256 75.41 36.6956 75.51 36.2356 75.71C35.7756 75.9 35.3706 76.13 35.0206 76.4V82.235L36.1306 82.355V83H32.8756V82.355L33.8206 82.25V71.66ZM44.3407 80.915C44.6607 80.915 44.9157 81.065 45.1057 81.365C45.2957 81.665 45.3907 82.09 45.3907 82.64C45.3907 83.19 45.3107 83.71 45.1507 84.2C44.9907 84.69 44.7857 85.11 44.5357 85.46C44.2857 85.81 44.0357 86.06 43.7857 86.21H43.7707L43.3357 85.91V85.775C43.4557 85.685 43.5857 85.5 43.7257 85.22C43.8757 84.95 44.0007 84.635 44.1007 84.275C44.2107 83.915 44.2657 83.565 44.2657 83.225C44.2657 83.075 44.2357 82.955 44.1757 82.865C44.1257 82.775 44.0457 82.67 43.9357 82.55C43.8057 82.42 43.7057 82.295 43.6357 82.175C43.5757 82.055 43.5457 81.89 43.5457 81.68C43.5457 81.45 43.6157 81.265 43.7557 81.125C43.9057 80.985 44.0807 80.915 44.2807 80.915H44.3407ZM54.1697 72.53L51.3197 72.62L50.8397 75.665H50.0147L50.2697 71.855H59.4047L59.5697 75.665H58.7747L58.3547 72.62L55.4597 72.53V82.22L57.6047 82.355V83H52.2047V82.355L54.1697 82.22V72.53ZM61.1704 71.66L59.8354 71.525V70.97L62.0554 70.715H62.0854L62.3704 70.91V74.48L62.3404 75.725C62.6604 75.435 63.1104 75.155 63.6904 74.885C64.2704 74.615 64.8404 74.48 65.4004 74.48C66.0304 74.48 66.5204 74.6 66.8704 74.84C67.2204 75.08 67.4654 75.455 67.6054 75.965C67.7454 76.465 67.8154 77.145 67.8154 78.005V82.235L68.9104 82.355V83H65.5504V82.355L66.6004 82.235V77.99C66.6004 77.35 66.5554 76.85 66.4654 76.49C66.3854 76.13 66.2204 75.86 65.9704 75.68C65.7204 75.5 65.3554 75.41 64.8754 75.41C64.4754 75.41 64.0454 75.51 63.5854 75.71C63.1254 75.9 62.7204 76.13 62.3704 76.4V82.235L63.4804 82.355V83H60.2254V82.355L61.1704 82.25V71.66ZM69.8455 82.37L71.0456 82.28V75.665L69.8905 75.41V74.735L71.7956 74.495H71.8256L72.1105 74.735V74.975L72.0806 76.115H72.1105C72.1306 76.095 72.2606 75.945 72.5006 75.665C72.7506 75.375 73.1156 75.1 73.5956 74.84C74.0856 74.58 74.5756 74.45 75.0656 74.45C75.2256 74.45 75.3756 74.47 75.5156 74.51V75.83C75.4756 75.8 75.3856 75.77 75.2456 75.74C75.1156 75.71 74.9756 75.695 74.8256 75.695C74.2555 75.695 73.7705 75.78 73.3706 75.95C72.9706 76.12 72.6006 76.33 72.2606 76.58V82.265L74.2556 82.385V83H69.8455V82.37ZM79.8835 83.165C78.7235 83.165 77.8285 82.77 77.1985 81.98C76.5785 81.18 76.2685 80.12 76.2685 78.8C76.2685 77.95 76.4335 77.195 76.7635 76.535C77.0935 75.875 77.5485 75.365 78.1285 75.005C78.7185 74.635 79.3785 74.45 80.1085 74.45C80.9985 74.45 81.6885 74.705 82.1785 75.215C82.6785 75.725 82.9485 76.46 82.9885 77.42C82.9885 78.04 82.9585 78.48 82.8985 78.74H77.5585C77.5585 79.79 77.7935 80.65 78.2635 81.32C78.7435 81.98 79.4135 82.31 80.2735 82.31C80.6935 82.31 81.1235 82.235 81.5635 82.085C82.0035 81.935 82.3435 81.755 82.5835 81.545L82.8235 82.1C82.5335 82.4 82.1085 82.655 81.5485 82.865C80.9985 83.065 80.4435 83.165 79.8835 83.165ZM81.6385 78.035C81.6685 77.825 81.6835 77.605 81.6835 77.375C81.6735 76.715 81.5135 76.19 81.2035 75.8C80.9035 75.41 80.4385 75.215 79.8085 75.215C78.4385 75.215 77.6935 76.155 77.5735 78.035H81.6385ZM87.6841 83.165C86.5241 83.165 85.6291 82.77 84.9991 81.98C84.3791 81.18 84.0691 80.12 84.0691 78.8C84.0691 77.95 84.2341 77.195 84.5641 76.535C84.8941 75.875 85.3491 75.365 85.9291 75.005C86.5191 74.635 87.1791 74.45 87.9091 74.45C88.7991 74.45 89.4891 74.705 89.9791 75.215C90.4791 75.725 90.7491 76.46 90.7891 77.42C90.7891 78.04 90.7591 78.48 90.6991 78.74H85.3591C85.3591 79.79 85.5941 80.65 86.0641 81.32C86.5441 81.98 87.2141 82.31 88.0741 82.31C88.4941 82.31 88.9241 82.235 89.3641 82.085C89.8041 81.935 90.1441 81.755 90.3841 81.545L90.6241 82.1C90.3341 82.4 89.9091 82.655 89.3491 82.865C88.7991 83.065 88.2441 83.165 87.6841 83.165ZM89.4391 78.035C89.4691 77.825 89.4841 77.605 89.4841 77.375C89.4741 76.715 89.3141 76.19 89.0041 75.8C88.7041 75.41 88.2391 75.215 87.6091 75.215C86.2391 75.215 85.4941 76.155 85.3741 78.035H89.4391ZM96.4042 75.575H94.8892V74.975L96.4042 74.69V73.955C96.4042 73.355 96.5592 72.805 96.8692 72.305C97.1792 71.795 97.5792 71.39 98.0692 71.09C98.5692 70.79 99.0892 70.64 99.6292 70.64C99.9492 70.64 100.229 70.68 100.469 70.76V71.99C100.389 71.93 100.224 71.87 99.9742 71.81C99.7342 71.75 99.4542 71.72 99.1342 71.72C98.6042 71.72 98.2192 71.86 97.9792 72.14C97.7392 72.42 97.6192 72.895 97.6192 73.565V74.69H99.7942V75.575H97.6192V82.25L99.3292 82.355V83H95.0842V82.355L96.4042 82.235V75.575ZM100.717 78.785C100.717 77.915 100.897 77.15 101.257 76.49C101.627 75.83 102.107 75.325 102.697 74.975C103.297 74.625 103.922 74.45 104.572 74.45C105.832 74.45 106.762 74.86 107.362 75.68C107.972 76.5 108.277 77.55 108.277 78.83C108.277 79.7 108.092 80.465 107.722 81.125C107.362 81.785 106.882 82.29 106.282 82.64C105.692 82.99 105.072 83.165 104.422 83.165C103.162 83.165 102.227 82.755 101.617 81.935C101.017 81.115 100.717 80.065 100.717 78.785ZM104.497 82.385C105.267 82.385 105.862 82.09 106.282 81.5C106.702 80.91 106.912 80.05 106.912 78.92C106.912 77.84 106.717 76.955 106.327 76.265C105.937 75.575 105.332 75.23 104.512 75.23C103.742 75.23 103.142 75.525 102.712 76.115C102.292 76.705 102.082 77.565 102.082 78.695C102.082 79.785 102.277 80.675 102.667 81.365C103.067 82.045 103.677 82.385 104.497 82.385ZM109.398 82.37L110.598 82.28V75.665L109.443 75.41V74.735L111.348 74.495H111.378L111.663 74.735V74.975L111.633 76.115H111.663C111.683 76.095 111.813 75.945 112.053 75.665C112.303 75.375 112.668 75.1 113.148 74.84C113.638 74.58 114.128 74.45 114.618 74.45C114.778 74.45 114.928 74.47 115.068 74.51V75.83C115.028 75.8 114.938 75.77 114.798 75.74C114.668 75.71 114.528 75.695 114.378 75.695C113.808 75.695 113.323 75.78 112.923 75.95C112.523 76.12 112.153 76.33 111.813 76.58V82.265L113.808 82.385V83H109.398V82.37ZM119.141 80.81C119.141 79.84 119.621 79.14 120.581 78.71C121.541 78.27 122.736 78.035 124.166 78.005V77.54C124.166 77.03 124.111 76.63 124.001 76.34C123.901 76.04 123.721 75.825 123.461 75.695C123.201 75.555 122.836 75.485 122.366 75.485C121.856 75.485 121.391 75.565 120.971 75.725C120.561 75.875 120.161 76.06 119.771 76.28L119.441 75.62C119.551 75.52 119.781 75.38 120.131 75.2C120.481 75.02 120.881 74.86 121.331 74.72C121.781 74.58 122.216 74.51 122.636 74.51C123.316 74.51 123.851 74.605 124.241 74.795C124.641 74.985 124.926 75.29 125.096 75.71C125.276 76.13 125.366 76.695 125.366 77.405V82.355H126.296V82.91C125.746 83.06 125.281 83.135 124.901 83.135C124.661 83.135 124.496 83.095 124.406 83.015C124.316 82.945 124.271 82.775 124.271 82.505V81.95C123.911 82.27 123.516 82.555 123.086 82.805C122.666 83.045 122.186 83.165 121.646 83.165C120.926 83.165 120.326 82.965 119.846 82.565C119.376 82.165 119.141 81.58 119.141 80.81ZM122.096 82.28C122.376 82.28 122.711 82.19 123.101 82.01C123.491 81.83 123.846 81.615 124.166 81.365V78.71C122.956 78.72 122.036 78.9 121.406 79.25C120.786 79.6 120.476 80.07 120.476 80.66C120.476 81.23 120.621 81.645 120.911 81.905C121.201 82.155 121.596 82.28 122.096 82.28ZM0.955 95.675H4.21V96.29L3.01 96.47L4.345 101.135L4.84 103.22L5.335 101.12L6.835 95.675H8.08L9.58 101.12L10.06 103.235L10.6 101.135L11.92 96.485L10.765 96.29V95.675H13.705V96.29L12.88 96.485L10.54 104.12H9.325L7.69 98.54L7.27 96.65L6.91 98.54L5.335 104.12H4.15L1.75 96.47L0.955 96.29V95.675ZM17.5884 104.165C16.4284 104.165 15.5334 103.77 14.9034 102.98C14.2834 102.18 13.9734 101.12 13.9734 99.8C13.9734 98.95 14.1384 98.195 14.4684 97.535C14.7984 96.875 15.2534 96.365 15.8334 96.005C16.4234 95.635 17.0834 95.45 17.8134 95.45C18.7034 95.45 19.3934 95.705 19.8834 96.215C20.3834 96.725 20.6534 97.46 20.6934 98.42C20.6934 99.04 20.6634 99.48 20.6034 99.74H15.2634C15.2634 100.79 15.4984 101.65 15.9684 102.32C16.4484 102.98 17.1184 103.31 17.9784 103.31C18.3984 103.31 18.8284 103.235 19.2684 103.085C19.7084 102.935 20.0484 102.755 20.2884 102.545L20.5284 103.1C20.2384 103.4 19.8134 103.655 19.2534 103.865C18.7034 104.065 18.1484 104.165 17.5884 104.165ZM19.3434 99.035C19.3734 98.825 19.3884 98.605 19.3884 98.375C19.3784 97.715 19.2184 97.19 18.9084 96.8C18.6084 96.41 18.1434 96.215 17.5134 96.215C16.1434 96.215 15.3984 97.155 15.2784 99.035H19.3434ZM25.0439 104.165C24.4539 104.165 23.9089 104.015 23.4089 103.715C22.9089 103.405 22.5089 102.94 22.2089 102.32C21.9089 101.7 21.7589 100.94 21.7589 100.04C21.7589 99.18 21.9339 98.405 22.2839 97.715C22.6339 97.015 23.1289 96.465 23.7689 96.065C24.4189 95.655 25.1739 95.45 26.0339 95.45C26.5839 95.45 27.1139 95.51 27.6239 95.63V92.66L26.0639 92.51V91.97L28.5239 91.715H28.5539L28.8389 91.925V103.325H29.7539V103.91C29.7039 103.92 29.5339 103.96 29.2439 104.03C28.9539 104.1 28.6439 104.135 28.3139 104.135C28.0839 104.135 27.9189 104.095 27.8189 104.015C27.7289 103.935 27.6839 103.76 27.6839 103.49V102.965C27.3739 103.305 26.9939 103.59 26.5439 103.82C26.1039 104.05 25.6039 104.165 25.0439 104.165ZM25.5389 103.22C25.9689 103.22 26.3739 103.12 26.7539 102.92C27.1439 102.71 27.4339 102.48 27.6239 102.23V96.71C27.5439 96.57 27.3339 96.45 26.9939 96.35C26.6639 96.25 26.3089 96.2 25.9289 96.2C25.0689 96.2 24.3789 96.51 23.8589 97.13C23.3389 97.74 23.0789 98.67 23.0789 99.92C23.0789 101.04 23.3089 101.87 23.7689 102.41C24.2289 102.95 24.8189 103.22 25.5389 103.22ZM34.0164 104.165C33.4264 104.165 32.8814 104.015 32.3814 103.715C31.8814 103.405 31.4814 102.94 31.1814 102.32C30.8814 101.7 30.7314 100.94 30.7314 100.04C30.7314 99.18 30.9064 98.405 31.2564 97.715C31.6064 97.015 32.1014 96.465 32.7414 96.065C33.3914 95.655 34.1464 95.45 35.0064 95.45C35.5564 95.45 36.0864 95.51 36.5964 95.63V92.66L35.0364 92.51V91.97L37.4964 91.715H37.5264L37.8114 91.925V103.325H38.7264V103.91C38.6764 103.92 38.5064 103.96 38.2164 104.03C37.9264 104.1 37.6164 104.135 37.2864 104.135C37.0564 104.135 36.8914 104.095 36.7914 104.015C36.7014 103.935 36.6564 103.76 36.6564 103.49V102.965C36.3464 103.305 35.9664 103.59 35.5164 103.82C35.0764 104.05 34.5764 104.165 34.0164 104.165ZM34.5114 103.22C34.9414 103.22 35.3464 103.12 35.7264 102.92C36.1164 102.71 36.4064 102.48 36.5964 102.23V96.71C36.5164 96.57 36.3064 96.45 35.9664 96.35C35.6364 96.25 35.2814 96.2 34.9014 96.2C34.0414 96.2 33.3514 96.51 32.8314 97.13C32.3114 97.74 32.0514 98.67 32.0514 99.92C32.0514 101.04 32.2814 101.87 32.7414 102.41C33.2014 102.95 33.7914 103.22 34.5114 103.22ZM41.4439 94.1C40.9039 94.1 40.6339 93.815 40.6339 93.245C40.6339 92.955 40.7189 92.72 40.8889 92.54C41.0589 92.35 41.2889 92.255 41.5789 92.255C41.8789 92.255 42.0939 92.34 42.2239 92.51C42.3539 92.67 42.4189 92.87 42.4189 93.11C42.4189 93.42 42.3339 93.665 42.1639 93.845C42.0039 94.015 41.7689 94.1 41.4589 94.1H41.4439ZM40.9639 96.665L39.7939 96.41V95.735L41.8489 95.495H41.8789L42.1789 95.735V103.25L43.4839 103.355V104H39.6439V103.355L40.9639 103.235V96.665ZM45.1971 96.665L44.0421 96.41V95.735L45.9471 95.495H45.9921L46.2771 95.735V96.395L46.2621 96.77C46.6321 96.45 47.1221 96.155 47.7321 95.885C48.3421 95.615 48.9071 95.48 49.4271 95.48C50.0671 95.48 50.5571 95.605 50.8971 95.855C51.2471 96.095 51.4871 96.47 51.6171 96.98C51.7571 97.48 51.8271 98.155 51.8271 99.005V103.25L52.9521 103.355V104H49.6071V103.355L50.6121 103.25V98.99C50.6121 98.36 50.5671 97.865 50.4771 97.505C50.3971 97.145 50.2321 96.875 49.9821 96.695C49.7421 96.505 49.3871 96.41 48.9171 96.41C48.5171 96.41 48.0821 96.51 47.6121 96.71C47.1521 96.91 46.7521 97.145 46.4121 97.415V103.235L47.5071 103.355V104H44.1921V103.355L45.1971 103.235V96.665ZM57.307 108.05C54.947 108.05 53.767 107.3 53.767 105.8C53.767 105.35 53.902 104.94 54.172 104.57C54.452 104.2 54.782 103.91 55.162 103.7C54.692 103.45 54.457 103.035 54.457 102.455C54.457 102.085 54.562 101.74 54.772 101.42C54.982 101.09 55.252 100.84 55.582 100.67C55.112 100.45 54.742 100.14 54.472 99.74C54.212 99.33 54.082 98.855 54.082 98.315C54.082 97.735 54.242 97.23 54.562 96.8C54.882 96.36 55.297 96.025 55.807 95.795C56.327 95.565 56.867 95.45 57.427 95.45C58.357 95.45 59.102 95.655 59.662 96.065C59.812 95.925 60.042 95.79 60.352 95.66C60.672 95.52 61.012 95.45 61.372 95.45H61.867V96.56H60.157C60.447 96.96 60.592 97.445 60.592 98.015C60.592 98.605 60.442 99.13 60.142 99.59C59.842 100.04 59.437 100.39 58.927 100.64C58.427 100.89 57.872 101.015 57.262 101.015C56.852 101.015 56.477 100.97 56.137 100.88C55.957 101.02 55.812 101.185 55.702 101.375C55.602 101.555 55.552 101.74 55.552 101.93C55.552 102.31 55.672 102.575 55.912 102.725C56.162 102.875 56.592 102.95 57.202 102.95H58.972C59.902 102.95 60.587 103.13 61.027 103.49C61.477 103.85 61.702 104.355 61.702 105.005C61.702 105.545 61.507 106.045 61.117 106.505C60.727 106.975 60.192 107.35 59.512 107.63C58.842 107.91 58.107 108.05 57.307 108.05ZM57.412 100.28C58.682 100.28 59.317 99.58 59.317 98.18C59.317 96.85 58.657 96.185 57.337 96.185C56.017 96.185 55.357 96.84 55.357 98.15C55.357 98.78 55.527 99.295 55.867 99.695C56.207 100.085 56.722 100.28 57.412 100.28ZM57.382 107.285C57.922 107.285 58.437 107.205 58.927 107.045C59.417 106.895 59.812 106.67 60.112 106.37C60.412 106.08 60.562 105.74 60.562 105.35C60.562 105.04 60.512 104.79 60.412 104.6C60.322 104.41 60.137 104.26 59.857 104.15C59.587 104.05 59.192 104 58.672 104H56.812C56.332 104 55.967 103.97 55.717 103.91C55.227 104.38 54.982 104.93 54.982 105.56C54.982 106.13 55.162 106.56 55.522 106.85C55.882 107.14 56.502 107.285 57.382 107.285ZM64.3072 101.915C64.6272 101.915 64.8822 102.065 65.0722 102.365C65.2622 102.665 65.3572 103.09 65.3572 103.64C65.3572 104.19 65.2772 104.71 65.1172 105.2C64.9572 105.69 64.7522 106.11 64.5021 106.46C64.2522 106.81 64.0022 107.06 63.7522 107.21H63.7372L63.3022 106.91V106.775C63.4222 106.685 63.5522 106.5 63.6922 106.22C63.8422 105.95 63.9672 105.635 64.0672 105.275C64.1772 104.915 64.2322 104.565 64.2322 104.225C64.2322 104.075 64.2022 103.955 64.1422 103.865C64.0922 103.775 64.0122 103.67 63.9022 103.55C63.7722 103.42 63.6721 103.295 63.6021 103.175C63.5421 103.055 63.5122 102.89 63.5122 102.68C63.5122 102.45 63.5821 102.265 63.7221 102.125C63.8721 101.985 64.0472 101.915 64.2472 101.915H64.3072ZM74.2261 92.75H75.4561L79.2211 103.22L80.1961 103.355V104H76.5361V103.355L77.8561 103.22L77.0611 100.835H72.3811L71.5861 103.205L72.9211 103.355V104H69.5461V103.355L70.5061 103.22L74.2261 92.75ZM75.0961 95.06L74.6761 93.635L74.2711 95.105L72.6361 100.055H76.7911L75.0961 95.06ZM81.3143 96.665L80.1593 96.41V95.735L82.0643 95.495H82.1093L82.3943 95.735V96.395L82.3793 96.77C82.7493 96.45 83.2393 96.155 83.8493 95.885C84.4593 95.615 85.0243 95.48 85.5443 95.48C86.1843 95.48 86.6743 95.605 87.0143 95.855C87.3643 96.095 87.6043 96.47 87.7343 96.98C87.8743 97.48 87.9443 98.155 87.9443 99.005V103.25L89.0693 103.355V104H85.7243V103.355L86.7293 103.25V98.99C86.7293 98.36 86.6843 97.865 86.5943 97.505C86.5143 97.145 86.3493 96.875 86.0993 96.695C85.8593 96.505 85.5043 96.41 85.0343 96.41C84.6343 96.41 84.1993 96.51 83.7293 96.71C83.2693 96.91 82.8693 97.145 82.5293 97.415V103.235L83.6243 103.355V104H80.3093V103.355L81.3143 103.235V96.665ZM93.1691 104.165C92.5791 104.165 92.0341 104.015 91.5341 103.715C91.0341 103.405 90.6341 102.94 90.3341 102.32C90.0341 101.7 89.8841 100.94 89.8841 100.04C89.8841 99.18 90.0591 98.405 90.4091 97.715C90.7591 97.015 91.2541 96.465 91.8941 96.065C92.5441 95.655 93.2991 95.45 94.1591 95.45C94.7091 95.45 95.2391 95.51 95.7491 95.63V92.66L94.1891 92.51V91.97L96.6491 91.715H96.6791L96.9641 91.925V103.325H97.8791V103.91C97.8291 103.92 97.6591 103.96 97.3691 104.03C97.0791 104.1 96.7691 104.135 96.4391 104.135C96.2091 104.135 96.0441 104.095 95.9441 104.015C95.8541 103.935 95.8091 103.76 95.8091 103.49V102.965C95.4991 103.305 95.1191 103.59 94.6691 103.82C94.2291 104.05 93.7291 104.165 93.1691 104.165ZM93.6641 103.22C94.0941 103.22 94.4991 103.12 94.8791 102.92C95.2691 102.71 95.5591 102.48 95.7491 102.23V96.71C95.6691 96.57 95.4591 96.45 95.1191 96.35C94.7891 96.25 94.4341 96.2 94.0541 96.2C93.1941 96.2 92.5041 96.51 91.9841 97.13C91.4641 97.74 91.2041 98.67 91.2041 99.92C91.2041 101.04 91.4341 101.87 91.8941 102.41C92.3541 102.95 92.9441 103.22 93.6641 103.22ZM103.406 96.575H101.891V95.975L103.406 95.69V94.955C103.406 94.355 103.561 93.805 103.871 93.305C104.181 92.795 104.581 92.39 105.071 92.09C105.571 91.79 106.091 91.64 106.631 91.64C106.951 91.64 107.231 91.68 107.471 91.76V92.99C107.391 92.93 107.226 92.87 106.976 92.81C106.736 92.75 106.456 92.72 106.136 92.72C105.606 92.72 105.221 92.86 104.981 93.14C104.741 93.42 104.621 93.895 104.621 94.565V95.69H106.796V96.575H104.621V103.25L106.331 103.355V104H102.086V103.355L103.406 103.235V96.575ZM107.719 99.785C107.719 98.915 107.899 98.15 108.259 97.49C108.629 96.83 109.109 96.325 109.699 95.975C110.299 95.625 110.924 95.45 111.574 95.45C112.834 95.45 113.764 95.86 114.364 96.68C114.974 97.5 115.279 98.55 115.279 99.83C115.279 100.7 115.094 101.465 114.724 102.125C114.364 102.785 113.884 103.29 113.284 103.64C112.694 103.99 112.074 104.165 111.424 104.165C110.164 104.165 109.229 103.755 108.619 102.935C108.019 102.115 107.719 101.065 107.719 99.785ZM111.499 103.385C112.269 103.385 112.864 103.09 113.284 102.5C113.704 101.91 113.914 101.05 113.914 99.92C113.914 98.84 113.719 97.955 113.329 97.265C112.939 96.575 112.334 96.23 111.514 96.23C110.744 96.23 110.144 96.525 109.714 97.115C109.294 97.705 109.084 98.565 109.084 99.695C109.084 100.785 109.279 101.675 109.669 102.365C110.069 103.045 110.679 103.385 111.499 103.385ZM123.21 104.135C122.95 104.135 122.76 104.09 122.64 104C122.52 103.91 122.46 103.745 122.46 103.505V102.92C122.09 103.25 121.655 103.54 121.155 103.79C120.655 104.04 120.155 104.165 119.655 104.165C118.745 104.165 118.095 103.91 117.705 103.4C117.325 102.89 117.135 102.06 117.135 100.91V96.5L116.25 96.245V95.69L118.065 95.495H118.08L118.35 95.675V100.73C118.35 101.36 118.395 101.855 118.485 102.215C118.575 102.565 118.74 102.825 118.98 102.995C119.22 103.165 119.57 103.25 120.03 103.25C120.47 103.25 120.89 103.155 121.29 102.965C121.69 102.775 122.035 102.55 122.325 102.29V96.5L121.185 96.245V95.69L123.18 95.495H123.195L123.54 95.675V103.34H124.47L124.455 103.91C124.405 103.92 124.26 103.96 124.02 104.03C123.78 104.1 123.51 104.135 123.21 104.135ZM125.519 103.37L126.719 103.28V96.665L125.564 96.41V95.735L127.469 95.495H127.499L127.784 95.735V95.975L127.754 97.115H127.784C127.804 97.095 127.934 96.945 128.174 96.665C128.424 96.375 128.789 96.1 129.269 95.84C129.759 95.58 130.249 95.45 130.739 95.45C130.899 95.45 131.049 95.47 131.189 95.51V96.83C131.149 96.8 131.059 96.77 130.919 96.74C130.789 96.71 130.649 96.695 130.499 96.695C129.929 96.695 129.444 96.78 129.044 96.95C128.644 97.12 128.274 97.33 127.934 97.58V103.265L129.929 103.385V104H125.519V103.37ZM136.476 96.575H134.961V95.975L136.476 95.69V94.955C136.476 94.355 136.631 93.805 136.941 93.305C137.251 92.795 137.651 92.39 138.141 92.09C138.641 91.79 139.161 91.64 139.701 91.64C140.021 91.64 140.301 91.68 140.541 91.76V92.99C140.461 92.93 140.296 92.87 140.046 92.81C139.806 92.75 139.526 92.72 139.206 92.72C138.676 92.72 138.291 92.86 138.051 93.14C137.811 93.42 137.691 93.895 137.691 94.565V95.69H139.866V96.575H137.691V103.25L139.401 103.355V104H135.156V103.355L136.476 103.235V96.575ZM140.789 99.785C140.789 98.915 140.969 98.15 141.329 97.49C141.699 96.83 142.179 96.325 142.769 95.975C143.369 95.625 143.994 95.45 144.644 95.45C145.904 95.45 146.834 95.86 147.434 96.68C148.044 97.5 148.349 98.55 148.349 99.83C148.349 100.7 148.164 101.465 147.794 102.125C147.434 102.785 146.954 103.29 146.354 103.64C145.764 103.99 145.144 104.165 144.494 104.165C143.234 104.165 142.299 103.755 141.689 102.935C141.089 102.115 140.789 101.065 140.789 99.785ZM144.569 103.385C145.339 103.385 145.934 103.09 146.354 102.5C146.774 101.91 146.984 101.05 146.984 99.92C146.984 98.84 146.789 97.955 146.399 97.265C146.009 96.575 145.404 96.23 144.584 96.23C143.814 96.23 143.214 96.525 142.784 97.115C142.364 97.705 142.154 98.565 142.154 99.695C142.154 100.785 142.349 101.675 142.739 102.365C143.139 103.045 143.749 103.385 144.569 103.385ZM149.47 103.37L150.67 103.28V96.665L149.515 96.41V95.735L151.42 95.495H151.45L151.735 95.735V95.975L151.705 97.115H151.735C151.755 97.095 151.885 96.945 152.125 96.665C152.375 96.375 152.74 96.1 153.22 95.84C153.71 95.58 154.2 95.45 154.69 95.45C154.85 95.45 155 95.47 155.14 95.51V96.83C155.1 96.8 155.01 96.77 154.87 96.74C154.74 96.71 154.6 96.695 154.45 96.695C153.88 96.695 153.395 96.78 152.995 96.95C152.595 97.12 152.225 97.33 151.885 97.58V103.265L153.88 103.385V104H149.47V103.37ZM4.975 125.165C4.385 125.165 3.84 125.015 3.34 124.715C2.84 124.405 2.44 123.94 2.14 123.32C1.84 122.7 1.69 121.94 1.69 121.04C1.69 120.18 1.865 119.405 2.215 118.715C2.565 118.015 3.06 117.465 3.7 117.065C4.35 116.655 5.105 116.45 5.965 116.45C6.515 116.45 7.045 116.51 7.555 116.63V113.66L5.995 113.51V112.97L8.455 112.715H8.485L8.77 112.925V124.325H9.685V124.91C9.635 124.92 9.465 124.96 9.175 125.03C8.885 125.1 8.575 125.135 8.245 125.135C8.015 125.135 7.85 125.095 7.75 125.015C7.66 124.935 7.615 124.76 7.615 124.49V123.965C7.305 124.305 6.925 124.59 6.475 124.82C6.035 125.05 5.535 125.165 4.975 125.165ZM5.47 124.22C5.9 124.22 6.305 124.12 6.685 123.92C7.075 123.71 7.365 123.48 7.555 123.23V117.71C7.475 117.57 7.265 117.45 6.925 117.35C6.595 117.25 6.24 117.2 5.86 117.2C5 117.2 4.31 117.51 3.79 118.13C3.27 118.74 3.01 119.67 3.01 120.92C3.01 122.04 3.24 122.87 3.7 123.41C4.16 123.95 4.75 124.22 5.47 124.22ZM14.2925 125.165C13.1325 125.165 12.2375 124.77 11.6075 123.98C10.9875 123.18 10.6775 122.12 10.6775 120.8C10.6775 119.95 10.8425 119.195 11.1725 118.535C11.5025 117.875 11.9575 117.365 12.5375 117.005C13.1275 116.635 13.7875 116.45 14.5175 116.45C15.4075 116.45 16.0975 116.705 16.5875 117.215C17.0875 117.725 17.3575 118.46 17.3975 119.42C17.3975 120.04 17.3675 120.48 17.3075 120.74H11.9675C11.9675 121.79 12.2025 122.65 12.6725 123.32C13.1525 123.98 13.8225 124.31 14.6825 124.31C15.1025 124.31 15.5325 124.235 15.9725 124.085C16.4125 123.935 16.7525 123.755 16.9925 123.545L17.2325 124.1C16.9425 124.4 16.5175 124.655 15.9575 124.865C15.4075 125.065 14.8525 125.165 14.2925 125.165ZM16.0475 120.035C16.0775 119.825 16.0925 119.605 16.0925 119.375C16.0825 118.715 15.9225 118.19 15.6125 117.8C15.3125 117.41 14.8475 117.215 14.2175 117.215C12.8475 117.215 12.1025 118.155 11.9825 120.035H16.0475ZM18.538 122.81C18.538 121.84 19.018 121.14 19.978 120.71C20.938 120.27 22.133 120.035 23.563 120.005V119.54C23.563 119.03 23.508 118.63 23.398 118.34C23.298 118.04 23.118 117.825 22.858 117.695C22.598 117.555 22.233 117.485 21.763 117.485C21.253 117.485 20.788 117.565 20.368 117.725C19.958 117.875 19.558 118.06 19.168 118.28L18.838 117.62C18.948 117.52 19.178 117.38 19.528 117.2C19.878 117.02 20.278 116.86 20.728 116.72C21.178 116.58 21.613 116.51 22.033 116.51C22.713 116.51 23.248 116.605 23.638 116.795C24.038 116.985 24.323 117.29 24.493 117.71C24.673 118.13 24.763 118.695 24.763 119.405V124.355H25.693V124.91C25.143 125.06 24.678 125.135 24.298 125.135C24.058 125.135 23.893 125.095 23.803 125.015C23.713 124.945 23.668 124.775 23.668 124.505V123.95C23.308 124.27 22.913 124.555 22.483 124.805C22.063 125.045 21.583 125.165 21.043 125.165C20.323 125.165 19.723 124.965 19.243 124.565C18.773 124.165 18.538 123.58 18.538 122.81ZM21.493 124.28C21.773 124.28 22.108 124.19 22.498 124.01C22.888 123.83 23.243 123.615 23.563 123.365V120.71C22.353 120.72 21.433 120.9 20.803 121.25C20.183 121.6 19.873 122.07 19.873 122.66C19.873 123.23 20.018 123.645 20.308 123.905C20.598 124.155 20.993 124.28 21.493 124.28ZM29.0927 125.165C28.5627 125.165 28.1627 125.045 27.8927 124.805C27.6227 124.555 27.4877 124.115 27.4877 123.485V117.56H26.3477V116.975C26.8477 116.865 27.1377 116.785 27.2177 116.735C27.3677 116.655 27.4777 116.5 27.5477 116.27C27.6077 116.12 27.6877 115.85 27.7877 115.46C27.8877 115.07 27.9627 114.765 28.0127 114.545H28.7027V116.675H31.3577V117.56H28.7027V122.42C28.7027 123 28.7227 123.41 28.7627 123.65C28.8027 123.88 28.8827 124.03 29.0027 124.1C29.1227 124.17 29.3327 124.205 29.6327 124.205C29.9227 124.205 30.2477 124.165 30.6077 124.085C30.9677 124.005 31.2377 123.92 31.4177 123.83L31.6127 124.4C31.3827 124.58 31.0027 124.755 30.4727 124.925C29.9427 125.085 29.4827 125.165 29.0927 125.165ZM33.1614 113.66L31.8264 113.525V112.97L34.0464 112.715H34.0764L34.3614 112.91V116.48L34.3314 117.725C34.6514 117.435 35.1014 117.155 35.6814 116.885C36.2614 116.615 36.8314 116.48 37.3914 116.48C38.0214 116.48 38.5114 116.6 38.8614 116.84C39.2114 117.08 39.4564 117.455 39.5964 117.965C39.7364 118.465 39.8064 119.145 39.8064 120.005V124.235L40.9014 124.355V125H37.5414V124.355L38.5914 124.235V119.99C38.5914 119.35 38.5464 118.85 38.4564 118.49C38.3764 118.13 38.2114 117.86 37.9614 117.68C37.7114 117.5 37.3464 117.41 36.8664 117.41C36.4664 117.41 36.0364 117.51 35.5764 117.71C35.1164 117.9 34.7114 118.13 34.3614 118.4V124.235L35.4714 124.355V125H32.2164V124.355L33.1614 124.25V113.66Z" fill="#2A2921"/>
</svg>
