<svg width="169" height="136" viewBox="0 0 169 136" fill="none" xmlns="http://www.w3.org/2000/svg">
<path d="M12.04 38.32L4.06 27.6C3.94 27.44 3.82 27.2867 3.7 27.14C3.59333 26.98 3.48 26.82 3.36 26.66H3.34L3.4 35.22C3.4 35.5533 3.4 35.8867 3.4 36.22C3.4 36.5533 3.38667 36.88 3.36 37.2C3.6 37.1867 3.84 37.1733 4.08 37.16C4.32 37.1467 4.56 37.1333 4.8 37.12V38H1.14V37.34C1.55333 37.34 1.84667 37.2533 2.02 37.08C2.20667 36.8933 2.32667 36.68 2.38 36.44C2.43333 36.1867 2.46 35.96 2.46 35.76L2.48 26.14V24.8C2.26667 24.8133 2.04667 24.8267 1.82 24.84C1.59333 24.8533 1.36667 24.8667 1.14 24.88V24H3.52L11.02 34.04C11.1933 34.2667 11.36 34.4933 11.52 34.72C11.6933 34.9467 11.8667 35.1733 12.04 35.4H12.06L12.08 26.24C12.08 25.68 12.1 25.2 12.14 24.8C11.9 24.8133 11.66 24.8267 11.42 24.84C11.18 24.8533 10.94 24.8667 10.7 24.88V24H14.38V24.66C13.8867 24.6733 13.5467 24.7867 13.36 25C13.1733 25.2133 13.0733 25.5 13.06 25.86C13.0467 26.22 13.04 26.64 13.04 27.12L13 38.32H12.04ZM19.9344 38.32C19.2144 38.32 18.6077 38.1867 18.1144 37.92C17.6344 37.6533 17.2677 37.2 17.0144 36.56C16.7744 35.92 16.6544 35.0533 16.6544 33.96V30.4C16.6544 30.1867 16.6544 29.9733 16.6544 29.76C16.6677 29.5467 16.6944 29.3267 16.7344 29.1C16.5077 29.1133 16.2744 29.1267 16.0344 29.14C15.8077 29.14 15.581 29.1467 15.3544 29.16V28.34H15.9744C16.5477 28.34 16.961 28.2867 17.2144 28.18C17.481 28.06 17.6877 27.9333 17.8344 27.8H18.4144V33.9C18.4144 35.0467 18.5744 35.9067 18.8944 36.48C19.2277 37.04 19.7877 37.3133 20.5744 37.3C21.081 37.2867 21.561 37.1333 22.0144 36.84C22.481 36.5333 22.8544 36.1733 23.1344 35.76V30.62C23.1344 30.3 23.141 30.0267 23.1544 29.8C23.1677 29.56 23.1944 29.3267 23.2344 29.1C22.9944 29.1133 22.7544 29.1267 22.5144 29.14C22.2744 29.14 22.0344 29.1467 21.7944 29.16V28.34H22.4144C22.9877 28.34 23.401 28.2867 23.6544 28.18C23.921 28.06 24.1277 27.9333 24.2744 27.8H24.8544L24.8344 35.36C24.8344 35.5733 24.8277 35.8733 24.8144 36.26C24.801 36.6467 24.781 36.9733 24.7544 37.24C24.9944 37.2267 25.2344 37.2133 25.4744 37.2C25.7144 37.1867 25.9544 37.1733 26.1944 37.16V38H23.3344C23.2944 37.7733 23.261 37.56 23.2344 37.36C23.221 37.16 23.2077 36.9733 23.1944 36.8C22.781 37.2133 22.281 37.5733 21.6944 37.88C21.1077 38.1733 20.521 38.32 19.9344 38.32ZM27.248 37.4C27.6613 37.4 27.948 37.3 28.108 37.1C28.268 36.8867 28.3613 36.6 28.388 36.24C28.4146 35.8667 28.428 35.44 28.428 34.96V30.4C28.428 30.1867 28.428 29.9733 28.428 29.76C28.4413 29.5467 28.468 29.3267 28.508 29.1C28.268 29.1133 28.028 29.1267 27.788 29.14C27.5613 29.14 27.328 29.1467 27.088 29.16V28.34H27.708C28.2813 28.34 28.6746 28.2867 28.888 28.18C29.1146 28.06 29.3013 27.9333 29.448 27.8H30.028C30.0546 28.0133 30.0746 28.28 30.088 28.6C30.1013 28.9067 30.1146 29.3 30.128 29.78C30.328 29.4467 30.6013 29.12 30.948 28.8C31.2946 28.48 31.6813 28.2133 32.108 28C32.548 27.7867 33.008 27.68 33.488 27.68C33.8613 27.68 34.188 27.78 34.468 27.98C34.748 28.18 34.888 28.5 34.888 28.94C34.888 29.1133 34.808 29.32 34.648 29.56C34.5013 29.8 34.248 29.9133 33.888 29.9C33.5946 29.8867 33.3613 29.7733 33.188 29.56C33.0146 29.3333 32.948 29.0733 32.988 28.78C32.4813 28.7533 31.968 28.9467 31.448 29.36C30.928 29.7733 30.4946 30.3067 30.148 30.96L30.168 35.88C30.168 36.1467 30.1613 36.3867 30.148 36.6C30.148 36.8 30.128 37.0133 30.088 37.24C30.3013 37.2267 30.508 37.22 30.708 37.22C30.9213 37.2067 31.1346 37.1933 31.348 37.18V38H27.248V37.4ZM39.6003 38.32C38.9336 38.32 38.3403 38.2267 37.8203 38.04C37.3003 37.8667 36.8736 37.6667 36.5403 37.44L36.6203 38.14H35.7803L35.6603 34.7H36.2803C36.307 35.2467 36.4603 35.74 36.7403 36.18C37.0203 36.6067 37.3803 36.94 37.8203 37.18C38.2603 37.42 38.7336 37.54 39.2403 37.54C39.587 37.54 39.927 37.4867 40.2603 37.38C40.5936 37.26 40.8736 37.0867 41.1003 36.86C41.327 36.62 41.4403 36.32 41.4403 35.96C41.4403 35.5867 41.327 35.28 41.1003 35.04C40.887 34.7867 40.6003 34.5667 40.2403 34.38C39.8803 34.1933 39.4936 34.02 39.0803 33.86C38.547 33.6467 38.0136 33.42 37.4803 33.18C36.9603 32.9267 36.527 32.6 36.1803 32.2C35.8336 31.7867 35.6603 31.2467 35.6603 30.58C35.6603 30.3 35.7136 29.9933 35.8203 29.66C35.927 29.3267 36.107 29.0133 36.3603 28.72C36.6136 28.4133 36.9603 28.1667 37.4003 27.98C37.8403 27.78 38.4003 27.68 39.0803 27.68C39.4403 27.68 39.8403 27.74 40.2803 27.86C40.7203 27.98 41.147 28.2067 41.5603 28.54L41.5203 27.78H42.3603V31.28H41.7203C41.6936 30.8133 41.587 30.3667 41.4003 29.94C41.2136 29.5 40.9403 29.14 40.5803 28.86C40.2203 28.5667 39.7536 28.42 39.1803 28.42C38.567 28.42 38.087 28.5733 37.7403 28.88C37.3936 29.1867 37.2203 29.54 37.2203 29.94C37.2203 30.3533 37.347 30.7 37.6003 30.98C37.867 31.2467 38.207 31.48 38.6203 31.68C39.0336 31.88 39.4736 32.0733 39.9403 32.26C40.447 32.4733 40.9403 32.7067 41.4203 32.96C41.9003 33.2133 42.2936 33.5333 42.6003 33.92C42.907 34.2933 43.0603 34.78 43.0603 35.38C43.0603 36.0467 42.887 36.6 42.5403 37.04C42.207 37.48 41.7736 37.8 41.2403 38C40.7203 38.2133 40.1736 38.32 39.6003 38.32ZM49.1981 38.32C48.2781 38.32 47.4448 38.1067 46.6981 37.68C45.9648 37.24 45.3848 36.6267 44.9581 35.84C44.5315 35.04 44.3181 34.1 44.3181 33.02C44.3181 32.0867 44.5248 31.2133 44.9381 30.4C45.3648 29.5867 45.9581 28.9333 46.7181 28.44C47.4781 27.9333 48.3581 27.68 49.3581 27.68C50.1048 27.68 50.7848 27.84 51.3981 28.16C52.0115 28.48 52.4981 28.9667 52.8581 29.62C53.2315 30.2733 53.4181 31.1 53.4181 32.1L46.3781 32.22C46.3648 33.7533 46.6181 34.9867 47.1381 35.92C47.6581 36.84 48.5048 37.3 49.6781 37.3C50.0915 37.3 50.5115 37.2267 50.9381 37.08C51.3781 36.9333 51.7848 36.7333 52.1581 36.48C52.5315 36.2267 52.8315 35.9467 53.0581 35.64L53.5381 36.04C53.1781 36.6 52.7448 37.0467 52.2381 37.38C51.7315 37.7133 51.2115 37.9533 50.6781 38.1C50.1448 38.2467 49.6515 38.32 49.1981 38.32ZM46.4381 31.38H51.5381C51.5381 30.9 51.4648 30.44 51.3181 30C51.1848 29.5467 50.9581 29.18 50.6381 28.9C50.3181 28.6067 49.8981 28.46 49.3781 28.46C48.6048 28.46 47.9581 28.6933 47.4381 29.16C46.9315 29.6133 46.5981 30.3533 46.4381 31.38ZM54.798 37.4C55.2113 37.4 55.498 37.3 55.658 37.1C55.818 36.8867 55.9113 36.6 55.938 36.24C55.9646 35.8667 55.978 35.44 55.978 34.96V30.4C55.978 30.1867 55.978 29.9733 55.978 29.76C55.9913 29.5467 56.018 29.3267 56.058 29.1C55.818 29.1133 55.578 29.1267 55.338 29.14C55.1113 29.14 54.878 29.1467 54.638 29.16V28.34H55.258C55.8313 28.34 56.2246 28.2867 56.438 28.18C56.6646 28.06 56.8513 27.9333 56.998 27.8H57.578C57.6046 28.0133 57.6246 28.28 57.638 28.6C57.6513 28.9067 57.6646 29.3 57.678 29.78C57.878 29.4467 58.1513 29.12 58.498 28.8C58.8446 28.48 59.2313 28.2133 59.658 28C60.098 27.7867 60.558 27.68 61.038 27.68C61.4113 27.68 61.738 27.78 62.018 27.98C62.298 28.18 62.438 28.5 62.438 28.94C62.438 29.1133 62.358 29.32 62.198 29.56C62.0513 29.8 61.798 29.9133 61.438 29.9C61.1446 29.8867 60.9113 29.7733 60.738 29.56C60.5646 29.3333 60.498 29.0733 60.538 28.78C60.0313 28.7533 59.518 28.9467 58.998 29.36C58.478 29.7733 58.0446 30.3067 57.698 30.96L57.718 35.88C57.718 36.1467 57.7113 36.3867 57.698 36.6C57.698 36.8 57.678 37.0133 57.638 37.24C57.8513 37.2267 58.058 37.22 58.258 37.22C58.4713 37.2067 58.6846 37.1933 58.898 37.18V38H54.798V37.4ZM64.9223 43.42C64.509 43.42 64.1557 43.32 63.8623 43.12C63.569 42.92 63.4223 42.6133 63.4223 42.2C63.4223 41.96 63.5023 41.74 63.6623 41.54C63.8223 41.34 64.029 41.24 64.2823 41.24C64.6023 41.2267 64.8157 41.3267 64.9223 41.54C65.0423 41.7533 65.1023 41.94 65.1023 42.1C65.1023 42.14 65.1023 42.18 65.1023 42.22C65.1023 42.2733 65.0957 42.3267 65.0823 42.38C65.1223 42.4067 65.1957 42.42 65.3023 42.42C65.4623 42.42 65.6357 42.3533 65.8223 42.22C66.009 42.0867 66.1757 41.8933 66.3223 41.64C66.4957 41.3467 66.6957 40.9067 66.9223 40.32C67.1623 39.7333 67.429 39.0333 67.7223 38.22L64.6023 31.54C64.2557 30.7933 64.0023 30.2 63.8423 29.76C63.6957 29.32 63.5957 28.9933 63.5423 28.78L62.5823 28.82V28H66.7223V28.6H66.6423C66.0823 28.64 65.7757 28.8533 65.7223 29.24C65.669 29.6133 65.8223 30.1867 66.1823 30.96L68.5223 35.98C68.829 35.1267 69.1223 34.2867 69.4023 33.46C69.6823 32.62 69.9623 31.7867 70.2423 30.96C70.349 30.6667 70.4557 30.3667 70.5623 30.06C70.6823 29.74 70.7957 29.46 70.9023 29.22C71.0223 28.9667 71.129 28.8067 71.2223 28.74L69.8423 28.82V28H72.9823V28.6C72.489 28.7867 72.1157 29.1 71.8623 29.54C71.6223 29.9667 71.3757 30.52 71.1223 31.2L68.6223 38.18C68.2223 39.3 67.8557 40.2467 67.5223 41.02C67.189 41.8067 66.8223 42.4 66.4223 42.8C66.0223 43.2133 65.5223 43.42 64.9223 43.42ZM78.6227 38V37.34C79.1293 37.3133 79.476 37.2 79.6627 37C79.8493 36.7867 79.9493 36.5 79.9627 36.14C79.9893 35.7667 80.0027 35.3467 80.0027 34.88V26.24C80.0027 25.68 80.0227 25.2 80.0627 24.8C79.8227 24.8133 79.5827 24.8267 79.3427 24.84C79.1027 24.8533 78.8627 24.8667 78.6227 24.88V24C79.3693 23.9867 80.1227 23.9733 80.8827 23.96C81.656 23.9467 82.4293 23.9533 83.2027 23.98C85.136 24.0067 86.5227 24.3333 87.3627 24.96C88.216 25.5867 88.6427 26.4533 88.6427 27.56C88.656 28.08 88.556 28.6133 88.3427 29.16C88.1427 29.6933 87.7693 30.1733 87.2227 30.6C86.6893 31.0267 85.916 31.3467 84.9027 31.56C85.1693 31.7467 85.4027 31.9867 85.6027 32.28C85.8027 32.5733 86.0293 32.9133 86.2827 33.3L87.6427 35.44C87.8693 35.8 88.0893 36.1267 88.3027 36.42C88.516 36.7 88.7627 36.9267 89.0427 37.1C89.3227 37.26 89.6693 37.34 90.0827 37.34V38H87.5627C87.176 37.6533 86.8493 37.3067 86.5827 36.96C86.3293 36.6133 86.0627 36.22 85.7827 35.78L84.4427 33.64C84.2693 33.36 84.0693 33.04 83.8427 32.68C83.6293 32.3067 83.3827 31.9933 83.1027 31.74C82.8893 31.7533 82.6627 31.76 82.4227 31.76C82.196 31.76 81.9693 31.7533 81.7427 31.74V35.62C81.7427 36.3267 81.7227 36.8533 81.6827 37.2C81.9227 37.1867 82.1627 37.1733 82.4027 37.16C82.6427 37.1467 82.8827 37.1333 83.1227 37.12V38H78.6227ZM82.9827 31C83.716 30.9733 84.356 30.8533 84.9027 30.64C85.4627 30.4267 85.9027 30.0867 86.2227 29.62C86.5427 29.1533 86.7027 28.54 86.7027 27.78C86.7027 26.7667 86.4093 26.0067 85.8227 25.5C85.2493 24.9933 84.3493 24.74 83.1227 24.74C82.6293 24.74 82.2827 24.84 82.0827 25.04C81.896 25.24 81.7893 25.52 81.7627 25.88C81.7493 26.2267 81.7427 26.64 81.7427 27.12V30.96C81.956 30.9733 82.156 30.9867 82.3427 31C82.5427 31.0133 82.756 31.0133 82.9827 31ZM96.9813 37.4C97.3946 37.4 97.6813 37.3 97.8413 37.1C98.0013 36.8867 98.0946 36.6 98.1213 36.24C98.1479 35.8667 98.1613 35.44 98.1613 34.96V32.16C98.1613 31.0133 97.9746 30.1533 97.6013 29.58C97.2413 29.0067 96.6679 28.7267 95.8813 28.74C95.3879 28.7533 94.9013 28.8733 94.4213 29.1C93.9546 29.3267 93.5746 29.62 93.2813 29.98V35.88C93.2813 36.1467 93.2746 36.3867 93.2613 36.6C93.2479 36.8 93.2213 37.0133 93.1813 37.24C93.3946 37.2267 93.6013 37.22 93.8013 37.22C94.0146 37.2067 94.2279 37.1933 94.4413 37.18V38H90.3613V37.4C90.7746 37.4 91.0613 37.3 91.2213 37.1C91.3813 36.8867 91.4746 36.6 91.5013 36.24C91.5413 35.8667 91.5613 35.44 91.5613 34.96V25.5C91.5613 25.2867 91.5613 25.0867 91.5613 24.9C91.5746 24.7 91.5946 24.4667 91.6213 24.2C91.3813 24.2133 91.1413 24.2267 90.9013 24.24C90.6746 24.2533 90.4413 24.2667 90.2013 24.28V23.44C90.7879 23.44 91.2413 23.4133 91.5613 23.36C91.8946 23.3067 92.1413 23.24 92.3013 23.16C92.4746 23.08 92.6079 22.9933 92.7013 22.9H93.2813V29C93.7213 28.6267 94.2346 28.3133 94.8213 28.06C95.4079 27.8067 95.9879 27.68 96.5613 27.68C97.7213 27.68 98.5546 28.0467 99.0613 28.78C99.5813 29.5 99.8479 30.6267 99.8613 32.16L99.8813 35.88C99.8813 36.1467 99.8746 36.3867 99.8613 36.6C99.8613 36.8 99.8413 37.0133 99.8013 37.24C100.015 37.2267 100.221 37.22 100.421 37.22C100.635 37.2067 100.848 37.1933 101.061 37.18V38H96.9813V37.4ZM103.537 43.42C103.124 43.42 102.771 43.32 102.477 43.12C102.184 42.92 102.037 42.6133 102.037 42.2C102.037 41.96 102.117 41.74 102.277 41.54C102.437 41.34 102.644 41.24 102.897 41.24C103.217 41.2267 103.431 41.3267 103.537 41.54C103.657 41.7533 103.717 41.94 103.717 42.1C103.717 42.14 103.717 42.18 103.717 42.22C103.717 42.2733 103.711 42.3267 103.697 42.38C103.737 42.4067 103.811 42.42 103.917 42.42C104.077 42.42 104.251 42.3533 104.437 42.22C104.624 42.0867 104.791 41.8933 104.937 41.64C105.111 41.3467 105.311 40.9067 105.537 40.32C105.777 39.7333 106.044 39.0333 106.337 38.22L103.217 31.54C102.871 30.7933 102.617 30.2 102.457 29.76C102.311 29.32 102.211 28.9933 102.157 28.78L101.197 28.82V28H105.337V28.6H105.257C104.697 28.64 104.391 28.8533 104.337 29.24C104.284 29.6133 104.437 30.1867 104.797 30.96L107.137 35.98C107.444 35.1267 107.737 34.2867 108.017 33.46C108.297 32.62 108.577 31.7867 108.857 30.96C108.964 30.6667 109.071 30.3667 109.177 30.06C109.297 29.74 109.411 29.46 109.517 29.22C109.637 28.9667 109.744 28.8067 109.837 28.74L108.457 28.82V28H111.597V28.6C111.104 28.7867 110.731 29.1 110.477 29.54C110.237 29.9667 109.991 30.52 109.737 31.2L107.237 38.18C106.837 39.3 106.471 40.2467 106.137 41.02C105.804 41.8067 105.437 42.4 105.037 42.8C104.637 43.2133 104.137 43.42 103.537 43.42ZM112.164 38V37.4C112.577 37.4 112.864 37.3 113.024 37.1C113.184 36.8867 113.277 36.6 113.304 36.24C113.33 35.8667 113.344 35.44 113.344 34.96V30.4C113.344 30.1867 113.344 29.9733 113.344 29.76C113.357 29.5467 113.384 29.3267 113.424 29.1C113.184 29.1133 112.944 29.1267 112.704 29.14C112.477 29.1533 112.244 29.1667 112.004 29.18V28.34C112.59 28.34 113.03 28.3133 113.324 28.26C113.63 28.2067 113.857 28.14 114.004 28.06C114.15 27.98 114.27 27.8933 114.364 27.8H114.944C114.97 27.9333 114.984 28.0867 114.984 28.26C114.997 28.4333 115.01 28.6333 115.024 28.86C115.424 28.5133 115.884 28.2333 116.404 28.02C116.924 27.7933 117.444 27.68 117.964 27.68C118.63 27.68 119.19 27.8 119.644 28.04C120.097 28.28 120.45 28.6067 120.704 29.02C121.157 28.6467 121.677 28.3333 122.264 28.08C122.864 27.8133 123.45 27.68 124.024 27.68C125.184 27.68 126.037 28.0333 126.584 28.74C127.13 29.4333 127.39 30.5733 127.364 32.16L127.344 35.88C127.344 36.1467 127.337 36.3867 127.324 36.6C127.324 36.8 127.304 37.0133 127.264 37.24C127.477 37.2267 127.684 37.22 127.884 37.22C128.097 37.2067 128.31 37.1933 128.524 37.18V38H124.444V37.4C124.857 37.4 125.144 37.3 125.304 37.1C125.464 36.8867 125.557 36.6 125.584 36.24C125.61 35.8667 125.624 35.44 125.624 34.96V32.16C125.624 31.0133 125.437 30.1533 125.064 29.58C124.704 29.0067 124.13 28.7267 123.344 28.74C122.93 28.74 122.517 28.8333 122.104 29.02C121.69 29.2067 121.33 29.44 121.024 29.72C121.09 29.9333 121.137 30.1667 121.164 30.42C121.204 30.66 121.224 30.9133 121.224 31.18C121.21 31.9533 121.204 32.7333 121.204 33.52C121.204 34.3067 121.197 35.0933 121.184 35.88C121.184 36.1467 121.177 36.3867 121.164 36.6C121.164 36.8 121.144 37.0133 121.104 37.24C121.317 37.2267 121.524 37.22 121.724 37.22C121.937 37.2067 122.15 37.1933 122.364 37.18V38H118.284V37.4C118.697 37.4 118.977 37.3 119.124 37.1C119.284 36.8867 119.377 36.6 119.404 36.24C119.444 35.8667 119.464 35.44 119.464 34.96L119.484 32.16C119.497 31.0133 119.33 30.1467 118.984 29.56C118.637 28.9733 118.07 28.6867 117.284 28.7C116.87 28.7 116.464 28.7933 116.064 28.98C115.664 29.1533 115.324 29.38 115.044 29.66C115.044 29.82 115.044 29.9933 115.044 30.18C115.057 30.3533 115.064 30.54 115.064 30.74V35.88C115.064 36.1467 115.057 36.3867 115.044 36.6C115.044 36.8 115.024 37.0133 114.984 37.24C115.197 37.2267 115.404 37.22 115.604 37.22C115.817 37.2067 116.03 37.1933 116.244 37.18V38H112.164ZM134.475 38.32C133.555 38.32 132.721 38.1067 131.975 37.68C131.241 37.24 130.661 36.6267 130.235 35.84C129.808 35.04 129.595 34.1 129.595 33.02C129.595 32.0867 129.801 31.2133 130.215 30.4C130.641 29.5867 131.235 28.9333 131.995 28.44C132.755 27.9333 133.635 27.68 134.635 27.68C135.381 27.68 136.061 27.84 136.675 28.16C137.288 28.48 137.775 28.9667 138.135 29.62C138.508 30.2733 138.695 31.1 138.695 32.1L131.655 32.22C131.641 33.7533 131.895 34.9867 132.415 35.92C132.935 36.84 133.781 37.3 134.955 37.3C135.368 37.3 135.788 37.2267 136.215 37.08C136.655 36.9333 137.061 36.7333 137.435 36.48C137.808 36.2267 138.108 35.9467 138.335 35.64L138.815 36.04C138.455 36.6 138.021 37.0467 137.515 37.38C137.008 37.7133 136.488 37.9533 135.955 38.1C135.421 38.2467 134.928 38.32 134.475 38.32ZM131.715 31.38H136.815C136.815 30.9 136.741 30.44 136.595 30C136.461 29.5467 136.235 29.18 135.915 28.9C135.595 28.6067 135.175 28.46 134.655 28.46C133.881 28.46 133.235 28.6933 132.715 29.16C132.208 29.6133 131.875 30.3533 131.715 31.38ZM144.175 38.32C143.508 38.32 142.915 38.2267 142.395 38.04C141.875 37.8667 141.448 37.6667 141.115 37.44L141.195 38.14H140.355L140.235 34.7H140.855C140.881 35.2467 141.035 35.74 141.315 36.18C141.595 36.6067 141.955 36.94 142.395 37.18C142.835 37.42 143.308 37.54 143.815 37.54C144.161 37.54 144.501 37.4867 144.835 37.38C145.168 37.26 145.448 37.0867 145.675 36.86C145.901 36.62 146.015 36.32 146.015 35.96C146.015 35.5867 145.901 35.28 145.675 35.04C145.461 34.7867 145.175 34.5667 144.815 34.38C144.455 34.1933 144.068 34.02 143.655 33.86C143.121 33.6467 142.588 33.42 142.055 33.18C141.535 32.9267 141.101 32.6 140.755 32.2C140.408 31.7867 140.235 31.2467 140.235 30.58C140.235 30.3 140.288 29.9933 140.395 29.66C140.501 29.3267 140.681 29.0133 140.935 28.72C141.188 28.4133 141.535 28.1667 141.975 27.98C142.415 27.78 142.975 27.68 143.655 27.68C144.015 27.68 144.415 27.74 144.855 27.86C145.295 27.98 145.721 28.2067 146.135 28.54L146.095 27.78H146.935V31.28H146.295C146.268 30.8133 146.161 30.3667 145.975 29.94C145.788 29.5 145.515 29.14 145.155 28.86C144.795 28.5667 144.328 28.42 143.755 28.42C143.141 28.42 142.661 28.5733 142.315 28.88C141.968 29.1867 141.795 29.54 141.795 29.94C141.795 30.3533 141.921 30.7 142.175 30.98C142.441 31.2467 142.781 31.48 143.195 31.68C143.608 31.88 144.048 32.0733 144.515 32.26C145.021 32.4733 145.515 32.7067 145.995 32.96C146.475 33.2133 146.868 33.5333 147.175 33.92C147.481 34.2933 147.635 34.78 147.635 35.38C147.635 36.0467 147.461 36.6 147.115 37.04C146.781 37.48 146.348 37.8 145.815 38C145.295 38.2133 144.748 38.32 144.175 38.32Z" fill="#2A2921"/>
<path d="M4.98 72.18C4.36 72.18 3.79 72.06 3.27 71.82C2.76 71.58 2.32 71.24 1.95 70.8C1.58 70.35 1.29 69.81 1.08 69.18C0.88 68.54 0.78 67.825 0.78 67.035C0.78 66.245 0.88 65.54 1.08 64.92C1.29 64.29 1.58 63.76 1.95 63.33C2.32 62.89 2.76 62.555 3.27 62.325C3.79 62.095 4.36 61.98 4.98 61.98C5.6 61.98 6.165 62.1 6.675 62.34C7.195 62.57 7.64 62.905 8.01 63.345C8.39 63.775 8.68 64.305 8.88 64.935C9.09 65.555 9.195 66.255 9.195 67.035C9.195 67.825 9.09 68.54 8.88 69.18C8.68 69.81 8.39 70.35 8.01 70.8C7.64 71.24 7.195 71.58 6.675 71.82C6.165 72.06 5.6 72.18 4.98 72.18ZM4.98 71.085C5.42 71.085 5.815 70.99 6.165 70.8C6.525 70.61 6.83 70.34 7.08 69.99C7.34 69.63 7.54 69.205 7.68 68.715C7.82 68.215 7.89 67.655 7.89 67.035C7.89 66.425 7.82 65.875 7.68 65.385C7.54 64.895 7.34 64.48 7.08 64.14C6.83 63.8 6.525 63.54 6.165 63.36C5.815 63.17 5.42 63.075 4.98 63.075C4.54 63.075 4.14 63.17 3.78 63.36C3.43 63.54 3.125 63.8 2.865 64.14C2.615 64.48 2.42 64.895 2.28 65.385C2.14 65.875 2.07 66.425 2.07 67.035C2.07 67.655 2.14 68.215 2.28 68.715C2.42 69.205 2.615 69.63 2.865 69.99C3.125 70.34 3.43 70.61 3.78 70.8C4.14 70.99 4.54 71.085 4.98 71.085ZM10.8909 72V64.71H11.9109L12.0159 65.76H12.0609C12.4109 65.41 12.7759 65.12 13.1559 64.89C13.5459 64.65 13.9959 64.53 14.5059 64.53C15.2759 64.53 15.8359 64.77 16.1859 65.25C16.5459 65.73 16.7259 66.44 16.7259 67.38V72H15.4959V67.545C15.4959 66.855 15.3859 66.36 15.1659 66.06C14.9459 65.75 14.5959 65.595 14.1159 65.595C13.7359 65.595 13.4009 65.69 13.1109 65.88C12.8209 66.07 12.4909 66.35 12.1209 66.72V72H10.8909ZM21.7491 72.18C21.2591 72.18 20.7991 72.095 20.3691 71.925C19.9491 71.745 19.5791 71.495 19.2591 71.175C18.9491 70.845 18.7041 70.445 18.5241 69.975C18.3441 69.505 18.2541 68.97 18.2541 68.37C18.2541 67.77 18.3441 67.235 18.5241 66.765C18.7141 66.285 18.9591 65.88 19.2591 65.55C19.5691 65.22 19.9191 64.97 20.3091 64.8C20.6991 64.62 21.1041 64.53 21.5241 64.53C21.9841 64.53 22.3941 64.61 22.7541 64.77C23.1241 64.93 23.4291 65.16 23.6691 65.46C23.9191 65.76 24.1091 66.12 24.2391 66.54C24.3691 66.96 24.4341 67.43 24.4341 67.95C24.4341 68.08 24.4291 68.21 24.4191 68.34C24.4191 68.46 24.4091 68.565 24.3891 68.655H19.4691C19.5191 69.435 19.7591 70.055 20.1891 70.515C20.6291 70.965 21.1991 71.19 21.8991 71.19C22.2491 71.19 22.5691 71.14 22.8591 71.04C23.1591 70.93 23.4441 70.79 23.7141 70.62L24.1491 71.43C23.8291 71.63 23.4741 71.805 23.0841 71.955C22.6941 72.105 22.2491 72.18 21.7491 72.18ZM19.4541 67.77H23.3541C23.3541 67.03 23.1941 66.47 22.8741 66.09C22.5641 65.7 22.1241 65.505 21.5541 65.505C21.2941 65.505 21.0441 65.555 20.8041 65.655C20.5741 65.755 20.3641 65.905 20.1741 66.105C19.9841 66.295 19.8241 66.53 19.6941 66.81C19.5741 67.09 19.4941 67.41 19.4541 67.77ZM28.8484 72V65.715H27.8584V64.785L28.8484 64.71V63.555C28.8484 62.805 29.0184 62.215 29.3584 61.785C29.7084 61.355 30.2484 61.14 30.9784 61.14C31.2084 61.14 31.4234 61.165 31.6234 61.215C31.8334 61.255 32.0234 61.31 32.1934 61.38L31.9234 62.325C31.6534 62.205 31.3784 62.145 31.0984 62.145C30.4184 62.145 30.0784 62.615 30.0784 63.555V64.71H31.6234V65.715H30.0784V72H28.8484ZM35.4068 72.18C34.9568 72.18 34.5268 72.095 34.1168 71.925C33.7168 71.755 33.3618 71.51 33.0518 71.19C32.7418 70.86 32.4918 70.46 32.3018 69.99C32.1218 69.51 32.0318 68.97 32.0318 68.37C32.0318 67.76 32.1218 67.22 32.3018 66.75C32.4918 66.27 32.7418 65.865 33.0518 65.535C33.3618 65.205 33.7168 64.955 34.1168 64.785C34.5268 64.615 34.9568 64.53 35.4068 64.53C35.8568 64.53 36.2818 64.615 36.6818 64.785C37.0918 64.955 37.4518 65.205 37.7618 65.535C38.0718 65.865 38.3168 66.27 38.4968 66.75C38.6868 67.22 38.7818 67.76 38.7818 68.37C38.7818 68.97 38.6868 69.51 38.4968 69.99C38.3168 70.46 38.0718 70.86 37.7618 71.19C37.4518 71.51 37.0918 71.755 36.6818 71.925C36.2818 72.095 35.8568 72.18 35.4068 72.18ZM35.4068 71.16C35.7168 71.16 36.0018 71.095 36.2618 70.965C36.5218 70.825 36.7418 70.635 36.9218 70.395C37.1118 70.145 37.2568 69.85 37.3568 69.51C37.4568 69.17 37.5068 68.79 37.5068 68.37C37.5068 67.95 37.4568 67.57 37.3568 67.23C37.2568 66.88 37.1118 66.58 36.9218 66.33C36.7418 66.08 36.5218 65.89 36.2618 65.76C36.0018 65.62 35.7168 65.55 35.4068 65.55C35.0968 65.55 34.8118 65.62 34.5518 65.76C34.2918 65.89 34.0668 66.08 33.8768 66.33C33.6968 66.58 33.5568 66.88 33.4568 67.23C33.3568 67.57 33.3068 67.95 33.3068 68.37C33.3068 68.79 33.3568 69.17 33.4568 69.51C33.5568 69.85 33.6968 70.145 33.8768 70.395C34.0668 70.635 34.2918 70.825 34.5518 70.965C34.8118 71.095 35.0968 71.16 35.4068 71.16ZM40.4017 72V64.71H41.4217L41.5267 66.03H41.5717C41.8217 65.57 42.1217 65.205 42.4717 64.935C42.8317 64.665 43.2217 64.53 43.6417 64.53C43.9317 64.53 44.1917 64.58 44.4217 64.68L44.1817 65.76C44.0617 65.72 43.9517 65.69 43.8517 65.67C43.7517 65.65 43.6267 65.64 43.4767 65.64C43.1667 65.64 42.8417 65.765 42.5017 66.015C42.1717 66.265 41.8817 66.7 41.6317 67.32V72H40.4017ZM49.9098 72.18C49.3898 72.18 48.8948 72.085 48.4248 71.895C47.9548 71.705 47.5448 71.465 47.1948 71.175L47.8098 70.35C48.1298 70.61 48.4548 70.82 48.7848 70.98C49.1248 71.14 49.5148 71.22 49.9548 71.22C50.4348 71.22 50.7948 71.11 51.0348 70.89C51.2748 70.67 51.3948 70.4 51.3948 70.08C51.3948 69.89 51.3448 69.725 51.2448 69.585C51.1448 69.445 51.0148 69.325 50.8548 69.225C50.7048 69.115 50.5298 69.02 50.3298 68.94C50.1298 68.86 49.9298 68.78 49.7298 68.7C49.4698 68.61 49.2098 68.51 48.9498 68.4C48.6898 68.28 48.4548 68.14 48.2448 67.98C48.0448 67.81 47.8798 67.615 47.7498 67.395C47.6198 67.175 47.5548 66.91 47.5548 66.6C47.5548 66.31 47.6098 66.04 47.7198 65.79C47.8398 65.53 48.0048 65.31 48.2148 65.13C48.4348 64.94 48.6998 64.795 49.0098 64.695C49.3198 64.585 49.6698 64.53 50.0598 64.53C50.5198 64.53 50.9398 64.61 51.3198 64.77C51.7098 64.93 52.0448 65.125 52.3248 65.355L51.7398 66.135C51.4898 65.945 51.2298 65.79 50.9598 65.67C50.6898 65.55 50.3948 65.49 50.0748 65.49C49.6148 65.49 49.2748 65.595 49.0548 65.805C48.8448 66.015 48.7398 66.26 48.7398 66.54C48.7398 66.71 48.7848 66.86 48.8748 66.99C48.9648 67.11 49.0848 67.22 49.2348 67.32C49.3848 67.41 49.5548 67.495 49.7448 67.575C49.9448 67.645 50.1498 67.72 50.3598 67.8C50.6198 67.9 50.8798 68.005 51.1398 68.115C51.4098 68.225 51.6498 68.365 51.8598 68.535C52.0698 68.695 52.2398 68.895 52.3698 69.135C52.5098 69.375 52.5798 69.665 52.5798 70.005C52.5798 70.305 52.5198 70.585 52.3998 70.845C52.2898 71.105 52.1198 71.335 51.8898 71.535C51.6698 71.735 51.3898 71.89 51.0498 72C50.7198 72.12 50.3398 72.18 49.9098 72.18ZM56.824 72.18C56.374 72.18 55.944 72.095 55.534 71.925C55.134 71.755 54.779 71.51 54.469 71.19C54.159 70.86 53.909 70.46 53.719 69.99C53.539 69.51 53.449 68.97 53.449 68.37C53.449 67.76 53.539 67.22 53.719 66.75C53.909 66.27 54.159 65.865 54.469 65.535C54.779 65.205 55.134 64.955 55.534 64.785C55.944 64.615 56.374 64.53 56.824 64.53C57.274 64.53 57.699 64.615 58.099 64.785C58.509 64.955 58.869 65.205 59.179 65.535C59.489 65.865 59.734 66.27 59.914 66.75C60.104 67.22 60.199 67.76 60.199 68.37C60.199 68.97 60.104 69.51 59.914 69.99C59.734 70.46 59.489 70.86 59.179 71.19C58.869 71.51 58.509 71.755 58.099 71.925C57.699 72.095 57.274 72.18 56.824 72.18ZM56.824 71.16C57.134 71.16 57.419 71.095 57.679 70.965C57.939 70.825 58.159 70.635 58.339 70.395C58.529 70.145 58.674 69.85 58.774 69.51C58.874 69.17 58.924 68.79 58.924 68.37C58.924 67.95 58.874 67.57 58.774 67.23C58.674 66.88 58.529 66.58 58.339 66.33C58.159 66.08 57.939 65.89 57.679 65.76C57.419 65.62 57.134 65.55 56.824 65.55C56.514 65.55 56.229 65.62 55.969 65.76C55.709 65.89 55.484 66.08 55.294 66.33C55.114 66.58 54.974 66.88 54.874 67.23C54.774 67.57 54.724 67.95 54.724 68.37C54.724 68.79 54.774 69.17 54.874 69.51C54.974 69.85 55.114 70.145 55.294 70.395C55.484 70.635 55.709 70.825 55.969 70.965C56.229 71.095 56.514 71.16 56.824 71.16ZM61.8189 72V64.71H62.8389L62.9439 66.03H62.9889C63.2389 65.57 63.5389 65.205 63.8889 64.935C64.2489 64.665 64.6389 64.53 65.0589 64.53C65.3489 64.53 65.6089 64.58 65.8389 64.68L65.5989 65.76C65.4789 65.72 65.3689 65.69 65.2689 65.67C65.1689 65.65 65.0439 65.64 64.8939 65.64C64.5839 65.64 64.2589 65.765 63.9189 66.015C63.5889 66.265 63.2989 66.7 63.0489 67.32V72H61.8189ZM66.7191 72V64.71H67.7391L67.8441 66.03H67.8891C68.1391 65.57 68.4391 65.205 68.7891 64.935C69.1491 64.665 69.5391 64.53 69.9591 64.53C70.2491 64.53 70.5091 64.58 70.7391 64.68L70.4991 65.76C70.3791 65.72 70.2691 65.69 70.1691 65.67C70.0691 65.65 69.9441 65.64 69.7941 65.64C69.4841 65.64 69.1591 65.765 68.8191 66.015C68.4891 66.265 68.1991 66.7 67.9491 67.32V72H66.7191ZM74.3078 72.18C73.8578 72.18 73.4278 72.095 73.0178 71.925C72.6178 71.755 72.2628 71.51 71.9528 71.19C71.6428 70.86 71.3928 70.46 71.2028 69.99C71.0228 69.51 70.9328 68.97 70.9328 68.37C70.9328 67.76 71.0228 67.22 71.2028 66.75C71.3928 66.27 71.6428 65.865 71.9528 65.535C72.2628 65.205 72.6178 64.955 73.0178 64.785C73.4278 64.615 73.8578 64.53 74.3078 64.53C74.7578 64.53 75.1828 64.615 75.5828 64.785C75.9928 64.955 76.3528 65.205 76.6628 65.535C76.9728 65.865 77.2178 66.27 77.3978 66.75C77.5878 67.22 77.6828 67.76 77.6828 68.37C77.6828 68.97 77.5878 69.51 77.3978 69.99C77.2178 70.46 76.9728 70.86 76.6628 71.19C76.3528 71.51 75.9928 71.755 75.5828 71.925C75.1828 72.095 74.7578 72.18 74.3078 72.18ZM74.3078 71.16C74.6178 71.16 74.9028 71.095 75.1628 70.965C75.4228 70.825 75.6428 70.635 75.8228 70.395C76.0128 70.145 76.1578 69.85 76.2578 69.51C76.3578 69.17 76.4078 68.79 76.4078 68.37C76.4078 67.95 76.3578 67.57 76.2578 67.23C76.1578 66.88 76.0128 66.58 75.8228 66.33C75.6428 66.08 75.4228 65.89 75.1628 65.76C74.9028 65.62 74.6178 65.55 74.3078 65.55C73.9978 65.55 73.7128 65.62 73.4528 65.76C73.1928 65.89 72.9678 66.08 72.7778 66.33C72.5978 66.58 72.4578 66.88 72.3578 67.23C72.2578 67.57 72.2078 67.95 72.2078 68.37C72.2078 68.79 72.2578 69.17 72.3578 69.51C72.4578 69.85 72.5978 70.145 72.7778 70.395C72.9678 70.635 73.1928 70.825 73.4528 70.965C73.7128 71.095 73.9978 71.16 74.3078 71.16ZM80.3991 72L78.3741 64.71H79.6341L80.7141 68.925C80.7941 69.275 80.8691 69.615 80.9391 69.945C81.0091 70.275 81.0791 70.61 81.1491 70.95H81.2091C81.2891 70.61 81.3691 70.275 81.4491 69.945C81.5291 69.605 81.6141 69.265 81.7041 68.925L82.8291 64.71H84.0291L85.1691 68.925C85.2591 69.275 85.3441 69.615 85.4241 69.945C85.5141 70.275 85.5991 70.61 85.6791 70.95H85.7391C85.8191 70.61 85.8941 70.275 85.9641 69.945C86.0341 69.615 86.1091 69.275 86.1891 68.925L87.2541 64.71H88.4241L86.4741 72H84.9741L83.9241 68.085C83.8341 67.735 83.7491 67.39 83.6691 67.05C83.5991 66.71 83.5191 66.355 83.4291 65.985H83.3691C83.2891 66.355 83.2091 66.715 83.1291 67.065C83.0491 67.405 82.9591 67.75 82.8591 68.1L81.8391 72H80.3991ZM88.8704 74.55L88.5704 73.83C89.0004 73.64 89.3354 73.385 89.5754 73.065C89.8154 72.755 89.9304 72.4 89.9204 72C89.8904 72.01 89.8404 72.015 89.7704 72.015C89.5304 72.015 89.3204 71.945 89.1404 71.805C88.9704 71.655 88.8854 71.44 88.8854 71.16C88.8854 70.89 88.9754 70.68 89.1554 70.53C89.3354 70.37 89.5504 70.29 89.8004 70.29C90.1204 70.29 90.3704 70.42 90.5504 70.68C90.7404 70.94 90.8354 71.295 90.8354 71.745C90.8354 72.395 90.6604 72.96 90.3104 73.44C89.9604 73.92 89.4804 74.29 88.8704 74.55ZM97.3937 72V63.21H94.4237V62.16H101.624V63.21H98.6537V72H97.3937ZM103.618 72L101.593 64.71H102.853L103.933 68.925C104.013 69.275 104.088 69.615 104.158 69.945C104.228 70.275 104.298 70.61 104.368 70.95H104.428C104.508 70.61 104.588 70.275 104.668 69.945C104.748 69.605 104.833 69.265 104.923 68.925L106.048 64.71H107.248L108.388 68.925C108.478 69.275 108.563 69.615 108.643 69.945C108.733 70.275 108.818 70.61 108.898 70.95H108.958C109.038 70.61 109.113 70.275 109.183 69.945C109.253 69.615 109.328 69.275 109.408 68.925L110.473 64.71H111.643L109.693 72H108.193L107.143 68.085C107.053 67.735 106.968 67.39 106.888 67.05C106.818 66.71 106.738 66.355 106.648 65.985H106.588C106.508 66.355 106.428 66.715 106.348 67.065C106.268 67.405 106.178 67.75 106.078 68.1L105.058 72H103.618ZM115.706 72.18C115.256 72.18 114.826 72.095 114.416 71.925C114.016 71.755 113.661 71.51 113.351 71.19C113.041 70.86 112.791 70.46 112.601 69.99C112.421 69.51 112.331 68.97 112.331 68.37C112.331 67.76 112.421 67.22 112.601 66.75C112.791 66.27 113.041 65.865 113.351 65.535C113.661 65.205 114.016 64.955 114.416 64.785C114.826 64.615 115.256 64.53 115.706 64.53C116.156 64.53 116.581 64.615 116.981 64.785C117.391 64.955 117.751 65.205 118.061 65.535C118.371 65.865 118.616 66.27 118.796 66.75C118.986 67.22 119.081 67.76 119.081 68.37C119.081 68.97 118.986 69.51 118.796 69.99C118.616 70.46 118.371 70.86 118.061 71.19C117.751 71.51 117.391 71.755 116.981 71.925C116.581 72.095 116.156 72.18 115.706 72.18ZM115.706 71.16C116.016 71.16 116.301 71.095 116.561 70.965C116.821 70.825 117.041 70.635 117.221 70.395C117.411 70.145 117.556 69.85 117.656 69.51C117.756 69.17 117.806 68.79 117.806 68.37C117.806 67.95 117.756 67.57 117.656 67.23C117.556 66.88 117.411 66.58 117.221 66.33C117.041 66.08 116.821 65.89 116.561 65.76C116.301 65.62 116.016 65.55 115.706 65.55C115.396 65.55 115.111 65.62 114.851 65.76C114.591 65.89 114.366 66.08 114.176 66.33C113.996 66.58 113.856 66.88 113.756 67.23C113.656 67.57 113.606 67.95 113.606 68.37C113.606 68.79 113.656 69.17 113.756 69.51C113.856 69.85 113.996 70.145 114.176 70.395C114.366 70.635 114.591 70.825 114.851 70.965C115.111 71.095 115.396 71.16 115.706 71.16ZM123.614 72V65.715H122.624V64.785L123.614 64.71V63.555C123.614 62.805 123.784 62.215 124.124 61.785C124.474 61.355 125.014 61.14 125.744 61.14C125.974 61.14 126.189 61.165 126.389 61.215C126.599 61.255 126.789 61.31 126.959 61.38L126.689 62.325C126.419 62.205 126.144 62.145 125.864 62.145C125.184 62.145 124.844 62.615 124.844 63.555V64.71H126.389V65.715H124.844V72H123.614ZM130.172 72.18C129.722 72.18 129.292 72.095 128.882 71.925C128.482 71.755 128.127 71.51 127.817 71.19C127.507 70.86 127.257 70.46 127.067 69.99C126.887 69.51 126.797 68.97 126.797 68.37C126.797 67.76 126.887 67.22 127.067 66.75C127.257 66.27 127.507 65.865 127.817 65.535C128.127 65.205 128.482 64.955 128.882 64.785C129.292 64.615 129.722 64.53 130.172 64.53C130.622 64.53 131.047 64.615 131.447 64.785C131.857 64.955 132.217 65.205 132.527 65.535C132.837 65.865 133.082 66.27 133.262 66.75C133.452 67.22 133.547 67.76 133.547 68.37C133.547 68.97 133.452 69.51 133.262 69.99C133.082 70.46 132.837 70.86 132.527 71.19C132.217 71.51 131.857 71.755 131.447 71.925C131.047 72.095 130.622 72.18 130.172 72.18ZM130.172 71.16C130.482 71.16 130.767 71.095 131.027 70.965C131.287 70.825 131.507 70.635 131.687 70.395C131.877 70.145 132.022 69.85 132.122 69.51C132.222 69.17 132.272 68.79 132.272 68.37C132.272 67.95 132.222 67.57 132.122 67.23C132.022 66.88 131.877 66.58 131.687 66.33C131.507 66.08 131.287 65.89 131.027 65.76C130.767 65.62 130.482 65.55 130.172 65.55C129.862 65.55 129.577 65.62 129.317 65.76C129.057 65.89 128.832 66.08 128.642 66.33C128.462 66.58 128.322 66.88 128.222 67.23C128.122 67.57 128.072 67.95 128.072 68.37C128.072 68.79 128.122 69.17 128.222 69.51C128.322 69.85 128.462 70.145 128.642 70.395C128.832 70.635 129.057 70.825 129.317 70.965C129.577 71.095 129.862 71.16 130.172 71.16ZM135.167 72V64.71H136.187L136.292 66.03H136.337C136.587 65.57 136.887 65.205 137.237 64.935C137.597 64.665 137.987 64.53 138.407 64.53C138.697 64.53 138.957 64.58 139.187 64.68L138.947 65.76C138.827 65.72 138.717 65.69 138.617 65.67C138.517 65.65 138.392 65.64 138.242 65.64C137.932 65.64 137.607 65.765 137.267 66.015C136.937 66.265 136.647 66.7 136.397 67.32V72H135.167ZM1.23 93V85.71H2.25L2.355 86.76H2.4C2.72 86.41 3.065 86.12 3.435 85.89C3.815 85.65 4.225 85.53 4.665 85.53C5.225 85.53 5.66 85.655 5.97 85.905C6.29 86.145 6.525 86.485 6.675 86.925C7.055 86.505 7.435 86.17 7.815 85.92C8.205 85.66 8.625 85.53 9.075 85.53C9.825 85.53 10.38 85.77 10.74 86.25C11.11 86.73 11.295 87.44 11.295 88.38V93H10.065V88.545C10.065 87.855 9.955 87.36 9.735 87.06C9.515 86.75 9.175 86.595 8.715 86.595C8.165 86.595 7.555 86.97 6.885 87.72V93H5.655V88.545C5.655 87.855 5.545 87.36 5.325 87.06C5.105 86.75 4.76 86.595 4.29 86.595C3.74 86.595 3.13 86.97 2.46 87.72V93H1.23ZM13.3665 93V85.71H14.5965V93H13.3665ZM13.9965 84.21C13.7565 84.21 13.5515 84.135 13.3815 83.985C13.2215 83.835 13.1415 83.645 13.1415 83.415C13.1415 83.175 13.2215 82.985 13.3815 82.845C13.5515 82.695 13.7565 82.62 13.9965 82.62C14.2365 82.62 14.4365 82.695 14.5965 82.845C14.7665 82.985 14.8515 83.175 14.8515 83.415C14.8515 83.645 14.7665 83.835 14.5965 83.985C14.4365 84.135 14.2365 84.21 13.9965 84.21ZM16.7579 93V85.71H17.7779L17.8829 87.03H17.9279C18.1779 86.57 18.4779 86.205 18.8279 85.935C19.1879 85.665 19.5779 85.53 19.9979 85.53C20.2879 85.53 20.5479 85.58 20.7779 85.68L20.5379 86.76C20.4179 86.72 20.3079 86.69 20.2079 86.67C20.1079 86.65 19.9829 86.64 19.8329 86.64C19.5229 86.64 19.1979 86.765 18.8579 87.015C18.5279 87.265 18.2379 87.7 17.9879 88.32V93H16.7579ZM23.9531 93.18C23.5631 93.18 23.2331 93.12 22.9631 93C22.7031 92.88 22.4881 92.715 22.3181 92.505C22.1581 92.295 22.0431 92.04 21.9731 91.74C21.9031 91.44 21.8681 91.11 21.8681 90.75V86.715H20.7881V85.785L21.9281 85.71L22.0781 83.67H23.1131V85.71H25.0781V86.715H23.1131V90.765C23.1131 91.215 23.1931 91.565 23.3531 91.815C23.5231 92.055 23.8181 92.175 24.2381 92.175C24.3681 92.175 24.5081 92.155 24.6581 92.115C24.8081 92.075 24.9431 92.03 25.0631 91.98L25.3031 92.91C25.1031 92.98 24.8831 93.04 24.6431 93.09C24.4131 93.15 24.1831 93.18 23.9531 93.18ZM26.4265 93V82.32H27.6565V85.23L27.6115 86.73C27.9615 86.4 28.3265 86.12 28.7065 85.89C29.0865 85.65 29.5315 85.53 30.0415 85.53C30.8115 85.53 31.3715 85.77 31.7215 86.25C32.0815 86.73 32.2615 87.44 32.2615 88.38V93H31.0315V88.545C31.0315 87.855 30.9215 87.36 30.7015 87.06C30.4815 86.75 30.1315 86.595 29.6515 86.595C29.2715 86.595 28.9365 86.69 28.6465 86.88C28.3565 87.07 28.0265 87.35 27.6565 87.72V93H26.4265ZM34.0607 95.55L33.7607 94.83C34.1907 94.64 34.5257 94.385 34.7657 94.065C35.0057 93.755 35.1207 93.4 35.1107 93C35.0807 93.01 35.0307 93.015 34.9607 93.015C34.7207 93.015 34.5107 92.945 34.3307 92.805C34.1607 92.655 34.0757 92.44 34.0757 92.16C34.0757 91.89 34.1657 91.68 34.3457 91.53C34.5257 91.37 34.7407 91.29 34.9907 91.29C35.3107 91.29 35.5607 91.42 35.7407 91.68C35.9307 91.94 36.0257 92.295 36.0257 92.745C36.0257 93.395 35.8507 93.96 35.5007 94.44C35.1507 94.92 34.6707 95.29 34.0607 95.55ZM42.5839 93V84.21H39.6139V83.16H46.8139V84.21H43.8439V93H42.5839ZM48.1659 93V82.32H49.3959V85.23L49.3509 86.73C49.7009 86.4 50.0659 86.12 50.4459 85.89C50.8259 85.65 51.2709 85.53 51.7809 85.53C52.5509 85.53 53.1109 85.77 53.4609 86.25C53.8209 86.73 54.0009 87.44 54.0009 88.38V93H52.7709V88.545C52.7709 87.855 52.6609 87.36 52.4409 87.06C52.2209 86.75 51.8709 86.595 51.3909 86.595C51.0109 86.595 50.6759 86.69 50.3859 86.88C50.0959 87.07 49.7659 87.35 49.3959 87.72V93H48.1659ZM56.0251 93V85.71H57.0451L57.1501 87.03H57.1951C57.4451 86.57 57.7451 86.205 58.0951 85.935C58.4551 85.665 58.8451 85.53 59.2651 85.53C59.5551 85.53 59.8151 85.58 60.0451 85.68L59.8051 86.76C59.6851 86.72 59.5751 86.69 59.4751 86.67C59.3751 86.65 59.2501 86.64 59.1001 86.64C58.7901 86.64 58.4651 86.765 58.1251 87.015C57.7951 87.265 57.5051 87.7 57.2551 88.32V93H56.0251ZM63.7338 93.18C63.2438 93.18 62.7838 93.095 62.3538 92.925C61.9338 92.745 61.5638 92.495 61.2438 92.175C60.9338 91.845 60.6888 91.445 60.5088 90.975C60.3288 90.505 60.2388 89.97 60.2388 89.37C60.2388 88.77 60.3288 88.235 60.5088 87.765C60.6988 87.285 60.9438 86.88 61.2438 86.55C61.5538 86.22 61.9038 85.97 62.2938 85.8C62.6838 85.62 63.0888 85.53 63.5088 85.53C63.9688 85.53 64.3788 85.61 64.7388 85.77C65.1088 85.93 65.4138 86.16 65.6538 86.46C65.9038 86.76 66.0938 87.12 66.2238 87.54C66.3538 87.96 66.4188 88.43 66.4188 88.95C66.4188 89.08 66.4138 89.21 66.4038 89.34C66.4038 89.46 66.3938 89.565 66.3738 89.655H61.4538C61.5038 90.435 61.7438 91.055 62.1738 91.515C62.6138 91.965 63.1838 92.19 63.8838 92.19C64.2338 92.19 64.5538 92.14 64.8438 92.04C65.1438 91.93 65.4288 91.79 65.6988 91.62L66.1338 92.43C65.8138 92.63 65.4588 92.805 65.0688 92.955C64.6788 93.105 64.2338 93.18 63.7338 93.18ZM61.4388 88.77H65.3388C65.3388 88.03 65.1788 87.47 64.8588 87.09C64.5488 86.7 64.1088 86.505 63.5388 86.505C63.2788 86.505 63.0288 86.555 62.7888 86.655C62.5588 86.755 62.3488 86.905 62.1588 87.105C61.9688 87.295 61.8088 87.53 61.6788 87.81C61.5588 88.09 61.4788 88.41 61.4388 88.77ZM70.8752 93.18C70.3852 93.18 69.9252 93.095 69.4952 92.925C69.0752 92.745 68.7052 92.495 68.3852 92.175C68.0752 91.845 67.8302 91.445 67.6502 90.975C67.4702 90.505 67.3802 89.97 67.3802 89.37C67.3802 88.77 67.4702 88.235 67.6502 87.765C67.8402 87.285 68.0852 86.88 68.3852 86.55C68.6952 86.22 69.0452 85.97 69.4352 85.8C69.8252 85.62 70.2302 85.53 70.6502 85.53C71.1102 85.53 71.5202 85.61 71.8802 85.77C72.2502 85.93 72.5552 86.16 72.7952 86.46C73.0452 86.76 73.2352 87.12 73.3652 87.54C73.4952 87.96 73.5602 88.43 73.5602 88.95C73.5602 89.08 73.5552 89.21 73.5452 89.34C73.5452 89.46 73.5352 89.565 73.5152 89.655H68.5952C68.6452 90.435 68.8852 91.055 69.3152 91.515C69.7552 91.965 70.3252 92.19 71.0252 92.19C71.3752 92.19 71.6952 92.14 71.9852 92.04C72.2852 91.93 72.5702 91.79 72.8402 91.62L73.2752 92.43C72.9552 92.63 72.6002 92.805 72.2102 92.955C71.8202 93.105 71.3752 93.18 70.8752 93.18ZM68.5802 88.77H72.4802C72.4802 88.03 72.3202 87.47 72.0002 87.09C71.6902 86.7 71.2502 86.505 70.6802 86.505C70.4202 86.505 70.1702 86.555 69.9302 86.655C69.7002 86.755 69.4902 86.905 69.3002 87.105C69.1102 87.295 68.9502 87.53 68.8202 87.81C68.7002 88.09 68.6202 88.41 68.5802 88.77ZM77.9746 93V86.715H76.9846V85.785L77.9746 85.71V84.555C77.9746 83.805 78.1446 83.215 78.4846 82.785C78.8346 82.355 79.3746 82.14 80.1046 82.14C80.3346 82.14 80.5496 82.165 80.7496 82.215C80.9596 82.255 81.1496 82.31 81.3196 82.38L81.0496 83.325C80.7796 83.205 80.5046 83.145 80.2246 83.145C79.5446 83.145 79.2046 83.615 79.2046 84.555V85.71H80.7496V86.715H79.2046V93H77.9746ZM84.533 93.18C84.083 93.18 83.653 93.095 83.243 92.925C82.843 92.755 82.488 92.51 82.178 92.19C81.868 91.86 81.618 91.46 81.428 90.99C81.248 90.51 81.158 89.97 81.158 89.37C81.158 88.76 81.248 88.22 81.428 87.75C81.618 87.27 81.868 86.865 82.178 86.535C82.488 86.205 82.843 85.955 83.243 85.785C83.653 85.615 84.083 85.53 84.533 85.53C84.983 85.53 85.408 85.615 85.808 85.785C86.218 85.955 86.578 86.205 86.888 86.535C87.198 86.865 87.443 87.27 87.623 87.75C87.813 88.22 87.908 88.76 87.908 89.37C87.908 89.97 87.813 90.51 87.623 90.99C87.443 91.46 87.198 91.86 86.888 92.19C86.578 92.51 86.218 92.755 85.808 92.925C85.408 93.095 84.983 93.18 84.533 93.18ZM84.533 92.16C84.843 92.16 85.128 92.095 85.388 91.965C85.648 91.825 85.868 91.635 86.048 91.395C86.238 91.145 86.383 90.85 86.483 90.51C86.583 90.17 86.633 89.79 86.633 89.37C86.633 88.95 86.583 88.57 86.483 88.23C86.383 87.88 86.238 87.58 86.048 87.33C85.868 87.08 85.648 86.89 85.388 86.76C85.128 86.62 84.843 86.55 84.533 86.55C84.223 86.55 83.938 86.62 83.678 86.76C83.418 86.89 83.193 87.08 83.003 87.33C82.823 87.58 82.683 87.88 82.583 88.23C82.483 88.57 82.433 88.95 82.433 89.37C82.433 89.79 82.483 90.17 82.583 90.51C82.683 90.85 82.823 91.145 83.003 91.395C83.193 91.635 83.418 91.825 83.678 91.965C83.938 92.095 84.223 92.16 84.533 92.16ZM89.5279 93V85.71H90.5479L90.6529 87.03H90.6979C90.9479 86.57 91.2479 86.205 91.5979 85.935C91.9579 85.665 92.3479 85.53 92.7679 85.53C93.0579 85.53 93.3179 85.58 93.5479 85.68L93.3079 86.76C93.1879 86.72 93.0779 86.69 92.9779 86.67C92.8779 86.65 92.7529 86.64 92.6029 86.64C92.2929 86.64 91.9679 86.765 91.6279 87.015C91.2979 87.265 91.0079 87.7 90.7579 88.32V93H89.5279ZM98.811 93.18C98.201 93.18 97.691 93 97.281 92.64C96.881 92.28 96.681 91.77 96.681 91.11C96.681 90.31 97.036 89.7 97.746 89.28C98.456 88.85 99.591 88.55 101.151 88.38C101.151 88.15 101.126 87.925 101.076 87.705C101.036 87.485 100.961 87.29 100.851 87.12C100.741 86.95 100.586 86.815 100.386 86.715C100.196 86.605 99.951 86.55 99.651 86.55C99.231 86.55 98.836 86.63 98.466 86.79C98.096 86.95 97.766 87.13 97.476 87.33L96.996 86.475C97.336 86.255 97.751 86.045 98.241 85.845C98.731 85.635 99.271 85.53 99.861 85.53C100.751 85.53 101.396 85.805 101.796 86.355C102.196 86.895 102.396 87.62 102.396 88.53V93H101.376L101.271 92.13H101.226C100.876 92.42 100.501 92.67 100.101 92.88C99.701 93.08 99.271 93.18 98.811 93.18ZM99.171 92.19C99.521 92.19 99.851 92.11 100.161 91.95C100.471 91.78 100.801 91.535 101.151 91.215V89.19C100.541 89.27 100.026 89.365 99.606 89.475C99.196 89.585 98.861 89.715 98.601 89.865C98.351 90.015 98.166 90.19 98.046 90.39C97.936 90.58 97.881 90.79 97.881 91.02C97.881 91.44 98.006 91.74 98.256 91.92C98.506 92.1 98.811 92.19 99.171 92.19ZM108.248 93L106.223 85.71H107.483L108.563 89.925C108.643 90.275 108.718 90.615 108.788 90.945C108.858 91.275 108.928 91.61 108.998 91.95H109.058C109.138 91.61 109.218 91.275 109.298 90.945C109.378 90.605 109.463 90.265 109.553 89.925L110.678 85.71H111.878L113.018 89.925C113.108 90.275 113.193 90.615 113.273 90.945C113.363 91.275 113.448 91.61 113.528 91.95H113.588C113.668 91.61 113.743 91.275 113.813 90.945C113.883 90.615 113.958 90.275 114.038 89.925L115.103 85.71H116.273L114.323 93H112.823L111.773 89.085C111.683 88.735 111.598 88.39 111.518 88.05C111.448 87.71 111.368 87.355 111.278 86.985H111.218C111.138 87.355 111.058 87.715 110.978 88.065C110.898 88.405 110.808 88.75 110.708 89.1L109.688 93H108.248ZM120.456 93.18C119.966 93.18 119.506 93.095 119.076 92.925C118.656 92.745 118.286 92.495 117.966 92.175C117.656 91.845 117.411 91.445 117.231 90.975C117.051 90.505 116.961 89.97 116.961 89.37C116.961 88.77 117.051 88.235 117.231 87.765C117.421 87.285 117.666 86.88 117.966 86.55C118.276 86.22 118.626 85.97 119.016 85.8C119.406 85.62 119.811 85.53 120.231 85.53C120.691 85.53 121.101 85.61 121.461 85.77C121.831 85.93 122.136 86.16 122.376 86.46C122.626 86.76 122.816 87.12 122.946 87.54C123.076 87.96 123.141 88.43 123.141 88.95C123.141 89.08 123.136 89.21 123.126 89.34C123.126 89.46 123.116 89.565 123.096 89.655H118.176C118.226 90.435 118.466 91.055 118.896 91.515C119.336 91.965 119.906 92.19 120.606 92.19C120.956 92.19 121.276 92.14 121.566 92.04C121.866 91.93 122.151 91.79 122.421 91.62L122.856 92.43C122.536 92.63 122.181 92.805 121.791 92.955C121.401 93.105 120.956 93.18 120.456 93.18ZM118.161 88.77H122.061C122.061 88.03 121.901 87.47 121.581 87.09C121.271 86.7 120.831 86.505 120.261 86.505C120.001 86.505 119.751 86.555 119.511 86.655C119.281 86.755 119.071 86.905 118.881 87.105C118.691 87.295 118.531 87.53 118.401 87.81C118.281 88.09 118.201 88.41 118.161 88.77ZM127.132 93.18C126.212 93.18 125.477 92.85 124.927 92.19C124.387 91.53 124.117 90.59 124.117 89.37C124.117 88.78 124.202 88.25 124.372 87.78C124.552 87.3 124.787 86.895 125.077 86.565C125.367 86.235 125.702 85.98 126.082 85.8C126.462 85.62 126.862 85.53 127.282 85.53C127.702 85.53 128.067 85.605 128.377 85.755C128.687 85.905 129.002 86.11 129.322 86.37L129.262 85.125V82.32H130.507V93H129.487L129.382 92.145H129.337C129.047 92.425 128.712 92.67 128.332 92.88C127.962 93.08 127.562 93.18 127.132 93.18ZM127.402 92.145C127.742 92.145 128.062 92.065 128.362 91.905C128.662 91.735 128.962 91.48 129.262 91.14V87.33C128.952 87.05 128.652 86.855 128.362 86.745C128.082 86.625 127.792 86.565 127.492 86.565C127.202 86.565 126.927 86.635 126.667 86.775C126.417 86.905 126.197 87.095 126.007 87.345C125.817 87.585 125.667 87.875 125.557 88.215C125.447 88.555 125.392 88.935 125.392 89.355C125.392 90.235 125.567 90.92 125.917 91.41C126.267 91.9 126.762 92.145 127.402 92.145ZM135.152 93.18C134.232 93.18 133.497 92.85 132.947 92.19C132.407 91.53 132.137 90.59 132.137 89.37C132.137 88.78 132.222 88.25 132.392 87.78C132.572 87.3 132.807 86.895 133.097 86.565C133.387 86.235 133.722 85.98 134.102 85.8C134.482 85.62 134.882 85.53 135.302 85.53C135.722 85.53 136.087 85.605 136.397 85.755C136.707 85.905 137.022 86.11 137.342 86.37L137.282 85.125V82.32H138.527V93H137.507L137.402 92.145H137.357C137.067 92.425 136.732 92.67 136.352 92.88C135.982 93.08 135.582 93.18 135.152 93.18ZM135.422 92.145C135.762 92.145 136.082 92.065 136.382 91.905C136.682 91.735 136.982 91.48 137.282 91.14V87.33C136.972 87.05 136.672 86.855 136.382 86.745C136.102 86.625 135.812 86.565 135.512 86.565C135.222 86.565 134.947 86.635 134.687 86.775C134.437 86.905 134.217 87.095 134.027 87.345C133.837 87.585 133.687 87.875 133.577 88.215C133.467 88.555 133.412 88.935 133.412 89.355C133.412 90.235 133.587 90.92 133.937 91.41C134.287 91.9 134.782 92.145 135.422 92.145ZM140.683 93V85.71H141.913V93H140.683ZM141.313 84.21C141.073 84.21 140.868 84.135 140.698 83.985C140.538 83.835 140.458 83.645 140.458 83.415C140.458 83.175 140.538 82.985 140.698 82.845C140.868 82.695 141.073 82.62 141.313 82.62C141.553 82.62 141.753 82.695 141.913 82.845C142.083 82.985 142.168 83.175 142.168 83.415C142.168 83.645 142.083 83.835 141.913 83.985C141.753 84.135 141.553 84.21 141.313 84.21ZM144.074 93V85.71H145.094L145.199 86.76H145.244C145.594 86.41 145.959 86.12 146.339 85.89C146.729 85.65 147.179 85.53 147.689 85.53C148.459 85.53 149.019 85.77 149.369 86.25C149.729 86.73 149.909 87.44 149.909 88.38V93H148.679V88.545C148.679 87.855 148.569 87.36 148.349 87.06C148.129 86.75 147.779 86.595 147.299 86.595C146.919 86.595 146.584 86.69 146.294 86.88C146.004 87.07 145.674 87.35 145.304 87.72V93H144.074ZM154.437 96.36C153.987 96.36 153.577 96.315 153.207 96.225C152.837 96.145 152.517 96.02 152.247 95.85C151.987 95.68 151.782 95.475 151.632 95.235C151.492 94.995 151.422 94.715 151.422 94.395C151.422 94.085 151.517 93.79 151.707 93.51C151.897 93.23 152.157 92.975 152.487 92.745V92.685C152.307 92.575 152.152 92.425 152.022 92.235C151.902 92.035 151.842 91.79 151.842 91.5C151.842 91.19 151.927 90.92 152.097 90.69C152.267 90.46 152.447 90.28 152.637 90.15V90.09C152.397 89.89 152.177 89.625 151.977 89.295C151.787 88.955 151.692 88.565 151.692 88.125C151.692 87.725 151.762 87.365 151.902 87.045C152.052 86.725 152.252 86.455 152.502 86.235C152.752 86.005 153.042 85.83 153.372 85.71C153.712 85.59 154.067 85.53 154.437 85.53C154.637 85.53 154.822 85.55 154.992 85.59C155.172 85.62 155.332 85.66 155.472 85.71H158.007V86.655H156.507C156.677 86.825 156.817 87.04 156.927 87.3C157.047 87.56 157.107 87.845 157.107 88.155C157.107 88.545 157.037 88.9 156.897 89.22C156.757 89.53 156.567 89.795 156.327 90.015C156.087 90.225 155.802 90.39 155.472 90.51C155.152 90.63 154.807 90.69 154.437 90.69C154.257 90.69 154.072 90.67 153.882 90.63C153.692 90.58 153.512 90.515 153.342 90.435C153.212 90.545 153.102 90.67 153.012 90.81C152.922 90.94 152.877 91.105 152.877 91.305C152.877 91.535 152.967 91.725 153.147 91.875C153.327 92.025 153.667 92.1 154.167 92.1H155.577C156.427 92.1 157.062 92.24 157.482 92.52C157.912 92.79 158.127 93.23 158.127 93.84C158.127 94.18 158.042 94.5 157.872 94.8C157.702 95.11 157.457 95.38 157.137 95.61C156.817 95.84 156.427 96.02 155.967 96.15C155.517 96.29 155.007 96.36 154.437 96.36ZM154.437 89.865C154.647 89.865 154.842 89.825 155.022 89.745C155.212 89.665 155.377 89.55 155.517 89.4C155.667 89.25 155.782 89.07 155.862 88.86C155.942 88.64 155.982 88.395 155.982 88.125C155.982 87.585 155.832 87.17 155.532 86.88C155.232 86.58 154.867 86.43 154.437 86.43C154.007 86.43 153.642 86.58 153.342 86.88C153.042 87.17 152.892 87.585 152.892 88.125C152.892 88.395 152.932 88.64 153.012 88.86C153.092 89.07 153.202 89.25 153.342 89.4C153.492 89.55 153.657 89.665 153.837 89.745C154.027 89.825 154.227 89.865 154.437 89.865ZM154.617 95.505C154.967 95.505 155.282 95.46 155.562 95.37C155.852 95.29 156.097 95.18 156.297 95.04C156.497 94.91 156.652 94.755 156.762 94.575C156.872 94.395 156.927 94.21 156.927 94.02C156.927 93.68 156.802 93.445 156.552 93.315C156.302 93.185 155.937 93.12 155.457 93.12H154.197C154.057 93.12 153.902 93.11 153.732 93.09C153.572 93.08 153.412 93.05 153.252 93C152.992 93.19 152.802 93.39 152.682 93.6C152.562 93.81 152.502 94.02 152.502 94.23C152.502 94.62 152.687 94.93 153.057 95.16C153.437 95.39 153.957 95.505 154.617 95.505ZM159.011 95.55L158.711 94.83C159.141 94.64 159.476 94.385 159.716 94.065C159.956 93.755 160.071 93.4 160.061 93C160.031 93.01 159.981 93.015 159.911 93.015C159.671 93.015 159.461 92.945 159.281 92.805C159.111 92.655 159.026 92.44 159.026 92.16C159.026 91.89 159.116 91.68 159.296 91.53C159.476 91.37 159.691 91.29 159.941 91.29C160.261 91.29 160.511 91.42 160.691 91.68C160.881 91.94 160.976 92.295 160.976 92.745C160.976 93.395 160.801 93.96 160.451 94.44C160.101 94.92 159.621 95.29 159.011 95.55ZM3.045 108.495L2.58 109.995H5.535L5.07 108.495C4.89 107.945 4.72 107.4 4.56 106.86C4.4 106.31 4.24 105.75 4.08 105.18H4.02C3.87 105.75 3.715 106.31 3.555 106.86C3.395 107.4 3.225 107.945 3.045 108.495ZM0.045 114L3.375 104.16H4.785L8.115 114H6.78L5.85 111H2.265L1.32 114H0.045ZM9.08918 114V106.71H10.1092L10.2142 107.76H10.2592C10.6092 107.41 10.9742 107.12 11.3542 106.89C11.7442 106.65 12.1942 106.53 12.7042 106.53C13.4742 106.53 14.0342 106.77 14.3842 107.25C14.7442 107.73 14.9242 108.44 14.9242 109.38V114H13.6942V109.545C13.6942 108.855 13.5842 108.36 13.3642 108.06C13.1442 107.75 12.7942 107.595 12.3142 107.595C11.9342 107.595 11.5992 107.69 11.3092 107.88C11.0192 108.07 10.6892 108.35 10.3192 108.72V114H9.08918ZM19.4823 114.18C18.5623 114.18 17.8273 113.85 17.2773 113.19C16.7373 112.53 16.4673 111.59 16.4673 110.37C16.4673 109.78 16.5523 109.25 16.7223 108.78C16.9023 108.3 17.1373 107.895 17.4273 107.565C17.7173 107.235 18.0523 106.98 18.4323 106.8C18.8123 106.62 19.2123 106.53 19.6323 106.53C20.0523 106.53 20.4173 106.605 20.7273 106.755C21.0373 106.905 21.3523 107.11 21.6723 107.37L21.6123 106.125V103.32H22.8573V114H21.8373L21.7323 113.145H21.6873C21.3973 113.425 21.0623 113.67 20.6823 113.88C20.3123 114.08 19.9123 114.18 19.4823 114.18ZM19.7523 113.145C20.0923 113.145 20.4123 113.065 20.7123 112.905C21.0123 112.735 21.3123 112.48 21.6123 112.14V108.33C21.3023 108.05 21.0023 107.855 20.7123 107.745C20.4323 107.625 20.1423 107.565 19.8423 107.565C19.5523 107.565 19.2773 107.635 19.0173 107.775C18.7673 107.905 18.5473 108.095 18.3573 108.345C18.1673 108.585 18.0173 108.875 17.9073 109.215C17.7973 109.555 17.7423 109.935 17.7423 110.355C17.7423 111.235 17.9173 111.92 18.2673 112.41C18.6173 112.9 19.1123 113.145 19.7523 113.145ZM27.9255 114V107.715H26.9355V106.785L27.9255 106.71V105.555C27.9255 104.805 28.0955 104.215 28.4355 103.785C28.7855 103.355 29.3255 103.14 30.0555 103.14C30.2855 103.14 30.5005 103.165 30.7005 103.215C30.9105 103.255 31.1005 103.31 31.2705 103.38L31.0005 104.325C30.7305 104.205 30.4555 104.145 30.1755 104.145C29.4955 104.145 29.1555 104.615 29.1555 105.555V106.71H30.7005V107.715H29.1555V114H27.9255ZM34.4839 114.18C34.0339 114.18 33.6039 114.095 33.1939 113.925C32.7939 113.755 32.4389 113.51 32.1289 113.19C31.8189 112.86 31.5689 112.46 31.3789 111.99C31.1989 111.51 31.1089 110.97 31.1089 110.37C31.1089 109.76 31.1989 109.22 31.3789 108.75C31.5689 108.27 31.8189 107.865 32.1289 107.535C32.4389 107.205 32.7939 106.955 33.1939 106.785C33.6039 106.615 34.0339 106.53 34.4839 106.53C34.9339 106.53 35.3589 106.615 35.7589 106.785C36.1689 106.955 36.5289 107.205 36.8389 107.535C37.1489 107.865 37.3939 108.27 37.5739 108.75C37.7639 109.22 37.8589 109.76 37.8589 110.37C37.8589 110.97 37.7639 111.51 37.5739 111.99C37.3939 112.46 37.1489 112.86 36.8389 113.19C36.5289 113.51 36.1689 113.755 35.7589 113.925C35.3589 114.095 34.9339 114.18 34.4839 114.18ZM34.4839 113.16C34.7939 113.16 35.0789 113.095 35.3389 112.965C35.5989 112.825 35.8189 112.635 35.9989 112.395C36.1889 112.145 36.3339 111.85 36.4339 111.51C36.5339 111.17 36.5839 110.79 36.5839 110.37C36.5839 109.95 36.5339 109.57 36.4339 109.23C36.3339 108.88 36.1889 108.58 35.9989 108.33C35.8189 108.08 35.5989 107.89 35.3389 107.76C35.0789 107.62 34.7939 107.55 34.4839 107.55C34.1739 107.55 33.8889 107.62 33.6289 107.76C33.3689 107.89 33.1439 108.08 32.9539 108.33C32.7739 108.58 32.6339 108.88 32.5339 109.23C32.4339 109.57 32.3839 109.95 32.3839 110.37C32.3839 110.79 32.4339 111.17 32.5339 111.51C32.6339 111.85 32.7739 112.145 32.9539 112.395C33.1439 112.635 33.3689 112.825 33.6289 112.965C33.8889 113.095 34.1739 113.16 34.4839 113.16ZM41.6088 114.18C40.8288 114.18 40.2588 113.94 39.8988 113.46C39.5488 112.98 39.3738 112.27 39.3738 111.33V106.71H40.6188V111.165C40.6188 111.855 40.7238 112.355 40.9338 112.665C41.1538 112.965 41.5038 113.115 41.9838 113.115C42.3638 113.115 42.6988 113.02 42.9888 112.83C43.2788 112.63 43.5988 112.315 43.9488 111.885V106.71H45.1788V114H44.1588L44.0538 112.86H44.0088C43.6688 113.26 43.3088 113.58 42.9288 113.82C42.5588 114.06 42.1188 114.18 41.6088 114.18ZM47.338 114V106.71H48.358L48.463 108.03H48.508C48.758 107.57 49.058 107.205 49.408 106.935C49.768 106.665 50.158 106.53 50.578 106.53C50.868 106.53 51.128 106.58 51.358 106.68L51.118 107.76C50.998 107.72 50.888 107.69 50.788 107.67C50.688 107.65 50.563 107.64 50.413 107.64C50.103 107.64 49.778 107.765 49.438 108.015C49.108 108.265 48.818 108.7 48.568 109.32V114H47.338ZM55.1511 114V107.715H54.1611V106.785L55.1511 106.71V105.555C55.1511 104.805 55.3211 104.215 55.6611 103.785C56.0111 103.355 56.5511 103.14 57.2811 103.14C57.5111 103.14 57.7261 103.165 57.9261 103.215C58.1361 103.255 58.3261 103.31 58.4961 103.38L58.2261 104.325C57.9561 104.205 57.6811 104.145 57.4011 104.145C56.7211 104.145 56.3811 104.615 56.3811 105.555V106.71H57.9261V107.715H56.3811V114H55.1511ZM61.7095 114.18C61.2595 114.18 60.8295 114.095 60.4195 113.925C60.0195 113.755 59.6645 113.51 59.3545 113.19C59.0445 112.86 58.7945 112.46 58.6045 111.99C58.4245 111.51 58.3345 110.97 58.3345 110.37C58.3345 109.76 58.4245 109.22 58.6045 108.75C58.7945 108.27 59.0445 107.865 59.3545 107.535C59.6645 107.205 60.0195 106.955 60.4195 106.785C60.8295 106.615 61.2595 106.53 61.7095 106.53C62.1595 106.53 62.5845 106.615 62.9845 106.785C63.3945 106.955 63.7545 107.205 64.0645 107.535C64.3745 107.865 64.6195 108.27 64.7995 108.75C64.9895 109.22 65.0845 109.76 65.0845 110.37C65.0845 110.97 64.9895 111.51 64.7995 111.99C64.6195 112.46 64.3745 112.86 64.0645 113.19C63.7545 113.51 63.3945 113.755 62.9845 113.925C62.5845 114.095 62.1595 114.18 61.7095 114.18ZM61.7095 113.16C62.0195 113.16 62.3045 113.095 62.5645 112.965C62.8245 112.825 63.0445 112.635 63.2245 112.395C63.4145 112.145 63.5595 111.85 63.6595 111.51C63.7595 111.17 63.8095 110.79 63.8095 110.37C63.8095 109.95 63.7595 109.57 63.6595 109.23C63.5595 108.88 63.4145 108.58 63.2245 108.33C63.0445 108.08 62.8245 107.89 62.5645 107.76C62.3045 107.62 62.0195 107.55 61.7095 107.55C61.3995 107.55 61.1145 107.62 60.8545 107.76C60.5945 107.89 60.3695 108.08 60.1795 108.33C59.9995 108.58 59.8595 108.88 59.7595 109.23C59.6595 109.57 59.6095 109.95 59.6095 110.37C59.6095 110.79 59.6595 111.17 59.7595 111.51C59.8595 111.85 59.9995 112.145 60.1795 112.395C60.3695 112.635 60.5945 112.825 60.8545 112.965C61.1145 113.095 61.3995 113.16 61.7095 113.16ZM66.7044 114V106.71H67.7244L67.8294 108.03H67.8744C68.1244 107.57 68.4244 107.205 68.7744 106.935C69.1344 106.665 69.5244 106.53 69.9444 106.53C70.2344 106.53 70.4944 106.58 70.7244 106.68L70.4844 107.76C70.3644 107.72 70.2544 107.69 70.1544 107.67C70.0544 107.65 69.9294 107.64 69.7794 107.64C69.4694 107.64 69.1444 107.765 68.8044 108.015C68.4744 108.265 68.1844 108.7 67.9344 109.32V114H66.7044ZM76.7975 114.18C75.8775 114.18 75.1425 113.85 74.5925 113.19C74.0525 112.53 73.7825 111.59 73.7825 110.37C73.7825 109.78 73.8675 109.25 74.0375 108.78C74.2175 108.3 74.4525 107.895 74.7425 107.565C75.0325 107.235 75.3675 106.98 75.7475 106.8C76.1275 106.62 76.5275 106.53 76.9475 106.53C77.3675 106.53 77.7325 106.605 78.0425 106.755C78.3525 106.905 78.6675 107.11 78.9875 107.37L78.9275 106.125V103.32H80.1725V114H79.1525L79.0475 113.145H79.0025C78.7125 113.425 78.3775 113.67 77.9975 113.88C77.6275 114.08 77.2275 114.18 76.7975 114.18ZM77.0675 113.145C77.4075 113.145 77.7275 113.065 78.0275 112.905C78.3275 112.735 78.6275 112.48 78.9275 112.14V108.33C78.6175 108.05 78.3175 107.855 78.0275 107.745C77.7475 107.625 77.4575 107.565 77.1575 107.565C76.8675 107.565 76.5925 107.635 76.3325 107.775C76.0825 107.905 75.8625 108.095 75.6725 108.345C75.4825 108.585 75.3325 108.875 75.2225 109.215C75.1125 109.555 75.0575 109.935 75.0575 110.355C75.0575 111.235 75.2325 111.92 75.5825 112.41C75.9325 112.9 76.4275 113.145 77.0675 113.145ZM85.2829 114.18C84.7929 114.18 84.3329 114.095 83.9029 113.925C83.4829 113.745 83.1129 113.495 82.7929 113.175C82.4829 112.845 82.2379 112.445 82.0579 111.975C81.8779 111.505 81.7879 110.97 81.7879 110.37C81.7879 109.77 81.8779 109.235 82.0579 108.765C82.2479 108.285 82.4929 107.88 82.7929 107.55C83.1029 107.22 83.4529 106.97 83.8429 106.8C84.2329 106.62 84.6379 106.53 85.0579 106.53C85.5179 106.53 85.9279 106.61 86.2879 106.77C86.6579 106.93 86.9629 107.16 87.2029 107.46C87.4529 107.76 87.6429 108.12 87.7729 108.54C87.9029 108.96 87.9679 109.43 87.9679 109.95C87.9679 110.08 87.9629 110.21 87.9529 110.34C87.9529 110.46 87.9429 110.565 87.9229 110.655H83.0029C83.0529 111.435 83.2929 112.055 83.7229 112.515C84.1629 112.965 84.7329 113.19 85.4329 113.19C85.7829 113.19 86.1029 113.14 86.3929 113.04C86.6929 112.93 86.9779 112.79 87.2479 112.62L87.6829 113.43C87.3629 113.63 87.0079 113.805 86.6179 113.955C86.2279 114.105 85.7829 114.18 85.2829 114.18ZM82.9879 109.77H86.8879C86.8879 109.03 86.7279 108.47 86.4079 108.09C86.0979 107.7 85.6579 107.505 85.0879 107.505C84.8279 107.505 84.5779 107.555 84.3379 107.655C84.1079 107.755 83.8979 107.905 83.7079 108.105C83.5179 108.295 83.3579 108.53 83.2279 108.81C83.1079 109.09 83.0279 109.41 82.9879 109.77ZM90.9442 114.18C90.3342 114.18 89.8242 114 89.4142 113.64C89.0142 113.28 88.8142 112.77 88.8142 112.11C88.8142 111.31 89.1692 110.7 89.8792 110.28C90.5892 109.85 91.7242 109.55 93.2842 109.38C93.2842 109.15 93.2592 108.925 93.2092 108.705C93.1692 108.485 93.0942 108.29 92.9842 108.12C92.8742 107.95 92.7192 107.815 92.5192 107.715C92.3292 107.605 92.0842 107.55 91.7842 107.55C91.3642 107.55 90.9692 107.63 90.5992 107.79C90.2292 107.95 89.8992 108.13 89.6092 108.33L89.1292 107.475C89.4692 107.255 89.8842 107.045 90.3742 106.845C90.8642 106.635 91.4042 106.53 91.9942 106.53C92.8842 106.53 93.5292 106.805 93.9292 107.355C94.3292 107.895 94.5292 108.62 94.5292 109.53V114H93.5092L93.4042 113.13H93.3592C93.0092 113.42 92.6342 113.67 92.2342 113.88C91.8342 114.08 91.4042 114.18 90.9442 114.18ZM91.3042 113.19C91.6542 113.19 91.9842 113.11 92.2942 112.95C92.6042 112.78 92.9342 112.535 93.2842 112.215V110.19C92.6742 110.27 92.1592 110.365 91.7392 110.475C91.3292 110.585 90.9942 110.715 90.7342 110.865C90.4842 111.015 90.2992 111.19 90.1792 111.39C90.0692 111.58 90.0142 111.79 90.0142 112.02C90.0142 112.44 90.1392 112.74 90.3892 112.92C90.6392 113.1 90.9442 113.19 91.3042 113.19ZM98.6127 114.18C98.2227 114.18 97.8927 114.12 97.6227 114C97.3627 113.88 97.1477 113.715 96.9777 113.505C96.8177 113.295 96.7027 113.04 96.6327 112.74C96.5627 112.44 96.5277 112.11 96.5277 111.75V107.715H95.4477V106.785L96.5877 106.71L96.7377 104.67H97.7727V106.71H99.7377V107.715H97.7727V111.765C97.7727 112.215 97.8527 112.565 98.0127 112.815C98.1827 113.055 98.4777 113.175 98.8977 113.175C99.0277 113.175 99.1677 113.155 99.3177 113.115C99.4677 113.075 99.6027 113.03 99.7227 112.98L99.9627 113.91C99.7627 113.98 99.5427 114.04 99.3027 114.09C99.0727 114.15 98.8427 114.18 98.6127 114.18ZM101.086 114V103.32H102.316V106.23L102.271 107.73C102.621 107.4 102.986 107.12 103.366 106.89C103.746 106.65 104.191 106.53 104.701 106.53C105.471 106.53 106.031 106.77 106.381 107.25C106.741 107.73 106.921 108.44 106.921 109.38V114H105.691V109.545C105.691 108.855 105.581 108.36 105.361 108.06C105.141 107.75 104.791 107.595 104.311 107.595C103.931 107.595 103.596 107.69 103.306 107.88C103.016 108.07 102.686 108.35 102.316 108.72V114H101.086Z" fill="#2A2921"/>
</svg>
