<svg width="169" height="136" viewBox="0 0 169 136" fill="none" xmlns="http://www.w3.org/2000/svg">
<path d="M14.32 14V28H12.18L4.46 18.52V28H1.88V14H4.02L11.74 23.48V14H14.32ZM27.7714 17.32V28H25.3914V26.64C24.9914 27.12 24.4914 27.4933 23.8914 27.76C23.2914 28.0133 22.6447 28.14 21.9514 28.14C20.5247 28.14 19.3981 27.7467 18.5714 26.96C17.7581 26.16 17.3514 24.98 17.3514 23.42V17.32H19.8514V23.08C19.8514 24.04 20.0647 24.76 20.4914 25.24C20.9314 25.7067 21.5514 25.94 22.3514 25.94C23.2447 25.94 23.9514 25.6667 24.4714 25.12C25.0047 24.56 25.2714 23.76 25.2714 22.72V17.32H27.7714ZM33.0247 18.88C33.7447 17.76 35.0114 17.2 36.8247 17.2V19.58C36.6114 19.54 36.418 19.52 36.2447 19.52C35.2714 19.52 34.5114 19.8067 33.9647 20.38C33.418 20.94 33.1447 21.7533 33.1447 22.82V28H30.6447V17.32H33.0247V18.88ZM41.8845 28.14C41.0179 28.14 40.1712 28.0267 39.3445 27.8C38.5179 27.5733 37.8579 27.2867 37.3645 26.94L38.3245 25.04C38.8045 25.36 39.3779 25.62 40.0445 25.82C40.7245 26.0067 41.3912 26.1 42.0445 26.1C43.5379 26.1 44.2845 25.7067 44.2845 24.92C44.2845 24.5467 44.0912 24.2867 43.7045 24.14C43.3312 23.9933 42.7245 23.8533 41.8845 23.72C41.0045 23.5867 40.2845 23.4333 39.7245 23.26C39.1779 23.0867 38.6979 22.7867 38.2845 22.36C37.8845 21.92 37.6845 21.3133 37.6845 20.54C37.6845 19.5267 38.1045 18.72 38.9445 18.12C39.7979 17.5067 40.9445 17.2 42.3845 17.2C43.1179 17.2 43.8512 17.2867 44.5845 17.46C45.3179 17.62 45.9179 17.84 46.3845 18.12L45.4245 20.02C44.5179 19.4867 43.4979 19.22 42.3645 19.22C41.6312 19.22 41.0712 19.3333 40.6845 19.56C40.3112 19.7733 40.1245 20.06 40.1245 20.42C40.1245 20.82 40.3245 21.1067 40.7245 21.28C41.1379 21.44 41.7712 21.5933 42.6245 21.74C43.4779 21.8733 44.1779 22.0267 44.7245 22.2C45.2712 22.3733 45.7379 22.6667 46.1245 23.08C46.5245 23.4933 46.7245 24.08 46.7245 24.84C46.7245 25.84 46.2912 26.64 45.4245 27.24C44.5579 27.84 43.3779 28.14 41.8845 28.14ZM58.5175 22.72C58.5175 22.8933 58.5042 23.14 58.4775 23.46H50.0975C50.2442 24.2467 50.6242 24.8733 51.2375 25.34C51.8642 25.7933 52.6375 26.02 53.5575 26.02C54.7308 26.02 55.6975 25.6333 56.4575 24.86L57.7975 26.4C57.3175 26.9733 56.7108 27.4067 55.9775 27.7C55.2442 27.9933 54.4175 28.14 53.4975 28.14C52.3242 28.14 51.2908 27.9067 50.3975 27.44C49.5042 26.9733 48.8108 26.3267 48.3175 25.5C47.8375 24.66 47.5975 23.7133 47.5975 22.66C47.5975 21.62 47.8308 20.6867 48.2975 19.86C48.7775 19.02 49.4375 18.3667 50.2775 17.9C51.1175 17.4333 52.0642 17.2 53.1175 17.2C54.1575 17.2 55.0842 17.4333 55.8975 17.9C56.7242 18.3533 57.3642 19 57.8175 19.84C58.2842 20.6667 58.5175 21.6267 58.5175 22.72ZM53.1175 19.2C52.3175 19.2 51.6375 19.44 51.0775 19.92C50.5308 20.3867 50.1975 21.0133 50.0775 21.8H56.1375C56.0308 21.0267 55.7042 20.4 55.1575 19.92C54.6108 19.44 53.9308 19.2 53.1175 19.2ZM62.8989 18.88C63.6189 17.76 64.8856 17.2 66.6989 17.2V19.58C66.4856 19.54 66.2922 19.52 66.1189 19.52C65.1456 19.52 64.3856 19.8067 63.8389 20.38C63.2922 20.94 63.0189 21.7533 63.0189 22.82V28H60.5189V17.32H62.8989V18.88ZM78.8103 17.32L73.8103 28.86C73.3436 30.02 72.777 30.8333 72.1103 31.3C71.4436 31.78 70.637 32.02 69.6903 32.02C69.157 32.02 68.6303 31.9333 68.1103 31.76C67.5903 31.5867 67.1636 31.3467 66.8303 31.04L67.8303 29.2C68.0703 29.4267 68.3503 29.6067 68.6703 29.74C69.0036 29.8733 69.337 29.94 69.6703 29.94C70.1103 29.94 70.4703 29.8267 70.7503 29.6C71.0436 29.3733 71.3103 28.9933 71.5503 28.46L71.7303 28.04L67.0703 17.32H69.6703L73.0303 25.22L76.4103 17.32H78.8103ZM94.5002 28L91.6402 23.9C91.5202 23.9133 91.3402 23.92 91.1002 23.92H87.9402V28H85.3402V14H91.1002C92.3135 14 93.3668 14.2 94.2602 14.6C95.1668 15 95.8602 15.5733 96.3402 16.32C96.8202 17.0667 97.0602 17.9533 97.0602 18.98C97.0602 20.0333 96.8002 20.94 96.2802 21.7C95.7735 22.46 95.0402 23.0267 94.0802 23.4L97.3002 28H94.5002ZM94.4402 18.98C94.4402 18.0867 94.1468 17.4 93.5602 16.92C92.9735 16.44 92.1135 16.2 90.9802 16.2H87.9402V21.78H90.9802C92.1135 21.78 92.9735 21.54 93.5602 21.06C94.1468 20.5667 94.4402 19.8733 94.4402 18.98ZM105.389 17.2C106.736 17.2 107.816 17.5933 108.629 18.38C109.442 19.1667 109.849 20.3333 109.849 21.88V28H107.349V22.2C107.349 21.2667 107.129 20.5667 106.689 20.1C106.249 19.62 105.622 19.38 104.809 19.38C103.889 19.38 103.162 19.66 102.629 20.22C102.096 20.7667 101.829 21.56 101.829 22.6V28H99.3291V13.16H101.829V18.56C102.242 18.12 102.749 17.7867 103.349 17.56C103.962 17.32 104.642 17.2 105.389 17.2ZM122.425 17.32L117.425 28.86C116.958 30.02 116.392 30.8333 115.725 31.3C115.058 31.78 114.252 32.02 113.305 32.02C112.772 32.02 112.245 31.9333 111.725 31.76C111.205 31.5867 110.778 31.3467 110.445 31.04L111.445 29.2C111.685 29.4267 111.965 29.6067 112.285 29.74C112.618 29.8733 112.952 29.94 113.285 29.94C113.725 29.94 114.085 29.8267 114.365 29.6C114.658 29.3733 114.925 28.9933 115.165 28.46L115.345 28.04L110.685 17.32H113.285L116.645 25.22L120.025 17.32H122.425ZM137.068 17.2C138.414 17.2 139.481 17.5933 140.268 18.38C141.054 19.1533 141.448 20.32 141.448 21.88V28H138.948V22.2C138.948 21.2667 138.741 20.5667 138.328 20.1C137.914 19.62 137.321 19.38 136.548 19.38C135.708 19.38 135.034 19.66 134.528 20.22C134.021 20.7667 133.768 21.5533 133.768 22.58V28H131.268V22.2C131.268 21.2667 131.061 20.5667 130.648 20.1C130.234 19.62 129.641 19.38 128.868 19.38C128.014 19.38 127.334 19.6533 126.828 20.2C126.334 20.7467 126.088 21.54 126.088 22.58V28H123.588V17.32H125.968V18.68C126.368 18.2 126.868 17.8333 127.468 17.58C128.068 17.3267 128.734 17.2 129.468 17.2C130.268 17.2 130.974 17.3533 131.588 17.66C132.214 17.9533 132.708 18.3933 133.068 18.98C133.508 18.42 134.074 17.9867 134.768 17.68C135.461 17.36 136.228 17.2 137.068 17.2ZM154.38 22.72C154.38 22.8933 154.367 23.14 154.34 23.46H145.96C146.107 24.2467 146.487 24.8733 147.1 25.34C147.727 25.7933 148.5 26.02 149.42 26.02C150.593 26.02 151.56 25.6333 152.32 24.86L153.66 26.4C153.18 26.9733 152.573 27.4067 151.84 27.7C151.107 27.9933 150.28 28.14 149.36 28.14C148.187 28.14 147.153 27.9067 146.26 27.44C145.367 26.9733 144.673 26.3267 144.18 25.5C143.7 24.66 143.46 23.7133 143.46 22.66C143.46 21.62 143.693 20.6867 144.16 19.86C144.64 19.02 145.3 18.3667 146.14 17.9C146.98 17.4333 147.927 17.2 148.98 17.2C150.02 17.2 150.947 17.4333 151.76 17.9C152.587 18.3533 153.227 19 153.68 19.84C154.147 20.6667 154.38 21.6267 154.38 22.72ZM148.98 19.2C148.18 19.2 147.5 19.44 146.94 19.92C146.393 20.3867 146.06 21.0133 145.94 21.8H152C151.893 21.0267 151.567 20.4 151.02 19.92C150.473 19.44 149.793 19.2 148.98 19.2ZM159.681 28.14C158.815 28.14 157.968 28.0267 157.141 27.8C156.315 27.5733 155.655 27.2867 155.161 26.94L156.121 25.04C156.601 25.36 157.175 25.62 157.841 25.82C158.521 26.0067 159.188 26.1 159.841 26.1C161.335 26.1 162.081 25.7067 162.081 24.92C162.081 24.5467 161.888 24.2867 161.501 24.14C161.128 23.9933 160.521 23.8533 159.681 23.72C158.801 23.5867 158.081 23.4333 157.521 23.26C156.975 23.0867 156.495 22.7867 156.081 22.36C155.681 21.92 155.481 21.3133 155.481 20.54C155.481 19.5267 155.901 18.72 156.741 18.12C157.595 17.5067 158.741 17.2 160.181 17.2C160.915 17.2 161.648 17.2867 162.381 17.46C163.115 17.62 163.715 17.84 164.181 18.12L163.221 20.02C162.315 19.4867 161.295 19.22 160.161 19.22C159.428 19.22 158.868 19.3333 158.481 19.56C158.108 19.7733 157.921 20.06 157.921 20.42C157.921 20.82 158.121 21.1067 158.521 21.28C158.935 21.44 159.568 21.5933 160.421 21.74C161.275 21.8733 161.975 22.0267 162.521 22.2C163.068 22.3733 163.535 22.6667 163.921 23.08C164.321 23.4933 164.521 24.08 164.521 24.84C164.521 25.84 164.088 26.64 163.221 27.24C162.355 27.84 161.175 28.14 159.681 28.14Z" fill="#2A2921"/>
<path d="M4.845 51.4C6.065 51.4 7.05 51.82 7.8 52.66C8.56 53.49 8.94 54.705 8.94 56.305C8.94 57.895 8.565 59.105 7.815 59.935C7.065 60.755 6.075 61.165 4.845 61.165C3.615 61.165 2.625 60.75 1.875 59.92C1.135 59.08 0.765 57.87 0.765 56.29C0.765 54.7 1.135 53.49 1.875 52.66C2.625 51.82 3.615 51.4 4.845 51.4ZM4.845 52.465C3.965 52.465 3.27 52.795 2.76 53.455C2.25 54.115 1.995 55.065 1.995 56.305C1.995 57.545 2.25 58.485 2.76 59.125C3.27 59.765 3.965 60.085 4.845 60.085C5.725 60.085 6.42 59.765 6.93 59.125C7.45 58.485 7.71 57.545 7.71 56.305C7.71 55.065 7.45 54.115 6.93 53.455C6.42 52.795 5.725 52.465 4.845 52.465ZM12.0523 55.21C12.5223 54.17 13.3273 53.65 14.4673 53.65C15.3173 53.65 15.9773 53.93 16.4473 54.49C16.9273 55.05 17.1673 55.815 17.1673 56.785V61H15.9973V56.785C15.9973 56.095 15.8323 55.575 15.5023 55.225C15.1823 54.875 14.7223 54.7 14.1223 54.7C13.5223 54.7 13.0373 54.945 12.6673 55.435C12.2973 55.925 12.1023 56.605 12.0823 57.475V61H10.8973V53.83H11.9173L12.0523 55.21ZM22.1254 60.205C23.1154 60.205 23.6804 59.77 23.8204 58.9H25.0354C24.9254 59.62 24.6054 60.18 24.0754 60.58C23.5554 60.97 22.9054 61.165 22.1254 61.165C21.1654 61.165 20.3854 60.825 19.7854 60.145C19.1854 59.455 18.8854 58.54 18.8854 57.4C18.8854 56.26 19.1854 55.35 19.7854 54.67C20.3954 53.99 21.2004 53.65 22.2004 53.65C23.2104 53.65 23.9604 54.04 24.4504 54.82C24.9504 55.6 25.1254 56.55 24.9754 57.67H20.0704C20.0704 58.41 20.2504 59.02 20.6104 59.5C20.9704 59.97 21.4754 60.205 22.1254 60.205ZM22.9954 54.775C22.7654 54.655 22.4854 54.595 22.1554 54.595C21.5454 54.595 21.0604 54.805 20.7004 55.225C20.3504 55.635 20.1454 56.15 20.0854 56.77H23.9104C23.9104 55.77 23.6054 55.105 22.9954 54.775ZM33.8243 51.79C33.4943 51.66 33.2343 51.595 33.0443 51.595C32.6943 51.595 32.4193 51.68 32.2193 51.85C32.0193 52.02 31.9193 52.32 31.9193 52.75V53.83H33.4043V54.64H31.9193V61H30.7493V54.64H29.5643V53.83H30.7493V52.735C30.7493 52.025 30.9443 51.505 31.3343 51.175C31.7243 50.835 32.1743 50.665 32.6843 50.665C33.1943 50.665 33.6443 50.73 34.0343 50.86L33.8243 51.79ZM37.7659 53.65C38.7659 53.65 39.5709 53.975 40.1809 54.625C40.8009 55.275 41.1109 56.205 41.1109 57.415C41.1109 58.615 40.8009 59.54 40.1809 60.19C39.5709 60.84 38.7659 61.165 37.7659 61.165C36.7659 61.165 35.9559 60.84 35.3359 60.19C34.7259 59.54 34.4209 58.615 34.4209 57.415C34.4209 56.205 34.7259 55.275 35.3359 54.625C35.9559 53.975 36.7659 53.65 37.7659 53.65ZM39.9109 57.415C39.9109 56.555 39.7309 55.885 39.3709 55.405C39.0109 54.915 38.4809 54.67 37.7809 54.67C37.0909 54.67 36.5609 54.915 36.1909 55.405C35.8209 55.885 35.6359 56.555 35.6359 57.415C35.6359 58.265 35.8109 58.935 36.1609 59.425C36.5109 59.905 37.0309 60.145 37.7209 60.145C38.4209 60.145 38.9609 59.905 39.3409 59.425C39.7209 58.935 39.9109 58.265 39.9109 57.415ZM45.9994 54.835C44.8694 54.835 44.2844 55.725 44.2444 57.505V61H43.0594V53.815H44.2444V55.195C44.6044 54.195 45.2394 53.695 46.1494 53.695C46.4394 53.695 46.7144 53.74 46.9744 53.83L46.9144 54.985C46.6144 54.885 46.3094 54.835 45.9994 54.835ZM51.3865 55.585C51.3865 54.995 51.6365 54.525 52.1365 54.175C52.6465 53.825 53.3315 53.65 54.1915 53.65C55.0515 53.65 55.7215 53.83 56.2015 54.19C56.6915 54.55 56.9465 55.005 56.9665 55.555H55.8115C55.7215 54.905 55.1715 54.58 54.1615 54.58C53.6715 54.58 53.2915 54.69 53.0215 54.91C52.7615 55.13 52.6315 55.37 52.6315 55.63C52.6315 55.88 52.7315 56.095 52.9315 56.275C53.1315 56.445 53.4515 56.595 53.8915 56.725L55.3315 57.205C55.9415 57.395 56.4065 57.64 56.7265 57.94C57.0565 58.23 57.2215 58.635 57.2215 59.155C57.2215 59.665 56.9565 60.13 56.4265 60.55C55.8965 60.96 55.1565 61.165 54.2065 61.165C53.2565 61.165 52.5165 60.955 51.9865 60.535C51.4565 60.105 51.1765 59.555 51.1465 58.885H52.2865C52.3065 59.335 52.4865 59.675 52.8265 59.905C53.1765 60.125 53.6115 60.235 54.1315 60.235C54.6515 60.235 55.0815 60.125 55.4215 59.905C55.7615 59.685 55.9315 59.425 55.9315 59.125C55.9315 58.815 55.8315 58.58 55.6315 58.42C55.4315 58.26 55.1065 58.12 54.6565 58L53.2615 57.535C52.0115 57.165 51.3865 56.515 51.3865 55.585ZM61.937 53.65C62.937 53.65 63.742 53.975 64.352 54.625C64.972 55.275 65.282 56.205 65.282 57.415C65.282 58.615 64.972 59.54 64.352 60.19C63.742 60.84 62.937 61.165 61.937 61.165C60.937 61.165 60.127 60.84 59.507 60.19C58.897 59.54 58.592 58.615 58.592 57.415C58.592 56.205 58.897 55.275 59.507 54.625C60.127 53.975 60.937 53.65 61.937 53.65ZM64.082 57.415C64.082 56.555 63.902 55.885 63.542 55.405C63.182 54.915 62.652 54.67 61.952 54.67C61.262 54.67 60.732 54.915 60.362 55.405C59.992 55.885 59.807 56.555 59.807 57.415C59.807 58.265 59.982 58.935 60.332 59.425C60.682 59.905 61.202 60.145 61.892 60.145C62.592 60.145 63.132 59.905 63.512 59.425C63.892 58.935 64.082 58.265 64.082 57.415ZM70.1705 54.835C69.0405 54.835 68.4555 55.725 68.4155 57.505V61H67.2305V53.815H68.4155V55.195C68.7755 54.195 69.4105 53.695 70.3205 53.695C70.6105 53.695 70.8855 53.74 71.1455 53.83L71.0855 54.985C70.7855 54.885 70.4805 54.835 70.1705 54.835ZM75.5834 54.835C74.4534 54.835 73.8684 55.725 73.8284 57.505V61H72.6434V53.815H73.8284V55.195C74.1884 54.195 74.8234 53.695 75.7334 53.695C76.0234 53.695 76.2984 53.74 76.5584 53.83L76.4984 54.985C76.1984 54.885 75.8934 54.835 75.5834 54.835ZM80.6513 53.65C81.6513 53.65 82.4563 53.975 83.0663 54.625C83.6863 55.275 83.9963 56.205 83.9963 57.415C83.9963 58.615 83.6863 59.54 83.0663 60.19C82.4563 60.84 81.6513 61.165 80.6513 61.165C79.6513 61.165 78.8413 60.84 78.2213 60.19C77.6113 59.54 77.3063 58.615 77.3063 57.415C77.3063 56.205 77.6113 55.275 78.2213 54.625C78.8413 53.975 79.6513 53.65 80.6513 53.65ZM82.7963 57.415C82.7963 56.555 82.6163 55.885 82.2563 55.405C81.8963 54.915 81.3663 54.67 80.6663 54.67C79.9763 54.67 79.4463 54.915 79.0763 55.405C78.7063 55.885 78.5213 56.555 78.5213 57.415C78.5213 58.265 78.6963 58.935 79.0463 59.425C79.3963 59.905 79.9163 60.145 80.6063 60.145C81.3063 60.145 81.8463 59.905 82.2263 59.425C82.6063 58.935 82.7963 58.265 82.7963 57.415ZM85.9447 53.83L87.6847 59.545L89.3947 54.175H90.3847L92.0797 59.605L93.8347 53.83H95.0047L92.6647 61H91.5097L89.8597 55.975L88.2397 61H87.0997L84.7147 53.83H85.9447ZM96.5889 61.075C96.3589 61.055 96.1689 60.98 96.0189 60.85C95.8689 60.72 95.7939 60.545 95.7939 60.325C95.7939 60.105 95.8689 59.92 96.0189 59.77C96.1789 59.62 96.3989 59.545 96.6789 59.545C96.9689 59.545 97.2089 59.66 97.3989 59.89C97.5889 60.11 97.6839 60.39 97.6839 60.73C97.6839 61.07 97.5739 61.415 97.3539 61.765C97.1339 62.125 96.7989 62.415 96.3489 62.635L95.4639 62.2C96.0839 61.9 96.4589 61.525 96.5889 61.075ZM101.227 51.565H108.562V52.585H105.487V61H104.302V52.585H101.227V51.565ZM109.252 53.83L110.992 59.545L112.702 54.175H113.692L115.387 59.605L117.142 53.83H118.312L115.972 61H114.817L113.167 55.975L111.547 61H110.407L108.022 53.83H109.252ZM122.416 53.65C123.416 53.65 124.221 53.975 124.831 54.625C125.451 55.275 125.761 56.205 125.761 57.415C125.761 58.615 125.451 59.54 124.831 60.19C124.221 60.84 123.416 61.165 122.416 61.165C121.416 61.165 120.606 60.84 119.986 60.19C119.376 59.54 119.071 58.615 119.071 57.415C119.071 56.205 119.376 55.275 119.986 54.625C120.606 53.975 121.416 53.65 122.416 53.65ZM124.561 57.415C124.561 56.555 124.381 55.885 124.021 55.405C123.661 54.915 123.131 54.67 122.431 54.67C121.741 54.67 121.211 54.915 120.841 55.405C120.471 55.885 120.286 56.555 120.286 57.415C120.286 58.265 120.461 58.935 120.811 59.425C121.161 59.905 121.681 60.145 122.371 60.145C123.071 60.145 123.611 59.905 123.991 59.425C124.371 58.935 124.561 58.265 124.561 57.415ZM134.478 51.79C134.148 51.66 133.888 51.595 133.698 51.595C133.348 51.595 133.073 51.68 132.873 51.85C132.673 52.02 132.573 52.32 132.573 52.75V53.83H134.058V54.64H132.573V61H131.403V54.64H130.218V53.83H131.403V52.735C131.403 52.025 131.598 51.505 131.988 51.175C132.378 50.835 132.828 50.665 133.338 50.665C133.848 50.665 134.298 50.73 134.688 50.86L134.478 51.79ZM138.42 53.65C139.42 53.65 140.225 53.975 140.835 54.625C141.455 55.275 141.765 56.205 141.765 57.415C141.765 58.615 141.455 59.54 140.835 60.19C140.225 60.84 139.42 61.165 138.42 61.165C137.42 61.165 136.61 60.84 135.99 60.19C135.38 59.54 135.075 58.615 135.075 57.415C135.075 56.205 135.38 55.275 135.99 54.625C136.61 53.975 137.42 53.65 138.42 53.65ZM140.565 57.415C140.565 56.555 140.385 55.885 140.025 55.405C139.665 54.915 139.135 54.67 138.435 54.67C137.745 54.67 137.215 54.915 136.845 55.405C136.475 55.885 136.29 56.555 136.29 57.415C136.29 58.265 136.465 58.935 136.815 59.425C137.165 59.905 137.685 60.145 138.375 60.145C139.075 60.145 139.615 59.905 139.995 59.425C140.375 58.935 140.565 58.265 140.565 57.415ZM146.653 54.835C145.523 54.835 144.938 55.725 144.898 57.505V61H143.713V53.815H144.898V55.195C145.258 54.195 145.893 53.695 146.803 53.695C147.093 53.695 147.368 53.74 147.628 53.83L147.568 54.985C147.268 54.885 146.963 54.835 146.653 54.835ZM2.655 76.21C3.125 75.17 3.93 74.65 5.07 74.65C5.69 74.65 6.21 74.805 6.63 75.115C7.05 75.415 7.355 75.835 7.545 76.375C7.995 75.225 8.83 74.65 10.05 74.65C10.91 74.65 11.575 74.93 12.045 75.49C12.515 76.05 12.75 76.815 12.75 77.785V82H11.58V77.785C11.58 77.095 11.415 76.575 11.085 76.225C10.765 75.875 10.3 75.7 9.69 75.7C9.08 75.7 8.605 75.95 8.265 76.45C7.935 76.95 7.77 77.64 7.77 78.52V82H6.6V77.785C6.6 77.095 6.435 76.575 6.105 76.225C5.785 75.875 5.325 75.7 4.725 75.7C4.125 75.7 3.64 75.945 3.27 76.435C2.9 76.925 2.705 77.605 2.685 78.475V82H1.5V74.83H2.52L2.655 76.21ZM15.3086 74.815H16.4936V82H15.3086V74.815ZM15.8936 73.135C15.6536 73.135 15.4636 73.07 15.3236 72.94C15.1936 72.8 15.1286 72.62 15.1286 72.4C15.1286 72.17 15.1936 71.99 15.3236 71.86C15.4636 71.72 15.6536 71.65 15.8936 71.65C16.1336 71.65 16.3236 71.72 16.4636 71.86C16.6136 71.99 16.6886 72.17 16.6886 72.4C16.6886 72.62 16.6136 72.8 16.4636 72.94C16.3236 73.07 16.1336 73.135 15.8936 73.135ZM22.341 75.835C21.211 75.835 20.626 76.725 20.586 78.505V82H19.401V74.815H20.586V76.195C20.946 75.195 21.581 74.695 22.491 74.695C22.781 74.695 23.056 74.74 23.316 74.83L23.256 75.985C22.956 75.885 22.651 75.835 22.341 75.835ZM28.5789 81.79C27.7189 82.19 26.9339 82.275 26.2239 82.045C25.7139 81.885 25.3539 81.55 25.1439 81.04C25.0339 80.79 24.9789 80.49 24.9789 80.14V75.73H23.8239V74.83H24.9789V72.835H26.1489V74.83H28.3989V75.73H26.1489V80.125C26.1489 80.855 26.4889 81.22 27.1689 81.22C27.5389 81.22 27.9539 81.13 28.4139 80.95L28.5789 81.79ZM31.3535 76.15C31.8335 75.15 32.6285 74.65 33.7385 74.65C34.5885 74.65 35.2485 74.93 35.7185 75.49C36.1985 76.05 36.4385 76.815 36.4385 77.785V82H35.2685V77.785C35.2685 77.095 35.1035 76.575 34.7735 76.225C34.4535 75.875 33.9885 75.7 33.3785 75.7C32.7685 75.7 32.2785 75.96 31.9085 76.48C31.5385 76.99 31.3535 77.7 31.3535 78.61V82H30.1685V71.785H31.3535V76.15ZM38.9813 82.075C38.7513 82.055 38.5613 81.98 38.4113 81.85C38.2613 81.72 38.1863 81.545 38.1863 81.325C38.1863 81.105 38.2613 80.92 38.4113 80.77C38.5713 80.62 38.7913 80.545 39.0713 80.545C39.3613 80.545 39.6013 80.66 39.7913 80.89C39.9813 81.11 40.0763 81.39 40.0763 81.73C40.0763 82.07 39.9663 82.415 39.7463 82.765C39.5263 83.125 39.1913 83.415 38.7413 83.635L37.8563 83.2C38.4763 82.9 38.8513 82.525 38.9813 82.075ZM43.6199 72.565H50.9549V73.585H47.8799V82H46.6949V73.585H43.6199V72.565ZM53.4445 76.15C53.9245 75.15 54.7195 74.65 55.8295 74.65C56.6795 74.65 57.3395 74.93 57.8095 75.49C58.2895 76.05 58.5295 76.815 58.5295 77.785V82H57.3595V77.785C57.3595 77.095 57.1945 76.575 56.8645 76.225C56.5445 75.875 56.0795 75.7 55.4695 75.7C54.8595 75.7 54.3695 75.96 53.9995 76.48C53.6295 76.99 53.4445 77.7 53.4445 78.61V82H52.2595V71.785H53.4445V76.15ZM63.9373 75.835C62.8073 75.835 62.2223 76.725 62.1823 78.505V82H60.9973V74.815H62.1823V76.195C62.5423 75.195 63.1773 74.695 64.0873 74.695C64.3773 74.695 64.6523 74.74 64.9123 74.83L64.8523 75.985C64.5523 75.885 64.2473 75.835 63.9373 75.835ZM68.9002 81.205C69.8902 81.205 70.4552 80.77 70.5952 79.9H71.8102C71.7002 80.62 71.3802 81.18 70.8502 81.58C70.3302 81.97 69.6802 82.165 68.9002 82.165C67.9402 82.165 67.1602 81.825 66.5602 81.145C65.9602 80.455 65.6602 79.54 65.6602 78.4C65.6602 77.26 65.9602 76.35 66.5602 75.67C67.1702 74.99 67.9752 74.65 68.9752 74.65C69.9852 74.65 70.7352 75.04 71.2252 75.82C71.7252 76.6 71.9002 77.55 71.7502 78.67H66.8452C66.8452 79.41 67.0252 80.02 67.3852 80.5C67.7452 80.97 68.2502 81.205 68.9002 81.205ZM69.7702 75.775C69.5402 75.655 69.2602 75.595 68.9302 75.595C68.3202 75.595 67.8352 75.805 67.4752 76.225C67.1252 76.635 66.9202 77.15 66.8602 77.77H70.6852C70.6852 76.77 70.3802 76.105 69.7702 75.775ZM76.3199 81.205C77.3099 81.205 77.8749 80.77 78.0149 79.9H79.2299C79.1199 80.62 78.7999 81.18 78.2699 81.58C77.7499 81.97 77.0999 82.165 76.3199 82.165C75.3599 82.165 74.5799 81.825 73.9799 81.145C73.3799 80.455 73.0799 79.54 73.0799 78.4C73.0799 77.26 73.3799 76.35 73.9799 75.67C74.5899 74.99 75.3949 74.65 76.3949 74.65C77.4049 74.65 78.1549 75.04 78.6449 75.82C79.1449 76.6 79.3199 77.55 79.1699 78.67H74.2649C74.2649 79.41 74.4449 80.02 74.8049 80.5C75.1649 80.97 75.6699 81.205 76.3199 81.205ZM77.1899 75.775C76.9599 75.655 76.6799 75.595 76.3499 75.595C75.7399 75.595 75.2549 75.805 74.8949 76.225C74.5449 76.635 74.3399 77.15 74.2799 77.77H78.1049C78.1049 76.77 77.7999 76.105 77.1899 75.775ZM88.0188 72.79C87.6888 72.66 87.4288 72.595 87.2388 72.595C86.8888 72.595 86.6138 72.68 86.4138 72.85C86.2138 73.02 86.1138 73.32 86.1138 73.75V74.83H87.5988V75.64H86.1138V82H84.9438V75.64H83.7588V74.83H84.9438V73.735C84.9438 73.025 85.1388 72.505 85.5288 72.175C85.9188 71.835 86.3688 71.665 86.8788 71.665C87.3888 71.665 87.8388 71.73 88.2288 71.86L88.0188 72.79ZM91.9604 74.65C92.9604 74.65 93.7654 74.975 94.3754 75.625C94.9954 76.275 95.3054 77.205 95.3054 78.415C95.3054 79.615 94.9954 80.54 94.3754 81.19C93.7654 81.84 92.9604 82.165 91.9604 82.165C90.9604 82.165 90.1504 81.84 89.5304 81.19C88.9204 80.54 88.6154 79.615 88.6154 78.415C88.6154 77.205 88.9204 76.275 89.5304 75.625C90.1504 74.975 90.9604 74.65 91.9604 74.65ZM94.1054 78.415C94.1054 77.555 93.9254 76.885 93.5654 76.405C93.2054 75.915 92.6754 75.67 91.9754 75.67C91.2854 75.67 90.7554 75.915 90.3854 76.405C90.0154 76.885 89.8304 77.555 89.8304 78.415C89.8304 79.265 90.0054 79.935 90.3554 80.425C90.7054 80.905 91.2254 81.145 91.9154 81.145C92.6154 81.145 93.1554 80.905 93.5354 80.425C93.9154 79.935 94.1054 79.265 94.1054 78.415ZM100.194 75.835C99.0639 75.835 98.4789 76.725 98.4389 78.505V82H97.2539V74.815H98.4389V76.195C98.7989 75.195 99.4339 74.695 100.344 74.695C100.634 74.695 100.909 74.74 101.169 74.83L101.109 75.985C100.809 75.885 100.504 75.835 100.194 75.835ZM110.396 77.35C110.396 76.7 110.261 76.235 109.991 75.955C109.721 75.675 109.326 75.535 108.806 75.535C108.296 75.535 107.881 75.64 107.561 75.85C107.251 76.05 107.096 76.37 107.096 76.81H105.791C105.791 75.71 106.381 75.03 107.561 74.77C107.921 74.69 108.311 74.65 108.731 74.65C109.621 74.65 110.316 74.875 110.816 75.325C111.316 75.775 111.566 76.46 111.566 77.38V82H110.546L110.426 80.8C109.986 81.71 109.191 82.165 108.041 82.165C107.271 82.165 106.651 81.95 106.181 81.52C105.721 81.09 105.491 80.555 105.491 79.915C105.491 79.275 105.746 78.775 106.256 78.415C106.776 78.055 107.421 77.875 108.191 77.875C108.961 77.875 109.696 78.005 110.396 78.265V77.35ZM110.396 79.015C109.686 78.815 109.066 78.715 108.536 78.715C108.006 78.715 107.576 78.81 107.246 79C106.916 79.19 106.751 79.49 106.751 79.9C106.751 80.8 107.261 81.25 108.281 81.25C108.861 81.25 109.356 81.045 109.766 80.635C110.186 80.215 110.396 79.675 110.396 79.015ZM1.5 95.83L3.24 101.545L4.95 96.175H5.94L7.635 101.605L9.39 95.83H10.56L8.22 103H7.065L5.415 97.975L3.795 103H2.655L0.27 95.83H1.5ZM14.5591 102.205C15.5491 102.205 16.1141 101.77 16.2541 100.9H17.4691C17.3591 101.62 17.0391 102.18 16.5091 102.58C15.9891 102.97 15.3391 103.165 14.5591 103.165C13.5991 103.165 12.8191 102.825 12.2191 102.145C11.6191 101.455 11.3191 100.54 11.3191 99.4C11.3191 98.26 11.6191 97.35 12.2191 96.67C12.8291 95.99 13.6341 95.65 14.6341 95.65C15.6441 95.65 16.3941 96.04 16.8841 96.82C17.3841 97.6 17.5591 98.55 17.4091 99.67H12.5041C12.5041 100.41 12.6841 101.02 13.0441 101.5C13.4041 101.97 13.9091 102.205 14.5591 102.205ZM15.4291 96.775C15.1991 96.655 14.9191 96.595 14.5891 96.595C13.9791 96.595 13.4941 96.805 13.1341 97.225C12.7841 97.635 12.5791 98.15 12.5191 98.77H16.3441C16.3441 97.77 16.0391 97.105 15.4291 96.775ZM24.1989 96.895V92.785H25.3689V103H24.4089L24.2589 101.8C24.0289 102.25 23.7239 102.59 23.3439 102.82C22.9639 103.05 22.5489 103.165 22.0989 103.165C21.1889 103.165 20.4239 102.815 19.8039 102.115C19.1939 101.415 18.8889 100.505 18.8889 99.385C18.8889 98.255 19.1889 97.35 19.7889 96.67C20.3989 95.99 21.1639 95.65 22.0839 95.65C23.0139 95.65 23.7189 96.065 24.1989 96.895ZM22.1589 96.7C21.5789 96.7 21.0889 96.945 20.6889 97.435C20.2989 97.925 20.1039 98.58 20.1039 99.4C20.1039 100.22 20.3039 100.88 20.7039 101.38C21.1039 101.87 21.5839 102.115 22.1439 102.115C22.7039 102.115 23.1789 101.93 23.5689 101.56C23.9689 101.18 24.1789 100.675 24.1989 100.045V98.875C24.1989 98.205 24.0039 97.675 23.6139 97.285C23.2239 96.895 22.7389 96.7 22.1589 96.7ZM32.8051 96.895V92.785H33.9751V103H33.0151L32.8651 101.8C32.6351 102.25 32.3301 102.59 31.9501 102.82C31.5701 103.05 31.1551 103.165 30.7051 103.165C29.7951 103.165 29.0301 102.815 28.4101 102.115C27.8001 101.415 27.4951 100.505 27.4951 99.385C27.4951 98.255 27.7951 97.35 28.3951 96.67C29.0051 95.99 29.7701 95.65 30.6901 95.65C31.6201 95.65 32.3251 96.065 32.8051 96.895ZM30.7651 96.7C30.1851 96.7 29.6951 96.945 29.2951 97.435C28.9051 97.925 28.7101 98.58 28.7101 99.4C28.7101 100.22 28.9101 100.88 29.3101 101.38C29.7101 101.87 30.1901 102.115 30.7501 102.115C31.3101 102.115 31.7851 101.93 32.1751 101.56C32.5751 101.18 32.7851 100.675 32.8051 100.045V98.875C32.8051 98.205 32.6101 97.675 32.2201 97.285C31.8301 96.895 31.3451 96.7 30.7651 96.7ZM36.7914 95.815H37.9764V103H36.7914V95.815ZM37.3764 94.135C37.1364 94.135 36.9464 94.07 36.8064 93.94C36.6764 93.8 36.6114 93.62 36.6114 93.4C36.6114 93.17 36.6764 92.99 36.8064 92.86C36.9464 92.72 37.1364 92.65 37.3764 92.65C37.6164 92.65 37.8064 92.72 37.9464 92.86C38.0964 92.99 38.1714 93.17 38.1714 93.4C38.1714 93.62 38.0964 93.8 37.9464 93.94C37.8064 94.07 37.6164 94.135 37.3764 94.135ZM42.0388 97.21C42.5088 96.17 43.3138 95.65 44.4538 95.65C45.3038 95.65 45.9638 95.93 46.4338 96.49C46.9138 97.05 47.1538 97.815 47.1538 98.785V103H45.9838V98.785C45.9838 98.095 45.8188 97.575 45.4888 97.225C45.1688 96.875 44.7088 96.7 44.1088 96.7C43.5088 96.7 43.0238 96.945 42.6538 97.435C42.2838 97.925 42.0888 98.605 42.0688 99.475V103H40.8838V95.83H41.9038L42.0388 97.21ZM49.9369 102.775C49.3369 102.485 49.0369 102.04 49.0369 101.44C49.0369 101.13 49.1519 100.86 49.3819 100.63C49.6219 100.39 49.9169 100.23 50.2669 100.15C49.7269 99.67 49.4569 99.04 49.4569 98.26C49.4569 97.48 49.7319 96.85 50.2819 96.37C50.8419 95.89 51.5019 95.65 52.2619 95.65C53.0219 95.65 53.6669 95.83 54.1969 96.19C54.2669 95.66 54.4769 95.235 54.8269 94.915C55.1869 94.595 55.6569 94.435 56.2369 94.435L56.1319 95.605C55.2519 95.605 54.7919 95.975 54.7519 96.715C55.1019 97.145 55.2769 97.66 55.2769 98.26C55.2769 99.03 54.9969 99.665 54.4369 100.165C53.8869 100.655 53.1969 100.9 52.3669 100.9C51.7969 100.9 51.2919 100.785 50.8519 100.555C50.6519 100.595 50.4719 100.69 50.3119 100.84C50.1519 100.98 50.0719 101.175 50.0719 101.425C50.0719 101.955 50.5119 102.22 51.3919 102.22H54.1819C54.8519 102.22 55.3819 102.365 55.7719 102.655C56.1619 102.935 56.3569 103.33 56.3569 103.84C56.3569 104.6 55.9719 105.265 55.2019 105.835C54.4419 106.405 53.4769 106.69 52.3069 106.69C51.1369 106.69 50.2169 106.47 49.5469 106.03C48.8769 105.6 48.5419 105.055 48.5419 104.395C48.5419 103.965 48.6669 103.615 48.9169 103.345C49.1769 103.075 49.5169 102.885 49.9369 102.775ZM49.7119 104.35C49.7119 104.73 49.9169 105.055 50.3269 105.325C50.7469 105.605 51.3769 105.745 52.2169 105.745C53.0669 105.745 53.7719 105.56 54.3319 105.19C54.9019 104.83 55.1869 104.405 55.1869 103.915C55.1869 103.685 55.1019 103.485 54.9319 103.315C54.7719 103.155 54.5219 103.075 54.1819 103.075H51.2869C50.7769 103.095 50.3869 103.215 50.1169 103.435C49.8469 103.665 49.7119 103.97 49.7119 104.35ZM54.1219 98.26C54.1219 97.74 53.9669 97.32 53.6569 97C53.3469 96.67 52.9169 96.505 52.3669 96.505C51.8269 96.505 51.4019 96.67 51.0919 97C50.7819 97.32 50.6269 97.74 50.6269 98.26C50.6269 98.78 50.7819 99.21 51.0919 99.55C51.4119 99.88 51.8419 100.045 52.3819 100.045C52.9219 100.045 53.3469 99.875 53.6569 99.535C53.9669 99.195 54.1219 98.77 54.1219 98.26ZM57.8783 103.075C57.6483 103.055 57.4583 102.98 57.3083 102.85C57.1583 102.72 57.0833 102.545 57.0833 102.325C57.0833 102.105 57.1583 101.92 57.3083 101.77C57.4683 101.62 57.6883 101.545 57.9683 101.545C58.2583 101.545 58.4983 101.66 58.6883 101.89C58.8783 102.11 58.9733 102.39 58.9733 102.73C58.9733 103.07 58.8633 103.415 58.6433 103.765C58.4233 104.125 58.0883 104.415 57.6383 104.635L56.7533 104.2C57.3733 103.9 57.7483 103.525 57.8783 103.075ZM66.057 93.565H67.497L70.662 103H69.432L68.622 100.6H64.872L64.062 103H62.817L66.057 93.565ZM65.187 99.67H68.322L66.762 95.02L65.187 99.67ZM73.4099 97.21C73.8799 96.17 74.6849 95.65 75.8249 95.65C76.6749 95.65 77.3349 95.93 77.8049 96.49C78.2849 97.05 78.5249 97.815 78.5249 98.785V103H77.3549V98.785C77.3549 98.095 77.1899 97.575 76.8599 97.225C76.5399 96.875 76.0799 96.7 75.4799 96.7C74.8799 96.7 74.3949 96.945 74.0249 97.435C73.6549 97.925 73.4599 98.605 73.4399 99.475V103H72.2549V95.83H73.2749L73.4099 97.21ZM85.703 96.895V92.785H86.873V103H85.913L85.763 101.8C85.533 102.25 85.228 102.59 84.848 102.82C84.468 103.05 84.053 103.165 83.603 103.165C82.693 103.165 81.928 102.815 81.308 102.115C80.698 101.415 80.393 100.505 80.393 99.385C80.393 98.255 80.693 97.35 81.293 96.67C81.903 95.99 82.668 95.65 83.588 95.65C84.518 95.65 85.223 96.065 85.703 96.895ZM83.663 96.7C83.083 96.7 82.593 96.945 82.193 97.435C81.803 97.925 81.608 98.58 81.608 99.4C81.608 100.22 81.808 100.88 82.208 101.38C82.608 101.87 83.088 102.115 83.648 102.115C84.208 102.115 84.683 101.93 85.073 101.56C85.473 101.18 85.683 100.675 85.703 100.045V98.875C85.703 98.205 85.508 97.675 85.118 97.285C84.728 96.895 84.243 96.7 83.663 96.7ZM96.3684 93.79C96.0384 93.66 95.7784 93.595 95.5884 93.595C95.2384 93.595 94.9634 93.68 94.7634 93.85C94.5634 94.02 94.4634 94.32 94.4634 94.75V95.83H95.9484V96.64H94.4634V103H93.2934V96.64H92.1084V95.83H93.2934V94.735C93.2934 94.025 93.4884 93.505 93.8784 93.175C94.2684 92.835 94.7184 92.665 95.2284 92.665C95.7384 92.665 96.1884 92.73 96.5784 92.86L96.3684 93.79ZM100.31 95.65C101.31 95.65 102.115 95.975 102.725 96.625C103.345 97.275 103.655 98.205 103.655 99.415C103.655 100.615 103.345 101.54 102.725 102.19C102.115 102.84 101.31 103.165 100.31 103.165C99.31 103.165 98.5 102.84 97.88 102.19C97.27 101.54 96.965 100.615 96.965 99.415C96.965 98.205 97.27 97.275 97.88 96.625C98.5 95.975 99.31 95.65 100.31 95.65ZM102.455 99.415C102.455 98.555 102.275 97.885 101.915 97.405C101.555 96.915 101.025 96.67 100.325 96.67C99.635 96.67 99.105 96.915 98.735 97.405C98.365 97.885 98.18 98.555 98.18 99.415C98.18 100.265 98.355 100.935 98.705 101.425C99.055 101.905 99.575 102.145 100.265 102.145C100.965 102.145 101.505 101.905 101.885 101.425C102.265 100.935 102.455 100.265 102.455 99.415ZM110.494 101.575C110.004 102.615 109.209 103.135 108.109 103.135C107.299 103.135 106.644 102.91 106.144 102.46C105.654 102.01 105.409 101.315 105.409 100.375V95.815H106.594V100.285C106.594 101.495 107.154 102.1 108.274 102.1C108.924 102.1 109.449 101.85 109.849 101.35C110.259 100.85 110.474 100.21 110.494 99.43V95.815H111.679V103H110.494V101.575ZM117.34 96.835C116.21 96.835 115.625 97.725 115.585 99.505V103H114.4V95.815H115.585V97.195C115.945 96.195 116.58 95.695 117.49 95.695C117.78 95.695 118.055 95.74 118.315 95.83L118.255 96.985C117.955 96.885 117.65 96.835 117.34 96.835ZM126.582 93.79C126.252 93.66 125.992 93.595 125.802 93.595C125.452 93.595 125.177 93.68 124.977 93.85C124.777 94.02 124.677 94.32 124.677 94.75V95.83H126.162V96.64H124.677V103H123.507V96.64H122.322V95.83H123.507V94.735C123.507 94.025 123.702 93.505 124.092 93.175C124.482 92.835 124.932 92.665 125.442 92.665C125.952 92.665 126.402 92.73 126.792 92.86L126.582 93.79ZM130.524 95.65C131.524 95.65 132.329 95.975 132.939 96.625C133.559 97.275 133.869 98.205 133.869 99.415C133.869 100.615 133.559 101.54 132.939 102.19C132.329 102.84 131.524 103.165 130.524 103.165C129.524 103.165 128.714 102.84 128.094 102.19C127.484 101.54 127.179 100.615 127.179 99.415C127.179 98.205 127.484 97.275 128.094 96.625C128.714 95.975 129.524 95.65 130.524 95.65ZM132.669 99.415C132.669 98.555 132.489 97.885 132.129 97.405C131.769 96.915 131.239 96.67 130.539 96.67C129.849 96.67 129.319 96.915 128.949 97.405C128.579 97.885 128.394 98.555 128.394 99.415C128.394 100.265 128.569 100.935 128.919 101.425C129.269 101.905 129.789 102.145 130.479 102.145C131.179 102.145 131.719 101.905 132.099 101.425C132.479 100.935 132.669 100.265 132.669 99.415ZM138.757 96.835C137.627 96.835 137.042 97.725 137.002 99.505V103H135.817V95.815H137.002V97.195C137.362 96.195 137.997 95.695 138.907 95.695C139.197 95.695 139.472 95.74 139.732 95.83L139.672 96.985C139.372 96.885 139.067 96.835 138.757 96.835ZM6.21 117.895V113.785H7.38V124H6.42L6.27 122.8C6.04 123.25 5.735 123.59 5.355 123.82C4.975 124.05 4.56 124.165 4.11 124.165C3.2 124.165 2.435 123.815 1.815 123.115C1.205 122.415 0.9 121.505 0.9 120.385C0.9 119.255 1.2 118.35 1.8 117.67C2.41 116.99 3.175 116.65 4.095 116.65C5.025 116.65 5.73 117.065 6.21 117.895ZM4.17 117.7C3.59 117.7 3.1 117.945 2.7 118.435C2.31 118.925 2.115 119.58 2.115 120.4C2.115 121.22 2.315 121.88 2.715 122.38C3.115 122.87 3.595 123.115 4.155 123.115C4.715 123.115 5.19 122.93 5.58 122.56C5.98 122.18 6.19 121.675 6.21 121.045V119.875C6.21 119.205 6.015 118.675 5.625 118.285C5.235 117.895 4.75 117.7 4.17 117.7ZM12.5962 123.205C13.5862 123.205 14.1512 122.77 14.2912 121.9H15.5062C15.3963 122.62 15.0763 123.18 14.5463 123.58C14.0263 123.97 13.3762 124.165 12.5962 124.165C11.6362 124.165 10.8562 123.825 10.2562 123.145C9.65625 122.455 9.35625 121.54 9.35625 120.4C9.35625 119.26 9.65625 118.35 10.2562 117.67C10.8662 116.99 11.6712 116.65 12.6713 116.65C13.6813 116.65 14.4313 117.04 14.9213 117.82C15.4213 118.6 15.5963 119.55 15.4463 120.67H10.5412C10.5412 121.41 10.7212 122.02 11.0812 122.5C11.4412 122.97 11.9462 123.205 12.5962 123.205ZM13.4662 117.775C13.2363 117.655 12.9563 117.595 12.6262 117.595C12.0163 117.595 11.5312 117.805 11.1712 118.225C10.8212 118.635 10.6162 119.15 10.5562 119.77H14.3813C14.3813 118.77 14.0763 118.105 13.4662 117.775ZM21.981 119.35C21.981 118.7 21.846 118.235 21.576 117.955C21.306 117.675 20.911 117.535 20.391 117.535C19.881 117.535 19.466 117.64 19.146 117.85C18.836 118.05 18.681 118.37 18.681 118.81H17.376C17.376 117.71 17.966 117.03 19.146 116.77C19.506 116.69 19.896 116.65 20.316 116.65C21.206 116.65 21.901 116.875 22.401 117.325C22.901 117.775 23.151 118.46 23.151 119.38V124H22.131L22.011 122.8C21.571 123.71 20.776 124.165 19.626 124.165C18.856 124.165 18.236 123.95 17.766 123.52C17.306 123.09 17.076 122.555 17.076 121.915C17.076 121.275 17.331 120.775 17.841 120.415C18.361 120.055 19.006 119.875 19.776 119.875C20.546 119.875 21.281 120.005 21.981 120.265V119.35ZM21.981 121.015C21.271 120.815 20.651 120.715 20.121 120.715C19.591 120.715 19.161 120.81 18.831 121C18.501 121.19 18.336 121.49 18.336 121.9C18.336 122.8 18.846 123.25 19.866 123.25C20.446 123.25 20.941 123.045 21.351 122.635C21.771 122.215 21.981 121.675 21.981 121.015ZM29.3845 123.79C28.5245 124.19 27.7395 124.275 27.0295 124.045C26.5195 123.885 26.1595 123.55 25.9495 123.04C25.8395 122.79 25.7845 122.49 25.7845 122.14V117.73H24.6295V116.83H25.7845V114.835H26.9545V116.83H29.2045V117.73H26.9545V122.125C26.9545 122.855 27.2945 123.22 27.9745 123.22C28.3445 123.22 28.7595 123.13 29.2195 122.95L29.3845 123.79ZM32.1592 118.15C32.6392 117.15 33.4342 116.65 34.5442 116.65C35.3942 116.65 36.0542 116.93 36.5242 117.49C37.0042 118.05 37.2442 118.815 37.2442 119.785V124H36.0742V119.785C36.0742 119.095 35.9092 118.575 35.5792 118.225C35.2592 117.875 34.7942 117.7 34.1842 117.7C33.5742 117.7 33.0842 117.96 32.7142 118.48C32.3442 118.99 32.1592 119.7 32.1592 120.61V124H30.9742V113.785H32.1592V118.15Z" fill="#2A2921"/>
</svg>
