<svg width="169" height="136" viewBox="0 0 169 136" fill="none" xmlns="http://www.w3.org/2000/svg">
<path d="M14.32 24V38H12.18L4.46 28.52V38H1.88V24H4.02L11.74 33.48V24H14.32ZM27.7714 27.32V38H25.3914V36.64C24.9914 37.12 24.4914 37.4933 23.8914 37.76C23.2914 38.0133 22.6447 38.14 21.9514 38.14C20.5247 38.14 19.3981 37.7467 18.5714 36.96C17.7581 36.16 17.3514 34.98 17.3514 33.42V27.32H19.8514V33.08C19.8514 34.04 20.0647 34.76 20.4914 35.24C20.9314 35.7067 21.5514 35.94 22.3514 35.94C23.2447 35.94 23.9514 35.6667 24.4714 35.12C25.0047 34.56 25.2714 33.76 25.2714 32.72V27.32H27.7714ZM33.0247 28.88C33.7447 27.76 35.0114 27.2 36.8247 27.2V29.58C36.6114 29.54 36.418 29.52 36.2447 29.52C35.2714 29.52 34.5114 29.8067 33.9647 30.38C33.418 30.94 33.1447 31.7533 33.1447 32.82V38H30.6447V27.32H33.0247V28.88ZM41.8845 38.14C41.0179 38.14 40.1712 38.0267 39.3445 37.8C38.5179 37.5733 37.8579 37.2867 37.3645 36.94L38.3245 35.04C38.8045 35.36 39.3779 35.62 40.0445 35.82C40.7245 36.0067 41.3912 36.1 42.0445 36.1C43.5379 36.1 44.2845 35.7067 44.2845 34.92C44.2845 34.5467 44.0912 34.2867 43.7045 34.14C43.3312 33.9933 42.7245 33.8533 41.8845 33.72C41.0045 33.5867 40.2845 33.4333 39.7245 33.26C39.1779 33.0867 38.6979 32.7867 38.2845 32.36C37.8845 31.92 37.6845 31.3133 37.6845 30.54C37.6845 29.5267 38.1045 28.72 38.9445 28.12C39.7979 27.5067 40.9445 27.2 42.3845 27.2C43.1179 27.2 43.8512 27.2867 44.5845 27.46C45.3179 27.62 45.9179 27.84 46.3845 28.12L45.4245 30.02C44.5179 29.4867 43.4979 29.22 42.3645 29.22C41.6312 29.22 41.0712 29.3333 40.6845 29.56C40.3112 29.7733 40.1245 30.06 40.1245 30.42C40.1245 30.82 40.3245 31.1067 40.7245 31.28C41.1379 31.44 41.7712 31.5933 42.6245 31.74C43.4779 31.8733 44.1779 32.0267 44.7245 32.2C45.2712 32.3733 45.7379 32.6667 46.1245 33.08C46.5245 33.4933 46.7245 34.08 46.7245 34.84C46.7245 35.84 46.2912 36.64 45.4245 37.24C44.5579 37.84 43.3779 38.14 41.8845 38.14ZM58.5175 32.72C58.5175 32.8933 58.5042 33.14 58.4775 33.46H50.0975C50.2442 34.2467 50.6242 34.8733 51.2375 35.34C51.8642 35.7933 52.6375 36.02 53.5575 36.02C54.7308 36.02 55.6975 35.6333 56.4575 34.86L57.7975 36.4C57.3175 36.9733 56.7108 37.4067 55.9775 37.7C55.2442 37.9933 54.4175 38.14 53.4975 38.14C52.3242 38.14 51.2908 37.9067 50.3975 37.44C49.5042 36.9733 48.8108 36.3267 48.3175 35.5C47.8375 34.66 47.5975 33.7133 47.5975 32.66C47.5975 31.62 47.8308 30.6867 48.2975 29.86C48.7775 29.02 49.4375 28.3667 50.2775 27.9C51.1175 27.4333 52.0642 27.2 53.1175 27.2C54.1575 27.2 55.0842 27.4333 55.8975 27.9C56.7242 28.3533 57.3642 29 57.8175 29.84C58.2842 30.6667 58.5175 31.6267 58.5175 32.72ZM53.1175 29.2C52.3175 29.2 51.6375 29.44 51.0775 29.92C50.5308 30.3867 50.1975 31.0133 50.0775 31.8H56.1375C56.0308 31.0267 55.7042 30.4 55.1575 29.92C54.6108 29.44 53.9308 29.2 53.1175 29.2ZM62.8989 28.88C63.6189 27.76 64.8856 27.2 66.6989 27.2V29.58C66.4856 29.54 66.2922 29.52 66.1189 29.52C65.1456 29.52 64.3856 29.8067 63.8389 30.38C63.2922 30.94 63.0189 31.7533 63.0189 32.82V38H60.5189V27.32H62.8989V28.88ZM78.8103 27.32L73.8103 38.86C73.3436 40.02 72.777 40.8333 72.1103 41.3C71.4436 41.78 70.637 42.02 69.6903 42.02C69.157 42.02 68.6303 41.9333 68.1103 41.76C67.5903 41.5867 67.1636 41.3467 66.8303 41.04L67.8303 39.2C68.0703 39.4267 68.3503 39.6067 68.6703 39.74C69.0036 39.8733 69.337 39.94 69.6703 39.94C70.1103 39.94 70.4703 39.8267 70.7503 39.6C71.0436 39.3733 71.3103 38.9933 71.5503 38.46L71.7303 38.04L67.0703 27.32H69.6703L73.0303 35.22L76.4103 27.32H78.8103ZM94.5002 38L91.6402 33.9C91.5202 33.9133 91.3402 33.92 91.1002 33.92H87.9402V38H85.3402V24H91.1002C92.3135 24 93.3668 24.2 94.2602 24.6C95.1668 25 95.8602 25.5733 96.3402 26.32C96.8202 27.0667 97.0602 27.9533 97.0602 28.98C97.0602 30.0333 96.8002 30.94 96.2802 31.7C95.7735 32.46 95.0402 33.0267 94.0802 33.4L97.3002 38H94.5002ZM94.4402 28.98C94.4402 28.0867 94.1468 27.4 93.5602 26.92C92.9735 26.44 92.1135 26.2 90.9802 26.2H87.9402V31.78H90.9802C92.1135 31.78 92.9735 31.54 93.5602 31.06C94.1468 30.5667 94.4402 29.8733 94.4402 28.98ZM105.389 27.2C106.736 27.2 107.816 27.5933 108.629 28.38C109.442 29.1667 109.849 30.3333 109.849 31.88V38H107.349V32.2C107.349 31.2667 107.129 30.5667 106.689 30.1C106.249 29.62 105.622 29.38 104.809 29.38C103.889 29.38 103.162 29.66 102.629 30.22C102.096 30.7667 101.829 31.56 101.829 32.6V38H99.3291V23.16H101.829V28.56C102.242 28.12 102.749 27.7867 103.349 27.56C103.962 27.32 104.642 27.2 105.389 27.2ZM122.425 27.32L117.425 38.86C116.958 40.02 116.392 40.8333 115.725 41.3C115.058 41.78 114.252 42.02 113.305 42.02C112.772 42.02 112.245 41.9333 111.725 41.76C111.205 41.5867 110.778 41.3467 110.445 41.04L111.445 39.2C111.685 39.4267 111.965 39.6067 112.285 39.74C112.618 39.8733 112.952 39.94 113.285 39.94C113.725 39.94 114.085 39.8267 114.365 39.6C114.658 39.3733 114.925 38.9933 115.165 38.46L115.345 38.04L110.685 27.32H113.285L116.645 35.22L120.025 27.32H122.425ZM137.068 27.2C138.414 27.2 139.481 27.5933 140.268 28.38C141.054 29.1533 141.448 30.32 141.448 31.88V38H138.948V32.2C138.948 31.2667 138.741 30.5667 138.328 30.1C137.914 29.62 137.321 29.38 136.548 29.38C135.708 29.38 135.034 29.66 134.528 30.22C134.021 30.7667 133.768 31.5533 133.768 32.58V38H131.268V32.2C131.268 31.2667 131.061 30.5667 130.648 30.1C130.234 29.62 129.641 29.38 128.868 29.38C128.014 29.38 127.334 29.6533 126.828 30.2C126.334 30.7467 126.088 31.54 126.088 32.58V38H123.588V27.32H125.968V28.68C126.368 28.2 126.868 27.8333 127.468 27.58C128.068 27.3267 128.734 27.2 129.468 27.2C130.268 27.2 130.974 27.3533 131.588 27.66C132.214 27.9533 132.708 28.3933 133.068 28.98C133.508 28.42 134.074 27.9867 134.768 27.68C135.461 27.36 136.228 27.2 137.068 27.2ZM154.38 32.72C154.38 32.8933 154.367 33.14 154.34 33.46H145.96C146.107 34.2467 146.487 34.8733 147.1 35.34C147.727 35.7933 148.5 36.02 149.42 36.02C150.593 36.02 151.56 35.6333 152.32 34.86L153.66 36.4C153.18 36.9733 152.573 37.4067 151.84 37.7C151.107 37.9933 150.28 38.14 149.36 38.14C148.187 38.14 147.153 37.9067 146.26 37.44C145.367 36.9733 144.673 36.3267 144.18 35.5C143.7 34.66 143.46 33.7133 143.46 32.66C143.46 31.62 143.693 30.6867 144.16 29.86C144.64 29.02 145.3 28.3667 146.14 27.9C146.98 27.4333 147.927 27.2 148.98 27.2C150.02 27.2 150.947 27.4333 151.76 27.9C152.587 28.3533 153.227 29 153.68 29.84C154.147 30.6667 154.38 31.6267 154.38 32.72ZM148.98 29.2C148.18 29.2 147.5 29.44 146.94 29.92C146.393 30.3867 146.06 31.0133 145.94 31.8H152C151.893 31.0267 151.567 30.4 151.02 29.92C150.473 29.44 149.793 29.2 148.98 29.2ZM159.681 38.14C158.815 38.14 157.968 38.0267 157.141 37.8C156.315 37.5733 155.655 37.2867 155.161 36.94L156.121 35.04C156.601 35.36 157.175 35.62 157.841 35.82C158.521 36.0067 159.188 36.1 159.841 36.1C161.335 36.1 162.081 35.7067 162.081 34.92C162.081 34.5467 161.888 34.2867 161.501 34.14C161.128 33.9933 160.521 33.8533 159.681 33.72C158.801 33.5867 158.081 33.4333 157.521 33.26C156.975 33.0867 156.495 32.7867 156.081 32.36C155.681 31.92 155.481 31.3133 155.481 30.54C155.481 29.5267 155.901 28.72 156.741 28.12C157.595 27.5067 158.741 27.2 160.181 27.2C160.915 27.2 161.648 27.2867 162.381 27.46C163.115 27.62 163.715 27.84 164.181 28.12L163.221 30.02C162.315 29.4867 161.295 29.22 160.161 29.22C159.428 29.22 158.868 29.3333 158.481 29.56C158.108 29.7733 157.921 30.06 157.921 30.42C157.921 30.82 158.121 31.1067 158.521 31.28C158.935 31.44 159.568 31.5933 160.421 31.74C161.275 31.8733 161.975 32.0267 162.521 32.2C163.068 32.3733 163.535 32.6667 163.921 33.08C164.321 33.4933 164.521 34.08 164.521 34.84C164.521 35.84 164.088 36.64 163.221 37.24C162.355 37.84 161.175 38.14 159.681 38.14Z" fill="#2A2921"/>
<path d="M0.72 64.9C0.72 63.31 1.125 62.045 1.935 61.105C2.755 60.165 3.86 59.695 5.25 59.695C6.67 59.695 7.78 60.165 8.58 61.105C9.39 62.035 9.795 63.3 9.795 64.9C9.795 66.49 9.385 67.76 8.565 68.71C7.755 69.65 6.655 70.12 5.265 70.12C3.895 70.12 2.795 69.645 1.965 68.695C1.135 67.745 0.72 66.48 0.72 64.9ZM1.995 64.9C1.995 66.15 2.29 67.14 2.88 67.87C3.48 68.6 4.275 68.965 5.265 68.965C6.295 68.965 7.09 68.605 7.65 67.885C8.22 67.165 8.505 66.17 8.505 64.9C8.505 63.63 8.22 62.635 7.65 61.915C7.08 61.195 6.28 60.835 5.25 60.835C4.23 60.835 3.43 61.2 2.85 61.93C2.28 62.65 1.995 63.64 1.995 64.9ZM12.4679 62.395V63.715C12.9179 62.765 13.7179 62.29 14.8679 62.29C15.6079 62.29 16.1979 62.515 16.6379 62.965C17.0779 63.415 17.2979 64.015 17.2979 64.765V70H16.1129V65.08C16.1129 64.52 15.9679 64.095 15.6779 63.805C15.3979 63.505 15.0279 63.355 14.5679 63.355C13.9979 63.355 13.5029 63.575 13.0829 64.015C12.6729 64.455 12.4679 65.065 12.4679 65.845V70H11.2979V62.395H12.4679ZM23.9435 65.71V65.41C23.9435 64.78 23.7735 64.28 23.4335 63.91C23.0935 63.53 22.6235 63.34 22.0235 63.34C21.4535 63.34 20.9685 63.545 20.5685 63.955C20.1685 64.365 19.9335 64.95 19.8635 65.71H23.9435ZM24.6485 68.5V69.61C24.0585 69.92 23.3385 70.075 22.4885 70.075C21.3385 70.075 20.4085 69.725 19.6985 69.025C18.9985 68.315 18.6485 67.38 18.6485 66.22C18.6485 65.01 18.9635 64.055 19.5935 63.355C20.2235 62.655 21.0335 62.305 22.0235 62.305C22.9735 62.305 23.7285 62.61 24.2885 63.22C24.8485 63.83 25.1285 64.695 25.1285 65.815C25.1285 66.135 25.1035 66.43 25.0535 66.7H19.8635C19.9535 67.45 20.2385 68.025 20.7185 68.425C21.1985 68.825 21.8285 69.025 22.6085 69.025C23.4585 69.025 24.1385 68.85 24.6485 68.5ZM33.6275 59.395V60.475C33.3875 60.395 33.1575 60.355 32.9375 60.355C32.6175 60.355 32.3525 60.465 32.1425 60.685C31.9425 60.905 31.8425 61.245 31.8425 61.705V62.395H33.5225V63.355H31.8425V70H30.6575V63.355H29.3525V62.395H30.6575V61.69C30.6575 60.95 30.8525 60.365 31.2425 59.935C31.6425 59.505 32.1925 59.29 32.8925 59.29C33.1325 59.29 33.3775 59.325 33.6275 59.395ZM37.7241 70.135C36.6341 70.135 35.7691 69.77 35.1291 69.04C34.4991 68.3 34.1841 67.37 34.1841 66.25C34.1841 65.12 34.5091 64.18 35.1591 63.43C35.8191 62.67 36.6741 62.29 37.7241 62.29C38.8741 62.29 39.7591 62.66 40.3791 63.4C41.0091 64.14 41.3241 65.08 41.3241 66.22C41.3241 67.35 41.0041 68.285 40.3641 69.025C39.7241 69.765 38.8441 70.135 37.7241 70.135ZM37.7241 63.34C37.0041 63.34 36.4391 63.62 36.0291 64.18C35.6191 64.74 35.4141 65.425 35.4141 66.235C35.4141 67.025 35.6241 67.7 36.0441 68.26C36.4641 68.81 37.0241 69.085 37.7241 69.085C38.4841 69.085 39.0691 68.815 39.4791 68.275C39.8891 67.725 40.0941 67.045 40.0941 66.235C40.0941 65.395 39.8991 64.705 39.5091 64.165C39.1191 63.615 38.5241 63.34 37.7241 63.34ZM43.9269 62.395V63.73C44.3269 62.79 45.0169 62.32 45.9969 62.32C46.1769 62.32 46.3169 62.33 46.4169 62.35V63.52C46.2069 63.45 45.9919 63.415 45.7719 63.415C45.2419 63.415 44.8019 63.66 44.4519 64.15C44.1019 64.64 43.9269 65.205 43.9269 65.845V70H42.7419L42.7569 62.395H43.9269ZM54.8516 62.65V63.775C54.3916 63.495 53.7616 63.355 52.9616 63.355C52.5616 63.355 52.2416 63.45 52.0016 63.64C51.7716 63.82 51.6566 64.055 51.6566 64.345C51.6566 64.525 51.6916 64.685 51.7616 64.825C51.8316 64.955 51.9666 65.085 52.1666 65.215C52.3766 65.345 52.5266 65.435 52.6166 65.485C52.7166 65.525 52.9266 65.615 53.2466 65.755C53.8866 66.015 54.3866 66.31 54.7466 66.64C55.1066 66.97 55.2866 67.415 55.2866 67.975C55.2866 68.625 55.0566 69.14 54.5966 69.52C54.1466 69.9 53.5266 70.09 52.7366 70.09C51.8166 70.09 51.0716 69.935 50.5016 69.625V68.47C51.1716 68.87 51.8916 69.07 52.6616 69.07C53.1216 69.07 53.4716 68.98 53.7116 68.8C53.9516 68.62 54.0716 68.375 54.0716 68.065C54.0716 67.705 53.9366 67.425 53.6666 67.225C53.4066 67.025 52.9666 66.8 52.3466 66.55C51.7766 66.33 51.3166 66.055 50.9666 65.725C50.6266 65.395 50.4566 64.95 50.4566 64.39C50.4566 63.76 50.6916 63.26 51.1616 62.89C51.6416 62.51 52.2366 62.32 52.9466 62.32C53.7366 62.32 54.3716 62.43 54.8516 62.65ZM59.6832 70.135C58.5932 70.135 57.7282 69.77 57.0882 69.04C56.4582 68.3 56.1432 67.37 56.1432 66.25C56.1432 65.12 56.4682 64.18 57.1182 63.43C57.7782 62.67 58.6332 62.29 59.6832 62.29C60.8332 62.29 61.7182 62.66 62.3382 63.4C62.9682 64.14 63.2832 65.08 63.2832 66.22C63.2832 67.35 62.9632 68.285 62.3232 69.025C61.6832 69.765 60.8032 70.135 59.6832 70.135ZM59.6832 63.34C58.9632 63.34 58.3982 63.62 57.9882 64.18C57.5782 64.74 57.3732 65.425 57.3732 66.235C57.3732 67.025 57.5832 67.7 58.0032 68.26C58.4232 68.81 58.9832 69.085 59.6832 69.085C60.4432 69.085 61.0282 68.815 61.4382 68.275C61.8482 67.725 62.0532 67.045 62.0532 66.235C62.0532 65.395 61.8582 64.705 61.4682 64.165C61.0782 63.615 60.4832 63.34 59.6832 63.34ZM65.8861 62.395V63.73C66.2861 62.79 66.9761 62.32 67.9561 62.32C68.1361 62.32 68.2761 62.33 68.3761 62.35V63.52C68.1661 63.45 67.9511 63.415 67.7311 63.415C67.2011 63.415 66.7611 63.66 66.4111 64.15C66.0611 64.64 65.8861 65.205 65.8861 65.845V70H64.7011L64.7161 62.395H65.8861ZM70.4787 62.395V63.73C70.8787 62.79 71.5687 62.32 72.5487 62.32C72.7287 62.32 72.8687 62.33 72.9687 62.35V63.52C72.7587 63.45 72.5437 63.415 72.3237 63.415C71.7937 63.415 71.3537 63.66 71.0037 64.15C70.6537 64.64 70.4787 65.205 70.4787 65.845V70H69.2937L69.3087 62.395H70.4787ZM76.9913 70.135C75.9013 70.135 75.0363 69.77 74.3963 69.04C73.7663 68.3 73.4513 67.37 73.4513 66.25C73.4513 65.12 73.7763 64.18 74.4263 63.43C75.0863 62.67 75.9413 62.29 76.9913 62.29C78.1413 62.29 79.0263 62.66 79.6463 63.4C80.2763 64.14 80.5913 65.08 80.5913 66.22C80.5913 67.35 80.2713 68.285 79.6313 69.025C78.9913 69.765 78.1113 70.135 76.9913 70.135ZM76.9913 63.34C76.2713 63.34 75.7063 63.62 75.2963 64.18C74.8863 64.74 74.6813 65.425 74.6813 66.235C74.6813 67.025 74.8913 67.7 75.3113 68.26C75.7313 68.81 76.2913 69.085 76.9913 69.085C77.7513 69.085 78.3363 68.815 78.7463 68.275C79.1563 67.725 79.3613 67.045 79.3613 66.235C79.3613 65.395 79.1663 64.705 78.7763 64.165C78.3863 63.615 77.7913 63.34 76.9913 63.34ZM83.6441 70L81.3041 62.395H82.5641L83.2991 64.915C83.5591 65.795 83.7741 66.565 83.9441 67.225C84.1241 67.875 84.2391 68.31 84.2891 68.53L84.3641 68.845C84.5141 68.205 84.8791 66.89 85.4591 64.9L86.1791 62.395H87.4391L88.1741 64.9L89.2991 68.86C89.4391 68.27 89.8241 66.95 90.4541 64.9L91.2191 62.395H92.4341L90.0341 70H88.5791L87.8591 67.51L86.8091 63.715C86.6591 64.355 86.3191 65.62 85.7891 67.51L85.0991 70H83.6441ZM92.389 71.845L93.784 68.485H95.359L93.424 71.845H92.389ZM105.885 59.89V60.955H103.155V70H101.94V60.955H99.2102V59.89H105.885ZM108.592 70L106.252 62.395H107.512L108.247 64.915C108.507 65.795 108.722 66.565 108.892 67.225C109.072 67.875 109.187 68.31 109.237 68.53L109.312 68.845C109.462 68.205 109.827 66.89 110.407 64.9L111.127 62.395H112.387L113.122 64.9L114.247 68.86C114.387 68.27 114.772 66.95 115.402 64.9L116.167 62.395H117.382L114.982 70H113.527L112.807 67.51L111.757 63.715C111.607 64.355 111.267 65.62 110.737 67.51L110.047 70H108.592ZM121.641 70.135C120.551 70.135 119.686 69.77 119.046 69.04C118.416 68.3 118.101 67.37 118.101 66.25C118.101 65.12 118.426 64.18 119.076 63.43C119.736 62.67 120.591 62.29 121.641 62.29C122.791 62.29 123.676 62.66 124.296 63.4C124.926 64.14 125.241 65.08 125.241 66.22C125.241 67.35 124.921 68.285 124.281 69.025C123.641 69.765 122.761 70.135 121.641 70.135ZM121.641 63.34C120.921 63.34 120.356 63.62 119.946 64.18C119.536 64.74 119.331 65.425 119.331 66.235C119.331 67.025 119.541 67.7 119.961 68.26C120.381 68.81 120.941 69.085 121.641 69.085C122.401 69.085 122.986 68.815 123.396 68.275C123.806 67.725 124.011 67.045 124.011 66.235C124.011 65.395 123.816 64.705 123.426 64.165C123.036 63.615 122.441 63.34 121.641 63.34ZM133.666 59.395V60.475C133.426 60.395 133.196 60.355 132.976 60.355C132.656 60.355 132.391 60.465 132.181 60.685C131.981 60.905 131.881 61.245 131.881 61.705V62.395H133.561V63.355H131.881V70H130.696V63.355H129.391V62.395H130.696V61.69C130.696 60.95 130.891 60.365 131.281 59.935C131.681 59.505 132.231 59.29 132.931 59.29C133.171 59.29 133.416 59.325 133.666 59.395ZM137.763 70.135C136.673 70.135 135.808 69.77 135.168 69.04C134.538 68.3 134.223 67.37 134.223 66.25C134.223 65.12 134.548 64.18 135.198 63.43C135.858 62.67 136.713 62.29 137.763 62.29C138.913 62.29 139.798 62.66 140.418 63.4C141.048 64.14 141.363 65.08 141.363 66.22C141.363 67.35 141.043 68.285 140.403 69.025C139.763 69.765 138.883 70.135 137.763 70.135ZM137.763 63.34C137.043 63.34 136.478 63.62 136.068 64.18C135.658 64.74 135.453 65.425 135.453 66.235C135.453 67.025 135.663 67.7 136.083 68.26C136.503 68.81 137.063 69.085 137.763 69.085C138.523 69.085 139.108 68.815 139.518 68.275C139.928 67.725 140.133 67.045 140.133 66.235C140.133 65.395 139.938 64.705 139.548 64.165C139.158 63.615 138.563 63.34 137.763 63.34ZM143.966 62.395V63.73C144.366 62.79 145.056 62.32 146.036 62.32C146.216 62.32 146.356 62.33 146.456 62.35V63.52C146.246 63.45 146.031 63.415 145.811 63.415C145.281 63.415 144.841 63.66 144.491 64.15C144.141 64.64 143.966 65.205 143.966 65.845V70H142.781L142.796 62.395H143.966ZM2.265 83.395V84.625C2.685 83.735 3.4 83.29 4.41 83.29C5.58 83.29 6.32 83.785 6.63 84.775C6.85 84.295 7.155 83.93 7.545 83.68C7.945 83.42 8.39 83.29 8.88 83.29C9.67 83.29 10.265 83.515 10.665 83.965C11.065 84.415 11.265 85.02 11.265 85.78V91H10.08V86.08C10.08 84.93 9.595 84.355 8.625 84.355C8.145 84.355 7.715 84.575 7.335 85.015C6.955 85.445 6.765 86.055 6.765 86.845V91H5.58V86.08C5.58 84.93 5.095 84.355 4.125 84.355C3.645 84.355 3.215 84.575 2.835 85.015C2.455 85.445 2.265 86.055 2.265 86.845V91H1.095V83.395H2.265ZM13.1304 91V83.395H14.3154V91H13.1304ZM13.1604 81.565C13.0204 81.415 12.9504 81.23 12.9504 81.01C12.9504 80.79 13.0204 80.605 13.1604 80.455C13.3104 80.305 13.4954 80.23 13.7154 80.23C13.9354 80.23 14.1204 80.305 14.2704 80.455C14.4204 80.605 14.4954 80.79 14.4954 81.01C14.4954 81.23 14.4204 81.415 14.2704 81.565C14.1204 81.705 13.9354 81.775 13.7154 81.775C13.4954 81.775 13.3104 81.705 13.1604 81.565ZM17.4414 83.395V84.73C17.8414 83.79 18.5314 83.32 19.5114 83.32C19.6914 83.32 19.8314 83.33 19.9314 83.35V84.52C19.7214 84.45 19.5064 84.415 19.2864 84.415C18.7564 84.415 18.3164 84.66 17.9664 85.15C17.6164 85.64 17.4414 86.205 17.4414 86.845V91H16.2564L16.2714 83.395H17.4414ZM22.4989 84.355V88.81C22.4989 89.62 22.8789 90.025 23.6389 90.025C24.0289 90.025 24.3739 89.91 24.6739 89.68V90.805C24.3439 90.985 23.9739 91.075 23.5639 91.075C22.0639 91.075 21.3139 90.31 21.3139 88.78V84.355H20.0989V83.395H21.3139V81.505H22.4989V83.395H24.5989V84.355H22.4989ZM27.2711 80.395V84.715C27.7211 83.765 28.5211 83.29 29.6711 83.29C30.4011 83.29 30.9861 83.515 31.4261 83.965C31.8761 84.415 32.1011 85.025 32.1011 85.795V91H30.9161V86.08C30.9161 85.53 30.7711 85.105 30.4811 84.805C30.2011 84.505 29.8311 84.355 29.3711 84.355C28.8111 84.355 28.3211 84.57 27.9011 85C27.4811 85.43 27.2711 86.045 27.2711 86.845V91H26.1011V80.395H27.2711ZM32.6866 92.845L34.0816 89.485H35.6566L33.7216 92.845H32.6866ZM46.1829 80.89V81.955H43.4529V91H42.2379V81.955H39.5079V80.89H46.1829ZM48.4392 80.395V84.715C48.8892 83.765 49.6892 83.29 50.8392 83.29C51.5692 83.29 52.1542 83.515 52.5942 83.965C53.0442 84.415 53.2692 85.025 53.2692 85.795V91H52.0842V86.08C52.0842 85.53 51.9392 85.105 51.6492 84.805C51.3692 84.505 50.9992 84.355 50.5392 84.355C49.9792 84.355 49.4892 84.57 49.0692 85C48.6492 85.43 48.4392 86.045 48.4392 86.845V91H47.2692V80.395H48.4392ZM56.2398 83.395V84.73C56.6398 83.79 57.3298 83.32 58.3098 83.32C58.4898 83.32 58.6298 83.33 58.7298 83.35V84.52C58.5198 84.45 58.3048 84.415 58.0848 84.415C57.5548 84.415 57.1148 84.66 56.7648 85.15C56.4148 85.64 56.2398 86.205 56.2398 86.845V91H55.0548L55.0698 83.395H56.2398ZM64.5074 86.71V86.41C64.5074 85.78 64.3374 85.28 63.9974 84.91C63.6574 84.53 63.1874 84.34 62.5874 84.34C62.0174 84.34 61.5324 84.545 61.1324 84.955C60.7324 85.365 60.4974 85.95 60.4274 86.71H64.5074ZM65.2124 89.5V90.61C64.6224 90.92 63.9024 91.075 63.0524 91.075C61.9024 91.075 60.9724 90.725 60.2624 90.025C59.5624 89.315 59.2124 88.38 59.2124 87.22C59.2124 86.01 59.5274 85.055 60.1574 84.355C60.7874 83.655 61.5974 83.305 62.5874 83.305C63.5374 83.305 64.2924 83.61 64.8524 84.22C65.4124 84.83 65.6924 85.695 65.6924 86.815C65.6924 87.135 65.6674 87.43 65.6174 87.7H60.4274C60.5174 88.45 60.8024 89.025 61.2824 89.425C61.7624 89.825 62.3924 90.025 63.1724 90.025C64.0224 90.025 64.7024 89.85 65.2124 89.5ZM72.0443 86.71V86.41C72.0443 85.78 71.8743 85.28 71.5343 84.91C71.1943 84.53 70.7243 84.34 70.1243 84.34C69.5543 84.34 69.0693 84.545 68.6693 84.955C68.2693 85.365 68.0343 85.95 67.9643 86.71H72.0443ZM72.7493 89.5V90.61C72.1593 90.92 71.4393 91.075 70.5893 91.075C69.4393 91.075 68.5093 90.725 67.7993 90.025C67.0993 89.315 66.7493 88.38 66.7493 87.22C66.7493 86.01 67.0643 85.055 67.6943 84.355C68.3243 83.655 69.1343 83.305 70.1243 83.305C71.0743 83.305 71.8293 83.61 72.3893 84.22C72.9493 84.83 73.2293 85.695 73.2293 86.815C73.2293 87.135 73.2043 87.43 73.1543 87.7H67.9643C68.0543 88.45 68.3393 89.025 68.8193 89.425C69.2993 89.825 69.9293 90.025 70.7093 90.025C71.5593 90.025 72.2393 89.85 72.7493 89.5ZM81.7283 80.395V81.475C81.4883 81.395 81.2583 81.355 81.0383 81.355C80.7183 81.355 80.4533 81.465 80.2433 81.685C80.0433 81.905 79.9433 82.245 79.9433 82.705V83.395H81.6233V84.355H79.9433V91H78.7583V84.355H77.4533V83.395H78.7583V82.69C78.7583 81.95 78.9533 81.365 79.3433 80.935C79.7433 80.505 80.2933 80.29 80.9933 80.29C81.2333 80.29 81.4783 80.325 81.7283 80.395ZM85.8248 91.135C84.7348 91.135 83.8698 90.77 83.2298 90.04C82.5998 89.3 82.2848 88.37 82.2848 87.25C82.2848 86.12 82.6098 85.18 83.2598 84.43C83.9198 83.67 84.7748 83.29 85.8248 83.29C86.9748 83.29 87.8598 83.66 88.4798 84.4C89.1098 85.14 89.4248 86.08 89.4248 87.22C89.4248 88.35 89.1048 89.285 88.4648 90.025C87.8248 90.765 86.9448 91.135 85.8248 91.135ZM85.8248 84.34C85.1048 84.34 84.5398 84.62 84.1298 85.18C83.7198 85.74 83.5148 86.425 83.5148 87.235C83.5148 88.025 83.7248 88.7 84.1448 89.26C84.5648 89.81 85.1248 90.085 85.8248 90.085C86.5848 90.085 87.1698 89.815 87.5798 89.275C87.9898 88.725 88.1948 88.045 88.1948 87.235C88.1948 86.395 87.9998 85.705 87.6098 85.165C87.2198 84.615 86.6248 84.34 85.8248 84.34ZM92.0277 83.395V84.73C92.4277 83.79 93.1177 83.32 94.0977 83.32C94.2777 83.32 94.4177 83.33 94.5177 83.35V84.52C94.3077 84.45 94.0927 84.415 93.8727 84.415C93.3427 84.415 92.9027 84.66 92.5527 85.15C92.2027 85.64 92.0277 86.205 92.0277 86.845V91H90.8427L90.8577 83.395H92.0277ZM102.907 87.49H101.587C100.947 87.49 100.467 87.615 100.147 87.865C99.8274 88.115 99.6674 88.43 99.6674 88.81C99.6674 89.19 99.7924 89.5 100.042 89.74C100.292 89.97 100.657 90.085 101.137 90.085C101.677 90.085 102.107 89.935 102.427 89.635C102.747 89.325 102.907 88.935 102.907 88.465V87.49ZM98.9774 84.985V83.8C99.5474 83.45 100.297 83.275 101.227 83.275C103.137 83.275 104.092 84.245 104.092 86.185V91H102.922V90.1C102.532 90.75 101.822 91.075 100.792 91.075C100.082 91.075 99.5074 90.865 99.0674 90.445C98.6374 90.025 98.4224 89.495 98.4224 88.855C98.4224 88.125 98.6974 87.56 99.2474 87.16C99.8074 86.75 100.567 86.545 101.527 86.545H102.907V86.155C102.907 85.555 102.772 85.105 102.502 84.805C102.232 84.495 101.777 84.34 101.137 84.34C100.327 84.34 99.6074 84.555 98.9774 84.985ZM110.877 91L108.537 83.395H109.797L110.532 85.915C110.792 86.795 111.007 87.565 111.177 88.225C111.357 88.875 111.472 89.31 111.522 89.53L111.597 89.845C111.747 89.205 112.112 87.89 112.692 85.9L113.412 83.395H114.672L115.407 85.9L116.532 89.86C116.672 89.27 117.057 87.95 117.687 85.9L118.452 83.395H119.667L117.267 91H115.812L115.092 88.51L114.042 84.715C113.892 85.355 113.552 86.62 113.022 88.51L112.332 91H110.877ZM125.682 86.71V86.41C125.682 85.78 125.512 85.28 125.172 84.91C124.832 84.53 124.362 84.34 123.762 84.34C123.192 84.34 122.707 84.545 122.307 84.955C121.907 85.365 121.672 85.95 121.602 86.71H125.682ZM126.387 89.5V90.61C125.797 90.92 125.077 91.075 124.227 91.075C123.077 91.075 122.147 90.725 121.437 90.025C120.737 89.315 120.387 88.38 120.387 87.22C120.387 86.01 120.702 85.055 121.332 84.355C121.962 83.655 122.772 83.305 123.762 83.305C124.712 83.305 125.467 83.61 126.027 84.22C126.587 84.83 126.867 85.695 126.867 86.815C126.867 87.135 126.842 87.43 126.792 87.7H121.602C121.692 88.45 121.977 89.025 122.457 89.425C122.937 89.825 123.567 90.025 124.347 90.025C125.197 90.025 125.877 89.85 126.387 89.5ZM131.269 90.04C131.889 90.04 132.414 89.81 132.844 89.35C133.284 88.89 133.504 88.155 133.504 87.145C133.504 86.185 133.279 85.48 132.829 85.03C132.379 84.58 131.884 84.355 131.344 84.355C130.714 84.355 130.189 84.61 129.769 85.12C129.359 85.62 129.154 86.34 129.154 87.28C129.154 88.1 129.354 88.765 129.754 89.275C130.154 89.785 130.659 90.04 131.269 90.04ZM133.504 80.395H134.689V91H133.504V89.875C132.964 90.705 132.184 91.12 131.164 91.12C130.154 91.12 129.359 90.745 128.779 89.995C128.209 89.245 127.924 88.335 127.924 87.265C127.924 86.075 128.229 85.115 128.839 84.385C129.449 83.645 130.234 83.275 131.194 83.275C132.184 83.275 132.954 83.7 133.504 84.55V80.395ZM139.48 90.04C140.1 90.04 140.625 89.81 141.055 89.35C141.495 88.89 141.715 88.155 141.715 87.145C141.715 86.185 141.49 85.48 141.04 85.03C140.59 84.58 140.095 84.355 139.555 84.355C138.925 84.355 138.4 84.61 137.98 85.12C137.57 85.62 137.365 86.34 137.365 87.28C137.365 88.1 137.565 88.765 137.965 89.275C138.365 89.785 138.87 90.04 139.48 90.04ZM141.715 80.395H142.9V91H141.715V89.875C141.175 90.705 140.395 91.12 139.375 91.12C138.365 91.12 137.57 90.745 136.99 89.995C136.42 89.245 136.135 88.335 136.135 87.265C136.135 86.075 136.44 85.115 137.05 84.385C137.66 83.645 138.445 83.275 139.405 83.275C140.395 83.275 141.165 83.7 141.715 84.55V80.395ZM144.856 91V83.395H146.041V91H144.856ZM144.886 81.565C144.746 81.415 144.676 81.23 144.676 81.01C144.676 80.79 144.746 80.605 144.886 80.455C145.036 80.305 145.221 80.23 145.441 80.23C145.661 80.23 145.846 80.305 145.996 80.455C146.146 80.605 146.221 80.79 146.221 81.01C146.221 81.23 146.146 81.415 145.996 81.565C145.846 81.705 145.661 81.775 145.441 81.775C145.221 81.775 145.036 81.705 144.886 81.565ZM149.167 83.395V84.715C149.617 83.765 150.417 83.29 151.567 83.29C152.307 83.29 152.897 83.515 153.337 83.965C153.777 84.415 153.997 85.015 153.997 85.765V91H152.812V86.08C152.812 85.52 152.667 85.095 152.377 84.805C152.097 84.505 151.727 84.355 151.267 84.355C150.697 84.355 150.202 84.575 149.782 85.015C149.372 85.455 149.167 86.065 149.167 86.845V91H147.997V83.395H149.167ZM158.647 89.755C159.197 89.755 159.682 89.545 160.102 89.125C160.532 88.695 160.747 88.06 160.747 87.22C160.747 86.25 160.542 85.53 160.132 85.06C159.722 84.59 159.247 84.355 158.707 84.355C158.057 84.355 157.542 84.615 157.162 85.135C156.782 85.645 156.592 86.315 156.592 87.145C156.592 87.995 156.802 88.645 157.222 89.095C157.642 89.535 158.117 89.755 158.647 89.755ZM160.747 83.395H161.932V90.385C161.932 91.545 161.612 92.415 160.972 92.995C160.332 93.585 159.507 93.88 158.497 93.88C157.577 93.88 156.792 93.725 156.142 93.415V92.23C156.782 92.6 157.532 92.785 158.392 92.785C159.122 92.785 159.697 92.59 160.117 92.2C160.537 91.81 160.747 91.2 160.747 90.37V89.515C160.247 90.375 159.502 90.805 158.512 90.805C157.642 90.805 156.897 90.485 156.277 89.845C155.667 89.205 155.362 88.315 155.362 87.175C155.362 86.045 155.647 85.115 156.217 84.385C156.787 83.655 157.532 83.29 158.452 83.29C159.492 83.29 160.257 83.745 160.747 84.655V83.395ZM162.515 92.845L163.91 89.485H165.485L163.55 92.845H162.515ZM3.075 108.31H6.66L6.465 107.725L4.89 102.865C4.77 103.295 4.23 104.92 3.27 107.74L3.075 108.31ZM7.89 112L7.005 109.345H2.73L1.83 112H0.525L4.05 101.89H5.73L9.195 112H7.89ZM11.6916 104.395V105.715C12.1416 104.765 12.9416 104.29 14.0916 104.29C14.8316 104.29 15.4216 104.515 15.8616 104.965C16.3016 105.415 16.5216 106.015 16.5216 106.765V112H15.3366V107.08C15.3366 106.52 15.1916 106.095 14.9016 105.805C14.6216 105.505 14.2516 105.355 13.7916 105.355C13.2216 105.355 12.7266 105.575 12.3066 106.015C11.8966 106.455 11.6916 107.065 11.6916 107.845V112H10.5216V104.395H11.6916ZM21.2171 111.04C21.8371 111.04 22.3621 110.81 22.7921 110.35C23.2321 109.89 23.4521 109.155 23.4521 108.145C23.4521 107.185 23.2271 106.48 22.7771 106.03C22.3271 105.58 21.8321 105.355 21.2921 105.355C20.6621 105.355 20.1371 105.61 19.7171 106.12C19.3071 106.62 19.1021 107.34 19.1021 108.28C19.1021 109.1 19.3021 109.765 19.7021 110.275C20.1021 110.785 20.6071 111.04 21.2171 111.04ZM23.4521 101.395H24.6371V112H23.4521V110.875C22.9121 111.705 22.1321 112.12 21.1121 112.12C20.1021 112.12 19.3071 111.745 18.7271 110.995C18.1571 110.245 17.8721 109.335 17.8721 108.265C17.8721 107.075 18.1771 106.115 18.7871 105.385C19.3971 104.645 20.1821 104.275 21.1421 104.275C22.1321 104.275 22.9021 104.7 23.4521 105.55V101.395ZM33.525 101.395V102.475C33.285 102.395 33.055 102.355 32.835 102.355C32.515 102.355 32.25 102.465 32.04 102.685C31.84 102.905 31.74 103.245 31.74 103.705V104.395H33.42V105.355H31.74V112H30.555V105.355H29.25V104.395H30.555V103.69C30.555 102.95 30.75 102.365 31.14 101.935C31.54 101.505 32.09 101.29 32.79 101.29C33.03 101.29 33.275 101.325 33.525 101.395ZM37.6215 112.135C36.5315 112.135 35.6665 111.77 35.0265 111.04C34.3965 110.3 34.0815 109.37 34.0815 108.25C34.0815 107.12 34.4065 106.18 35.0565 105.43C35.7165 104.67 36.5715 104.29 37.6215 104.29C38.7715 104.29 39.6565 104.66 40.2765 105.4C40.9065 106.14 41.2215 107.08 41.2215 108.22C41.2215 109.35 40.9015 110.285 40.2615 111.025C39.6215 111.765 38.7415 112.135 37.6215 112.135ZM37.6215 105.34C36.9015 105.34 36.3365 105.62 35.9265 106.18C35.5165 106.74 35.3115 107.425 35.3115 108.235C35.3115 109.025 35.5215 109.7 35.9415 110.26C36.3615 110.81 36.9215 111.085 37.6215 111.085C38.3815 111.085 38.9665 110.815 39.3765 110.275C39.7865 109.725 39.9915 109.045 39.9915 108.235C39.9915 107.395 39.7965 106.705 39.4065 106.165C39.0165 105.615 38.4215 105.34 37.6215 105.34ZM47.3794 104.395H48.5644V112H47.3794V110.68C46.9794 111.62 46.1844 112.09 44.9944 112.09C44.2444 112.09 43.6494 111.87 43.2094 111.43C42.7794 110.98 42.5644 110.38 42.5644 109.63V104.395H43.7494V109.33C43.7494 109.88 43.8894 110.3 44.1694 110.59C44.4494 110.88 44.8294 111.025 45.3094 111.025C45.9394 111.025 46.4394 110.805 46.8094 110.365C47.1894 109.925 47.3794 109.33 47.3794 108.58V104.395ZM51.625 104.395V105.73C52.025 104.79 52.715 104.32 53.695 104.32C53.875 104.32 54.015 104.33 54.115 104.35V105.52C53.905 105.45 53.69 105.415 53.47 105.415C52.94 105.415 52.5 105.66 52.15 106.15C51.8 106.64 51.625 107.205 51.625 107.845V112H50.44L50.455 104.395H51.625ZM62.0396 101.395V102.475C61.7996 102.395 61.5696 102.355 61.3496 102.355C61.0296 102.355 60.7646 102.465 60.5546 102.685C60.3546 102.905 60.2546 103.245 60.2546 103.705V104.395H61.9346V105.355H60.2546V112H59.0696V105.355H57.7646V104.395H59.0696V103.69C59.0696 102.95 59.2646 102.365 59.6546 101.935C60.0546 101.505 60.6046 101.29 61.3046 101.29C61.5446 101.29 61.7896 101.325 62.0396 101.395ZM66.1362 112.135C65.0462 112.135 64.1812 111.77 63.5412 111.04C62.9112 110.3 62.5962 109.37 62.5962 108.25C62.5962 107.12 62.9212 106.18 63.5712 105.43C64.2312 104.67 65.0862 104.29 66.1362 104.29C67.2862 104.29 68.1712 104.66 68.7912 105.4C69.4212 106.14 69.7362 107.08 69.7362 108.22C69.7362 109.35 69.4162 110.285 68.7762 111.025C68.1362 111.765 67.2562 112.135 66.1362 112.135ZM66.1362 105.34C65.4162 105.34 64.8512 105.62 64.4412 106.18C64.0312 106.74 63.8262 107.425 63.8262 108.235C63.8262 109.025 64.0362 109.7 64.4562 110.26C64.8762 110.81 65.4362 111.085 66.1362 111.085C66.8962 111.085 67.4812 110.815 67.8912 110.275C68.3012 109.725 68.5062 109.045 68.5062 108.235C68.5062 107.395 68.3112 106.705 67.9212 106.165C67.5312 105.615 66.9362 105.34 66.1362 105.34ZM72.339 104.395V105.73C72.739 104.79 73.429 104.32 74.409 104.32C74.589 104.32 74.729 104.33 74.829 104.35V105.52C74.619 105.45 74.404 105.415 74.184 105.415C73.654 105.415 73.214 105.66 72.864 106.15C72.514 106.64 72.339 107.205 72.339 107.845V112H71.154L71.169 104.395H72.339ZM82.0187 111.04C82.6387 111.04 83.1637 110.81 83.5937 110.35C84.0337 109.89 84.2537 109.155 84.2537 108.145C84.2537 107.185 84.0287 106.48 83.5787 106.03C83.1287 105.58 82.6337 105.355 82.0937 105.355C81.4637 105.355 80.9387 105.61 80.5187 106.12C80.1087 106.62 79.9037 107.34 79.9037 108.28C79.9037 109.1 80.1037 109.765 80.5037 110.275C80.9037 110.785 81.4087 111.04 82.0187 111.04ZM84.2537 101.395H85.4387V112H84.2537V110.875C83.7137 111.705 82.9337 112.12 81.9137 112.12C80.9037 112.12 80.1087 111.745 79.5287 110.995C78.9587 110.245 78.6737 109.335 78.6737 108.265C78.6737 107.075 78.9787 106.115 79.5887 105.385C80.1987 104.645 80.9837 104.275 81.9437 104.275C82.9337 104.275 83.7037 104.7 84.2537 105.55V101.395ZM92.1795 107.71V107.41C92.1795 106.78 92.0095 106.28 91.6695 105.91C91.3295 105.53 90.8595 105.34 90.2595 105.34C89.6895 105.34 89.2045 105.545 88.8045 105.955C88.4045 106.365 88.1695 106.95 88.0995 107.71H92.1795ZM92.8845 110.5V111.61C92.2945 111.92 91.5745 112.075 90.7245 112.075C89.5745 112.075 88.6445 111.725 87.9345 111.025C87.2345 110.315 86.8845 109.38 86.8845 108.22C86.8845 107.01 87.1995 106.055 87.8295 105.355C88.4595 104.655 89.2695 104.305 90.2595 104.305C91.2095 104.305 91.9645 104.61 92.5245 105.22C93.0845 105.83 93.3645 106.695 93.3645 107.815C93.3645 108.135 93.3395 108.43 93.2895 108.7H88.0995C88.1895 109.45 88.4745 110.025 88.9545 110.425C89.4345 110.825 90.0645 111.025 90.8445 111.025C91.6945 111.025 92.3745 110.85 92.8845 110.5ZM98.9664 108.49H97.6464C97.0064 108.49 96.5264 108.615 96.2064 108.865C95.8864 109.115 95.7264 109.43 95.7264 109.81C95.7264 110.19 95.8514 110.5 96.1014 110.74C96.3514 110.97 96.7164 111.085 97.1964 111.085C97.7364 111.085 98.1664 110.935 98.4864 110.635C98.8064 110.325 98.9664 109.935 98.9664 109.465V108.49ZM95.0364 105.985V104.8C95.6064 104.45 96.3564 104.275 97.2864 104.275C99.1964 104.275 100.151 105.245 100.151 107.185V112H98.9814V111.1C98.5914 111.75 97.8814 112.075 96.8514 112.075C96.1414 112.075 95.5664 111.865 95.1264 111.445C94.6964 111.025 94.4814 110.495 94.4814 109.855C94.4814 109.125 94.7564 108.56 95.3064 108.16C95.8664 107.75 96.6264 107.545 97.5864 107.545H98.9664V107.155C98.9664 106.555 98.8314 106.105 98.5614 105.805C98.2914 105.495 97.8364 105.34 97.1964 105.34C96.3864 105.34 95.6664 105.555 95.0364 105.985ZM103.589 105.355V109.81C103.589 110.62 103.969 111.025 104.729 111.025C105.119 111.025 105.464 110.91 105.764 110.68V111.805C105.434 111.985 105.064 112.075 104.654 112.075C103.154 112.075 102.404 111.31 102.404 109.78V105.355H101.189V104.395H102.404V102.505H103.589V104.395H105.689V105.355H103.589ZM108.361 101.395V105.715C108.811 104.765 109.611 104.29 110.761 104.29C111.491 104.29 112.076 104.515 112.516 104.965C112.966 105.415 113.191 106.025 113.191 106.795V112H112.006V107.08C112.006 106.53 111.861 106.105 111.571 105.805C111.291 105.505 110.921 105.355 110.461 105.355C109.901 105.355 109.411 105.57 108.991 106C108.571 106.43 108.361 107.045 108.361 107.845V112H107.191V101.395H108.361Z" fill="#2A2921"/>
</svg>
