<svg width="169" height="136" viewBox="0 0 169 136" fill="none" xmlns="http://www.w3.org/2000/svg">
<path d="M14.32 14V28H12.18L4.46 18.52V28H1.88V14H4.02L11.74 23.48V14H14.32ZM27.7714 17.32V28H25.3914V26.64C24.9914 27.12 24.4914 27.4933 23.8914 27.76C23.2914 28.0133 22.6447 28.14 21.9514 28.14C20.5247 28.14 19.3981 27.7467 18.5714 26.96C17.7581 26.16 17.3514 24.98 17.3514 23.42V17.32H19.8514V23.08C19.8514 24.04 20.0647 24.76 20.4914 25.24C20.9314 25.7067 21.5514 25.94 22.3514 25.94C23.2447 25.94 23.9514 25.6667 24.4714 25.12C25.0047 24.56 25.2714 23.76 25.2714 22.72V17.32H27.7714ZM33.0247 18.88C33.7447 17.76 35.0114 17.2 36.8247 17.2V19.58C36.6114 19.54 36.418 19.52 36.2447 19.52C35.2714 19.52 34.5114 19.8067 33.9647 20.38C33.418 20.94 33.1447 21.7533 33.1447 22.82V28H30.6447V17.32H33.0247V18.88ZM41.8845 28.14C41.0179 28.14 40.1712 28.0267 39.3445 27.8C38.5179 27.5733 37.8579 27.2867 37.3645 26.94L38.3245 25.04C38.8045 25.36 39.3779 25.62 40.0445 25.82C40.7245 26.0067 41.3912 26.1 42.0445 26.1C43.5379 26.1 44.2845 25.7067 44.2845 24.92C44.2845 24.5467 44.0912 24.2867 43.7045 24.14C43.3312 23.9933 42.7245 23.8533 41.8845 23.72C41.0045 23.5867 40.2845 23.4333 39.7245 23.26C39.1779 23.0867 38.6979 22.7867 38.2845 22.36C37.8845 21.92 37.6845 21.3133 37.6845 20.54C37.6845 19.5267 38.1045 18.72 38.9445 18.12C39.7979 17.5067 40.9445 17.2 42.3845 17.2C43.1179 17.2 43.8512 17.2867 44.5845 17.46C45.3179 17.62 45.9179 17.84 46.3845 18.12L45.4245 20.02C44.5179 19.4867 43.4979 19.22 42.3645 19.22C41.6312 19.22 41.0712 19.3333 40.6845 19.56C40.3112 19.7733 40.1245 20.06 40.1245 20.42C40.1245 20.82 40.3245 21.1067 40.7245 21.28C41.1379 21.44 41.7712 21.5933 42.6245 21.74C43.4779 21.8733 44.1779 22.0267 44.7245 22.2C45.2712 22.3733 45.7379 22.6667 46.1245 23.08C46.5245 23.4933 46.7245 24.08 46.7245 24.84C46.7245 25.84 46.2912 26.64 45.4245 27.24C44.5579 27.84 43.3779 28.14 41.8845 28.14ZM58.5175 22.72C58.5175 22.8933 58.5042 23.14 58.4775 23.46H50.0975C50.2442 24.2467 50.6242 24.8733 51.2375 25.34C51.8642 25.7933 52.6375 26.02 53.5575 26.02C54.7308 26.02 55.6975 25.6333 56.4575 24.86L57.7975 26.4C57.3175 26.9733 56.7108 27.4067 55.9775 27.7C55.2442 27.9933 54.4175 28.14 53.4975 28.14C52.3242 28.14 51.2908 27.9067 50.3975 27.44C49.5042 26.9733 48.8108 26.3267 48.3175 25.5C47.8375 24.66 47.5975 23.7133 47.5975 22.66C47.5975 21.62 47.8308 20.6867 48.2975 19.86C48.7775 19.02 49.4375 18.3667 50.2775 17.9C51.1175 17.4333 52.0642 17.2 53.1175 17.2C54.1575 17.2 55.0842 17.4333 55.8975 17.9C56.7242 18.3533 57.3642 19 57.8175 19.84C58.2842 20.6667 58.5175 21.6267 58.5175 22.72ZM53.1175 19.2C52.3175 19.2 51.6375 19.44 51.0775 19.92C50.5308 20.3867 50.1975 21.0133 50.0775 21.8H56.1375C56.0308 21.0267 55.7042 20.4 55.1575 19.92C54.6108 19.44 53.9308 19.2 53.1175 19.2ZM62.8989 18.88C63.6189 17.76 64.8856 17.2 66.6989 17.2V19.58C66.4856 19.54 66.2922 19.52 66.1189 19.52C65.1456 19.52 64.3856 19.8067 63.8389 20.38C63.2922 20.94 63.0189 21.7533 63.0189 22.82V28H60.5189V17.32H62.8989V18.88ZM78.8103 17.32L73.8103 28.86C73.3436 30.02 72.777 30.8333 72.1103 31.3C71.4436 31.78 70.637 32.02 69.6903 32.02C69.157 32.02 68.6303 31.9333 68.1103 31.76C67.5903 31.5867 67.1636 31.3467 66.8303 31.04L67.8303 29.2C68.0703 29.4267 68.3503 29.6067 68.6703 29.74C69.0036 29.8733 69.337 29.94 69.6703 29.94C70.1103 29.94 70.4703 29.8267 70.7503 29.6C71.0436 29.3733 71.3103 28.9933 71.5503 28.46L71.7303 28.04L67.0703 17.32H69.6703L73.0303 25.22L76.4103 17.32H78.8103ZM94.5002 28L91.6402 23.9C91.5202 23.9133 91.3402 23.92 91.1002 23.92H87.9402V28H85.3402V14H91.1002C92.3135 14 93.3668 14.2 94.2602 14.6C95.1668 15 95.8602 15.5733 96.3402 16.32C96.8202 17.0667 97.0602 17.9533 97.0602 18.98C97.0602 20.0333 96.8002 20.94 96.2802 21.7C95.7735 22.46 95.0402 23.0267 94.0802 23.4L97.3002 28H94.5002ZM94.4402 18.98C94.4402 18.0867 94.1468 17.4 93.5602 16.92C92.9735 16.44 92.1135 16.2 90.9802 16.2H87.9402V21.78H90.9802C92.1135 21.78 92.9735 21.54 93.5602 21.06C94.1468 20.5667 94.4402 19.8733 94.4402 18.98ZM105.389 17.2C106.736 17.2 107.816 17.5933 108.629 18.38C109.442 19.1667 109.849 20.3333 109.849 21.88V28H107.349V22.2C107.349 21.2667 107.129 20.5667 106.689 20.1C106.249 19.62 105.622 19.38 104.809 19.38C103.889 19.38 103.162 19.66 102.629 20.22C102.096 20.7667 101.829 21.56 101.829 22.6V28H99.3291V13.16H101.829V18.56C102.242 18.12 102.749 17.7867 103.349 17.56C103.962 17.32 104.642 17.2 105.389 17.2ZM122.425 17.32L117.425 28.86C116.958 30.02 116.392 30.8333 115.725 31.3C115.058 31.78 114.252 32.02 113.305 32.02C112.772 32.02 112.245 31.9333 111.725 31.76C111.205 31.5867 110.778 31.3467 110.445 31.04L111.445 29.2C111.685 29.4267 111.965 29.6067 112.285 29.74C112.618 29.8733 112.952 29.94 113.285 29.94C113.725 29.94 114.085 29.8267 114.365 29.6C114.658 29.3733 114.925 28.9933 115.165 28.46L115.345 28.04L110.685 17.32H113.285L116.645 25.22L120.025 17.32H122.425ZM137.068 17.2C138.414 17.2 139.481 17.5933 140.268 18.38C141.054 19.1533 141.448 20.32 141.448 21.88V28H138.948V22.2C138.948 21.2667 138.741 20.5667 138.328 20.1C137.914 19.62 137.321 19.38 136.548 19.38C135.708 19.38 135.034 19.66 134.528 20.22C134.021 20.7667 133.768 21.5533 133.768 22.58V28H131.268V22.2C131.268 21.2667 131.061 20.5667 130.648 20.1C130.234 19.62 129.641 19.38 128.868 19.38C128.014 19.38 127.334 19.6533 126.828 20.2C126.334 20.7467 126.088 21.54 126.088 22.58V28H123.588V17.32H125.968V18.68C126.368 18.2 126.868 17.8333 127.468 17.58C128.068 17.3267 128.734 17.2 129.468 17.2C130.268 17.2 130.974 17.3533 131.588 17.66C132.214 17.9533 132.708 18.3933 133.068 18.98C133.508 18.42 134.074 17.9867 134.768 17.68C135.461 17.36 136.228 17.2 137.068 17.2ZM154.38 22.72C154.38 22.8933 154.367 23.14 154.34 23.46H145.96C146.107 24.2467 146.487 24.8733 147.1 25.34C147.727 25.7933 148.5 26.02 149.42 26.02C150.593 26.02 151.56 25.6333 152.32 24.86L153.66 26.4C153.18 26.9733 152.573 27.4067 151.84 27.7C151.107 27.9933 150.28 28.14 149.36 28.14C148.187 28.14 147.153 27.9067 146.26 27.44C145.367 26.9733 144.673 26.3267 144.18 25.5C143.7 24.66 143.46 23.7133 143.46 22.66C143.46 21.62 143.693 20.6867 144.16 19.86C144.64 19.02 145.3 18.3667 146.14 17.9C146.98 17.4333 147.927 17.2 148.98 17.2C150.02 17.2 150.947 17.4333 151.76 17.9C152.587 18.3533 153.227 19 153.68 19.84C154.147 20.6667 154.38 21.6267 154.38 22.72ZM148.98 19.2C148.18 19.2 147.5 19.44 146.94 19.92C146.393 20.3867 146.06 21.0133 145.94 21.8H152C151.893 21.0267 151.567 20.4 151.02 19.92C150.473 19.44 149.793 19.2 148.98 19.2ZM159.681 28.14C158.815 28.14 157.968 28.0267 157.141 27.8C156.315 27.5733 155.655 27.2867 155.161 26.94L156.121 25.04C156.601 25.36 157.175 25.62 157.841 25.82C158.521 26.0067 159.188 26.1 159.841 26.1C161.335 26.1 162.081 25.7067 162.081 24.92C162.081 24.5467 161.888 24.2867 161.501 24.14C161.128 23.9933 160.521 23.8533 159.681 23.72C158.801 23.5867 158.081 23.4333 157.521 23.26C156.975 23.0867 156.495 22.7867 156.081 22.36C155.681 21.92 155.481 21.3133 155.481 20.54C155.481 19.5267 155.901 18.72 156.741 18.12C157.595 17.5067 158.741 17.2 160.181 17.2C160.915 17.2 161.648 17.2867 162.381 17.46C163.115 17.62 163.715 17.84 164.181 18.12L163.221 20.02C162.315 19.4867 161.295 19.22 160.161 19.22C159.428 19.22 158.868 19.3333 158.481 19.56C158.108 19.7733 157.921 20.06 157.921 20.42C157.921 20.82 158.121 21.1067 158.521 21.28C158.935 21.44 159.568 21.5933 160.421 21.74C161.275 21.8733 161.975 22.0267 162.521 22.2C163.068 22.3733 163.535 22.6667 163.921 23.08C164.321 23.4933 164.521 24.08 164.521 24.84C164.521 25.84 164.088 26.64 163.221 27.24C162.355 27.84 161.175 28.14 159.681 28.14Z" fill="#2A2921"/>
<path d="M5.19 51.485C6.06 51.485 6.82 51.695 7.47 52.115C8.13 52.525 8.64 53.13 9 53.93C9.37 54.73 9.555 55.7 9.555 56.84C9.555 57.96 9.37 58.92 9 59.72C8.64 60.52 8.13 61.13 7.47 61.55C6.82 61.97 6.06 62.18 5.19 62.18C4.32 62.18 3.555 61.975 2.895 61.565C2.245 61.155 1.735 60.55 1.365 59.75C1.005 58.95 0.825 57.985 0.825 56.855C0.825 55.745 1.005 54.785 1.365 53.975C1.735 53.165 2.25 52.55 2.91 52.13C3.57 51.7 4.33 51.485 5.19 51.485ZM5.19 52.655C4.29 52.655 3.59 52.995 3.09 53.675C2.59 54.355 2.34 55.415 2.34 56.855C2.34 58.285 2.59 59.335 3.09 60.005C3.6 60.675 4.3 61.01 5.19 61.01C7.09 61.01 8.04 59.62 8.04 56.84C8.04 54.05 7.09 52.655 5.19 52.655ZM15.2307 53.915C15.9507 53.915 16.5107 54.13 16.9107 54.56C17.3207 54.99 17.5257 55.58 17.5257 56.33V62H16.1457V56.525C16.1457 55.965 16.0407 55.57 15.8307 55.34C15.6207 55.11 15.3107 54.995 14.9007 54.995C14.4807 54.995 14.1107 55.115 13.7907 55.355C13.4707 55.595 13.1707 55.94 12.8907 56.39V62H11.5107V54.095H12.6957L12.8157 55.265C13.0957 54.845 13.4407 54.515 13.8507 54.275C14.2707 54.035 14.7307 53.915 15.2307 53.915ZM25.9698 57.815C25.9698 58.045 25.9598 58.28 25.9398 58.52H20.8998C20.9598 59.39 21.1798 60.03 21.5598 60.44C21.9398 60.85 22.4298 61.055 23.0298 61.055C23.4098 61.055 23.7598 61 24.0798 60.89C24.3998 60.78 24.7348 60.605 25.0848 60.365L25.6848 61.19C24.8448 61.85 23.9248 62.18 22.9248 62.18C21.8248 62.18 20.9648 61.82 20.3448 61.1C19.7348 60.38 19.4298 59.39 19.4298 58.13C19.4298 57.31 19.5598 56.585 19.8198 55.955C20.0898 55.315 20.4698 54.815 20.9598 54.455C21.4598 54.095 22.0448 53.915 22.7148 53.915C23.7648 53.915 24.5698 54.26 25.1298 54.95C25.6898 55.64 25.9698 56.595 25.9698 57.815ZM24.6048 57.41C24.6048 56.63 24.4498 56.035 24.1398 55.625C23.8298 55.215 23.3648 55.01 22.7448 55.01C21.6148 55.01 20.9998 55.84 20.8998 57.5H24.6048V57.41ZM34.2284 51.86C33.8084 51.86 33.5084 51.955 33.3284 52.145C33.1484 52.325 33.0584 52.61 33.0584 53V54.095H34.9784L34.8284 55.16H33.0584V62H31.6784V55.16H30.2684V54.095H31.6784V53.015C31.6784 52.335 31.8934 51.79 32.3234 51.38C32.7634 50.96 33.3734 50.75 34.1534 50.75C34.5134 50.75 34.8334 50.785 35.1134 50.855C35.4034 50.915 35.7134 51.015 36.0434 51.155L35.6084 52.16C35.1584 51.96 34.6984 51.86 34.2284 51.86ZM39.0913 53.915C40.2013 53.915 41.0613 54.285 41.6713 55.025C42.2913 55.765 42.6013 56.77 42.6013 58.04C42.6013 58.86 42.4613 59.585 42.1813 60.215C41.9013 60.835 41.4963 61.32 40.9663 61.67C40.4363 62.01 39.8063 62.18 39.0763 62.18C37.9663 62.18 37.1013 61.81 36.4813 61.07C35.8613 60.33 35.5513 59.325 35.5513 58.055C35.5513 57.235 35.6913 56.515 35.9713 55.895C36.2513 55.265 36.6563 54.78 37.1863 54.44C37.7163 54.09 38.3513 53.915 39.0913 53.915ZM39.0913 55.025C37.7213 55.025 37.0363 56.035 37.0363 58.055C37.0363 60.065 37.7163 61.07 39.0763 61.07C40.4363 61.07 41.1163 60.06 41.1163 58.04C41.1163 56.03 40.4413 55.025 39.0913 55.025ZM48.0161 53.915C48.2961 53.915 48.5561 53.945 48.7961 54.005L48.5411 55.355C48.3011 55.295 48.0711 55.265 47.8511 55.265C47.3611 55.265 46.9661 55.445 46.6661 55.805C46.3661 56.165 46.1311 56.725 45.9611 57.485V62H44.5811V54.095H45.7661L45.9011 55.7C46.1111 55.11 46.3961 54.665 46.7561 54.365C47.1161 54.065 47.5361 53.915 48.0161 53.915ZM55.8819 53.915C56.4219 53.915 56.9069 53.99 57.3369 54.14C57.7669 54.29 58.1769 54.515 58.5669 54.815L57.9819 55.685C57.6219 55.455 57.2769 55.285 56.9469 55.175C56.6269 55.065 56.2869 55.01 55.9269 55.01C55.4769 55.01 55.1219 55.105 54.8619 55.295C54.6019 55.475 54.4719 55.725 54.4719 56.045C54.4719 56.365 54.5919 56.615 54.8319 56.795C55.0819 56.975 55.5269 57.15 56.1669 57.32C57.0469 57.54 57.7019 57.84 58.1319 58.22C58.5719 58.6 58.7919 59.12 58.7919 59.78C58.7919 60.56 58.4869 61.155 57.8769 61.565C57.2769 61.975 56.5419 62.18 55.6719 62.18C54.4719 62.18 53.4769 61.835 52.6869 61.145L53.4219 60.305C54.0919 60.815 54.8319 61.07 55.6419 61.07C56.1619 61.07 56.5719 60.965 56.8719 60.755C57.1819 60.535 57.3369 60.24 57.3369 59.87C57.3369 59.6 57.2819 59.385 57.1719 59.225C57.0619 59.055 56.8719 58.91 56.6019 58.79C56.3319 58.66 55.9369 58.525 55.4169 58.385C54.5769 58.165 53.9669 57.87 53.5869 57.5C53.2169 57.13 53.0319 56.66 53.0319 56.09C53.0319 55.68 53.1519 55.31 53.3919 54.98C53.6419 54.64 53.9819 54.38 54.4119 54.2C54.8519 54.01 55.3419 53.915 55.8819 53.915ZM63.4089 53.915C64.5189 53.915 65.3789 54.285 65.9889 55.025C66.6089 55.765 66.9189 56.77 66.9189 58.04C66.9189 58.86 66.7789 59.585 66.4989 60.215C66.2189 60.835 65.8139 61.32 65.2839 61.67C64.7539 62.01 64.1239 62.18 63.3939 62.18C62.2839 62.18 61.4189 61.81 60.7989 61.07C60.1789 60.33 59.8689 59.325 59.8689 58.055C59.8689 57.235 60.0089 56.515 60.2889 55.895C60.5689 55.265 60.9739 54.78 61.5039 54.44C62.0339 54.09 62.6689 53.915 63.4089 53.915ZM63.4089 55.025C62.0389 55.025 61.3539 56.035 61.3539 58.055C61.3539 60.065 62.0339 61.07 63.3939 61.07C64.7539 61.07 65.4339 60.06 65.4339 58.04C65.4339 56.03 64.7589 55.025 63.4089 55.025ZM72.3336 53.915C72.6136 53.915 72.8736 53.945 73.1136 54.005L72.8586 55.355C72.6186 55.295 72.3886 55.265 72.1686 55.265C71.6786 55.265 71.2836 55.445 70.9836 55.805C70.6836 56.165 70.4486 56.725 70.2786 57.485V62H68.8986V54.095H70.0836L70.2186 55.7C70.4286 55.11 70.7136 54.665 71.0736 54.365C71.4336 54.065 71.8536 53.915 72.3336 53.915ZM77.8198 53.915C78.0998 53.915 78.3598 53.945 78.5998 54.005L78.3448 55.355C78.1048 55.295 77.8748 55.265 77.6548 55.265C77.1648 55.265 76.7698 55.445 76.4698 55.805C76.1698 56.165 75.9348 56.725 75.7648 57.485V62H74.3848V54.095H75.5698L75.7048 55.7C75.9148 55.11 76.1998 54.665 76.5598 54.365C76.9198 54.065 77.3398 53.915 77.8198 53.915ZM82.3868 53.915C83.4968 53.915 84.3568 54.285 84.9668 55.025C85.5868 55.765 85.8968 56.77 85.8968 58.04C85.8968 58.86 85.7568 59.585 85.4768 60.215C85.1968 60.835 84.7918 61.32 84.2618 61.67C83.7318 62.01 83.1018 62.18 82.3718 62.18C81.2618 62.18 80.3968 61.81 79.7768 61.07C79.1568 60.33 78.8468 59.325 78.8468 58.055C78.8468 57.235 78.9868 56.515 79.2668 55.895C79.5468 55.265 79.9518 54.78 80.4818 54.44C81.0118 54.09 81.6468 53.915 82.3868 53.915ZM82.3868 55.025C81.0168 55.025 80.3318 56.035 80.3318 58.055C80.3318 60.065 81.0118 61.07 82.3718 61.07C83.7318 61.07 84.4118 60.06 84.4118 58.04C84.4118 56.03 83.7368 55.025 82.3868 55.025ZM96.9066 54.095L95.1066 62H93.2316L91.8516 55.34L90.4266 62H88.5966L86.7516 54.095H88.1316L89.5566 61.04L91.1166 54.095H92.6616L94.1466 61.04L95.5866 54.095H96.9066ZM98.3955 60.095C98.6955 60.095 98.9456 60.195 99.1456 60.395C99.3456 60.595 99.4456 60.84 99.4456 61.13C99.4456 61.44 99.3556 61.795 99.1755 62.195L98.1705 64.49H97.1805L97.7805 62C97.6505 61.9 97.5455 61.775 97.4655 61.625C97.3955 61.475 97.3605 61.31 97.3605 61.13C97.3605 60.84 97.4605 60.595 97.6605 60.395C97.8605 60.195 98.1055 60.095 98.3955 60.095ZM111.189 51.665L111.039 52.88H108.174V62H106.749V52.88H103.809V51.665H111.189ZM121.034 54.095L119.234 62H117.359L115.979 55.34L114.554 62H112.724L110.879 54.095H112.259L113.684 61.04L115.244 54.095H116.789L118.274 61.04L119.714 54.095H121.034ZM125.426 53.915C126.536 53.915 127.396 54.285 128.006 55.025C128.626 55.765 128.936 56.77 128.936 58.04C128.936 58.86 128.796 59.585 128.516 60.215C128.236 60.835 127.831 61.32 127.301 61.67C126.771 62.01 126.141 62.18 125.411 62.18C124.301 62.18 123.436 61.81 122.816 61.07C122.196 60.33 121.886 59.325 121.886 58.055C121.886 57.235 122.026 56.515 122.306 55.895C122.586 55.265 122.991 54.78 123.521 54.44C124.051 54.09 124.686 53.915 125.426 53.915ZM125.426 55.025C124.056 55.025 123.371 56.035 123.371 58.055C123.371 60.065 124.051 61.07 125.411 61.07C126.771 61.07 127.451 60.06 127.451 58.04C127.451 56.03 126.776 55.025 125.426 55.025ZM137.27 51.86C136.85 51.86 136.55 51.955 136.37 52.145C136.19 52.325 136.1 52.61 136.1 53V54.095H138.02L137.87 55.16H136.1V62H134.72V55.16H133.31V54.095H134.72V53.015C134.72 52.335 134.935 51.79 135.365 51.38C135.805 50.96 136.415 50.75 137.195 50.75C137.555 50.75 137.875 50.785 138.155 50.855C138.445 50.915 138.755 51.015 139.085 51.155L138.65 52.16C138.2 51.96 137.74 51.86 137.27 51.86ZM142.133 53.915C143.243 53.915 144.103 54.285 144.713 55.025C145.333 55.765 145.643 56.77 145.643 58.04C145.643 58.86 145.503 59.585 145.223 60.215C144.943 60.835 144.538 61.32 144.008 61.67C143.478 62.01 142.848 62.18 142.118 62.18C141.008 62.18 140.143 61.81 139.523 61.07C138.903 60.33 138.593 59.325 138.593 58.055C138.593 57.235 138.733 56.515 139.013 55.895C139.293 55.265 139.698 54.78 140.228 54.44C140.758 54.09 141.393 53.915 142.133 53.915ZM142.133 55.025C140.763 55.025 140.078 56.035 140.078 58.055C140.078 60.065 140.758 61.07 142.118 61.07C143.478 61.07 144.158 60.06 144.158 58.04C144.158 56.03 143.483 55.025 142.133 55.025ZM151.058 53.915C151.338 53.915 151.598 53.945 151.838 54.005L151.583 55.355C151.343 55.295 151.113 55.265 150.893 55.265C150.403 55.265 150.008 55.445 149.708 55.805C149.408 56.165 149.173 56.725 149.003 57.485V62H147.623V54.095H148.808L148.943 55.7C149.153 55.11 149.438 54.665 149.798 54.365C150.158 54.065 150.578 53.915 151.058 53.915ZM9.36 74.915C10.01 74.915 10.53 75.135 10.92 75.575C11.31 76.005 11.505 76.59 11.505 77.33V83H10.125V77.525C10.125 76.505 9.755 75.995 9.015 75.995C8.625 75.995 8.295 76.11 8.025 76.34C7.755 76.56 7.465 76.91 7.155 77.39V83H5.775V77.525C5.775 76.505 5.405 75.995 4.665 75.995C4.265 75.995 3.93 76.11 3.66 76.34C3.39 76.57 3.105 76.92 2.805 77.39V83H1.425V75.095H2.61L2.73 76.25C3.32 75.36 4.08 74.915 5.01 74.915C5.5 74.915 5.915 75.04 6.255 75.29C6.605 75.54 6.855 75.89 7.005 76.34C7.315 75.88 7.655 75.53 8.025 75.29C8.405 75.04 8.85 74.915 9.36 74.915ZM15.3663 75.095V83H13.9863V75.095H15.3663ZM14.6613 71.3C14.9513 71.3 15.1863 71.39 15.3663 71.57C15.5463 71.75 15.6363 71.975 15.6363 72.245C15.6363 72.515 15.5463 72.74 15.3663 72.92C15.1863 73.09 14.9513 73.175 14.6613 73.175C14.3813 73.175 14.1513 73.09 13.9713 72.92C13.7913 72.74 13.7013 72.515 13.7013 72.245C13.7013 71.975 13.7913 71.75 13.9713 71.57C14.1513 71.39 14.3813 71.3 14.6613 71.3ZM21.3547 74.915C21.6347 74.915 21.8947 74.945 22.1347 75.005L21.8797 76.355C21.6397 76.295 21.4097 76.265 21.1897 76.265C20.6997 76.265 20.3047 76.445 20.0047 76.805C19.7047 77.165 19.4697 77.725 19.2997 78.485V83H17.9197V75.095H19.1047L19.2397 76.7C19.4497 76.11 19.7347 75.665 20.0947 75.365C20.4547 75.065 20.8747 74.915 21.3547 74.915ZM27.3959 82.64C26.8759 83 26.2859 83.18 25.6259 83.18C24.9559 83.18 24.4309 82.99 24.0509 82.61C23.6809 82.22 23.4959 81.66 23.4959 80.93V76.16H22.1159V75.095H23.4959V73.31L24.8759 73.145V75.095H26.7509L26.6009 76.16H24.8759V80.87C24.8759 81.28 24.9459 81.58 25.0859 81.77C25.2359 81.95 25.4809 82.04 25.8209 82.04C26.1309 82.04 26.4809 81.935 26.8709 81.725L27.3959 82.64ZM32.2458 74.915C32.9658 74.915 33.5258 75.13 33.9258 75.56C34.3358 75.99 34.5408 76.58 34.5408 77.33V83H33.1608V77.525C33.1608 76.965 33.0508 76.57 32.8308 76.34C32.6208 76.11 32.3108 75.995 31.9008 75.995C31.4908 75.995 31.1258 76.115 30.8058 76.355C30.4858 76.595 30.1858 76.935 29.9058 77.375V83H28.5258V71.93L29.9058 71.78V76.19C30.5258 75.34 31.3058 74.915 32.2458 74.915ZM37.3748 81.095C37.6748 81.095 37.9248 81.195 38.1248 81.395C38.3248 81.595 38.4248 81.84 38.4248 82.13C38.4248 82.44 38.3348 82.795 38.1548 83.195L37.1498 85.49H36.1598L36.7598 83C36.6298 82.9 36.5248 82.775 36.4448 82.625C36.3748 82.475 36.3398 82.31 36.3398 82.13C36.3398 81.84 36.4398 81.595 36.6398 81.395C36.8398 81.195 37.0848 81.095 37.3748 81.095ZM50.1681 72.665L50.0181 73.88H47.1531V83H45.7281V73.88H42.7881V72.665H50.1681ZM55.1571 74.915C55.8771 74.915 56.4371 75.13 56.8371 75.56C57.2471 75.99 57.4521 76.58 57.4521 77.33V83H56.0721V77.525C56.0721 76.965 55.9621 76.57 55.7421 76.34C55.5321 76.11 55.2221 75.995 54.8121 75.995C54.4021 75.995 54.0371 76.115 53.7171 76.355C53.3971 76.595 53.0971 76.935 52.8171 77.375V83H51.4371V71.93L52.8171 71.78V76.19C53.4371 75.34 54.2171 74.915 55.1571 74.915ZM63.3612 74.915C63.6412 74.915 63.9012 74.945 64.1412 75.005L63.8862 76.355C63.6462 76.295 63.4162 76.265 63.1962 76.265C62.7062 76.265 62.3112 76.445 62.0112 76.805C61.7112 77.165 61.4762 77.725 61.3062 78.485V83H59.9262V75.095H61.1112L61.2462 76.7C61.4562 76.11 61.7412 75.665 62.1012 75.365C62.4612 75.065 62.8812 74.915 63.3612 74.915ZM70.9282 78.815C70.9282 79.045 70.9182 79.28 70.8982 79.52H65.8582C65.9182 80.39 66.1382 81.03 66.5182 81.44C66.8982 81.85 67.3882 82.055 67.9882 82.055C68.3682 82.055 68.7182 82 69.0382 81.89C69.3582 81.78 69.6932 81.605 70.0432 81.365L70.6432 82.19C69.8032 82.85 68.8832 83.18 67.8832 83.18C66.7832 83.18 65.9232 82.82 65.3032 82.1C64.6932 81.38 64.3882 80.39 64.3882 79.13C64.3882 78.31 64.5182 77.585 64.7782 76.955C65.0482 76.315 65.4282 75.815 65.9182 75.455C66.4182 75.095 67.0032 74.915 67.6732 74.915C68.7232 74.915 69.5282 75.26 70.0882 75.95C70.6482 76.64 70.9282 77.595 70.9282 78.815ZM69.5632 78.41C69.5632 77.63 69.4082 77.035 69.0982 76.625C68.7882 76.215 68.3232 76.01 67.7032 76.01C66.5732 76.01 65.9582 76.84 65.8582 78.5H69.5632V78.41ZM78.802 78.815C78.802 79.045 78.792 79.28 78.772 79.52H73.732C73.792 80.39 74.012 81.03 74.392 81.44C74.772 81.85 75.262 82.055 75.862 82.055C76.242 82.055 76.592 82 76.912 81.89C77.232 81.78 77.567 81.605 77.917 81.365L78.517 82.19C77.677 82.85 76.757 83.18 75.757 83.18C74.657 83.18 73.797 82.82 73.177 82.1C72.567 81.38 72.262 80.39 72.262 79.13C72.262 78.31 72.392 77.585 72.652 76.955C72.922 76.315 73.302 75.815 73.792 75.455C74.292 75.095 74.877 74.915 75.547 74.915C76.597 74.915 77.402 75.26 77.962 75.95C78.522 76.64 78.802 77.595 78.802 78.815ZM77.437 78.41C77.437 77.63 77.282 77.035 76.972 76.625C76.662 76.215 76.197 76.01 75.577 76.01C74.447 76.01 73.832 76.84 73.732 78.5H77.437V78.41ZM87.0606 72.86C86.6406 72.86 86.3406 72.955 86.1606 73.145C85.9806 73.325 85.8906 73.61 85.8906 74V75.095H87.8106L87.6606 76.16H85.8906V83H84.5106V76.16H83.1006V75.095H84.5106V74.015C84.5106 73.335 84.7256 72.79 85.1556 72.38C85.5956 71.96 86.2056 71.75 86.9856 71.75C87.3456 71.75 87.6656 71.785 87.9456 71.855C88.2356 71.915 88.5456 72.015 88.8756 72.155L88.4406 73.16C87.9906 72.96 87.5306 72.86 87.0606 72.86ZM91.9235 74.915C93.0335 74.915 93.8935 75.285 94.5035 76.025C95.1235 76.765 95.4335 77.77 95.4335 79.04C95.4335 79.86 95.2935 80.585 95.0135 81.215C94.7335 81.835 94.3285 82.32 93.7985 82.67C93.2685 83.01 92.6385 83.18 91.9085 83.18C90.7985 83.18 89.9335 82.81 89.3135 82.07C88.6935 81.33 88.3835 80.325 88.3835 79.055C88.3835 78.235 88.5235 77.515 88.8035 76.895C89.0835 76.265 89.4885 75.78 90.0185 75.44C90.5485 75.09 91.1835 74.915 91.9235 74.915ZM91.9235 76.025C90.5535 76.025 89.8685 77.035 89.8685 79.055C89.8685 81.065 90.5485 82.07 91.9085 82.07C93.2685 82.07 93.9485 81.06 93.9485 79.04C93.9485 77.03 93.2735 76.025 91.9235 76.025ZM100.848 74.915C101.128 74.915 101.388 74.945 101.628 75.005L101.373 76.355C101.133 76.295 100.903 76.265 100.683 76.265C100.193 76.265 99.7983 76.445 99.4983 76.805C99.1983 77.165 98.9633 77.725 98.7933 78.485V83H97.4133V75.095H98.5983L98.7333 76.7C98.9433 76.11 99.2283 75.665 99.5883 75.365C99.9483 75.065 100.368 74.915 100.848 74.915ZM111.894 81.155C111.894 81.475 111.949 81.715 112.059 81.875C112.169 82.025 112.334 82.14 112.554 82.22L112.239 83.18C111.829 83.13 111.499 83.015 111.249 82.835C110.999 82.655 110.814 82.375 110.694 81.995C110.164 82.785 109.379 83.18 108.339 83.18C107.559 83.18 106.944 82.96 106.494 82.52C106.044 82.08 105.819 81.505 105.819 80.795C105.819 79.955 106.119 79.31 106.719 78.86C107.329 78.41 108.189 78.185 109.299 78.185H110.514V77.6C110.514 77.04 110.379 76.64 110.109 76.4C109.839 76.16 109.424 76.04 108.864 76.04C108.284 76.04 107.574 76.18 106.734 76.46L106.389 75.455C107.369 75.095 108.279 74.915 109.119 74.915C110.049 74.915 110.744 75.145 111.204 75.605C111.664 76.055 111.894 76.7 111.894 77.54V81.155ZM108.654 82.145C109.444 82.145 110.064 81.735 110.514 80.915V79.1H109.479C108.019 79.1 107.289 79.64 107.289 80.72C107.289 81.19 107.404 81.545 107.634 81.785C107.864 82.025 108.204 82.145 108.654 82.145ZM10.455 96.095L8.655 104H6.78L5.4 97.34L3.975 104H2.145L0.3 96.095H1.68L3.105 103.04L4.665 96.095H6.21L7.695 103.04L9.135 96.095H10.455ZM17.847 99.815C17.847 100.045 17.837 100.28 17.817 100.52H12.777C12.837 101.39 13.057 102.03 13.437 102.44C13.817 102.85 14.307 103.055 14.907 103.055C15.287 103.055 15.637 103 15.957 102.89C16.277 102.78 16.612 102.605 16.962 102.365L17.562 103.19C16.722 103.85 15.802 104.18 14.802 104.18C13.702 104.18 12.842 103.82 12.222 103.1C11.612 102.38 11.307 101.39 11.307 100.13C11.307 99.31 11.437 98.585 11.697 97.955C11.967 97.315 12.347 96.815 12.837 96.455C13.337 96.095 13.922 95.915 14.592 95.915C15.642 95.915 16.447 96.26 17.007 96.95C17.567 97.64 17.847 98.595 17.847 99.815ZM16.482 99.41C16.482 98.63 16.327 98.035 16.017 97.625C15.707 97.215 15.242 97.01 14.622 97.01C13.492 97.01 12.877 97.84 12.777 99.5H16.482V99.41ZM25.8708 92.915V104H24.6558L24.5208 102.905C24.2608 103.305 23.9358 103.62 23.5458 103.85C23.1558 104.07 22.7208 104.18 22.2408 104.18C21.3008 104.18 20.5658 103.81 20.0358 103.07C19.5158 102.33 19.2558 101.335 19.2558 100.085C19.2558 99.275 19.3808 98.555 19.6308 97.925C19.8808 97.295 20.2408 96.805 20.7108 96.455C21.1808 96.095 21.7308 95.915 22.3608 95.915C23.1708 95.915 23.8808 96.24 24.4908 96.89V92.75L25.8708 92.915ZM22.5408 103.085C22.9608 103.085 23.3208 102.99 23.6208 102.8C23.9208 102.6 24.2108 102.305 24.4908 101.915V98.045C24.2308 97.705 23.9508 97.45 23.6508 97.28C23.3608 97.1 23.0308 97.01 22.6608 97.01C22.0508 97.01 21.5758 97.265 21.2358 97.775C20.9058 98.285 20.7408 99.045 20.7408 100.055C20.7408 101.075 20.8958 101.835 21.2058 102.335C21.5158 102.835 21.9608 103.085 22.5408 103.085ZM34.5356 92.915V104H33.3206L33.1856 102.905C32.9256 103.305 32.6006 103.62 32.2106 103.85C31.8206 104.07 31.3856 104.18 30.9056 104.18C29.9656 104.18 29.2306 103.81 28.7006 103.07C28.1806 102.33 27.9206 101.335 27.9206 100.085C27.9206 99.275 28.0456 98.555 28.2956 97.925C28.5456 97.295 28.9056 96.805 29.3756 96.455C29.8456 96.095 30.3956 95.915 31.0256 95.915C31.8356 95.915 32.5456 96.24 33.1556 96.89V92.75L34.5356 92.915ZM31.2056 103.085C31.6256 103.085 31.9856 102.99 32.2856 102.8C32.5856 102.6 32.8756 102.305 33.1556 101.915V98.045C32.8956 97.705 32.6156 97.45 32.3156 97.28C32.0256 97.1 31.6956 97.01 31.3256 97.01C30.7156 97.01 30.2406 97.265 29.9006 97.775C29.5706 98.285 29.4056 99.045 29.4056 100.055C29.4056 101.075 29.5606 101.835 29.8706 102.335C30.1806 102.835 30.6256 103.085 31.2056 103.085ZM38.4605 96.095V104H37.0805V96.095H38.4605ZM37.7555 92.3C38.0455 92.3 38.2805 92.39 38.4605 92.57C38.6405 92.75 38.7305 92.975 38.7305 93.245C38.7305 93.515 38.6405 93.74 38.4605 93.92C38.2805 94.09 38.0455 94.175 37.7555 94.175C37.4755 94.175 37.2455 94.09 37.0655 93.92C36.8855 93.74 36.7955 93.515 36.7955 93.245C36.7955 92.975 36.8855 92.75 37.0655 92.57C37.2455 92.39 37.4755 92.3 37.7555 92.3ZM44.7339 95.915C45.4539 95.915 46.0139 96.13 46.4139 96.56C46.8239 96.99 47.0289 97.58 47.0289 98.33V104H45.6489V98.525C45.6489 97.965 45.5439 97.57 45.3339 97.34C45.1239 97.11 44.8139 96.995 44.4039 96.995C43.9839 96.995 43.6139 97.115 43.2939 97.355C42.9739 97.595 42.6739 97.94 42.3939 98.39V104H41.0139V96.095H42.1989L42.3189 97.265C42.5989 96.845 42.9439 96.515 43.3539 96.275C43.7739 96.035 44.2339 95.915 44.7339 95.915ZM55.8779 96.455C55.5779 96.555 55.2479 96.62 54.8879 96.65C54.5279 96.68 54.0879 96.695 53.5679 96.695C54.4979 97.115 54.9629 97.78 54.9629 98.69C54.9629 99.48 54.6929 100.125 54.1529 100.625C53.6129 101.125 52.8779 101.375 51.9479 101.375C51.5879 101.375 51.2529 101.325 50.9429 101.225C50.8229 101.305 50.7279 101.415 50.6579 101.555C50.5879 101.685 50.5529 101.82 50.5529 101.96C50.5529 102.39 50.8979 102.605 51.5879 102.605H52.8479C53.3779 102.605 53.8479 102.7 54.2579 102.89C54.6679 103.08 54.9829 103.34 55.2029 103.67C55.4329 104 55.5479 104.375 55.5479 104.795C55.5479 105.565 55.2329 106.155 54.6029 106.565C53.9729 106.985 53.0529 107.195 51.8429 107.195C50.9929 107.195 50.3179 107.105 49.8179 106.925C49.3279 106.755 48.9779 106.495 48.7679 106.145C48.5579 105.795 48.4529 105.345 48.4529 104.795H49.6979C49.6979 105.115 49.7579 105.365 49.8779 105.545C49.9979 105.735 50.2129 105.875 50.5229 105.965C50.8329 106.065 51.2729 106.115 51.8429 106.115C52.6729 106.115 53.2629 106.01 53.6129 105.8C53.9729 105.6 54.1529 105.295 54.1529 104.885C54.1529 104.515 54.0129 104.235 53.7329 104.045C53.4529 103.855 53.0629 103.76 52.5629 103.76H51.3179C50.6479 103.76 50.1379 103.62 49.7879 103.34C49.4479 103.05 49.2779 102.69 49.2779 102.26C49.2779 102 49.3529 101.75 49.5029 101.51C49.6529 101.27 49.8679 101.055 50.1479 100.865C49.6879 100.625 49.3479 100.33 49.1279 99.98C48.9179 99.62 48.8129 99.185 48.8129 98.675C48.8129 98.145 48.9429 97.67 49.2029 97.25C49.4729 96.83 49.8379 96.505 50.2979 96.275C50.7679 96.035 51.2879 95.915 51.8579 95.915C52.4779 95.925 52.9979 95.905 53.4179 95.855C53.8379 95.795 54.1829 95.72 54.4529 95.63C54.7329 95.53 55.0729 95.39 55.4729 95.21L55.8779 96.455ZM51.8579 96.905C51.3379 96.905 50.9329 97.07 50.6429 97.4C50.3629 97.72 50.2229 98.145 50.2229 98.675C50.2229 99.215 50.3679 99.65 50.6579 99.98C50.9479 100.3 51.3579 100.46 51.8879 100.46C52.4279 100.46 52.8379 100.305 53.1179 99.995C53.4079 99.675 53.5529 99.23 53.5529 98.66C53.5529 97.49 52.9879 96.905 51.8579 96.905ZM57.3559 102.095C57.6559 102.095 57.9059 102.195 58.1059 102.395C58.3059 102.595 58.4059 102.84 58.4059 103.13C58.4059 103.44 58.3159 103.795 58.1359 104.195L57.1309 106.49H56.1409L56.7409 104C56.6109 103.9 56.5059 103.775 56.4259 103.625C56.3559 103.475 56.3209 103.31 56.3209 103.13C56.3209 102.84 56.4209 102.595 56.6209 102.395C56.8209 102.195 57.0659 102.095 57.3559 102.095ZM69.5491 104L68.7691 101.405H64.8541L64.0741 104H62.6341L65.9491 93.665H67.7491L71.0491 104H69.5491ZM65.1991 100.25H68.4241L66.8191 94.85L65.1991 100.25ZM75.9878 95.915C76.7078 95.915 77.2678 96.13 77.6678 96.56C78.0778 96.99 78.2828 97.58 78.2828 98.33V104H76.9028V98.525C76.9028 97.965 76.7978 97.57 76.5878 97.34C76.3778 97.11 76.0678 96.995 75.6578 96.995C75.2378 96.995 74.8678 97.115 74.5478 97.355C74.2278 97.595 73.9278 97.94 73.6478 98.39V104H72.2678V96.095H73.4528L73.5728 97.265C73.8528 96.845 74.1978 96.515 74.6078 96.275C75.0278 96.035 75.4878 95.915 75.9878 95.915ZM86.8768 92.915V104H85.6618L85.5268 102.905C85.2668 103.305 84.9418 103.62 84.5518 103.85C84.1618 104.07 83.7268 104.18 83.2468 104.18C82.3068 104.18 81.5718 103.81 81.0418 103.07C80.5218 102.33 80.2618 101.335 80.2618 100.085C80.2618 99.275 80.3868 98.555 80.6368 97.925C80.8868 97.295 81.2468 96.805 81.7168 96.455C82.1868 96.095 82.7368 95.915 83.3668 95.915C84.1768 95.915 84.8868 96.24 85.4968 96.89V92.75L86.8768 92.915ZM83.5468 103.085C83.9668 103.085 84.3268 102.99 84.6268 102.8C84.9268 102.6 85.2168 102.305 85.4968 101.915V98.045C85.2368 97.705 84.9568 97.45 84.6568 97.28C84.3668 97.1 84.0368 97.01 83.6668 97.01C83.0568 97.01 82.5818 97.265 82.2418 97.775C81.9118 98.285 81.7468 99.045 81.7468 100.055C81.7468 101.075 81.9018 101.835 82.2118 102.335C82.5218 102.835 82.9668 103.085 83.5468 103.085ZM95.7764 93.86C95.3564 93.86 95.0564 93.955 94.8764 94.145C94.6964 94.325 94.6064 94.61 94.6064 95V96.095H96.5264L96.3764 97.16H94.6064V104H93.2264V97.16H91.8164V96.095H93.2264V95.015C93.2264 94.335 93.4414 93.79 93.8714 93.38C94.3114 92.96 94.9214 92.75 95.7014 92.75C96.0614 92.75 96.3814 92.785 96.6614 92.855C96.9514 92.915 97.2614 93.015 97.5914 93.155L97.1564 94.16C96.7064 93.96 96.2464 93.86 95.7764 93.86ZM100.639 95.915C101.749 95.915 102.609 96.285 103.219 97.025C103.839 97.765 104.149 98.77 104.149 100.04C104.149 100.86 104.009 101.585 103.729 102.215C103.449 102.835 103.044 103.32 102.514 103.67C101.984 104.01 101.354 104.18 100.624 104.18C99.5143 104.18 98.6493 103.81 98.0293 103.07C97.4093 102.33 97.0993 101.325 97.0993 100.055C97.0993 99.235 97.2393 98.515 97.5193 97.895C97.7993 97.265 98.2043 96.78 98.7343 96.44C99.2643 96.09 99.8993 95.915 100.639 95.915ZM100.639 97.025C99.2693 97.025 98.5843 98.035 98.5843 100.055C98.5843 102.065 99.2643 103.07 100.624 103.07C101.984 103.07 102.664 102.06 102.664 100.04C102.664 98.03 101.989 97.025 100.639 97.025ZM112.009 104H110.824L110.719 102.77C110.419 103.26 110.074 103.62 109.684 103.85C109.294 104.07 108.819 104.18 108.259 104.18C107.569 104.18 107.029 103.97 106.639 103.55C106.249 103.13 106.054 102.535 106.054 101.765V96.095H107.434V101.615C107.434 102.155 107.529 102.54 107.719 102.77C107.909 102.99 108.219 103.1 108.649 103.1C109.419 103.1 110.079 102.645 110.629 101.735V96.095H112.009V104ZM117.995 95.915C118.275 95.915 118.535 95.945 118.775 96.005L118.52 97.355C118.28 97.295 118.05 97.265 117.83 97.265C117.34 97.265 116.945 97.445 116.645 97.805C116.345 98.165 116.11 98.725 115.94 99.485V104H114.56V96.095H115.745L115.88 97.7C116.09 97.11 116.375 96.665 116.735 96.365C117.095 96.065 117.515 95.915 117.995 95.915ZM126.4 93.86C125.98 93.86 125.68 93.955 125.5 94.145C125.32 94.325 125.23 94.61 125.23 95V96.095H127.15L127 97.16H125.23V104H123.85V97.16H122.44V96.095H123.85V95.015C123.85 94.335 124.065 93.79 124.495 93.38C124.935 92.96 125.545 92.75 126.325 92.75C126.685 92.75 127.005 92.785 127.285 92.855C127.575 92.915 127.885 93.015 128.215 93.155L127.78 94.16C127.33 93.96 126.87 93.86 126.4 93.86ZM131.263 95.915C132.373 95.915 133.233 96.285 133.843 97.025C134.463 97.765 134.773 98.77 134.773 100.04C134.773 100.86 134.633 101.585 134.353 102.215C134.073 102.835 133.668 103.32 133.138 103.67C132.608 104.01 131.978 104.18 131.248 104.18C130.138 104.18 129.273 103.81 128.653 103.07C128.033 102.33 127.723 101.325 127.723 100.055C127.723 99.235 127.863 98.515 128.143 97.895C128.423 97.265 128.828 96.78 129.358 96.44C129.888 96.09 130.523 95.915 131.263 95.915ZM131.263 97.025C129.893 97.025 129.208 98.035 129.208 100.055C129.208 102.065 129.888 103.07 131.248 103.07C132.608 103.07 133.288 102.06 133.288 100.04C133.288 98.03 132.613 97.025 131.263 97.025ZM140.188 95.915C140.468 95.915 140.728 95.945 140.968 96.005L140.713 97.355C140.473 97.295 140.243 97.265 140.023 97.265C139.533 97.265 139.138 97.445 138.838 97.805C138.538 98.165 138.303 98.725 138.133 99.485V104H136.753V96.095H137.938L138.073 97.7C138.283 97.11 138.568 96.665 138.928 96.365C139.288 96.065 139.708 95.915 140.188 95.915ZM7.545 113.915V125H6.33L6.195 123.905C5.935 124.305 5.61 124.62 5.22 124.85C4.83 125.07 4.395 125.18 3.915 125.18C2.975 125.18 2.24 124.81 1.71 124.07C1.19 123.33 0.93 122.335 0.93 121.085C0.93 120.275 1.055 119.555 1.305 118.925C1.555 118.295 1.915 117.805 2.385 117.455C2.855 117.095 3.405 116.915 4.035 116.915C4.845 116.915 5.555 117.24 6.165 117.89V113.75L7.545 113.915ZM4.215 124.085C4.635 124.085 4.995 123.99 5.295 123.8C5.595 123.6 5.885 123.305 6.165 122.915V119.045C5.905 118.705 5.625 118.45 5.325 118.28C5.035 118.1 4.705 118.01 4.335 118.01C3.725 118.01 3.25 118.265 2.91 118.775C2.58 119.285 2.415 120.045 2.415 121.055C2.415 122.075 2.57 122.835 2.88 123.335C3.19 123.835 3.635 124.085 4.215 124.085ZM16.0598 120.815C16.0598 121.045 16.0498 121.28 16.0298 121.52H10.9898C11.0498 122.39 11.2698 123.03 11.6498 123.44C12.0298 123.85 12.5198 124.055 13.1198 124.055C13.4998 124.055 13.8498 124 14.1698 123.89C14.4898 123.78 14.8248 123.605 15.1748 123.365L15.7748 124.19C14.9348 124.85 14.0148 125.18 13.0148 125.18C11.9148 125.18 11.0548 124.82 10.4348 124.1C9.82484 123.38 9.51984 122.39 9.51984 121.13C9.51984 120.31 9.64984 119.585 9.90984 118.955C10.1798 118.315 10.5598 117.815 11.0498 117.455C11.5498 117.095 12.1348 116.915 12.8048 116.915C13.8548 116.915 14.6598 117.26 15.2198 117.95C15.7798 118.64 16.0598 119.595 16.0598 120.815ZM14.6948 120.41C14.6948 119.63 14.5398 119.035 14.2298 118.625C13.9198 118.215 13.4548 118.01 12.8348 118.01C11.7048 118.01 11.0898 118.84 10.9898 120.5H14.6948V120.41ZM23.1422 123.155C23.1422 123.475 23.1972 123.715 23.3072 123.875C23.4172 124.025 23.5822 124.14 23.8022 124.22L23.4872 125.18C23.0772 125.13 22.7472 125.015 22.4972 124.835C22.2472 124.655 22.0622 124.375 21.9422 123.995C21.4122 124.785 20.6272 125.18 19.5872 125.18C18.8072 125.18 18.1922 124.96 17.7422 124.52C17.2922 124.08 17.0672 123.505 17.0672 122.795C17.0672 121.955 17.3672 121.31 17.9672 120.86C18.5772 120.41 19.4372 120.185 20.5472 120.185H21.7622V119.6C21.7622 119.04 21.6272 118.64 21.3572 118.4C21.0872 118.16 20.6722 118.04 20.1122 118.04C19.5322 118.04 18.8222 118.18 17.9822 118.46L17.6372 117.455C18.6172 117.095 19.5272 116.915 20.3672 116.915C21.2972 116.915 21.9922 117.145 22.4522 117.605C22.9122 118.055 23.1422 118.7 23.1422 119.54V123.155ZM19.9022 124.145C20.6922 124.145 21.3122 123.735 21.7622 122.915V121.1H20.7272C19.2672 121.1 18.5372 121.64 18.5372 122.72C18.5372 123.19 18.6522 123.545 18.8822 123.785C19.1122 124.025 19.4522 124.145 19.9022 124.145ZM29.6664 124.64C29.1464 125 28.5564 125.18 27.8964 125.18C27.2264 125.18 26.7014 124.99 26.3214 124.61C25.9514 124.22 25.7664 123.66 25.7664 122.93V118.16H24.3864V117.095H25.7664V115.31L27.1464 115.145V117.095H29.0214L28.8714 118.16H27.1464V122.87C27.1464 123.28 27.2164 123.58 27.3564 123.77C27.5064 123.95 27.7514 124.04 28.0914 124.04C28.4014 124.04 28.7514 123.935 29.1414 123.725L29.6664 124.64ZM34.5163 116.915C35.2363 116.915 35.7963 117.13 36.1963 117.56C36.6063 117.99 36.8113 118.58 36.8113 119.33V125H35.4313V119.525C35.4313 118.965 35.3213 118.57 35.1013 118.34C34.8913 118.11 34.5813 117.995 34.1713 117.995C33.7613 117.995 33.3963 118.115 33.0763 118.355C32.7563 118.595 32.4563 118.935 32.1763 119.375V125H30.7963V113.93L32.1763 113.78V118.19C32.7963 117.34 33.5763 116.915 34.5163 116.915Z" fill="#2A2921"/>
</svg>
