<svg width="169" height="136" viewBox="0 0 169 136" fill="none" xmlns="http://www.w3.org/2000/svg">
<path d="M14.4629 29H10.6152L4.4043 18.1992H4.31641C4.4401 20.1068 4.50195 21.4674 4.50195 22.2812V29H1.79688V14.7227H5.61523L11.8164 25.416H11.8848C11.7871 23.5605 11.7383 22.2487 11.7383 21.4805V14.7227H14.4629V29ZM25.1664 29L24.766 27.6035H24.6098C24.2908 28.1113 23.8383 28.5052 23.2523 28.7852C22.6664 29.0586 21.9991 29.1953 21.2504 29.1953C19.9678 29.1953 19.001 28.8535 18.35 28.1699C17.699 27.4798 17.3734 26.4902 17.3734 25.2012V18.082H20.352V24.459C20.352 25.2467 20.4919 25.8392 20.7719 26.2363C21.0518 26.627 21.4978 26.8223 22.1098 26.8223C22.9431 26.8223 23.5453 26.5456 23.9164 25.9922C24.2875 25.4323 24.473 24.5078 24.473 23.2188V18.082H27.4516V29H25.1664ZM36.2703 17.877C36.674 17.877 37.0092 17.9062 37.2762 17.9648L37.0516 20.7578C36.8107 20.6927 36.5177 20.6602 36.1727 20.6602C35.2221 20.6602 34.4799 20.9043 33.9461 21.3926C33.4188 21.8809 33.1551 22.5645 33.1551 23.4434V29H30.1766V18.082H32.4324L32.8719 19.918H33.0184C33.3569 19.306 33.8126 18.8145 34.3855 18.4434C34.965 18.0658 35.5932 17.877 36.2703 17.877ZM46.4758 25.7578C46.4758 26.8776 46.0852 27.7305 45.3039 28.3164C44.5292 28.9023 43.3671 29.1953 41.8176 29.1953C41.0233 29.1953 40.3462 29.14 39.7863 29.0293C39.2264 28.9251 38.7023 28.7689 38.2141 28.5605V26.0996C38.7674 26.36 39.3892 26.5781 40.0793 26.7539C40.7759 26.9297 41.3879 27.0176 41.9152 27.0176C42.996 27.0176 43.5363 26.7051 43.5363 26.0801C43.5363 25.8457 43.4647 25.6569 43.3215 25.5137C43.1783 25.3639 42.9309 25.1979 42.5793 25.0156C42.2277 24.8268 41.759 24.6087 41.173 24.3613C40.3332 24.0098 39.7147 23.6842 39.3176 23.3848C38.927 23.0853 38.6405 22.7435 38.4582 22.3594C38.2824 21.9688 38.1945 21.4902 38.1945 20.9238C38.1945 19.9538 38.5689 19.2051 39.3176 18.6777C40.0728 18.1439 41.1405 17.877 42.5207 17.877C43.8358 17.877 45.1151 18.1634 46.3586 18.7363L45.4602 20.8848C44.9133 20.6504 44.4022 20.4583 43.927 20.3086C43.4517 20.1589 42.9667 20.084 42.4719 20.084C41.593 20.084 41.1535 20.3216 41.1535 20.7969C41.1535 21.0638 41.2935 21.2949 41.5734 21.4902C41.8599 21.6855 42.4816 21.9753 43.4387 22.3594C44.2915 22.7044 44.9165 23.0267 45.3137 23.3262C45.7108 23.6257 46.0038 23.9707 46.1926 24.3613C46.3814 24.752 46.4758 25.2174 46.4758 25.7578ZM52.9215 19.9961C52.29 19.9961 51.7952 20.1979 51.4371 20.6016C51.079 20.9987 50.874 21.5651 50.8219 22.3008H55.0016C54.9885 21.5651 54.7965 20.9987 54.4254 20.6016C54.0543 20.1979 53.553 19.9961 52.9215 19.9961ZM53.3414 29.1953C51.5836 29.1953 50.2099 28.7103 49.2203 27.7402C48.2307 26.7702 47.7359 25.3965 47.7359 23.6191C47.7359 21.7897 48.1917 20.377 49.1031 19.3809C50.0211 18.3783 51.2874 17.877 52.902 17.877C54.4449 17.877 55.6461 18.3164 56.5055 19.1953C57.3648 20.0742 57.7945 21.2884 57.7945 22.8379V24.2832H50.7535C50.7861 25.1296 51.0367 25.7904 51.5055 26.2656C51.9742 26.7409 52.6318 26.9785 53.4781 26.9785C54.1357 26.9785 54.7574 26.9102 55.3434 26.7734C55.9293 26.6367 56.5413 26.4186 57.1793 26.1191V28.4238C56.6585 28.6842 56.1018 28.8763 55.5094 29C54.9169 29.1302 54.1943 29.1953 53.3414 29.1953ZM65.9102 17.877C66.3138 17.877 66.6491 17.9062 66.916 17.9648L66.6914 20.7578C66.4505 20.6927 66.1576 20.6602 65.8125 20.6602C64.862 20.6602 64.1198 20.9043 63.5859 21.3926C63.0586 21.8809 62.7949 22.5645 62.7949 23.4434V29H59.8164V18.082H62.0723L62.5117 19.918H62.6582C62.9967 19.306 63.4525 18.8145 64.0254 18.4434C64.6048 18.0658 65.2331 17.877 65.9102 17.877ZM66.9359 18.082H70.1977L72.2582 24.2246C72.434 24.7585 72.5544 25.39 72.6195 26.1191H72.6781C72.7497 25.4486 72.8897 24.8171 73.098 24.2246L75.1195 18.082H78.3129L73.6937 30.3965C73.2706 31.5358 72.6651 32.3887 71.8773 32.9551C71.0961 33.5215 70.1814 33.8047 69.1332 33.8047C68.6189 33.8047 68.1143 33.7493 67.6195 33.6387V31.2754C67.9776 31.36 68.3682 31.4023 68.7914 31.4023C69.3187 31.4023 69.7777 31.2396 70.1684 30.9141C70.5655 30.5951 70.8747 30.11 71.0961 29.459L71.2719 28.9219L66.9359 18.082ZM87.5422 21.0605H88.5188C89.4758 21.0605 90.1822 20.901 90.6379 20.582C91.0936 20.263 91.3215 19.7617 91.3215 19.0781C91.3215 18.401 91.0871 17.9193 90.6184 17.6328C90.1561 17.3464 89.4367 17.2031 88.4602 17.2031H87.5422V21.0605ZM87.5422 23.5215V29H84.5148V14.7227H88.675C90.6151 14.7227 92.0507 15.0775 92.9816 15.7871C93.9126 16.4902 94.3781 17.5612 94.3781 19C94.3781 19.8398 94.147 20.5885 93.6848 21.2461C93.2225 21.8971 92.5682 22.4082 91.7219 22.7793C93.8703 25.9889 95.2701 28.0625 95.9211 29H92.5617L89.1535 23.5215H87.5422ZM107.162 29H104.183V22.623C104.183 21.0475 103.597 20.2598 102.425 20.2598C101.592 20.2598 100.99 20.543 100.619 21.1094C100.248 21.6758 100.062 22.5938 100.062 23.8633V29H97.0836V13.8047H100.062V16.9004C100.062 17.1413 100.039 17.7077 99.9938 18.5996L99.9254 19.4785H100.082C100.746 18.4108 101.8 17.877 103.246 17.877C104.528 17.877 105.502 18.222 106.166 18.9121C106.83 19.6022 107.162 20.5918 107.162 21.8809V29ZM108.266 18.082H111.527L113.588 24.2246C113.764 24.7585 113.884 25.39 113.949 26.1191H114.008C114.079 25.4486 114.219 24.8171 114.428 24.2246L116.449 18.082H119.643L115.023 30.3965C114.6 31.5358 113.995 32.3887 113.207 32.9551C112.426 33.5215 111.511 33.8047 110.463 33.8047C109.949 33.8047 109.444 33.7493 108.949 33.6387V31.2754C109.307 31.36 109.698 31.4023 110.121 31.4023C110.648 31.4023 111.107 31.2396 111.498 30.9141C111.895 30.5951 112.204 30.11 112.426 29.459L112.602 28.9219L108.266 18.082ZM130.59 29H127.612V22.623C127.612 21.8353 127.478 21.2461 127.211 20.8555C126.951 20.4583 126.537 20.2598 125.971 20.2598C125.209 20.2598 124.656 20.5397 124.311 21.0996C123.966 21.6595 123.793 22.5807 123.793 23.8633V29H120.815V18.082H123.09L123.491 19.4785H123.657C123.95 18.9772 124.373 18.5866 124.926 18.3066C125.48 18.0202 126.114 17.877 126.83 17.877C128.465 17.877 129.571 18.4108 130.151 19.4785H130.414C130.707 18.9707 131.137 18.5768 131.704 18.2969C132.276 18.0169 132.921 17.877 133.637 17.877C134.874 17.877 135.808 18.196 136.44 18.834C137.078 19.4655 137.397 20.4811 137.397 21.8809V29H134.409V22.623C134.409 21.8353 134.275 21.2461 134.008 20.8555C133.748 20.4583 133.334 20.2598 132.768 20.2598C132.039 20.2598 131.492 20.5202 131.127 21.041C130.769 21.5618 130.59 22.3887 130.59 23.5215V29ZM144.585 19.9961C143.953 19.9961 143.458 20.1979 143.1 20.6016C142.742 20.9987 142.537 21.5651 142.485 22.3008H146.665C146.652 21.5651 146.46 20.9987 146.089 20.6016C145.718 20.1979 145.216 19.9961 144.585 19.9961ZM145.005 29.1953C143.247 29.1953 141.873 28.7103 140.884 27.7402C139.894 26.7702 139.399 25.3965 139.399 23.6191C139.399 21.7897 139.855 20.377 140.766 19.3809C141.684 18.3783 142.951 17.877 144.565 17.877C146.108 17.877 147.309 18.3164 148.169 19.1953C149.028 20.0742 149.458 21.2884 149.458 22.8379V24.2832H142.417C142.449 25.1296 142.7 25.7904 143.169 26.2656C143.637 26.7409 144.295 26.9785 145.141 26.9785C145.799 26.9785 146.421 26.9102 147.007 26.7734C147.593 26.6367 148.205 26.4186 148.843 26.1191V28.4238C148.322 28.6842 147.765 28.8763 147.173 29C146.58 29.1302 145.858 29.1953 145.005 29.1953ZM159.097 25.7578C159.097 26.8776 158.706 27.7305 157.925 28.3164C157.15 28.9023 155.988 29.1953 154.439 29.1953C153.644 29.1953 152.967 29.14 152.407 29.0293C151.848 28.9251 151.323 28.7689 150.835 28.5605V26.0996C151.389 26.36 152.01 26.5781 152.7 26.7539C153.397 26.9297 154.009 27.0176 154.536 27.0176C155.617 27.0176 156.157 26.7051 156.157 26.0801C156.157 25.8457 156.086 25.6569 155.943 25.5137C155.799 25.3639 155.552 25.1979 155.2 25.0156C154.849 24.8268 154.38 24.6087 153.794 24.3613C152.954 24.0098 152.336 23.6842 151.939 23.3848C151.548 23.0853 151.262 22.7435 151.079 22.3594C150.904 21.9688 150.816 21.4902 150.816 20.9238C150.816 19.9538 151.19 19.2051 151.939 18.6777C152.694 18.1439 153.762 17.877 155.142 17.877C156.457 17.877 157.736 18.1634 158.98 18.7363L158.081 20.8848C157.534 20.6504 157.023 20.4583 156.548 20.3086C156.073 20.1589 155.588 20.084 155.093 20.084C154.214 20.084 153.775 20.3216 153.775 20.7969C153.775 21.0638 153.915 21.2949 154.195 21.4902C154.481 21.6855 155.103 21.9753 156.06 22.3594C156.913 22.7044 157.538 23.0267 157.935 23.3262C158.332 23.6257 158.625 23.9707 158.814 24.3613C159.002 24.752 159.097 25.2174 159.097 25.7578Z" fill="#2A2921"/>
<path d="M10.665 55.48C10.665 56.35 10.53 57.17 10.26 57.94C10 58.7 9.635 59.335 9.165 59.845C8.355 60.715 7.2 61.15 5.7 61.15C4.17 61.15 3.015 60.73 2.235 59.89C1.775 59.41 1.42 58.81 1.17 58.09C0.92 57.36 0.795 56.57 0.795 55.72C0.795 54.85 0.925 54.035 1.185 53.275C1.455 52.505 1.825 51.865 2.295 51.355C3.105 50.485 4.25 50.05 5.73 50.05C7.24 50.05 8.4 50.47 9.21 51.31C9.68 51.79 10.04 52.395 10.29 53.125C10.54 53.855 10.665 54.64 10.665 55.48ZM2.52 55.42C2.52 57.12 2.79 58.385 3.33 59.215C3.83 59.955 4.645 60.325 5.775 60.325C6.835 60.325 7.615 59.995 8.115 59.335C8.665 58.585 8.94 57.37 8.94 55.69C8.94 54 8.665 52.76 8.115 51.97C7.595 51.23 6.785 50.86 5.685 50.86C4.635 50.86 3.855 51.19 3.345 51.85C2.795 52.58 2.52 53.77 2.52 55.42ZM12.8501 60.1V53.8L11.6951 53.515V52.9H13.8551L14.1851 54.4H14.2451C14.5451 53.89 14.9501 53.49 15.4601 53.2C15.9701 52.9 16.5151 52.75 17.0951 52.75C17.9251 52.75 18.5401 53.02 18.9401 53.56C19.1401 53.84 19.2801 54.235 19.3601 54.745C19.4501 55.245 19.4951 55.925 19.4951 56.785V60.1L20.6501 60.385V61H17.0351V60.385L18.0401 60.1V56.755C18.0401 56.105 18.0201 55.62 17.9801 55.3C17.9501 54.98 17.8901 54.73 17.8001 54.55C17.5601 54.06 17.1201 53.815 16.4801 53.815C15.9001 53.815 15.4001 54 14.9801 54.37C14.5701 54.74 14.3451 55.315 14.3051 56.095V60.1L15.3101 60.385V61H11.6951V60.385L12.8501 60.1ZM28.1392 57.04H22.9042C22.9042 57.77 23.0042 58.375 23.2042 58.855C23.4042 59.315 23.6892 59.645 24.0592 59.845C24.4292 60.045 24.8292 60.145 25.2592 60.145C25.7292 60.145 26.1592 60.05 26.5492 59.86C26.9392 59.66 27.2892 59.39 27.5992 59.05L28.0792 59.41C27.7292 59.89 27.3042 60.3 26.8042 60.64C26.3042 60.98 25.6592 61.15 24.8692 61.15C24.1792 61.15 23.5692 61.005 23.0392 60.715C22.5092 60.415 22.1042 59.98 21.8242 59.41C21.6742 59.1 21.5642 58.755 21.4942 58.375C21.4242 57.995 21.3892 57.59 21.3892 57.16C21.3892 55.76 21.7092 54.675 22.3492 53.905C22.9992 53.135 23.8792 52.75 24.9892 52.75C26.0092 52.75 26.7942 53.07 27.3442 53.71C27.9042 54.34 28.1842 55.215 28.1842 56.335C28.1842 56.435 28.1792 56.53 28.1692 56.62C28.1692 56.7 28.1592 56.84 28.1392 57.04ZM24.8992 53.56C23.6992 53.56 23.0392 54.475 22.9192 56.305H26.6692V55.81C26.6692 55.09 26.5142 54.535 26.2042 54.145C25.9042 53.755 25.4692 53.56 24.8992 53.56ZM32.322 53.65V53.11L33.777 52.9V52.75C33.777 51.6 34.027 50.715 34.527 50.095C35.027 49.465 35.702 49.15 36.552 49.15C37.142 49.15 37.612 49.295 37.962 49.585C38.322 49.865 38.502 50.225 38.502 50.665C38.502 50.945 38.432 51.16 38.292 51.31C38.152 51.45 37.962 51.52 37.722 51.52C37.492 51.52 37.307 51.455 37.167 51.325C37.027 51.195 36.957 51.01 36.957 50.77C36.957 50.51 37.037 50.25 37.197 49.99C37.027 49.81 36.797 49.72 36.507 49.72C36.277 49.72 36.077 49.77 35.907 49.87C35.687 50 35.527 50.185 35.427 50.425C35.337 50.665 35.282 50.935 35.262 51.235C35.242 51.525 35.232 51.83 35.232 52.15V52.9H37.152V53.65H35.232V60.1L36.852 60.385V61H32.622V60.385L33.777 60.1V53.65H32.322ZM45.1093 56.875C45.1093 57.525 45.0093 58.145 44.8093 58.735C44.6193 59.315 44.3493 59.795 43.9993 60.175C43.4093 60.825 42.5393 61.15 41.3893 61.15C40.8393 61.15 40.3493 61.075 39.9193 60.925C39.4893 60.765 39.1243 60.525 38.8243 60.205C38.4843 59.835 38.2193 59.38 38.0293 58.84C37.8493 58.29 37.7593 57.695 37.7593 57.055C37.7593 56.405 37.8543 55.785 38.0443 55.195C38.2343 54.595 38.5093 54.105 38.8693 53.725C39.1893 53.385 39.5593 53.14 39.9793 52.99C40.4093 52.83 40.8993 52.75 41.4493 52.75C41.9993 52.75 42.4943 52.83 42.9343 52.99C43.3743 53.14 43.7443 53.375 44.0443 53.695C44.3943 54.065 44.6593 54.53 44.8393 55.09C45.0193 55.64 45.1093 56.235 45.1093 56.875ZM39.3643 56.89C39.3643 57.5 39.4093 58.03 39.4993 58.48C39.5993 58.92 39.7343 59.285 39.9043 59.575C40.0743 59.825 40.2743 60.02 40.5043 60.16C40.7443 60.3 41.0543 60.37 41.4343 60.37C42.1243 60.37 42.6393 60.135 42.9793 59.665C43.1593 59.405 43.2893 59.045 43.3693 58.585C43.4593 58.125 43.5043 57.595 43.5043 56.995C43.5043 56.395 43.4543 55.87 43.3543 55.42C43.2643 54.97 43.1343 54.605 42.9643 54.325C42.8043 54.065 42.5993 53.87 42.3493 53.74C42.1093 53.6 41.7993 53.53 41.4193 53.53C40.7193 53.53 40.2143 53.76 39.9043 54.22C39.5443 54.78 39.3643 55.67 39.3643 56.89ZM50.5548 53.77C50.4648 53.71 50.3648 53.68 50.2548 53.68C50.0648 53.68 49.8648 53.8 49.6548 54.04C49.4448 54.27 49.2598 54.565 49.0998 54.925C48.7998 55.635 48.6498 56.425 48.6498 57.295V60.1L50.2698 60.385V61H46.0398V60.385L47.1948 60.1V53.8L46.0398 53.515V52.9H48.1998L48.5298 54.88H48.5898C48.8198 54.2 49.1298 53.675 49.5198 53.305C49.9098 52.935 50.3398 52.75 50.8098 52.75C51.1998 52.75 51.5248 52.875 51.7848 53.125C52.0448 53.365 52.1748 53.69 52.1748 54.1C52.1748 54.4 52.0948 54.64 51.9348 54.82C51.7848 54.99 51.5798 55.075 51.3198 55.075C51.0598 55.075 50.8548 54.995 50.7048 54.835C50.5548 54.665 50.4798 54.445 50.4798 54.175C50.4798 54.075 50.5048 53.94 50.5548 53.77ZM58.9016 60.46C59.4616 60.46 59.9166 60.345 60.2666 60.115C60.6266 59.885 60.8066 59.565 60.8066 59.155C60.8066 58.825 60.6966 58.56 60.4766 58.36C60.2566 58.16 59.9816 58 59.6516 57.88C59.3316 57.75 59.0066 57.64 58.6766 57.55C58.2666 57.42 57.8716 57.27 57.4916 57.1C57.1116 56.92 56.8016 56.675 56.5616 56.365C56.3216 56.055 56.2016 55.645 56.2016 55.135C56.2016 54.415 56.4616 53.84 56.9816 53.41C57.5116 52.97 58.2466 52.75 59.1866 52.75C59.9866 52.75 60.6166 52.92 61.0766 53.26C61.5466 53.59 61.7816 54.045 61.7816 54.625C61.7816 54.935 61.7116 55.185 61.5716 55.375C61.4316 55.555 61.2316 55.645 60.9716 55.645C60.7416 55.645 60.5516 55.575 60.4016 55.435C60.2516 55.295 60.1766 55.115 60.1766 54.895C60.1766 54.705 60.2266 54.535 60.3266 54.385C60.4266 54.225 60.5566 54.11 60.7166 54.04C60.4266 53.64 59.9316 53.44 59.2316 53.44C58.0316 53.44 57.4316 53.865 57.4316 54.715C57.4316 55.015 57.5016 55.255 57.6416 55.435C57.7916 55.605 58.0066 55.75 58.2866 55.87C58.5666 55.99 58.9116 56.115 59.3216 56.245C59.7716 56.385 60.2116 56.545 60.6416 56.725C61.0716 56.905 61.4216 57.15 61.6916 57.46C61.9716 57.76 62.1116 58.18 62.1116 58.72C62.1116 59.23 61.9716 59.67 61.6916 60.04C61.4116 60.4 61.0266 60.675 60.5366 60.865C60.0466 61.055 59.4816 61.15 58.8416 61.15C57.9616 61.15 57.2516 60.97 56.7116 60.61C56.1716 60.25 55.9016 59.765 55.9016 59.155C55.9016 58.835 55.9716 58.585 56.1116 58.405C56.2616 58.215 56.4716 58.12 56.7416 58.12C56.9816 58.12 57.1816 58.19 57.3416 58.33C57.5116 58.47 57.5966 58.655 57.5966 58.885C57.5966 59.075 57.5416 59.255 57.4316 59.425C57.3316 59.595 57.2066 59.72 57.0566 59.8C57.1866 59.99 57.4166 60.15 57.7466 60.28C58.0866 60.4 58.4716 60.46 58.9016 60.46ZM70.5255 56.875C70.5255 57.525 70.4255 58.145 70.2255 58.735C70.0355 59.315 69.7655 59.795 69.4155 60.175C68.8255 60.825 67.9555 61.15 66.8055 61.15C66.2555 61.15 65.7655 61.075 65.3355 60.925C64.9055 60.765 64.5405 60.525 64.2405 60.205C63.9005 59.835 63.6355 59.38 63.4455 58.84C63.2655 58.29 63.1755 57.695 63.1755 57.055C63.1755 56.405 63.2705 55.785 63.4605 55.195C63.6505 54.595 63.9255 54.105 64.2855 53.725C64.6055 53.385 64.9755 53.14 65.3955 52.99C65.8255 52.83 66.3155 52.75 66.8655 52.75C67.4155 52.75 67.9105 52.83 68.3505 52.99C68.7905 53.14 69.1605 53.375 69.4605 53.695C69.8105 54.065 70.0755 54.53 70.2555 55.09C70.4355 55.64 70.5255 56.235 70.5255 56.875ZM64.7805 56.89C64.7805 57.5 64.8255 58.03 64.9155 58.48C65.0155 58.92 65.1505 59.285 65.3205 59.575C65.4905 59.825 65.6905 60.02 65.9205 60.16C66.1605 60.3 66.4705 60.37 66.8505 60.37C67.5405 60.37 68.0555 60.135 68.3955 59.665C68.5755 59.405 68.7055 59.045 68.7855 58.585C68.8755 58.125 68.9205 57.595 68.9205 56.995C68.9205 56.395 68.8705 55.87 68.7705 55.42C68.6805 54.97 68.5505 54.605 68.3805 54.325C68.2205 54.065 68.0155 53.87 67.7655 53.74C67.5255 53.6 67.2155 53.53 66.8355 53.53C66.1355 53.53 65.6305 53.76 65.3205 54.22C64.9605 54.78 64.7805 55.67 64.7805 56.89ZM75.971 53.77C75.881 53.71 75.781 53.68 75.671 53.68C75.481 53.68 75.281 53.8 75.071 54.04C74.861 54.27 74.676 54.565 74.516 54.925C74.216 55.635 74.066 56.425 74.066 57.295V60.1L75.686 60.385V61H71.456V60.385L72.611 60.1V53.8L71.456 53.515V52.9H73.616L73.946 54.88H74.006C74.236 54.2 74.546 53.675 74.936 53.305C75.326 52.935 75.756 52.75 76.226 52.75C76.616 52.75 76.941 52.875 77.201 53.125C77.461 53.365 77.591 53.69 77.591 54.1C77.591 54.4 77.511 54.64 77.351 54.82C77.201 54.99 76.996 55.075 76.736 55.075C76.476 55.075 76.271 54.995 76.121 54.835C75.971 54.665 75.896 54.445 75.896 54.175C75.896 54.075 75.921 53.94 75.971 53.77ZM82.5411 53.77C82.4511 53.71 82.3511 53.68 82.2411 53.68C82.0511 53.68 81.8511 53.8 81.6411 54.04C81.4311 54.27 81.2461 54.565 81.0861 54.925C80.7861 55.635 80.6361 56.425 80.6361 57.295V60.1L82.2561 60.385V61H78.0261V60.385L79.1811 60.1V53.8L78.0261 53.515V52.9H80.1861L80.5161 54.88H80.5761C80.8061 54.2 81.1161 53.675 81.5061 53.305C81.8961 52.935 82.3261 52.75 82.7961 52.75C83.1861 52.75 83.5111 52.875 83.7711 53.125C84.0311 53.365 84.1611 53.69 84.1611 54.1C84.1611 54.4 84.0811 54.64 83.9211 54.82C83.7711 54.99 83.5661 55.075 83.3061 55.075C83.0461 55.075 82.8411 54.995 82.6911 54.835C82.5411 54.665 82.4661 54.445 82.4661 54.175C82.4661 54.075 82.4911 53.94 82.5411 53.77ZM92.023 56.875C92.023 57.525 91.923 58.145 91.723 58.735C91.533 59.315 91.263 59.795 90.913 60.175C90.323 60.825 89.453 61.15 88.303 61.15C87.753 61.15 87.263 61.075 86.833 60.925C86.403 60.765 86.038 60.525 85.738 60.205C85.398 59.835 85.133 59.38 84.943 58.84C84.763 58.29 84.673 57.695 84.673 57.055C84.673 56.405 84.768 55.785 84.958 55.195C85.148 54.595 85.423 54.105 85.783 53.725C86.103 53.385 86.473 53.14 86.893 52.99C87.323 52.83 87.813 52.75 88.363 52.75C88.913 52.75 89.408 52.83 89.848 52.99C90.288 53.14 90.658 53.375 90.958 53.695C91.308 54.065 91.573 54.53 91.753 55.09C91.933 55.64 92.023 56.235 92.023 56.875ZM86.278 56.89C86.278 57.5 86.323 58.03 86.413 58.48C86.513 58.92 86.648 59.285 86.818 59.575C86.988 59.825 87.188 60.02 87.418 60.16C87.658 60.3 87.968 60.37 88.348 60.37C89.038 60.37 89.553 60.135 89.893 59.665C90.073 59.405 90.203 59.045 90.283 58.585C90.373 58.125 90.418 57.595 90.418 56.995C90.418 56.395 90.368 55.87 90.268 55.42C90.178 54.97 90.048 54.605 89.878 54.325C89.718 54.065 89.513 53.87 89.263 53.74C89.023 53.6 88.713 53.53 88.333 53.53C87.633 53.53 87.128 53.76 86.818 54.22C86.458 54.78 86.278 55.67 86.278 56.89ZM94.743 53.8L96.288 59.2L96.468 60.085H96.543L96.723 59.2L98.478 52.75H99.558L101.373 59.2L101.553 60.085H101.613L101.793 59.2L103.293 53.8L102.318 53.515V52.9H105.168V53.515L104.358 53.8L102.123 61.15H100.578L98.793 55.3L97.053 61.15H95.508L93.213 53.8L92.418 53.515V52.9H95.778V53.515L94.743 53.8ZM106.262 59.23C106.582 59.23 106.832 59.345 107.012 59.575C107.202 59.795 107.297 60.095 107.297 60.475C107.297 61.015 107.147 61.505 106.847 61.945C106.547 62.395 106.077 62.825 105.437 63.235L105.107 62.86C105.987 62.15 106.452 61.545 106.502 61.045L106.442 61C106.392 61.09 106.267 61.135 106.067 61.135C105.847 61.135 105.662 61.05 105.512 60.88C105.362 60.7 105.287 60.475 105.287 60.205C105.287 59.915 105.377 59.68 105.557 59.5C105.737 59.32 105.972 59.23 106.262 59.23ZM111.446 50.2H120.386V53.35H119.606L119.126 51.1H116.666V59.995L118.256 60.355V61H113.576V60.355L115.166 59.995V51.1H112.691L112.226 53.35H111.446V50.2ZM123.074 53.8L124.619 59.2L124.799 60.085H124.874L125.054 59.2L126.809 52.75H127.889L129.704 59.2L129.884 60.085H129.944L130.124 59.2L131.624 53.8L130.649 53.515V52.9H133.499V53.515L132.689 53.8L130.454 61.15H128.909L127.124 55.3L125.384 61.15H123.839L121.544 53.8L120.749 53.515V52.9H124.109V53.515L123.074 53.8ZM141.229 56.875C141.229 57.525 141.129 58.145 140.929 58.735C140.739 59.315 140.469 59.795 140.119 60.175C139.529 60.825 138.659 61.15 137.509 61.15C136.959 61.15 136.469 61.075 136.039 60.925C135.609 60.765 135.244 60.525 134.944 60.205C134.604 59.835 134.339 59.38 134.149 58.84C133.969 58.29 133.879 57.695 133.879 57.055C133.879 56.405 133.974 55.785 134.164 55.195C134.354 54.595 134.629 54.105 134.989 53.725C135.309 53.385 135.679 53.14 136.099 52.99C136.529 52.83 137.019 52.75 137.569 52.75C138.119 52.75 138.614 52.83 139.054 52.99C139.494 53.14 139.864 53.375 140.164 53.695C140.514 54.065 140.779 54.53 140.959 55.09C141.139 55.64 141.229 56.235 141.229 56.875ZM135.484 56.89C135.484 57.5 135.529 58.03 135.619 58.48C135.719 58.92 135.854 59.285 136.024 59.575C136.194 59.825 136.394 60.02 136.624 60.16C136.864 60.3 137.174 60.37 137.554 60.37C138.244 60.37 138.759 60.135 139.099 59.665C139.279 59.405 139.409 59.045 139.489 58.585C139.579 58.125 139.624 57.595 139.624 56.995C139.624 56.395 139.574 55.87 139.474 55.42C139.384 54.97 139.254 54.605 139.084 54.325C138.924 54.065 138.719 53.87 138.469 53.74C138.229 53.6 137.919 53.53 137.539 53.53C136.839 53.53 136.334 53.76 136.024 54.22C135.664 54.78 135.484 55.67 135.484 56.89ZM145.398 53.65V53.11L146.853 52.9V52.75C146.853 51.6 147.103 50.715 147.603 50.095C148.103 49.465 148.778 49.15 149.628 49.15C150.218 49.15 150.688 49.295 151.038 49.585C151.398 49.865 151.578 50.225 151.578 50.665C151.578 50.945 151.508 51.16 151.368 51.31C151.228 51.45 151.038 51.52 150.798 51.52C150.568 51.52 150.383 51.455 150.243 51.325C150.103 51.195 150.033 51.01 150.033 50.77C150.033 50.51 150.113 50.25 150.273 49.99C150.103 49.81 149.873 49.72 149.583 49.72C149.353 49.72 149.153 49.77 148.983 49.87C148.763 50 148.603 50.185 148.503 50.425C148.413 50.665 148.358 50.935 148.338 51.235C148.318 51.525 148.308 51.83 148.308 52.15V52.9H150.228V53.65H148.308V60.1L149.928 60.385V61H145.698V60.385L146.853 60.1V53.65H145.398ZM158.185 56.875C158.185 57.525 158.085 58.145 157.885 58.735C157.695 59.315 157.425 59.795 157.075 60.175C156.485 60.825 155.615 61.15 154.465 61.15C153.915 61.15 153.425 61.075 152.995 60.925C152.565 60.765 152.2 60.525 151.9 60.205C151.56 59.835 151.295 59.38 151.105 58.84C150.925 58.29 150.835 57.695 150.835 57.055C150.835 56.405 150.93 55.785 151.12 55.195C151.31 54.595 151.585 54.105 151.945 53.725C152.265 53.385 152.635 53.14 153.055 52.99C153.485 52.83 153.975 52.75 154.525 52.75C155.075 52.75 155.57 52.83 156.01 52.99C156.45 53.14 156.82 53.375 157.12 53.695C157.47 54.065 157.735 54.53 157.915 55.09C158.095 55.64 158.185 56.235 158.185 56.875ZM152.44 56.89C152.44 57.5 152.485 58.03 152.575 58.48C152.675 58.92 152.81 59.285 152.98 59.575C153.15 59.825 153.35 60.02 153.58 60.16C153.82 60.3 154.13 60.37 154.51 60.37C155.2 60.37 155.715 60.135 156.055 59.665C156.235 59.405 156.365 59.045 156.445 58.585C156.535 58.125 156.58 57.595 156.58 56.995C156.58 56.395 156.53 55.87 156.43 55.42C156.34 54.97 156.21 54.605 156.04 54.325C155.88 54.065 155.675 53.87 155.425 53.74C155.185 53.6 154.875 53.53 154.495 53.53C153.795 53.53 153.29 53.76 152.98 54.22C152.62 54.78 152.44 55.67 152.44 56.89ZM163.631 53.77C163.541 53.71 163.441 53.68 163.331 53.68C163.141 53.68 162.941 53.8 162.731 54.04C162.521 54.27 162.336 54.565 162.176 54.925C161.876 55.635 161.726 56.425 161.726 57.295V60.1L163.346 60.385V61H159.116V60.385L160.271 60.1V53.8L159.116 53.515V52.9H161.276L161.606 54.88H161.666C161.896 54.2 162.206 53.675 162.596 53.305C162.986 52.935 163.416 52.75 163.886 52.75C164.276 52.75 164.601 52.875 164.861 53.125C165.121 53.365 165.251 53.69 165.251 54.1C165.251 54.4 165.171 54.64 165.011 54.82C164.861 54.99 164.656 55.075 164.396 55.075C164.136 55.075 163.931 54.995 163.781 54.835C163.631 54.665 163.556 54.445 163.556 54.175C163.556 54.075 163.581 53.94 163.631 53.77ZM1.695 81.1V74.8L0.54 74.515V73.9H2.7L3.03 75.4H3.09C3.38 74.9 3.765 74.5 4.245 74.2C4.735 73.9 5.255 73.75 5.805 73.75C6.215 73.75 6.58 73.83 6.9 73.99C7.22 74.14 7.455 74.33 7.605 74.56C7.765 74.81 7.895 75.14 7.995 75.55C8.315 74.99 8.73 74.55 9.24 74.23C9.75 73.91 10.295 73.75 10.875 73.75C11.275 73.75 11.635 73.83 11.955 73.99C12.275 74.14 12.52 74.35 12.69 74.62C12.81 74.81 12.905 75.055 12.975 75.355C13.045 75.655 13.095 76.045 13.125 76.525C13.155 76.995 13.17 77.595 13.17 78.325V81.1L14.325 81.385V82H10.71V81.385L11.715 81.1V77.755C11.715 77.105 11.695 76.62 11.655 76.3C11.625 75.98 11.565 75.73 11.475 75.55C11.235 75.06 10.815 74.815 10.215 74.815C9.965 74.815 9.72 74.865 9.48 74.965C9.24 75.065 9.025 75.2 8.835 75.37C8.615 75.57 8.45 75.805 8.34 76.075C8.24 76.345 8.18 76.685 8.16 77.095V81.1L9.165 81.385V82H5.7V81.385L6.705 81.1V77.755C6.705 77.105 6.685 76.62 6.645 76.3C6.615 75.98 6.555 75.73 6.465 75.55C6.225 75.06 5.805 74.815 5.205 74.815C4.955 74.815 4.71 74.865 4.47 74.965C4.23 75.065 4.015 75.2 3.825 75.37C3.605 75.57 3.44 75.805 3.33 76.075C3.23 76.345 3.17 76.685 3.15 77.095V81.1L4.155 81.385V82H0.54V81.385L1.695 81.1ZM15.8041 71.485C15.8041 71.195 15.8891 70.965 16.0591 70.795C16.2291 70.625 16.4541 70.54 16.7341 70.54C17.0241 70.54 17.2541 70.625 17.4241 70.795C17.5941 70.965 17.6791 71.195 17.6791 71.485C17.6791 71.765 17.5941 71.99 17.4241 72.16C17.2541 72.33 17.0241 72.415 16.7341 72.415C16.4441 72.415 16.2141 72.335 16.0441 72.175C15.8841 72.005 15.8041 71.775 15.8041 71.485ZM16.0141 74.8L14.8591 74.515V73.9H17.4691V81.1L18.6241 81.385V82H14.8591V81.385L16.0141 81.1V74.8ZM23.747 74.77C23.657 74.71 23.557 74.68 23.447 74.68C23.257 74.68 23.057 74.8 22.847 75.04C22.637 75.27 22.452 75.565 22.292 75.925C21.992 76.635 21.842 77.425 21.842 78.295V81.1L23.462 81.385V82H19.232V81.385L20.387 81.1V74.8L19.232 74.515V73.9H21.392L21.722 75.88H21.782C22.012 75.2 22.322 74.675 22.712 74.305C23.102 73.935 23.532 73.75 24.002 73.75C24.392 73.75 24.717 73.875 24.977 74.125C25.237 74.365 25.367 74.69 25.367 75.1C25.367 75.4 25.287 75.64 25.127 75.82C24.977 75.99 24.772 76.075 24.512 76.075C24.252 76.075 24.047 75.995 23.897 75.835C23.747 75.665 23.672 75.445 23.672 75.175C23.672 75.075 23.697 74.94 23.747 74.77ZM25.3971 74.65V74.11L26.8521 73.9L27.0471 72.01L28.3071 71.83V73.9H30.2271V74.65H28.3071V80.005C28.3071 80.345 28.3121 80.58 28.3221 80.71C28.3321 80.83 28.3521 80.93 28.3821 81.01C28.4121 81.08 28.4671 81.13 28.5471 81.16C28.6271 81.18 28.7571 81.19 28.9371 81.19H29.9871V81.625C29.5071 81.805 29.0821 81.935 28.7121 82.015C28.3521 82.105 28.0621 82.15 27.8421 82.15C27.3921 82.15 27.1021 81.965 26.9721 81.595C26.9321 81.475 26.9021 81.32 26.8821 81.13C26.8621 80.94 26.8521 80.66 26.8521 80.29V74.65H25.3971ZM36.7944 81.1V77.755C36.7944 77.105 36.7744 76.62 36.7344 76.3C36.7044 75.98 36.6444 75.73 36.5544 75.55C36.3144 75.06 35.8744 74.815 35.2344 74.815C34.6544 74.815 34.1544 75 33.7344 75.37C33.3244 75.73 33.0994 76.285 33.0594 77.035V81.1L34.0644 81.385V82H30.4494V81.385L31.6044 81.1V71.2L30.4494 70.915V70.3H33.0594V75.31C33.3594 74.83 33.7544 74.45 34.2444 74.17C34.7444 73.89 35.2794 73.75 35.8494 73.75C36.6794 73.75 37.2944 74.02 37.6944 74.56C37.8944 74.84 38.0344 75.235 38.1144 75.745C38.2044 76.245 38.2494 76.925 38.2494 77.785V81.1L39.4044 81.385V82H35.7894V81.385L36.7944 81.1ZM41.2427 80.23C41.5627 80.23 41.8127 80.345 41.9927 80.575C42.1827 80.795 42.2777 81.095 42.2777 81.475C42.2777 82.015 42.1277 82.505 41.8277 82.945C41.5277 83.395 41.0577 83.825 40.4177 84.235L40.0877 83.86C40.9677 83.15 41.4327 82.545 41.4827 82.045L41.4227 82C41.3727 82.09 41.2477 82.135 41.0477 82.135C40.8277 82.135 40.6427 82.05 40.4927 81.88C40.3427 81.7 40.2677 81.475 40.2677 81.205C40.2677 80.915 40.3577 80.68 40.5377 80.5C40.7177 80.32 40.9527 80.23 41.2427 80.23ZM46.4265 71.2H55.3665V74.35H54.5865L54.1065 72.1H51.6465V80.995L53.2365 81.355V82H48.5565V81.355L50.1465 80.995V72.1H47.6715L47.2065 74.35H46.4265V71.2ZM62.1813 81.1V77.755C62.1813 77.105 62.1613 76.62 62.1213 76.3C62.0913 75.98 62.0313 75.73 61.9413 75.55C61.7013 75.06 61.2613 74.815 60.6213 74.815C60.0413 74.815 59.5413 75 59.1213 75.37C58.7113 75.73 58.4863 76.285 58.4463 77.035V81.1L59.4513 81.385V82H55.8363V81.385L56.9913 81.1V71.2L55.8363 70.915V70.3H58.4463V75.31C58.7463 74.83 59.1413 74.45 59.6313 74.17C60.1313 73.89 60.6663 73.75 61.2363 73.75C62.0663 73.75 62.6813 74.02 63.0813 74.56C63.2813 74.84 63.4213 75.235 63.5013 75.745C63.5913 76.245 63.6363 76.925 63.6363 77.785V81.1L64.7913 81.385V82H61.1763V81.385L62.1813 81.1ZM69.8697 74.77C69.7797 74.71 69.6797 74.68 69.5697 74.68C69.3797 74.68 69.1797 74.8 68.9697 75.04C68.7597 75.27 68.5747 75.565 68.4147 75.925C68.1147 76.635 67.9647 77.425 67.9647 78.295V81.1L69.5847 81.385V82H65.3547V81.385L66.5097 81.1V74.8L65.3547 74.515V73.9H67.5147L67.8447 75.88H67.9047C68.1347 75.2 68.4447 74.675 68.8347 74.305C69.2247 73.935 69.6547 73.75 70.1247 73.75C70.5147 73.75 70.8397 73.875 71.0997 74.125C71.3597 74.365 71.4897 74.69 71.4897 75.1C71.4897 75.4 71.4097 75.64 71.2497 75.82C71.0997 75.99 70.8947 76.075 70.6347 76.075C70.3747 76.075 70.1697 75.995 70.0197 75.835C69.8697 75.665 69.7947 75.445 69.7947 75.175C69.7947 75.075 69.8197 74.94 69.8697 74.77ZM78.7665 78.04H73.5315C73.5315 78.77 73.6315 79.375 73.8315 79.855C74.0315 80.315 74.3165 80.645 74.6865 80.845C75.0565 81.045 75.4565 81.145 75.8865 81.145C76.3565 81.145 76.7865 81.05 77.1765 80.86C77.5665 80.66 77.9165 80.39 78.2265 80.05L78.7065 80.41C78.3565 80.89 77.9315 81.3 77.4315 81.64C76.9315 81.98 76.2865 82.15 75.4965 82.15C74.8065 82.15 74.1965 82.005 73.6665 81.715C73.1365 81.415 72.7315 80.98 72.4515 80.41C72.3015 80.1 72.1915 79.755 72.1215 79.375C72.0515 78.995 72.0165 78.59 72.0165 78.16C72.0165 76.76 72.3365 75.675 72.9765 74.905C73.6265 74.135 74.5065 73.75 75.6165 73.75C76.6365 73.75 77.4215 74.07 77.9715 74.71C78.5315 75.34 78.8115 76.215 78.8115 77.335C78.8115 77.435 78.8065 77.53 78.7965 77.62C78.7965 77.7 78.7865 77.84 78.7665 78.04ZM75.5265 74.56C74.3265 74.56 73.6665 75.475 73.5465 77.305H77.2965V76.81C77.2965 76.09 77.1415 75.535 76.8315 75.145C76.5315 74.755 76.0965 74.56 75.5265 74.56ZM86.6257 78.04H81.3907C81.3907 78.77 81.4907 79.375 81.6907 79.855C81.8907 80.315 82.1757 80.645 82.5457 80.845C82.9157 81.045 83.3157 81.145 83.7457 81.145C84.2157 81.145 84.6457 81.05 85.0357 80.86C85.4257 80.66 85.7757 80.39 86.0857 80.05L86.5657 80.41C86.2157 80.89 85.7907 81.3 85.2907 81.64C84.7907 81.98 84.1457 82.15 83.3557 82.15C82.6657 82.15 82.0557 82.005 81.5257 81.715C80.9957 81.415 80.5907 80.98 80.3107 80.41C80.1607 80.1 80.0507 79.755 79.9807 79.375C79.9107 78.995 79.8757 78.59 79.8757 78.16C79.8757 76.76 80.1957 75.675 80.8357 74.905C81.4857 74.135 82.3657 73.75 83.4757 73.75C84.4957 73.75 85.2807 74.07 85.8307 74.71C86.3907 75.34 86.6707 76.215 86.6707 77.335C86.6707 77.435 86.6657 77.53 86.6557 77.62C86.6557 77.7 86.6457 77.84 86.6257 78.04ZM83.3857 74.56C82.1857 74.56 81.5257 75.475 81.4057 77.305H85.1557V76.81C85.1557 76.09 85.0007 75.535 84.6907 75.145C84.3907 74.755 83.9557 74.56 83.3857 74.56ZM90.8085 74.65V74.11L92.2635 73.9V73.75C92.2635 72.6 92.5135 71.715 93.0135 71.095C93.5135 70.465 94.1885 70.15 95.0385 70.15C95.6285 70.15 96.0985 70.295 96.4485 70.585C96.8085 70.865 96.9885 71.225 96.9885 71.665C96.9885 71.945 96.9185 72.16 96.7785 72.31C96.6385 72.45 96.4485 72.52 96.2085 72.52C95.9785 72.52 95.7935 72.455 95.6535 72.325C95.5135 72.195 95.4435 72.01 95.4435 71.77C95.4435 71.51 95.5235 71.25 95.6835 70.99C95.5135 70.81 95.2835 70.72 94.9935 70.72C94.7635 70.72 94.5635 70.77 94.3935 70.87C94.1735 71 94.0135 71.185 93.9135 71.425C93.8235 71.665 93.7685 71.935 93.7485 72.235C93.7285 72.525 93.7185 72.83 93.7185 73.15V73.9H95.6385V74.65H93.7185V81.1L95.3385 81.385V82H91.1085V81.385L92.2635 81.1V74.65H90.8085ZM103.596 77.875C103.596 78.525 103.496 79.145 103.296 79.735C103.106 80.315 102.836 80.795 102.486 81.175C101.896 81.825 101.026 82.15 99.8759 82.15C99.3259 82.15 98.8359 82.075 98.4059 81.925C97.9759 81.765 97.6109 81.525 97.3109 81.205C96.9709 80.835 96.7059 80.38 96.5159 79.84C96.3359 79.29 96.2459 78.695 96.2459 78.055C96.2459 77.405 96.3409 76.785 96.5309 76.195C96.7209 75.595 96.9959 75.105 97.3559 74.725C97.6759 74.385 98.0459 74.14 98.4659 73.99C98.8959 73.83 99.3859 73.75 99.9359 73.75C100.486 73.75 100.981 73.83 101.421 73.99C101.861 74.14 102.231 74.375 102.531 74.695C102.881 75.065 103.146 75.53 103.326 76.09C103.506 76.64 103.596 77.235 103.596 77.875ZM97.8509 77.89C97.8509 78.5 97.8959 79.03 97.9859 79.48C98.0859 79.92 98.2209 80.285 98.3909 80.575C98.5609 80.825 98.7609 81.02 98.9909 81.16C99.2309 81.3 99.5409 81.37 99.9209 81.37C100.611 81.37 101.126 81.135 101.466 80.665C101.646 80.405 101.776 80.045 101.856 79.585C101.946 79.125 101.991 78.595 101.991 77.995C101.991 77.395 101.941 76.87 101.841 76.42C101.751 75.97 101.621 75.605 101.451 75.325C101.291 75.065 101.086 74.87 100.836 74.74C100.596 74.6 100.286 74.53 99.9059 74.53C99.2059 74.53 98.7009 74.76 98.3909 75.22C98.0309 75.78 97.8509 76.67 97.8509 77.89ZM109.041 74.77C108.951 74.71 108.851 74.68 108.741 74.68C108.551 74.68 108.351 74.8 108.141 75.04C107.931 75.27 107.746 75.565 107.586 75.925C107.286 76.635 107.136 77.425 107.136 78.295V81.1L108.756 81.385V82H104.526V81.385L105.681 81.1V74.8L104.526 74.515V73.9H106.686L107.016 75.88H107.076C107.306 75.2 107.616 74.675 108.006 74.305C108.396 73.935 108.826 73.75 109.296 73.75C109.686 73.75 110.011 73.875 110.271 74.125C110.531 74.365 110.661 74.69 110.661 75.1C110.661 75.4 110.581 75.64 110.421 75.82C110.271 75.99 110.066 76.075 109.806 76.075C109.546 76.075 109.341 75.995 109.191 75.835C109.041 75.665 108.966 75.445 108.966 75.175C108.966 75.075 108.991 74.94 109.041 74.77ZM114.298 80.245C114.298 79.465 114.663 78.85 115.393 78.4C116.123 77.95 117.333 77.6 119.023 77.35C118.983 76.76 118.928 76.3 118.858 75.97C118.788 75.64 118.698 75.375 118.588 75.175C118.448 74.915 118.253 74.725 118.003 74.605C117.753 74.475 117.483 74.41 117.193 74.41C116.913 74.41 116.658 74.46 116.428 74.56C116.208 74.66 116.058 74.795 115.978 74.965C116.118 75.065 116.218 75.195 116.278 75.355C116.348 75.515 116.383 75.665 116.383 75.805C116.383 76.055 116.298 76.255 116.128 76.405C115.968 76.545 115.768 76.615 115.528 76.615C115.288 76.615 115.088 76.535 114.928 76.375C114.778 76.215 114.703 75.99 114.703 75.7C114.703 75.28 114.848 74.925 115.138 74.635C115.428 74.345 115.793 74.125 116.233 73.975C116.683 73.825 117.133 73.75 117.583 73.75C118.433 73.75 119.103 73.995 119.593 74.485C120.213 75.105 120.523 76.205 120.523 77.785V79.96C120.523 80.45 120.553 80.79 120.613 80.98C120.683 81.17 120.828 81.265 121.048 81.265H121.723V81.715C121.003 82.005 120.443 82.15 120.043 82.15C119.733 82.15 119.523 82.04 119.413 81.82C119.313 81.59 119.263 81.155 119.263 80.515H119.203C118.893 81.025 118.483 81.425 117.973 81.715C117.463 82.005 116.913 82.15 116.323 82.15C115.693 82.15 115.198 81.98 114.838 81.64C114.478 81.3 114.298 80.835 114.298 80.245ZM116.953 81.28C117.233 81.28 117.523 81.21 117.823 81.07C118.133 80.92 118.393 80.715 118.603 80.455C118.913 80.075 119.068 79.515 119.068 78.775C119.068 78.605 119.063 78.44 119.053 78.28C119.043 78.11 119.028 77.95 119.008 77.8C118.198 77.96 117.563 78.135 117.103 78.325C116.643 78.505 116.318 78.725 116.128 78.985C115.938 79.235 115.843 79.55 115.843 79.93C115.843 80.36 115.938 80.695 116.128 80.935C116.328 81.165 116.603 81.28 116.953 81.28ZM2.52 95.8L4.065 101.2L4.245 102.085H4.32L4.5 101.2L6.255 94.75H7.335L9.15 101.2L9.33 102.085H9.39L9.57 101.2L11.07 95.8L10.095 95.515V94.9H12.945V95.515L12.135 95.8L9.9 103.15H8.355L6.57 97.3L4.83 103.15H3.285L0.99 95.8L0.195 95.515V94.9H3.555V95.515L2.52 95.8ZM20.0896 99.04H14.8546C14.8546 99.77 14.9546 100.375 15.1546 100.855C15.3546 101.315 15.6396 101.645 16.0096 101.845C16.3796 102.045 16.7796 102.145 17.2096 102.145C17.6796 102.145 18.1096 102.05 18.4996 101.86C18.8896 101.66 19.2396 101.39 19.5496 101.05L20.0296 101.41C19.6796 101.89 19.2546 102.3 18.7546 102.64C18.2546 102.98 17.6096 103.15 16.8196 103.15C16.1296 103.15 15.5196 103.005 14.9896 102.715C14.4596 102.415 14.0546 101.98 13.7746 101.41C13.6246 101.1 13.5146 100.755 13.4446 100.375C13.3746 99.995 13.3396 99.59 13.3396 99.16C13.3396 97.76 13.6596 96.675 14.2996 95.905C14.9496 95.135 15.8296 94.75 16.9396 94.75C17.9596 94.75 18.7446 95.07 19.2946 95.71C19.8546 96.34 20.1346 97.215 20.1346 98.335C20.1346 98.435 20.1296 98.53 20.1196 98.62C20.1196 98.7 20.1096 98.84 20.0896 99.04ZM16.8496 95.56C15.6496 95.56 14.9896 96.475 14.8696 98.305H18.6196V97.81C18.6196 97.09 18.4646 96.535 18.1546 96.145C17.8546 95.755 17.4196 95.56 16.8496 95.56ZM21.1837 99.025C21.1837 98.375 21.2687 97.755 21.4387 97.165C21.6087 96.575 21.8637 96.095 22.2037 95.725C22.4937 95.405 22.8387 95.165 23.2387 95.005C23.6387 94.835 24.0987 94.75 24.6187 94.75C25.0587 94.75 25.4587 94.835 25.8187 95.005C26.1887 95.175 26.5187 95.48 26.8088 95.92V92.2L25.6537 91.915V91.3H28.2637V102.1L29.4188 102.385V103L27.0938 103.15L26.9737 101.92C26.6637 102.38 26.3137 102.7 25.9237 102.88C25.5337 103.06 25.0987 103.15 24.6187 103.15C24.1087 103.15 23.6487 103.075 23.2387 102.925C22.8287 102.775 22.4887 102.535 22.2187 102.205C21.8987 101.815 21.6437 101.35 21.4537 100.81C21.2737 100.26 21.1837 99.665 21.1837 99.025ZM26.8088 99.01C26.8088 97.78 26.6337 96.885 26.2837 96.325C26.1237 96.065 25.9287 95.87 25.6987 95.74C25.4687 95.6 25.1637 95.53 24.7837 95.53C24.1037 95.53 23.5987 95.765 23.2687 96.235C23.0887 96.485 22.9587 96.845 22.8787 97.315C22.7987 97.775 22.7587 98.305 22.7587 98.905C22.7587 100.105 22.9337 100.995 23.2837 101.575C23.4537 101.825 23.6537 102.02 23.8837 102.16C24.1237 102.3 24.4287 102.37 24.7987 102.37C25.1487 102.37 25.4487 102.315 25.6987 102.205C25.9587 102.085 26.1537 101.91 26.2837 101.68C26.4537 101.4 26.5838 101.04 26.6738 100.6C26.7638 100.15 26.8088 99.62 26.8088 99.01ZM30.1855 99.025C30.1855 98.375 30.2705 97.755 30.4405 97.165C30.6105 96.575 30.8655 96.095 31.2055 95.725C31.4955 95.405 31.8405 95.165 32.2405 95.005C32.6405 94.835 33.1005 94.75 33.6205 94.75C34.0605 94.75 34.4605 94.835 34.8205 95.005C35.1905 95.175 35.5205 95.48 35.8105 95.92V92.2L34.6555 91.915V91.3H37.2655V102.1L38.4205 102.385V103L36.0955 103.15L35.9755 101.92C35.6655 102.38 35.3155 102.7 34.9255 102.88C34.5355 103.06 34.1005 103.15 33.6205 103.15C33.1105 103.15 32.6505 103.075 32.2405 102.925C31.8305 102.775 31.4905 102.535 31.2205 102.205C30.9005 101.815 30.6455 101.35 30.4555 100.81C30.2755 100.26 30.1855 99.665 30.1855 99.025ZM35.8105 99.01C35.8105 97.78 35.6355 96.885 35.2855 96.325C35.1255 96.065 34.9305 95.87 34.7005 95.74C34.4705 95.6 34.1655 95.53 33.7855 95.53C33.1055 95.53 32.6005 95.765 32.2705 96.235C32.0905 96.485 31.9605 96.845 31.8805 97.315C31.8005 97.775 31.7605 98.305 31.7605 98.905C31.7605 100.105 31.9355 100.995 32.2855 101.575C32.4555 101.825 32.6555 102.02 32.8855 102.16C33.1255 102.3 33.4305 102.37 33.8005 102.37C34.1505 102.37 34.4505 102.315 34.7005 102.205C34.9605 102.085 35.1555 101.91 35.2855 101.68C35.4555 101.4 35.5855 101.04 35.6755 100.6C35.7655 100.15 35.8105 99.62 35.8105 99.01ZM39.9823 92.485C39.9823 92.195 40.0673 91.965 40.2373 91.795C40.4073 91.625 40.6323 91.54 40.9123 91.54C41.2023 91.54 41.4323 91.625 41.6023 91.795C41.7723 91.965 41.8573 92.195 41.8573 92.485C41.8573 92.765 41.7723 92.99 41.6023 93.16C41.4323 93.33 41.2023 93.415 40.9123 93.415C40.6223 93.415 40.3923 93.335 40.2223 93.175C40.0623 93.005 39.9823 92.775 39.9823 92.485ZM40.1923 95.8L39.0373 95.515V94.9H41.6473V102.1L42.8023 102.385V103H39.0373V102.385L40.1923 102.1V95.8ZM44.5651 102.1V95.8L43.4101 95.515V94.9H45.5701L45.9001 96.4H45.9601C46.2601 95.89 46.6651 95.49 47.1751 95.2C47.6851 94.9 48.2301 94.75 48.8101 94.75C49.6401 94.75 50.2551 95.02 50.6551 95.56C50.8551 95.84 50.9951 96.235 51.0751 96.745C51.1651 97.245 51.2101 97.925 51.2101 98.785V102.1L52.3651 102.385V103H48.7501V102.385L49.7551 102.1V98.755C49.7551 98.105 49.7351 97.62 49.6951 97.3C49.6651 96.98 49.6051 96.73 49.5151 96.55C49.2751 96.06 48.8351 95.815 48.1951 95.815C47.6151 95.815 47.1151 96 46.6951 96.37C46.2851 96.74 46.0601 97.315 46.0201 98.095V102.1L47.0251 102.385V103H43.4101V102.385L44.5651 102.1ZM60.0042 103.15C60.0042 103.91 59.6792 104.535 59.0292 105.025C58.3892 105.515 57.4942 105.76 56.3442 105.76C55.2042 105.76 54.3342 105.595 53.7342 105.265C53.1442 104.935 52.8492 104.475 52.8492 103.885C52.8492 103.415 52.9892 103.055 53.2692 102.805C53.5492 102.545 53.9342 102.38 54.4242 102.31V102.25C53.7642 102.06 53.4342 101.67 53.4342 101.08C53.4342 100.77 53.5442 100.48 53.7642 100.21C53.9942 99.94 54.3492 99.725 54.8292 99.565C54.3392 99.385 53.9592 99.105 53.6892 98.725C53.4192 98.345 53.2842 97.88 53.2842 97.33C53.2842 96.53 53.5592 95.9 54.1092 95.44C54.6692 94.98 55.4142 94.75 56.3442 94.75C57.2742 94.75 58.0092 94.98 58.5492 95.44L59.0592 95.26L60.4392 94.6H60.6942V95.92H60.4392L59.3892 95.8H58.8792C59.1692 96.2 59.3142 96.68 59.3142 97.24C59.3142 98.03 59.0392 98.655 58.4892 99.115C57.9492 99.565 57.1992 99.79 56.2392 99.79C56.1392 99.79 56.0392 99.79 55.9392 99.79C55.8392 99.78 55.7392 99.77 55.6392 99.76C54.8492 99.88 54.4542 100.175 54.4542 100.645C54.4542 100.875 54.5442 101.035 54.7242 101.125C54.9042 101.205 55.2542 101.245 55.7742 101.245H57.5142C58.3342 101.245 58.9542 101.4 59.3742 101.71C59.7942 102.01 60.0042 102.49 60.0042 103.15ZM54.6042 97.27C54.6042 97.87 54.7392 98.325 55.0092 98.635C55.2892 98.945 55.7192 99.1 56.2992 99.1C56.8892 99.1 57.3192 98.945 57.5892 98.635C57.8592 98.325 57.9942 97.87 57.9942 97.27C57.9942 96.67 57.8592 96.215 57.5892 95.905C57.3192 95.595 56.8892 95.44 56.2992 95.44C55.7192 95.44 55.2892 95.595 55.0092 95.905C54.7392 96.215 54.6042 96.67 54.6042 97.27ZM56.8542 102.4H55.8792C55.2092 102.4 54.7242 102.515 54.4242 102.745C54.1242 102.975 53.9742 103.275 53.9742 103.645C53.9742 104.555 54.7542 105.01 56.3142 105.01C57.1642 105.01 57.8092 104.88 58.2492 104.62C58.6992 104.36 58.9242 103.98 58.9242 103.48C58.9242 103.08 58.7692 102.8 58.4592 102.64C58.1592 102.48 57.6242 102.4 56.8542 102.4ZM62.3078 101.23C62.6278 101.23 62.8778 101.345 63.0578 101.575C63.2478 101.795 63.3428 102.095 63.3428 102.475C63.3428 103.015 63.1928 103.505 62.8928 103.945C62.5928 104.395 62.1228 104.825 61.4828 105.235L61.1528 104.86C62.0328 104.15 62.4978 103.545 62.5478 103.045L62.4878 103C62.4378 103.09 62.3128 103.135 62.1128 103.135C61.8928 103.135 61.7078 103.05 61.5578 102.88C61.4078 102.7 61.3328 102.475 61.3328 102.205C61.3328 101.915 61.4228 101.68 61.6028 101.5C61.7828 101.32 62.0178 101.23 62.3078 101.23ZM74.8601 102.04L73.9751 99.37H69.9551L69.0401 102.04L70.2851 102.355V103H66.7751V102.355L68.0051 102.04L71.6051 92.05H73.0001L76.5551 102.04L77.7551 102.355V103H73.6301V102.355L74.8601 102.04ZM72.0101 93.385L70.2551 98.5H73.6901L72.0701 93.385H72.0101ZM79.0856 102.1V95.8L77.9306 95.515V94.9H80.0906L80.4206 96.4H80.4806C80.7806 95.89 81.1856 95.49 81.6956 95.2C82.2056 94.9 82.7506 94.75 83.3306 94.75C84.1606 94.75 84.7756 95.02 85.1756 95.56C85.3756 95.84 85.5156 96.235 85.5956 96.745C85.6856 97.245 85.7306 97.925 85.7306 98.785V102.1L86.8856 102.385V103H83.2706V102.385L84.2756 102.1V98.755C84.2756 98.105 84.2556 97.62 84.2156 97.3C84.1856 96.98 84.1256 96.73 84.0356 96.55C83.7956 96.06 83.3556 95.815 82.7156 95.815C82.1356 95.815 81.6356 96 81.2156 96.37C80.8056 96.74 80.5806 97.315 80.5406 98.095V102.1L81.5456 102.385V103H77.9306V102.385L79.0856 102.1ZM87.6097 99.025C87.6097 98.375 87.6947 97.755 87.8647 97.165C88.0347 96.575 88.2897 96.095 88.6297 95.725C88.9197 95.405 89.2647 95.165 89.6647 95.005C90.0647 94.835 90.5247 94.75 91.0447 94.75C91.4847 94.75 91.8847 94.835 92.2447 95.005C92.6147 95.175 92.9447 95.48 93.2347 95.92V92.2L92.0797 91.915V91.3H94.6897V102.1L95.8447 102.385V103L93.5197 103.15L93.3997 101.92C93.0897 102.38 92.7397 102.7 92.3497 102.88C91.9597 103.06 91.5247 103.15 91.0447 103.15C90.5347 103.15 90.0747 103.075 89.6647 102.925C89.2547 102.775 88.9147 102.535 88.6447 102.205C88.3247 101.815 88.0697 101.35 87.8797 100.81C87.6997 100.26 87.6097 99.665 87.6097 99.025ZM93.2347 99.01C93.2347 97.78 93.0597 96.885 92.7097 96.325C92.5497 96.065 92.3547 95.87 92.1247 95.74C91.8947 95.6 91.5897 95.53 91.2097 95.53C90.5297 95.53 90.0247 95.765 89.6947 96.235C89.5147 96.485 89.3847 96.845 89.3047 97.315C89.2247 97.775 89.1847 98.305 89.1847 98.905C89.1847 100.105 89.3597 100.995 89.7097 101.575C89.8797 101.825 90.0797 102.02 90.3097 102.16C90.5497 102.3 90.8547 102.37 91.2247 102.37C91.5747 102.37 91.8747 102.315 92.1247 102.205C92.3847 102.085 92.5797 101.91 92.7097 101.68C92.8797 101.4 93.0097 101.04 93.0997 100.6C93.1897 100.15 93.2347 99.62 93.2347 99.01ZM99.7001 95.65V95.11L101.155 94.9V94.75C101.155 93.6 101.405 92.715 101.905 92.095C102.405 91.465 103.08 91.15 103.93 91.15C104.52 91.15 104.99 91.295 105.34 91.585C105.7 91.865 105.88 92.225 105.88 92.665C105.88 92.945 105.81 93.16 105.67 93.31C105.53 93.45 105.34 93.52 105.1 93.52C104.87 93.52 104.685 93.455 104.545 93.325C104.405 93.195 104.335 93.01 104.335 92.77C104.335 92.51 104.415 92.25 104.575 91.99C104.405 91.81 104.175 91.72 103.885 91.72C103.655 91.72 103.455 91.77 103.285 91.87C103.065 92 102.905 92.185 102.805 92.425C102.715 92.665 102.66 92.935 102.64 93.235C102.62 93.525 102.61 93.83 102.61 94.15V94.9H104.53V95.65H102.61V102.1L104.23 102.385V103H100V102.385L101.155 102.1V95.65H99.7001ZM112.487 98.875C112.487 99.525 112.387 100.145 112.187 100.735C111.997 101.315 111.727 101.795 111.377 102.175C110.787 102.825 109.917 103.15 108.767 103.15C108.217 103.15 107.727 103.075 107.297 102.925C106.867 102.765 106.502 102.525 106.202 102.205C105.862 101.835 105.597 101.38 105.407 100.84C105.227 100.29 105.137 99.695 105.137 99.055C105.137 98.405 105.232 97.785 105.422 97.195C105.612 96.595 105.887 96.105 106.247 95.725C106.567 95.385 106.937 95.14 107.357 94.99C107.787 94.83 108.277 94.75 108.827 94.75C109.377 94.75 109.872 94.83 110.312 94.99C110.752 95.14 111.122 95.375 111.422 95.695C111.772 96.065 112.037 96.53 112.217 97.09C112.397 97.64 112.487 98.235 112.487 98.875ZM106.742 98.89C106.742 99.5 106.787 100.03 106.877 100.48C106.977 100.92 107.112 101.285 107.282 101.575C107.452 101.825 107.652 102.02 107.882 102.16C108.122 102.3 108.432 102.37 108.812 102.37C109.502 102.37 110.017 102.135 110.357 101.665C110.537 101.405 110.667 101.045 110.747 100.585C110.837 100.125 110.882 99.595 110.882 98.995C110.882 98.395 110.832 97.87 110.732 97.42C110.642 96.97 110.512 96.605 110.342 96.325C110.182 96.065 109.977 95.87 109.727 95.74C109.487 95.6 109.177 95.53 108.797 95.53C108.097 95.53 107.592 95.76 107.282 96.22C106.922 96.78 106.742 97.67 106.742 98.89ZM115.773 94.9V99.145C115.773 99.785 115.788 100.27 115.818 100.6C115.858 100.92 115.923 101.17 116.013 101.35C116.243 101.84 116.663 102.085 117.273 102.085C117.833 102.085 118.313 101.9 118.713 101.53C119.123 101.16 119.348 100.585 119.388 99.805V95.8L118.083 95.515V94.9H120.843V102.1L121.998 102.385V103L119.673 103.15L119.508 101.5H119.448C119.158 102.01 118.763 102.415 118.263 102.715C117.763 103.005 117.228 103.15 116.658 103.15C116.278 103.15 115.928 103.08 115.608 102.94C115.298 102.79 115.053 102.59 114.873 102.34C114.683 102.06 114.543 101.665 114.453 101.155C114.363 100.645 114.318 99.965 114.318 99.115V95.8L113.313 95.515V94.9H115.773ZM127.125 95.77C127.035 95.71 126.935 95.68 126.825 95.68C126.635 95.68 126.435 95.8 126.225 96.04C126.015 96.27 125.83 96.565 125.67 96.925C125.37 97.635 125.22 98.425 125.22 99.295V102.1L126.84 102.385V103H122.61V102.385L123.765 102.1V95.8L122.61 95.515V94.9H124.77L125.1 96.88H125.16C125.39 96.2 125.7 95.675 126.09 95.305C126.48 94.935 126.91 94.75 127.38 94.75C127.77 94.75 128.095 94.875 128.355 95.125C128.615 95.365 128.745 95.69 128.745 96.1C128.745 96.4 128.665 96.64 128.505 96.82C128.355 96.99 128.15 97.075 127.89 97.075C127.63 97.075 127.425 96.995 127.275 96.835C127.125 96.665 127.05 96.445 127.05 96.175C127.05 96.075 127.075 95.94 127.125 95.77ZM132.082 95.65V95.11L133.537 94.9V94.75C133.537 93.6 133.787 92.715 134.287 92.095C134.787 91.465 135.462 91.15 136.312 91.15C136.902 91.15 137.372 91.295 137.722 91.585C138.082 91.865 138.262 92.225 138.262 92.665C138.262 92.945 138.192 93.16 138.052 93.31C137.912 93.45 137.722 93.52 137.482 93.52C137.252 93.52 137.067 93.455 136.927 93.325C136.787 93.195 136.717 93.01 136.717 92.77C136.717 92.51 136.797 92.25 136.957 91.99C136.787 91.81 136.557 91.72 136.267 91.72C136.037 91.72 135.837 91.77 135.667 91.87C135.447 92 135.287 92.185 135.187 92.425C135.097 92.665 135.042 92.935 135.022 93.235C135.002 93.525 134.992 93.83 134.992 94.15V94.9H136.912V95.65H134.992V102.1L136.612 102.385V103H132.382V102.385L133.537 102.1V95.65H132.082ZM144.869 98.875C144.869 99.525 144.769 100.145 144.569 100.735C144.379 101.315 144.109 101.795 143.759 102.175C143.169 102.825 142.299 103.15 141.149 103.15C140.599 103.15 140.109 103.075 139.679 102.925C139.249 102.765 138.884 102.525 138.584 102.205C138.244 101.835 137.979 101.38 137.789 100.84C137.609 100.29 137.519 99.695 137.519 99.055C137.519 98.405 137.614 97.785 137.804 97.195C137.994 96.595 138.269 96.105 138.629 95.725C138.949 95.385 139.319 95.14 139.739 94.99C140.169 94.83 140.659 94.75 141.209 94.75C141.759 94.75 142.254 94.83 142.694 94.99C143.134 95.14 143.504 95.375 143.804 95.695C144.154 96.065 144.419 96.53 144.599 97.09C144.779 97.64 144.869 98.235 144.869 98.875ZM139.124 98.89C139.124 99.5 139.169 100.03 139.259 100.48C139.359 100.92 139.494 101.285 139.664 101.575C139.834 101.825 140.034 102.02 140.264 102.16C140.504 102.3 140.814 102.37 141.194 102.37C141.884 102.37 142.399 102.135 142.739 101.665C142.919 101.405 143.049 101.045 143.129 100.585C143.219 100.125 143.264 99.595 143.264 98.995C143.264 98.395 143.214 97.87 143.114 97.42C143.024 96.97 142.894 96.605 142.724 96.325C142.564 96.065 142.359 95.87 142.109 95.74C141.869 95.6 141.559 95.53 141.179 95.53C140.479 95.53 139.974 95.76 139.664 96.22C139.304 96.78 139.124 97.67 139.124 98.89ZM150.315 95.77C150.225 95.71 150.125 95.68 150.015 95.68C149.825 95.68 149.625 95.8 149.415 96.04C149.205 96.27 149.02 96.565 148.86 96.925C148.56 97.635 148.41 98.425 148.41 99.295V102.1L150.03 102.385V103H145.8V102.385L146.955 102.1V95.8L145.8 95.515V94.9H147.96L148.29 96.88H148.35C148.58 96.2 148.89 95.675 149.28 95.305C149.67 94.935 150.1 94.75 150.57 94.75C150.96 94.75 151.285 94.875 151.545 95.125C151.805 95.365 151.935 95.69 151.935 96.1C151.935 96.4 151.855 96.64 151.695 96.82C151.545 96.99 151.34 97.075 151.08 97.075C150.82 97.075 150.615 96.995 150.465 96.835C150.315 96.665 150.24 96.445 150.24 96.175C150.24 96.075 150.265 95.94 150.315 95.77ZM0.69 120.025C0.69 119.375 0.775 118.755 0.945 118.165C1.115 117.575 1.37 117.095 1.71 116.725C2 116.405 2.345 116.165 2.745 116.005C3.145 115.835 3.605 115.75 4.125 115.75C4.565 115.75 4.965 115.835 5.325 116.005C5.695 116.175 6.025 116.48 6.315 116.92V113.2L5.16 112.915V112.3H7.77V123.1L8.925 123.385V124L6.6 124.15L6.48 122.92C6.17 123.38 5.82 123.7 5.43 123.88C5.04 124.06 4.605 124.15 4.125 124.15C3.615 124.15 3.155 124.075 2.745 123.925C2.335 123.775 1.995 123.535 1.725 123.205C1.405 122.815 1.15 122.35 0.96 121.81C0.78 121.26 0.69 120.665 0.69 120.025ZM6.315 120.01C6.315 118.78 6.14 117.885 5.79 117.325C5.63 117.065 5.435 116.87 5.205 116.74C4.975 116.6 4.67 116.53 4.29 116.53C3.61 116.53 3.105 116.765 2.775 117.235C2.595 117.485 2.465 117.845 2.385 118.315C2.305 118.775 2.265 119.305 2.265 119.905C2.265 121.105 2.44 121.995 2.79 122.575C2.96 122.825 3.16 123.02 3.39 123.16C3.63 123.3 3.935 123.37 4.305 123.37C4.655 123.37 4.955 123.315 5.205 123.205C5.465 123.085 5.66 122.91 5.79 122.68C5.96 122.4 6.09 122.04 6.18 121.6C6.27 121.15 6.315 120.62 6.315 120.01ZM16.4568 120.04H11.2218C11.2218 120.77 11.3218 121.375 11.5218 121.855C11.7218 122.315 12.0068 122.645 12.3768 122.845C12.7468 123.045 13.1468 123.145 13.5768 123.145C14.0468 123.145 14.4768 123.05 14.8668 122.86C15.2568 122.66 15.6068 122.39 15.9168 122.05L16.3968 122.41C16.0468 122.89 15.6218 123.3 15.1218 123.64C14.6218 123.98 13.9768 124.15 13.1868 124.15C12.4968 124.15 11.8868 124.005 11.3568 123.715C10.8268 123.415 10.4218 122.98 10.1418 122.41C9.99176 122.1 9.88176 121.755 9.81176 121.375C9.74176 120.995 9.70676 120.59 9.70676 120.16C9.70676 118.76 10.0268 117.675 10.6668 116.905C11.3168 116.135 12.1968 115.75 13.3068 115.75C14.3268 115.75 15.1118 116.07 15.6618 116.71C16.2218 117.34 16.5018 118.215 16.5018 119.335C16.5018 119.435 16.4968 119.53 16.4868 119.62C16.4868 119.7 16.4768 119.84 16.4568 120.04ZM13.2168 116.56C12.0168 116.56 11.3568 117.475 11.2368 119.305H14.9868V118.81C14.9868 118.09 14.8318 117.535 14.5218 117.145C14.2218 116.755 13.7868 116.56 13.2168 116.56ZM17.4309 122.245C17.4309 121.465 17.7959 120.85 18.5259 120.4C19.2559 119.95 20.4659 119.6 22.1559 119.35C22.1159 118.76 22.0609 118.3 21.9909 117.97C21.9209 117.64 21.8309 117.375 21.7209 117.175C21.5809 116.915 21.3859 116.725 21.1359 116.605C20.8859 116.475 20.6159 116.41 20.3259 116.41C20.0459 116.41 19.7909 116.46 19.5609 116.56C19.3409 116.66 19.1909 116.795 19.1109 116.965C19.2509 117.065 19.3509 117.195 19.4109 117.355C19.4809 117.515 19.5159 117.665 19.5159 117.805C19.5159 118.055 19.4309 118.255 19.2609 118.405C19.1009 118.545 18.9009 118.615 18.6609 118.615C18.4209 118.615 18.2209 118.535 18.0609 118.375C17.9109 118.215 17.8359 117.99 17.8359 117.7C17.8359 117.28 17.9809 116.925 18.2709 116.635C18.5609 116.345 18.9259 116.125 19.3659 115.975C19.8159 115.825 20.2659 115.75 20.7159 115.75C21.5659 115.75 22.2359 115.995 22.7259 116.485C23.3459 117.105 23.6559 118.205 23.6559 119.785V121.96C23.6559 122.45 23.6859 122.79 23.7459 122.98C23.8159 123.17 23.9609 123.265 24.1809 123.265H24.8559V123.715C24.1359 124.005 23.5759 124.15 23.1759 124.15C22.8659 124.15 22.6559 124.04 22.5459 123.82C22.4459 123.59 22.3959 123.155 22.3959 122.515H22.3359C22.0259 123.025 21.6159 123.425 21.1059 123.715C20.5959 124.005 20.0459 124.15 19.4559 124.15C18.8259 124.15 18.3309 123.98 17.9709 123.64C17.6109 123.3 17.4309 122.835 17.4309 122.245ZM20.0859 123.28C20.3659 123.28 20.6559 123.21 20.9559 123.07C21.2659 122.92 21.5259 122.715 21.7359 122.455C22.0459 122.075 22.2009 121.515 22.2009 120.775C22.2009 120.605 22.1959 120.44 22.1859 120.28C22.1759 120.11 22.1609 119.95 22.1409 119.8C21.3309 119.96 20.6959 120.135 20.2359 120.325C19.7759 120.505 19.4509 120.725 19.2609 120.985C19.0709 121.235 18.9759 121.55 18.9759 121.93C18.9759 122.36 19.0709 122.695 19.2609 122.935C19.4609 123.165 19.7359 123.28 20.0859 123.28ZM24.7526 116.65V116.11L26.2076 115.9L26.4026 114.01L27.6626 113.83V115.9H29.5826V116.65H27.6626V122.005C27.6626 122.345 27.6676 122.58 27.6776 122.71C27.6876 122.83 27.7076 122.93 27.7376 123.01C27.7676 123.08 27.8226 123.13 27.9026 123.16C27.9826 123.18 28.1126 123.19 28.2926 123.19H29.3426V123.625C28.8626 123.805 28.4376 123.935 28.0676 124.015C27.7076 124.105 27.4176 124.15 27.1976 124.15C26.7476 124.15 26.4576 123.965 26.3276 123.595C26.2876 123.475 26.2576 123.32 26.2376 123.13C26.2176 122.94 26.2076 122.66 26.2076 122.29V116.65H24.7526ZM36.1499 123.1V119.755C36.1499 119.105 36.1299 118.62 36.0899 118.3C36.0599 117.98 35.9999 117.73 35.9099 117.55C35.6699 117.06 35.2299 116.815 34.5899 116.815C34.0099 116.815 33.5099 117 33.0899 117.37C32.6799 117.73 32.4549 118.285 32.4149 119.035V123.1L33.4199 123.385V124H29.8049V123.385L30.9599 123.1V113.2L29.8049 112.915V112.3H32.4149V117.31C32.7149 116.83 33.1099 116.45 33.5999 116.17C34.0999 115.89 34.6349 115.75 35.2049 115.75C36.0349 115.75 36.6499 116.02 37.0499 116.56C37.2499 116.84 37.3899 117.235 37.4699 117.745C37.5599 118.245 37.6049 118.925 37.6049 119.785V123.1L38.7599 123.385V124H35.1449V123.385L36.1499 123.1Z" fill="#2A2921"/>
</svg>
