<svg width="169" height="136" viewBox="0 0 169 136" fill="none" xmlns="http://www.w3.org/2000/svg">
<path d="M3.84 18V28H1.6V13.8H3.36L11.48 24.04V13.82H13.74V28H11.88L3.84 18ZM19.472 28.2C18.3787 28.2 17.552 27.8467 16.992 27.14C16.432 26.42 16.152 25.3533 16.152 23.94V17.54H18.352V23.5C18.352 25.38 19.0187 26.32 20.352 26.32C20.9787 26.32 21.572 26.1267 22.132 25.74C22.692 25.3533 23.1254 24.7933 23.432 24.06V17.54H25.632V25.4C25.632 25.6533 25.672 25.8333 25.752 25.94C25.8454 26.0467 26.0054 26.1067 26.232 26.12V28C26.0054 28.04 25.8187 28.0667 25.672 28.08C25.5254 28.0933 25.3854 28.1 25.252 28.1C24.852 28.1 24.512 27.9933 24.232 27.78C23.952 27.5533 23.8054 27.2667 23.792 26.92L23.752 25.88C23.2854 26.64 22.6787 27.22 21.932 27.62C21.1854 28.0067 20.3654 28.2 19.472 28.2ZM33.9195 19.44C33.0662 19.4667 32.3062 19.6667 31.6395 20.04C30.9862 20.4 30.5195 20.92 30.2395 21.6V28H28.0395V17.54H30.0795V19.88C30.4395 19.16 30.9062 18.5867 31.4795 18.16C32.0662 17.72 32.6929 17.48 33.3595 17.44C33.4929 17.44 33.5995 17.44 33.6795 17.44C33.7729 17.44 33.8529 17.4467 33.9195 17.46V19.44ZM38.92 28.2C38.08 28.2 37.24 28.0667 36.4 27.8C35.5733 27.52 34.86 27.1267 34.26 26.62L35.14 25.22C35.7667 25.6733 36.3867 26.02 37 26.26C37.6133 26.4867 38.24 26.6 38.88 26.6C39.5333 26.6 40.0467 26.4733 40.42 26.22C40.8067 25.9667 41 25.6067 41 25.14C41 24.7 40.7867 24.38 40.36 24.18C39.9333 23.98 39.2667 23.76 38.36 23.52C37.7067 23.3467 37.1467 23.18 36.68 23.02C36.2133 22.86 35.8333 22.6733 35.54 22.46C35.2467 22.2467 35.0333 22 34.9 21.72C34.7667 21.44 34.7 21.1 34.7 20.7C34.7 20.1667 34.8 19.6933 35 19.28C35.2133 18.8667 35.5 18.52 35.86 18.24C36.2333 17.9467 36.6667 17.7267 37.16 17.58C37.6533 17.4333 38.1867 17.36 38.76 17.36C39.5467 17.36 40.28 17.48 40.96 17.72C41.64 17.96 42.2467 18.3067 42.78 18.76L41.84 20.08C40.8667 19.3067 39.8333 18.92 38.74 18.92C38.18 18.92 37.7067 19.04 37.32 19.28C36.9467 19.5067 36.76 19.8733 36.76 20.38C36.76 20.5933 36.8 20.7733 36.88 20.92C36.96 21.0667 37.0867 21.1933 37.26 21.3C37.4467 21.4067 37.68 21.5067 37.96 21.6C38.2533 21.68 38.6133 21.7733 39.04 21.88C39.7467 22.0533 40.3533 22.2267 40.86 22.4C41.38 22.5733 41.8067 22.78 42.14 23.02C42.4733 23.2467 42.72 23.52 42.88 23.84C43.04 24.1467 43.12 24.52 43.12 24.96C43.12 25.96 42.74 26.7533 41.98 27.34C41.2333 27.9133 40.2133 28.2 38.92 28.2ZM49.3819 28.2C48.5685 28.2 47.8285 28.06 47.1619 27.78C46.4952 27.4867 45.9219 27.0933 45.4419 26.6C44.9752 26.1067 44.6085 25.5333 44.3419 24.88C44.0885 24.2267 43.9619 23.5333 43.9619 22.8C43.9619 22.0667 44.0885 21.3733 44.3419 20.72C44.6085 20.0533 44.9752 19.4733 45.4419 18.98C45.9219 18.4733 46.4952 18.08 47.1619 17.8C47.8285 17.5067 48.5752 17.36 49.4019 17.36C50.2152 17.36 50.9485 17.5067 51.6019 17.8C52.2685 18.0933 52.8352 18.4867 53.3019 18.98C53.7685 19.46 54.1219 20.0267 54.3619 20.68C54.6152 21.32 54.7419 21.9933 54.7419 22.7C54.7419 22.86 54.7352 23.0133 54.7219 23.16C54.7085 23.2933 54.6952 23.4067 54.6819 23.5H46.3019C46.3419 23.9667 46.4485 24.3867 46.6219 24.76C46.8085 25.1333 47.0419 25.46 47.3219 25.74C47.6152 26.0067 47.9419 26.2133 48.3019 26.36C48.6752 26.5067 49.0619 26.58 49.4619 26.58C49.7552 26.58 50.0419 26.5467 50.3219 26.48C50.6152 26.4 50.8819 26.2933 51.1219 26.16C51.3619 26.0133 51.5752 25.84 51.7619 25.64C51.9485 25.44 52.0952 25.22 52.2019 24.98L54.0819 25.52C53.7219 26.3067 53.1219 26.9533 52.2819 27.46C51.4552 27.9533 50.4885 28.2 49.3819 28.2ZM52.5619 21.98C52.5219 21.54 52.4085 21.1333 52.2219 20.76C52.0485 20.3867 51.8219 20.0733 51.5419 19.82C51.2619 19.5533 50.9352 19.3467 50.5619 19.2C50.1885 19.0533 49.7952 18.98 49.3819 18.98C48.9685 18.98 48.5752 19.0533 48.2019 19.2C47.8419 19.3467 47.5219 19.5533 47.2419 19.82C46.9619 20.0733 46.7352 20.3867 46.5619 20.76C46.3885 21.1333 46.2819 21.54 46.2419 21.98H52.5619ZM62.0164 19.44C61.1631 19.4667 60.4031 19.6667 59.7364 20.04C59.0831 20.4 58.6164 20.92 58.3364 21.6V28H56.1364V17.54H58.1764V19.88C58.5364 19.16 59.0031 18.5867 59.5764 18.16C60.1631 17.72 60.7897 17.48 61.4564 17.44C61.5897 17.44 61.6964 17.44 61.7764 17.44C61.8697 17.44 61.9497 17.4467 62.0164 17.46V19.44ZM63.5769 30.46C63.7769 30.5 63.9702 30.5333 64.1569 30.56C64.3569 30.5867 64.5169 30.6 64.6369 30.6C64.8102 30.6 64.9569 30.56 65.0769 30.48C65.2102 30.4133 65.3435 30.2867 65.4769 30.1C65.6102 29.9133 65.7435 29.6467 65.8769 29.3C66.0235 28.9667 66.1902 28.5333 66.3769 28L62.0769 17.54H64.3369L67.5769 26.06L70.4569 17.54H72.5369L67.7969 30.42C67.5835 31.02 67.2102 31.52 66.6769 31.92C66.1569 32.3333 65.4835 32.54 64.6569 32.54C64.4969 32.54 64.3302 32.5267 64.1569 32.5C63.9835 32.4867 63.7902 32.4467 63.5769 32.38V30.46ZM78.0289 28V13.8H84.2089C84.8489 13.8 85.4356 13.9333 85.9689 14.2C86.5156 14.4667 86.9822 14.82 87.3689 15.26C87.7556 15.6867 88.0556 16.18 88.2689 16.74C88.4956 17.2867 88.6089 17.8467 88.6089 18.42C88.6089 18.9 88.5422 19.36 88.4089 19.8C88.2756 20.24 88.0889 20.6467 87.8489 21.02C87.6089 21.3933 87.3156 21.72 86.9689 22C86.6222 22.2667 86.2422 22.4667 85.8289 22.6L89.1689 28H86.6289L83.5489 23.06H80.2689V28H78.0289ZM80.2689 21.08H84.1889C84.5089 21.08 84.7956 21.0133 85.0489 20.88C85.3156 20.7333 85.5422 20.54 85.7289 20.3C85.9156 20.0467 86.0622 19.76 86.1689 19.44C86.2756 19.12 86.3289 18.78 86.3289 18.42C86.3289 18.06 86.2622 17.72 86.1289 17.4C86.0089 17.08 85.8422 16.8 85.6289 16.56C85.4289 16.32 85.1889 16.1333 84.9089 16C84.6422 15.8533 84.3622 15.78 84.0689 15.78H80.2689V21.08ZM99.9516 28H97.7516V22.14C97.7516 21.18 97.5782 20.4733 97.2316 20.02C96.8982 19.5533 96.4116 19.32 95.7716 19.32C95.4649 19.32 95.1582 19.38 94.8516 19.5C94.5449 19.62 94.2516 19.7933 93.9716 20.02C93.7049 20.2333 93.4649 20.4933 93.2516 20.8C93.0382 21.0933 92.8782 21.42 92.7716 21.78V28H90.5716V13.4H92.7716V19.64C93.1716 18.92 93.7116 18.36 94.3916 17.96C95.0849 17.56 95.8382 17.36 96.6516 17.36C97.3049 17.36 97.8382 17.48 98.2516 17.72C98.6782 17.9467 99.0182 18.2533 99.2716 18.64C99.5249 19.0267 99.6982 19.48 99.7916 20C99.8982 20.5067 99.9516 21.0467 99.9516 21.62V28ZM102.192 30.46C102.392 30.5 102.585 30.5333 102.772 30.56C102.972 30.5867 103.132 30.6 103.252 30.6C103.425 30.6 103.572 30.56 103.692 30.48C103.825 30.4133 103.958 30.2867 104.092 30.1C104.225 29.9133 104.358 29.6467 104.492 29.3C104.638 28.9667 104.805 28.5333 104.992 28L100.692 17.54H102.952L106.192 26.06L109.072 17.54H111.152L106.412 30.42C106.198 31.02 105.825 31.52 105.292 31.92C104.772 32.3333 104.098 32.54 103.272 32.54C103.112 32.54 102.945 32.5267 102.772 32.5C102.598 32.4867 102.405 32.4467 102.192 32.38V30.46ZM128.369 28H126.169V22.14C126.169 21.1667 126.009 20.4533 125.689 20C125.369 19.5467 124.903 19.32 124.289 19.32C123.663 19.32 123.089 19.5533 122.569 20.02C122.063 20.4733 121.696 21.0667 121.469 21.8V28H119.269V22.14C119.269 21.1533 119.109 20.44 118.789 20C118.469 19.5467 118.009 19.32 117.409 19.32C116.783 19.32 116.209 19.5467 115.689 20C115.169 20.4533 114.796 21.0467 114.569 21.78V28H112.369V17.54H114.369V19.64C114.783 18.9067 115.323 18.3467 115.989 17.96C116.669 17.56 117.443 17.36 118.309 17.36C119.176 17.36 119.856 17.5867 120.349 18.04C120.856 18.4933 121.169 19.06 121.289 19.74C121.729 18.9667 122.283 18.38 122.949 17.98C123.616 17.5667 124.376 17.36 125.229 17.36C125.843 17.36 126.349 17.48 126.749 17.72C127.163 17.9467 127.489 18.2533 127.729 18.64C127.969 19.0267 128.136 19.48 128.229 20C128.323 20.5067 128.369 21.0467 128.369 21.62V28ZM135.244 28.2C134.431 28.2 133.691 28.06 133.024 27.78C132.358 27.4867 131.784 27.0933 131.304 26.6C130.838 26.1067 130.471 25.5333 130.204 24.88C129.951 24.2267 129.824 23.5333 129.824 22.8C129.824 22.0667 129.951 21.3733 130.204 20.72C130.471 20.0533 130.838 19.4733 131.304 18.98C131.784 18.4733 132.358 18.08 133.024 17.8C133.691 17.5067 134.438 17.36 135.264 17.36C136.078 17.36 136.811 17.5067 137.464 17.8C138.131 18.0933 138.698 18.4867 139.164 18.98C139.631 19.46 139.984 20.0267 140.224 20.68C140.478 21.32 140.604 21.9933 140.604 22.7C140.604 22.86 140.598 23.0133 140.584 23.16C140.571 23.2933 140.558 23.4067 140.544 23.5H132.164C132.204 23.9667 132.311 24.3867 132.484 24.76C132.671 25.1333 132.904 25.46 133.184 25.74C133.478 26.0067 133.804 26.2133 134.164 26.36C134.538 26.5067 134.924 26.58 135.324 26.58C135.618 26.58 135.904 26.5467 136.184 26.48C136.478 26.4 136.744 26.2933 136.984 26.16C137.224 26.0133 137.438 25.84 137.624 25.64C137.811 25.44 137.958 25.22 138.064 24.98L139.944 25.52C139.584 26.3067 138.984 26.9533 138.144 27.46C137.318 27.9533 136.351 28.2 135.244 28.2ZM138.424 21.98C138.384 21.54 138.271 21.1333 138.084 20.76C137.911 20.3867 137.684 20.0733 137.404 19.82C137.124 19.5533 136.798 19.3467 136.424 19.2C136.051 19.0533 135.658 18.98 135.244 18.98C134.831 18.98 134.438 19.0533 134.064 19.2C133.704 19.3467 133.384 19.5533 133.104 19.82C132.824 20.0733 132.598 20.3867 132.424 20.76C132.251 21.1333 132.144 21.54 132.104 21.98H138.424ZM145.799 28.2C144.959 28.2 144.119 28.0667 143.279 27.8C142.452 27.52 141.739 27.1267 141.139 26.62L142.019 25.22C142.646 25.6733 143.266 26.02 143.879 26.26C144.492 26.4867 145.119 26.6 145.759 26.6C146.412 26.6 146.926 26.4733 147.299 26.22C147.686 25.9667 147.879 25.6067 147.879 25.14C147.879 24.7 147.666 24.38 147.239 24.18C146.812 23.98 146.146 23.76 145.239 23.52C144.586 23.3467 144.026 23.18 143.559 23.02C143.092 22.86 142.712 22.6733 142.419 22.46C142.126 22.2467 141.912 22 141.779 21.72C141.646 21.44 141.579 21.1 141.579 20.7C141.579 20.1667 141.679 19.6933 141.879 19.28C142.092 18.8667 142.379 18.52 142.739 18.24C143.112 17.9467 143.546 17.7267 144.039 17.58C144.532 17.4333 145.066 17.36 145.639 17.36C146.426 17.36 147.159 17.48 147.839 17.72C148.519 17.96 149.126 18.3067 149.659 18.76L148.719 20.08C147.746 19.3067 146.712 18.92 145.619 18.92C145.059 18.92 144.586 19.04 144.199 19.28C143.826 19.5067 143.639 19.8733 143.639 20.38C143.639 20.5933 143.679 20.7733 143.759 20.92C143.839 21.0667 143.966 21.1933 144.139 21.3C144.326 21.4067 144.559 21.5067 144.839 21.6C145.132 21.68 145.492 21.7733 145.919 21.88C146.626 22.0533 147.232 22.2267 147.739 22.4C148.259 22.5733 148.686 22.78 149.019 23.02C149.352 23.2467 149.599 23.52 149.759 23.84C149.919 24.1467 149.999 24.52 149.999 24.96C149.999 25.96 149.619 26.7533 148.859 27.34C148.112 27.9133 147.092 28.2 145.799 28.2Z" fill="#2A2921"/>
<path d="M10.7666 56.6313C10.7666 58.3452 10.332 59.6929 9.46289 60.6743C8.59863 61.6558 7.39502 62.1465 5.85205 62.1465C4.2749 62.1465 3.05664 61.6655 2.19727 60.7036C1.34277 59.7368 0.915527 58.3745 0.915527 56.6167C0.915527 54.8735 1.34521 53.5234 2.20459 52.5664C3.06396 51.6045 4.28467 51.1235 5.8667 51.1235C7.40479 51.1235 8.60596 51.6118 9.47021 52.5884C10.3345 53.5649 10.7666 54.9126 10.7666 56.6313ZM2.23389 56.6313C2.23389 58.0815 2.5415 59.1826 3.15674 59.9346C3.77686 60.6816 4.67529 61.0552 5.85205 61.0552C7.03857 61.0552 7.93457 60.6816 8.54004 59.9346C9.14551 59.1875 9.44824 58.0864 9.44824 56.6313C9.44824 55.1909 9.14551 54.0996 8.54004 53.3574C7.93945 52.6104 7.04834 52.2368 5.8667 52.2368C4.68018 52.2368 3.77686 52.6128 3.15674 53.3647C2.5415 54.1118 2.23389 55.2007 2.23389 56.6313ZM18.1717 62V56.8071C18.1717 56.1528 18.0228 55.6646 17.7249 55.3423C17.4271 55.02 16.9607 54.8589 16.326 54.8589C15.4861 54.8589 14.8709 55.0859 14.4803 55.54C14.0896 55.9941 13.8943 56.7437 13.8943 57.7886V62H12.6785V53.9727H13.6673L13.865 55.0713H13.9236C14.1727 54.6758 14.5218 54.3706 14.971 54.1558C15.4202 53.936 15.9207 53.8262 16.4725 53.8262C17.4393 53.8262 18.1668 54.0605 18.6551 54.5293C19.1434 54.9932 19.3875 55.7378 19.3875 56.7632V62H18.1717ZM24.9835 62.1465C23.797 62.1465 22.8595 61.7852 22.171 61.0625C21.4874 60.3398 21.1456 59.3364 21.1456 58.0522C21.1456 56.7583 21.463 55.7305 22.0978 54.9688C22.7374 54.207 23.5943 53.8262 24.6686 53.8262C25.6744 53.8262 26.4703 54.1582 27.0562 54.8223C27.6422 55.4814 27.9352 56.353 27.9352 57.437V58.2061H22.4054C22.4298 59.1484 22.6666 59.8638 23.1158 60.3521C23.5699 60.8403 24.2071 61.0845 25.0274 61.0845C25.8917 61.0845 26.7462 60.9038 27.5909 60.5425V61.6265C27.1612 61.812 26.7535 61.9438 26.3678 62.022C25.9869 62.105 25.5255 62.1465 24.9835 62.1465ZM24.6539 54.8442C24.0094 54.8442 23.4942 55.0542 23.1085 55.4741C22.7276 55.894 22.503 56.4751 22.4347 57.2173H26.6314C26.6314 56.4507 26.4605 55.8647 26.1187 55.4595C25.777 55.0493 25.2887 54.8442 24.6539 54.8442ZM36.9299 54.9175H34.8864V62H33.6706V54.9175H32.2351V54.3682L33.6706 53.9287V53.4819C33.6706 51.5093 34.5324 50.5229 36.2561 50.5229C36.6809 50.5229 37.1789 50.6084 37.7502 50.7793L37.4353 51.7534C36.9665 51.6021 36.5661 51.5264 36.2341 51.5264C35.7751 51.5264 35.4357 51.6802 35.216 51.9878C34.9963 52.2905 34.8864 52.7788 34.8864 53.4526V53.9727H36.9299V54.9175ZM45.0234 57.979C45.0234 59.2876 44.6938 60.3105 44.0347 61.0479C43.3755 61.7803 42.4648 62.1465 41.3027 62.1465C40.585 62.1465 39.9478 61.978 39.3911 61.6411C38.8345 61.3042 38.4048 60.8208 38.1021 60.1909C37.7993 59.561 37.6479 58.8237 37.6479 57.979C37.6479 56.6704 37.9751 55.6523 38.6294 54.9248C39.2837 54.1924 40.1919 53.8262 41.354 53.8262C42.4771 53.8262 43.3682 54.1997 44.0273 54.9468C44.6914 55.6938 45.0234 56.7046 45.0234 57.979ZM38.9077 57.979C38.9077 59.0044 39.1128 59.7856 39.5229 60.3228C39.9331 60.8599 40.5361 61.1284 41.332 61.1284C42.1279 61.1284 42.731 60.8623 43.1411 60.3301C43.5562 59.793 43.7637 59.0093 43.7637 57.979C43.7637 56.9585 43.5562 56.1846 43.1411 55.6572C42.731 55.125 42.123 54.8589 41.3174 54.8589C40.5215 54.8589 39.9209 55.1201 39.5156 55.6426C39.1104 56.165 38.9077 56.9438 38.9077 57.979ZM50.5242 53.8262C50.8807 53.8262 51.2005 53.8555 51.4837 53.9141L51.3152 55.042C50.9832 54.9688 50.6902 54.9321 50.4363 54.9321C49.7869 54.9321 49.2303 55.1958 48.7664 55.7231C48.3074 56.2505 48.0779 56.9072 48.0779 57.6934V62H46.8621V53.9727H47.8655L48.0047 55.4595H48.0633C48.3611 54.937 48.72 54.5342 49.1399 54.251C49.5599 53.9678 50.0213 53.8262 50.5242 53.8262ZM61.4599 59.8101C61.4599 60.5571 61.1815 61.1333 60.6249 61.5386C60.0683 61.9438 59.287 62.1465 58.2812 62.1465C57.2167 62.1465 56.3866 61.978 55.7909 61.6411V60.5132C56.1767 60.7085 56.5893 60.8623 57.0287 60.9746C57.473 61.0869 57.9003 61.1431 58.3104 61.1431C58.9452 61.1431 59.4335 61.043 59.7753 60.8428C60.1171 60.6377 60.288 60.3276 60.288 59.9126C60.288 59.6001 60.1513 59.334 59.8778 59.1143C59.6093 58.8896 59.0819 58.626 58.2958 58.3232C57.5487 58.0449 57.0165 57.8032 56.6991 57.5981C56.3866 57.3882 56.1522 57.1514 55.996 56.8877C55.8446 56.624 55.7689 56.3091 55.7689 55.9429C55.7689 55.2886 56.0351 54.7734 56.5673 54.3975C57.0995 54.0166 57.8295 53.8262 58.7572 53.8262C59.6215 53.8262 60.4662 54.002 61.2914 54.3535L60.8593 55.3423C60.0536 55.0103 59.3236 54.8442 58.6693 54.8442C58.0932 54.8442 57.6586 54.9346 57.3656 55.1152C57.0727 55.2959 56.9262 55.5449 56.9262 55.8623C56.9262 56.0771 56.9799 56.2603 57.0873 56.4116C57.1996 56.563 57.3778 56.707 57.622 56.8438C57.8661 56.9805 58.3349 57.1782 59.0282 57.437C59.9804 57.7837 60.6225 58.1328 60.9545 58.4844C61.2914 58.8359 61.4599 59.2778 61.4599 59.8101ZM70.0734 57.979C70.0734 59.2876 69.7438 60.3105 69.0847 61.0479C68.4255 61.7803 67.5148 62.1465 66.3527 62.1465C65.635 62.1465 64.9978 61.978 64.4411 61.6411C63.8845 61.3042 63.4548 60.8208 63.1521 60.1909C62.8493 59.561 62.6979 58.8237 62.6979 57.979C62.6979 56.6704 63.0251 55.6523 63.6794 54.9248C64.3337 54.1924 65.2419 53.8262 66.404 53.8262C67.5271 53.8262 68.4182 54.1997 69.0773 54.9468C69.7414 55.6938 70.0734 56.7046 70.0734 57.979ZM63.9577 57.979C63.9577 59.0044 64.1628 59.7856 64.5729 60.3228C64.9831 60.8599 65.5861 61.1284 66.382 61.1284C67.1779 61.1284 67.781 60.8623 68.1911 60.3301C68.6062 59.793 68.8137 59.0093 68.8137 57.979C68.8137 56.9585 68.6062 56.1846 68.1911 55.6572C67.781 55.125 67.173 54.8589 66.3674 54.8589C65.5715 54.8589 64.9709 55.1201 64.5656 55.6426C64.1604 56.165 63.9577 56.9438 63.9577 57.979ZM75.5742 53.8262C75.9307 53.8262 76.2505 53.8555 76.5337 53.9141L76.3652 55.042C76.0332 54.9688 75.7402 54.9321 75.4863 54.9321C74.8369 54.9321 74.2803 55.1958 73.8164 55.7231C73.3574 56.2505 73.1279 56.9072 73.1279 57.6934V62H71.9121V53.9727H72.9155L73.0547 55.4595H73.1133C73.4111 54.937 73.77 54.5342 74.1899 54.251C74.6099 53.9678 75.0713 53.8262 75.5742 53.8262ZM81.3973 53.8262C81.7537 53.8262 82.0735 53.8555 82.3567 53.9141L82.1883 55.042C81.8562 54.9688 81.5633 54.9321 81.3094 54.9321C80.66 54.9321 80.1033 55.1958 79.6395 55.7231C79.1805 56.2505 78.951 56.9072 78.951 57.6934V62H77.7352V53.9727H78.7386L78.8777 55.4595H78.9363C79.2342 54.937 79.5931 54.5342 80.013 54.251C80.4329 53.9678 80.8943 53.8262 81.3973 53.8262ZM90.4869 57.979C90.4869 59.2876 90.1573 60.3105 89.4981 61.0479C88.839 61.7803 87.9283 62.1465 86.7662 62.1465C86.0484 62.1465 85.4112 61.978 84.8546 61.6411C84.298 61.3042 83.8683 60.8208 83.5655 60.1909C83.2628 59.561 83.1114 58.8237 83.1114 57.979C83.1114 56.6704 83.4386 55.6523 84.0929 54.9248C84.7472 54.1924 85.6554 53.8262 86.8175 53.8262C87.9405 53.8262 88.8316 54.1997 89.4908 54.9468C90.1549 55.6938 90.4869 56.7046 90.4869 57.979ZM84.3712 57.979C84.3712 59.0044 84.5763 59.7856 84.9864 60.3228C85.3966 60.8599 85.9996 61.1284 86.7955 61.1284C87.5914 61.1284 88.1944 60.8623 88.6046 60.3301C89.0196 59.793 89.2271 59.0093 89.2271 57.979C89.2271 56.9585 89.0196 56.1846 88.6046 55.6572C88.1944 55.125 87.5865 54.8589 86.7809 54.8589C85.985 54.8589 85.3844 55.1201 84.9791 55.6426C84.5738 56.165 84.3712 56.9438 84.3712 57.979ZM98.8808 62L97.4086 57.2905C97.3158 57.0024 97.1425 56.3481 96.8886 55.3276H96.83C96.6347 56.1821 96.4638 56.8413 96.3173 57.3052L94.8012 62H93.3949L91.205 53.9727H92.4794C92.997 55.9893 93.39 57.5249 93.6586 58.5796C93.932 59.6343 94.0883 60.3447 94.1273 60.7109H94.1859C94.2396 60.4326 94.3251 60.0737 94.4423 59.6343C94.5644 59.1899 94.6693 58.8384 94.7572 58.5796L96.2294 53.9727H97.5478L98.9833 58.5796C99.2567 59.4194 99.4423 60.125 99.5399 60.6963H99.5985C99.6181 60.5205 99.6693 60.2495 99.7523 59.8833C99.8402 59.5171 100.35 57.5469 101.283 53.9727H102.543L100.324 62H98.8808ZM104.975 60.2568L105.085 60.4253C104.958 60.9136 104.775 61.48 104.535 62.1245C104.296 62.7739 104.047 63.377 103.788 63.9336H102.873C103.005 63.4258 103.149 62.7983 103.305 62.0513C103.466 61.3042 103.578 60.7061 103.642 60.2568H104.975ZM114.153 62H112.908V52.3979H109.516V51.292H117.544V52.3979H114.153V62ZM125.234 62L123.762 57.2905C123.67 57.0024 123.496 56.3481 123.242 55.3276H123.184C122.988 56.1821 122.817 56.8413 122.671 57.3052L121.155 62H119.749L117.559 53.9727H118.833C119.351 55.9893 119.744 57.5249 120.012 58.5796C120.286 59.6343 120.442 60.3447 120.481 60.7109H120.54C120.593 60.4326 120.679 60.0737 120.796 59.6343C120.918 59.1899 121.023 58.8384 121.111 58.5796L122.583 53.9727H123.901L125.337 58.5796C125.61 59.4194 125.796 60.125 125.894 60.6963H125.952C125.972 60.5205 126.023 60.2495 126.106 59.8833C126.194 59.5171 126.704 57.5469 127.637 53.9727H128.897L126.677 62H125.234ZM136.983 57.979C136.983 59.2876 136.653 60.3105 135.994 61.0479C135.335 61.7803 134.424 62.1465 133.262 62.1465C132.544 62.1465 131.907 61.978 131.35 61.6411C130.794 61.3042 130.364 60.8208 130.061 60.1909C129.759 59.561 129.607 58.8237 129.607 57.979C129.607 56.6704 129.934 55.6523 130.589 54.9248C131.243 54.1924 132.151 53.8262 133.313 53.8262C134.436 53.8262 135.328 54.1997 135.987 54.9468C136.651 55.6938 136.983 56.7046 136.983 57.979ZM130.867 57.979C130.867 59.0044 131.072 59.7856 131.482 60.3228C131.892 60.8599 132.496 61.1284 133.291 61.1284C134.087 61.1284 134.69 60.8623 135.1 60.3301C135.516 59.793 135.723 59.0093 135.723 57.979C135.723 56.9585 135.516 56.1846 135.1 55.6572C134.69 55.125 134.082 54.8589 133.277 54.8589C132.481 54.8589 131.88 55.1201 131.475 55.6426C131.07 56.165 130.867 56.9438 130.867 57.979ZM146.036 54.9175H143.993V62H142.777V54.9175H141.341V54.3682L142.777 53.9287V53.4819C142.777 51.5093 143.639 50.5229 145.362 50.5229C145.787 50.5229 146.285 50.6084 146.856 50.7793L146.542 51.7534C146.073 51.6021 145.672 51.5264 145.34 51.5264C144.881 51.5264 144.542 51.6802 144.322 51.9878C144.103 52.2905 143.993 52.7788 143.993 53.4526V53.9727H146.036V54.9175ZM154.13 57.979C154.13 59.2876 153.8 60.3105 153.141 61.0479C152.482 61.7803 151.571 62.1465 150.409 62.1465C149.691 62.1465 149.054 61.978 148.497 61.6411C147.941 61.3042 147.511 60.8208 147.208 60.1909C146.906 59.561 146.754 58.8237 146.754 57.979C146.754 56.6704 147.081 55.6523 147.736 54.9248C148.39 54.1924 149.298 53.8262 150.46 53.8262C151.583 53.8262 152.474 54.1997 153.134 54.9468C153.798 55.6938 154.13 56.7046 154.13 57.979ZM148.014 57.979C148.014 59.0044 148.219 59.7856 148.629 60.3228C149.039 60.8599 149.642 61.1284 150.438 61.1284C151.234 61.1284 151.837 60.8623 152.247 60.3301C152.662 59.793 152.87 59.0093 152.87 57.979C152.87 56.9585 152.662 56.1846 152.247 55.6572C151.837 55.125 151.229 54.8589 150.424 54.8589C149.628 54.8589 149.027 55.1201 148.622 55.6426C148.217 56.165 148.014 56.9438 148.014 57.979ZM159.63 53.8262C159.987 53.8262 160.307 53.8555 160.59 53.9141L160.421 55.042C160.089 54.9688 159.796 54.9321 159.543 54.9321C158.893 54.9321 158.337 55.1958 157.873 55.7231C157.414 56.2505 157.184 56.9072 157.184 57.6934V62H155.968V53.9727H156.972L157.111 55.4595H157.17C157.467 54.937 157.826 54.5342 158.246 54.251C158.666 53.9678 159.128 53.8262 159.63 53.8262ZM11.521 83V77.7778C11.521 77.1382 11.3843 76.6597 11.1108 76.3423C10.8374 76.02 10.4126 75.8589 9.83643 75.8589C9.07959 75.8589 8.52051 76.0762 8.15918 76.5107C7.79785 76.9453 7.61719 77.6143 7.61719 78.5176V83H6.40137V77.7778C6.40137 77.1382 6.26465 76.6597 5.99121 76.3423C5.71777 76.02 5.29053 75.8589 4.70947 75.8589C3.94775 75.8589 3.38867 76.0884 3.03223 76.5474C2.68066 77.0015 2.50488 77.7485 2.50488 78.7886V83H1.28906V74.9727H2.27783L2.47559 76.0713H2.53418C2.76367 75.6807 3.08594 75.3755 3.50098 75.1558C3.9209 74.936 4.38965 74.8262 4.90723 74.8262C6.16211 74.8262 6.98242 75.2803 7.36816 76.1885H7.42676C7.66602 75.7686 8.0127 75.4365 8.4668 75.1924C8.9209 74.9482 9.43848 74.8262 10.0195 74.8262C10.9277 74.8262 11.6064 75.0605 12.0557 75.5293C12.5098 75.9932 12.7368 76.7378 12.7368 77.7632V83H11.521ZM16.1648 83H14.949V74.9727H16.1648V83ZM14.8465 72.7974C14.8465 72.519 14.9148 72.3164 15.0516 72.1895C15.1883 72.0576 15.3592 71.9917 15.5643 71.9917C15.7596 71.9917 15.928 72.0576 16.0696 72.1895C16.2112 72.3213 16.282 72.5239 16.282 72.7974C16.282 73.0708 16.2112 73.2759 16.0696 73.4126C15.928 73.5444 15.7596 73.6104 15.5643 73.6104C15.3592 73.6104 15.1883 73.5444 15.0516 73.4126C14.9148 73.2759 14.8465 73.0708 14.8465 72.7974ZM22.1051 74.8262C22.4615 74.8262 22.7813 74.8555 23.0646 74.9141L22.8961 76.042C22.5641 75.9688 22.2711 75.9321 22.0172 75.9321C21.3678 75.9321 20.8111 76.1958 20.3473 76.7231C19.8883 77.2505 19.6588 77.9072 19.6588 78.6934V83H18.443V74.9727H19.4464L19.5855 76.4595H19.6441C19.942 75.937 20.3009 75.5342 20.7208 75.251C21.1407 74.9678 21.6021 74.8262 22.1051 74.8262ZM26.8588 82.1431C27.0736 82.1431 27.2812 82.1284 27.4813 82.0991C27.6815 82.0649 27.8402 82.0308 27.9574 81.9966V82.9268C27.8256 82.9902 27.6303 83.0415 27.3715 83.0806C27.1176 83.1245 26.8881 83.1465 26.683 83.1465C25.1303 83.1465 24.3539 82.3286 24.3539 80.6929V75.9175H23.204V75.3315L24.3539 74.8262L24.8666 73.1123H25.5697V74.9727H27.8988V75.9175H25.5697V80.6416C25.5697 81.125 25.6845 81.4961 25.914 81.7549C26.1435 82.0137 26.4584 82.1431 26.8588 82.1431ZM34.7619 83V77.8071C34.7619 77.1528 34.613 76.6646 34.3151 76.3423C34.0173 76.02 33.551 75.8589 32.9162 75.8589C32.0715 75.8589 31.4538 76.0884 31.0632 76.5474C30.6774 77.0063 30.4846 77.7583 30.4846 78.8032V83H29.2687V71.6035H30.4846V75.0532C30.4846 75.4683 30.465 75.8125 30.426 76.0859H30.4992C30.7385 75.7002 31.0778 75.3975 31.5173 75.1777C31.9616 74.9531 32.467 74.8408 33.0334 74.8408C34.0148 74.8408 34.7497 75.0752 35.238 75.5439C35.7312 76.0078 35.9777 76.7476 35.9777 77.7632V83H34.7619ZM39.457 81.2568L39.5669 81.4253C39.4399 81.9136 39.2568 82.48 39.0176 83.1245C38.7783 83.7739 38.5293 84.377 38.2705 84.9336H37.355C37.4868 84.4258 37.6309 83.7983 37.7871 83.0513C37.9482 82.3042 38.0605 81.7061 38.124 81.2568H39.457ZM48.6349 83H47.3897V73.3979H43.9986V72.292H52.026V73.3979H48.6349V83ZM58.6547 83V77.8071C58.6547 77.1528 58.5058 76.6646 58.2079 76.3423C57.9101 76.02 57.4437 75.8589 56.809 75.8589C55.9643 75.8589 55.3466 76.0884 54.956 76.5474C54.5702 77.0063 54.3773 77.7583 54.3773 78.8032V83H53.1615V71.6035H54.3773V75.0532C54.3773 75.4683 54.3578 75.8125 54.3187 76.0859H54.392C54.6312 75.7002 54.9706 75.3975 55.4101 75.1777C55.8544 74.9531 56.3598 74.8408 56.9262 74.8408C57.9076 74.8408 58.6425 75.0752 59.1308 75.5439C59.6239 76.0078 59.8705 76.7476 59.8705 77.7632V83H58.6547ZM65.7375 74.8262C66.0939 74.8262 66.4138 74.8555 66.697 74.9141L66.5285 76.042C66.1965 75.9688 65.9035 75.9321 65.6496 75.9321C65.0002 75.9321 64.4436 76.1958 63.9797 76.7231C63.5207 77.2505 63.2912 77.9072 63.2912 78.6934V83H62.0754V74.9727H63.0788L63.218 76.4595H63.2766C63.5744 75.937 63.9333 75.5342 64.3532 75.251C64.7731 74.9678 65.2346 74.8262 65.7375 74.8262ZM71.2896 83.1465C70.103 83.1465 69.1655 82.7852 68.4771 82.0625C67.7935 81.3398 67.4517 80.3364 67.4517 79.0522C67.4517 77.7583 67.769 76.7305 68.4038 75.9688C69.0435 75.207 69.9004 74.8262 70.9746 74.8262C71.9805 74.8262 72.7764 75.1582 73.3623 75.8223C73.9482 76.4814 74.2412 77.353 74.2412 78.437V79.2061H68.7114C68.7358 80.1484 68.9727 80.8638 69.4219 81.3521C69.876 81.8403 70.5132 82.0845 71.3335 82.0845C72.1978 82.0845 73.0522 81.9038 73.897 81.5425V82.6265C73.4673 82.812 73.0596 82.9438 72.6738 83.022C72.293 83.105 71.8315 83.1465 71.2896 83.1465ZM70.96 75.8442C70.3154 75.8442 69.8003 76.0542 69.4146 76.4741C69.0337 76.894 68.8091 77.4751 68.7407 78.2173H72.9375C72.9375 77.4507 72.7666 76.8647 72.4248 76.4595C72.083 76.0493 71.5947 75.8442 70.96 75.8442ZM79.4124 83.1465C78.2259 83.1465 77.2884 82.7852 76.5999 82.0625C75.9163 81.3398 75.5745 80.3364 75.5745 79.0522C75.5745 77.7583 75.8919 76.7305 76.5267 75.9688C77.1663 75.207 78.0232 74.8262 79.0975 74.8262C80.1033 74.8262 80.8992 75.1582 81.4852 75.8223C82.0711 76.4814 82.3641 77.353 82.3641 78.437V79.2061H76.8343C76.8587 80.1484 77.0955 80.8638 77.5447 81.3521C77.9988 81.8403 78.636 82.0845 79.4563 82.0845C80.3206 82.0845 81.1751 81.9038 82.0198 81.5425V82.6265C81.5901 82.812 81.1824 82.9438 80.7967 83.022C80.4158 83.105 79.9544 83.1465 79.4124 83.1465ZM79.0828 75.8442C78.4383 75.8442 77.9231 76.0542 77.5374 76.4741C77.1565 76.894 76.9319 77.4751 76.8636 78.2173H81.0603C81.0603 77.4507 80.8895 76.8647 80.5477 76.4595C80.2059 76.0493 79.7176 75.8442 79.0828 75.8442ZM91.3588 75.9175H89.3153V83H88.0995V75.9175H86.664V75.3682L88.0995 74.9287V74.4819C88.0995 72.5093 88.9613 71.5229 90.685 71.5229C91.1098 71.5229 91.6078 71.6084 92.1791 71.7793L91.8642 72.7534C91.3954 72.6021 90.995 72.5264 90.663 72.5264C90.204 72.5264 89.8646 72.6802 89.6449 72.9878C89.4252 73.2905 89.3153 73.7788 89.3153 74.4526V74.9727H91.3588V75.9175ZM99.4523 78.979C99.4523 80.2876 99.1228 81.3105 98.4636 82.0479C97.8044 82.7803 96.8938 83.1465 95.7316 83.1465C95.0139 83.1465 94.3767 82.978 93.82 82.6411C93.2634 82.3042 92.8337 81.8208 92.531 81.1909C92.2282 80.561 92.0769 79.8237 92.0769 78.979C92.0769 77.6704 92.404 76.6523 93.0583 75.9248C93.7126 75.1924 94.6208 74.8262 95.7829 74.8262C96.906 74.8262 97.7971 75.1997 98.4563 75.9468C99.1203 76.6938 99.4523 77.7046 99.4523 78.979ZM93.3366 78.979C93.3366 80.0044 93.5417 80.7856 93.9519 81.3228C94.362 81.8599 94.965 82.1284 95.7609 82.1284C96.5568 82.1284 97.1599 81.8623 97.57 81.3301C97.9851 80.793 98.1926 80.0093 98.1926 78.979C98.1926 77.9585 97.9851 77.1846 97.57 76.6572C97.1599 76.125 96.552 75.8589 95.7463 75.8589C94.9504 75.8589 94.3498 76.1201 93.9445 76.6426C93.5393 77.165 93.3366 77.9438 93.3366 78.979ZM104.953 74.8262C105.31 74.8262 105.629 74.8555 105.913 74.9141L105.744 76.042C105.412 75.9688 105.119 75.9321 104.865 75.9321C104.216 75.9321 103.659 76.1958 103.195 76.7231C102.736 77.2505 102.507 77.9072 102.507 78.6934V83H101.291V74.9727H102.294L102.434 76.4595H102.492C102.79 75.937 103.149 75.5342 103.569 75.251C103.989 74.9678 104.45 74.8262 104.953 74.8262ZM115.647 83L115.405 81.8574H115.347C114.946 82.3604 114.546 82.7021 114.146 82.8828C113.75 83.0586 113.254 83.1465 112.659 83.1465C111.863 83.1465 111.238 82.9414 110.784 82.5312C110.335 82.1211 110.11 81.5376 110.11 80.7808C110.11 79.1597 111.406 78.3101 113.999 78.2319L115.361 78.188V77.6899C115.361 77.0601 115.225 76.5962 114.951 76.2983C114.683 75.9956 114.251 75.8442 113.655 75.8442C112.986 75.8442 112.229 76.0493 111.384 76.4595L111.011 75.5293C111.406 75.3145 111.838 75.146 112.307 75.0239C112.781 74.9019 113.254 74.8408 113.728 74.8408C114.685 74.8408 115.393 75.0532 115.852 75.478C116.316 75.9028 116.548 76.584 116.548 77.5215V83H115.647ZM112.9 82.1431C113.657 82.1431 114.251 81.9355 114.68 81.5205C115.115 81.1055 115.332 80.5244 115.332 79.7773V79.0522L114.116 79.1035C113.15 79.1377 112.451 79.2891 112.022 79.5576C111.597 79.8213 111.384 80.2339 111.384 80.7954C111.384 81.2349 111.516 81.5693 111.78 81.7988C112.048 82.0283 112.422 82.1431 112.9 82.1431ZM7.84424 104L6.37207 99.2905C6.2793 99.0024 6.10596 98.3481 5.85205 97.3276H5.79346C5.59814 98.1821 5.42725 98.8413 5.28076 99.3052L3.76465 104H2.3584L0.168457 95.9727H1.44287C1.96045 97.9893 2.35352 99.5249 2.62207 100.58C2.89551 101.634 3.05176 102.345 3.09082 102.711H3.14941C3.20312 102.433 3.28857 102.074 3.40576 101.634C3.52783 101.19 3.63281 100.838 3.7207 100.58L5.19287 95.9727H6.51123L7.94678 100.58C8.22021 101.419 8.40576 102.125 8.50342 102.696H8.56201C8.58154 102.521 8.63281 102.25 8.71582 101.883C8.80371 101.517 9.31396 99.5469 10.2466 95.9727H11.5063L9.28711 104H7.84424ZM16.055 104.146C14.8685 104.146 13.931 103.785 13.2425 103.062C12.5589 102.34 12.2171 101.336 12.2171 100.052C12.2171 98.7583 12.5345 97.7305 13.1692 96.9688C13.8089 96.207 14.6658 95.8262 15.74 95.8262C16.7459 95.8262 17.5418 96.1582 18.1277 96.8223C18.7137 97.4814 19.0066 98.353 19.0066 99.437V100.206H13.4769C13.5013 101.148 13.7381 101.864 14.1873 102.352C14.6414 102.84 15.2786 103.084 16.0989 103.084C16.9632 103.084 17.8177 102.904 18.6624 102.542V103.626C18.2327 103.812 17.825 103.944 17.4393 104.022C17.0584 104.105 16.597 104.146 16.055 104.146ZM15.7254 96.8442C15.0809 96.8442 14.5657 97.0542 14.18 97.4741C13.7991 97.894 13.5745 98.4751 13.5062 99.2173H17.7029C17.7029 98.4507 17.532 97.8647 17.1902 97.4595C16.8484 97.0493 16.3602 96.8442 15.7254 96.8442ZM26.2506 102.923H26.1847C25.6231 103.739 24.7833 104.146 23.6651 104.146C22.6153 104.146 21.7975 103.788 21.2115 103.07C20.6305 102.352 20.3399 101.332 20.3399 100.008C20.3399 98.6851 20.6329 97.6572 21.2188 96.9248C21.8048 96.1924 22.6202 95.8262 23.6651 95.8262C24.754 95.8262 25.589 96.2217 26.17 97.0127H26.2652L26.214 96.4341L26.1847 95.8701V92.6035H27.4005V104H26.4117L26.2506 102.923ZM23.8189 103.128C24.649 103.128 25.2496 102.904 25.6207 102.455C25.9967 102 26.1847 101.271 26.1847 100.265V100.008C26.1847 98.8706 25.9942 98.0601 25.6134 97.5767C25.2374 97.0884 24.6344 96.8442 23.8043 96.8442C23.0914 96.8442 22.5445 97.1226 22.1637 97.6792C21.7877 98.231 21.5997 99.0122 21.5997 100.023C21.5997 101.048 21.7877 101.822 22.1637 102.345C22.5396 102.867 23.0914 103.128 23.8189 103.128ZM35.1498 102.923H35.0839C34.5224 103.739 33.6825 104.146 32.5644 104.146C31.5146 104.146 30.6967 103.788 30.1107 103.07C29.5297 102.352 29.2392 101.332 29.2392 100.008C29.2392 98.6851 29.5321 97.6572 30.1181 96.9248C30.704 96.1924 31.5194 95.8262 32.5644 95.8262C33.6532 95.8262 34.4882 96.2217 35.0692 97.0127H35.1645L35.1132 96.4341L35.0839 95.8701V92.6035H36.2997V104H35.3109L35.1498 102.923ZM32.7182 103.128C33.5482 103.128 34.1488 102.904 34.5199 102.455C34.8959 102 35.0839 101.271 35.0839 100.265V100.008C35.0839 98.8706 34.8935 98.0601 34.5126 97.5767C34.1366 97.0884 33.5336 96.8442 32.7035 96.8442C31.9906 96.8442 31.4438 97.1226 31.0629 97.6792C30.6869 98.231 30.4989 99.0122 30.4989 100.023C30.4989 101.048 30.6869 101.822 31.0629 102.345C31.4389 102.867 31.9906 103.128 32.7182 103.128ZM39.801 104H38.5852V95.9727H39.801V104ZM38.4826 93.7974C38.4826 93.519 38.551 93.3164 38.6877 93.1895C38.8244 93.0576 38.9953 92.9917 39.2004 92.9917C39.3957 92.9917 39.5642 93.0576 39.7058 93.1895C39.8474 93.3213 39.9182 93.5239 39.9182 93.7974C39.9182 94.0708 39.8474 94.2759 39.7058 94.4126C39.5642 94.5444 39.3957 94.6104 39.2004 94.6104C38.9953 94.6104 38.8244 94.5444 38.6877 94.4126C38.551 94.2759 38.4826 94.0708 38.4826 93.7974ZM47.5723 104V98.8071C47.5723 98.1528 47.4233 97.6646 47.1255 97.3423C46.8276 97.02 46.3613 96.8589 45.7266 96.8589C44.8867 96.8589 44.2715 97.0859 43.8809 97.54C43.4902 97.9941 43.2949 98.7437 43.2949 99.7886V104H42.0791V95.9727H43.0679L43.2656 97.0713H43.3242C43.5732 96.6758 43.9224 96.3706 44.3716 96.1558C44.8208 95.936 45.3213 95.8262 45.873 95.8262C46.8398 95.8262 47.5674 96.0605 48.0557 96.5293C48.5439 96.9932 48.7881 97.7378 48.7881 98.7632V104H47.5723ZM57.5628 95.9727V96.7417L56.076 96.9175C56.2127 97.0884 56.3348 97.313 56.4422 97.5913C56.5496 97.8647 56.6033 98.1748 56.6033 98.5215C56.6033 99.3076 56.3348 99.9351 55.7977 100.404C55.2605 100.873 54.5232 101.107 53.5857 101.107C53.3465 101.107 53.1219 101.087 52.9119 101.048C52.3943 101.322 52.1355 101.666 52.1355 102.081C52.1355 102.301 52.2259 102.464 52.4065 102.572C52.5872 102.674 52.8973 102.726 53.3367 102.726H54.7576C55.6268 102.726 56.2933 102.909 56.7571 103.275C57.2259 103.641 57.4603 104.173 57.4603 104.872C57.4603 105.76 57.1038 106.437 56.3909 106.9C55.678 107.369 54.638 107.604 53.2708 107.604C52.221 107.604 51.4104 107.408 50.8392 107.018C50.2728 106.627 49.9896 106.075 49.9896 105.362C49.9896 104.874 50.1458 104.452 50.4583 104.095C50.7708 103.739 51.2103 103.497 51.7767 103.37C51.5716 103.277 51.3982 103.133 51.2566 102.938C51.1199 102.743 51.0516 102.516 51.0516 102.257C51.0516 101.964 51.1297 101.708 51.2859 101.488C51.4422 101.268 51.6888 101.056 52.0257 100.851C51.6106 100.68 51.2713 100.389 51.0076 99.979C50.7488 99.5688 50.6194 99.1001 50.6194 98.5728C50.6194 97.6938 50.8831 97.0176 51.4104 96.5439C51.9378 96.0654 52.6849 95.8262 53.6517 95.8262C54.0716 95.8262 54.45 95.875 54.7869 95.9727H57.5628ZM51.1614 105.348C51.1614 105.782 51.3445 106.112 51.7107 106.336C52.077 106.561 52.6019 106.673 53.2854 106.673C54.306 106.673 55.0604 106.52 55.5486 106.212C56.0418 105.909 56.2884 105.497 56.2884 104.974C56.2884 104.54 56.1541 104.237 55.8855 104.066C55.617 103.9 55.1116 103.817 54.3694 103.817H52.9119C52.3602 103.817 51.9305 103.949 51.6229 104.212C51.3152 104.476 51.1614 104.854 51.1614 105.348ZM51.8206 98.5435C51.8206 99.105 51.9793 99.5298 52.2967 99.8179C52.6141 100.106 53.056 100.25 53.6224 100.25C54.8089 100.25 55.4021 99.6738 55.4021 98.5215C55.4021 97.3154 54.8016 96.7124 53.6004 96.7124C53.0291 96.7124 52.5896 96.8662 52.282 97.1738C51.9744 97.4814 51.8206 97.938 51.8206 98.5435ZM60.1852 102.257L60.295 102.425C60.1681 102.914 59.985 103.48 59.7457 104.125C59.5064 104.774 59.2574 105.377 58.9986 105.934H58.0831C58.2149 105.426 58.359 104.798 58.5152 104.051C58.6764 103.304 58.7887 102.706 58.8521 102.257H60.1852ZM72.798 104L71.465 100.594H67.173L65.8547 104H64.5949L68.8283 93.248H69.8757L74.0871 104H72.798ZM71.0769 99.4736L69.8317 96.1558C69.6706 95.7358 69.5046 95.2207 69.3337 94.6104C69.2263 95.0791 69.0725 95.5942 68.8723 96.1558L67.6125 99.4736H71.0769ZM80.5693 104V98.8071C80.5693 98.1528 80.4204 97.6646 80.1226 97.3423C79.8247 97.02 79.3584 96.8589 78.7236 96.8589C77.8838 96.8589 77.2686 97.0859 76.8779 97.54C76.4873 97.9941 76.292 98.7437 76.292 99.7886V104H75.0762V95.9727H76.0649L76.2627 97.0713H76.3213C76.5703 96.6758 76.9194 96.3706 77.3687 96.1558C77.8179 95.936 78.3184 95.8262 78.8701 95.8262C79.8369 95.8262 80.5645 96.0605 81.0527 96.5293C81.541 96.9932 81.7852 97.7378 81.7852 98.7632V104H80.5693ZM89.4539 102.923H89.388C88.8265 103.739 87.9866 104.146 86.8685 104.146C85.8186 104.146 85.0008 103.788 84.4148 103.07C83.8338 102.352 83.5433 101.332 83.5433 100.008C83.5433 98.6851 83.8362 97.6572 84.4222 96.9248C85.0081 96.1924 85.8235 95.8262 86.8685 95.8262C87.9573 95.8262 88.7923 96.2217 89.3733 97.0127H89.4686L89.4173 96.4341L89.388 95.8701V92.6035H90.6038V104H89.615L89.4539 102.923ZM87.0223 103.128C87.8523 103.128 88.4529 102.904 88.824 102.455C89.2 102 89.388 101.271 89.388 100.265V100.008C89.388 98.8706 89.1976 98.0601 88.8167 97.5767C88.4407 97.0884 87.8377 96.8442 87.0076 96.8442C86.2947 96.8442 85.7478 97.1226 85.367 97.6792C84.991 98.231 84.803 99.0122 84.803 100.023C84.803 101.048 84.991 101.822 85.367 102.345C85.743 102.867 86.2947 103.128 87.0223 103.128ZM100.104 96.9175H98.0604V104H96.8446V96.9175H95.4091V96.3682L96.8446 95.9287V95.4819C96.8446 93.5093 97.7064 92.5229 99.4301 92.5229C99.8549 92.5229 100.353 92.6084 100.924 92.7793L100.609 93.7534C100.141 93.6021 99.7401 93.5264 99.4081 93.5264C98.9491 93.5264 98.6098 93.6802 98.39 93.9878C98.1703 94.2905 98.0604 94.7788 98.0604 95.4526V95.9727H100.104V96.9175ZM108.197 99.979C108.197 101.288 107.868 102.311 107.209 103.048C106.55 103.78 105.639 104.146 104.477 104.146C103.759 104.146 103.122 103.978 102.565 103.641C102.008 103.304 101.579 102.821 101.276 102.191C100.973 101.561 100.822 100.824 100.822 99.979C100.822 98.6704 101.149 97.6523 101.803 96.9248C102.458 96.1924 103.366 95.8262 104.528 95.8262C105.651 95.8262 106.542 96.1997 107.201 96.9468C107.865 97.6938 108.197 98.7046 108.197 99.979ZM102.082 99.979C102.082 101.004 102.287 101.786 102.697 102.323C103.107 102.86 103.71 103.128 104.506 103.128C105.302 103.128 105.905 102.862 106.315 102.33C106.73 101.793 106.938 101.009 106.938 99.979C106.938 98.9585 106.73 98.1846 106.315 97.6572C105.905 97.125 105.297 96.8589 104.491 96.8589C103.696 96.8589 103.095 97.1201 102.69 97.6426C102.284 98.165 102.082 98.9438 102.082 99.979ZM111.179 95.9727V101.18C111.179 101.834 111.328 102.323 111.625 102.645C111.923 102.967 112.39 103.128 113.024 103.128C113.864 103.128 114.477 102.899 114.863 102.44C115.253 101.981 115.449 101.231 115.449 100.191V95.9727H116.665V104H115.661L115.485 102.923H115.419C115.17 103.319 114.824 103.622 114.379 103.832C113.94 104.042 113.437 104.146 112.871 104.146C111.894 104.146 111.162 103.915 110.673 103.451C110.19 102.987 109.948 102.245 109.948 101.224V95.9727H111.179ZM122.612 95.8262C122.969 95.8262 123.288 95.8555 123.572 95.9141L123.403 97.042C123.071 96.9688 122.778 96.9321 122.524 96.9321C121.875 96.9321 121.318 97.1958 120.854 97.7231C120.395 98.2505 120.166 98.9072 120.166 99.6934V104H118.95V95.9727H119.953L120.093 97.4595H120.151C120.449 96.937 120.808 96.5342 121.228 96.251C121.648 95.9678 122.109 95.8262 122.612 95.8262ZM131.988 96.9175H129.944V104H128.728V96.9175H127.293V96.3682L128.728 95.9287V95.4819C128.728 93.5093 129.59 92.5229 131.314 92.5229C131.739 92.5229 132.237 92.6084 132.808 92.7793L132.493 93.7534C132.024 93.6021 131.624 93.5264 131.292 93.5264C130.833 93.5264 130.494 93.6802 130.274 93.9878C130.054 94.2905 129.944 94.7788 129.944 95.4526V95.9727H131.988V96.9175ZM140.081 99.979C140.081 101.288 139.752 102.311 139.092 103.048C138.433 103.78 137.523 104.146 136.361 104.146C135.643 104.146 135.006 103.978 134.449 103.641C133.892 103.304 133.463 102.821 133.16 102.191C132.857 101.561 132.706 100.824 132.706 99.979C132.706 98.6704 133.033 97.6523 133.687 96.9248C134.342 96.1924 135.25 95.8262 136.412 95.8262C137.535 95.8262 138.426 96.1997 139.085 96.9468C139.749 97.6938 140.081 98.7046 140.081 99.979ZM133.966 99.979C133.966 101.004 134.171 101.786 134.581 102.323C134.991 102.86 135.594 103.128 136.39 103.128C137.186 103.128 137.789 102.862 138.199 102.33C138.614 101.793 138.821 101.009 138.821 99.979C138.821 98.9585 138.614 98.1846 138.199 97.6572C137.789 97.125 137.181 96.8589 136.375 96.8589C135.579 96.8589 134.979 97.1201 134.573 97.6426C134.168 98.165 133.966 98.9438 133.966 99.979ZM145.582 95.8262C145.938 95.8262 146.258 95.8555 146.542 95.9141L146.373 97.042C146.041 96.9688 145.748 96.9321 145.494 96.9321C144.845 96.9321 144.288 97.1958 143.824 97.7231C143.365 98.2505 143.136 98.9072 143.136 99.6934V104H141.92V95.9727H142.923L143.062 97.4595H143.121C143.419 96.937 143.778 96.5342 144.198 96.251C144.618 95.9678 145.079 95.8262 145.582 95.8262ZM6.75293 123.923H6.68701C6.12549 124.739 5.28564 125.146 4.16748 125.146C3.11768 125.146 2.2998 124.788 1.71387 124.07C1.13281 123.352 0.842285 122.332 0.842285 121.008C0.842285 119.685 1.13525 118.657 1.72119 117.925C2.30713 117.192 3.12256 116.826 4.16748 116.826C5.25635 116.826 6.09131 117.222 6.67236 118.013H6.76758L6.71631 117.434L6.68701 116.87V113.604H7.90283V125H6.91406L6.75293 123.923ZM4.32129 124.128C5.15137 124.128 5.75195 123.904 6.12305 123.455C6.49902 123 6.68701 122.271 6.68701 121.265V121.008C6.68701 119.871 6.49658 119.06 6.11572 118.577C5.73975 118.088 5.13672 117.844 4.30664 117.844C3.59375 117.844 3.04688 118.123 2.66602 118.679C2.29004 119.231 2.10205 120.012 2.10205 121.023C2.10205 122.048 2.29004 122.822 2.66602 123.345C3.04199 123.867 3.59375 124.128 4.32129 124.128ZM13.5794 125.146C12.3929 125.146 11.4554 124.785 10.7669 124.062C10.0833 123.34 9.7415 122.336 9.7415 121.052C9.7415 119.758 10.0589 118.73 10.6937 117.969C11.3333 117.207 12.1902 116.826 13.2645 116.826C14.2703 116.826 15.0662 117.158 15.6521 117.822C16.2381 118.481 16.5311 119.353 16.5311 120.437V121.206H11.0013C11.0257 122.148 11.2625 122.864 11.7117 123.352C12.1658 123.84 12.803 124.084 13.6233 124.084C14.4876 124.084 15.3421 123.904 16.1868 123.542V124.626C15.7571 124.812 15.3494 124.944 14.9637 125.022C14.5828 125.105 14.1214 125.146 13.5794 125.146ZM13.2498 117.844C12.6053 117.844 12.0901 118.054 11.7044 118.474C11.3235 118.894 11.0989 119.475 11.0306 120.217H15.2273C15.2273 119.451 15.0564 118.865 14.7146 118.459C14.3729 118.049 13.8846 117.844 13.2498 117.844ZM23.2477 125L23.006 123.857H22.9474C22.547 124.36 22.1466 124.702 21.7462 124.883C21.3507 125.059 20.8551 125.146 20.2594 125.146C19.4635 125.146 18.8385 124.941 18.3844 124.531C17.9352 124.121 17.7105 123.538 17.7105 122.781C17.7105 121.16 19.0069 120.31 21.5997 120.232L22.962 120.188V119.69C22.962 119.06 22.8253 118.596 22.5519 118.298C22.2833 117.996 21.8512 117.844 21.2555 117.844C20.5865 117.844 19.8297 118.049 18.985 118.459L18.6114 117.529C19.0069 117.314 19.4391 117.146 19.9078 117.024C20.3814 116.902 20.8551 116.841 21.3287 116.841C22.2857 116.841 22.9937 117.053 23.4527 117.478C23.9166 117.903 24.1485 118.584 24.1485 119.521V125H23.2477ZM20.5011 124.143C21.2579 124.143 21.8512 123.936 22.2809 123.521C22.7154 123.105 22.9327 122.524 22.9327 121.777V121.052L21.7169 121.104C20.7501 121.138 20.0519 121.289 19.6222 121.558C19.1974 121.821 18.985 122.234 18.985 122.795C18.985 123.235 19.1168 123.569 19.3805 123.799C19.649 124.028 20.0226 124.143 20.5011 124.143ZM28.9535 124.143C29.1684 124.143 29.3759 124.128 29.5761 124.099C29.7763 124.065 29.935 124.031 30.0521 123.997V124.927C29.9203 124.99 29.725 125.042 29.4662 125.081C29.2123 125.125 28.9828 125.146 28.7777 125.146C27.225 125.146 26.4486 124.329 26.4486 122.693V117.917H25.2987V117.332L26.4486 116.826L26.9613 115.112H27.6645V116.973H29.9936V117.917H27.6645V122.642C27.6645 123.125 27.7792 123.496 28.0087 123.755C28.2382 124.014 28.5531 124.143 28.9535 124.143ZM36.8566 125V119.807C36.8566 119.153 36.7077 118.665 36.4099 118.342C36.112 118.02 35.6457 117.859 35.0109 117.859C34.1662 117.859 33.5485 118.088 33.1579 118.547C32.7722 119.006 32.5793 119.758 32.5793 120.803V125H31.3635V113.604H32.5793V117.053C32.5793 117.468 32.5598 117.812 32.5207 118.086H32.5939C32.8332 117.7 33.1726 117.397 33.612 117.178C34.0563 116.953 34.5617 116.841 35.1281 116.841C36.1096 116.841 36.8444 117.075 37.3327 117.544C37.8259 118.008 38.0725 118.748 38.0725 119.763V125H36.8566Z" fill="#2A2921"/>
</svg>
