<svg width="169" height="136" viewBox="0 0 169 136" fill="none" xmlns="http://www.w3.org/2000/svg">
<path d="M12.7246 28H10.2539L3.91602 17.9121V28H1.44531V13.7812H3.91602L10.2734 23.9082V13.7812H12.7246V28ZM21.4164 26.9648C20.7198 27.7852 19.7302 28.1953 18.4477 28.1953C17.3018 28.1953 16.4327 27.86 15.8402 27.1895C15.2543 26.5189 14.9613 25.5488 14.9613 24.2793V17.4336H17.3344V24.25C17.3344 25.5911 17.891 26.2617 19.0043 26.2617C20.1566 26.2617 20.9346 25.8483 21.3383 25.0215V17.4336H23.7113V28H21.475L21.4164 26.9648ZM31.2605 19.6016C30.948 19.5495 30.6258 19.5234 30.2938 19.5234C29.2065 19.5234 28.4741 19.9401 28.0965 20.7734V28H25.7234V17.4336H27.9891L28.0477 18.6152C28.6206 17.6973 29.4148 17.2383 30.4305 17.2383C30.769 17.2383 31.049 17.2839 31.2703 17.375L31.2605 19.6016ZM38.2824 25.1289C38.2824 24.7057 38.1066 24.3835 37.7551 24.1621C37.41 23.9408 36.8339 23.7454 36.0266 23.5762C35.2193 23.4069 34.5454 23.1921 34.0051 22.9316C32.8202 22.3587 32.2277 21.5286 32.2277 20.4414C32.2277 19.5299 32.6118 18.7682 33.3801 18.1562C34.1483 17.5443 35.1249 17.2383 36.3098 17.2383C37.5728 17.2383 38.5917 17.5508 39.3664 18.1758C40.1477 18.8008 40.5383 19.6113 40.5383 20.6074H38.1652C38.1652 20.1517 37.996 19.7741 37.6574 19.4746C37.3189 19.1686 36.8697 19.0156 36.3098 19.0156C35.7889 19.0156 35.3625 19.1361 35.0305 19.377C34.7049 19.6178 34.5422 19.9401 34.5422 20.3438C34.5422 20.7083 34.6952 20.9915 35.0012 21.1934C35.3072 21.3952 35.9257 21.6003 36.8566 21.8086C37.7876 22.0104 38.5168 22.2546 39.0441 22.541C39.578 22.821 39.9719 23.1595 40.2258 23.5566C40.4862 23.9538 40.6164 24.4355 40.6164 25.002C40.6164 25.9525 40.2225 26.724 39.4348 27.3164C38.647 27.9023 37.6151 28.1953 36.3391 28.1953C35.4732 28.1953 34.7017 28.0391 34.0246 27.7266C33.3475 27.4141 32.8202 26.9844 32.4426 26.4375C32.065 25.8906 31.8762 25.3014 31.8762 24.6699H34.1809C34.2134 25.2298 34.425 25.6628 34.8156 25.9688C35.2062 26.2682 35.7238 26.418 36.3684 26.418C36.9934 26.418 37.4686 26.3008 37.7941 26.0664C38.1197 25.8255 38.2824 25.513 38.2824 25.1289ZM46.9449 28.1953C45.441 28.1953 44.2203 27.7233 43.2828 26.7793C42.3518 25.8288 41.8863 24.5658 41.8863 22.9902V22.6973C41.8863 21.6426 42.0882 20.7018 42.4918 19.875C42.902 19.0417 43.4749 18.3939 44.2105 17.9316C44.9462 17.4694 45.7665 17.2383 46.6715 17.2383C48.1103 17.2383 49.2203 17.6973 50.0016 18.6152C50.7893 19.5332 51.1832 20.832 51.1832 22.5117V23.4688H44.2789C44.3505 24.3411 44.6402 25.0312 45.148 25.5391C45.6624 26.0469 46.3069 26.3008 47.0816 26.3008C48.1689 26.3008 49.0543 25.8613 49.7379 24.9824L51.0172 26.2031C50.594 26.8346 50.0276 27.3262 49.318 27.6777C48.6148 28.0228 47.8238 28.1953 46.9449 28.1953ZM46.6617 19.1426C46.0107 19.1426 45.4833 19.3704 45.0797 19.8262C44.6826 20.2819 44.4286 20.9167 44.318 21.7305H48.8395V21.5547C48.7874 20.7604 48.5758 20.1615 48.2047 19.7578C47.8336 19.3477 47.3193 19.1426 46.6617 19.1426ZM58.166 19.6016C57.8535 19.5495 57.5312 19.5234 57.1992 19.5234C56.112 19.5234 55.3796 19.9401 55.002 20.7734V28H52.6289V17.4336H54.8945L54.9531 18.6152C55.526 17.6973 56.3203 17.2383 57.3359 17.2383C57.6745 17.2383 57.9544 17.2839 58.1758 17.375L58.166 19.6016ZM63.1371 24.6016L65.2855 17.4336H67.8148L63.6156 29.6016C62.9711 31.3789 61.8773 32.2676 60.3344 32.2676C59.9893 32.2676 59.6085 32.209 59.1918 32.0918V30.2559L59.641 30.2852C60.24 30.2852 60.6892 30.1745 60.9887 29.9531C61.2947 29.7383 61.5355 29.3737 61.7113 28.8594L62.0531 27.9512L58.3422 17.4336H60.9008L63.1371 24.6016ZM78.8215 22.5215H76.0676V28H73.5969V13.7812H78.5969C80.2375 13.7812 81.5038 14.1491 82.3957 14.8848C83.2876 15.6204 83.7336 16.6849 83.7336 18.0781C83.7336 19.0286 83.5025 19.8262 83.0402 20.4707C82.5845 21.1087 81.9465 21.6003 81.1262 21.9453L84.3195 27.873V28H81.673L78.8215 22.5215ZM76.0676 20.5391H78.6066C79.44 20.5391 80.091 20.3307 80.5598 19.9141C81.0285 19.4909 81.2629 18.9147 81.2629 18.1855C81.2629 17.4238 81.0448 16.8346 80.6086 16.418C80.1789 16.0013 79.5344 15.7865 78.675 15.7734H76.0676V20.5391ZM87.7867 18.5859C88.5615 17.6875 89.5413 17.2383 90.7262 17.2383C92.9788 17.2383 94.1214 18.5241 94.1539 21.0957V28H91.7809V21.1836C91.7809 20.4544 91.6214 19.9401 91.3023 19.6406C90.9898 19.3346 90.5276 19.1816 89.9156 19.1816C88.9651 19.1816 88.2555 19.6048 87.7867 20.4512V28H85.4137V13H87.7867V18.5859ZM99.8574 24.6016L102.006 17.4336H104.535L100.336 29.6016C99.6914 31.3789 98.5977 32.2676 97.0547 32.2676C96.7096 32.2676 96.3288 32.209 95.9121 32.0918V30.2559L96.3613 30.2852C96.9603 30.2852 97.4095 30.1745 97.709 29.9531C98.015 29.7383 98.2559 29.3737 98.4316 28.8594L98.7734 27.9512L95.0625 17.4336H97.6211L99.8574 24.6016ZM107.739 17.4336L107.807 18.5371C108.549 17.6712 109.565 17.2383 110.854 17.2383C112.267 17.2383 113.233 17.7786 113.754 18.8594C114.523 17.7786 115.603 17.2383 116.996 17.2383C118.162 17.2383 119.028 17.5605 119.594 18.2051C120.167 18.8496 120.46 19.8001 120.473 21.0566V28H118.1V21.125C118.1 20.4544 117.954 19.9629 117.661 19.6504C117.368 19.3379 116.883 19.1816 116.205 19.1816C115.665 19.1816 115.222 19.3281 114.877 19.6211C114.539 19.9076 114.301 20.2852 114.164 20.7539L114.174 28H111.801V21.0469C111.769 19.8034 111.134 19.1816 109.897 19.1816C108.946 19.1816 108.273 19.569 107.875 20.3438V28H105.502V17.4336H107.739ZM127.163 28.1953C125.659 28.1953 124.438 27.7233 123.501 26.7793C122.57 25.8288 122.104 24.5658 122.104 22.9902V22.6973C122.104 21.6426 122.306 20.7018 122.71 19.875C123.12 19.0417 123.693 18.3939 124.429 17.9316C125.164 17.4694 125.985 17.2383 126.889 17.2383C128.328 17.2383 129.438 17.6973 130.22 18.6152C131.007 19.5332 131.401 20.832 131.401 22.5117V23.4688H124.497C124.568 24.3411 124.858 25.0312 125.366 25.5391C125.88 26.0469 126.525 26.3008 127.3 26.3008C128.387 26.3008 129.272 25.8613 129.956 24.9824L131.235 26.2031C130.812 26.8346 130.246 27.3262 129.536 27.6777C128.833 28.0228 128.042 28.1953 127.163 28.1953ZM126.88 19.1426C126.229 19.1426 125.701 19.3704 125.298 19.8262C124.901 20.2819 124.647 20.9167 124.536 21.7305H129.057V21.5547C129.005 20.7604 128.794 20.1615 128.423 19.7578C128.052 19.3477 127.537 19.1426 126.88 19.1426ZM138.775 25.1289C138.775 24.7057 138.599 24.3835 138.247 24.1621C137.902 23.9408 137.326 23.7454 136.519 23.5762C135.711 23.4069 135.038 23.1921 134.497 22.9316C133.312 22.3587 132.72 21.5286 132.72 20.4414C132.72 19.5299 133.104 18.7682 133.872 18.1562C134.64 17.5443 135.617 17.2383 136.802 17.2383C138.065 17.2383 139.084 17.5508 139.859 18.1758C140.64 18.8008 141.03 19.6113 141.03 20.6074H138.657C138.657 20.1517 138.488 19.7741 138.15 19.4746C137.811 19.1686 137.362 19.0156 136.802 19.0156C136.281 19.0156 135.855 19.1361 135.523 19.377C135.197 19.6178 135.034 19.9401 135.034 20.3438C135.034 20.7083 135.187 20.9915 135.493 21.1934C135.799 21.3952 136.418 21.6003 137.349 21.8086C138.28 22.0104 139.009 22.2546 139.536 22.541C140.07 22.821 140.464 23.1595 140.718 23.5566C140.978 23.9538 141.109 24.4355 141.109 25.002C141.109 25.9525 140.715 26.724 139.927 27.3164C139.139 27.9023 138.107 28.1953 136.831 28.1953C135.965 28.1953 135.194 28.0391 134.517 27.7266C133.84 27.4141 133.312 26.9844 132.935 26.4375C132.557 25.8906 132.368 25.3014 132.368 24.6699H134.673C134.706 25.2298 134.917 25.6628 135.308 25.9688C135.698 26.2682 136.216 26.418 136.861 26.418C137.486 26.418 137.961 26.3008 138.286 26.0664C138.612 25.8255 138.775 25.513 138.775 25.1289Z" fill="#2A2921"/>
<path d="M5.73 61.12C4.75 61.12 3.895 60.9 3.165 60.46C2.445 60.02 1.89 59.395 1.5 58.585C1.11 57.775 0.915 56.82 0.915 55.72C0.915 54.61 1.105 53.65 1.485 52.84C1.875 52.02 2.43 51.395 3.15 50.965C3.88 50.525 4.74 50.305 5.73 50.305C6.72 50.305 7.575 50.525 8.295 50.965C9.025 51.395 9.58 52.02 9.96 52.84C10.35 53.65 10.545 54.605 10.545 55.705C10.545 56.805 10.35 57.765 9.96 58.585C9.57 59.395 9.01 60.02 8.28 60.46C7.56 60.9 6.71 61.12 5.73 61.12ZM5.73 60.07C6.85 60.07 7.72 59.695 8.34 58.945C8.97 58.185 9.285 57.105 9.285 55.705C9.285 54.305 8.975 53.23 8.355 52.48C7.735 51.73 6.86 51.355 5.73 51.355C4.61 51.355 3.735 51.735 3.105 52.495C2.485 53.245 2.175 54.315 2.175 55.705C2.175 57.095 2.485 58.17 3.105 58.93C3.735 59.69 4.61 60.07 5.73 60.07ZM15.9551 53.515C17.7051 53.515 18.5801 54.48 18.5801 56.41V60.475C18.5801 60.665 18.5251 60.815 18.4151 60.925C18.3151 61.025 18.1701 61.075 17.9801 61.075C17.7901 61.075 17.6401 61.025 17.5301 60.925C17.4201 60.815 17.3651 60.665 17.3651 60.475V56.485C17.3651 55.805 17.2301 55.31 16.9601 55C16.7001 54.69 16.2801 54.535 15.7001 54.535C15.0301 54.535 14.4951 54.74 14.0951 55.15C13.6951 55.56 13.4951 56.115 13.4951 56.815V60.475C13.4951 60.665 13.4401 60.815 13.3301 60.925C13.2301 61.025 13.0851 61.075 12.8951 61.075C12.7051 61.075 12.5551 61.025 12.4451 60.925C12.3351 60.815 12.2801 60.665 12.2801 60.475V54.145C12.2801 53.965 12.3351 53.82 12.4451 53.71C12.5551 53.6 12.7051 53.545 12.8951 53.545C13.0751 53.545 13.2151 53.6 13.3151 53.71C13.4251 53.82 13.4801 53.96 13.4801 54.13V54.895C13.7201 54.445 14.0551 54.105 14.4851 53.875C14.9151 53.635 15.4051 53.515 15.9551 53.515ZM26.1605 59.305C26.2705 59.305 26.3655 59.35 26.4455 59.44C26.5255 59.53 26.5655 59.645 26.5655 59.785C26.5655 60.035 26.3905 60.265 26.0405 60.475C25.6805 60.685 25.3005 60.845 24.9005 60.955C24.5005 61.055 24.1105 61.105 23.7305 61.105C22.6005 61.105 21.7055 60.77 21.0455 60.1C20.3955 59.43 20.0705 58.505 20.0705 57.325C20.0705 56.575 20.2155 55.915 20.5055 55.345C20.7955 54.765 21.2005 54.315 21.7205 53.995C22.2505 53.675 22.8505 53.515 23.5205 53.515C24.4705 53.515 25.2255 53.825 25.7855 54.445C26.3455 55.065 26.6255 55.905 26.6255 56.965C26.6255 57.165 26.5855 57.31 26.5055 57.4C26.4255 57.49 26.2955 57.535 26.1155 57.535H21.2855C21.3755 59.255 22.1905 60.115 23.7305 60.115C24.1205 60.115 24.4555 60.065 24.7355 59.965C25.0155 59.855 25.3155 59.71 25.6355 59.53C25.8955 59.38 26.0705 59.305 26.1605 59.305ZM23.5355 54.46C22.8955 54.46 22.3805 54.66 21.9905 55.06C21.6105 55.46 21.3855 56.025 21.3155 56.755H25.5605C25.5405 56.015 25.3555 55.45 25.0055 55.06C24.6555 54.66 24.1655 54.46 23.5355 54.46ZM34.9078 51.385C34.3778 51.425 33.9778 51.595 33.7078 51.895C33.4378 52.185 33.3028 52.625 33.3028 53.215V53.695H34.9678C35.1378 53.695 35.2678 53.74 35.3578 53.83C35.4478 53.92 35.4928 54.04 35.4928 54.19C35.4928 54.34 35.4478 54.455 35.3578 54.535C35.2678 54.615 35.1378 54.655 34.9678 54.655H33.3028V60.475C33.3028 60.665 33.2428 60.815 33.1228 60.925C33.0128 61.025 32.8728 61.075 32.7028 61.075C32.5228 61.075 32.3728 61.025 32.2528 60.925C32.1428 60.815 32.0878 60.665 32.0878 60.475V54.655H31.0828C30.9128 54.655 30.7778 54.615 30.6778 54.535C30.5878 54.445 30.5428 54.33 30.5428 54.19C30.5428 54.04 30.5878 53.92 30.6778 53.83C30.7778 53.74 30.9128 53.695 31.0828 53.695H32.0878V53.425C32.0878 52.525 32.3128 51.82 32.7628 51.31C33.2128 50.79 33.8578 50.5 34.6978 50.44L35.0878 50.41C35.3478 50.39 35.5328 50.415 35.6428 50.485C35.7628 50.555 35.8228 50.68 35.8228 50.86C35.8228 51.15 35.6478 51.315 35.2978 51.355L34.9078 51.385ZM39.2614 61.105C38.5714 61.105 37.9614 60.95 37.4314 60.64C36.9114 60.33 36.5064 59.89 36.2164 59.32C35.9364 58.74 35.7964 58.07 35.7964 57.31C35.7964 56.55 35.9364 55.885 36.2164 55.315C36.5064 54.735 36.9114 54.29 37.4314 53.98C37.9614 53.67 38.5714 53.515 39.2614 53.515C39.9514 53.515 40.5614 53.67 41.0914 53.98C41.6214 54.29 42.0264 54.735 42.3064 55.315C42.5964 55.885 42.7414 56.55 42.7414 57.31C42.7414 58.07 42.5964 58.74 42.3064 59.32C42.0264 59.89 41.6214 60.33 41.0914 60.64C40.5614 60.95 39.9514 61.105 39.2614 61.105ZM39.2614 60.1C39.9814 60.1 40.5314 59.865 40.9114 59.395C41.3014 58.915 41.4964 58.22 41.4964 57.31C41.4964 56.42 41.3014 55.735 40.9114 55.255C40.5214 54.765 39.9714 54.52 39.2614 54.52C38.5514 54.52 38.0014 54.765 37.6114 55.255C37.2214 55.735 37.0264 56.42 37.0264 57.31C37.0264 58.21 37.2164 58.9 37.5964 59.38C37.9864 59.86 38.5414 60.1 39.2614 60.1ZM47.8668 53.545C48.2868 53.515 48.4968 53.685 48.4968 54.055C48.4968 54.215 48.4518 54.345 48.3618 54.445C48.2718 54.535 48.1168 54.59 47.8968 54.61L47.4468 54.655C46.7768 54.715 46.2768 54.955 45.9468 55.375C45.6268 55.785 45.4668 56.27 45.4668 56.83V60.475C45.4668 60.675 45.4118 60.825 45.3018 60.925C45.1918 61.025 45.0468 61.075 44.8668 61.075C44.6868 61.075 44.5368 61.025 44.4168 60.925C44.3068 60.815 44.2518 60.665 44.2518 60.475V54.145C44.2518 53.955 44.3118 53.81 44.4318 53.71C44.5518 53.6 44.6968 53.545 44.8668 53.545C45.0268 53.545 45.1618 53.6 45.2718 53.71C45.3818 53.81 45.4368 53.95 45.4368 54.13V54.97C45.6468 54.53 45.9418 54.195 46.3218 53.965C46.7118 53.735 47.1568 53.6 47.6568 53.56L47.8668 53.545ZM55.267 61.105C54.807 61.105 54.367 61.05 53.947 60.94C53.537 60.83 53.172 60.675 52.852 60.475C52.672 60.355 52.542 60.245 52.462 60.145C52.392 60.035 52.357 59.905 52.357 59.755C52.357 59.625 52.392 59.52 52.462 59.44C52.542 59.35 52.642 59.305 52.762 59.305C52.882 59.305 53.057 59.38 53.287 59.53C53.587 59.71 53.882 59.855 54.172 59.965C54.472 60.065 54.842 60.115 55.282 60.115C55.822 60.115 56.242 60.02 56.542 59.83C56.842 59.64 56.992 59.365 56.992 59.005C56.992 58.785 56.937 58.61 56.827 58.48C56.717 58.34 56.527 58.22 56.257 58.12C55.987 58.01 55.592 57.9 55.072 57.79C54.192 57.6 53.562 57.345 53.182 57.025C52.802 56.705 52.612 56.27 52.612 55.72C52.612 55.29 52.732 54.91 52.972 54.58C53.212 54.25 53.542 53.99 53.962 53.8C54.392 53.61 54.877 53.515 55.417 53.515C55.807 53.515 56.182 53.57 56.542 53.68C56.912 53.78 57.237 53.925 57.517 54.115C57.857 54.355 58.027 54.605 58.027 54.865C58.027 54.995 57.987 55.105 57.907 55.195C57.827 55.285 57.732 55.33 57.622 55.33C57.502 55.33 57.322 55.245 57.082 55.075C56.802 54.895 56.537 54.755 56.287 54.655C56.037 54.555 55.727 54.505 55.357 54.505C54.887 54.505 54.507 54.61 54.217 54.82C53.937 55.03 53.797 55.31 53.797 55.66C53.797 55.88 53.847 56.06 53.947 56.2C54.057 56.33 54.232 56.45 54.472 56.56C54.722 56.66 55.077 56.76 55.537 56.86C56.217 57.01 56.742 57.175 57.112 57.355C57.492 57.535 57.762 57.755 57.922 58.015C58.082 58.275 58.162 58.605 58.162 59.005C58.162 59.635 57.897 60.145 57.367 60.535C56.837 60.915 56.137 61.105 55.267 61.105ZM62.7441 61.105C62.0541 61.105 61.4441 60.95 60.9141 60.64C60.3941 60.33 59.9891 59.89 59.6991 59.32C59.4191 58.74 59.2791 58.07 59.2791 57.31C59.2791 56.55 59.4191 55.885 59.6991 55.315C59.9891 54.735 60.3941 54.29 60.9141 53.98C61.4441 53.67 62.0541 53.515 62.7441 53.515C63.4341 53.515 64.0441 53.67 64.5741 53.98C65.1041 54.29 65.5091 54.735 65.7891 55.315C66.0791 55.885 66.2241 56.55 66.2241 57.31C66.2241 58.07 66.0791 58.74 65.7891 59.32C65.5091 59.89 65.1041 60.33 64.5741 60.64C64.0441 60.95 63.4341 61.105 62.7441 61.105ZM62.7441 60.1C63.4641 60.1 64.0141 59.865 64.3941 59.395C64.7841 58.915 64.9791 58.22 64.9791 57.31C64.9791 56.42 64.7841 55.735 64.3941 55.255C64.0041 54.765 63.4541 54.52 62.7441 54.52C62.0341 54.52 61.4841 54.765 61.0941 55.255C60.7041 55.735 60.5091 56.42 60.5091 57.31C60.5091 58.21 60.6991 58.9 61.0791 59.38C61.4691 59.86 62.0241 60.1 62.7441 60.1ZM71.3494 53.545C71.7694 53.515 71.9794 53.685 71.9794 54.055C71.9794 54.215 71.9344 54.345 71.8444 54.445C71.7544 54.535 71.5994 54.59 71.3794 54.61L70.9294 54.655C70.2594 54.715 69.7594 54.955 69.4294 55.375C69.1094 55.785 68.9494 56.27 68.9494 56.83V60.475C68.9494 60.675 68.8944 60.825 68.7844 60.925C68.6744 61.025 68.5294 61.075 68.3494 61.075C68.1694 61.075 68.0194 61.025 67.8994 60.925C67.7894 60.815 67.7344 60.665 67.7344 60.475V54.145C67.7344 53.955 67.7944 53.81 67.9144 53.71C68.0344 53.6 68.1794 53.545 68.3494 53.545C68.5094 53.545 68.6444 53.6 68.7544 53.71C68.8644 53.81 68.9194 53.95 68.9194 54.13V54.97C69.1294 54.53 69.4244 54.195 69.8044 53.965C70.1944 53.735 70.6394 53.6 71.1394 53.56L71.3494 53.545ZM76.3375 53.545C76.7575 53.515 76.9675 53.685 76.9675 54.055C76.9675 54.215 76.9225 54.345 76.8325 54.445C76.7425 54.535 76.5875 54.59 76.3675 54.61L75.9175 54.655C75.2475 54.715 74.7475 54.955 74.4175 55.375C74.0975 55.785 73.9375 56.27 73.9375 56.83V60.475C73.9375 60.675 73.8825 60.825 73.7725 60.925C73.6625 61.025 73.5175 61.075 73.3375 61.075C73.1575 61.075 73.0075 61.025 72.8875 60.925C72.7775 60.815 72.7225 60.665 72.7225 60.475V54.145C72.7225 53.955 72.7825 53.81 72.9025 53.71C73.0225 53.6 73.1675 53.545 73.3375 53.545C73.4975 53.545 73.6325 53.6 73.7425 53.71C73.8525 53.81 73.9075 53.95 73.9075 54.13V54.97C74.1175 54.53 74.4125 54.195 74.7925 53.965C75.1825 53.735 75.6275 53.6 76.1275 53.56L76.3375 53.545ZM80.5941 61.105C79.9041 61.105 79.2941 60.95 78.7641 60.64C78.2441 60.33 77.8391 59.89 77.5491 59.32C77.2691 58.74 77.1291 58.07 77.1291 57.31C77.1291 56.55 77.2691 55.885 77.5491 55.315C77.8391 54.735 78.2441 54.29 78.7641 53.98C79.2941 53.67 79.9041 53.515 80.5941 53.515C81.2841 53.515 81.8941 53.67 82.4241 53.98C82.9541 54.29 83.3591 54.735 83.6391 55.315C83.9291 55.885 84.0741 56.55 84.0741 57.31C84.0741 58.07 83.9291 58.74 83.6391 59.32C83.3591 59.89 82.9541 60.33 82.4241 60.64C81.8941 60.95 81.2841 61.105 80.5941 61.105ZM80.5941 60.1C81.3141 60.1 81.8641 59.865 82.2441 59.395C82.6341 58.915 82.8291 58.22 82.8291 57.31C82.8291 56.42 82.6341 55.735 82.2441 55.255C81.8541 54.765 81.3041 54.52 80.5941 54.52C79.8841 54.52 79.3341 54.765 78.9441 55.255C78.5541 55.735 78.3591 56.42 78.3591 57.31C78.3591 58.21 78.5491 58.9 78.9291 59.38C79.3191 59.86 79.8741 60.1 80.5941 60.1ZM95.4865 53.935C95.5865 53.695 95.7515 53.575 95.9815 53.575C96.1315 53.575 96.2665 53.625 96.3865 53.725C96.5065 53.825 96.5665 53.95 96.5665 54.1C96.5665 54.17 96.5515 54.245 96.5215 54.325L94.0315 60.625C93.9715 60.755 93.8815 60.86 93.7615 60.94C93.6515 61.01 93.5265 61.045 93.3865 61.045C93.2565 61.045 93.1315 61.01 93.0115 60.94C92.9015 60.86 92.8165 60.755 92.7565 60.625L90.6865 55.36L88.6315 60.625C88.5815 60.755 88.4965 60.86 88.3765 60.94C88.2565 61.01 88.1265 61.045 87.9865 61.045C87.8565 61.045 87.7315 61.01 87.6115 60.94C87.4915 60.86 87.4015 60.755 87.3415 60.625L84.8515 54.34C84.8215 54.26 84.8065 54.19 84.8065 54.13C84.8065 53.97 84.8715 53.835 85.0015 53.725C85.1415 53.615 85.2915 53.56 85.4515 53.56C85.6915 53.56 85.8615 53.68 85.9615 53.92L88.0165 59.455L90.1315 53.965C90.1915 53.835 90.2715 53.735 90.3715 53.665C90.4815 53.595 90.5965 53.56 90.7165 53.56C90.8465 53.56 90.9615 53.595 91.0615 53.665C91.1715 53.735 91.2515 53.835 91.3015 53.965L93.4165 59.44L95.4865 53.935ZM97.8514 59.38C98.1014 59.38 98.3014 59.48 98.4514 59.68C98.6114 59.87 98.6914 60.16 98.6914 60.55C98.6914 61.34 98.4364 62.005 97.9264 62.545C97.8264 62.655 97.7114 62.71 97.5814 62.71C97.4814 62.71 97.3914 62.67 97.3114 62.59C97.2314 62.52 97.1914 62.435 97.1914 62.335C97.1914 62.225 97.2314 62.13 97.3114 62.05C97.5714 61.78 97.7364 61.445 97.8064 61.045C97.5864 61.025 97.4014 60.945 97.2514 60.805C97.1114 60.655 97.0414 60.465 97.0414 60.235C97.0414 59.985 97.1164 59.78 97.2664 59.62C97.4264 59.46 97.6214 59.38 97.8514 59.38ZM107.336 61.075C107.146 61.075 106.991 61.02 106.871 60.91C106.761 60.79 106.706 60.635 106.706 60.445V51.475H103.481C103.301 51.475 103.161 51.43 103.061 51.34C102.961 51.25 102.911 51.12 102.911 50.95C102.911 50.78 102.961 50.65 103.061 50.56C103.161 50.47 103.301 50.425 103.481 50.425H111.176C111.356 50.425 111.496 50.47 111.596 50.56C111.696 50.65 111.746 50.78 111.746 50.95C111.746 51.12 111.696 51.25 111.596 51.34C111.496 51.43 111.356 51.475 111.176 51.475H107.951V60.445C107.951 60.635 107.896 60.79 107.786 60.91C107.676 61.02 107.526 61.075 107.336 61.075ZM121.533 53.935C121.633 53.695 121.798 53.575 122.028 53.575C122.178 53.575 122.313 53.625 122.433 53.725C122.553 53.825 122.613 53.95 122.613 54.1C122.613 54.17 122.598 54.245 122.568 54.325L120.078 60.625C120.018 60.755 119.928 60.86 119.808 60.94C119.698 61.01 119.573 61.045 119.433 61.045C119.303 61.045 119.178 61.01 119.058 60.94C118.948 60.86 118.863 60.755 118.803 60.625L116.733 55.36L114.678 60.625C114.628 60.755 114.543 60.86 114.423 60.94C114.303 61.01 114.173 61.045 114.033 61.045C113.903 61.045 113.778 61.01 113.658 60.94C113.538 60.86 113.448 60.755 113.388 60.625L110.898 54.34C110.868 54.26 110.853 54.19 110.853 54.13C110.853 53.97 110.918 53.835 111.048 53.725C111.188 53.615 111.338 53.56 111.498 53.56C111.738 53.56 111.908 53.68 112.008 53.92L114.063 59.455L116.178 53.965C116.238 53.835 116.318 53.735 116.418 53.665C116.528 53.595 116.643 53.56 116.763 53.56C116.893 53.56 117.008 53.595 117.108 53.665C117.218 53.735 117.298 53.835 117.348 53.965L119.463 59.44L121.533 53.935ZM126.812 61.105C126.122 61.105 125.512 60.95 124.982 60.64C124.462 60.33 124.057 59.89 123.767 59.32C123.487 58.74 123.347 58.07 123.347 57.31C123.347 56.55 123.487 55.885 123.767 55.315C124.057 54.735 124.462 54.29 124.982 53.98C125.512 53.67 126.122 53.515 126.812 53.515C127.502 53.515 128.112 53.67 128.642 53.98C129.172 54.29 129.577 54.735 129.857 55.315C130.147 55.885 130.292 56.55 130.292 57.31C130.292 58.07 130.147 58.74 129.857 59.32C129.577 59.89 129.172 60.33 128.642 60.64C128.112 60.95 127.502 61.105 126.812 61.105ZM126.812 60.1C127.532 60.1 128.082 59.865 128.462 59.395C128.852 58.915 129.047 58.22 129.047 57.31C129.047 56.42 128.852 55.735 128.462 55.255C128.072 54.765 127.522 54.52 126.812 54.52C126.102 54.52 125.552 54.765 125.162 55.255C124.772 55.735 124.577 56.42 124.577 57.31C124.577 58.21 124.767 58.9 125.147 59.38C125.537 59.86 126.092 60.1 126.812 60.1ZM138.594 51.385C138.064 51.425 137.664 51.595 137.394 51.895C137.124 52.185 136.989 52.625 136.989 53.215V53.695H138.654C138.824 53.695 138.954 53.74 139.044 53.83C139.134 53.92 139.179 54.04 139.179 54.19C139.179 54.34 139.134 54.455 139.044 54.535C138.954 54.615 138.824 54.655 138.654 54.655H136.989V60.475C136.989 60.665 136.929 60.815 136.809 60.925C136.699 61.025 136.559 61.075 136.389 61.075C136.209 61.075 136.059 61.025 135.939 60.925C135.829 60.815 135.774 60.665 135.774 60.475V54.655H134.769C134.599 54.655 134.464 54.615 134.364 54.535C134.274 54.445 134.229 54.33 134.229 54.19C134.229 54.04 134.274 53.92 134.364 53.83C134.464 53.74 134.599 53.695 134.769 53.695H135.774V53.425C135.774 52.525 135.999 51.82 136.449 51.31C136.899 50.79 137.544 50.5 138.384 50.44L138.774 50.41C139.034 50.39 139.219 50.415 139.329 50.485C139.449 50.555 139.509 50.68 139.509 50.86C139.509 51.15 139.334 51.315 138.984 51.355L138.594 51.385ZM142.948 61.105C142.258 61.105 141.648 60.95 141.118 60.64C140.598 60.33 140.193 59.89 139.903 59.32C139.623 58.74 139.483 58.07 139.483 57.31C139.483 56.55 139.623 55.885 139.903 55.315C140.193 54.735 140.598 54.29 141.118 53.98C141.648 53.67 142.258 53.515 142.948 53.515C143.638 53.515 144.248 53.67 144.778 53.98C145.308 54.29 145.713 54.735 145.993 55.315C146.283 55.885 146.428 56.55 146.428 57.31C146.428 58.07 146.283 58.74 145.993 59.32C145.713 59.89 145.308 60.33 144.778 60.64C144.248 60.95 143.638 61.105 142.948 61.105ZM142.948 60.1C143.668 60.1 144.218 59.865 144.598 59.395C144.988 58.915 145.183 58.22 145.183 57.31C145.183 56.42 144.988 55.735 144.598 55.255C144.208 54.765 143.658 54.52 142.948 54.52C142.238 54.52 141.688 54.765 141.298 55.255C140.908 55.735 140.713 56.42 140.713 57.31C140.713 58.21 140.903 58.9 141.283 59.38C141.673 59.86 142.228 60.1 142.948 60.1ZM151.553 53.545C151.973 53.515 152.183 53.685 152.183 54.055C152.183 54.215 152.138 54.345 152.048 54.445C151.958 54.535 151.803 54.59 151.583 54.61L151.133 54.655C150.463 54.715 149.963 54.955 149.633 55.375C149.313 55.785 149.153 56.27 149.153 56.83V60.475C149.153 60.675 149.098 60.825 148.988 60.925C148.878 61.025 148.733 61.075 148.553 61.075C148.373 61.075 148.223 61.025 148.103 60.925C147.993 60.815 147.938 60.665 147.938 60.475V54.145C147.938 53.955 147.998 53.81 148.118 53.71C148.238 53.6 148.383 53.545 148.553 53.545C148.713 53.545 148.848 53.6 148.958 53.71C149.068 53.81 149.123 53.95 149.123 54.13V54.97C149.333 54.53 149.628 54.195 150.008 53.965C150.398 53.735 150.843 53.6 151.343 53.56L151.553 53.545ZM9.255 74.515C10.875 74.515 11.685 75.48 11.685 77.41V81.475C11.685 81.665 11.63 81.815 11.52 81.925C11.41 82.025 11.265 82.075 11.085 82.075C10.905 82.075 10.755 82.025 10.635 81.925C10.525 81.815 10.47 81.665 10.47 81.475V77.44C10.47 76.77 10.35 76.285 10.11 75.985C9.87 75.685 9.495 75.535 8.985 75.535C8.375 75.535 7.895 75.74 7.545 76.15C7.195 76.56 7.02 77.115 7.02 77.815V81.475C7.02 81.665 6.96 81.815 6.84 81.925C6.73 82.025 6.585 82.075 6.405 82.075C6.225 82.075 6.08 82.025 5.97 81.925C5.86 81.815 5.805 81.665 5.805 81.475V77.44C5.805 76.77 5.685 76.285 5.445 75.985C5.205 75.685 4.825 75.535 4.305 75.535C3.705 75.535 3.225 75.74 2.865 76.15C2.515 76.56 2.34 77.115 2.34 77.815V81.475C2.34 81.665 2.285 81.815 2.175 81.925C2.065 82.025 1.92 82.075 1.74 82.075C1.56 82.075 1.41 82.025 1.29 81.925C1.18 81.815 1.125 81.665 1.125 81.475V75.145C1.125 74.965 1.18 74.82 1.29 74.71C1.41 74.6 1.56 74.545 1.74 74.545C1.91 74.545 2.05 74.6 2.16 74.71C2.27 74.81 2.325 74.95 2.325 75.13V75.85C2.545 75.42 2.85 75.09 3.24 74.86C3.63 74.63 4.08 74.515 4.59 74.515C5.73 74.515 6.475 74.995 6.825 75.955C7.035 75.515 7.355 75.165 7.785 74.905C8.215 74.645 8.705 74.515 9.255 74.515ZM14.2134 82.075C14.0334 82.075 13.8834 82.025 13.7634 81.925C13.6534 81.815 13.5984 81.665 13.5984 81.475V75.145C13.5984 74.955 13.6534 74.81 13.7634 74.71C13.8834 74.6 14.0334 74.545 14.2134 74.545C14.3934 74.545 14.5384 74.6 14.6484 74.71C14.7584 74.81 14.8134 74.955 14.8134 75.145V81.475C14.8134 81.675 14.7584 81.825 14.6484 81.925C14.5384 82.025 14.3934 82.075 14.2134 82.075ZM14.2134 72.97C13.9734 72.97 13.7784 72.9 13.6284 72.76C13.4784 72.62 13.4034 72.435 13.4034 72.205C13.4034 71.985 13.4784 71.805 13.6284 71.665C13.7784 71.525 13.9734 71.455 14.2134 71.455C14.4534 71.455 14.6484 71.525 14.7984 71.665C14.9484 71.805 15.0234 71.985 15.0234 72.205C15.0234 72.435 14.9484 72.62 14.7984 72.76C14.6484 72.9 14.4534 72.97 14.2134 72.97ZM20.3998 74.545C20.8198 74.515 21.0298 74.685 21.0298 75.055C21.0298 75.215 20.9848 75.345 20.8948 75.445C20.8048 75.535 20.6498 75.59 20.4298 75.61L19.9798 75.655C19.3098 75.715 18.8098 75.955 18.4798 76.375C18.1598 76.785 17.9998 77.27 17.9998 77.83V81.475C17.9998 81.675 17.9448 81.825 17.8348 81.925C17.7248 82.025 17.5798 82.075 17.3998 82.075C17.2198 82.075 17.0698 82.025 16.9498 81.925C16.8398 81.815 16.7848 81.665 16.7848 81.475V75.145C16.7848 74.955 16.8448 74.81 16.9648 74.71C17.0848 74.6 17.2298 74.545 17.3998 74.545C17.5598 74.545 17.6948 74.6 17.8048 74.71C17.9148 74.81 17.9698 74.95 17.9698 75.13V75.97C18.1798 75.53 18.4748 75.195 18.8548 74.965C19.2448 74.735 19.6898 74.6 20.1898 74.56L20.3998 74.545ZM25.7338 81.115C26.0838 81.145 26.2588 81.305 26.2588 81.595C26.2588 81.765 26.1938 81.895 26.0638 81.985C25.9438 82.065 25.7588 82.095 25.5088 82.075L25.1038 82.045C24.3038 81.985 23.7138 81.745 23.3338 81.325C22.9538 80.905 22.7638 80.27 22.7638 79.42V75.655H21.7588C21.5888 75.655 21.4538 75.615 21.3538 75.535C21.2638 75.445 21.2188 75.33 21.2188 75.19C21.2188 75.04 21.2638 74.92 21.3538 74.83C21.4538 74.74 21.5888 74.695 21.7588 74.695H22.7638V73C22.7638 72.81 22.8188 72.665 22.9288 72.565C23.0388 72.455 23.1888 72.4 23.3788 72.4C23.5588 72.4 23.7038 72.455 23.8138 72.565C23.9238 72.665 23.9788 72.81 23.9788 73V74.695H25.6438C25.8038 74.695 25.9288 74.74 26.0188 74.83C26.1188 74.92 26.1688 75.04 26.1688 75.19C26.1688 75.33 26.1188 75.445 26.0188 75.535C25.9288 75.615 25.8038 75.655 25.6438 75.655H23.9788V79.48C23.9788 80.03 24.0888 80.43 24.3088 80.68C24.5388 80.92 24.8788 81.055 25.3288 81.085L25.7338 81.115ZM30.8464 74.515C31.7064 74.515 32.3564 74.76 32.7964 75.25C33.2364 75.73 33.4564 76.45 33.4564 77.41V81.475C33.4564 81.665 33.4014 81.815 33.2914 81.925C33.1814 82.025 33.0364 82.075 32.8564 82.075C32.6664 82.075 32.5164 82.025 32.4064 81.925C32.2964 81.815 32.2414 81.665 32.2414 81.475V77.44C32.2414 76.79 32.1064 76.31 31.8364 76C31.5764 75.69 31.1564 75.535 30.5764 75.535C29.9064 75.535 29.3714 75.74 28.9714 76.15C28.5714 76.56 28.3714 77.115 28.3714 77.815V81.475C28.3714 81.665 28.3164 81.815 28.2064 81.925C28.1064 82.025 27.9614 82.075 27.7714 82.075C27.5814 82.075 27.4314 82.025 27.3214 81.925C27.2114 81.815 27.1564 81.665 27.1564 81.475V71.935C27.1564 71.765 27.2114 71.625 27.3214 71.515C27.4414 71.405 27.5914 71.35 27.7714 71.35C27.9614 71.35 28.1064 71.405 28.2064 71.515C28.3164 71.615 28.3714 71.755 28.3714 71.935V75.865C28.6114 75.425 28.9464 75.09 29.3764 74.86C29.8064 74.63 30.2964 74.515 30.8464 74.515ZM35.9518 80.38C36.2018 80.38 36.4018 80.48 36.5518 80.68C36.7118 80.87 36.7918 81.16 36.7918 81.55C36.7918 82.34 36.5368 83.005 36.0268 83.545C35.9268 83.655 35.8118 83.71 35.6818 83.71C35.5818 83.71 35.4918 83.67 35.4118 83.59C35.3318 83.52 35.2918 83.435 35.2918 83.335C35.2918 83.225 35.3318 83.13 35.4118 83.05C35.6718 82.78 35.8368 82.445 35.9068 82.045C35.6868 82.025 35.5018 81.945 35.3518 81.805C35.2118 81.655 35.1418 81.465 35.1418 81.235C35.1418 80.985 35.2168 80.78 35.3668 80.62C35.5268 80.46 35.7218 80.38 35.9518 80.38ZM45.4368 82.075C45.2468 82.075 45.0918 82.02 44.9718 81.91C44.8618 81.79 44.8068 81.635 44.8068 81.445V72.475H41.5818C41.4018 72.475 41.2618 72.43 41.1618 72.34C41.0618 72.25 41.0118 72.12 41.0118 71.95C41.0118 71.78 41.0618 71.65 41.1618 71.56C41.2618 71.47 41.4018 71.425 41.5818 71.425H49.2768C49.4568 71.425 49.5968 71.47 49.6968 71.56C49.7968 71.65 49.8468 71.78 49.8468 71.95C49.8468 72.12 49.7968 72.25 49.6968 72.34C49.5968 72.43 49.4568 72.475 49.2768 72.475H46.0518V81.445C46.0518 81.635 45.9968 81.79 45.8868 81.91C45.7768 82.02 45.6268 82.075 45.4368 82.075ZM55.2812 74.515C56.1412 74.515 56.7912 74.76 57.2312 75.25C57.6712 75.73 57.8912 76.45 57.8912 77.41V81.475C57.8912 81.665 57.8362 81.815 57.7262 81.925C57.6162 82.025 57.4712 82.075 57.2912 82.075C57.1012 82.075 56.9512 82.025 56.8412 81.925C56.7312 81.815 56.6762 81.665 56.6762 81.475V77.44C56.6762 76.79 56.5412 76.31 56.2712 76C56.0112 75.69 55.5912 75.535 55.0112 75.535C54.3412 75.535 53.8062 75.74 53.4062 76.15C53.0062 76.56 52.8062 77.115 52.8062 77.815V81.475C52.8062 81.665 52.7512 81.815 52.6412 81.925C52.5412 82.025 52.3962 82.075 52.2062 82.075C52.0162 82.075 51.8662 82.025 51.7562 81.925C51.6462 81.815 51.5912 81.665 51.5912 81.475V71.935C51.5912 71.765 51.6462 71.625 51.7562 71.515C51.8762 71.405 52.0262 71.35 52.2062 71.35C52.3962 71.35 52.5412 71.405 52.6412 71.515C52.7512 71.615 52.8062 71.755 52.8062 71.935V75.865C53.0462 75.425 53.3812 75.09 53.8112 74.86C54.2412 74.63 54.7312 74.515 55.2812 74.515ZM63.4316 74.545C63.8516 74.515 64.0616 74.685 64.0616 75.055C64.0616 75.215 64.0166 75.345 63.9266 75.445C63.8366 75.535 63.6816 75.59 63.4616 75.61L63.0116 75.655C62.3416 75.715 61.8416 75.955 61.5116 76.375C61.1916 76.785 61.0316 77.27 61.0316 77.83V81.475C61.0316 81.675 60.9766 81.825 60.8666 81.925C60.7566 82.025 60.6116 82.075 60.4316 82.075C60.2516 82.075 60.1016 82.025 59.9816 81.925C59.8716 81.815 59.8166 81.665 59.8166 81.475V75.145C59.8166 74.955 59.8766 74.81 59.9966 74.71C60.1166 74.6 60.2616 74.545 60.4316 74.545C60.5916 74.545 60.7266 74.6 60.8366 74.71C60.9466 74.81 61.0016 74.95 61.0016 75.13V75.97C61.2116 75.53 61.5066 75.195 61.8866 74.965C62.2766 74.735 62.7216 74.6 63.2216 74.56L63.4316 74.545ZM70.3132 80.305C70.4232 80.305 70.5182 80.35 70.5982 80.44C70.6782 80.53 70.7182 80.645 70.7182 80.785C70.7182 81.035 70.5432 81.265 70.1932 81.475C69.8332 81.685 69.4532 81.845 69.0532 81.955C68.6532 82.055 68.2632 82.105 67.8832 82.105C66.7532 82.105 65.8582 81.77 65.1982 81.1C64.5482 80.43 64.2232 79.505 64.2232 78.325C64.2232 77.575 64.3682 76.915 64.6582 76.345C64.9482 75.765 65.3532 75.315 65.8732 74.995C66.4032 74.675 67.0032 74.515 67.6732 74.515C68.6232 74.515 69.3782 74.825 69.9382 75.445C70.4982 76.065 70.7782 76.905 70.7782 77.965C70.7782 78.165 70.7382 78.31 70.6582 78.4C70.5782 78.49 70.4482 78.535 70.2682 78.535H65.4382C65.5282 80.255 66.3432 81.115 67.8832 81.115C68.2732 81.115 68.6082 81.065 68.8882 80.965C69.1682 80.855 69.4682 80.71 69.7882 80.53C70.0482 80.38 70.2232 80.305 70.3132 80.305ZM67.6882 75.46C67.0482 75.46 66.5332 75.66 66.1432 76.06C65.7632 76.46 65.5382 77.025 65.4682 77.755H69.7132C69.6932 77.015 69.5082 76.45 69.1582 76.06C68.8082 75.66 68.3182 75.46 67.6882 75.46ZM77.9234 80.305C78.0334 80.305 78.1284 80.35 78.2084 80.44C78.2884 80.53 78.3284 80.645 78.3284 80.785C78.3284 81.035 78.1534 81.265 77.8034 81.475C77.4434 81.685 77.0634 81.845 76.6634 81.955C76.2634 82.055 75.8734 82.105 75.4934 82.105C74.3634 82.105 73.4684 81.77 72.8084 81.1C72.1584 80.43 71.8334 79.505 71.8334 78.325C71.8334 77.575 71.9784 76.915 72.2684 76.345C72.5584 75.765 72.9634 75.315 73.4834 74.995C74.0134 74.675 74.6134 74.515 75.2834 74.515C76.2334 74.515 76.9884 74.825 77.5484 75.445C78.1084 76.065 78.3884 76.905 78.3884 77.965C78.3884 78.165 78.3484 78.31 78.2684 78.4C78.1884 78.49 78.0584 78.535 77.8784 78.535H73.0484C73.1384 80.255 73.9534 81.115 75.4934 81.115C75.8834 81.115 76.2184 81.065 76.4984 80.965C76.7784 80.855 77.0784 80.71 77.3984 80.53C77.6584 80.38 77.8334 80.305 77.9234 80.305ZM75.2984 75.46C74.6584 75.46 74.1434 75.66 73.7534 76.06C73.3734 76.46 73.1484 77.025 73.0784 77.755H77.3234C77.3034 77.015 77.1184 76.45 76.7684 76.06C76.4184 75.66 75.9284 75.46 75.2984 75.46ZM86.6707 72.385C86.1407 72.425 85.7407 72.595 85.4707 72.895C85.2007 73.185 85.0657 73.625 85.0657 74.215V74.695H86.7307C86.9007 74.695 87.0307 74.74 87.1207 74.83C87.2107 74.92 87.2557 75.04 87.2557 75.19C87.2557 75.34 87.2107 75.455 87.1207 75.535C87.0307 75.615 86.9007 75.655 86.7307 75.655H85.0657V81.475C85.0657 81.665 85.0057 81.815 84.8857 81.925C84.7757 82.025 84.6357 82.075 84.4657 82.075C84.2857 82.075 84.1357 82.025 84.0157 81.925C83.9057 81.815 83.8507 81.665 83.8507 81.475V75.655H82.8457C82.6757 75.655 82.5407 75.615 82.4407 75.535C82.3507 75.445 82.3057 75.33 82.3057 75.19C82.3057 75.04 82.3507 74.92 82.4407 74.83C82.5407 74.74 82.6757 74.695 82.8457 74.695H83.8507V74.425C83.8507 73.525 84.0757 72.82 84.5257 72.31C84.9757 71.79 85.6207 71.5 86.4607 71.44L86.8507 71.41C87.1107 71.39 87.2957 71.415 87.4057 71.485C87.5257 71.555 87.5857 71.68 87.5857 71.86C87.5857 72.15 87.4107 72.315 87.0607 72.355L86.6707 72.385ZM91.0243 82.105C90.3343 82.105 89.7243 81.95 89.1943 81.64C88.6743 81.33 88.2693 80.89 87.9793 80.32C87.6993 79.74 87.5593 79.07 87.5593 78.31C87.5593 77.55 87.6993 76.885 87.9793 76.315C88.2693 75.735 88.6743 75.29 89.1943 74.98C89.7243 74.67 90.3343 74.515 91.0243 74.515C91.7143 74.515 92.3243 74.67 92.8543 74.98C93.3843 75.29 93.7893 75.735 94.0693 76.315C94.3593 76.885 94.5043 77.55 94.5043 78.31C94.5043 79.07 94.3593 79.74 94.0693 80.32C93.7893 80.89 93.3843 81.33 92.8543 81.64C92.3243 81.95 91.7143 82.105 91.0243 82.105ZM91.0243 81.1C91.7443 81.1 92.2943 80.865 92.6743 80.395C93.0643 79.915 93.2593 79.22 93.2593 78.31C93.2593 77.42 93.0643 76.735 92.6743 76.255C92.2843 75.765 91.7343 75.52 91.0243 75.52C90.3143 75.52 89.7643 75.765 89.3743 76.255C88.9843 76.735 88.7893 77.42 88.7893 78.31C88.7893 79.21 88.9793 79.9 89.3593 80.38C89.7493 80.86 90.3043 81.1 91.0243 81.1ZM99.6296 74.545C100.05 74.515 100.26 74.685 100.26 75.055C100.26 75.215 100.215 75.345 100.125 75.445C100.035 75.535 99.8796 75.59 99.6596 75.61L99.2096 75.655C98.5396 75.715 98.0396 75.955 97.7096 76.375C97.3896 76.785 97.2296 77.27 97.2296 77.83V81.475C97.2296 81.675 97.1746 81.825 97.0646 81.925C96.9546 82.025 96.8096 82.075 96.6296 82.075C96.4496 82.075 96.2996 82.025 96.1796 81.925C96.0696 81.815 96.0146 81.665 96.0146 81.475V75.145C96.0146 74.955 96.0746 74.81 96.1946 74.71C96.3146 74.6 96.4596 74.545 96.6296 74.545C96.7896 74.545 96.9246 74.6 97.0346 74.71C97.1446 74.81 97.1996 74.95 97.1996 75.13V75.97C97.4096 75.53 97.7046 75.195 98.0846 74.965C98.4746 74.735 98.9196 74.6 99.4196 74.56L99.6296 74.545ZM107.555 74.515C109.385 74.515 110.3 75.475 110.3 77.395V81.475C110.3 81.655 110.245 81.8 110.135 81.91C110.035 82.02 109.895 82.075 109.715 82.075C109.535 82.075 109.39 82.02 109.28 81.91C109.17 81.8 109.115 81.655 109.115 81.475V80.755C108.925 81.185 108.635 81.52 108.245 81.76C107.855 81.99 107.405 82.105 106.895 82.105C106.425 82.105 105.99 82.01 105.59 81.82C105.2 81.63 104.89 81.365 104.66 81.025C104.43 80.685 104.315 80.31 104.315 79.9C104.315 79.35 104.455 78.925 104.735 78.625C105.015 78.315 105.475 78.095 106.115 77.965C106.755 77.825 107.645 77.755 108.785 77.755H109.115V77.26C109.115 76.66 108.99 76.22 108.74 75.94C108.5 75.66 108.105 75.52 107.555 75.52C106.875 75.52 106.185 75.705 105.485 76.075C105.215 76.245 105.025 76.33 104.915 76.33C104.795 76.33 104.695 76.285 104.615 76.195C104.535 76.105 104.495 75.99 104.495 75.85C104.495 75.71 104.535 75.59 104.615 75.49C104.705 75.38 104.845 75.27 105.035 75.16C105.385 74.96 105.78 74.805 106.22 74.695C106.67 74.575 107.115 74.515 107.555 74.515ZM107.06 81.145C107.66 81.145 108.15 80.945 108.53 80.545C108.92 80.135 109.115 79.61 109.115 78.97V78.535H108.845C107.965 78.535 107.295 78.575 106.835 78.655C106.375 78.725 106.045 78.85 105.845 79.03C105.655 79.2 105.56 79.455 105.56 79.795C105.56 80.185 105.7 80.51 105.98 80.77C106.27 81.02 106.63 81.145 107.06 81.145ZM11.115 95.935C11.215 95.695 11.38 95.575 11.61 95.575C11.76 95.575 11.895 95.625 12.015 95.725C12.135 95.825 12.195 95.95 12.195 96.1C12.195 96.17 12.18 96.245 12.15 96.325L9.66 102.625C9.6 102.755 9.51 102.86 9.39 102.94C9.28 103.01 9.155 103.045 9.015 103.045C8.885 103.045 8.76 103.01 8.64 102.94C8.53 102.86 8.445 102.755 8.385 102.625L6.315 97.36L4.26 102.625C4.21 102.755 4.125 102.86 4.005 102.94C3.885 103.01 3.755 103.045 3.615 103.045C3.485 103.045 3.36 103.01 3.24 102.94C3.12 102.86 3.03 102.755 2.97 102.625L0.48 96.34C0.45 96.26 0.435 96.19 0.435 96.13C0.435 95.97 0.5 95.835 0.63 95.725C0.77 95.615 0.92 95.56 1.08 95.56C1.32 95.56 1.49 95.68 1.59 95.92L3.645 101.455L5.76 95.965C5.82 95.835 5.9 95.735 6 95.665C6.11 95.595 6.225 95.56 6.345 95.56C6.475 95.56 6.59 95.595 6.69 95.665C6.8 95.735 6.88 95.835 6.93 95.965L9.045 101.44L11.115 95.935ZM19.0191 101.305C19.1291 101.305 19.2241 101.35 19.3041 101.44C19.3841 101.53 19.4241 101.645 19.4241 101.785C19.4241 102.035 19.2491 102.265 18.8991 102.475C18.5391 102.685 18.1591 102.845 17.7591 102.955C17.3591 103.055 16.9691 103.105 16.5891 103.105C15.4591 103.105 14.5641 102.77 13.9041 102.1C13.2541 101.43 12.9291 100.505 12.9291 99.325C12.9291 98.575 13.0741 97.915 13.3641 97.345C13.6541 96.765 14.0591 96.315 14.5791 95.995C15.1091 95.675 15.7091 95.515 16.3791 95.515C17.3291 95.515 18.0841 95.825 18.6441 96.445C19.2041 97.065 19.4841 97.905 19.4841 98.965C19.4841 99.165 19.4441 99.31 19.3641 99.4C19.2841 99.49 19.1541 99.535 18.9741 99.535H14.1441C14.2341 101.255 15.0491 102.115 16.5891 102.115C16.9791 102.115 17.3141 102.065 17.5941 101.965C17.8741 101.855 18.1741 101.71 18.4941 101.53C18.7541 101.38 18.9291 101.305 19.0191 101.305ZM16.3941 96.46C15.7541 96.46 15.2391 96.66 14.8491 97.06C14.4691 97.46 14.2441 98.025 14.1741 98.755H18.4191C18.3991 98.015 18.2141 97.45 17.8641 97.06C17.5141 96.66 17.0241 96.46 16.3941 96.46ZM26.8392 92.35C27.0292 92.35 27.1792 92.405 27.2892 92.515C27.3992 92.625 27.4542 92.765 27.4542 92.935V102.475C27.4542 102.655 27.3992 102.8 27.2892 102.91C27.1792 103.02 27.0292 103.075 26.8392 103.075C26.6492 103.075 26.4992 103.02 26.3892 102.91C26.2892 102.8 26.2392 102.655 26.2392 102.475V101.665C26.0192 102.125 25.6942 102.48 25.2642 102.73C24.8442 102.98 24.3492 103.105 23.7792 103.105C23.1392 103.105 22.5742 102.945 22.0842 102.625C21.5942 102.305 21.2142 101.86 20.9442 101.29C20.6742 100.71 20.5392 100.04 20.5392 99.28C20.5392 98.53 20.6742 97.87 20.9442 97.3C21.2142 96.73 21.5942 96.29 22.0842 95.98C22.5742 95.67 23.1392 95.515 23.7792 95.515C24.3492 95.515 24.8442 95.64 25.2642 95.89C25.6942 96.14 26.0192 96.495 26.2392 96.955V92.935C26.2392 92.755 26.2892 92.615 26.3892 92.515C26.4992 92.405 26.6492 92.35 26.8392 92.35ZM24.0192 102.1C24.7292 102.1 25.2742 101.86 25.6542 101.38C26.0442 100.89 26.2392 100.2 26.2392 99.31C26.2392 98.42 26.0442 97.735 25.6542 97.255C25.2742 96.775 24.7292 96.535 24.0192 96.535C23.3092 96.535 22.7542 96.775 22.3542 97.255C21.9642 97.735 21.7692 98.41 21.7692 99.28C21.7692 100.17 21.9642 100.865 22.3542 101.365C22.7542 101.855 23.3092 102.1 24.0192 102.1ZM35.2697 92.35C35.4597 92.35 35.6097 92.405 35.7197 92.515C35.8297 92.625 35.8847 92.765 35.8847 92.935V102.475C35.8847 102.655 35.8297 102.8 35.7197 102.91C35.6097 103.02 35.4597 103.075 35.2697 103.075C35.0797 103.075 34.9297 103.02 34.8197 102.91C34.7197 102.8 34.6697 102.655 34.6697 102.475V101.665C34.4497 102.125 34.1247 102.48 33.6947 102.73C33.2747 102.98 32.7797 103.105 32.2097 103.105C31.5697 103.105 31.0047 102.945 30.5147 102.625C30.0247 102.305 29.6447 101.86 29.3747 101.29C29.1047 100.71 28.9697 100.04 28.9697 99.28C28.9697 98.53 29.1047 97.87 29.3747 97.3C29.6447 96.73 30.0247 96.29 30.5147 95.98C31.0047 95.67 31.5697 95.515 32.2097 95.515C32.7797 95.515 33.2747 95.64 33.6947 95.89C34.1247 96.14 34.4497 96.495 34.6697 96.955V92.935C34.6697 92.755 34.7197 92.615 34.8197 92.515C34.9297 92.405 35.0797 92.35 35.2697 92.35ZM32.4497 102.1C33.1597 102.1 33.7047 101.86 34.0847 101.38C34.4747 100.89 34.6697 100.2 34.6697 99.31C34.6697 98.42 34.4747 97.735 34.0847 97.255C33.7047 96.775 33.1597 96.535 32.4497 96.535C31.7397 96.535 31.1847 96.775 30.7847 97.255C30.3947 97.735 30.1997 98.41 30.1997 99.28C30.1997 100.17 30.3947 100.865 30.7847 101.365C31.1847 101.855 31.7397 102.1 32.4497 102.1ZM38.4502 103.075C38.2702 103.075 38.1202 103.025 38.0002 102.925C37.8902 102.815 37.8352 102.665 37.8352 102.475V96.145C37.8352 95.955 37.8902 95.81 38.0002 95.71C38.1202 95.6 38.2702 95.545 38.4502 95.545C38.6302 95.545 38.7752 95.6 38.8852 95.71C38.9952 95.81 39.0502 95.955 39.0502 96.145V102.475C39.0502 102.675 38.9952 102.825 38.8852 102.925C38.7752 103.025 38.6302 103.075 38.4502 103.075ZM38.4502 93.97C38.2102 93.97 38.0152 93.9 37.8652 93.76C37.7152 93.62 37.6402 93.435 37.6402 93.205C37.6402 92.985 37.7152 92.805 37.8652 92.665C38.0152 92.525 38.2102 92.455 38.4502 92.455C38.6902 92.455 38.8852 92.525 39.0352 92.665C39.1852 92.805 39.2602 92.985 39.2602 93.205C39.2602 93.435 39.1852 93.62 39.0352 93.76C38.8852 93.9 38.6902 93.97 38.4502 93.97ZM44.6965 95.515C46.4465 95.515 47.3215 96.48 47.3215 98.41V102.475C47.3215 102.665 47.2665 102.815 47.1565 102.925C47.0565 103.025 46.9115 103.075 46.7215 103.075C46.5315 103.075 46.3815 103.025 46.2715 102.925C46.1615 102.815 46.1065 102.665 46.1065 102.475V98.485C46.1065 97.805 45.9715 97.31 45.7015 97C45.4415 96.69 45.0215 96.535 44.4415 96.535C43.7715 96.535 43.2365 96.74 42.8365 97.15C42.4365 97.56 42.2365 98.115 42.2365 98.815V102.475C42.2365 102.665 42.1815 102.815 42.0715 102.925C41.9715 103.025 41.8265 103.075 41.6365 103.075C41.4465 103.075 41.2965 103.025 41.1865 102.925C41.0765 102.815 41.0215 102.665 41.0215 102.475V96.145C41.0215 95.965 41.0765 95.82 41.1865 95.71C41.2965 95.6 41.4465 95.545 41.6365 95.545C41.8165 95.545 41.9565 95.6 42.0565 95.71C42.1665 95.82 42.2215 95.96 42.2215 96.13V96.895C42.4615 96.445 42.7965 96.105 43.2265 95.875C43.6565 95.635 44.1465 95.515 44.6965 95.515ZM55.1719 95.545C55.3619 95.545 55.5119 95.6 55.6219 95.71C55.7319 95.82 55.7869 95.965 55.7869 96.145V102.505C55.7869 103.595 55.5069 104.415 54.9469 104.965C54.3869 105.525 53.5569 105.805 52.4569 105.805C51.3869 105.805 50.4969 105.595 49.7869 105.175C49.4269 104.975 49.2469 104.745 49.2469 104.485C49.2469 104.345 49.2819 104.23 49.3519 104.14C49.4319 104.05 49.5319 104.005 49.6519 104.005C49.7519 104.005 49.9319 104.075 50.1919 104.215C50.5419 104.395 50.8869 104.54 51.2269 104.65C51.5669 104.76 51.9719 104.815 52.4419 104.815C53.1519 104.815 53.6869 104.625 54.0469 104.245C54.4069 103.875 54.5869 103.33 54.5869 102.61V101.32C54.3769 101.79 54.0519 102.15 53.6119 102.4C53.1819 102.65 52.6719 102.775 52.0819 102.775C51.4419 102.775 50.8719 102.625 50.3719 102.325C49.8819 102.025 49.4969 101.6 49.2169 101.05C48.9469 100.5 48.8119 99.865 48.8119 99.145C48.8119 98.425 48.9469 97.79 49.2169 97.24C49.4969 96.69 49.8819 96.265 50.3719 95.965C50.8719 95.665 51.4419 95.515 52.0819 95.515C52.6619 95.515 53.1669 95.64 53.5969 95.89C54.0269 96.14 54.3519 96.495 54.5719 96.955V96.145C54.5719 95.965 54.6219 95.82 54.7219 95.71C54.8319 95.6 54.9819 95.545 55.1719 95.545ZM52.3219 101.77C53.0219 101.77 53.5719 101.54 53.9719 101.08C54.3719 100.61 54.5719 99.965 54.5719 99.145C54.5719 98.335 54.3719 97.7 53.9719 97.24C53.5819 96.77 53.0319 96.535 52.3219 96.535C51.6119 96.535 51.0519 96.77 50.6419 97.24C50.2419 97.7 50.0419 98.335 50.0419 99.145C50.0419 99.965 50.2419 100.61 50.6419 101.08C51.0519 101.54 51.6119 101.77 52.3219 101.77ZM58.3059 101.38C58.5559 101.38 58.7559 101.48 58.9059 101.68C59.0659 101.87 59.1459 102.16 59.1459 102.55C59.1459 103.34 58.8909 104.005 58.3809 104.545C58.2809 104.655 58.1659 104.71 58.0359 104.71C57.9359 104.71 57.8459 104.67 57.7659 104.59C57.6859 104.52 57.6459 104.435 57.6459 104.335C57.6459 104.225 57.6859 104.13 57.7659 104.05C58.0259 103.78 58.1909 103.445 58.2609 103.045C58.0409 103.025 57.8559 102.945 57.7059 102.805C57.5659 102.655 57.4959 102.465 57.4959 102.235C57.4959 101.985 57.5709 101.78 57.7209 101.62C57.8809 101.46 58.0759 101.38 58.3059 101.38ZM73.7159 102.295C73.7559 102.375 73.7759 102.46 73.7759 102.55C73.7759 102.7 73.7159 102.825 73.5959 102.925C73.4859 103.025 73.3509 103.075 73.1909 103.075C72.9409 103.075 72.7659 102.955 72.6659 102.715L71.6009 100.285H65.9459L64.8659 102.715C64.7659 102.955 64.5909 103.075 64.3409 103.075C64.1809 103.075 64.0409 103.025 63.9209 102.925C63.8009 102.815 63.7409 102.685 63.7409 102.535C63.7409 102.455 63.7609 102.375 63.8009 102.295L68.0909 92.755C68.1509 92.615 68.2409 92.51 68.3609 92.44C68.4809 92.37 68.6109 92.335 68.7509 92.335C68.9009 92.335 69.0359 92.375 69.1559 92.455C69.2759 92.525 69.3659 92.625 69.4259 92.755L73.7159 102.295ZM66.3959 99.265H71.1509L68.7659 93.88L66.3959 99.265ZM78.7043 95.515C80.4543 95.515 81.3293 96.48 81.3293 98.41V102.475C81.3293 102.665 81.2743 102.815 81.1643 102.925C81.0643 103.025 80.9193 103.075 80.7293 103.075C80.5393 103.075 80.3893 103.025 80.2793 102.925C80.1693 102.815 80.1143 102.665 80.1143 102.475V98.485C80.1143 97.805 79.9793 97.31 79.7093 97C79.4493 96.69 79.0293 96.535 78.4493 96.535C77.7793 96.535 77.2443 96.74 76.8443 97.15C76.4443 97.56 76.2443 98.115 76.2443 98.815V102.475C76.2443 102.665 76.1893 102.815 76.0793 102.925C75.9793 103.025 75.8343 103.075 75.6443 103.075C75.4543 103.075 75.3043 103.025 75.1943 102.925C75.0843 102.815 75.0293 102.665 75.0293 102.475V96.145C75.0293 95.965 75.0843 95.82 75.1943 95.71C75.3043 95.6 75.4543 95.545 75.6443 95.545C75.8243 95.545 75.9643 95.6 76.0643 95.71C76.1743 95.82 76.2293 95.96 76.2293 96.13V96.895C76.4693 96.445 76.8043 96.105 77.2343 95.875C77.6643 95.635 78.1543 95.515 78.7043 95.515ZM89.1197 92.35C89.3097 92.35 89.4597 92.405 89.5697 92.515C89.6797 92.625 89.7347 92.765 89.7347 92.935V102.475C89.7347 102.655 89.6797 102.8 89.5697 102.91C89.4597 103.02 89.3097 103.075 89.1197 103.075C88.9297 103.075 88.7797 103.02 88.6697 102.91C88.5697 102.8 88.5197 102.655 88.5197 102.475V101.665C88.2997 102.125 87.9747 102.48 87.5447 102.73C87.1247 102.98 86.6297 103.105 86.0597 103.105C85.4197 103.105 84.8547 102.945 84.3647 102.625C83.8747 102.305 83.4947 101.86 83.2247 101.29C82.9547 100.71 82.8197 100.04 82.8197 99.28C82.8197 98.53 82.9547 97.87 83.2247 97.3C83.4947 96.73 83.8747 96.29 84.3647 95.98C84.8547 95.67 85.4197 95.515 86.0597 95.515C86.6297 95.515 87.1247 95.64 87.5447 95.89C87.9747 96.14 88.2997 96.495 88.5197 96.955V92.935C88.5197 92.755 88.5697 92.615 88.6697 92.515C88.7797 92.405 88.9297 92.35 89.1197 92.35ZM86.2997 102.1C87.0097 102.1 87.5547 101.86 87.9347 101.38C88.3247 100.89 88.5197 100.2 88.5197 99.31C88.5197 98.42 88.3247 97.735 87.9347 97.255C87.5547 96.775 87.0097 96.535 86.2997 96.535C85.5897 96.535 85.0347 96.775 84.6347 97.255C84.2447 97.735 84.0497 98.41 84.0497 99.28C84.0497 100.17 84.2447 100.865 84.6347 101.365C85.0347 101.855 85.5897 102.1 86.2997 102.1ZM98.4773 93.385C97.9473 93.425 97.5473 93.595 97.2773 93.895C97.0073 94.185 96.8723 94.625 96.8723 95.215V95.695H98.5373C98.7073 95.695 98.8373 95.74 98.9273 95.83C99.0173 95.92 99.0623 96.04 99.0623 96.19C99.0623 96.34 99.0173 96.455 98.9273 96.535C98.8373 96.615 98.7073 96.655 98.5373 96.655H96.8723V102.475C96.8723 102.665 96.8123 102.815 96.6923 102.925C96.5823 103.025 96.4423 103.075 96.2723 103.075C96.0923 103.075 95.9423 103.025 95.8223 102.925C95.7123 102.815 95.6573 102.665 95.6573 102.475V96.655H94.6523C94.4823 96.655 94.3473 96.615 94.2473 96.535C94.1573 96.445 94.1123 96.33 94.1123 96.19C94.1123 96.04 94.1573 95.92 94.2473 95.83C94.3473 95.74 94.4823 95.695 94.6523 95.695H95.6573V95.425C95.6573 94.525 95.8823 93.82 96.3323 93.31C96.7823 92.79 97.4273 92.5 98.2673 92.44L98.6573 92.41C98.9173 92.39 99.1023 92.415 99.2123 92.485C99.3323 92.555 99.3923 92.68 99.3923 92.86C99.3923 93.15 99.2173 93.315 98.8673 93.355L98.4773 93.385ZM102.831 103.105C102.141 103.105 101.531 102.95 101.001 102.64C100.481 102.33 100.076 101.89 99.786 101.32C99.506 100.74 99.366 100.07 99.366 99.31C99.366 98.55 99.506 97.885 99.786 97.315C100.076 96.735 100.481 96.29 101.001 95.98C101.531 95.67 102.141 95.515 102.831 95.515C103.521 95.515 104.131 95.67 104.661 95.98C105.191 96.29 105.596 96.735 105.876 97.315C106.166 97.885 106.311 98.55 106.311 99.31C106.311 100.07 106.166 100.74 105.876 101.32C105.596 101.89 105.191 102.33 104.661 102.64C104.131 102.95 103.521 103.105 102.831 103.105ZM102.831 102.1C103.551 102.1 104.101 101.865 104.481 101.395C104.871 100.915 105.066 100.22 105.066 99.31C105.066 98.42 104.871 97.735 104.481 97.255C104.091 96.765 103.541 96.52 102.831 96.52C102.121 96.52 101.571 96.765 101.181 97.255C100.791 97.735 100.596 98.42 100.596 99.31C100.596 100.21 100.786 100.9 101.166 101.38C101.556 101.86 102.111 102.1 102.831 102.1ZM113.371 95.545C113.561 95.545 113.706 95.6 113.806 95.71C113.916 95.82 113.971 95.965 113.971 96.145V102.49C113.971 102.66 113.916 102.8 113.806 102.91C113.706 103.02 113.561 103.075 113.371 103.075C113.191 103.075 113.046 103.025 112.936 102.925C112.836 102.815 112.786 102.675 112.786 102.505V101.755C112.556 102.195 112.231 102.53 111.811 102.76C111.401 102.99 110.936 103.105 110.416 103.105C109.546 103.105 108.891 102.865 108.451 102.385C108.011 101.895 107.791 101.175 107.791 100.225V96.145C107.791 95.965 107.846 95.82 107.956 95.71C108.066 95.6 108.216 95.545 108.406 95.545C108.596 95.545 108.741 95.6 108.841 95.71C108.951 95.82 109.006 95.965 109.006 96.145V100.195C109.006 100.845 109.136 101.325 109.396 101.635C109.656 101.935 110.066 102.085 110.626 102.085C111.266 102.085 111.781 101.88 112.171 101.47C112.561 101.05 112.756 100.5 112.756 99.82V96.145C112.756 95.965 112.811 95.82 112.921 95.71C113.031 95.6 113.181 95.545 113.371 95.545ZM119.544 95.545C119.964 95.515 120.174 95.685 120.174 96.055C120.174 96.215 120.129 96.345 120.039 96.445C119.949 96.535 119.794 96.59 119.574 96.61L119.124 96.655C118.454 96.715 117.954 96.955 117.624 97.375C117.304 97.785 117.144 98.27 117.144 98.83V102.475C117.144 102.675 117.089 102.825 116.979 102.925C116.869 103.025 116.724 103.075 116.544 103.075C116.364 103.075 116.214 103.025 116.094 102.925C115.984 102.815 115.929 102.665 115.929 102.475V96.145C115.929 95.955 115.989 95.81 116.109 95.71C116.229 95.6 116.374 95.545 116.544 95.545C116.704 95.545 116.839 95.6 116.949 95.71C117.059 95.81 117.114 95.95 117.114 96.13V96.97C117.324 96.53 117.619 96.195 117.999 95.965C118.389 95.735 118.834 95.6 119.334 95.56L119.544 95.545ZM127.71 93.385C127.18 93.425 126.78 93.595 126.51 93.895C126.24 94.185 126.105 94.625 126.105 95.215V95.695H127.77C127.94 95.695 128.07 95.74 128.16 95.83C128.25 95.92 128.295 96.04 128.295 96.19C128.295 96.34 128.25 96.455 128.16 96.535C128.07 96.615 127.94 96.655 127.77 96.655H126.105V102.475C126.105 102.665 126.045 102.815 125.925 102.925C125.815 103.025 125.675 103.075 125.505 103.075C125.325 103.075 125.175 103.025 125.055 102.925C124.945 102.815 124.89 102.665 124.89 102.475V96.655H123.885C123.715 96.655 123.58 96.615 123.48 96.535C123.39 96.445 123.345 96.33 123.345 96.19C123.345 96.04 123.39 95.92 123.48 95.83C123.58 95.74 123.715 95.695 123.885 95.695H124.89V95.425C124.89 94.525 125.115 93.82 125.565 93.31C126.015 92.79 126.66 92.5 127.5 92.44L127.89 92.41C128.15 92.39 128.335 92.415 128.445 92.485C128.565 92.555 128.625 92.68 128.625 92.86C128.625 93.15 128.45 93.315 128.1 93.355L127.71 93.385ZM132.063 103.105C131.373 103.105 130.763 102.95 130.233 102.64C129.713 102.33 129.308 101.89 129.018 101.32C128.738 100.74 128.598 100.07 128.598 99.31C128.598 98.55 128.738 97.885 129.018 97.315C129.308 96.735 129.713 96.29 130.233 95.98C130.763 95.67 131.373 95.515 132.063 95.515C132.753 95.515 133.363 95.67 133.893 95.98C134.423 96.29 134.828 96.735 135.108 97.315C135.398 97.885 135.543 98.55 135.543 99.31C135.543 100.07 135.398 100.74 135.108 101.32C134.828 101.89 134.423 102.33 133.893 102.64C133.363 102.95 132.753 103.105 132.063 103.105ZM132.063 102.1C132.783 102.1 133.333 101.865 133.713 101.395C134.103 100.915 134.298 100.22 134.298 99.31C134.298 98.42 134.103 97.735 133.713 97.255C133.323 96.765 132.773 96.52 132.063 96.52C131.353 96.52 130.803 96.765 130.413 97.255C130.023 97.735 129.828 98.42 129.828 99.31C129.828 100.21 130.018 100.9 130.398 101.38C130.788 101.86 131.343 102.1 132.063 102.1ZM140.669 95.545C141.089 95.515 141.299 95.685 141.299 96.055C141.299 96.215 141.254 96.345 141.164 96.445C141.074 96.535 140.919 96.59 140.699 96.61L140.249 96.655C139.579 96.715 139.079 96.955 138.749 97.375C138.429 97.785 138.269 98.27 138.269 98.83V102.475C138.269 102.675 138.214 102.825 138.104 102.925C137.994 103.025 137.849 103.075 137.669 103.075C137.489 103.075 137.339 103.025 137.219 102.925C137.109 102.815 137.054 102.665 137.054 102.475V96.145C137.054 95.955 137.114 95.81 137.234 95.71C137.354 95.6 137.499 95.545 137.669 95.545C137.829 95.545 137.964 95.6 138.074 95.71C138.184 95.81 138.239 95.95 138.239 96.13V96.97C138.449 96.53 138.744 96.195 139.124 95.965C139.514 95.735 139.959 95.6 140.459 95.56L140.669 95.545ZM6.99 113.35C7.18 113.35 7.33 113.405 7.44 113.515C7.55 113.625 7.605 113.765 7.605 113.935V123.475C7.605 123.655 7.55 123.8 7.44 123.91C7.33 124.02 7.18 124.075 6.99 124.075C6.8 124.075 6.65 124.02 6.54 123.91C6.44 123.8 6.39 123.655 6.39 123.475V122.665C6.17 123.125 5.845 123.48 5.415 123.73C4.995 123.98 4.5 124.105 3.93 124.105C3.29 124.105 2.725 123.945 2.235 123.625C1.745 123.305 1.365 122.86 1.095 122.29C0.825 121.71 0.69 121.04 0.69 120.28C0.69 119.53 0.825 118.87 1.095 118.3C1.365 117.73 1.745 117.29 2.235 116.98C2.725 116.67 3.29 116.515 3.93 116.515C4.5 116.515 4.995 116.64 5.415 116.89C5.845 117.14 6.17 117.495 6.39 117.955V113.935C6.39 113.755 6.44 113.615 6.54 113.515C6.65 113.405 6.8 113.35 6.99 113.35ZM4.17 123.1C4.88 123.1 5.425 122.86 5.805 122.38C6.195 121.89 6.39 121.2 6.39 120.31C6.39 119.42 6.195 118.735 5.805 118.255C5.425 117.775 4.88 117.535 4.17 117.535C3.46 117.535 2.905 117.775 2.505 118.255C2.115 118.735 1.92 119.41 1.92 120.28C1.92 121.17 2.115 121.865 2.505 122.365C2.905 122.855 3.46 123.1 4.17 123.1ZM15.2105 122.305C15.3205 122.305 15.4155 122.35 15.4955 122.44C15.5755 122.53 15.6155 122.645 15.6155 122.785C15.6155 123.035 15.4405 123.265 15.0905 123.475C14.7305 123.685 14.3505 123.845 13.9505 123.955C13.5505 124.055 13.1605 124.105 12.7805 124.105C11.6505 124.105 10.7555 123.77 10.0955 123.1C9.44547 122.43 9.12047 121.505 9.12047 120.325C9.12047 119.575 9.26547 118.915 9.55547 118.345C9.84547 117.765 10.2505 117.315 10.7705 116.995C11.3005 116.675 11.9005 116.515 12.5705 116.515C13.5205 116.515 14.2755 116.825 14.8355 117.445C15.3955 118.065 15.6755 118.905 15.6755 119.965C15.6755 120.165 15.6355 120.31 15.5555 120.4C15.4755 120.49 15.3455 120.535 15.1655 120.535H10.3355C10.4255 122.255 11.2405 123.115 12.7805 123.115C13.1705 123.115 13.5055 123.065 13.7855 122.965C14.0655 122.855 14.3655 122.71 14.6855 122.53C14.9455 122.38 15.1205 122.305 15.2105 122.305ZM12.5855 117.46C11.9455 117.46 11.4305 117.66 11.0405 118.06C10.6605 118.46 10.4355 119.025 10.3655 119.755H14.6105C14.5905 119.015 14.4055 118.45 14.0555 118.06C13.7055 117.66 13.2155 117.46 12.5855 117.46ZM20.1506 116.515C21.9806 116.515 22.8956 117.475 22.8956 119.395V123.475C22.8956 123.655 22.8406 123.8 22.7306 123.91C22.6306 124.02 22.4906 124.075 22.3106 124.075C22.1306 124.075 21.9856 124.02 21.8756 123.91C21.7656 123.8 21.7106 123.655 21.7106 123.475V122.755C21.5206 123.185 21.2306 123.52 20.8406 123.76C20.4506 123.99 20.0006 124.105 19.4906 124.105C19.0206 124.105 18.5856 124.01 18.1856 123.82C17.7956 123.63 17.4856 123.365 17.2556 123.025C17.0256 122.685 16.9106 122.31 16.9106 121.9C16.9106 121.35 17.0506 120.925 17.3306 120.625C17.6106 120.315 18.0706 120.095 18.7106 119.965C19.3506 119.825 20.2406 119.755 21.3806 119.755H21.7106V119.26C21.7106 118.66 21.5856 118.22 21.3356 117.94C21.0956 117.66 20.7006 117.52 20.1506 117.52C19.4706 117.52 18.7806 117.705 18.0806 118.075C17.8106 118.245 17.6206 118.33 17.5106 118.33C17.3906 118.33 17.2906 118.285 17.2106 118.195C17.1306 118.105 17.0906 117.99 17.0906 117.85C17.0906 117.71 17.1306 117.59 17.2106 117.49C17.3006 117.38 17.4406 117.27 17.6306 117.16C17.9806 116.96 18.3756 116.805 18.8156 116.695C19.2656 116.575 19.7106 116.515 20.1506 116.515ZM19.6556 123.145C20.2556 123.145 20.7456 122.945 21.1256 122.545C21.5156 122.135 21.7106 121.61 21.7106 120.97V120.535H21.4406C20.5606 120.535 19.8906 120.575 19.4306 120.655C18.9706 120.725 18.6406 120.85 18.4406 121.03C18.2506 121.2 18.1556 121.455 18.1556 121.795C18.1556 122.185 18.2956 122.51 18.5756 122.77C18.8656 123.02 19.2256 123.145 19.6556 123.145ZM28.1947 123.115C28.5447 123.145 28.7197 123.305 28.7197 123.595C28.7197 123.765 28.6547 123.895 28.5247 123.985C28.4047 124.065 28.2197 124.095 27.9697 124.075L27.5647 124.045C26.7647 123.985 26.1747 123.745 25.7947 123.325C25.4147 122.905 25.2247 122.27 25.2247 121.42V117.655H24.2197C24.0497 117.655 23.9147 117.615 23.8147 117.535C23.7247 117.445 23.6797 117.33 23.6797 117.19C23.6797 117.04 23.7247 116.92 23.8147 116.83C23.9147 116.74 24.0497 116.695 24.2197 116.695H25.2247V115C25.2247 114.81 25.2797 114.665 25.3897 114.565C25.4997 114.455 25.6497 114.4 25.8397 114.4C26.0197 114.4 26.1647 114.455 26.2747 114.565C26.3847 114.665 26.4397 114.81 26.4397 115V116.695H28.1047C28.2647 116.695 28.3897 116.74 28.4797 116.83C28.5797 116.92 28.6297 117.04 28.6297 117.19C28.6297 117.33 28.5797 117.445 28.4797 117.535C28.3897 117.615 28.2647 117.655 28.1047 117.655H26.4397V121.48C26.4397 122.03 26.5497 122.43 26.7697 122.68C26.9997 122.92 27.3397 123.055 27.7897 123.085L28.1947 123.115ZM33.3074 116.515C34.1674 116.515 34.8174 116.76 35.2574 117.25C35.6974 117.73 35.9174 118.45 35.9174 119.41V123.475C35.9174 123.665 35.8624 123.815 35.7524 123.925C35.6424 124.025 35.4974 124.075 35.3174 124.075C35.1274 124.075 34.9774 124.025 34.8674 123.925C34.7574 123.815 34.7024 123.665 34.7024 123.475V119.44C34.7024 118.79 34.5674 118.31 34.2974 118C34.0374 117.69 33.6174 117.535 33.0374 117.535C32.3674 117.535 31.8324 117.74 31.4324 118.15C31.0324 118.56 30.8324 119.115 30.8324 119.815V123.475C30.8324 123.665 30.7774 123.815 30.6674 123.925C30.5674 124.025 30.4224 124.075 30.2324 124.075C30.0424 124.075 29.8924 124.025 29.7824 123.925C29.6724 123.815 29.6174 123.665 29.6174 123.475V113.935C29.6174 113.765 29.6724 113.625 29.7824 113.515C29.9024 113.405 30.0524 113.35 30.2324 113.35C30.4224 113.35 30.5674 113.405 30.6674 113.515C30.7774 113.615 30.8324 113.755 30.8324 113.935V117.865C31.0724 117.425 31.4074 117.09 31.8374 116.86C32.2674 116.63 32.7574 116.515 33.3074 116.515Z" fill="#2A2921"/>
</svg>
