<svg width="169" height="136" viewBox="0 0 169 136" fill="none" xmlns="http://www.w3.org/2000/svg">
<path d="M12.832 28H9.90234L4.19922 18.6445V28H1.26953V13.7812H4.19922L9.91211 23.1562V13.7812H12.832V28ZM21.1332 26.9258C20.4366 27.7721 19.473 28.1953 18.2426 28.1953C17.1098 28.1953 16.2439 27.8698 15.6449 27.2188C15.0525 26.5677 14.7497 25.6139 14.7367 24.3574V17.4336H17.559V24.2598C17.559 25.36 18.0603 25.9102 19.0629 25.9102C20.0199 25.9102 20.6775 25.5781 21.0355 24.9141V17.4336H23.8676V28H21.2113L21.1332 26.9258ZM31.534 20.0801C31.1499 20.028 30.8113 20.002 30.5184 20.002C29.4507 20.002 28.7508 20.3633 28.4188 21.0859V28H25.5965V17.4336H28.2625L28.3406 18.6934C28.907 17.7233 29.6915 17.2383 30.6941 17.2383C31.0066 17.2383 31.2996 17.2806 31.573 17.3652L31.534 20.0801ZM38.2238 25.0801C38.2238 24.735 38.0513 24.4648 37.7062 24.2695C37.3677 24.0677 36.8208 23.8887 36.0656 23.7324C33.5526 23.2051 32.2961 22.1374 32.2961 20.5293C32.2961 19.5918 32.6835 18.8105 33.4582 18.1855C34.2395 17.554 35.2583 17.2383 36.5148 17.2383C37.856 17.2383 38.927 17.554 39.7277 18.1855C40.535 18.8171 40.9387 19.6374 40.9387 20.6465H38.1164C38.1164 20.2428 37.9862 19.9108 37.7258 19.6504C37.4654 19.3835 37.0585 19.25 36.5051 19.25C36.0298 19.25 35.662 19.3574 35.4016 19.5723C35.1411 19.7871 35.0109 20.0605 35.0109 20.3926C35.0109 20.7051 35.1574 20.959 35.4504 21.1543C35.7499 21.3431 36.2512 21.5091 36.9543 21.6523C37.6574 21.7891 38.2499 21.9453 38.7316 22.1211C40.2225 22.668 40.968 23.6152 40.968 24.9629C40.968 25.9264 40.5546 26.7077 39.7277 27.3066C38.9009 27.8991 37.8332 28.1953 36.5246 28.1953C35.6392 28.1953 34.8514 28.0391 34.1613 27.7266C33.4777 27.4076 32.9406 26.9746 32.55 26.4277C32.1594 25.8743 31.9641 25.2786 31.9641 24.6406H34.6398C34.6659 25.1419 34.8514 25.526 35.1965 25.793C35.5415 26.0599 36.0038 26.1934 36.5832 26.1934C37.1236 26.1934 37.5305 26.0924 37.8039 25.8906C38.0839 25.6823 38.2238 25.4121 38.2238 25.0801ZM47.2574 28.1953C45.7079 28.1953 44.4449 27.7201 43.4684 26.7695C42.4983 25.819 42.0133 24.5527 42.0133 22.9707V22.6973C42.0133 21.6361 42.2184 20.6888 42.6285 19.8555C43.0387 19.0156 43.6181 18.3711 44.3668 17.9219C45.122 17.4661 45.9814 17.2383 46.9449 17.2383C48.3902 17.2383 49.5263 17.694 50.3531 18.6055C51.1865 19.5169 51.6031 20.8092 51.6031 22.4824V23.6348H44.8746C44.9658 24.3249 45.2392 24.8783 45.6949 25.2949C46.1572 25.7116 46.7398 25.9199 47.443 25.9199C48.5302 25.9199 49.3798 25.526 49.9918 24.7383L51.3785 26.291C50.9553 26.89 50.3824 27.3587 49.6598 27.6973C48.9371 28.0293 48.1363 28.1953 47.2574 28.1953ZM46.9352 19.5234C46.3753 19.5234 45.9195 19.7122 45.568 20.0898C45.2229 20.4674 45.0016 21.0078 44.9039 21.7109H48.8297V21.4863C48.8167 20.8613 48.6474 20.3796 48.3219 20.041C47.9964 19.696 47.5341 19.5234 46.9352 19.5234ZM58.752 20.0801C58.3678 20.028 58.0293 20.002 57.7363 20.002C56.6686 20.002 55.9688 20.3633 55.6367 21.0859V28H52.8145V17.4336H55.4805L55.5586 18.6934C56.125 17.7233 56.9095 17.2383 57.9121 17.2383C58.2246 17.2383 58.5176 17.2806 58.791 17.3652L58.752 20.0801ZM63.8402 24.0059L65.7934 17.4336H68.8207L64.5727 29.6406L64.3383 30.1973C63.7068 31.5775 62.6651 32.2676 61.2133 32.2676C60.8031 32.2676 60.3865 32.2057 59.9633 32.082V29.9434L60.393 29.9531C60.9268 29.9531 61.324 29.8717 61.5844 29.709C61.8513 29.5462 62.0596 29.276 62.2094 28.8984L62.5414 28.0293L58.8402 17.4336H61.8773L63.8402 24.0059ZM79.5637 22.7949H77.2297V28H74.3V13.7812H79.5832C81.2629 13.7812 82.5585 14.1556 83.4699 14.9043C84.3814 15.653 84.8371 16.7109 84.8371 18.0781C84.8371 19.0482 84.6255 19.8587 84.2023 20.5098C83.7857 21.1543 83.1509 21.6686 82.298 22.0527L85.3742 27.8633V28H82.2297L79.5637 22.7949ZM77.2297 20.4219H79.593C80.3286 20.4219 80.8983 20.2363 81.302 19.8652C81.7056 19.4876 81.9074 18.9701 81.9074 18.3125C81.9074 17.6419 81.7154 17.1146 81.3313 16.7305C80.9536 16.3464 80.371 16.1543 79.5832 16.1543H77.2297V20.4219ZM89.2418 18.5859C89.9905 17.6875 90.9313 17.2383 92.0641 17.2383C94.3557 17.2383 95.5178 18.5697 95.5504 21.2324V28H92.7281V21.3105C92.7281 20.7051 92.5979 20.2591 92.3375 19.9727C92.0771 19.6797 91.6441 19.5332 91.0387 19.5332C90.2119 19.5332 89.6129 19.8522 89.2418 20.4902V28H86.4195V13H89.2418V18.5859ZM101.225 24.0059L103.178 17.4336H106.205L101.957 29.6406L101.723 30.1973C101.091 31.5775 100.049 32.2676 98.5977 32.2676C98.1875 32.2676 97.7708 32.2057 97.3477 32.082V29.9434L97.7773 29.9531C98.3112 29.9531 98.7083 29.8717 98.9688 29.709C99.2357 29.5462 99.444 29.276 99.5938 28.8984L99.9258 28.0293L96.2246 17.4336H99.2617L101.225 24.0059ZM109.565 17.4336L109.653 18.6152C110.401 17.6973 111.414 17.2383 112.69 17.2383C114.051 17.2383 114.985 17.7754 115.493 18.8496C116.235 17.7754 117.293 17.2383 118.666 17.2383C119.812 17.2383 120.665 17.5736 121.225 18.2441C121.785 18.9082 122.065 19.9108 122.065 21.252V28H119.233V21.2617C119.233 20.6628 119.116 20.2266 118.881 19.9531C118.647 19.6732 118.233 19.5332 117.641 19.5332C116.795 19.5332 116.209 19.9368 115.883 20.7441L115.893 28H113.071V21.2715C113.071 20.6595 112.95 20.2168 112.709 19.9434C112.468 19.6699 112.058 19.5332 111.479 19.5332C110.678 19.5332 110.099 19.8652 109.741 20.5293V28H106.918V17.4336H109.565ZM128.706 28.1953C127.156 28.1953 125.893 27.7201 124.917 26.7695C123.947 25.819 123.462 24.5527 123.462 22.9707V22.6973C123.462 21.6361 123.667 20.6888 124.077 19.8555C124.487 19.0156 125.067 18.3711 125.815 17.9219C126.57 17.4661 127.43 17.2383 128.393 17.2383C129.839 17.2383 130.975 17.694 131.802 18.6055C132.635 19.5169 133.052 20.8092 133.052 22.4824V23.6348H126.323C126.414 24.3249 126.688 24.8783 127.143 25.2949C127.606 25.7116 128.188 25.9199 128.891 25.9199C129.979 25.9199 130.828 25.526 131.44 24.7383L132.827 26.291C132.404 26.89 131.831 27.3587 131.108 27.6973C130.386 28.0293 129.585 28.1953 128.706 28.1953ZM128.384 19.5234C127.824 19.5234 127.368 19.7122 127.016 20.0898C126.671 20.4674 126.45 21.0078 126.352 21.7109H130.278V21.4863C130.265 20.8613 130.096 20.3796 129.77 20.041C129.445 19.696 128.983 19.5234 128.384 19.5234ZM139.986 25.0801C139.986 24.735 139.813 24.4648 139.468 24.2695C139.129 24.0677 138.583 23.8887 137.827 23.7324C135.314 23.2051 134.058 22.1374 134.058 20.5293C134.058 19.5918 134.445 18.8105 135.22 18.1855C136.001 17.554 137.02 17.2383 138.277 17.2383C139.618 17.2383 140.689 17.554 141.489 18.1855C142.297 18.8171 142.7 19.6374 142.7 20.6465H139.878C139.878 20.2428 139.748 19.9108 139.488 19.6504C139.227 19.3835 138.82 19.25 138.267 19.25C137.792 19.25 137.424 19.3574 137.163 19.5723C136.903 19.7871 136.773 20.0605 136.773 20.3926C136.773 20.7051 136.919 20.959 137.212 21.1543C137.512 21.3431 138.013 21.5091 138.716 21.6523C139.419 21.7891 140.012 21.9453 140.493 22.1211C141.984 22.668 142.73 23.6152 142.73 24.9629C142.73 25.9264 142.316 26.7077 141.489 27.3066C140.663 27.8991 139.595 28.1953 138.286 28.1953C137.401 28.1953 136.613 28.0391 135.923 27.7266C135.239 27.4076 134.702 26.9746 134.312 26.4277C133.921 25.8743 133.726 25.2786 133.726 24.6406H136.402C136.428 25.1419 136.613 25.526 136.958 25.793C137.303 26.0599 137.765 26.1934 138.345 26.1934C138.885 26.1934 139.292 26.0924 139.566 25.8906C139.846 25.6823 139.986 25.4121 139.986 25.0801Z" fill="#2A2921"/>
<path d="M5.835 62.18C4.205 62.18 2.94 61.735 2.04 60.845C1.15 59.945 0.705 58.615 0.705 56.855C0.705 55.095 1.15 53.77 2.04 52.88C2.94 51.98 4.205 51.53 5.835 51.53C7.475 51.53 8.74 51.98 9.63 52.88C10.53 53.77 10.98 55.095 10.98 56.855C10.98 58.605 10.53 59.93 9.63 60.83C8.74 61.73 7.475 62.18 5.835 62.18ZM5.835 60.965C7.025 60.965 7.935 60.645 8.565 60.005C9.195 59.355 9.51 58.325 9.51 56.915V56.855C9.5 55.425 9.18 54.385 8.55 53.735C7.92 53.075 7.015 52.745 5.835 52.745C4.665 52.745 3.765 53.075 3.135 53.735C2.505 54.385 2.185 55.425 2.175 56.855V56.915C2.175 58.325 2.49 59.355 3.12 60.005C3.75 60.645 4.655 60.965 5.835 60.965ZM12.3798 54.11H13.3848L13.5348 55.175H13.6398C14.2198 54.345 15.1048 53.93 16.2948 53.93C17.0848 53.93 17.6898 54.145 18.1098 54.575C18.5398 54.995 18.7548 55.675 18.7548 56.615V62H17.4348V56.705C17.4348 56.075 17.2948 55.64 17.0148 55.4C16.7348 55.15 16.3298 55.025 15.7998 55.025C15.4198 55.025 15.0698 55.12 14.7498 55.31C14.4298 55.49 14.1748 55.755 13.9848 56.105C13.7948 56.455 13.6998 56.865 13.6998 57.335V62H12.3798V54.11ZM23.7598 62.18C22.4898 62.18 21.5448 61.845 20.9248 61.175C20.3048 60.505 19.9948 59.465 19.9948 58.055C19.9948 56.645 20.3048 55.605 20.9248 54.935C21.5448 54.265 22.4898 53.93 23.7598 53.93C24.8998 53.93 25.7498 54.235 26.3098 54.845C26.8798 55.445 27.1648 56.415 27.1648 57.755V58.415H21.3598C21.4098 59.325 21.6248 60 22.0048 60.44C22.3948 60.87 22.9798 61.085 23.7598 61.085C24.3898 61.085 24.8998 60.94 25.2898 60.65C25.6798 60.36 25.8748 59.915 25.8748 59.315H27.1648C27.1648 60.235 26.8448 60.945 26.2048 61.445C25.5748 61.935 24.7598 62.18 23.7598 62.18ZM25.7848 57.32C25.7848 55.79 25.1098 55.025 23.7598 55.025C23.0098 55.025 22.4448 55.205 22.0648 55.565C21.6948 55.925 21.4698 56.51 21.3898 57.32H25.7848ZM32.6095 55.205H31.4545V54.11H32.6095V52.85C32.6095 52.33 32.7395 51.9 32.9995 51.56C33.2595 51.21 33.6995 51.035 34.3195 51.035C34.5195 51.035 34.7195 51.055 34.9195 51.095C35.1295 51.125 35.3045 51.165 35.4445 51.215V52.13H34.6645C34.1745 52.13 33.9295 52.37 33.9295 52.85V54.11H35.4445V55.205H33.9295V62H32.6095V55.205ZM39.3643 62.18C38.1543 62.18 37.2443 61.845 36.6343 61.175C36.0243 60.495 35.7193 59.455 35.7193 58.055C35.7193 56.655 36.0243 55.62 36.6343 54.95C37.2443 54.27 38.1543 53.93 39.3643 53.93C40.5743 53.93 41.4843 54.27 42.0943 54.95C42.7043 55.62 43.0093 56.655 43.0093 58.055C43.0093 59.455 42.7043 60.495 42.0943 61.175C41.4843 61.845 40.5743 62.18 39.3643 62.18ZM39.3643 61.085C40.1643 61.085 40.7443 60.855 41.1043 60.395C41.4643 59.925 41.6443 59.165 41.6443 58.115V57.995C41.6443 56.945 41.4643 56.19 41.1043 55.73C40.7443 55.26 40.1643 55.025 39.3643 55.025C38.5643 55.025 37.9843 55.26 37.6243 55.73C37.2643 56.19 37.0843 56.945 37.0843 57.995V58.115C37.0843 59.165 37.2643 59.925 37.6243 60.395C37.9843 60.855 38.5643 61.085 39.3643 61.085ZM44.2343 54.11H45.2393L45.3893 55.295H45.4793C45.6293 54.905 45.8543 54.58 46.1543 54.32C46.4543 54.06 46.8493 53.93 47.3393 53.93C47.6093 53.93 47.8443 53.97 48.0443 54.05V55.325H47.4893C46.9293 55.325 46.4643 55.49 46.0943 55.82C45.7343 56.14 45.5543 56.645 45.5543 57.335V62H44.2343V54.11ZM55.5042 62.18C54.7742 62.18 54.1642 62.075 53.6742 61.865C53.1942 61.645 52.8392 61.36 52.6092 61.01C52.3792 60.66 52.2642 60.28 52.2642 59.87C52.2642 59.75 52.2642 59.67 52.2642 59.63C52.2742 59.58 52.2792 59.55 52.2792 59.54H53.5842V59.69C53.5842 60.16 53.7692 60.515 54.1392 60.755C54.5092 60.985 54.9892 61.1 55.5792 61.1C56.0892 61.1 56.5092 61 56.8392 60.8C57.1792 60.59 57.3492 60.3 57.3492 59.93C57.3492 59.64 57.2542 59.405 57.0642 59.225C56.8742 59.035 56.6392 58.89 56.3592 58.79C56.0792 58.68 55.6992 58.565 55.2192 58.445C54.6392 58.295 54.1642 58.145 53.7942 57.995C53.4342 57.845 53.1242 57.625 52.8642 57.335C52.6142 57.035 52.4892 56.65 52.4892 56.18C52.4892 55.49 52.7692 54.945 53.3292 54.545C53.8992 54.135 54.6642 53.93 55.6242 53.93C56.2242 53.93 56.7442 54.03 57.1842 54.23C57.6242 54.42 57.9542 54.68 58.1742 55.01C58.4042 55.33 58.5192 55.69 58.5192 56.09L58.5042 56.375H57.2142V56.24C57.2142 55.89 57.0742 55.6 56.7942 55.37C56.5242 55.14 56.0842 55.025 55.4742 55.025C54.8742 55.025 54.4542 55.135 54.2142 55.355C53.9742 55.565 53.8542 55.81 53.8542 56.09C53.8542 56.32 53.9392 56.51 54.1092 56.66C54.2792 56.81 54.4892 56.93 54.7392 57.02C54.9892 57.11 55.3392 57.21 55.7892 57.32C56.4092 57.48 56.9142 57.64 57.3042 57.8C57.6942 57.95 58.0242 58.185 58.2942 58.505C58.5742 58.815 58.7142 59.23 58.7142 59.75C58.7142 60.56 58.4192 61.17 57.8292 61.58C57.2492 61.98 56.4742 62.18 55.5042 62.18ZM63.1692 62.18C61.9592 62.18 61.0492 61.845 60.4392 61.175C59.8292 60.495 59.5242 59.455 59.5242 58.055C59.5242 56.655 59.8292 55.62 60.4392 54.95C61.0492 54.27 61.9592 53.93 63.1692 53.93C64.3792 53.93 65.2892 54.27 65.8992 54.95C66.5092 55.62 66.8142 56.655 66.8142 58.055C66.8142 59.455 66.5092 60.495 65.8992 61.175C65.2892 61.845 64.3792 62.18 63.1692 62.18ZM63.1692 61.085C63.9692 61.085 64.5492 60.855 64.9092 60.395C65.2692 59.925 65.4492 59.165 65.4492 58.115V57.995C65.4492 56.945 65.2692 56.19 64.9092 55.73C64.5492 55.26 63.9692 55.025 63.1692 55.025C62.3692 55.025 61.7892 55.26 61.4292 55.73C61.0692 56.19 60.8892 56.945 60.8892 57.995V58.115C60.8892 59.165 61.0692 59.925 61.4292 60.395C61.7892 60.855 62.3692 61.085 63.1692 61.085ZM68.0392 54.11H69.0442L69.1942 55.295H69.2842C69.4342 54.905 69.6592 54.58 69.9592 54.32C70.2592 54.06 70.6542 53.93 71.1442 53.93C71.4142 53.93 71.6492 53.97 71.8492 54.05V55.325H71.2942C70.7342 55.325 70.2692 55.49 69.8992 55.82C69.5392 56.14 69.3592 56.645 69.3592 57.335V62H68.0392V54.11ZM72.7343 54.11H73.7393L73.8893 55.295H73.9793C74.1293 54.905 74.3543 54.58 74.6543 54.32C74.9543 54.06 75.3493 53.93 75.8393 53.93C76.1093 53.93 76.3443 53.97 76.5443 54.05V55.325H75.9893C75.4293 55.325 74.9643 55.49 74.5943 55.82C74.2343 56.14 74.0543 56.645 74.0543 57.335V62H72.7343V54.11ZM80.5944 62.18C79.3844 62.18 78.4744 61.845 77.8644 61.175C77.2544 60.495 76.9494 59.455 76.9494 58.055C76.9494 56.655 77.2544 55.62 77.8644 54.95C78.4744 54.27 79.3844 53.93 80.5944 53.93C81.8044 53.93 82.7144 54.27 83.3244 54.95C83.9344 55.62 84.2394 56.655 84.2394 58.055C84.2394 59.455 83.9344 60.495 83.3244 61.175C82.7144 61.845 81.8044 62.18 80.5944 62.18ZM80.5944 61.085C81.3944 61.085 81.9744 60.855 82.3344 60.395C82.6944 59.925 82.8744 59.165 82.8744 58.115V57.995C82.8744 56.945 82.6944 56.19 82.3344 55.73C81.9744 55.26 81.3944 55.025 80.5944 55.025C79.7944 55.025 79.2144 55.26 78.8544 55.73C78.4944 56.19 78.3144 56.945 78.3144 57.995V58.115C78.3144 59.165 78.4944 59.925 78.8544 60.395C79.2144 60.855 79.7944 61.085 80.5944 61.085ZM84.5344 54.11H85.8994L87.1144 58.58C87.1944 58.85 87.3494 59.47 87.5794 60.44H87.6544L88.0444 58.58L89.0794 54.11H90.6844L91.7794 58.58C91.8494 58.85 91.9844 59.47 92.1844 60.44H92.2594C92.4694 59.51 92.6194 58.89 92.7094 58.58L93.9094 54.11H95.1994L92.8294 62H91.3894L90.2494 57.29L89.8894 55.67H89.8294C89.6694 56.47 89.5544 57.01 89.4844 57.29L88.3594 62H86.9044L84.5344 54.11ZM96.0993 62H95.4993V60.38H96.9993V61.865L96.2793 64.01H95.4993L96.0993 62ZM105.52 52.955H101.98V51.71H110.485V52.955H106.945V62H105.52V52.955ZM109.775 54.11H111.14L112.355 58.58C112.435 58.85 112.59 59.47 112.82 60.44H112.895L113.285 58.58L114.32 54.11H115.925L117.02 58.58C117.09 58.85 117.225 59.47 117.425 60.44H117.5C117.71 59.51 117.86 58.89 117.95 58.58L119.15 54.11H120.44L118.07 62H116.63L115.49 57.29L115.13 55.67H115.07C114.91 56.47 114.795 57.01 114.725 57.29L113.6 62H112.145L109.775 54.11ZM124.395 62.18C123.185 62.18 122.275 61.845 121.665 61.175C121.055 60.495 120.75 59.455 120.75 58.055C120.75 56.655 121.055 55.62 121.665 54.95C122.275 54.27 123.185 53.93 124.395 53.93C125.605 53.93 126.515 54.27 127.125 54.95C127.735 55.62 128.04 56.655 128.04 58.055C128.04 59.455 127.735 60.495 127.125 61.175C126.515 61.845 125.605 62.18 124.395 62.18ZM124.395 61.085C125.195 61.085 125.775 60.855 126.135 60.395C126.495 59.925 126.675 59.165 126.675 58.115V57.995C126.675 56.945 126.495 56.19 126.135 55.73C125.775 55.26 125.195 55.025 124.395 55.025C123.595 55.025 123.015 55.26 122.655 55.73C122.295 56.19 122.115 56.945 122.115 57.995V58.115C122.115 59.165 122.295 59.925 122.655 60.395C123.015 60.855 123.595 61.085 124.395 61.085ZM133.425 55.205H132.27V54.11H133.425V52.85C133.425 52.33 133.555 51.9 133.815 51.56C134.075 51.21 134.515 51.035 135.135 51.035C135.335 51.035 135.535 51.055 135.735 51.095C135.945 51.125 136.12 51.165 136.26 51.215V52.13H135.48C134.99 52.13 134.745 52.37 134.745 52.85V54.11H136.26V55.205H134.745V62H133.425V55.205ZM140.18 62.18C138.97 62.18 138.06 61.845 137.45 61.175C136.84 60.495 136.535 59.455 136.535 58.055C136.535 56.655 136.84 55.62 137.45 54.95C138.06 54.27 138.97 53.93 140.18 53.93C141.39 53.93 142.3 54.27 142.91 54.95C143.52 55.62 143.825 56.655 143.825 58.055C143.825 59.455 143.52 60.495 142.91 61.175C142.3 61.845 141.39 62.18 140.18 62.18ZM140.18 61.085C140.98 61.085 141.56 60.855 141.92 60.395C142.28 59.925 142.46 59.165 142.46 58.115V57.995C142.46 56.945 142.28 56.19 141.92 55.73C141.56 55.26 140.98 55.025 140.18 55.025C139.38 55.025 138.8 55.26 138.44 55.73C138.08 56.19 137.9 56.945 137.9 57.995V58.115C137.9 59.165 138.08 59.925 138.44 60.395C138.8 60.855 139.38 61.085 140.18 61.085ZM145.05 54.11H146.055L146.205 55.295H146.295C146.445 54.905 146.67 54.58 146.97 54.32C147.27 54.06 147.665 53.93 148.155 53.93C148.425 53.93 148.66 53.97 148.86 54.05V55.325H148.305C147.745 55.325 147.28 55.49 146.91 55.82C146.55 56.14 146.37 56.645 146.37 57.335V62H145.05V54.11ZM1.005 75.11H2.01L2.16 76.175H2.265C2.805 75.345 3.595 74.93 4.635 74.93C5.655 74.93 6.335 75.345 6.675 76.175H6.765C7.035 75.775 7.385 75.47 7.815 75.26C8.255 75.04 8.72 74.93 9.21 74.93C10.76 74.93 11.535 75.725 11.535 77.315V83H10.215V77.555C10.215 76.985 10.09 76.59 9.84 76.37C9.59 76.14 9.245 76.025 8.805 76.025C8.275 76.025 7.83 76.235 7.47 76.655C7.11 77.075 6.93 77.635 6.93 78.335V83H5.61V77.555C5.61 76.985 5.49 76.59 5.25 76.37C5.01 76.14 4.67 76.025 4.23 76.025C3.89 76.025 3.575 76.12 3.285 76.31C2.995 76.49 2.76 76.755 2.58 77.105C2.41 77.455 2.325 77.865 2.325 78.335V83H1.005V75.11ZM13.2001 72.155H14.5051V73.58H13.2001V72.155ZM13.2001 75.11H14.5201V83H13.2001V75.11ZM16.2253 75.11H17.2303L17.3803 76.295H17.4703C17.6203 75.905 17.8453 75.58 18.1453 75.32C18.4453 75.06 18.8403 74.93 19.3303 74.93C19.6003 74.93 19.8353 74.97 20.0353 75.05V76.325H19.4803C18.9203 76.325 18.4553 76.49 18.0853 76.82C17.7253 77.14 17.5453 77.645 17.5453 78.335V83H16.2253V75.11ZM22.7054 83.165C22.1654 83.165 21.7704 83.005 21.5204 82.685C21.2704 82.365 21.1454 81.97 21.1454 81.5V76.205H20.1854V75.11H21.1604L21.4454 72.92H22.4654V75.11H23.8004V76.205H22.4654V81.38C22.4654 81.85 22.6854 82.085 23.1254 82.085H23.8004V82.955C23.6704 83.015 23.5004 83.065 23.2904 83.105C23.0804 83.145 22.8854 83.165 22.7054 83.165ZM24.7952 72.155H26.1152V75.995H26.2202C26.7702 75.285 27.6002 74.93 28.7102 74.93C30.3502 74.93 31.1702 75.825 31.1702 77.615V83H29.8502V77.705C29.8502 77.075 29.7102 76.64 29.4302 76.4C29.1502 76.15 28.7452 76.025 28.2152 76.025C27.8352 76.025 27.4852 76.12 27.1652 76.31C26.8452 76.49 26.5902 76.755 26.4002 77.105C26.2102 77.455 26.1152 77.865 26.1152 78.335V83H24.7952V72.155ZM33.7602 83H33.1602V81.38H34.6602V82.865L33.9402 85.01H33.1602L33.7602 83ZM43.1811 73.955H39.6411V72.71H48.1461V73.955H44.6061V83H43.1811V73.955ZM49.1861 72.155H50.5061V75.995H50.6111C51.1611 75.285 51.9911 74.93 53.1011 74.93C54.7411 74.93 55.5611 75.825 55.5611 77.615V83H54.2411V77.705C54.2411 77.075 54.1011 76.64 53.8211 76.4C53.5411 76.15 53.1361 76.025 52.6061 76.025C52.2261 76.025 51.8761 76.12 51.5561 76.31C51.2361 76.49 50.9811 76.755 50.7911 77.105C50.6011 77.455 50.5061 77.865 50.5061 78.335V83H49.1861V72.155ZM57.221 75.11H58.226L58.376 76.295H58.466C58.616 75.905 58.841 75.58 59.141 75.32C59.441 75.06 59.836 74.93 60.326 74.93C60.596 74.93 60.831 74.97 61.031 75.05V76.325H60.476C59.916 76.325 59.451 76.49 59.081 76.82C58.721 77.14 58.541 77.645 58.541 78.335V83H57.221V75.11ZM65.2611 83.18C63.9911 83.18 63.0461 82.845 62.4261 82.175C61.8061 81.505 61.4961 80.465 61.4961 79.055C61.4961 77.645 61.8061 76.605 62.4261 75.935C63.0461 75.265 63.9911 74.93 65.2611 74.93C66.4011 74.93 67.2511 75.235 67.8111 75.845C68.3811 76.445 68.6661 77.415 68.6661 78.755V79.415H62.8611C62.9111 80.325 63.1261 81 63.5061 81.44C63.8961 81.87 64.4811 82.085 65.2611 82.085C65.8911 82.085 66.4011 81.94 66.7911 81.65C67.1811 81.36 67.3761 80.915 67.3761 80.315H68.6661C68.6661 81.235 68.3461 81.945 67.7061 82.445C67.0761 82.935 66.2611 83.18 65.2611 83.18ZM67.2861 78.32C67.2861 76.79 66.6111 76.025 65.2611 76.025C64.5111 76.025 63.9461 76.205 63.5661 76.565C63.1961 76.925 62.9711 77.51 62.8911 78.32H67.2861ZM73.2961 83.18C72.0261 83.18 71.0811 82.845 70.4611 82.175C69.8411 81.505 69.5311 80.465 69.5311 79.055C69.5311 77.645 69.8411 76.605 70.4611 75.935C71.0811 75.265 72.0261 74.93 73.2961 74.93C74.4361 74.93 75.2861 75.235 75.8461 75.845C76.4161 76.445 76.7011 77.415 76.7011 78.755V79.415H70.8961C70.9461 80.325 71.1611 81 71.5411 81.44C71.9311 81.87 72.5161 82.085 73.2961 82.085C73.9261 82.085 74.4361 81.94 74.8261 81.65C75.2161 81.36 75.4111 80.915 75.4111 80.315H76.7011C76.7011 81.235 76.3811 81.945 75.7411 82.445C75.1111 82.935 74.2961 83.18 73.2961 83.18ZM75.3211 78.32C75.3211 76.79 74.6461 76.025 73.2961 76.025C72.5461 76.025 71.9811 76.205 71.6011 76.565C71.2311 76.925 71.0061 77.51 70.9261 78.32H75.3211ZM82.1459 76.205H80.9909V75.11H82.1459V73.85C82.1459 73.33 82.2759 72.9 82.5359 72.56C82.7959 72.21 83.2359 72.035 83.8559 72.035C84.0559 72.035 84.2559 72.055 84.4559 72.095C84.6659 72.125 84.8409 72.165 84.9809 72.215V73.13H84.2009C83.7109 73.13 83.4659 73.37 83.4659 73.85V75.11H84.9809V76.205H83.4659V83H82.1459V76.205ZM88.9007 83.18C87.6907 83.18 86.7807 82.845 86.1707 82.175C85.5607 81.495 85.2557 80.455 85.2557 79.055C85.2557 77.655 85.5607 76.62 86.1707 75.95C86.7807 75.27 87.6907 74.93 88.9007 74.93C90.1107 74.93 91.0207 75.27 91.6307 75.95C92.2407 76.62 92.5457 77.655 92.5457 79.055C92.5457 80.455 92.2407 81.495 91.6307 82.175C91.0207 82.845 90.1107 83.18 88.9007 83.18ZM88.9007 82.085C89.7007 82.085 90.2807 81.855 90.6407 81.395C91.0007 80.925 91.1807 80.165 91.1807 79.115V78.995C91.1807 77.945 91.0007 77.19 90.6407 76.73C90.2807 76.26 89.7007 76.025 88.9007 76.025C88.1007 76.025 87.5207 76.26 87.1607 76.73C86.8007 77.19 86.6207 77.945 86.6207 78.995V79.115C86.6207 80.165 86.8007 80.925 87.1607 81.395C87.5207 81.855 88.1007 82.085 88.9007 82.085ZM93.7706 75.11H94.7756L94.9256 76.295H95.0156C95.1656 75.905 95.3906 75.58 95.6906 75.32C95.9906 75.06 96.3856 74.93 96.8756 74.93C97.1456 74.93 97.3806 74.97 97.5806 75.05V76.325H97.0256C96.4656 76.325 96.0006 76.49 95.6306 76.82C95.2706 77.14 95.0906 77.645 95.0906 78.335V83H93.7706V75.11ZM104.486 83.18C103.806 83.18 103.201 83.02 102.671 82.7C102.141 82.38 101.876 81.8 101.876 80.96C101.876 79.95 102.326 79.26 103.226 78.89C104.126 78.51 105.426 78.32 107.126 78.32V77.45C107.126 76.99 106.996 76.64 106.736 76.4C106.476 76.15 106.006 76.025 105.326 76.025C104.686 76.025 104.226 76.145 103.946 76.385C103.676 76.625 103.541 76.92 103.541 77.27V77.45H102.266C102.256 77.39 102.251 77.28 102.251 77.12C102.251 76.42 102.541 75.88 103.121 75.5C103.701 75.12 104.476 74.93 105.446 74.93C106.426 74.93 107.171 75.135 107.681 75.545C108.191 75.955 108.446 76.535 108.446 77.285V81.56C108.446 81.74 108.496 81.875 108.596 81.965C108.696 82.045 108.821 82.085 108.971 82.085H109.571V82.94C109.311 83.06 108.971 83.12 108.551 83.12C108.211 83.12 107.926 83.02 107.696 82.82C107.466 82.61 107.311 82.335 107.231 81.995H107.126C106.856 82.365 106.486 82.655 106.016 82.865C105.556 83.075 105.046 83.18 104.486 83.18ZM104.831 82.085C105.221 82.085 105.591 82.005 105.941 81.845C106.291 81.685 106.576 81.45 106.796 81.14C107.016 80.82 107.126 80.435 107.126 79.985V79.415C105.836 79.415 104.866 79.52 104.216 79.73C103.576 79.93 103.256 80.315 103.256 80.885C103.256 81.315 103.386 81.625 103.646 81.815C103.916 81.995 104.311 82.085 104.831 82.085ZM0.075 96.11H1.44L2.655 100.58C2.735 100.85 2.89 101.47 3.12 102.44H3.195L3.585 100.58L4.62 96.11H6.225L7.32 100.58C7.39 100.85 7.525 101.47 7.725 102.44H7.8C8.01 101.51 8.16 100.89 8.25 100.58L9.45 96.11H10.74L8.37 104H6.93L5.79 99.29L5.43 97.67H5.37C5.21 98.47 5.095 99.01 5.025 99.29L3.9 104H2.445L0.075 96.11ZM14.8752 104.18C13.6052 104.18 12.6602 103.845 12.0402 103.175C11.4202 102.505 11.1102 101.465 11.1102 100.055C11.1102 98.645 11.4202 97.605 12.0402 96.935C12.6602 96.265 13.6052 95.93 14.8752 95.93C16.0152 95.93 16.8652 96.235 17.4252 96.845C17.9952 97.445 18.2802 98.415 18.2802 99.755V100.415H12.4752C12.5252 101.325 12.7402 102 13.1202 102.44C13.5102 102.87 14.0952 103.085 14.8752 103.085C15.5052 103.085 16.0152 102.94 16.4052 102.65C16.7952 102.36 16.9902 101.915 16.9902 101.315H18.2802C18.2802 102.235 17.9602 102.945 17.3202 103.445C16.6902 103.935 15.8752 104.18 14.8752 104.18ZM16.9002 99.32C16.9002 97.79 16.2252 97.025 14.8752 97.025C14.1252 97.025 13.5602 97.205 13.1802 97.565C12.8102 97.925 12.5852 98.51 12.5052 99.32H16.9002ZM22.2052 104.18C21.2052 104.18 20.4352 103.845 19.8952 103.175C19.3552 102.505 19.0852 101.465 19.0852 100.055C19.0852 98.675 19.3502 97.645 19.8802 96.965C20.4202 96.275 21.1552 95.93 22.0852 95.93C22.6452 95.93 23.1202 96.015 23.5102 96.185C23.9002 96.355 24.2252 96.63 24.4852 97.01H24.5752V93.155H25.8952V104H24.9052L24.7402 102.935H24.6502C24.3902 103.345 24.0452 103.655 23.6152 103.865C23.1952 104.075 22.7252 104.18 22.2052 104.18ZM22.5352 103.085C23.2452 103.085 23.7602 102.835 24.0802 102.335C24.4102 101.835 24.5752 101.095 24.5752 100.115V100.055C24.5752 99.055 24.4102 98.3 24.0802 97.79C23.7502 97.28 23.2352 97.025 22.5352 97.025C22.0352 97.025 21.6302 97.125 21.3202 97.325C21.0202 97.515 20.8002 97.83 20.6602 98.27C20.5202 98.71 20.4502 99.305 20.4502 100.055V100.115C20.4502 100.855 20.5202 101.44 20.6602 101.87C20.8002 102.3 21.0202 102.61 21.3202 102.8C21.6202 102.99 22.0252 103.085 22.5352 103.085ZM30.2401 104.18C29.2401 104.18 28.4701 103.845 27.9301 103.175C27.3901 102.505 27.1201 101.465 27.1201 100.055C27.1201 98.675 27.3851 97.645 27.9151 96.965C28.4551 96.275 29.1901 95.93 30.1201 95.93C30.6801 95.93 31.1551 96.015 31.5451 96.185C31.9351 96.355 32.2601 96.63 32.5201 97.01H32.6101V93.155H33.9301V104H32.9401L32.7751 102.935H32.6851C32.4251 103.345 32.0801 103.655 31.6501 103.865C31.2301 104.075 30.7601 104.18 30.2401 104.18ZM30.5701 103.085C31.2801 103.085 31.7951 102.835 32.1151 102.335C32.4451 101.835 32.6101 101.095 32.6101 100.115V100.055C32.6101 99.055 32.4451 98.3 32.1151 97.79C31.7851 97.28 31.2701 97.025 30.5701 97.025C30.0701 97.025 29.6651 97.125 29.3551 97.325C29.0551 97.515 28.8351 97.83 28.6951 98.27C28.5551 98.71 28.4851 99.305 28.4851 100.055V100.115C28.4851 100.855 28.5551 101.44 28.6951 101.87C28.8351 102.3 29.0551 102.61 29.3551 102.8C29.6551 102.99 30.0601 103.085 30.5701 103.085ZM35.6351 93.155H36.9401V94.58H35.6351V93.155ZM35.6351 96.11H36.9551V104H35.6351V96.11ZM38.6603 96.11H39.6653L39.8153 97.175H39.9203C40.5003 96.345 41.3853 95.93 42.5753 95.93C43.3653 95.93 43.9703 96.145 44.3903 96.575C44.8203 96.995 45.0353 97.675 45.0353 98.615V104H43.7153V98.705C43.7153 98.075 43.5753 97.64 43.2953 97.4C43.0153 97.15 42.6103 97.025 42.0803 97.025C41.7003 97.025 41.3503 97.12 41.0303 97.31C40.7103 97.49 40.4553 97.755 40.2653 98.105C40.0753 98.455 39.9803 98.865 39.9803 99.335V104H38.6603V96.11ZM48.1052 106.73C47.5252 106.73 47.0202 106.58 46.5902 106.28C46.1702 105.99 45.9602 105.505 45.9602 104.825C45.9602 104.005 46.3852 103.445 47.2352 103.145C46.9952 103.015 46.7952 102.85 46.6352 102.65C46.4852 102.44 46.4102 102.2 46.4102 101.93C46.4102 101.54 46.5452 101.245 46.8152 101.045C47.0952 100.845 47.4002 100.705 47.7302 100.625C47.4002 100.385 47.1402 100.09 46.9502 99.74C46.7602 99.39 46.6652 99.005 46.6652 98.585C46.6652 97.745 46.9502 97.095 47.5202 96.635C48.0902 96.165 48.8702 95.93 49.8602 95.93C50.4102 95.93 50.9102 96.02 51.3602 96.2C52.0102 95.89 52.3902 95.435 52.5002 94.835H53.7602C53.7602 95.305 53.6202 95.71 53.3402 96.05C53.0702 96.39 52.7002 96.615 52.2302 96.725C52.7902 97.225 53.0702 97.845 53.0702 98.585C53.0702 99.425 52.7802 100.08 52.2002 100.55C51.6302 101.01 50.8502 101.24 49.8602 101.24H48.6002C48.3302 101.24 48.1202 101.3 47.9702 101.42C47.8302 101.54 47.7602 101.695 47.7602 101.885C47.7602 102.075 47.8302 102.23 47.9702 102.35C48.1202 102.47 48.3302 102.53 48.6002 102.53H51.7652C52.3852 102.53 52.8752 102.72 53.2352 103.1C53.5952 103.47 53.7752 103.92 53.7752 104.45C53.7752 104.83 53.6902 105.195 53.5202 105.545C53.3502 105.895 53.0752 106.18 52.6952 106.4C52.3252 106.62 51.8552 106.73 51.2852 106.73H48.1052ZM49.8752 100.22C50.4952 100.22 50.9652 100.08 51.2852 99.8C51.6052 99.51 51.7652 99.105 51.7652 98.585C51.7652 98.065 51.6052 97.665 51.2852 97.385C50.9652 97.095 50.4952 96.95 49.8752 96.95C49.2552 96.95 48.7852 97.095 48.4652 97.385C48.1452 97.665 47.9852 98.065 47.9852 98.585C47.9852 99.105 48.1452 99.51 48.4652 99.8C48.7852 100.08 49.2552 100.22 49.8752 100.22ZM51.3152 105.665C51.6452 105.665 51.9202 105.575 52.1402 105.395C52.3602 105.215 52.4702 104.975 52.4702 104.675C52.4702 104.375 52.3802 104.14 52.2002 103.97C52.0302 103.79 51.8002 103.7 51.5102 103.7H48.2252C47.9352 103.7 47.7052 103.79 47.5352 103.97C47.3652 104.14 47.2802 104.375 47.2802 104.675C47.2802 104.975 47.3652 105.215 47.5352 105.395C47.7052 105.575 47.9352 105.665 48.2252 105.665H51.3152ZM55.6602 104H55.0602V102.38H56.5602V103.865L55.8402 106.01H55.0602L55.6602 104ZM64.7495 93.71H66.5645L70.5545 104H69.0395L68.0045 101.255H63.2345L62.2295 104H60.7595L64.7495 93.71ZM67.5395 100.01L66.3395 96.8L65.6495 94.94H65.5745L64.8995 96.77L63.6995 100.01H67.5395ZM71.3644 96.11H72.3694L72.5194 97.175H72.6244C73.2044 96.345 74.0894 95.93 75.2794 95.93C76.0694 95.93 76.6744 96.145 77.0944 96.575C77.5244 96.995 77.7394 97.675 77.7394 98.615V104H76.4194V98.705C76.4194 98.075 76.2794 97.64 75.9994 97.4C75.7194 97.15 75.3144 97.025 74.7844 97.025C74.4044 97.025 74.0544 97.12 73.7344 97.31C73.4144 97.49 73.1594 97.755 72.9694 98.105C72.7794 98.455 72.6844 98.865 72.6844 99.335V104H71.3644V96.11ZM82.0393 104.18C81.0393 104.18 80.2693 103.845 79.7293 103.175C79.1893 102.505 78.9193 101.465 78.9193 100.055C78.9193 98.675 79.1843 97.645 79.7143 96.965C80.2543 96.275 80.9893 95.93 81.9193 95.93C82.4793 95.93 82.9543 96.015 83.3443 96.185C83.7343 96.355 84.0593 96.63 84.3193 97.01H84.4093V93.155H85.7293V104H84.7393L84.5743 102.935H84.4843C84.2243 103.345 83.8793 103.655 83.4493 103.865C83.0293 104.075 82.5593 104.18 82.0393 104.18ZM82.3693 103.085C83.0793 103.085 83.5943 102.835 83.9143 102.335C84.2443 101.835 84.4093 101.095 84.4093 100.115V100.055C84.4093 99.055 84.2443 98.3 83.9143 97.79C83.5843 97.28 83.0693 97.025 82.3693 97.025C81.8693 97.025 81.4643 97.125 81.1543 97.325C80.8543 97.515 80.6343 97.83 80.4943 98.27C80.3543 98.71 80.2843 99.305 80.2843 100.055V100.115C80.2843 100.855 80.3543 101.44 80.4943 101.87C80.6343 102.3 80.8543 102.61 81.1543 102.8C81.4543 102.99 81.8593 103.085 82.3693 103.085ZM91.5941 97.205H90.4391V96.11H91.5941V94.85C91.5941 94.33 91.7241 93.9 91.9841 93.56C92.2441 93.21 92.6841 93.035 93.3041 93.035C93.5041 93.035 93.7041 93.055 93.9041 93.095C94.1141 93.125 94.2891 93.165 94.4291 93.215V94.13H93.6491C93.1591 94.13 92.9141 94.37 92.9141 94.85V96.11H94.4291V97.205H92.9141V104H91.5941V97.205ZM98.3489 104.18C97.1389 104.18 96.2289 103.845 95.6189 103.175C95.0089 102.495 94.7039 101.455 94.7039 100.055C94.7039 98.655 95.0089 97.62 95.6189 96.95C96.2289 96.27 97.1389 95.93 98.3489 95.93C99.5589 95.93 100.469 96.27 101.079 96.95C101.689 97.62 101.994 98.655 101.994 100.055C101.994 101.455 101.689 102.495 101.079 103.175C100.469 103.845 99.5589 104.18 98.3489 104.18ZM98.3489 103.085C99.1489 103.085 99.7289 102.855 100.089 102.395C100.449 101.925 100.629 101.165 100.629 100.115V99.995C100.629 98.945 100.449 98.19 100.089 97.73C99.7289 97.26 99.1489 97.025 98.3489 97.025C97.5489 97.025 96.9689 97.26 96.6089 97.73C96.2489 98.19 96.0689 98.945 96.0689 99.995V100.115C96.0689 101.165 96.2489 101.925 96.6089 102.395C96.9689 102.855 97.5489 103.085 98.3489 103.085ZM105.634 104.18C104.844 104.18 104.234 103.97 103.804 103.55C103.384 103.12 103.174 102.435 103.174 101.495V96.11H104.494V101.405C104.494 102.035 104.634 102.475 104.914 102.725C105.194 102.965 105.599 103.085 106.129 103.085C106.509 103.085 106.859 102.995 107.179 102.815C107.499 102.625 107.754 102.355 107.944 102.005C108.134 101.655 108.229 101.245 108.229 100.775V96.11H109.549V104H108.544L108.394 102.935H108.289C107.709 103.765 106.824 104.18 105.634 104.18ZM111.254 96.11H112.259L112.409 97.295H112.499C112.649 96.905 112.874 96.58 113.174 96.32C113.474 96.06 113.869 95.93 114.359 95.93C114.629 95.93 114.864 95.97 115.064 96.05V97.325H114.509C113.949 97.325 113.484 97.49 113.114 97.82C112.754 98.14 112.574 98.645 112.574 99.335V104H111.254V96.11ZM120.109 97.205H118.954V96.11H120.109V94.85C120.109 94.33 120.239 93.9 120.499 93.56C120.759 93.21 121.199 93.035 121.819 93.035C122.019 93.035 122.219 93.055 122.419 93.095C122.629 93.125 122.804 93.165 122.944 93.215V94.13H122.164C121.674 94.13 121.429 94.37 121.429 94.85V96.11H122.944V97.205H121.429V104H120.109V97.205ZM126.864 104.18C125.654 104.18 124.744 103.845 124.134 103.175C123.524 102.495 123.219 101.455 123.219 100.055C123.219 98.655 123.524 97.62 124.134 96.95C124.744 96.27 125.654 95.93 126.864 95.93C128.074 95.93 128.984 96.27 129.594 96.95C130.204 97.62 130.509 98.655 130.509 100.055C130.509 101.455 130.204 102.495 129.594 103.175C128.984 103.845 128.074 104.18 126.864 104.18ZM126.864 103.085C127.664 103.085 128.244 102.855 128.604 102.395C128.964 101.925 129.144 101.165 129.144 100.115V99.995C129.144 98.945 128.964 98.19 128.604 97.73C128.244 97.26 127.664 97.025 126.864 97.025C126.064 97.025 125.484 97.26 125.124 97.73C124.764 98.19 124.584 98.945 124.584 99.995V100.115C124.584 101.165 124.764 101.925 125.124 102.395C125.484 102.855 126.064 103.085 126.864 103.085ZM131.734 96.11H132.739L132.889 97.295H132.979C133.129 96.905 133.354 96.58 133.654 96.32C133.954 96.06 134.349 95.93 134.839 95.93C135.109 95.93 135.344 95.97 135.544 96.05V97.325H134.989C134.429 97.325 133.964 97.49 133.594 97.82C133.234 98.14 133.054 98.645 133.054 99.335V104H131.734V96.11ZM3.645 125.18C2.645 125.18 1.875 124.845 1.335 124.175C0.795 123.505 0.525 122.465 0.525 121.055C0.525 119.675 0.79 118.645 1.32 117.965C1.86 117.275 2.595 116.93 3.525 116.93C4.085 116.93 4.56 117.015 4.95 117.185C5.34 117.355 5.665 117.63 5.925 118.01H6.015V114.155H7.335V125H6.345L6.18 123.935H6.09C5.83 124.345 5.485 124.655 5.055 124.865C4.635 125.075 4.165 125.18 3.645 125.18ZM3.975 124.085C4.685 124.085 5.2 123.835 5.52 123.335C5.85 122.835 6.015 122.095 6.015 121.115V121.055C6.015 120.055 5.85 119.3 5.52 118.79C5.19 118.28 4.675 118.025 3.975 118.025C3.475 118.025 3.07 118.125 2.76 118.325C2.46 118.515 2.24 118.83 2.1 119.27C1.96 119.71 1.89 120.305 1.89 121.055V121.115C1.89 121.855 1.96 122.44 2.1 122.87C2.24 123.3 2.46 123.61 2.76 123.8C3.06 123.99 3.465 124.085 3.975 124.085ZM12.385 125.18C11.115 125.18 10.17 124.845 9.54996 124.175C8.92996 123.505 8.61996 122.465 8.61996 121.055C8.61996 119.645 8.92996 118.605 9.54996 117.935C10.17 117.265 11.115 116.93 12.385 116.93C13.525 116.93 14.375 117.235 14.935 117.845C15.505 118.445 15.79 119.415 15.79 120.755V121.415H9.98496C10.035 122.325 10.25 123 10.63 123.44C11.02 123.87 11.605 124.085 12.385 124.085C13.015 124.085 13.525 123.94 13.915 123.65C14.305 123.36 14.5 122.915 14.5 122.315H15.79C15.79 123.235 15.47 123.945 14.83 124.445C14.2 124.935 13.385 125.18 12.385 125.18ZM14.41 120.32C14.41 118.79 13.735 118.025 12.385 118.025C11.635 118.025 11.07 118.205 10.69 118.565C10.32 118.925 10.095 119.51 10.015 120.32H14.41ZM19.2199 125.18C18.5399 125.18 17.9349 125.02 17.4049 124.7C16.8749 124.38 16.6099 123.8 16.6099 122.96C16.6099 121.95 17.0599 121.26 17.9599 120.89C18.8599 120.51 20.1599 120.32 21.8599 120.32V119.45C21.8599 118.99 21.7299 118.64 21.4699 118.4C21.2099 118.15 20.7399 118.025 20.0599 118.025C19.4199 118.025 18.9599 118.145 18.6799 118.385C18.4099 118.625 18.2749 118.92 18.2749 119.27V119.45H16.9999C16.9899 119.39 16.9849 119.28 16.9849 119.12C16.9849 118.42 17.2749 117.88 17.8549 117.5C18.4349 117.12 19.2099 116.93 20.1799 116.93C21.1599 116.93 21.9049 117.135 22.4149 117.545C22.9249 117.955 23.1799 118.535 23.1799 119.285V123.56C23.1799 123.74 23.2299 123.875 23.3299 123.965C23.4299 124.045 23.5549 124.085 23.7049 124.085H24.3049V124.94C24.0449 125.06 23.7049 125.12 23.2849 125.12C22.9449 125.12 22.6599 125.02 22.4299 124.82C22.1999 124.61 22.0449 124.335 21.9649 123.995H21.8599C21.5899 124.365 21.2199 124.655 20.7499 124.865C20.2899 125.075 19.7799 125.18 19.2199 125.18ZM19.5649 124.085C19.9549 124.085 20.3249 124.005 20.6749 123.845C21.0249 123.685 21.3099 123.45 21.5299 123.14C21.7499 122.82 21.8599 122.435 21.8599 121.985V121.415C20.5699 121.415 19.5999 121.52 18.9499 121.73C18.3099 121.93 17.9899 122.315 17.9899 122.885C17.9899 123.315 18.1199 123.625 18.3799 123.815C18.6499 123.995 19.0449 124.085 19.5649 124.085ZM26.8949 125.165C26.3549 125.165 25.9599 125.005 25.7099 124.685C25.4599 124.365 25.3349 123.97 25.3349 123.5V118.205H24.3749V117.11H25.3499L25.6349 114.92H26.6549V117.11H27.9899V118.205H26.6549V123.38C26.6549 123.85 26.8749 124.085 27.3149 124.085H27.9899V124.955C27.8599 125.015 27.6899 125.065 27.4799 125.105C27.2699 125.145 27.0749 125.165 26.8949 125.165ZM28.9847 114.155H30.3047V117.995H30.4097C30.9597 117.285 31.7897 116.93 32.8997 116.93C34.5397 116.93 35.3597 117.825 35.3597 119.615V125H34.0397V119.705C34.0397 119.075 33.8997 118.64 33.6197 118.4C33.3397 118.15 32.9347 118.025 32.4047 118.025C32.0247 118.025 31.6747 118.12 31.3547 118.31C31.0347 118.49 30.7797 118.755 30.5897 119.105C30.3997 119.455 30.3047 119.865 30.3047 120.335V125H28.9847V114.155Z" fill="#2A2921"/>
</svg>
