<svg width="169" height="136" viewBox="0 0 169 136" fill="none" xmlns="http://www.w3.org/2000/svg">
<path d="M12.832 38H9.90234L4.19922 28.6445V38H1.26953V23.7812H4.19922L9.91211 33.1562V23.7812H12.832V38ZM21.1332 36.9258C20.4366 37.7721 19.473 38.1953 18.2426 38.1953C17.1098 38.1953 16.2439 37.8698 15.6449 37.2188C15.0525 36.5677 14.7497 35.6139 14.7367 34.3574V27.4336H17.559V34.2598C17.559 35.36 18.0603 35.9102 19.0629 35.9102C20.0199 35.9102 20.6775 35.5781 21.0355 34.9141V27.4336H23.8676V38H21.2113L21.1332 36.9258ZM31.534 30.0801C31.1499 30.028 30.8113 30.002 30.5184 30.002C29.4507 30.002 28.7508 30.3633 28.4188 31.0859V38H25.5965V27.4336H28.2625L28.3406 28.6934C28.907 27.7233 29.6915 27.2383 30.6941 27.2383C31.0066 27.2383 31.2996 27.2806 31.573 27.3652L31.534 30.0801ZM38.2238 35.0801C38.2238 34.735 38.0513 34.4648 37.7062 34.2695C37.3677 34.0677 36.8208 33.8887 36.0656 33.7324C33.5526 33.2051 32.2961 32.1374 32.2961 30.5293C32.2961 29.5918 32.6835 28.8105 33.4582 28.1855C34.2395 27.554 35.2583 27.2383 36.5148 27.2383C37.856 27.2383 38.927 27.554 39.7277 28.1855C40.535 28.8171 40.9387 29.6374 40.9387 30.6465H38.1164C38.1164 30.2428 37.9862 29.9108 37.7258 29.6504C37.4654 29.3835 37.0585 29.25 36.5051 29.25C36.0298 29.25 35.662 29.3574 35.4016 29.5723C35.1411 29.7871 35.0109 30.0605 35.0109 30.3926C35.0109 30.7051 35.1574 30.959 35.4504 31.1543C35.7499 31.3431 36.2512 31.5091 36.9543 31.6523C37.6574 31.7891 38.2499 31.9453 38.7316 32.1211C40.2225 32.668 40.968 33.6152 40.968 34.9629C40.968 35.9264 40.5546 36.7077 39.7277 37.3066C38.9009 37.8991 37.8332 38.1953 36.5246 38.1953C35.6392 38.1953 34.8514 38.0391 34.1613 37.7266C33.4777 37.4076 32.9406 36.9746 32.55 36.4277C32.1594 35.8743 31.9641 35.2786 31.9641 34.6406H34.6398C34.6659 35.1419 34.8514 35.526 35.1965 35.793C35.5415 36.0599 36.0038 36.1934 36.5832 36.1934C37.1236 36.1934 37.5305 36.0924 37.8039 35.8906C38.0839 35.6823 38.2238 35.4121 38.2238 35.0801ZM47.2574 38.1953C45.7079 38.1953 44.4449 37.7201 43.4684 36.7695C42.4983 35.819 42.0133 34.5527 42.0133 32.9707V32.6973C42.0133 31.6361 42.2184 30.6888 42.6285 29.8555C43.0387 29.0156 43.6181 28.3711 44.3668 27.9219C45.122 27.4661 45.9814 27.2383 46.9449 27.2383C48.3902 27.2383 49.5263 27.694 50.3531 28.6055C51.1865 29.5169 51.6031 30.8092 51.6031 32.4824V33.6348H44.8746C44.9658 34.3249 45.2392 34.8783 45.6949 35.2949C46.1572 35.7116 46.7398 35.9199 47.443 35.9199C48.5302 35.9199 49.3798 35.526 49.9918 34.7383L51.3785 36.291C50.9553 36.89 50.3824 37.3587 49.6598 37.6973C48.9371 38.0293 48.1363 38.1953 47.2574 38.1953ZM46.9352 29.5234C46.3753 29.5234 45.9195 29.7122 45.568 30.0898C45.2229 30.4674 45.0016 31.0078 44.9039 31.7109H48.8297V31.4863C48.8167 30.8613 48.6474 30.3796 48.3219 30.041C47.9964 29.696 47.5341 29.5234 46.9352 29.5234ZM58.752 30.0801C58.3678 30.028 58.0293 30.002 57.7363 30.002C56.6686 30.002 55.9688 30.3633 55.6367 31.0859V38H52.8145V27.4336H55.4805L55.5586 28.6934C56.125 27.7233 56.9095 27.2383 57.9121 27.2383C58.2246 27.2383 58.5176 27.2806 58.791 27.3652L58.752 30.0801ZM63.8402 34.0059L65.7934 27.4336H68.8207L64.5727 39.6406L64.3383 40.1973C63.7068 41.5775 62.6651 42.2676 61.2133 42.2676C60.8031 42.2676 60.3865 42.2057 59.9633 42.082V39.9434L60.393 39.9531C60.9268 39.9531 61.324 39.8717 61.5844 39.709C61.8513 39.5462 62.0596 39.276 62.2094 38.8984L62.5414 38.0293L58.8402 27.4336H61.8773L63.8402 34.0059ZM79.5637 32.7949H77.2297V38H74.3V23.7812H79.5832C81.2629 23.7812 82.5585 24.1556 83.4699 24.9043C84.3814 25.653 84.8371 26.7109 84.8371 28.0781C84.8371 29.0482 84.6255 29.8587 84.2023 30.5098C83.7857 31.1543 83.1509 31.6686 82.298 32.0527L85.3742 37.8633V38H82.2297L79.5637 32.7949ZM77.2297 30.4219H79.593C80.3286 30.4219 80.8983 30.2363 81.302 29.8652C81.7056 29.4876 81.9074 28.9701 81.9074 28.3125C81.9074 27.6419 81.7154 27.1146 81.3313 26.7305C80.9536 26.3464 80.371 26.1543 79.5832 26.1543H77.2297V30.4219ZM89.2418 28.5859C89.9905 27.6875 90.9313 27.2383 92.0641 27.2383C94.3557 27.2383 95.5178 28.5697 95.5504 31.2324V38H92.7281V31.3105C92.7281 30.7051 92.5979 30.2591 92.3375 29.9727C92.0771 29.6797 91.6441 29.5332 91.0387 29.5332C90.2119 29.5332 89.6129 29.8522 89.2418 30.4902V38H86.4195V23H89.2418V28.5859ZM101.225 34.0059L103.178 27.4336H106.205L101.957 39.6406L101.723 40.1973C101.091 41.5775 100.049 42.2676 98.5977 42.2676C98.1875 42.2676 97.7708 42.2057 97.3477 42.082V39.9434L97.7773 39.9531C98.3112 39.9531 98.7083 39.8717 98.9688 39.709C99.2357 39.5462 99.444 39.276 99.5938 38.8984L99.9258 38.0293L96.2246 27.4336H99.2617L101.225 34.0059ZM109.565 27.4336L109.653 28.6152C110.401 27.6973 111.414 27.2383 112.69 27.2383C114.051 27.2383 114.985 27.7754 115.493 28.8496C116.235 27.7754 117.293 27.2383 118.666 27.2383C119.812 27.2383 120.665 27.5736 121.225 28.2441C121.785 28.9082 122.065 29.9108 122.065 31.252V38H119.233V31.2617C119.233 30.6628 119.116 30.2266 118.881 29.9531C118.647 29.6732 118.233 29.5332 117.641 29.5332C116.795 29.5332 116.209 29.9368 115.883 30.7441L115.893 38H113.071V31.2715C113.071 30.6595 112.95 30.2168 112.709 29.9434C112.468 29.6699 112.058 29.5332 111.479 29.5332C110.678 29.5332 110.099 29.8652 109.741 30.5293V38H106.918V27.4336H109.565ZM128.706 38.1953C127.156 38.1953 125.893 37.7201 124.917 36.7695C123.947 35.819 123.462 34.5527 123.462 32.9707V32.6973C123.462 31.6361 123.667 30.6888 124.077 29.8555C124.487 29.0156 125.067 28.3711 125.815 27.9219C126.57 27.4661 127.43 27.2383 128.393 27.2383C129.839 27.2383 130.975 27.694 131.802 28.6055C132.635 29.5169 133.052 30.8092 133.052 32.4824V33.6348H126.323C126.414 34.3249 126.688 34.8783 127.143 35.2949C127.606 35.7116 128.188 35.9199 128.891 35.9199C129.979 35.9199 130.828 35.526 131.44 34.7383L132.827 36.291C132.404 36.89 131.831 37.3587 131.108 37.6973C130.386 38.0293 129.585 38.1953 128.706 38.1953ZM128.384 29.5234C127.824 29.5234 127.368 29.7122 127.016 30.0898C126.671 30.4674 126.45 31.0078 126.352 31.7109H130.278V31.4863C130.265 30.8613 130.096 30.3796 129.77 30.041C129.445 29.696 128.983 29.5234 128.384 29.5234ZM139.986 35.0801C139.986 34.735 139.813 34.4648 139.468 34.2695C139.129 34.0677 138.583 33.8887 137.827 33.7324C135.314 33.2051 134.058 32.1374 134.058 30.5293C134.058 29.5918 134.445 28.8105 135.22 28.1855C136.001 27.554 137.02 27.2383 138.277 27.2383C139.618 27.2383 140.689 27.554 141.489 28.1855C142.297 28.8171 142.7 29.6374 142.7 30.6465H139.878C139.878 30.2428 139.748 29.9108 139.488 29.6504C139.227 29.3835 138.82 29.25 138.267 29.25C137.792 29.25 137.424 29.3574 137.163 29.5723C136.903 29.7871 136.773 30.0605 136.773 30.3926C136.773 30.7051 136.919 30.959 137.212 31.1543C137.512 31.3431 138.013 31.5091 138.716 31.6523C139.419 31.7891 140.012 31.9453 140.493 32.1211C141.984 32.668 142.73 33.6152 142.73 34.9629C142.73 35.9264 142.316 36.7077 141.489 37.3066C140.663 37.8991 139.595 38.1953 138.286 38.1953C137.401 38.1953 136.613 38.0391 135.923 37.7266C135.239 37.4076 134.702 36.9746 134.312 36.4277C133.921 35.8743 133.726 35.2786 133.726 34.6406H136.402C136.428 35.1419 136.613 35.526 136.958 35.793C137.303 36.0599 137.765 36.1934 138.345 36.1934C138.885 36.1934 139.292 36.0924 139.566 35.8906C139.846 35.6823 139.986 35.4121 139.986 35.0801Z" fill="#2A2921"/>
<path d="M5.31 70.165C4.41 70.165 3.61 69.97 2.91 69.58C2.22 69.18 1.685 68.65 1.305 67.99C0.925 67.32 0.735 66.59 0.735 65.8C0.735 65.01 0.925 64.28 1.305 63.61C1.685 62.93 2.22 62.395 2.91 62.005C3.61 61.605 4.41 61.405 5.31 61.405C6.21 61.405 7.005 61.605 7.695 62.005C8.395 62.395 8.935 62.93 9.315 63.61C9.695 64.28 9.885 65.01 9.885 65.8C9.885 66.59 9.695 67.32 9.315 67.99C8.935 68.65 8.395 69.18 7.695 69.58C7.005 69.97 6.21 70.165 5.31 70.165ZM5.31 69.265C5.98 69.265 6.56 69.11 7.05 68.8C7.54 68.49 7.915 68.075 8.175 67.555C8.445 67.025 8.58 66.44 8.58 65.8C8.58 65.15 8.445 64.56 8.175 64.03C7.915 63.5 7.54 63.08 7.05 62.77C6.56 62.45 5.98 62.29 5.31 62.29C4.64 62.29 4.06 62.45 3.57 62.77C3.08 63.08 2.705 63.505 2.445 64.045C2.185 64.575 2.055 65.165 2.055 65.815C2.055 66.465 2.185 67.05 2.445 67.57C2.705 68.09 3.08 68.505 3.57 68.815C4.06 69.115 4.64 69.265 5.31 69.265ZM18.0598 69.205V70H14.8948V69.205H15.8698V66.13C15.8698 65.72 15.7698 65.4 15.5698 65.17C15.3698 64.94 15.0948 64.825 14.7448 64.825C14.4548 64.825 14.1598 64.88 13.8598 64.99C13.5698 65.09 13.2498 65.245 12.8998 65.455V69.205H13.9648V70H10.6648V69.205H11.8048V64.9H10.6648V64.105H12.8998V64.69C13.6798 64.2 14.3898 63.955 15.0298 63.955C15.5898 63.955 16.0498 64.13 16.4098 64.48C16.7798 64.82 16.9648 65.3 16.9648 65.92V69.205H18.0598ZM24.1738 67.285H19.3138C19.3838 67.915 19.6088 68.415 19.9888 68.785C20.3688 69.145 20.8538 69.325 21.4438 69.325C22.2638 69.325 23.0088 69.01 23.6788 68.38L24.0688 69.055C23.7788 69.395 23.4138 69.67 22.9738 69.88C22.5338 70.08 22.0388 70.18 21.4888 70.18C20.8688 70.18 20.3038 70.05 19.7938 69.79C19.2838 69.53 18.8838 69.165 18.5938 68.695C18.3038 68.215 18.1588 67.67 18.1588 67.06C18.1588 66.44 18.2938 65.895 18.5638 65.425C18.8438 64.945 19.2188 64.58 19.6888 64.33C20.1688 64.07 20.6988 63.94 21.2788 63.94C22.1788 63.94 22.8838 64.215 23.3938 64.765C23.9138 65.315 24.1738 66.06 24.1738 67V67.285ZM23.0788 66.595C23.0788 66.025 22.9088 65.575 22.5688 65.245C22.2388 64.915 21.8088 64.75 21.2788 64.75C20.7588 64.75 20.3188 64.915 19.9588 65.245C19.5988 65.575 19.3838 66.025 19.3138 66.595H23.0788ZM29.2832 69.205H30.4532V64.9H29.2982V64.105H30.4532V62.845C30.4532 62.285 30.5982 61.85 30.8882 61.54C31.1882 61.22 31.6332 61.06 32.2232 61.06C32.6732 61.06 33.0482 61.17 33.3482 61.39C33.6582 61.61 33.8282 61.96 33.8582 62.44L33.0032 62.68C32.9532 62.4 32.8732 62.19 32.7632 62.05C32.6632 61.91 32.4982 61.84 32.2682 61.84C31.7982 61.84 31.5632 62.18 31.5632 62.86V64.105H33.3632V64.9H31.5632V69.205H33.0782V70H29.2832V69.205ZM36.6693 70.18C36.0393 70.18 35.4843 70.05 35.0043 69.79C34.5243 69.53 34.1493 69.165 33.8793 68.695C33.6193 68.215 33.4893 67.665 33.4893 67.045C33.4893 66.425 33.6193 65.88 33.8793 65.41C34.1493 64.94 34.5243 64.58 35.0043 64.33C35.4843 64.07 36.0393 63.94 36.6693 63.94C37.2993 63.94 37.8543 64.07 38.3343 64.33C38.8243 64.58 39.2043 64.94 39.4743 65.41C39.7443 65.88 39.8793 66.42 39.8793 67.03C39.8793 67.65 39.7443 68.2 39.4743 68.68C39.2043 69.16 38.8243 69.53 38.3343 69.79C37.8543 70.05 37.2993 70.18 36.6693 70.18ZM36.6693 69.31C37.2893 69.31 37.7893 69.105 38.1693 68.695C38.5493 68.275 38.7393 67.72 38.7393 67.03C38.7393 66.36 38.5493 65.825 38.1693 65.425C37.7893 65.015 37.2893 64.81 36.6693 64.81C36.0493 64.81 35.5543 65.015 35.1843 65.425C34.8143 65.835 34.6293 66.375 34.6293 67.045C34.6293 67.725 34.8143 68.275 35.1843 68.695C35.5643 69.105 36.0593 69.31 36.6693 69.31ZM44.223 64.03C44.603 64.03 45.003 64.13 45.423 64.33L45.153 65.335C44.813 65.115 44.468 65.005 44.118 65.005C43.718 65.005 43.383 65.17 43.113 65.5C42.853 65.82 42.723 66.265 42.723 66.835L42.708 69.205H43.758V70H40.473V69.205H41.613V64.9H40.473V64.105H42.708V65.185C43.028 64.415 43.533 64.03 44.223 64.03ZM53.5895 66.58C54.0495 66.69 54.4145 66.81 54.6845 66.94C54.9645 67.06 55.1895 67.24 55.3595 67.48C55.5295 67.72 55.6145 68.04 55.6145 68.44C55.6145 69 55.3945 69.425 54.9545 69.715C54.5145 70.005 53.9845 70.15 53.3645 70.15C52.9845 70.15 52.6245 70.09 52.2845 69.97C51.9445 69.85 51.6745 69.69 51.4745 69.49V70H50.6045V67.96H51.3845L51.4445 68.605C51.6145 68.855 51.8595 69.05 52.1795 69.19C52.5095 69.32 52.8545 69.385 53.2145 69.385C53.6045 69.385 53.9245 69.31 54.1745 69.16C54.4245 69 54.5495 68.79 54.5495 68.53C54.5495 68.23 54.4545 68.015 54.2645 67.885C54.0745 67.755 53.7195 67.635 53.1995 67.525L52.3745 67.345C51.7645 67.195 51.3145 67 51.0245 66.76C50.7345 66.51 50.5895 66.125 50.5895 65.605C50.5895 65.095 50.7895 64.695 51.1895 64.405C51.5995 64.105 52.1245 63.955 52.7645 63.955C53.0745 63.955 53.3895 64.005 53.7095 64.105C54.0395 64.205 54.2995 64.345 54.4895 64.525V64.075H55.3745V66.1H54.5945L54.4895 65.365C54.3395 65.185 54.1145 65.04 53.8145 64.93C53.5245 64.81 53.2345 64.75 52.9445 64.75C52.5945 64.75 52.2995 64.82 52.0595 64.96C51.8195 65.1 51.6995 65.305 51.6995 65.575C51.6995 65.795 51.7845 65.965 51.9545 66.085C52.1245 66.205 52.4145 66.315 52.8245 66.415L53.5895 66.58ZM54.6545 65.665L54.6395 65.635L54.6545 65.665ZM51.2645 68.23C51.2645 68.25 51.2695 68.265 51.2795 68.275L51.2645 68.23ZM59.4341 70.18C58.8041 70.18 58.2491 70.05 57.7691 69.79C57.2891 69.53 56.9141 69.165 56.6441 68.695C56.3841 68.215 56.2541 67.665 56.2541 67.045C56.2541 66.425 56.3841 65.88 56.6441 65.41C56.9141 64.94 57.2891 64.58 57.7691 64.33C58.2491 64.07 58.8041 63.94 59.4341 63.94C60.0641 63.94 60.6191 64.07 61.0991 64.33C61.5891 64.58 61.9691 64.94 62.2391 65.41C62.5091 65.88 62.6441 66.42 62.6441 67.03C62.6441 67.65 62.5091 68.2 62.2391 68.68C61.9691 69.16 61.5891 69.53 61.0991 69.79C60.6191 70.05 60.0641 70.18 59.4341 70.18ZM59.4341 69.31C60.0541 69.31 60.5541 69.105 60.9341 68.695C61.3141 68.275 61.5041 67.72 61.5041 67.03C61.5041 66.36 61.3141 65.825 60.9341 65.425C60.5541 65.015 60.0541 64.81 59.4341 64.81C58.8141 64.81 58.3191 65.015 57.9491 65.425C57.5791 65.835 57.3941 66.375 57.3941 67.045C57.3941 67.725 57.5791 68.275 57.9491 68.695C58.3291 69.105 58.8241 69.31 59.4341 69.31ZM66.9879 64.03C67.3679 64.03 67.7679 64.13 68.1879 64.33L67.9179 65.335C67.5779 65.115 67.2329 65.005 66.8829 65.005C66.4829 65.005 66.1479 65.17 65.8779 65.5C65.6179 65.82 65.4879 66.265 65.4879 66.835L65.4729 69.205H66.5229V70H63.2379V69.205H64.3779V64.9H63.2379V64.105H65.4729V65.185C65.7929 64.415 66.2979 64.03 66.9879 64.03ZM72.474 64.03C72.854 64.03 73.254 64.13 73.674 64.33L73.404 65.335C73.064 65.115 72.719 65.005 72.369 65.005C71.969 65.005 71.634 65.17 71.364 65.5C71.104 65.82 70.974 66.265 70.974 66.835L70.959 69.205H72.009V70H68.724V69.205H69.864V64.9H68.724V64.105H70.959V65.185C71.279 64.415 71.784 64.03 72.474 64.03ZM77.2402 70.18C76.6102 70.18 76.0552 70.05 75.5752 69.79C75.0952 69.53 74.7202 69.165 74.4502 68.695C74.1902 68.215 74.0602 67.665 74.0602 67.045C74.0602 66.425 74.1902 65.88 74.4502 65.41C74.7202 64.94 75.0952 64.58 75.5752 64.33C76.0552 64.07 76.6102 63.94 77.2402 63.94C77.8702 63.94 78.4252 64.07 78.9052 64.33C79.3952 64.58 79.7752 64.94 80.0452 65.41C80.3152 65.88 80.4502 66.42 80.4502 67.03C80.4502 67.65 80.3152 68.2 80.0452 68.68C79.7752 69.16 79.3952 69.53 78.9052 69.79C78.4252 70.05 77.8702 70.18 77.2402 70.18ZM77.2402 69.31C77.8602 69.31 78.3602 69.105 78.7402 68.695C79.1202 68.275 79.3102 67.72 79.3102 67.03C79.3102 66.36 79.1202 65.825 78.7402 65.425C78.3602 65.015 77.8602 64.81 77.2402 64.81C76.6202 64.81 76.1252 65.015 75.7552 65.425C75.3852 65.835 75.2002 66.375 75.2002 67.045C75.2002 67.725 75.3852 68.275 75.7552 68.695C76.1352 69.105 76.6302 69.31 77.2402 69.31ZM81.4339 64.9H80.6539V64.105H83.3239V64.9H82.5139L83.9089 68.905L85.3039 64.9H84.4639V64.105H87.3589V64.9H86.5039L87.9589 68.92L89.2489 64.9H88.4239V64.105H91.0789V64.9H90.2539L88.4839 70H87.4039L85.8889 65.815L84.3739 70H83.2939L81.4339 64.9ZM91.8416 71.17C92.1516 71.12 92.3616 71.01 92.4716 70.84C92.5916 70.68 92.6516 70.4 92.6516 70H91.8866V68.575H93.3566V69.775C93.3566 70.425 93.2366 70.915 92.9966 71.245C92.7566 71.575 92.3716 71.74 91.8416 71.74V71.17ZM100.96 69.205H102.13V62.35H99.8201V64.495H98.9051V61.555H106.525V64.495H105.61V62.35H103.345V69.205H104.515V70H100.96V69.205ZM107.524 64.9H106.744V64.105H109.414V64.9H108.604L109.999 68.905L111.394 64.9H110.554V64.105H113.449V64.9H112.594L114.049 68.92L115.339 64.9H114.514V64.105H117.169V64.9H116.344L114.574 70H113.494L111.979 65.815L110.464 70H109.384L107.524 64.9ZM120.587 70.18C119.957 70.18 119.402 70.05 118.922 69.79C118.442 69.53 118.067 69.165 117.797 68.695C117.537 68.215 117.407 67.665 117.407 67.045C117.407 66.425 117.537 65.88 117.797 65.41C118.067 64.94 118.442 64.58 118.922 64.33C119.402 64.07 119.957 63.94 120.587 63.94C121.217 63.94 121.772 64.07 122.252 64.33C122.742 64.58 123.122 64.94 123.392 65.41C123.662 65.88 123.797 66.42 123.797 67.03C123.797 67.65 123.662 68.2 123.392 68.68C123.122 69.16 122.742 69.53 122.252 69.79C121.772 70.05 121.217 70.18 120.587 70.18ZM120.587 69.31C121.207 69.31 121.707 69.105 122.087 68.695C122.467 68.275 122.657 67.72 122.657 67.03C122.657 66.36 122.467 65.825 122.087 65.425C121.707 65.015 121.207 64.81 120.587 64.81C119.967 64.81 119.472 65.015 119.102 65.425C118.732 65.835 118.547 66.375 118.547 67.045C118.547 67.725 118.732 68.275 119.102 68.695C119.482 69.105 119.977 69.31 120.587 69.31ZM128.751 69.205H129.921V64.9H128.766V64.105H129.921V62.845C129.921 62.285 130.066 61.85 130.356 61.54C130.656 61.22 131.101 61.06 131.691 61.06C132.141 61.06 132.516 61.17 132.816 61.39C133.126 61.61 133.296 61.96 133.326 62.44L132.471 62.68C132.421 62.4 132.341 62.19 132.231 62.05C132.131 61.91 131.966 61.84 131.736 61.84C131.266 61.84 131.031 62.18 131.031 62.86V64.105H132.831V64.9H131.031V69.205H132.546V70H128.751V69.205ZM136.137 70.18C135.507 70.18 134.952 70.05 134.472 69.79C133.992 69.53 133.617 69.165 133.347 68.695C133.087 68.215 132.957 67.665 132.957 67.045C132.957 66.425 133.087 65.88 133.347 65.41C133.617 64.94 133.992 64.58 134.472 64.33C134.952 64.07 135.507 63.94 136.137 63.94C136.767 63.94 137.322 64.07 137.802 64.33C138.292 64.58 138.672 64.94 138.942 65.41C139.212 65.88 139.347 66.42 139.347 67.03C139.347 67.65 139.212 68.2 138.942 68.68C138.672 69.16 138.292 69.53 137.802 69.79C137.322 70.05 136.767 70.18 136.137 70.18ZM136.137 69.31C136.757 69.31 137.257 69.105 137.637 68.695C138.017 68.275 138.207 67.72 138.207 67.03C138.207 66.36 138.017 65.825 137.637 65.425C137.257 65.015 136.757 64.81 136.137 64.81C135.517 64.81 135.022 65.015 134.652 65.425C134.282 65.835 134.097 66.375 134.097 67.045C134.097 67.725 134.282 68.275 134.652 68.695C135.032 69.105 135.527 69.31 136.137 69.31ZM143.691 64.03C144.071 64.03 144.471 64.13 144.891 64.33L144.621 65.335C144.281 65.115 143.936 65.005 143.586 65.005C143.186 65.005 142.851 65.17 142.581 65.5C142.321 65.82 142.191 66.265 142.191 66.835L142.176 69.205H143.226V70H139.941V69.205H141.081V64.9H139.941V64.105H142.176V65.185C142.496 64.415 143.001 64.03 143.691 64.03ZM11.775 90.205V91H8.61V90.205H9.6V87.13C9.6 86.72 9.5 86.4 9.3 86.17C9.1 85.94 8.825 85.825 8.475 85.825C7.865 85.825 7.225 86.05 6.555 86.5C6.585 86.65 6.6 86.8 6.6 86.95V90.205H7.68V91H4.515V90.205H5.505V87.13C5.505 86.72 5.405 86.4 5.205 86.17C5.005 85.94 4.73 85.825 4.38 85.825C3.87 85.825 3.265 86.025 2.565 86.425V90.205H3.63V91H0.33V90.205H1.47V85.9H0.33V85.105H2.565V85.675C3.325 85.195 4.025 84.955 4.665 84.955C5.055 84.955 5.395 85.04 5.685 85.21C5.975 85.37 6.195 85.595 6.345 85.885C6.785 85.585 7.195 85.355 7.575 85.195C7.955 85.035 8.35 84.955 8.76 84.955C9.32 84.955 9.78 85.13 10.14 85.48C10.51 85.82 10.695 86.3 10.695 86.92V90.205H11.775ZM13.3816 83.815C13.1516 83.815 12.9566 83.745 12.7966 83.605C12.6466 83.455 12.5716 83.27 12.5716 83.05C12.5716 82.83 12.6466 82.65 12.7966 82.51C12.9566 82.36 13.1516 82.285 13.3816 82.285C13.6116 82.285 13.8016 82.36 13.9516 82.51C14.1116 82.65 14.1916 82.83 14.1916 83.05C14.1916 83.27 14.1116 83.455 13.9516 83.605C13.8016 83.745 13.6116 83.815 13.3816 83.815ZM11.8366 90.205H12.9766V85.9H11.8516V85.105H14.0716V90.205H15.1366V91H11.8366V90.205ZM19.4807 85.03C19.8607 85.03 20.2607 85.13 20.6807 85.33L20.4107 86.335C20.0707 86.115 19.7257 86.005 19.3757 86.005C18.9757 86.005 18.6407 86.17 18.3707 86.5C18.1107 86.82 17.9807 87.265 17.9807 87.835L17.9657 90.205H19.0157V91H15.7307V90.205H16.8707V85.9H15.7307V85.105H17.9657V86.185C18.2857 85.415 18.7907 85.03 19.4807 85.03ZM23.6768 91C22.5368 91 21.9668 90.42 21.9668 89.26V85.9H20.9918V85.105H21.9668V83.095L23.0768 82.66V85.105H24.6368V85.9H23.0768V89.2C23.0768 89.57 23.1368 89.83 23.2568 89.98C23.3768 90.13 23.5818 90.205 23.8718 90.205H24.7718V91H23.6768ZM32.5385 90.205V91H29.3735V90.205H30.3485V87.13C30.3485 86.72 30.2485 86.4 30.0485 86.17C29.8585 85.94 29.5885 85.825 29.2385 85.825C28.6385 85.825 27.9885 86.055 27.2885 86.515V90.205H28.2485V91H25.0835V90.205H26.1785V83.185H25.0985V82.405H27.2885V85.765C28.0985 85.225 28.8385 84.955 29.5085 84.955C30.0685 84.955 30.5335 85.13 30.9035 85.48C31.2735 85.82 31.4585 86.3 31.4585 86.92V90.205H32.5385ZM33.3258 92.17C33.6358 92.12 33.8458 92.01 33.9558 91.84C34.0758 91.68 34.1358 91.4 34.1358 91H33.3708V89.575H34.8408V90.775C34.8408 91.425 34.7208 91.915 34.4808 92.245C34.2408 92.575 33.8558 92.74 33.3258 92.74V92.17ZM42.4443 90.205H43.6143V83.35H41.3043V85.495H40.3893V82.555H48.0093V85.495H47.0943V83.35H44.8293V90.205H45.9993V91H42.4443V90.205ZM55.7282 90.205V91H52.5632V90.205H53.5382V87.13C53.5382 86.72 53.4382 86.4 53.2382 86.17C53.0482 85.94 52.7782 85.825 52.4282 85.825C51.8282 85.825 51.1782 86.055 50.4782 86.515V90.205H51.4382V91H48.2732V90.205H49.3682V83.185H48.2882V82.405H50.4782V85.765C51.2882 85.225 52.0282 84.955 52.6982 84.955C53.2582 84.955 53.7232 85.13 54.0932 85.48C54.4632 85.82 54.6482 86.3 54.6482 86.92V90.205H55.7282ZM59.8904 85.03C60.2704 85.03 60.6704 85.13 61.0904 85.33L60.8204 86.335C60.4804 86.115 60.1354 86.005 59.7854 86.005C59.3854 86.005 59.0504 86.17 58.7804 86.5C58.5204 86.82 58.3904 87.265 58.3904 87.835L58.3754 90.205H59.4254V91H56.1404V90.205H57.2804V85.9H56.1404V85.105H58.3754V86.185C58.6954 85.415 59.2004 85.03 59.8904 85.03ZM67.4916 88.285H62.6316C62.7016 88.915 62.9266 89.415 63.3066 89.785C63.6866 90.145 64.1716 90.325 64.7616 90.325C65.5816 90.325 66.3266 90.01 66.9966 89.38L67.3866 90.055C67.0966 90.395 66.7316 90.67 66.2916 90.88C65.8516 91.08 65.3566 91.18 64.8066 91.18C64.1866 91.18 63.6216 91.05 63.1116 90.79C62.6016 90.53 62.2016 90.165 61.9116 89.695C61.6216 89.215 61.4766 88.67 61.4766 88.06C61.4766 87.44 61.6116 86.895 61.8816 86.425C62.1616 85.945 62.5366 85.58 63.0066 85.33C63.4866 85.07 64.0166 84.94 64.5966 84.94C65.4966 84.94 66.2016 85.215 66.7116 85.765C67.2316 86.315 67.4916 87.06 67.4916 88V88.285ZM66.3966 87.595C66.3966 87.025 66.2266 86.575 65.8866 86.245C65.5566 85.915 65.1266 85.75 64.5966 85.75C64.0766 85.75 63.6366 85.915 63.2766 86.245C62.9166 86.575 62.7016 87.025 62.6316 87.595H66.3966ZM74.1056 88.285H69.2456C69.3156 88.915 69.5406 89.415 69.9206 89.785C70.3006 90.145 70.7856 90.325 71.3756 90.325C72.1956 90.325 72.9406 90.01 73.6106 89.38L74.0006 90.055C73.7106 90.395 73.3456 90.67 72.9056 90.88C72.4656 91.08 71.9706 91.18 71.4206 91.18C70.8006 91.18 70.2356 91.05 69.7256 90.79C69.2156 90.53 68.8156 90.165 68.5256 89.695C68.2356 89.215 68.0906 88.67 68.0906 88.06C68.0906 87.44 68.2256 86.895 68.4956 86.425C68.7756 85.945 69.1506 85.58 69.6206 85.33C70.1006 85.07 70.6306 84.94 71.2106 84.94C72.1106 84.94 72.8156 85.215 73.3256 85.765C73.8456 86.315 74.1056 87.06 74.1056 88V88.285ZM73.0106 87.595C73.0106 87.025 72.8406 86.575 72.5006 86.245C72.1706 85.915 71.7406 85.75 71.2106 85.75C70.6906 85.75 70.2506 85.915 69.8906 86.245C69.5306 86.575 69.3156 87.025 69.2456 87.595H73.0106ZM79.215 90.205H80.385V85.9H79.23V85.105H80.385V83.845C80.385 83.285 80.53 82.85 80.82 82.54C81.12 82.22 81.565 82.06 82.155 82.06C82.605 82.06 82.98 82.17 83.28 82.39C83.59 82.61 83.76 82.96 83.79 83.44L82.935 83.68C82.885 83.4 82.805 83.19 82.695 83.05C82.595 82.91 82.43 82.84 82.2 82.84C81.73 82.84 81.495 83.18 81.495 83.86V85.105H83.295V85.9H81.495V90.205H83.01V91H79.215V90.205ZM86.6011 91.18C85.9711 91.18 85.4161 91.05 84.9361 90.79C84.4561 90.53 84.0811 90.165 83.8111 89.695C83.5511 89.215 83.4211 88.665 83.4211 88.045C83.4211 87.425 83.5511 86.88 83.8111 86.41C84.0811 85.94 84.4561 85.58 84.9361 85.33C85.4161 85.07 85.9711 84.94 86.6011 84.94C87.2311 84.94 87.7861 85.07 88.2661 85.33C88.7561 85.58 89.1361 85.94 89.4061 86.41C89.6761 86.88 89.8111 87.42 89.8111 88.03C89.8111 88.65 89.6761 89.2 89.4061 89.68C89.1361 90.16 88.7561 90.53 88.2661 90.79C87.7861 91.05 87.2311 91.18 86.6011 91.18ZM86.6011 90.31C87.2211 90.31 87.7211 90.105 88.1011 89.695C88.4811 89.275 88.6711 88.72 88.6711 88.03C88.6711 87.36 88.4811 86.825 88.1011 86.425C87.7211 86.015 87.2211 85.81 86.6011 85.81C85.9811 85.81 85.4861 86.015 85.1161 86.425C84.7461 86.835 84.5611 87.375 84.5611 88.045C84.5611 88.725 84.7461 89.275 85.1161 89.695C85.4961 90.105 85.9911 90.31 86.6011 90.31ZM94.1549 85.03C94.5349 85.03 94.9349 85.13 95.3549 85.33L95.0849 86.335C94.7449 86.115 94.3999 86.005 94.0499 86.005C93.6499 86.005 93.3149 86.17 93.0449 86.5C92.7849 86.82 92.6549 87.265 92.6549 87.835L92.6399 90.205H93.6899V91H90.4049V90.205H91.5449V85.9H90.4049V85.105H92.6399V86.185C92.9599 85.415 93.4649 85.03 94.1549 85.03ZM106.251 90.205V91H104.346L104.286 90.475C103.966 90.715 103.646 90.89 103.326 91C103.006 91.11 102.646 91.165 102.246 91.165C101.646 91.165 101.156 91 100.776 90.67C100.406 90.33 100.221 89.91 100.221 89.41C100.221 88.77 100.436 88.305 100.866 88.015C101.306 87.715 101.881 87.565 102.591 87.565C103.101 87.565 103.646 87.63 104.226 87.76V87.145C104.226 86.695 104.101 86.355 103.851 86.125C103.611 85.895 103.271 85.78 102.831 85.78C102.541 85.78 102.206 85.83 101.826 85.93C101.456 86.02 101.116 86.15 100.806 86.32L100.476 85.6C100.806 85.39 101.186 85.23 101.616 85.12C102.056 85.01 102.466 84.955 102.846 84.955C103.616 84.955 104.221 85.145 104.661 85.525C105.101 85.895 105.321 86.4 105.321 87.04V90.205H106.251ZM101.271 89.35C101.271 89.66 101.371 89.915 101.571 90.115C101.781 90.305 102.061 90.4 102.411 90.4C103.001 90.4 103.606 90.185 104.226 89.755V88.405C103.696 88.285 103.176 88.225 102.666 88.225C102.266 88.225 101.931 88.315 101.661 88.495C101.401 88.665 101.271 88.95 101.271 89.35ZM111.362 85.9H110.582V85.105H113.252V85.9H112.442L113.837 89.905L115.232 85.9H114.392V85.105H117.287V85.9H116.432L117.887 89.92L119.177 85.9H118.352V85.105H121.007V85.9H120.182L118.412 91H117.332L115.817 86.815L114.302 91H113.222L111.362 85.9ZM127.26 88.285H122.4C122.47 88.915 122.695 89.415 123.075 89.785C123.455 90.145 123.94 90.325 124.53 90.325C125.35 90.325 126.095 90.01 126.765 89.38L127.155 90.055C126.865 90.395 126.5 90.67 126.06 90.88C125.62 91.08 125.125 91.18 124.575 91.18C123.955 91.18 123.39 91.05 122.88 90.79C122.37 90.53 121.97 90.165 121.68 89.695C121.39 89.215 121.245 88.67 121.245 88.06C121.245 87.44 121.38 86.895 121.65 86.425C121.93 85.945 122.305 85.58 122.775 85.33C123.255 85.07 123.785 84.94 124.365 84.94C125.265 84.94 125.97 85.215 126.48 85.765C127 86.315 127.26 87.06 127.26 88V88.285ZM126.165 87.595C126.165 87.025 125.995 86.575 125.655 86.245C125.325 85.915 124.895 85.75 124.365 85.75C123.845 85.75 123.405 85.915 123.045 86.245C122.685 86.575 122.47 87.025 122.4 87.595H126.165ZM134.834 90.205V91H132.794V90.58C132.244 90.97 131.619 91.165 130.919 91.165C130.369 91.165 129.864 91.04 129.404 90.79C128.944 90.54 128.579 90.18 128.309 89.71C128.039 89.23 127.904 88.675 127.904 88.045C127.904 87.405 128.034 86.85 128.294 86.38C128.554 85.91 128.904 85.555 129.344 85.315C129.784 85.075 130.269 84.955 130.799 84.955C131.139 84.955 131.484 85.01 131.834 85.12C132.184 85.22 132.504 85.37 132.794 85.57V83.185H131.744V82.405H133.904V90.205H134.834ZM129.059 88.135C129.059 88.815 129.254 89.35 129.644 89.74C130.044 90.13 130.549 90.325 131.159 90.325C131.729 90.325 132.274 90.145 132.794 89.785V86.365C132.514 86.185 132.219 86.045 131.909 85.945C131.599 85.845 131.304 85.795 131.024 85.795C130.434 85.795 129.959 86 129.599 86.41C129.239 86.82 129.059 87.395 129.059 88.135ZM142.225 90.205V91H140.185V90.58C139.635 90.97 139.01 91.165 138.31 91.165C137.76 91.165 137.255 91.04 136.795 90.79C136.335 90.54 135.97 90.18 135.7 89.71C135.43 89.23 135.295 88.675 135.295 88.045C135.295 87.405 135.425 86.85 135.685 86.38C135.945 85.91 136.295 85.555 136.735 85.315C137.175 85.075 137.66 84.955 138.19 84.955C138.53 84.955 138.875 85.01 139.225 85.12C139.575 85.22 139.895 85.37 140.185 85.57V83.185H139.135V82.405H141.295V90.205H142.225ZM136.45 88.135C136.45 88.815 136.645 89.35 137.035 89.74C137.435 90.13 137.94 90.325 138.55 90.325C139.12 90.325 139.665 90.145 140.185 89.785V86.365C139.905 86.185 139.61 86.045 139.3 85.945C138.99 85.845 138.695 85.795 138.415 85.795C137.825 85.795 137.35 86 136.99 86.41C136.63 86.82 136.45 87.395 136.45 88.135ZM144.14 83.815C143.91 83.815 143.715 83.745 143.555 83.605C143.405 83.455 143.33 83.27 143.33 83.05C143.33 82.83 143.405 82.65 143.555 82.51C143.715 82.36 143.91 82.285 144.14 82.285C144.37 82.285 144.56 82.36 144.71 82.51C144.87 82.65 144.95 82.83 144.95 83.05C144.95 83.27 144.87 83.455 144.71 83.605C144.56 83.745 144.37 83.815 144.14 83.815ZM142.595 90.205H143.735V85.9H142.61V85.105H144.83V90.205H145.895V91H142.595V90.205ZM153.689 90.205V91H150.524V90.205H151.499V87.13C151.499 86.72 151.399 86.4 151.199 86.17C150.999 85.94 150.724 85.825 150.374 85.825C150.084 85.825 149.789 85.88 149.489 85.99C149.199 86.09 148.879 86.245 148.529 86.455V90.205H149.594V91H146.294V90.205H147.434V85.9H146.294V85.105H148.529V85.69C149.309 85.2 150.019 84.955 150.659 84.955C151.219 84.955 151.679 85.13 152.039 85.48C152.409 85.82 152.594 86.3 152.594 86.92V90.205H153.689ZM160.958 85.105V85.9H159.968V91.135C159.968 92.045 159.693 92.72 159.143 93.16C158.593 93.6 157.858 93.82 156.938 93.82C156.238 93.82 155.498 93.7 154.718 93.46L154.943 92.59C155.703 92.82 156.358 92.935 156.908 92.935C157.528 92.935 158.008 92.79 158.348 92.5C158.688 92.22 158.858 91.79 158.858 91.21V90.4C158.578 90.61 158.263 90.77 157.913 90.88C157.573 90.99 157.233 91.045 156.893 91.045C156.333 91.045 155.823 90.925 155.363 90.685C154.903 90.435 154.538 90.08 154.268 89.62C154.008 89.16 153.878 88.62 153.878 88C153.878 87.36 154.008 86.815 154.268 86.365C154.528 85.905 154.883 85.56 155.333 85.33C155.793 85.09 156.303 84.97 156.863 84.97C157.203 84.97 157.553 85.03 157.913 85.15C158.273 85.26 158.583 85.42 158.843 85.63V85.105H160.958ZM155.033 88.075C155.033 88.745 155.228 89.27 155.618 89.65C156.008 90.03 156.508 90.22 157.118 90.22C157.408 90.22 157.703 90.17 158.003 90.07C158.313 89.97 158.598 89.825 158.858 89.635L158.843 86.395C158.553 86.205 158.243 86.055 157.913 85.945C157.593 85.835 157.288 85.78 156.998 85.78C156.408 85.78 155.933 85.985 155.573 86.395C155.213 86.795 155.033 87.355 155.033 88.075ZM161.704 92.17C162.014 92.12 162.224 92.01 162.334 91.84C162.454 91.68 162.514 91.4 162.514 91H161.749V89.575H163.219V90.775C163.219 91.425 163.099 91.915 162.859 92.245C162.619 92.575 162.234 92.74 161.704 92.74V92.17ZM0.42 111.205H1.5L3.945 104.35H3V103.555H7.125V104.35H6.15L8.67 111.205H9.69V112H6.255V111.205H7.38L6.525 108.745H3.465L2.625 111.205H3.75V112H0.42V111.205ZM6.285 107.95L5.055 104.365H4.965L3.705 107.95H6.285ZM17.5471 111.205V112H14.3821V111.205H15.3571V108.13C15.3571 107.72 15.2571 107.4 15.0571 107.17C14.8571 106.94 14.5821 106.825 14.2321 106.825C13.9421 106.825 13.6471 106.88 13.3471 106.99C13.0571 107.09 12.7371 107.245 12.3871 107.455V111.205H13.4521V112H10.1521V111.205H11.2921V106.9H10.1521V106.105H12.3871V106.69C13.1671 106.2 13.8771 105.955 14.5171 105.955C15.0771 105.955 15.5371 106.13 15.8971 106.48C16.2671 106.82 16.4521 107.3 16.4521 107.92V111.205H17.5471ZM24.6211 111.205V112H22.5811V111.58C22.0311 111.97 21.4061 112.165 20.7061 112.165C20.1561 112.165 19.6511 112.04 19.1911 111.79C18.7311 111.54 18.3661 111.18 18.0961 110.71C17.8261 110.23 17.6911 109.675 17.6911 109.045C17.6911 108.405 17.8211 107.85 18.0811 107.38C18.3411 106.91 18.6911 106.555 19.1311 106.315C19.5711 106.075 20.0561 105.955 20.5861 105.955C20.9261 105.955 21.2711 106.01 21.6211 106.12C21.9711 106.22 22.2911 106.37 22.5811 106.57V104.185H21.5311V103.405H23.6911V111.205H24.6211ZM18.8461 109.135C18.8461 109.815 19.0411 110.35 19.4311 110.74C19.8311 111.13 20.3361 111.325 20.9461 111.325C21.5161 111.325 22.0611 111.145 22.5811 110.785V107.365C22.3011 107.185 22.0061 107.045 21.6961 106.945C21.3861 106.845 21.0911 106.795 20.8111 106.795C20.2211 106.795 19.7461 107 19.3861 107.41C19.0261 107.82 18.8461 108.395 18.8461 109.135ZM29.5468 111.205H30.7168V106.9H29.5618V106.105H30.7168V104.845C30.7168 104.285 30.8618 103.85 31.1518 103.54C31.4518 103.22 31.8968 103.06 32.4868 103.06C32.9368 103.06 33.3118 103.17 33.6118 103.39C33.9218 103.61 34.0918 103.96 34.1218 104.44L33.2668 104.68C33.2168 104.4 33.1368 104.19 33.0268 104.05C32.9268 103.91 32.7618 103.84 32.5318 103.84C32.0618 103.84 31.8268 104.18 31.8268 104.86V106.105H33.6268V106.9H31.8268V111.205H33.3418V112H29.5468V111.205ZM36.9329 112.18C36.3029 112.18 35.7479 112.05 35.2679 111.79C34.7879 111.53 34.4129 111.165 34.1429 110.695C33.8829 110.215 33.7529 109.665 33.7529 109.045C33.7529 108.425 33.8829 107.88 34.1429 107.41C34.4129 106.94 34.7879 106.58 35.2679 106.33C35.7479 106.07 36.3029 105.94 36.9329 105.94C37.5629 105.94 38.1179 106.07 38.5979 106.33C39.0879 106.58 39.4679 106.94 39.7379 107.41C40.0079 107.88 40.1429 108.42 40.1429 109.03C40.1429 109.65 40.0079 110.2 39.7379 110.68C39.4679 111.16 39.0879 111.53 38.5979 111.79C38.1179 112.05 37.5629 112.18 36.9329 112.18ZM36.9329 111.31C37.5529 111.31 38.0529 111.105 38.4329 110.695C38.8129 110.275 39.0029 109.72 39.0029 109.03C39.0029 108.36 38.8129 107.825 38.4329 107.425C38.0529 107.015 37.5529 106.81 36.9329 106.81C36.3129 106.81 35.8179 107.015 35.4479 107.425C35.0779 107.835 34.8929 108.375 34.8929 109.045C34.8929 109.725 35.0779 110.275 35.4479 110.695C35.8279 111.105 36.3229 111.31 36.9329 111.31ZM47.6967 111.205V112H45.5367L45.5067 111.28C44.7867 111.86 44.0617 112.15 43.3317 112.15C42.6717 112.15 42.1767 111.965 41.8467 111.595C41.5267 111.225 41.3667 110.75 41.3667 110.17V106.9H40.3767V106.105H42.4767V110.05C42.4767 110.43 42.5667 110.73 42.7467 110.95C42.9367 111.16 43.2167 111.265 43.5867 111.265C44.2667 111.265 44.9067 110.99 45.5067 110.44V106.9H44.4417V106.105H46.6017V111.205H47.6967ZM51.8332 106.03C52.2132 106.03 52.6132 106.13 53.0332 106.33L52.7632 107.335C52.4232 107.115 52.0782 107.005 51.7282 107.005C51.3282 107.005 50.9932 107.17 50.7232 107.5C50.4632 107.82 50.3332 108.265 50.3332 108.835L50.3182 111.205H51.3682V112H48.0832V111.205H49.2232V106.9H48.0832V106.105H50.3182V107.185C50.6382 106.415 51.1432 106.03 51.8332 106.03ZM57.9296 111.205H59.0996V106.9H57.9446V106.105H59.0996V104.845C59.0996 104.285 59.2446 103.85 59.5346 103.54C59.8346 103.22 60.2796 103.06 60.8696 103.06C61.3196 103.06 61.6946 103.17 61.9946 103.39C62.3046 103.61 62.4746 103.96 62.5046 104.44L61.6496 104.68C61.5996 104.4 61.5196 104.19 61.4096 104.05C61.3096 103.91 61.1446 103.84 60.9146 103.84C60.4446 103.84 60.2096 104.18 60.2096 104.86V106.105H62.0096V106.9H60.2096V111.205H61.7246V112H57.9296V111.205ZM65.3157 112.18C64.6857 112.18 64.1307 112.05 63.6507 111.79C63.1707 111.53 62.7957 111.165 62.5257 110.695C62.2657 110.215 62.1357 109.665 62.1357 109.045C62.1357 108.425 62.2657 107.88 62.5257 107.41C62.7957 106.94 63.1707 106.58 63.6507 106.33C64.1307 106.07 64.6857 105.94 65.3157 105.94C65.9457 105.94 66.5007 106.07 66.9807 106.33C67.4707 106.58 67.8507 106.94 68.1207 107.41C68.3907 107.88 68.5257 108.42 68.5257 109.03C68.5257 109.65 68.3907 110.2 68.1207 110.68C67.8507 111.16 67.4707 111.53 66.9807 111.79C66.5007 112.05 65.9457 112.18 65.3157 112.18ZM65.3157 111.31C65.9357 111.31 66.4357 111.105 66.8157 110.695C67.1957 110.275 67.3857 109.72 67.3857 109.03C67.3857 108.36 67.1957 107.825 66.8157 107.425C66.4357 107.015 65.9357 106.81 65.3157 106.81C64.6957 106.81 64.2007 107.015 63.8307 107.425C63.4607 107.835 63.2757 108.375 63.2757 109.045C63.2757 109.725 63.4607 110.275 63.8307 110.695C64.2107 111.105 64.7057 111.31 65.3157 111.31ZM72.8695 106.03C73.2495 106.03 73.6495 106.13 74.0695 106.33L73.7995 107.335C73.4595 107.115 73.1145 107.005 72.7645 107.005C72.3645 107.005 72.0295 107.17 71.7595 107.5C71.4995 107.82 71.3695 108.265 71.3695 108.835L71.3545 111.205H72.4045V112H69.1195V111.205H70.2595V106.9H69.1195V106.105H71.3545V107.185C71.6745 106.415 72.1795 106.03 72.8695 106.03ZM85.701 111.205V112H83.661V111.58C83.111 111.97 82.486 112.165 81.786 112.165C81.236 112.165 80.731 112.04 80.271 111.79C79.811 111.54 79.446 111.18 79.176 110.71C78.906 110.23 78.771 109.675 78.771 109.045C78.771 108.405 78.901 107.85 79.161 107.38C79.421 106.91 79.771 106.555 80.211 106.315C80.651 106.075 81.136 105.955 81.666 105.955C82.006 105.955 82.351 106.01 82.701 106.12C83.051 106.22 83.371 106.37 83.661 106.57V104.185H82.611V103.405H84.771V111.205H85.701ZM79.926 109.135C79.926 109.815 80.121 110.35 80.511 110.74C80.911 111.13 81.416 111.325 82.026 111.325C82.596 111.325 83.141 111.145 83.661 110.785V107.365C83.381 107.185 83.086 107.045 82.776 106.945C82.466 106.845 82.171 106.795 81.891 106.795C81.301 106.795 80.826 107 80.466 107.41C80.106 107.82 79.926 108.395 79.926 109.135ZM92.1314 109.285H87.2714C87.3414 109.915 87.5664 110.415 87.9464 110.785C88.3264 111.145 88.8114 111.325 89.4014 111.325C90.2214 111.325 90.9664 111.01 91.6364 110.38L92.0264 111.055C91.7364 111.395 91.3714 111.67 90.9314 111.88C90.4914 112.08 89.9964 112.18 89.4464 112.18C88.8264 112.18 88.2614 112.05 87.7514 111.79C87.2414 111.53 86.8414 111.165 86.5514 110.695C86.2614 110.215 86.1164 109.67 86.1164 109.06C86.1164 108.44 86.2514 107.895 86.5214 107.425C86.8014 106.945 87.1764 106.58 87.6464 106.33C88.1264 106.07 88.6564 105.94 89.2364 105.94C90.1364 105.94 90.8414 106.215 91.3514 106.765C91.8714 107.315 92.1314 108.06 92.1314 109V109.285ZM91.0364 108.595C91.0364 108.025 90.8664 107.575 90.5264 107.245C90.1964 106.915 89.7664 106.75 89.2364 106.75C88.7164 106.75 88.2764 106.915 87.9164 107.245C87.5564 107.575 87.3414 108.025 87.2714 108.595H91.0364ZM98.9705 111.205V112H97.0655L97.0055 111.475C96.6855 111.715 96.3655 111.89 96.0455 112C95.7255 112.11 95.3655 112.165 94.9655 112.165C94.3655 112.165 93.8755 112 93.4955 111.67C93.1255 111.33 92.9405 110.91 92.9405 110.41C92.9405 109.77 93.1555 109.305 93.5855 109.015C94.0255 108.715 94.6005 108.565 95.3105 108.565C95.8205 108.565 96.3655 108.63 96.9455 108.76V108.145C96.9455 107.695 96.8205 107.355 96.5705 107.125C96.3305 106.895 95.9905 106.78 95.5505 106.78C95.2605 106.78 94.9255 106.83 94.5455 106.93C94.1755 107.02 93.8355 107.15 93.5255 107.32L93.1955 106.6C93.5255 106.39 93.9055 106.23 94.3355 106.12C94.7755 106.01 95.1855 105.955 95.5655 105.955C96.3355 105.955 96.9405 106.145 97.3805 106.525C97.8205 106.895 98.0405 107.4 98.0405 108.04V111.205H98.9705ZM93.9905 110.35C93.9905 110.66 94.0905 110.915 94.2905 111.115C94.5005 111.305 94.7805 111.4 95.1305 111.4C95.7205 111.4 96.3255 111.185 96.9455 110.755V109.405C96.4155 109.285 95.8955 109.225 95.3855 109.225C94.9855 109.225 94.6505 109.315 94.3805 109.495C94.1205 109.665 93.9905 109.95 93.9905 110.35ZM101.881 112C100.741 112 100.171 111.42 100.171 110.26V106.9H99.1963V106.105H100.171V104.095L101.281 103.66V106.105H102.841V106.9H101.281V110.2C101.281 110.57 101.341 110.83 101.461 110.98C101.581 111.13 101.786 111.205 102.076 111.205H102.976V112H101.881ZM110.743 111.205V112H107.578V111.205H108.553V108.13C108.553 107.72 108.453 107.4 108.253 107.17C108.063 106.94 107.793 106.825 107.443 106.825C106.843 106.825 106.193 107.055 105.493 107.515V111.205H106.453V112H103.288V111.205H104.383V104.185H103.303V103.405H105.493V106.765C106.303 106.225 107.043 105.955 107.713 105.955C108.273 105.955 108.738 106.13 109.108 106.48C109.478 106.82 109.663 107.3 109.663 107.92V111.205H110.743Z" fill="#2A2921"/>
</svg>
