<svg width="169" height="136" viewBox="0 0 169 136" fill="none" xmlns="http://www.w3.org/2000/svg">
<path d="M12.832 22H9.90234L4.19922 12.6445V22H1.26953V7.78125H4.19922L9.91211 17.1562V7.78125H12.832V22ZM21.1332 20.9258C20.4366 21.7721 19.473 22.1953 18.2426 22.1953C17.1098 22.1953 16.2439 21.8698 15.6449 21.2188C15.0525 20.5677 14.7497 19.6139 14.7367 18.3574V11.4336H17.559V18.2598C17.559 19.36 18.0603 19.9102 19.0629 19.9102C20.0199 19.9102 20.6775 19.5781 21.0355 18.9141V11.4336H23.8676V22H21.2113L21.1332 20.9258ZM31.534 14.0801C31.1499 14.028 30.8113 14.002 30.5184 14.002C29.4507 14.002 28.7508 14.3633 28.4188 15.0859V22H25.5965V11.4336H28.2625L28.3406 12.6934C28.907 11.7233 29.6915 11.2383 30.6941 11.2383C31.0066 11.2383 31.2996 11.2806 31.573 11.3652L31.534 14.0801ZM38.2238 19.0801C38.2238 18.735 38.0513 18.4648 37.7062 18.2695C37.3677 18.0677 36.8208 17.8887 36.0656 17.7324C33.5526 17.2051 32.2961 16.1374 32.2961 14.5293C32.2961 13.5918 32.6835 12.8105 33.4582 12.1855C34.2395 11.554 35.2583 11.2383 36.5148 11.2383C37.856 11.2383 38.927 11.554 39.7277 12.1855C40.535 12.8171 40.9387 13.6374 40.9387 14.6465H38.1164C38.1164 14.2428 37.9862 13.9108 37.7258 13.6504C37.4654 13.3835 37.0585 13.25 36.5051 13.25C36.0298 13.25 35.662 13.3574 35.4016 13.5723C35.1411 13.7871 35.0109 14.0605 35.0109 14.3926C35.0109 14.7051 35.1574 14.959 35.4504 15.1543C35.7499 15.3431 36.2512 15.5091 36.9543 15.6523C37.6574 15.7891 38.2499 15.9453 38.7316 16.1211C40.2225 16.668 40.968 17.6152 40.968 18.9629C40.968 19.9264 40.5546 20.7077 39.7277 21.3066C38.9009 21.8991 37.8332 22.1953 36.5246 22.1953C35.6392 22.1953 34.8514 22.0391 34.1613 21.7266C33.4777 21.4076 32.9406 20.9746 32.55 20.4277C32.1594 19.8743 31.9641 19.2786 31.9641 18.6406H34.6398C34.6659 19.1419 34.8514 19.526 35.1965 19.793C35.5415 20.0599 36.0038 20.1934 36.5832 20.1934C37.1236 20.1934 37.5305 20.0924 37.8039 19.8906C38.0839 19.6823 38.2238 19.4121 38.2238 19.0801ZM47.2574 22.1953C45.7079 22.1953 44.4449 21.7201 43.4684 20.7695C42.4983 19.819 42.0133 18.5527 42.0133 16.9707V16.6973C42.0133 15.6361 42.2184 14.6888 42.6285 13.8555C43.0387 13.0156 43.6181 12.3711 44.3668 11.9219C45.122 11.4661 45.9814 11.2383 46.9449 11.2383C48.3902 11.2383 49.5263 11.694 50.3531 12.6055C51.1865 13.5169 51.6031 14.8092 51.6031 16.4824V17.6348H44.8746C44.9658 18.3249 45.2392 18.8783 45.6949 19.2949C46.1572 19.7116 46.7398 19.9199 47.443 19.9199C48.5302 19.9199 49.3798 19.526 49.9918 18.7383L51.3785 20.291C50.9553 20.89 50.3824 21.3587 49.6598 21.6973C48.9371 22.0293 48.1363 22.1953 47.2574 22.1953ZM46.9352 13.5234C46.3753 13.5234 45.9195 13.7122 45.568 14.0898C45.2229 14.4674 45.0016 15.0078 44.9039 15.7109H48.8297V15.4863C48.8167 14.8613 48.6474 14.3796 48.3219 14.041C47.9964 13.696 47.5341 13.5234 46.9352 13.5234ZM58.752 14.0801C58.3678 14.028 58.0293 14.002 57.7363 14.002C56.6686 14.002 55.9688 14.3633 55.6367 15.0859V22H52.8145V11.4336H55.4805L55.5586 12.6934C56.125 11.7233 56.9095 11.2383 57.9121 11.2383C58.2246 11.2383 58.5176 11.2806 58.791 11.3652L58.752 14.0801ZM63.8402 18.0059L65.7934 11.4336H68.8207L64.5727 23.6406L64.3383 24.1973C63.7068 25.5775 62.6651 26.2676 61.2133 26.2676C60.8031 26.2676 60.3865 26.2057 59.9633 26.082V23.9434L60.393 23.9531C60.9268 23.9531 61.324 23.8717 61.5844 23.709C61.8513 23.5462 62.0596 23.276 62.2094 22.8984L62.5414 22.0293L58.8402 11.4336H61.8773L63.8402 18.0059ZM79.5637 16.7949H77.2297V22H74.3V7.78125H79.5832C81.2629 7.78125 82.5585 8.1556 83.4699 8.9043C84.3814 9.65299 84.8371 10.7109 84.8371 12.0781C84.8371 13.0482 84.6255 13.8587 84.2023 14.5098C83.7857 15.1543 83.1509 15.6686 82.298 16.0527L85.3742 21.8633V22H82.2297L79.5637 16.7949ZM77.2297 14.4219H79.593C80.3286 14.4219 80.8983 14.2363 81.302 13.8652C81.7056 13.4876 81.9074 12.9701 81.9074 12.3125C81.9074 11.6419 81.7154 11.1146 81.3313 10.7305C80.9536 10.3464 80.371 10.1543 79.5832 10.1543H77.2297V14.4219ZM89.2418 12.5859C89.9905 11.6875 90.9313 11.2383 92.0641 11.2383C94.3557 11.2383 95.5178 12.5697 95.5504 15.2324V22H92.7281V15.3105C92.7281 14.7051 92.5979 14.2591 92.3375 13.9727C92.0771 13.6797 91.6441 13.5332 91.0387 13.5332C90.2119 13.5332 89.6129 13.8522 89.2418 14.4902V22H86.4195V7H89.2418V12.5859ZM101.225 18.0059L103.178 11.4336H106.205L101.957 23.6406L101.723 24.1973C101.091 25.5775 100.049 26.2676 98.5977 26.2676C98.1875 26.2676 97.7708 26.2057 97.3477 26.082V23.9434L97.7773 23.9531C98.3112 23.9531 98.7083 23.8717 98.9688 23.709C99.2357 23.5462 99.444 23.276 99.5938 22.8984L99.9258 22.0293L96.2246 11.4336H99.2617L101.225 18.0059ZM109.565 11.4336L109.653 12.6152C110.401 11.6973 111.414 11.2383 112.69 11.2383C114.051 11.2383 114.985 11.7754 115.493 12.8496C116.235 11.7754 117.293 11.2383 118.666 11.2383C119.812 11.2383 120.665 11.5736 121.225 12.2441C121.785 12.9082 122.065 13.9108 122.065 15.252V22H119.233V15.2617C119.233 14.6628 119.116 14.2266 118.881 13.9531C118.647 13.6732 118.233 13.5332 117.641 13.5332C116.795 13.5332 116.209 13.9368 115.883 14.7441L115.893 22H113.071V15.2715C113.071 14.6595 112.95 14.2168 112.709 13.9434C112.468 13.6699 112.058 13.5332 111.479 13.5332C110.678 13.5332 110.099 13.8652 109.741 14.5293V22H106.918V11.4336H109.565ZM128.706 22.1953C127.156 22.1953 125.893 21.7201 124.917 20.7695C123.947 19.819 123.462 18.5527 123.462 16.9707V16.6973C123.462 15.6361 123.667 14.6888 124.077 13.8555C124.487 13.0156 125.067 12.3711 125.815 11.9219C126.57 11.4661 127.43 11.2383 128.393 11.2383C129.839 11.2383 130.975 11.694 131.802 12.6055C132.635 13.5169 133.052 14.8092 133.052 16.4824V17.6348H126.323C126.414 18.3249 126.688 18.8783 127.143 19.2949C127.606 19.7116 128.188 19.9199 128.891 19.9199C129.979 19.9199 130.828 19.526 131.44 18.7383L132.827 20.291C132.404 20.89 131.831 21.3587 131.108 21.6973C130.386 22.0293 129.585 22.1953 128.706 22.1953ZM128.384 13.5234C127.824 13.5234 127.368 13.7122 127.016 14.0898C126.671 14.4674 126.45 15.0078 126.352 15.7109H130.278V15.4863C130.265 14.8613 130.096 14.3796 129.77 14.041C129.445 13.696 128.983 13.5234 128.384 13.5234ZM139.986 19.0801C139.986 18.735 139.813 18.4648 139.468 18.2695C139.129 18.0677 138.583 17.8887 137.827 17.7324C135.314 17.2051 134.058 16.1374 134.058 14.5293C134.058 13.5918 134.445 12.8105 135.22 12.1855C136.001 11.554 137.02 11.2383 138.277 11.2383C139.618 11.2383 140.689 11.554 141.489 12.1855C142.297 12.8171 142.7 13.6374 142.7 14.6465H139.878C139.878 14.2428 139.748 13.9108 139.488 13.6504C139.227 13.3835 138.82 13.25 138.267 13.25C137.792 13.25 137.424 13.3574 137.163 13.5723C136.903 13.7871 136.773 14.0605 136.773 14.3926C136.773 14.7051 136.919 14.959 137.212 15.1543C137.512 15.3431 138.013 15.5091 138.716 15.6523C139.419 15.7891 140.012 15.9453 140.493 16.1211C141.984 16.668 142.73 17.6152 142.73 18.9629C142.73 19.9264 142.316 20.7077 141.489 21.3066C140.663 21.8991 139.595 22.1953 138.286 22.1953C137.401 22.1953 136.613 22.0391 135.923 21.7266C135.239 21.4076 134.702 20.9746 134.312 20.4277C133.921 19.8743 133.726 19.2786 133.726 18.6406H136.402C136.428 19.1419 136.613 19.526 136.958 19.793C137.303 20.0599 137.765 20.1934 138.345 20.1934C138.885 20.1934 139.292 20.0924 139.566 19.8906C139.846 19.6823 139.986 19.4121 139.986 19.0801Z" fill="#2A2921"/>
<path d="M0.9 48.58C0.9 47.22 1.225 46.165 1.875 45.415C2.525 44.665 3.43 44.29 4.59 44.29C5.75 44.29 6.655 44.665 7.305 45.415C7.955 46.165 8.28 47.22 8.28 48.58V50.92C8.28 52.32 7.955 53.385 7.305 54.115C6.655 54.845 5.75 55.21 4.59 55.21C3.43 55.21 2.525 54.845 1.875 54.115C1.225 53.385 0.9 52.32 0.9 50.92V48.58ZM4.59 54.04C5.4 54.04 6.005 53.765 6.405 53.215C6.815 52.655 7.02 51.86 7.02 50.83V48.67C7.02 47.71 6.815 46.935 6.405 46.345C6.005 45.755 5.4 45.46 4.59 45.46C3.78 45.46 3.17 45.755 2.76 46.345C2.36 46.935 2.16 47.71 2.16 48.67V50.83C2.16 51.86 2.36 52.655 2.76 53.215C3.17 53.765 3.78 54.04 4.59 54.04ZM11.3596 55H10.1896V47.56H11.3596V48.82H11.5396C11.9996 47.84 12.7996 47.35 13.9396 47.35C14.7996 47.35 15.4846 47.62 15.9946 48.16C16.5046 48.69 16.7596 49.49 16.7596 50.56V55H15.5896V50.8C15.5896 50.02 15.4146 49.435 15.0646 49.045C14.7146 48.655 14.2396 48.46 13.6396 48.46C12.9296 48.46 12.3696 48.705 11.9596 49.195C11.5596 49.675 11.3596 50.32 11.3596 51.13V55ZM19.9291 51.64C19.9591 52.38 20.1891 52.975 20.6191 53.425C21.0491 53.875 21.6491 54.1 22.4191 54.1C22.7691 54.1 23.0741 54.06 23.3341 53.98C23.5941 53.9 23.8141 53.79 23.9941 53.65C24.1841 53.51 24.3341 53.35 24.4441 53.17C24.5641 52.98 24.6591 52.78 24.7291 52.57L25.8391 52.87C25.6291 53.56 25.2391 54.125 24.6691 54.565C24.1091 54.995 23.3491 55.21 22.3891 55.21C21.8591 55.21 21.3691 55.12 20.9191 54.94C20.4791 54.75 20.0991 54.485 19.7791 54.145C19.4591 53.805 19.2091 53.4 19.0291 52.93C18.8491 52.46 18.7591 51.94 18.7591 51.37V51.01C18.7591 50.49 18.8491 50.005 19.0291 49.555C19.2191 49.105 19.4791 48.72 19.8091 48.4C20.1391 48.07 20.5241 47.815 20.9641 47.635C21.4141 47.445 21.8991 47.35 22.4191 47.35C23.0291 47.35 23.5541 47.465 23.9941 47.695C24.4441 47.915 24.8091 48.19 25.0891 48.52C25.3791 48.85 25.5891 49.21 25.7191 49.6C25.8591 49.99 25.9291 50.35 25.9291 50.68V51.64H19.9291ZM22.4191 48.46C22.0891 48.46 21.7791 48.515 21.4891 48.625C21.2091 48.725 20.9591 48.87 20.7391 49.06C20.5291 49.25 20.3541 49.475 20.2141 49.735C20.0841 49.985 19.9991 50.26 19.9591 50.56H24.7591C24.7391 50.24 24.6591 49.95 24.5191 49.69C24.3891 49.43 24.2141 49.21 23.9941 49.03C23.7841 48.85 23.5391 48.71 23.2591 48.61C22.9891 48.51 22.7091 48.46 22.4191 48.46ZM36.7683 47.56H39.0633V45.67C39.0633 45.33 39.1683 45.05 39.3783 44.83C39.5983 44.61 39.8783 44.5 40.2183 44.5H43.1583V45.58H40.6383C40.3683 45.58 40.2333 45.73 40.2333 46.03V47.56H43.3383V48.64H40.2333V55H39.0633V48.64H36.7683V47.56ZM52.7479 51.37C52.7479 51.99 52.6429 52.54 52.4329 53.02C52.2329 53.49 51.9629 53.89 51.6229 54.22C51.2829 54.54 50.8829 54.785 50.4229 54.955C49.9729 55.125 49.5029 55.21 49.0129 55.21C48.5129 55.21 48.0379 55.125 47.5879 54.955C47.1379 54.785 46.7429 54.54 46.4029 54.22C46.0629 53.89 45.7879 53.49 45.5779 53.02C45.3779 52.54 45.2779 51.99 45.2779 51.37V51.19C45.2779 50.58 45.3779 50.04 45.5779 49.57C45.7879 49.09 46.0629 48.685 46.4029 48.355C46.7529 48.025 47.1529 47.775 47.6029 47.605C48.0529 47.435 48.5229 47.35 49.0129 47.35C49.5029 47.35 49.9729 47.435 50.4229 47.605C50.8729 47.775 51.2679 48.025 51.6079 48.355C51.9579 48.685 52.2329 49.09 52.4329 49.57C52.6429 50.04 52.7479 50.58 52.7479 51.19V51.37ZM49.0129 54.1C49.3729 54.1 49.7029 54.04 50.0029 53.92C50.3129 53.79 50.5829 53.605 50.8129 53.365C51.0429 53.125 51.2229 52.84 51.3529 52.51C51.4829 52.17 51.5479 51.79 51.5479 51.37V51.19C51.5479 50.79 51.4829 50.425 51.3529 50.095C51.2229 49.755 51.0429 49.465 50.8129 49.225C50.5829 48.985 50.3129 48.8 50.0029 48.67C49.6929 48.53 49.3629 48.46 49.0129 48.46C48.6629 48.46 48.3329 48.53 48.0229 48.67C47.7129 48.8 47.4429 48.985 47.2129 49.225C46.9829 49.465 46.8029 49.755 46.6729 50.095C46.5429 50.425 46.4779 50.79 46.4779 51.19V51.37C46.4779 51.79 46.5429 52.17 46.6729 52.51C46.8029 52.84 46.9829 53.125 47.2129 53.365C47.4429 53.605 47.7079 53.79 48.0079 53.92C48.3179 54.04 48.6529 54.1 49.0129 54.1ZM54.1924 47.56H56.8924V48.55H57.0724C57.2624 48.14 57.5324 47.84 57.8824 47.65C58.2324 47.45 58.6324 47.35 59.0824 47.35C59.8324 47.35 60.4374 47.595 60.8974 48.085C61.3574 48.575 61.6024 49.29 61.6324 50.23L60.4024 50.41C60.4024 49.72 60.2374 49.225 59.9074 48.925C59.5774 48.615 59.1724 48.46 58.6924 48.46C58.3824 48.46 58.1124 48.52 57.8824 48.64C57.6624 48.76 57.4774 48.925 57.3274 49.135C57.1774 49.345 57.0674 49.59 56.9974 49.87C56.9274 50.15 56.8924 50.45 56.8924 50.77V53.92H58.7824V55H54.0124V53.92H55.7224V48.64H54.1924V47.56ZM73.9266 49.48C73.9266 49.84 74.0766 50.115 74.3766 50.305C74.6866 50.495 75.2466 50.62 76.0566 50.68C76.9266 50.75 77.5866 50.96 78.0366 51.31C78.4966 51.65 78.7266 52.15 78.7266 52.81V52.9C78.7266 53.26 78.6516 53.585 78.5016 53.875C78.3616 54.155 78.1616 54.395 77.9016 54.595C77.6516 54.795 77.3416 54.945 76.9716 55.045C76.6116 55.155 76.2166 55.21 75.7866 55.21C75.2066 55.21 74.7066 55.135 74.2866 54.985C73.8766 54.825 73.5316 54.62 73.2516 54.37C72.9816 54.11 72.7766 53.82 72.6366 53.5C72.4966 53.17 72.4166 52.84 72.3966 52.51L73.5066 52.24C73.5566 52.81 73.7766 53.27 74.1666 53.62C74.5566 53.96 75.0766 54.13 75.7266 54.13C76.2766 54.13 76.7166 54.025 77.0466 53.815C77.3866 53.595 77.5566 53.29 77.5566 52.9C77.5566 52.48 77.3916 52.18 77.0616 52C76.7316 51.82 76.1966 51.705 75.4566 51.655C74.5966 51.595 73.9366 51.395 73.4766 51.055C73.0166 50.715 72.7866 50.22 72.7866 49.57V49.48C72.7866 49.13 72.8616 48.825 73.0116 48.565C73.1616 48.295 73.3616 48.07 73.6116 47.89C73.8716 47.71 74.1616 47.575 74.4816 47.485C74.8016 47.395 75.1366 47.35 75.4866 47.35C75.9766 47.35 76.4066 47.42 76.7766 47.56C77.1466 47.69 77.4566 47.865 77.7066 48.085C77.9566 48.295 78.1466 48.54 78.2766 48.82C78.4166 49.1 78.5066 49.38 78.5466 49.66L77.4366 49.93C77.3866 49.45 77.1916 49.075 76.8516 48.805C76.5216 48.535 76.0866 48.4 75.5466 48.4C75.3366 48.4 75.1316 48.425 74.9316 48.475C74.7416 48.515 74.5716 48.58 74.4216 48.67C74.2716 48.76 74.1516 48.875 74.0616 49.015C73.9716 49.145 73.9266 49.3 73.9266 49.48ZM88.2861 51.37C88.2861 51.99 88.1811 52.54 87.9711 53.02C87.7711 53.49 87.5011 53.89 87.1611 54.22C86.8211 54.54 86.4211 54.785 85.9611 54.955C85.5111 55.125 85.0411 55.21 84.5511 55.21C84.0511 55.21 83.5761 55.125 83.1261 54.955C82.6761 54.785 82.2811 54.54 81.9411 54.22C81.6011 53.89 81.3261 53.49 81.1161 53.02C80.9161 52.54 80.8161 51.99 80.8161 51.37V51.19C80.8161 50.58 80.9161 50.04 81.1161 49.57C81.3261 49.09 81.6011 48.685 81.9411 48.355C82.2911 48.025 82.6911 47.775 83.1411 47.605C83.5911 47.435 84.0611 47.35 84.5511 47.35C85.0411 47.35 85.5111 47.435 85.9611 47.605C86.4111 47.775 86.8061 48.025 87.1461 48.355C87.4961 48.685 87.7711 49.09 87.9711 49.57C88.1811 50.04 88.2861 50.58 88.2861 51.19V51.37ZM84.5511 54.1C84.9111 54.1 85.2411 54.04 85.5411 53.92C85.8511 53.79 86.1211 53.605 86.3511 53.365C86.5811 53.125 86.7611 52.84 86.8911 52.51C87.0211 52.17 87.0861 51.79 87.0861 51.37V51.19C87.0861 50.79 87.0211 50.425 86.8911 50.095C86.7611 49.755 86.5811 49.465 86.3511 49.225C86.1211 48.985 85.8511 48.8 85.5411 48.67C85.2311 48.53 84.9011 48.46 84.5511 48.46C84.2011 48.46 83.8711 48.53 83.5611 48.67C83.2511 48.8 82.9811 48.985 82.7511 49.225C82.5211 49.465 82.3411 49.755 82.2111 50.095C82.0811 50.425 82.0161 50.79 82.0161 51.19V51.37C82.0161 51.79 82.0811 52.17 82.2111 52.51C82.3411 52.84 82.5211 53.125 82.7511 53.365C82.9811 53.605 83.2461 53.79 83.5461 53.92C83.8561 54.04 84.1911 54.1 84.5511 54.1ZM89.7307 47.56H92.4307V48.55H92.6107C92.8007 48.14 93.0707 47.84 93.4207 47.65C93.7707 47.45 94.1707 47.35 94.6207 47.35C95.3707 47.35 95.9757 47.595 96.4357 48.085C96.8957 48.575 97.1407 49.29 97.1707 50.23L95.9407 50.41C95.9407 49.72 95.7757 49.225 95.4457 48.925C95.1157 48.615 94.7107 48.46 94.2307 48.46C93.9207 48.46 93.6507 48.52 93.4207 48.64C93.2007 48.76 93.0157 48.925 92.8657 49.135C92.7157 49.345 92.6057 49.59 92.5357 49.87C92.4657 50.15 92.4307 50.45 92.4307 50.77V53.92H94.3207V55H89.5507V53.92H91.2607V48.64H89.7307V47.56ZM98.6153 47.56H101.315V48.55H101.495C101.685 48.14 101.955 47.84 102.305 47.65C102.655 47.45 103.055 47.35 103.505 47.35C104.255 47.35 104.86 47.595 105.32 48.085C105.78 48.575 106.025 49.29 106.055 50.23L104.825 50.41C104.825 49.72 104.66 49.225 104.33 48.925C104 48.615 103.595 48.46 103.115 48.46C102.805 48.46 102.535 48.52 102.305 48.64C102.085 48.76 101.9 48.925 101.75 49.135C101.6 49.345 101.49 49.59 101.42 49.87C101.35 50.15 101.315 50.45 101.315 50.77V53.92H103.205V55H98.4353V53.92H100.145V48.64H98.6153V47.56ZM114.94 51.37C114.94 51.99 114.835 52.54 114.625 53.02C114.425 53.49 114.155 53.89 113.815 54.22C113.475 54.54 113.075 54.785 112.615 54.955C112.165 55.125 111.695 55.21 111.205 55.21C110.705 55.21 110.23 55.125 109.78 54.955C109.33 54.785 108.935 54.54 108.595 54.22C108.255 53.89 107.98 53.49 107.77 53.02C107.57 52.54 107.47 51.99 107.47 51.37V51.19C107.47 50.58 107.57 50.04 107.77 49.57C107.98 49.09 108.255 48.685 108.595 48.355C108.945 48.025 109.345 47.775 109.795 47.605C110.245 47.435 110.715 47.35 111.205 47.35C111.695 47.35 112.165 47.435 112.615 47.605C113.065 47.775 113.46 48.025 113.8 48.355C114.15 48.685 114.425 49.09 114.625 49.57C114.835 50.04 114.94 50.58 114.94 51.19V51.37ZM111.205 54.1C111.565 54.1 111.895 54.04 112.195 53.92C112.505 53.79 112.775 53.605 113.005 53.365C113.235 53.125 113.415 52.84 113.545 52.51C113.675 52.17 113.74 51.79 113.74 51.37V51.19C113.74 50.79 113.675 50.425 113.545 50.095C113.415 49.755 113.235 49.465 113.005 49.225C112.775 48.985 112.505 48.8 112.195 48.67C111.885 48.53 111.555 48.46 111.205 48.46C110.855 48.46 110.525 48.53 110.215 48.67C109.905 48.8 109.635 48.985 109.405 49.225C109.175 49.465 108.995 49.755 108.865 50.095C108.735 50.425 108.67 50.79 108.67 51.19V51.37C108.67 51.79 108.735 52.17 108.865 52.51C108.995 52.84 109.175 53.125 109.405 53.365C109.635 53.605 109.9 53.79 110.2 53.92C110.51 54.04 110.845 54.1 111.205 54.1ZM123.239 55H121.079L120.179 48.1H119.999L119.099 55H116.939L115.769 47.56H116.969L117.959 54.46H118.139L119.009 47.56H121.169L122.039 54.46H122.219L123.209 47.56H124.409L123.239 55ZM127.924 54.16C127.924 53.87 128.024 53.625 128.224 53.425C128.434 53.215 128.684 53.11 128.974 53.11C129.264 53.11 129.509 53.215 129.709 53.425C129.919 53.625 130.024 53.87 130.024 54.16V55.63C130.024 55.97 129.914 56.25 129.694 56.47C129.484 56.69 129.209 56.8 128.869 56.8H128.104V55.99H128.809C129.079 55.99 129.214 55.84 129.214 55.54V55.165C129.134 55.195 129.049 55.21 128.959 55.21C128.679 55.21 128.434 55.11 128.224 54.91C128.024 54.7 127.924 54.45 127.924 54.16ZM0.9 63.5H8.28V64.67H5.22V74H3.96V64.67H0.9V63.5ZM16.6246 74H14.4646L13.5646 67.1H13.3846L12.4846 74H10.3246L9.15457 66.56H10.3546L11.3446 73.46H11.5246L12.3946 66.56H14.5546L15.4246 73.46H15.6046L16.5946 66.56H17.7946L16.6246 74ZM26.0941 70.37C26.0941 70.99 25.9891 71.54 25.7791 72.02C25.5791 72.49 25.3091 72.89 24.9691 73.22C24.6291 73.54 24.2291 73.785 23.7691 73.955C23.3191 74.125 22.8491 74.21 22.3591 74.21C21.8591 74.21 21.3841 74.125 20.9341 73.955C20.4841 73.785 20.0891 73.54 19.7491 73.22C19.4091 72.89 19.1341 72.49 18.9241 72.02C18.7241 71.54 18.6241 70.99 18.6241 70.37V70.19C18.6241 69.58 18.7241 69.04 18.9241 68.57C19.1341 68.09 19.4091 67.685 19.7491 67.355C20.0991 67.025 20.4991 66.775 20.9491 66.605C21.3991 66.435 21.8691 66.35 22.3591 66.35C22.8491 66.35 23.3191 66.435 23.7691 66.605C24.2191 66.775 24.6141 67.025 24.9541 67.355C25.3041 67.685 25.5791 68.09 25.7791 68.57C25.9891 69.04 26.0941 69.58 26.0941 70.19V70.37ZM22.3591 73.1C22.7191 73.1 23.0491 73.04 23.3491 72.92C23.6591 72.79 23.9291 72.605 24.1591 72.365C24.3891 72.125 24.5691 71.84 24.6991 71.51C24.8291 71.17 24.8941 70.79 24.8941 70.37V70.19C24.8941 69.79 24.8291 69.425 24.6991 69.095C24.5691 68.755 24.3891 68.465 24.1591 68.225C23.9291 67.985 23.6591 67.8 23.3491 67.67C23.0391 67.53 22.7091 67.46 22.3591 67.46C22.0091 67.46 21.6791 67.53 21.3691 67.67C21.0591 67.8 20.7891 67.985 20.5591 68.225C20.3291 68.465 20.1491 68.755 20.0191 69.095C19.8891 69.425 19.8241 69.79 19.8241 70.19V70.37C19.8241 70.79 19.8891 71.17 20.0191 71.51C20.1491 71.84 20.3291 72.125 20.5591 72.365C20.7891 72.605 21.0541 72.79 21.3541 72.92C21.6641 73.04 21.9991 73.1 22.3591 73.1ZM36.7683 66.56H39.0633V64.67C39.0633 64.33 39.1683 64.05 39.3783 63.83C39.5983 63.61 39.8783 63.5 40.2183 63.5H43.1583V64.58H40.6383C40.3683 64.58 40.2333 64.73 40.2333 65.03V66.56H43.3383V67.64H40.2333V74H39.0633V67.64H36.7683V66.56ZM52.7479 70.37C52.7479 70.99 52.6429 71.54 52.4329 72.02C52.2329 72.49 51.9629 72.89 51.6229 73.22C51.2829 73.54 50.8829 73.785 50.4229 73.955C49.9729 74.125 49.5029 74.21 49.0129 74.21C48.5129 74.21 48.0379 74.125 47.5879 73.955C47.1379 73.785 46.7429 73.54 46.4029 73.22C46.0629 72.89 45.7879 72.49 45.5779 72.02C45.3779 71.54 45.2779 70.99 45.2779 70.37V70.19C45.2779 69.58 45.3779 69.04 45.5779 68.57C45.7879 68.09 46.0629 67.685 46.4029 67.355C46.7529 67.025 47.1529 66.775 47.6029 66.605C48.0529 66.435 48.5229 66.35 49.0129 66.35C49.5029 66.35 49.9729 66.435 50.4229 66.605C50.8729 66.775 51.2679 67.025 51.6079 67.355C51.9579 67.685 52.2329 68.09 52.4329 68.57C52.6429 69.04 52.7479 69.58 52.7479 70.19V70.37ZM49.0129 73.1C49.3729 73.1 49.7029 73.04 50.0029 72.92C50.3129 72.79 50.5829 72.605 50.8129 72.365C51.0429 72.125 51.2229 71.84 51.3529 71.51C51.4829 71.17 51.5479 70.79 51.5479 70.37V70.19C51.5479 69.79 51.4829 69.425 51.3529 69.095C51.2229 68.755 51.0429 68.465 50.8129 68.225C50.5829 67.985 50.3129 67.8 50.0029 67.67C49.6929 67.53 49.3629 67.46 49.0129 67.46C48.6629 67.46 48.3329 67.53 48.0229 67.67C47.7129 67.8 47.4429 67.985 47.2129 68.225C46.9829 68.465 46.8029 68.755 46.6729 69.095C46.5429 69.425 46.4779 69.79 46.4779 70.19V70.37C46.4779 70.79 46.5429 71.17 46.6729 71.51C46.8029 71.84 46.9829 72.125 47.2129 72.365C47.4429 72.605 47.7079 72.79 48.0079 72.92C48.3179 73.04 48.6529 73.1 49.0129 73.1ZM54.1924 66.56H56.8924V67.55H57.0724C57.2624 67.14 57.5324 66.84 57.8824 66.65C58.2324 66.45 58.6324 66.35 59.0824 66.35C59.8324 66.35 60.4374 66.595 60.8974 67.085C61.3574 67.575 61.6024 68.29 61.6324 69.23L60.4024 69.41C60.4024 68.72 60.2374 68.225 59.9074 67.925C59.5774 67.615 59.1724 67.46 58.6924 67.46C58.3824 67.46 58.1124 67.52 57.8824 67.64C57.6624 67.76 57.4774 67.925 57.3274 68.135C57.1774 68.345 57.0674 68.59 56.9974 68.87C56.9274 69.15 56.8924 69.45 56.8924 69.77V72.92H58.7824V74H54.0124V72.92H55.7224V67.64H54.1924V66.56ZM79.5366 74H78.3666V68.66C78.3666 68.31 78.2866 68.025 78.1266 67.805C77.9666 67.575 77.7116 67.46 77.3616 67.46C77.0316 67.46 76.7616 67.585 76.5516 67.835C76.3516 68.075 76.2516 68.45 76.2516 68.96V74H75.0816V68.6C75.0816 68.27 74.9916 68 74.8116 67.79C74.6316 67.57 74.3916 67.46 74.0916 67.46C73.7316 67.46 73.4516 67.59 73.2516 67.85C73.0616 68.11 72.9666 68.45 72.9666 68.87V74H71.7966V66.56H72.9666V67.37H73.1466C73.2766 67.02 73.4666 66.765 73.7166 66.605C73.9666 66.435 74.2616 66.35 74.6016 66.35C74.9616 66.35 75.2566 66.445 75.4866 66.635C75.7266 66.825 75.8916 67.07 75.9816 67.37H76.1616C76.5016 66.69 77.0416 66.35 77.7816 66.35C78.3416 66.35 78.7716 66.53 79.0716 66.89C79.3816 67.24 79.5366 67.7 79.5366 68.27V74ZM83.5761 64.34C83.5761 64.05 83.6761 63.805 83.8761 63.605C84.0861 63.395 84.3361 63.29 84.6261 63.29C84.9161 63.29 85.1611 63.395 85.3611 63.605C85.5711 63.805 85.6761 64.05 85.6761 64.34C85.6761 64.63 85.5711 64.88 85.3611 65.09C85.1611 65.29 84.9161 65.39 84.6261 65.39C84.3361 65.39 84.0861 65.29 83.8761 65.09C83.6761 64.88 83.5761 64.63 83.5761 64.34ZM81.4461 72.92H84.0561V67.64H81.7161V66.56H85.2261V72.92H87.6561V74H81.4461V72.92ZM89.7307 66.56H92.4307V67.55H92.6107C92.8007 67.14 93.0707 66.84 93.4207 66.65C93.7707 66.45 94.1707 66.35 94.6207 66.35C95.3707 66.35 95.9757 66.595 96.4357 67.085C96.8957 67.575 97.1407 68.29 97.1707 69.23L95.9407 69.41C95.9407 68.72 95.7757 68.225 95.4457 67.925C95.1157 67.615 94.7107 67.46 94.2307 67.46C93.9207 67.46 93.6507 67.52 93.4207 67.64C93.2007 67.76 93.0157 67.925 92.8657 68.135C92.7157 68.345 92.6057 68.59 92.5357 68.87C92.4657 69.15 92.4307 69.45 92.4307 69.77V72.92H94.3207V74H89.5507V72.92H91.2607V67.64H89.7307V66.56ZM98.7803 66.56H101.12V63.5H102.29V66.56H105.17V67.64H102.29V72.47C102.29 72.77 102.425 72.92 102.695 72.92H104.81V74H102.275C101.935 74 101.655 73.89 101.435 73.67C101.225 73.45 101.12 73.17 101.12 72.83V67.64H98.7803V66.56ZM109.09 74H107.92V63.5H109.09V67.91H109.27C109.5 67.43 109.82 67.05 110.23 66.77C110.65 66.49 111.16 66.35 111.76 66.35C112.57 66.35 113.225 66.62 113.725 67.16C114.235 67.69 114.49 68.49 114.49 69.56V74H113.32V69.8C113.32 69.02 113.145 68.435 112.795 68.045C112.445 67.655 111.97 67.46 111.37 67.46C110.66 67.46 110.1 67.705 109.69 68.195C109.29 68.675 109.09 69.32 109.09 70.13V74ZM119.039 73.16C119.039 72.87 119.139 72.625 119.339 72.425C119.549 72.215 119.799 72.11 120.089 72.11C120.379 72.11 120.624 72.215 120.824 72.425C121.034 72.625 121.139 72.87 121.139 73.16V74.63C121.139 74.97 121.029 75.25 120.809 75.47C120.599 75.69 120.324 75.8 119.984 75.8H119.219V74.99H119.924C120.194 74.99 120.329 74.84 120.329 74.54V74.165C120.249 74.195 120.164 74.21 120.074 74.21C119.794 74.21 119.549 74.11 119.339 73.91C119.139 73.7 119.039 73.45 119.039 73.16ZM0.9 82.5H8.28V83.67H5.22V93H3.96V83.67H0.9V82.5ZM11.3596 93H10.1896V82.5H11.3596V86.91H11.5396C11.7696 86.43 12.0896 86.05 12.4996 85.77C12.9196 85.49 13.4296 85.35 14.0296 85.35C14.8396 85.35 15.4946 85.62 15.9946 86.16C16.5046 86.69 16.7596 87.49 16.7596 88.56V93H15.5896V88.8C15.5896 88.02 15.4146 87.435 15.0646 87.045C14.7146 86.655 14.2396 86.46 13.6396 86.46C12.9296 86.46 12.3696 86.705 11.9596 87.195C11.5596 87.675 11.3596 88.32 11.3596 89.13V93ZM18.6541 85.56H21.3541V86.55H21.5341C21.7241 86.14 21.9941 85.84 22.3441 85.65C22.6941 85.45 23.0941 85.35 23.5441 85.35C24.2941 85.35 24.8991 85.595 25.3591 86.085C25.8191 86.575 26.0641 87.29 26.0941 88.23L24.8641 88.41C24.8641 87.72 24.6991 87.225 24.3691 86.925C24.0391 86.615 23.6341 86.46 23.1541 86.46C22.8441 86.46 22.5741 86.52 22.3441 86.64C22.1241 86.76 21.9391 86.925 21.7891 87.135C21.6391 87.345 21.5291 87.59 21.4591 87.87C21.3891 88.15 21.3541 88.45 21.3541 88.77V91.92H23.2441V93H18.4741V91.92H20.1841V86.64H18.6541V85.56ZM28.8137 89.64C28.8437 90.38 29.0737 90.975 29.5037 91.425C29.9337 91.875 30.5337 92.1 31.3037 92.1C31.6537 92.1 31.9587 92.06 32.2187 91.98C32.4787 91.9 32.6987 91.79 32.8787 91.65C33.0687 91.51 33.2187 91.35 33.3287 91.17C33.4487 90.98 33.5437 90.78 33.6137 90.57L34.7237 90.87C34.5137 91.56 34.1237 92.125 33.5537 92.565C32.9937 92.995 32.2337 93.21 31.2737 93.21C30.7437 93.21 30.2537 93.12 29.8037 92.94C29.3637 92.75 28.9837 92.485 28.6637 92.145C28.3437 91.805 28.0937 91.4 27.9137 90.93C27.7337 90.46 27.6437 89.94 27.6437 89.37V89.01C27.6437 88.49 27.7337 88.005 27.9137 87.555C28.1037 87.105 28.3637 86.72 28.6937 86.4C29.0237 86.07 29.4087 85.815 29.8487 85.635C30.2987 85.445 30.7837 85.35 31.3037 85.35C31.9137 85.35 32.4387 85.465 32.8787 85.695C33.3287 85.915 33.6937 86.19 33.9737 86.52C34.2637 86.85 34.4737 87.21 34.6037 87.6C34.7437 87.99 34.8137 88.35 34.8137 88.68V89.64H28.8137ZM31.3037 86.46C30.9737 86.46 30.6637 86.515 30.3737 86.625C30.0937 86.725 29.8437 86.87 29.6237 87.06C29.4137 87.25 29.2387 87.475 29.0987 87.735C28.9687 87.985 28.8837 88.26 28.8437 88.56H33.6437C33.6237 88.24 33.5437 87.95 33.4037 87.69C33.2737 87.43 33.0987 87.21 32.8787 87.03C32.6687 86.85 32.4237 86.71 32.1437 86.61C31.8737 86.51 31.5937 86.46 31.3037 86.46ZM37.6983 89.64C37.7283 90.38 37.9583 90.975 38.3883 91.425C38.8183 91.875 39.4183 92.1 40.1883 92.1C40.5383 92.1 40.8433 92.06 41.1033 91.98C41.3633 91.9 41.5833 91.79 41.7633 91.65C41.9533 91.51 42.1033 91.35 42.2133 91.17C42.3333 90.98 42.4283 90.78 42.4983 90.57L43.6083 90.87C43.3983 91.56 43.0083 92.125 42.4383 92.565C41.8783 92.995 41.1183 93.21 40.1583 93.21C39.6283 93.21 39.1383 93.12 38.6883 92.94C38.2483 92.75 37.8683 92.485 37.5483 92.145C37.2283 91.805 36.9783 91.4 36.7983 90.93C36.6183 90.46 36.5283 89.94 36.5283 89.37V89.01C36.5283 88.49 36.6183 88.005 36.7983 87.555C36.9883 87.105 37.2483 86.72 37.5783 86.4C37.9083 86.07 38.2933 85.815 38.7333 85.635C39.1833 85.445 39.6683 85.35 40.1883 85.35C40.7983 85.35 41.3233 85.465 41.7633 85.695C42.2133 85.915 42.5783 86.19 42.8583 86.52C43.1483 86.85 43.3583 87.21 43.4883 87.6C43.6283 87.99 43.6983 88.35 43.6983 88.68V89.64H37.6983ZM40.1883 86.46C39.8583 86.46 39.5483 86.515 39.2583 86.625C38.9783 86.725 38.7283 86.87 38.5083 87.06C38.2983 87.25 38.1233 87.475 37.9833 87.735C37.8533 87.985 37.7683 88.26 37.7283 88.56H42.5283C42.5083 88.24 42.4283 87.95 42.2883 87.69C42.1583 87.43 41.9833 87.21 41.7633 87.03C41.5533 86.85 41.3083 86.71 41.0283 86.61C40.7583 86.51 40.4783 86.46 40.1883 86.46ZM54.5374 85.56H56.8324V83.67C56.8324 83.33 56.9374 83.05 57.1474 82.83C57.3674 82.61 57.6474 82.5 57.9874 82.5H60.9274V83.58H58.4074C58.1374 83.58 58.0024 83.73 58.0024 84.03V85.56H61.1074V86.64H58.0024V93H56.8324V86.64H54.5374V85.56ZM70.517 89.37C70.517 89.99 70.412 90.54 70.202 91.02C70.002 91.49 69.732 91.89 69.392 92.22C69.052 92.54 68.652 92.785 68.192 92.955C67.742 93.125 67.272 93.21 66.782 93.21C66.282 93.21 65.807 93.125 65.357 92.955C64.907 92.785 64.512 92.54 64.172 92.22C63.832 91.89 63.557 91.49 63.347 91.02C63.147 90.54 63.047 89.99 63.047 89.37V89.19C63.047 88.58 63.147 88.04 63.347 87.57C63.557 87.09 63.832 86.685 64.172 86.355C64.522 86.025 64.922 85.775 65.372 85.605C65.822 85.435 66.292 85.35 66.782 85.35C67.272 85.35 67.742 85.435 68.192 85.605C68.642 85.775 69.037 86.025 69.377 86.355C69.727 86.685 70.002 87.09 70.202 87.57C70.412 88.04 70.517 88.58 70.517 89.19V89.37ZM66.782 92.1C67.142 92.1 67.472 92.04 67.772 91.92C68.082 91.79 68.352 91.605 68.582 91.365C68.812 91.125 68.992 90.84 69.122 90.51C69.252 90.17 69.317 89.79 69.317 89.37V89.19C69.317 88.79 69.252 88.425 69.122 88.095C68.992 87.755 68.812 87.465 68.582 87.225C68.352 86.985 68.082 86.8 67.772 86.67C67.462 86.53 67.132 86.46 66.782 86.46C66.432 86.46 66.102 86.53 65.792 86.67C65.482 86.8 65.212 86.985 64.982 87.225C64.752 87.465 64.572 87.755 64.442 88.095C64.312 88.425 64.247 88.79 64.247 89.19V89.37C64.247 89.79 64.312 90.17 64.442 90.51C64.572 90.84 64.752 91.125 64.982 91.365C65.212 91.605 65.477 91.79 65.777 91.92C66.087 92.04 66.422 92.1 66.782 92.1ZM71.9616 85.56H74.6616V86.55H74.8416C75.0316 86.14 75.3016 85.84 75.6516 85.65C76.0016 85.45 76.4016 85.35 76.8516 85.35C77.6016 85.35 78.2066 85.595 78.6666 86.085C79.1266 86.575 79.3716 87.29 79.4016 88.23L78.1716 88.41C78.1716 87.72 78.0066 87.225 77.6766 86.925C77.3466 86.615 76.9416 86.46 76.4616 86.46C76.1516 86.46 75.8816 86.52 75.6516 86.64C75.4316 86.76 75.2466 86.925 75.0966 87.135C74.9466 87.345 74.8366 87.59 74.7666 87.87C74.6966 88.15 74.6616 88.45 74.6616 88.77V91.92H76.5516V93H71.7816V91.92H73.4916V86.64H71.9616V85.56ZM95.5507 91.74H95.3707C95.1307 92.24 94.7957 92.61 94.3657 92.85C93.9457 93.09 93.5007 93.21 93.0307 93.21C92.5407 93.21 92.0857 93.13 91.6657 92.97C91.2457 92.8 90.8757 92.555 90.5557 92.235C90.2457 91.905 90.0007 91.505 89.8207 91.035C89.6407 90.565 89.5507 90.02 89.5507 89.4V89.16C89.5507 88.55 89.6407 88.01 89.8207 87.54C90.0007 87.07 90.2457 86.675 90.5557 86.355C90.8757 86.025 91.2457 85.775 91.6657 85.605C92.0857 85.435 92.5307 85.35 93.0007 85.35C93.5107 85.35 93.9707 85.465 94.3807 85.695C94.8007 85.915 95.1307 86.26 95.3707 86.73H95.5507V85.56H96.7207V91.47C96.7207 91.77 96.8557 91.92 97.1257 91.92H97.5007V93H96.7057C96.3657 93 96.0857 92.89 95.8657 92.67C95.6557 92.45 95.5507 92.17 95.5507 91.83V91.74ZM93.1507 92.1C93.5007 92.1 93.8207 92.035 94.1107 91.905C94.4107 91.775 94.6657 91.59 94.8757 91.35C95.0857 91.11 95.2507 90.825 95.3707 90.495C95.4907 90.155 95.5507 89.78 95.5507 89.37V89.19C95.5507 88.79 95.4907 88.425 95.3707 88.095C95.2507 87.755 95.0807 87.465 94.8607 87.225C94.6507 86.985 94.3957 86.8 94.0957 86.67C93.8057 86.53 93.4907 86.46 93.1507 86.46C92.8007 86.46 92.4807 86.525 92.1907 86.655C91.9007 86.785 91.6457 86.97 91.4257 87.21C91.2157 87.44 91.0507 87.725 90.9307 88.065C90.8107 88.395 90.7507 88.76 90.7507 89.16V89.4C90.7507 90.25 90.9707 90.915 91.4107 91.395C91.8607 91.865 92.4407 92.1 93.1507 92.1ZM7.74 112H5.58L4.68 105.1H4.5L3.6 112H1.44L0.27 104.56H1.47L2.46 111.46H2.64L3.51 104.56H5.67L6.54 111.46H6.72L7.71 104.56H8.91L7.74 112ZM11.0446 108.64C11.0746 109.38 11.3046 109.975 11.7346 110.425C12.1646 110.875 12.7646 111.1 13.5346 111.1C13.8846 111.1 14.1896 111.06 14.4496 110.98C14.7096 110.9 14.9296 110.79 15.1096 110.65C15.2996 110.51 15.4496 110.35 15.5596 110.17C15.6796 109.98 15.7746 109.78 15.8446 109.57L16.9546 109.87C16.7446 110.56 16.3546 111.125 15.7846 111.565C15.2246 111.995 14.4646 112.21 13.5046 112.21C12.9746 112.21 12.4846 112.12 12.0346 111.94C11.5946 111.75 11.2146 111.485 10.8946 111.145C10.5746 110.805 10.3246 110.4 10.1446 109.93C9.96457 109.46 9.87457 108.94 9.87457 108.37V108.01C9.87457 107.49 9.96457 107.005 10.1446 106.555C10.3346 106.105 10.5946 105.72 10.9246 105.4C11.2546 105.07 11.6396 104.815 12.0796 104.635C12.5296 104.445 13.0146 104.35 13.5346 104.35C14.1446 104.35 14.6696 104.465 15.1096 104.695C15.5596 104.915 15.9246 105.19 16.2046 105.52C16.4946 105.85 16.7046 106.21 16.8346 106.6C16.9746 106.99 17.0446 107.35 17.0446 107.68V108.64H11.0446ZM13.5346 105.46C13.2046 105.46 12.8946 105.515 12.6046 105.625C12.3246 105.725 12.0746 105.87 11.8546 106.06C11.6446 106.25 11.4696 106.475 11.3296 106.735C11.1996 106.985 11.1146 107.26 11.0746 107.56H15.8746C15.8546 107.24 15.7746 106.95 15.6346 106.69C15.5046 106.43 15.3296 106.21 15.1096 106.03C14.8996 105.85 14.6546 105.71 14.3746 105.61C14.1046 105.51 13.8246 105.46 13.5346 105.46ZM24.8341 110.86H24.6541C24.5341 111.09 24.3791 111.29 24.1891 111.46C24.0091 111.63 23.8091 111.77 23.5891 111.88C23.3791 111.99 23.1541 112.07 22.9141 112.12C22.6741 112.18 22.4441 112.21 22.2241 112.21C21.7241 112.21 21.2591 112.125 20.8291 111.955C20.3991 111.785 20.0191 111.54 19.6891 111.22C19.3691 110.9 19.1141 110.505 18.9241 110.035C18.7441 109.555 18.6541 109.01 18.6541 108.4V108.16C18.6541 107.56 18.7491 107.025 18.9391 106.555C19.1291 106.075 19.3841 105.675 19.7041 105.355C20.0241 105.025 20.3991 104.775 20.8291 104.605C21.2591 104.435 21.7141 104.35 22.1941 104.35C22.7041 104.35 23.1791 104.465 23.6191 104.695C24.0691 104.915 24.4141 105.26 24.6541 105.73H24.8341V101.5H26.0041V112H24.8341V110.86ZM22.3441 111.1C22.6941 111.1 23.0191 111.035 23.3191 110.905C23.6191 110.775 23.8791 110.59 24.0991 110.35C24.3291 110.11 24.5091 109.825 24.6391 109.495C24.7691 109.155 24.8341 108.78 24.8341 108.37V108.19C24.8341 107.79 24.7691 107.425 24.6391 107.095C24.5091 106.755 24.3291 106.465 24.0991 106.225C23.8791 105.985 23.6141 105.8 23.3041 105.67C23.0041 105.53 22.6841 105.46 22.3441 105.46C21.9941 105.46 21.6641 105.525 21.3541 105.655C21.0541 105.785 20.7891 105.97 20.5591 106.21C20.3391 106.45 20.1641 106.735 20.0341 107.065C19.9141 107.395 19.8541 107.76 19.8541 108.16V108.4C19.8541 108.82 19.9141 109.195 20.0341 109.525C20.1641 109.855 20.3391 110.14 20.5591 110.38C20.7891 110.61 21.0541 110.79 21.3541 110.92C21.6541 111.04 21.9841 111.1 22.3441 111.1ZM33.7187 110.86H33.5387C33.4187 111.09 33.2637 111.29 33.0737 111.46C32.8937 111.63 32.6937 111.77 32.4737 111.88C32.2637 111.99 32.0387 112.07 31.7987 112.12C31.5587 112.18 31.3287 112.21 31.1087 112.21C30.6087 112.21 30.1437 112.125 29.7137 111.955C29.2837 111.785 28.9037 111.54 28.5737 111.22C28.2537 110.9 27.9987 110.505 27.8087 110.035C27.6287 109.555 27.5387 109.01 27.5387 108.4V108.16C27.5387 107.56 27.6337 107.025 27.8237 106.555C28.0137 106.075 28.2687 105.675 28.5887 105.355C28.9087 105.025 29.2837 104.775 29.7137 104.605C30.1437 104.435 30.5987 104.35 31.0787 104.35C31.5887 104.35 32.0637 104.465 32.5037 104.695C32.9537 104.915 33.2987 105.26 33.5387 105.73H33.7187V101.5H34.8887V112H33.7187V110.86ZM31.2287 111.1C31.5787 111.1 31.9037 111.035 32.2037 110.905C32.5037 110.775 32.7637 110.59 32.9837 110.35C33.2137 110.11 33.3937 109.825 33.5237 109.495C33.6537 109.155 33.7187 108.78 33.7187 108.37V108.19C33.7187 107.79 33.6537 107.425 33.5237 107.095C33.3937 106.755 33.2137 106.465 32.9837 106.225C32.7637 105.985 32.4987 105.8 32.1887 105.67C31.8887 105.53 31.5687 105.46 31.2287 105.46C30.8787 105.46 30.5487 105.525 30.2387 105.655C29.9387 105.785 29.6737 105.97 29.4437 106.21C29.2237 106.45 29.0487 106.735 28.9187 107.065C28.7987 107.395 28.7387 107.76 28.7387 108.16V108.4C28.7387 108.82 28.7987 109.195 28.9187 109.525C29.0487 109.855 29.2237 110.14 29.4437 110.38C29.6737 110.61 29.9387 110.79 30.2387 110.92C30.5387 111.04 30.8687 111.1 31.2287 111.1ZM39.1533 102.34C39.1533 102.05 39.2533 101.805 39.4533 101.605C39.6633 101.395 39.9133 101.29 40.2033 101.29C40.4933 101.29 40.7383 101.395 40.9383 101.605C41.1483 101.805 41.2533 102.05 41.2533 102.34C41.2533 102.63 41.1483 102.88 40.9383 103.09C40.7383 103.29 40.4933 103.39 40.2033 103.39C39.9133 103.39 39.6633 103.29 39.4533 103.09C39.2533 102.88 39.1533 102.63 39.1533 102.34ZM37.0233 110.92H39.6333V105.64H37.2933V104.56H40.8033V110.92H43.2333V112H37.0233V110.92ZM46.8979 112H45.7279V104.56H46.8979V105.82H47.0779C47.5379 104.84 48.3379 104.35 49.4779 104.35C50.3379 104.35 51.0229 104.62 51.5329 105.16C52.0429 105.69 52.2979 106.49 52.2979 107.56V112H51.1279V107.8C51.1279 107.02 50.9529 106.435 50.6029 106.045C50.2529 105.655 49.7779 105.46 49.1779 105.46C48.4679 105.46 47.9079 105.705 47.4979 106.195C47.0979 106.675 46.8979 107.32 46.8979 108.13V112ZM60.2674 110.86H60.0874C59.8474 111.31 59.5174 111.65 59.0974 111.88C58.6874 112.1 58.2374 112.21 57.7474 112.21C57.2474 112.21 56.7774 112.125 56.3374 111.955C55.8974 111.785 55.5074 111.54 55.1674 111.22C54.8374 110.9 54.5724 110.505 54.3724 110.035C54.1824 109.555 54.0874 109.01 54.0874 108.4V108.16C54.0874 107.56 54.1874 107.025 54.3874 106.555C54.5874 106.075 54.8524 105.675 55.1824 105.355C55.5124 105.025 55.8974 104.775 56.3374 104.605C56.7774 104.435 57.2374 104.35 57.7174 104.35C58.2574 104.35 58.7274 104.47 59.1274 104.71C59.5374 104.94 59.8574 105.28 60.0874 105.73H60.2674V104.56H61.4374V113.83C61.4374 114.17 61.3274 114.45 61.1074 114.67C60.8974 114.89 60.6224 115 60.2824 115H55.4374V113.92H59.8624C60.1324 113.92 60.2674 113.77 60.2674 113.47V110.86ZM57.7774 111.1C58.1274 111.1 58.4524 111.035 58.7524 110.905C59.0524 110.775 59.3124 110.59 59.5324 110.35C59.7624 110.11 59.9424 109.825 60.0724 109.495C60.2024 109.155 60.2674 108.78 60.2674 108.37V108.19C60.2674 107.79 60.2024 107.425 60.0724 107.095C59.9424 106.755 59.7624 106.465 59.5324 106.225C59.3124 105.985 59.0474 105.8 58.7374 105.67C58.4374 105.53 58.1174 105.46 57.7774 105.46C57.4274 105.46 57.0974 105.525 56.7874 105.655C56.4874 105.785 56.2224 105.97 55.9924 106.21C55.7724 106.45 55.5974 106.735 55.4674 107.065C55.3474 107.395 55.2874 107.76 55.2874 108.16V108.4C55.2874 108.82 55.3474 109.195 55.4674 109.525C55.5974 109.855 55.7724 110.14 55.9924 110.38C56.2224 110.61 56.4874 110.79 56.7874 110.92C57.0874 111.04 57.4174 111.1 57.7774 111.1ZM65.732 111.16C65.732 110.87 65.832 110.625 66.032 110.425C66.242 110.215 66.492 110.11 66.782 110.11C67.072 110.11 67.317 110.215 67.517 110.425C67.727 110.625 67.832 110.87 67.832 111.16V112.63C67.832 112.97 67.722 113.25 67.502 113.47C67.292 113.69 67.017 113.8 66.677 113.8H65.912V112.99H66.617C66.887 112.99 67.022 112.84 67.022 112.54V112.165C66.942 112.195 66.857 112.21 66.767 112.21C66.487 112.21 66.242 112.11 66.032 111.91C65.832 111.7 65.732 111.45 65.732 111.16ZM86.8011 109.39H82.3011L81.5361 112H80.1861L83.3661 101.5H85.7361L88.9161 112H87.5661L86.8011 109.39ZM84.4611 102.04L82.6461 108.22H86.4561L84.6411 102.04H84.4611ZM91.3207 112H90.1507V104.56H91.3207V105.82H91.5007C91.9607 104.84 92.7607 104.35 93.9007 104.35C94.7607 104.35 95.4457 104.62 95.9557 105.16C96.4657 105.69 96.7207 106.49 96.7207 107.56V112H95.5507V107.8C95.5507 107.02 95.3757 106.435 95.0257 106.045C94.6757 105.655 94.2007 105.46 93.6007 105.46C92.8907 105.46 92.3307 105.705 91.9207 106.195C91.5207 106.675 91.3207 107.32 91.3207 108.13V112ZM104.795 110.86H104.615C104.495 111.09 104.34 111.29 104.15 111.46C103.97 111.63 103.77 111.77 103.55 111.88C103.34 111.99 103.115 112.07 102.875 112.12C102.635 112.18 102.405 112.21 102.185 112.21C101.685 112.21 101.22 112.125 100.79 111.955C100.36 111.785 99.9803 111.54 99.6503 111.22C99.3303 110.9 99.0753 110.505 98.8853 110.035C98.7053 109.555 98.6153 109.01 98.6153 108.4V108.16C98.6153 107.56 98.7103 107.025 98.9003 106.555C99.0903 106.075 99.3453 105.675 99.6653 105.355C99.9853 105.025 100.36 104.775 100.79 104.605C101.22 104.435 101.675 104.35 102.155 104.35C102.665 104.35 103.14 104.465 103.58 104.695C104.03 104.915 104.375 105.26 104.615 105.73H104.795V101.5H105.965V112H104.795V110.86ZM102.305 111.1C102.655 111.1 102.98 111.035 103.28 110.905C103.58 110.775 103.84 110.59 104.06 110.35C104.29 110.11 104.47 109.825 104.6 109.495C104.73 109.155 104.795 108.78 104.795 108.37V108.19C104.795 107.79 104.73 107.425 104.6 107.095C104.47 106.755 104.29 106.465 104.06 106.225C103.84 105.985 103.575 105.8 103.265 105.67C102.965 105.53 102.645 105.46 102.305 105.46C101.955 105.46 101.625 105.525 101.315 105.655C101.015 105.785 100.75 105.97 100.52 106.21C100.3 106.45 100.125 106.735 99.9953 107.065C99.8753 107.395 99.8153 107.76 99.8153 108.16V108.4C99.8153 108.82 99.8753 109.195 99.9953 109.525C100.125 109.855 100.3 110.14 100.52 110.38C100.75 110.61 101.015 110.79 101.315 110.92C101.615 111.04 101.945 111.1 102.305 111.1ZM116.729 104.56H119.024V102.67C119.024 102.33 119.129 102.05 119.339 101.83C119.559 101.61 119.839 101.5 120.179 101.5H123.119V102.58H120.599C120.329 102.58 120.194 102.73 120.194 103.03V104.56H123.299V105.64H120.194V112H119.024V105.64H116.729V104.56ZM132.709 108.37C132.709 108.99 132.604 109.54 132.394 110.02C132.194 110.49 131.924 110.89 131.584 111.22C131.244 111.54 130.844 111.785 130.384 111.955C129.934 112.125 129.464 112.21 128.974 112.21C128.474 112.21 127.999 112.125 127.549 111.955C127.099 111.785 126.704 111.54 126.364 111.22C126.024 110.89 125.749 110.49 125.539 110.02C125.339 109.54 125.239 108.99 125.239 108.37V108.19C125.239 107.58 125.339 107.04 125.539 106.57C125.749 106.09 126.024 105.685 126.364 105.355C126.714 105.025 127.114 104.775 127.564 104.605C128.014 104.435 128.484 104.35 128.974 104.35C129.464 104.35 129.934 104.435 130.384 104.605C130.834 104.775 131.229 105.025 131.569 105.355C131.919 105.685 132.194 106.09 132.394 106.57C132.604 107.04 132.709 107.58 132.709 108.19V108.37ZM128.974 111.1C129.334 111.1 129.664 111.04 129.964 110.92C130.274 110.79 130.544 110.605 130.774 110.365C131.004 110.125 131.184 109.84 131.314 109.51C131.444 109.17 131.509 108.79 131.509 108.37V108.19C131.509 107.79 131.444 107.425 131.314 107.095C131.184 106.755 131.004 106.465 130.774 106.225C130.544 105.985 130.274 105.8 129.964 105.67C129.654 105.53 129.324 105.46 128.974 105.46C128.624 105.46 128.294 105.53 127.984 105.67C127.674 105.8 127.404 105.985 127.174 106.225C126.944 106.465 126.764 106.755 126.634 107.095C126.504 107.425 126.439 107.79 126.439 108.19V108.37C126.439 108.79 126.504 109.17 126.634 109.51C126.764 109.84 126.944 110.125 127.174 110.365C127.404 110.605 127.669 110.79 127.969 110.92C128.279 111.04 128.614 111.1 128.974 111.1ZM139.884 104.56H141.054V112H139.884V110.65H139.704C139.464 111.13 139.149 111.51 138.759 111.79C138.369 112.07 137.874 112.21 137.274 112.21C136.864 112.21 136.484 112.14 136.134 112C135.794 111.87 135.499 111.67 135.249 111.4C135.009 111.13 134.819 110.795 134.679 110.395C134.549 109.995 134.484 109.53 134.484 109V104.56H135.654V108.85C135.654 109.63 135.814 110.2 136.134 110.56C136.454 110.92 136.944 111.1 137.604 111.1C138.314 111.1 138.869 110.86 139.269 110.38C139.679 109.89 139.884 109.24 139.884 108.43V104.56ZM143.038 104.56H145.738V105.55H145.918C146.108 105.14 146.378 104.84 146.728 104.65C147.078 104.45 147.478 104.35 147.928 104.35C148.678 104.35 149.283 104.595 149.743 105.085C150.203 105.575 150.448 106.29 150.478 107.23L149.248 107.41C149.248 106.72 149.083 106.225 148.753 105.925C148.423 105.615 148.018 105.46 147.538 105.46C147.228 105.46 146.958 105.52 146.728 105.64C146.508 105.76 146.323 105.925 146.173 106.135C146.023 106.345 145.913 106.59 145.843 106.87C145.773 107.15 145.738 107.45 145.738 107.77V110.92H147.628V112H142.858V110.92H144.568V105.64H143.038V104.56ZM1.23 123.56H3.525V121.67C3.525 121.33 3.63 121.05 3.84 120.83C4.06 120.61 4.34 120.5 4.68 120.5H7.62V121.58H5.1C4.83 121.58 4.695 121.73 4.695 122.03V123.56H7.8V124.64H4.695V131H3.525V124.64H1.23V123.56ZM17.2096 127.37C17.2096 127.99 17.1046 128.54 16.8946 129.02C16.6946 129.49 16.4246 129.89 16.0846 130.22C15.7446 130.54 15.3446 130.785 14.8846 130.955C14.4346 131.125 13.9646 131.21 13.4746 131.21C12.9746 131.21 12.4996 131.125 12.0496 130.955C11.5996 130.785 11.2046 130.54 10.8646 130.22C10.5246 129.89 10.2496 129.49 10.0396 129.02C9.83957 128.54 9.73957 127.99 9.73957 127.37V127.19C9.73957 126.58 9.83957 126.04 10.0396 125.57C10.2496 125.09 10.5246 124.685 10.8646 124.355C11.2146 124.025 11.6146 123.775 12.0646 123.605C12.5146 123.435 12.9846 123.35 13.4746 123.35C13.9646 123.35 14.4346 123.435 14.8846 123.605C15.3346 123.775 15.7296 124.025 16.0696 124.355C16.4196 124.685 16.6946 125.09 16.8946 125.57C17.1046 126.04 17.2096 126.58 17.2096 127.19V127.37ZM13.4746 130.1C13.8346 130.1 14.1646 130.04 14.4646 129.92C14.7746 129.79 15.0446 129.605 15.2746 129.365C15.5046 129.125 15.6846 128.84 15.8146 128.51C15.9446 128.17 16.0096 127.79 16.0096 127.37V127.19C16.0096 126.79 15.9446 126.425 15.8146 126.095C15.6846 125.755 15.5046 125.465 15.2746 125.225C15.0446 124.985 14.7746 124.8 14.4646 124.67C14.1546 124.53 13.8246 124.46 13.4746 124.46C13.1246 124.46 12.7946 124.53 12.4846 124.67C12.1746 124.8 11.9046 124.985 11.6746 125.225C11.4446 125.465 11.2646 125.755 11.1346 126.095C11.0046 126.425 10.9396 126.79 10.9396 127.19V127.37C10.9396 127.79 11.0046 128.17 11.1346 128.51C11.2646 128.84 11.4446 129.125 11.6746 129.365C11.9046 129.605 12.1696 129.79 12.4696 129.92C12.7796 130.04 13.1146 130.1 13.4746 130.1ZM18.6541 123.56H21.3541V124.55H21.5341C21.7241 124.14 21.9941 123.84 22.3441 123.65C22.6941 123.45 23.0941 123.35 23.5441 123.35C24.2941 123.35 24.8991 123.595 25.3591 124.085C25.8191 124.575 26.0641 125.29 26.0941 126.23L24.8641 126.41C24.8641 125.72 24.6991 125.225 24.3691 124.925C24.0391 124.615 23.6341 124.46 23.1541 124.46C22.8441 124.46 22.5741 124.52 22.3441 124.64C22.1241 124.76 21.9391 124.925 21.7891 125.135C21.6391 125.345 21.5291 125.59 21.4591 125.87C21.3891 126.15 21.3541 126.45 21.3541 126.77V129.92H23.2441V131H18.4741V129.92H20.1841V124.64H18.6541V123.56ZM42.6033 129.86H42.4233C42.3033 130.09 42.1483 130.29 41.9583 130.46C41.7783 130.63 41.5783 130.77 41.3583 130.88C41.1483 130.99 40.9233 131.07 40.6833 131.12C40.4433 131.18 40.2133 131.21 39.9933 131.21C39.4933 131.21 39.0283 131.125 38.5983 130.955C38.1683 130.785 37.7883 130.54 37.4583 130.22C37.1383 129.9 36.8833 129.505 36.6933 129.035C36.5133 128.555 36.4233 128.01 36.4233 127.4V127.16C36.4233 126.56 36.5183 126.025 36.7083 125.555C36.8983 125.075 37.1533 124.675 37.4733 124.355C37.7933 124.025 38.1683 123.775 38.5983 123.605C39.0283 123.435 39.4833 123.35 39.9633 123.35C40.4733 123.35 40.9483 123.465 41.3883 123.695C41.8383 123.915 42.1833 124.26 42.4233 124.73H42.6033V120.5H43.7733V131H42.6033V129.86ZM40.1133 130.1C40.4633 130.1 40.7883 130.035 41.0883 129.905C41.3883 129.775 41.6483 129.59 41.8683 129.35C42.0983 129.11 42.2783 128.825 42.4083 128.495C42.5383 128.155 42.6033 127.78 42.6033 127.37V127.19C42.6033 126.79 42.5383 126.425 42.4083 126.095C42.2783 125.755 42.0983 125.465 41.8683 125.225C41.6483 124.985 41.3833 124.8 41.0733 124.67C40.7733 124.53 40.4533 124.46 40.1133 124.46C39.7633 124.46 39.4333 124.525 39.1233 124.655C38.8233 124.785 38.5583 124.97 38.3283 125.21C38.1083 125.45 37.9333 125.735 37.8033 126.065C37.6833 126.395 37.6233 126.76 37.6233 127.16V127.4C37.6233 127.82 37.6833 128.195 37.8033 128.525C37.9333 128.855 38.1083 129.14 38.3283 129.38C38.5583 129.61 38.8233 129.79 39.1233 129.92C39.4233 130.04 39.7533 130.1 40.1133 130.1ZM46.5829 127.64C46.6129 128.38 46.8429 128.975 47.2729 129.425C47.7029 129.875 48.3029 130.1 49.0729 130.1C49.4229 130.1 49.7279 130.06 49.9879 129.98C50.2479 129.9 50.4679 129.79 50.6479 129.65C50.8379 129.51 50.9879 129.35 51.0979 129.17C51.2179 128.98 51.3129 128.78 51.3829 128.57L52.4929 128.87C52.2829 129.56 51.8929 130.125 51.3229 130.565C50.7629 130.995 50.0029 131.21 49.0429 131.21C48.5129 131.21 48.0229 131.12 47.5729 130.94C47.1329 130.75 46.7529 130.485 46.4329 130.145C46.1129 129.805 45.8629 129.4 45.6829 128.93C45.5029 128.46 45.4129 127.94 45.4129 127.37V127.01C45.4129 126.49 45.5029 126.005 45.6829 125.555C45.8729 125.105 46.1329 124.72 46.4629 124.4C46.7929 124.07 47.1779 123.815 47.6179 123.635C48.0679 123.445 48.5529 123.35 49.0729 123.35C49.6829 123.35 50.2079 123.465 50.6479 123.695C51.0979 123.915 51.4629 124.19 51.7429 124.52C52.0329 124.85 52.2429 125.21 52.3729 125.6C52.5129 125.99 52.5829 126.35 52.5829 126.68V127.64H46.5829ZM49.0729 124.46C48.7429 124.46 48.4329 124.515 48.1429 124.625C47.8629 124.725 47.6129 124.87 47.3929 125.06C47.1829 125.25 47.0079 125.475 46.8679 125.735C46.7379 125.985 46.6529 126.26 46.6129 126.56H51.4129C51.3929 126.24 51.3129 125.95 51.1729 125.69C51.0429 125.43 50.8679 125.21 50.6479 125.03C50.4379 124.85 50.1929 124.71 49.9129 124.61C49.6429 124.51 49.3629 124.46 49.0729 124.46ZM60.0124 129.74H59.8324C59.5924 130.24 59.2574 130.61 58.8274 130.85C58.4074 131.09 57.9624 131.21 57.4924 131.21C57.0024 131.21 56.5474 131.13 56.1274 130.97C55.7074 130.8 55.3374 130.555 55.0174 130.235C54.7074 129.905 54.4624 129.505 54.2824 129.035C54.1024 128.565 54.0124 128.02 54.0124 127.4V127.16C54.0124 126.55 54.1024 126.01 54.2824 125.54C54.4624 125.07 54.7074 124.675 55.0174 124.355C55.3374 124.025 55.7074 123.775 56.1274 123.605C56.5474 123.435 56.9924 123.35 57.4624 123.35C57.9724 123.35 58.4324 123.465 58.8424 123.695C59.2624 123.915 59.5924 124.26 59.8324 124.73H60.0124V123.56H61.1824V129.47C61.1824 129.77 61.3174 129.92 61.5874 129.92H61.9624V131H61.1674C60.8274 131 60.5474 130.89 60.3274 130.67C60.1174 130.45 60.0124 130.17 60.0124 129.83V129.74ZM57.6124 130.1C57.9624 130.1 58.2824 130.035 58.5724 129.905C58.8724 129.775 59.1274 129.59 59.3374 129.35C59.5474 129.11 59.7124 128.825 59.8324 128.495C59.9524 128.155 60.0124 127.78 60.0124 127.37V127.19C60.0124 126.79 59.9524 126.425 59.8324 126.095C59.7124 125.755 59.5424 125.465 59.3224 125.225C59.1124 124.985 58.8574 124.8 58.5574 124.67C58.2674 124.53 57.9524 124.46 57.6124 124.46C57.2624 124.46 56.9424 124.525 56.6524 124.655C56.3624 124.785 56.1074 124.97 55.8874 125.21C55.6774 125.44 55.5124 125.725 55.3924 126.065C55.2724 126.395 55.2124 126.76 55.2124 127.16V127.4C55.2124 128.25 55.4324 128.915 55.8724 129.395C56.3224 129.865 56.9024 130.1 57.6124 130.1ZM63.242 123.56H65.582V120.5H66.752V123.56H69.632V124.64H66.752V129.47C66.752 129.77 66.887 129.92 67.157 129.92H69.272V131H66.737C66.397 131 66.117 130.89 65.897 130.67C65.687 130.45 65.582 130.17 65.582 129.83V124.64H63.242V123.56ZM73.5516 131H72.3816V120.5H73.5516V124.91H73.7316C73.9616 124.43 74.2816 124.05 74.6916 123.77C75.1116 123.49 75.6216 123.35 76.2216 123.35C77.0316 123.35 77.6866 123.62 78.1866 124.16C78.6966 124.69 78.9516 125.49 78.9516 126.56V131H77.7816V126.8C77.7816 126.02 77.6066 125.435 77.2566 125.045C76.9066 124.655 76.4316 124.46 75.8316 124.46C75.1216 124.46 74.5616 124.705 74.1516 125.195C73.7516 125.675 73.5516 126.32 73.5516 127.13V131Z" fill="#2A2921"/>
</svg>
