<svg width="169" height="136" viewBox="0 0 169 136" fill="none" xmlns="http://www.w3.org/2000/svg">
<path d="M1.66 28V14.92H4.04L8.12 22.28L9.46 25.06H9.54C9.48667 24.38 9.42 23.6533 9.34 22.88C9.27333 22.0933 9.24 21.3333 9.24 20.6V14.92H11.46V28H9.08L5 20.64L3.66 17.86H3.58C3.63333 18.5533 3.69333 19.28 3.76 20.04C3.84 20.8 3.88 21.5467 3.88 22.28V28H1.66ZM17.105 28.24C16.0517 28.24 15.285 27.9067 14.805 27.24C14.325 26.56 14.085 25.5933 14.085 24.34V18.18H16.385V24.04C16.385 24.8533 16.505 25.4267 16.745 25.76C16.985 26.0933 17.3717 26.26 17.905 26.26C18.3317 26.26 18.705 26.1533 19.025 25.94C19.3583 25.7267 19.7117 25.38 20.085 24.9V18.18H22.385V28H20.505L20.325 26.56H20.265C19.8383 27.0667 19.3717 27.4733 18.865 27.78C18.3717 28.0867 17.785 28.24 17.105 28.24ZM24.8983 28V18.18H26.7983L26.9583 19.92H27.0383C27.3849 19.28 27.8049 18.7933 28.2983 18.46C28.7916 18.1133 29.2983 17.94 29.8183 17.94C30.2849 17.94 30.6583 18.0067 30.9383 18.14L30.5383 20.14C30.3649 20.0867 30.2049 20.0467 30.0583 20.02C29.9116 19.9933 29.7316 19.98 29.5183 19.98C29.1316 19.98 28.7249 20.1333 28.2983 20.44C27.8716 20.7333 27.5049 21.2533 27.1983 22V28H24.8983ZM34.582 28.24C33.902 28.24 33.2287 28.1133 32.562 27.86C31.9087 27.5933 31.342 27.2667 30.862 26.88L31.942 25.4C32.382 25.7467 32.8154 26.02 33.242 26.22C33.682 26.4067 34.1554 26.5 34.662 26.5C35.1954 26.5 35.5887 26.3933 35.842 26.18C36.0954 25.9533 36.222 25.6667 36.222 25.32C36.222 25.12 36.162 24.9467 36.042 24.8C35.922 24.64 35.762 24.5 35.562 24.38C35.362 24.26 35.1354 24.1533 34.882 24.06C34.6287 23.9533 34.3754 23.8467 34.122 23.74C33.802 23.62 33.4754 23.48 33.142 23.32C32.8087 23.16 32.5087 22.9667 32.242 22.74C31.9887 22.5133 31.7754 22.2533 31.602 21.96C31.442 21.6533 31.362 21.2933 31.362 20.88C31.362 20.0133 31.682 19.3067 32.322 18.76C32.962 18.2133 33.8354 17.94 34.942 17.94C35.622 17.94 36.2354 18.06 36.782 18.3C37.3287 18.54 37.802 18.8133 38.202 19.12L37.142 20.52C36.7954 20.2667 36.442 20.0667 36.082 19.92C35.7354 19.76 35.3687 19.68 34.982 19.68C34.4887 19.68 34.122 19.7867 33.882 20C33.6554 20.2 33.542 20.4533 33.542 20.76C33.542 20.96 33.5954 21.1333 33.702 21.28C33.822 21.4133 33.9754 21.5333 34.162 21.64C34.3487 21.7467 34.562 21.8467 34.802 21.94C35.0554 22.0333 35.3154 22.1267 35.582 22.22C35.9154 22.34 36.2487 22.48 36.582 22.64C36.9154 22.7867 37.2154 22.9733 37.482 23.2C37.762 23.4267 37.982 23.7067 38.142 24.04C38.3154 24.36 38.402 24.7467 38.402 25.2C38.402 25.6267 38.3154 26.0267 38.142 26.4C37.982 26.76 37.742 27.08 37.422 27.36C37.102 27.6267 36.702 27.84 36.222 28C35.742 28.16 35.1954 28.24 34.582 28.24ZM44.2553 28.24C43.5753 28.24 42.942 28.1267 42.3553 27.9C41.7686 27.66 41.2553 27.32 40.8153 26.88C40.3753 26.44 40.0286 25.9067 39.7753 25.28C39.5353 24.64 39.4153 23.9133 39.4153 23.1C39.4153 22.3 39.542 21.58 39.7953 20.94C40.0486 20.3 40.382 19.76 40.7953 19.32C41.222 18.88 41.7086 18.54 42.2553 18.3C42.802 18.06 43.362 17.94 43.9353 17.94C44.602 17.94 45.1886 18.0533 45.6953 18.28C46.202 18.5067 46.622 18.8267 46.9553 19.24C47.302 19.6533 47.562 20.1467 47.7353 20.72C47.9086 21.2933 47.9953 21.92 47.9953 22.6C47.9953 22.8267 47.982 23.04 47.9553 23.24C47.942 23.44 47.922 23.6 47.8953 23.72H41.6553C41.762 24.6 42.0686 25.28 42.5753 25.76C43.0953 26.2267 43.7553 26.46 44.5553 26.46C44.982 26.46 45.3753 26.4 45.7353 26.28C46.1086 26.1467 46.4753 25.9667 46.8353 25.74L47.6153 27.18C47.1486 27.4867 46.6286 27.74 46.0553 27.94C45.482 28.14 44.882 28.24 44.2553 28.24ZM41.6353 22.16H45.9953C45.9953 21.4 45.8286 20.8067 45.4953 20.38C45.1753 19.94 44.6753 19.72 43.9953 19.72C43.4086 19.72 42.8953 19.9267 42.4553 20.34C42.0153 20.7533 41.742 21.36 41.6353 22.16ZM49.792 28V18.18H51.692L51.852 19.92H51.932C52.2787 19.28 52.6987 18.7933 53.192 18.46C53.6854 18.1133 54.192 17.94 54.712 17.94C55.1787 17.94 55.552 18.0067 55.832 18.14L55.432 20.14C55.2587 20.0867 55.0987 20.0467 54.952 20.02C54.8054 19.9933 54.6254 19.98 54.412 19.98C54.0254 19.98 53.6187 20.1333 53.192 20.44C52.7654 20.7333 52.3987 21.2533 52.092 22V28H49.792ZM57.8255 32.04C57.5588 32.04 57.3255 32.02 57.1255 31.98C56.9255 31.9533 56.7321 31.9067 56.5455 31.84L56.9655 30.04C57.0588 30.0667 57.1655 30.0933 57.2855 30.12C57.4188 30.16 57.5455 30.18 57.6655 30.18C58.1855 30.18 58.5988 30.02 58.9055 29.7C59.2255 29.3933 59.4655 28.9933 59.6255 28.5L59.8055 27.88L55.9455 18.18H58.2855L59.9855 23C60.1321 23.4267 60.2721 23.88 60.4055 24.36C60.5521 24.8267 60.6988 25.2933 60.8455 25.76H60.9255C61.0455 25.3067 61.1655 24.8467 61.2855 24.38C61.4188 23.9 61.5455 23.44 61.6655 23L63.1455 18.18H65.3655L61.8055 28.44C61.6055 29 61.3855 29.5 61.1455 29.94C60.9055 30.38 60.6255 30.7533 60.3055 31.06C59.9988 31.38 59.6388 31.62 59.2255 31.78C58.8255 31.9533 58.3588 32.04 57.8255 32.04ZM70.4717 28V14.92H74.8917C75.5717 14.92 76.2051 14.9867 76.7917 15.12C77.3784 15.2533 77.8851 15.4733 78.3117 15.78C78.7384 16.0733 79.0717 16.4667 79.3117 16.96C79.5651 17.4533 79.6917 18.0667 79.6917 18.8C79.6917 19.8 79.4517 20.6067 78.9717 21.22C78.5051 21.8333 77.8784 22.2733 77.0917 22.54L80.2117 28H77.6117L74.7917 22.88H72.7917V28H70.4717ZM72.7917 21.04H74.6517C75.5451 21.04 76.2251 20.8533 76.6917 20.48C77.1717 20.1067 77.4117 19.5467 77.4117 18.8C77.4117 18.04 77.1717 17.5133 76.6917 17.22C76.2251 16.9267 75.5451 16.78 74.6517 16.78H72.7917V21.04ZM81.7077 28V13.88H84.0077V17.52L83.9277 19.42C84.341 19.0333 84.7943 18.6933 85.2877 18.4C85.7943 18.0933 86.3877 17.94 87.0677 17.94C88.121 17.94 88.8877 18.28 89.3677 18.96C89.8477 19.6267 90.0877 20.5867 90.0877 21.84V28H87.7877V22.14C87.7877 21.3267 87.6677 20.7533 87.4277 20.42C87.1877 20.0867 86.7943 19.92 86.2477 19.92C85.821 19.92 85.441 20.0267 85.1077 20.24C84.7877 20.44 84.421 20.74 84.0077 21.14V28H81.7077ZM93.12 32.04C92.8533 32.04 92.62 32.02 92.42 31.98C92.22 31.9533 92.0267 31.9067 91.84 31.84L92.26 30.04C92.3533 30.0667 92.46 30.0933 92.58 30.12C92.7133 30.16 92.84 30.18 92.96 30.18C93.48 30.18 93.8933 30.02 94.2 29.7C94.52 29.3933 94.76 28.9933 94.92 28.5L95.1 27.88L91.24 18.18H93.58L95.28 23C95.4267 23.4267 95.5667 23.88 95.7 24.36C95.8467 24.8267 95.9933 25.2933 96.14 25.76H96.22C96.34 25.3067 96.46 24.8467 96.58 24.38C96.7133 23.9 96.84 23.44 96.96 23L98.44 18.18H100.66L97.1 28.44C96.9 29 96.68 29.5 96.44 29.94C96.2 30.38 95.92 30.7533 95.6 31.06C95.2933 31.38 94.9333 31.62 94.52 31.78C94.12 31.9533 93.6533 32.04 93.12 32.04ZM101.962 28V18.18H103.862L104.022 19.52H104.102C104.516 19.08 104.962 18.7067 105.442 18.4C105.936 18.0933 106.489 17.94 107.102 17.94C107.822 17.94 108.396 18.0933 108.822 18.4C109.262 18.7067 109.596 19.14 109.822 19.7C110.289 19.1933 110.776 18.7733 111.282 18.44C111.789 18.1067 112.356 17.94 112.982 17.94C114.022 17.94 114.789 18.28 115.282 18.96C115.776 19.6267 116.022 20.5867 116.022 21.84V28H113.702V22.14C113.702 21.3267 113.576 20.7533 113.322 20.42C113.082 20.0867 112.709 19.92 112.202 19.92C111.589 19.92 110.902 20.3267 110.142 21.14V28H107.842V22.14C107.842 21.3267 107.716 20.7533 107.462 20.42C107.222 20.0867 106.842 19.92 106.322 19.92C105.709 19.92 105.022 20.3267 104.262 21.14V28H101.962ZM122.618 28.24C121.938 28.24 121.304 28.1267 120.718 27.9C120.131 27.66 119.618 27.32 119.178 26.88C118.738 26.44 118.391 25.9067 118.138 25.28C117.898 24.64 117.778 23.9133 117.778 23.1C117.778 22.3 117.904 21.58 118.158 20.94C118.411 20.3 118.744 19.76 119.158 19.32C119.584 18.88 120.071 18.54 120.618 18.3C121.164 18.06 121.724 17.94 122.298 17.94C122.964 17.94 123.551 18.0533 124.058 18.28C124.564 18.5067 124.984 18.8267 125.318 19.24C125.664 19.6533 125.924 20.1467 126.098 20.72C126.271 21.2933 126.358 21.92 126.358 22.6C126.358 22.8267 126.344 23.04 126.318 23.24C126.304 23.44 126.284 23.6 126.258 23.72H120.018C120.124 24.6 120.431 25.28 120.938 25.76C121.458 26.2267 122.118 26.46 122.918 26.46C123.344 26.46 123.738 26.4 124.098 26.28C124.471 26.1467 124.838 25.9667 125.198 25.74L125.978 27.18C125.511 27.4867 124.991 27.74 124.418 27.94C123.844 28.14 123.244 28.24 122.618 28.24ZM119.998 22.16H124.358C124.358 21.4 124.191 20.8067 123.858 20.38C123.538 19.94 123.038 19.72 122.358 19.72C121.771 19.72 121.258 19.9267 120.818 20.34C120.378 20.7533 120.104 21.36 119.998 22.16ZM130.895 28.24C130.215 28.24 129.541 28.1133 128.875 27.86C128.221 27.5933 127.655 27.2667 127.175 26.88L128.255 25.4C128.695 25.7467 129.128 26.02 129.555 26.22C129.995 26.4067 130.468 26.5 130.975 26.5C131.508 26.5 131.901 26.3933 132.155 26.18C132.408 25.9533 132.535 25.6667 132.535 25.32C132.535 25.12 132.475 24.9467 132.355 24.8C132.235 24.64 132.075 24.5 131.875 24.38C131.675 24.26 131.448 24.1533 131.195 24.06C130.941 23.9533 130.688 23.8467 130.435 23.74C130.115 23.62 129.788 23.48 129.455 23.32C129.121 23.16 128.821 22.9667 128.555 22.74C128.301 22.5133 128.088 22.2533 127.915 21.96C127.755 21.6533 127.675 21.2933 127.675 20.88C127.675 20.0133 127.995 19.3067 128.635 18.76C129.275 18.2133 130.148 17.94 131.255 17.94C131.935 17.94 132.548 18.06 133.095 18.3C133.641 18.54 134.115 18.8133 134.515 19.12L133.455 20.52C133.108 20.2667 132.755 20.0667 132.395 19.92C132.048 19.76 131.681 19.68 131.295 19.68C130.801 19.68 130.435 19.7867 130.195 20C129.968 20.2 129.855 20.4533 129.855 20.76C129.855 20.96 129.908 21.1333 130.015 21.28C130.135 21.4133 130.288 21.5333 130.475 21.64C130.661 21.7467 130.875 21.8467 131.115 21.94C131.368 22.0333 131.628 22.1267 131.895 22.22C132.228 22.34 132.561 22.48 132.895 22.64C133.228 22.7867 133.528 22.9733 133.795 23.2C134.075 23.4267 134.295 23.7067 134.455 24.04C134.628 24.36 134.715 24.7467 134.715 25.2C134.715 25.6267 134.628 26.0267 134.455 26.4C134.295 26.76 134.055 27.08 133.735 27.36C133.415 27.6267 133.015 27.84 132.535 28C132.055 28.16 131.508 28.24 130.895 28.24Z" fill="#2A2921"/>
<path d="M6.03 62.24C5.08 62.24 4.265 62.08 3.585 61.76C2.905 61.44 2.35 61.015 1.92 60.485C1.5 59.945 1.19 59.35 0.99 58.7C0.79 58.05 0.69 57.4 0.69 56.75C0.69 56.12 0.795 55.485 1.005 54.845C1.215 54.195 1.535 53.6 1.965 53.06C2.405 52.52 2.95 52.085 3.6 51.755C4.26 51.425 5.03 51.26 5.91 51.26C6.83 51.26 7.625 51.425 8.295 51.755C8.965 52.085 9.515 52.525 9.945 53.075C10.385 53.615 10.71 54.205 10.92 54.845C11.14 55.485 11.25 56.12 11.25 56.75C11.25 57.37 11.145 58.005 10.935 58.655C10.725 59.295 10.4 59.89 9.96 60.44C9.53 60.98 8.99 61.415 8.34 61.745C7.69 62.075 6.92 62.24 6.03 62.24ZM6.06 61.625C6.68 61.625 7.22 61.495 7.68 61.235C8.14 60.965 8.52 60.61 8.82 60.17C9.13 59.72 9.36 59.225 9.51 58.685C9.67 58.135 9.75 57.585 9.75 57.035C9.75 56.415 9.665 55.8 9.495 55.19C9.325 54.58 9.075 54.025 8.745 53.525C8.415 53.025 8.005 52.625 7.515 52.325C7.035 52.015 6.485 51.86 5.865 51.86C5.245 51.86 4.7 51.995 4.23 52.265C3.77 52.535 3.385 52.895 3.075 53.345C2.775 53.785 2.545 54.28 2.385 54.83C2.235 55.37 2.16 55.92 2.16 56.48C2.16 57.03 2.235 57.605 2.385 58.205C2.545 58.805 2.785 59.365 3.105 59.885C3.425 60.405 3.83 60.825 4.32 61.145C4.81 61.465 5.39 61.625 6.06 61.625ZM12.2692 62V61.55C12.5792 61.55 12.7942 61.475 12.9142 61.325C13.0342 61.165 13.1042 60.95 13.1242 60.68C13.1442 60.4 13.1542 60.08 13.1542 59.72L13.1692 56.3C13.1692 56.14 13.1692 55.98 13.1692 55.82C13.1792 55.66 13.1992 55.495 13.2292 55.325C13.0492 55.335 12.8692 55.345 12.6892 55.355C12.5192 55.365 12.3442 55.375 12.1642 55.385V54.755C12.6042 54.755 12.9342 54.735 13.1542 54.695C13.3842 54.655 13.5542 54.605 13.6642 54.545C13.7742 54.485 13.8642 54.42 13.9342 54.35H14.3692C14.3892 54.46 14.3992 54.59 14.3992 54.74C14.4092 54.88 14.4192 55.055 14.4292 55.265C14.7492 54.975 15.1292 54.735 15.5692 54.545C16.0092 54.355 16.4442 54.26 16.8742 54.26C17.7442 54.26 18.3792 54.535 18.7792 55.085C19.1792 55.625 19.3792 56.47 19.3792 57.62V60.41C19.3792 60.61 19.3742 60.79 19.3642 60.95C19.3642 61.1 19.3492 61.26 19.3192 61.43C19.4792 61.42 19.6342 61.415 19.7842 61.415C19.9442 61.405 20.1042 61.395 20.2642 61.385V62H17.2042V61.55C17.5142 61.55 17.7292 61.475 17.8492 61.325C17.9692 61.165 18.0392 60.95 18.0592 60.68C18.0792 60.4 18.0892 60.08 18.0892 59.72V57.62C18.0792 56.76 17.9342 56.11 17.6542 55.67C17.3842 55.23 16.9542 55.015 16.3642 55.025C16.0042 55.035 15.6492 55.13 15.2992 55.31C14.9592 55.49 14.6742 55.72 14.4442 56C14.4542 56.08 14.4592 56.17 14.4592 56.27C14.4592 56.37 14.4592 56.475 14.4592 56.585L14.4442 60.41C14.4442 60.61 14.4392 60.79 14.4292 60.95C14.4292 61.1 14.4142 61.26 14.3842 61.43C14.5442 61.42 14.6992 61.415 14.8492 61.415C15.0092 61.405 15.1692 61.395 15.3292 61.385V62H12.2692ZM24.7105 62.24C24.0205 62.24 23.3955 62.08 22.8355 61.76C22.2855 61.43 21.8505 60.97 21.5305 60.38C21.2105 59.78 21.0505 59.075 21.0505 58.265C21.0505 57.565 21.2055 56.91 21.5155 56.3C21.8355 55.69 22.2805 55.2 22.8505 54.83C23.4205 54.45 24.0805 54.26 24.8305 54.26C25.3905 54.26 25.9005 54.38 26.3605 54.62C26.8205 54.86 27.1855 55.225 27.4555 55.715C27.7355 56.205 27.8755 56.825 27.8755 57.575L22.5955 57.665C22.5855 58.815 22.7755 59.74 23.1655 60.44C23.5555 61.13 24.1905 61.475 25.0705 61.475C25.3805 61.475 25.6955 61.42 26.0155 61.31C26.3455 61.2 26.6505 61.05 26.9305 60.86C27.2105 60.67 27.4355 60.46 27.6055 60.23L27.9655 60.53C27.6955 60.95 27.3705 61.285 26.9905 61.535C26.6105 61.785 26.2205 61.965 25.8205 62.075C25.4205 62.185 25.0505 62.24 24.7105 62.24ZM22.6405 57.035H26.4655C26.4655 56.675 26.4105 56.33 26.3005 56C26.2005 55.66 26.0305 55.385 25.7905 55.175C25.5505 54.955 25.2355 54.845 24.8455 54.845C24.2655 54.845 23.7805 55.02 23.3905 55.37C23.0105 55.71 22.7605 56.265 22.6405 57.035ZM33.4958 54.185C33.4958 53.075 33.6958 52.2 34.0958 51.56C34.5058 50.92 35.2058 50.6 36.1958 50.6C36.4158 50.6 36.6458 50.64 36.8858 50.72C37.1358 50.79 37.3508 50.91 37.5308 51.08C37.7108 51.24 37.8008 51.45 37.8008 51.71C37.8008 51.9 37.7458 52.06 37.6358 52.19C37.5358 52.32 37.3858 52.385 37.1858 52.385C36.9458 52.395 36.7758 52.325 36.6758 52.175C36.5858 52.015 36.5408 51.88 36.5408 51.77C36.5408 51.71 36.5458 51.65 36.5558 51.59C36.5658 51.53 36.5858 51.465 36.6158 51.395C36.5458 51.305 36.4458 51.24 36.3158 51.2C36.1958 51.16 36.0808 51.14 35.9708 51.14C35.6608 51.14 35.4208 51.23 35.2508 51.41C35.0808 51.59 34.9608 51.815 34.8908 52.085C34.8208 52.355 34.7858 52.635 34.7858 52.925V54.5H36.8108V55.085L34.7858 55.13L34.8008 60.41C34.8008 60.61 34.7958 60.79 34.7858 60.95C34.7858 61.1 34.7708 61.26 34.7408 61.43C34.9008 61.42 35.0558 61.415 35.2058 61.415C35.3658 61.405 35.5258 61.395 35.6858 61.385V62H32.6258V61.55C32.9358 61.55 33.1508 61.475 33.2708 61.325C33.3908 61.165 33.4608 60.95 33.4808 60.68C33.5008 60.4 33.5108 60.08 33.5108 59.72L33.4958 55.145L32.2658 55.175V54.5H33.4958V54.185ZM40.9659 62.24C40.2659 62.24 39.6309 62.08 39.0609 61.76C38.4909 61.43 38.0359 60.98 37.6959 60.41C37.3659 59.83 37.2009 59.17 37.2009 58.43C37.2009 57.64 37.3659 56.93 37.6959 56.3C38.0259 55.67 38.4759 55.175 39.0459 54.815C39.6159 54.445 40.2559 54.26 40.9659 54.26C41.6659 54.26 42.3009 54.43 42.8709 54.77C43.4409 55.1 43.8959 55.55 44.2359 56.12C44.5759 56.69 44.7459 57.34 44.7459 58.07C44.7459 58.84 44.5759 59.545 44.2359 60.185C43.9059 60.815 43.4559 61.315 42.8859 61.685C42.3159 62.055 41.6759 62.24 40.9659 62.24ZM41.0859 61.64C41.6159 61.64 42.0359 61.49 42.3459 61.19C42.6559 60.89 42.8759 60.5 43.0059 60.02C43.1459 59.54 43.2159 59.035 43.2159 58.505C43.2159 58.055 43.1709 57.615 43.0809 57.185C43.0009 56.745 42.8709 56.35 42.6909 56C42.5109 55.64 42.2759 55.355 41.9859 55.145C41.7059 54.935 41.3659 54.83 40.9659 54.83C40.4459 54.83 40.0209 54.98 39.6909 55.28C39.3609 55.58 39.1159 55.97 38.9559 56.45C38.8059 56.93 38.7309 57.445 38.7309 57.995C38.7309 58.615 38.8159 59.205 38.9859 59.765C39.1559 60.315 39.4159 60.765 39.7659 61.115C40.1159 61.465 40.5559 61.64 41.0859 61.64ZM45.7204 61.55C46.0304 61.55 46.2454 61.475 46.3654 61.325C46.4854 61.165 46.5554 60.95 46.5754 60.68C46.5954 60.4 46.6054 60.08 46.6054 59.72V56.3C46.6054 56.14 46.6054 55.98 46.6054 55.82C46.6154 55.66 46.6354 55.495 46.6654 55.325C46.4854 55.335 46.3054 55.345 46.1254 55.355C45.9554 55.355 45.7804 55.36 45.6004 55.37V54.755H46.0654C46.4954 54.755 46.7904 54.715 46.9504 54.635C47.1204 54.545 47.2604 54.45 47.3704 54.35H47.8054C47.8254 54.51 47.8404 54.71 47.8504 54.95C47.8604 55.18 47.8704 55.475 47.8804 55.835C48.0304 55.585 48.2354 55.34 48.4954 55.1C48.7554 54.86 49.0454 54.66 49.3654 54.5C49.6954 54.34 50.0404 54.26 50.4004 54.26C50.6804 54.26 50.9254 54.335 51.1354 54.485C51.3454 54.635 51.4504 54.875 51.4504 55.205C51.4504 55.335 51.3904 55.49 51.2704 55.67C51.1604 55.85 50.9704 55.935 50.7004 55.925C50.4804 55.915 50.3054 55.83 50.1754 55.67C50.0454 55.5 49.9954 55.305 50.0254 55.085C49.6454 55.065 49.2604 55.21 48.8704 55.52C48.4804 55.83 48.1554 56.23 47.8954 56.72L47.9104 60.41C47.9104 60.61 47.9054 60.79 47.8954 60.95C47.8954 61.1 47.8804 61.26 47.8504 61.43C48.0104 61.42 48.1654 61.415 48.3154 61.415C48.4754 61.405 48.6354 61.395 48.7954 61.385V62H45.7204V61.55ZM58.625 62.24C58.125 62.24 57.68 62.17 57.29 62.03C56.9 61.9 56.58 61.75 56.33 61.58L56.39 62.105H55.76L55.67 59.525H56.135C56.155 59.935 56.27 60.305 56.48 60.635C56.69 60.955 56.96 61.205 57.29 61.385C57.62 61.565 57.975 61.655 58.355 61.655C58.615 61.655 58.87 61.615 59.12 61.535C59.37 61.445 59.58 61.315 59.75 61.145C59.92 60.965 60.005 60.74 60.005 60.47C60.005 60.19 59.92 59.96 59.75 59.78C59.59 59.59 59.375 59.425 59.105 59.285C58.835 59.145 58.545 59.015 58.235 58.895C57.835 58.735 57.435 58.565 57.035 58.385C56.645 58.195 56.32 57.95 56.06 57.65C55.8 57.34 55.67 56.935 55.67 56.435C55.67 56.225 55.71 55.995 55.79 55.745C55.87 55.495 56.005 55.26 56.195 55.04C56.385 54.81 56.645 54.625 56.975 54.485C57.305 54.335 57.725 54.26 58.235 54.26C58.505 54.26 58.805 54.305 59.135 54.395C59.465 54.485 59.785 54.655 60.095 54.905L60.065 54.335H60.695V56.96H60.215C60.195 56.61 60.115 56.275 59.975 55.955C59.835 55.625 59.63 55.355 59.36 55.145C59.09 54.925 58.74 54.815 58.31 54.815C57.85 54.815 57.49 54.93 57.23 55.16C56.97 55.39 56.84 55.655 56.84 55.955C56.84 56.265 56.935 56.525 57.125 56.735C57.325 56.935 57.58 57.11 57.89 57.26C58.2 57.41 58.53 57.555 58.88 57.695C59.26 57.855 59.63 58.03 59.99 58.22C60.35 58.41 60.645 58.65 60.875 58.94C61.105 59.22 61.22 59.585 61.22 60.035C61.22 60.535 61.09 60.95 60.83 61.28C60.58 61.61 60.255 61.85 59.855 62C59.465 62.16 59.055 62.24 58.625 62.24ZM65.9134 62.24C65.2134 62.24 64.5784 62.08 64.0084 61.76C63.4384 61.43 62.9834 60.98 62.6434 60.41C62.3134 59.83 62.1484 59.17 62.1484 58.43C62.1484 57.64 62.3134 56.93 62.6434 56.3C62.9734 55.67 63.4234 55.175 63.9934 54.815C64.5634 54.445 65.2034 54.26 65.9134 54.26C66.6134 54.26 67.2484 54.43 67.8184 54.77C68.3884 55.1 68.8434 55.55 69.1834 56.12C69.5234 56.69 69.6934 57.34 69.6934 58.07C69.6934 58.84 69.5234 59.545 69.1834 60.185C68.8534 60.815 68.4034 61.315 67.8334 61.685C67.2634 62.055 66.6234 62.24 65.9134 62.24ZM66.0334 61.64C66.5634 61.64 66.9834 61.49 67.2934 61.19C67.6034 60.89 67.8234 60.5 67.9534 60.02C68.0934 59.54 68.1634 59.035 68.1634 58.505C68.1634 58.055 68.1184 57.615 68.0284 57.185C67.9484 56.745 67.8184 56.35 67.6384 56C67.4584 55.64 67.2234 55.355 66.9334 55.145C66.6534 54.935 66.3134 54.83 65.9134 54.83C65.3934 54.83 64.9684 54.98 64.6384 55.28C64.3084 55.58 64.0634 55.97 63.9034 56.45C63.7534 56.93 63.6784 57.445 63.6784 57.995C63.6784 58.615 63.7634 59.205 63.9334 59.765C64.1034 60.315 64.3634 60.765 64.7134 61.115C65.0634 61.465 65.5034 61.64 66.0334 61.64ZM70.6678 61.55C70.9778 61.55 71.1928 61.475 71.3128 61.325C71.4328 61.165 71.5028 60.95 71.5228 60.68C71.5428 60.4 71.5528 60.08 71.5528 59.72V56.3C71.5528 56.14 71.5528 55.98 71.5528 55.82C71.5628 55.66 71.5828 55.495 71.6128 55.325C71.4328 55.335 71.2528 55.345 71.0728 55.355C70.9028 55.355 70.7278 55.36 70.5478 55.37V54.755H71.0128C71.4428 54.755 71.7378 54.715 71.8978 54.635C72.0678 54.545 72.2078 54.45 72.3178 54.35H72.7528C72.7728 54.51 72.7878 54.71 72.7978 54.95C72.8078 55.18 72.8178 55.475 72.8278 55.835C72.9778 55.585 73.1828 55.34 73.4428 55.1C73.7028 54.86 73.9928 54.66 74.3128 54.5C74.6428 54.34 74.9878 54.26 75.3478 54.26C75.6278 54.26 75.8728 54.335 76.0828 54.485C76.2928 54.635 76.3978 54.875 76.3978 55.205C76.3978 55.335 76.3378 55.49 76.2178 55.67C76.1078 55.85 75.9178 55.935 75.6478 55.925C75.4278 55.915 75.2528 55.83 75.1228 55.67C74.9928 55.5 74.9428 55.305 74.9728 55.085C74.5928 55.065 74.2078 55.21 73.8178 55.52C73.4278 55.83 73.1028 56.23 72.8428 56.72L72.8578 60.41C72.8578 60.61 72.8528 60.79 72.8428 60.95C72.8428 61.1 72.8278 61.26 72.7978 61.43C72.9578 61.42 73.1128 61.415 73.2628 61.415C73.4228 61.405 73.5828 61.395 73.7428 61.385V62H70.6678V61.55ZM76.8571 61.55C77.1671 61.55 77.3821 61.475 77.5021 61.325C77.6221 61.165 77.6921 60.95 77.7121 60.68C77.7321 60.4 77.7421 60.08 77.7421 59.72V56.3C77.7421 56.14 77.7421 55.98 77.7421 55.82C77.7521 55.66 77.7721 55.495 77.8021 55.325C77.6221 55.335 77.4421 55.345 77.2621 55.355C77.0921 55.355 76.9171 55.36 76.7371 55.37V54.755H77.2021C77.6321 54.755 77.9271 54.715 78.0871 54.635C78.2571 54.545 78.3971 54.45 78.5071 54.35H78.9421C78.9621 54.51 78.9771 54.71 78.9871 54.95C78.9971 55.18 79.0071 55.475 79.0171 55.835C79.1671 55.585 79.3721 55.34 79.6321 55.1C79.8921 54.86 80.1821 54.66 80.5021 54.5C80.8321 54.34 81.1771 54.26 81.5371 54.26C81.8171 54.26 82.0621 54.335 82.2721 54.485C82.4821 54.635 82.5871 54.875 82.5871 55.205C82.5871 55.335 82.5271 55.49 82.4071 55.67C82.2971 55.85 82.1071 55.935 81.8371 55.925C81.6171 55.915 81.4421 55.83 81.3121 55.67C81.1821 55.5 81.1321 55.305 81.1621 55.085C80.7821 55.065 80.3971 55.21 80.0071 55.52C79.6171 55.83 79.2921 56.23 79.0321 56.72L79.0471 60.41C79.0471 60.61 79.0421 60.79 79.0321 60.95C79.0321 61.1 79.0171 61.26 78.9871 61.43C79.1471 61.42 79.3021 61.415 79.4521 61.415C79.6121 61.405 79.7721 61.395 79.9321 61.385V62H76.8571V61.55ZM86.6638 62.24C85.9638 62.24 85.3288 62.08 84.7588 61.76C84.1888 61.43 83.7338 60.98 83.3938 60.41C83.0638 59.83 82.8988 59.17 82.8988 58.43C82.8988 57.64 83.0638 56.93 83.3938 56.3C83.7238 55.67 84.1738 55.175 84.7438 54.815C85.3138 54.445 85.9538 54.26 86.6638 54.26C87.3638 54.26 87.9988 54.43 88.5688 54.77C89.1388 55.1 89.5938 55.55 89.9338 56.12C90.2738 56.69 90.4438 57.34 90.4438 58.07C90.4438 58.84 90.2738 59.545 89.9338 60.185C89.6038 60.815 89.1538 61.315 88.5838 61.685C88.0138 62.055 87.3738 62.24 86.6638 62.24ZM86.7838 61.64C87.3138 61.64 87.7338 61.49 88.0438 61.19C88.3538 60.89 88.5738 60.5 88.7038 60.02C88.8438 59.54 88.9138 59.035 88.9138 58.505C88.9138 58.055 88.8688 57.615 88.7788 57.185C88.6988 56.745 88.5688 56.35 88.3888 56C88.2088 55.64 87.9738 55.355 87.6838 55.145C87.4038 54.935 87.0638 54.83 86.6638 54.83C86.1438 54.83 85.7188 54.98 85.3888 55.28C85.0588 55.58 84.8138 55.97 84.6538 56.45C84.5038 56.93 84.4288 57.445 84.4288 57.995C84.4288 58.615 84.5138 59.205 84.6838 59.765C84.8538 60.315 85.1138 60.765 85.4638 61.115C85.8138 61.465 86.2538 61.64 86.7838 61.64ZM93.8517 62.045L91.8867 56.285C91.7767 55.965 91.6917 55.715 91.6317 55.535C91.5717 55.345 91.5267 55.19 91.4967 55.07L90.7017 55.115V54.5H93.8817V54.95C93.4317 54.96 93.1817 55.115 93.1317 55.415C93.0917 55.705 93.1517 56.09 93.3117 56.57L94.0017 58.67C94.0817 58.91 94.1617 59.155 94.2417 59.405C94.3217 59.645 94.4017 59.885 94.4817 60.125C94.5717 59.855 94.6617 59.585 94.7517 59.315C94.8517 59.035 94.9467 58.755 95.0367 58.475L96.3717 54.5H96.9867L98.5017 58.865C98.5817 59.085 98.6617 59.31 98.7417 59.54C98.8217 59.77 98.9017 60 98.9817 60.23C99.0617 60.01 99.1367 59.795 99.2067 59.585C99.2867 59.365 99.3617 59.145 99.4317 58.925L100.422 56.075C100.492 55.875 100.562 55.685 100.632 55.505C100.702 55.325 100.782 55.18 100.872 55.07L100.002 55.115V54.5H102.612V54.95C102.272 54.97 102.007 55.03 101.817 55.13C101.627 55.23 101.482 55.365 101.382 55.535C101.282 55.695 101.187 55.895 101.097 56.135L98.9367 62.045H98.3367L96.9117 57.95C96.8217 57.69 96.7317 57.43 96.6417 57.17C96.5517 56.9 96.4617 56.635 96.3717 56.375C96.2817 56.635 96.1917 56.9 96.1017 57.17C96.0117 57.43 95.9217 57.69 95.8317 57.95L94.4217 62.045H93.8517ZM103.361 64.685L102.956 64.385C103.066 64.245 103.181 64.045 103.301 63.785C103.421 63.525 103.516 63.235 103.586 62.915C103.666 62.605 103.686 62.3 103.646 62C103.516 62.06 103.391 62.09 103.271 62.09C103.081 62.09 102.916 62.02 102.776 61.88C102.646 61.74 102.581 61.565 102.581 61.355C102.581 61.075 102.661 60.86 102.821 60.71C102.991 60.56 103.186 60.485 103.406 60.485C103.756 60.485 104.021 60.62 104.201 60.89C104.381 61.15 104.471 61.47 104.471 61.85C104.471 62.1 104.421 62.405 104.321 62.765C104.231 63.125 104.101 63.475 103.931 63.815C103.771 64.165 103.581 64.455 103.361 64.685ZM117.41 54.665C117.4 54.075 117.34 53.585 117.23 53.195C117.12 52.805 116.925 52.515 116.645 52.325C116.375 52.125 115.98 52.03 115.46 52.04H114.185L114.17 60.215C114.17 60.745 114.155 61.14 114.125 61.4C114.335 61.39 114.54 61.38 114.74 61.37C114.95 61.36 115.16 61.35 115.37 61.34V62H111.845V61.505C112.225 61.485 112.48 61.395 112.61 61.235C112.75 61.075 112.825 60.86 112.835 60.59C112.855 60.31 112.865 60 112.865 59.66L112.88 52.055L111.335 52.07C110.705 52.07 110.26 52.28 110 52.7C109.74 53.12 109.61 53.775 109.61 54.665H109.055L109.145 51.5H117.89L117.98 54.665H117.41ZM121.26 62.045L119.295 56.285C119.185 55.965 119.1 55.715 119.04 55.535C118.98 55.345 118.935 55.19 118.905 55.07L118.11 55.115V54.5H121.29V54.95C120.84 54.96 120.59 55.115 120.54 55.415C120.5 55.705 120.56 56.09 120.72 56.57L121.41 58.67C121.49 58.91 121.57 59.155 121.65 59.405C121.73 59.645 121.81 59.885 121.89 60.125C121.98 59.855 122.07 59.585 122.16 59.315C122.26 59.035 122.355 58.755 122.445 58.475L123.78 54.5H124.395L125.91 58.865C125.99 59.085 126.07 59.31 126.15 59.54C126.23 59.77 126.31 60 126.39 60.23C126.47 60.01 126.545 59.795 126.615 59.585C126.695 59.365 126.77 59.145 126.84 58.925L127.83 56.075C127.9 55.875 127.97 55.685 128.04 55.505C128.11 55.325 128.19 55.18 128.28 55.07L127.41 55.115V54.5H130.02V54.95C129.68 54.97 129.415 55.03 129.225 55.13C129.035 55.23 128.89 55.365 128.79 55.535C128.69 55.695 128.595 55.895 128.505 56.135L126.345 62.045H125.745L124.32 57.95C124.23 57.69 124.14 57.43 124.05 57.17C123.96 56.9 123.87 56.635 123.78 56.375C123.69 56.635 123.6 56.9 123.51 57.17C123.42 57.43 123.33 57.69 123.24 57.95L121.83 62.045H121.26ZM133.936 62.24C133.236 62.24 132.601 62.08 132.031 61.76C131.461 61.43 131.006 60.98 130.666 60.41C130.336 59.83 130.171 59.17 130.171 58.43C130.171 57.64 130.336 56.93 130.666 56.3C130.996 55.67 131.446 55.175 132.016 54.815C132.586 54.445 133.226 54.26 133.936 54.26C134.636 54.26 135.271 54.43 135.841 54.77C136.411 55.1 136.866 55.55 137.206 56.12C137.546 56.69 137.716 57.34 137.716 58.07C137.716 58.84 137.546 59.545 137.206 60.185C136.876 60.815 136.426 61.315 135.856 61.685C135.286 62.055 134.646 62.24 133.936 62.24ZM134.056 61.64C134.586 61.64 135.006 61.49 135.316 61.19C135.626 60.89 135.846 60.5 135.976 60.02C136.116 59.54 136.186 59.035 136.186 58.505C136.186 58.055 136.141 57.615 136.051 57.185C135.971 56.745 135.841 56.35 135.661 56C135.481 55.64 135.246 55.355 134.956 55.145C134.676 54.935 134.336 54.83 133.936 54.83C133.416 54.83 132.991 54.98 132.661 55.28C132.331 55.58 132.086 55.97 131.926 56.45C131.776 56.93 131.701 57.445 131.701 57.995C131.701 58.615 131.786 59.205 131.956 59.765C132.126 60.315 132.386 60.765 132.736 61.115C133.086 61.465 133.526 61.64 134.056 61.64ZM143.276 54.185C143.276 53.075 143.476 52.2 143.876 51.56C144.286 50.92 144.986 50.6 145.976 50.6C146.196 50.6 146.426 50.64 146.666 50.72C146.916 50.79 147.131 50.91 147.311 51.08C147.491 51.24 147.581 51.45 147.581 51.71C147.581 51.9 147.526 52.06 147.416 52.19C147.316 52.32 147.166 52.385 146.966 52.385C146.726 52.395 146.556 52.325 146.456 52.175C146.366 52.015 146.321 51.88 146.321 51.77C146.321 51.71 146.326 51.65 146.336 51.59C146.346 51.53 146.366 51.465 146.396 51.395C146.326 51.305 146.226 51.24 146.096 51.2C145.976 51.16 145.861 51.14 145.751 51.14C145.441 51.14 145.201 51.23 145.031 51.41C144.861 51.59 144.741 51.815 144.671 52.085C144.601 52.355 144.566 52.635 144.566 52.925V54.5H146.591V55.085L144.566 55.13L144.581 60.41C144.581 60.61 144.576 60.79 144.566 60.95C144.566 61.1 144.551 61.26 144.521 61.43C144.681 61.42 144.836 61.415 144.986 61.415C145.146 61.405 145.306 61.395 145.466 61.385V62H142.406V61.55C142.716 61.55 142.931 61.475 143.051 61.325C143.171 61.165 143.241 60.95 143.261 60.68C143.281 60.4 143.291 60.08 143.291 59.72L143.276 55.145L142.046 55.175V54.5H143.276V54.185ZM150.746 62.24C150.046 62.24 149.411 62.08 148.841 61.76C148.271 61.43 147.816 60.98 147.476 60.41C147.146 59.83 146.981 59.17 146.981 58.43C146.981 57.64 147.146 56.93 147.476 56.3C147.806 55.67 148.256 55.175 148.826 54.815C149.396 54.445 150.036 54.26 150.746 54.26C151.446 54.26 152.081 54.43 152.651 54.77C153.221 55.1 153.676 55.55 154.016 56.12C154.356 56.69 154.526 57.34 154.526 58.07C154.526 58.84 154.356 59.545 154.016 60.185C153.686 60.815 153.236 61.315 152.666 61.685C152.096 62.055 151.456 62.24 150.746 62.24ZM150.866 61.64C151.396 61.64 151.816 61.49 152.126 61.19C152.436 60.89 152.656 60.5 152.786 60.02C152.926 59.54 152.996 59.035 152.996 58.505C152.996 58.055 152.951 57.615 152.861 57.185C152.781 56.745 152.651 56.35 152.471 56C152.291 55.64 152.056 55.355 151.766 55.145C151.486 54.935 151.146 54.83 150.746 54.83C150.226 54.83 149.801 54.98 149.471 55.28C149.141 55.58 148.896 55.97 148.736 56.45C148.586 56.93 148.511 57.445 148.511 57.995C148.511 58.615 148.596 59.205 148.766 59.765C148.936 60.315 149.196 60.765 149.546 61.115C149.896 61.465 150.336 61.64 150.866 61.64ZM155.5 61.55C155.81 61.55 156.025 61.475 156.145 61.325C156.265 61.165 156.335 60.95 156.355 60.68C156.375 60.4 156.385 60.08 156.385 59.72V56.3C156.385 56.14 156.385 55.98 156.385 55.82C156.395 55.66 156.415 55.495 156.445 55.325C156.265 55.335 156.085 55.345 155.905 55.355C155.735 55.355 155.56 55.36 155.38 55.37V54.755H155.845C156.275 54.755 156.57 54.715 156.73 54.635C156.9 54.545 157.04 54.45 157.15 54.35H157.585C157.605 54.51 157.62 54.71 157.63 54.95C157.64 55.18 157.65 55.475 157.66 55.835C157.81 55.585 158.015 55.34 158.275 55.1C158.535 54.86 158.825 54.66 159.145 54.5C159.475 54.34 159.82 54.26 160.18 54.26C160.46 54.26 160.705 54.335 160.915 54.485C161.125 54.635 161.23 54.875 161.23 55.205C161.23 55.335 161.17 55.49 161.05 55.67C160.94 55.85 160.75 55.935 160.48 55.925C160.26 55.915 160.085 55.83 159.955 55.67C159.825 55.5 159.775 55.305 159.805 55.085C159.425 55.065 159.04 55.21 158.65 55.52C158.26 55.83 157.935 56.23 157.675 56.72L157.69 60.41C157.69 60.61 157.685 60.79 157.675 60.95C157.675 61.1 157.66 61.26 157.63 61.43C157.79 61.42 157.945 61.415 158.095 61.415C158.255 61.405 158.415 61.395 158.575 61.385V62H155.5V61.55ZM0.66 83V82.55C0.97 82.55 1.185 82.475 1.305 82.325C1.425 82.165 1.495 81.95 1.515 81.68C1.535 81.4 1.545 81.08 1.545 80.72V77.3C1.545 77.14 1.545 76.98 1.545 76.82C1.555 76.66 1.575 76.495 1.605 76.325C1.425 76.335 1.245 76.345 1.065 76.355C0.895 76.365 0.72 76.375 0.54 76.385V75.755C0.98 75.755 1.31 75.735 1.53 75.695C1.76 75.655 1.93 75.605 2.04 75.545C2.15 75.485 2.24 75.42 2.31 75.35H2.745C2.765 75.45 2.775 75.565 2.775 75.695C2.785 75.825 2.795 75.975 2.805 76.145C3.105 75.885 3.45 75.675 3.84 75.515C4.23 75.345 4.62 75.26 5.01 75.26C5.51 75.26 5.93 75.35 6.27 75.53C6.61 75.71 6.875 75.955 7.065 76.265C7.405 75.985 7.795 75.75 8.235 75.56C8.685 75.36 9.125 75.26 9.555 75.26C10.425 75.26 11.065 75.525 11.475 76.055C11.885 76.575 12.08 77.43 12.06 78.62L12.045 81.41C12.045 81.61 12.04 81.79 12.03 81.95C12.03 82.1 12.015 82.26 11.985 82.43C12.145 82.42 12.3 82.415 12.45 82.415C12.61 82.405 12.77 82.395 12.93 82.385V83H9.87V82.55C10.18 82.55 10.395 82.475 10.515 82.325C10.635 82.165 10.705 81.95 10.725 81.68C10.745 81.4 10.755 81.08 10.755 80.72V78.62C10.755 77.76 10.615 77.115 10.335 76.685C10.065 76.255 9.635 76.045 9.045 76.055C8.735 76.055 8.425 76.125 8.115 76.265C7.805 76.405 7.535 76.58 7.305 76.79C7.355 76.95 7.39 77.125 7.41 77.315C7.44 77.495 7.455 77.685 7.455 77.885C7.445 78.465 7.44 79.05 7.44 79.64C7.44 80.23 7.435 80.82 7.425 81.41C7.425 81.61 7.42 81.79 7.41 81.95C7.41 82.1 7.395 82.26 7.365 82.43C7.525 82.42 7.68 82.415 7.83 82.415C7.99 82.405 8.15 82.395 8.31 82.385V83H5.25V82.55C5.56 82.55 5.77 82.475 5.88 82.325C6 82.165 6.07 81.95 6.09 81.68C6.12 81.4 6.135 81.08 6.135 80.72L6.15 78.62C6.16 77.76 6.035 77.11 5.775 76.67C5.515 76.23 5.09 76.015 4.5 76.025C4.19 76.025 3.885 76.095 3.585 76.235C3.285 76.365 3.03 76.535 2.82 76.745C2.82 76.865 2.82 76.995 2.82 77.135C2.83 77.265 2.835 77.405 2.835 77.555V81.41C2.835 81.61 2.83 81.79 2.82 81.95C2.82 82.1 2.805 82.26 2.775 82.43C2.935 82.42 3.09 82.415 3.24 82.415C3.4 82.405 3.56 82.395 3.72 82.385V83H0.66ZM13.7633 82.55C14.0733 82.55 14.2883 82.475 14.4083 82.325C14.5283 82.165 14.5983 81.95 14.6183 81.68C14.6383 81.4 14.6483 81.08 14.6483 80.72V77.3C14.6483 77.14 14.6533 76.99 14.6633 76.85C14.6733 76.7 14.6883 76.525 14.7083 76.325C14.5283 76.335 14.3483 76.345 14.1683 76.355C13.9983 76.365 13.8233 76.375 13.6433 76.385V75.755C14.0833 75.755 14.4233 75.735 14.6633 75.695C14.9033 75.655 15.0833 75.605 15.2033 75.545C15.3333 75.485 15.4333 75.42 15.5033 75.35H15.9383V81.41C15.9383 81.61 15.9333 81.79 15.9233 81.95C15.9233 82.1 15.9083 82.26 15.8783 82.43C16.0383 82.42 16.1933 82.415 16.3433 82.415C16.5033 82.405 16.6633 82.395 16.8233 82.385V83H13.7633V82.55ZM15.2183 73.865C15.0083 73.865 14.8233 73.78 14.6633 73.61C14.5033 73.44 14.4233 73.23 14.4233 72.98C14.4233 72.73 14.5033 72.52 14.6633 72.35C14.8333 72.17 15.0233 72.08 15.2333 72.08C15.4633 72.08 15.6533 72.17 15.8033 72.35C15.9633 72.52 16.0433 72.73 16.0433 72.98C16.0433 73.23 15.9583 73.44 15.7883 73.61C15.6283 73.78 15.4383 73.865 15.2183 73.865ZM17.6821 82.55C17.9921 82.55 18.2071 82.475 18.3271 82.325C18.4471 82.165 18.5171 81.95 18.5371 81.68C18.5571 81.4 18.5671 81.08 18.5671 80.72V77.3C18.5671 77.14 18.5671 76.98 18.5671 76.82C18.5771 76.66 18.5971 76.495 18.6271 76.325C18.4471 76.335 18.2671 76.345 18.0871 76.355C17.9171 76.355 17.7421 76.36 17.5621 76.37V75.755H18.0271C18.4571 75.755 18.7521 75.715 18.9121 75.635C19.0821 75.545 19.2221 75.45 19.3321 75.35H19.7671C19.7871 75.51 19.8021 75.71 19.8121 75.95C19.8221 76.18 19.8321 76.475 19.8421 76.835C19.9921 76.585 20.1971 76.34 20.4571 76.1C20.7171 75.86 21.0071 75.66 21.3271 75.5C21.6571 75.34 22.0021 75.26 22.3621 75.26C22.6421 75.26 22.8871 75.335 23.0971 75.485C23.3071 75.635 23.4121 75.875 23.4121 76.205C23.4121 76.335 23.3521 76.49 23.2321 76.67C23.1221 76.85 22.9321 76.935 22.6621 76.925C22.4421 76.915 22.2671 76.83 22.1371 76.67C22.0071 76.5 21.9571 76.305 21.9871 76.085C21.6071 76.065 21.2221 76.21 20.8321 76.52C20.4421 76.83 20.1171 77.23 19.8571 77.72L19.8721 81.41C19.8721 81.61 19.8671 81.79 19.8571 81.95C19.8571 82.1 19.8421 82.26 19.8121 82.43C19.9721 82.42 20.1271 82.415 20.2771 82.415C20.4371 82.405 20.5971 82.395 20.7571 82.385V83H17.6821V82.55ZM26.7939 83.24C26.5639 83.24 26.3289 83.205 26.0889 83.135C25.8489 83.075 25.6239 82.95 25.4139 82.76C25.2139 82.57 25.0539 82.295 24.9339 81.935C24.8139 81.565 24.7539 81.08 24.7539 80.48L24.7839 76.13L23.6289 76.145V75.5C23.8889 75.49 24.1539 75.395 24.4239 75.215C24.6939 75.025 24.9339 74.77 25.1439 74.45C25.3639 74.13 25.5139 73.78 25.5939 73.4H26.1039V75.5H28.6239V76.085L26.1039 76.115L26.0739 80.285C26.0739 80.965 26.1589 81.485 26.3289 81.845C26.5089 82.205 26.8039 82.385 27.2139 82.385C27.4939 82.385 27.7539 82.305 27.9939 82.145C28.2439 81.985 28.4639 81.765 28.6539 81.485L29.0589 81.815C28.7689 82.255 28.4789 82.575 28.1889 82.775C27.9089 82.975 27.6489 83.1 27.4089 83.15C27.1689 83.21 26.9639 83.24 26.7939 83.24ZM34.2896 82.55C34.5996 82.55 34.8146 82.475 34.9346 82.325C35.0546 82.165 35.1246 81.95 35.1446 81.68C35.1646 81.4 35.1746 81.08 35.1746 80.72V78.62C35.1746 77.76 35.0346 77.115 34.7546 76.685C34.4846 76.255 34.0546 76.045 33.4646 76.055C33.0946 76.065 32.7296 76.155 32.3696 76.325C32.0196 76.495 31.7346 76.715 31.5146 76.985V81.41C31.5146 81.61 31.5096 81.79 31.4996 81.95C31.4896 82.1 31.4696 82.26 31.4396 82.43C31.5996 82.42 31.7546 82.415 31.9046 82.415C32.0646 82.405 32.2246 82.395 32.3846 82.385V83H29.3246V82.55C29.6346 82.55 29.8496 82.475 29.9696 82.325C30.0896 82.165 30.1596 81.95 30.1796 81.68C30.2096 81.4 30.2246 81.08 30.2246 80.72V73.625C30.2246 73.465 30.2246 73.315 30.2246 73.175C30.2346 73.025 30.2496 72.85 30.2696 72.65C30.0896 72.66 29.9096 72.67 29.7296 72.68C29.5596 72.69 29.3846 72.7 29.2046 72.71V72.08C29.6446 72.08 29.9846 72.06 30.2246 72.02C30.4746 71.98 30.6596 71.93 30.7796 71.87C30.9096 71.81 31.0096 71.745 31.0796 71.675H31.5146V76.25C31.8446 75.97 32.2296 75.735 32.6696 75.545C33.1096 75.355 33.5446 75.26 33.9746 75.26C34.8446 75.26 35.4696 75.535 35.8496 76.085C36.2396 76.625 36.4396 77.47 36.4496 78.62L36.4646 81.41C36.4646 81.61 36.4596 81.79 36.4496 81.95C36.4496 82.1 36.4346 82.26 36.4046 82.43C36.5646 82.42 36.7196 82.415 36.8696 82.415C37.0296 82.405 37.1896 82.395 37.3496 82.385V83H34.2896V82.55ZM39.2641 85.685L38.8591 85.385C38.9691 85.245 39.0841 85.045 39.2041 84.785C39.3241 84.525 39.4191 84.235 39.4891 83.915C39.5691 83.605 39.5891 83.3 39.5491 83C39.4191 83.06 39.2941 83.09 39.1741 83.09C38.9841 83.09 38.8191 83.02 38.6791 82.88C38.5491 82.74 38.4841 82.565 38.4841 82.355C38.4841 82.075 38.5641 81.86 38.7241 81.71C38.8941 81.56 39.0891 81.485 39.3091 81.485C39.6591 81.485 39.9241 81.62 40.1041 81.89C40.2841 82.15 40.3741 82.47 40.3741 82.85C40.3741 83.1 40.3241 83.405 40.2241 83.765C40.1341 84.125 40.0041 84.475 39.8341 84.815C39.6741 85.165 39.4841 85.455 39.2641 85.685ZM53.3135 75.665C53.3035 75.075 53.2435 74.585 53.1335 74.195C53.0235 73.805 52.8285 73.515 52.5485 73.325C52.2785 73.125 51.8835 73.03 51.3635 73.04H50.0885L50.0735 81.215C50.0735 81.745 50.0585 82.14 50.0285 82.4C50.2385 82.39 50.4435 82.38 50.6435 82.37C50.8535 82.36 51.0635 82.35 51.2735 82.34V83H47.7485V82.505C48.1285 82.485 48.3835 82.395 48.5135 82.235C48.6535 82.075 48.7285 81.86 48.7385 81.59C48.7585 81.31 48.7685 81 48.7685 80.66L48.7835 73.055L47.2385 73.07C46.6085 73.07 46.1635 73.28 45.9035 73.7C45.6435 74.12 45.5135 74.775 45.5135 75.665H44.9585L45.0485 72.5H53.7935L53.8835 75.665H53.3135ZM59.3982 82.55C59.7082 82.55 59.9232 82.475 60.0432 82.325C60.1632 82.165 60.2332 81.95 60.2532 81.68C60.2732 81.4 60.2832 81.08 60.2832 80.72V78.62C60.2832 77.76 60.1432 77.115 59.8632 76.685C59.5932 76.255 59.1632 76.045 58.5732 76.055C58.2032 76.065 57.8382 76.155 57.4782 76.325C57.1282 76.495 56.8432 76.715 56.6232 76.985V81.41C56.6232 81.61 56.6182 81.79 56.6082 81.95C56.5982 82.1 56.5782 82.26 56.5482 82.43C56.7082 82.42 56.8632 82.415 57.0132 82.415C57.1732 82.405 57.3332 82.395 57.4932 82.385V83H54.4332V82.55C54.7432 82.55 54.9582 82.475 55.0782 82.325C55.1982 82.165 55.2682 81.95 55.2882 81.68C55.3182 81.4 55.3332 81.08 55.3332 80.72V73.625C55.3332 73.465 55.3332 73.315 55.3332 73.175C55.3432 73.025 55.3582 72.85 55.3782 72.65C55.1982 72.66 55.0182 72.67 54.8382 72.68C54.6682 72.69 54.4932 72.7 54.3132 72.71V72.08C54.7532 72.08 55.0932 72.06 55.3332 72.02C55.5832 71.98 55.7682 71.93 55.8882 71.87C56.0182 71.81 56.1182 71.745 56.1882 71.675H56.6232V76.25C56.9532 75.97 57.3382 75.735 57.7782 75.545C58.2182 75.355 58.6532 75.26 59.0832 75.26C59.9532 75.26 60.5782 75.535 60.9582 76.085C61.3482 76.625 61.5482 77.47 61.5582 78.62L61.5732 81.41C61.5732 81.61 61.5682 81.79 61.5582 81.95C61.5582 82.1 61.5432 82.26 61.5132 82.43C61.6732 82.42 61.8282 82.415 61.9782 82.415C62.1382 82.405 62.2982 82.395 62.4582 82.385V83H59.3982V82.55ZM63.2627 82.55C63.5727 82.55 63.7877 82.475 63.9077 82.325C64.0277 82.165 64.0977 81.95 64.1177 81.68C64.1377 81.4 64.1477 81.08 64.1477 80.72V77.3C64.1477 77.14 64.1477 76.98 64.1477 76.82C64.1577 76.66 64.1777 76.495 64.2077 76.325C64.0277 76.335 63.8477 76.345 63.6677 76.355C63.4977 76.355 63.3227 76.36 63.1427 76.37V75.755H63.6077C64.0377 75.755 64.3327 75.715 64.4927 75.635C64.6627 75.545 64.8027 75.45 64.9127 75.35H65.3477C65.3677 75.51 65.3827 75.71 65.3927 75.95C65.4027 76.18 65.4127 76.475 65.4227 76.835C65.5727 76.585 65.7777 76.34 66.0377 76.1C66.2977 75.86 66.5877 75.66 66.9077 75.5C67.2377 75.34 67.5827 75.26 67.9427 75.26C68.2227 75.26 68.4677 75.335 68.6777 75.485C68.8877 75.635 68.9927 75.875 68.9927 76.205C68.9927 76.335 68.9327 76.49 68.8127 76.67C68.7027 76.85 68.5127 76.935 68.2427 76.925C68.0227 76.915 67.8477 76.83 67.7177 76.67C67.5877 76.5 67.5377 76.305 67.5677 76.085C67.1877 76.065 66.8027 76.21 66.4127 76.52C66.0227 76.83 65.6977 77.23 65.4377 77.72L65.4527 81.41C65.4527 81.61 65.4477 81.79 65.4377 81.95C65.4377 82.1 65.4227 82.26 65.3927 82.43C65.5527 82.42 65.7077 82.415 65.8577 82.415C66.0177 82.405 66.1777 82.395 66.3377 82.385V83H63.2627V82.55ZM72.9795 83.24C72.2895 83.24 71.6645 83.08 71.1045 82.76C70.5545 82.43 70.1195 81.97 69.7995 81.38C69.4795 80.78 69.3195 80.075 69.3195 79.265C69.3195 78.565 69.4745 77.91 69.7845 77.3C70.1045 76.69 70.5495 76.2 71.1195 75.83C71.6895 75.45 72.3495 75.26 73.0995 75.26C73.6595 75.26 74.1695 75.38 74.6295 75.62C75.0895 75.86 75.4545 76.225 75.7245 76.715C76.0045 77.205 76.1445 77.825 76.1445 78.575L70.8645 78.665C70.8545 79.815 71.0445 80.74 71.4345 81.44C71.8245 82.13 72.4595 82.475 73.3395 82.475C73.6495 82.475 73.9645 82.42 74.2845 82.31C74.6145 82.2 74.9195 82.05 75.1995 81.86C75.4795 81.67 75.7045 81.46 75.8745 81.23L76.2345 81.53C75.9645 81.95 75.6395 82.285 75.2595 82.535C74.8795 82.785 74.4895 82.965 74.0895 83.075C73.6895 83.185 73.3195 83.24 72.9795 83.24ZM70.9095 78.035H74.7345C74.7345 77.675 74.6795 77.33 74.5695 77C74.4695 76.66 74.2995 76.385 74.0595 76.175C73.8195 75.955 73.5045 75.845 73.1145 75.845C72.5345 75.845 72.0495 76.02 71.6595 76.37C71.2795 76.71 71.0295 77.265 70.9095 78.035ZM80.7361 83.24C80.0461 83.24 79.4211 83.08 78.8611 82.76C78.3111 82.43 77.8761 81.97 77.5561 81.38C77.2361 80.78 77.0761 80.075 77.0761 79.265C77.0761 78.565 77.2311 77.91 77.5411 77.3C77.8611 76.69 78.3061 76.2 78.8761 75.83C79.4461 75.45 80.1061 75.26 80.8561 75.26C81.4161 75.26 81.9261 75.38 82.3861 75.62C82.8461 75.86 83.2111 76.225 83.4811 76.715C83.7611 77.205 83.9011 77.825 83.9011 78.575L78.6211 78.665C78.6111 79.815 78.8011 80.74 79.1911 81.44C79.5811 82.13 80.2161 82.475 81.0961 82.475C81.4061 82.475 81.7211 82.42 82.0411 82.31C82.3711 82.2 82.6761 82.05 82.9561 81.86C83.2361 81.67 83.4611 81.46 83.6311 81.23L83.9911 81.53C83.7211 81.95 83.3961 82.285 83.0161 82.535C82.6361 82.785 82.2461 82.965 81.8461 83.075C81.4461 83.185 81.0761 83.24 80.7361 83.24ZM78.6661 78.035H82.4911C82.4911 77.675 82.4361 77.33 82.3261 77C82.2261 76.66 82.0561 76.385 81.8161 76.175C81.5761 75.955 81.2611 75.845 80.8711 75.845C80.2911 75.845 79.8061 76.02 79.4161 76.37C79.0361 76.71 78.7861 77.265 78.6661 78.035ZM89.5214 75.185C89.5214 74.075 89.7214 73.2 90.1214 72.56C90.5314 71.92 91.2314 71.6 92.2214 71.6C92.4414 71.6 92.6714 71.64 92.9114 71.72C93.1614 71.79 93.3764 71.91 93.5564 72.08C93.7364 72.24 93.8264 72.45 93.8264 72.71C93.8264 72.9 93.7714 73.06 93.6614 73.19C93.5614 73.32 93.4114 73.385 93.2114 73.385C92.9714 73.395 92.8014 73.325 92.7014 73.175C92.6114 73.015 92.5664 72.88 92.5664 72.77C92.5664 72.71 92.5714 72.65 92.5814 72.59C92.5914 72.53 92.6114 72.465 92.6414 72.395C92.5714 72.305 92.4714 72.24 92.3414 72.2C92.2214 72.16 92.1064 72.14 91.9964 72.14C91.6864 72.14 91.4464 72.23 91.2764 72.41C91.1064 72.59 90.9864 72.815 90.9164 73.085C90.8464 73.355 90.8114 73.635 90.8114 73.925V75.5H92.8364V76.085L90.8114 76.13L90.8264 81.41C90.8264 81.61 90.8214 81.79 90.8114 81.95C90.8114 82.1 90.7964 82.26 90.7664 82.43C90.9264 82.42 91.0814 82.415 91.2314 82.415C91.3914 82.405 91.5514 82.395 91.7114 82.385V83H88.6514V82.55C88.9614 82.55 89.1764 82.475 89.2964 82.325C89.4164 82.165 89.4864 81.95 89.5064 81.68C89.5264 81.4 89.5364 81.08 89.5364 80.72L89.5214 76.145L88.2914 76.175V75.5H89.5214V75.185ZM96.9915 83.24C96.2915 83.24 95.6565 83.08 95.0865 82.76C94.5165 82.43 94.0615 81.98 93.7215 81.41C93.3915 80.83 93.2265 80.17 93.2265 79.43C93.2265 78.64 93.3915 77.93 93.7215 77.3C94.0515 76.67 94.5015 76.175 95.0715 75.815C95.6415 75.445 96.2815 75.26 96.9915 75.26C97.6915 75.26 98.3265 75.43 98.8965 75.77C99.4665 76.1 99.9215 76.55 100.262 77.12C100.602 77.69 100.772 78.34 100.772 79.07C100.772 79.84 100.602 80.545 100.262 81.185C99.9315 81.815 99.4815 82.315 98.9115 82.685C98.3415 83.055 97.7015 83.24 96.9915 83.24ZM97.1115 82.64C97.6415 82.64 98.0615 82.49 98.3715 82.19C98.6815 81.89 98.9015 81.5 99.0315 81.02C99.1715 80.54 99.2415 80.035 99.2415 79.505C99.2415 79.055 99.1965 78.615 99.1065 78.185C99.0265 77.745 98.8965 77.35 98.7165 77C98.5365 76.64 98.3015 76.355 98.0115 76.145C97.7315 75.935 97.3915 75.83 96.9915 75.83C96.4715 75.83 96.0465 75.98 95.7165 76.28C95.3865 76.58 95.1415 76.97 94.9815 77.45C94.8315 77.93 94.7565 78.445 94.7565 78.995C94.7565 79.615 94.8415 80.205 95.0115 80.765C95.1815 81.315 95.4415 81.765 95.7915 82.115C96.1415 82.465 96.5815 82.64 97.1115 82.64ZM101.746 82.55C102.056 82.55 102.271 82.475 102.391 82.325C102.511 82.165 102.581 81.95 102.601 81.68C102.621 81.4 102.631 81.08 102.631 80.72V77.3C102.631 77.14 102.631 76.98 102.631 76.82C102.641 76.66 102.661 76.495 102.691 76.325C102.511 76.335 102.331 76.345 102.151 76.355C101.981 76.355 101.806 76.36 101.626 76.37V75.755H102.091C102.521 75.755 102.816 75.715 102.976 75.635C103.146 75.545 103.286 75.45 103.396 75.35H103.831C103.851 75.51 103.866 75.71 103.876 75.95C103.886 76.18 103.896 76.475 103.906 76.835C104.056 76.585 104.261 76.34 104.521 76.1C104.781 75.86 105.071 75.66 105.391 75.5C105.721 75.34 106.066 75.26 106.426 75.26C106.706 75.26 106.951 75.335 107.161 75.485C107.371 75.635 107.476 75.875 107.476 76.205C107.476 76.335 107.416 76.49 107.296 76.67C107.186 76.85 106.996 76.935 106.726 76.925C106.506 76.915 106.331 76.83 106.201 76.67C106.071 76.5 106.021 76.305 106.051 76.085C105.671 76.065 105.286 76.21 104.896 76.52C104.506 76.83 104.181 77.23 103.921 77.72L103.936 81.41C103.936 81.61 103.931 81.79 103.921 81.95C103.921 82.1 103.906 82.26 103.876 82.43C104.036 82.42 104.191 82.415 104.341 82.415C104.501 82.405 104.661 82.395 104.821 82.385V83H101.746V82.55ZM116.136 83C116.106 82.83 116.086 82.68 116.076 82.55C116.066 82.42 116.051 82.285 116.031 82.145C115.691 82.485 115.321 82.755 114.921 82.955C114.531 83.145 114.116 83.24 113.676 83.24C112.916 83.24 112.351 83.07 111.981 82.73C111.611 82.38 111.426 81.955 111.426 81.455C111.426 80.995 111.566 80.6 111.846 80.27C112.136 79.93 112.506 79.655 112.956 79.445C113.416 79.225 113.911 79.065 114.441 78.965C114.981 78.855 115.501 78.805 116.001 78.815V77.885C116.001 77.535 115.971 77.205 115.911 76.895C115.851 76.585 115.721 76.33 115.521 76.13C115.321 75.93 115.001 75.825 114.561 75.815C114.271 75.805 113.971 75.86 113.661 75.98C113.361 76.1 113.141 76.305 113.001 76.595C113.081 76.675 113.131 76.77 113.151 76.88C113.181 76.98 113.196 77.075 113.196 77.165C113.196 77.285 113.146 77.425 113.046 77.585C112.946 77.735 112.771 77.805 112.521 77.795C112.311 77.795 112.151 77.725 112.041 77.585C111.931 77.435 111.876 77.26 111.876 77.06C111.876 76.72 112.001 76.415 112.251 76.145C112.511 75.875 112.866 75.66 113.316 75.5C113.766 75.34 114.276 75.26 114.846 75.26C115.686 75.26 116.306 75.485 116.706 75.935C117.106 76.375 117.301 77.075 117.291 78.035C117.291 78.595 117.286 79.16 117.276 79.73C117.276 80.29 117.276 80.85 117.276 81.41C117.276 81.57 117.271 81.73 117.261 81.89C117.251 82.05 117.236 82.23 117.216 82.43C117.396 82.42 117.571 82.41 117.741 82.4C117.921 82.39 118.101 82.38 118.281 82.37V83H116.136ZM116.001 79.325C115.661 79.335 115.301 79.38 114.921 79.46C114.551 79.53 114.206 79.64 113.886 79.79C113.576 79.94 113.321 80.14 113.121 80.39C112.931 80.63 112.841 80.925 112.851 81.275C112.871 81.645 112.991 81.925 113.211 82.115C113.441 82.295 113.711 82.385 114.021 82.385C114.431 82.385 114.786 82.31 115.086 82.16C115.396 82 115.701 81.78 116.001 81.5C115.991 81.39 115.986 81.27 115.986 81.14C115.986 81.01 115.986 80.875 115.986 80.735C115.986 80.685 115.986 80.525 115.986 80.255C115.996 79.985 116.001 79.675 116.001 79.325ZM3.24 104.045L1.275 98.285C1.165 97.965 1.08 97.715 1.02 97.535C0.96 97.345 0.915 97.19 0.885 97.07L0.09 97.115V96.5H3.27V96.95C2.82 96.96 2.57 97.115 2.52 97.415C2.48 97.705 2.54 98.09 2.7 98.57L3.39 100.67C3.47 100.91 3.55 101.155 3.63 101.405C3.71 101.645 3.79 101.885 3.87 102.125C3.96 101.855 4.05 101.585 4.14 101.315C4.24 101.035 4.335 100.755 4.425 100.475L5.76 96.5H6.375L7.89 100.865C7.97 101.085 8.05 101.31 8.13 101.54C8.21 101.77 8.29 102 8.37 102.23C8.45 102.01 8.525 101.795 8.595 101.585C8.675 101.365 8.75 101.145 8.82 100.925L9.81 98.075C9.88 97.875 9.95 97.685 10.02 97.505C10.09 97.325 10.17 97.18 10.26 97.07L9.39 97.115V96.5H12V96.95C11.66 96.97 11.395 97.03 11.205 97.13C11.015 97.23 10.87 97.365 10.77 97.535C10.67 97.695 10.575 97.895 10.485 98.135L8.325 104.045H7.725L6.3 99.95C6.21 99.69 6.12 99.43 6.03 99.17C5.94 98.9 5.85 98.635 5.76 98.375C5.67 98.635 5.58 98.9 5.49 99.17C5.4 99.43 5.31 99.69 5.22 99.95L3.81 104.045H3.24ZM15.8259 104.24C15.1359 104.24 14.5109 104.08 13.9509 103.76C13.4009 103.43 12.9659 102.97 12.6459 102.38C12.3259 101.78 12.1659 101.075 12.1659 100.265C12.1659 99.565 12.3209 98.91 12.6309 98.3C12.9509 97.69 13.3959 97.2 13.9659 96.83C14.5359 96.45 15.1959 96.26 15.9459 96.26C16.5059 96.26 17.0159 96.38 17.4759 96.62C17.9359 96.86 18.3009 97.225 18.5709 97.715C18.8509 98.205 18.9909 98.825 18.9909 99.575L13.7109 99.665C13.7009 100.815 13.8909 101.74 14.2809 102.44C14.6709 103.13 15.3059 103.475 16.1859 103.475C16.4959 103.475 16.8109 103.42 17.1309 103.31C17.4609 103.2 17.7659 103.05 18.0459 102.86C18.3259 102.67 18.5509 102.46 18.7209 102.23L19.0809 102.53C18.8109 102.95 18.4859 103.285 18.1059 103.535C17.7259 103.785 17.3359 103.965 16.9359 104.075C16.5359 104.185 16.1659 104.24 15.8259 104.24ZM13.7559 99.035H17.5809C17.5809 98.675 17.5259 98.33 17.4159 98C17.3159 97.66 17.1459 97.385 16.9059 97.175C16.6659 96.955 16.3509 96.845 15.9609 96.845C15.3809 96.845 14.8959 97.02 14.5059 97.37C14.1259 97.71 13.8759 98.265 13.7559 99.035ZM23.1626 104.24C22.5526 104.24 22.0026 104.09 21.5126 103.79C21.0226 103.48 20.6326 103.04 20.3426 102.47C20.0626 101.9 19.9226 101.23 19.9226 100.46C19.9226 99.64 20.0876 98.915 20.4176 98.285C20.7476 97.655 21.2026 97.16 21.7826 96.8C22.3726 96.44 23.0376 96.26 23.7776 96.26C24.1076 96.26 24.4326 96.305 24.7526 96.395C25.0826 96.475 25.3426 96.57 25.5326 96.68V94.625C25.5326 94.465 25.5326 94.315 25.5326 94.175C25.5426 94.025 25.5576 93.85 25.5776 93.65C25.3976 93.66 25.2176 93.67 25.0376 93.68C24.8676 93.69 24.6926 93.7 24.5126 93.71V93.08C24.9526 93.08 25.2926 93.06 25.5326 93.02C25.7726 92.98 25.9526 92.93 26.0726 92.87C26.2026 92.81 26.3026 92.745 26.3726 92.675H26.8076V102.41C26.8076 102.57 26.8026 102.73 26.7926 102.89C26.7826 103.05 26.7676 103.23 26.7476 103.43C26.9276 103.42 27.1026 103.41 27.2726 103.4C27.4526 103.39 27.6326 103.38 27.8126 103.37V104H25.6676C25.6176 103.73 25.5826 103.47 25.5626 103.22C25.2826 103.53 24.9376 103.78 24.5276 103.97C24.1176 104.15 23.6626 104.24 23.1626 104.24ZM23.7026 103.505C24.0326 103.505 24.3626 103.41 24.6926 103.22C25.0326 103.03 25.3126 102.795 25.5326 102.515C25.5226 102.395 25.5176 102.27 25.5176 102.14C25.5176 102 25.5176 101.85 25.5176 101.69L25.5326 97.37C25.2926 97.19 25.0276 97.06 24.7376 96.98C24.4576 96.89 24.1676 96.845 23.8676 96.845C23.3676 96.845 22.9326 96.99 22.5626 97.28C22.1926 97.57 21.9126 97.975 21.7226 98.495C21.5326 99.015 21.4476 99.625 21.4676 100.325C21.4876 100.935 21.5826 101.48 21.7526 101.96C21.9326 102.44 22.1826 102.82 22.5026 103.1C22.8326 103.37 23.2326 103.505 23.7026 103.505ZM31.8274 104.24C31.2174 104.24 30.6674 104.09 30.1774 103.79C29.6874 103.48 29.2974 103.04 29.0074 102.47C28.7274 101.9 28.5874 101.23 28.5874 100.46C28.5874 99.64 28.7524 98.915 29.0824 98.285C29.4124 97.655 29.8674 97.16 30.4474 96.8C31.0374 96.44 31.7024 96.26 32.4424 96.26C32.7724 96.26 33.0974 96.305 33.4174 96.395C33.7474 96.475 34.0074 96.57 34.1974 96.68V94.625C34.1974 94.465 34.1974 94.315 34.1974 94.175C34.2074 94.025 34.2224 93.85 34.2424 93.65C34.0624 93.66 33.8824 93.67 33.7024 93.68C33.5324 93.69 33.3574 93.7 33.1774 93.71V93.08C33.6174 93.08 33.9574 93.06 34.1974 93.02C34.4374 92.98 34.6174 92.93 34.7374 92.87C34.8674 92.81 34.9674 92.745 35.0374 92.675H35.4724V102.41C35.4724 102.57 35.4674 102.73 35.4574 102.89C35.4474 103.05 35.4324 103.23 35.4124 103.43C35.5924 103.42 35.7674 103.41 35.9374 103.4C36.1174 103.39 36.2974 103.38 36.4774 103.37V104H34.3324C34.2824 103.73 34.2474 103.47 34.2274 103.22C33.9474 103.53 33.6024 103.78 33.1924 103.97C32.7824 104.15 32.3274 104.24 31.8274 104.24ZM32.3674 103.505C32.6974 103.505 33.0274 103.41 33.3574 103.22C33.6974 103.03 33.9774 102.795 34.1974 102.515C34.1874 102.395 34.1824 102.27 34.1824 102.14C34.1824 102 34.1824 101.85 34.1824 101.69L34.1974 97.37C33.9574 97.19 33.6924 97.06 33.4024 96.98C33.1224 96.89 32.8324 96.845 32.5324 96.845C32.0324 96.845 31.5974 96.99 31.2274 97.28C30.8574 97.57 30.5774 97.975 30.3874 98.495C30.1974 99.015 30.1124 99.625 30.1324 100.325C30.1524 100.935 30.2474 101.48 30.4174 101.96C30.5974 102.44 30.8474 102.82 31.1674 103.1C31.4974 103.37 31.8974 103.505 32.3674 103.505ZM37.2823 103.55C37.5923 103.55 37.8073 103.475 37.9273 103.325C38.0473 103.165 38.1173 102.95 38.1373 102.68C38.1573 102.4 38.1673 102.08 38.1673 101.72V98.3C38.1673 98.14 38.1723 97.99 38.1823 97.85C38.1923 97.7 38.2073 97.525 38.2273 97.325C38.0473 97.335 37.8673 97.345 37.6873 97.355C37.5173 97.365 37.3423 97.375 37.1623 97.385V96.755C37.6023 96.755 37.9423 96.735 38.1823 96.695C38.4223 96.655 38.6023 96.605 38.7223 96.545C38.8523 96.485 38.9523 96.42 39.0223 96.35H39.4573V102.41C39.4573 102.61 39.4523 102.79 39.4423 102.95C39.4423 103.1 39.4273 103.26 39.3973 103.43C39.5573 103.42 39.7123 103.415 39.8623 103.415C40.0223 103.405 40.1823 103.395 40.3423 103.385V104H37.2823V103.55ZM38.7373 94.865C38.5273 94.865 38.3423 94.78 38.1823 94.61C38.0223 94.44 37.9423 94.23 37.9423 93.98C37.9423 93.73 38.0223 93.52 38.1823 93.35C38.3523 93.17 38.5423 93.08 38.7523 93.08C38.9823 93.08 39.1723 93.17 39.3223 93.35C39.4823 93.52 39.5623 93.73 39.5623 93.98C39.5623 94.23 39.4773 94.44 39.3073 94.61C39.1473 94.78 38.9573 94.865 38.7373 94.865ZM41.201 104V103.55C41.511 103.55 41.726 103.475 41.846 103.325C41.966 103.165 42.036 102.95 42.056 102.68C42.076 102.4 42.086 102.08 42.086 101.72L42.101 98.3C42.101 98.14 42.101 97.98 42.101 97.82C42.111 97.66 42.131 97.495 42.161 97.325C41.981 97.335 41.801 97.345 41.621 97.355C41.451 97.365 41.276 97.375 41.096 97.385V96.755C41.536 96.755 41.866 96.735 42.086 96.695C42.316 96.655 42.486 96.605 42.596 96.545C42.706 96.485 42.796 96.42 42.866 96.35H43.301C43.321 96.46 43.331 96.59 43.331 96.74C43.341 96.88 43.351 97.055 43.361 97.265C43.681 96.975 44.061 96.735 44.501 96.545C44.941 96.355 45.376 96.26 45.806 96.26C46.676 96.26 47.311 96.535 47.711 97.085C48.111 97.625 48.311 98.47 48.311 99.62V102.41C48.311 102.61 48.306 102.79 48.296 102.95C48.296 103.1 48.281 103.26 48.251 103.43C48.411 103.42 48.566 103.415 48.716 103.415C48.876 103.405 49.036 103.395 49.196 103.385V104H46.136V103.55C46.446 103.55 46.661 103.475 46.781 103.325C46.901 103.165 46.971 102.95 46.991 102.68C47.011 102.4 47.021 102.08 47.021 101.72V99.62C47.011 98.76 46.866 98.11 46.586 97.67C46.316 97.23 45.886 97.015 45.296 97.025C44.936 97.035 44.581 97.13 44.231 97.31C43.891 97.49 43.606 97.72 43.376 98C43.386 98.08 43.391 98.17 43.391 98.27C43.391 98.37 43.391 98.475 43.391 98.585L43.376 102.41C43.376 102.61 43.371 102.79 43.361 102.95C43.361 103.1 43.346 103.26 43.316 103.43C43.476 103.42 43.631 103.415 43.781 103.415C43.941 103.405 44.101 103.395 44.261 103.385V104H41.201ZM53.6273 108.065C52.7273 108.065 52.0023 107.965 51.4523 107.765C50.9023 107.565 50.5023 107.31 50.2523 107C50.0023 106.69 49.8773 106.37 49.8773 106.04C49.8773 105.73 49.9473 105.455 50.0873 105.215C50.2373 104.985 50.4173 104.785 50.6273 104.615C50.8473 104.445 51.0573 104.32 51.2573 104.24C50.9373 104.13 50.6823 103.985 50.4923 103.805C50.3123 103.615 50.2223 103.365 50.2223 103.055C50.2223 102.705 50.3623 102.38 50.6423 102.08C50.9223 101.77 51.2823 101.58 51.7223 101.51C51.2623 101.29 50.8923 100.985 50.6123 100.595C50.3423 100.205 50.2073 99.75 50.2073 99.23C50.2073 98.63 50.3623 98.11 50.6723 97.67C50.9823 97.22 51.3773 96.875 51.8573 96.635C52.3473 96.385 52.8523 96.26 53.3723 96.26C54.0523 96.26 54.6873 96.445 55.2773 96.815C55.4273 96.395 55.6673 96.05 55.9973 95.78C56.3273 95.5 56.6923 95.36 57.0923 95.36C57.3523 95.36 57.5473 95.43 57.6773 95.57C57.8173 95.7 57.8873 95.88 57.8873 96.11C57.8873 96.22 57.8373 96.355 57.7373 96.515C57.6473 96.665 57.4823 96.735 57.2423 96.725C57.0723 96.725 56.9323 96.675 56.8223 96.575C56.7123 96.475 56.6423 96.35 56.6123 96.2C56.3623 96.24 56.1673 96.36 56.0273 96.56C55.8873 96.75 55.7923 96.96 55.7423 97.19C55.9823 97.41 56.1723 97.675 56.3123 97.985C56.4623 98.295 56.5373 98.625 56.5373 98.975C56.5373 99.535 56.3873 100.035 56.0873 100.475C55.7973 100.915 55.4123 101.26 54.9323 101.51C54.4523 101.75 53.9323 101.87 53.3723 101.87C53.1823 101.87 53.0173 101.86 52.8773 101.84C52.7373 101.81 52.5673 101.795 52.3673 101.795C51.9973 101.795 51.6973 101.885 51.4673 102.065C51.2373 102.245 51.1573 102.46 51.2273 102.71C51.3073 102.95 51.5523 103.105 51.9623 103.175C52.3723 103.235 52.9223 103.28 53.6123 103.31C54.3823 103.34 55.0423 103.43 55.5923 103.58C56.1423 103.73 56.5623 103.96 56.8523 104.27C57.1523 104.59 57.3023 105.02 57.3023 105.56C57.3023 105.96 57.1923 106.315 56.9723 106.625C56.7623 106.945 56.4773 107.21 56.1173 107.42C55.7673 107.63 55.3723 107.79 54.9323 107.9C54.5023 108.01 54.0673 108.065 53.6273 108.065ZM53.4173 101.33C53.9773 101.33 54.3923 101.135 54.6623 100.745C54.9423 100.345 55.0823 99.855 55.0823 99.275C55.0823 98.835 55.0173 98.425 54.8873 98.045C54.7573 97.665 54.5623 97.36 54.3023 97.13C54.0523 96.9 53.7323 96.785 53.3423 96.785C52.8023 96.785 52.3823 96.99 52.0823 97.4C51.7923 97.8 51.6473 98.3 51.6473 98.9C51.6473 99.62 51.8023 100.205 52.1123 100.655C52.4223 101.105 52.8573 101.33 53.4173 101.33ZM53.6123 107.48C54.4723 107.48 55.1423 107.32 55.6223 107C56.1023 106.68 56.3423 106.305 56.3423 105.875C56.3423 105.505 56.2173 105.22 55.9673 105.02C55.7173 104.83 55.3773 104.695 54.9473 104.615C54.5173 104.545 54.0223 104.505 53.4623 104.495C53.1923 104.485 52.9273 104.47 52.6673 104.45C52.4073 104.44 52.1573 104.415 51.9173 104.375C51.3473 104.755 51.0623 105.25 51.0623 105.86C51.0623 106.35 51.2923 106.74 51.7523 107.03C52.2223 107.33 52.8423 107.48 53.6123 107.48ZM59.1134 106.685L58.7084 106.385C58.8184 106.245 58.9334 106.045 59.0534 105.785C59.1734 105.525 59.2684 105.235 59.3384 104.915C59.4184 104.605 59.4384 104.3 59.3984 104C59.2684 104.06 59.1434 104.09 59.0234 104.09C58.8334 104.09 58.6684 104.02 58.5284 103.88C58.3984 103.74 58.3334 103.565 58.3334 103.355C58.3334 103.075 58.4134 102.86 58.5734 102.71C58.7434 102.56 58.9384 102.485 59.1584 102.485C59.5084 102.485 59.7734 102.62 59.9534 102.89C60.1334 103.15 60.2234 103.47 60.2234 103.85C60.2234 104.1 60.1734 104.405 60.0734 104.765C59.9834 105.125 59.8534 105.475 59.6834 105.815C59.5234 106.165 59.3334 106.455 59.1134 106.685ZM64.3877 104V103.505C64.6877 103.505 64.9177 103.425 65.0777 103.265C65.2377 103.105 65.3677 102.885 65.4677 102.605C65.5777 102.325 65.7027 102 65.8427 101.63L68.9327 93.215H69.2927L72.6377 101.75C72.7177 101.96 72.8077 102.23 72.9077 102.56C73.0077 102.89 73.0477 103.17 73.0277 103.4C73.1977 103.39 73.3677 103.38 73.5377 103.37C73.7077 103.36 73.8777 103.35 74.0477 103.34V104H70.6127V103.505C70.9927 103.495 71.2427 103.41 71.3627 103.25C71.4827 103.09 71.5277 102.9 71.4977 102.68C71.4677 102.46 71.4177 102.26 71.3477 102.08L70.8227 100.67L66.9227 100.76L66.3977 102.365C66.3277 102.605 66.2627 102.795 66.2027 102.935C66.1527 103.075 66.0927 103.23 66.0227 103.4C66.2227 103.39 66.4177 103.38 66.6077 103.37C66.8077 103.36 67.0027 103.35 67.1927 103.34V104H64.3877ZM67.1477 100.115H70.6127L69.5477 97.25C69.4377 96.94 69.3227 96.635 69.2027 96.335C69.0927 96.025 68.9827 95.715 68.8727 95.405H68.8427C68.7427 95.685 68.6377 95.965 68.5277 96.245C68.4277 96.525 68.3227 96.81 68.2127 97.1L67.1477 100.115ZM74.2274 104V103.55C74.5374 103.55 74.7524 103.475 74.8724 103.325C74.9924 103.165 75.0624 102.95 75.0824 102.68C75.1024 102.4 75.1124 102.08 75.1124 101.72L75.1274 98.3C75.1274 98.14 75.1274 97.98 75.1274 97.82C75.1374 97.66 75.1574 97.495 75.1874 97.325C75.0074 97.335 74.8274 97.345 74.6474 97.355C74.4774 97.365 74.3024 97.375 74.1224 97.385V96.755C74.5624 96.755 74.8924 96.735 75.1124 96.695C75.3424 96.655 75.5124 96.605 75.6224 96.545C75.7324 96.485 75.8224 96.42 75.8924 96.35H76.3274C76.3474 96.46 76.3574 96.59 76.3574 96.74C76.3674 96.88 76.3774 97.055 76.3874 97.265C76.7074 96.975 77.0874 96.735 77.5274 96.545C77.9674 96.355 78.4024 96.26 78.8324 96.26C79.7024 96.26 80.3374 96.535 80.7374 97.085C81.1374 97.625 81.3374 98.47 81.3374 99.62V102.41C81.3374 102.61 81.3324 102.79 81.3224 102.95C81.3224 103.1 81.3074 103.26 81.2774 103.43C81.4374 103.42 81.5924 103.415 81.7424 103.415C81.9024 103.405 82.0624 103.395 82.2224 103.385V104H79.1624V103.55C79.4724 103.55 79.6874 103.475 79.8074 103.325C79.9274 103.165 79.9974 102.95 80.0174 102.68C80.0374 102.4 80.0474 102.08 80.0474 101.72V99.62C80.0374 98.76 79.8924 98.11 79.6124 97.67C79.3424 97.23 78.9124 97.015 78.3224 97.025C77.9624 97.035 77.6074 97.13 77.2574 97.31C76.9174 97.49 76.6324 97.72 76.4024 98C76.4124 98.08 76.4174 98.17 76.4174 98.27C76.4174 98.37 76.4174 98.475 76.4174 98.585L76.4024 102.41C76.4024 102.61 76.3974 102.79 76.3874 102.95C76.3874 103.1 76.3724 103.26 76.3424 103.43C76.5024 103.42 76.6574 103.415 76.8074 103.415C76.9674 103.405 77.1274 103.395 77.2874 103.385V104H74.2274ZM86.2487 104.24C85.6387 104.24 85.0887 104.09 84.5987 103.79C84.1087 103.48 83.7187 103.04 83.4287 102.47C83.1487 101.9 83.0087 101.23 83.0087 100.46C83.0087 99.64 83.1737 98.915 83.5037 98.285C83.8337 97.655 84.2887 97.16 84.8687 96.8C85.4587 96.44 86.1237 96.26 86.8637 96.26C87.1937 96.26 87.5187 96.305 87.8387 96.395C88.1687 96.475 88.4287 96.57 88.6187 96.68V94.625C88.6187 94.465 88.6187 94.315 88.6187 94.175C88.6287 94.025 88.6437 93.85 88.6637 93.65C88.4837 93.66 88.3037 93.67 88.1237 93.68C87.9537 93.69 87.7787 93.7 87.5987 93.71V93.08C88.0387 93.08 88.3787 93.06 88.6187 93.02C88.8587 92.98 89.0387 92.93 89.1587 92.87C89.2887 92.81 89.3887 92.745 89.4587 92.675H89.8937V102.41C89.8937 102.57 89.8887 102.73 89.8787 102.89C89.8687 103.05 89.8537 103.23 89.8337 103.43C90.0137 103.42 90.1887 103.41 90.3587 103.4C90.5387 103.39 90.7187 103.38 90.8987 103.37V104H88.7537C88.7037 103.73 88.6687 103.47 88.6487 103.22C88.3687 103.53 88.0237 103.78 87.6137 103.97C87.2037 104.15 86.7487 104.24 86.2487 104.24ZM86.7887 103.505C87.1187 103.505 87.4487 103.41 87.7787 103.22C88.1187 103.03 88.3987 102.795 88.6187 102.515C88.6087 102.395 88.6037 102.27 88.6037 102.14C88.6037 102 88.6037 101.85 88.6037 101.69L88.6187 97.37C88.3787 97.19 88.1137 97.06 87.8237 96.98C87.5437 96.89 87.2537 96.845 86.9537 96.845C86.4537 96.845 86.0187 96.99 85.6487 97.28C85.2787 97.57 84.9987 97.975 84.8087 98.495C84.6187 99.015 84.5337 99.625 84.5537 100.325C84.5737 100.935 84.6687 101.48 84.8387 101.96C85.0187 102.44 85.2687 102.82 85.5887 103.1C85.9187 103.37 86.3187 103.505 86.7887 103.505ZM96.289 96.185C96.289 95.075 96.489 94.2 96.889 93.56C97.299 92.92 97.999 92.6 98.989 92.6C99.209 92.6 99.439 92.64 99.679 92.72C99.929 92.79 100.144 92.91 100.324 93.08C100.504 93.24 100.594 93.45 100.594 93.71C100.594 93.9 100.539 94.06 100.429 94.19C100.329 94.32 100.179 94.385 99.979 94.385C99.739 94.395 99.569 94.325 99.469 94.175C99.379 94.015 99.334 93.88 99.334 93.77C99.334 93.71 99.339 93.65 99.349 93.59C99.359 93.53 99.379 93.465 99.409 93.395C99.339 93.305 99.239 93.24 99.109 93.2C98.989 93.16 98.874 93.14 98.764 93.14C98.454 93.14 98.214 93.23 98.044 93.41C97.874 93.59 97.754 93.815 97.684 94.085C97.614 94.355 97.579 94.635 97.579 94.925V96.5H99.604V97.085L97.579 97.13L97.594 102.41C97.594 102.61 97.589 102.79 97.579 102.95C97.579 103.1 97.564 103.26 97.534 103.43C97.694 103.42 97.849 103.415 97.999 103.415C98.159 103.405 98.319 103.395 98.479 103.385V104H95.419V103.55C95.729 103.55 95.944 103.475 96.064 103.325C96.184 103.165 96.254 102.95 96.274 102.68C96.294 102.4 96.304 102.08 96.304 101.72L96.289 97.145L95.059 97.175V96.5H96.289V96.185ZM103.759 104.24C103.059 104.24 102.424 104.08 101.854 103.76C101.284 103.43 100.829 102.98 100.489 102.41C100.159 101.83 99.9941 101.17 99.9941 100.43C99.9941 99.64 100.159 98.93 100.489 98.3C100.819 97.67 101.269 97.175 101.839 96.815C102.409 96.445 103.049 96.26 103.759 96.26C104.459 96.26 105.094 96.43 105.664 96.77C106.234 97.1 106.689 97.55 107.029 98.12C107.369 98.69 107.539 99.34 107.539 100.07C107.539 100.84 107.369 101.545 107.029 102.185C106.699 102.815 106.249 103.315 105.679 103.685C105.109 104.055 104.469 104.24 103.759 104.24ZM103.879 103.64C104.409 103.64 104.829 103.49 105.139 103.19C105.449 102.89 105.669 102.5 105.799 102.02C105.939 101.54 106.009 101.035 106.009 100.505C106.009 100.055 105.964 99.615 105.874 99.185C105.794 98.745 105.664 98.35 105.484 98C105.304 97.64 105.069 97.355 104.779 97.145C104.499 96.935 104.159 96.83 103.759 96.83C103.239 96.83 102.814 96.98 102.484 97.28C102.154 97.58 101.909 97.97 101.749 98.45C101.599 98.93 101.524 99.445 101.524 99.995C101.524 100.615 101.609 101.205 101.779 101.765C101.949 102.315 102.209 102.765 102.559 103.115C102.909 103.465 103.349 103.64 103.879 103.64ZM111.679 104.24C111.139 104.24 110.684 104.14 110.314 103.94C109.954 103.74 109.679 103.4 109.489 102.92C109.309 102.44 109.219 101.79 109.219 100.97V98.3C109.219 98.14 109.219 97.98 109.219 97.82C109.229 97.66 109.249 97.495 109.279 97.325C109.109 97.335 108.934 97.345 108.754 97.355C108.584 97.355 108.414 97.36 108.244 97.37V96.755H108.709C109.139 96.755 109.449 96.715 109.639 96.635C109.839 96.545 109.994 96.45 110.104 96.35H110.539V100.925C110.539 101.785 110.659 102.43 110.899 102.86C111.149 103.28 111.569 103.485 112.159 103.475C112.539 103.465 112.899 103.35 113.239 103.13C113.589 102.9 113.869 102.63 114.079 102.32V98.465C114.079 98.225 114.084 98.02 114.094 97.85C114.104 97.67 114.124 97.495 114.154 97.325C113.974 97.335 113.794 97.345 113.614 97.355C113.434 97.355 113.254 97.36 113.074 97.37V96.755H113.539C113.969 96.755 114.279 96.715 114.469 96.635C114.669 96.545 114.824 96.45 114.934 96.35H115.369L115.354 102.02C115.354 102.18 115.349 102.405 115.339 102.695C115.329 102.985 115.314 103.23 115.294 103.43C115.474 103.42 115.654 103.41 115.834 103.4C116.014 103.39 116.194 103.38 116.374 103.37V104H114.229C114.199 103.83 114.174 103.67 114.154 103.52C114.144 103.37 114.134 103.23 114.124 103.1C113.814 103.41 113.439 103.68 112.999 103.91C112.559 104.13 112.119 104.24 111.679 104.24ZM117.164 103.55C117.474 103.55 117.689 103.475 117.809 103.325C117.929 103.165 117.999 102.95 118.019 102.68C118.039 102.4 118.049 102.08 118.049 101.72V98.3C118.049 98.14 118.049 97.98 118.049 97.82C118.059 97.66 118.079 97.495 118.109 97.325C117.929 97.335 117.749 97.345 117.569 97.355C117.399 97.355 117.224 97.36 117.044 97.37V96.755H117.509C117.939 96.755 118.234 96.715 118.394 96.635C118.564 96.545 118.704 96.45 118.814 96.35H119.249C119.269 96.51 119.284 96.71 119.294 96.95C119.304 97.18 119.314 97.475 119.324 97.835C119.474 97.585 119.679 97.34 119.939 97.1C120.199 96.86 120.489 96.66 120.809 96.5C121.139 96.34 121.484 96.26 121.844 96.26C122.124 96.26 122.369 96.335 122.579 96.485C122.789 96.635 122.894 96.875 122.894 97.205C122.894 97.335 122.834 97.49 122.714 97.67C122.604 97.85 122.414 97.935 122.144 97.925C121.924 97.915 121.749 97.83 121.619 97.67C121.489 97.5 121.439 97.305 121.469 97.085C121.089 97.065 120.704 97.21 120.314 97.52C119.924 97.83 119.599 98.23 119.339 98.72L119.354 102.41C119.354 102.61 119.349 102.79 119.339 102.95C119.339 103.1 119.324 103.26 119.294 103.43C119.454 103.42 119.609 103.415 119.759 103.415C119.919 103.405 120.079 103.395 120.239 103.385V104H117.164V103.55ZM127.938 96.185C127.938 95.075 128.138 94.2 128.538 93.56C128.948 92.92 129.648 92.6 130.638 92.6C130.858 92.6 131.088 92.64 131.328 92.72C131.578 92.79 131.793 92.91 131.973 93.08C132.153 93.24 132.243 93.45 132.243 93.71C132.243 93.9 132.188 94.06 132.078 94.19C131.978 94.32 131.828 94.385 131.628 94.385C131.388 94.395 131.218 94.325 131.118 94.175C131.028 94.015 130.983 93.88 130.983 93.77C130.983 93.71 130.988 93.65 130.998 93.59C131.008 93.53 131.028 93.465 131.058 93.395C130.988 93.305 130.888 93.24 130.758 93.2C130.638 93.16 130.523 93.14 130.413 93.14C130.103 93.14 129.863 93.23 129.693 93.41C129.523 93.59 129.403 93.815 129.333 94.085C129.263 94.355 129.228 94.635 129.228 94.925V96.5H131.253V97.085L129.228 97.13L129.243 102.41C129.243 102.61 129.238 102.79 129.228 102.95C129.228 103.1 129.213 103.26 129.183 103.43C129.343 103.42 129.498 103.415 129.648 103.415C129.808 103.405 129.968 103.395 130.128 103.385V104H127.068V103.55C127.378 103.55 127.593 103.475 127.713 103.325C127.833 103.165 127.903 102.95 127.923 102.68C127.943 102.4 127.953 102.08 127.953 101.72L127.938 97.145L126.708 97.175V96.5H127.938V96.185ZM135.409 104.24C134.709 104.24 134.074 104.08 133.504 103.76C132.934 103.43 132.479 102.98 132.139 102.41C131.809 101.83 131.644 101.17 131.644 100.43C131.644 99.64 131.809 98.93 132.139 98.3C132.469 97.67 132.919 97.175 133.489 96.815C134.059 96.445 134.699 96.26 135.409 96.26C136.109 96.26 136.744 96.43 137.314 96.77C137.884 97.1 138.339 97.55 138.679 98.12C139.019 98.69 139.189 99.34 139.189 100.07C139.189 100.84 139.019 101.545 138.679 102.185C138.349 102.815 137.899 103.315 137.329 103.685C136.759 104.055 136.119 104.24 135.409 104.24ZM135.529 103.64C136.059 103.64 136.479 103.49 136.789 103.19C137.099 102.89 137.319 102.5 137.449 102.02C137.589 101.54 137.659 101.035 137.659 100.505C137.659 100.055 137.614 99.615 137.524 99.185C137.444 98.745 137.314 98.35 137.134 98C136.954 97.64 136.719 97.355 136.429 97.145C136.149 96.935 135.809 96.83 135.409 96.83C134.889 96.83 134.464 96.98 134.134 97.28C133.804 97.58 133.559 97.97 133.399 98.45C133.249 98.93 133.174 99.445 133.174 99.995C133.174 100.615 133.259 101.205 133.429 101.765C133.599 102.315 133.859 102.765 134.209 103.115C134.559 103.465 134.999 103.64 135.529 103.64ZM140.163 103.55C140.473 103.55 140.688 103.475 140.808 103.325C140.928 103.165 140.998 102.95 141.018 102.68C141.038 102.4 141.048 102.08 141.048 101.72V98.3C141.048 98.14 141.048 97.98 141.048 97.82C141.058 97.66 141.078 97.495 141.108 97.325C140.928 97.335 140.748 97.345 140.568 97.355C140.398 97.355 140.223 97.36 140.043 97.37V96.755H140.508C140.938 96.755 141.233 96.715 141.393 96.635C141.563 96.545 141.703 96.45 141.813 96.35H142.248C142.268 96.51 142.283 96.71 142.293 96.95C142.303 97.18 142.313 97.475 142.323 97.835C142.473 97.585 142.678 97.34 142.938 97.1C143.198 96.86 143.488 96.66 143.808 96.5C144.138 96.34 144.483 96.26 144.843 96.26C145.123 96.26 145.368 96.335 145.578 96.485C145.788 96.635 145.893 96.875 145.893 97.205C145.893 97.335 145.833 97.49 145.713 97.67C145.603 97.85 145.413 97.935 145.143 97.925C144.923 97.915 144.748 97.83 144.618 97.67C144.488 97.5 144.438 97.305 144.468 97.085C144.088 97.065 143.703 97.21 143.313 97.52C142.923 97.83 142.598 98.23 142.338 98.72L142.353 102.41C142.353 102.61 142.348 102.79 142.338 102.95C142.338 103.1 142.323 103.26 142.293 103.43C142.453 103.42 142.608 103.415 142.758 103.415C142.918 103.405 143.078 103.395 143.238 103.385V104H140.163V103.55ZM3.87 125.24C3.26 125.24 2.71 125.09 2.22 124.79C1.73 124.48 1.34 124.04 1.05 123.47C0.77 122.9 0.63 122.23 0.63 121.46C0.63 120.64 0.795 119.915 1.125 119.285C1.455 118.655 1.91 118.16 2.49 117.8C3.08 117.44 3.745 117.26 4.485 117.26C4.815 117.26 5.14 117.305 5.46 117.395C5.79 117.475 6.05 117.57 6.24 117.68V115.625C6.24 115.465 6.24 115.315 6.24 115.175C6.25 115.025 6.265 114.85 6.285 114.65C6.105 114.66 5.925 114.67 5.745 114.68C5.575 114.69 5.4 114.7 5.22 114.71V114.08C5.66 114.08 6 114.06 6.24 114.02C6.48 113.98 6.66 113.93 6.78 113.87C6.91 113.81 7.01 113.745 7.08 113.675H7.515V123.41C7.515 123.57 7.51 123.73 7.5 123.89C7.49 124.05 7.475 124.23 7.455 124.43C7.635 124.42 7.81 124.41 7.98 124.4C8.16 124.39 8.34 124.38 8.52 124.37V125H6.375C6.325 124.73 6.29 124.47 6.27 124.22C5.99 124.53 5.645 124.78 5.235 124.97C4.825 125.15 4.37 125.24 3.87 125.24ZM4.41 124.505C4.74 124.505 5.07 124.41 5.4 124.22C5.74 124.03 6.02 123.795 6.24 123.515C6.23 123.395 6.225 123.27 6.225 123.14C6.225 123 6.225 122.85 6.225 122.69L6.24 118.37C6 118.19 5.735 118.06 5.445 117.98C5.165 117.89 4.875 117.845 4.575 117.845C4.075 117.845 3.64 117.99 3.27 118.28C2.9 118.57 2.62 118.975 2.43 119.495C2.24 120.015 2.155 120.625 2.175 121.325C2.195 121.935 2.29 122.48 2.46 122.96C2.64 123.44 2.89 123.82 3.21 124.1C3.54 124.37 3.94 124.505 4.41 124.505ZM12.9548 125.24C12.2648 125.24 11.6398 125.08 11.0798 124.76C10.5298 124.43 10.0948 123.97 9.77484 123.38C9.45484 122.78 9.29484 122.075 9.29484 121.265C9.29484 120.565 9.44984 119.91 9.75984 119.3C10.0798 118.69 10.5248 118.2 11.0948 117.83C11.6648 117.45 12.3248 117.26 13.0748 117.26C13.6348 117.26 14.1448 117.38 14.6048 117.62C15.0648 117.86 15.4298 118.225 15.6998 118.715C15.9798 119.205 16.1198 119.825 16.1198 120.575L10.8398 120.665C10.8298 121.815 11.0198 122.74 11.4098 123.44C11.7998 124.13 12.4348 124.475 13.3148 124.475C13.6248 124.475 13.9398 124.42 14.2598 124.31C14.5898 124.2 14.8948 124.05 15.1748 123.86C15.4548 123.67 15.6798 123.46 15.8498 123.23L16.2098 123.53C15.9398 123.95 15.6148 124.285 15.2348 124.535C14.8548 124.785 14.4648 124.965 14.0648 125.075C13.6648 125.185 13.2948 125.24 12.9548 125.24ZM10.8848 120.035H14.7098C14.7098 119.675 14.6548 119.33 14.5448 119C14.4448 118.66 14.2748 118.385 14.0348 118.175C13.7948 117.955 13.4798 117.845 13.0898 117.845C12.5098 117.845 12.0248 118.02 11.6348 118.37C11.2548 118.71 11.0048 119.265 10.8848 120.035ZM21.6854 125C21.6554 124.83 21.6354 124.68 21.6254 124.55C21.6154 124.42 21.6004 124.285 21.5804 124.145C21.2404 124.485 20.8704 124.755 20.4704 124.955C20.0804 125.145 19.6654 125.24 19.2254 125.24C18.4654 125.24 17.9004 125.07 17.5304 124.73C17.1604 124.38 16.9754 123.955 16.9754 123.455C16.9754 122.995 17.1154 122.6 17.3954 122.27C17.6854 121.93 18.0554 121.655 18.5054 121.445C18.9654 121.225 19.4604 121.065 19.9904 120.965C20.5304 120.855 21.0504 120.805 21.5504 120.815V119.885C21.5504 119.535 21.5204 119.205 21.4604 118.895C21.4004 118.585 21.2704 118.33 21.0704 118.13C20.8704 117.93 20.5504 117.825 20.1104 117.815C19.8204 117.805 19.5204 117.86 19.2104 117.98C18.9104 118.1 18.6904 118.305 18.5504 118.595C18.6304 118.675 18.6804 118.77 18.7004 118.88C18.7304 118.98 18.7454 119.075 18.7454 119.165C18.7454 119.285 18.6954 119.425 18.5954 119.585C18.4954 119.735 18.3204 119.805 18.0704 119.795C17.8604 119.795 17.7004 119.725 17.5904 119.585C17.4804 119.435 17.4254 119.26 17.4254 119.06C17.4254 118.72 17.5504 118.415 17.8004 118.145C18.0604 117.875 18.4154 117.66 18.8654 117.5C19.3154 117.34 19.8254 117.26 20.3954 117.26C21.2354 117.26 21.8554 117.485 22.2554 117.935C22.6554 118.375 22.8504 119.075 22.8404 120.035C22.8404 120.595 22.8354 121.16 22.8254 121.73C22.8254 122.29 22.8254 122.85 22.8254 123.41C22.8254 123.57 22.8204 123.73 22.8104 123.89C22.8004 124.05 22.7854 124.23 22.7654 124.43C22.9454 124.42 23.1204 124.41 23.2904 124.4C23.4704 124.39 23.6504 124.38 23.8304 124.37V125H21.6854ZM21.5504 121.325C21.2104 121.335 20.8504 121.38 20.4704 121.46C20.1004 121.53 19.7554 121.64 19.4354 121.79C19.1254 121.94 18.8704 122.14 18.6704 122.39C18.4804 122.63 18.3904 122.925 18.4004 123.275C18.4204 123.645 18.5404 123.925 18.7604 124.115C18.9904 124.295 19.2604 124.385 19.5704 124.385C19.9804 124.385 20.3354 124.31 20.6354 124.16C20.9454 124 21.2504 123.78 21.5504 123.5C21.5404 123.39 21.5354 123.27 21.5354 123.14C21.5354 123.01 21.5354 122.875 21.5354 122.735C21.5354 122.685 21.5354 122.525 21.5354 122.255C21.5454 121.985 21.5504 121.675 21.5504 121.325ZM27.2773 125.24C27.0473 125.24 26.8123 125.205 26.5723 125.135C26.3323 125.075 26.1073 124.95 25.8973 124.76C25.6973 124.57 25.5373 124.295 25.4173 123.935C25.2973 123.565 25.2373 123.08 25.2373 122.48L25.2673 118.13L24.1123 118.145V117.5C24.3723 117.49 24.6373 117.395 24.9073 117.215C25.1773 117.025 25.4173 116.77 25.6273 116.45C25.8473 116.13 25.9973 115.78 26.0773 115.4H26.5873V117.5H29.1073V118.085L26.5873 118.115L26.5573 122.285C26.5573 122.965 26.6423 123.485 26.8123 123.845C26.9923 124.205 27.2873 124.385 27.6973 124.385C27.9773 124.385 28.2373 124.305 28.4773 124.145C28.7273 123.985 28.9473 123.765 29.1373 123.485L29.5423 123.815C29.2523 124.255 28.9623 124.575 28.6723 124.775C28.3923 124.975 28.1323 125.1 27.8923 125.15C27.6523 125.21 27.4473 125.24 27.2773 125.24ZM34.773 124.55C35.083 124.55 35.298 124.475 35.418 124.325C35.538 124.165 35.608 123.95 35.628 123.68C35.648 123.4 35.658 123.08 35.658 122.72V120.62C35.658 119.76 35.518 119.115 35.238 118.685C34.968 118.255 34.538 118.045 33.948 118.055C33.578 118.065 33.213 118.155 32.853 118.325C32.503 118.495 32.218 118.715 31.998 118.985V123.41C31.998 123.61 31.993 123.79 31.983 123.95C31.973 124.1 31.953 124.26 31.923 124.43C32.083 124.42 32.238 124.415 32.388 124.415C32.548 124.405 32.708 124.395 32.868 124.385V125H29.808V124.55C30.118 124.55 30.333 124.475 30.453 124.325C30.573 124.165 30.643 123.95 30.663 123.68C30.693 123.4 30.708 123.08 30.708 122.72V115.625C30.708 115.465 30.708 115.315 30.708 115.175C30.718 115.025 30.733 114.85 30.753 114.65C30.573 114.66 30.393 114.67 30.213 114.68C30.043 114.69 29.868 114.7 29.688 114.71V114.08C30.128 114.08 30.468 114.06 30.708 114.02C30.958 113.98 31.143 113.93 31.263 113.87C31.393 113.81 31.493 113.745 31.563 113.675H31.998V118.25C32.328 117.97 32.713 117.735 33.153 117.545C33.593 117.355 34.028 117.26 34.458 117.26C35.328 117.26 35.953 117.535 36.333 118.085C36.723 118.625 36.923 119.47 36.933 120.62L36.948 123.41C36.948 123.61 36.943 123.79 36.933 123.95C36.933 124.1 36.918 124.26 36.888 124.43C37.048 124.42 37.203 124.415 37.353 124.415C37.513 124.405 37.673 124.395 37.833 124.385V125H34.773V124.55Z" fill="#2A2921"/>
</svg>
